<svg version="1.1" xmlns="http://www.w3.org/2000/svg" xmlns:xlink="http://www.w3.org/1999/xlink" width="80.07442" height="106.16031" viewBox="0,0,80.07442,106.16031"><g transform="translate(-204.67039,-112.60076)"><g data-paper-data="{&quot;isPaintingLayer&quot;:true}" fill-rule="nonzero" stroke="#000000" stroke-width="2" stroke-linejoin="miter" stroke-miterlimit="10" stroke-dasharray="" stroke-dashoffset="0" style="mix-blend-mode: normal"><path d="M227.80157,173.77232c1.49634,-1.49093 3.91801,-1.48654 5.40894,0.00981c1.49093,1.49634 1.48654,3.91801 -0.00981,5.40894c-1.49634,1.49093 -3.91801,1.48654 -5.40894,-0.00981c-1.49093,-1.49634 -1.48654,-3.91801 0.00981,-5.40894z" fill="#1d28e8" stroke-linecap="butt"/><path d="M263.79924,167.1569c-8.93733,2.06115 -17.85336,-3.51307 -19.91453,-12.45041c-2.06115,-8.93733 3.51307,-17.85336 12.45041,-19.91453c8.93733,-2.06115 17.85336,3.51307 19.91453,12.45041c2.06115,8.93733 -3.51307,17.85336 -12.45041,19.91453z" data-paper-data="{&quot;index&quot;:null}" fill="#1d28e8" stroke-linecap="butt"/><path d="M232.12725,188.84685l17.22565,-18.89049l5.80102,5.28977l-17.22565,18.89049z" fill="#1d28e8" stroke-linecap="butt"/><path d="M263.62091,184.43527c1.49634,-1.49093 3.91801,-1.48654 5.40894,0.00981c1.49093,1.49634 1.48654,3.91801 -0.00981,5.40894c-1.49634,1.49093 -3.91801,1.48654 -5.40894,-0.00981c-1.49093,-1.49634 -1.48654,-3.91801 0.00981,-5.40894z" fill="#1d28e8" stroke-linecap="butt"/><path d="M207.56725,205.16222c5.18811,-6.30881 12.35952,-4.82198 13.33785,-4.01744c2.53313,2.08313 0.63993,5.71877 -2.50243,9.53992c-3.14238,3.82116 -7.74325,5.23009 -10.27638,3.14696c-2.53314,-2.08314 -3.70141,-4.84829 -0.55906,-8.66944z" data-paper-data="{&quot;index&quot;:null}" fill="#1d28e8" stroke-linecap="butt"/><path d="M239.77813,143.92947l5.64962,-0.20108l-1.60333,-29.869l38.82252,8.527l-6.38466,24.02683z" data-paper-data="{&quot;index&quot;:null}" fill="#2530ff" stroke-linecap="round"/><g data-paper-data="{&quot;index&quot;:null}"><path d="M262.77711,142.15193c0,0 4.68652,0.28019 6.26117,0.63477c1.98766,0.44759 4.71694,1.83732 4.71694,1.83732" fill="none" stroke-linecap="round"/><path d="M278.39793,151.66757c-2.83252,-0.11799 -5.03305,-2.50984 -4.91505,-5.34235c0.11799,-2.83252 2.50984,-5.03305 5.34235,-4.91505c2.83252,0.11799 5.03305,2.50984 4.91505,5.34235c-0.11799,2.83252 -2.50984,5.03305 -5.34235,4.91505z" fill="#1d28e8" stroke-linecap="butt"/></g><path d="M243.8604,206.87168c0.1233,-5.88146 2.70059,-10.54305 5.75652,-10.41196c3.05594,0.13109 5.4333,5.00523 5.31,10.88669c-0.1233,5.88146 -2.70059,10.54305 -5.75652,10.41196c-3.05594,-0.13109 -5.4333,-5.00523 -5.31,-10.88669z" data-paper-data="{&quot;index&quot;:null}" fill="#1d28e8" stroke-linecap="butt"/></g></g></svg>