<svg version="1.1" xmlns="http://www.w3.org/2000/svg" xmlns:xlink="http://www.w3.org/1999/xlink" width="77.58111" height="85.59033" viewBox="0,0,77.58111,85.59033"><g transform="translate(-216.61985,-141.49467)"><g data-paper-data="{&quot;isPaintingLayer&quot;:true}" fill-rule="nonzero" stroke="#000000" stroke-width="2" stroke-linejoin="miter" stroke-miterlimit="10" stroke-dasharray="" stroke-dashoffset="0" style="mix-blend-mode: normal"><path d="M285.61389,183.05626c0.3818,-2.07753 2.37548,-3.4522 4.45301,-3.0704c2.07753,0.3818 3.4522,2.37548 3.0704,4.45301c-0.3818,2.07753 -2.37548,3.4522 -4.45301,3.0704c-2.07753,-0.3818 -3.4522,-2.37548 -3.0704,-4.45301z" fill="#2d6a2b" stroke-linecap="butt"/><path d="M235.98542,160.2359c1.24506,-9.08703 9.62088,-15.4442 18.7079,-14.19913c9.08703,1.24506 15.44419,9.62087 14.19913,18.70789c-1.24506,9.08703 -9.62087,15.4442 -18.7079,14.19913c-9.08703,-1.24506 -15.4442,-9.62087 -14.19913,-18.70789z" fill="#2d6a2b" stroke-linecap="butt"/><path d="M247.33042,143.23729c15.45881,-3.48815 24.43866,6.44408 24.43866,6.44408l-39.49649,10.96012c0,0 -1.56293,-13.65386 15.05784,-17.4042z" fill="#367e33" stroke-linecap="round"/><path d="M236.58867,204.24192l7.09283,-24.56146l7.5425,2.17811l-7.09282,24.56147z" fill="#2d6a2b" stroke-linecap="butt"/><path d="M222.15269,188.50985c0.28675,-2.09277 2.21572,-3.55685 4.30849,-3.2701c2.09277,0.28675 3.55685,2.21572 3.2701,4.30849c-0.28675,2.09277 -2.21572,3.55685 -4.30849,3.2701c-2.09277,-0.28675 -3.55685,-2.21572 -3.2701,-4.30849z" fill="#2d6a2b" stroke-linecap="butt"/><path d="M255.19247,214.2083c4.94728,0 6.34095,2.65869 6.34095,5.93835c0,3.27966 -4.01057,5.93835 -8.95785,5.93835c-4.94728,0 -8.95785,-0.84699 -8.95785,-4.12665c0,-1.26666 3.40667,-7.75005 11.57475,-7.75005z" data-paper-data="{&quot;index&quot;:null}" fill="#2d6a2b" stroke-linecap="butt"/><path d="M228.53059,214.6109c4.11347,0 7.4481,2.47844 7.4481,5.53575c0,3.05731 -3.33463,5.53575 -7.4481,5.53575c-4.11347,0 -7.4481,-2.47844 -7.4481,-5.53575c0,-3.05731 3.33463,-5.53575 7.4481,-5.53575z" data-paper-data="{&quot;index&quot;:null}" fill="#2d6a2b" stroke-linecap="butt"/><path d="M227.82395,147.21532c0,0 2.93206,-0.88509 4.96753,-0.97408c1.61253,-0.07048 6.27474,0.48264 6.27474,0.48264" fill="none" stroke-linecap="round"/><path d="M217.61985,147.54424c0.38484,-2.80872 2.97373,-4.77366 5.78244,-4.38882c2.80872,0.38484 4.77366,2.97373 4.38882,5.78244c-0.38484,2.80872 -2.97373,4.77366 -5.78245,4.38882c-2.80872,-0.38484 -4.77366,-2.97373 -4.38882,-5.78245z" fill="#2d6a2b" stroke-linecap="butt"/></g></g></svg>