<svg version="1.1" xmlns="http://www.w3.org/2000/svg" xmlns:xlink="http://www.w3.org/1999/xlink" width="82.29518" height="95.18971" viewBox="0,0,82.29518,95.18971"><defs><linearGradient x1="229.54788" y1="172.67263" x2="221.25629" y2="189.65286" gradientUnits="userSpaceOnUse" id="color-1"><stop offset="0" stop-color="#fff700"/><stop offset="1" stop-color="#fff700" stop-opacity="0"/></linearGradient><linearGradient x1="223.28292" y1="172.67263" x2="231.5745" y2="189.65286" gradientUnits="userSpaceOnUse" id="color-2"><stop offset="0" stop-color="#fff700"/><stop offset="1" stop-color="#fff700" stop-opacity="0"/></linearGradient></defs><g transform="translate(-195.94129,-129.5401)"><g data-paper-data="{&quot;isPaintingLayer&quot;:true}" fill-rule="nonzero" stroke-linejoin="miter" stroke-miterlimit="10" stroke-dasharray="" stroke-dashoffset="0" style="mix-blend-mode: normal"><path d="M223.04831,180.86985c0,-2.11232 1.71238,-3.8247 3.8247,-3.8247c2.11232,0 3.8247,1.71238 3.8247,3.8247c0,2.11232 -1.71238,3.8247 -3.8247,3.8247c-2.11232,0 -3.8247,-1.71238 -3.8247,-3.8247z" fill="#ffe819" stroke="#000000" stroke-width="2" stroke-linecap="butt"/><path d="M223.17572,186.12523l-0.56422,-10.37997l-1.34291,2.97731l-1.95388,-9.99392l3.57508,3.65288l0.79145,-2.57362l2.03493,8.70225l1.47115,-3.38157l1.13981,7.56003l1.35346,-2.75086l3.8355,9.50878l-4.56369,3.9644l-1.20183,-6.79498l-2.10927,3.6323l-0.38221,-7.66904l-2.08338,3.54601" data-paper-data="{&quot;index&quot;:null}" fill="url(#color-1)" stroke="none" stroke-width="0.66342" stroke-linecap="butt"/><path d="M229.65508,186.12523l-2.08338,-3.54602l-0.3822,7.66905l-2.10926,-3.63231l-1.20184,6.79498l-4.56368,-3.9644l3.83551,-9.50878l1.35346,2.75086l1.13981,-7.56003l1.47114,3.38157l2.03493,-8.70225l0.79145,2.57362l3.57508,-3.65287l-1.95388,9.99392l-1.34291,-2.97732l-0.56422,10.37998" data-paper-data="{&quot;index&quot;:null}" fill="url(#color-2)" stroke="none" stroke-width="0.66342" stroke-linecap="butt"/><path d="M238.0634,219.69416c-0.03408,3.27948 -4.05323,4.08477 -9.00024,4.03338c-4.94702,-0.0514 -8.92975,-2.75161 -8.89568,-6.03109c0.03408,-3.27948 1.45529,-5.92355 6.4023,-5.87216c8.16763,0.08485 11.50678,6.60329 11.49362,7.86988z" data-paper-data="{&quot;index&quot;:null}" fill="#ffe819" stroke="#000000" stroke-width="2" stroke-linecap="butt"/><path d="M240.04627,200.56916l-3.809,-25.27974l7.76307,-1.16969l3.809,25.27974z" data-paper-data="{&quot;index&quot;:null}" fill="#ffe819" stroke="#000000" stroke-width="2" stroke-linecap="butt"/><path d="M220.64666,154.10986c0.58082,-9.15352 8.47206,-16.10306 17.62557,-15.52225c9.15352,0.58082 16.10306,8.47206 15.52225,17.62557c-0.58082,9.15352 -8.47206,16.10306 -17.62557,15.52225c-9.15352,-0.58082 -16.10306,-8.47206 -15.52225,-17.62557z" fill="#ffe819" stroke="#000000" stroke-width="2" stroke-linecap="butt"/><path d="M206.21656,147.98203c0,0 2.24069,-2.08798 4.02806,-3.06592c1.41598,-0.77474 5.84388,-2.33544 5.84388,-2.33544" fill="none" stroke="#000000" stroke-width="2" stroke-linecap="round"/><path d="M197.20455,152.77948c-0.89392,-2.69034 0.56236,-5.59595 3.2527,-6.48986c2.69034,-0.89392 5.59595,0.56236 6.48986,3.2527c0.89392,2.69034 -0.56236,5.59595 -3.2527,6.48986c-2.69034,0.89392 -5.59595,-0.56236 -6.48986,-3.2527z" fill="#ffe819" stroke="#000000" stroke-width="2" stroke-linecap="butt"/><path d="M216.12978,153.77606l5.53972,-9.98788l-11.42538,-2.30945c0,0 14.29289,-10.91636 24.9105,-10.93863c10.61761,-0.02227 18.01064,10.8486 18.01064,10.8486z" data-paper-data="{&quot;index&quot;:null}" fill="#fff067" stroke="#000000" stroke-width="2" stroke-linecap="butt"/><path d="M270.83395,211.15762c4.94701,-0.05139 6.36822,2.59268 6.4023,5.87217c0.03407,3.27948 -3.94866,5.97969 -8.89568,6.03109c-4.94701,0.05139 -8.96616,-0.75389 -9.00024,-4.03338c-0.01316,-1.26658 3.32599,-7.78503 11.49362,-7.86988z" data-paper-data="{&quot;index&quot;:null}" fill="#ffe819" stroke="#000000" stroke-width="2" stroke-linecap="butt"/><path d="M244.21497,196.70319c0,-2.11232 1.71238,-3.8247 3.8247,-3.8247c2.11232,0 3.8247,1.71238 3.8247,3.8247c0,2.11232 -1.71238,3.8247 -3.8247,3.8247c-2.11232,0 -3.8247,-1.71238 -3.8247,-3.8247z" fill="#ffe819" stroke="#000000" stroke-width="2" stroke-linecap="butt"/></g></g></svg>