<svg version="1.1" xmlns="http://www.w3.org/2000/svg" xmlns:xlink="http://www.w3.org/1999/xlink" width="71.72254" height="64.91106" viewBox="0,0,71.72254,64.91106"><g transform="translate(-209.2863,-161.90691)"><g data-paper-data="{&quot;isPaintingLayer&quot;:true}" fill-rule="nonzero" stroke="#000000" stroke-width="2" stroke-linejoin="miter" stroke-miterlimit="10" stroke-dasharray="" stroke-dashoffset="0" style="mix-blend-mode: normal"><g data-paper-data="{&quot;index&quot;:null}" fill="#181818" stroke-linecap="butt"><path d="M240.41903,213.4859c-3.21301,1.20733 -4.1108,-0.37406 -4.1108,-0.37406l-4.25,-9.91456c0,0 2.82108,0.21577 4.08561,-0.26924c1.17127,-0.44924 3.24323,-2.54173 3.24323,-2.54173l4.25001,9.91455c0,0 0.5633,1.76417 -3.21803,3.18505z"/><path d="M236.05769,202.92246c-2.08074,0.77814 -4.08889,0.54965 -4.4853,-0.51035c-0.39641,-1.06001 0.96901,-2.55011 3.04976,-3.32826c2.08074,-0.77814 4.08887,-0.54964 4.48529,0.51035c0.39641,1.06001 -0.96901,2.55011 -3.04976,3.32826z"/></g><path d="M226.18373,198.29417l16.47435,-3.55016l-3.41744,4.6336l5.5356,2.55517l-19.15658,5.54435l3.87568,-5.56288z" data-paper-data="{&quot;index&quot;:null}" fill="#0e0e0e" stroke-linecap="round"/><path d="M245.53997,213.64963c0,-2.11232 1.71238,-3.8247 3.8247,-3.8247c2.11232,0 3.8247,1.71238 3.8247,3.8247c0,2.11232 -1.71238,3.8247 -3.8247,3.8247c-2.11232,0 -3.8247,-1.71238 -3.8247,-3.8247z" data-paper-data="{&quot;index&quot;:null}" fill="#181818" stroke-linecap="butt"/><path d="M234.76469,169.41569c0,0 -4.09526,2.29585 -5.61193,2.84808c-1.91447,0.69706 -4.962,1.0019 -4.962,1.0019" data-paper-data="{&quot;index&quot;:null}" fill="#181818" stroke-linecap="round"/><path d="M216.11435,169.92991c2.4474,-1.43083 5.59131,-0.60669 7.02212,1.84071c1.43083,2.4474 0.60669,5.59131 -1.84071,7.02212c-2.4474,1.43083 -5.59131,0.60669 -7.02212,-1.84071c-1.43083,-2.4474 -0.60669,-5.59131 1.84071,-7.02212z" data-paper-data="{&quot;index&quot;:null}" fill="#181818" stroke-linecap="butt"/><path d="M219.15052,182.05062c0,-9.17193 7.43532,-16.60724 16.60724,-16.60724c9.17193,0 16.60724,7.43532 16.60724,16.60724c0,9.17193 -7.43532,16.60724 -16.60724,16.60724c-9.17193,0 -16.60724,-7.43532 -16.60724,-16.60724z" data-paper-data="{&quot;index&quot;:null}" fill="#181818" stroke-linecap="butt"/><path d="M228.5361,214.34387c4.11347,0 7.4481,2.47844 7.4481,5.53575c0,3.05731 -3.33463,5.53575 -7.4481,5.53575c-4.11347,0 -7.4481,-2.47844 -7.4481,-5.53575c0,-3.05731 3.33463,-5.53575 7.4481,-5.53575z" data-paper-data="{&quot;index&quot;:null}" fill="#181818" stroke-linecap="butt"/><path d="M254.60444,213.94127c4.94728,0 6.34095,2.65869 6.34095,5.93835c0,3.27966 -4.01056,5.93835 -8.95785,5.93835c-4.94728,0 -8.95785,-0.84699 -8.95785,-4.12665c0,-1.26666 3.40667,-7.75005 11.57475,-7.75005z" data-paper-data="{&quot;index&quot;:null}" fill="#181818" stroke-linecap="butt"/><path d="M234.58148,185.68362v-5.24474h19.39678v5.24474z" data-paper-data="{&quot;index&quot;:null}" fill="#ff0000" stroke-linecap="butt"/><g data-paper-data="{&quot;index&quot;:null}"><path d="M221.03802,174.96983v-12.06291h29.6328v12.06291z" fill="#343434" stroke-linecap="butt"/><path d="M210.2863,174.96983h51.13626" fill="none" stroke-linecap="round"/></g><path d="M272.35944,201.97386c0,-2.11232 1.71238,-3.8247 3.8247,-3.8247c2.11232,0 3.8247,1.71238 3.8247,3.8247c0,2.11232 -1.71238,3.8247 -3.8247,3.8247c-2.11232,0 -3.8247,-1.71238 -3.8247,-3.8247z" data-paper-data="{&quot;index&quot;:null}" fill="#181818" stroke-linecap="butt"/></g></g></svg>