<svg version="1.1" xmlns="http://www.w3.org/2000/svg" xmlns:xlink="http://www.w3.org/1999/xlink" width="78.43811" height="83.37258" viewBox="0,0,78.43811,83.37258"><g transform="translate(-203.75846,-142.72636)"><g data-paper-data="{&quot;isPaintingLayer&quot;:true}" fill-rule="nonzero" stroke="#000000" stroke-width="2" stroke-linejoin="miter" stroke-miterlimit="10" stroke-dasharray="" stroke-dashoffset="0" style="mix-blend-mode: normal"><path d="M221.02145,160.3336c0,-9.17193 7.43532,-16.60724 16.60724,-16.60724c9.17193,0 16.60724,7.43532 16.60724,16.60724c0,9.17193 -7.43532,16.60724 -16.60724,16.60724c-9.17193,0 -16.60724,-7.43532 -16.60724,-16.60724z" fill="#e80000" stroke-linecap="butt"/><path d="M244.93417,205.91309l-8.38745,-24.15004l7.41615,-2.57566l8.38745,24.15004z" fill="#e80000" stroke-linecap="butt"/><path d="M220.34246,193.47397c0,-2.11232 1.71238,-3.8247 3.8247,-3.8247c2.11232,0 3.8247,1.71238 3.8247,3.8247c0,2.11232 -1.71238,3.8247 -3.8247,3.8247c-2.11232,0 -3.8247,-1.71238 -3.8247,-3.8247z" fill="#e80000" stroke-linecap="butt"/><path d="M255.0442,182.7185c0,-2.11232 1.71238,-3.8247 3.8247,-3.8247c2.11232,0 3.8247,1.71238 3.8247,3.8247c0,2.11232 -1.71238,3.8247 -3.8247,3.8247c-2.11232,0 -3.8247,-1.71238 -3.8247,-3.8247z" fill="#e80000" stroke-linecap="butt"/><path d="M219.9457,158.85658l-1.3957,-5.42329l32.34602,-8.32434l1.3957,5.42328z" fill="#ff2121" stroke-linecap="butt"/><path d="M237.47025,219.84057c0.42722,3.25172 -3.43884,4.61392 -8.34397,5.25837c-4.90514,0.64445 -9.22786,-1.46915 -9.65508,-4.72087c-0.42722,-3.25172 0.60825,-6.0693 5.51337,-6.71375c8.09848,-1.06401 12.32068,4.92038 12.48567,6.17624z" data-paper-data="{&quot;index&quot;:null}" fill="#e80000" stroke-linecap="butt"/><path d="M213.5479,153.31003c0,0 2.96514,-0.76703 5.00255,-0.77447c1.61407,-0.00589 6.25039,0.7334 6.25039,0.7334" data-paper-data="{&quot;index&quot;:null}" fill="none" stroke-linecap="round"/><path d="M208.99268,159.43371c-2.79106,-0.49696 -4.65082,-3.16241 -4.15386,-5.95348c0.49695,-2.79106 3.16241,-4.65081 5.95348,-4.15385c2.79106,0.49696 4.65081,3.16241 4.15386,5.95348c-0.49696,2.79107 -3.16241,4.65082 -5.95348,4.15386z" data-paper-data="{&quot;index&quot;:null}" fill="#e80000" stroke-linecap="butt"/><path d="M269.46884,203.48013c-0.9689,-0.81586 -3.73396,-7.59778 1.52722,-13.84577c3.18661,-3.78431 6.118,-3.13788 8.62672,-1.0254c2.50871,2.11248 1.95916,6.89277 -1.22746,10.6771c-3.18662,3.78432 -6.41776,6.30656 -8.92647,4.19409z" data-paper-data="{&quot;index&quot;:null}" fill="#e80000" stroke-linecap="butt"/></g></g></svg>