<svg version="1.1" xmlns="http://www.w3.org/2000/svg" xmlns:xlink="http://www.w3.org/1999/xlink" width="129.76754" height="116.97018" viewBox="0,0,129.76754,116.97018"><defs><linearGradient x1="256.89885" y1="163.78785" x2="280.67134" y2="146.03652" gradientUnits="userSpaceOnUse" id="color-1"><stop offset="0" stop-color="#e80000" stop-opacity="0"/><stop offset="1" stop-color="#e80000"/></linearGradient><linearGradient x1="244.67638" y1="156.86152" x2="268.44885" y2="139.11019" gradientUnits="userSpaceOnUse" id="color-2"><stop offset="0" stop-color="#e80000" stop-opacity="0"/><stop offset="1" stop-color="#e80000"/></linearGradient><linearGradient x1="304.7772" y1="225.45918" x2="304.7772" y2="129.05852" gradientUnits="userSpaceOnUse" id="color-3"><stop offset="0" stop-color="#ff3100"/><stop offset="1" stop-color="#ff8d00"/></linearGradient><linearGradient x1="305.04041" y1="219.64194" x2="305.04041" y2="153.47344" gradientUnits="userSpaceOnUse" id="color-4"><stop offset="0" stop-color="#ffe049"/><stop offset="1" stop-color="#fff3e5"/></linearGradient></defs><g transform="translate(-206.51742,-108.85378)"><g data-paper-data="{&quot;isPaintingLayer&quot;:true}" fill-rule="nonzero" stroke="#000000" stroke-linejoin="miter" stroke-miterlimit="10" stroke-dasharray="" stroke-dashoffset="0" style="mix-blend-mode: normal"><path d="M268.87758,136.58812c-0.10471,2.10972 -1.89987,3.73511 -4.00959,3.63041c-2.10972,-0.10471 -3.73511,-1.89987 -3.63041,-4.00959c0.10471,-2.10972 1.89987,-3.73511 4.00959,-3.63041c2.10972,0.10471 3.73511,1.89987 3.63041,4.00959z" data-paper-data="{&quot;index&quot;:null}" fill="#e80000" stroke-width="2" stroke-linecap="butt"/><path d="M269.16848,132.58055c6.3774,5.58342 1.53689,10.75234 0.54321,22.78654c-1.10905,13.43114 10.33467,23.93796 10.33467,23.93796c0,0 -18.9822,-2.73717 -23.02477,-16.7024c-2.71374,-9.37468 -4.00182,-18.05263 -1.28693,-24.76271c2.71489,-6.71009 7.05642,-10.84281 13.43381,-5.2594z" data-paper-data="{&quot;index&quot;:null}" fill="url(#color-1)" stroke-width="0" stroke-linecap="butt"/><path d="M256.91401,129.96414c-0.10471,2.10972 -1.89987,3.73511 -4.00959,3.63041c-2.10972,-0.10471 -3.73511,-1.89987 -3.63041,-4.00959c0.10471,-2.10972 1.89987,-3.73511 4.00959,-3.63041c2.10972,0.10471 3.73511,1.89987 3.63041,4.00959z" data-paper-data="{&quot;index&quot;:null}" fill="#e80000" stroke-width="2" stroke-linecap="butt"/><path d="M257.48919,148.44076c-1.10904,13.43113 10.33467,23.93796 10.33467,23.93796c0,0 -18.9822,-2.73717 -23.02477,-16.70239c-2.71374,-9.37468 -4.00183,-18.05263 -1.28693,-24.76271c2.71489,-6.71009 7.05642,-10.84281 13.43381,-5.2594c6.37741,5.58343 1.5369,10.75234 0.54322,22.78654z" data-paper-data="{&quot;index&quot;:null}" fill="url(#color-2)" stroke-width="0" stroke-linecap="butt"/><path d="M231.63748,197.7629l0.93984,-25.54781l7.84539,0.28862l-0.93984,25.54781z" fill="#e80000" stroke-width="2" stroke-linecap="butt"/><path d="M213.2779,158.14529c0,0 2.16875,-2.16261 3.922,-3.20049c1.38896,-0.82223 5.7615,-2.53188 5.7615,-2.53188" fill="none" stroke-width="2" stroke-linecap="round"/><path d="M207.87948,163.14714c-0.98446,-2.65854 0.37266,-5.61178 3.0312,-6.59623c2.65854,-0.98446 5.61178,0.37265 6.59623,3.03119c0.98446,2.65854 -0.37265,5.61178 -3.03119,6.59624c-2.65854,0.98446 -5.61178,-0.37265 -6.59624,-3.03119z" fill="#e80000" stroke-width="2" stroke-linecap="butt"/><path d="M224.38407,158.5561c-5.47094,-7.3616 -3.93826,-17.76442 3.42334,-23.23534c7.3616,-5.47094 17.76442,-3.93826 23.23535,3.42334c5.47093,7.3616 3.93825,17.76442 -3.42335,23.23535c-7.3616,5.47094 -17.76442,3.93826 -23.23534,-3.42335z" fill="#e80000" stroke-width="2" stroke-linecap="butt"/><path d="M224.6932,208.6688c4.11347,0 7.4481,3.61645 7.4481,8.07758c0,4.46113 -3.33463,8.07758 -7.4481,8.07758c-4.11347,0 -7.4481,-3.61645 -7.4481,-8.07758c0,-4.46113 3.33463,-8.07758 7.4481,-8.07758z" data-paper-data="{&quot;index&quot;:null}" fill="#e80000" stroke-width="2" stroke-linecap="butt"/><path d="M257.04177,214.15416c2.36602,4.34483 0.69761,6.84029 -2.18267,8.40878c-2.88028,1.56849 -7.13325,-0.68218 -9.49928,-5.02702c-2.36603,-4.34482 -3.54022,-8.27208 -0.65994,-9.84056c1.11241,-0.60578 8.43552,-0.71462 12.34188,6.4588z" data-paper-data="{&quot;index&quot;:null}" fill="#e80000" stroke-width="2" stroke-linecap="butt"/><path d="M222.63962,158.01226l-4.35515,-3.52034l20.99629,-25.97528l4.35514,3.52033z" fill="#ff2121" stroke-width="2" stroke-linecap="butt"/><path d="M304.21789,108.85378c0,0 32.06707,41.78478 32.06707,68.40507c0,26.6203 -14.1065,48.20033 -31.50776,48.20033c-17.40126,0 -31.50777,-21.58004 -31.50777,-48.20033c0,-26.62029 30.94845,-68.40507 30.94845,-68.40507z" fill="url(#color-3)" stroke-width="0" stroke-linecap="butt"/><path d="M305.04041,144.39842c0,0 21.62663,23.88734 21.62663,42.15929c0,18.27192 -9.68257,33.08428 -21.62663,33.08428c-11.94406,0 -21.62663,-14.81231 -21.62663,-33.08428c0,-18.27192 21.62663,-42.15929 21.62663,-42.15929z" fill="url(#color-4)" stroke-width="0" stroke-linecap="butt"/></g></g></svg>