<svg version="1.1" xmlns="http://www.w3.org/2000/svg" xmlns:xlink="http://www.w3.org/1999/xlink" width="118.68765" height="44.51979" viewBox="0,0,118.68765,44.51979"><g transform="translate(-194.41389,-189.97102)"><g data-paper-data="{&quot;isPaintingLayer&quot;:true}" fill-rule="nonzero" stroke="#000000" stroke-width="2" stroke-linejoin="miter" stroke-miterlimit="10" stroke-dasharray="" stroke-dashoffset="0" style="mix-blend-mode: normal"><g><path d="M262.45074,219.83665c2.11232,0 3.8247,1.71238 3.8247,3.8247c0,2.11232 -1.71238,3.8247 -3.8247,3.8247c-2.11232,0 -3.8247,-1.71238 -3.8247,-3.8247c0,-2.11232 1.71238,-3.8247 3.8247,-3.8247z" fill="#181818" stroke-linecap="butt"/><path d="M212.06595,228.87145c-4.61169,-1.79107 -4.94828,-4.77395 -3.76095,-7.83115c1.18733,-3.05719 5.88837,-4.08359 10.50006,-2.29251c4.61169,1.79107 8.04357,4.03256 6.85623,7.08974c-0.45856,1.18074 -5.98134,5.99102 -13.59535,3.03392z" data-paper-data="{&quot;index&quot;:null}" fill="#181818" stroke-linecap="butt"/><path d="M286.14654,217.94975l4.83292,-2.03719l6.4203,15.23113l-4.83293,2.0372z" fill="#3f3030" stroke-linecap="butt"/><path d="M233.73629,218.05174l25.55582,-0.68824l0.21135,7.84786l-25.55583,0.68823z" fill="#181818" stroke-linecap="butt"/><path d="M260.86994,215.18089l0.08642,14.42595l-4.3269,-3.63108l-4.1151,4.23318l-1.66633,-17.00672l5.24761,4.16842z" fill="#0e0e0e" stroke-linecap="round"/><path d="M308.27684,220.40651c2.11232,0 3.8247,1.71238 3.8247,3.8247c0,2.11232 -1.71238,3.8247 -3.8247,3.8247c-2.11232,0 -3.8247,-1.71238 -3.8247,-3.8247c0,-2.11232 1.71238,-3.8247 3.8247,-3.8247z" fill="#181818" stroke-linecap="butt"/><path d="M288.26349,197.55435c8.8514,2.40355 14.0784,11.52748 11.67485,20.37887c-2.40355,8.8514 -11.52749,14.07841 -20.37888,11.67486c-8.8514,-2.40355 -14.0784,-11.52749 -11.67485,-20.37888c2.40355,-8.8514 11.52749,-14.0784 20.37888,-11.67485z" fill="#181818" stroke-linecap="butt"/><path d="M201.23147,231.79098c-4.92671,-0.45076 -6.07234,-3.22537 -5.77352,-6.49138c0.29882,-3.26602 4.53494,-5.54823 9.46165,-5.09747c4.92671,0.45076 8.84341,1.65963 8.5446,4.92566c-0.11541,1.26139 -4.09863,7.40743 -12.23273,6.66321z" data-paper-data="{&quot;index&quot;:null}" fill="#181818" stroke-linecap="butt"/><g><path d="M280.85754,197.40882l10.66464,-6.43227c0,0 6.44907,-0.56091 12.56421,9.60887c6.16159,10.24706 3.23679,16.58906 3.23679,16.58906l-8.37041,4.13804c0,0 -4.30203,-7.72057 -6.87996,-11.99475c-2.68474,-4.45128 -11.21527,-11.90895 -11.21527,-11.90895z" fill="#343434" stroke-linecap="butt"/><path d="M273.2741,191.74229c0,0 14.05841,9.69833 18.54439,17.13605c4.60022,7.62712 11.82405,22.62967 11.82405,22.62967" fill="none" stroke-linecap="round"/></g><path d="M280.2125,201.6126c0,0 2.9827,-0.69562 5.0197,-0.65414c1.61374,0.03286 6.23099,0.88325 6.23099,0.88325" fill="#181818" stroke-linecap="round"/><path d="M269.63626,201.32625c0.56383,-2.77832 3.27316,-4.57356 6.05149,-4.00973c2.77832,0.56383 4.57356,3.27316 4.00973,6.05149c-0.56383,2.77832 -3.27316,4.57356 -6.05149,4.00973c-2.77832,-0.56383 -4.57357,-3.27316 -4.00973,-6.05149z" fill="#181818" stroke-linecap="butt"/></g></g></g></svg>