<svg version="1.1" xmlns="http://www.w3.org/2000/svg" xmlns:xlink="http://www.w3.org/1999/xlink" width="207.63501" height="87.38264" viewBox="0,0,207.63501,87.38264"><g transform="translate(-214.36603,-140.1061)"><g data-paper-data="{&quot;isPaintingLayer&quot;:true}" fill-rule="nonzero" stroke="#000000" stroke-width="2" stroke-linejoin="miter" stroke-miterlimit="10" stroke-dasharray="" stroke-dashoffset="0" style="mix-blend-mode: normal"><path d="M251.85633,199.5623c0,-2.11232 1.71238,-3.8247 3.8247,-3.8247c2.11232,0 3.8247,1.71238 3.8247,3.8247c0,2.11232 -1.71238,3.8247 -3.8247,3.8247c-2.11232,0 -3.8247,-1.71238 -3.8247,-3.8247z" fill="#ff6b00" stroke-linecap="butt"/><path d="M246.61814,160.54896c0,-9.17193 7.43532,-16.60724 16.60724,-16.60724c9.17193,0 16.60724,7.43532 16.60724,16.60724c0,9.17193 -7.43532,16.60724 -16.60724,16.60724c-9.17193,0 -16.60724,-7.43532 -16.60724,-16.60724z" fill="#ff6b00" stroke-linecap="butt"/><path d="M242.74199,205.75506l6.05478,-24.83774l7.62734,1.85935l-6.05478,24.83774z" fill="#ff6b00" stroke-linecap="butt"/><path d="M222.81413,215.01801c4.11347,0 7.4481,2.47844 7.4481,5.53575c0,3.05731 -3.33463,5.53575 -7.4481,5.53575c-4.11347,0 -7.4481,-2.47844 -7.4481,-5.53575c0,-3.05731 3.33463,-5.53575 7.4481,-5.53575z" data-paper-data="{&quot;index&quot;:null}" fill="#ff6b00" stroke-linecap="butt"/><path d="M378.81735,170.28624c0,0 1.31431,2.49905 2.88429,3.7976c1.24376,1.02873 5.78699,3.37449 5.78699,3.37449" fill="none" stroke-linecap="round"/><path d="M373.00898,163.42505c2.1685,-1.82609 5.40675,-1.54852 7.23284,0.61999c1.82609,2.1685 1.54852,5.40675 -0.61999,7.23284c-2.1685,1.82609 -5.40675,1.54852 -7.23284,-0.61999c-1.82609,-2.1685 -1.54852,-5.40675 0.61999,-7.23284z" fill="#ff6b00" stroke-linecap="butt"/><path d="M272.52913,214.82491c4.92989,0.41436 6.096,3.18044 5.82131,6.44858c-0.27469,3.26814 -4.49383,5.58158 -9.42374,5.16723c-4.92989,-0.41436 -8.85543,-1.59426 -8.58075,-4.8624c0.10609,-1.2622 4.0438,-7.43749 12.18318,-6.75338z" data-paper-data="{&quot;index&quot;:null}" fill="#ff6b00" stroke-linecap="butt"/><path d="M373.86671,181.57128l10.14715,-7.95931l-10.82152,-32.40089l47.27027,3.40075l-14.57234,30.30756l8.96519,9.23109z" data-paper-data="{&quot;index&quot;:null}" fill="#ffa340" stroke-linecap="butt"/><path d="M310.33193,180.36167c0,-2.11232 1.71238,-3.8247 3.8247,-3.8247c2.11232,0 3.8247,1.71238 3.8247,3.8247c0,2.11232 -1.71238,3.8247 -3.8247,3.8247c-2.11232,0 -3.8247,-1.71238 -3.8247,-3.8247z" fill="#ff6b00" stroke-linecap="butt"/></g></g></svg>