<svg version="1.1" xmlns="http://www.w3.org/2000/svg" xmlns:xlink="http://www.w3.org/1999/xlink" width="71.24495" height="126.28334" viewBox="0,0,71.24495,126.28334"><g transform="translate(-199.10093,-100.53463)"><g data-paper-data="{&quot;isPaintingLayer&quot;:true}" fill-rule="nonzero" stroke-linejoin="miter" stroke-miterlimit="10" stroke-dasharray="" stroke-dashoffset="0" style="mix-blend-mode: normal"><path d="M209.05151,191.66966c-2.11232,0 -3.8247,-1.71238 -3.8247,-3.8247c0,-2.11232 1.71238,-3.8247 3.8247,-3.8247c2.11232,0 3.8247,1.71238 3.8247,3.8247c0,2.11232 -1.71238,3.8247 -3.8247,3.8247z" data-paper-data="{&quot;index&quot;:null}" fill="#181818" stroke="#000000" stroke-width="2" stroke-linecap="butt"/><path d="M215.9379,189.63788c0,0 -3.68572,-2.90818 -4.77527,-4.09903c-1.37531,-1.5032 -2.82082,-4.20336 -2.82082,-4.20336" data-paper-data="{&quot;index&quot;:null}" fill="#181818" stroke="#000000" stroke-width="2" stroke-linecap="round"/><path d="M208.34063,172.5973c2.25698,1.71554 2.69587,4.9359 0.98033,7.19287c-1.71554,2.25698 -4.9359,2.69587 -7.19287,0.98033c-2.25698,-1.71554 -2.69587,-4.9359 -0.98033,-7.19287c1.71554,-2.25698 4.9359,-2.69587 7.19287,-0.98033z" data-paper-data="{&quot;index&quot;:null}" fill="#181818" stroke="#000000" stroke-width="2" stroke-linecap="butt"/><path d="M238.56808,164.6397v-5.24474h19.39678v5.24474z" data-paper-data="{&quot;index&quot;:null}" fill="#00fff9" stroke="#000000" stroke-width="2" stroke-linecap="butt"/><path d="M241.75681,215.92237c-2.11232,0 -3.8247,-1.71238 -3.8247,-3.8247c0,-2.11232 1.71238,-3.8247 3.8247,-3.8247c2.11232,0 3.8247,1.71238 3.8247,3.8247c0,2.11232 -1.71238,3.8247 -3.8247,3.8247z" data-paper-data="{&quot;index&quot;:null}" fill="#181818" stroke="#000000" stroke-width="2" stroke-linecap="butt"/><path d="M238.14959,176.50117c-9.17192,0 -16.60724,-7.43531 -16.60724,-16.60724c0,-9.17192 7.43531,-16.60724 16.60724,-16.60724c9.17192,0 16.60724,7.43531 16.60724,16.60724c0,9.17192 -7.43531,16.60724 -16.60724,16.60724z" data-paper-data="{&quot;index&quot;:null}" fill="#181818" stroke="#000000" stroke-width="2" stroke-linecap="butt"/><path d="M235.02944,205.61184v-25.56509h7.8507v25.56509z" data-paper-data="{&quot;index&quot;:null}" fill="#181818" stroke="#000000" stroke-width="2" stroke-linecap="butt"/><path d="M258.05593,219.87962c0,3.05731 -3.33463,5.53575 -7.4481,5.53575c-4.11347,0 -7.4481,-2.47844 -7.4481,-5.53575c0,-3.05731 3.33463,-5.53575 7.4481,-5.53575c4.11347,0 7.4481,2.47844 7.4481,5.53575z" data-paper-data="{&quot;index&quot;:null}" fill="#181818" stroke="#000000" stroke-width="2" stroke-linecap="butt"/><path d="M235.83605,221.69132c0,3.27966 -4.01057,4.12665 -8.95785,4.12665c-4.94729,0 -8.95785,-2.65869 -8.95785,-5.93835c0,-3.27966 1.39367,-5.93835 6.34095,-5.93835c8.16808,0 11.57475,6.48339 11.57475,7.75005z" data-paper-data="{&quot;index&quot;:null}" fill="#181818" stroke="#000000" stroke-width="2" stroke-linecap="butt"/><path d="M242.95907,183.24226l4.30818,5.13349l-17.04542,-1.20788l4.12087,-4.22758l-3.74625,-4.22758l14.42305,-0.30197z" data-paper-data="{&quot;index&quot;:null}" fill="#0e0e0e" stroke="#000000" stroke-width="2" stroke-linecap="round"/><g data-paper-data="{&quot;index&quot;:null}" stroke="#000000" stroke-width="2"><path d="M222.6944,153.64772v-12.06291h30.43885v12.06291z" fill="#343434" stroke-linecap="butt"/><path d="M211.6502,153.64772h52.52723" fill="none" stroke-linecap="round"/></g><text transform="translate(253.0344,152.53888) scale(1.38839,1.1955)" font-size="40" xml:space="preserve" fill="#000000" fill-rule="nonzero" stroke="none" stroke-width="1" stroke-linecap="butt" stroke-linejoin="miter" stroke-miterlimit="10" stroke-dasharray="" stroke-dashoffset="0" font-family="Sans Serif" font-weight="normal" text-anchor="start" style="mix-blend-mode: normal"><tspan x="0" dy="0">!</tspan></text></g></g></svg>