<svg version="1.1" xmlns="http://www.w3.org/2000/svg" xmlns:xlink="http://www.w3.org/1999/xlink" width="107.12356" height="58.21207" viewBox="0,0,107.12356,58.21207"><g transform="translate(-194.50158,-165.57005)"><g data-paper-data="{&quot;isPaintingLayer&quot;:true}" fill-rule="nonzero" stroke="#000000" stroke-width="2" stroke-linejoin="miter" stroke-miterlimit="10" stroke-dasharray="" stroke-dashoffset="0" style="mix-blend-mode: normal"><path d="M256.09465,203.14044l-23.69648,-9.59431l2.94629,-7.27688l23.69648,9.59431z" fill="#181818" stroke-linecap="butt"/><path d="M238.99137,185.6245l5.45717,-4.02316l-5.02972,19.29809l-2.7024,-5.46524l-4.54048,3.54022l3.10801,-16.56345z" data-paper-data="{&quot;index&quot;:null}" fill="#0e0e0e" stroke-linecap="round"/><path d="M243.66994,222.29891c-1.46545,-1.5213 -1.42018,-3.94255 0.10112,-5.408c1.5213,-1.46545 3.94255,-1.42018 5.408,0.10112c1.46545,1.5213 1.42018,3.94255 -0.10112,5.408c-1.5213,1.46545 -3.94255,1.42018 -5.408,-0.10112z" fill="#181818" stroke-linecap="butt"/><path d="M220.08932,215.31988c0,0 -2.24533,-2.08299 -3.35062,-3.79455c-0.87562,-1.35593 -2.75406,-5.65867 -2.75406,-5.65867" data-paper-data="{&quot;index&quot;:null}" fill="#181818" stroke-linecap="round"/><path d="M217.74936,220.95096c-2.58113,-1.17251 -3.72306,-4.21542 -2.55054,-6.79655c1.17251,-2.58113 4.21543,-3.72307 6.79655,-2.55054c2.58113,1.17251 3.72306,4.21542 2.55054,6.79655c-1.17251,2.58113 -4.21543,3.72307 -6.79655,2.55054z" data-paper-data="{&quot;index&quot;:null}" fill="#181818" stroke-linecap="butt"/><path d="M225.67777,202.79072c-8.45458,3.55591 -18.191,-0.41524 -21.7469,-8.8698c-3.55591,-8.45458 0.41524,-18.191 8.8698,-21.7469c8.45458,-3.55591 18.191,0.41524 21.7469,8.8698c3.55591,8.45458 -0.41524,18.191 -8.8698,21.7469z" fill="#181818" stroke-linecap="butt"/><path d="M295.17865,198.60734c4.88484,0.78358 5.83982,3.62943 5.32036,6.8677c-0.51944,3.23826 -4.90048,5.2282 -9.78533,4.44461c-4.88484,-0.78358 -8.71063,-2.25508 -8.19118,-5.49335c0.20062,-1.25066 4.59115,-7.11266 12.65615,-5.81898z" data-paper-data="{&quot;index&quot;:null}" fill="#181818" stroke-linecap="butt"/><path d="M224.23652,186.55148l-4.83453,2.03336c0,0 -2.78013,-10.69952 -3.40073,-13.00674c-0.69635,-2.58888 -4.11931,-4.87297 -4.11931,-4.87297l4.83453,-2.03336z" fill="#ff0000" stroke-linecap="butt"/><g><path d="M218.419,203.79603l-11.11944,4.67674l-11.48849,-27.31514l11.11945,-4.67673z" fill="#343434" stroke-linecap="butt"/><path d="M202.76212,166.57005l19.82527,47.13678" fill="none" stroke-linecap="round"/></g><path d="M231.31429,222.681c-1.46545,-1.5213 -1.42018,-3.94255 0.10112,-5.408c1.5213,-1.46545 3.94255,-1.42018 5.408,0.10112c1.46545,1.5213 1.42018,3.94255 -0.10112,5.408c-1.5213,1.46545 -3.94255,1.42018 -5.408,-0.10112z" fill="#181818" stroke-linecap="butt"/><path d="M294.03422,208.86907c3.94084,2.99089 3.44367,5.95125 1.46095,8.56371c-1.98273,2.61247 -6.78472,2.30569 -10.72556,-0.68519c-3.94084,-2.99089 -6.62347,-6.09016 -4.64073,-8.70263c0.76577,-1.00898 7.39894,-4.11392 13.90537,0.82412z" data-paper-data="{&quot;index&quot;:null}" fill="#181818" stroke-linecap="butt"/></g></g></svg>