<svg version="1.1" xmlns="http://www.w3.org/2000/svg" xmlns:xlink="http://www.w3.org/1999/xlink" width="123.49598" height="112.0597" viewBox="0,0,123.49598,112.0597"><defs><radialGradient cx="256.69769" cy="147.46508" r="18.84183" gradientUnits="userSpaceOnUse" id="color-1"><stop offset="0" stop-color="#ffffff"/><stop offset="1" stop-color="#0debff"/></radialGradient></defs><g transform="translate(-214.43524,-115.62627)"><g data-paper-data="{&quot;isPaintingLayer&quot;:true}" fill-rule="nonzero" stroke-linejoin="miter" stroke-miterlimit="10" stroke-dasharray="" stroke-dashoffset="0" style="mix-blend-mode: normal"><g fill="#76f4ff" stroke="#53acb4" stroke-width="1" stroke-linecap="butt"><path d="M337.57594,116.04018l-55.81499,56.36735l-32.11878,16.6462l22.26678,-28.51145z" data-paper-data="{&quot;index&quot;:null}"/><path d="M233.66113,194.78352l20.84108,-13.654l3.58865,4.32198l-17.61131,17.54378z"/><path d="M275.5947,193.22621l-16.25131,-1.82269l-10.80517,-12.93614l1.59387,-15.90703l9.87741,17.70259z"/></g><path d="M233.30437,198.75117c0,-2.11232 1.71238,-3.8247 3.8247,-3.8247c2.11232,0 3.8247,1.71238 3.8247,3.8247c0,2.11232 -1.71238,3.8247 -3.8247,3.8247c-2.11232,0 -3.8247,-1.71238 -3.8247,-3.8247z" fill="#0debff" stroke="#000000" stroke-width="2" stroke-linecap="butt"/><path d="M236.64249,207.91908l11.75963,-22.69988l6.97083,3.61122l-11.75963,22.69988z" data-paper-data="{&quot;index&quot;:null}" fill="#0debff" stroke="#000000" stroke-width="2" stroke-linecap="butt"/><path d="M248.64077,201.87555c0,-2.11232 1.71238,-3.8247 3.8247,-3.8247c2.11232,0 3.8247,1.71238 3.8247,3.8247c0,2.11232 -1.71238,3.8247 -3.8247,3.8247c-2.11232,0 -3.8247,-1.71238 -3.8247,-3.8247z" fill="#0debff" stroke="#000000" stroke-width="2" stroke-linecap="butt"/><path d="M222.88335,215.61447c4.11347,0 7.4481,2.47844 7.4481,5.53575c0,3.05731 -3.33463,5.53575 -7.4481,5.53575c-4.11347,0 -7.4481,-2.47844 -7.4481,-5.53575c0,-3.05731 3.33463,-5.53575 7.4481,-5.53575z" data-paper-data="{&quot;index&quot;:null}" fill="#0debff" stroke="#000000" stroke-width="2" stroke-linecap="butt"/><path d="M262.7249,213.495c4.74209,-1.41001 6.83571,0.7412 7.77044,3.88484c0.93473,3.14364 -2.15175,6.8351 -6.89385,8.24512c-4.74209,1.41001 -8.82772,1.7412 -9.76245,-1.40244c-0.36101,-1.21413 1.05655,-8.39955 8.88587,-10.72751z" data-paper-data="{&quot;index&quot;:null}" fill="#0debff" stroke="#000000" stroke-width="2" stroke-linecap="butt"/><path d="M254.42691,162.59172c5.1966,-7.55775 15.53604,-9.47184 23.09379,-4.27525c7.55775,5.1966 9.47184,15.53604 4.27525,23.09379c-5.1966,7.55775 -15.53604,9.47184 -23.09379,4.27525c-7.55775,-5.1966 -9.47184,-15.53604 -4.27525,-23.09379z" fill="#0debff" stroke="#000000" stroke-width="2" stroke-linecap="butt"/><path d="M244.1892,159.28274c0,0 2.73819,-1.3721 4.72869,-1.80684c1.5769,-0.34441 6.26514,-0.59436 6.26514,-0.59436" fill="none" stroke="#000000" stroke-width="2" stroke-linecap="round"/><path d="M234.19062,161.34676c-0.09972,-2.83321 2.1162,-5.21082 4.94941,-5.31054c2.83321,-0.09972 5.21082,2.1162 5.31054,4.94941c0.09972,2.83321 -2.1162,5.21082 -4.94941,5.31054c-2.83321,0.09972 -5.21082,-2.1162 -5.31054,-4.94941z" fill="#0debff" stroke="#000000" stroke-width="2" stroke-linecap="butt"/><path d="M249.73613,165.96023l4.12106,-20.39467l30.01618,0.42452l3.54265,20.50305z" fill="url(#color-1)" stroke="#000000" stroke-width="2" stroke-linecap="butt"/></g></g></svg>