<svg version="1.1" xmlns="http://www.w3.org/2000/svg" xmlns:xlink="http://www.w3.org/1999/xlink" width="140.20496" height="71.7218" viewBox="0,0,140.20496,71.7218"><defs><linearGradient x1="354.19204" y1="138.19108" x2="286.73732" y2="212.91188" gradientUnits="userSpaceOnUse" id="color-1"><stop offset="0" stop-color="#ff0000" stop-opacity="0"/><stop offset="1" stop-color="#ff0000"/></linearGradient></defs><g transform="translate(-212.94434,-156.1297)"><g data-paper-data="{&quot;isPaintingLayer&quot;:true}" fill-rule="nonzero" stroke="#000000" stroke-linejoin="miter" stroke-miterlimit="10" stroke-dasharray="" stroke-dashoffset="0" style="mix-blend-mode: normal"><path d="M348.35485,157.51379c0,0 20.26872,45.26185 -22.54277,54.05677c-22.38968,4.59959 -62.55,-26.94452 -62.55,-26.94452l18.88529,-0.88067c0,0 16.66615,9.73773 27.36213,7.05388c32.21311,-8.08296 38.84535,-33.28546 38.84535,-33.28546z" fill="url(#color-1)" stroke-width="0" stroke-linecap="round"/><path d="M219.50056,186.76248c0,-2.11232 1.71238,-3.8247 3.8247,-3.8247c2.11232,0 3.8247,1.71238 3.8247,3.8247c0,2.11232 -1.71238,3.8247 -3.8247,3.8247c-2.11232,0 -3.8247,-1.71238 -3.8247,-3.8247z" fill="#181818" stroke-width="2" stroke-linecap="butt"/><path d="M239.74322,207.2658l13.5552,-21.67556l6.65627,4.16263l-13.5552,21.67556z" fill="#181818" stroke-width="2" stroke-linecap="butt"/><path d="M268.42365,213.94129c4.94728,0 6.34095,2.65869 6.34095,5.93835c0,3.27966 -4.01056,5.93835 -8.95785,5.93835c-4.94728,0 -8.95785,-0.84699 -8.95785,-4.12665c0,-1.26666 3.40667,-7.75005 11.57475,-7.75005z" data-paper-data="{&quot;index&quot;:null}" fill="#181818" stroke-width="2" stroke-linecap="butt"/><path d="M258.50579,194.23846l-1.40738,7.48601l-14.39621,-10.70364l8.20387,-1.88744l0.97683,-6.27559l13.56516,7.74591z" data-paper-data="{&quot;index&quot;:null}" fill="#0e0e0e" stroke-width="2" stroke-linecap="round"/><path d="M285.89024,201.22147c-0.12655,-2.10853 1.48015,-3.92042 3.58868,-4.04698c2.10853,-0.12655 3.92042,1.48015 4.04697,3.58868c0.12655,2.10853 -1.48015,3.92042 -3.58868,4.04698c-2.10853,0.12655 -3.92042,-1.48015 -4.04697,-3.58868z" fill="#181818" stroke-width="2" stroke-linecap="butt"/><path d="M221.39244,215.78001c4.11347,0 7.4481,2.47844 7.4481,5.53575c0,3.05731 -3.33463,5.53575 -7.4481,5.53575c-4.11347,0 -7.4481,-2.47844 -7.4481,-5.53575c0,-3.05731 3.33463,-5.53575 7.4481,-5.53575z" data-paper-data="{&quot;index&quot;:null}" fill="#181818" stroke-width="2" stroke-linecap="butt"/><path d="M241.61286,163.37752c0,0 3.00193,-0.60728 5.03682,-0.5057c1.61207,0.08048 6.2022,1.06677 6.2022,1.06677" fill="#181818" stroke-width="2" stroke-linecap="round"/><path d="M231.04969,162.77914c0.64558,-2.76047 3.40672,-4.47496 6.1672,-3.82937c2.76047,0.64558 4.47496,3.40672 3.82937,6.1672c-0.64558,2.76047 -3.40672,4.47496 -6.1672,3.82937c-2.76047,-0.64558 -4.47496,-3.40672 -3.82937,-6.1672z" fill="#181818" stroke-width="2" stroke-linecap="butt"/><path d="M251.1618,176.88003c0,-9.17193 7.43532,-16.60724 16.60724,-16.60724c9.17193,0 16.60724,7.43532 16.60724,16.60724c0,9.17193 -7.43532,16.60724 -16.60724,16.60724c-9.17193,0 -16.60724,-7.43532 -16.60724,-16.60724z" fill="#181818" stroke-width="2" stroke-linecap="butt"/><path d="M266.88066,187.42263v-5.24474h18.24518v5.24474z" fill="#ff0000" stroke-width="2" stroke-linecap="butt"/><g stroke-width="2"><g><path d="M251.0498,176.19072l2.31817,-15.2288c0,0 11.30268,4.14976 16.99775,5.01668c5.98033,0.91034 18.07028,0.32147 18.07028,0.32147l-2.31817,15.2288c0,0 -12.15025,-0.11438 -17.96702,-0.99982c-5.87205,-0.89386 -17.10101,-4.33833 -17.10101,-4.33833z" fill="#343434" stroke-linecap="butt"/><path d="M298.99654,182.4482c0,0 -19.87514,0.09785 -29.87524,-1.42439c-10.16895,-1.54794 -30.6404,-7.78747 -30.6404,-7.78747" fill="none" stroke-linecap="round"/></g><path d="M289.01308,164.85198c-0.35643,2.34151 -8.57743,3.03224 -18.36212,1.54279c-9.78469,-1.48945 -17.42779,-4.59506 -17.07136,-6.93657c0.35643,-2.34151 8.57743,-3.03224 18.36211,-1.54279c9.78469,1.48945 17.4278,4.59506 17.07137,6.93657z" fill="#252525" stroke-linecap="butt"/></g></g></g></svg>