<svg version="1.1" xmlns="http://www.w3.org/2000/svg" xmlns:xlink="http://www.w3.org/1999/xlink" width="55.49828" height="37.35208" viewBox="0,0,55.49828,37.35208"><defs><linearGradient x1="245.77427" y1="163.5961" x2="245.77427" y2="193.99896" gradientUnits="userSpaceOnUse" id="color-1"><stop offset="0" stop-color="#5a6593"/><stop offset="1" stop-color="#686868"/></linearGradient><linearGradient x1="233.49842" y1="164.17521" x2="233.49842" y2="194.57803" gradientUnits="userSpaceOnUse" id="color-2"><stop offset="0" stop-color="#5a6593"/><stop offset="1" stop-color="#686868"/></linearGradient><linearGradient x1="239.33112" y1="158.38419" x2="239.33112" y2="195.73627" gradientUnits="userSpaceOnUse" id="color-3"><stop offset="0" stop-color="#5a6593"/><stop offset="1" stop-color="#686868"/></linearGradient></defs><g transform="translate(-212.25086,-158.38419)"><g data-paper-data="{&quot;isPaintingLayer&quot;:true}" fill-rule="nonzero" stroke-linejoin="miter" stroke-miterlimit="10" stroke-dasharray="" stroke-dashoffset="0" style="mix-blend-mode: normal"><path d="M213.50545,179.54211c0,0 1.16266,-6.67991 27.06089,-6.74139c25.60766,-0.06079 25.9328,6.89772 25.9328,6.89772" fill="none" stroke="#b4b37c" stroke-width="2.5" stroke-linecap="round"/><path d="M261.24699,178.79751c0,8.39552 -6.92737,15.20141 -15.47269,15.20141c-8.54535,0 -15.47269,-6.8059 -15.47269,-15.20141c0,-8.39552 6.92737,-15.20141 15.47269,-15.20141c8.54535,0 15.47269,6.8059 15.47269,15.20141z" fill="url(#color-1)" stroke="none" stroke-width="0" stroke-linecap="butt"/><path d="M248.97114,179.37662c0,8.39552 -6.92737,15.20142 -15.47269,15.20142c-8.54535,0 -15.4727,-6.8059 -15.4727,-15.20142c0,-8.39552 6.92738,-15.20141 15.4727,-15.20141c8.54535,0 15.47269,6.8059 15.47269,15.20141z" fill="url(#color-2)" stroke="none" stroke-width="0" stroke-linecap="butt"/><path d="M239.33112,158.38419c8.54535,0 15.47269,8.36154 15.47269,18.67604c0,10.31448 -6.92737,18.67604 -15.47269,18.67604c-8.54535,0 -15.4727,-8.36155 -15.4727,-18.67604c0,-10.31448 6.92738,-18.67604 15.4727,-18.67604z" data-paper-data="{&quot;origPos&quot;:null}" fill="url(#color-3)" stroke="none" stroke-width="0" stroke-linecap="butt"/><path d="M266.49454,179.98891c0,0 -0.32513,7.27117 -25.9328,7.21038c-25.89822,-0.06148 -27.06088,-6.74139 -27.06088,-6.74139" data-paper-data="{&quot;index&quot;:null}" fill="none" stroke="#b4b37c" stroke-width="2.5" stroke-linecap="round"/></g></g></svg>