<svg version="1.1" xmlns="http://www.w3.org/2000/svg" xmlns:xlink="http://www.w3.org/1999/xlink" width="51.97309" height="96.25854" viewBox="0,0,51.97309,96.25854"><g transform="translate(-204.9345,-137.32341)"><g data-paper-data="{&quot;isPaintingLayer&quot;:true}" fill-rule="nonzero" stroke="#000000" stroke-width="2" stroke-linejoin="miter" stroke-miterlimit="10" stroke-dasharray="" stroke-dashoffset="0" style="mix-blend-mode: normal"><path d="M245.00804,206.85604c-0.05217,-2.11167 1.6174,-3.86583 3.72907,-3.918c2.11167,-0.05217 3.86583,1.6174 3.91799,3.72908c0.05217,2.11167 -1.6174,3.86583 -3.72907,3.91799c-2.11167,0.05217 -3.86583,-1.6174 -3.91799,-3.72907z" fill="#2d6a2b" stroke-linecap="butt"/><path d="M224.48223,143.37517c12.51296,-9.72461 27.12778,-2.41683 27.12778,-2.41683c0,0 -0.64272,8.47536 -13.562,19.36826c-9.42439,7.94618 -20.04269,6.61892 -20.04269,6.61892c0,0 -6.97655,-13.11479 6.47692,-23.57034z" fill="#204d1f" stroke-linecap="round"/><path d="M223.02691,166.22396c-4.34777,-8.07596 -1.32546,-18.14739 6.75049,-22.49515c8.07596,-4.34777 18.14738,-1.32547 22.49515,6.75048c4.34777,8.07596 1.32546,18.14739 -6.75049,22.49515c-8.07596,4.34777 -18.14738,1.32547 -22.49515,-6.75048z" fill="#2d6a2b" stroke-linecap="butt"/><path d="M239.6548,205.44827l-2.16816,-25.47298l7.82241,-0.66582l2.16816,25.47298z" fill="#2d6a2b" stroke-linecap="butt"/><path d="M230.77293,208.26533c-0.05217,-2.11167 1.6174,-3.86583 3.72907,-3.918c2.11167,-0.05217 3.86583,1.6174 3.91799,3.72908c0.05217,2.11167 -1.6174,3.86583 -3.72907,3.91799c-2.11167,0.05217 -3.86583,-1.6174 -3.91799,-3.72907z" fill="#2d6a2b" stroke-linecap="butt"/><path d="M255.7569,225.89681c-0.1935,4.94348 -2.90468,6.2321 -6.18183,6.10382c-3.27715,-0.12828 -5.77693,-4.23977 -5.58343,-9.18325c0.1935,-4.94348 1.19672,-8.91787 4.47387,-8.78959c1.26568,0.04955 7.61086,3.7072 7.29139,11.86902z" data-paper-data="{&quot;index&quot;:null}" fill="#2d6a2b" stroke-linecap="butt"/><path d="M212.93167,171.6608c0,0 0.81611,-2.95201 1.82705,-4.72093c0.80089,-1.40136 3.75657,-5.04909 3.75657,-5.04909" fill="none" stroke-linecap="round"/><path d="M207.7646,180.46609c-2.17002,-1.82429 -2.45028,-5.06231 -0.62599,-7.23233c1.82429,-2.17002 5.06231,-2.45028 7.23233,-0.62599c2.17002,1.82429 2.45029,5.06231 0.626,7.23233c-1.82429,2.17002 -5.06231,2.45028 -7.23233,0.62599z" fill="#2d6a2b" stroke-linecap="butt"/><path d="M240.51948,228.55941c-2.08074,4.48844 -5.07901,4.63465 -8.05449,3.25529c-2.97548,-1.37938 -3.70081,-6.13618 -1.62006,-10.62462c2.08074,-4.48844 4.53595,-7.77081 7.51144,-6.39143c1.14919,0.53273 5.59849,6.35026 2.16312,13.76078z" data-paper-data="{&quot;index&quot;:null}" fill="#2d6a2b" stroke-linecap="butt"/><path d="M224.48223,143.37517c12.51296,-9.72461 27.12778,-2.41683 27.12778,-2.41683c0,0 -11.74197,3.98426 -17.87576,8.72764c-6.13379,4.74338 -15.72893,17.25953 -15.72893,17.25953c0,0 -6.97655,-13.11479 6.47692,-23.57034z" fill="#367e33" stroke-linecap="round"/></g></g></svg>