<svg version="1.1" xmlns="http://www.w3.org/2000/svg" xmlns:xlink="http://www.w3.org/1999/xlink" width="129.64932" height="89.01561" viewBox="0,0,129.64932,89.01561"><g transform="translate(-179.32804,-143.10114)"><g data-paper-data="{&quot;isPaintingLayer&quot;:true}" fill-rule="nonzero" stroke="#000000" stroke-width="2" stroke-linejoin="miter" stroke-miterlimit="10" stroke-dasharray="" stroke-dashoffset="0" style="mix-blend-mode: normal"><path d="M244.82182,186.98659c0,-2.11232 1.71238,-3.8247 3.8247,-3.8247c2.11232,0 3.8247,1.71238 3.8247,3.8247c0,2.11232 -1.71238,3.8247 -3.8247,3.8247c-2.11232,0 -3.8247,-1.71238 -3.8247,-3.8247z" fill="#2d6a2b" stroke-linecap="butt"/><path d="M236.60052,164.34752c0,-9.17193 7.43532,-16.60724 16.60724,-16.60724c9.17193,0 16.60724,7.43532 16.60724,16.60724c0,9.17193 -7.43532,16.60724 -16.60724,16.60724c-9.17193,0 -16.60724,-7.43532 -16.60724,-16.60724z" fill="#2d6a2b" stroke-linecap="butt"/><path d="M245.533,145.96621c14.84222,-5.55435 25.0872,3.06696 25.0872,3.06696l-37.64308,16.22019c0,0 -3.40193,-13.31531 12.55588,-19.28715z" fill="#367e33" stroke-linecap="round"/><path d="M230.88101,206.97503l9.79864,-23.61272l7.25115,3.00903l-9.79864,23.61272z" fill="#2d6a2b" stroke-linecap="butt"/><path d="M180.32804,167.10628c0,0 19.288,14.30279 48.52296,21.97826c30.16773,7.92037 70.34051,7.6299 72.26499,7.6299c3.78943,0 6.86138,2.66488 6.86138,5.95217c0,3.28729 -3.07195,5.95217 -6.86138,5.95217c-2.20979,0 -53.03224,-1.91507 -86.58647,-13.40417c-23.98586,-8.21285 -34.20148,-28.10832 -34.20148,-28.10832z" fill="#2d6a2b" stroke-linecap="butt"/><path d="M262.00561,212.21849c4.11537,2.74578 3.7991,5.73089 1.97887,8.45907c-1.82024,2.72817 -6.632,2.71389 -10.74737,-0.03189c-4.11537,-2.74578 -6.98146,-5.67624 -5.16122,-8.4044c0.703,-1.05366 7.13516,-4.55612 13.92974,-0.02277z" data-paper-data="{&quot;index&quot;:null}" fill="#2d6a2b" stroke-linecap="butt"/><path d="M226.74708,152.55536c0,0 2.78477,-1.27492 4.78933,-1.63939c1.58804,-0.28873 6.28217,-0.37361 6.28217,-0.37361" fill="none" stroke-linecap="round"/><path d="M216.68209,154.26641c0,-2.83496 2.29819,-5.13315 5.13315,-5.13315c2.83496,0 5.13315,2.29819 5.13315,5.13315c0,2.83496 -2.29819,5.13315 -5.13315,5.13315c-2.83496,0 -5.13315,-2.29819 -5.13315,-5.13315z" fill="#2d6a2b" stroke-linecap="butt"/><path d="M229.72706,226.71689c-1.74035,4.63106 -4.71937,5.00038 -7.7894,3.84667c-3.07004,-1.15372 -4.14795,-5.84321 -2.4076,-10.47428c1.74035,-4.63106 3.94403,-8.08734 7.01407,-6.93362c1.1857,0.44558 6.0563,5.91523 3.18294,13.56123z" data-paper-data="{&quot;index&quot;:null}" fill="#2d6a2b" stroke-linecap="butt"/></g></g></svg>