<svg version="1.1" xmlns="http://www.w3.org/2000/svg" xmlns:xlink="http://www.w3.org/1999/xlink" width="60.93105" height="136.31035" viewBox="0,0,60.93105,136.31035"><g transform="translate(-183.64498,-104.7683)"><g data-paper-data="{&quot;isPaintingLayer&quot;:true}" fill-rule="nonzero" stroke="#000000" stroke-linejoin="miter" stroke-miterlimit="10" stroke-dasharray="" stroke-dashoffset="0" style="mix-blend-mode: normal"><path d="M194.55115,174.8673c0,0 2.10697,-2.22284 3.83029,-3.3097c1.36524,-0.86102 5.68789,-2.69317 5.68789,-2.69317" fill="#8a000d" stroke-width="2" stroke-linecap="round"/><path d="M185.85383,180.21411c-1.05895,-2.62976 0.21443,-5.62005 2.84419,-6.679c2.62976,-1.05895 5.62005,0.21443 6.679,2.84419c1.05895,2.62976 -0.21443,5.62005 -2.84419,6.679c-2.62976,1.05895 -5.62005,-0.21443 -6.679,-2.84419z" fill="#8a001b" stroke-width="2" stroke-linecap="butt"/><path d="M203.48793,174.46701c0,-9.17193 7.43532,-16.60724 16.60724,-16.60724c9.17193,0 16.60724,7.43532 16.60724,16.60724c0,9.17193 -7.43532,16.60724 -16.60724,16.60724c-9.17193,0 -16.60724,-7.43532 -16.60724,-16.60724z" fill="#8a001b" stroke-width="2" stroke-linecap="butt"/><path d="M215.36462,220.18492v-25.56509h7.8507v25.56509z" fill="#8a001b" stroke-width="2" stroke-linecap="butt"/><path d="M205.59337,218.33418c0,-2.11232 1.71238,-3.8247 3.8247,-3.8247c2.11232,0 3.8247,1.71238 3.8247,3.8247c0,2.11232 -1.71238,3.8247 -3.8247,3.8247c-2.11232,0 -3.8247,-1.71238 -3.8247,-3.8247z" fill="#8a001b" stroke-width="2" stroke-linecap="butt"/><path d="M230.27623,204.54553c0,-2.11232 1.71238,-3.8247 3.8247,-3.8247c2.11232,0 3.8247,1.71238 3.8247,3.8247c0,2.11232 -1.71238,3.8247 -3.8247,3.8247c-2.11232,0 -3.8247,-1.71238 -3.8247,-3.8247z" fill="#8a001b" stroke-width="2" stroke-linecap="butt"/><path d="M208.11782,228.60455c4.11347,0 7.4481,2.47844 7.4481,5.53575c0,3.05731 -3.33463,5.53575 -7.4481,5.53575c-4.11347,0 -7.4481,-2.47844 -7.4481,-5.53575c0,-3.05731 3.33463,-5.53575 7.4481,-5.53575z" data-paper-data="{&quot;index&quot;:null}" fill="#8a001b" stroke-width="2" stroke-linecap="butt"/><path d="M234.18616,228.20195c4.94728,0 6.34095,2.65869 6.34095,5.93835c0,3.27966 -4.01056,5.93835 -8.95785,5.93835c-4.94728,0 -8.95785,-0.84699 -8.95785,-4.12665c0,-1.26666 3.40667,-7.75005 11.57475,-7.75005z" data-paper-data="{&quot;index&quot;:null}" fill="#8a001b" stroke-width="2" stroke-linecap="butt"/><g fill="#a95151" stroke-width="1" stroke-linecap="butt" font-family="Sans Serif" font-weight="normal" font-size="40" text-anchor="start"><text transform="translate(194.04458,171.87658) rotate(-10.40735) scale(0.17598,0.17598)" font-size="40" xml:space="preserve" fill="#a95151" fill-rule="nonzero" stroke="#000000" stroke-width="1" stroke-linecap="butt" stroke-linejoin="miter" stroke-miterlimit="10" stroke-dasharray="" stroke-dashoffset="0" font-family="Sans Serif" font-weight="normal" text-anchor="start" style="mix-blend-mode: normal"><tspan x="0" dy="0">Stupid Top Hat</tspan></text><text transform="translate(225.74294,145.35947) rotate(46.06496) scale(0.08522,0.08076) skewX(8.71559)" font-size="40" xml:space="preserve" fill="#a95151" fill-rule="nonzero" stroke="#000000" stroke-width="1" stroke-linecap="butt" stroke-linejoin="miter" stroke-miterlimit="10" stroke-dasharray="" stroke-dashoffset="0" font-family="Sans Serif" font-weight="normal" text-anchor="start" style="mix-blend-mode: normal"><tspan x="0" dy="0">Stupid Top Hat</tspan></text><text transform="translate(204.61791,148.4677) rotate(113.56134) scale(0.08607,-0.08257) skewX(7.12363)" font-size="40" xml:space="preserve" data-paper-data="{&quot;index&quot;:null}" fill="#a95151" fill-rule="nonzero" stroke="#000000" stroke-width="1" stroke-linecap="butt" stroke-linejoin="miter" stroke-miterlimit="10" stroke-dasharray="" stroke-dashoffset="0" font-family="Sans Serif" font-weight="normal" text-anchor="start" style="mix-blend-mode: normal"><tspan x="0" dy="0">Stupid Top Hat</tspan></text><text transform="translate(228.59628,146.02355) rotate(-83.05753) scale(0.12302,0.12302)" font-size="40" xml:space="preserve" fill="#a95151" fill-rule="nonzero" stroke="#000000" stroke-width="1" stroke-linecap="butt" stroke-linejoin="miter" stroke-miterlimit="10" stroke-dasharray="" stroke-dashoffset="0" font-family="Sans Serif" font-weight="normal" text-anchor="start" style="mix-blend-mode: normal"><tspan x="0" dy="0">Stupid Top Hat</tspan></text><text transform="translate(203.31081,150.51244) rotate(-118.16796) scale(0.12303,-0.12303)" font-size="40" xml:space="preserve" data-paper-data="{&quot;index&quot;:null}" fill="#a95151" fill-rule="nonzero" stroke="#000000" stroke-width="1" stroke-linecap="butt" stroke-linejoin="miter" stroke-miterlimit="10" stroke-dasharray="" stroke-dashoffset="0" font-family="Sans Serif" font-weight="normal" text-anchor="start" style="mix-blend-mode: normal"><tspan x="0" dy="0">Stupid Top Hat</tspan></text><text transform="translate(185.11438,121.27468) rotate(-10.40735) scale(0.17598,0.17598)" font-size="40" xml:space="preserve" fill="#a95151" fill-rule="nonzero" stroke="#000000" stroke-width="1" stroke-linecap="butt" stroke-linejoin="miter" stroke-miterlimit="10" stroke-dasharray="" stroke-dashoffset="0" font-family="Sans Serif" font-weight="normal" text-anchor="start" style="mix-blend-mode: normal"><tspan x="0" dy="0">Stupid Top Hat</tspan></text><text transform="translate(200.75083,130.53392) rotate(-10.61263) scale(0.32044,0.32044)" font-size="40" xml:space="preserve" fill="#a95151" fill-rule="nonzero" stroke="#000000" stroke-width="1" stroke-linecap="butt" stroke-linejoin="miter" stroke-miterlimit="10" stroke-dasharray="" stroke-dashoffset="0" font-family="Sans Serif" font-weight="normal" text-anchor="start" style="mix-blend-mode: normal"><tspan x="0" dy="0">Top</tspan><tspan x="0" dy="46.150000000000006px"> </tspan><tspan x="0" dy="46.150000000000006px">hat</tspan></text></g></g></g></svg>