<svg version="1.1" xmlns="http://www.w3.org/2000/svg" xmlns:xlink="http://www.w3.org/1999/xlink" width="97.40101" height="94.86299" viewBox="0,0,97.40101,94.86299"><g transform="translate(-166.35493,-132.22652)"><g data-paper-data="{&quot;isPaintingLayer&quot;:true}" fill-rule="nonzero" stroke="#000000" stroke-width="2" stroke-linejoin="miter" stroke-miterlimit="10" stroke-dasharray="" stroke-dashoffset="0" style="mix-blend-mode: normal"><path d="M220.46584,161.32963c0,-9.17193 7.43532,-16.60724 16.60724,-16.60724c9.17193,0 16.60724,7.43532 16.60724,16.60724c0,9.17193 -7.43532,16.60724 -16.60724,16.60724c-9.17193,0 -16.60724,-7.43532 -16.60724,-16.60724z" fill="#ff6b00" stroke-linecap="butt"/><path d="M236.19813,206.94084l-2.13149,-25.47608l7.82337,-0.65455l2.13149,25.47608z" fill="#ff6b00" stroke-linecap="butt"/><path d="M222.81413,215.01801c4.11347,0 7.4481,2.47844 7.4481,5.53575c0,3.05731 -3.33463,5.53575 -7.4481,5.53575c-4.11347,0 -7.4481,-2.47844 -7.4481,-5.53575c0,-3.05731 3.33463,-5.53575 7.4481,-5.53575z" data-paper-data="{&quot;index&quot;:null}" fill="#ff6b00" stroke-linecap="butt"/><path d="M181.15404,169.29309c0,0 3.01693,0.52775 4.87505,1.36349c1.47203,0.66208 5.38768,3.25241 5.38768,3.25241" fill="none" stroke-linecap="round"/><path d="M171.8917,164.9988c1.60663,-2.33575 4.80255,-2.92683 7.13831,-1.32019c2.33575,1.60663 2.92683,4.80255 1.32019,7.13831c-1.60663,2.33575 -4.80255,2.92683 -7.13831,1.32019c-2.33575,-1.60663 -2.92683,-4.80255 -1.32019,-7.13831z" fill="#ff6b00" stroke-linecap="butt"/><path d="M254.56185,211.5285c4.52935,-1.99011 6.87479,-0.11664 8.19408,2.88597c1.31929,3.00261 -1.28298,7.05 -5.81234,9.04013c-4.52935,1.99011 -8.54183,2.82799 -9.86112,-0.17462c-0.50953,-1.15965 0.00132,-8.46573 7.47939,-11.75146z" data-paper-data="{&quot;index&quot;:null}" fill="#ff6b00" stroke-linecap="butt"/><path d="M179.37317,181.48692l7.67325,-10.36516l-19.02608,-28.37131l46.47978,-9.256l-6.01377,33.08679l11.09211,6.52325z" data-paper-data="{&quot;index&quot;:null}" fill="#ffa340" stroke-linecap="butt"/><path d="M191.20817,183.14566c-0.56014,-2.0367 0.63685,-4.14186 2.67355,-4.702c2.0367,-0.56014 4.14186,0.63685 4.702,2.67355c0.56014,2.0367 -0.63685,4.14186 -2.67355,4.702c-2.0367,0.56014 -4.14186,-0.63685 -4.702,-2.67355z" fill="#ff6b00" stroke-linecap="butt"/><path d="M239.75601,190.97498c0,-2.11232 1.71238,-3.8247 3.8247,-3.8247c2.11232,0 3.8247,1.71238 3.8247,3.8247c0,2.11232 -1.71238,3.8247 -3.8247,3.8247c-2.11232,0 -3.8247,-1.71238 -3.8247,-3.8247z" fill="#ff6b00" stroke-linecap="butt"/></g></g></svg>