<svg version="1.1" xmlns="http://www.w3.org/2000/svg" xmlns:xlink="http://www.w3.org/1999/xlink" width="127.49742" height="90.46466" viewBox="0,0,127.49742,90.46466"><g transform="translate(-193.68714,-137.02406)"><g data-paper-data="{&quot;isPaintingLayer&quot;:true}" fill-rule="nonzero" stroke="#000000" stroke-width="2" stroke-linejoin="miter" stroke-miterlimit="10" stroke-dasharray="" stroke-dashoffset="0" style="mix-blend-mode: normal"><path d="M251.85633,199.5623c0,-2.11232 1.71238,-3.8247 3.8247,-3.8247c2.11232,0 3.8247,1.71238 3.8247,3.8247c0,2.11232 -1.71238,3.8247 -3.8247,3.8247c-2.11232,0 -3.8247,-1.71238 -3.8247,-3.8247z" fill="#ff6b00" stroke-linecap="butt"/><path d="M246.61814,160.54896c0,-9.17193 7.43532,-16.60724 16.60724,-16.60724c9.17193,0 16.60724,7.43532 16.60724,16.60724c0,9.17193 -7.43532,16.60724 -16.60724,16.60724c-9.17193,0 -16.60724,-7.43532 -16.60724,-16.60724z" fill="#ff6b00" stroke-linecap="butt"/><path d="M242.74199,205.75506l6.05478,-24.83774l7.62734,1.85935l-6.05478,24.83774z" fill="#ff6b00" stroke-linecap="butt"/><path d="M222.81413,215.01801c4.11347,0 7.4481,2.47844 7.4481,5.53575c0,3.05731 -3.33463,5.53575 -7.4481,5.53575c-4.11347,0 -7.4481,-2.47844 -7.4481,-5.53575c0,-3.05731 3.33463,-5.53575 7.4481,-5.53575z" data-paper-data="{&quot;index&quot;:null}" fill="#ff6b00" stroke-linecap="butt"/><path d="M272.52913,214.82491c4.92989,0.41436 6.096,3.18044 5.82131,6.44858c-0.27469,3.26814 -4.49383,5.58158 -9.42374,5.16723c-4.92989,-0.41436 -8.85543,-1.59426 -8.58075,-4.8624c0.10609,-1.2622 4.0438,-7.43749 12.18318,-6.75338z" data-paper-data="{&quot;index&quot;:null}" fill="#ff6b00" stroke-linecap="butt"/><path d="M218.27819,167.16358c0,0 6.66939,1.30888 10.45088,2.60743c2.99574,1.02873 10.43493,4.56466 10.43493,4.56466" fill="none" stroke-linecap="round"/><path d="M199.51023,160.56687c5.22309,-1.82609 13.0228,-1.54852 17.42115,0.61999c4.39835,2.1685 3.72979,5.40675 -1.49332,7.23284c-5.22309,1.82609 -13.0228,1.54852 -17.42115,-0.61999c-4.39835,-2.1685 -3.72979,-5.40675 1.49332,-7.23284z" fill="#ff6b00" stroke-linecap="butt"/><path d="M206.35398,178.44862l24.44062,-7.95931l-26.06492,-32.40089l113.85606,3.40075l-35.09921,30.30756l21.59373,9.23109z" data-paper-data="{&quot;index&quot;:null}" fill="#ffa340" stroke-linecap="butt"/><path d="M257.5407,182.9598c21.19827,0.93847 42.42979,-7.99921 43.5052,-7.95676c2.61414,0.1032 5.96056,-0.63998 7.1701,2.06714c1.20954,2.70712 -0.5679,5.83832 -2.78998,7.73625c-1.01906,0.87041 -24.96807,11.66873 -49.82086,8.93609c-29.33886,-3.22589 -60.26318,-20.25262 -60.91802,-21.71823c-0.71195,-1.59346 32.52222,9.59271 62.85356,10.93551z" data-paper-data="{&quot;index&quot;:null}" fill="#ff6b00" stroke-linecap="butt"/></g></g></svg>