<svg version="1.1" xmlns="http://www.w3.org/2000/svg" xmlns:xlink="http://www.w3.org/1999/xlink" width="100.99263" height="42.04588" viewBox="0,0,100.99263,42.04588"><g transform="translate(-193.34091,-138.91393)"><g data-paper-data="{&quot;isPaintingLayer&quot;:true}" fill-rule="nonzero" stroke="none" stroke-width="0" stroke-linecap="butt" stroke-linejoin="miter" stroke-miterlimit="10" stroke-dasharray="" stroke-dashoffset="0" style="mix-blend-mode: normal"><path d="" fill="#5c6cff"/><path d="" fill="#5c6cff"/><path d="" fill="#5c6cff"/><path d="M281.02014,139.03913c1.59862,-0.41225 3.14558,0.22692 3.45523,1.42766c0.30965,1.20073 -0.73527,2.50832 -2.33389,2.92058c-1.59862,0.41225 -7.89554,0.08548 -7.89554,0.08548c0,0 5.17558,-4.02146 6.7742,-4.43371z" fill="#5c6cff"/><path d="M281.45808,139.2027c1.16791,-0.30118 2.46739,0.45023 2.58289,0.89812c0.1155,0.44789 -1.10463,0.49581 -2.15473,0.39005c-1.0501,-0.10576 -2.69483,0.52855 -2.81033,0.08066c-0.1155,-0.44789 1.21426,-1.06764 2.38217,-1.36882z" fill="#ffffff"/><path d="M292.63021,171.98748c1.39675,0.75516 2.06924,2.21781 1.50204,3.26692c-0.5672,1.04911 -2.15931,1.2874 -3.55607,0.53225c-1.39675,-0.75516 -5.62243,-5.10496 -5.62243,-5.10496c0,0 6.2797,0.55064 7.67646,1.3058z" fill="#5c6cff"/><path d="M292.83196,172.3893c1.02043,0.5517 1.44502,1.93158 1.23344,2.32291c-0.21158,0.39134 -1.10314,-0.37309 -1.77429,-1.13462c-0.67115,-0.76154 -2.24568,-1.39031 -2.03411,-1.78164c0.21158,-0.39134 1.55452,0.04166 2.57495,0.59335z" fill="#ffffff"/><path d="M200.93137,176.21111c0,0 -3.34664,3.68259 -4.47148,4.34003c-1.12484,0.65743 -2.43701,0.50548 -2.93081,-0.33939c-0.4938,-0.84487 0.01775,-2.06273 1.14259,-2.72017c1.12484,-0.65743 6.25969,-1.28048 6.25969,-1.28048z" data-paper-data="{&quot;index&quot;:null}" fill="#5c6cff"/><path d="M196.61267,177.26971c0.1842,0.31515 -1.08988,0.87379 -1.61949,1.51664c-0.52961,0.64285 -1.23989,1.29409 -1.42409,0.97893c-0.18419,-0.31515 0.12633,-1.45836 0.9481,-1.93866c0.82177,-0.4803 1.91128,-0.87207 2.09548,-0.55691z" data-paper-data="{&quot;index&quot;:null}" fill="#ffffff"/></g></g></svg>