<svg version="1.1" xmlns="http://www.w3.org/2000/svg" xmlns:xlink="http://www.w3.org/1999/xlink" width="62.9717" height="115.3488" viewBox="0,0,62.9717,115.3488"><g transform="translate(-200.63537,-107.25464)"><g data-paper-data="{&quot;isPaintingLayer&quot;:true}" fill-rule="nonzero" stroke="#000000" stroke-width="2" stroke-linejoin="miter" stroke-miterlimit="10" stroke-dasharray="" stroke-dashoffset="0" style="mix-blend-mode: normal"><path d="M250.53177,198.06454c0,-2.11232 1.71238,-3.8247 3.8247,-3.8247c2.11232,0 3.8247,1.71238 3.8247,3.8247c0,2.11232 -1.71238,3.8247 -3.8247,3.8247c-2.11232,0 -3.8247,-1.71238 -3.8247,-3.8247z" fill="#ff6b00" stroke-linecap="butt"/><path d="M229.39258,161.77318c0,-9.17193 7.43532,-16.60724 16.60724,-16.60724c9.17193,0 16.60724,7.43532 16.60724,16.60724c0,9.17193 -7.43532,16.60724 -16.60724,16.60724c-9.17193,0 -16.60724,-7.43532 -16.60724,-16.60724z" fill="#ff6b00" stroke-linecap="butt"/><path d="M237.62028,205.45168l1.50915,-25.52049l7.837,0.46343l-1.50916,25.5205z" data-paper-data="{&quot;index&quot;:null}" fill="#ff6b00" stroke-linecap="butt"/><path d="M227.21116,198.82143c0,-2.11232 1.71238,-3.8247 3.8247,-3.8247c2.11232,0 3.8247,1.71238 3.8247,3.8247c0,2.11232 -1.71238,3.8247 -3.8247,3.8247c-2.11232,0 -3.8247,-1.71238 -3.8247,-3.8247z" fill="#ff6b00" stroke-linecap="butt"/><path d="M219.68541,151.42688c0,0 3.05164,0.26064 4.976,0.92987c1.52452,0.53019 5.65262,2.76643 5.65262,2.76643" fill="none" stroke-linecap="round"/><path d="M209.91118,148.64746c1.39518,-2.46789 4.52682,-3.3375 6.99471,-1.94231c2.46789,1.39518 3.33749,4.52681 1.94231,6.9947c-1.39518,2.46789 -4.52682,3.3375 -6.99471,1.94231c-2.46789,-1.39518 -3.33749,-4.52681 -1.94231,-6.9947z" fill="#ff6b00" stroke-linecap="butt"/><path d="M250.51993,209.85436c4.94118,0.2456 6.20114,2.9702 6.03833,6.24582c-0.16282,3.27562 -4.30042,5.73193 -9.24161,5.48633c-4.94118,-0.2456 -8.90476,-1.29064 -8.74194,-4.56626c0.06288,-1.2651 3.78721,-7.57137 11.94522,-7.16589z" data-paper-data="{&quot;index&quot;:null}" fill="#ff6b00" stroke-linecap="butt"/><path d="M224.83178,165.12888l4.22817,-12.18351l-26.62972,-21.39582l41.5955,-22.71252l4.14025,33.37304l12.53391,2.91357z" data-paper-data="{&quot;index&quot;:null}" fill="#ffa340" stroke-linecap="butt"/><path d="M233.2813,218.84309c-4.72124,1.47832 -6.8457,-0.64244 -7.82571,-3.77226c-0.98002,-3.12982 2.05285,-6.86544 6.7741,-8.34379c4.72124,-1.47832 8.80167,-1.86846 9.78167,1.26136c0.37849,1.20878 -0.93519,8.41391 -8.73007,10.85468z" data-paper-data="{&quot;index&quot;:null}" fill="#ff6b00" stroke-linecap="butt"/></g></g></svg>