<svg version="1.1" xmlns="http://www.w3.org/2000/svg" xmlns:xlink="http://www.w3.org/1999/xlink" width="166.15796" height="126.3194" viewBox="0,0,166.15796,126.3194"><defs><radialGradient cx="258.70285" cy="152.37597" r="18.84183" gradientUnits="userSpaceOnUse" id="color-1"><stop offset="0" stop-color="#ffffff"/><stop offset="1" stop-color="#0debff"/></radialGradient></defs><g transform="translate(-214.43525,-101.36657)"><g data-paper-data="{&quot;isPaintingLayer&quot;:true}" fill-rule="nonzero" stroke-linejoin="miter" stroke-miterlimit="10" stroke-dasharray="" stroke-dashoffset="0" style="mix-blend-mode: normal"><g data-paper-data="{&quot;index&quot;:null}" fill="#76f4ff" stroke="#53acb4" stroke-width="1" stroke-linecap="butt"><path d="M315.48906,147.55602l-34.53572,10.77013l26.91157,-24.17603l72.44005,-32.32695z" data-paper-data="{&quot;index&quot;:null}"/><path d="M264.67503,161.97818l22.63076,-10.28548l2.77714,4.88317l-20.13134,14.68032z"/><path d="M292.83761,151.7289l13.07683,15.49004l-15.44579,-4.12332l-8.28969,-14.6757l4.03074,-15.84867z"/></g><path d="M263.33807,167.05088c-0.11056,-2.10942 1.50984,-3.90909 3.61927,-4.01964c2.10942,-0.11056 3.90909,1.50984 4.01965,3.61927c0.11056,2.10942 -1.50984,3.90909 -3.61927,4.01965c-2.10942,0.11056 -3.90909,-1.50985 -4.01965,-3.61927z" fill="#0debff" stroke="#000000" stroke-width="2" stroke-linecap="butt"/><path d="M244.33909,207.05643l14.21546,-21.24839l6.5251,4.36537l-14.21546,21.24839z" data-paper-data="{&quot;index&quot;:null}" fill="#0debff" stroke="#000000" stroke-width="2" stroke-linecap="butt"/><path d="M218.46497,186.35772c0,-2.11232 1.71238,-3.8247 3.8247,-3.8247c2.11232,0 3.8247,1.71238 3.8247,3.8247c0,2.11232 -1.71238,3.8247 -3.8247,3.8247c-2.11232,0 -3.8247,-1.71238 -3.8247,-3.8247z" fill="#0debff" stroke="#000000" stroke-width="2" stroke-linecap="butt"/><path d="M222.88336,215.61447c4.11347,0 7.4481,2.47844 7.4481,5.53575c0,3.05731 -3.33463,5.53575 -7.4481,5.53575c-4.11347,0 -7.4481,-2.47844 -7.4481,-5.53575c0,-3.05731 3.33463,-5.53575 7.4481,-5.53575z" data-paper-data="{&quot;index&quot;:null}" fill="#0debff" stroke="#000000" stroke-width="2" stroke-linecap="butt"/><path d="M276.91765,214.19453c4.91629,0.55282 6.00415,3.35059 5.63768,6.60971c-0.36648,3.25912 -4.64901,5.45301 -9.56532,4.9002c-4.91629,-0.55282 -8.8071,-1.84265 -8.44063,-5.10177c0.14154,-1.25873 4.25134,-7.32085 12.36827,-6.40812z" data-paper-data="{&quot;index&quot;:null}" fill="#0debff" stroke="#000000" stroke-width="2" stroke-linecap="butt"/><path d="M259.9536,167.62089c3.32936,-8.54632 12.95649,-12.77551 21.50282,-9.44615c8.54632,3.32936 12.77551,12.95649 9.44615,21.50282c-3.32936,8.54632 -12.95649,12.77551 -21.50282,9.44615c-8.54632,-3.32936 -12.77551,-12.95649 -9.44615,-21.50282z" fill="#0debff" stroke="#000000" stroke-width="2" stroke-linecap="butt"/><path d="M250.09,170.79654c0,0 2.35158,-1.96225 4.18978,-2.84092c1.45625,-0.6961 5.96292,-2.01219 5.96292,-2.01219" fill="none" stroke="#000000" stroke-width="2" stroke-linecap="round"/><path d="M240.82898,175.09368c-0.74537,-2.73522 0.86771,-5.5568 3.60294,-6.30217c2.73522,-0.74537 5.5568,0.86771 6.30217,3.60294c0.74537,2.73522 -0.86771,5.5568 -3.60294,6.30217c-2.73522,0.74537 -5.5568,-0.86771 -6.30217,-3.60294z" fill="#0debff" stroke="#000000" stroke-width="2" stroke-linecap="butt"/><path d="M256.15805,171.97337l-0.655,-20.79655l29.31695,-6.45506l8.14018,19.14844z" fill="url(#color-1)" stroke="#000000" stroke-width="2" stroke-linecap="butt"/></g></g></svg>