<svg version="1.1" xmlns="http://www.w3.org/2000/svg" xmlns:xlink="http://www.w3.org/1999/xlink" width="116.47274" height="112.11743" viewBox="0,0,116.47274,112.11743"><g transform="translate(-181.73237,-100.0352)"><g data-paper-data="{&quot;isPaintingLayer&quot;:true}" fill-rule="nonzero" stroke="#000000" stroke-width="2" stroke-linejoin="miter" stroke-miterlimit="10" stroke-dasharray="" stroke-dashoffset="0" style="mix-blend-mode: normal"><path d="M201.67506,153.26139c-0.29871,-9.16706 6.89051,-16.84058 16.05756,-17.13929c9.16706,-0.29871 16.84058,6.89051 17.13929,16.05756c0.29871,9.16706 -6.89051,16.84058 -16.05756,17.13929c-9.16706,0.29871 -16.84058,-6.89051 -17.13929,-16.05756z" fill="#ff6b00" stroke-linecap="butt"/><path d="M234.8743,195.53529l-14.51573,-21.04439l6.46244,-4.45761l14.51574,21.0444z" data-paper-data="{&quot;index&quot;:null}" fill="#ff6b00" stroke-linecap="butt"/><path d="M194.08071,180.63232c-1.29992,-1.66497 -1.00398,-4.06848 0.66098,-5.36841c1.66497,-1.29992 4.06848,-1.00398 5.36841,0.66098c1.29992,1.66497 1.00398,4.06848 -0.66098,5.36841c-1.66497,1.29992 -4.06848,1.00398 -5.36841,-0.66098z" fill="#ff6b00" stroke-linecap="butt"/><path d="M192.23636,142.28766c0,0 2.39243,-1.91226 4.24872,-2.75201c1.47059,-0.66526 6.00398,-1.8861 6.00398,-1.8861" data-paper-data="{&quot;index&quot;:null}" fill="none" stroke-linecap="round"/><path d="M182.88684,146.38871c-0.68756,-2.7503 0.98461,-5.53728 3.73493,-6.22485c2.75031,-0.68756 5.53727,0.98462 6.22484,3.73493c0.68756,2.7503 -0.98461,5.53728 -3.73493,6.22485c-2.75031,0.68756 -5.53727,-0.98462 -6.22484,-3.73493z" data-paper-data="{&quot;index&quot;:null}" fill="#ff6b00" stroke-linecap="butt"/><path d="M222.2067,210.4403c-4.59373,1.83666 -6.87483,-0.11465 -8.09237,-3.15992c-1.21756,-3.04528 1.51936,-7.00287 6.1131,-8.83952c4.59373,-1.83666 8.63212,-2.5391 9.84968,0.50617c0.47023,1.17613 -0.28603,8.4609 -7.87039,11.49327z" data-paper-data="{&quot;index&quot;:null}" fill="#ff6b00" stroke-linecap="butt"/><path d="M194.62938,148.41261l7.91867,-10.17889l-18.34289,-28.81773l46.68764,-8.14301l-6.80245,32.9337l10.9331,6.78638z" data-paper-data="{&quot;index&quot;:null}" fill="#ffa340" stroke-linecap="butt"/><path d="M285.41255,139.31605c0.16095,-4.94466 2.86358,-6.25111 6.1415,-6.1444c3.27791,0.1067 5.80473,4.20164 5.64378,9.1463c-0.0616,1.89259 -0.95825,39.05557 -19.42541,51.82965c-29.78107,20.60013 -82.95537,9.09808 -84.97865,9.03221c-0.71626,-0.02332 48.19967,6.6056 74.13789,-13.31167c19.90775,-15.28663 18.36551,-47.00715 18.4809,-50.55211z" data-paper-data="{&quot;index&quot;:null}" fill="#ff6b00" stroke-linecap="butt"/><path d="M225.09073,178.66974c-1.29992,-1.66497 -1.00398,-4.06848 0.66098,-5.36841c1.66497,-1.29992 4.06848,-1.00398 5.36841,0.66098c1.29992,1.66497 1.00398,4.06848 -0.66098,5.36841c-1.66497,1.29992 -4.06848,1.00398 -5.36841,-0.66098z" fill="#ff6b00" stroke-linecap="butt"/></g></g></svg>