<svg version="1.1" xmlns="http://www.w3.org/2000/svg" xmlns:xlink="http://www.w3.org/1999/xlink" width="138.8265" height="102.99744" viewBox="0,0,138.8265,102.99744"><g transform="translate(-177.62695,-123.76498)"><g data-paper-data="{&quot;isPaintingLayer&quot;:true}" fill-rule="nonzero" stroke="#000000" stroke-width="2" stroke-linejoin="miter" stroke-miterlimit="10" stroke-dasharray="" stroke-dashoffset="0" style="mix-blend-mode: normal"><path d="M219.96317,188.65575c-7.28047,5.57842 -17.70468,4.19863 -23.28311,-3.08185c-5.57842,-7.28047 -4.19864,-17.70467 3.08184,-23.2831c7.28047,-5.57842 17.70468,-4.19863 23.28311,3.08185c5.57842,7.28047 4.19864,17.70467 -3.08184,23.2831z" data-paper-data="{&quot;index&quot;:null}" fill="#ff6b00" stroke-linecap="butt"/><path d="M245.4744,206.46513l-19.38455,-16.66772l5.11844,-5.95274l19.38456,16.66772z" fill="#ff6b00" stroke-linecap="butt"/><path d="M214.98246,205.56433c0,-2.11232 1.71238,-3.8247 3.8247,-3.8247c2.11232,0 3.8247,1.71238 3.8247,3.8247c0,2.11232 -1.71238,3.8247 -3.8247,3.8247c-2.11232,0 -3.8247,-1.71238 -3.8247,-3.8247z" fill="#ff6b00" stroke-linecap="butt"/><path d="M206.95704,154.39953c0,0 4.64447,-0.68631 6.25835,-0.66199c2.03719,0.03069 4.99337,0.83153 4.99337,0.83153" data-paper-data="{&quot;index&quot;:null}" fill="none" stroke-linecap="round"/><path d="M224.19654,160.5115c-2.79656,0.46506 -5.44061,-1.42499 -5.90567,-4.22155c-0.46506,-2.79656 1.42499,-5.44061 4.22155,-5.90567c2.79656,-0.46506 5.44062,1.42499 5.90568,4.22154c0.46506,2.79656 -1.425,5.44061 -4.22156,5.90567z" data-paper-data="{&quot;index&quot;:null}" fill="#ff6b00" stroke-linecap="butt"/><path d="M188.06756,171.19792l8.1771,-9.93594l-17.01126,-29.00894l46.83153,-7.26995l-8.12503,33.17992l10.76633,7.09941z" data-paper-data="{&quot;index&quot;:null}" fill="#ffa340" stroke-linecap="butt"/><path d="M210.03608,199.74929c0,-2.11232 1.71238,-3.8247 3.8247,-3.8247c2.11232,0 3.8247,1.71238 3.8247,3.8247c0,2.11232 -1.71238,3.8247 -3.8247,3.8247c-2.11232,0 -3.8247,-1.71238 -3.8247,-3.8247z" fill="#ff6b00" stroke-linecap="butt"/><path d="M226.53339,213.32916c8.08827,1.13904 10.55755,8.03414 10.38091,9.28842c-0.45734,3.24761 -4.54684,3.52704 -9.44578,2.83715c-4.89895,-0.6899 -8.49956,-3.88188 -8.04222,-7.1295c0.45735,-3.24762 2.20816,-5.68599 7.1071,-4.9961z" data-paper-data="{&quot;index&quot;:null}" fill="#ff6b00" stroke-linecap="butt"/><path d="M307.48358,169.00402c4.65857,-1.66533 6.86587,0.36908 7.96986,3.45735c1.10398,3.08827 -1.77756,6.94182 -6.43614,8.60716c-4.65857,1.66533 -57.03815,26.2144 -58.14213,23.12614c-0.42638,-1.19274 48.91702,-32.4411 56.60843,-35.19062z" data-paper-data="{&quot;index&quot;:null}" fill="#ff6b00" stroke-linecap="butt"/></g></g></svg>