<svg version="1.1" xmlns="http://www.w3.org/2000/svg" xmlns:xlink="http://www.w3.org/1999/xlink" width="59.4607" height="83.11506" viewBox="0,0,59.4607,83.11506"><g transform="translate(-209.39968,-138.9535)"><g data-paper-data="{&quot;isPaintingLayer&quot;:true}" fill-rule="nonzero" stroke="#000000" stroke-width="2" stroke-linejoin="miter" stroke-miterlimit="10" stroke-dasharray="" stroke-dashoffset="0" style="mix-blend-mode: normal"><path d="M242.68265,203.60014c0,-2.11232 1.71238,-3.8247 3.8247,-3.8247c2.11232,0 3.8247,1.71238 3.8247,3.8247c0,2.11232 -1.71238,3.8247 -3.8247,3.8247c-2.11232,0 -3.8247,-1.71238 -3.8247,-3.8247z" fill="#ffe819" stroke-linecap="butt"/><path d="M232.83229,159.84967c2.78578,-8.73863 12.12817,-13.56436 20.86679,-10.77858c8.73863,2.78578 13.56436,12.12817 10.77858,20.86679c-2.78578,8.73863 -12.12817,13.56436 -20.86679,10.77858c-8.73863,-2.78578 -13.56436,-12.12817 -10.77858,-20.86679z" fill="#ffe819" stroke-linecap="butt"/><path d="M226.00689,207.6434l7.71784,-24.3723l7.48441,2.37004l-7.71784,24.3723z" fill="#ffe819" stroke-linecap="butt"/><path d="M213.47157,192.13263c0,-2.11232 1.71238,-3.8247 3.8247,-3.8247c2.11232,0 3.8247,1.71238 3.8247,3.8247c0,2.11232 -1.71238,3.8247 -3.8247,3.8247c-2.11232,0 -3.8247,-1.71238 -3.8247,-3.8247z" fill="#ffe819" stroke-linecap="butt"/><path d="M220.3217,150.40177c0,0 2.68058,-1.4815 4.65191,-1.99623c1.56171,-0.40778 6.23604,-0.84675 6.23604,-0.84675" fill="none" stroke-linecap="round"/><path d="M210.41457,152.86769c-0.214,-2.82687 1.90416,-5.29198 4.73103,-5.50598c2.82687,-0.214 5.29198,1.90416 5.50598,4.73103c0.214,2.82687 -1.90416,5.29198 -4.73103,5.50598c-2.82687,0.214 -5.29198,-1.90416 -5.50598,-4.73103z" fill="#ffe819" stroke-linecap="butt"/><path d="M246.60386,209.19186c4.94728,0 6.34095,2.65869 6.34095,5.93835c0,3.27966 -4.01056,5.93835 -8.95785,5.93835c-4.94728,0 -8.95785,-0.84699 -8.95785,-4.12665c0,-1.26666 3.40667,-7.75005 11.57475,-7.75005z" data-paper-data="{&quot;index&quot;:null}" fill="#ffe819" stroke-linecap="butt"/><path d="M228.5316,158.42925l7.79889,-8.34408l-10.52283,-5.01428c0,0 16.51558,-7.11963 26.82092,-4.56343c10.30534,2.5562 14.83787,14.89674 14.83787,14.89674z" data-paper-data="{&quot;index&quot;:null}" fill="#fff067" stroke-linecap="butt"/><path d="M224.84061,210.4627c4.20443,2.60737 3.98762,5.60135 2.25914,8.38856c-1.72848,2.78721 -6.53805,2.933 -10.74249,0.32563c-4.20443,-2.60737 -7.16641,-5.44087 -5.43793,-8.22808c0.66757,-1.07647 6.97966,-4.79093 13.92127,-0.48611z" data-paper-data="{&quot;index&quot;:null}" fill="#ffe819" stroke-linecap="butt"/></g></g></svg>