<svg version="1.1" xmlns="http://www.w3.org/2000/svg" xmlns:xlink="http://www.w3.org/1999/xlink" width="64.42098" height="78.9734" viewBox="0,0,64.42098,78.9734"><g transform="translate(-204.62157,-147.02201)"><g data-paper-data="{&quot;isPaintingLayer&quot;:true}" fill-rule="nonzero" stroke="#000000" stroke-width="2" stroke-linejoin="miter" stroke-miterlimit="10" stroke-dasharray="" stroke-dashoffset="0" style="mix-blend-mode: normal"><path d="M238.64882,211.58454l-4.99586,-25.07221l7.69934,-1.53415l4.99586,25.07221z" data-paper-data="{&quot;index&quot;:null}" fill="#e80000" stroke-linecap="butt"/><path d="M221.09244,194.47398c0,-2.11232 1.71238,-3.8247 3.8247,-3.8247c2.11232,0 3.8247,1.71238 3.8247,3.8247c0,2.11232 -1.71238,3.8247 -3.8247,3.8247c-2.11232,0 -3.8247,-1.71238 -3.8247,-3.8247z" data-paper-data="{&quot;index&quot;:null}" fill="#e80000" stroke-linecap="butt"/><path d="M260.39315,186.54346c0,-2.11232 1.71238,-3.8247 3.8247,-3.8247c2.11232,0 3.8247,1.71238 3.8247,3.8247c0,2.11232 -1.71238,3.8247 -3.8247,3.8247c-2.11232,0 -3.8247,-1.71238 -3.8247,-3.8247z" data-paper-data="{&quot;index&quot;:null}" fill="#e80000" stroke-linecap="butt"/><path d="M260.09314,219.28818c0,3.05731 -3.33463,5.53575 -7.4481,5.53575c-4.11347,0 -7.4481,-2.47844 -7.4481,-5.53575c0,-3.05731 3.33463,-5.53575 7.4481,-5.53575c4.11347,0 7.4481,2.47844 7.4481,5.53575z" data-paper-data="{&quot;index&quot;:null}" fill="#e80000" stroke-linecap="butt"/><path d="M234.18355,220.86876c0,3.27966 -4.01057,4.12665 -8.95785,4.12665c-4.94729,0 -8.95785,-2.65869 -8.95785,-5.93835c0,-3.27966 1.39367,-5.93835 6.34095,-5.93835c8.16808,0 11.57475,6.48339 11.57475,7.75005z" data-paper-data="{&quot;index&quot;:null}" fill="#e80000" stroke-linecap="butt"/><path d="M214.2137,155.40536c0,0 2.87676,1.05098 4.55861,2.20097c1.33238,0.91104 4.73047,4.15065 4.73047,4.15065" data-paper-data="{&quot;index&quot;:null}" fill="none" stroke-linecap="round"/><path d="M205.62157,149.54656c1.99298,-2.0162 5.24305,-2.03503 7.25925,-0.04205c2.0162,1.99298 2.03503,5.24305 0.04205,7.25925c-1.99298,2.0162 -5.24305,2.03503 -7.25925,0.04205c-2.0162,-1.99298 -2.03503,-5.24305 -0.04205,-7.25925z" data-paper-data="{&quot;index&quot;:null}" fill="#e80000" stroke-linecap="butt"/><path d="M240.29603,181.51962c-8.29784,3.90769 -18.19238,0.34878 -22.10007,-7.94907c-3.90769,-8.29784 -0.34878,-18.19238 7.94907,-22.10007c8.29784,-3.90769 18.19238,-0.34878 22.10007,7.94907c3.90769,8.29784 0.34878,18.19238 -7.94907,22.10007z" data-paper-data="{&quot;index&quot;:null}" fill="#e80000" stroke-linecap="butt"/><path d="M215.77902,163.87493l-1.0479,-5.50108l32.81002,-6.24997l1.0479,5.50109z" data-paper-data="{&quot;index&quot;:null}" fill="#ff2121" stroke-linecap="butt"/></g></g></svg>