<svg version="1.1" xmlns="http://www.w3.org/2000/svg" xmlns:xlink="http://www.w3.org/1999/xlink" width="131.82031" height="113.29864" viewBox="0,0,131.82031,113.29864"><defs><linearGradient x1="259.22589" y1="156.86152" x2="235.45341" y2="139.11019" gradientUnits="userSpaceOnUse" id="color-1"><stop offset="0" stop-color="#e80000" stop-opacity="0"/><stop offset="1" stop-color="#e80000"/></linearGradient><linearGradient x1="272.2957" y1="162.94057" x2="248.52321" y2="145.18924" gradientUnits="userSpaceOnUse" id="color-2"><stop offset="0" stop-color="#e80000" stop-opacity="0"/><stop offset="1" stop-color="#e80000"/></linearGradient><linearGradient x1="304.7772" y1="225.45918" x2="304.7772" y2="132.09387" gradientUnits="userSpaceOnUse" id="color-3"><stop offset="0" stop-color="#ff3100"/><stop offset="1" stop-color="#ff8d00"/></linearGradient><linearGradient x1="305.06636" y1="219.82511" x2="305.06636" y2="155.74004" gradientUnits="userSpaceOnUse" id="color-4"><stop offset="0" stop-color="#ffe049"/><stop offset="1" stop-color="#fff3e5"/></linearGradient></defs><g transform="translate(-207.57133,-112.52531)"><g data-paper-data="{&quot;isPaintingLayer&quot;:true}" fill-rule="nonzero" stroke="#000000" stroke-linejoin="miter" stroke-miterlimit="10" stroke-dasharray="" stroke-dashoffset="0" style="mix-blend-mode: normal"><path d="M256.91401,129.96414c-0.10471,2.10972 -1.89987,3.73511 -4.00959,3.63041c-2.10972,-0.10471 -3.73511,-1.89987 -3.63041,-4.00959c0.10471,-2.10972 1.89987,-3.73511 4.00959,-3.63041c2.10972,0.10471 3.73511,1.89987 3.63041,4.00959z" data-paper-data="{&quot;index&quot;:null}" fill="#e80000" stroke-width="2" stroke-linecap="butt"/><path d="M246.9563,125.65422c6.37739,-5.58341 10.71892,-1.45069 13.43381,5.2594c2.7149,6.71008 1.42681,15.38803 -1.28693,24.76271c-4.04257,13.96522 -23.02477,16.70239 -23.02477,16.70239c0,0 11.44371,-10.50683 10.33467,-23.93796c-0.99368,-12.0342 -5.83419,-17.20311 0.54322,-22.78654z" data-paper-data="{&quot;index&quot;:null}" fill="url(#color-1)" stroke-width="0" stroke-linecap="butt"/><path d="M268.87758,136.58812c-0.10471,2.10972 -1.89987,3.73511 -4.00959,3.63041c-2.10972,-0.10471 -3.73511,-1.89987 -3.63041,-4.00959c0.10471,-2.10972 1.89987,-3.73511 4.00959,-3.63041c2.10972,0.10471 3.73511,1.89987 3.63041,4.00959z" data-paper-data="{&quot;index&quot;:null}" fill="#e80000" stroke-width="2" stroke-linecap="butt"/><path d="M231.63748,197.7629l0.93984,-25.54781l7.84539,0.28862l-0.93984,25.54781z" fill="#e80000" stroke-width="2" stroke-linecap="butt"/><path d="M214.78218,156.28722c0,0 2.47778,-1.80026 4.37073,-2.55381c1.49963,-0.59697 6.08435,-1.60812 6.08435,-1.60812" fill="none" stroke-width="2" stroke-linecap="round"/><path d="M208.67363,160.39173c-0.56043,-2.77901 1.2381,-5.48617 4.01711,-6.04659c2.77901,-0.56043 5.48617,1.23809 6.04659,4.0171c0.56043,2.77901 -1.23809,5.48617 -4.01711,6.0466c-2.77901,0.56043 -5.48617,-1.23809 -6.0466,-4.01711z" fill="#e80000" stroke-width="2" stroke-linecap="butt"/><path d="M225.69041,158.41476c-4.2636,-8.12072 -1.13678,-18.16018 6.98393,-22.42376c8.12072,-4.2636 18.16018,-1.13678 22.42377,6.98393c4.26359,8.12072 1.13677,18.16018 -6.98394,22.42377c-8.12072,4.2636 -18.16018,1.13678 -22.42376,-6.98394z" fill="#e80000" stroke-width="2" stroke-linecap="butt"/><path d="M224.6932,208.6688c4.11347,0 7.4481,3.61645 7.4481,8.07758c0,4.46113 -3.33463,8.07758 -7.4481,8.07758c-4.11347,0 -7.4481,-3.61645 -7.4481,-8.07758c0,-4.46113 3.33463,-8.07758 7.4481,-8.07758z" data-paper-data="{&quot;index&quot;:null}" fill="#e80000" stroke-width="2" stroke-linecap="butt"/><path d="M257.04177,214.15416c2.36602,4.34483 0.69761,6.84029 -2.18267,8.40878c-2.88028,1.56849 -7.13325,-0.68218 -9.49928,-5.02702c-2.36603,-4.34482 -3.54022,-8.27208 -0.65994,-9.84056c1.11241,-0.60578 8.43552,-0.71462 12.34188,6.4588z" data-paper-data="{&quot;index&quot;:null}" fill="#e80000" stroke-width="2" stroke-linecap="butt"/><path d="M224.05135,157.60707l-3.75677,-4.15292l24.76919,-22.40639l3.75676,4.15291z" fill="#ff2121" stroke-width="2" stroke-linecap="butt"/><path d="M260.02608,131.73326c6.37739,-5.58341 10.71892,-1.45069 13.43381,5.2594c2.71489,6.71008 1.42681,15.38803 -1.28693,24.76271c-4.04257,13.96523 -23.02477,16.7024 -23.02477,16.7024c0,0 11.44372,-10.50682 10.33467,-23.93796c-0.99368,-12.0342 -5.83419,-17.20312 0.54321,-22.78654z" data-paper-data="{&quot;index&quot;:null}" fill="url(#color-2)" stroke-width="0" stroke-linecap="butt"/><path d="M304.16274,112.52531c0,0 35.2289,40.46911 35.2289,66.25121c0,25.78211 -15.49741,46.68266 -34.61444,46.68266c-19.11703,0 -34.61444,-20.90055 -34.61444,-46.68266c0,-25.7821 33.99998,-66.25121 33.99998,-66.25121z" fill="url(#color-3)" stroke-width="0" stroke-linecap="butt"/><path d="M305.06636,146.95076c0,0 23.75903,23.1352 23.75903,40.83183c0,17.6966 -10.63728,32.04256 -23.75903,32.04256c-13.12175,0 -23.75902,-14.34592 -23.75902,-32.04256c0,-17.6966 23.75902,-40.83183 23.75902,-40.83183z" fill="url(#color-4)" stroke-width="0" stroke-linecap="butt"/></g></g></svg>