<svg version="1.1" xmlns="http://www.w3.org/2000/svg" xmlns:xlink="http://www.w3.org/1999/xlink" width="62.12922" height="91.36737" viewBox="0,0,62.12922,91.36737"><g transform="translate(-205.41221,-135.4506)"><g data-paper-data="{&quot;isPaintingLayer&quot;:true}" fill-rule="nonzero" stroke="#000000" stroke-width="2" stroke-linejoin="miter" stroke-miterlimit="10" stroke-dasharray="" stroke-dashoffset="0" style="mix-blend-mode: normal"><path d="M249.69695,200.35757c0,-2.11232 1.71238,-3.8247 3.8247,-3.8247c2.11232,0 3.8247,1.71238 3.8247,3.8247c0,2.11232 -1.71238,3.8247 -3.8247,3.8247c-2.11232,0 -3.8247,-1.71238 -3.8247,-3.8247z" fill="#181818" stroke-linecap="butt"/><path d="M218.044,142.54442c0,0 3.00193,-0.60728 5.03682,-0.5057c1.61207,0.08048 6.2022,1.06677 6.2022,1.06677" fill="#181818" stroke-linecap="round"/><path d="M206.41222,141.94604c0.64558,-2.76047 3.40672,-4.47496 6.1672,-3.82937c2.76047,0.64558 4.47496,3.40672 3.82937,6.1672c-0.64558,2.76047 -3.40672,4.47496 -6.1672,3.82937c-2.76047,-0.64558 -4.47496,-3.40672 -3.82937,-6.1672z" fill="#181818" stroke-linecap="butt"/><path d="M223.31849,159.89393c0,-9.17193 7.43532,-16.60724 16.60724,-16.60724c9.17193,0 16.60724,7.43532 16.60724,16.60724c0,9.17193 -7.43532,16.60724 -16.60724,16.60724c-9.17193,0 -16.60724,-7.43532 -16.60724,-16.60724z" fill="#181818" stroke-linecap="butt"/><path d="M232.80976,208.66568c0,0 -4.99935,-12.67848 -5.85892,-17.19264c-0.70259,-3.68974 1.07682,-7.92121 1.07682,-7.92121l7.71213,-1.46852c0,0 -1.21408,4.26064 -0.53484,7.82772c0.86803,4.55858 5.31695,17.28612 5.31695,17.28612z" fill="#181818" stroke-linecap="butt"/><path d="M219.98721,213.91643c4.11347,0 7.4481,2.47844 7.4481,5.53575c0,3.05731 -3.33463,5.53575 -7.4481,5.53575c-4.11347,0 -7.4481,-2.47844 -7.4481,-5.53575c0,-3.05731 3.33463,-5.53575 7.4481,-5.53575z" data-paper-data="{&quot;index&quot;:null}" fill="#181818" stroke-linecap="butt"/><path d="M254.60444,213.94127c4.94728,0 6.34095,2.65869 6.34095,5.93835c0,3.27966 -4.01056,5.93835 -8.95785,5.93835c-4.94728,0 -8.95785,-0.84699 -8.95785,-4.12665c0,-1.26666 3.40667,-7.75005 11.57475,-7.75005z" data-paper-data="{&quot;index&quot;:null}" fill="#181818" stroke-linecap="butt"/><path d="M238.25922,167.66006l0.75511,-5.19009l19.19469,2.79265l-0.75511,5.1901z" fill="#ff0000" stroke-linecap="butt"/><path d="M223.48281,182.13116l14.22495,-2.40128l-2.88933,4.85372l4.83892,3.38212l-16.51861,4.37501l3.27189,-5.84875z" fill="#0e0e0e" stroke-linecap="round"/><g><path d="M227.38605,148.36077l2.95346,-11.69576l28.7309,7.25526l-2.95347,11.69576z" fill="#343434" stroke-linecap="butt"/><path d="M216.96157,145.72833l49.57987,12.52014" fill="none" stroke-linecap="round"/></g><path d="M233.67815,164.22386c0,-2.11232 1.71238,-3.8247 3.8247,-3.8247c2.11232,0 3.8247,1.71238 3.8247,3.8247c0,2.11232 -1.71238,3.8247 -3.8247,3.8247c-2.11232,0 -3.8247,-1.71238 -3.8247,-3.8247z" fill="#181818" stroke-linecap="butt"/></g></g></svg>