<svg version="1.1" xmlns="http://www.w3.org/2000/svg" xmlns:xlink="http://www.w3.org/1999/xlink" width="96.98918" height="132.08433" viewBox="0,0,96.98918,132.08433"><defs><radialGradient cx="228.8235" cy="143.80713" r="18.84183" gradientUnits="userSpaceOnUse" id="color-1"><stop offset="0" stop-color="#ffffff"/><stop offset="1" stop-color="#0debff"/></radialGradient></defs><g transform="translate(-211.04426,-96.00424)"><g data-paper-data="{&quot;isPaintingLayer&quot;:true}" fill-rule="nonzero" stroke-linejoin="miter" stroke-miterlimit="10" stroke-dasharray="" stroke-dashoffset="0" style="mix-blend-mode: normal"><path d="M238.09046,208.37015c0,-2.11232 1.71238,-3.8247 3.8247,-3.8247c2.11232,0 3.8247,1.71238 3.8247,3.8247c0,2.11232 -1.71238,3.8247 -3.8247,3.8247c-2.11232,0 -3.8247,-1.71238 -3.8247,-3.8247z" fill="#0debff" stroke="#000000" stroke-width="2" stroke-linecap="butt"/><path d="M230.91656,161.47693c0,-9.17193 7.43532,-16.60724 16.60724,-16.60724c9.17193,0 16.60724,7.43532 16.60724,16.60724c0,9.17193 -7.43532,16.60724 -16.60724,16.60724c-9.17193,0 -16.60724,-7.43532 -16.60724,-16.60724z" fill="#0debff" stroke="#000000" stroke-width="2" stroke-linecap="butt"/><path d="M242.79325,207.19484v-25.56509h7.8507v25.56509z" fill="#0debff" stroke="#000000" stroke-width="2" stroke-linecap="butt"/><path d="M231.75874,207.09145c0,-2.11232 1.71238,-3.8247 3.8247,-3.8247c2.11232,0 3.8247,1.71238 3.8247,3.8247c0,2.11232 -1.71238,3.8247 -3.8247,3.8247c-2.11232,0 -3.8247,-1.71238 -3.8247,-3.8247z" fill="#0debff" stroke="#000000" stroke-width="2" stroke-linecap="butt"/><path d="M235.54645,215.61447c4.11347,0 7.4481,2.47844 7.4481,5.53575c0,3.05731 -3.33463,5.53575 -7.4481,5.53575c-4.11347,0 -7.4481,-2.47844 -7.4481,-5.53575c0,-3.05731 3.33463,-5.53575 7.4481,-5.53575z" data-paper-data="{&quot;index&quot;:null}" fill="#0debff" stroke="#000000" stroke-width="2" stroke-linecap="butt"/><path d="M221.10989,159.18958c0,0 2.10397,-2.22568 3.82583,-3.31485c1.36408,-0.86285 5.68426,-2.70082 5.68426,-2.70082" fill="none" stroke="#000000" stroke-width="2" stroke-linecap="round"/><path d="M212.41976,164.54808c-1.06249,-2.62833 0.20687,-5.62033 2.8352,-6.68282c2.62833,-1.06249 5.62033,0.20687 6.68282,2.8352c1.06249,2.62833 -0.20687,5.62033 -2.8352,6.68282c-2.62833,1.06249 -5.62033,-0.20687 -6.68282,-2.8352z" fill="#0debff" stroke="#000000" stroke-width="2" stroke-linecap="butt"/><path d="M261.61479,215.21187c4.94728,0 6.34095,2.65869 6.34095,5.93835c0,3.27966 -4.01056,5.93835 -8.95785,5.93835c-4.94728,0 -8.95785,-0.84699 -8.95785,-4.12665c0,-1.26666 3.40667,-7.75005 11.57475,-7.75005z" data-paper-data="{&quot;index&quot;:null}" fill="#0debff" stroke="#000000" stroke-width="2" stroke-linecap="butt"/><path d="M228.60574,163.56786l-3.10104,-20.57448l28.35204,-9.86472l10.33987,18.05582z" fill="url(#color-1)" stroke="#000000" stroke-width="2" stroke-linecap="butt"/><g fill="#76f4ff" stroke="#53acb4" stroke-width="1" stroke-linecap="butt"><path d="M286.69501,96.05284l7.71113,78.95017l-7.71113,35.34474l-7.71113,-35.34474z" data-paper-data="{&quot;index&quot;:null}"/><path d="M280.8943,226.3032l2.80882,-24.75668h5.61764l2.24705,24.75668z"/><path d="M306.48406,193.0464l-11.78392,11.33872l-16.85506,0.04922l-11.22002,-11.38794l19.9295,3.70944z"/></g></g></g></svg>