<svg version="1.1" xmlns="http://www.w3.org/2000/svg" xmlns:xlink="http://www.w3.org/1999/xlink" width="74.28962" height="119.74702" viewBox="0,0,74.28962,119.74702"><g transform="translate(-203.8823,-132.64833)"><g data-paper-data="{&quot;isPaintingLayer&quot;:true}" fill-rule="nonzero" stroke="#000000" stroke-width="2" stroke-linejoin="miter" stroke-miterlimit="10" stroke-dasharray="" stroke-dashoffset="0" style="mix-blend-mode: normal"><path d="M240.81244,196.68131c8.16535,4.17747 11.39817,14.18331 7.22069,22.34866c-4.17747,8.16535 -14.18331,11.39817 -22.34866,7.22069c-8.16535,-4.17747 -11.39817,-14.18331 -7.22069,-22.34866c4.17747,-8.16535 14.18331,-11.39817 22.34866,-7.22069z" data-paper-data="{&quot;index&quot;:null}" fill="#1d28e8" stroke-linecap="butt"/><path d="M247.60851,167.45898l-11.64396,22.75944l-6.98912,-3.57571l11.64396,-22.75944z" data-paper-data="{&quot;index&quot;:null}" fill="#1d28e8" stroke-linecap="butt"/><path d="M259.16088,170.8425c1.88051,0.96209 2.62502,3.26647 1.66295,5.14696c-0.96209,1.88051 -3.26647,2.62502 -5.14696,1.66295c-1.88051,-0.96209 -2.62502,-3.26647 -1.66295,-5.14696c0.96209,-1.88051 3.26647,-2.62502 5.14696,-1.66295z" data-paper-data="{&quot;index&quot;:null}" fill="#1d28e8" stroke-linecap="butt"/><path d="M250.21198,135.13262c4.11015,-2.75358 6.74779,-1.32047 8.5732,1.40423c1.82542,2.7247 -0.02672,7.16574 -4.13689,9.91933c-4.11015,2.75358 -7.91352,4.28214 -9.73894,1.55744c-0.705,-1.05233 -1.48334,-8.33477 5.30261,-12.88101z" data-paper-data="{&quot;index&quot;:null}" fill="#1d28e8" stroke-linecap="butt"/><path d="M269.22481,147.596c4.66933,-1.6349 6.86332,0.41385 7.94712,3.50926c1.08381,3.09541 -1.82283,6.93009 -6.49217,8.56498c-4.66933,1.6349 -8.73448,2.16084 -9.81829,-0.93455c-0.41859,-1.1955 0.65415,-8.44042 8.36335,-11.13968z" data-paper-data="{&quot;index&quot;:null}" fill="#1d28e8" stroke-linecap="butt"/><path d="M254.3834,198.93347c0,0 -0.27921,3.04998 -0.96015,4.97025c-0.53947,1.52126 -2.80079,5.63567 -2.80079,5.63567" fill="none" stroke-linecap="round"/><path d="M256.94009,190.20709c2.45935,1.41018 3.30988,4.54705 1.89969,7.0064c-1.41018,2.45935 -4.54705,3.30988 -7.0064,1.89969c-2.45935,-1.41018 -3.30988,-4.54705 -1.89969,-7.0064c1.41018,-2.45935 4.54705,-3.30988 7.0064,-1.89969z" fill="#1d28e8" stroke-linecap="butt"/><path d="M250.29469,209.26439l14.32597,18.04973c0,0 -8.05896,8.78355 -13.46031,12.59993c-5.75206,4.06418 -20.06613,11.08857 -20.06613,11.08857l-10.0554,-28.43214l-16.5707,10.75945c0,0 21.8605,-15.80132 30.30095,-20.23377c5.93175,-3.11502 15.52562,-3.83177 15.52562,-3.83177z" fill="#2530ff" stroke-linecap="round"/><path d="M240.48408,160.80494c1.88051,0.96209 2.62502,3.26647 1.66295,5.14696c-0.96209,1.88051 -3.26647,2.62502 -5.14696,1.66295c-1.88051,-0.96209 -2.62502,-3.26647 -1.66295,-5.14696c0.96209,-1.88051 3.26647,-2.62502 5.14696,-1.66295z" data-paper-data="{&quot;index&quot;:null}" fill="#1d28e8" stroke-linecap="butt"/></g></g></svg>