<svg version="1.1" xmlns="http://www.w3.org/2000/svg" xmlns:xlink="http://www.w3.org/1999/xlink" width="70.79786" height="107.73735" viewBox="0,0,70.79786,107.73735"><g transform="translate(-207.97817,-118.55282)"><g data-paper-data="{&quot;isPaintingLayer&quot;:true}" fill-rule="nonzero" stroke="#000000" stroke-width="2" stroke-linejoin="miter" stroke-miterlimit="10" stroke-dasharray="" stroke-dashoffset="0" style="mix-blend-mode: normal"><path d="M228.73633,204.8829c0,-2.11232 1.71238,-3.8247 3.8247,-3.8247c2.11232,0 3.8247,1.71238 3.8247,3.8247c0,2.11232 -1.71238,3.8247 -3.8247,3.8247c-2.11232,0 -3.8247,-1.71238 -3.8247,-3.8247z" fill="#1d28e8" stroke-linecap="butt"/><path d="M228.37364,156.6163c0.68069,-9.14664 8.6473,-16.00965 17.79393,-15.32896c9.14664,0.68069 16.00964,8.6473 15.32895,17.79393c-0.68068,9.14664 -8.6473,16.00965 -17.79393,15.32896c-9.14664,-0.68069 -16.00964,-8.6473 -15.32895,-17.79393z" fill="#1d28e8" stroke-linecap="butt"/><path d="M236.82468,203.08955l1.89728,-25.49459l7.82905,0.58263l-1.89728,25.49459z" fill="#1d28e8" stroke-linecap="butt"/><path d="M220.53533,204.41535c0,-2.11232 1.71238,-3.8247 3.8247,-3.8247c2.11232,0 3.8247,1.71238 3.8247,3.8247c0,2.11232 -1.71238,3.8247 -3.8247,3.8247c-2.11232,0 -3.8247,-1.71238 -3.8247,-3.8247z" fill="#1d28e8" stroke-linecap="butt"/><path d="M218.62172,159.51138c0,0 2.48672,-1.7879 4.3834,-2.532c1.50258,-0.58948 6.09228,-1.57779 6.09228,-1.57779" fill="none" stroke-linecap="round"/><path d="M209.07544,163.13084c-0.54657,-2.78178 1.26541,-5.47993 4.04718,-6.0265c2.78178,-0.54657 5.47993,1.2654 6.0265,4.04718c0.54657,2.78178 -1.2654,5.47993 -4.04718,6.0265c-2.78178,0.54657 -5.47993,-1.26541 -6.0265,-4.04718z" fill="#1d28e8" stroke-linecap="butt"/><path d="M260.43318,210.95622c4.47697,-2.1053 6.86956,-0.29243 8.2652,2.67545c1.39565,2.96788 -1.10225,7.08052 -5.57924,9.18581c-4.47697,2.1053 -8.46672,3.04551 -9.86236,0.07763c-0.53902,-1.14625 -0.21519,-8.463 7.1764,-11.9389z" data-paper-data="{&quot;index&quot;:null}" fill="#1d28e8" stroke-linecap="butt"/><path d="M228.23526,155.79868l-9.50302,-20.99331l38.28311,-14.81794l1.28964,28.47713l20.23552,-4.85637z" fill="#2530ff" stroke-linecap="round"/><path d="M224.64423,220.26452c-1.16776,4.80748 -4.0803,5.53421 -7.26727,4.76007c-3.18698,-0.77413 -4.82389,-5.29894 -3.65612,-10.10643c1.16776,-4.80748 2.93749,-8.5048 6.12447,-7.73066c1.23087,0.29899 6.72693,5.13974 4.79893,13.07702z" data-paper-data="{&quot;index&quot;:null}" fill="#1d28e8" stroke-linecap="butt"/></g></g></svg>