<svg version="1.1" xmlns="http://www.w3.org/2000/svg" xmlns:xlink="http://www.w3.org/1999/xlink" width="58.09152" height="98.65306" viewBox="0,0,58.09152,98.65306"><g transform="translate(-217.67308,-128.89349)"><g data-paper-data="{&quot;isPaintingLayer&quot;:true}" fill-rule="nonzero" stroke="#000000" stroke-width="2" stroke-linejoin="miter" stroke-miterlimit="10" stroke-dasharray="" stroke-dashoffset="0" style="mix-blend-mode: normal"><path d="M237.35036,205.47597c0,-2.11232 1.71238,-3.8247 3.8247,-3.8247c2.11232,0 3.8247,1.71238 3.8247,3.8247c0,2.11232 -1.71238,3.8247 -3.8247,3.8247c-2.11232,0 -3.8247,-1.71238 -3.8247,-3.8247z" fill="#181818" stroke-linecap="butt"/><path d="M254.67744,156.29976l-2.67291,-4.51252l15.69799,-9.29838l2.67291,4.51252z" fill="#ff0000" stroke-linecap="butt"/><path d="M237.69017,164.07036c-3.71998,-8.38368 0.06071,-18.19563 8.44439,-21.91559c8.38368,-3.71998 18.19563,0.06071 21.91559,8.44439c3.71998,8.38368 -0.06071,18.19563 -8.44439,21.91559c-8.38368,3.71998 -18.19563,-0.06071 -21.91559,-8.44439z" fill="#181818" stroke-linecap="butt"/><path d="M246.71864,202.93672l3.65983,-25.30176l7.76983,1.1239l-3.65983,25.30176z" fill="#181818" stroke-linecap="butt"/><path d="M268.42365,213.94129c4.94728,0 6.34095,2.65869 6.34095,5.93835c0,3.27966 -4.01056,5.93835 -8.95785,5.93835c-4.94728,0 -8.95785,-0.84699 -8.95785,-4.12665c0,-1.26666 3.40667,-7.75005 11.57475,-7.75005z" data-paper-data="{&quot;index&quot;:null}" fill="#181818" stroke-linecap="butt"/><path d="M246.86961,173.71253l14.81152,4.96303l-4.03166,4.90743l4.05441,7.3775l-17.57158,-3.61365l4.64805,-6.03463z" fill="#0e0e0e" stroke-linecap="round"/><g><g><path d="M237.22005,166.43918l-10.30623,-11.44867c0,0 10.37558,-6.10889 14.65701,-9.96308c4.49587,-4.04724 11.70636,-13.76952 11.70636,-13.76952l10.30623,11.44867c0,0 -7.79252,9.32299 -12.16544,13.25956c-4.41447,3.97396 -14.19792,10.47305 -14.19792,10.47305z" fill="#343434" stroke-linecap="butt"/><path d="M272.46028,133.33068c0,0 -12.5265,15.43105 -20.04436,22.19871c-7.64479,6.88192 -25.44994,18.75577 -25.44994,18.75577" fill="none" stroke-linecap="round"/></g><path d="M252.52332,129.8935c1.58464,1.76029 -3.0939,8.55538 -10.44982,15.17726c-7.35591,6.62188 -14.60364,10.56295 -16.18829,8.80266c-1.58464,-1.76029 3.0939,-8.55538 10.44981,-15.17726c7.35591,-6.62188 14.60365,-10.56296 16.1883,-8.80266z" fill="#252525" stroke-linecap="butt"/></g><path d="M227.80453,166.37819c0,0 1.96958,-2.34545 3.62447,-3.5339c1.31104,-0.94151 5.51576,-3.03011 5.51576,-3.03011" fill="#181818" stroke-linecap="round"/><path d="M219.16967,172.49194c-1.21507,-2.56136 -0.1237,-5.62279 2.43768,-6.83785c2.56136,-1.21507 5.62279,-0.1237 6.83785,2.43768c1.21507,2.56136 0.1237,5.62279 -2.43768,6.83785c-2.56136,1.21507 -5.62279,0.1237 -6.83785,-2.43768z" fill="#181818" stroke-linecap="butt"/><path d="M233.4894,216.95395c3.09839,3.85688 1.89853,6.60847 -0.65827,8.66246c-2.55681,2.054 -7.14126,0.59248 -10.23966,-3.2644c-3.09839,-3.85688 -2.3833,-11.27834 2.77141,-13.83162c5.15471,-2.55327 3.01099,2.06577 8.12652,8.43356z" data-paper-data="{&quot;index&quot;:null}" fill="#181818" stroke-linecap="butt"/><path d="M261.92756,144.83477c0,-2.11232 1.71238,-3.8247 3.8247,-3.8247c2.11232,0 3.8247,1.71238 3.8247,3.8247c0,2.11232 -1.71238,3.8247 -3.8247,3.8247c-2.11232,0 -3.8247,-1.71238 -3.8247,-3.8247z" fill="#181818" stroke-linecap="butt"/></g></g></svg>