<svg version="1.1" xmlns="http://www.w3.org/2000/svg" xmlns:xlink="http://www.w3.org/1999/xlink" width="64.38415" height="84.52201" viewBox="0,0,64.38415,84.52201"><defs><radialGradient cx="263.94422" cy="163.30602" r="8.48508" gradientUnits="userSpaceOnUse" id="color-1"><stop offset="0" stop-color="#ff0000"/><stop offset="1" stop-color="#ff0000" stop-opacity="0"/></radialGradient></defs><g transform="translate(-214.29682,-141.89336)"><g data-paper-data="{&quot;isPaintingLayer&quot;:true}" fill-rule="nonzero" stroke="#000000" stroke-linejoin="miter" stroke-miterlimit="10" stroke-dasharray="" stroke-dashoffset="0" style="mix-blend-mode: normal"><path d="M240.51726,212.09767c0,-2.11232 1.71238,-3.8247 3.8247,-3.8247c2.11232,0 3.8247,1.71238 3.8247,3.8247c0,2.11232 -1.71238,3.8247 -3.8247,3.8247c-2.11232,0 -3.8247,-1.71238 -3.8247,-3.8247z" fill="#181818" stroke-width="2" stroke-linecap="butt"/><path d="M225.85999,148.53455c0,0 3.00193,-0.60728 5.03682,-0.5057c1.61207,0.08048 6.2022,1.06677 6.2022,1.06677" fill="#181818" stroke-width="2" stroke-linecap="round"/><path d="M215.29682,147.93617c0.64558,-2.76047 3.40672,-4.47496 6.1672,-3.82937c2.76047,0.64558 4.47496,3.40672 3.82937,6.1672c-0.64558,2.76047 -3.40672,4.47496 -6.1672,3.82937c-2.76047,-0.64558 -4.47496,-3.40672 -3.82937,-6.1672z" fill="#181818" stroke-width="2" stroke-linecap="butt"/><path d="M235.40893,162.03706c0,-9.17193 7.43532,-16.60724 16.60724,-16.60724c9.17193,0 16.60724,7.43532 16.60724,16.60724c0,9.17193 -7.43532,16.60724 -16.60724,16.60724c-9.17193,0 -16.60724,-7.43532 -16.60724,-16.60724z" fill="#181818" stroke-width="2" stroke-linecap="butt"/><path d="M237.69947,206.53759l3.11418,-25.37471l7.79224,0.95632l-3.11418,25.37471z" fill="#181818" stroke-width="2" stroke-linecap="butt"/><path d="M228.5361,214.34387c4.11347,0 7.4481,2.47844 7.4481,5.53575c0,3.05731 -3.33463,5.53575 -7.4481,5.53575c-4.11347,0 -7.4481,-2.47844 -7.4481,-5.53575c0,-3.05731 3.33463,-5.53575 7.4481,-5.53575z" data-paper-data="{&quot;index&quot;:null}" fill="#181818" stroke-width="2" stroke-linecap="butt"/><path d="M257.05373,213.02278c4.94728,0 6.34095,2.65869 6.34095,5.93835c0,3.27966 -4.01056,5.93835 -8.95785,5.93835c-4.94728,0 -8.95785,-0.84699 -8.95785,-4.12665c0,-1.26666 3.40667,-7.75005 11.57475,-7.75005z" data-paper-data="{&quot;index&quot;:null}" fill="#181818" stroke-width="2" stroke-linecap="butt"/><path d="M256.96312,165.67006v-5.24474h13.27354v5.24474z" fill="#ff0000" stroke-width="2" stroke-linecap="butt"/><path d="M238.88951,179.27846l14.27886,2.05665l-4.23333,3.73975l3.5752,4.69808l-17.06562,-0.87748l4.90143,-4.57047z" fill="#0e0e0e" stroke-width="2" stroke-linecap="round"/><g stroke-width="2"><path d="M237.29643,154.95627v-12.06291h29.6328v12.06291z" fill="#343434" stroke-linecap="butt"/><path d="M277.68097,154.95627h-51.13626" fill="none" stroke-linecap="round"/></g><path d="M252.14765,163.03396c0,-2.11232 1.71238,-3.8247 3.8247,-3.8247c2.11232,0 3.8247,1.71238 3.8247,3.8247c0,2.11232 -1.71238,3.8247 -3.8247,3.8247c-2.11232,0 -3.8247,-1.71238 -3.8247,-3.8247z" fill="#181818" stroke-width="2" stroke-linecap="butt"/><path d="M255.45914,163.30602c0,-4.68618 3.7989,-8.48508 8.48508,-8.48508c4.68618,0 8.48508,3.7989 8.48508,8.48508c0,4.68618 -3.7989,8.48508 -8.48508,8.48508c-4.68618,0 -8.48508,-3.7989 -8.48508,-8.48508z" fill="url(#color-1)" stroke-width="0" stroke-linecap="butt"/></g></g></svg>