<svg version="1.1" xmlns="http://www.w3.org/2000/svg" xmlns:xlink="http://www.w3.org/1999/xlink" width="102.46733" height="115.71848" viewBox="0,0,102.46733,115.71848"><defs><radialGradient cx="260.88345" cy="164.17396" r="18.84183" gradientUnits="userSpaceOnUse" id="color-1"><stop offset="0" stop-color="#ffffff"/><stop offset="1" stop-color="#0debff"/></radialGradient></defs><g transform="translate(-199.34537,-112.3196)"><g data-paper-data="{&quot;isPaintingLayer&quot;:true}" fill-rule="nonzero" stroke-linejoin="miter" stroke-miterlimit="10" stroke-dasharray="" stroke-dashoffset="0" style="mix-blend-mode: normal"><g fill="#76f4ff" stroke="#53acb4" stroke-width="1" stroke-linecap="butt"><path d="M301.44446,112.7227l-53.66181,58.4209l-31.47191,17.83902l21.18187,-29.32645z" data-paper-data="{&quot;index&quot;:null}"/><path d="M200.55582,195.3077l20.31436,-14.42599l3.74821,4.18436l-16.94099,18.19191z"/><path d="M242.4015,192.17888l-16.30823,-1.21194l-11.28271,-12.52182l0.9962,-15.95561l10.53435,17.31971z"/></g><path d="M200.34811,199.28594c-0.07922,-2.11083 1.56774,-3.88623 3.67857,-3.96545c2.11083,-0.07922 3.88623,1.56774 3.96545,3.67857c0.07922,2.11083 -1.56774,3.88623 -3.67857,3.96545c-2.11083,0.07922 -3.88623,-1.56774 -3.96545,-3.67857z" fill="#0debff" stroke="#000000" stroke-width="2" stroke-linecap="butt"/><path d="M228.36724,202.88622l22.62669,-11.89985l3.65429,6.94835l-22.62669,11.89985z" data-paper-data="{&quot;index&quot;:null}" fill="#0debff" stroke="#000000" stroke-width="2" stroke-linecap="butt"/><path d="M260.92648,204.12555c0,-2.11232 1.71238,-3.8247 3.8247,-3.8247c2.11232,0 3.8247,1.71238 3.8247,3.8247c0,2.11232 -1.71238,3.8247 -3.8247,3.8247c-2.11232,0 -3.8247,-1.71238 -3.8247,-3.8247z" fill="#0debff" stroke="#000000" stroke-width="2" stroke-linecap="butt"/><path d="M218.06764,216.88114c3.73475,3.24456 3.04321,6.16566 0.8923,8.6415c-2.1509,2.47586 -6.92217,1.85267 -10.65691,-1.3919c-3.73475,-3.24456 -6.20689,-6.51421 -4.05599,-8.99006c0.83072,-0.95623 7.65445,-3.61639 13.82061,1.74049z" data-paper-data="{&quot;index&quot;:null}" fill="#0debff" stroke="#000000" stroke-width="2" stroke-linecap="butt"/><path d="M260.98758,179.46974c3.96081,-8.27262 13.87796,-11.76803 22.15058,-7.80723c8.27262,3.96081 11.76803,13.87796 7.80723,22.15058c-3.96081,8.27262 -13.87796,11.76803 -22.15058,7.80723c-8.27262,-3.96081 -11.76803,-13.87796 -7.80723,-22.15058z" fill="#0debff" stroke="#000000" stroke-width="2" stroke-linecap="butt"/><path d="M250.3604,177.78957c0,0 2.49209,-1.7804 4.39101,-2.51877c1.50435,-0.58495 6.09701,-1.55941 6.09701,-1.55941" fill="none" stroke="#000000" stroke-width="2" stroke-linecap="round"/><path d="M240.80324,181.3802c-0.53818,-2.78341 1.28193,-5.47609 4.06534,-6.01427c2.78341,-0.53818 5.47609,1.28193 6.01427,4.06534c0.53818,2.78341 -1.28193,5.47609 -4.06534,6.01427c-2.78341,0.53818 -5.47609,-1.28193 -6.01427,-4.06534z" fill="#0debff" stroke="#000000" stroke-width="2" stroke-linecap="butt"/><path d="M256.87636,183.52537l0.90622,-20.78712l29.71843,-4.23864l6.68147,19.70491z" fill="url(#color-1)" stroke="#000000" stroke-width="2" stroke-linecap="butt"/><path d="M232.9641,212.21721c-4.6087,-1.79874 -4.94034,-4.7822 -3.74791,-7.83741c1.19243,-3.05522 5.89518,-4.07378 10.50387,-2.27502c4.6087,1.79874 8.03685,4.04594 6.84441,7.10115c-0.46053,1.17998 -5.99131,5.98104 -13.60037,3.01127z" data-paper-data="{&quot;index&quot;:null}" fill="#0debff" stroke="#000000" stroke-width="2" stroke-linecap="butt"/></g></g></svg>