<svg version="1.1" xmlns="http://www.w3.org/2000/svg" xmlns:xlink="http://www.w3.org/1999/xlink" width="55.7114" height="119.85084" viewBox="0,0,55.7114,119.85084"><g transform="translate(-222.62541,-127.92252)"><g data-paper-data="{&quot;isPaintingLayer&quot;:true}" fill-rule="nonzero" stroke="#000000" stroke-width="2" stroke-linejoin="miter" stroke-miterlimit="10" stroke-dasharray="" stroke-dashoffset="0" style="mix-blend-mode: normal"><path d="M244.86193,159.92585c2.10589,0.16484 3.6794,2.00564 3.51457,4.1115c-0.16484,2.10589 -2.00564,3.6794 -4.1115,3.51457c-2.10589,-0.16484 -3.6794,-2.00564 -3.51457,-4.1115c0.16484,-2.10589 2.00564,-3.6794 4.1115,-3.51457z" data-paper-data="{&quot;index&quot;:null}" fill="#1d28e8" stroke-linecap="butt"/><path d="M243.34741,192.38855c9.14395,0.71574 15.97638,8.70861 15.26062,17.85257c-0.71574,9.14395 -8.70861,15.97638 -17.85257,15.26062c-9.14395,-0.71574 -15.97638,-8.70861 -15.26062,-17.85257c0.71574,-9.14395 8.70861,-15.97638 17.85257,-15.26062z" data-paper-data="{&quot;index&quot;:null}" fill="#1d28e8" stroke-linecap="butt"/><path d="M238.38179,162.80014l-1.99502,25.48713l-7.82676,-0.61265l1.99502,-25.48713z" data-paper-data="{&quot;index&quot;:null}" fill="#1d28e8" stroke-linecap="butt"/><path d="M239.86591,133.04647c2.83821,-4.05217 5.81541,-3.66843 8.50168,-1.78691c2.68628,1.88152 2.56311,6.69174 -0.27512,10.7439c-2.83821,4.05217 -5.8328,6.85119 -8.51906,4.96969c-1.03749,-0.72667 -4.39347,-7.23644 0.29251,-13.92668z" data-paper-data="{&quot;index&quot;:null}" fill="#1d28e8" stroke-linecap="butt"/><path d="M256.74072,189.24807c0,0 0.91529,2.92277 1.02527,4.95723c0.0871,1.61173 -0.41787,6.27938 -0.41787,6.27938" fill="none" stroke-linecap="round"/><path d="M255.74457,180.20959c2.81254,0.35584 4.8041,2.92432 4.44824,5.73686c-0.35584,2.81254 -2.92432,4.8041 -5.73686,4.44824c-2.81254,-0.35584 -4.8041,-2.92432 -4.44824,-5.73686c0.35584,-2.81254 2.92432,-4.8041 5.73686,-4.44824z" fill="#1d28e8" stroke-linecap="butt"/><path d="M256.93979,200.35689l20.16601,11.1516c0,0 -4.06092,11.20743 -7.57902,16.80763c-3.74654,5.96383 -14.25802,17.95313 -14.25802,17.95313l-20.21702,-22.3779l-11.15802,16.30498c0,0 14.10184,-22.99351 20.18835,-30.33124c4.27745,-5.15678 12.85772,-9.50822 12.85772,-9.50822z" fill="#2530ff" stroke-linecap="round"/><path d="M227.74876,159.44012c2.10589,0.16484 3.6794,2.00564 3.51457,4.1115c-0.16484,2.10589 -2.00564,3.6794 -4.1115,3.51457c-2.10589,-0.16484 -3.6794,-2.00564 -3.51457,-4.1115c0.16484,-2.10589 2.00564,-3.6794 4.1115,-3.51457z" data-paper-data="{&quot;index&quot;:null}" fill="#1d28e8" stroke-linecap="butt"/><path d="M227.73416,134.13838c0.99361,-4.84647 3.87803,-5.67778 7.09086,-5.0191c3.21283,0.65867 5.01188,5.12149 4.01825,9.96798c-0.99361,4.84647 -2.62883,8.60522 -5.84166,7.94654c-1.24085,-0.2544 -6.90794,-4.89378 -5.26747,-12.89542z" data-paper-data="{&quot;index&quot;:null}" fill="#1d28e8" stroke-linecap="butt"/></g></g></svg>