<svg version="1.1" xmlns="http://www.w3.org/2000/svg" xmlns:xlink="http://www.w3.org/1999/xlink" width="203.01251" height="93.26023" viewBox="0,0,203.01251,93.26023"><defs><radialGradient cx="238.60333" cy="137.8015" r="18.84183" gradientUnits="userSpaceOnUse" id="color-1"><stop offset="0" stop-color="#ffffff"/><stop offset="1" stop-color="#0debff"/></radialGradient></defs><g transform="translate(-206.11785,-131.01998)"><g data-paper-data="{&quot;isPaintingLayer&quot;:true}" fill-rule="nonzero" stroke-linejoin="miter" stroke-miterlimit="10" stroke-dasharray="" stroke-dashoffset="0" style="mix-blend-mode: normal"><g fill="#76f4ff" stroke="#53acb4" stroke-width="1" stroke-linecap="butt"><path d="M409.01923,171.26836l-77.34179,17.63062l-36.03602,-3.18076l34.08625,-12.11775z" data-paper-data="{&quot;index&quot;:null}"/><path d="M279.08064,181.98124l24.91313,-0.34361l0.71022,5.57257l-24.27395,5.35891z"/><path d="M315.30579,203.16114l-12.73753,-10.25585l-2.17975,-16.71359l9.87806,-12.56972l-1.16007,20.23856z"/></g><path d="M276.65121,185.13836c1.1331,-1.78269 3.49682,-2.30929 5.27951,-1.17619c1.78269,1.1331 2.30929,3.49682 1.17619,5.27951c-1.1331,1.78269 -3.49682,2.30929 -5.27951,1.17619c-1.78269,-1.1331 -2.30929,-3.49682 -1.17619,-5.27951z" fill="#0debff" stroke="#000000" stroke-width="2" stroke-linecap="butt"/><path d="M238.81328,204.19627l2.57823,-25.43475l7.81067,0.79174l-2.57823,25.43474z" data-paper-data="{&quot;index&quot;:null}" fill="#0debff" stroke="#000000" stroke-width="2" stroke-linecap="butt"/><path d="M220.40133,186.23281c0,-2.11232 1.71238,-3.8247 3.8247,-3.8247c2.11232,0 3.8247,1.71238 3.8247,3.8247c0,2.11232 -1.71238,3.8247 -3.8247,3.8247c-2.11232,0 -3.8247,-1.71238 -3.8247,-3.8247z" fill="#0debff" stroke="#000000" stroke-width="2" stroke-linecap="butt"/><path d="M267.2296,208.2145c4.94585,-0.11871 6.40293,2.50576 6.48162,5.78448c0.0787,3.27871 -3.8669,6.03287 -8.81277,6.1516c-4.94585,0.11871 -8.97559,-0.63177 -9.05429,-3.91049c-0.0304,-1.26629 3.21971,-7.82957 11.38545,-8.02558z" data-paper-data="{&quot;index&quot;:null}" fill="#0debff" stroke="#000000" stroke-width="2" stroke-linecap="butt"/><path d="M238.70746,153.09728c3.96081,-8.27262 13.87796,-11.76803 22.15058,-7.80723c8.27262,3.96081 11.76803,13.87796 7.80723,22.15058c-3.96081,8.27262 -13.87796,11.76803 -22.15058,7.80723c-8.27262,-3.96081 -11.76803,-13.87796 -7.80723,-22.15058z" fill="#0debff" stroke="#000000" stroke-width="2" stroke-linecap="butt"/><path d="M238.0683,149.41738c0,0 -4.59266,-0.97446 -6.09701,-1.55941c-1.89892,-0.73837 -4.39101,-2.51877 -4.39101,-2.51877" data-paper-data="{&quot;index&quot;:null}" fill="none" stroke="#000000" stroke-width="2" stroke-linecap="round"/><path d="M224.03739,137.68323c2.78341,0.53818 4.60352,3.23086 4.06534,6.01427c-0.53818,2.78341 -3.23086,4.60352 -6.01427,4.06534c-2.78341,-0.53818 -4.60352,-3.23086 -4.06534,-6.01427c0.53818,-2.78341 3.23086,-4.60352 6.01427,-4.06534z" data-paper-data="{&quot;index&quot;:null}" fill="#0debff" stroke="#000000" stroke-width="2" stroke-linecap="butt"/><path d="M234.59624,157.15291l0.90622,-20.78712l29.71843,-4.23864l6.68147,19.70491z" fill="url(#color-1)" stroke="#000000" stroke-width="2" stroke-linecap="butt"/><path d="M215.73977,221.63303c-3.99835,2.91354 -6.69046,1.58558 -8.62192,-1.06502c-1.93146,-2.6506 -0.2559,-7.16123 3.74245,-10.07478c3.99835,-2.91354 7.73846,-4.59093 9.66992,-1.94033c0.74597,1.02371 1.81092,8.26978 -4.79047,13.08012z" data-paper-data="{&quot;index&quot;:null}" fill="#0debff" stroke="#000000" stroke-width="2" stroke-linecap="butt"/></g></g></svg>