<svg version="1.1" xmlns="http://www.w3.org/2000/svg" xmlns:xlink="http://www.w3.org/1999/xlink" width="133.06451" height="88.57948" viewBox="0,0,133.06451,88.57948"><defs><linearGradient x1="366.3613" y1="153.53565" x2="270.37835" y2="183.87718" gradientUnits="userSpaceOnUse" id="color-1"><stop offset="0" stop-color="#ff0000" stop-opacity="0"/><stop offset="1" stop-color="#ff0000"/></linearGradient></defs><g transform="translate(-212.94434,-139.27203)"><g data-paper-data="{&quot;isPaintingLayer&quot;:true}" fill-rule="nonzero" stroke="#000000" stroke-linejoin="miter" stroke-miterlimit="10" stroke-dasharray="" stroke-dashoffset="0" style="mix-blend-mode: normal"><path d="M316.36376,139.27203c0,0 53.48326,11.47797 16.77504,39.94375c-31.18723,24.18445 -72.05391,5.8568 -72.05391,5.8568l14.42909,-21.76838c0,0 10.55884,1.78325 24.30564,0.32031c13.7468,-1.46294 16.54414,-24.35248 16.54414,-24.35248z" fill="url(#color-1)" stroke-width="0" stroke-linecap="round"/><path d="M219.50056,186.76248c0,-2.11232 1.71238,-3.8247 3.8247,-3.8247c2.11232,0 3.8247,1.71238 3.8247,3.8247c0,2.11232 -1.71238,3.8247 -3.8247,3.8247c-2.11232,0 -3.8247,-1.71238 -3.8247,-3.8247z" fill="#181818" stroke-width="2" stroke-linecap="butt"/><path d="M242.0747,207.2811l9.77697,-23.62169l7.2539,3.00239l-9.77697,23.62169z" fill="#181818" stroke-width="2" stroke-linecap="butt"/><path d="M268.42365,213.94129c4.94728,0 6.34095,2.65869 6.34095,5.93835c0,3.27966 -4.01056,5.93835 -8.95785,5.93835c-4.94728,0 -8.95785,-0.84699 -8.95785,-4.12665c0,-1.26666 3.40667,-7.75005 11.57475,-7.75005z" data-paper-data="{&quot;index&quot;:null}" fill="#181818" stroke-width="2" stroke-linecap="butt"/><path d="M258.41981,191.32544l-0.14775,7.61572l-15.97052,-8.17076l7.77782,-3.22047l-0.07633,-6.3507l14.66095,5.39158z" data-paper-data="{&quot;index&quot;:null}" fill="#0e0e0e" stroke-width="2" stroke-linecap="round"/><path d="M285.89024,202.37307c-0.12655,-2.10853 1.48015,-3.92042 3.58868,-4.04698c2.10853,-0.12655 3.92042,1.48015 4.04697,3.58868c0.12655,2.10853 -1.48015,3.92042 -3.58868,4.04698c-2.10853,0.12655 -3.92042,-1.48015 -4.04697,-3.58868z" fill="#181818" stroke-width="2" stroke-linecap="butt"/><path d="M240.92509,160.55624c0,0 2.81186,-1.214 4.82388,-1.53474c1.59395,-0.25409 6.28882,-0.23677 6.28882,-0.23677" fill="#181818" stroke-width="2" stroke-linecap="round"/><path d="M230.46597,162.15171c0.06172,-2.83428 2.40938,-5.08192 5.24368,-5.02019c2.83428,0.06172 5.08192,2.40938 5.02019,5.24368c-0.06172,2.83428 -2.40938,5.08192 -5.24368,5.02019c-2.83428,-0.06172 -5.08192,-2.40938 -5.02019,-5.24368z" fill="#181818" stroke-width="2" stroke-linecap="butt"/><path d="M250.58601,171.12203c0,-9.17193 7.43532,-16.60724 16.60724,-16.60724c9.17193,0 16.60724,7.43532 16.60724,16.60724c0,9.17193 -7.43532,16.60724 -16.60724,16.60724c-9.17193,0 -16.60724,-7.43532 -16.60724,-16.60724z" fill="#181818" stroke-width="2" stroke-linecap="butt"/><path d="M270.9853,177.34613v-7.83584h16.47423v7.83584z" fill="#ff0000" stroke-width="2" stroke-linecap="butt"/><g stroke-width="2"><path d="M252.47351,164.04124v-12.06291h29.6328v12.06291z" fill="#343434" stroke-linecap="butt"/><path d="M241.72179,164.04124h51.13626" fill="none" stroke-linecap="round"/></g><path d="M221.39244,215.78001c4.11347,0 7.4481,2.47844 7.4481,5.53575c0,3.05731 -3.33463,5.53575 -7.4481,5.53575c-4.11347,0 -7.4481,-2.47844 -7.4481,-5.53575c0,-3.05731 3.33463,-5.53575 7.4481,-5.53575z" data-paper-data="{&quot;index&quot;:null}" fill="#181818" stroke-width="2" stroke-linecap="butt"/></g></g></svg>