<svg version="1.1" xmlns="http://www.w3.org/2000/svg" xmlns:xlink="http://www.w3.org/1999/xlink" width="62.4589" height="83.64668" viewBox="0,0,62.4589,83.64668"><g transform="translate(-205.28213,-139.47985)"><g data-paper-data="{&quot;isPaintingLayer&quot;:true}" fill-rule="nonzero" stroke="#000000" stroke-width="2" stroke-linejoin="miter" stroke-miterlimit="10" stroke-dasharray="" stroke-dashoffset="0" style="mix-blend-mode: normal"><path d="M254.4736,189.52732c0,-2.11232 1.71238,-3.8247 3.8247,-3.8247c2.11232,0 3.8247,1.71238 3.8247,3.8247c0,2.11232 -1.71238,3.8247 -3.8247,3.8247c-2.11232,0 -3.8247,-1.71238 -3.8247,-3.8247z" fill="#ffe819" stroke-linecap="butt"/><path d="M237.39319,205.08231l0.58098,-25.55849l7.84868,0.17841l-0.58098,25.55849z" fill="#ffe819" stroke-linecap="butt"/><path d="M221.03197,189.12758c0,-2.11232 1.71238,-3.8247 3.8247,-3.8247c2.11232,0 3.8247,1.71238 3.8247,3.8247c0,2.11232 -1.71238,3.8247 -3.8247,3.8247c-2.11232,0 -3.8247,-1.71238 -3.8247,-3.8247z" fill="#ffe819" stroke-linecap="butt"/><path d="M256.31517,201.72425c3.54001,-3.456 6.39451,-2.52715 8.68557,-0.1804c2.29106,2.34675 1.27858,7.05081 -2.26144,10.50681c-3.54001,3.456 -7.00143,5.65158 -9.29249,3.30483c-0.88484,-0.90636 -2.97628,-7.9253 2.86836,-13.63123z" data-paper-data="{&quot;index&quot;:null}" fill="#ffe819" stroke-linecap="butt"/><path d="M228.80196,211.01137c2.30158,4.70897 1.79598,9.68539 -1.1293,11.11516c-2.92527,1.42977 -7.16246,-1.22855 -9.46404,-5.93751c-2.30158,-4.70897 -1.16456,-8.39352 1.76071,-9.82329c2.92527,-1.42977 6.53104,-0.06332 8.83262,4.64565z" fill="#ffe819" stroke-linecap="butt"/><path d="M233.52655,164.92101c0,-9.17193 7.43532,-16.60724 16.60724,-16.60724c9.17193,0 16.60724,7.43532 16.60724,16.60724c0,9.17193 -7.43532,16.60724 -16.60724,16.60724c-9.17193,0 -16.60724,-7.43532 -16.60724,-16.60724z" fill="#ffe819" stroke-linecap="butt"/><path d="M216.41793,145.76734c0,0 3.03243,-0.42979 5.05783,-0.20877c1.60455,0.1751 6.12877,1.42948 6.12877,1.42948" fill="none" stroke-linecap="round"/><path d="M206.28213,144.54356c0.80671,-2.71776 3.66386,-4.26697 6.38162,-3.46026c2.71776,0.80671 4.26697,3.66386 3.46026,6.38162c-0.80671,2.71776 -3.66386,4.26697 -6.38162,3.46026c-2.71776,-0.80671 -4.26697,-3.66386 -3.46026,-6.38162z" fill="#ffe819" stroke-linecap="butt"/><path d="M228.9976,164.87393l4.89612,-10.31864l-8.48401,-9.10785c0,0 10.50823,-4.273 21.10312,-4.96759c10.59489,-0.69459 18.66148,9.6863 18.66148,9.6863z" data-paper-data="{&quot;index&quot;:null}" fill="#fff067" stroke-linecap="butt"/></g></g></svg>