<svg version="1.1" xmlns="http://www.w3.org/2000/svg" xmlns:xlink="http://www.w3.org/1999/xlink" width="62.15153" height="82.33114" viewBox="0,0,62.15153,82.33114"><g transform="translate(-216.25349,-134.80214)"><g data-paper-data="{&quot;isPaintingLayer&quot;:true}" fill-rule="nonzero" stroke="#000000" stroke-width="2" stroke-linejoin="miter" stroke-miterlimit="10" stroke-dasharray="" stroke-dashoffset="0" style="mix-blend-mode: normal"><path d="M256.5472,188.94581c-0.38897,-2.0762 0.9788,-4.07462 3.05499,-4.4636c2.0762,-0.38897 4.07462,0.9788 4.4636,3.05499c0.38897,2.0762 -0.9788,4.07462 -3.05499,4.4636c-2.0762,0.38897 -4.07462,-0.9788 -4.4636,-3.05499z" fill="#ffe819" stroke-linecap="butt"/><path d="M242.20431,154.44924c3.54233,-8.46027 13.27236,-12.44705 21.73262,-8.90472c8.46027,3.54233 12.44705,13.27236 8.90472,21.73262c-3.54233,8.46027 -13.27236,12.44705 -21.73262,8.90472c-8.46027,-3.54233 -12.44705,-13.27236 -8.90472,-21.73262z" fill="#ffe819" stroke-linecap="butt"/><path d="M242.21359,203.6657l-4.7077,-25.1279l7.71645,-1.44567l4.7077,25.1279z" fill="#ffe819" stroke-linecap="butt"/><path d="M217.31958,193.65378c-0.38897,-2.0762 0.9788,-4.07462 3.05499,-4.4636c2.0762,-0.38897 4.07462,0.9788 4.4636,3.05499c0.38897,2.0762 -0.9788,4.07462 -3.05499,4.4636c-2.0762,0.38897 -4.07462,-0.9788 -4.4636,-3.05499z" fill="#ffe819" stroke-linecap="butt"/><path d="M230.57162,143.93932c0,0 2.80031,-1.24041 4.80922,-1.58006c1.59148,-0.26907 6.28631,-0.29592 6.28631,-0.29592" fill="none" stroke-linecap="round"/><path d="M220.48623,145.52581c0.03505,-2.83474 2.36147,-5.10435 5.19621,-5.0693c2.83474,0.03505 5.10435,2.36147 5.0693,5.19621c-0.03505,2.83474 -2.36147,5.10435 -5.19621,5.0693c-2.83474,-0.03505 -5.10435,-2.36147 -5.0693,-5.19621z" fill="#ffe819" stroke-linecap="butt"/><path d="M262.20924,203.9778c4.86268,-0.91102 6.7221,1.44557 7.32603,4.66914c0.60393,3.22357 -2.84845,6.57532 -7.71114,7.48635c-4.86268,0.91102 -8.96063,0.81704 -9.56457,-2.40653c-0.23325,-1.245 1.92128,-8.24484 9.94967,-9.74895z" data-paper-data="{&quot;index&quot;:null}" fill="#ffe819" stroke-linecap="butt"/><path d="M238.04495,152.65667l8.50143,-7.62706l-10.04191,-5.91887c0,0 17.07694,-5.64196 27.11802,-2.19076c10.04108,3.4512 13.47254,16.14206 13.47254,16.14206z" data-paper-data="{&quot;index&quot;:null}" fill="#fff067" stroke-linecap="butt"/><path d="M250.49296,188.73338c4.42476,-2.21294 6.86047,-0.45845 8.32748,2.47482c1.46701,2.93327 -0.93073,7.1051 -5.35549,9.31804c-4.42476,2.21294 -8.3906,3.24935 -9.85761,0.31608c-0.56658,-1.13288 -0.41977,-8.45532 6.88562,-12.10894z" data-paper-data="{&quot;index&quot;:null}" fill="#ffe819" stroke-linecap="butt"/></g></g></svg>