<svg version="1.1" xmlns="http://www.w3.org/2000/svg" xmlns:xlink="http://www.w3.org/1999/xlink" width="77.51637" height="81.08178" viewBox="0,0,77.51637,81.08178"><g transform="translate(-187.36651,-144.58418)"><g data-paper-data="{&quot;isPaintingLayer&quot;:true}" fill-rule="nonzero" stroke="#000000" stroke-width="2" stroke-linejoin="miter" stroke-miterlimit="10" stroke-dasharray="" stroke-dashoffset="0" style="mix-blend-mode: normal"><path d="M224.03101,207.40391l-9.46574,-23.74814l7.29274,-2.90681l9.46574,23.74814z" fill="#ffe819" stroke-linecap="butt"/><path d="M203.54962,193.61598c-0.34193,-2.08446 1.07069,-4.05144 3.15515,-4.39337c2.08446,-0.34193 4.05144,1.07069 4.39337,3.15515c0.34193,2.08446 -1.07069,4.05144 -3.15515,4.39337c-2.08446,0.34193 -4.05144,-1.07069 -4.39337,-3.15515z" fill="#ffe819" stroke-linecap="butt"/><path d="M219.50462,213.59446c4.11347,0 7.4481,2.47844 7.4481,5.53575c0,3.05731 -3.33463,5.53575 -7.4481,5.53575c-4.11347,0 -7.4481,-2.47844 -7.4481,-5.53575c0,-3.05731 3.33463,-5.53575 7.4481,-5.53575z" data-paper-data="{&quot;index&quot;:null}" fill="#ffe819" stroke-linecap="butt"/><path d="M256.38562,203.07419c4.82477,-1.09413 6.77193,1.1905 7.49725,4.38894c0.72533,3.19845 -2.59794,6.67827 -7.42272,7.77241c-4.82477,1.09413 -8.92335,1.15509 -9.64868,-2.04336c-0.28013,-1.2353 1.60832,-8.31156 9.57414,-10.11799z" data-paper-data="{&quot;index&quot;:null}" fill="#ffe819" stroke-linecap="butt"/><path d="M211.80694,168.07324c1.24736,-9.08672 9.62477,-15.44176 18.71148,-14.19442c9.08672,1.24736 15.44176,9.62477 14.19442,18.71148c-1.24736,9.08672 -9.62477,15.44176 -18.71148,14.19442c-9.08672,-1.24736 -15.44176,-9.62477 -14.19442,-18.71148z" fill="#ffe819" stroke-linecap="butt"/><path d="M197.86259,160.90854c0,0 2.38712,-1.91887 4.24109,-2.76375c1.46876,-0.66932 5.99875,-1.90269 5.99875,-1.90269" fill="none" stroke-linecap="round"/><path d="M188.52445,165.03544c-0.69518,-2.74841 0.96929,-5.53998 3.7177,-6.23516c2.74841,-0.69518 5.53998,0.96929 6.23516,3.7177c0.69518,2.74841 -0.96929,5.53998 -3.7177,6.23516c-2.74841,0.69518 -5.53998,-0.96929 -6.23516,-3.7177z" fill="#ffe819" stroke-linecap="butt"/><path d="M207.32647,167.41067l6.25393,-9.55691l-11.22635,-3.13719c0,0 15.05151,-9.84405 25.64244,-9.09132c10.59092,0.75273 17.1708,12.13421 17.1708,12.13421z" data-paper-data="{&quot;index&quot;:null}" fill="#fff067" stroke-linecap="butt"/><path d="M222.82637,187.22906c-0.34193,-2.08446 1.07069,-4.05144 3.15515,-4.39337c2.08446,-0.34193 4.05144,1.07069 4.39337,3.15515c0.34193,2.08446 -1.07069,4.05144 -3.15515,4.39337c-2.08446,0.34193 -4.05144,-1.07069 -4.39337,-3.15515z" fill="#ffe819" stroke-linecap="butt"/></g></g></svg>