<svg version="1.1" xmlns="http://www.w3.org/2000/svg" xmlns:xlink="http://www.w3.org/1999/xlink" width="73.42845" height="101.76953" viewBox="0,0,73.42845,101.76953"><g transform="translate(-190.29375,-125.39081)"><g data-paper-data="{&quot;isPaintingLayer&quot;:true}" fill-rule="nonzero" stroke="#000000" stroke-width="2" stroke-linejoin="miter" stroke-miterlimit="10" stroke-dasharray="" stroke-dashoffset="0" style="mix-blend-mode: normal"><path d="M232.01499,206.59016l-2.50917,-25.44166l7.8128,-0.77053l2.50917,25.44166z" data-paper-data="{&quot;index&quot;:null}" fill="#1d28e8" stroke-linecap="butt"/><path d="M257.91213,136.81419c-1.96346,0.77892 -4.18661,-0.18134 -4.96553,-2.14481c-0.77892,-1.96346 0.18134,-4.18661 2.14481,-4.96553c1.96346,-0.77892 4.18661,0.18134 4.96553,2.14481c0.77892,1.96346 -0.18134,4.18661 -2.14481,4.96553z" data-paper-data="{&quot;index&quot;:null}" fill="#1d28e8" stroke-linecap="butt"/><path d="M260.57739,140.5095c-1.96346,0.77892 -4.18661,-0.18134 -4.96553,-2.14481c-0.77892,-1.96346 0.18134,-4.18661 2.14481,-4.96553c1.96346,-0.77892 4.18661,0.18134 4.96553,2.14481c0.77892,1.96346 -0.18134,4.18661 -2.14481,4.96553z" data-paper-data="{&quot;index&quot;:null}" fill="#1d28e8" stroke-linecap="butt"/><path d="M255.3555,214.28364c4.94728,0 6.34095,2.65869 6.34095,5.93835c0,3.27966 -4.01056,5.93835 -8.95785,5.93835c-4.94728,0 -8.95785,-0.84699 -8.95785,-4.12665c0,-1.26666 3.40667,-7.75005 11.57475,-7.75005z" data-paper-data="{&quot;index&quot;:null}" fill="#1d28e8" stroke-linecap="butt"/><path d="M235.37319,173.04091c-7.90579,4.65001 -18.08429,2.01068 -22.7343,-5.89512c-4.65001,-7.90579 -2.01068,-18.08429 5.89512,-22.7343c7.90579,-4.65001 18.08429,-2.01068 22.7343,5.89512c4.65001,7.90579 2.01068,18.08429 -5.89512,22.7343z" data-paper-data="{&quot;index&quot;:null}" fill="#1d28e8" stroke-linecap="butt"/><path d="M240.08252,149.53639c0,0 4.55434,-1.14017 6.16279,-1.27485c2.03032,-0.16999 5.05098,0.33595 5.05098,0.33595" data-paper-data="{&quot;index&quot;:null}" fill="none" stroke-linecap="round"/><path d="M257.83995,153.92164c-2.73719,0.73809 -5.55446,-0.88251 -6.29255,-3.6197c-0.73809,-2.73719 0.88251,-5.55446 3.6197,-6.29255c2.73719,-0.73809 5.55446,0.88251 6.29255,3.6197c0.73809,2.73719 -0.88251,5.55446 -3.6197,6.29255z" data-paper-data="{&quot;index&quot;:null}" fill="#1d28e8" stroke-linecap="butt"/><path d="M190.5138,160.79019l20.30004,-4.57918l-11.41889,-26.11932l40.8916,-3.61172l0.74483,23.03197z" data-paper-data="{&quot;index&quot;:null}" fill="#2530ff" stroke-linecap="round"/><path d="M234.83767,221.96525c0,3.27966 -4.01057,4.12665 -8.95785,4.12665c-4.94729,0 -8.95785,-2.65869 -8.95785,-5.93835c0,-3.27966 1.39367,-5.93835 6.34095,-5.93835c8.16808,0 11.57475,6.48339 11.57475,7.75005z" data-paper-data="{&quot;index&quot;:null}" fill="#1d28e8" stroke-linecap="butt"/></g></g></svg>