<svg version="1.1" xmlns="http://www.w3.org/2000/svg" xmlns:xlink="http://www.w3.org/1999/xlink" width="72.5348" height="118.4819" viewBox="0,0,72.5348,118.4819"><g transform="translate(-191.4692,-120.95596)"><g data-paper-data="{&quot;isPaintingLayer&quot;:true}" fill-rule="nonzero" stroke="#000000" stroke-width="2" stroke-linejoin="miter" stroke-miterlimit="10" stroke-dasharray="" stroke-dashoffset="0" style="mix-blend-mode: normal"><path d="M230.79188,200.19879c-0.74082,-1.97815 0.26222,-4.18232 2.24037,-4.92316c1.97815,-0.74082 4.18232,0.26222 4.92316,2.24037c0.74082,1.97815 -0.26222,4.18232 -2.24037,4.92316c-1.97815,0.74082 -4.18232,-0.26222 -4.92316,-2.24037z" fill="#1d28e8" stroke-linecap="butt"/><path d="M227.30792,205.68081l-4.32348,-25.19687l7.73762,-1.32768l4.32348,25.19687z" fill="#1d28e8" stroke-linecap="butt"/><path d="M209.20636,201.17511c-0.74082,-1.97815 0.26222,-4.18232 2.24037,-4.92316c1.97815,-0.74082 4.18232,0.26222 4.92316,2.24037c0.74082,1.97815 -0.26222,4.18232 -2.24037,4.92316c-1.97815,0.74082 -4.18232,-0.26222 -4.92316,-2.24037z" fill="#1d28e8" stroke-linecap="butt"/><path d="M212.24972,156.61078c1.38803,-9.06629 9.86294,-15.29074 18.92923,-13.90271c9.06629,1.38803 15.29074,9.86294 13.90271,18.92923c-1.38803,9.06629 -9.86294,15.29074 -18.92923,13.90271c-9.06629,-1.38803 -15.29074,-9.86294 -13.90271,-18.92923z" fill="#1d28e8" stroke-linecap="butt"/><path d="M202.30264,158.74079c0,0 2.61789,-1.58965 4.56658,-2.18441c1.54378,-0.47116 6.1963,-1.10053 6.1963,-1.10053" fill="none" stroke-linecap="round"/><path d="M192.50441,161.60896c-0.32917,-2.81578 1.6866,-5.36529 4.5024,-5.69445c2.81578,-0.32917 5.36529,1.6866 5.69445,4.5024c0.32917,2.81578 -1.6866,5.36529 -4.5024,5.69445c-2.81578,0.32917 -5.36529,-1.6866 -5.69445,-4.5024z" fill="#1d28e8" stroke-linecap="butt"/><path d="M212.17518,155.78489l-7.84619,-21.66711l39.31705,-11.80413l-0.9229,28.49138l20.55122,-3.2723z" fill="#2530ff" stroke-linecap="round"/><path d="M235.57468,230.31697c1.87853,4.57677 -0.05186,6.87556 -3.08591,8.1209c-3.03404,1.24531 -7.01645,-1.45535 -8.89496,-6.03213c-1.87853,-4.57677 -2.61782,-8.60857 0.41623,-9.85389c1.17179,-0.48096 8.46317,0.20879 11.56464,7.76512z" data-paper-data="{&quot;index&quot;:null}" fill="#1d28e8" stroke-linecap="butt"/><path d="M257.06612,211.86597c4.93524,0.34483 6.14021,3.09423 5.91161,6.3659c-0.2286,3.27167 -4.41473,5.64436 -9.34999,5.29949c-4.93524,-0.34483 -8.87702,-1.46933 -8.64843,-4.74104c0.0883,-1.26358 3.9386,-7.49375 12.08681,-6.92438z" data-paper-data="{&quot;index&quot;:null}" fill="#1d28e8" stroke-linecap="butt"/></g></g></svg>