<svg version="1.1" xmlns="http://www.w3.org/2000/svg" xmlns:xlink="http://www.w3.org/1999/xlink" width="110.91344" height="79.18403" viewBox="0,0,110.91344,79.18403"><g transform="translate(-171.31253,-145.76589)"><g data-paper-data="{&quot;isPaintingLayer&quot;:true}" fill-rule="nonzero" stroke="#000000" stroke-width="2" stroke-linejoin="miter" stroke-miterlimit="10" stroke-dasharray="" stroke-dashoffset="0" style="mix-blend-mode: normal"><path d="M185.4515,179.23985c-2.67326,-6.21079 23.21357,-23.60655 46.09551,-23.01338c22.16918,0.5747 47.15141,19.9499 47.53984,20.91405c0.42005,1.04264 -24.159,-7.41606 -47.54469,-6.67961c-20.55977,0.64745 -40.19716,10.52805 -41.11381,10.89734c-1.9593,0.78934 -4.10506,-0.09297 -4.97685,-2.1184z" fill="#e80000" stroke-linecap="butt"/><path d="M172.50357,178.78153c-2.67326,-6.21079 23.21357,-23.60655 46.09551,-23.01338c22.16918,0.5747 47.15141,19.9499 47.53984,20.91405c0.42005,1.04264 -24.159,-7.41606 -47.54469,-6.67961c-20.55977,0.64745 -40.19716,10.52805 -41.11381,10.89734c-1.9593,0.78934 -4.10506,-0.09297 -4.97685,-2.1184z" fill="#e80000" stroke-linecap="butt"/><path d="M210.6815,179.98037c-9.17192,0 -16.60724,-7.43531 -16.60724,-16.60724c0,-9.17192 7.43531,-16.60724 16.60724,-16.60724c9.17192,0 16.60724,7.43531 16.60724,16.60724c0,9.17192 -7.43531,16.60724 -16.60724,16.60724z" data-paper-data="{&quot;index&quot;:null}" fill="#e80000" stroke-linecap="butt"/><path d="M243.40754,206.11788l-16.48057,-19.54392l6.00168,-5.06096l16.48057,19.54392z" data-paper-data="{&quot;index&quot;:null}" fill="#e80000" stroke-linecap="butt"/><path d="M280.70783,213.74625c1.7555,2.77027 -1.17878,5.63244 -5.35766,8.28057c-4.17888,2.64813 -8.98964,2.54912 -10.74515,-0.22115c-1.7555,-2.77027 -2.00141,-5.762 2.17746,-8.41013c6.89942,-4.37213 13.24734,-0.71921 13.92534,0.35071z" data-paper-data="{&quot;index&quot;:null}" fill="#e80000" stroke-linecap="butt"/><path d="M196.01847,153.57176l1.3957,-5.42328l32.34602,8.32434l-1.3957,5.42329z" data-paper-data="{&quot;index&quot;:null}" fill="#ff2121" stroke-linecap="butt"/><path d="M223.41781,157.26445c0,0 4.32265,1.83215 5.68789,2.69317c1.72332,1.08686 3.83029,3.3097 3.83029,3.3097" data-paper-data="{&quot;index&quot;:null}" fill="none" stroke-linecap="round"/><path d="M234.95431,171.45833c-2.62976,-1.05895 -3.90314,-4.04924 -2.84419,-6.679c1.05895,-2.62976 4.04924,-3.90314 6.679,-2.84419c2.62976,1.05895 3.90314,4.04924 2.84419,6.679c-1.05895,2.62976 -4.04924,3.90314 -6.679,2.84419z" data-paper-data="{&quot;index&quot;:null}" fill="#e80000" stroke-linecap="butt"/><path d="M227.52732,220.20099c-1.12292,3.08143 -5.18108,2.50405 -9.82934,0.81016c-4.64827,-1.6939 -7.50612,-5.56506 -6.3832,-8.64649c1.12292,-3.08143 3.34266,-5.10225 7.99092,-3.40836c7.67439,2.79666 8.65531,10.05459 8.22162,11.24469z" data-paper-data="{&quot;index&quot;:null}" fill="#e80000" stroke-linecap="butt"/></g></g></svg>