<svg version="1.1" xmlns="http://www.w3.org/2000/svg" xmlns:xlink="http://www.w3.org/1999/xlink" width="68.02658" height="93.96206" viewBox="0,0,68.02658,93.96206"><g transform="translate(-212.14237,-133.12294)"><g data-paper-data="{&quot;isPaintingLayer&quot;:true}" fill-rule="nonzero" stroke-linejoin="miter" stroke-miterlimit="10" stroke-dasharray="" stroke-dashoffset="0" style="mix-blend-mode: normal"><path d="M230.63063,209.95164l18.87964,-17.23754l5.29342,5.79769l-18.87964,17.23754z" fill="#2d6a2b" stroke="#000000" stroke-width="2" stroke-linecap="butt"/><path d="M219.80688,192.33814c0,-2.11232 1.71238,-3.8247 3.8247,-3.8247c2.11232,0 3.8247,1.71238 3.8247,3.8247c0,2.11232 -1.71238,3.8247 -3.8247,3.8247c-2.11232,0 -3.8247,-1.71238 -3.8247,-3.8247z" fill="#2d6a2b" stroke="#000000" stroke-width="2" stroke-linecap="butt"/><path d="M260.46984,207.86811c0,-2.11232 1.71238,-3.8247 3.8247,-3.8247c2.11232,0 3.8247,1.71238 3.8247,3.8247c0,2.11232 -1.71238,3.8247 -3.8247,3.8247c-2.11232,0 -3.8247,-1.71238 -3.8247,-3.8247z" fill="#2d6a2b" stroke="#000000" stroke-width="2" stroke-linecap="butt"/><path d="M256.65743,214.2083c4.94728,0 6.34095,2.65869 6.34095,5.93835c0,3.27966 -4.01057,5.93835 -8.95785,5.93835c-4.94728,0 -8.95785,-0.84699 -8.95785,-4.12665c0,-1.26666 3.40667,-7.75005 11.57475,-7.75005z" data-paper-data="{&quot;index&quot;:null}" fill="#2d6a2b" stroke="#000000" stroke-width="2" stroke-linecap="butt"/><path d="M220.59048,214.6109c4.11347,0 7.4481,2.47844 7.4481,5.53575c0,3.05731 -3.33463,5.53575 -7.4481,5.53575c-4.11347,0 -7.4481,-2.47844 -7.4481,-5.53575c0,-3.05731 3.33463,-5.53575 7.4481,-5.53575z" data-paper-data="{&quot;index&quot;:null}" fill="#2d6a2b" stroke="#000000" stroke-width="2" stroke-linecap="butt"/><path d="M244.26636,189.50159c0,-9.17193 7.43532,-16.60724 16.60724,-16.60724c9.17193,0 16.60724,7.43532 16.60724,16.60724c0,9.17193 -7.43532,16.60724 -16.60724,16.60724c-9.17193,0 -16.60724,-7.43532 -16.60724,-16.60724z" fill="#2d6a2b" stroke="#000000" stroke-width="2" stroke-linecap="butt"/><path d="M253.19884,171.12028c14.84222,-5.55435 25.0872,3.06696 25.0872,3.06696l-37.64308,16.22019c0,0 -3.40193,-13.31531 12.55588,-19.28715z" fill="#367e33" stroke="#000000" stroke-width="2" stroke-linecap="round"/><path d="M234.41292,177.70943c0,0 2.78477,-1.27492 4.78933,-1.63939c1.58804,-0.28873 6.28217,-0.37361 6.28217,-0.37361" fill="none" stroke="#000000" stroke-width="2" stroke-linecap="round"/><path d="M224.34793,179.42048c0,-2.83496 2.29819,-5.13315 5.13315,-5.13315c2.83496,0 5.13315,2.29819 5.13315,5.13315c0,2.83496 -2.29819,5.13315 -5.13315,5.13315c-2.83496,0 -5.13315,-2.29819 -5.13315,-5.13315z" fill="#2d6a2b" stroke="#000000" stroke-width="2" stroke-linecap="butt"/><g stroke="#61ff00" stroke-width="3" stroke-linecap="round"><path d="M222.41998,188.23775c0,0 8.44638,-21.63591 12.74758,-31.00273c3.85679,-8.39904 11.87209,-22.61208 11.87209,-22.61208" fill="none"/><path d="M230.95323,169.14843c0,0 7.17439,-7.96432 11.2874,-7.2409c4.113,0.72343 3.14798,4.49171 3.14798,4.49171z" fill="#61ff00"/><path d="M233.09297,140.4199c0,0 3.44004,-1.81586 5.1012,2.01568c1.66116,3.83154 -4.41391,12.66307 -4.41391,12.66307z" data-paper-data="{&quot;index&quot;:null}" fill="#61ff00"/><path d="M223.48054,168.0945c0,0 2.91427,-1.51102 4.29232,1.73267c1.37805,3.2437 -3.80344,10.65879 -3.80344,10.65879z" data-paper-data="{&quot;index&quot;:null}" fill="#61ff00"/></g></g></g></svg>