<svg version="1.1" xmlns="http://www.w3.org/2000/svg" xmlns:xlink="http://www.w3.org/1999/xlink" width="45.0346" height="117.78749" viewBox="0,0,45.0346,117.78749"><g transform="translate(-219.20209,-118.0839)"><g data-paper-data="{&quot;isPaintingLayer&quot;:true}" fill-rule="nonzero" stroke="#000000" stroke-width="2" stroke-linejoin="miter" stroke-miterlimit="10" stroke-dasharray="" stroke-dashoffset="0" style="mix-blend-mode: normal"><path d="M237.27448,188.81473c-2.11232,0 -3.8247,-1.71238 -3.8247,-3.8247c0,-2.11232 1.71238,-3.8247 3.8247,-3.8247c2.11232,0 3.8247,1.71238 3.8247,3.8247c0,2.11232 -1.71238,3.8247 -3.8247,3.8247z" data-paper-data="{&quot;index&quot;:null}" fill="#1d28e8" stroke-linecap="butt"/><path d="M237.82143,206.62206v-25.56509h7.8507v25.56509z" data-paper-data="{&quot;index&quot;:null}" fill="#1d28e8" stroke-linecap="butt"/><path d="M247.12326,197.53816c-2.11232,0 -3.8247,-1.71238 -3.8247,-3.8247c0,-2.11232 1.71238,-3.8247 3.8247,-3.8247c2.11232,0 3.8247,1.71238 3.8247,3.8247c0,2.11232 -1.71238,3.8247 -3.8247,3.8247z" data-paper-data="{&quot;index&quot;:null}" fill="#1d28e8" stroke-linecap="butt"/><path d="M227.69726,152.72552c2.06117,-8.93734 10.9772,-14.51156 19.91453,-12.45041c8.93734,2.06117 14.51156,10.9772 12.45041,19.91453c-2.06117,8.93734 -10.9772,14.51156 -19.91453,12.45041c-8.93734,-2.06117 -14.51156,-10.9772 -12.45041,-19.91453z" data-paper-data="{&quot;index&quot;:null}" fill="#1d28e8" stroke-linecap="butt"/><path d="M227.68463,151.89636l-6.38466,-24.02683l38.82252,-8.527l-1.60333,29.869l5.64962,0.20108z" data-paper-data="{&quot;index&quot;:null}" fill="#2530ff" stroke-linecap="round"/><path d="M246.47249,232.00281c-3.07137,3.87844 -6.02088,3.32044 -8.59198,1.28436c-2.5711,-2.03608 -2.16555,-6.83074 0.90582,-10.70918c3.07137,-3.87844 6.22521,-6.49671 8.79631,-4.46063c0.993,0.78637 3.96075,7.48205 -1.11016,13.88545z" data-paper-data="{&quot;index&quot;:null}" fill="#1d28e8" stroke-linecap="butt"/><path d="M243.32926,216.99383c1.59089,4.68451 -0.47843,6.85911 -3.5839,7.91374c-3.10547,1.05463 -6.91261,-1.88796 -8.5035,-6.57248c-1.59089,-4.68451 -2.07855,-8.75444 1.02691,-9.80907c1.19938,-0.40731 8.43389,0.73356 11.06048,8.46781z" data-paper-data="{&quot;index&quot;:null}" fill="#1d28e8" stroke-linecap="butt"/><g data-paper-data="{&quot;index&quot;:null}"><path d="M230.19169,150.10717c0,0 2.72928,-1.38973 4.71694,-1.83732c1.57465,-0.35458 6.26117,-0.63477 6.26117,-0.63477" fill="none" stroke-linecap="round"/><path d="M220.20663,152.23567c-0.118,-2.83251 2.08253,-5.22436 4.91505,-5.34235c2.83251,-0.118 5.22436,2.08253 5.34235,4.91505c0.118,2.83251 -2.08253,5.22436 -4.91505,5.34235c-2.83251,0.118 -5.22436,-2.08253 -5.34235,-4.91505z" fill="#1d28e8" stroke-linecap="butt"/></g></g></g></svg>