<svg version="1.1" xmlns="http://www.w3.org/2000/svg" xmlns:xlink="http://www.w3.org/1999/xlink" width="145.17748" height="130.03971" viewBox="0,0,145.17748,130.03971"><g transform="translate(-168.37755,-108.55547)"><g data-paper-data="{&quot;isPaintingLayer&quot;:true}" fill-rule="nonzero" stroke-linejoin="miter" stroke-miterlimit="10" stroke-dasharray="" stroke-dashoffset="0" style="mix-blend-mode: normal"><path d="M186.61364,123.96442l-2.30233,-6.41889l-0.71727,2.05203l-3.64771,-9.90919l4.0411,5.71244l0.28183,-1.72204l3.36018,5.16252l0.76513,-2.32307l2.34416,4.57292l0.7659,-1.91175l5.14745,5.41505l-3.49622,3.12133l-2.26934,-4.08529l-1.30623,2.56947l-1.66929,-4.74733l-1.29737,2.5118" data-paper-data="{&quot;index&quot;:null}" fill="#fff200" stroke="none" stroke-width="0.66342" stroke-linecap="butt"/><path d="M292.74032,123.50216l-1.3583,-2.6298l-1.74772,4.97033l-1.36758,-2.69016l-2.37593,4.27719l-3.66044,-3.26794l5.38924,-5.66944l0.80186,2.00154l2.45429,-4.78774l0.80108,2.4322l3.51803,-5.40501l0.29509,1.80291l4.23092,-5.98077l-3.81906,10.37467l-0.75098,-2.14841l-2.41048,6.72041" data-paper-data="{&quot;index&quot;:null}" fill="#fff200" stroke="none" stroke-width="0.66342" stroke-linecap="butt"/><path d="M174.4501,224.45993l1.18163,2.28772l1.52038,-4.32382l1.1897,2.34025l2.06687,-3.72084l3.18432,2.84287l-4.68823,4.93198l-0.69758,-1.74119l-2.13504,4.16497l-0.6969,-2.11583l-3.06042,4.70197l-0.25669,-1.56841l-3.68059,5.20283l3.32232,-9.02521l0.65329,1.86897l2.09694,-5.84626" data-paper-data="{&quot;index&quot;:null}" fill="#fff200" stroke="none" stroke-width="0.66342" stroke-linecap="butt"/><path d="M305.83142,222.05738l2.66709,7.43585l0.8309,-2.37715l4.22562,11.4791l-4.68132,-6.61746l-0.3265,1.99484l-3.89255,-5.9804l-0.88638,2.69113l-2.71553,-5.29742l-0.88725,2.21464l-5.96296,-6.27298l4.05014,-3.61583l2.62884,4.73252l1.51319,-2.97654l1.93375,5.49947l1.50292,-2.90975" data-paper-data="{&quot;index&quot;:null}" fill="#fff200" stroke="none" stroke-width="0.66342" stroke-linecap="butt"/><path d="M266.54178,184.16369c0,-2.11232 1.71238,-3.8247 3.8247,-3.8247c2.11232,0 3.8247,1.71238 3.8247,3.8247c0,2.11232 -1.71238,3.8247 -3.8247,3.8247c-2.11232,0 -3.8247,-1.71238 -3.8247,-3.8247z" fill="#ffe819" stroke="#000000" stroke-width="2" stroke-linecap="butt"/><path d="M238.8934,205.48551l-2.38717,-25.4534l7.8164,-0.73307l2.38717,25.4534z" fill="#ffe819" stroke="#000000" stroke-width="2" stroke-linecap="butt"/><path d="M235.44674,187.11622c0,-2.11232 1.71238,-3.8247 3.8247,-3.8247c2.11232,0 3.8247,1.71238 3.8247,3.8247c0,2.11232 -1.71238,3.8247 -3.8247,3.8247c-2.11232,0 -3.8247,-1.71238 -3.8247,-3.8247z" fill="#ffe819" stroke="#000000" stroke-width="2" stroke-linecap="butt"/><path d="M276.09359,197.70153c3.54001,-3.456 6.39451,-2.52715 8.68557,-0.1804c2.29106,2.34675 1.27858,7.05081 -2.26144,10.50681c-3.54001,3.456 -7.00143,5.65158 -9.29249,3.30483c-0.88484,-0.90636 -2.97628,-7.9253 2.86836,-13.63123z" data-paper-data="{&quot;index&quot;:null}" fill="#ffe819" stroke="#000000" stroke-width="2" stroke-linecap="butt"/><path d="M253.51763,211.51581c0,5.24134 -2.63949,9.49028 -5.89548,9.49028c-3.25598,0 -5.89548,-4.24894 -5.89548,-9.49028c0,-5.24134 2.63949,-8.05236 5.89548,-8.05236c3.25598,0 5.89548,2.81102 5.89548,8.05236z" fill="#ffe819" stroke="#000000" stroke-width="2" stroke-linecap="butt"/><path d="M237.8845,164.92101c0,-9.17193 7.43532,-16.60724 16.60724,-16.60724c9.17193,0 16.60724,7.43532 16.60724,16.60724c0,9.17193 -7.43532,16.60724 -16.60724,16.60724c-9.17193,0 -16.60724,-7.43532 -16.60724,-16.60724z" fill="#ffe819" stroke="#000000" stroke-width="2" stroke-linecap="butt"/><path d="M220.77588,145.76734c0,0 3.03243,-0.42979 5.05783,-0.20877c1.60455,0.1751 6.12877,1.42948 6.12877,1.42948" fill="none" stroke="#000000" stroke-width="2" stroke-linecap="round"/><path d="M210.64008,144.54356c0.80671,-2.71776 3.66386,-4.26697 6.38162,-3.46026c2.71776,0.80671 4.26697,3.66386 3.46026,6.38162c-0.80671,2.71776 -3.66386,4.26697 -6.38162,3.46026c-2.71776,-0.80671 -4.26697,-3.66386 -3.46026,-6.38162z" fill="#ffe819" stroke="#000000" stroke-width="2" stroke-linecap="butt"/><path d="M233.35555,164.87393l4.89612,-10.31864l-11.83628,-10.78399c0,0 13.8605,-2.59686 24.45539,-3.29145c10.59489,-0.69459 18.66148,9.6863 18.66148,9.6863z" data-paper-data="{&quot;index&quot;:null}" fill="#fff067" stroke="#000000" stroke-width="2" stroke-linecap="butt"/></g></g></svg>