<svg version="1.1" xmlns="http://www.w3.org/2000/svg" xmlns:xlink="http://www.w3.org/1999/xlink" width="101.91531" height="124.50933" viewBox="0,0,101.91531,124.50933"><g transform="translate(-199.71006,-102.58019)"><g data-paper-data="{&quot;isPaintingLayer&quot;:true}" fill-rule="nonzero" stroke="#000000" stroke-width="2" stroke-linejoin="miter" stroke-miterlimit="10" stroke-dasharray="" stroke-dashoffset="0" style="mix-blend-mode: normal"><path d="M295.19717,204.77751c-1.48829,-1.49896 -1.47967,-3.92061 0.01929,-5.40891c1.49896,-1.48829 3.92061,-1.47967 5.40892,0.01929c1.48829,1.49896 1.47967,3.92061 -0.01929,5.40891c-1.49896,1.48829 -3.92061,1.47967 -5.40892,-0.01929z" fill="#ff6b00" stroke-linecap="butt"/><path d="M228.10499,156.91178c0.10876,-9.17129 7.63171,-16.51791 16.803,-16.40915c9.17129,0.10876 16.51792,7.63172 16.40916,16.80301c-0.10876,9.17129 -7.63171,16.51791 -16.803,16.40915c-9.17129,-0.10876 -16.51792,-7.63172 -16.40916,-16.80301z" fill="#ff6b00" stroke-linecap="butt"/><path d="M235.08207,205.95089l0.10134,-25.56488l7.85063,0.03111l-0.10134,25.56488z" data-paper-data="{&quot;index&quot;:null}" fill="#ff6b00" stroke-linecap="butt"/><path d="M284.8122,211.10726c-1.48829,-1.49896 -1.47967,-3.92061 0.01929,-5.40892c1.49896,-1.48829 3.92061,-1.47968 5.40891,0.01928c1.48829,1.49896 1.47967,3.92061 -0.01929,5.40892c-1.49896,1.48829 -3.92061,1.47967 -5.40892,-0.01929z" fill="#ff6b00" stroke-linecap="butt"/><path d="M223.5948,215.01802c4.11347,0 7.4481,2.47844 7.4481,5.53575c0,3.05731 -3.33463,5.53575 -7.4481,5.53575c-4.11347,0 -7.4481,-2.47844 -7.4481,-5.53575c0,-3.05731 3.33463,-5.53575 7.4481,-5.53575z" data-paper-data="{&quot;index&quot;:null}" fill="#ff6b00" stroke-linecap="butt"/><path d="M217.67339,150.73669c0,0 2.75448,-1.33912 4.75004,-1.74994c1.58094,-0.32546 6.27183,-0.51911 6.27183,-0.51911" fill="none" stroke-linecap="round"/><path d="M207.65073,152.68055c-0.06571,-2.8342 2.17861,-5.18505 5.01282,-5.25074c2.8342,-0.06571 5.18502,2.1786 5.25072,5.01281c0.06571,2.8342 -2.1786,5.18504 -5.01281,5.25074c-2.8342,0.06571 -5.18504,-2.17861 -5.25073,-5.01281z" fill="#ff6b00" stroke-linecap="butt"/><path d="M261.79495,213.74182c4.89738,-0.7009 6.65366,1.73353 7.1183,4.98011c0.46464,3.24658 -3.1288,6.44664 -8.02619,7.14755c-4.89738,0.7009 -8.98749,0.43065 -9.45213,-2.81593c-0.17945,-1.25388 2.27433,-8.15451 10.36002,-9.31172z" data-paper-data="{&quot;index&quot;:null}" fill="#ff6b00" stroke-linecap="butt"/><path d="M223.50471,160.21315l4.37235,-12.13252l-26.37415,-21.71008l41.8619,-22.2177l3.74424,33.41979l12.49848,3.06198z" data-paper-data="{&quot;index&quot;:null}" fill="#ffa340" stroke-linecap="butt"/></g></g></svg>