<svg version="1.1" xmlns="http://www.w3.org/2000/svg" xmlns:xlink="http://www.w3.org/1999/xlink" width="89.92087" height="82.99303" viewBox="0,0,89.92087,82.99303"><g transform="translate(-191.89542,-143.68938)"><g data-paper-data="{&quot;isPaintingLayer&quot;:true}" fill-rule="nonzero" stroke="#000000" stroke-width="2" stroke-linejoin="miter" stroke-miterlimit="10" stroke-dasharray="" stroke-dashoffset="0" style="mix-blend-mode: normal"><path d="M212.42061,163.11545c0.89864,-9.1278 9.02668,-15.79884 18.15447,-14.90021c9.1278,0.89864 15.79885,9.02667 14.90021,18.15446c-0.89864,9.1278 -9.02667,15.79885 -18.15446,14.90022c-9.1278,-0.89864 -15.79885,-9.02668 -14.90022,-18.15447z" fill="#2d6a2b" stroke-linecap="butt"/><path d="M223.11105,145.69775c15.315,-4.07343 24.66601,5.51017 24.66601,5.51017l-39.05117,12.454c0,0 -2.08097,-13.58456 14.38516,-17.96417z" fill="#367e33" stroke-linecap="round"/><path d="M241.4539,210.98l-10.35441,-23.37435l7.17795,-3.1797l10.35441,23.37434z" fill="#2d6a2b" stroke-linecap="butt"/><path d="M214.80003,190.98434c0.20696,-2.10216 2.07887,-3.63852 4.18103,-3.43156c2.10216,0.20696 3.63853,2.07887 3.43157,4.18103c-0.20696,2.10216 -2.07887,3.63853 -4.18103,3.43157c-2.10216,-0.20696 -3.63853,-2.07888 -3.43157,-4.18103z" fill="#2d6a2b" stroke-linecap="butt"/><path d="M243.27108,182.04249c0.20696,-2.10216 2.07888,-3.63853 4.18103,-3.43157c2.10216,0.20696 3.63852,2.07888 3.43156,4.18103c-0.20696,2.10216 -2.07887,3.63853 -4.18103,3.43157c-2.10216,-0.20696 -3.63853,-2.07888 -3.43157,-4.18103z" fill="#2d6a2b" stroke-linecap="butt"/><path d="M272.54489,177.54797c4.47206,-2.1157 6.86886,-0.3084 8.27141,2.65623c1.40253,2.96463 -1.08579,7.08305 -5.55787,9.19876c-4.47206,2.1157 -8.45962,3.06519 -9.86216,0.10056c-0.54169,-1.14499 -0.23486,-8.46248 7.14863,-11.95555z" data-paper-data="{&quot;index&quot;:null}" fill="#2d6a2b" stroke-linecap="butt"/><path d="M203.18291,153.65423c0,0 2.89629,-0.99595 4.92691,-1.16226c1.60869,-0.13175 6.28855,0.2437 6.28855,0.2437" fill="none" stroke-linecap="round"/><path d="M192.99871,154.37091c0.27776,-2.82132 2.79006,-4.88328 5.61138,-4.60552c2.82132,0.27776 4.88329,2.79006 4.60553,5.61138c-0.27776,2.82132 -2.79006,4.88329 -5.61138,4.60553c-2.82132,-0.27776 -4.88328,-2.79006 -4.60552,-5.61139z" fill="#2d6a2b" stroke-linecap="butt"/><path d="M234.46598,214.61091c4.11347,0 7.4481,2.47844 7.4481,5.53575c0,3.05731 -3.33463,5.53575 -7.4481,5.53575c-4.11347,0 -7.4481,-2.47844 -7.4481,-5.53575c0,-3.05731 3.33463,-5.53575 7.4481,-5.53575z" data-paper-data="{&quot;index&quot;:null}" fill="#2d6a2b" stroke-linecap="butt"/></g></g></svg>