<svg version="1.1" xmlns="http://www.w3.org/2000/svg" xmlns:xlink="http://www.w3.org/1999/xlink" width="105.77095" height="97.0259" viewBox="0,0,105.77095,97.0259"><g transform="translate(-201.56504,-123.98957)"><g data-paper-data="{&quot;isPaintingLayer&quot;:true}" fill-rule="nonzero" stroke="#000000" stroke-width="2" stroke-linejoin="miter" stroke-miterlimit="10" stroke-dasharray="" stroke-dashoffset="0" style="mix-blend-mode: normal"><path d="M235.30357,195.56548c0,-2.11232 1.71238,-3.8247 3.8247,-3.8247c2.11232,0 3.8247,1.71238 3.8247,3.8247c0,2.11232 -1.71238,3.8247 -3.8247,3.8247c-2.11232,0 -3.8247,-1.71238 -3.8247,-3.8247z" fill="#1d28e8" stroke-linecap="butt"/><path d="M257.96585,164.14315c0,-9.17193 7.43532,-16.60724 16.60724,-16.60724c9.17193,0 16.60724,7.43532 16.60724,16.60724c0,9.17193 -7.43532,16.60724 -16.60724,16.60724c-9.17193,0 -16.60724,-7.43532 -16.60724,-16.60724z" fill="#1d28e8" stroke-linecap="butt"/><path d="M242.57529,200.69696l14.75841,-20.87494l6.41042,4.53211l-14.75841,20.87494z" fill="#1d28e8" stroke-linecap="butt"/><path d="M249.09066,207.92721c0,-2.11232 1.71238,-3.8247 3.8247,-3.8247c2.11232,0 3.8247,1.71238 3.8247,3.8247c0,2.11232 -1.71238,3.8247 -3.8247,3.8247c-2.11232,0 -3.8247,-1.71238 -3.8247,-3.8247z" fill="#1d28e8" stroke-linecap="butt"/><path d="M248.45568,167.75398c0,0 2.34717,-1.96752 4.1834,-2.85033c1.45469,-0.69937 5.95838,-2.02557 5.95838,-2.02557" fill="none" stroke-linecap="round"/><path d="M239.20434,172.07192c-0.75151,-2.73354 0.85523,-5.55873 3.58877,-6.31024c2.73354,-0.75151 5.55873,0.85523 6.31024,3.58877c0.75151,2.73354 -0.85523,5.55873 -3.58877,6.31024c-2.73354,0.75151 -5.55873,-0.85523 -6.31024,-3.58877z" fill="#1d28e8" stroke-linecap="butt"/><path d="M280.3777,205.82673c4.47728,-2.10466 6.8696,-0.29144 8.26482,2.67665c1.39522,2.96808 -1.10327,7.08035 -5.58056,9.18501c-4.47728,2.10466 -8.46716,3.0443 -9.86238,0.07621c-0.53886,-1.14632 -0.21397,-8.46303 7.17812,-11.93787z" data-paper-data="{&quot;index&quot;:null}" fill="#1d28e8" stroke-linecap="butt"/><path d="M257.76718,163.33806l-11.03481,-20.23016l37.07784,-17.61821l3.39948,28.30289l19.81931,-6.34473z" fill="#2530ff" stroke-linecap="round"/><path d="M213.12807,216.62353c-2.6334,4.18817 -5.62598,3.9528 -8.40242,2.20705c-2.77643,-1.74575 -2.89237,-6.55612 -0.25897,-10.7443c2.6334,-4.18817 5.48523,-7.13252 8.26166,-5.38677c1.07231,0.67423 4.74754,7.00924 0.39973,13.92403z" data-paper-data="{&quot;index&quot;:null}" fill="#1d28e8" stroke-linecap="butt"/></g></g></svg>