<svg version="1.1" xmlns="http://www.w3.org/2000/svg" xmlns:xlink="http://www.w3.org/1999/xlink" width="18.91155" height="41.85195" viewBox="0,0,18.91155,41.85195"><defs><linearGradient x1="264.80079" y1="171.95499" x2="244.98652" y2="158.34846" gradientUnits="userSpaceOnUse" id="color-1"><stop offset="0" stop-color="#ff0000" stop-opacity="0"/><stop offset="1" stop-color="#ff0000"/></linearGradient><linearGradient x1="263.57049" y1="168.42862" x2="247.83488" y2="158.36672" gradientUnits="userSpaceOnUse" id="color-2"><stop offset="0" stop-color="#ff7b00" stop-opacity="0"/><stop offset="1" stop-color="#ff7b00"/></linearGradient><linearGradient x1="262.41894" y1="164.46588" x2="250.54039" y2="157.65279" gradientUnits="userSpaceOnUse" id="color-3"><stop offset="0" stop-color="#ffde00" stop-opacity="0"/><stop offset="1" stop-color="#ffde00"/></linearGradient></defs><g transform="translate(-247.18174,-144.14095)"><g data-paper-data="{&quot;isPaintingLayer&quot;:true}" fill-rule="nonzero" stroke="#000000" stroke-width="0" stroke-linecap="butt" stroke-linejoin="miter" stroke-miterlimit="10" stroke-dasharray="" stroke-dashoffset="0" style="mix-blend-mode: normal"><path d="M253.44888,146.59348c4.78746,-4.95591 8.45158,-1.72992 10.95346,3.71948c2.50187,5.4494 1.9203,12.73115 0.24035,20.66207c-2.50256,11.8145 -17.46095,15.01786 -17.46095,15.01786c0,0 8.56582,-9.29876 6.99815,-20.41755c-1.40462,-9.96235 -5.51851,-14.02595 -0.73102,-18.98187z" data-paper-data="{&quot;index&quot;:null}" fill="url(#color-1)"/><path d="M254.13843,147.61604c3.60637,-4.63062 6.53308,-2.16188 8.60852,2.30506c2.07543,4.46693 1.79585,10.75161 0.6773,17.68077c-1.66627,10.3222 -13.22575,14.26979 -13.22575,14.26979c0,0 6.44232,-8.6549 4.95903,-18.05367c-1.32902,-8.42121 -4.62548,-11.57131 -1.01911,-16.20195z" data-paper-data="{&quot;index&quot;:null}" fill="url(#color-2)"/><path d="M254.81067,148.96289c2.49329,-3.79737 4.72235,-2.06874 6.39275,1.25551c1.6704,3.32424 1.67282,8.19644 1.08089,13.61772c-0.88174,8.07595 -8.23307,13.62687 -8.23307,13.62687c0,0 3.44107,-8.87527 2.04227,-16.04567c-1.25331,-6.42461 -3.77617,-8.65704 -1.28286,-12.45442z" data-paper-data="{&quot;index&quot;:null}" fill="url(#color-3)"/></g></g></svg>