<svg version="1.1" xmlns="http://www.w3.org/2000/svg" xmlns:xlink="http://www.w3.org/1999/xlink" width="126.6616" height="108.52628" viewBox="0,0,126.6616,108.52628"><defs><radialGradient cx="260.13345" cy="158.17396" r="18.84183" gradientUnits="userSpaceOnUse" id="color-1"><stop offset="0" stop-color="#ffffff"/><stop offset="1" stop-color="#0debff"/></radialGradient></defs><g transform="translate(-179.05534,-112.48342)"><g data-paper-data="{&quot;isPaintingLayer&quot;:true}" fill-rule="nonzero" stroke-linejoin="miter" stroke-miterlimit="10" stroke-dasharray="" stroke-dashoffset="0" style="mix-blend-mode: normal"><g fill="#76f4ff" stroke="#53acb4" stroke-width="1" stroke-linecap="butt"><path d="M305.36165,112.89732l-55.81499,56.36735l-32.11878,16.6462l22.26678,-28.51145z" data-paper-data="{&quot;index&quot;:null}"/><path d="M201.44684,191.64066l20.84108,-13.654l3.58865,4.32198l-17.61131,17.54378z"/><path d="M243.38042,190.08335l-16.25131,-1.82269l-10.80517,-12.93614l1.59387,-15.90703l9.87741,17.70259z"/></g><path d="M201.09008,195.60831c0,-2.11232 1.71238,-3.8247 3.8247,-3.8247c2.11232,0 3.8247,1.71238 3.8247,3.8247c0,2.11232 -1.71238,3.8247 -3.8247,3.8247c-2.11232,0 -3.8247,-1.71238 -3.8247,-3.8247z" fill="#0debff" stroke="#000000" stroke-width="2" stroke-linecap="butt"/><path d="M227.61723,197.13621l22.62669,-11.89985l3.65429,6.94835l-22.62669,11.89985z" data-paper-data="{&quot;index&quot;:null}" fill="#0debff" stroke="#000000" stroke-width="2" stroke-linecap="butt"/><path d="M263.42648,202.37555c0,-2.11232 1.71238,-3.8247 3.8247,-3.8247c2.11232,0 3.8247,1.71238 3.8247,3.8247c0,2.11232 -1.71238,3.8247 -3.8247,3.8247c-2.11232,0 -3.8247,-1.71238 -3.8247,-3.8247z" fill="#0debff" stroke="#000000" stroke-width="2" stroke-linecap="butt"/><path d="M278.67802,207.86017c4.87397,-0.8485 6.70298,1.53178 7.26548,4.76283c0.56248,3.23107 -2.93267,6.5382 -7.80665,7.3867c-4.87397,0.8485 -8.97038,0.70191 -9.53287,-2.52917c-0.21724,-1.2479 2.027,-8.21949 10.07405,-9.62038z" data-paper-data="{&quot;index&quot;:null}" fill="#0debff" stroke="#000000" stroke-width="2" stroke-linecap="butt"/><path d="M260.23758,173.46974c3.96081,-8.27262 13.87796,-11.76803 22.15058,-7.80723c8.27262,3.96081 11.76803,13.87796 7.80723,22.15058c-3.96081,8.27262 -13.87796,11.76803 -22.15058,7.80723c-8.27262,-3.96081 -11.76803,-13.87796 -7.80723,-22.15058z" fill="#0debff" stroke="#000000" stroke-width="2" stroke-linecap="butt"/><path d="M249.6104,171.78957c0,0 2.49209,-1.7804 4.39101,-2.51877c1.50435,-0.58495 6.09701,-1.55941 6.09701,-1.55941" fill="none" stroke="#000000" stroke-width="2" stroke-linecap="round"/><path d="M240.05324,175.3802c-0.53818,-2.78341 1.28193,-5.47609 4.06534,-6.01427c2.78341,-0.53818 5.47609,1.28193 6.01427,4.06534c0.53818,2.78341 -1.28193,5.47609 -4.06534,6.01427c-2.78341,0.53818 -5.47609,-1.28193 -6.01427,-4.06534z" fill="#0debff" stroke="#000000" stroke-width="2" stroke-linecap="butt"/><path d="M256.12636,177.52537l0.90622,-20.78712l29.71843,-4.23864l6.68147,19.70491z" fill="url(#color-1)" stroke="#000000" stroke-width="2" stroke-linecap="butt"/><path d="M187.88405,217.97694c-4.72007,1.48207 -6.84621,-0.637 -7.82871,-3.76604c-0.9825,-3.12904 2.0474,-6.86709 6.76747,-8.34916c4.72007,-1.48207 8.80018,-1.87545 9.78268,1.25359c0.37946,1.20849 -0.9285,8.41467 -8.72145,10.8616z" data-paper-data="{&quot;index&quot;:null}" fill="#0debff" stroke="#000000" stroke-width="2" stroke-linecap="butt"/></g></g></svg>