<svg version="1.1" xmlns="http://www.w3.org/2000/svg" xmlns:xlink="http://www.w3.org/1999/xlink" width="104.36531" height="73.64685" viewBox="0,0,104.36531,73.64685"><g transform="translate(-191.09092,-147.41839)"><g data-paper-data="{&quot;isPaintingLayer&quot;:true}" fill-rule="nonzero" stroke="#000000" stroke-width="2" stroke-linejoin="miter" stroke-miterlimit="10" stroke-dasharray="" stroke-dashoffset="0" style="mix-blend-mode: normal"><path d="M264.48026,191.72912c0,-2.11232 1.71238,-3.8247 3.8247,-3.8247c2.11232,0 3.8247,1.71238 3.8247,3.8247c0,2.11232 -1.71238,3.8247 -3.8247,3.8247c-2.11232,0 -3.8247,-1.71238 -3.8247,-3.8247z" fill="#181818" stroke-linecap="butt"/><path d="M242.63524,153.10106c0,0 3.00193,-0.60728 5.03682,-0.5057c1.61207,0.08048 6.2022,1.06677 6.2022,1.06677" fill="#181818" stroke-linecap="round"/><path d="M232.07207,152.50268c0.64558,-2.76047 3.40672,-4.47496 6.1672,-3.82937c2.76047,0.64558 4.47496,3.40672 3.82937,6.1672c-0.64558,2.76047 -3.40672,4.47496 -6.1672,3.82937c-2.76047,-0.64558 -4.47496,-3.40672 -3.82937,-6.1672z" fill="#181818" stroke-linecap="butt"/><path d="M252.18418,166.60357c0,-9.17193 7.43532,-16.60724 16.60724,-16.60724c9.17193,0 16.60724,7.43532 16.60724,16.60724c0,9.17193 -7.43532,16.60724 -16.60724,16.60724c-9.17193,0 -16.60724,-7.43532 -16.60724,-16.60724z" fill="#181818" stroke-linecap="butt"/><path d="M231.45249,197.26624l18.07725,-18.07725l5.55128,5.55128l-18.07725,18.07725z" fill="#181818" stroke-linecap="butt"/><path d="M273.07424,201.38841c3.4701,-3.52619 6.34263,-2.65469 8.68021,-0.35428c2.33759,2.3004 1.41951,7.02379 -2.05059,10.54998c-3.4701,3.52619 -6.88687,5.79064 -9.22445,3.49024c-0.90282,-0.88845 -3.13438,-7.86412 2.59483,-13.68594z" data-paper-data="{&quot;index&quot;:null}" fill="#181818" stroke-linecap="butt"/><path d="M267.61514,170.23657v-5.24474h19.39678v5.24474z" fill="#ff0000" stroke-linecap="butt"/><path d="M249.17381,176.5194l9.98511,10.41216l-5.63835,0.34035l-0.07546,5.90325l-12.90703,-11.19883l6.67627,-0.58358z" fill="#0e0e0e" stroke-linecap="round"/><g><path d="M254.07168,160.4813v-12.06291h29.6328v12.06291z" fill="#343434" stroke-linecap="butt"/><path d="M294.45622,160.4813h-51.13626" fill="none" stroke-linecap="round"/></g><path d="M233.99165,192.43673c0,-2.11232 1.71238,-3.8247 3.8247,-3.8247c2.11232,0 3.8247,1.71238 3.8247,3.8247c0,2.11232 -1.71238,3.8247 -3.8247,3.8247c-2.11232,0 -3.8247,-1.71238 -3.8247,-3.8247z" fill="#181818" stroke-linecap="butt"/><path d="M202.68031,216.62041c-2.58801,4.21636 -5.58297,4.01333 -8.37809,2.29767c-2.79511,-1.71566 -2.96301,-6.52451 -0.37498,-10.74088c2.58802,-4.21637 5.40788,-7.19134 8.203,-5.47568c1.07953,0.66261 4.82295,6.95756 0.55008,13.91889z" data-paper-data="{&quot;index&quot;:null}" fill="#181818" stroke-linecap="butt"/></g></g></svg>