<svg version="1.1" xmlns="http://www.w3.org/2000/svg" xmlns:xlink="http://www.w3.org/1999/xlink" width="74.87482" height="104.87646" viewBox="0,0,74.87482,104.87646"><g transform="translate(-198.28784,-122.28389)"><g data-paper-data="{&quot;isPaintingLayer&quot;:true}" fill-rule="nonzero" stroke="#000000" stroke-width="2" stroke-linejoin="miter" stroke-miterlimit="10" stroke-dasharray="" stroke-dashoffset="0" style="mix-blend-mode: normal"><path d="M219.01001,158.35727c1.2701,-9.08356 9.66341,-15.41762 18.74696,-14.14752c9.08356,1.2701 15.41763,9.66341 14.14753,18.74696c-1.2701,9.08356 -9.66341,15.41762 -18.74696,14.14752c-9.08356,-1.2701 -15.41763,-9.66341 -14.14753,-18.74696z" fill="#1d28e8" stroke-linecap="butt"/><path d="M233.9123,206.94414l-3.22571,-25.36077l7.78795,-0.99058l3.22572,25.36077z" fill="#1d28e8" stroke-linecap="butt"/><path d="M223.66363,209.5151c0,-2.11232 1.71238,-3.8247 3.8247,-3.8247c2.11232,0 3.8247,1.71238 3.8247,3.8247c0,2.11232 -1.71238,3.8247 -3.8247,3.8247c-2.11232,0 -3.8247,-1.71238 -3.8247,-3.8247z" fill="#1d28e8" stroke-linecap="butt"/><path d="M229.28716,214.68625c4.11347,0 7.4481,2.47844 7.4481,5.53575c0,3.05731 -3.33463,5.53575 -7.4481,5.53575c-4.11347,0 -7.4481,-2.47844 -7.4481,-5.53575c0,-3.05731 3.33463,-5.53575 7.4481,-5.53575z" data-paper-data="{&quot;index&quot;:null}" fill="#1d28e8" stroke-linecap="butt"/><path d="M209.09145,160.61638c0,0 2.59701,-1.62353 4.5378,-2.24356c1.53752,-0.49119 6.18147,-1.18096 6.18147,-1.18096" fill="none" stroke-linecap="round"/><path d="M199.33131,163.61162c-0.36574,-2.81127 1.61675,-5.38675 4.42802,-5.75249c2.81127,-0.36574 5.38675,1.61674 5.75249,4.42801c0.36574,2.81127 -1.61675,5.38675 -4.42802,5.75249c-2.81127,0.36574 -5.38675,-1.61674 -5.75249,-4.42801z" fill="#1d28e8" stroke-linecap="butt"/><path d="M255.3555,214.28365c4.94728,0 6.34095,2.65869 6.34095,5.93835c0,3.27966 -4.01056,5.93835 -8.95785,5.93835c-4.94728,0 -8.95785,-0.84699 -8.95785,-4.12665c0,-1.26666 3.40667,-7.75005 11.57475,-7.75005z" data-paper-data="{&quot;index&quot;:null}" fill="#1d28e8" stroke-linecap="butt"/><path d="M218.92475,157.53241l-8.12709,-21.56332l39.16033,-12.31405l-0.55257,28.50096l20.50697,-3.53908z" fill="#2530ff" stroke-linecap="round"/><path d="M264.51325,150.70872c0,-2.11232 1.71238,-3.8247 3.8247,-3.8247c2.11232,0 3.8247,1.71238 3.8247,3.8247c0,2.11232 -1.71238,3.8247 -3.8247,3.8247c-2.11232,0 -3.8247,-1.71238 -3.8247,-3.8247z" fill="#1d28e8" stroke-linecap="butt"/></g></g></svg>