<svg version="1.1" xmlns="http://www.w3.org/2000/svg" xmlns:xlink="http://www.w3.org/1999/xlink" width="164.18102" height="134.9383" viewBox="0,0,164.18102,134.9383"><defs><radialGradient cx="257.95284" cy="151.87597" r="18.84183" gradientUnits="userSpaceOnUse" id="color-1"><stop offset="0" stop-color="#ffffff"/><stop offset="1" stop-color="#0debff"/></radialGradient></defs><g transform="translate(-214.43525,-92.74767)"><g data-paper-data="{&quot;isPaintingLayer&quot;:true}" fill-rule="nonzero" stroke-linejoin="miter" stroke-miterlimit="10" stroke-dasharray="" stroke-dashoffset="0" style="mix-blend-mode: normal"><g stroke-linecap="butt"><path d="M264.03014,165.74194c0,-2.11232 1.71238,-3.8247 3.8247,-3.8247c2.11232,0 3.8247,1.71238 3.8247,3.8247c0,2.11232 -1.71238,3.8247 -3.8247,3.8247c-2.11232,0 -3.8247,-1.71238 -3.8247,-3.8247z" fill="#0debff" stroke="#000000" stroke-width="2"/><g data-paper-data="{&quot;index&quot;:null}" fill="#76f4ff" stroke="#53acb4" stroke-width="1"><path d="M316.52108,142.94609l-33.78227,12.94103l25.32236,-25.83584l70.24149,-36.86088z" data-paper-data="{&quot;index&quot;:null}"/><path d="M266.72521,160.56528l21.93209,-11.70154l3.08156,4.697l-19.15868,15.92882z"/><path d="M294.18026,148.54867l14.0339,14.62856l-15.67642,-3.13436l-9.20472,-14.11979l3.01639,-16.07261z"/></g></g><path d="M244.06341,207.10781l13.03909,-21.9899l6.75281,4.00412l-13.03909,21.9899z" data-paper-data="{&quot;index&quot;:null}" fill="#0debff" stroke="#000000" stroke-width="2" stroke-linecap="butt"/><path d="M218.21496,187.10772c0,-2.11232 1.71238,-3.8247 3.8247,-3.8247c2.11232,0 3.8247,1.71238 3.8247,3.8247c0,2.11232 -1.71238,3.8247 -3.8247,3.8247c-2.11232,0 -3.8247,-1.71238 -3.8247,-3.8247z" fill="#0debff" stroke="#000000" stroke-width="2" stroke-linecap="butt"/><path d="M222.88335,215.61447c4.11347,0 7.4481,2.47844 7.4481,5.53575c0,3.05731 -3.33463,5.53575 -7.4481,5.53575c-4.11347,0 -7.4481,-2.47844 -7.4481,-5.53575c0,-3.05731 3.33463,-5.53575 7.4481,-5.53575z" data-paper-data="{&quot;index&quot;:null}" fill="#0debff" stroke="#000000" stroke-width="2" stroke-linecap="butt"/><path d="M276.91764,214.19453c4.91629,0.55282 6.00415,3.35059 5.63768,6.60971c-0.36648,3.25912 -4.64901,5.45301 -9.56532,4.9002c-4.91629,-0.55282 -8.8071,-1.84265 -8.44063,-5.10177c0.14154,-1.25873 4.25134,-7.32085 12.36827,-6.40812z" data-paper-data="{&quot;index&quot;:null}" fill="#0debff" stroke="#000000" stroke-width="2" stroke-linecap="butt"/><path d="M259.20359,167.12089c3.32936,-8.54632 12.95649,-12.77551 21.50282,-9.44615c8.54632,3.32936 12.77551,12.95649 9.44615,21.50282c-3.32936,8.54632 -12.95649,12.77551 -21.50282,9.44615c-8.54632,-3.32936 -12.77551,-12.95649 -9.44615,-21.50282z" fill="#0debff" stroke="#000000" stroke-width="2" stroke-linecap="butt"/><path d="M250.08999,170.79654c0,0 2.35158,-1.96225 4.18978,-2.84092c1.45625,-0.6961 5.96292,-2.01219 5.96292,-2.01219" fill="none" stroke="#000000" stroke-width="2" stroke-linecap="round"/><path d="M240.82897,175.09368c-0.74537,-2.73522 0.86771,-5.5568 3.60294,-6.30217c2.73522,-0.74537 5.5568,0.86771 6.30217,3.60294c0.74537,2.73522 -0.86771,5.5568 -3.60294,6.30217c-2.73522,0.74537 -5.5568,-0.86771 -6.30217,-3.60294z" fill="#0debff" stroke="#000000" stroke-width="2" stroke-linecap="butt"/><path d="M255.40804,171.47337l-0.655,-20.79655l29.31695,-6.45506l8.14018,19.14844z" fill="url(#color-1)" stroke="#000000" stroke-width="2" stroke-linecap="butt"/></g></g></svg>