<svg version="1.1" xmlns="http://www.w3.org/2000/svg" xmlns:xlink="http://www.w3.org/1999/xlink" width="67.13225" height="89.55441" viewBox="0,0,67.13225,89.55441"><defs><linearGradient x1="206.04888" y1="176.80147" x2="235.91581" y2="181.018" gradientUnits="userSpaceOnUse" id="color-1"><stop offset="0" stop-color="#e80000" stop-opacity="0"/><stop offset="1" stop-color="#e80000"/></linearGradient><linearGradient x1="273.4053" y1="177.68382" x2="243.53837" y2="181.90035" gradientUnits="userSpaceOnUse" id="color-2"><stop offset="0" stop-color="#e80000" stop-opacity="0"/><stop offset="1" stop-color="#e80000"/></linearGradient></defs><g transform="translate(-206.16097,-142.47636)"><g data-paper-data="{&quot;isPaintingLayer&quot;:true}" fill-rule="nonzero" stroke="#000000" stroke-linejoin="miter" stroke-miterlimit="10" stroke-dasharray="" stroke-dashoffset="0" style="mix-blend-mode: normal"><path d="M216.58465,160.48388c0,0 2.10697,-2.22284 3.83029,-3.3097c1.36524,-0.86102 5.68789,-2.69317 5.68789,-2.69317" fill="none" stroke-width="2" stroke-linecap="round"/><path d="M207.88733,165.8307c-1.05895,-2.62976 0.21443,-5.62005 2.84419,-6.679c2.62976,-1.05895 5.62005,0.21443 6.679,2.84419c1.05895,2.62976 -0.21443,5.62005 -2.84419,6.679c-2.62976,1.05895 -5.62005,-0.21443 -6.679,-2.84419z" fill="#e80000" stroke-width="2" stroke-linecap="butt"/><path d="M225.52143,160.0836c0,-9.17193 7.43532,-16.60724 16.60724,-16.60724c9.17193,0 16.60724,7.43532 16.60724,16.60724c0,9.17193 -7.43532,16.60724 -16.60724,16.60724c-9.17193,0 -16.60724,-7.43532 -16.60724,-16.60724z" fill="#e80000" stroke-width="2" stroke-linecap="butt"/><path d="M236.30589,205.17984l0.93984,-25.54781l7.84539,0.28862l-0.93984,25.54781z" fill="#e80000" stroke-width="2" stroke-linecap="butt"/><path d="M222.24538,195.87396c0,-2.11232 1.71238,-3.8247 3.8247,-3.8247c2.11232,0 3.8247,1.71238 3.8247,3.8247c0,2.11232 -1.71238,3.8247 -3.8247,3.8247c-2.11232,0 -3.8247,-1.71238 -3.8247,-3.8247z" fill="#e80000" stroke-width="2" stroke-linecap="butt"/><path d="M250.26771,195.84497c0,-2.11232 1.71238,-3.8247 3.8247,-3.8247c2.11232,0 3.8247,1.71238 3.8247,3.8247c0,2.11232 -1.71238,3.8247 -3.8247,3.8247c-2.11232,0 -3.8247,-1.71238 -3.8247,-3.8247z" fill="#e80000" stroke-width="2" stroke-linecap="butt"/><path d="M260.36201,220.22801c4.43311,2.19616 4.50171,5.1972 3.04582,8.13601c-1.45588,2.9388 -6.22985,3.54083 -10.66297,1.34467c-4.43311,-2.19616 -7.65087,-4.73547 -6.19498,-7.67427c0.56229,-1.13502 6.49296,-5.43232 13.81213,-1.8064z" data-paper-data="{&quot;index&quot;:null}" fill="#e80000" stroke-width="2" stroke-linecap="butt"/><path d="M225.39658,156.2139l-0.06673,-5.59961l33.39762,-0.39799l0.06673,5.5996z" fill="#ff2121" stroke-width="2" stroke-linecap="butt"/><path d="M236.22713,212.70862c4.9471,0.04198 6.31817,2.7124 6.29034,5.99194c-0.02783,3.27955 -4.0608,5.90411 -9.00792,5.86212c-4.9471,-0.04198 -8.95034,-0.92297 -8.92251,-4.20251c0.01075,-1.26662 3.47231,-7.72086 11.64009,-7.65155z" data-paper-data="{&quot;index&quot;:null}" fill="#e80000" stroke-width="2" stroke-linecap="butt"/><path d="M232.9759,198.95479c-2.60998,8.24374 -8.52971,6.66642 -14.38593,1.94141c-5.85624,-4.72501 -9.27173,-13.23191 -11.81584,-23.08199c-3.7899,-14.6734 11.22762,-26.63138 11.22762,-26.63138c0,0 -4.42867,15.23478 3.54589,26.85206c7.14512,10.409 14.03827,12.67614 11.42828,20.9199z" data-paper-data="{&quot;index&quot;:null}" fill="url(#color-1)" stroke-width="0" stroke-linecap="butt"/><path d="M246.47826,199.83714c-2.60999,-8.24376 4.28316,-10.5109 11.42828,-20.9199c7.97456,-11.61728 3.54589,-26.85206 3.54589,-26.85206c0,0 15.01752,11.95798 11.22762,26.63138c-2.54411,9.85008 -5.9596,18.35698 -11.81584,23.08199c-5.85622,4.72501 -11.77595,6.30233 -14.38593,-1.94141z" data-paper-data="{&quot;index&quot;:null}" fill="url(#color-2)" stroke-width="0" stroke-linecap="butt"/></g></g></svg>