<svg version="1.1" xmlns="http://www.w3.org/2000/svg" xmlns:xlink="http://www.w3.org/1999/xlink" width="71.34929" height="101.48081" viewBox="0,0,71.34929,101.48081"><g transform="translate(-202.67813,-120.39512)"><g data-paper-data="{&quot;isPaintingLayer&quot;:true}" fill-rule="nonzero" stroke="#000000" stroke-width="2" stroke-linejoin="miter" stroke-miterlimit="10" stroke-dasharray="" stroke-dashoffset="0" style="mix-blend-mode: normal"><path d="M214.23236,200.8821c0,-2.11232 1.71238,-3.8247 3.8247,-3.8247c2.11232,0 3.8247,1.71238 3.8247,3.8247c0,2.11232 -1.71238,3.8247 -3.8247,3.8247c-2.11232,0 -3.8247,-1.71238 -3.8247,-3.8247z" fill="#1d28e8" stroke-linecap="butt"/><path d="M224.65728,160.5487c0,-9.17193 7.43532,-16.60724 16.60724,-16.60724c9.17193,0 16.60724,7.43532 16.60724,16.60724c0,9.17193 -7.43532,16.60724 -16.60724,16.60724c-9.17193,0 -16.60724,-7.43532 -16.60724,-16.60724z" fill="#1d28e8" stroke-linecap="butt"/><path d="M227.78186,206.35085l5.15205,-25.04057l7.68963,1.58213l-5.15205,25.04057z" fill="#1d28e8" stroke-linecap="butt"/><path d="M208.87527,188.7545c0,-2.11232 1.71238,-3.8247 3.8247,-3.8247c2.11232,0 3.8247,1.71238 3.8247,3.8247c0,2.11232 -1.71238,3.8247 -3.8247,3.8247c-2.11232,0 -3.8247,-1.71238 -3.8247,-3.8247z" fill="#1d28e8" stroke-linecap="butt"/><path d="M215.14711,164.15953c0,0 2.34717,-1.96752 4.1834,-2.85033c1.45469,-0.69937 5.95838,-2.02557 5.95838,-2.02557" fill="none" stroke-linecap="round"/><path d="M205.89577,168.47747c-0.75151,-2.73354 0.85523,-5.55873 3.58877,-6.31024c2.73354,-0.75151 5.55873,0.85523 6.31024,3.58877c0.75151,2.73354 -0.85523,5.55873 -3.58877,6.31024c-2.73354,0.75151 -5.55873,-0.85523 -6.31024,-3.58877z" fill="#1d28e8" stroke-linecap="butt"/><path d="M210.58916,220.69646c-4.92172,0.50223 -6.57809,-2.00125 -6.91103,-5.26397c-0.33294,-3.26271 3.38701,-6.31481 8.30874,-6.81703c4.92172,-0.50223 8.99756,-0.06675 9.33049,3.19598c0.12858,1.26012 -2.60232,8.05585 -10.72821,8.88503z" data-paper-data="{&quot;index&quot;:null}" fill="#1d28e8" stroke-linecap="butt"/><path d="M224.45861,159.74361l-11.03481,-20.23016l37.07784,-17.61821l3.39948,28.30289l19.81931,-6.34473z" fill="#2530ff" stroke-linecap="round"/><path d="M249.97837,208.79405c4.90555,0.64115 5.94291,3.45803 5.51788,6.71003c-0.42504,3.252 -4.74632,5.36852 -9.65189,4.72737c-4.90555,-0.64115 -8.77254,-2.00075 -8.34751,-5.25276c0.16415,-1.25598 4.38232,-7.24319 12.48152,-6.18464z" data-paper-data="{&quot;index&quot;:null}" fill="#1d28e8" stroke-linecap="butt"/></g></g></svg>