<svg version="1.1" xmlns="http://www.w3.org/2000/svg" xmlns:xlink="http://www.w3.org/1999/xlink" width="74.53123" height="96.24761" viewBox="0,0,74.53123,96.24761"><g transform="translate(-217.17296,-122.34206)"><g data-paper-data="{&quot;isPaintingLayer&quot;:true}" fill-rule="nonzero" stroke="#000000" stroke-width="2" stroke-linejoin="miter" stroke-miterlimit="10" stroke-dasharray="" stroke-dashoffset="0" style="mix-blend-mode: normal"><path d="M252.81907,188.17478c0,-2.11232 1.71238,-3.8247 3.8247,-3.8247c2.11232,0 3.8247,1.71238 3.8247,3.8247c0,2.11232 -1.71238,3.8247 -3.8247,3.8247c-2.11232,0 -3.8247,-1.71238 -3.8247,-3.8247z" fill="#ffe819" stroke-linecap="butt"/><path d="M231.63232,195.75097l8.70977,-24.03568l7.38104,2.67466l-8.70977,24.03568z" fill="#ffe819" stroke-linecap="butt"/><path d="M218.17296,167.91472c0,-2.11232 1.71238,-3.8247 3.8247,-3.8247c2.11232,0 3.8247,1.71238 3.8247,3.8247c0,2.11232 -1.71238,3.8247 -3.8247,3.8247c-2.11232,0 -3.8247,-1.71238 -3.8247,-3.8247z" fill="#ffe819" stroke-linecap="butt"/><path d="M283.76214,205.50062c4.91866,-0.53134 6.58981,1.96229 6.94205,5.22298c0.35224,3.26069 -3.34959,6.33474 -8.26826,6.86607c-4.91866,0.53134 -8.997,0.11999 -9.34924,-3.1407c-0.13603,-1.25933 2.55461,-8.07109 10.67544,-8.94834z" data-paper-data="{&quot;index&quot;:null}" fill="#ffe819" stroke-linecap="butt"/><path d="M246.99829,205.69532c-3.67147,3.74058 -8.5315,4.924 -10.8552,2.64323c-2.32369,-2.28076 -1.23111,-7.16202 2.44036,-10.90261c3.67147,-3.74058 7.52426,-3.8978 9.84796,-1.61704c2.32369,2.28076 2.23835,6.13582 -1.43312,9.8764z" fill="#ffe819" stroke-linecap="butt"/><path d="M246.00952,160.33241c1.88223,-8.97672 10.68514,-14.72794 19.66185,-12.84572c8.97672,1.88223 14.72794,10.68514 12.84571,19.66185c-1.88223,8.97672 -10.68514,14.72793 -19.66185,12.84571c-8.97672,-1.88223 -14.72793,-10.68514 -12.84571,-19.66184z" fill="#ffe819" stroke-linecap="butt"/><path d="M249.3961,141.5105c0,0 2.01713,-4.23948 2.9363,-5.56627c1.16026,-1.67478 3.47202,-3.68379 3.47202,-3.68379" data-paper-data="{&quot;index&quot;:null}" fill="none" stroke-linecap="round"/><path d="M264.07494,130.59773c-1.17154,2.58157 -4.21404,3.72463 -6.7956,2.55309c-2.58157,-1.17154 -3.72463,-4.21404 -2.55309,-6.79561c1.17154,-2.58157 4.21404,-3.72463 6.7956,-2.55309c2.58157,1.17154 3.72463,4.21404 2.55309,6.79561z" data-paper-data="{&quot;index&quot;:null}" fill="#ffe819" stroke-linecap="butt"/><path d="M241.87252,161.07232c0,0 -2.01996,-9.36314 2.04915,-14.81227c9.85533,-13.19772 24.07905,-12.41167 24.07905,-12.41167c0,0 -15.06344,7.16442 -4.55151,8.65885c2.1368,0.30378 -7.81643,-0.11762 -5.84729,-0.18034c20.10294,-0.64037 22.69561,11.77471 22.69561,11.77471z" data-paper-data="{&quot;index&quot;:null}" fill="#fff067" stroke-linecap="butt"/></g></g></svg>