<svg version="1.1" xmlns="http://www.w3.org/2000/svg" xmlns:xlink="http://www.w3.org/1999/xlink" width="65.45563" height="90.31177" viewBox="0,0,65.45563,90.31177"><g transform="translate(-193.52772,-138.61784)"><g data-paper-data="{&quot;isPaintingLayer&quot;:true}" fill-rule="nonzero" stroke="#000000" stroke-width="2" stroke-linejoin="miter" stroke-miterlimit="10" stroke-dasharray="" stroke-dashoffset="0" style="mix-blend-mode: normal"><path d="M221.05258,157.1916c1.55354,-9.0394 10.14081,-15.1079 19.18021,-13.55436c9.0394,1.55354 15.1079,10.14081 13.55436,19.18021c-1.55354,9.0394 -10.14081,15.10789 -19.1802,13.55435c-9.0394,-1.55354 -15.1079,-10.1408 -13.55436,-19.1802z" fill="#2d6a2b" stroke-linecap="butt"/><path d="M232.96941,140.58886c15.56856,-2.96013 24.20524,7.2719 24.20524,7.2719l-39.84654,9.60987c0,0 -1.09744,-13.69913 15.6413,-16.88176z" fill="#367e33" stroke-linecap="round"/><path d="M220.98335,202.35698l4.71585,-25.12637l7.71597,1.44818l-4.71585,25.12637z" fill="#2d6a2b" stroke-linecap="butt"/><path d="M209.77412,190.21957c0,-2.11232 1.71238,-3.8247 3.8247,-3.8247c2.11232,0 3.8247,1.71238 3.8247,3.8247c0,2.11232 -1.71238,3.8247 -3.8247,3.8247c-2.11232,0 -3.8247,-1.71238 -3.8247,-3.8247z" fill="#2d6a2b" stroke-linecap="butt"/><path d="M239.39419,183.48564c0,-2.11232 1.71238,-3.8247 3.8247,-3.8247c2.11232,0 3.8247,1.71238 3.8247,3.8247c0,2.11232 -1.71238,3.8247 -3.8247,3.8247c-2.11232,0 -3.8247,-1.71238 -3.8247,-3.8247z" fill="#2d6a2b" stroke-linecap="butt"/><path d="M229.66161,220.29863c1.24464,4.78815 -0.97791,6.80588 -4.15208,7.63098c-3.17418,0.8251 -6.75633,-2.3876 -8.00098,-7.17575c-1.24464,-4.78815 -1.43389,-8.88282 1.74029,-9.70792c1.22591,-0.31867 8.35784,1.34734 10.41276,9.2527z" data-paper-data="{&quot;index&quot;:null}" fill="#2d6a2b" stroke-linecap="butt"/><path d="M213.33886,143.90085c0,0 2.96048,-0.78481 4.99781,-0.80448c1.614,-0.01558 6.25468,0.69585 6.25468,0.69585" fill="none" stroke-linecap="round"/><path d="M203.12948,143.88238c0.48019,-2.794 3.13443,-4.66972 5.92843,-4.18954c2.794,0.48019 4.66972,3.13443 4.18953,5.92843c-0.48019,2.794 -3.13443,4.66972 -5.92843,4.18954c-2.794,-0.48019 -4.66971,-3.13443 -4.18953,-5.92843z" fill="#2d6a2b" stroke-linecap="butt"/><path d="M203.1657,213.98236c-3.95079,2.97772 -6.66399,1.69337 -8.63798,-0.92569c-1.97399,-2.61907 -0.37146,-7.15617 3.57933,-10.13388c3.95079,-2.97772 7.66336,-4.71524 9.63733,-2.09617c0.7624,1.01152 1.94417,8.23948 -4.57869,13.15575z" data-paper-data="{&quot;index&quot;:null}" fill="#2d6a2b" stroke-linecap="butt"/></g></g></svg>