<svg version="1.1" xmlns="http://www.w3.org/2000/svg" xmlns:xlink="http://www.w3.org/1999/xlink" width="92.78838" height="102.64951" viewBox="0,0,92.78838,102.64951"><g transform="translate(-222.70719,-116.08629)"><g data-paper-data="{&quot;isPaintingLayer&quot;:true}" fill-rule="nonzero" stroke="#000000" stroke-width="2" stroke-linejoin="miter" stroke-miterlimit="10" stroke-dasharray="" stroke-dashoffset="0" style="mix-blend-mode: normal"><path d="M250.3968,202.58601l-1.76396,-25.50415l7.83199,-0.5417l1.76395,25.50416z" data-paper-data="{&quot;index&quot;:null}" fill="#ff6b00" stroke-linecap="butt"/><path d="M228.08274,148.11222c0.9299,-2.67811 3.85477,-4.09533 6.53289,-3.16542c2.67811,0.9299 4.09532,3.85477 3.16542,6.53288c-0.9299,2.67811 -3.85477,4.09533 -6.53289,3.16542c-2.67811,-0.9299 -4.09532,-3.85477 -3.16542,-6.53288z" fill="#ff6b00" stroke-linecap="butt"/><path d="M300.58617,180.07345c-1.80859,-5.10199 0.42378,-7.5112 3.80598,-8.71015c3.38222,-1.19894 7.5902,1.96508 9.3988,7.06709c0.8321,2.34733 3.60302,18.15135 -12.77418,25.73289c-19.21912,8.89717 -58.24284,9.58506 -60.06897,10.2324c-0.73441,0.26034 31.40194,-6.22886 48.44878,-16.70146c4.61924,-2.8378 12.49679,-13.93315 11.18957,-17.62076z" data-paper-data="{&quot;index&quot;:null}" fill="#ff6b00" stroke-linecap="butt"/><path d="M244.10526,157.39096c4.21886,-8.14405 14.24097,-11.32604 22.38501,-7.10719c8.14405,4.21886 11.32604,14.24097 7.10719,22.38501c-4.21886,8.14405 -14.24097,11.32604 -22.38501,7.10719c-8.14405,-4.21886 -11.32604,-14.24097 -7.10719,-22.38501z" fill="#ff6b00" stroke-linecap="butt"/><path d="M237.56163,147.1865c0,0 3.06246,0.04163 5.02977,0.57147c1.55855,0.41975 5.83607,2.35491 5.83607,2.35491" fill="none" stroke-linecap="round"/><path d="M238.51204,158.27274l9.35843,-8.87328l-13.80384,-31.24703l47.38116,-1.03429l-11.6745,31.5374l9.78909,8.35233z" data-paper-data="{&quot;index&quot;:null}" fill="#ffa340" stroke-linecap="butt"/><path d="M251.81358,191.5542c-1.22939,-1.7177 -0.83354,-4.1068 0.88416,-5.33619c1.7177,-1.22939 4.1068,-0.83354 5.33619,0.88416c1.22939,1.7177 0.83354,4.1068 -0.88416,5.33619c-1.7177,1.22939 -4.1068,0.83354 -5.33619,-0.88416z" fill="#ff6b00" stroke-linecap="butt"/><path d="M228.25644,184.8662c-1.22939,-1.7177 -0.83354,-4.1068 0.88416,-5.33619c1.7177,-1.22939 4.1068,-0.83354 5.33619,0.88416c1.22939,1.7177 0.83354,4.1068 -0.88416,5.33619c-1.7177,1.22939 -4.1068,0.83354 -5.33619,-0.88416z" fill="#ff6b00" stroke-linecap="butt"/><path d="M230.67639,217.65747c-4.91583,0.55699 -6.59997,-1.9279 -6.9692,-5.18672c-0.36923,-3.2588 3.3165,-6.35212 8.23234,-6.9091c4.91583,-0.55699 8.99626,-0.1669 9.36549,3.0919c0.14261,1.2586 -2.51249,8.08431 -10.62862,9.00392z" data-paper-data="{&quot;index&quot;:null}" fill="#ff6b00" stroke-linecap="butt"/></g></g></svg>