<svg version="1.1" xmlns="http://www.w3.org/2000/svg" xmlns:xlink="http://www.w3.org/1999/xlink" width="171.17594" height="99.45365" viewBox="0,0,171.17594,99.45365"><defs><radialGradient cx="227.39849" cy="141.47105" r="18.84183" gradientUnits="userSpaceOnUse" id="color-1"><stop offset="0" stop-color="#ffffff"/><stop offset="1" stop-color="#0debff"/></radialGradient></defs><g transform="translate(-210.63999,-128.23232)"><g data-paper-data="{&quot;isPaintingLayer&quot;:true}" fill-rule="nonzero" stroke-linejoin="miter" stroke-miterlimit="10" stroke-dasharray="" stroke-dashoffset="0" style="mix-blend-mode: normal"><g fill="#76f4ff" stroke="#53acb4" stroke-width="1" stroke-linecap="butt"><path d="M381.55893,143.98626l-68.04478,40.77376l-35.24252,8.1656l28.63894,-22.10256z" data-paper-data="{&quot;index&quot;:null}"/><path d="M261.36908,194.51546l23.57508,-8.06213l2.40539,5.07661l-21.41024,12.63108z"/><path d="M302.3801,203.40064l-15.2924,-5.79395l-7.26156,-15.21069l5.48694,-15.01558l5.18132,19.59844z"/></g><path d="M260.04,198.27087c0.52357,-2.0464 2.60696,-3.28091 4.65336,-2.75734c2.0464,0.52357 3.28091,2.60696 2.75734,4.65336c-0.52357,2.0464 -2.60696,3.28091 -4.65336,2.75734c-2.0464,-0.52357 -3.28091,-2.60696 -2.75734,-4.65336z" fill="#0debff" stroke="#000000" stroke-width="2" stroke-linecap="butt"/><path d="M238.48698,207.1821l3.42836,-25.33416l7.77978,1.0528l-3.42836,25.33416z" data-paper-data="{&quot;index&quot;:null}" fill="#0debff" stroke="#000000" stroke-width="2" stroke-linecap="butt"/><path d="M222.89077,194.12555c0,-2.11232 1.71238,-3.8247 3.8247,-3.8247c2.11232,0 3.8247,1.71238 3.8247,3.8247c0,2.11232 -1.71238,3.8247 -3.8247,3.8247c-2.11232,0 -3.8247,-1.71238 -3.8247,-3.8247z" fill="#0debff" stroke="#000000" stroke-width="2" stroke-linecap="butt"/><path d="M227.21668,215.61447c4.11347,0 7.4481,2.47844 7.4481,5.53575c0,3.05731 -3.33463,5.53575 -7.4481,5.53575c-4.11347,0 -7.4481,-2.47844 -7.4481,-5.53575c0,-3.05731 3.33463,-5.53575 7.4481,-5.53575z" data-paper-data="{&quot;index&quot;:null}" fill="#0debff" stroke="#000000" stroke-width="2" stroke-linecap="butt"/><path d="M262.7249,213.495c4.74209,-1.41001 6.83571,0.7412 7.77044,3.88484c0.93473,3.14364 -2.15175,6.8351 -6.89385,8.24512c-4.74209,1.41001 -8.82772,1.7412 -9.76245,-1.40244c-0.36101,-1.21413 1.05655,-8.39955 8.88587,-10.72751z" data-paper-data="{&quot;index&quot;:null}" fill="#0debff" stroke="#000000" stroke-width="2" stroke-linecap="butt"/><path d="M231.2325,156.27889c1.82205,-8.98913 10.58624,-14.79918 19.57536,-12.97714c8.98913,1.82205 14.79918,10.58624 12.97714,19.57536c-1.82205,8.98913 -10.58624,14.79918 -19.57536,12.97714c-8.98913,-1.82205 -14.79918,-10.58624 -12.97714,-19.57536z" fill="#0debff" stroke="#000000" stroke-width="2" stroke-linecap="butt"/><path d="M220.51662,157.24316c0,0 1.98221,-2.33477 3.64351,-3.51426c1.3161,-0.93441 5.53206,-3.00027 5.53206,-3.00027" fill="none" stroke="#000000" stroke-width="2" stroke-linecap="round"/><path d="M212.12478,163.0577c-1.20122,-2.5679 -0.09331,-5.62336 2.47459,-6.82458c2.5679,-1.20122 5.62336,-0.09331 6.82458,2.47459c1.20122,2.5679 0.09331,5.62336 -2.47459,6.82458c-2.5679,1.20122 -5.62336,0.09331 -6.82458,-2.47459z" fill="#0debff" stroke="#000000" stroke-width="2" stroke-linecap="butt"/><path d="M228.2354,161.21525l-4.19441,-20.37971l27.78531,-11.36344l11.28854,17.4784z" fill="url(#color-1)" stroke="#000000" stroke-width="2" stroke-linecap="butt"/></g></g></svg>