<svg version="1.1" xmlns="http://www.w3.org/2000/svg" xmlns:xlink="http://www.w3.org/1999/xlink" width="88.43139" height="99.97142" viewBox="0,0,88.43139,99.97142"><g transform="translate(-220.69861,-110.95326)"><g data-paper-data="{&quot;isPaintingLayer&quot;:true}" fill-rule="nonzero" stroke="#000000" stroke-width="2" stroke-linejoin="miter" stroke-miterlimit="10" stroke-dasharray="" stroke-dashoffset="0" style="mix-blend-mode: normal"><path d="M250.39679,197.453l-1.76396,-25.50415l7.83199,-0.5417l1.76395,25.50416z" data-paper-data="{&quot;index&quot;:null}" fill="#ff6b00" stroke-linecap="butt"/><path d="M228.08273,140.97064c0.9299,-2.67811 3.85477,-4.09533 6.53289,-3.16542c2.67811,0.9299 4.09532,3.85477 3.16542,6.53288c-0.9299,2.67811 -3.85477,4.09533 -6.53289,3.16542c-2.67811,-0.9299 -4.09532,-3.85477 -3.16542,-6.53288z" fill="#ff6b00" stroke-linecap="butt"/><path d="M294.72819,171.26783c-1.65296,-4.66297 0.38731,-6.86487 3.47848,-7.96065c3.09118,-1.09577 6.93707,1.79599 8.59004,6.45897c1.65296,4.66297 2.19464,8.72606 -0.89655,9.82184c-1.19386,0.42321 -8.44289,-0.62149 -11.17198,-8.32016z" data-paper-data="{&quot;index&quot;:null}" fill="#ff6b00" stroke-linecap="butt"/><path d="M244.10525,152.25795c4.21886,-8.14405 14.24097,-11.32604 22.38501,-7.10719c8.14405,4.21886 11.32604,14.24097 7.10719,22.38501c-4.21886,8.14405 -14.24097,11.32604 -22.38501,7.10719c-8.14405,-4.21886 -11.32604,-14.24097 -7.10719,-22.38501z" fill="#ff6b00" stroke-linecap="butt"/><path d="M237.56162,142.05349c0,0 3.06246,0.04163 5.02977,0.57147c1.55855,0.41975 5.83607,2.35491 5.83607,2.35491" fill="none" stroke-linecap="round"/><path d="M238.51203,153.13972l9.35843,-8.87328l-13.80384,-31.24703l47.38116,-1.03429l-11.6745,31.5374l9.78909,8.35233z" data-paper-data="{&quot;index&quot;:null}" fill="#ffa340" stroke-linecap="butt"/><path d="M250.02817,186.86753c-1.22939,-1.7177 -0.83354,-4.1068 0.88416,-5.33619c1.7177,-1.22939 4.1068,-0.83354 5.33619,0.88416c1.22939,1.7177 0.83354,4.1068 -0.88416,5.33619c-1.7177,1.22939 -4.1068,0.83354 -5.33619,-0.88416z" fill="#ff6b00" stroke-linecap="butt"/><path d="M227.36373,178.61731c-1.22939,-1.7177 -0.83354,-4.1068 0.88416,-5.33619c1.7177,-1.22939 4.1068,-0.83354 5.33619,0.88416c1.22939,1.7177 0.83354,4.1068 -0.88416,5.33619c-1.7177,1.22939 -4.1068,0.83354 -5.33619,-0.88416z" fill="#ff6b00" stroke-linecap="butt"/><path d="M228.66781,209.84636c-4.91583,0.55699 -6.59997,-1.9279 -6.9692,-5.18672c-0.36923,-3.2588 3.3165,-6.35212 8.23234,-6.9091c4.91583,-0.55699 8.99626,-0.1669 9.36549,3.0919c0.14261,1.2586 -2.51249,8.08431 -10.62862,9.00392z" data-paper-data="{&quot;index&quot;:null}" fill="#ff6b00" stroke-linecap="butt"/></g></g></svg>