<svg version="1.1" xmlns="http://www.w3.org/2000/svg" xmlns:xlink="http://www.w3.org/1999/xlink" width="113.16376" height="90.78746" viewBox="0,0,113.16376,90.78746"><g transform="translate(-190.31055,-134.8785)"><g data-paper-data="{&quot;isPaintingLayer&quot;:true}" fill-rule="nonzero" stroke="#000000" stroke-width="2" stroke-linejoin="miter" stroke-miterlimit="10" stroke-dasharray="" stroke-dashoffset="0" style="mix-blend-mode: normal"><path d="M235.17727,209.29841c-0.37652,-2.0785 1.00321,-4.06867 3.08171,-4.44519c2.0785,-0.37652 4.06867,1.00322 4.44519,3.08171c0.37652,2.0785 -1.00321,4.06867 -3.08171,4.44519c-2.0785,0.37652 -4.06867,-1.00322 -4.44519,-3.08171z" fill="#ffe819" stroke-linecap="butt"/><path d="M215.16536,160.31966c0,-9.17193 7.43532,-16.60724 16.60724,-16.60724c9.17193,0 16.60724,7.43532 16.60724,16.60724c0,9.17193 -7.43532,16.60724 -16.60724,16.60724c-9.17193,0 -16.60724,-7.43532 -16.60724,-16.60724z" fill="#ffe819" stroke-linecap="butt"/><path d="M243.22939,203.94535l-8.19941,-24.21453l7.43596,-2.51793l8.19941,24.21453z" fill="#ffe819" stroke-linecap="butt"/><path d="M223.54181,208.45703c-0.37652,-2.0785 1.00322,-4.06868 3.08171,-4.4452c2.0785,-0.37652 4.06868,1.00321 4.44519,3.08171c0.37652,2.0785 -1.00321,4.06868 -3.08171,4.4452c-2.0785,0.37652 -4.06868,-1.00321 -4.4452,-3.08171z" fill="#ffe819" stroke-linecap="butt"/><path d="M229.28552,213.59446c4.11347,0 7.4481,2.47844 7.4481,5.53575c0,3.05731 -3.33463,5.53575 -7.4481,5.53575c-4.11347,0 -7.4481,-2.47844 -7.4481,-5.53575c0,-3.05731 3.33463,-5.53575 7.4481,-5.53575z" data-paper-data="{&quot;index&quot;:null}" fill="#ffe819" stroke-linecap="butt"/><path d="M200.37618,155.11792c0,0 2.10397,-2.22568 3.82583,-3.31485c1.36408,-0.86285 5.68426,-2.70082 5.68426,-2.70082" fill="none" stroke-linecap="round"/><path d="M191.68605,160.47643c-1.06249,-2.62833 0.20687,-5.62033 2.8352,-6.68282c2.62833,-1.06249 5.62033,0.20687 6.68282,2.8352c1.06249,2.62833 -0.20687,5.62033 -2.8352,6.68282c-2.62833,1.06249 -5.62033,-0.20687 -6.68282,-2.8352z" fill="#ffe819" stroke-linecap="butt"/><path d="M292.36758,195.83718c3.30919,-3.67762 6.21777,-2.93524 8.65574,-0.74151c2.43797,2.19373 1.73171,6.9534 -1.57749,10.63102c-3.30919,3.67762 -6.62144,6.09237 -9.05941,3.89864c-0.94159,-0.84726 -3.4824,-7.71632 1.98115,-13.78816z" data-paper-data="{&quot;index&quot;:null}" fill="#ffe819" stroke-linecap="butt"/><path d="M210.63641,160.27257l4.89612,-10.31864l-11.5487,-1.5813c0,0 13.57292,-11.79955 24.16781,-12.49414c10.59489,-0.69459 18.66148,9.6863 18.66148,9.6863z" data-paper-data="{&quot;index&quot;:null}" fill="#fff067" stroke-linecap="butt"/></g></g></svg>