<svg version="1.1" xmlns="http://www.w3.org/2000/svg" xmlns:xlink="http://www.w3.org/1999/xlink" width="177.33333" height="82.44395" viewBox="0,0,177.33333,82.44395"><defs><linearGradient x1="187.33334" y1="180.27825" x2="318" y2="180.27825" gradientUnits="userSpaceOnUse" id="color-1"><stop offset="0" stop-color="#efb700"/><stop offset="1" stop-color="#2a0f00"/></linearGradient><linearGradient x1="183.29006" y1="185.34719" x2="290.33732" y2="184.69628" gradientTransform="translate(-169.59731,-144.19636) rotate(0.37433) scale(0.66222,0.70975) skewX(21.7939)" gradientUnits="userSpaceOnUse" id="color-2"><stop offset="0" stop-color="#ff3d00"/><stop offset="1" stop-color="#fff500"/></linearGradient><linearGradient x1="170.51859" y1="185.00238" x2="309.4664" y2="185.00235" gradientTransform="translate(-169.59731,-144.19636) rotate(0.37433) scale(0.66222,0.70975) skewX(21.7939)" gradientUnits="userSpaceOnUse" id="color-3"><stop offset="0" stop-color="#e02900"/><stop offset="1" stop-color="#e2db00"/></linearGradient></defs><g transform="translate(-145.66668,-138.19054)"><g data-paper-data="{&quot;isPaintingLayer&quot;:true}" fill-rule="nonzero" stroke-linejoin="miter" stroke-miterlimit="10" stroke-dasharray="" stroke-dashoffset="0" style="mix-blend-mode: normal"><path d="M310.81958,170.16559l8.57013,6.60951l-12.17766,14.1671c0,0 15.48812,4.07945 8.646,5.95478c-14.13388,3.87389 -57.12227,7.12414 -63.19139,7.12414c-9.57761,0 -38.91951,0.73034 -53.71101,-1.56987c-9.94485,-1.54651 -2.64925,-4.46697 -2.64925,-4.46697c0,0 -26.41067,-7.92056 -32.46087,-10.54044c-4.80711,-2.08159 11.21924,-1.97415 11.21924,-1.97415l-29.39809,-10.909l39.91728,-12.15514l-3.55464,-3.69146c0,0 53.76962,-2.17867 70.63736,-2.17867c36.08261,0 70.33333,0.67587 70.33333,0.67587z" fill="url(#color-1)" stroke="#000000" stroke-width="0" stroke-linecap="butt"/><text transform="translate(176.91042,201.60024) rotate(-0.34842) scale(1.51374,1.40553) skewX(-20.36978)" font-size="40" xml:space="preserve" fill="url(#color-2)" fill-rule="nonzero" stroke="url(#color-3)" stroke-width="3" stroke-linecap="butt" stroke-linejoin="miter" stroke-miterlimit="10" stroke-dasharray="" stroke-dashoffset="0" font-family="Sans Serif" font-weight="normal" text-anchor="start" style="mix-blend-mode: normal"><tspan x="0" dy="0">K.O.</tspan></text><path d="M171.5,190.33334l28,16.33333l28,-45.33334l-1.33334,26.66667l26.33334,-11l27.33333,-14l23,27.66667" data-paper-data="{&quot;index&quot;:null}" fill="none" stroke="#faff83" stroke-width="3.5" stroke-linecap="round"/><path d="M251.83333,177.66667l13.33333,4.33333" fill="none" stroke="#faff83" stroke-width="3.5" stroke-linecap="round"/><path d="M211.5,183.33333v-12" fill="none" stroke="#faff83" stroke-width="3.5" stroke-linecap="round"/></g></g></svg>