<svg version="1.1" xmlns="http://www.w3.org/2000/svg" xmlns:xlink="http://www.w3.org/1999/xlink" width="507" height="389" viewBox="0,0,507,389"><defs><radialGradient cx="237.31941" cy="153.80734" r="35.95262" gradientUnits="userSpaceOnUse" id="color-1"><stop offset="0" stop-color="#ff4545"/><stop offset="1" stop-color="#ff4545" stop-opacity="0"/></radialGradient><radialGradient cx="240.00002" cy="180.00004" r="63.58429" gradientUnits="userSpaceOnUse" id="color-2"><stop offset="0" stop-color="#ff0000"/><stop offset="1" stop-color="#ff0000" stop-opacity="0"/></radialGradient></defs><g transform="translate(11.5,9)"><g data-paper-data="{&quot;isPaintingLayer&quot;:true}" fill-rule="nonzero" stroke-linejoin="miter" stroke-miterlimit="10" stroke-dasharray="" stroke-dashoffset="0" style="mix-blend-mode: normal"><path d="M-11.5,380v-389h507v389z" fill="#0a0711" stroke="none" stroke-width="NaN" stroke-linecap="butt"/><path d="M201.36679,153.80734c0,-19.85608 16.09653,-35.95262 35.95262,-35.95262c19.85608,0 35.95262,16.09653 35.95262,35.95262c0,19.85608 -16.09653,35.95262 -35.95262,35.95262c-19.85608,0 -35.95262,-16.09653 -35.95262,-35.95262z" fill="url(#color-1)" stroke="#000000" stroke-width="0" stroke-linecap="butt"/><path d="M176.41573,180.00004c0,-35.11664 28.46765,-63.58429 63.58429,-63.58429c35.11664,0 63.58429,28.46765 63.58429,63.58429c0,35.11664 -28.46765,63.58429 -63.58429,63.58429c-35.11664,0 -63.58429,-28.46765 -63.58429,-63.58429z" fill="url(#color-2)" stroke="#000000" stroke-width="0" stroke-linecap="butt"/><path d="M216.85338,140.12009c0,0 2.30662,-2.01493 4.12448,-2.93495c1.44014,-0.72886 5.91588,-2.14651 5.91588,-2.14651" fill="#181818" stroke="#000000" stroke-width="2" stroke-linecap="round"/><path d="M207.38157,144.83426c-0.80702,-2.71766 0.74182,-5.57501 3.45949,-6.38203c2.71766,-0.80702 5.575,0.74182 6.38203,3.45949c0.80702,2.71766 -0.74182,5.575 -3.45949,6.38203c-2.71766,0.80702 -5.57501,-0.74182 -6.38203,-3.45949z" fill="#9b9b9b" stroke="#000000" stroke-width="2" stroke-linecap="butt"/><g stroke="#000000" stroke-linecap="butt"><g fill="#343434" stroke-width="2"><path d="M216.7764,143.33302l-0.05558,-12.06278c0,0 2.73491,-5.6421 14.22869,-5.67957c11.58112,-0.03775 15.4038,5.54305 15.4038,5.54305l0.05558,12.06278c0,0 -9.32594,-3.30162 -14.16047,-3.27935c-5.03483,0.02319 -15.47201,3.41589 -15.47201,3.41589z"/></g><path d="M255.26292,146.31685c-0.01269,3.72245 -10.47947,6.70443 -23.37819,6.66045c-12.89871,-0.04398 -23.34491,-3.09728 -23.33221,-6.81973c0.01269,-3.72245 10.47947,-6.70443 23.37819,-6.66045c12.89871,0.04398 23.34491,3.09728 23.33221,6.81973z" fill="#343434" stroke-width="2"/><path d="M247.71965,147.32931c-0.00877,2.57323 -7.2442,4.6346 -16.16075,4.6042c-8.91655,-0.0304 -16.13776,-2.14108 -16.12898,-4.71431c0.00877,-2.57323 7.2442,-4.6346 16.16075,-4.6042c8.91655,0.0304 16.13776,2.14108 16.12898,4.71431z" fill="#111111" stroke-width="0.5"/></g><path d="M231.17647,208.74334l-1.52422,-25.51961l7.83674,-0.46806l1.52422,25.51961z" fill="#181818" stroke="#000000" stroke-width="2" stroke-linecap="butt"/><path d="M253.3761,234.01171c-2.08742,4.56583 -6.64875,6.06563 -10.18801,3.34992c-3.53927,-2.71572 -4.71621,-8.61857 -2.62879,-13.1844c2.08742,-4.56583 6.64875,-6.06563 10.18801,-3.34992c3.53927,2.71572 4.71621,8.61857 2.62879,13.1844z" data-paper-data="{&quot;index&quot;:null}" fill="#181818" stroke="#000000" stroke-width="2" stroke-linecap="butt"/><path d="M218.75515,231.03005c1.07239,-8.09737 7.94693,-10.62335 9.20262,-10.45704c3.25127,0.43058 3.56438,4.51764 2.91485,9.4221c-0.64954,4.90446 -3.81176,8.53124 -7.06303,8.10066c-3.25127,-0.43058 -5.70397,-2.16124 -5.05444,-7.0657z" data-paper-data="{&quot;index&quot;:null}" fill="#181818" stroke="#000000" stroke-width="2" stroke-linecap="butt"/><path d="M227.41916,181.71818l14.4154,-0.55848l-3.48753,4.44341l4.3656,3.97436l-16.94308,2.22199l3.99445,-5.38121z" fill="#0e0e0e" stroke="#000000" stroke-width="2" stroke-linecap="round"/><path d="M215.76814,159.09245c0.71704,-9.14386 8.71087,-15.97514 17.85472,-15.25811c9.14386,0.71704 15.97514,8.71087 15.25811,17.85472c-0.71704,9.14386 -8.71087,15.97514 -17.85472,15.25811c-9.14386,-0.71704 -15.97514,-8.71087 -15.25811,-17.85472z" fill="#181818" stroke="#000000" stroke-width="2" stroke-linecap="butt"/><path d="M220.77015,165.4913l-0.21851,-6.44642c0,0 6.44178,2.45317 9.34252,2.34166c3.46087,-0.13303 10.04054,-3.08671 10.04054,-3.08671l0.21851,6.44642z" fill="#ff4545" stroke="#000000" stroke-width="2" stroke-linecap="butt"/><path d="M219.6901,203.47766c0,-1.83618 1.48852,-3.3247 3.3247,-3.3247c1.83618,0 3.3247,1.48852 3.3247,3.3247c0,1.83618 -1.48852,3.3247 -3.3247,3.3247c-1.83618,0 -3.3247,-1.48852 -3.3247,-3.3247z" fill="#181818" stroke="#000000" stroke-width="2" stroke-linecap="butt"/><path d="M248.97118,191.00105c0,-25.76849 20.88957,-46.65803 46.65803,-46.65803c25.76849,0 46.65803,20.88957 46.65803,46.65803c0,25.76849 -20.88957,46.65803 -46.65803,46.65803c-25.76849,0 -46.65803,-20.88957 -46.65803,-46.65803z" fill="#181818" stroke="#000000" stroke-width="2" stroke-linecap="butt"/></g></g></svg>