<svg version="1.1" xmlns="http://www.w3.org/2000/svg" xmlns:xlink="http://www.w3.org/1999/xlink" width="296.16172" height="96.45716" viewBox="0,0,296.16172,96.45716"><g transform="translate(-112.14859,-137.88685)"><g data-paper-data="{&quot;isPaintingLayer&quot;:true}" fill-rule="nonzero" stroke-linejoin="miter" stroke-miterlimit="10" stroke-dasharray="" stroke-dashoffset="0" style="mix-blend-mode: normal"><path d="M185.77019,234.34401l-30.29787,-11.23846l3.82574,6.50747l-47.14947,-17.16195l34.99624,6.00617l-4.50116,-4.81902l30.45025,6.01334l-4.52006,-7.27298l24.42313,6.59464l-3.17042,-6.25846l38.48374,3.05273l-3.87898,14.72222l-22.525,-5.5402l3.14488,8.96681l-22.27292,-8.37897l2.99188,8.80664" data-paper-data="{&quot;index&quot;:null}" fill="#fff200" stroke="none" stroke-width="0.66342" stroke-linecap="butt"/><path d="M222.02867,164.51925c-1.23399,-1.7144 -0.84454,-4.10455 0.86986,-5.33854c1.7144,-1.23399 4.10455,-0.84454 5.33854,0.86986c1.23399,1.7144 0.84454,4.10455 -0.86986,5.33854c-1.7144,1.23399 -4.10455,0.84454 -5.33854,-0.86986z" data-paper-data="{&quot;index&quot;:null}" fill="#ffe819" stroke="#000000" stroke-width="2" stroke-linecap="butt"/><path d="M266.25284,196.42924c8.33943,3.81813 12.00467,13.67379 8.18654,22.01321c-3.81813,8.33943 -13.67379,12.00467 -22.01321,8.18654c-8.33943,-3.81813 -12.00467,-13.67379 -8.18654,-22.01321c3.81813,-8.33943 13.67379,-12.00467 22.01321,-8.18654z" data-paper-data="{&quot;index&quot;:null}" fill="#ffe819" stroke="#000000" stroke-width="2" stroke-linecap="butt"/><path d="M233.73476,172.22117l15.38352,20.41864l-6.27029,4.72408l-15.38352,-20.41864z" data-paper-data="{&quot;index&quot;:null}" fill="#ffe819" stroke="#000000" stroke-width="2" stroke-linecap="butt"/><path d="M230.18244,229.4306c-1.23399,-1.7144 -0.84454,-4.10455 0.86986,-5.33854c1.7144,-1.23399 4.10455,-0.84454 5.33854,0.86986c1.23399,1.7144 0.84454,4.10455 -0.86986,5.33854c-1.7144,1.23399 -4.10455,0.84454 -5.33854,-0.86986z" data-paper-data="{&quot;index&quot;:null}" fill="#ffe819" stroke="#000000" stroke-width="2" stroke-linecap="butt"/><path d="M277.13895,185.14782c0,0 1.14782,2.83952 1.42134,4.8585c0.21669,1.59946 0.0894,6.29263 0.0894,6.29263" data-paper-data="{&quot;index&quot;:null}" fill="none" stroke="#000000" stroke-width="2" stroke-linecap="round"/><path d="M275.88437,175.01579c2.83207,0.12808 5.02408,2.52775 4.896,5.35982c-0.12808,2.83207 -2.52775,5.02408 -5.35982,4.896c-2.83207,-0.12808 -5.02408,-2.52775 -4.896,-5.35982c0.12808,-2.83207 2.52775,-5.02408 5.35982,-4.896z" data-paper-data="{&quot;index&quot;:null}" fill="#ffe819" stroke="#000000" stroke-width="2" stroke-linecap="butt"/><path d="M202.92371,146.34866c-1.0554,-4.8334 1.24479,-6.76216 4.44894,-7.46181c3.20417,-0.69965 6.65721,2.65141 7.71262,7.48482c1.0554,4.8334 1.08347,8.93233 -2.12069,9.63197c-1.23751,0.27022 -8.29838,-1.67494 -10.04087,-9.655z" data-paper-data="{&quot;index&quot;:null}" fill="#ffe819" stroke="#000000" stroke-width="2" stroke-linecap="butt"/><path d="M268.18097,192.33096l7.34388,8.74721l6.24531,-9.8422c0,0 5.07836,17.25294 1.29941,27.17532c-3.77895,9.92238 -16.57561,12.9354 -16.57561,12.9354z" data-paper-data="{&quot;index&quot;:null}" fill="#fff067" stroke="#000000" stroke-width="2" stroke-linecap="butt"/><path d="M196.18624,163.31145c-3.23324,-3.74455 -2.13172,-6.53697 0.35062,-8.68035c2.48235,-2.14339 7.11575,-0.84539 10.349,2.89918c3.23324,3.74455 5.21324,7.33368 2.73089,9.47706c-0.95872,0.82781 -8.09235,2.48648 -13.43051,-3.69587z" data-paper-data="{&quot;index&quot;:null}" fill="#ffe819" stroke="#000000" stroke-width="2" stroke-linecap="butt"/><path d="M334.68874,234.34399l2.99188,-8.80664l-22.27292,8.37897l3.14487,-8.96681l-22.525,5.5402l-3.87898,-14.72222l38.48375,-3.05273l-3.17043,6.25846l24.42313,-6.59464l-4.52006,7.27298l30.45026,-6.01334l-4.50116,4.81902l34.99623,-6.00617l-47.14946,17.16195l3.82574,-6.50747l-30.29788,11.23846" data-paper-data="{&quot;index&quot;:null}" fill="#fff200" stroke="none" stroke-width="0.66342" stroke-linecap="butt"/></g></g></svg>