<svg version="1.1" xmlns="http://www.w3.org/2000/svg" xmlns:xlink="http://www.w3.org/1999/xlink" width="66.69419" height="106.69141" viewBox="0,0,66.69419,106.69141"><g transform="translate(-203.24823,-131.8448)"><g data-paper-data="{&quot;isPaintingLayer&quot;:true}" fill-rule="nonzero" stroke="#000000" stroke-width="2" stroke-linejoin="miter" stroke-miterlimit="10" stroke-dasharray="" stroke-dashoffset="0" style="mix-blend-mode: normal"><g><path d="M213.18561,162.59769l-8.67914,-8.37774c0,0 -2.13288,-5.89608 5.86077,-14.15502c8.05439,-8.32169 14.71932,-7.16546 14.71932,-7.16546l8.67914,8.37774c0,0 -8.87264,4.37609 -12.23027,7.85452c-3.49675,3.62255 -8.34982,13.46596 -8.34982,13.46596z" fill="#343434" stroke-linecap="butt"/><path d="M209.77282,171.10811c0,0 5.57196,-15.57581 11.41474,-21.6288c5.99157,-6.20713 21.08487,-12.65225 21.08487,-12.65225" fill="none" stroke-linecap="round"/></g><path d="M219.95799,173.39068c0,0 -0.62972,-2.9973 -0.54336,-5.03289c0.06842,-1.61263 1.02036,-6.21001 1.02036,-6.21001" fill="#181818" stroke-linecap="round"/><path d="M219.43862,183.95803c-2.76522,-0.62492 -4.50031,-3.37316 -3.87539,-6.13839c0.62492,-2.76522 3.37316,-4.50031 6.13839,-3.87538c2.76522,0.62492 4.50031,3.37316 3.87539,6.13839c-0.62492,2.76522 -3.37316,4.50031 -6.13839,3.87538z" fill="#181818" stroke-linecap="butt"/><path d="M240.90882,206.14651l-8.27026,-24.19042l7.42856,-2.53969l8.27026,24.19042z" fill="#181818" stroke-linecap="butt"/><path d="M230.08499,181.10012l13.76195,-4.33107l-1.94254,5.89852l5.50155,3.35352l-15.67107,6.8532l2.13091,-7.08458z" fill="#0e0e0e" stroke-linecap="round"/><path d="M252.68226,198.00619c0,-2.11232 1.71238,-3.8247 3.8247,-3.8247c2.11232,0 3.8247,1.71238 3.8247,3.8247c0,2.11232 -1.71238,3.8247 -3.8247,3.8247c-2.11232,0 -3.8247,-1.71238 -3.8247,-3.8247z" fill="#181818" stroke-linecap="butt"/><path d="M216.29127,167.58114c-5.67166,-7.20808 -4.42614,-17.64917 2.78193,-23.32084c7.20808,-5.67166 17.64918,-4.42615 23.32085,2.78193c5.67166,7.20808 4.42615,17.64918 -2.78193,23.32084c-7.20808,5.67166 -17.64918,4.42615 -23.32084,-2.78193z" fill="#181818" stroke-linecap="butt"/><path d="M268.0996,220.92642c2.01597,4.51791 0.15593,6.87401 -2.83909,8.21044c-2.99502,1.33643 -7.05722,-1.24266 -9.07319,-5.76058c-2.01597,-4.51791 -2.87675,-8.52553 0.11826,-9.86196c1.15672,-0.51615 8.4656,-0.04707 11.79402,7.4121z" data-paper-data="{&quot;index&quot;:null}" fill="#181818" stroke-linecap="butt"/><path d="M228.33962,155.6372l-2.05754,-5.09574c0,0 3.06986,-6.721 5.20847,-8.60346c2.02496,-1.78242 11.08075,-2.01321 11.08075,-2.01321l2.46914,5.00781c0,0 -6.91268,0.26213 -9.43424,1.87835c-2.97126,1.90447 -7.26659,8.82626 -7.26659,8.82626z" fill="#ff0000" stroke-linecap="butt"/><path d="M221.52146,203.80179c0,-2.11232 1.71238,-3.8247 3.8247,-3.8247c2.11232,0 3.8247,1.71238 3.8247,3.8247c0,2.11232 -1.71238,3.8247 -3.8247,3.8247c-2.11232,0 -3.8247,-1.71238 -3.8247,-3.8247z" fill="#181818" stroke-linecap="butt"/><path d="M245.27801,231.7296c-0.46047,4.9258 -3.23734,6.06596 -6.50276,5.76071c-3.26542,-0.30525 -5.53929,-4.54586 -5.07882,-9.47168c0.46047,-4.9258 1.67708,-8.84013 4.9425,-8.53487c1.26116,0.1179 7.39933,4.11322 6.63908,12.24585z" data-paper-data="{&quot;index&quot;:null}" fill="#181818" stroke-linecap="butt"/></g></g></svg>