<svg version="1.1" xmlns="http://www.w3.org/2000/svg" xmlns:xlink="http://www.w3.org/1999/xlink" width="74.37018" height="63.35487" viewBox="0,0,74.37018,63.35487"><g transform="translate(-203.10003,-160.87281)"><g data-paper-data="{&quot;isPaintingLayer&quot;:true}" fill-rule="nonzero" stroke="#000000" stroke-width="2" stroke-linejoin="miter" stroke-miterlimit="10" stroke-dasharray="" stroke-dashoffset="0" style="mix-blend-mode: normal"><path d="M253.20384,215.55229l-20.57671,-15.17145l4.65895,-6.31884l20.57671,15.17145z" fill="#181818" stroke-linecap="butt"/><path d="M243.18531,195.46609l6.77501,-0.25628l-15.0145,13.12552l0.84022,-6.03869l-5.74545,0.37268l11.88734,-11.94566z" data-paper-data="{&quot;index&quot;:null}" fill="#0e0e0e" stroke-linecap="round"/><path d="M243.66994,222.29891c-1.46545,-1.5213 -1.42018,-3.94255 0.10112,-5.408c1.5213,-1.46545 3.94255,-1.42018 5.408,0.10112c1.46545,1.5213 1.42018,3.94255 -0.10112,5.408c-1.5213,1.46545 -3.94255,1.42018 -5.408,-0.10112z" fill="#181818" stroke-linecap="butt"/><path d="M210.58191,203.75958c0,0 0.4454,-3.03018 1.23022,-4.91038c0.62176,-1.48952 3.10448,-5.47426 3.10448,-5.47426" data-paper-data="{&quot;index&quot;:null}" fill="#181818" stroke-linecap="round"/><path d="M206.44099,213.49567c-2.37864,-1.54243 -3.05654,-4.72107 -1.5141,-7.09971c1.54243,-2.37864 4.72108,-3.05655 7.09971,-1.5141c2.37864,1.54243 3.05654,4.72107 1.5141,7.09971c-1.54243,2.37864 -4.72108,3.05655 -7.09971,1.5141z" data-paper-data="{&quot;index&quot;:null}" fill="#181818" stroke-linecap="butt"/><path d="M224.07328,201.27089c-7.71839,-4.95488 -9.95865,-15.22859 -5.00378,-22.94696c4.95488,-7.71839 15.22859,-9.95865 22.94696,-5.00378c7.71839,4.95488 9.95865,15.22859 5.00378,22.94696c-4.95488,7.71839 -15.22859,9.95865 -22.94696,5.00378z" fill="#181818" stroke-linecap="butt"/><path d="M252.7964,213.65766c1.82462,-3.68665 5.52505,-5.5759 8.26513,-4.21977c2.74008,1.35614 3.4822,5.44413 1.65758,9.13078c-1.82462,3.68665 -5.52505,5.5759 -8.26513,4.21977c-2.74008,-1.35614 -3.4822,-5.44413 -1.65758,-9.13078z" data-paper-data="{&quot;index&quot;:null}" fill="#181818" stroke-linecap="butt"/><path d="M266.57946,204.17721c3.56305,-3.43224 6.41127,-2.48432 8.68658,-0.1223c2.27531,2.36202 1.23139,7.0592 -2.33166,10.49145c-3.56305,3.43224 -7.03908,5.60462 -9.31439,3.2426c-0.87876,-0.91225 -2.92321,-7.94503 2.95947,-13.61175z" data-paper-data="{&quot;index&quot;:null}" fill="#181818" stroke-linecap="butt"/><path d="M235.46667,190.24801l-4.41357,-2.83332c0,0 7.24451,-8.3502 8.79476,-10.16821c1.7395,-2.03993 1.6838,-6.15462 1.6838,-6.15462l4.41357,2.83332z" fill="#ff0000" stroke-linecap="butt"/><g><path d="M219.1343,195.85732l-10.15121,-6.51664l16.00828,-24.93667l10.15121,6.51665z" fill="#343434" stroke-linecap="butt"/><path d="M213.32599,204.90513l27.62493,-43.03232" fill="none" stroke-linecap="round"/></g><path d="M231.31429,222.681c-1.46545,-1.5213 -1.42018,-3.94255 0.10112,-5.408c1.5213,-1.46545 3.94255,-1.42018 5.408,0.10112c1.46545,1.5213 1.42018,3.94255 -0.10112,5.408c-1.5213,1.46545 -3.94255,1.42018 -5.408,-0.10112z" fill="#181818" stroke-linecap="butt"/></g></g></svg>