<svg version="1.1" xmlns="http://www.w3.org/2000/svg" xmlns:xlink="http://www.w3.org/1999/xlink" width="66.15323" height="121.01844" viewBox="0,0,66.15323,121.01844"><g transform="translate(-202.06568,-97.98995)"><g data-paper-data="{&quot;isPaintingLayer&quot;:true}" fill-rule="nonzero" stroke="#000000" stroke-width="2" stroke-linejoin="miter" stroke-miterlimit="10" stroke-dasharray="" stroke-dashoffset="0" style="mix-blend-mode: normal"><path d="M233.21952,197.66616l-4.42995,-25.17834l7.73193,-1.36039l4.42995,25.17834z" data-paper-data="{&quot;index&quot;:null}" fill="#ff6b00" stroke-linecap="butt"/><path d="M226.4899,146.59685c4.8075,-7.81103 15.03684,-10.24588 22.84787,-5.43837c7.81103,4.8075 10.24587,15.03685 5.43837,22.84787c-4.8075,7.81103 -15.03684,10.24588 -22.84787,5.43837c-7.81103,-4.8075 -10.24587,-15.03685 -5.43837,-22.84787z" fill="#ff6b00" stroke-linecap="butt"/><path d="M220.71603,135.93793c0,0 3.05107,0.26719 4.97399,0.94055c1.52339,0.53346 5.64667,2.77855 5.64667,2.77855" fill="none" stroke-linecap="round"/><path d="M211.1196,132.45352c1.40046,-2.46489 4.53397,-3.32777 6.99887,-1.9273c2.46489,1.40046 3.32776,4.53396 1.92728,6.99885c-1.40046,2.46489 -4.53397,3.32778 -6.99885,1.9273c-2.46489,-1.40046 -3.32777,-4.53396 -1.9273,-6.99885z" fill="#ff6b00" stroke-linecap="butt"/><path d="M249.8491,204.07566c4.41302,-2.23624 6.85796,-0.49462 8.34042,2.43088c1.48244,2.92549 -0.89325,7.1099 -5.30629,9.34615c-4.41302,2.23624 -8.37335,3.29355 -9.85579,0.36806c-0.57254,-1.12987 -0.46434,-8.45299 6.82166,-12.14508z" data-paper-data="{&quot;index&quot;:null}" fill="#ff6b00" stroke-linecap="butt"/><path d="M220.84693,147.06407l9.98684,-8.15956l-11.46381,-32.17926l47.32857,2.45992l-13.96666,30.59139l9.14702,9.05095z" data-paper-data="{&quot;index&quot;:null}" fill="#ffa340" stroke-linecap="butt"/><path d="M229.8631,205.41048c4.89155,0.74049 5.87157,3.57784 5.38069,6.82056c-0.49089,3.24272 -4.85422,5.27116 -9.74579,4.53067c-4.89155,-0.74049 -8.73018,-2.17824 -8.23927,-5.42094c0.18959,-1.25238 4.5283,-7.15283 12.60437,-5.93027z" data-paper-data="{&quot;index&quot;:null}" fill="#ff6b00" stroke-linecap="butt"/><path d="M214.80817,104.38275c-1.37388,-1.60449 -1.18694,-4.01893 0.41754,-5.3928c1.60449,-1.37388 4.01893,-1.18694 5.3928,0.41754c1.37388,1.60449 1.18694,4.01893 -0.41754,5.3928c-1.60449,1.37388 -4.01893,1.18694 -5.3928,-0.41754z" fill="#ff6b00" stroke-linecap="butt"/><path d="M203.98528,109.93058c-1.37388,-1.60449 -1.18694,-4.01893 0.41754,-5.3928c1.60449,-1.37388 4.01893,-1.18695 5.39281,0.41753c1.37388,1.60449 1.18694,4.01893 -0.41754,5.3928c-1.60449,1.37388 -4.01893,1.18694 -5.3928,-0.41754z" fill="#ff6b00" stroke-linecap="butt"/></g></g></svg>