<svg version="1.1" xmlns="http://www.w3.org/2000/svg" xmlns:xlink="http://www.w3.org/1999/xlink" width="69.09336" height="82.12954" viewBox="0,0,69.09336,82.12954"><g transform="translate(-216.86765,-143.45577)"><g data-paper-data="{&quot;isPaintingLayer&quot;:true}" fill-rule="nonzero" stroke="#000000" stroke-width="2" stroke-linejoin="miter" stroke-miterlimit="10" stroke-dasharray="" stroke-dashoffset="0" style="mix-blend-mode: normal"><path d="M241.77009,206.12441l-5.33534,-25.00216l7.67783,-1.6384l5.33534,25.00216z" data-paper-data="{&quot;index&quot;:null}" fill="#181818" stroke-linecap="butt"/><path d="M235.20852,177.85078l14.32032,1.74468l-4.15074,3.83121l3.67684,4.61897l-17.0807,-0.505l4.80056,-4.6763z" data-paper-data="{&quot;index&quot;:null}" fill="#0e0e0e" stroke-linecap="round"/><path d="M225.49584,204.28401c0,-2.11232 1.71238,-3.8247 3.8247,-3.8247c2.11232,0 3.8247,1.71238 3.8247,3.8247c0,2.11232 -1.71238,3.8247 -3.8247,3.8247c-2.11232,0 -3.8247,-1.71238 -3.8247,-3.8247z" fill="#181818" stroke-linecap="butt"/><path d="M228.36862,149.39645c0,0 3.03536,-0.40861 5.05917,-0.17347c1.60329,0.18629 6.11865,1.47222 6.11865,1.47222" fill="#181818" stroke-linecap="round"/><path d="M217.86765,148.10491c0.82567,-2.71206 3.69355,-4.24131 6.40561,-3.41563c2.71206,0.82567 4.24131,3.69355 3.41563,6.40561c-0.82567,2.71206 -3.69355,4.24131 -6.40561,3.41563c-2.71206,-0.82567 -4.24131,-3.69355 -3.41563,-6.40561z" fill="#181818" stroke-linecap="butt"/><path d="M237.00921,163.49754c0.60299,-9.15209 8.51105,-16.08249 17.66313,-15.4795c9.15209,0.60299 16.08249,8.51105 15.4795,17.66313c-0.60299,9.15209 -8.51105,16.08249 -17.66313,15.4795c-9.15209,-0.60299 -16.08249,-8.51105 -15.4795,-17.66313z" fill="#181818" stroke-linecap="butt"/><path d="M255.85286,168.95055l0.65867,-5.23339l17.5165,0.60415l-0.65867,5.23339z" fill="#ff0000" stroke-linecap="butt"/><g><path d="M239.35814,156.55616l0.79306,-12.03681l29.56869,1.94816l-0.79306,12.03681z" fill="#343434" stroke-linecap="butt"/><path d="M279.65529,159.21118l-51.02563,-3.36187" fill="none" stroke-linecap="round"/></g><path d="M280.38205,206.45227c4.68918,1.57708 5.16259,4.54135 4.11711,7.64989c-1.04548,3.10857 -5.69436,4.35007 -10.38355,2.77297c-4.68918,-1.57708 -8.22051,-3.65837 -7.17502,-6.76693c0.40378,-1.20057 5.6995,-6.25975 13.44145,-3.65593z" data-paper-data="{&quot;index&quot;:null}" fill="#181818" stroke-linecap="butt"/><path d="M246.70343,202.81841c0,-2.11232 1.71238,-3.8247 3.8247,-3.8247c2.11232,0 3.8247,1.71238 3.8247,3.8247c0,2.11232 -1.71238,3.8247 -3.8247,3.8247c-2.11232,0 -3.8247,-1.71238 -3.8247,-3.8247z" fill="#181818" stroke-linecap="butt"/><path d="M247.44564,212.78768c4.94497,0.15112 6.25676,2.85116 6.15657,6.12927c-0.10018,3.27814 -4.19011,5.81308 -9.13509,5.66194c-4.94497,-0.15112 -8.9278,-1.12024 -8.8276,-4.39837c0.03869,-1.26606 3.64184,-7.64237 11.80611,-7.39284z" data-paper-data="{&quot;index&quot;:null}" fill="#181818" stroke-linecap="butt"/></g></g></svg>