<svg version="1.1" xmlns="http://www.w3.org/2000/svg" xmlns:xlink="http://www.w3.org/1999/xlink" width="83.41908" height="102.47001" viewBox="0,0,83.41908,102.47001"><g transform="translate(-212.77517,-125.03756)"><g data-paper-data="{&quot;isPaintingLayer&quot;:true}" fill-rule="nonzero" stroke="#000000" stroke-width="2" stroke-linejoin="miter" stroke-miterlimit="10" stroke-dasharray="" stroke-dashoffset="0" style="mix-blend-mode: normal"><path d="M288.06885,173.85335c1.06774,-1.82258 3.41083,-2.4345 5.23342,-1.36675c1.82258,1.06774 2.4345,3.41083 1.36675,5.23342c-0.40777,0.69604 -9.22169,13.48122 -16.76145,17.37446c-12.20326,6.3013 -25.59119,4.366 -28.38324,2.66265c-1.02499,-0.62531 9.48586,-1.01879 20.4457,-7.32133c8.32155,-4.78537 17.63799,-15.79585 18.0988,-16.58245z" fill="#1d28e8" stroke-linecap="butt"/><path d="M232.26992,156.21978c2.54355,-8.81219 11.74919,-13.89392 20.56137,-11.35038c8.81219,2.54355 13.89392,11.74919 11.35038,20.56137c-2.54355,8.81219 -11.74919,13.89392 -20.56137,11.35038c-8.81219,-2.54355 -13.89392,-11.74919 -11.35038,-20.56137z" fill="#1d28e8" stroke-linecap="butt"/><path d="M233.90142,204.34592l2.91598,-25.39824l7.79947,0.89546l-2.91598,25.39824z" fill="#1d28e8" stroke-linecap="butt"/><path d="M217.06267,182.80257c0.31597,-2.08855 2.26523,-3.52552 4.35379,-3.20955c2.08855,0.31597 3.52552,2.26523 3.20955,4.35379c-0.31597,2.08855 -2.26523,3.52552 -4.35379,3.20955c-2.08855,-0.31597 -3.52552,-2.26523 -3.20955,-4.35379z" fill="#1d28e8" stroke-linecap="butt"/><path d="M223.86109,157.02568c0,0 2.80074,-1.23943 4.80977,-1.5784c1.59159,-0.26853 6.28641,-0.29376 6.28641,-0.29376" data-paper-data="{&quot;index&quot;:null}" fill="none" stroke-linecap="round"/><path d="M213.77517,158.6087c0.03603,-2.83473 2.36323,-5.10354 5.19796,-5.06751c2.83473,0.03603 5.10354,2.36323 5.06751,5.19796c-0.03603,2.83473 -2.36323,5.10354 -5.19796,5.06751c-2.83473,-0.03603 -5.10354,-2.36323 -5.06751,-5.19796z" data-paper-data="{&quot;index&quot;:null}" fill="#1d28e8" stroke-linecap="butt"/><path d="M230.06253,216.70009c3.33827,3.65123 2.31649,6.47381 -0.104,8.68681c-2.42049,2.21301 -7.08888,1.0471 -10.42715,-2.60414c-3.33827,-3.65123 -5.41937,-7.18268 -2.99889,-9.39569c0.93484,-0.8547 8.01847,-2.71527 13.53003,3.31301z" data-paper-data="{&quot;index&quot;:null}" fill="#1d28e8" stroke-linecap="butt"/><path d="M232.30231,155.39117l-4.99181,-22.49685l40.50943,-6.64482l-4.58277,28.13553l20.80147,-0.59961z" fill="#2530ff" stroke-linecap="round"/><path d="M262.5446,204.17273c4.80401,-1.18196 6.79251,1.06677 7.57606,4.25146c0.78354,3.18469 -2.47568,6.72454 -7.27971,7.90651c-4.80401,1.18196 -8.9008,1.31766 -9.68435,-1.86703c-0.30262,-1.22998 1.45645,-8.33951 9.388,-10.29095z" data-paper-data="{&quot;index&quot;:null}" fill="#1d28e8" stroke-linecap="butt"/></g></g></svg>