<svg version="1.1" xmlns="http://www.w3.org/2000/svg" xmlns:xlink="http://www.w3.org/1999/xlink" width="103.7431" height="91.66926" viewBox="0,0,103.7431,91.66926"><g transform="translate(-216.51647,-134.81846)"><g data-paper-data="{&quot;isPaintingLayer&quot;:true}" fill-rule="nonzero" stroke-linejoin="miter" stroke-miterlimit="10" stroke-dasharray="" stroke-dashoffset="0" style="mix-blend-mode: normal"><path d="M290.87487,164.8675l-1.04679,-2.91845l-0.32612,0.93299l-1.65849,-4.50537l1.83735,2.59725l0.12814,-0.78295l1.52776,2.34722l0.34788,-1.05622l1.06581,2.07915l0.34823,-0.86921l2.34037,2.46204l-1.58961,1.41916l-1.03179,-1.85744l-0.5939,1.16825l-0.75897,-2.15845l-0.58987,1.14203" data-paper-data="{&quot;index&quot;:null}" fill="#fff200" stroke="none" stroke-width="0.66342" stroke-linecap="butt"/><path d="M313.79573,164.75535l-0.60465,-1.17066l-0.778,2.21255l-0.60878,-1.19753l-1.05765,1.904l-1.62945,-1.45473l2.39903,-2.52376l0.35695,0.89099l1.09253,-2.13127l0.3566,1.0827l1.56606,-2.40605l0.13136,0.80257l1.8834,-2.66235l-1.70006,4.6183l-0.3343,-0.95637l-1.07303,2.9916" data-paper-data="{&quot;index&quot;:null}" fill="#fff200" stroke="none" stroke-width="0.66342" stroke-linecap="butt"/><path d="M236.6866,202.35624c0,-2.11232 1.71238,-3.8247 3.8247,-3.8247c2.11232,0 3.8247,1.71238 3.8247,3.8247c0,2.11232 -1.71238,3.8247 -3.8247,3.8247c-2.11232,0 -3.8247,-1.71238 -3.8247,-3.8247z" fill="#ffe819" stroke="#000000" stroke-width="2" stroke-linecap="butt"/><path d="M248.73674,204.4588l11.62062,-22.77136l6.99279,3.56854l-11.62062,22.77136z" fill="#ffe819" stroke="#000000" stroke-width="2" stroke-linecap="butt"/><path d="M232.80253,220.504c-1.59681,2.86467 -5.5123,1.65181 -9.83358,-0.75694c-4.3213,-2.40876 -6.52991,-6.68371 -4.9331,-9.54838c1.59681,-2.86467 4.10861,-4.5084 8.4299,-2.09964c7.13455,3.9769 6.95351,11.29858 6.33679,12.40497z" data-paper-data="{&quot;index&quot;:null}" fill="#ffe819" stroke="#000000" stroke-width="2" stroke-linecap="butt"/><path d="M265.22955,183.76595c-9.05999,1.4285 -17.56261,-4.75805 -18.99111,-13.81805c-1.4285,-9.05999 4.75805,-17.56261 13.81805,-18.99111c9.05999,-1.4285 17.56261,4.75805 18.99111,13.81805c1.4285,9.05999 -4.75805,17.56261 -13.81805,18.99111z" data-paper-data="{&quot;index&quot;:null}" fill="#ffe819" stroke="#000000" stroke-width="2" stroke-linecap="butt"/><path d="M263.68296,145.21578c0,0 4.07688,-2.32835 5.5891,-2.89263c1.90887,-0.71227 4.95387,-1.04133 4.95387,-1.04133" data-paper-data="{&quot;index&quot;:null}" fill="none" stroke="#000000" stroke-width="2" stroke-linecap="round"/><path d="M281.96481,144.63982c-2.43595,1.45023 -5.58632,0.65113 -7.03654,-1.78482c-1.45023,-2.43595 -0.65113,-5.58632 1.78482,-7.03654c2.43595,-1.45023 5.58632,-0.65113 7.03654,1.78482c1.45023,2.43595 0.65113,5.58632 -1.78482,7.03654z" data-paper-data="{&quot;index&quot;:null}" fill="#ffe819" stroke="#000000" stroke-width="2" stroke-linecap="butt"/><path d="M243.39411,159.74453c0,0 3.34204,-12.7147 13.35858,-16.23648c10.01655,-3.5218 22.16583,-1.75232 22.16583,-1.75232l-0.84755,9.68093c0,0 -5.38957,-5.96937 -4.25526,-4.96604c1.57197,1.39045 8.62466,12.59371 8.62466,12.59371z" data-paper-data="{&quot;index&quot;:null}" fill="#fff067" stroke="#000000" stroke-width="2" stroke-linecap="butt"/><path d="M259.89641,214.41622c4.11347,0 7.4481,2.47844 7.4481,5.53575c0,3.05731 -3.33463,5.53575 -7.4481,5.53575c-4.11347,0 -7.4481,-2.47844 -7.4481,-5.53575c0,-3.05731 3.33463,-5.53575 7.4481,-5.53575z" data-paper-data="{&quot;index&quot;:null}" fill="#ffe819" stroke="#000000" stroke-width="2" stroke-linecap="butt"/><path d="M296.05932,179.1413c0,-2.11232 1.71238,-3.8247 3.8247,-3.8247c2.11232,0 3.8247,1.71238 3.8247,3.8247c0,2.11232 -1.71238,3.8247 -3.8247,3.8247c-2.11232,0 -3.8247,-1.71238 -3.8247,-3.8247z" fill="#ffe819" stroke="#000000" stroke-width="2" stroke-linecap="butt"/><path d="M288.06807,182.88633l0.58987,1.14203l0.75897,-2.15845l0.5939,1.16825l1.03178,-1.85744l1.58961,1.41916l-2.34036,2.46204l-0.34823,-0.8692l-1.06581,2.07915l-0.34789,-1.05622l-1.52776,2.34722l-0.12814,-0.78295l-1.83735,2.59725l1.6585,-4.50538l0.32612,0.93299l1.04679,-2.91845" data-paper-data="{&quot;index&quot;:null}" fill="#fff200" stroke="none" stroke-width="0.66342" stroke-linecap="butt"/><path d="M317.15219,182.99847l1.07303,2.99161l0.33429,-0.95638l1.70006,4.6183l-1.8834,-2.66235l-0.13136,0.80257l-1.56606,-2.40605l-0.35661,1.0827l-1.09252,-2.13127l-0.35696,0.891l-2.39903,-2.52376l1.62946,-1.45473l1.05764,1.904l0.60879,-1.19753l0.77799,2.21256l0.60466,-1.17066" data-paper-data="{&quot;index&quot;:null}" fill="#fff200" stroke="none" stroke-width="0.66342" stroke-linecap="butt"/></g></g></svg>