<svg version="1.1" xmlns="http://www.w3.org/2000/svg" xmlns:xlink="http://www.w3.org/1999/xlink" width="15.51688" height="8.7577" viewBox="0,0,15.51688,8.7577"><defs><linearGradient x1="242.20357" y1="176.84315" x2="242.20357" y2="183.97151" gradientUnits="userSpaceOnUse" id="color-1"><stop offset="0" stop-color="#ff0000"/><stop offset="1" stop-color="#ff7070"/></linearGradient><linearGradient x1="237.79641" y1="176.97893" x2="237.79641" y2="184.10728" gradientUnits="userSpaceOnUse" id="color-2"><stop offset="0" stop-color="#ff0000"/><stop offset="1" stop-color="#ff7070"/></linearGradient><linearGradient x1="239.89041" y1="175.62115" x2="239.89041" y2="184.37885" gradientUnits="userSpaceOnUse" id="color-3"><stop offset="0" stop-color="#ff0000"/><stop offset="1" stop-color="#ff7070"/></linearGradient></defs><g transform="translate(-232.24156,-175.62115)"><g data-paper-data="{&quot;isPaintingLayer&quot;:true}" fill-rule="nonzero" stroke="none" stroke-width="0" stroke-linecap="butt" stroke-linejoin="miter" stroke-miterlimit="10" stroke-dasharray="" stroke-dashoffset="0" style="mix-blend-mode: normal"><path d="M247.75844,180.40733c0,1.96844 -2.487,3.56418 -5.55486,3.56418c-3.06787,0 -5.55486,-1.59573 -5.55486,-3.56418c0,-1.96844 2.487,-3.56418 5.55486,-3.56418c3.06787,0 5.55486,1.59573 5.55486,3.56418z" fill="url(#color-1)"/><path d="M243.35128,180.54311c0,1.96844 -2.487,3.56418 -5.55486,3.56418c-3.06787,0 -5.55486,-1.59573 -5.55486,-3.56418c0,-1.96844 2.487,-3.56418 5.55486,-3.56418c3.06787,0 5.55486,1.59573 5.55486,3.56418z" fill="url(#color-2)"/><path d="M239.89041,175.62115c3.06787,0 5.55486,1.96048 5.55486,4.37885c0,2.41837 -2.487,4.37885 -5.55486,4.37885c-3.06787,0 -5.55486,-1.96048 -5.55486,-4.37885c0,-2.41837 2.487,-4.37885 5.55486,-4.37885z" fill="url(#color-3)"/></g></g></svg>