<svg version="1.1" xmlns="http://www.w3.org/2000/svg" xmlns:xlink="http://www.w3.org/1999/xlink" width="94.25437" height="80.74546" viewBox="0,0,94.25437,80.74546"><g transform="translate(-192.49753,-126.12211)"><g data-paper-data="{&quot;isPaintingLayer&quot;:true}" fill-rule="nonzero" stroke="#000000" stroke-width="2" stroke-linejoin="miter" stroke-miterlimit="10" stroke-dasharray="" stroke-dashoffset="0" style="mix-blend-mode: normal"><path d="M262.72399,173.84217c5.23595,7.53055 3.37576,17.87984 -4.15478,23.11577c-7.53055,5.23595 -17.87984,3.37578 -23.11577,-4.15478c-5.23595,-7.53055 -3.37576,-17.87984 4.15478,-23.11577c7.53055,-5.23595 17.87984,-3.37578 23.11577,4.15477z" fill="#2d6a2b" stroke-linecap="butt"/><path d="M265.88328,194.03326c-9.01533,13.03328 -22.34851,11.8033 -22.34851,11.8033l21.64707,-34.80661c0,0 10.39438,8.99041 0.70144,23.00331z" fill="#367e33" stroke-linecap="round"/><path d="M227.35711,139.85818l16.66899,19.38346l-5.9524,5.11884l-16.66899,-19.38346z" fill="#2d6a2b" stroke-linecap="butt"/><path d="M249.60197,142.69928c1.27208,1.68634 0.93624,4.08461 -0.75011,5.35668c-1.68634,1.27208 -4.08461,0.93624 -5.35668,-0.75009c-1.27208,-1.68634 -0.93624,-4.08461 0.75011,-5.35668c1.68634,-1.27208 4.08461,-0.93624 5.35668,0.75009z" fill="#2d6a2b" stroke-linecap="butt"/><path d="M228.37181,173.73784c-0.29293,2.09192 -2.22623,3.55028 -4.31814,3.25735c-2.0919,-0.29293 -3.55028,-2.22623 -3.25735,-4.31814c0.29293,-2.09192 2.22623,-3.55028 4.31815,-3.25734c2.0919,0.29293 3.55028,2.22623 3.25734,4.31813z" fill="#2d6a2b" stroke-linecap="butt"/><path d="M277.54583,177.89904c0,0 -1.5586,2.63649 -2.99639,4.08007c-1.13902,1.14362 -4.94465,3.89303 -4.94465,3.89303" fill="none" stroke-linecap="round"/><path d="M284.83283,170.74844c1.61838,2.32763 1.04342,5.52649 -1.2842,7.14488c-2.32763,1.61838 -5.5265,1.04343 -7.14488,-1.2842c-1.61838,-2.32763 -1.04343,-5.5265 1.2842,-7.14488c2.32763,-1.61838 5.5265,-1.04343 7.14488,1.2842z" fill="#2d6a2b" stroke-linecap="butt"/><path d="M200.24386,137.13932c-3.57572,-3.41904 -2.74561,-6.3038 -0.47904,-8.67423c2.26655,-2.37043 7.00265,-1.52034 10.57837,1.89871c3.57572,3.41904 5.88905,6.80289 3.62249,9.17331c-0.87538,0.91549 -7.81823,3.24713 -13.72183,-2.3978z" data-paper-data="{&quot;index&quot;:null}" fill="#2d6a2b" stroke-linecap="butt"/><path d="M198.71181,156.96544c-4.84618,-0.99505 -5.67663,-3.8797 -5.01698,-7.09234c0.65963,-3.21264 5.12297,-5.01036 9.96917,-4.0153c4.84618,0.99505 8.60443,2.63137 7.9448,5.84401c-0.25475,1.24077 -4.89582,6.90649 -12.89698,5.26365z" data-paper-data="{&quot;index&quot;:null}" fill="#2d6a2b" stroke-linecap="butt"/></g></g></svg>