<svg version="1.1" xmlns="http://www.w3.org/2000/svg" xmlns:xlink="http://www.w3.org/1999/xlink" width="183.11993" height="75.64281" viewBox="0,0,183.11993,75.64281"><g transform="translate(-200.14238,-154.73482)"><g data-paper-data="{&quot;isPaintingLayer&quot;:true}" fill-rule="nonzero" stroke-linejoin="miter" stroke-miterlimit="10" stroke-dasharray="" stroke-dashoffset="0" style="mix-blend-mode: normal"><path d="M226.44846,206.15546l19.95819,-15.97636l4.90613,6.1289l-19.95819,15.97636z" fill="#2d6a2b" stroke="#000000" stroke-width="2" stroke-linecap="butt"/><path d="M287.71984,216.61812c0,-2.11232 1.71238,-3.8247 3.8247,-3.8247c2.11232,0 3.8247,1.71238 3.8247,3.8247c0,2.11232 -1.71238,3.8247 -3.8247,3.8247c-2.11232,0 -3.8247,-1.71238 -3.8247,-3.8247z" fill="#2d6a2b" stroke="#000000" stroke-width="2" stroke-linecap="butt"/><path d="M258.93282,213.38269c4.93244,-0.38296 6.52773,2.15988 6.7816,5.4297c0.25387,3.26982 -3.53887,6.23098 -8.4713,6.61393c-4.93244,0.38296 -8.99653,-0.15105 -9.2504,-3.42087c-0.09805,-1.26286 2.79655,-7.9905 10.94011,-8.62276z" data-paper-data="{&quot;index&quot;:null}" fill="#2d6a2b" stroke="#000000" stroke-width="2" stroke-linecap="butt"/><path d="M208.59048,214.61091c4.11347,0 7.4481,2.47844 7.4481,5.53575c0,3.05731 -3.33463,5.53575 -7.4481,5.53575c-4.11347,0 -7.4481,-2.47844 -7.4481,-5.53575c0,-3.05731 3.33463,-5.53575 7.4481,-5.53575z" data-paper-data="{&quot;index&quot;:null}" fill="#2d6a2b" stroke="#000000" stroke-width="2" stroke-linecap="butt"/><path d="M262.04436,177.80398c5.50271,-7.33788 15.91206,-8.82558 23.24993,-3.32288c7.33788,5.50271 8.82558,15.91206 3.32288,23.24993c-5.50271,7.33788 -15.91206,8.82558 -23.24993,3.32288c-7.33788,-5.50271 -8.82558,-15.91206 -3.32288,-23.24993z" fill="#2d6a2b" stroke="#000000" stroke-width="2" stroke-linecap="butt"/><path d="M280.21854,168.45731c15.20666,4.46092 18.23067,17.50477 18.23067,17.50477l-39.84717,-9.60724c0,0 5.26686,-12.69373 21.61651,-7.89753z" fill="#367e33" stroke="#000000" stroke-width="2" stroke-linecap="round"/><path d="M261.23595,162.45824c0,0 2.99281,0.65074 4.8152,1.56179c1.44372,0.72175 5.25011,3.47009 5.25011,3.47009" fill="none" stroke="#000000" stroke-width="2" stroke-linecap="round"/><path d="M252.15704,157.78863c1.70084,-2.26807 4.91827,-2.7279 7.18634,-1.02707c2.26807,1.70084 2.7279,4.91827 1.02707,7.18634c-1.70084,2.26807 -4.91827,2.7279 -7.18634,1.02707c-2.26807,-1.70084 -2.7279,-4.91827 -1.02707,-7.18634z" fill="#2d6a2b" stroke="#000000" stroke-width="2" stroke-linecap="butt"/><g stroke="#61ff00" stroke-width="3" stroke-linecap="round"><path d="M381.76231,219.32892c0,0 -34.64371,0.49533 -50.00859,0.04073c-13.77739,-0.40763 -37.93859,-2.64287 -37.93859,-2.64287" fill="none"/><path d="M350.58133,218.64376c0,0 -15.06494,-4.03769 -16.40681,-8.61704c-1.34184,-4.57935 4.40412,-5.19096 4.40412,-5.19096z" fill="#61ff00"/><path d="M309.74315,228.72257c0,0 -4.46112,-2.79358 -0.12174,-6.15844c4.33938,-3.36486 19.97504,-0.83966 19.97504,-0.83966z" data-paper-data="{&quot;index&quot;:null}" fill="#61ff00"/><path d="M353.37842,226.85224c0,0 -3.74162,-2.3783 -0.05193,-5.1976c3.6897,-2.8193 16.86358,-0.61525 16.86358,-0.61525z" data-paper-data="{&quot;index&quot;:null}" fill="#61ff00"/></g><path d="M284.55688,217.33815c0,-2.11232 1.71238,-3.8247 3.8247,-3.8247c2.11232,0 3.8247,1.71238 3.8247,3.8247c0,2.11232 -1.71238,3.8247 -3.8247,3.8247c-2.11232,0 -3.8247,-1.71238 -3.8247,-3.8247z" fill="#2d6a2b" stroke="#000000" stroke-width="2" stroke-linecap="butt"/></g></g></svg>