<svg version="1.1" xmlns="http://www.w3.org/2000/svg" xmlns:xlink="http://www.w3.org/1999/xlink" width="71.3068" height="90.94203" viewBox="0,0,71.3068,90.94203"><g transform="translate(-199.79109,-131.6325)"><g data-paper-data="{&quot;isPaintingLayer&quot;:true}" fill-rule="nonzero" stroke="#000000" stroke-width="2" stroke-linejoin="miter" stroke-miterlimit="10" stroke-dasharray="" stroke-dashoffset="0" style="mix-blend-mode: normal"><path d="M220.82372,148.14787c0,0 -4.57679,-1.04643 -6.07178,-1.65492c-1.8871,-0.7681 -4.35095,-2.58739 -4.35095,-2.58739" data-paper-data="{&quot;index&quot;:null}" fill="none" stroke-linecap="round"/><path d="M206.97873,136.1949c2.77462,0.58181 4.55225,3.30272 3.97044,6.07734c-0.5818,2.77462 -3.30272,4.55225 -6.07734,3.97044c-2.77462,-0.58181 -4.55225,-3.30272 -3.97044,-6.07734c0.58181,-2.77462 3.30272,-4.55225 6.07734,-3.97044z" data-paper-data="{&quot;index&quot;:null}" fill="#2d6a2b" stroke-linecap="butt"/><path d="M260.55569,192.85632c3.90092,-3.04277 6.63503,-1.80357 8.65212,0.78241c2.01713,2.586 0.49002,7.14903 -3.41091,10.19179c-3.90092,3.04277 -7.58416,4.84158 -9.60128,2.25561c-0.77906,-0.99877 -2.08045,-8.20612 4.36005,-13.22983z" data-paper-data="{&quot;index&quot;:null}" fill="#2d6a2b" stroke-linecap="butt"/><path d="M222.46475,156.87572c-1.88232,-8.97671 3.86883,-17.77967 12.84552,-19.66198c8.97671,-1.88232 17.77967,3.86883 19.66198,12.84553c1.88232,8.97671 -3.86883,17.77967 -12.84552,19.66198c-8.97671,1.88232 -17.77967,-3.86883 -19.66198,-12.84553z" fill="#2d6a2b" stroke-linecap="butt"/><path d="M227.43478,137.05249c13.3864,-8.48212 25.18263,-2.14686 25.18263,-2.14686l-33.51304,23.60026c0,0 -6.06216,-12.33373 8.33041,-21.45341z" fill="#367e33" stroke-linecap="round"/><path d="M233.96497,200.71681l-4.72683,-25.1243l7.71535,-1.45155l4.72682,25.12429z" fill="#2d6a2b" stroke-linecap="butt"/><path d="M213.28733,182.17506c0,-2.11232 1.71238,-3.8247 3.8247,-3.8247c2.11232,0 3.8247,1.71238 3.8247,3.8247c0,2.11232 -1.71238,3.8247 -3.8247,3.8247c-2.11232,0 -3.8247,-1.71238 -3.8247,-3.8247z" fill="#2d6a2b" stroke-linecap="butt"/><path d="M244.03188,173.74765c0,-2.11232 1.71238,-3.8247 3.8247,-3.8247c2.11232,0 3.8247,1.71238 3.8247,3.8247c0,2.11232 -1.71238,3.8247 -3.8247,3.8247c-2.11232,0 -3.8247,-1.71238 -3.8247,-3.8247z" fill="#2d6a2b" stroke-linecap="butt"/><path d="M232.42168,209.66784c4.94695,-0.0583 6.37185,2.58378 6.41049,5.86318c0.03866,3.27944 -3.94029,5.98522 -8.88723,6.04351c-4.94695,0.0583 -8.9672,-0.74135 -9.00588,-4.02077c-0.01493,-1.26659 3.31509,-7.78967 11.4826,-7.88595z" data-paper-data="{&quot;index&quot;:null}" fill="#2d6a2b" stroke-linecap="butt"/></g></g></svg>