<svg version="1.1" xmlns="http://www.w3.org/2000/svg" xmlns:xlink="http://www.w3.org/1999/xlink" width="82.18221" height="98.22529" viewBox="0,0,82.18221,98.22529"><defs><linearGradient x1="184.3077" y1="166.26029" x2="214.17463" y2="170.47682" gradientUnits="userSpaceOnUse" id="color-1"><stop offset="0" stop-color="#e80000" stop-opacity="0"/><stop offset="1" stop-color="#e80000"/></linearGradient><linearGradient x1="250.43033" y1="142.26002" x2="240.44768" y2="170.72331" gradientUnits="userSpaceOnUse" id="color-2"><stop offset="0" stop-color="#e80000" stop-opacity="0"/><stop offset="1" stop-color="#e80000"/></linearGradient></defs><g transform="translate(-184.41977,-132.59309)"><g data-paper-data="{&quot;isPaintingLayer&quot;:true}" fill-rule="nonzero" stroke="#000000" stroke-linejoin="miter" stroke-miterlimit="10" stroke-dasharray="" stroke-dashoffset="0" style="mix-blend-mode: normal"><path d="M249.75768,216.81746c-3.8217,3.14167 -6.58665,1.97288 -8.66934,-0.56061c-2.08268,-2.5335 -0.67292,-7.13413 3.14879,-10.27581c3.8217,-3.14167 7.45769,-5.03422 9.54038,-2.50073c0.80437,0.97847 2.28992,8.15014 -4.01981,13.33713z" data-paper-data="{&quot;index&quot;:null}" fill="#e80000" stroke-width="2" stroke-linecap="butt"/><path d="M205.53588,188.67287c-2.04555,0.52697 -4.13098,-0.70408 -4.65794,-2.74961c-0.52697,-2.04555 0.70408,-4.13098 2.74961,-4.65794c2.04555,-0.52697 4.13098,0.70408 4.65794,2.74961c0.52697,2.04555 -0.70408,4.13098 -2.74961,4.65794z" data-paper-data="{&quot;index&quot;:null}" fill="#e80000" stroke-width="2" stroke-linecap="butt"/><path d="M211.23472,188.41361c-2.60998,8.24374 -8.52971,6.66642 -14.38593,1.94141c-5.85624,-4.72501 -9.27173,-13.23191 -11.81584,-23.08199c-3.7899,-14.6734 11.22762,-26.63138 11.22762,-26.63138c0,0 -4.42867,15.23478 3.54589,26.85206c7.14512,10.409 14.03827,12.67614 11.42828,20.9199z" data-paper-data="{&quot;index&quot;:null}" fill="url(#color-1)" stroke-width="0" stroke-linecap="butt"/><path d="M218.92205,151.17434c-0.55471,-9.15514 6.4173,-17.02653 15.57243,-17.58125c9.15514,-0.55471 17.02653,6.4173 17.58125,15.57243c0.55471,9.15514 -6.4173,17.02653 -15.57243,17.58125c-9.15514,0.55471 -17.02653,-6.4173 -17.58125,-15.57243z" fill="#e80000" stroke-width="2" stroke-linecap="butt"/><path d="M242.33917,195.51686l-6.02275,-24.84553l7.62973,-1.8495l6.02275,24.84553z" fill="#e80000" stroke-width="2" stroke-linecap="butt"/><path d="M259.57643,225.15073c-1.49598,4.71567 -4.45163,5.24016 -7.57776,4.24845c-3.12613,-0.99171 -4.44763,-5.61847 -2.95164,-10.33416c1.49598,-4.71567 3.51604,-8.28239 6.64217,-7.29068c1.20737,0.38301 6.35712,5.59068 3.88723,13.37638z" data-paper-data="{&quot;index&quot;:null}" fill="#e80000" stroke-width="2" stroke-linecap="butt"/><path d="M217.75892,149.76509l-1.72114,-5.32896l31.78335,-10.26539l1.72114,5.32895z" fill="#ff2121" stroke-width="2" stroke-linecap="butt"/><path d="M217.02778,142.84604c0,0 2.99836,-0.62461 5.03382,-0.53479c1.61251,0.07117 6.20826,1.03092 6.20826,1.03092" fill="none" stroke-width="2" stroke-linecap="round"/><path d="M205.71995,142.46556c0.62963,-2.76416 3.38081,-4.49455 6.14497,-3.86494c2.76416,0.62963 4.49455,3.38081 3.86494,6.14497c-0.62963,2.76416 -3.38081,4.49455 -6.14497,3.86494c-2.76416,-0.62963 -4.49455,-3.38081 -3.86494,-6.14497z" fill="#e80000" stroke-width="2" stroke-linecap="butt"/><path d="M256.29597,171.39023c-1.57446,-1.40817 -1.70928,-3.82609 -0.30109,-5.40057c1.40817,-1.57446 3.82609,-1.70928 5.40057,-0.30109c1.57446,1.40817 1.70928,3.82609 0.30109,5.40057c-1.40817,1.57446 -3.82609,1.70928 -5.40057,0.30109z" data-paper-data="{&quot;index&quot;:null}" fill="#e80000" stroke-width="2" stroke-linecap="butt"/><path d="M257.72886,176.35643c-8.52102,-1.47102 -7.36628,-8.63496 -13.32664,-19.76483c-6.65222,-12.42186 -22.21799,-15.49088 -22.21799,-15.49088c0,0 17.52242,-7.84119 28.81218,2.26886c7.57868,6.78675 13.56398,13.73003 15.06869,21.10276c1.50474,7.37273 0.18475,13.35509 -8.33625,11.88407z" data-paper-data="{&quot;index&quot;:null}" fill="url(#color-2)" stroke-width="0" stroke-linecap="butt"/></g></g></svg>