<svg version="1.1" xmlns="http://www.w3.org/2000/svg" xmlns:xlink="http://www.w3.org/1999/xlink" width="89.25712" height="103.93392" viewBox="0,0,89.25712,103.93392"><defs><linearGradient x1="256.50418" y1="181.56179" x2="256.50418" y2="209.3638" gradientUnits="userSpaceOnUse" id="color-1"><stop offset="0" stop-color="#ff0000"/><stop offset="1" stop-color="#ff0000" stop-opacity="0"/></linearGradient><linearGradient x1="257.32631" y1="184.33931" x2="218.23906" y2="249.67863" gradientUnits="userSpaceOnUse" id="color-2"><stop offset="0" stop-color="#e60000" stop-opacity="0"/><stop offset="1" stop-color="#e60000"/></linearGradient></defs><g transform="translate(-198.59538,-154.12143)"><g data-paper-data="{&quot;isPaintingLayer&quot;:true}" fill-rule="nonzero" stroke-linejoin="miter" stroke-miterlimit="10" stroke-dasharray="" stroke-dashoffset="0" style="mix-blend-mode: normal"><path d="M265.25584,187.07145c0,-2.11232 1.71238,-3.8247 3.8247,-3.8247c2.11232,0 3.8247,1.71238 3.8247,3.8247c0,2.11232 -1.71238,3.8247 -3.8247,3.8247c-2.11232,0 -3.8247,-1.71238 -3.8247,-3.8247z" fill="#181818" stroke="#000000" stroke-width="2" stroke-linecap="butt"/><path d="M233.59996,208.67475l4.59306,-25.14911l7.72296,1.41047l-4.59306,25.14911z" fill="#181818" stroke="#000000" stroke-width="2" stroke-linecap="butt"/><path d="M219.90641,214.34387c4.11347,0 7.4481,2.47844 7.4481,5.53575c0,3.05731 -3.33463,5.53575 -7.4481,5.53575c-4.11347,0 -7.4481,-2.47844 -7.4481,-5.53575c0,-3.05731 3.33463,-5.53575 7.4481,-5.53575z" data-paper-data="{&quot;index&quot;:null}" fill="#181818" stroke="#000000" stroke-width="2" stroke-linecap="butt"/><path d="M258.91935,213.94127c4.94728,0 6.34095,2.65869 6.34095,5.93835c0,3.27966 -4.01056,5.93835 -8.95785,5.93835c-4.94728,0 -8.95785,-0.84699 -8.95785,-4.12665c0,-1.26666 3.40667,-7.75005 11.57475,-7.75005z" data-paper-data="{&quot;index&quot;:null}" fill="#181818" stroke="#000000" stroke-width="2" stroke-linecap="butt"/><path d="M236.3824,181.53189l14.13411,2.88832l-4.44483,3.48574l3.29428,4.89915l-16.98508,-1.87418l5.16037,-4.27595z" fill="#0e0e0e" stroke="#000000" stroke-width="2" stroke-linecap="round"/><path d="M209.20763,197.94313c0,-2.11232 1.71238,-3.8247 3.8247,-3.8247c2.11232,0 3.8247,1.71238 3.8247,3.8247c0,2.11232 -1.71238,3.8247 -3.8247,3.8247c-2.11232,0 -3.8247,-1.71238 -3.8247,-3.8247z" fill="#181818" stroke="#000000" stroke-width="2" stroke-linecap="butt"/><path d="M225.50114,161.64286c0,0 3.00193,-0.60728 5.03682,-0.5057c1.61207,0.08048 6.2022,1.06677 6.2022,1.06677" fill="#181818" stroke="#000000" stroke-width="2" stroke-linecap="round"/><path d="M214.93797,161.04448c0.64558,-2.76047 3.40672,-4.47496 6.1672,-3.82937c2.76047,0.64558 4.47496,3.40672 3.82937,6.1672c-0.64558,2.76047 -3.40672,4.47496 -6.1672,3.82937c-2.76047,-0.64558 -4.47496,-3.40672 -3.82937,-6.1672z" fill="#181818" stroke="#000000" stroke-width="2" stroke-linecap="butt"/><path d="M235.05008,175.14537c0,-9.17193 7.43532,-16.60724 16.60724,-16.60724c9.17193,0 16.60724,7.43532 16.60724,16.60724c0,9.17193 -7.43532,16.60724 -16.60724,16.60724c-9.17193,0 -16.60724,-7.43532 -16.60724,-16.60724z" fill="#181818" stroke="#000000" stroke-width="2" stroke-linecap="butt"/><path d="M249.04299,186.55167v-5.24474c0,0 6.02695,1.72595 8.9956,1.72595c3.10679,0 9.24958,-1.72595 9.24958,-1.72595v5.24474z" fill="#ff0000" stroke="#000000" stroke-width="2" stroke-linecap="butt"/><path d="M287.8525,209.3638l-62.69665,-0.10568l24.39775,-26.10256c0,0 4.43001,1.39382 8.29894,1.40696c3.60104,0.01222 8.70317,-1.10301 8.70317,-1.10301z" data-paper-data="{&quot;index&quot;:null}" fill="url(#color-1)" stroke="#000000" stroke-width="0" stroke-linecap="butt"/><path d="M199.01055,230.86766c-3.0697,-5.80189 11.80787,-24.40111 14.29588,-23.89738c4.85968,0.98392 8.24928,4.93488 15.14923,9.06256c1.35211,0.80886 20.72999,-36.4122 29.46613,-31.3367c11.54833,6.70933 -17.47394,38.51066 -15.81048,39.50577c8.008,4.79054 14.08052,7.07362 16.64281,9.95605c1.70279,1.91554 -9.58393,23.9158 -14.29588,23.89738c-11.04013,-0.04314 -35.78208,-8.91913 -45.4477,-27.1877z" fill="url(#color-2)" stroke="none" stroke-width="0" stroke-linecap="butt"/><g stroke="#000000" stroke-width="2"><g><path d="M234.01574,177.71495l2.2434,-17.82882c0,0 11.34062,4.49088 17.04853,5.32644c5.99381,0.87741 18.09853,-0.1814 18.09853,-0.1814l-2.2434,17.82882c0,0 -12.16873,0.24064 -17.9986,-0.61276c-5.88528,-0.86152 -17.14846,-4.53228 -17.14846,-4.53228z" fill="#343434" stroke-linecap="butt"/><path d="M282.06519,183.53553c0,0 -19.9039,0.7259 -29.92654,-0.74127c-10.19187,-1.49194 -30.72549,-8.13735 -30.72549,-8.13735" fill="none" stroke-linecap="round"/></g><path d="M271.97669,163.32485c-0.34493,2.74128 -8.57449,3.79976 -18.38123,2.36419c-9.80674,-1.43557 -17.47704,-4.82157 -17.1321,-7.56285c0.34493,-2.74128 8.57449,-3.79976 18.38122,-2.36419c9.80674,1.43557 17.47705,4.82157 17.13211,7.56285z" fill="#252525" stroke-linecap="butt"/></g></g></g></svg>