<svg version="1.1" xmlns="http://www.w3.org/2000/svg" xmlns:xlink="http://www.w3.org/1999/xlink" width="101.57885" height="61.75692" viewBox="0,0,101.57885,61.75692"><g transform="translate(-214.0421,-165.06105)"><g data-paper-data="{&quot;isPaintingLayer&quot;:true}" fill-rule="nonzero" stroke="#000000" stroke-width="2" stroke-linejoin="miter" stroke-miterlimit="10" stroke-dasharray="" stroke-dashoffset="0" style="mix-blend-mode: normal"><g data-paper-data="{&quot;index&quot;:null}" fill="#181818" stroke-linecap="butt"><path d="M249.16983,208.55079c-0.68485,-3.36571 1.46661,-4.14534 1.46661,-4.14534l13.15007,-3.48718c0,0 -0.95652,2.84823 -0.67495,4.17367c0.2608,1.22769 2.30679,3.50824 2.30679,3.50824l-13.15005,3.48719c0,0 -2.29248,0.42448 -3.0985,-3.53654z"/><path d="M263.13954,205.00487c-0.43897,-2.17931 0.33335,-4.20052 1.72503,-4.51443c1.39169,-0.31392 2.87572,1.19828 3.31471,3.37759c0.43897,2.17931 -0.33336,4.20048 -1.72502,4.51442c-1.39169,0.31392 -2.87572,-1.19827 -3.31471,-3.37759z"/></g><path d="M266.20362,196.07957l4.60122,16.21224l-4.84358,-3.11268l-2.19426,5.68832l-5.18251,-14.70827l4.21928,-0.54225z" data-paper-data="{&quot;index&quot;:null}" fill="#0e0e0e" stroke-linecap="round"/><path d="M230.1884,184.61125c0,-2.11232 1.71238,-3.8247 3.8247,-3.8247c2.11232,0 3.8247,1.71238 3.8247,3.8247c0,2.11232 -1.71238,3.8247 -3.8247,3.8247c-2.11232,0 -3.8247,-1.71238 -3.8247,-3.8247z" fill="#181818" stroke-linecap="butt"/><path d="M272.34685,173.23619c0,0 2.94666,0.83524 4.70898,1.85763c1.39614,0.80997 5.02463,3.78925 5.02463,3.78925" fill="#181818" stroke-linecap="round"/><path d="M263.2311,167.86572c1.83833,-2.15812 5.0781,-2.41741 7.23624,-0.57907c2.15812,1.83833 2.41741,5.0781 0.57907,7.23624c-1.83833,2.15812 -5.0781,2.41741 -7.23624,0.57907c-2.15812,-1.83833 -2.41741,-5.0781 -0.57907,-7.23624z" fill="#181818" stroke-linecap="butt"/><path d="M274.65016,189.61285c4.20129,-8.15313 14.21651,-11.35673 22.36964,-7.15544c8.15313,4.20129 11.35673,14.21651 7.15544,22.36964c-4.20129,8.15313 -14.21651,11.35673 -22.36964,7.15544c-8.15313,-4.20129 -11.35673,-14.21651 -7.15544,-22.36964z" fill="#181818" stroke-linecap="butt"/><path d="M222.4902,214.34387c4.11347,0 7.4481,2.47844 7.4481,5.53575c0,3.05731 -3.33463,5.53575 -7.4481,5.53575c-4.11347,0 -7.4481,-2.47844 -7.4481,-5.53575c0,-3.05731 3.33463,-5.53575 7.4481,-5.53575z" data-paper-data="{&quot;index&quot;:null}" fill="#181818" stroke-linecap="butt"/><path d="M279.00969,213.94127c4.94728,0 6.34095,2.65869 6.34095,5.93835c0,3.27966 -4.01056,5.93835 -8.95785,5.93835c-4.94728,0 -8.95785,-0.84699 -8.95785,-4.12665c0,-1.26666 3.40667,-7.75005 11.57475,-7.75005z" data-paper-data="{&quot;index&quot;:null}" fill="#181818" stroke-linecap="butt"/><path d="M283.39825,206.95231l2.4024,-4.66217l16.21853,8.35736l-2.4024,4.66217z" fill="#ff0000" stroke-linecap="butt"/><g><g><path d="M274.86635,188.9488l9.03636,-12.47535c0,0 8.14636,8.86611 12.81173,12.24541c4.89906,3.54857 15.91581,8.56302 15.91581,8.56302l-9.03636,12.47535c0,0 -10.74823,-5.6672 -15.5133,-9.11872c-4.81035,-3.48432 -13.21425,-11.68971 -13.21425,-11.68971z" fill="#343434" stroke-linecap="butt"/><path d="M314.62095,216.47364c0,0 -17.71227,-9.017 -25.90429,-14.95079c-8.33036,-6.03398 -23.6698,-20.95756 -23.6698,-20.95756" fill="none" stroke-linecap="round"/></g><path d="M313.80654,196.25896c-1.38939,1.91815 -9.01361,-1.23354 -17.02918,-7.03951c-8.01557,-5.80597 -13.38713,-12.0676 -11.99774,-13.98575c1.38939,-1.91815 9.01361,1.23354 17.02917,7.03951c8.01557,5.80597 13.38714,12.06761 11.99775,13.98576z" fill="#252525" stroke-linecap="butt"/></g><path d="M263.04564,213.52643c0,-2.11232 1.71238,-3.8247 3.8247,-3.8247c2.11232,0 3.8247,1.71238 3.8247,3.8247c0,2.11232 -1.71238,3.8247 -3.8247,3.8247c-2.11232,0 -3.8247,-1.71238 -3.8247,-3.8247z" fill="#181818" stroke-linecap="butt"/></g></g></svg>