<svg version="1.1" xmlns="http://www.w3.org/2000/svg" xmlns:xlink="http://www.w3.org/1999/xlink" width="86.90916" height="59.66387" viewBox="0,0,86.90916,59.66387"><g transform="translate(-218.47193,-166.56268)"><g data-paper-data="{&quot;isPaintingLayer&quot;:true}" fill-rule="nonzero" stroke="#000000" stroke-width="2" stroke-linejoin="miter" stroke-miterlimit="10" stroke-dasharray="" stroke-dashoffset="0" style="mix-blend-mode: normal"><path d="M235.24741,214.88179l7.24916,-24.51578l7.52846,2.22613l-7.24916,24.51578z" fill="#e80000" stroke-linecap="butt"/><path d="M221.09245,200.91051c0,-2.11232 1.71238,-3.8247 3.8247,-3.8247c2.11232,0 3.8247,1.71238 3.8247,3.8247c0,2.11232 -1.71238,3.8247 -3.8247,3.8247c-2.11232,0 -3.8247,-1.71238 -3.8247,-3.8247z" fill="#e80000" stroke-linecap="butt"/><path d="M296.7317,200.90559c0,-2.11232 1.71238,-3.8247 3.8247,-3.8247c2.11232,0 3.8247,1.71238 3.8247,3.8247c0,2.11232 -1.71238,3.8247 -3.8247,3.8247c-2.11232,0 -3.8247,-1.71238 -3.8247,-3.8247z" fill="#e80000" stroke-linecap="butt"/><path d="M227.18279,213.75245c4.11347,0 7.4481,2.47844 7.4481,5.53575c0,3.05731 -3.33463,5.53575 -7.4481,5.53575c-4.11347,0 -7.4481,-2.47844 -7.4481,-5.53575c0,-3.05731 3.33463,-5.53575 7.4481,-5.53575z" data-paper-data="{&quot;index&quot;:null}" fill="#e80000" stroke-linecap="butt"/><path d="M256.06342,213.34985c4.94728,0 6.34095,2.65869 6.34095,5.93835c0,3.27966 -4.01056,5.93835 -8.95785,5.93835c-4.94728,0 -8.95785,-0.84699 -8.95785,-4.12665c0,-1.26666 3.40667,-7.75005 11.57475,-7.75005z" data-paper-data="{&quot;index&quot;:null}" fill="#e80000" stroke-linecap="butt"/><path d="M229.73252,178.47852c0,0 2.93018,-0.89129 4.96546,-0.98458c1.61238,-0.0739 6.27574,0.46938 6.27574,0.46938" data-paper-data="{&quot;index&quot;:null}" fill="none" stroke-linecap="round"/><path d="M219.52914,178.82902c0.37891,-2.80953 2.96362,-4.77994 5.77316,-4.40104c2.80953,0.37891 4.77993,2.96362 4.40104,5.77315c-0.37891,2.80953 -2.96362,4.77994 -5.77315,4.40105c-2.80953,-0.37891 -4.77994,-2.96362 -4.40104,-5.77315z" data-paper-data="{&quot;index&quot;:null}" fill="#e80000" stroke-linecap="butt"/><path d="M238.75255,183.16626c0.5546,-9.15515 8.42591,-16.12726 17.58105,-15.57266c9.15515,0.5546 16.12726,8.42591 15.57266,17.58105c-0.5546,9.15515 -8.42591,16.12726 -17.58105,15.57266c-9.15515,-0.5546 -16.12726,-8.42591 -15.57266,-17.58105z" fill="#e80000" stroke-linecap="butt"/><path d="M237.76808,181.62689l-1.06521,-5.49776l32.79018,-6.35323l1.06521,5.49775z" fill="#ff2121" stroke-linecap="butt"/></g></g></svg>