<svg version="1.1" xmlns="http://www.w3.org/2000/svg" xmlns:xlink="http://www.w3.org/1999/xlink" width="81.44674" height="119.93939" viewBox="0,0,81.44674,119.93939"><g transform="translate(-173.53237,-127.1256)"><g data-paper-data="{&quot;isPaintingLayer&quot;:true}" fill-rule="nonzero" stroke="#000000" stroke-width="2" stroke-linejoin="miter" stroke-miterlimit="10" stroke-dasharray="" stroke-dashoffset="0" style="mix-blend-mode: normal"><path d="M244.73169,129.9258c6.42343,5.04548 6.8777,11.23943 6.09528,12.23554c-2.02586,2.57916 -7.48308,1.77685 -11.37366,-1.27913c-3.8906,-3.056 -5.40224,-7.62416 -3.37637,-10.20331c2.02588,-2.57916 4.76418,-3.80911 8.65475,-0.75312z" data-paper-data="{&quot;index&quot;:null}" fill="#ff6b00" stroke-linecap="butt"/><path d="M229.56661,208.33411c-8.35494,3.7841 -18.19555,0.07872 -21.97965,-8.27622c-3.7841,-8.35494 -0.07872,-18.19556 8.27621,-21.97966c8.35494,-3.7841 18.19555,-0.07873 21.97965,8.2762c3.7841,8.35494 0.07872,18.19556 -8.27621,21.97966z" fill="#ff6b00" stroke-linecap="butt"/><path d="M253.82781,158.56432l-4.21845,25.21465l-7.74308,-1.29542l4.21844,-25.21465z" data-paper-data="{&quot;index&quot;:null}" fill="#ff6b00" stroke-linecap="butt"/><path d="M228.38835,220.39902c0,0 -2.37931,-1.92856 -3.59631,-3.56256c-0.96415,-1.2945 -3.12546,-5.46231 -3.12546,-5.46231" fill="none" stroke-linecap="round"/><path d="M234.39249,228.65628c-2.53987,1.25938 -5.61978,0.22132 -6.87915,-2.31856c-1.25938,-2.53987 -0.22133,-5.61976 2.31856,-6.87913c2.53987,-1.25938 5.61979,-0.22133 6.87915,2.31855c1.25938,2.53987 0.22132,5.61978 -2.31855,6.87915z" fill="#ff6b00" stroke-linecap="butt"/><path d="M234.50506,211.10418l-12.84268,1.17507l-8.50321,33.08504l-37.85062,-28.51972l28.69212,-17.54033l-2.51715,-12.61949z" data-paper-data="{&quot;index&quot;:null}" fill="#ffa340" stroke-linecap="butt"/><path d="M233.88738,136.62983c7.98846,1.70352 11.26928,7.04404 11.0051,8.28285c-0.68398,3.20752 -6.0842,4.91023 -10.9227,3.87844c-4.8385,-1.03179 -8.20639,-4.46844 -7.5224,-7.67598c0.684,-3.20754 2.6015,-5.51711 7.44,-4.48533z" data-paper-data="{&quot;index&quot;:null}" fill="#ff6b00" stroke-linecap="butt"/><path d="M236.99342,157.39858c0.45214,2.06336 -0.85401,4.1026 -2.91738,4.55473c-2.06336,0.45214 -4.1026,-0.85401 -4.55473,-2.91737c-0.45214,-2.06336 0.85402,-4.1026 2.91738,-4.55473c2.06336,-0.45214 4.1026,0.85401 4.55473,2.91738z" fill="#ff6b00" stroke-linecap="butt"/><path d="M236.94421,162.2782c0.45214,2.06336 -0.85401,4.1026 -2.91738,4.55473c-2.06336,0.45214 -4.1026,-0.85401 -4.55473,-2.91737c-0.45214,-2.06336 0.85401,-4.1026 2.91737,-4.55473c2.06336,-0.45214 4.1026,0.85401 4.55473,2.91738z" fill="#ff6b00" stroke-linecap="butt"/></g></g></svg>