<svg version="1.1" xmlns="http://www.w3.org/2000/svg" xmlns:xlink="http://www.w3.org/1999/xlink" width="116.70497" height="70.7882" viewBox="0,0,116.70497,70.7882"><g transform="translate(-188.1263,-148.8728)"><g data-paper-data="{&quot;isPaintingLayer&quot;:true}" fill-rule="nonzero" stroke="#000000" stroke-width="2" stroke-linejoin="miter" stroke-miterlimit="10" stroke-dasharray="" stroke-dashoffset="0" style="mix-blend-mode: normal"><path d="M219.19891,190.29491c0,-2.11232 1.71238,-3.8247 3.8247,-3.8247c2.11232,0 3.8247,1.71238 3.8247,3.8247c0,2.11232 -1.71238,3.8247 -3.8247,3.8247c-2.11232,0 -3.8247,-1.71238 -3.8247,-3.8247z" fill="#ffe819" stroke-linecap="butt"/><path d="M270.61679,174.31396c0,-9.17193 7.43532,-16.60724 16.60724,-16.60724c9.17193,0 16.60724,7.43532 16.60724,16.60724c0,9.17193 -7.43532,16.60724 -16.60724,16.60724c-9.17193,0 -16.60724,-7.43532 -16.60724,-16.60724z" fill="#ffe819" stroke-linecap="butt"/><path d="M238.11518,196.2289l23.66611,-9.66896l2.96921,7.26755l-23.66612,9.66896z" fill="#ffe819" stroke-linecap="butt"/><path d="M214.0834,192.24444c0,-2.11232 1.71238,-3.8247 3.8247,-3.8247c2.11232,0 3.8247,1.71238 3.8247,3.8247c0,2.11232 -1.71238,3.8247 -3.8247,3.8247c-2.11232,0 -3.8247,-1.71238 -3.8247,-3.8247z" fill="#ffe819" stroke-linecap="butt"/><path d="M263.87217,163.19444c0,0 -4.61807,0.84586 -6.23184,0.87715c-2.03704,0.03949 -5.01905,-0.65906 -5.01905,-0.65906" data-paper-data="{&quot;index&quot;:null}" fill="none" stroke-linecap="round"/><path d="M246.43238,157.67983c2.77888,-0.5611 5.48646,1.23677 6.04756,4.01565c0.5611,2.77888 -1.23677,5.48646 -4.01565,6.04756c-2.77888,0.5611 -5.48646,-1.23677 -6.04756,-4.01565c-0.5611,-2.77888 1.23677,-5.48646 4.01565,-6.04756z" data-paper-data="{&quot;index&quot;:null}" fill="#ffe819" stroke-linecap="butt"/><path d="M293.15278,200.81792c3.56124,-3.43412 6.40996,-2.4877 8.68652,-0.12688c2.27655,2.36082 1.23511,7.05855 -2.32613,10.49267c-3.56124,3.43412 -12.78669,7.32127 -15.06325,4.96045c-0.87924,-0.91179 2.82317,-9.65643 8.70286,-15.32625z" data-paper-data="{&quot;index&quot;:null}" fill="#ffe819" stroke-linecap="butt"/><path d="M266.08784,174.26688l4.89612,-10.31864l-11.5487,-1.5813c0,0 13.57292,-11.79955 24.16781,-12.49414c10.59489,-0.69459 18.66148,9.6863 18.66148,9.6863z" data-paper-data="{&quot;index&quot;:null}" fill="#fff067" stroke-linecap="butt"/><path d="M197.69274,211.20591c-4.12316,2.73407 -6.75397,1.28846 -8.56644,-1.44488c-1.81247,-2.73333 0.06071,-7.16554 4.18388,-9.89961c4.12316,-2.73407 7.93373,-4.24456 9.74621,-1.51123c0.70001,1.05566 1.4438,8.34171 -5.36364,12.85572z" data-paper-data="{&quot;index&quot;:null}" fill="#ffe819" stroke-linecap="butt"/><path d="M203.05079,199.0294c0,0 10.17246,14.73483 8.0614,17.73262c-4.31916,6.13339 -19.64966,-4.55297 -19.64966,-4.55297" fill="#ffe819" stroke-linecap="round"/></g></g></svg>