<svg version="1.1" xmlns="http://www.w3.org/2000/svg" xmlns:xlink="http://www.w3.org/1999/xlink" width="69.07887" height="90.10219" viewBox="0,0,69.07887,90.10219"><g transform="translate(-191.65496,-139.11798)"><g data-paper-data="{&quot;isPaintingLayer&quot;:true}" fill-rule="nonzero" stroke="#000000" stroke-width="2" stroke-linejoin="miter" stroke-miterlimit="10" stroke-dasharray="" stroke-dashoffset="0" style="mix-blend-mode: normal"><path d="M222.80306,157.69174c1.55354,-9.0394 10.14081,-15.1079 19.18021,-13.55436c9.0394,1.55354 15.1079,10.14081 13.55436,19.18021c-1.55354,9.0394 -10.14081,15.10789 -19.1802,13.55435c-9.0394,-1.55354 -15.1079,-10.1408 -13.55436,-19.1802z" fill="#2d6a2b" stroke-linecap="butt"/><path d="M234.71989,141.089c15.56856,-2.96013 24.20524,7.2719 24.20524,7.2719l-39.84654,9.60987c0,0 -1.09744,-13.69913 15.6413,-16.88176z" fill="#367e33" stroke-linecap="round"/><path d="M219.6943,201.58483l7.50516,-24.43862l7.50477,2.30474l-7.50516,24.43862z" fill="#2d6a2b" stroke-linecap="butt"/><path d="M209.77412,190.21957c0,-2.11232 1.71238,-3.8247 3.8247,-3.8247c2.11232,0 3.8247,1.71238 3.8247,3.8247c0,2.11232 -1.71238,3.8247 -3.8247,3.8247c-2.11232,0 -3.8247,-1.71238 -3.8247,-3.8247z" fill="#2d6a2b" stroke-linecap="butt"/><path d="M239.39419,183.48564c0,-2.11232 1.71238,-3.8247 3.8247,-3.8247c2.11232,0 3.8247,1.71238 3.8247,3.8247c0,2.11232 -1.71238,3.8247 -3.8247,3.8247c-2.11232,0 -3.8247,-1.71238 -3.8247,-3.8247z" fill="#2d6a2b" stroke-linecap="butt"/><path d="M227.05706,222.79787c-0.80553,4.88125 -3.65567,5.82344 -6.89156,5.28943c-3.2359,-0.53401 -5.20608,-4.92395 -4.40056,-9.80521c0.80553,-4.88125 2.29423,-8.70041 5.53013,-8.1664c1.24975,0.20624 7.09194,4.62311 5.76197,12.68218z" data-paper-data="{&quot;index&quot;:null}" fill="#2d6a2b" stroke-linecap="butt"/><path d="M215.08934,144.40099c0,0 2.96048,-0.78481 4.99781,-0.80448c1.614,-0.01558 6.25468,0.69585 6.25468,0.69585" fill="none" stroke-linecap="round"/><path d="M204.87996,144.38252c0.48019,-2.794 3.13443,-4.66972 5.92843,-4.18954c2.794,0.48019 4.66972,3.13443 4.18953,5.92843c-0.48019,2.794 -3.13443,4.66972 -5.92843,4.18954c-2.794,-0.48019 -4.66971,-3.13443 -4.18953,-5.92843z" fill="#2d6a2b" stroke-linecap="butt"/><path d="M199.583,214.18036c-4.92007,0.51817 -6.58454,-1.97994 -6.92804,-5.24155c-0.3435,-3.26162 3.36656,-6.32574 8.28662,-6.84391c4.92007,-0.51817 8.9973,-0.09588 9.34078,3.16573c0.13268,1.25969 -2.57623,8.06423 -10.69938,8.91973z" data-paper-data="{&quot;index&quot;:null}" fill="#2d6a2b" stroke-linecap="butt"/></g></g></svg>