<svg version="1.1" xmlns="http://www.w3.org/2000/svg" xmlns:xlink="http://www.w3.org/1999/xlink" width="60.67536" height="107.6342" viewBox="0,0,60.67536,107.6342"><defs><linearGradient x1="265.50041" y1="118.41718" x2="265.50041" y2="155.07857" gradientUnits="userSpaceOnUse" id="color-1"><stop offset="0" stop-color="#ff0000" stop-opacity="0"/><stop offset="1" stop-color="#ff0000"/></linearGradient></defs><g transform="translate(-219.74344,-119.91236)"><g data-paper-data="{&quot;isPaintingLayer&quot;:true}" fill-rule="nonzero" stroke="#000000" stroke-linejoin="miter" stroke-miterlimit="10" stroke-dasharray="" stroke-dashoffset="0" style="mix-blend-mode: normal"><path d="M259.36383,142.00209c-1.61608,4.76845 -10.36835,11.90798 -10.36835,11.90798l19.71828,1.16849c0,0 13.32733,-7.12383 5.2959,-21.43262c-9.45322,-16.84184 -27.12812,-13.45493 -27.12812,-13.45493c0,0 13.65475,18.35158 12.48229,21.81107z" fill="url(#color-1)" stroke-width="0" stroke-linecap="round"/><path d="M237.35036,205.47598c0,-2.11232 1.71238,-3.8247 3.8247,-3.8247c2.11232,0 3.8247,1.71238 3.8247,3.8247c0,2.11232 -1.71238,3.8247 -3.8247,3.8247c-2.11232,0 -3.8247,-1.71238 -3.8247,-3.8247z" fill="#181818" stroke-width="2" stroke-linecap="butt"/><path d="M258.61122,160.12664l-2.93846,-4.34427l15.11272,-10.22216l2.93846,4.34428z" fill="#ff0000" stroke-width="2" stroke-linecap="butt"/><path d="M242.12,168.90099c-4.21558,-8.14576 -1.02951,-18.16658 7.11624,-22.38214c8.14576,-4.21558 18.16658,-1.02952 22.38213,7.11624c4.21558,8.14576 1.02952,18.16658 -7.11624,22.38214c-8.14576,4.21558 -18.16658,1.02952 -22.38214,-7.11624z" fill="#181818" stroke-width="2" stroke-linecap="butt"/><path d="M248.40691,203.56612l0.67122,-25.55627l7.84799,0.20614l-0.67122,25.55627z" fill="#181818" stroke-width="2" stroke-linecap="butt"/><path d="M268.42365,213.94129c4.94728,0 6.34095,2.65869 6.34095,5.93835c0,3.27966 -4.01056,5.93835 -8.95785,5.93835c-4.94728,0 -8.95785,-0.84699 -8.95785,-4.12665c0,-1.26666 3.40667,-7.75005 11.57475,-7.75005z" data-paper-data="{&quot;index&quot;:null}" fill="#181818" stroke-width="2" stroke-linecap="butt"/><path d="M257.95561,182.81599l2.5888,7.16374l-17.83724,-1.91094l6.10912,-5.79176l-2.34509,-5.90235l15.61942,-0.21511z" data-paper-data="{&quot;index&quot;:null}" fill="#0e0e0e" stroke-width="2" stroke-linecap="round"/><g stroke-width="2"><g><path d="M241.79265,171.29372l-10.97361,-10.81065c0,0 9.99096,-6.71952 14.03379,-10.82329c4.24532,-4.30933 10.86039,-14.44613 10.86039,-14.44613l10.97361,10.81065c0,0 -7.21997,9.7731 -11.3492,13.96458c-4.16845,4.2313 -13.54497,11.30485 -13.54497,11.30485z" fill="#343434" stroke-linecap="butt"/><path d="M274.98603,136.13342c0,0 -11.57951,16.15381 -18.67841,23.35971c-7.21876,7.32755 -24.28055,20.2468 -24.28055,20.2468" fill="none" stroke-linecap="round"/></g><path d="M254.87895,133.89685c1.68726,1.66219 -2.57578,8.72537 -9.52177,15.77605c-6.94598,7.05068 -13.94457,11.41889 -15.63184,9.7567c-1.68726,-1.66219 2.57577,-8.72537 9.52176,-15.77605c6.94598,-7.05068 13.94459,-11.4189 15.63186,-9.7567z" fill="#252525" stroke-linecap="butt"/></g><path d="M232.39039,171.79693c0,0 1.82551,-2.45924 3.40624,-3.74469c1.25228,-1.01837 5.32431,-3.35512 5.32431,-3.35512" fill="#181818" stroke-width="2" stroke-linecap="round"/><path d="M224.13731,178.417c-1.36634,-2.48397 -0.46035,-5.60528 2.02365,-6.97161c2.48397,-1.36634 5.60528,-0.46035 6.97161,2.02364c1.36634,2.48397 0.46035,5.60528 -2.02364,6.97162c-2.48397,1.36634 -5.60528,0.46034 -6.97162,-2.02365z" fill="#181818" stroke-width="2" stroke-linecap="butt"/><path d="M233.4894,216.95396c3.09839,3.85688 1.89853,6.60847 -0.65827,8.66246c-2.55681,2.054 -7.14126,0.59248 -10.23966,-3.2644c-3.09839,-3.85688 -2.3833,-11.27834 2.77141,-13.83162c5.15471,-2.55327 3.01099,2.06577 8.12652,8.43356z" data-paper-data="{&quot;index&quot;:null}" fill="#181818" stroke-width="2" stroke-linecap="butt"/><path d="M271.78314,154.00587c-0.12655,-2.10853 1.48015,-3.92042 3.58868,-4.04698c2.10853,-0.12655 3.92042,1.48015 4.04697,3.58868c0.12655,2.10853 -1.48015,3.92042 -3.58868,4.04698c-2.10853,0.12655 -3.92042,-1.48015 -4.04697,-3.58868z" fill="#181818" stroke-width="2" stroke-linecap="butt"/></g></g></svg>