<svg version="1.1" xmlns="http://www.w3.org/2000/svg" xmlns:xlink="http://www.w3.org/1999/xlink" width="53.45281" height="78.07951" viewBox="0,0,53.45281,78.07951"><g transform="translate(-215.23808,-151.34473)"><g data-paper-data="{&quot;isPaintingLayer&quot;:true}" fill-rule="nonzero" stroke="#000000" stroke-width="2" stroke-linejoin="miter" stroke-miterlimit="10" stroke-dasharray="" stroke-dashoffset="0" style="mix-blend-mode: normal"><path d="M225.817,165.16193c0,0 2.44286,-1.84737 4.32104,-2.63702c1.48792,-0.62556 6.05244,-1.72431 6.05244,-1.72431" fill="none" stroke-linecap="round"/><path d="M216.36083,169.01065c-0.61352,-2.76778 1.13284,-5.50887 3.90062,-6.12239c2.76778,-0.61352 5.50887,1.13284 6.12239,3.90062c0.61352,2.76778 -1.13284,5.50887 -3.90062,6.12239c-2.76778,0.61352 -5.50887,-1.13284 -6.12239,-3.90062z" fill="#e80000" stroke-linecap="butt"/><path d="M234.6985,166.23209c1.50357,-9.04785 10.05719,-15.16368 19.10503,-13.66011c9.04785,1.50357 15.16368,10.05719 13.66011,19.10503c-1.50357,9.04785 -10.05719,15.16368 -19.10503,13.66011c-9.04785,-1.50357 -15.16368,-10.05719 -13.66011,-19.10503z" fill="#e80000" stroke-linecap="butt"/><path d="M237.94434,212.48617l5.11523,-25.04812l7.69194,1.57083l-5.11523,25.04812z" fill="#e80000" stroke-linecap="butt"/><path d="M225.83926,192.52586c0.34628,-2.08374 2.31621,-3.49224 4.39995,-3.14597c2.08374,0.34628 3.49224,2.31621 3.14597,4.39995c-0.34628,2.08374 -2.31621,3.49224 -4.39995,3.14597c-2.08374,-0.34628 -3.49224,-2.31621 -3.14597,-4.39995z" fill="#e80000" stroke-linecap="butt"/><path d="M257.3654,209.92391c0.34628,-2.08374 2.31621,-3.49224 4.39995,-3.14597c2.08374,0.34628 3.49224,2.31621 3.14597,4.39995c-0.34628,2.08374 -2.31621,3.49224 -4.39995,3.14597c-2.08374,-0.34628 -3.49224,-2.31621 -3.14597,-4.39995z" fill="#e80000" stroke-linecap="butt"/><path d="M229.1707,222.58685c-2.41897,4.31557 -5.41961,4.23133 -8.28049,2.62774c-2.86089,-1.60358 -3.21913,-6.40201 -0.80017,-10.71759c2.41897,-4.31557 5.11877,-7.39991 7.97966,-5.79632c1.10492,0.61933 5.09478,6.76106 1.10101,13.88618z" data-paper-data="{&quot;index&quot;:null}" fill="#e80000" stroke-linecap="butt"/><path d="M233.87943,164.5987l-0.48777,-5.57872l33.27306,-2.90917l0.48777,5.57871z" fill="#ff2121" stroke-linecap="butt"/><path d="M260.04978,217.3841c4.63958,1.71751 5.02357,4.69467 3.885,7.77036c-1.13858,3.07568 -5.82269,4.17669 -10.46229,2.45917c-4.63958,-1.71751 -8.10667,-3.90415 -6.9681,-6.97982c0.43974,-1.18788 5.88532,-6.08536 13.54539,-3.24971z" data-paper-data="{&quot;index&quot;:null}" fill="#e80000" stroke-linecap="butt"/></g></g></svg>