<svg version="1.1" xmlns="http://www.w3.org/2000/svg" xmlns:xlink="http://www.w3.org/1999/xlink" width="68.94378" height="81.23572" viewBox="0,0,68.94378,81.23572"><g transform="translate(-223.38766,-146.4771)"><g data-paper-data="{&quot;isPaintingLayer&quot;:true}" fill-rule="nonzero" stroke="#000000" stroke-width="2" stroke-linejoin="miter" stroke-miterlimit="10" stroke-dasharray="" stroke-dashoffset="0" style="mix-blend-mode: normal"><path d="M239.12852,207.56252l1.57467,-25.51655l7.83579,0.48357l-1.57467,25.51655z" data-paper-data="{&quot;index&quot;:null}" fill="#e80000" stroke-linecap="butt"/><path d="M224.38766,187.14192c0,-2.11232 1.71238,-3.8247 3.8247,-3.8247c2.11232,0 3.8247,1.71238 3.8247,3.8247c0,2.11232 -1.71238,3.8247 -3.8247,3.8247c-2.11232,0 -3.8247,-1.71238 -3.8247,-3.8247z" data-paper-data="{&quot;index&quot;:null}" fill="#e80000" stroke-linecap="butt"/><path d="M259.84335,196.18196c0,-2.11232 1.71238,-3.8247 3.8247,-3.8247c2.11232,0 3.8247,1.71238 3.8247,3.8247c0,2.11232 -1.71238,3.8247 -3.8247,3.8247c-2.11232,0 -3.8247,-1.71238 -3.8247,-3.8247z" data-paper-data="{&quot;index&quot;:null}" fill="#e80000" stroke-linecap="butt"/><path d="M237.77555,222.07703c-1.52512,4.70634 -4.48396,5.21251 -7.6039,4.20148c-3.11994,-1.01103 -4.41278,-5.64589 -2.88764,-10.35222c1.52512,-4.70634 3.56723,-8.26047 6.68717,-7.24941c1.20497,0.39048 6.3224,5.62992 3.80438,13.40018z" data-paper-data="{&quot;index&quot;:null}" fill="#e80000" stroke-linecap="butt"/><path d="M291.33144,216.20181c0,3.05731 -3.33463,5.53575 -7.4481,5.53575c-4.11347,0 -7.4481,-2.47844 -7.4481,-5.53575c0,-3.05731 3.33463,-5.53575 7.4481,-5.53575c4.11347,0 7.4481,2.47844 7.4481,5.53575z" data-paper-data="{&quot;index&quot;:null}" fill="#e80000" stroke-linecap="butt"/><path d="M242.29019,154.35377c0,0 2.74198,1.36451 4.28545,2.69446c1.22275,1.05362 4.23933,4.65116 4.23933,4.65116" data-paper-data="{&quot;index&quot;:null}" fill="none" stroke-linecap="round"/><path d="M236.20165,148.61809c2.20491,-1.78195 5.43691,-1.4391 7.21887,0.76582c1.78195,2.20491 1.4391,5.43691 -0.76582,7.21887c-2.20491,1.78195 -5.43691,1.4391 -7.21887,-0.76582c-1.78195,-2.20491 -1.4391,-5.43691 0.76582,-7.21887z" data-paper-data="{&quot;index&quot;:null}" fill="#e80000" stroke-linecap="butt"/><path d="M235.39881,167.75845c1.92253,-8.96818 10.75118,-14.67978 19.71935,-12.75726c8.96818,1.92253 14.67978,10.75118 12.75726,19.71935c-1.92253,8.96818 -10.75118,14.67978 -19.71935,12.75726c-8.96818,-1.92253 -14.67978,-10.75118 -12.75726,-19.71935z" data-paper-data="{&quot;index&quot;:null}" fill="#e80000" stroke-linecap="butt"/><path d="M234.65654,166.08877l-0.22792,-5.59537l33.37232,-1.35935l0.22792,5.59536z" data-paper-data="{&quot;index&quot;:null}" fill="#ff2121" stroke-linecap="butt"/></g></g></svg>