<svg version="1.1" xmlns="http://www.w3.org/2000/svg" xmlns:xlink="http://www.w3.org/1999/xlink" width="88.10417" height="80.40584" viewBox="0,0,88.10417,80.40584"><g transform="translate(-218.73468,-145.82068)"><g data-paper-data="{&quot;isPaintingLayer&quot;:true}" fill-rule="nonzero" stroke="#000000" stroke-width="2" stroke-linejoin="miter" stroke-miterlimit="10" stroke-dasharray="" stroke-dashoffset="0" style="mix-blend-mode: normal"><path d="M240.90314,163.8282c0,0 2.10697,-2.22284 3.83029,-3.3097c1.36524,-0.86102 5.68789,-2.69317 5.68789,-2.69317" fill="none" stroke-linecap="round"/><path d="M232.20582,169.17502c-1.05895,-2.62976 0.21443,-5.62005 2.84419,-6.679c2.62976,-1.05895 5.62005,0.21443 6.679,2.84419c1.05895,2.62976 -0.21443,5.62005 -2.84419,6.679c-2.62976,1.05895 -5.62005,-0.21443 -6.679,-2.84419z" fill="#e80000" stroke-linecap="butt"/><path d="M249.83992,163.42792c0,-9.17193 7.43532,-16.60724 16.60724,-16.60724c9.17193,0 16.60724,7.43532 16.60724,16.60724c0,9.17193 -7.43532,16.60724 -16.60724,16.60724c-9.17193,0 -16.60724,-7.43532 -16.60724,-16.60724z" fill="#e80000" stroke-linecap="butt"/><path d="M237.36858,201.9519l12.10146,-22.51952l6.91544,3.71621l-12.10146,22.51952z" fill="#e80000" stroke-linecap="butt"/><path d="M221.09244,187.47397c0,-2.11232 1.71238,-3.8247 3.8247,-3.8247c2.11232,0 3.8247,1.71238 3.8247,3.8247c0,2.11232 -1.71238,3.8247 -3.8247,3.8247c-2.11232,0 -3.8247,-1.71238 -3.8247,-3.8247z" fill="#e80000" stroke-linecap="butt"/><path d="M298.18945,182.52044c0,-2.11232 1.71238,-3.8247 3.8247,-3.8247c2.11232,0 3.8247,1.71238 3.8247,3.8247c0,2.11232 -1.71238,3.8247 -3.8247,3.8247c-2.11232,0 -3.8247,-1.71238 -3.8247,-3.8247z" fill="#e80000" stroke-linecap="butt"/><path d="M227.18278,213.75242c4.11347,0 7.4481,2.47844 7.4481,5.53575c0,3.05731 -3.33463,5.53575 -7.4481,5.53575c-4.11347,0 -7.4481,-2.47844 -7.4481,-5.53575c0,-3.05731 3.33463,-5.53575 7.4481,-5.53575z" data-paper-data="{&quot;index&quot;:null}" fill="#e80000" stroke-linecap="butt"/><path d="M256.06341,213.34982c4.94728,0 6.34095,2.65869 6.34095,5.93835c0,3.27966 -4.01056,5.93835 -8.95785,5.93835c-4.94728,0 -8.95785,-0.84699 -8.95785,-4.12665c0,-1.26666 3.40667,-7.75005 11.57475,-7.75005z" data-paper-data="{&quot;index&quot;:null}" fill="#e80000" stroke-linecap="butt"/><path d="M248.76417,161.9509l-1.3957,-5.42329l32.34602,-8.32434l1.3957,5.42328z" fill="#ff2121" stroke-linecap="butt"/></g></g></svg>