<svg version="1.1" xmlns="http://www.w3.org/2000/svg" xmlns:xlink="http://www.w3.org/1999/xlink" width="71.46962" height="97.71795" viewBox="0,0,71.46962,97.71795"><g transform="translate(-209.62689,-129.03979)"><g data-paper-data="{&quot;isPaintingLayer&quot;:true}" fill-rule="nonzero" stroke="#000000" stroke-width="2" stroke-linejoin="miter" stroke-miterlimit="10" stroke-dasharray="" stroke-dashoffset="0" style="mix-blend-mode: normal"><path d="M226.96053,193.48874c0,-2.11232 1.71238,-3.8247 3.8247,-3.8247c2.11232,0 3.8247,1.71238 3.8247,3.8247c0,2.11232 -1.71238,3.8247 -3.8247,3.8247c-2.11232,0 -3.8247,-1.71238 -3.8247,-3.8247z" fill="#1d28e8" stroke-linecap="butt"/><path d="M232.97947,205.20026v-25.56509h7.8507v25.56509z" fill="#1d28e8" stroke-linecap="butt"/><path d="M216.05773,199.4204c0,-2.11232 1.71238,-3.8247 3.8247,-3.8247c2.11232,0 3.8247,1.71238 3.8247,3.8247c0,2.11232 -1.71238,3.8247 -3.8247,3.8247c-2.11232,0 -3.8247,-1.71238 -3.8247,-3.8247z" fill="#1d28e8" stroke-linecap="butt"/><path d="M229.28716,214.68624c4.11347,0 7.4481,2.47844 7.4481,5.53575c0,3.05731 -3.33463,5.53575 -7.4481,5.53575c-4.11347,0 -7.4481,-2.47844 -7.4481,-5.53575c0,-3.05731 3.33463,-5.53575 7.4481,-5.53575z" data-paper-data="{&quot;index&quot;:null}" fill="#1d28e8" stroke-linecap="butt"/><path d="M258.02148,191.48997c4.94727,0.00715 6.33711,2.66784 6.33237,5.9475c-0.00473,3.27967 -4.01912,5.93256 -8.96641,5.92541c-4.94727,-0.00715 -8.95661,-0.85992 -8.95188,-4.13958c0.00182,-1.26666 3.41785,-7.74512 11.58592,-7.73333z" data-paper-data="{&quot;index&quot;:null}" fill="#1d28e8" stroke-linecap="butt"/><path d="M230.23875,165.84527c1.05902,-9.11059 9.30311,-15.63766 18.41369,-14.57865c9.11059,1.05902 15.63766,9.30311 14.57865,18.41369c-1.05902,9.11059 -9.30311,15.63766 -18.41369,14.57865c-9.11059,-1.05902 -15.63766,-9.30311 -14.57865,-18.41369z" fill="#1d28e8" stroke-linecap="butt"/><path d="M220.37527,168.33388c0,0 2.55865,-1.68335 4.48453,-2.34824c1.52571,-0.52673 6.15241,-1.32405 6.15241,-1.32405" fill="none" stroke-linecap="round"/><path d="M210.68724,171.55475c-0.43086,-2.80203 1.49134,-5.4228 4.29337,-5.85367c2.80203,-0.43086 5.4228,1.49134 5.85367,4.29337c0.43086,2.80203 -1.49134,5.4228 -4.29337,5.85367c-2.80203,0.43086 -5.4228,-1.49134 -5.85367,-4.29337z" fill="#1d28e8" stroke-linecap="butt"/><path d="M230.13437,165.02262l-8.62517,-21.36897l38.86411,-13.21926l0.10881,28.50611l20.41934,-4.0139z" fill="#2530ff" stroke-linecap="round"/></g></g></svg>