<svg version="1.1" xmlns="http://www.w3.org/2000/svg" xmlns:xlink="http://www.w3.org/1999/xlink" width="118.19301" height="54.69172" viewBox="0,0,118.19301,54.69172"><g transform="translate(-182.37385,-149.08768)"><g data-paper-data="{&quot;isPaintingLayer&quot;:true}" fill-rule="nonzero" stroke="#000000" stroke-width="2" stroke-linejoin="miter" stroke-miterlimit="10" stroke-dasharray="" stroke-dashoffset="0" style="mix-blend-mode: normal"><path d="M255.67836,169.32357c2.79036,-8.73717 12.13527,-13.558 20.87244,-10.76764c8.73717,2.79036 13.558,12.13527 10.76764,20.87244c-2.79036,8.73717 -12.13527,13.558 -20.87244,10.76764c-8.73717,-2.79036 -13.558,-12.13527 -10.76764,-20.87244z" fill="#2d6a2b" stroke-linecap="butt"/><path d="M269.77956,154.53107c15.82848,-0.77564 22.96499,10.55383 22.96499,10.55383l-40.79341,3.99923c0,0 0.81022,-13.71912 17.82843,-14.55306z" fill="#367e33" stroke-linecap="round"/><path d="M261.03861,156.54336l-11.15911,-1.45069" fill="none" stroke-linecap="round"/><path d="M239.77105,153.66056c0.86248,-2.70058 3.7509,-4.19066 6.45149,-3.32818c2.70058,0.86248 4.19066,3.7509 3.32818,6.45149c-0.86248,2.70058 -3.7509,4.19066 -6.45149,3.32818c-2.70058,-0.86248 -4.19066,-3.7509 -3.32818,-6.45149z" fill="#2d6a2b" stroke-linecap="butt"/><path d="M292.28883,195.24631c1.42864,-1.55591 3.84811,-1.65908 5.40403,-0.23044c1.55591,1.42864 1.65908,3.84811 0.23044,5.40403c-1.42864,1.55591 -3.84811,1.65908 -5.40403,0.23044c-1.55591,-1.42864 -1.65908,-3.84811 -0.23044,-5.40403z" fill="#2d6a2b" stroke-linecap="butt"/><path d="M293.93238,187.53631c1.42864,-1.55591 3.84811,-1.65908 5.40403,-0.23044c1.55591,1.42864 1.65908,3.84811 0.23044,5.40403c-1.42864,1.55591 -3.84811,1.65908 -5.40403,0.23044c-1.55591,-1.42864 -1.65908,-3.84811 -0.23044,-5.40403z" fill="#2d6a2b" stroke-linecap="butt"/><path d="M201.35427,202.27488c-4.70862,1.51806 -6.85086,-0.58473 -7.85722,-3.70618c-1.00636,-3.12145 1.99493,-6.88251 6.70355,-8.40057c4.70862,-1.51806 8.78562,-1.94255 9.79196,1.1789c0.38868,1.20555 -0.86425,8.42151 -8.63829,10.92786z" data-paper-data="{&quot;index&quot;:null}" fill="#2d6a2b" stroke-linecap="butt"/><path d="M189.30475,196.2138c-4.93481,-0.35095 -6.13637,-3.10181 -5.90372,-6.37319c0.23265,-3.2714 4.42173,-5.6389 9.35654,-5.28795c4.93481,0.35095 8.8752,1.48031 8.64255,4.7517c-0.08986,1.26348 -3.94787,7.48888 -12.09537,6.90943z" data-paper-data="{&quot;index&quot;:null}" fill="#2d6a2b" stroke-linecap="butt"/><path d="M220.99385,183.23465l25.13519,-4.66863l1.43368,7.71868l-25.13518,4.66863z" fill="#2d6a2b" stroke-linecap="butt"/></g></g></svg>