<svg version="1.1" xmlns="http://www.w3.org/2000/svg" xmlns:xlink="http://www.w3.org/1999/xlink" width="64.38415" height="79.8744" viewBox="0,0,64.38415,79.8744"><g transform="translate(-210.21043,-151.00832)"><g data-paper-data="{&quot;isPaintingLayer&quot;:true}" fill-rule="nonzero" stroke="#000000" stroke-width="2" stroke-linejoin="miter" stroke-miterlimit="10" stroke-dasharray="" stroke-dashoffset="0" style="mix-blend-mode: normal"><path d="M262.92203,181.37881c0,-2.11232 1.71238,-3.8247 3.8247,-3.8247c2.11232,0 3.8247,1.71238 3.8247,3.8247c0,2.11232 -1.71238,3.8247 -3.8247,3.8247c-2.11232,0 -3.8247,-1.71238 -3.8247,-3.8247z" fill="#181818" stroke-linecap="butt"/><path d="M234.52838,204.9577l3.32821,-25.34752l7.78389,1.02205l-3.32821,25.34752z" fill="#181818" stroke-linecap="butt"/><path d="M237.28393,215.76146c2.69026,4.15188 1.21687,6.76724 -1.5355,8.55067c-2.75237,1.78343 -7.16449,-0.13659 -9.85475,-4.28847c-2.69026,-4.15188 -4.16033,-7.97822 -1.40796,-9.76165c1.06301,-0.68879 8.35653,-1.3554 12.79821,5.49946z" data-paper-data="{&quot;index&quot;:null}" fill="#181818" stroke-linecap="butt"/><path d="M235.94843,177.70958l14.26099,2.17708l-4.26474,3.70389l3.53543,4.72808l-17.05761,-1.02147l4.93982,-4.52894z" fill="#0e0e0e" stroke-linecap="round"/><path d="M215.48932,187.17854c0,-2.11232 1.71238,-3.8247 3.8247,-3.8247c2.11232,0 3.8247,1.71238 3.8247,3.8247c0,2.11232 -1.71238,3.8247 -3.8247,3.8247c-2.11232,0 -3.8247,-1.71238 -3.8247,-3.8247z" fill="#181818" stroke-linecap="butt"/><path d="M258.76868,215.28552c3.58795,-3.4062 6.4292,-2.43757 8.68724,-0.05904c2.25805,2.37852 1.17995,7.06798 -2.408,10.47419c-3.58795,3.4062 -7.07971,5.55321 -9.33776,3.17469c-0.8721,-0.91863 -2.86528,-7.96611 3.05851,-13.58984z" data-paper-data="{&quot;index&quot;:null}" fill="#181818" stroke-linecap="butt"/><path d="M221.7736,157.64951c0,0 3.00193,-0.60728 5.03682,-0.5057c1.61207,0.08048 6.2022,1.06677 6.2022,1.06677" fill="#181818" stroke-linecap="round"/><path d="M211.21043,157.05113c0.64558,-2.76047 3.40672,-4.47496 6.1672,-3.82937c2.76047,0.64558 4.47496,3.40672 3.82937,6.1672c-0.64558,2.76047 -3.40672,4.47496 -6.1672,3.82937c-2.76047,-0.64558 -4.47496,-3.40672 -3.82937,-6.1672z" fill="#181818" stroke-linecap="butt"/><path d="M231.32254,171.15202c0,-9.17193 7.43532,-16.60724 16.60724,-16.60724c9.17193,0 16.60724,7.43532 16.60724,16.60724c0,9.17193 -7.43532,16.60724 -16.60724,16.60724c-9.17193,0 -16.60724,-7.43532 -16.60724,-16.60724z" fill="#181818" stroke-linecap="butt"/><path d="M246.7535,174.78502v-5.24474h19.39678v5.24474z" fill="#ff0000" stroke-linecap="butt"/><g><path d="M233.21004,164.07123v-12.06291h29.6328v12.06291z" fill="#343434" stroke-linecap="butt"/><path d="M222.45832,164.07123h51.13626" fill="none" stroke-linecap="round"/></g></g></g></svg>