<svg version="1.1" xmlns="http://www.w3.org/2000/svg" xmlns:xlink="http://www.w3.org/1999/xlink" width="61.45787" height="72.559" viewBox="0,0,61.45787,72.559"><g transform="translate(-205.79555,-153.71712)"><g data-paper-data="{&quot;isPaintingLayer&quot;:true}" fill-rule="nonzero" stroke="#000000" stroke-width="2" stroke-linejoin="miter" stroke-miterlimit="10" stroke-dasharray="" stroke-dashoffset="0" style="mix-blend-mode: normal"><path d="M254.6998,186.99653c0,-2.11232 1.71238,-3.8247 3.8247,-3.8247c2.11232,0 3.8247,1.71238 3.8247,3.8247c0,2.11232 -1.71238,3.8247 -3.8247,3.8247c-2.11232,0 -3.8247,-1.71238 -3.8247,-3.8247z" fill="#e80000" stroke-linecap="butt"/><path d="M211.0782,200.16754l15.02063,-20.68706l6.35271,4.61264l-15.02064,20.68705z" fill="#e80000" stroke-linecap="butt"/><path d="M224.59222,158.92528c0,0 2.93519,-0.87464 4.97098,-0.95637c1.61278,-0.06474 6.27298,0.50499 6.27298,0.50499" fill="none" stroke-linecap="round"/><path d="M214.38701,159.21783c0.39485,-2.80733 2.99072,-4.76304 5.79805,-4.36819c2.80733,0.39485 4.76304,2.99072 4.36819,5.79805c-0.39485,2.80733 -2.99072,4.76304 -5.79805,4.36819c-2.80733,-0.39485 -4.76304,-2.99072 -4.36819,-5.79805z" fill="#e80000" stroke-linecap="butt"/><path d="M232.53617,163.03866c4.57761,-7.94794 14.73157,-10.68014 22.6795,-6.10253c7.94794,4.57761 10.68014,14.73157 6.10253,22.6795c-4.57761,7.94794 -14.73157,10.68014 -22.6795,6.10253c-7.94794,-4.57761 -10.68014,-14.73157 -6.10253,-22.6795z" fill="#e80000" stroke-linecap="butt"/><path d="M206.79555,181.13929c0,-2.11232 1.71238,-3.8247 3.8247,-3.8247c2.11232,0 3.8247,1.71238 3.8247,3.8247c0,2.11232 -1.71238,3.8247 -3.8247,3.8247c-2.11232,0 -3.8247,-1.71238 -3.8247,-3.8247z" fill="#e80000" stroke-linecap="butt"/><path d="M247.25542,201.71477c0.70642,-4.89658 3.53687,-5.89634 6.78292,-5.42805c3.24605,0.4683 5.30484,4.8174 4.59842,9.71399c-0.70642,4.89658 -2.11739,8.74513 -5.36345,8.27681c-1.25369,-0.18087 -7.1842,-4.47838 -6.01789,-12.56277z" data-paper-data="{&quot;index&quot;:null}" fill="#e80000" stroke-linecap="butt"/><path d="M232.34114,161.22185l1.49726,-5.39614l32.18406,8.93007l-1.49725,5.39613z" fill="#ff2121" stroke-linecap="butt"/><path d="M230.36561,210.84505c2.62304,-4.19467 5.6162,-3.96669 8.39693,-2.22781c2.78073,1.73886 2.90858,6.54895 0.28552,10.74363c-2.62304,4.19467 -5.46758,7.14605 -8.24832,5.40718c-1.07396,-0.67158 -4.76484,-6.99749 -0.43414,-13.92298z" data-paper-data="{&quot;index&quot;:null}" fill="#e80000" stroke-linecap="butt"/></g></g></svg>