<svg version="1.1" xmlns="http://www.w3.org/2000/svg" xmlns:xlink="http://www.w3.org/1999/xlink" width="30.5" height="130.47483" viewBox="0,0,30.5,130.47483"><defs><linearGradient x1="238.00029" y1="72.52953" x2="238.00029" y2="196.02953" gradientUnits="userSpaceOnUse" id="color-1"><stop offset="0" stop-color="#5c6cff"/><stop offset="1" stop-color="#4576c0"/></linearGradient><linearGradient x1="238.20713" y1="69.0547" x2="238.20713" y2="77.29623" gradientUnits="userSpaceOnUse" id="color-2"><stop offset="0" stop-color="#ffffff"/><stop offset="1" stop-color="#5c6cff"/></linearGradient><linearGradient x1="238.80383" y1="185.52953" x2="238.80383" y2="199.52953" gradientUnits="userSpaceOnUse" id="color-3"><stop offset="0" stop-color="#ffffff"/><stop offset="1" stop-color="#5c6cff"/></linearGradient></defs><g transform="translate(-223.45969,-69.05469)"><g data-paper-data="{&quot;isPaintingLayer&quot;:true}" fill-rule="nonzero" stroke="none" stroke-width="0" stroke-linecap="butt" stroke-linejoin="miter" stroke-miterlimit="10" stroke-dasharray="" stroke-dashoffset="0" style="mix-blend-mode: normal"><path d="M230.42574,196.02953c0,0 -3.10039,-43.87524 -3.68151,-65.05268c-0.54637,-19.91109 0.29262,-58.44732 0.29262,-58.44732h22.40432c0,0 -1.98757,35.37718 -2.37519,53.53923c-0.47363,22.19172 -0.26061,69.96077 -0.26061,69.96077z" data-paper-data="{&quot;index&quot;:null}" fill="url(#color-1)"/><path d="M249.52035,73.27268c-1.09858,0.7436 -11.41735,4.71722 -17.55144,3.91786c-6.13409,-0.79937 -5.9257,-6.51011 -4.82714,-7.25371c1.09858,-0.74359 9.93214,-1.28651 16.06626,-0.48714c6.13409,0.79937 7.4109,3.0794 6.31232,3.823z" data-paper-data="{&quot;index&quot;:null}" fill="url(#color-2)"/><path d="M246.99035,192.48635c-1.32561,0.712 6.89494,4.06628 6.89494,4.06628l-15.55215,2.9769l-12.99743,-2.86654l5.84497,-4.16275l-7.721,-14.47071l7.56184,8.57314l2.7931,-16.57314l4.89506,15.5l3.20062,-14.5l4.97302,15.70931l7.07636,-5.70931c0,0 -4.04968,9.88863 -6.96934,11.45682z" data-paper-data="{&quot;index&quot;:null}" fill="url(#color-3)"/></g></g></svg>