<svg version="1.1" xmlns="http://www.w3.org/2000/svg" xmlns:xlink="http://www.w3.org/1999/xlink" width="105.02932" height="69.29317" viewBox="0,0,105.02932,69.29317"><g transform="translate(-191.05137,-129.68258)"><g data-paper-data="{&quot;isPaintingLayer&quot;:true}" fill-rule="nonzero" stroke="#000000" stroke-width="2" stroke-linejoin="miter" stroke-miterlimit="10" stroke-dasharray="" stroke-dashoffset="0" style="mix-blend-mode: normal"><path d="M222.02045,168.39481l24.25495,-8.07901l2.48095,7.44838l-24.25495,8.07901z" data-paper-data="{&quot;index&quot;:null}" fill="#181818" stroke-linecap="butt"/><path d="M247.15152,157.76907l4.27145,13.77933l-5.19482,-2.21828l-2.70868,5.24568l-6.53263,-15.79019l6.23187,2.46512z" data-paper-data="{&quot;index&quot;:null}" fill="#0e0e0e" stroke-linecap="round"/><g data-paper-data="{&quot;index&quot;:null}"><path d="M245.77026,136.59193c0,0 3.06009,0.12728 5.01182,0.71194c1.54619,0.46318 5.76792,2.51724 5.76792,2.51724" fill="#181818" stroke-linecap="round"/><path d="M235.65571,133.48794c1.28622,-2.52639 4.37693,-3.53177 6.90333,-2.24555c2.52639,1.28622 3.53177,4.37693 2.24555,6.90333c-1.28622,2.52639 -4.37695,3.53178 -6.90333,2.24555c-2.52639,-1.28622 -3.53177,-4.37693 -2.24555,-6.90332z" fill="#181818" stroke-linecap="butt"/><path d="M251.81786,151.98434c2.19065,-8.90648 11.18664,-14.35073 20.0931,-12.16009c8.90648,2.19065 14.35072,11.18665 12.16007,20.0931c-2.19065,8.90648 -11.18665,14.35073 -20.0931,12.16009c-8.90648,-2.19065 -14.35072,-11.18665 -12.16007,-20.0931z" fill="#181818" stroke-linecap="butt"/><path d="M273.27491,160.78235l0.58531,-2.82001c0,0 5.44937,1.87933 7.86006,2.47227c2.54182,0.62519 6.86076,1.58619 6.86076,1.58619l-0.42772,2.42107z" fill="#d70000" stroke-linecap="butt"/><g><path d="M255.34193,145.5593l2.88113,-11.71379l28.77517,7.07757l-2.88114,11.71379z" fill="#343434" stroke-linecap="butt"/><path d="M294.55767,155.20483l-49.65629,-12.2135" fill="none" stroke-linecap="round"/></g></g><path d="M202.82753,187.16668c-4.86955,0.87356 -6.71078,-1.49725 -7.28988,-4.72539c-0.57911,-3.22813 2.89899,-6.55321 7.76852,-7.42677c4.86955,-0.87356 8.96665,-0.74805 9.54577,2.48007c0.22365,1.24677 -1.98467,8.22981 -10.02441,9.67209z" data-paper-data="{&quot;index&quot;:null}" fill="#181818" stroke-linecap="butt"/><path d="M291.03362,187.29131c2.10852,-0.12661 3.92045,1.48007 4.04706,3.58859c0.12661,2.10852 -1.48007,3.92045 -3.58859,4.04706c-2.10852,0.12661 -3.92045,-1.48007 -4.04706,-3.58859c-0.12661,-2.10852 1.48007,-3.92045 3.58859,-4.04706z" data-paper-data="{&quot;index&quot;:null}" fill="#181818" stroke-linecap="butt"/><path d="M286.0989,190.3401c2.10852,-0.12661 3.92045,1.48007 4.04706,3.58859c0.12661,2.10852 -1.48007,3.92045 -3.58859,4.04706c-2.10852,0.12661 -3.92045,-1.48007 -4.04706,-3.58859c-0.12661,-2.10852 1.48007,-3.92045 3.58859,-4.04706z" data-paper-data="{&quot;index&quot;:null}" fill="#181818" stroke-linecap="butt"/><path d="M197.68817,175.24366c-4.90929,-0.61189 -5.96343,-3.42255 -5.55779,-6.67703c0.40565,-3.25447 4.71424,-5.39672 9.62356,-4.78481c4.90929,0.61189 8.78431,1.94843 8.37866,5.20291c-0.15666,1.25695 -4.33907,7.26918 -12.44443,6.25893z" data-paper-data="{&quot;index&quot;:null}" fill="#181818" stroke-linecap="butt"/></g></g></svg>