<svg version="1.1" xmlns="http://www.w3.org/2000/svg" xmlns:xlink="http://www.w3.org/1999/xlink" width="52.19719" height="96.17267" viewBox="0,0,52.19719,96.17267"><g transform="translate(-226.64182,-149.04864)"><g data-paper-data="{&quot;isPaintingLayer&quot;:true}" fill-rule="nonzero" stroke="#000000" stroke-width="2" stroke-linejoin="miter" stroke-miterlimit="10" stroke-dasharray="" stroke-dashoffset="0" style="mix-blend-mode: normal"><path d="M250.01362,175.52179c-0.18479,2.10422 -2.04042,3.66024 -4.14464,3.47545c-2.10422,-0.18479 -3.66023,-2.04042 -3.47543,-4.14464c0.18479,-2.10422 2.04041,-3.66023 4.14463,-3.47543c2.10421,0.18479 3.66024,2.04041 3.47544,4.14463z" data-paper-data="{&quot;index&quot;:null}" fill="#2d6a2b" stroke-linecap="butt"/><path d="M244.38263,153.96341c3.26802,-3.71425 6.18468,-3.00432 8.64694,-0.83789c2.46224,2.16646 1.80905,6.93368 -1.45898,10.64793c-3.26802,3.71425 -6.55315,6.16575 -9.01542,3.9993c-0.95098,-0.83671 -3.56814,-7.67706 1.82745,-13.80937z" data-paper-data="{&quot;index&quot;:null}" fill="#2d6a2b" stroke-linecap="butt"/><path d="M259.66636,218.16638c3.41539,8.5123 -0.71648,18.18162 -9.22878,21.597c-8.5123,3.41539 -18.18161,-0.71648 -21.597,-9.22877c-3.41539,-8.5123 0.71648,-18.18162 9.22877,-21.597c8.5123,-3.41539 18.18161,0.71647 21.59701,9.22877z" data-paper-data="{&quot;index&quot;:null}" fill="#2d6a2b" stroke-linecap="butt"/><path d="M243.87201,177.3258l-0.7,25.5555l-7.84775,-0.21495l0.7,-25.5555z" data-paper-data="{&quot;index&quot;:null}" fill="#2d6a2b" stroke-linecap="butt"/><path d="M232.05109,155.13478c1.11231,-4.8206 4.01629,-5.58082 7.21198,-4.84345c3.19569,0.73738 4.88458,5.24303 3.77227,10.06363c-1.11231,4.8206 -2.83935,8.53806 -6.03503,7.80069c-1.23421,-0.2848 -6.78568,-5.06193 -4.94922,-13.02087z" data-paper-data="{&quot;index&quot;:null}" fill="#2d6a2b" stroke-linecap="butt"/><path d="M270.30727,213.89505c0,0 -1.14177,2.84196 -2.34457,4.48646c-0.95288,1.30279 -4.29871,4.59633 -4.29871,4.59633" data-paper-data="{&quot;index&quot;:null}" fill="none" stroke-linecap="round"/><path d="M276.42852,205.72424c1.95192,2.05597 1.86756,5.305 -0.18841,7.25692c-2.05597,1.95192 -5.305,1.86757 -7.25692,-0.1884c-1.95192,-2.05597 -1.86757,-5.305 0.1884,-7.25692c2.05597,-1.95192 5.305,-1.86757 7.25692,0.1884z" data-paper-data="{&quot;index&quot;:null}" fill="#2d6a2b" stroke-linecap="butt"/><path d="M255.65978,240.70817c-13.52389,8.26116 -27.22774,-0.63833 -27.22774,-0.63833c0,0 1.58842,-8.34996 15.64699,-17.72651c10.25548,-6.84003 20.65816,-4.33125 20.65816,-4.33125c0,0 5.46297,13.81398 -9.07741,22.69608z" data-paper-data="{&quot;index&quot;:null}" fill="#367e33" stroke-linecap="round"/><path d="M237.04358,175.32702c-0.18479,2.10422 -2.04042,3.66023 -4.14463,3.47544c-2.10422,-0.18479 -3.66024,-2.04041 -3.47543,-4.14464c0.18479,-2.10422 2.04041,-3.66023 4.14463,-3.47544c2.10422,0.18479 3.66024,2.04042 3.47544,4.14464z" data-paper-data="{&quot;index&quot;:null}" fill="#2d6a2b" stroke-linecap="butt"/></g></g></svg>