<svg version="1.1" xmlns="http://www.w3.org/2000/svg" xmlns:xlink="http://www.w3.org/1999/xlink" width="140.95326" height="73.96985" viewBox="0,0,140.95326,73.96985"><g transform="translate(-159.31343,-156.52277)"><g data-paper-data="{&quot;isPaintingLayer&quot;:true}" fill-rule="nonzero" stroke="#000000" stroke-width="2" stroke-linejoin="miter" stroke-miterlimit="10" stroke-dasharray="" stroke-dashoffset="0" style="mix-blend-mode: normal"><path d="M215.90103,193.48096c-8.68302,2.95458 -18.11714,-1.68924 -21.07171,-10.37226c-2.95458,-8.68302 1.68925,-18.11715 10.37226,-21.07172c8.68302,-2.95458 18.11714,1.68924 21.07171,10.37226c2.95458,8.68302 -1.68925,18.11715 -10.37226,21.07172z" fill="#ff6b00" stroke-linecap="butt"/><path d="M261.16929,182.00966l-25.56508,0.02509l-0.00771,-7.85069l25.56508,-0.02509z" data-paper-data="{&quot;index&quot;:null}" fill="#ff6b00" stroke-linecap="butt"/><path d="M213.55631,205.37434c0,0 -2.18071,-2.15057 -3.23322,-3.89507c-0.83383,-1.38203 -2.58005,-5.74009 -2.58005,-5.74009" fill="none" stroke-linecap="round"/><path d="M218.72991,214.17581c-2.65019,1.00668 -5.61471,-0.32565 -6.62139,-2.97586c-1.00668,-2.65019 0.32565,-5.61469 2.97586,-6.62137c2.65019,-1.00668 5.61471,0.32565 6.62138,2.97585c1.00668,2.65019 -0.32565,5.61469 -2.97585,6.62138z" fill="#ff6b00" stroke-linecap="butt"/><path d="M284.69884,159.11086c4.03927,-2.85656 6.71227,-1.49053 8.60595,1.18721c1.89366,2.67772 0.15432,7.16413 -3.88497,10.0207c-4.03927,2.85656 -7.8028,4.48071 -9.69646,1.80299c-0.73136,-1.03417 -1.69343,-8.29463 4.97548,-13.01087z" data-paper-data="{&quot;index&quot;:null}" fill="#ff6b00" stroke-linecap="butt"/><path d="M220.54702,196.71766l-12.89609,-0.07807l-11.67701,32.10252l-34.90108,-32.06179l30.26036,-14.6701l-1.27934,-12.80433z" data-paper-data="{&quot;index&quot;:null}" fill="#ffa340" stroke-linecap="butt"/><path d="M292.06156,174.05482c4.88424,-0.78728 6.68323,1.61577 7.20514,4.85363c0.5219,3.23787 -3.01448,6.50088 -7.89873,7.28816c-4.88424,0.78728 -8.97849,0.58929 -9.50038,-2.64857c-0.20157,-1.25051 2.12998,-8.1934 10.19397,-9.49321z" data-paper-data="{&quot;index&quot;:null}" fill="#ff6b00" stroke-linecap="butt"/><path d="M267.40804,173.13574c-1.9597,0.78834 -4.18745,-0.16124 -4.97577,-2.12094c-0.78834,-1.9597 0.16123,-4.18745 2.12093,-4.97577c1.9597,-0.78834 4.18745,0.16124 4.97577,2.12094c0.78834,1.9597 -0.16123,4.18745 -2.12093,4.97577z" fill="#ff6b00" stroke-linecap="butt"/><path d="M267.25341,177.8787c-1.9597,0.78834 -4.18745,-0.16123 -4.97577,-2.12093c-0.78834,-1.9597 0.16123,-4.18744 2.12093,-4.97578c1.9597,-0.78834 4.18745,0.16123 4.97577,2.12093c0.78834,1.9597 -0.16123,4.18745 -2.12093,4.97577z" fill="#ff6b00" stroke-linecap="butt"/></g></g></svg>