<svg version="1.1" xmlns="http://www.w3.org/2000/svg" xmlns:xlink="http://www.w3.org/1999/xlink" width="66.46472" height="89.65706" viewBox="0,0,66.46472,89.65706"><g transform="translate(-205.6431,-141.01774)"><g data-paper-data="{&quot;isPaintingLayer&quot;:true}" fill-rule="nonzero" stroke="#000000" stroke-width="2" stroke-linejoin="miter" stroke-miterlimit="10" stroke-dasharray="" stroke-dashoffset="0" style="mix-blend-mode: normal"><path d="M226.90969,192.3997c0.27928,-2.09378 2.20303,-3.56472 4.29681,-3.28544c2.09378,0.27928 3.56472,2.20303 3.28544,4.29681c-0.27928,2.09378 -2.20303,3.56472 -4.29681,3.28544c-2.09378,-0.27928 -3.56472,-2.20303 -3.28544,-4.29681z" fill="#181818" stroke-linecap="butt"/><path d="M220.59082,147.32253c0,0 3.05587,-0.20505 5.05946,0.16468c1.58728,0.29291 6.00671,1.87743 6.00671,1.87743" fill="#181818" stroke-linecap="round"/><path d="M210.1995,145.33279c1.00489,-2.65088 3.96847,-3.98526 6.61936,-2.98036c2.65088,1.00489 3.98526,3.96847 2.98036,6.61936c-1.00489,2.65088 -3.96847,3.98526 -6.61936,2.98036c-2.65088,-1.00489 -3.98526,-3.96847 -2.98036,-6.61936z" fill="#181818" stroke-linecap="butt"/><path d="M228.2707,161.96901c1.21267,-9.09141 9.56577,-15.47839 18.65717,-14.26572c9.09141,1.21267 15.47839,9.56577 14.26572,18.65717c-1.21267,9.09141 -9.56577,15.47839 -18.65717,14.26572c-9.09141,-1.21267 -15.47839,-9.56577 -14.26572,-18.65717z" fill="#181818" stroke-linecap="butt"/><path d="M229.0697,204.7386l3.38008,-25.34066l7.78178,1.03798l-3.38008,25.34066z" fill="#181818" stroke-linecap="butt"/><path d="M240.53124,221.12413c2.69026,4.15188 1.21687,6.76724 -1.5355,8.55067c-2.75237,1.78343 -7.16449,-0.13659 -9.85475,-4.28847c-2.69026,-4.15188 -4.16033,-7.97822 -1.40796,-9.76165c1.06301,-0.68879 8.35653,-1.3554 12.79821,5.49946z" data-paper-data="{&quot;index&quot;:null}" fill="#181818" stroke-linecap="butt"/><path d="M243.08585,167.61032l0.69343,-5.1987l19.2265,2.56454l-0.69343,5.1987z" fill="#ff0000" stroke-linecap="butt"/><path d="M230.54551,177.49344l14.25651,2.20626l-4.27231,3.69516l3.52574,4.73531l-17.05548,-1.05638l4.94908,-4.51882z" fill="#0e0e0e" stroke-linecap="round"/><g><path d="M231.07781,155.19994l1.5949,-11.95701l29.37266,3.9179l-1.5949,11.95701z" fill="#343434" stroke-linecap="butt"/><path d="M271.10782,160.53937l-50.68734,-6.76097" fill="none" stroke-linecap="round"/></g><path d="M206.6431,177.27507c0.27928,-2.09378 2.20303,-3.56472 4.29681,-3.28544c2.09378,0.27928 3.56472,2.20303 3.28544,4.29681c-0.27928,2.09378 -2.20303,3.56472 -4.29681,3.28544c-2.09378,-0.27928 -3.56472,-2.20303 -3.28544,-4.29681z" fill="#181818" stroke-linecap="butt"/><path d="M247.80646,210.91637c4.63395,-1.73265 6.87049,0.26956 8.0191,3.3415c1.14862,3.07194 -1.67681,6.96684 -6.31077,8.6995c-4.63395,1.73265 -8.68715,2.3439 -9.83577,-0.72804c-0.44362,-1.18644 0.47666,-8.45231 8.12743,-11.31296z" data-paper-data="{&quot;index&quot;:null}" fill="#181818" stroke-linecap="butt"/></g></g></svg>