<svg version="1.1" xmlns="http://www.w3.org/2000/svg" xmlns:xlink="http://www.w3.org/1999/xlink" width="111.66464" height="79.11093" viewBox="0,0,111.66464,79.11093"><g transform="translate(-195.00846,-145.97636)"><g data-paper-data="{&quot;isPaintingLayer&quot;:true}" fill-rule="nonzero" stroke="#000000" stroke-width="2" stroke-linejoin="miter" stroke-miterlimit="10" stroke-dasharray="" stroke-dashoffset="0" style="mix-blend-mode: normal"><path d="M208.27144,163.5836c0,-9.17193 7.43532,-16.60724 16.60724,-16.60724c9.17193,0 16.60724,7.43532 16.60724,16.60724c0,9.17193 -7.43532,16.60724 -16.60724,16.60724c-9.17193,0 -16.60724,-7.43532 -16.60724,-16.60724z" fill="#e80000" stroke-linecap="butt"/><path d="M252.54729,203.88201l-19.33399,-16.72635l5.13644,-5.9372l19.33399,16.72635z" fill="#e80000" stroke-linecap="butt"/><path d="M218.09245,195.97397c0,-2.11232 1.71238,-3.8247 3.8247,-3.8247c2.11232,0 3.8247,1.71238 3.8247,3.8247c0,2.11232 -1.71238,3.8247 -3.8247,3.8247c-2.11232,0 -3.8247,-1.71238 -3.8247,-3.8247z" fill="#e80000" stroke-linecap="butt"/><path d="M252.29419,174.9685c0,-2.11232 1.71238,-3.8247 3.8247,-3.8247c2.11232,0 3.8247,1.71238 3.8247,3.8247c0,2.11232 -1.71238,3.8247 -3.8247,3.8247c-2.11232,0 -3.8247,-1.71238 -3.8247,-3.8247z" fill="#e80000" stroke-linecap="butt"/><path d="M207.19569,162.10658l-1.3957,-5.42329l32.34602,-8.32434l1.3957,5.42328z" fill="#ff2121" stroke-linecap="butt"/><path d="M226.05981,221.82828c-1.07199,3.09952 -5.13911,2.5891 -9.81465,0.97203c-4.67555,-1.61707 -7.59681,-5.44061 -6.52482,-8.54013c1.07199,-3.09952 3.25813,-5.15664 7.93367,-3.53958c7.71943,2.6698 8.81983,9.91059 8.40581,11.10767z" data-paper-data="{&quot;index&quot;:null}" fill="#e80000" stroke-linecap="butt"/><path d="M206.29789,156.56003c0,0 2.96514,-0.76703 5.00255,-0.77447c1.61407,-0.00589 6.25039,0.7334 6.25039,0.7334" data-paper-data="{&quot;index&quot;:null}" fill="none" stroke-linecap="round"/><path d="M200.24267,162.43372c-2.79106,-0.49696 -4.65082,-3.16241 -4.15386,-5.95348c0.49695,-2.79106 3.16241,-4.65081 5.95348,-4.15385c2.79106,0.49696 4.65081,3.16241 4.15386,5.95348c-0.49696,2.79107 -3.16241,4.65082 -5.95348,4.15386z" data-paper-data="{&quot;index&quot;:null}" fill="#e80000" stroke-linecap="butt"/><path d="M291.87258,186.84154c-2.82683,-1.66289 -1.5234,-5.54916 0.98501,-9.81336c2.50842,-4.26421 6.8335,-6.37299 9.66033,-4.71011c2.82683,1.66288 4.4118,4.21216 1.90339,8.47636c-4.14145,7.0403 -11.45695,6.68934 -12.54873,6.04711z" data-paper-data="{&quot;index&quot;:null}" fill="#e80000" stroke-linecap="butt"/></g></g></svg>