<svg version="1.1" xmlns="http://www.w3.org/2000/svg" xmlns:xlink="http://www.w3.org/1999/xlink" width="79.30138" height="98.25897" viewBox="0,0,79.30138,98.25897"><g transform="translate(-197.74706,-133.41077)"><g data-paper-data="{&quot;isPaintingLayer&quot;:true}" fill-rule="nonzero" stroke="#000000" stroke-width="2" stroke-linejoin="miter" stroke-miterlimit="10" stroke-dasharray="" stroke-dashoffset="0" style="mix-blend-mode: normal"><path d="M215.37316,153.11301c2.37652,-8.85869 11.48445,-14.11354 20.34314,-11.73702c8.85869,2.37652 14.11354,11.48445 11.73702,20.34314c-2.37652,8.85869 -11.48445,14.11353 -20.34313,11.73701c-8.85869,-2.37652 -14.11354,-11.48444 -11.73702,-20.34313z" fill="#2d6a2b" stroke-linecap="butt"/><path d="M228.76332,137.67392c15.77451,-1.51893 23.43577,9.4625 23.43577,9.4625l-40.56029,5.91265c0,0 0.16434,-13.74204 17.12452,-15.37514z" fill="#367e33" stroke-linecap="round"/><path d="M233.02103,204.88469l-8.18031,-24.22098l7.43794,-2.51207l8.18031,24.22098z" data-paper-data="{&quot;index&quot;:null}" fill="#2d6a2b" stroke-linecap="butt"/><path d="M209.72318,192.72026c0,-2.11232 1.71238,-3.8247 3.8247,-3.8247c2.11232,0 3.8247,1.71238 3.8247,3.8247c0,2.11232 -1.71238,3.8247 -3.8247,3.8247c-2.11232,0 -3.8247,-1.71238 -3.8247,-3.8247z" fill="#2d6a2b" stroke-linecap="butt"/><path d="M244.34462,181.73517c0,-2.11232 1.71238,-3.8247 3.8247,-3.8247c2.11232,0 3.8247,1.71238 3.8247,3.8247c0,2.11232 -1.71238,3.8247 -3.8247,3.8247c-2.11232,0 -3.8247,-1.71238 -3.8247,-3.8247z" fill="#2d6a2b" stroke-linecap="butt"/><path d="M234.02441,226.497c-1.94593,4.5485 -4.9385,4.78409 -7.95381,3.49409c-3.01531,-1.29001 -3.88218,-6.02305 -1.93626,-10.57157c1.94594,-4.54849 4.30214,-7.90268 7.31745,-6.61266c1.16456,0.49821 5.7854,6.18045 2.57261,13.69014z" data-paper-data="{&quot;index&quot;:null}" fill="#2d6a2b" stroke-linecap="butt"/><path d="M208.91166,139.17046c0,0 3.02001,-0.50982 5.05055,-0.34244c1.60862,0.1326 6.16443,1.2669 6.16443,1.2669" fill="none" stroke-linecap="round"/><path d="M198.74706,138.21517c0.73457,-2.73814 3.54974,-4.36237 6.28788,-3.62782c2.73814,0.73457 4.36237,3.54974 3.62781,6.28788c-0.73457,2.73814 -3.54974,4.36237 -6.28788,3.62782c-2.73814,-0.73457 -4.36236,-3.54974 -3.62781,-6.28788z" fill="#2d6a2b" stroke-linecap="butt"/><path d="M264.62454,188.69793c3.95353,-4.0499 7.24371,-3.06614 9.92849,-0.44526c2.68478,2.6209 1.65622,8.02863 -2.2973,12.07856c-3.95353,4.0499 -7.85188,6.65617 -10.53665,4.03528c-1.0369,-1.01223 -3.6219,-8.98209 2.90549,-15.66857z" data-paper-data="{&quot;index&quot;:null}" fill="#2d6a2b" stroke-linecap="butt"/></g></g></svg>