<svg version="1.1" xmlns="http://www.w3.org/2000/svg" xmlns:xlink="http://www.w3.org/1999/xlink" width="93.369" height="80.72303" viewBox="0,0,93.369,80.72303"><g transform="translate(-155.81513,-145.95938)"><g data-paper-data="{&quot;isPaintingLayer&quot;:true}" fill-rule="nonzero" stroke-linejoin="miter" stroke-miterlimit="10" stroke-dasharray="" stroke-dashoffset="0" style="mix-blend-mode: normal"><path d="M211.39528,205.66524l-3.31378,-25.34941l7.78447,-1.01762l3.31378,25.34941z" fill="#2d6a2b" stroke="#000000" stroke-width="2" stroke-linecap="butt"/><path d="M201.80688,191.58815c0,-2.11232 1.71238,-3.8247 3.8247,-3.8247c2.11232,0 3.8247,1.71238 3.8247,3.8247c0,2.11232 -1.71238,3.8247 -3.8247,3.8247c-2.11232,0 -3.8247,-1.71238 -3.8247,-3.8247z" fill="#2d6a2b" stroke="#000000" stroke-width="2" stroke-linecap="butt"/><path d="M222.71984,192.61812c0,-2.11232 1.71238,-3.8247 3.8247,-3.8247c2.11232,0 3.8247,1.71238 3.8247,3.8247c0,2.11232 -1.71238,3.8247 -3.8247,3.8247c-2.11232,0 -3.8247,-1.71238 -3.8247,-3.8247z" fill="#2d6a2b" stroke="#000000" stroke-width="2" stroke-linecap="butt"/><path d="M233.59639,208.99767c3.80732,3.1591 3.18214,6.0951 1.0879,8.61906c-2.09424,2.52395 -6.8784,2.00906 -10.68571,-1.15004c-3.80732,-3.1591 -6.35291,-6.37189 -4.25867,-8.89584c0.80883,-0.97479 7.57052,-3.78892 13.85649,1.42683z" data-paper-data="{&quot;index&quot;:null}" fill="#2d6a2b" stroke="#000000" stroke-width="2" stroke-linecap="butt"/><path d="M220.59048,214.61091c4.11347,0 7.4481,2.47844 7.4481,5.53575c0,3.05731 -3.33463,5.53575 -7.4481,5.53575c-4.11347,0 -7.4481,-2.47844 -7.4481,-5.53575c0,-3.05731 3.33463,-5.53575 7.4481,-5.53575z" data-paper-data="{&quot;index&quot;:null}" fill="#2d6a2b" stroke="#000000" stroke-width="2" stroke-linecap="butt"/><path d="M211.04736,164.85002c1.77834,-8.99788 10.5142,-14.85046 19.51206,-13.07212c8.99788,1.77834 14.85046,10.5142 13.07212,19.51206c-1.77834,8.99788 -10.5142,14.85046 -19.51206,13.07212c-8.99788,-1.77834 -14.85046,-10.5142 -13.07212,-19.51206z" fill="#2d6a2b" stroke="#000000" stroke-width="2" stroke-linecap="butt"/><path d="M223.37428,148.54945c15.6375,-2.57119 24.01648,7.87291 24.01648,7.87291l-40.07367,8.61378c0,0 -0.75567,-13.72223 16.05719,-16.48669z" fill="#367e33" stroke="#000000" stroke-width="2" stroke-linecap="round"/><path d="M203.66728,151.37116c0,0 2.97912,-0.71079 5.01631,-0.67968c1.61389,0.02465 6.23539,0.85153 6.23539,0.85153" fill="none" stroke="#000000" stroke-width="2" stroke-linecap="round"/><path d="M193.46154,151.09824c0.54967,-2.78116 3.24984,-4.59014 6.031,-4.04047c2.78116,0.54967 4.59014,3.24984 4.04047,6.031c-0.54967,2.78116 -3.24984,4.59014 -6.031,4.04047c-2.78116,-0.54967 -4.59014,-3.24984 -4.04047,-6.031z" fill="#2d6a2b" stroke="#000000" stroke-width="2" stroke-linecap="butt"/><g stroke="#61ff00" stroke-width="3" stroke-linecap="round"><path d="M223.51231,192.32892c0,0 -26.07606,0.49533 -37.64109,0.04073c-10.37014,-0.40763 -28.55609,-2.64287 -28.55609,-2.64287" fill="none"/><path d="M200.04262,191.64376c0,0 -11.33927,-4.03769 -12.34928,-8.61704c-1.00999,-4.57935 3.31495,-5.19096 3.31495,-5.19096z" fill="#61ff00"/><path d="M169.30403,201.72257c0,0 -3.35785,-2.79358 -0.09163,-6.15844c3.26622,-3.36486 15.03506,-0.83966 15.03506,-0.83966z" data-paper-data="{&quot;index&quot;:null}" fill="#61ff00"/><path d="M202.14797,199.85224c0,0 -2.81629,-2.3783 -0.03909,-5.1976c2.77721,-2.8193 12.69309,-0.61525 12.69309,-0.61525z" data-paper-data="{&quot;index&quot;:null}" fill="#61ff00"/></g></g></g></svg>