<svg version="1.1" xmlns="http://www.w3.org/2000/svg" xmlns:xlink="http://www.w3.org/1999/xlink" width="33.57167" height="36.59061" viewBox="0,0,33.57167,36.59061"><g transform="translate(-222.45728,-163.24993)"><g data-paper-data="{&quot;isPaintingLayer&quot;:true}" fill-rule="nonzero" stroke="#000000" stroke-width="0" stroke-linecap="round" stroke-linejoin="miter" stroke-miterlimit="10" stroke-dasharray="" stroke-dashoffset="0" style="mix-blend-mode: normal"><g><path d="M226.79531,169.55413l0.38008,-5.97087l5.67875,7.03161l1.38218,-2.08156l0.62597,5.47058l-0.12734,3.86041l-5.20733,0.30958l-5.55486,-1.43481l1.5171,-2.03798l-2.86591,-5.43288z" fill="#fdff6c"/><path d="M228.27924,171.23288l0.27313,-4.2907l4.08077,5.05295l0.99324,-1.49582l0.44982,3.93118l-0.60889,2.33317l-3.22462,0.6634l-3.99175,-1.03106l1.0902,-1.4645l-2.05945,-3.90409z" fill="#fdff8b"/></g><g data-paper-data="{&quot;index&quot;:null}"><path d="M256.02895,168.93487l-2.8659,5.43288l1.5171,2.03798l-5.55486,1.43482l-5.20732,-0.30957l-0.12734,-3.86042l0.62597,-5.47058l1.38219,2.08156l5.67875,-7.03161l0.38009,5.97087z" fill="#fdff6c"/><path d="M253.37122,170.69408l-2.05945,3.9041l1.09019,1.4645l-3.99175,1.03106l-3.22462,-0.6634l-0.60889,-2.33317l0.44983,-3.93118l0.99324,1.49581l4.08078,-5.05294l0.27313,4.29069z" fill="#fdff8b"/></g><g data-paper-data="{&quot;index&quot;:null}"><path d="M251.3576,193.70301l-0.38009,5.97087l-5.67875,-7.03161l-1.38218,2.08156l-0.62597,-5.47058l0.12734,-3.86042l5.20732,-0.30957l5.55486,1.43482l-1.5171,2.03798l2.8659,5.43288z" fill="#fdff6c"/><path d="M249.87367,192.02426l-0.27313,4.29069l-4.08078,-5.05294l-0.99324,1.49581l-0.44982,-3.93118l0.6089,-2.33317l3.22462,-0.6634l3.99175,1.03106l-1.09019,1.4645l2.05945,3.9041z" fill="#fdff8b"/></g><g data-paper-data="{&quot;index&quot;:null}"><path d="M222.45728,194.1556l2.8659,-5.43288l-1.5171,-2.03798l5.55486,-1.43481l5.20732,0.30957l0.12734,3.86041l-0.62597,5.47058l-1.38219,-2.08156l-5.67874,7.03161l-0.38009,-5.97088z" fill="#fdff6c"/><path d="M225.11501,192.39639l2.05945,-3.90409l-1.09019,-1.4645l3.99175,-1.03106l3.22462,0.66341l0.6089,2.33317l-0.44983,3.93118l-0.99324,-1.49582l-4.08077,5.05295l-0.27313,-4.29069z" fill="#fdff8b"/></g></g></g></svg>