<svg version="1.1" xmlns="http://www.w3.org/2000/svg" xmlns:xlink="http://www.w3.org/1999/xlink" width="75.09866" height="103.24664" viewBox="0,0,75.09866,103.24664"><g transform="translate(-220.83906,-123.91369)"><g data-paper-data="{&quot;isPaintingLayer&quot;:true}" fill-rule="nonzero" stroke="#000000" stroke-width="2" stroke-linejoin="miter" stroke-miterlimit="10" stroke-dasharray="" stroke-dashoffset="0" style="mix-blend-mode: normal"><path d="M261.15698,161.63606c0,-2.11232 1.71238,-3.8247 3.8247,-3.8247c2.11232,0 3.8247,1.71238 3.8247,3.8247c0,2.11232 -1.71238,3.8247 -3.8247,3.8247c-2.11232,0 -3.8247,-1.71238 -3.8247,-3.8247z" fill="#1d28e8" stroke-linecap="butt"/><path d="M224.65728,160.5487c0,-9.17193 7.43532,-16.60724 16.60724,-16.60724c9.17193,0 16.60724,7.43532 16.60724,16.60724c0,9.17193 -7.43532,16.60724 -16.60724,16.60724c-9.17193,0 -16.60724,-7.43532 -16.60724,-16.60724z" fill="#1d28e8" stroke-linecap="butt"/><path d="M231.1079,209.11659l-2.20075,-25.47019l7.82156,-0.67582l2.20075,25.47019z" fill="#1d28e8" stroke-linecap="butt"/><path d="M252.95598,191.02964c0,-2.11232 1.71238,-3.8247 3.8247,-3.8247c2.11232,0 3.8247,1.71238 3.8247,3.8247c0,2.11232 -1.71238,3.8247 -3.8247,3.8247c-2.11232,0 -3.8247,-1.71238 -3.8247,-3.8247z" fill="#1d28e8" stroke-linecap="butt"/><path d="M229.28717,214.68624c4.11347,0 7.4481,2.47844 7.4481,5.53575c0,3.05731 -3.33463,5.53575 -7.4481,5.53575c-4.11347,0 -7.4481,-2.47844 -7.4481,-5.53575c0,-3.05731 3.33463,-5.53575 7.4481,-5.53575z" data-paper-data="{&quot;index&quot;:null}" fill="#1d28e8" stroke-linecap="butt"/><path d="M239.97566,139.08958c0,0 2.87422,1.05793 4.55328,2.21199c1.33017,0.91427 4.72042,4.16208 4.72042,4.16208" fill="none" stroke-linecap="round"/><path d="M231.62885,133.21057c1.99785,-2.01137 5.24796,-2.02234 7.25932,-0.02449c2.01137,1.99785 2.02234,5.24796 0.02449,7.25932c-1.99785,2.01137 -5.24796,2.02234 -7.25932,0.02449c-2.01137,-1.99785 -2.02234,-5.24796 -0.02449,-7.25932z" fill="#1d28e8" stroke-linecap="butt"/><path d="M255.35551,214.28364c4.94728,0 6.34095,2.65869 6.34095,5.93835c0,3.27966 -4.01056,5.93835 -8.95785,5.93835c-4.94728,0 -8.95785,-0.84699 -8.95785,-4.12665c0,-1.26666 3.40667,-7.75005 11.57475,-7.75005z" data-paper-data="{&quot;index&quot;:null}" fill="#1d28e8" stroke-linecap="butt"/><path d="M248.43738,144.97206l12.06378,-19.63394l33.72383,23.40664l-22.86454,17.02419l15.3606,14.03968z" fill="#2530ff" stroke-linecap="round"/></g></g></svg>