<svg version="1.1" xmlns="http://www.w3.org/2000/svg" xmlns:xlink="http://www.w3.org/1999/xlink" width="67.46396" height="79.8594" viewBox="0,0,67.46396,79.8594"><g transform="translate(-203.19386,-145.42477)"><g data-paper-data="{&quot;isPaintingLayer&quot;:true}" fill-rule="nonzero" stroke="#000000" stroke-width="2" stroke-linejoin="miter" stroke-miterlimit="10" stroke-dasharray="" stroke-dashoffset="0" style="mix-blend-mode: normal"><path d="M212.92283,169.83577l25.36697,-3.17666l0.97552,7.78986l-25.36697,3.17666z" fill="#181818" stroke-linecap="butt"/><path d="M228.80073,176.67263l-6.04148,3.07684l8.11707,-18.21615l1.77253,5.83352l5.05818,-2.75026l-5.77414,15.83247z" data-paper-data="{&quot;index&quot;:null}" fill="#0e0e0e" stroke-linecap="round"/><path d="M244.73497,151.33784c-0.60053,2.02515 -2.72908,3.18006 -4.75424,2.57952c-2.02515,-0.60053 -3.18006,-2.72908 -2.57952,-4.75424c0.60053,-2.02515 2.72908,-3.18006 4.75424,-2.57952c2.02515,0.60053 3.18006,2.72908 2.57952,4.75424z" fill="#181818" stroke-linecap="butt"/><path d="M263.83151,165.97855c0,0 0.79526,2.95769 0.82212,4.99493c0.02126,1.61394 -0.67381,6.2571 -0.67381,6.2571" data-paper-data="{&quot;index&quot;:null}" fill="#181818" stroke-linecap="round"/><path d="M268.80599,162.45165c1.56352,2.36482 0.91398,5.54938 -1.45086,7.1129c-2.36482,1.56352 -5.54939,0.91399 -7.1129,-1.45086c-1.56352,-2.36482 -0.91398,-5.54938 1.45086,-7.1129c2.36482,-1.56352 5.54939,-0.91399 7.1129,1.45086z" data-paper-data="{&quot;index&quot;:null}" fill="#181818" stroke-linecap="butt"/><path d="M251.52303,167.86071c8.14754,4.21214 11.3378,14.23162 7.12568,22.37913c-4.21214,8.14754 -14.23162,11.3378 -22.37913,7.12568c-8.14754,-4.21214 -11.3378,-14.23162 -7.12568,-22.37913c4.21214,-8.14754 14.23162,-11.3378 22.37913,-7.12568z" fill="#181818" stroke-linecap="butt"/><path d="M237.09347,177.6667l4.65897,2.40859c0,0 -4.15376,3.12056 -6.52479,7.70684c-2.37103,4.5863 -2.38299,9.52356 -2.38299,9.52356l-4.65897,-2.40859z" fill="#ff0000" stroke-linecap="butt"/><g><path d="M256.94614,172.78919l10.71563,5.53978l-13.6086,26.32315l-10.71561,-5.53979z" fill="#343434" stroke-linecap="butt"/><path d="M261.88379,163.23831l-23.48389,45.42494" fill="none" stroke-linecap="round"/></g><path d="M256.05276,153.80813c-0.60053,2.02515 -2.72908,3.18006 -4.75424,2.57952c-2.02515,-0.60053 -3.18006,-2.72908 -2.57952,-4.75424c0.60053,-2.02515 2.72908,-3.18006 4.75424,-2.57952c2.02515,0.60053 3.18006,2.72908 2.57952,4.75424z" fill="#181818" stroke-linecap="butt"/><path d="M223.05463,206.49581c4.31832,2.41407 4.23749,5.41479 2.63714,8.2775c-1.60033,2.86271 -6.39836,3.22643 -10.71669,0.81234c-4.31832,-2.41407 -7.40572,-5.11036 -5.80538,-7.97307c0.61807,-1.10562 6.75526,-5.10246 13.88494,-1.11679z" data-paper-data="{&quot;index&quot;:null}" fill="#181818" stroke-linecap="butt"/><path d="M218.45445,215.73979c2.67346,4.16272 1.18952,6.7721 -1.57003,8.54438c-2.75956,1.7723 -7.16388,-0.16553 -9.83735,-4.32825c-2.67346,-4.16272 -4.12806,-7.99497 -1.36849,-9.76726c1.0658,-0.68449 8.36194,-1.32162 12.77589,5.55114z" data-paper-data="{&quot;index&quot;:null}" fill="#181818" stroke-linecap="butt"/></g></g></svg>