<svg version="1.1" xmlns="http://www.w3.org/2000/svg" xmlns:xlink="http://www.w3.org/1999/xlink" width="72.34088" height="82.41025" viewBox="0,0,72.34088,82.41025"><g transform="translate(-188.5626,-126.94723)"><g data-paper-data="{&quot;isPaintingLayer&quot;:true}" fill-rule="nonzero" stroke="#000000" stroke-width="2" stroke-linejoin="miter" stroke-miterlimit="10" stroke-dasharray="" stroke-dashoffset="0" style="mix-blend-mode: normal"><path d="M238.28372,165.00017c-1.01825,-1.85069 -0.34343,-4.17644 1.50726,-5.1947c1.85069,-1.01825 4.17644,-0.34343 5.1947,1.50726c1.01825,1.85069 0.34343,4.17644 -1.50726,5.1947c-1.85069,1.01825 -4.17644,0.34343 -5.1947,-1.50726z" fill="#1d28e8" stroke-linecap="butt"/><path d="M233.58434,205.29456l-10.61237,-23.25838l7.14234,-3.25892l10.61237,23.25838z" fill="#1d28e8" stroke-linecap="butt"/><path d="M205.33458,177.60879c-1.01825,-1.85069 -0.34343,-4.17644 1.50726,-5.1947c1.85069,-1.01825 4.17644,-0.34343 5.1947,1.50726c1.01825,1.85069 0.34343,4.17644 -1.50726,5.1947c-1.85069,1.01825 -4.17644,0.34343 -5.1947,-1.50726z" fill="#1d28e8" stroke-linecap="butt"/><path d="M209.48024,161.51178c1.68654,-9.01554 10.3623,-14.95684 19.37783,-13.2703c9.01554,1.68654 14.95684,10.3623 13.2703,19.37783c-1.68654,9.01554 -10.3623,14.95684 -19.37783,13.2703c-9.01554,-1.68654 -14.95684,-10.3623 -13.2703,-19.37783z" fill="#1d28e8" stroke-linecap="butt"/><path d="M199.46828,163.31229c0,0 2.66894,-1.50237 4.63619,-2.03248c1.55849,-0.41995 6.22925,-0.8954 6.22925,-0.8954" fill="none" stroke-linecap="round"/><path d="M189.58071,165.85545c-0.23605,-2.82512 1.86279,-5.30669 4.68792,-5.54272c2.82512,-0.23605 5.30669,1.86279 5.54272,4.68792c0.23605,2.82512 -1.86279,5.30669 -4.68792,5.54272c-2.82512,0.23605 -5.30669,-1.86279 -5.54272,-4.68792z" fill="#1d28e8" stroke-linecap="butt"/><path d="M209.43301,160.68387l-7.12671,-21.9143l39.68526,-10.49987l-1.86287,28.44539l20.64803,-2.59214z" fill="#2530ff" stroke-linecap="round"/><path d="M246.02418,184.32826c3.12005,-3.83937 6.06231,-3.2442 8.60751,-1.17584c2.54519,2.06835 2.07919,6.85752 -1.0409,10.69689c-3.12005,3.83937 -6.3067,6.41763 -8.85193,4.34927c-0.983,-0.79884 -3.86602,-7.53145 1.28529,-13.87033z" data-paper-data="{&quot;index&quot;:null}" fill="#1d28e8" stroke-linecap="butt"/><path d="M234.02758,194.03063c4.09397,-2.7776 6.73993,-1.35993 8.58128,1.35405c1.84132,2.71399 0.01521,7.16578 -4.07878,9.94337c-4.09397,2.7776 -7.88831,4.32838 -9.72965,1.6144c-0.71115,-1.04818 -1.53208,-8.32596 5.22714,-12.91181z" data-paper-data="{&quot;index&quot;:null}" fill="#1d28e8" stroke-linecap="butt"/></g></g></svg>