<svg version="1.1" xmlns="http://www.w3.org/2000/svg" xmlns:xlink="http://www.w3.org/1999/xlink" width="39.42597" height="8.10316" viewBox="0,0,39.42597,8.10316"><defs><linearGradient x1="230.11267" y1="183.19033" x2="230.11267" y2="189.73445" gradientUnits="userSpaceOnUse" id="color-1"><stop offset="0" stop-color="#ff0000"/><stop offset="1" stop-color="#ff7070"/></linearGradient><linearGradient x1="225.70551" y1="183.31498" x2="225.70551" y2="189.85909" gradientUnits="userSpaceOnUse" id="color-2"><stop offset="0" stop-color="#ff0000"/><stop offset="1" stop-color="#ff7070"/></linearGradient><linearGradient x1="227.79951" y1="182.06848" x2="227.79951" y2="190.1084" gradientUnits="userSpaceOnUse" id="color-3"><stop offset="0" stop-color="#ff0000"/><stop offset="1" stop-color="#ff7070"/></linearGradient><linearGradient x1="254.02175" y1="183.12709" x2="254.02175" y2="189.6712" gradientUnits="userSpaceOnUse" id="color-4"><stop offset="0" stop-color="#ff0000"/><stop offset="1" stop-color="#ff7070"/></linearGradient><linearGradient x1="249.61459" y1="183.25174" x2="249.61459" y2="189.79585" gradientUnits="userSpaceOnUse" id="color-5"><stop offset="0" stop-color="#ff0000"/><stop offset="1" stop-color="#ff7070"/></linearGradient><linearGradient x1="251.70859" y1="182.00524" x2="251.70859" y2="190.04516" gradientUnits="userSpaceOnUse" id="color-6"><stop offset="0" stop-color="#ff0000"/><stop offset="1" stop-color="#ff7070"/></linearGradient></defs><g transform="translate(-220.15066,-182.00524)"><g data-paper-data="{&quot;isPaintingLayer&quot;:true}" fill-rule="nonzero" stroke="none" stroke-width="0" stroke-linecap="butt" stroke-linejoin="miter" stroke-miterlimit="10" stroke-dasharray="" stroke-dashoffset="0" style="mix-blend-mode: normal"><path d="M235.66754,186.46239c0,1.80711 -2.487,3.27205 -5.55486,3.27205c-3.06787,0 -5.55486,-1.46495 -5.55486,-3.27205c0,-1.80711 2.487,-3.27205 5.55486,-3.27205c3.06787,0 5.55486,1.46495 5.55486,3.27205z" fill="url(#color-1)"/><path d="M231.26038,186.58703c0,1.80711 -2.487,3.27205 -5.55486,3.27205c-3.06787,0 -5.55486,-1.46495 -5.55486,-3.27205c0,-1.80711 2.487,-3.27205 5.55486,-3.27205c3.06787,0 5.55486,1.46495 5.55486,3.27205z" fill="url(#color-2)"/><path d="M227.79951,182.06848c3.06787,0 5.55486,1.79979 5.55486,4.01996c0,2.22016 -2.487,4.01996 -5.55486,4.01996c-3.06787,0 -5.55486,-1.79979 -5.55486,-4.01996c0,-2.22016 2.487,-4.01996 5.55486,-4.01996z" fill="url(#color-3)"/><path d="M259.57662,186.39914c0,1.80711 -2.487,3.27205 -5.55486,3.27205c-3.06787,0 -5.55486,-1.46495 -5.55486,-3.27205c0,-1.80711 2.487,-3.27205 5.55486,-3.27205c3.06787,0 5.55486,1.46495 5.55486,3.27205z" fill="url(#color-4)"/><path d="M255.16946,186.52379c0,1.80711 -2.487,3.27205 -5.55486,3.27205c-3.06787,0 -5.55486,-1.46495 -5.55486,-3.27205c0,-1.80711 2.487,-3.27205 5.55486,-3.27205c3.06787,0 5.55486,1.46495 5.55486,3.27205z" fill="url(#color-5)"/><path d="M251.70859,182.00524c3.06787,0 5.55486,1.79979 5.55486,4.01996c0,2.22016 -2.487,4.01996 -5.55486,4.01996c-3.06787,0 -5.55486,-1.79979 -5.55486,-4.01996c0,-2.22016 2.487,-4.01996 5.55486,-4.01996z" fill="url(#color-6)"/></g></g></svg>