<svg version="1.1" xmlns="http://www.w3.org/2000/svg" xmlns:xlink="http://www.w3.org/1999/xlink" width="90.69068" height="105.35486" viewBox="0,0,90.69068,105.35486"><g transform="translate(-174.75416,-121.73465)"><g data-paper-data="{&quot;isPaintingLayer&quot;:true}" fill-rule="nonzero" stroke="#000000" stroke-width="2" stroke-linejoin="miter" stroke-miterlimit="10" stroke-dasharray="" stroke-dashoffset="0" style="mix-blend-mode: normal"><path d="M250.82487,191.81565c0,-2.11232 1.71238,-3.8247 3.8247,-3.8247c2.11232,0 3.8247,1.71238 3.8247,3.8247c0,2.11232 -1.71238,3.8247 -3.8247,3.8247c-2.11232,0 -3.8247,-1.71238 -3.8247,-3.8247z" fill="#ff6b00" stroke-linecap="butt"/><path d="M206.34135,185.47222c-8.15042,4.20652 -18.1677,1.00936 -22.37423,-7.14107c-4.20652,-8.15042 -1.00936,-18.1677 7.14107,-22.37423c8.15042,-4.20652 18.1677,-1.00936 22.37423,7.14107c4.20652,8.15042 1.00936,18.1677 -7.14107,22.37423z" data-paper-data="{&quot;index&quot;:null}" fill="#ff6b00" stroke-linecap="butt"/><path d="M228.89202,209.25831l-16.04748,-19.90106l6.11136,-4.92797l16.04748,19.90106z" fill="#ff6b00" stroke-linecap="butt"/><path d="M246.2509,195.25061c0,-2.11232 1.71238,-3.8247 3.8247,-3.8247c2.11232,0 3.8247,1.71238 3.8247,3.8247c0,2.11232 -1.71238,3.8247 -3.8247,3.8247c-2.11232,0 -3.8247,-1.71238 -3.8247,-3.8247z" fill="#ff6b00" stroke-linecap="butt"/><path d="M215.38288,215.01801c4.11347,0 7.4481,2.47844 7.4481,5.53575c0,3.05731 -3.33463,5.53575 -7.4481,5.53575c-4.11347,0 -7.4481,-2.47844 -7.4481,-5.53575c0,-3.05731 3.33463,-5.53575 7.4481,-5.53575z" data-paper-data="{&quot;index&quot;:null}" fill="#ff6b00" stroke-linecap="butt"/><path d="M204.68608,154.30293c0,0 4.6927,0.14382 6.27698,0.45247c1.99982,0.3896 4.76835,1.69941 4.76835,1.69941" data-paper-data="{&quot;index&quot;:null}" fill="none" stroke-linecap="round"/><path d="M221.59028,163.02261c-2.83474,-0.0356 -5.10388,-2.36246 -5.06828,-5.1972c0.0356,-2.83474 2.36246,-5.10388 5.1972,-5.06828c2.83474,0.0356 5.10388,2.36246 5.06828,5.1972c-0.0356,2.83474 -2.36246,5.10388 -5.1972,5.06828z" data-paper-data="{&quot;index&quot;:null}" fill="#ff6b00" stroke-linecap="butt"/><path d="M256.25076,211.5285c4.52935,-1.99011 6.87479,-0.11664 8.19408,2.88597c1.31929,3.00261 -1.28298,7.05 -5.81234,9.04013c-4.52935,1.99011 -8.54183,2.82799 -9.86112,-0.17462c-0.50953,-1.15965 0.00132,-8.46573 7.47939,-11.75146z" data-paper-data="{&quot;index&quot;:null}" fill="#ff6b00" stroke-linecap="butt"/><path d="M178.02591,162.66124l9.80172,-8.33751l-11.62674,-31.55504l47.37954,1.10601l-13.85113,31.2261l9.34499,8.88743z" data-paper-data="{&quot;index&quot;:null}" fill="#ffa340" stroke-linecap="butt"/></g></g></svg>