<svg version="1.1" xmlns="http://www.w3.org/2000/svg" xmlns:xlink="http://www.w3.org/1999/xlink" width="115.61255" height="66.63796" viewBox="0,0,115.61255,66.63796"><g transform="translate(-209.09306,-159.43059)"><g data-paper-data="{&quot;isPaintingLayer&quot;:true}" fill-rule="nonzero" stroke="#000000" stroke-width="2" stroke-linejoin="miter" stroke-miterlimit="10" stroke-dasharray="" stroke-dashoffset="0" style="mix-blend-mode: normal"><path d="M231.32705,197.60431c0,-2.11232 1.71238,-3.8247 3.8247,-3.8247c2.11232,0 3.8247,1.71238 3.8247,3.8247c0,2.11232 -1.71238,3.8247 -3.8247,3.8247c-2.11232,0 -3.8247,-1.71238 -3.8247,-3.8247z" fill="#ffe819" stroke-linecap="butt"/><path d="M272.85389,183.0506c0.549,-9.15548 8.41605,-16.13241 17.57152,-15.5834c9.15548,0.549 16.13241,8.41605 15.5834,17.57152c-0.549,9.15548 -8.41605,16.13241 -17.57152,15.5834c-9.15548,-0.549 -16.13241,-8.41605 -15.5834,-17.57152z" fill="#ffe819" stroke-linecap="butt"/><path d="M236.93149,206.15442l22.11069,-12.83318l3.9409,6.78991l-22.11069,12.83318z" fill="#ffe819" stroke-linecap="butt"/><path d="M217.54116,213.79989c4.11347,0 7.4481,2.47844 7.4481,5.53575c0,3.05731 -3.33463,5.53575 -7.4481,5.53575c-4.11347,0 -7.4481,-2.47844 -7.4481,-5.53575c0,-3.05731 3.33463,-5.53575 7.4481,-5.53575z" data-paper-data="{&quot;index&quot;:null}" fill="#ffe819" stroke-linecap="butt"/><path d="M258.4026,176.97295c0,0 2.23342,-2.09575 4.01739,-3.0799c1.41328,-0.77965 5.83573,-2.35573 5.83573,-2.35573" fill="none" stroke-linecap="round"/><path d="M249.40731,181.80169c-0.90326,-2.68721 0.54292,-5.59787 3.23013,-6.50113c2.68721,-0.90326 5.59787,0.54292 6.50113,3.23013c0.90326,2.68721 -0.54292,5.59787 -3.23013,6.50113c-2.68721,0.90326 -5.59787,-0.54292 -6.50113,-3.23013z" fill="#ffe819" stroke-linecap="butt"/><path d="M269.61064,213.19185c4.94728,0 6.34095,2.65869 6.34095,5.93835c0,3.27966 -4.01056,5.93835 -8.95785,5.93835c-4.94728,0 -8.95785,-0.84699 -8.95785,-4.12665c0,-1.26666 3.40667,-7.75005 11.57475,-7.75005z" data-paper-data="{&quot;index&quot;:null}" fill="#ffe819" stroke-linecap="butt"/><path d="M268.33589,182.73252l5.50498,-10.00707l-11.43334,-2.26974c0,0 14.25487,-10.96596 24.87234,-11.02512c10.61747,-0.05917 18.04823,10.78595 18.04823,10.78595z" data-paper-data="{&quot;index&quot;:null}" fill="#fff067" stroke-linecap="butt"/><path d="M312.49951,219.4986c0,-2.11232 2.50857,-3.8247 5.60305,-3.8247c3.09447,0 5.60305,1.71238 5.60305,3.8247c0,2.11232 -2.50857,3.8247 -5.60305,3.8247c-3.09447,0 -5.60305,-1.71238 -5.60305,-3.8247z" fill="#ffe819" stroke-linecap="butt"/></g></g></svg>