<svg version="1.1" xmlns="http://www.w3.org/2000/svg" xmlns:xlink="http://www.w3.org/1999/xlink" width="75.32113" height="55.17366" viewBox="0,0,75.32113,55.17366"><defs><linearGradient x1="245.77429" y1="158.96802" x2="245.77429" y2="194.06944" gradientUnits="userSpaceOnUse" id="color-1"><stop offset="0" stop-color="#5a6593"/><stop offset="1" stop-color="#686868"/></linearGradient><linearGradient x1="233.49844" y1="159.63662" x2="233.49844" y2="194.73801" gradientUnits="userSpaceOnUse" id="color-2"><stop offset="0" stop-color="#5a6593"/><stop offset="1" stop-color="#686868"/></linearGradient><linearGradient x1="239.33114" y1="140.56264" x2="239.33114" y2="195.73627" gradientUnits="userSpaceOnUse" id="color-3"><stop offset="0" stop-color="#5a6593"/><stop offset="1" stop-color="#686868"/></linearGradient></defs><g transform="translate(-202.33943,-140.56263)"><g data-paper-data="{&quot;isPaintingLayer&quot;:true}" fill-rule="nonzero" stroke-linejoin="miter" stroke-miterlimit="10" stroke-dasharray="" stroke-dashoffset="0" style="mix-blend-mode: normal"><path d="M203.3458,182.59533c0,0 1.6085,-6.67991 37.43772,-6.74139c35.42723,-0.06079 35.87705,6.89772 35.87705,6.89772" fill="none" stroke="#b4b37c" stroke-width="2" stroke-linecap="round"/><path d="M261.24701,176.51873c0,9.69299 -6.92737,17.55069 -15.47269,17.55069c-8.54535,0 -15.47269,-7.8577 -15.47269,-17.55069c0,-9.69299 6.92737,-17.55069 15.47269,-17.55069c8.54535,0 15.47269,7.8577 15.47269,17.55069z" fill="url(#color-1)" stroke="none" stroke-width="0" stroke-linecap="butt"/><path d="M248.97116,177.1873c0,9.69299 -6.92737,17.5507 -15.47269,17.5507c-8.54535,0 -15.4727,-7.8577 -15.4727,-17.5507c0,-9.69299 6.92738,-17.55069 15.4727,-17.55069c8.54535,0 15.47269,7.8577 15.47269,17.55069z" fill="url(#color-2)" stroke="none" stroke-width="0" stroke-linecap="butt"/><path d="M239.33114,140.56264c8.54535,0 15.47269,12.35103 15.47269,27.58683c0,15.23577 -6.92737,27.58683 -15.47269,27.58683c-8.54535,0 -15.4727,-12.35106 -15.4727,-27.58683c0,-15.23577 6.92738,-27.58683 15.4727,-27.58683z" data-paper-data="{&quot;origPos&quot;:null}" fill="url(#color-3)" stroke="none" stroke-width="0" stroke-linecap="butt"/><path d="M276.6542,183.04212c0,0 -0.44981,7.27117 -35.87705,7.21038c-35.82921,-0.06148 -37.43771,-6.74139 -37.43771,-6.74139" data-paper-data="{&quot;index&quot;:null}" fill="none" stroke="#b4b37c" stroke-width="2" stroke-linecap="round"/></g></g></svg>