<svg version="1.1" xmlns="http://www.w3.org/2000/svg" xmlns:xlink="http://www.w3.org/1999/xlink" width="71.73504" height="111.82231" viewBox="0,0,71.73504,111.82231"><g transform="translate(-215.88663,-118.34964)"><g data-paper-data="{&quot;isPaintingLayer&quot;:true}" fill-rule="nonzero" stroke-linejoin="miter" stroke-miterlimit="10" stroke-dasharray="" stroke-dashoffset="0" style="mix-blend-mode: normal"><path d="M216.67354,150.8714l10.3707,-13.17347l-5.21181,1.18313l15.88783,-20.53142l-6.62971,15.87468l3.95597,-1.65983l-6.37236,13.73826l5.83902,-1.43708l-6.46966,10.85179l4.98294,-0.89877l-4.56638,17.79192l-11.06618,-3.21199l5.55124,-10.05956l-7.0585,0.63113l7.71373,-9.67318l-6.92682,0.57437" data-paper-data="{&quot;index&quot;:null}" fill="#fff200" stroke="none" stroke-width="0.66342" stroke-linecap="butt"/><path d="M249.36206,194.83609c0.25803,-2.0965 2.16676,-3.58688 4.26326,-3.32885c2.0965,0.25803 3.58688,2.16676 3.32885,4.26326c-0.25803,2.0965 -2.16676,3.58688 -4.26326,3.32885c-2.0965,-0.25803 -3.58688,-2.16676 -3.32885,-4.26326z" fill="#ffe819" stroke="#000000" stroke-width="2" stroke-linecap="butt"/><path d="M229.08012,197.47268l11.58063,-22.79173l6.99904,3.55626l-11.58063,22.79173z" fill="#ffe819" stroke="#000000" stroke-width="2" stroke-linecap="butt"/><path d="M226.16061,154.96536c-2.0965,-0.25803 -3.58688,-2.16676 -3.32885,-4.26326c0.25803,-2.0965 2.16676,-3.58688 4.26326,-3.32885c2.0965,0.25803 3.58688,2.16676 3.32885,4.26326c-0.25803,2.0965 -2.16676,3.58688 -4.26326,3.32885z" data-paper-data="{&quot;index&quot;:null}" fill="#ffe819" stroke="#000000" stroke-width="2" stroke-linecap="butt"/><path d="M253.81986,214.72307c3.93567,-2.99769 6.65533,-1.7271 8.64256,0.88194c1.98723,2.60904 0.40771,7.15419 -3.52797,10.15188c-3.93567,2.99769 -7.63937,4.75399 -9.6266,2.14495c-0.7675,-1.00766 -1.98587,-8.22952 4.51201,-13.17876z" data-paper-data="{&quot;index&quot;:null}" fill="#ffe819" stroke="#000000" stroke-width="2" stroke-linecap="butt"/><path d="M238.78636,208.29774c-5.1699,0.86238 -9.79523,-1.04204 -10.33094,-4.25366c-0.53572,-3.2116 3.22102,-6.51423 8.39093,-7.37661c5.1699,-0.86238 8.3769,1.27863 8.91263,4.49024c0.53572,3.2116 -1.8027,6.27764 -6.97261,7.14002z" fill="#ffe819" stroke="#000000" stroke-width="2" stroke-linecap="butt"/><path d="M252.7864,159.75176c5.86714,-7.04989 16.33846,-8.00869 23.38834,-2.14156c7.04989,5.86714 8.00869,16.33846 2.14156,23.38834c-5.86714,7.04989 -16.33846,8.00869 -23.38834,2.14156c-7.04989,-5.86714 -8.00869,-16.33846 -2.14156,-23.38834z" fill="#ffe819" stroke="#000000" stroke-width="2" stroke-linecap="butt"/><path d="M251.821,134.63279c0,0 2.60577,1.60944 4.02118,3.07495c1.12131,1.161 3.79638,5.01923 3.79638,5.01923" fill="none" stroke="#000000" stroke-width="2" stroke-linecap="round"/><path d="M244.81307,127.20843c2.35858,-1.57294 5.54569,-0.93604 7.11863,1.42253c1.57294,2.35858 0.93604,5.54569 -1.42253,7.11863c-2.35858,1.57294 -5.54569,0.93604 -7.11863,-1.42253c-1.57294,-2.35858 -0.93604,-5.54569 1.42253,-7.11863z" fill="#ffe819" stroke="#000000" stroke-width="2" stroke-linecap="butt"/><path d="M249.40276,156.27109l10.36401,-4.79932l-2.19946,-15.86047c0,0 12.31487,6.8703 20.90282,13.11379c8.58795,6.24349 8.14774,19.38271 8.14774,19.38271z" data-paper-data="{&quot;index&quot;:null}" fill="#fff067" stroke="#000000" stroke-width="2" stroke-linecap="butt"/></g></g></svg>