<svg version="1.1" xmlns="http://www.w3.org/2000/svg" xmlns:xlink="http://www.w3.org/1999/xlink" width="106.38209" height="90.78746" viewBox="0,0,106.38209,90.78746"><g transform="translate(-191.74847,-134.8785)"><g data-paper-data="{&quot;isPaintingLayer&quot;:true}" fill-rule="nonzero" stroke="#000000" stroke-width="2" stroke-linejoin="miter" stroke-miterlimit="10" stroke-dasharray="" stroke-dashoffset="0" style="mix-blend-mode: normal"><path d="M236.90277,209.29841c-0.37651,-2.07849 1.00322,-4.06868 3.08171,-4.44519c2.07849,-0.37651 4.06868,1.00322 4.44519,3.08171c0.37651,2.07849 -1.00322,4.06868 -3.08171,4.44519c-2.07849,0.37651 -4.06868,-1.00322 -4.44519,-3.08171z" fill="#ffe819" stroke-linecap="butt"/><path d="M216.60328,160.31966c0,-9.17193 7.43532,-16.60724 16.60724,-16.60724c9.17193,0 16.60724,7.43532 16.60724,16.60724c0,9.17193 -7.43532,16.60724 -16.60724,16.60724c-9.17193,0 -16.60724,-7.43532 -16.60724,-16.60724z" fill="#ffe819" stroke-linecap="butt"/><path d="M239.53813,205.29456l-4.5569,-25.15569l7.72498,-1.39936l4.5569,25.15569z" fill="#ffe819" stroke-linecap="butt"/><path d="M224.69215,208.45702c-0.37651,-2.07849 1.00322,-4.06868 3.08171,-4.44519c2.07849,-0.37651 4.06868,1.00322 4.44519,3.08171c0.37651,2.07849 -1.00322,4.06868 -3.08171,4.44519c-2.07849,0.37651 -4.06868,-1.00322 -4.44519,-3.08171z" fill="#ffe819" stroke-linecap="butt"/><path d="M229.28552,213.59446c4.11347,0 7.4481,2.47844 7.4481,5.53575c0,3.05731 -3.33463,5.53575 -7.4481,5.53575c-4.11347,0 -7.4481,-2.47844 -7.4481,-5.53575c0,-3.05731 3.33463,-5.53575 7.4481,-5.53575z" data-paper-data="{&quot;index&quot;:null}" fill="#ffe819" stroke-linecap="butt"/><path d="M201.8141,155.11792c0,0 2.10397,-2.22568 3.82583,-3.31485c1.36408,-0.86285 5.68426,-2.70082 5.68426,-2.70082" fill="none" stroke-linecap="round"/><path d="M193.12397,160.47643c-1.06249,-2.62833 0.20687,-5.62033 2.8352,-6.68282c2.62833,-1.06249 5.62033,0.20687 6.68282,2.8352c1.06249,2.62833 -0.20687,5.62033 -2.8352,6.68282c-2.62833,1.06249 -5.62033,-0.20687 -6.68282,-2.8352z" fill="#ffe819" stroke-linecap="butt"/><path d="M288.60143,200.91923c4.18787,-2.63388 6.78307,-1.12527 8.52913,1.65096c1.74605,2.77623 -0.23343,7.16199 -4.42131,9.79587c-4.18787,2.63388 -49.15828,0.88865 -50.90433,-1.88758c-0.67436,-1.07223 39.88223,-5.21066 46.79651,-9.55926z" data-paper-data="{&quot;index&quot;:null}" fill="#ffe819" stroke-linecap="butt"/><path d="M212.07433,160.27257l4.89612,-10.31864l-11.5487,-1.5813c0,0 13.57292,-11.79955 24.16781,-12.49414c10.59489,-0.69459 18.66148,9.6863 18.66148,9.6863z" data-paper-data="{&quot;index&quot;:null}" fill="#fff067" stroke-linecap="butt"/></g></g></svg>