<svg version="1.1" xmlns="http://www.w3.org/2000/svg" xmlns:xlink="http://www.w3.org/1999/xlink" width="60.28833" height="87.50149" viewBox="0,0,60.28833,87.50149"><g transform="translate(-206.50378,-132.12065)"><g data-paper-data="{&quot;isPaintingLayer&quot;:true}" fill-rule="nonzero" stroke="#000000" stroke-width="2" stroke-linejoin="miter" stroke-miterlimit="10" stroke-dasharray="" stroke-dashoffset="0" style="mix-blend-mode: normal"><path d="M227.4007,153.36703c0,-9.17193 7.43532,-16.60724 16.60724,-16.60724c9.17193,0 16.60724,7.43532 16.60724,16.60724c0,9.17193 -7.43532,16.60724 -16.60724,16.60724c-9.17193,0 -16.60724,-7.43532 -16.60724,-16.60724z" fill="#2d6a2b" stroke-linecap="butt"/><path d="M236.33318,134.98572c14.84222,-5.55435 25.0872,3.06696 25.0872,3.06696l-37.64308,16.22019c0,0 -3.40193,-13.31531 12.55588,-19.28715z" fill="#367e33" stroke-linecap="round"/><path d="M234.56558,197.18059l3.69303,-25.29694l7.76836,1.13408l-3.69303,25.29694z" fill="#2d6a2b" stroke-linecap="butt"/><path d="M223.65146,185.50436c0,-2.11232 1.71238,-3.8247 3.8247,-3.8247c2.11232,0 3.8247,1.71238 3.8247,3.8247c0,2.11232 -1.71238,3.8247 -3.8247,3.8247c-2.11232,0 -3.8247,-1.71238 -3.8247,-3.8247z" fill="#2d6a2b" stroke-linecap="butt"/><path d="M251.64757,176.59963c0,-2.11232 1.71238,-3.8247 3.8247,-3.8247c2.11232,0 3.8247,1.71238 3.8247,3.8247c0,2.11232 -1.71238,3.8247 -3.8247,3.8247c-2.11232,0 -3.8247,-1.71238 -3.8247,-3.8247z" fill="#2d6a2b" stroke-linecap="butt"/><path d="M257.56931,203.90632c4.50903,-2.03575 6.87326,-0.18606 8.2228,2.80307c1.34954,2.98913 -1.21173,7.0626 -5.72076,9.09835c-4.50903,2.03575 -8.51284,2.9141 -9.86238,-0.07503c-0.52122,-1.15445 -0.08417,-8.46531 7.36035,-11.82639z" data-paper-data="{&quot;index&quot;:null}" fill="#2d6a2b" stroke-linecap="butt"/><path d="M217.31368,142.83248c0,0 2.60141,-1.61649 4.54387,-2.23127c1.53884,-0.48702 6.18465,-1.16421 6.18465,-1.16421" fill="none" stroke-linecap="round"/><path d="M207.54546,145.80126c-0.35812,-2.81225 1.63134,-5.38234 4.44359,-5.74047c2.81225,-0.35812 5.38234,1.63134 5.74047,4.44359c0.35812,2.81225 -1.63134,5.38234 -4.44359,5.74047c-2.81225,0.35812 -5.38234,-1.63134 -5.74047,-4.44359z" fill="#2d6a2b" stroke-linecap="butt"/><path d="M222.14099,216.49245c-3.64984,3.33979 -6.47284,2.31919 -8.68686,-0.10037c-2.21402,-2.41956 -1.05005,-7.08844 2.59978,-10.42824c3.64984,-3.33979 7.18041,-5.42237 9.39443,-3.00282c0.85509,0.93447 2.71862,8.01735 -3.30735,13.53143z" data-paper-data="{&quot;index&quot;:null}" fill="#2d6a2b" stroke-linecap="butt"/></g></g></svg>