<svg version="1.1" xmlns="http://www.w3.org/2000/svg" xmlns:xlink="http://www.w3.org/1999/xlink" width="33.405" height="36.92394" viewBox="0,0,33.405,36.92394"><g transform="translate(-222.62395,-163.24993)"><g data-paper-data="{&quot;isPaintingLayer&quot;:true}" fill-rule="nonzero" stroke="#000000" stroke-width="0" stroke-linecap="round" stroke-linejoin="miter" stroke-miterlimit="10" stroke-dasharray="" stroke-dashoffset="0" style="mix-blend-mode: normal"><g><path d="M225.36585,167.508l0.24983,-3.92474l3.73272,4.62198l0.90853,-1.36824l0.41146,3.59589l-0.0837,2.5375l-3.42285,0.20349l-3.65129,-0.94312l0.99721,-1.33959l-1.8838,-3.57111z" fill="#fdff6c"/><path d="M226.34126,168.61147l0.17953,-2.82034l2.68235,3.32138l0.65287,-0.98322l0.29567,2.58402l-0.40023,1.53363l-2.11959,0.43606l-2.62383,-0.67773l0.7166,-0.96264l-1.35371,-2.56621z" fill="#fdff8b"/></g><g data-paper-data="{&quot;index&quot;:null}"><path d="M256.02895,166.85685l-1.81832,3.44699l0.96255,1.29303l-3.52438,0.91035l-3.30388,-0.19641l-0.08079,-2.44931l0.39716,-3.47091l0.87696,1.32068l3.60299,-4.46133l0.24116,3.78833z" fill="#fdff6c"/><path d="M254.34271,167.97301l-1.30666,2.47703l0.69169,0.92918l-2.53264,0.65417l-2.04592,-0.42091l-0.38632,-1.48032l0.2854,-2.49421l0.63018,0.94904l2.58913,-3.20593l0.17329,2.72231z" fill="#fdff8b"/></g><g data-paper-data="{&quot;index&quot;:null}"><path d="M252.69176,195.61274l-0.25852,4.06115l-3.86246,-4.78262l-0.9401,1.41579l-0.42576,-3.72087l0.08661,-2.6257l3.54181,-0.21056l3.77819,0.97591l-1.03187,1.38615l1.94927,3.69523z" fill="#fdff6c"/><path d="M251.68245,194.47092l-0.18577,2.91835l-2.77558,-3.43681l-0.67556,1.01739l-0.30595,-2.67383l0.41415,-1.58693l2.19326,-0.45122l2.71503,0.70129l-0.7415,0.99609l1.40076,2.65541z" fill="#fdff8b"/></g><g data-paper-data="{&quot;index&quot;:null}"><path d="M223.62395,196.6319l1.78559,-3.38493l-0.94522,-1.26975l3.46093,-0.89395l3.2444,0.19288l0.07934,2.40521l-0.39001,3.40842l-0.86117,-1.29691l-3.53811,4.38101l-0.23681,-3.72013z" fill="#fdff6c"/><path d="M225.27984,195.53583l1.28313,-2.43242l-0.67924,-0.91245l2.48704,-0.6424l2.00908,0.41333l0.37937,1.45367l-0.28026,2.4493l-0.61883,-0.93196l-2.5425,3.14822l-0.17017,-2.67329z" fill="#fdff8b"/></g></g></g></svg>