<svg version="1.1" xmlns="http://www.w3.org/2000/svg" xmlns:xlink="http://www.w3.org/1999/xlink" width="64.59982" height="113.62713" viewBox="0,0,64.59982,113.62713"><g transform="translate(-196.7323,-113.46239)"><g data-paper-data="{&quot;isPaintingLayer&quot;:true}" fill-rule="nonzero" stroke="#000000" stroke-width="2" stroke-linejoin="miter" stroke-miterlimit="10" stroke-dasharray="" stroke-dashoffset="0" style="mix-blend-mode: normal"><path d="M215.1414,160.91182c2.73031,-8.75612 12.0419,-13.64101 20.79802,-10.9107c8.75612,2.73031 13.64101,12.0419 10.9107,20.79802c-2.73031,8.75612 -12.0419,13.64101 -20.79802,10.9107c-8.75612,-2.73031 -13.64101,-12.0419 -10.9107,-20.79802z" fill="#ff6b00" stroke-linecap="butt"/><path d="M231.36884,208.40273l-4.11694,-25.23142l7.74824,-1.26426l4.11694,25.23142z" fill="#ff6b00" stroke-linecap="butt"/><path d="M222.51941,193.26721c0,-2.11232 1.71238,-3.8247 3.8247,-3.8247c2.11232,0 3.8247,1.71238 3.8247,3.8247c0,2.11232 -1.71238,3.8247 -3.8247,3.8247c-2.11232,0 -3.8247,-1.71238 -3.8247,-3.8247z" fill="#ff6b00" stroke-linecap="butt"/><path d="M228.66912,215.01802c4.11347,0 7.4481,2.47844 7.4481,5.53575c0,3.05731 -3.33463,5.53575 -7.4481,5.53575c-4.11347,0 -7.4481,-2.47844 -7.4481,-5.53575c0,-3.05731 3.33463,-5.53575 7.4481,-5.53575z" data-paper-data="{&quot;index&quot;:null}" fill="#ff6b00" stroke-linecap="butt"/><path d="M213.58167,151.88038c0,0 2.49964,-1.7698 4.40167,-2.5001c1.50682,-0.57856 6.10357,-1.53349 6.10357,-1.53349" fill="none" stroke-linecap="round"/><path d="M204.00936,155.43039c-0.52635,-2.78567 1.30518,-5.47059 4.09085,-5.99694c2.78567,-0.52635 5.47059,1.30518 5.99694,4.09085c0.52635,2.78567 -1.30518,5.47059 -4.09085,5.99694c-2.78567,0.52635 -5.47059,-1.30518 -5.99694,-4.09085z" fill="#ff6b00" stroke-linecap="butt"/><path d="M255.61514,199.70395c4.72977,1.45081 5.28249,4.40132 4.32072,7.53679c-0.96178,3.13547 -5.57568,4.50115 -10.30547,3.05034c-4.72977,-1.45081 -8.31563,-3.43667 -7.35385,-6.57214c0.37145,-1.21096 5.52963,-6.41029 13.3386,-4.01497z" data-paper-data="{&quot;index&quot;:null}" fill="#ff6b00" stroke-linecap="butt"/><path d="M209.78843,162.75773l7.66329,-10.37253l-19.05335,-28.35301l46.47087,-9.30067l-5.98196,33.09256l11.09838,6.51259z" data-paper-data="{&quot;index&quot;:null}" fill="#ffa340" stroke-linecap="butt"/><path d="M228.6801,191.81566c0,-2.11232 1.71238,-3.8247 3.8247,-3.8247c2.11232,0 3.8247,1.71238 3.8247,3.8247c0,2.11232 -1.71238,3.8247 -3.8247,3.8247c-2.11232,0 -3.8247,-1.71238 -3.8247,-3.8247z" fill="#ff6b00" stroke-linecap="butt"/></g></g></svg>