<svg version="1.1" xmlns="http://www.w3.org/2000/svg" xmlns:xlink="http://www.w3.org/1999/xlink" width="56.02116" height="99.02534" viewBox="0,0,56.02116,99.02534"><g transform="translate(-219.74343,-128.52122)"><g data-paper-data="{&quot;isPaintingLayer&quot;:true}" fill-rule="nonzero" stroke="#000000" stroke-width="2" stroke-linejoin="miter" stroke-miterlimit="10" stroke-dasharray="" stroke-dashoffset="0" style="mix-blend-mode: normal"><path d="M237.35036,205.47598c0,-2.11232 1.71238,-3.8247 3.8247,-3.8247c2.11232,0 3.8247,1.71238 3.8247,3.8247c0,2.11232 -1.71238,3.8247 -3.8247,3.8247c-2.11232,0 -3.8247,-1.71238 -3.8247,-3.8247z" fill="#181818" stroke-linecap="butt"/><path d="M253.32882,156.52809l-3.82188,-3.59172l12.49478,-13.29539l3.82188,3.59172z" fill="#ff0000" stroke-linecap="butt"/><path d="M239.17091,168.71427c-5.90373,-7.01929 -4.99937,-17.49545 2.01992,-23.39916c7.01929,-5.90373 17.49545,-4.99937 23.39916,2.01992c5.90373,7.01929 4.99937,17.49545 -2.01992,23.39916c-7.01929,5.90373 -17.49545,4.99937 -23.39916,-2.01992z" fill="#181818" stroke-linecap="butt"/><path d="M248.40691,203.56612l0.67122,-25.55627l7.84799,0.20614l-0.67122,25.55627z" fill="#181818" stroke-linecap="butt"/><path d="M268.42365,213.94129c4.94728,0 6.34095,2.65869 6.34095,5.93835c0,3.27966 -4.01056,5.93835 -8.95785,5.93835c-4.94728,0 -8.95785,-0.84699 -8.95785,-4.12665c0,-1.26666 3.40667,-7.75005 11.57475,-7.75005z" data-paper-data="{&quot;index&quot;:null}" fill="#181818" stroke-linecap="butt"/><path d="M257.95561,182.81599l2.5888,7.16374l-17.83724,-1.91094l6.10912,-5.79176l-2.34509,-5.90235l15.61942,-0.21511z" data-paper-data="{&quot;index&quot;:null}" fill="#0e0e0e" stroke-linecap="round"/><g><g><path d="M239.37776,171.12041l-13.08237,-8.13277c0,0 8.26867,-8.75216 11.31006,-13.64454c3.19372,-5.13743 7.41764,-16.48082 7.41764,-16.48082l13.08237,8.13277c0,0 -4.894,11.12161 -8.00038,16.11855c-3.13589,5.04441 -10.72731,14.00681 -10.72731,14.00681z" fill="#343434" stroke-linecap="butt"/><path d="M264.02636,129.52122c0,0 -7.74362,18.30483 -13.08406,26.89547c-5.43062,8.73567 -19.23363,25.09075 -19.23363,25.09075" fill="none" stroke-linecap="round"/></g><path d="M243.91966,131.76119c2.01149,1.25045 -0.5939,9.07822 -5.81932,17.48381c-5.2254,8.40559 -11.09205,14.20594 -13.10355,12.95549c-2.01149,-1.25045 0.5939,-9.07822 5.81931,-17.4838c5.2254,-8.40559 11.09206,-14.20595 13.10356,-12.9555z" fill="#252525" stroke-linecap="butt"/></g><path d="M230.31633,173.67898c0,0 1.24001,-2.80049 2.49935,-4.4021c0.99767,-1.26883 4.45614,-4.44387 4.45614,-4.44387" fill="#181818" stroke-linecap="round"/><path d="M223.72113,181.95195c-1.87915,-2.12268 -1.68175,-5.36682 0.44096,-7.24597c2.12268,-1.87915 5.36682,-1.68175 7.24597,0.44096c1.87915,2.12268 1.68175,5.36682 -0.44096,7.24597c-2.12268,1.87915 -5.36682,1.68175 -7.24597,-0.44096z" fill="#181818" stroke-linecap="butt"/><path d="M233.4894,216.95396c3.09839,3.85688 1.89853,6.60847 -0.65827,8.66246c-2.55681,2.054 -7.14126,0.59248 -10.23966,-3.2644c-3.09839,-3.85688 -2.3833,-11.27834 2.77141,-13.83162c5.15471,-2.55327 3.01099,2.06577 8.12652,8.43356z" data-paper-data="{&quot;index&quot;:null}" fill="#181818" stroke-linecap="butt"/><path d="M257.1064,143.49964c-0.58715,-2.02908 0.58177,-4.14995 2.61085,-4.7371c2.02908,-0.58715 4.14995,0.58177 4.7371,2.61085c0.58715,2.02908 -0.58177,4.14995 -2.61085,4.7371c-2.02908,0.58715 -4.14995,-0.58177 -4.7371,-2.61085z" fill="#181818" stroke-linecap="butt"/></g></g></svg>