<svg version="1.1" xmlns="http://www.w3.org/2000/svg" xmlns:xlink="http://www.w3.org/1999/xlink" width="88.28355" height="87.2513" viewBox="0,0,88.28355,87.2513"><g transform="translate(-220.83742,-138.81725)"><g data-paper-data="{&quot;isPaintingLayer&quot;:true}" fill-rule="nonzero" stroke="#000000" stroke-width="2" stroke-linejoin="miter" stroke-miterlimit="10" stroke-dasharray="" stroke-dashoffset="0" style="mix-blend-mode: normal"><path d="M249.8987,161.50481c1.72795,-9.00769 10.4309,-14.90908 19.43858,-13.18114c9.00769,1.72795 14.90908,10.4309 13.18114,19.43858c-1.72795,9.00769 -10.4309,14.90908 -19.43858,13.18114c-9.00769,-1.72795 -14.90908,-10.4309 -13.18114,-19.43858z" fill="#ffe819" stroke-linecap="butt"/><path d="M235.50382,204.41248l10.55858,-23.28284l7.14985,3.2424l-10.55858,23.28284z" data-paper-data="{&quot;index&quot;:null}" fill="#ffe819" stroke-linecap="butt"/><path d="M229.28552,213.59445c4.11347,0 7.4481,2.47844 7.4481,5.53575c0,3.05731 -3.33463,5.53575 -7.4481,5.53575c-4.11347,0 -7.4481,-2.47844 -7.4481,-5.53575c0,-3.05731 3.33463,-5.53575 7.4481,-5.53575z" data-paper-data="{&quot;index&quot;:null}" fill="#ffe819" stroke-linecap="butt"/><path d="M236.35432,153.61c0,0 2.4856,-1.78945 4.38182,-2.53472c1.50221,-0.59041 6.0913,-1.58157 6.0913,-1.58157" fill="none" stroke-linecap="round"/><path d="M226.81029,157.23538c-0.5483,-2.78143 1.26201,-5.48072 4.04344,-6.02901c2.78143,-0.5483 5.48072,1.26201 6.02901,4.04344c0.5483,2.78143 -1.26201,5.48072 -4.04344,6.02901c-2.78143,0.5483 -5.48072,-1.26201 -6.02901,-4.04344z" fill="#ffe819" stroke-linecap="butt"/><path d="M257.35386,213.19185c4.94728,0 6.34095,2.65869 6.34095,5.93835c0,3.27966 -4.01056,5.93835 -8.95785,5.93835c-4.94728,0 -8.95785,-0.84699 -8.95785,-4.12665c0,-1.26666 3.40667,-7.75005 11.57475,-7.75005z" data-paper-data="{&quot;index&quot;:null}" fill="#ffe819" stroke-linecap="butt"/><path d="M245.45971,160.60534l6.75243,-9.21146l-11.04399,-3.7287c0,0 15.55285,-9.03119 26.08888,-7.71731c10.53603,1.31387 16.50246,13.02858 16.50246,13.02858z" data-paper-data="{&quot;index&quot;:null}" fill="#fff067" stroke-linecap="butt"/><path d="M300.47157,193.88262c0,-2.11232 1.71238,-3.8247 3.8247,-3.8247c2.11232,0 3.8247,1.71238 3.8247,3.8247c0,2.11232 -1.71238,3.8247 -3.8247,3.8247c-2.11232,0 -3.8247,-1.71238 -3.8247,-3.8247z" fill="#ffe819" stroke-linecap="butt"/><path d="M300.47157,189.63262c0,-2.11232 1.71238,-3.8247 3.8247,-3.8247c2.11232,0 3.8247,1.71238 3.8247,3.8247c0,2.11232 -1.71238,3.8247 -3.8247,3.8247c-2.11232,0 -3.8247,-1.71238 -3.8247,-3.8247z" fill="#ffe819" stroke-linecap="butt"/></g></g></svg>