<svg version="1.1" xmlns="http://www.w3.org/2000/svg" xmlns:xlink="http://www.w3.org/1999/xlink" width="111.26661" height="74.67409" viewBox="0,0,111.26661,74.67409"><g transform="translate(-188.53243,-152.94654)"><g data-paper-data="{&quot;isPaintingLayer&quot;:true}" fill-rule="nonzero" stroke="#000000" stroke-width="2" stroke-linejoin="miter" stroke-miterlimit="10" stroke-dasharray="" stroke-dashoffset="0" style="mix-blend-mode: normal"><path d="M201.46029,201.44242c0.32032,-3.00254 21.48357,5.69461 48.07797,8.90954c26.5944,3.21493 46.22855,-7.7684 45.90823,-4.76586c-0.32032,3.00254 -10.57657,22.78371 -48.0381,17.58677c-26.53391,-3.68098 -46.26841,-18.72791 -45.94809,-21.73045z" data-paper-data="{&quot;index&quot;:null}" fill="#ffe819" stroke-linecap="butt"/><path d="M281.72951,216.18702c-0.41911,2.99035 -23.2192,12.78917 -49.85206,9.91019c-37.60124,-4.06465 -42.74171,-25.74554 -42.3226,-28.73589c0.41911,-2.99035 16.79471,12.43602 43.37297,15.78178c26.57826,3.34576 49.22081,0.05357 48.8017,3.04392z" fill="#ffe819" stroke-linecap="butt"/><path d="M214.16668,191.49309c0,-2.11232 1.71238,-3.8247 3.8247,-3.8247c2.11232,0 3.8247,1.71238 3.8247,3.8247c0,2.11232 -1.71238,3.8247 -3.8247,3.8247c-2.11232,0 -3.8247,-1.71238 -3.8247,-3.8247z" fill="#ffe819" stroke-linecap="butt"/><path d="M265.58456,178.3877c0,-9.17193 7.43532,-16.60724 16.60724,-16.60724c9.17193,0 16.60724,7.43532 16.60724,16.60724c0,9.17193 -7.43532,16.60724 -16.60724,16.60724c-9.17193,0 -16.60724,-7.43532 -16.60724,-16.60724z" fill="#ffe819" stroke-linecap="butt"/><path d="M233.56221,198.62523l23.66611,-9.66896l2.96921,7.26755l-23.66612,9.66896z" fill="#ffe819" stroke-linecap="butt"/><path d="M209.05117,193.44262c0,-2.11232 1.71238,-3.8247 3.8247,-3.8247c2.11232,0 3.8247,1.71238 3.8247,3.8247c0,2.11232 -1.71238,3.8247 -3.8247,3.8247c-2.11232,0 -3.8247,-1.71238 -3.8247,-3.8247z" fill="#ffe819" stroke-linecap="butt"/><path d="M247.58905,166.08408c0,0 2.98201,-0.69855 5.01905,-0.65906c1.61377,0.03129 6.23184,0.87715 6.23184,0.87715" data-paper-data="{&quot;index&quot;:null}" fill="none" stroke-linecap="round"/><path d="M237.3845,165.76922c0.5611,-2.77888 3.26868,-4.57675 6.04756,-4.01565c2.77888,0.5611 4.57675,3.26868 4.01565,6.04756c-0.5611,2.77888 -3.26868,4.57675 -6.04756,4.01565c-2.77888,-0.5611 -4.57675,-3.26868 -4.01565,-6.04756z" data-paper-data="{&quot;index&quot;:null}" fill="#ffe819" stroke-linecap="butt"/><path d="M261.05561,178.34062l4.89612,-10.31864l-11.5487,-1.5813c0,0 13.57292,-11.79955 24.16781,-12.49414c10.59489,-0.69459 18.66148,9.6863 18.66148,9.6863z" data-paper-data="{&quot;index&quot;:null}" fill="#fff067" stroke-linecap="butt"/></g></g></svg>