<svg version="1.1" xmlns="http://www.w3.org/2000/svg" xmlns:xlink="http://www.w3.org/1999/xlink" width="65.21218" height="93.06733" viewBox="0,0,65.21218,93.06733"><g transform="translate(-208.86957,-133.00123)"><g data-paper-data="{&quot;isPaintingLayer&quot;:true}" fill-rule="nonzero" stroke="#000000" stroke-width="2" stroke-linejoin="miter" stroke-miterlimit="10" stroke-dasharray="" stroke-dashoffset="0" style="mix-blend-mode: normal"><path d="M236.96334,175.17279c-9.07161,-1.35277 -15.32899,-9.80339 -13.97623,-18.87501c1.35277,-9.07161 9.80339,-15.32898 18.87501,-13.97622c9.07161,1.35277 15.32899,9.80338 13.97623,18.875c-1.35276,9.07161 -9.80339,15.32899 -18.87501,13.97623z" data-paper-data="{&quot;index&quot;:null}" fill="#ffe819" stroke-linecap="butt"/><path d="M235.78997,206.81148l-3.15448,-25.36973l7.79071,-0.9687l3.15448,25.36974z" data-paper-data="{&quot;index&quot;:null}" fill="#ffe819" stroke-linecap="butt"/><path d="M232.94536,220.94191c0,3.27966 -2.53061,4.12665 -7.47789,4.12665c-4.94729,0 -8.95785,-2.65869 -8.95785,-5.93835c0,-3.27966 1.39367,-5.93835 6.34095,-5.93835c8.16808,0 10.09479,6.48339 10.09479,7.75005z" data-paper-data="{&quot;index&quot;:null}" fill="#ffe819" stroke-linecap="butt"/><path d="M225.97845,143.58038c0,0 8.76039,-9.80246 19.28257,-8.38197c10.52219,1.42049 22.04616,10.57366 22.04616,10.57366l-10.42338,4.3351l-6.86521,-3.05204l6.68377,3.6009l4.35744,10.08163z" data-paper-data="{&quot;index&quot;:null}" fill="#fff067" stroke-linecap="butt"/><path d="M261.7444,208.64339c3.00829,1.30628 2.18779,5.32236 0.2173,9.86028c-1.9705,4.53793 -6.00659,7.15769 -9.01488,5.85141c-3.00829,-1.30628 -4.89189,-3.64358 -2.9214,-8.18151c3.25333,-7.49222 10.55713,-8.03469 11.71898,-7.53018z" data-paper-data="{&quot;index&quot;:null}" fill="#ffe819" stroke-linecap="butt"/><path d="M256.04739,147.3133c0,0 4.00186,2.45506 5.22376,3.50966c1.54239,1.33121 3.29509,3.84286 3.29509,3.84286" data-paper-data="{&quot;index&quot;:null}" fill="none" stroke-linecap="round"/><path d="M265.3431,163.06597c-2.44288,-1.43851 -3.25707,-4.58502 -1.81855,-7.0279c1.43851,-2.44288 4.58502,-3.25707 7.0279,-1.81855c2.44288,1.43851 3.25707,4.58502 1.81855,7.0279c-1.43851,2.44288 -4.58502,3.25707 -7.0279,1.81855z" data-paper-data="{&quot;index&quot;:null}" fill="#ffe819" stroke-linecap="butt"/><path d="M211.98814,136.30088c1.89028,-0.94273 4.1869,-0.17458 5.12962,1.7157c0.94273,1.89028 0.17458,4.1869 -1.7157,5.12962c-1.89028,0.94273 -4.1869,0.17458 -5.12962,-1.7157c-0.94273,-1.89028 -0.17458,-4.1869 1.7157,-5.12962z" fill="#ffe819" stroke-linecap="butt"/><path d="M215.7914,134.40411c1.89028,-0.94273 4.1869,-0.17458 5.12962,1.7157c0.94273,1.89028 0.17458,4.1869 -1.7157,5.12962c-1.89028,0.94273 -4.1869,0.17458 -5.12962,-1.7157c-0.94273,-1.89028 -0.17458,-4.1869 1.7157,-5.12962z" fill="#ffe819" stroke-linecap="butt"/></g></g></svg>