<svg version="1.1" xmlns="http://www.w3.org/2000/svg" xmlns:xlink="http://www.w3.org/1999/xlink" width="186.2286" height="82.31929" viewBox="0,0,186.2286,82.31929"><defs><linearGradient x1="319.39004" y1="175.40655" x2="139.49386" y2="160.65479" gradientUnits="userSpaceOnUse" id="color-1"><stop offset="0" stop-color="#ffffff" stop-opacity="0"/><stop offset="1" stop-color="#ffffff"/></linearGradient></defs><g transform="translate(-135.50702,-144.36312)"><g data-paper-data="{&quot;isPaintingLayer&quot;:true}" fill-rule="nonzero" stroke-linejoin="miter" stroke-miterlimit="10" stroke-dasharray="" stroke-dashoffset="0" style="mix-blend-mode: normal"><path d="M207.2113,168.40131c29.82685,-0.24048 114.52432,11.71755 114.52432,11.71755c0,0 -55.35907,4.03734 -90.8593,4.69786c-35.50023,0.66051 -94.81438,-1.24324 -94.81438,-1.24324c0,0 2.3267,-14.61729 71.14936,-15.17216z" data-paper-data="{&quot;index&quot;:null}" fill="url(#color-1)" stroke="none" stroke-width="0" stroke-linecap="round"/><path d="M248.96701,150.60863c0,0 2.95228,0.8151 4.72156,1.82544c1.40164,0.80042 5.05037,3.75485 5.05037,3.75485" data-paper-data="{&quot;index&quot;:null}" fill="none" stroke="#000000" stroke-width="2" stroke-linecap="round"/><path d="M242.65997,147.19455c1.82355,-2.17063 5.06147,-2.452 7.23211,-0.62846c2.17063,1.82355 2.452,5.06147 0.62846,7.23211c-1.82355,2.17063 -5.06147,2.452 -7.23211,0.62846c-2.17063,-1.82355 -2.452,-5.06147 -0.62846,-7.23211z" data-paper-data="{&quot;index&quot;:null}" fill="#2d6a2b" stroke="#000000" stroke-width="2" stroke-linecap="butt"/><g data-paper-data="{&quot;index&quot;:null}" stroke="#61ff00" stroke-width="3" stroke-linecap="round"><path d="M225.55142,184.94422c0,0 -24.40669,0.94655 -38.27764,0.62056c-15.46923,-0.36355 -50.26676,-2.70144 -50.26676,-2.70144" fill="none"/><path d="M181.19171,170.68835c0,0 5.74312,0.91646 4.14904,5.41793c-1.59413,4.50146 -16.95374,7.73189 -16.95374,7.73189z" fill="#61ff00"/><path d="M189.31615,188.03104c0,0 15.85229,-1.68971 20.03404,1.90127c4.18175,3.59098 -0.45221,6.14324 -0.45221,6.14324z" data-paper-data="{&quot;index&quot;:null}" fill="#61ff00"/><path d="M148.54788,185.18712c0,0 13.36052,-1.5 16.91844,1.51162c3.55791,3.01162 -0.33058,5.18747 -0.33058,5.18747z" data-paper-data="{&quot;index&quot;:null}" fill="#61ff00"/></g><path d="M285.13871,163.00923c2.36187,8.86259 -2.90799,17.96183 -11.77061,20.32371c-8.86259,2.36186 -17.96184,-2.90799 -20.32372,-11.77061c-2.36187,-8.86257 2.90799,-17.96183 11.77061,-20.32371c8.86257,-2.36187 17.96183,2.90799 20.32371,11.77061z" data-paper-data="{&quot;index&quot;:null}" fill="#2d6a2b" stroke="#000000" stroke-width="2" stroke-linecap="butt"/><path d="M270.41697,148.74801c15.66111,2.42326 20.37353,14.95641 20.37353,14.95641l-40.76429,-4.28587c0,0 3.55255,-13.27592 20.39079,-10.67054z" data-paper-data="{&quot;index&quot;:null}" fill="#367e33" stroke="#000000" stroke-width="2" stroke-linecap="round"/><path d="M241.68686,202.57751l12.23322,-22.44821l6.89354,3.75666l-12.23322,22.4482z" data-paper-data="{&quot;index&quot;:null}" fill="#2d6a2b" stroke="#000000" stroke-width="2" stroke-linecap="butt"/><path d="M227.85795,187.83175c-2.09531,0.26753 -4.01077,-1.21419 -4.2783,-3.3095c-0.26753,-2.09531 1.21419,-4.01077 3.3095,-4.2783c2.09531,-0.26753 4.01077,1.21419 4.2783,3.3095c0.26753,2.09531 -1.21419,4.01077 -3.3095,4.2783z" data-paper-data="{&quot;index&quot;:null}" fill="#2d6a2b" stroke="#000000" stroke-width="2" stroke-linecap="butt"/><path d="M222.19803,213.38269c8.14356,0.63226 11.03816,7.3599 10.94011,8.62276c-0.25387,3.26982 -4.31796,3.80383 -9.2504,3.42087c-4.93243,-0.38295 -8.72517,-3.34411 -8.4713,-6.61393c0.25387,-3.26982 1.84916,-5.81266 6.7816,-5.4297z" data-paper-data="{&quot;index&quot;:null}" fill="#2d6a2b" stroke="#000000" stroke-width="2" stroke-linecap="butt"/><path d="M261.98848,220.14666c0,3.05731 -3.33463,5.53575 -7.4481,5.53575c-4.11347,0 -7.4481,-2.47844 -7.4481,-5.53575c0,-3.05731 3.33463,-5.53575 7.4481,-5.53575c4.11347,0 7.4481,2.47844 7.4481,5.53575z" data-paper-data="{&quot;index&quot;:null}" fill="#2d6a2b" stroke="#000000" stroke-width="2" stroke-linecap="butt"/><path d="M223.64996,188.64136c-2.09531,0.26753 -4.01077,-1.21419 -4.2783,-3.3095c-0.26753,-2.09531 1.21419,-4.01077 3.3095,-4.2783c2.09531,-0.26753 4.01077,1.21419 4.2783,3.3095c0.26753,2.09531 -1.21419,4.01077 -3.3095,4.2783z" data-paper-data="{&quot;index&quot;:null}" fill="#2d6a2b" stroke="#000000" stroke-width="2" stroke-linecap="butt"/></g></g></svg>