<svg version="1.1" xmlns="http://www.w3.org/2000/svg" xmlns:xlink="http://www.w3.org/1999/xlink" width="132.04454" height="64.91533" viewBox="0,0,132.04454,64.91533"><g transform="translate(-171.87352,-161.02615)"><g data-paper-data="{&quot;isPaintingLayer&quot;:true}" fill-rule="nonzero" stroke="#000000" stroke-width="2" stroke-linejoin="miter" stroke-miterlimit="10" stroke-dasharray="" stroke-dashoffset="0" style="mix-blend-mode: normal"><path d="M237.80902,212.79918c3.23232,3.74536 2.1301,6.53751 -0.35278,8.68029c-2.48287,2.14277 -7.11597,0.84363 -10.34829,-2.90174c-3.23232,-3.74536 -5.2114,-7.33496 -2.72853,-9.47773c0.95893,-0.82758 8.09296,-2.48448 13.4296,3.69921z" data-paper-data="{&quot;index&quot;:null}" fill="#2d6a2b" stroke-linecap="butt"/><path d="M243.14531,213.68112l-20.65423,-15.06574l4.62648,-6.34264l20.65423,15.06574z" fill="#2d6a2b" stroke-linecap="butt"/><path d="M209.70322,221.11678c0,-2.11232 1.71238,-3.8247 3.8247,-3.8247c2.11232,0 3.8247,1.71238 3.8247,3.8247c0,2.11232 -1.71238,3.8247 -3.8247,3.8247c-2.11232,0 -3.8247,-1.71238 -3.8247,-3.8247z" fill="#2d6a2b" stroke-linecap="butt"/><path d="M234.11912,187.31967c-0.20531,-2.10232 1.33252,-3.97303 3.43484,-4.17834c2.10232,-0.20531 3.97303,1.33252 4.17834,3.43484c0.20531,2.10232 -1.33252,3.97303 -3.43484,4.17834c-2.10232,0.20531 -3.97303,-1.33252 -4.17834,-3.43484z" fill="#2d6a2b" stroke-linecap="butt"/><path d="M182.96594,176.75906c0,0 2.59326,-1.62954 4.5326,-2.25407c1.53638,-0.49475 6.17872,-1.19526 6.17872,-1.19526" data-paper-data="{&quot;index&quot;:null}" fill="none" stroke-linecap="round"/><path d="M172.91856,179.81587c-0.37225,-2.81042 1.60428,-5.39047 4.41468,-5.76273c2.81042,-0.37225 5.39047,1.60428 5.76273,4.41468c0.37225,2.81042 -1.60428,5.39047 -4.41468,5.76273c-2.81042,0.37225 -5.39047,-1.60428 -5.76273,-4.41468z" data-paper-data="{&quot;index&quot;:null}" fill="#2d6a2b" stroke-linecap="butt"/><path d="M193.97071,184.80169c-1.20434,-9.09252 5.1903,-17.43976 14.28281,-18.64409c9.09252,-1.20434 17.43976,5.1903 18.64409,14.28281c1.20434,9.09252 -5.1903,17.43976 -14.28281,18.64409c-9.09252,1.20434 -17.43976,-5.1903 -18.64409,-14.28281z" fill="#2d6a2b" stroke-linecap="butt"/><path d="M200.41225,165.40663c13.98439,-7.45514 25.27271,-0.25371 25.27271,-0.25371l-35.18734,21.02254c0,0 -5.12087,-12.75332 9.91463,-20.76883z" fill="#367e33" stroke-linecap="round"/><path d="M291.84676,206.67294c0.08847,-4.11253 2.63806,-7.39308 5.69466,-7.32731c3.0566,0.06575 5.46275,3.45292 5.37428,7.56545c-0.08847,4.11253 -2.63806,7.39308 -5.69467,7.32731c-3.0566,-0.06575 -5.46274,-3.45292 -5.37427,-7.56545z" data-paper-data="{&quot;index&quot;:null}" fill="#2d6a2b" stroke-linecap="butt"/></g></g></svg>