<svg version="1.1" xmlns="http://www.w3.org/2000/svg" xmlns:xlink="http://www.w3.org/1999/xlink" width="94.9671" height="84.12911" viewBox="0,0,94.9671,84.12911"><g transform="translate(-181.7636,-146.71712)"><g data-paper-data="{&quot;isPaintingLayer&quot;:true}" fill-rule="nonzero" stroke="#000000" stroke-width="2" stroke-linejoin="miter" stroke-miterlimit="10" stroke-dasharray="" stroke-dashoffset="0" style="mix-blend-mode: normal"><path d="M272.42959,162.24629c0,0 1.27979,2.78253 1.64778,4.78645c0.29151,1.58753 -10.90667,-0.85794 -10.90667,-0.85794" fill="none" stroke-linecap="round"/><path d="M270.58857,151.82758c2.83496,-0.00495 5.13718,2.28919 5.14213,5.12415c0.00495,2.83496 -2.28919,5.13718 -5.12415,5.14213c-2.83496,0.00495 -5.13718,-2.28919 -5.14213,-5.12415c-0.00495,-2.83496 2.28919,-5.13718 5.12415,-5.14213z" fill="#181818" stroke-linecap="butt"/><path d="M226.96346,166.80574l2.31748,-4.70699l7.77035,5.61552l-2.48483,3.52304z" fill="#ff0000" stroke-linecap="butt"/><path d="M231.21318,164.43634c4.01793,-8.24503 13.95902,-11.67177 22.20404,-7.65385c8.24503,4.01793 11.67177,13.95902 7.65385,22.20404c-4.01793,8.24503 -13.95902,11.67177 -22.20404,7.65385c-8.24503,-4.01793 -11.67177,-13.95902 -7.65385,-22.20404z" fill="#181818" stroke-linecap="butt"/><g><path d="M236.0118,158.89798l5.28437,-10.84385l26.63817,12.98117l-5.28437,10.84385z" fill="#343434" stroke-linecap="butt"/><path d="M226.34663,154.188l45.96853,22.40115" fill="none" stroke-linecap="round"/></g><path d="M200.10799,196.63298c1.19489,3.05424 -2.23143,5.30422 -6.83868,7.10669c-4.60725,1.80247 -9.3108,0.78772 -10.50571,-2.26652c-1.19489,-3.05424 -0.86567,-6.03796 3.74158,-7.84043c7.60667,-2.97593 13.14133,1.82068 13.60282,3.00027z" data-paper-data="{&quot;index&quot;:null}" fill="#181818" stroke-linecap="butt"/><path d="M217.44473,209.05217c0.92534,-1.89886 3.21481,-2.68804 5.11367,-1.76271c1.89886,0.92534 2.68804,3.21481 1.76271,5.11367c-0.92534,1.89886 -3.21481,2.68804 -5.11367,1.76271c-1.89886,-0.92534 -2.68804,-3.21481 -1.76271,-5.11367z" fill="#181818" stroke-linecap="butt"/><path d="M240.93491,170.517c0.92534,-1.89886 3.21481,-2.68804 5.11367,-1.76271c1.89886,0.92534 2.68804,3.21481 1.76271,5.11367c-0.92534,1.89886 -3.21481,2.68804 -5.11367,1.76271c-1.89886,-0.92534 -2.68804,-3.21481 -1.76271,-5.11367z" fill="#181818" stroke-linecap="butt"/><path d="M244.33418,219.59474c3.8422,3.11658 3.24968,6.05935 1.18363,8.60643c-2.06605,2.54707 -6.85563,2.08539 -10.69784,-1.0312c-3.8422,-3.11658 -6.42334,-6.30088 -4.35729,-8.84796c0.79793,-0.98373 7.52793,-3.87285 13.87149,1.27273z" data-paper-data="{&quot;index&quot;:null}" fill="#181818" stroke-linecap="butt"/><g data-paper-data="{&quot;index&quot;:null}" fill="#181818" stroke-linecap="butt"><path d="M219.37456,199.48048c-2.63335,-2.2015 -1.69934,-3.76176 -1.69934,-3.76176l6.53492,-8.5823c0,0 1.20181,2.56139 2.24678,3.42297c0.9679,0.79804 3.80952,1.5705 3.80952,1.5705l-6.5349,8.5823c0,0 -1.25784,1.35921 -4.35697,-1.23168z"/><path d="M226.41933,190.48166c-1.70211,-1.42751 -2.49243,-3.2877 -1.7652,-4.15481c0.72724,-0.86712 2.6966,-0.41282 4.39872,1.0147c1.70211,1.42751 2.49241,3.28769 1.76519,4.1548c-0.72724,0.86712 -2.6966,0.41282 -4.39872,-1.0147z"/></g><path d="M227.58646,177.19468l11.20443,12.58844l-5.71582,-0.69171l0.503,6.07608l-11.07246,-10.98145l3.56162,-2.3262z" data-paper-data="{&quot;index&quot;:null}" fill="#0e0e0e" stroke-linecap="round"/></g></g></svg>