<svg version="1.1" xmlns="http://www.w3.org/2000/svg" xmlns:xlink="http://www.w3.org/1999/xlink" width="50.95043" height="31.4327" viewBox="0,0,50.95043,31.4327"><defs><linearGradient x1="249.03428" y1="164.30453" x2="247.07809" y2="168.76282" gradientUnits="userSpaceOnUse" id="color-1"><stop offset="0" stop-color="#ffffff"/><stop offset="1" stop-color="#5c6cff"/></linearGradient><linearGradient x1="219.86621" y1="170.05453" x2="221.82239" y2="174.51282" gradientUnits="userSpaceOnUse" id="color-2"><stop offset="0" stop-color="#ffffff"/><stop offset="1" stop-color="#5c6cff"/></linearGradient><linearGradient x1="262.46281" y1="169.80453" x2="261.06067" y2="174.26282" gradientUnits="userSpaceOnUse" id="color-3"><stop offset="0" stop-color="#ffffff"/><stop offset="1" stop-color="#5c6cff"/></linearGradient></defs><g transform="translate(-215.08459,-162.22115)"><g data-paper-data="{&quot;isPaintingLayer&quot;:true}" fill-rule="nonzero" stroke="none" stroke-width="0" stroke-linecap="butt" stroke-linejoin="miter" stroke-miterlimit="10" stroke-dasharray="" stroke-dashoffset="0" style="mix-blend-mode: normal"><path d="M264.63344,181.27011c0,6.13787 -7.89635,11.11359 -17.63696,11.11359c-9.74065,0 -17.63697,-4.97572 -17.63697,-11.11358c0,-6.13787 21.02136,-12.73859 30.76197,-12.73859c9.74065,0 4.51196,6.60072 4.51196,12.73859z" fill="#5c6cff"/><path d="M250.64049,181.69349c0,6.13787 -7.89635,11.11359 -17.63697,11.11359c-9.74065,0 -17.63696,-4.97572 -17.63696,-11.11358c0,-6.13787 -2.47865,-13.86358 7.26196,-13.86358c9.74065,0 28.01197,7.72572 28.01197,13.86359z" fill="#5c6cff"/><path d="M244.27705,162.22115c9.74065,0 13.01197,10.23804 13.01197,17.77885c0,7.54081 -7.89636,13.65385 -17.63697,13.65385c-9.74065,0 -17.63696,-6.11304 -17.63696,-13.65385c0,-7.54081 12.52135,-17.77885 22.26196,-17.77885z" fill="#5c6cff"/><path d="M252.13816,170.634c-0.54019,1.23112 -5.61411,7.80998 -8.63035,6.48653c-3.01624,-1.32345 -2.91377,-10.77834 -2.37359,-12.00946c0.54019,-1.23112 4.88381,-2.12999 7.90006,-0.80653c3.01624,1.32345 3.64407,5.09835 3.10388,6.32947z" fill="url(#color-1)"/><path d="M219.86621,170.05453c3.01624,-1.32345 7.35987,-0.42459 7.90006,0.80653c0.54019,1.23112 0.64266,10.68601 -2.37359,12.00946c-3.01624,1.32345 -8.09017,-5.2554 -8.63035,-6.48652c-0.54019,-1.23112 0.08764,-5.00601 3.10388,-6.32947z" data-paper-data="{&quot;index&quot;:null}" fill="url(#color-2)"/><path d="M264.68758,176.134c-0.38719,1.23112 -4.02403,7.80998 -6.18599,6.48653c-2.16196,-1.32345 -2.08851,-10.77834 -1.70132,-12.00946c0.38719,-1.23112 3.50058,-2.12999 5.66253,-0.80653c2.16196,1.32345 2.61196,5.09835 2.22477,6.32947z" data-paper-data="{&quot;index&quot;:null}" fill="url(#color-3)"/></g></g></svg>