<svg version="1.1" xmlns="http://www.w3.org/2000/svg" xmlns:xlink="http://www.w3.org/1999/xlink" width="104.72996" height="74.23503" viewBox="0,0,104.72996,74.23503"><g transform="translate(-167.99997,-152.55834)"><g data-paper-data="{&quot;isPaintingLayer&quot;:true}" fill-rule="nonzero" stroke="#000000" stroke-width="2" stroke-linejoin="miter" stroke-miterlimit="10" stroke-dasharray="" stroke-dashoffset="0" style="mix-blend-mode: normal"><path d="M176.71765,185.10188c-1.75304,-1.17845 -2.21884,-3.55491 -1.04039,-5.30794c1.17845,-1.75304 3.55491,-2.21884 5.30794,-1.04039c1.75304,1.17845 2.21884,3.55491 1.04039,5.30794c-1.17845,1.75304 -3.55491,2.21884 -5.30794,1.04039z" data-paper-data="{&quot;index&quot;:null}" fill="#2d6a2b" stroke-linecap="butt"/><path d="M238.00724,210.08625l-17.41576,-18.71537l5.74725,-5.34816l17.41576,18.71537z" data-paper-data="{&quot;index&quot;:null}" fill="#2d6a2b" stroke-linecap="butt"/><path d="M170.69129,188.91357c-1.75304,-1.17845 -2.21884,-3.55491 -1.04039,-5.30794c1.17845,-1.75304 3.55491,-2.21884 5.30794,-1.04039c1.75304,1.17845 2.21884,3.55491 1.04039,5.30794c-1.17845,1.75304 -3.55491,2.21884 -5.30794,1.04039z" data-paper-data="{&quot;index&quot;:null}" fill="#2d6a2b" stroke-linecap="butt"/><path d="M222.3756,221.66672c0,3.27966 -4.01057,4.12665 -8.95785,4.12665c-4.94728,0 -8.95785,-2.65869 -8.95785,-5.93835c0,-3.27966 1.39367,-5.93835 6.34095,-5.93835c8.16808,0 11.57475,6.48339 11.57475,7.75005z" data-paper-data="{&quot;index&quot;:null}" fill="#2d6a2b" stroke-linecap="butt"/><path d="M271.72993,220.14665c0,3.05731 -3.33463,5.53575 -7.4481,5.53575c-4.11347,0 -7.4481,-2.47844 -7.4481,-5.53575c0,-3.05731 3.33463,-5.53575 7.4481,-5.53575c4.11347,0 7.4481,2.47844 7.4481,5.53575z" data-paper-data="{&quot;index&quot;:null}" fill="#2d6a2b" stroke-linecap="butt"/><path d="M202.90901,190.41196c-9.17192,0 -16.60724,-7.43531 -16.60724,-16.60724c0,-9.17192 7.43531,-16.60724 16.60724,-16.60724c9.17192,0 16.60724,7.43531 16.60724,16.60724c0,9.17192 -7.43531,16.60724 -16.60724,16.60724z" data-paper-data="{&quot;index&quot;:null}" fill="#2d6a2b" stroke-linecap="butt"/><path d="M223.13965,174.71056l-37.64308,-16.22019c0,0 10.24498,-8.62131 25.0872,-3.06696c15.95781,5.97184 12.55588,19.28715 12.55588,19.28715z" data-paper-data="{&quot;index&quot;:null}" fill="#367e33" stroke-linecap="round"/><path d="M218.29819,159.99956c0,0 4.69413,0.08488 6.28217,0.37361c2.00456,0.36447 4.78933,1.63939 4.78933,1.63939" data-paper-data="{&quot;index&quot;:null}" fill="none" stroke-linecap="round"/><path d="M234.30153,168.85676c-2.83496,0 -5.13315,-2.29819 -5.13315,-5.13315c0,-2.83496 2.29819,-5.13315 5.13315,-5.13315c2.83496,0 5.13315,2.29819 5.13315,5.13315c0,2.83496 -2.29819,5.13315 -5.13315,5.13315z" data-paper-data="{&quot;index&quot;:null}" fill="#2d6a2b" stroke-linecap="butt"/></g></g></svg>