<svg version="1.1" xmlns="http://www.w3.org/2000/svg" xmlns:xlink="http://www.w3.org/1999/xlink" width="65.63229" height="84.53759" viewBox="0,0,65.63229,84.53759"><g transform="translate(-209.64008,-139.47984)"><g data-paper-data="{&quot;isPaintingLayer&quot;:true}" fill-rule="nonzero" stroke="#000000" stroke-width="2" stroke-linejoin="miter" stroke-miterlimit="10" stroke-dasharray="" stroke-dashoffset="0" style="mix-blend-mode: normal"><path d="M254.4736,190.533c0,-2.11232 1.71238,-3.8247 3.8247,-3.8247c2.11232,0 3.8247,1.71238 3.8247,3.8247c0,2.11232 -1.71238,3.8247 -3.8247,3.8247c-2.11232,0 -3.8247,-1.71238 -3.8247,-3.8247z" fill="#ffe819" stroke-linecap="butt"/><path d="M235.88832,204.47891l3.67,-25.3003l7.76939,1.12701l-3.67,25.3003z" fill="#ffe819" stroke-linecap="butt"/><path d="M221.03197,189.12757c0,-2.11232 1.71238,-3.8247 3.8247,-3.8247c2.11232,0 3.8247,1.71238 3.8247,3.8247c0,2.11232 -1.71238,3.8247 -3.8247,3.8247c-2.11232,0 -3.8247,-1.71238 -3.8247,-3.8247z" fill="#ffe819" stroke-linecap="butt"/><path d="M264.36063,206.41743c3.54001,-3.456 6.39451,-2.52715 8.68557,-0.1804c2.29106,2.34675 1.27858,7.05081 -2.26144,10.50681c-3.54001,3.456 -7.00143,5.65158 -9.29249,3.30483c-0.88484,-0.90636 -2.97628,-7.9253 2.86836,-13.63123z" data-paper-data="{&quot;index&quot;:null}" fill="#ffe819" stroke-linecap="butt"/><path d="M241.78467,213.52716c0,5.24134 -2.63949,9.49028 -5.89548,9.49028c-3.25598,0 -5.89548,-4.24894 -5.89548,-9.49028c0,-5.24134 2.63949,-8.05236 5.89548,-8.05236c3.25598,0 5.89548,2.81102 5.89548,8.05236z" fill="#ffe819" stroke-linecap="butt"/><path d="M237.8845,164.921c0,-9.17193 7.43532,-16.60724 16.60724,-16.60724c9.17193,0 16.60724,7.43532 16.60724,16.60724c0,9.17193 -7.43532,16.60724 -16.60724,16.60724c-9.17193,0 -16.60724,-7.43532 -16.60724,-16.60724z" fill="#ffe819" stroke-linecap="butt"/><path d="M220.77588,145.76733c0,0 3.03243,-0.42979 5.05783,-0.20877c1.60455,0.1751 6.12877,1.42948 6.12877,1.42948" fill="none" stroke-linecap="round"/><path d="M210.64008,144.54355c0.80671,-2.71776 3.66386,-4.26697 6.38162,-3.46026c2.71776,0.80671 4.26697,3.66386 3.46026,6.38162c-0.80671,2.71776 -3.66386,4.26697 -6.38162,3.46026c-2.71776,-0.80671 -4.26697,-3.66386 -3.46026,-6.38162z" fill="#ffe819" stroke-linecap="butt"/><path d="M233.35555,164.87392l4.89612,-10.31864l-11.83628,-10.78399c0,0 13.8605,-2.59686 24.45539,-3.29145c10.59489,-0.69459 18.66148,9.6863 18.66148,9.6863z" data-paper-data="{&quot;index&quot;:null}" fill="#fff067" stroke-linecap="butt"/></g></g></svg>