<svg version="1.1" xmlns="http://www.w3.org/2000/svg" xmlns:xlink="http://www.w3.org/1999/xlink" width="103.9657" height="67.30796" viewBox="0,0,103.9657,67.30796"><defs><linearGradient x1="201.61841" y1="183.13827" x2="227.75018" y2="198.20288" gradientUnits="userSpaceOnUse" id="color-1"><stop offset="0" stop-color="#e80000" stop-opacity="0"/><stop offset="1" stop-color="#e80000"/></linearGradient></defs><g transform="translate(-194.45153,-162.18318)"><g data-paper-data="{&quot;isPaintingLayer&quot;:true}" fill-rule="nonzero" stroke="#000000" stroke-linejoin="miter" stroke-miterlimit="10" stroke-dasharray="" stroke-dashoffset="0" style="mix-blend-mode: normal"><path d="M236.47613,182.2583c-3.01847,8.10312 -9.84619,5.64597 -21.88496,9.44968c-13.43625,4.24525 -19.32552,18.97712 -19.32552,18.97712c0,0 -4.47237,-18.66861 7.54776,-27.8984c8.06894,-6.19585 15.99765,-10.79678 23.52144,-10.91488c7.52378,-0.1181 13.15974,2.28338 10.14127,10.38647z" data-paper-data="{&quot;index&quot;:null}" fill="url(#color-1)" stroke-width="0" stroke-linecap="butt"/><path d="M231.44402,183.9089c-1.67458,1.2875 -10.89743,3.09079 -12.18495,1.41619c-1.2875,-1.67458 5.84786,-6.19288 7.52246,-7.4804c1.67458,-1.2875 4.07583,-0.97374 5.36335,0.70086c1.2875,1.67458 0.97374,4.07583 -0.70086,5.36335z" data-paper-data="{&quot;index&quot;:null}" fill="#e80000" stroke-width="2" stroke-linecap="butt"/><path d="M207.40001,201.5198c6.67219,4.71163 5.71512,11.97274 4.98446,13.00743c-1.89183,2.67903 -5.65647,1.05746 -9.69772,-1.7963c-4.04126,-2.85377 -5.78369,-7.33898 -3.89186,-10.018c1.89181,-2.67903 4.56387,-4.0469 8.60512,-1.19314z" data-paper-data="{&quot;index&quot;:null}" fill="#e80000" stroke-width="2" stroke-linecap="butt"/><path d="M252.14062,175.92616c0,0 2.95648,-0.7997 4.99369,-0.82962c1.6139,-0.0237 6.25811,0.6644 6.25811,0.6644" data-paper-data="{&quot;index&quot;:null}" fill="none" stroke-width="2" stroke-linecap="round"/><path d="M241.93127,175.95905c0.46614,-2.79638 3.11091,-4.68543 5.90729,-4.21929c2.79638,0.46614 4.68543,3.11091 4.21929,5.90729c-0.46614,2.79638 -3.11091,4.68543 -5.90729,4.21929c-2.79638,-0.46614 -4.68543,-3.11091 -4.21929,-5.90729z" data-paper-data="{&quot;index&quot;:null}" fill="#e80000" stroke-width="2" stroke-linecap="butt"/><path d="M264.20275,179.79042c0,-9.17193 7.43532,-16.60724 16.60724,-16.60724c9.17193,0 16.60724,7.43532 16.60724,16.60724c0,9.17193 -7.43532,16.60724 -16.60724,16.60724c-9.17193,0 -16.60724,-7.43532 -16.60724,-16.60724z" fill="#e80000" stroke-width="2" stroke-linecap="butt"/><path d="M236.30245,205.5817l19.83772,-16.12572l4.95199,6.0919l-19.83772,16.12572z" fill="#e80000" stroke-width="2" stroke-linecap="butt"/><path d="M261.54852,178.3134l-1.46381,-5.42329l33.9245,-8.32434l1.46381,5.42328z" fill="#ff2121" stroke-width="2" stroke-linecap="butt"/><path d="M251.69649,221.49039c0.58699,4.91233 -1.88756,6.61161 -5.14407,7.00075c-3.25649,0.38912 -6.37226,-3.27766 -6.95925,-8.19c-0.58699,-4.91233 -0.22183,-8.99508 3.03466,-9.38421c1.25771,-0.15029 8.09949,2.46307 9.06864,10.57345z" data-paper-data="{&quot;index&quot;:null}" fill="#e80000" stroke-width="2" stroke-linecap="butt"/><path d="M213.86216,200.67028c-1.67458,1.2875 -4.07583,0.97374 -5.36335,-0.70086c-1.2875,-1.67458 -0.97374,-4.07583 0.70086,-5.36335c1.67458,-1.2875 4.07583,-0.97374 5.36335,0.70086c1.2875,1.67458 0.97374,4.07583 -0.70086,5.36335z" data-paper-data="{&quot;index&quot;:null}" fill="#e80000" stroke-width="2" stroke-linecap="butt"/></g></g></svg>