<svg version="1.1" xmlns="http://www.w3.org/2000/svg" xmlns:xlink="http://www.w3.org/1999/xlink" width="74.2128" height="115.63509" viewBox="0,0,74.2128,115.63509"><g transform="translate(-190.3228,-111.45441)"><g data-paper-data="{&quot;isPaintingLayer&quot;:true}" fill-rule="nonzero" stroke="#000000" stroke-width="2" stroke-linejoin="miter" stroke-miterlimit="10" stroke-dasharray="" stroke-dashoffset="0" style="mix-blend-mode: normal"><path d="M237.98302,153.69359c0.09813,-2.11004 1.88822,-3.74102 3.99826,-3.64288c2.11004,0.09813 3.74102,1.88822 3.64288,3.99826c-0.09813,2.11004 -1.88822,3.74102 -3.99826,3.64288c-2.11004,-0.09813 -3.74102,-1.88822 -3.64288,-3.99826z" fill="#ff6b00" stroke-linecap="butt"/><path d="M215.01237,164.31918c0.42611,-9.16203 8.19883,-16.24388 17.36085,-15.81777c9.16203,0.42611 16.24388,8.19883 15.81777,17.36085c-0.42611,9.16203 -8.19883,16.24388 -17.36085,15.81777c-9.16203,-0.42611 -16.24388,-8.19883 -15.81777,-17.36085z" fill="#ff6b00" stroke-linecap="butt"/><path d="M227.05577,209.57925l-0.94562,-25.5476l7.84533,-0.29038l0.94562,25.5476z" fill="#ff6b00" stroke-linecap="butt"/><path d="M222.81413,215.01801c4.11347,0 7.4481,2.47844 7.4481,5.53575c0,3.05731 -3.33463,5.53575 -7.4481,5.53575c-4.11347,0 -7.4481,-2.47844 -7.4481,-5.53575c0,-3.05731 3.33463,-5.53575 7.4481,-5.53575z" data-paper-data="{&quot;index&quot;:null}" fill="#ff6b00" stroke-linecap="butt"/><path d="M206.21681,161.05435c0,0 2.28613,-2.32997 4.21281,-3.50512c1.52633,-0.93097 6.42849,-2.98546 6.42849,-2.98546" fill="none" stroke-linecap="round"/><path d="M197.85411,166.91073c-1.21402,-2.56187 -0.12139,-5.62282 2.44048,-6.83684c2.56187,-1.21402 5.62282,-0.12139 6.83684,2.44048c1.21402,2.56187 0.12139,5.62282 -2.44048,6.83684c-2.56187,1.21402 -5.62282,0.12139 -6.83684,-2.44048z" fill="#ff6b00" stroke-linecap="butt"/><path d="M257.20904,213.14434c4.94726,0.012 6.33449,2.67407 6.32653,5.95372c-0.00796,3.27965 -4.02495,5.9286 -8.97223,5.91661c-4.94726,-0.012 -8.95577,-0.86871 -8.94781,-4.14836c0.00307,-1.26665 3.42546,-7.74176 11.59351,-7.72195z" data-paper-data="{&quot;index&quot;:null}" fill="#ff6b00" stroke-linecap="butt"/><path d="M211.15467,167.12283l4.98021,-12.61529l-24.02488,-22.97545l43.59936,-18.57795l0.68406,32.4421l12.39798,5.28861z" data-paper-data="{&quot;index&quot;:null}" fill="#ffa340" stroke-linecap="butt"/><path d="M214.29954,163.36081c0.09813,-2.11004 1.88822,-3.74102 3.99826,-3.64288c2.11004,0.09813 3.74102,1.88822 3.64288,3.99826c-0.09813,2.11004 -1.88822,3.74102 -3.99826,3.64288c-2.11004,-0.09813 -3.74102,-1.88822 -3.64288,-3.99826z" fill="#ff6b00" stroke-linecap="butt"/></g></g></svg>