<svg version="1.1" xmlns="http://www.w3.org/2000/svg" xmlns:xlink="http://www.w3.org/1999/xlink" width="108.71168" height="46.13558" viewBox="0,0,108.71168,46.13558"><g transform="translate(-199.20219,-183.93107)"><g data-paper-data="{&quot;isPaintingLayer&quot;:true}" fill-rule="nonzero" stroke="#000000" stroke-width="2" stroke-linejoin="miter" stroke-miterlimit="10" stroke-dasharray="" stroke-dashoffset="0" style="mix-blend-mode: normal"><path d="M267.91282,190.37787c0,0 3.0608,-0.10879 5.05178,0.3238c1.57726,0.34271 5.94465,2.06552 5.94465,2.06552" fill="none" stroke-linecap="round"/><path d="M257.9617,188.09592c1.08781,-2.61795 4.09191,-3.85839 6.70988,-2.77059c2.61796,1.0878 3.85839,4.09191 2.77058,6.70987c-1.08781,2.61795 -4.09191,3.85839 -6.70987,2.77059c-2.61796,-1.0878 -3.85839,-4.09191 -2.77059,-6.70988z" fill="#e80000" stroke-linecap="butt"/><path d="M274.56781,196.35593c6.42839,-6.54219 16.9431,-6.63441 23.48529,-0.20604c6.54218,6.42838 6.63441,16.9431 0.20604,23.48529c-6.42839,6.54219 -16.9431,6.63442 -23.48529,0.20604c-6.54218,-6.42838 -6.63442,-16.9431 -0.20604,-23.48529z" fill="#e80000" stroke-linecap="butt"/><path d="M236.68846,213.94353l25.5564,-0.66672l0.20472,7.84803l-25.5564,0.66671z" fill="#e80000" stroke-linecap="butt"/><path d="M235.503,194.77392c2.04869,-0.51456 4.12662,0.72911 4.64118,2.77779c0.51456,2.04869 -0.72911,4.12662 -2.77779,4.64118c-2.04869,0.51456 -4.12662,-0.72912 -4.64118,-2.7778c-0.51456,-2.04869 0.72911,-4.12662 2.7778,-4.64118z" fill="#e80000" stroke-linecap="butt"/><path d="M254.99324,219.477c2.04869,-0.51456 4.12662,0.72911 4.64118,2.77779c0.51455,2.04869 -0.72911,4.12662 -2.7778,4.64118c-2.04869,0.51456 -4.12662,-0.72911 -4.64118,-2.7778c-0.51456,-2.04869 0.72911,-4.12662 2.77779,-4.64118z" fill="#e80000" stroke-linecap="butt"/><path d="M207.90734,224.18515c-4.76475,1.33143 -6.82252,-0.85409 -7.70515,-4.01274c-0.88264,-3.15866 2.26444,-6.79859 7.02919,-8.13004c4.76475,-1.33143 8.8553,-1.59503 9.73794,1.56363c0.34089,1.21992 -1.19526,8.38093 -9.06198,10.57917z" data-paper-data="{&quot;index&quot;:null}" fill="#e80000" stroke-linecap="butt"/><path d="M274.83571,194.54843l2.80553,-4.84655l28.90619,16.73296l-2.80551,4.84655z" fill="#ff2121" stroke-linecap="butt"/><path d="M232.07491,224.90875c-1.95928,4.54276 -4.95252,4.76955 -7.96404,3.47071c-3.0115,-1.29886 -3.86449,-6.03442 -1.9052,-10.57721c1.95928,-4.54276 4.32534,-7.88998 7.33684,-6.59113c1.16309,0.50164 5.76722,6.19741 2.53239,13.69763z" data-paper-data="{&quot;index&quot;:null}" fill="#e80000" stroke-linecap="butt"/></g></g></svg>