<svg version="1.1" xmlns="http://www.w3.org/2000/svg" xmlns:xlink="http://www.w3.org/1999/xlink" width="53.2215" height="85.9736" viewBox="0,0,53.2215,85.9736"><g transform="translate(-212.60771,-140.44525)"><g data-paper-data="{&quot;isPaintingLayer&quot;:true}" fill-rule="nonzero" stroke="#000000" stroke-width="2" stroke-linejoin="miter" stroke-miterlimit="10" stroke-dasharray="" stroke-dashoffset="0" style="mix-blend-mode: normal"><path d="M222.67795,158.45277c0,0 2.10697,-2.22284 3.83029,-3.3097c1.36524,-0.86102 5.68789,-2.69317 5.68789,-2.69317" fill="none" stroke-linecap="round"/><path d="M213.98063,163.79959c-1.05895,-2.62976 0.21443,-5.62005 2.84419,-6.679c2.62976,-1.05895 5.62005,0.21443 6.679,2.84419c1.05895,2.62976 -0.21443,5.62005 -2.84419,6.679c-2.62976,1.05895 -5.62005,-0.21443 -6.679,-2.84419z" fill="#e80000" stroke-linecap="butt"/><path d="M231.61473,158.05249c0,-9.17193 7.43532,-16.60724 16.60724,-16.60724c9.17193,0 16.60724,7.43532 16.60724,16.60724c0,9.17193 -7.43532,16.60724 -16.60724,16.60724c-9.17193,0 -16.60724,-7.43532 -16.60724,-16.60724z" fill="#e80000" stroke-linecap="butt"/><path d="M221.09244,184.97415c0,-2.11232 1.71238,-3.8247 3.8247,-3.8247c2.11232,0 3.8247,1.71238 3.8247,3.8247c0,2.11232 -1.71238,3.8247 -3.8247,3.8247c-2.11232,0 -3.8247,-1.71238 -3.8247,-3.8247z" fill="#e80000" stroke-linecap="butt"/><path d="M255.04418,198.21859c0,-2.11232 1.71238,-3.8247 3.8247,-3.8247c2.11232,0 3.8247,1.71238 3.8247,3.8247c0,2.11232 -1.71238,3.8247 -3.8247,3.8247c-2.11232,0 -3.8247,-1.71238 -3.8247,-3.8247z" fill="#e80000" stroke-linecap="butt"/><path d="M259.5386,206.85647c4.73739,1.42575 5.30573,4.37328 4.36057,7.51379c-0.94516,3.14052 -5.55177,4.53061 -10.28916,3.10486c-4.73739,-1.42575 -8.33371,-3.3926 -7.38855,-6.53312c0.36504,-1.21292 5.49561,-6.43948 13.31715,-4.08554z" data-paper-data="{&quot;index&quot;:null}" fill="#e80000" stroke-linecap="butt"/><path d="M230.53898,156.57547l-1.3957,-5.42329l32.34602,-8.32434l1.3957,5.42328z" fill="#ff2121" stroke-linecap="butt"/><path d="M226.84998,221.95441c-2.57113,4.22668 -5.56687,4.03562 -8.36883,2.33116c-2.80196,-1.70446 -2.98908,-6.5126 -0.41794,-10.73929c2.57113,-4.22668 5.37908,-7.21291 8.18104,-5.50845c1.08216,0.65829 4.85075,6.93822 0.60574,13.91658z" data-paper-data="{&quot;index&quot;:null}" fill="#e80000" stroke-linecap="butt"/><path d="M235.30955,203.46802l3.3056,-25.35048l7.78479,1.01511l-3.30559,25.35048z" fill="#e80000" stroke-linecap="butt"/></g></g></svg>