<svg version="1.1" xmlns="http://www.w3.org/2000/svg" xmlns:xlink="http://www.w3.org/1999/xlink" width="60.90178" height="91.75624" viewBox="0,0,60.90178,91.75624"><g transform="translate(-190.00047,-147.82874)"><g data-paper-data="{&quot;isPaintingLayer&quot;:true}" fill-rule="nonzero" stroke="#000000" stroke-width="2" stroke-linejoin="miter" stroke-miterlimit="10" stroke-dasharray="" stroke-dashoffset="0" style="mix-blend-mode: normal"><path d="M200.07223,174.9283c0,0 1.93389,-2.37496 3.57062,-3.58831c1.29665,-0.96123 5.46931,-3.11318 5.46931,-3.11318" fill="#f3f3f3" stroke-linecap="round"/><path d="M191.5308,181.1719c-1.25366,-2.5427 -0.20871,-5.62027 2.334,-6.87393c2.5427,-1.25366 5.62027,-0.20871 6.87393,2.334c1.25366,2.5427 0.20871,5.62027 -2.334,6.87393c-2.5427,1.25366 -5.62027,0.20871 -6.87393,-2.334z" fill="#f3f3f3" stroke-linecap="butt"/><path d="M209.3194,172.6632c0,-9.17193 7.43532,-16.60724 16.60724,-16.60724c9.17193,0 16.60724,7.43532 16.60724,16.60724c0,9.17193 -7.43532,16.60724 -16.60724,16.60724c-9.17193,0 -16.60724,-7.43532 -16.60724,-16.60724z" fill="#f3f3f3" stroke-linecap="butt"/><path d="M221.19609,218.38111v-25.56509h7.8507v25.56509z" fill="#f3f3f3" stroke-linecap="butt"/><path d="M211.68708,220.20169c0,-2.11232 1.71238,-3.8247 3.8247,-3.8247c2.11232,0 3.8247,1.71238 3.8247,3.8247c0,2.11232 -1.71238,3.8247 -3.8247,3.8247c-2.11232,0 -3.8247,-1.71238 -3.8247,-3.8247z" fill="#f3f3f3" stroke-linecap="butt"/><path d="M230.33848,220.83609c0,-2.11232 1.71238,-3.8247 3.8247,-3.8247c2.11232,0 3.8247,1.71238 3.8247,3.8247c0,2.11232 -1.71238,3.8247 -3.8247,3.8247c-2.11232,0 -3.8247,-1.71238 -3.8247,-3.8247z" fill="#f3f3f3" stroke-linecap="butt"/><path d="M212.03047,227.11088c4.11347,0 7.4481,2.47844 7.4481,5.53575c0,3.05731 -3.33463,5.53575 -7.4481,5.53575c-4.11347,0 -7.4481,-2.47844 -7.4481,-5.53575c0,-3.05731 3.33463,-5.53575 7.4481,-5.53575z" data-paper-data="{&quot;index&quot;:null}" fill="#f3f3f3" stroke-linecap="butt"/><path d="M238.09881,226.70828c4.94728,0 6.34095,2.65869 6.34095,5.93835c0,3.27966 -4.01056,5.93835 -8.95785,5.93835c-4.94728,0 -8.95785,-0.84699 -8.95785,-4.12665c0,-1.26666 3.40667,-7.75005 11.57475,-7.75005z" data-paper-data="{&quot;index&quot;:null}" fill="#f3f3f3" stroke-linecap="butt"/><g fill="#ffffff"><path d="M206.80558,170.12099c-2.89193,-7.11036 1.56096,-15.63904 9.94582,-19.04934c8.38486,-3.4103 17.52651,-0.41081 20.41844,6.69955c2.89193,7.11036 -27.47233,19.46015 -30.36426,12.34979z" stroke-linecap="butt"/><path d="M232.55846,164.62624l15.74044,-14.89489l1.44361,5.78254z" stroke-linecap="round"/></g></g></g></svg>