<svg version="1.1" xmlns="http://www.w3.org/2000/svg" xmlns:xlink="http://www.w3.org/1999/xlink" width="82.26756" height="124.26437" viewBox="0,0,82.26756,124.26437"><g transform="translate(-181.79068,-102.82513)"><g data-paper-data="{&quot;isPaintingLayer&quot;:true}" fill-rule="nonzero" stroke="#000000" stroke-width="2" stroke-linejoin="miter" stroke-miterlimit="10" stroke-dasharray="" stroke-dashoffset="0" style="mix-blend-mode: normal"><path d="M252.34629,135.70192c0,-2.11232 1.71238,-3.8247 3.8247,-3.8247c2.11232,0 3.8247,1.71238 3.8247,3.8247c0,2.11232 -1.71238,3.8247 -3.8247,3.8247c-2.11232,0 -3.8247,-1.71238 -3.8247,-3.8247z" fill="#ff6b00" stroke-linecap="butt"/><path d="M216.43986,159.39383c-1.98423,-8.95473 3.66647,-17.8225 12.62119,-19.80673c8.95473,-1.98423 17.8225,3.66647 19.80673,12.62119c1.98423,8.95473 -3.66647,17.8225 -12.62119,19.80673c-8.95473,1.98423 -17.8225,-3.66647 -19.80673,-12.62119z" fill="#ff6b00" stroke-linecap="butt"/><path d="M234.32968,203.93966l-1.97691,-25.48853l7.82718,-0.6071l1.9769,25.48854z" data-paper-data="{&quot;index&quot;:null}" fill="#ff6b00" stroke-linecap="butt"/><path d="M223.5948,215.01801c4.11347,0 7.4481,2.47844 7.4481,5.53575c0,3.05731 -3.33463,5.53575 -7.4481,5.53575c-4.11347,0 -7.4481,-2.47844 -7.4481,-5.53575c0,-3.05731 3.33463,-5.53575 7.4481,-5.53575z" data-paper-data="{&quot;index&quot;:null}" fill="#ff6b00" stroke-linecap="butt"/><path d="M204.87547,155.7586c0,0 2.37681,-1.93163 4.22624,-2.78642c1.46516,-0.67719 5.98848,-1.93479 5.98848,-1.93479" fill="none" stroke-linecap="round"/><path d="M195.55958,159.93545c-0.70988,-2.74464 0.93961,-5.5451 3.68426,-6.25498c2.74464,-0.70988 5.54509,0.93961 6.25497,3.68425c0.70988,2.74464 -0.93961,5.5451 -3.68426,6.25498c-2.74464,0.70988 -5.54509,-0.93961 -6.25497,-3.68425z" fill="#ff6b00" stroke-linecap="butt"/><path d="M255.93995,213.74181c4.89738,-0.7009 6.65366,1.73353 7.1183,4.98011c0.46464,3.24658 -3.1288,6.44664 -8.02619,7.14755c-4.89738,0.7009 -8.98749,0.43065 -9.45213,-2.81593c-0.17945,-1.25388 2.27433,-8.15451 10.36002,-9.31172z" data-paper-data="{&quot;index&quot;:null}" fill="#ff6b00" stroke-linecap="butt"/><path d="M212.71303,163.65674l1.49229,-12.8097l-30.62781,-15.12813l35.69689,-31.17333l11.26205,31.68703l12.8674,0.13302z" data-paper-data="{&quot;index&quot;:null}" fill="#ffa340" stroke-linecap="butt"/><path d="M233.99658,135.33865c0,-2.11232 1.71238,-3.8247 3.8247,-3.8247c2.11232,0 3.8247,1.71238 3.8247,3.8247c0,2.11232 -1.71238,3.8247 -3.8247,3.8247c-2.11232,0 -3.8247,-1.71238 -3.8247,-3.8247z" fill="#ff6b00" stroke-linecap="butt"/></g></g></svg>