<svg version="1.1" xmlns="http://www.w3.org/2000/svg" xmlns:xlink="http://www.w3.org/1999/xlink" width="73.60871" height="110.90791" viewBox="0,0,73.60871,110.90791"><g transform="translate(-191.70836,-116.18161)"><g data-paper-data="{&quot;isPaintingLayer&quot;:true}" fill-rule="nonzero" stroke="#000000" stroke-width="2" stroke-linejoin="miter" stroke-miterlimit="10" stroke-dasharray="" stroke-dashoffset="0" style="mix-blend-mode: normal"><path d="M249.63905,191.81566c0,-2.11232 1.71238,-3.8247 3.8247,-3.8247c2.11232,0 3.8247,1.71238 3.8247,3.8247c0,2.11232 -1.71238,3.8247 -3.8247,3.8247c-2.11232,0 -3.8247,-1.71238 -3.8247,-3.8247z" fill="#ff6b00" stroke-linecap="butt"/><path d="M232.08263,211.34465l-2.13149,-25.47608l7.82337,-0.65455l2.13149,25.47608z" fill="#ff6b00" stroke-linecap="butt"/><path d="M224.08668,199.26776c0,-2.11232 1.71238,-3.8247 3.8247,-3.8247c2.11232,0 3.8247,1.71238 3.8247,3.8247c0,2.11232 -1.71238,3.8247 -3.8247,3.8247c-2.11232,0 -3.8247,-1.71238 -3.8247,-3.8247z" fill="#ff6b00" stroke-linecap="butt"/><path d="M223.59479,215.01802c4.11347,0 7.4481,2.47844 7.4481,5.53575c0,3.05731 -3.33463,5.53575 -7.4481,5.53575c-4.11347,0 -7.4481,-2.47844 -7.4481,-5.53575c0,-3.05731 3.33463,-5.53575 7.4481,-5.53575z" data-paper-data="{&quot;index&quot;:null}" fill="#ff6b00" stroke-linecap="butt"/><path d="M257.91719,213.36782c4.94703,-0.04918 6.36707,2.59552 6.39968,5.87502c0.0326,3.2795 -3.95132,5.97792 -8.89837,6.02712c-4.94703,0.04918 -8.96582,-0.75788 -8.99843,-4.03738c-0.01259,-1.26659 3.32945,-7.78353 11.49713,-7.86474z" data-paper-data="{&quot;index&quot;:null}" fill="#ff6b00" stroke-linecap="butt"/><path d="M220.46557,170.70015c0,-9.17193 7.43532,-16.60724 16.60724,-16.60724c9.17193,0 16.60724,7.43532 16.60724,16.60724c0,9.17193 -7.43532,16.60724 -16.60724,16.60724c-9.17193,0 -16.60724,-7.43532 -16.60724,-16.60724z" fill="#ff6b00" stroke-linecap="butt"/><path d="M211.52783,168.59747c0,0 1.85948,-2.43366 3.45789,-3.69705c1.26628,-1.00088 5.37038,-3.28089 5.37038,-3.28089" fill="none" stroke-linecap="round"/><path d="M203.44624,173.49699c-1.33173,-2.5027 -0.38248,-5.61111 2.12022,-6.94284c2.5027,-1.33173 5.61111,-0.38248 6.94284,2.12022c1.33173,2.5027 0.38248,5.61111 -2.12022,6.94284c-2.5027,1.33173 -5.61111,0.38248 -6.94284,-2.12022z" fill="#ff6b00" stroke-linecap="butt"/><path d="M215.90477,174.05585l4.22817,-12.18351l-26.62972,-21.39582l41.5955,-22.71252l4.14025,33.37304l12.53391,2.91357z" data-paper-data="{&quot;index&quot;:null}" fill="#ffa340" stroke-linecap="butt"/></g></g></svg>