<svg version="1.1" xmlns="http://www.w3.org/2000/svg" xmlns:xlink="http://www.w3.org/1999/xlink" width="60.67395" height="108.93585" viewBox="0,0,60.67395,108.93585"><g transform="translate(-210.15608,-118.22449)"><g data-paper-data="{&quot;isPaintingLayer&quot;:true}" fill-rule="nonzero" stroke="#000000" stroke-width="2" stroke-linejoin="miter" stroke-miterlimit="10" stroke-dasharray="" stroke-dashoffset="0" style="mix-blend-mode: normal"><path d="M235.80726,205.25064c0,-2.11232 1.71238,-3.8247 3.8247,-3.8247c2.11232,0 3.8247,1.71238 3.8247,3.8247c0,2.11232 -1.71238,3.8247 -3.8247,3.8247c-2.11232,0 -3.8247,-1.71238 -3.8247,-3.8247z" fill="#1d28e8" stroke-linecap="butt"/><path d="M228.85996,164.70509c-2.86842,-8.71186 1.86864,-18.09952 10.58049,-20.96793c8.71186,-2.86842 18.09952,1.86864 20.96793,10.58049c2.86842,8.71186 -1.86864,18.09952 -10.58049,20.96793c-8.71186,2.86842 -18.09952,-1.86864 -20.96793,-10.58049z" fill="#1d28e8" stroke-linecap="butt"/><path d="M241.18689,206.26661v-25.56509h7.8507v25.56509z" fill="#1d28e8" stroke-linecap="butt"/><path d="M222.40398,207.22053c0,-2.11232 1.71238,-3.8247 3.8247,-3.8247c2.11232,0 3.8247,1.71238 3.8247,3.8247c0,2.11232 -1.71238,3.8247 -3.8247,3.8247c-2.11232,0 -3.8247,-1.71238 -3.8247,-3.8247z" fill="#1d28e8" stroke-linecap="butt"/><path d="M229.28716,214.68624c4.11347,0 7.4481,2.47844 7.4481,5.53575c0,3.05731 -3.33463,5.53575 -7.4481,5.53575c-4.11347,0 -7.4481,-2.47844 -7.4481,-5.53575c0,-3.05731 3.33463,-5.53575 7.4481,-5.53575z" data-paper-data="{&quot;index&quot;:null}" fill="#1d28e8" stroke-linecap="butt"/><path d="M220.95607,171.109c0,0 1.61412,-2.60288 3.08215,-4.01567c1.163,-1.11923 5.02603,-3.78738 5.02603,-3.78738" fill="none" stroke-linecap="round"/><path d="M213.51917,178.1036c-1.5687,-2.3614 -0.9261,-5.54736 1.4353,-7.11606c2.3614,-1.5687 5.54736,-0.9261 7.11606,1.4353c1.5687,2.3614 0.9261,5.54736 -1.4353,7.11606c-2.3614,1.5687 -5.54736,0.9261 -7.11606,-1.4353z" fill="#1d28e8" stroke-linecap="butt"/><path d="M255.3555,214.28364c4.94728,0 6.34095,2.65869 6.34095,5.93835c0,3.27966 -4.01056,5.93835 -8.95785,5.93835c-4.94728,0 -8.95785,-0.84699 -8.95785,-4.12665c0,-1.26666 3.40667,-7.75005 11.57475,-7.75005z" data-paper-data="{&quot;index&quot;:null}" fill="#1d28e8" stroke-linecap="butt"/><path d="M228.41947,164.00252l-16.80804,-15.76439l29.7081,-28.33013l12.08036,25.82005l16.84092,-12.22473z" fill="#2530ff" stroke-linecap="round"/></g></g></svg>