<svg version="1.1" xmlns="http://www.w3.org/2000/svg" xmlns:xlink="http://www.w3.org/1999/xlink" width="68.83737" height="96.43887" viewBox="0,0,68.83737,96.43887"><g transform="translate(-217.42809,-125.58552)"><g data-paper-data="{&quot;isPaintingLayer&quot;:true}" fill-rule="nonzero" stroke-linejoin="miter" stroke-miterlimit="10" stroke-dasharray="" stroke-dashoffset="0" style="mix-blend-mode: normal"><path d="M217.42809,173.86761l5.42969,-1.13003l-5.16601,8.41251l5.52844,-1.18782l-3.41578,8.50772l9.07691,1.4651l1.88214,-14.53535l-3.85862,1.19747l4.0659,-9.22465l-4.48412,1.70723l3.70749,-11.50109l-2.97114,1.70009l3.70307,-13.21811l-10.58111,17.8084l4.01215,-1.44498l-6.92902,11.44353" data-paper-data="{&quot;index&quot;:null}" fill="#fff200" stroke="none" stroke-width="0.66342" stroke-linecap="butt"/><path d="M254.4736,190.53301c0,-2.11232 1.71238,-3.8247 3.8247,-3.8247c2.11232,0 3.8247,1.71238 3.8247,3.8247c0,2.11232 -1.71238,3.8247 -3.8247,3.8247c-2.11232,0 -3.8247,-1.71238 -3.8247,-3.8247z" fill="#ffe819" stroke="#000000" stroke-width="2" stroke-linecap="butt"/><path d="M231.63232,200.59099l8.70977,-24.03568l7.38104,2.67466l-8.70977,24.03568z" fill="#ffe819" stroke="#000000" stroke-width="2" stroke-linecap="butt"/><path d="M221.03197,169.27321c0,-2.11232 1.71238,-3.8247 3.8247,-3.8247c2.11232,0 3.8247,1.71238 3.8247,3.8247c0,2.11232 -1.71238,3.8247 -3.8247,3.8247c-2.11232,0 -3.8247,-1.71238 -3.8247,-3.8247z" fill="#ffe819" stroke="#000000" stroke-width="2" stroke-linecap="butt"/><path d="M264.36063,206.41744c3.54001,-3.456 6.39451,-2.52715 8.68557,-0.1804c2.29106,2.34675 1.27858,7.05081 -2.26144,10.50681c-3.54001,3.456 -7.00143,5.65158 -9.29249,3.30483c-0.88484,-0.90636 -2.97628,-7.9253 2.86836,-13.63123z" data-paper-data="{&quot;index&quot;:null}" fill="#ffe819" stroke="#000000" stroke-width="2" stroke-linecap="butt"/><path d="M242.27743,203.64685c-2.42098,4.64871 -6.72462,7.19804 -9.61246,5.69409c-2.88783,-1.50394 -3.26629,-6.49165 -0.84531,-11.14036c2.42098,-4.64871 6.06044,-5.9227 8.94828,-4.41876c2.88783,1.50394 3.93047,5.21631 1.50949,9.86502z" fill="#ffe819" stroke="#000000" stroke-width="2" stroke-linecap="butt"/><path d="M250.55324,159.7052c4.96202,-7.7138 15.23779,-9.94455 22.95158,-4.98254c7.7138,4.96202 9.94455,15.23779 4.98254,22.95158c-4.96202,7.7138 -15.23779,9.94455 -22.95158,4.98254c-7.7138,-4.96202 -9.94455,-15.23779 -4.98254,-22.95158z" fill="#ffe819" stroke="#000000" stroke-width="2" stroke-linecap="butt"/><path d="M246.52665,134.34077c0,0 2.78286,1.27908 4.36669,2.56071c1.25473,1.01533 4.38108,4.51789 4.38108,4.51789" fill="none" stroke="#000000" stroke-width="2" stroke-linecap="round"/><path d="M238.66428,127.82807c2.14877,-1.84927 5.38982,-1.60647 7.23909,0.5423c1.84927,2.14877 1.60647,5.38982 -0.5423,7.23909c-2.14877,1.84927 -5.38982,1.60647 -7.23909,-0.5423c-1.84927,-2.14877 -1.60647,-5.38982 0.5423,-7.23909z" fill="#ffe819" stroke="#000000" stroke-width="2" stroke-linecap="butt"/><path d="M246.76976,157.21544l9.70013,-6.0294l-4.12043,-15.47301c0,0 13.06189,5.31452 22.3482,10.46219c9.28631,5.14767 10.45443,18.24226 10.45443,18.24226z" data-paper-data="{&quot;index&quot;:null}" fill="#fff067" stroke="#000000" stroke-width="2" stroke-linecap="butt"/></g></g></svg>