<svg version="1.1" xmlns="http://www.w3.org/2000/svg" xmlns:xlink="http://www.w3.org/1999/xlink" width="104.54862" height="57.20406" viewBox="0,0,104.54862,57.20406"><g transform="translate(-196.19056,-169.53123)"><g data-paper-data="{&quot;isPaintingLayer&quot;:true}" fill-rule="nonzero" stroke="#000000" stroke-width="2" stroke-linejoin="miter" stroke-miterlimit="10" stroke-dasharray="" stroke-dashoffset="0" style="mix-blend-mode: normal"><path d="M224.50004,214.22764c2.05688,-0.48082 4.11407,0.79684 4.59489,2.85371c0.48082,2.05688 -0.79684,4.11407 -2.85371,4.59489c-2.05688,0.48082 -4.11407,-0.79684 -4.59489,-2.85371c-0.48082,-2.05688 0.79684,-4.11407 2.85371,-4.59489z" fill="#ffe819" stroke-linecap="butt"/><path d="M270.40649,193.59316c8.44672,-3.57452 18.19186,0.37519 21.76637,8.8219c3.57452,8.44672 -0.37519,18.19186 -8.8219,21.76637c-8.44672,3.57452 -18.19186,-0.37519 -21.76637,-8.8219c-3.57452,-8.44672 0.37519,-18.19186 8.8219,-21.76637z" fill="#ffe819" stroke-linecap="butt"/><path d="M230.96965,214.05023l25.56255,-0.35997l0.11054,7.84992l-25.56255,0.35997z" fill="#ffe819" stroke-linecap="butt"/><path d="M269.43324,177.94608c0,0 2.86967,1.07022 4.54377,2.23146c1.32624,0.91995 4.70256,4.18224 4.70256,4.18224" fill="none" stroke-linecap="round"/><path d="M261.11168,172.03141c2.00644,-2.0028 5.25655,-1.99987 7.25937,0.00657c2.0028,2.00644 1.99987,5.25655 -0.00657,7.25937c-2.00644,2.0028 -5.25655,1.99987 -7.25937,-0.00657c-2.0028,-2.00644 -1.99987,-5.25655 0.00657,-7.25937z" fill="#ffe819" stroke-linecap="butt"/><path d="M214.83149,225.62378c-4.90153,0.67122 -6.64303,-1.7738 -7.08799,-5.02314c-0.44496,-3.24933 3.1678,-6.42757 8.06935,-7.09878c4.90153,-0.67122 8.98993,-0.37618 9.4349,2.87315c0.17185,1.25495 -2.32369,8.14059 -10.41625,9.24878z" data-paper-data="{&quot;index&quot;:null}" fill="#ffe819" stroke-linecap="butt"/><path d="M268.68482,189.40395l11.41089,0.48757l-3.04453,-11.25182c0,0 16.15627,7.90116 20.92503,17.38764c4.76875,9.48647 -1.64759,20.96093 -1.64759,20.96093z" data-paper-data="{&quot;index&quot;:null}" fill="#fff067" stroke-linecap="butt"/><path d="M203.6638,225.51313c-4.94604,0.11071 -6.39885,-2.51613 -6.47224,-5.79498c-0.07339,-3.27884 3.87667,-6.02661 8.82273,-6.13731c4.94604,-0.11071 8.97455,0.64634 9.04795,3.92517c0.02834,1.26635 -3.23239,7.82434 -11.39843,8.00712z" data-paper-data="{&quot;index&quot;:null}" fill="#ffe819" stroke-linecap="butt"/><path d="M216.07904,216.63703c2.05688,-0.48082 4.11407,0.79684 4.59489,2.85371c0.48082,2.05688 -0.79684,4.11407 -2.85371,4.59489c-2.05688,0.48082 -4.11407,-0.79684 -4.59489,-2.85371c-0.48082,-2.05688 0.79684,-4.11407 2.85371,-4.59489z" fill="#ffe819" stroke-linecap="butt"/></g></g></svg>