<svg version="1.1" xmlns="http://www.w3.org/2000/svg" xmlns:xlink="http://www.w3.org/1999/xlink" width="68.91661" height="84.51767" viewBox="0,0,68.91661,84.51767"><g transform="translate(-204.30353,-133.25828)"><g data-paper-data="{&quot;isPaintingLayer&quot;:true}" fill-rule="nonzero" stroke="#000000" stroke-width="2" stroke-linejoin="miter" stroke-miterlimit="10" stroke-dasharray="" stroke-dashoffset="0" style="mix-blend-mode: normal"><path d="M235.30955,196.28104l3.30559,-25.35048l7.78479,1.01511l-3.30559,25.35048z" fill="#e80000" stroke-linecap="butt"/><path d="M221.09244,176.53726c0,-2.11232 1.71238,-3.8247 3.8247,-3.8247c2.11232,0 3.8247,1.71238 3.8247,3.8247c0,2.11232 -1.71238,3.8247 -3.8247,3.8247c-2.11232,0 -3.8247,-1.71238 -3.8247,-3.8247z" fill="#e80000" stroke-linecap="butt"/><path d="M255.04418,189.7817c0,-2.11232 1.71238,-3.8247 3.8247,-3.8247c2.11232,0 3.8247,1.71238 3.8247,3.8247c0,2.11232 -1.71238,3.8247 -3.8247,3.8247c-2.11232,0 -3.8247,-1.71238 -3.8247,-3.8247z" fill="#e80000" stroke-linecap="butt"/><path d="M261.7122,199.26269c2.72595,-4.12853 5.71255,-3.82662 8.44945,-2.01952c2.7369,1.8071 2.74577,6.61887 0.01981,10.7474c-2.72595,4.12853 -5.64259,7.00869 -8.37949,5.20159c-1.05703,-0.69792 -4.59038,-7.11316 -0.08977,-13.92947z" data-paper-data="{&quot;index&quot;:null}" fill="#e80000" stroke-linecap="butt"/><path d="M215.37377,214.26135c-3.35479,3.63606 -6.25389,2.85748 -8.66431,0.63351c-2.41042,-2.22396 -1.64487,-6.97446 1.70993,-10.61053c3.35479,-3.63606 6.6969,-6.00933 9.10732,-3.78536c0.93095,0.85893 3.3859,7.75915 -2.15295,13.76237z" data-paper-data="{&quot;index&quot;:null}" fill="#e80000" stroke-linecap="butt"/><path d="M222.67796,151.2658c0,0 2.10697,-2.22284 3.83029,-3.3097c1.36524,-0.86102 5.68789,-2.69317 5.68789,-2.69317" fill="none" stroke-linecap="round"/><path d="M213.98064,156.61262c-1.05895,-2.62976 0.21443,-5.62005 2.84419,-6.679c2.62976,-1.05895 5.62005,0.21443 6.679,2.84419c1.05895,2.62976 -0.21443,5.62005 -2.84419,6.679c-2.62976,1.05895 -5.62005,-0.21443 -6.679,-2.84419z" fill="#e80000" stroke-linecap="butt"/><path d="M231.61474,150.86552c0,-9.17193 7.43532,-16.60724 16.60724,-16.60724c9.17193,0 16.60724,7.43532 16.60724,16.60724c0,9.17193 -7.43532,16.60724 -16.60724,16.60724c-9.17193,0 -16.60724,-7.43532 -16.60724,-16.60724z" fill="#e80000" stroke-linecap="butt"/><path d="M230.53899,149.3885l-1.3957,-5.42329l32.34602,-8.32434l1.3957,5.42328z" fill="#ff2121" stroke-linecap="butt"/></g></g></svg>