<svg version="1.1" xmlns="http://www.w3.org/2000/svg" xmlns:xlink="http://www.w3.org/1999/xlink" width="76.58302" height="87.56072" viewBox="0,0,76.58302,87.56072"><g transform="translate(-189.85842,-139.12167)"><g data-paper-data="{&quot;isPaintingLayer&quot;:true}" fill-rule="nonzero" stroke="#000000" stroke-width="2" stroke-linejoin="miter" stroke-miterlimit="10" stroke-dasharray="" stroke-dashoffset="0" style="mix-blend-mode: normal"><path d="M212.97288,165.75445c-2.51047,-8.82167 2.60576,-18.00818 11.42742,-20.51865c8.82167,-2.51047 18.00818,2.60576 20.51865,11.42742c2.51047,8.82167 -2.60576,18.00818 -11.42742,20.51865c-8.82167,2.51047 -18.00818,-2.60576 -20.51865,-11.42742z" fill="#2d6a2b" stroke-linecap="butt"/><path d="M216.53304,145.63016c12.75512,-9.40474 24.96862,-3.91685 24.96862,-3.91685l-31.76587,25.90415c0,0 -6.91658,-11.87566 6.79725,-21.9873z" fill="#367e33" stroke-linecap="round"/><path d="M236.3074,207.7273l-4.15881,-25.22455l7.74613,-1.27712l4.15881,25.22455z" fill="#2d6a2b" stroke-linecap="butt"/><path d="M211.13364,188.41551c0,-2.11232 1.71238,-3.8247 3.8247,-3.8247c2.11232,0 3.8247,1.71238 3.8247,3.8247c0,2.11232 -1.71238,3.8247 -3.8247,3.8247c-2.11232,0 -3.8247,-1.71238 -3.8247,-3.8247z" fill="#2d6a2b" stroke-linecap="butt"/><path d="M250.83116,166.55542c0.35757,-2.08184 2.3351,-3.47964 4.41693,-3.12207c2.08184,0.35757 3.47964,2.3351 3.12207,4.41693c-0.35757,2.08184 -2.3351,3.47964 -4.41693,3.12207c-2.08184,-0.35757 -3.47964,-2.3351 -3.12207,-4.41693z" fill="#2d6a2b" stroke-linecap="butt"/><path d="M257.78312,208.39545c4.7798,-1.27635 6.81221,0.93279 7.65833,4.10143c0.84612,3.16864 -2.34277,6.77201 -7.12258,8.04835c-4.7798,1.27635 -8.87312,1.49271 -9.71924,-1.67592c-0.32678,-1.22378 1.29192,-8.36658 9.18349,-10.47386z" data-paper-data="{&quot;index&quot;:null}" fill="#2d6a2b" stroke-linecap="butt"/><path d="M228.53054,214.6109c4.11347,0 7.4481,2.47844 7.4481,5.53575c0,3.05731 -3.33463,5.53575 -7.4481,5.53575c-4.11347,0 -7.4481,-2.47844 -7.4481,-5.53575c0,-3.05731 3.33463,-5.53575 7.4481,-5.53575z" data-paper-data="{&quot;index&quot;:null}" fill="#2d6a2b" stroke-linecap="butt"/><path d="M200.26806,157.10963c0,0 2.32946,-1.98846 4.15771,-2.88769c1.44836,-0.71237 5.94,-2.07885 5.94,-2.07885" fill="none" stroke-linecap="round"/><path d="M191.05577,161.51025c-0.77596,-2.7267 0.80542,-5.56617 3.53211,-6.34213c2.7267,-0.77596 5.56617,0.80542 6.34213,3.53211c0.77596,2.7267 -0.80542,5.56617 -3.53211,6.34213c-2.7267,0.77596 -5.56617,-0.80542 -6.34213,-3.53211z" fill="#2d6a2b" stroke-linecap="butt"/></g></g></svg>