<svg version="1.1" xmlns="http://www.w3.org/2000/svg" xmlns:xlink="http://www.w3.org/1999/xlink" width="114.94549" height="131.60594" viewBox="0,0,114.94549,131.60594"><g transform="translate(-149.05287,-95.47906)"><g data-paper-data="{&quot;isPaintingLayer&quot;:true}" fill-rule="nonzero" stroke-linejoin="miter" stroke-miterlimit="10" stroke-dasharray="" stroke-dashoffset="0" style="mix-blend-mode: normal"><path d="M237.12243,198.25797l-4.53667,-25.15934l7.72611,-1.39315l4.53667,25.15934z" data-paper-data="{&quot;index&quot;:null}" fill="#2d6a2b" stroke="#000000" stroke-width="2" stroke-linecap="butt"/><path d="M193.05687,139.08815c0,-2.11232 1.71238,-3.8247 3.8247,-3.8247c2.11232,0 3.8247,1.71238 3.8247,3.8247c0,2.11232 -1.71238,3.8247 -3.8247,3.8247c-2.11232,0 -3.8247,-1.71238 -3.8247,-3.8247z" fill="#2d6a2b" stroke="#000000" stroke-width="2" stroke-linecap="butt"/><path d="M195.46984,135.61811c0,-2.11232 1.71238,-3.8247 3.8247,-3.8247c2.11232,0 3.8247,1.71238 3.8247,3.8247c0,2.11232 -1.71238,3.8247 -3.8247,3.8247c-2.11232,0 -3.8247,-1.71238 -3.8247,-3.8247z" fill="#2d6a2b" stroke="#000000" stroke-width="2" stroke-linecap="butt"/><path d="M256.65742,214.20831c4.94728,0 6.34095,2.65869 6.34095,5.93835c0,3.27966 -4.01057,5.93835 -8.95785,5.93835c-4.94728,0 -8.95785,-0.84699 -8.95785,-4.12665c0,-1.26666 3.40667,-7.75005 11.57475,-7.75005z" data-paper-data="{&quot;index&quot;:null}" fill="#2d6a2b" stroke="#000000" stroke-width="2" stroke-linecap="butt"/><path d="M220.59047,214.61091c4.11347,0 7.4481,2.47844 7.4481,5.53575c0,3.05731 -3.33463,5.53575 -7.4481,5.53575c-4.11347,0 -7.4481,-2.47844 -7.4481,-5.53575c0,-3.05731 3.33463,-5.53575 7.4481,-5.53575z" data-paper-data="{&quot;index&quot;:null}" fill="#2d6a2b" stroke="#000000" stroke-width="2" stroke-linecap="butt"/><path d="M211.12424,154.73945c-1.64125,-9.02389 4.34357,-17.66969 13.36745,-19.31093c9.02389,-1.64125 17.66969,4.34357 19.31093,13.36745c1.64125,9.02389 -4.34357,17.66969 -13.36745,19.31093c-9.02389,1.64125 -17.66969,-4.34357 -19.31093,-13.36745z" fill="#2d6a2b" stroke="#000000" stroke-width="2" stroke-linecap="butt"/><path d="M216.62334,135.05643c13.60875,-8.1206 25.23109,-1.47171 25.23109,-1.47171l-34.13302,22.69434c0,0 -5.7297,-12.49164 8.90193,-21.22263z" fill="#367e33" stroke="#000000" stroke-width="2" stroke-linecap="round"/><path d="M199.31972,144.90082c0,0 2.51169,-1.75266 4.41867,-2.46994c1.51074,-0.56824 6.11392,-1.49173 6.11392,-1.49173" fill="none" stroke="#000000" stroke-width="2" stroke-linecap="round"/><path d="M189.72336,148.38531c-0.50729,-2.7892 1.34256,-5.46154 4.13176,-5.96884c2.7892,-0.50729 5.46154,1.34256 5.96884,4.13176c0.50729,2.7892 -1.34256,5.46154 -4.13176,5.96884c-2.7892,0.50729 -5.46154,-1.34256 -5.96884,-4.13176z" fill="#2d6a2b" stroke="#000000" stroke-width="2" stroke-linecap="butt"/><g stroke="#61ff00" stroke-width="3" stroke-linecap="round"><path d="M194.90676,135.88162c0,0 -18.32377,-14.27212 -26.07265,-21.06862c-6.94827,-6.09428 -18.28123,-17.83394 -18.28123,-17.83394" fill="none"/><path d="M179.04838,122.25334c0,0 -5.58443,-9.14967 -3.71681,-12.88493c1.86763,-3.73525 5.20353,-1.73451 5.20353,-1.73451z" fill="#61ff00"/><path d="M152.12659,112.00031c0,0 -0.7581,-3.8153 3.38823,-4.31336c4.14633,-0.49806 10.87575,7.84564 10.87575,7.84564z" data-paper-data="{&quot;index&quot;:null}" fill="#61ff00"/><path d="M175.90477,129.11406c0,0 -0.61606,-3.22438 2.88606,-3.61895c3.50213,-0.39457 9.12919,6.68834 9.12919,6.68834z" data-paper-data="{&quot;index&quot;:null}" fill="#61ff00"/></g></g></g></svg>