<svg version="1.1" xmlns="http://www.w3.org/2000/svg" xmlns:xlink="http://www.w3.org/1999/xlink" width="113.05657" height="43.35978" viewBox="0,0,113.05657,43.35978"><g transform="translate(-180.29642,-164.37297)"><g data-paper-data="{&quot;isPaintingLayer&quot;:true}" fill-rule="nonzero" stroke="#000000" stroke-width="2" stroke-linejoin="miter" stroke-miterlimit="10" stroke-dasharray="" stroke-dashoffset="0" style="mix-blend-mode: normal"><g><path d="M206.87568,200.90149l-10.61388,5.73231c0,0 -6.26518,0.24588 -11.71344,-9.87464c-5.48966,-10.19742 -2.3681,-16.19859 -2.3681,-16.19859l10.61388,-5.73231c0,0 1.48162,9.78155 3.77902,14.03538c2.39258,4.43009 10.30251,12.03785 10.30251,12.03785z" fill="#343434" stroke-linecap="butt"/><path d="M213.95174,206.73275c0,0 -13.15494,-10.02996 -17.15275,-17.43227c-4.09962,-7.59082 -5.66792,-23.92751 -5.66792,-23.92751" fill="none" stroke-linecap="round"/></g><path d="M219.21344,197.71817c0,0 -3.04719,-0.30818 -4.9609,-1.00733c-1.51607,-0.55388 -5.6088,-2.85423 -5.6088,-2.85423" fill="#181818" stroke-linecap="round"/><path d="M229.12653,201.41539c-1.43349,2.44583 -4.5783,3.26653 -7.02414,1.83303c-2.44583,-1.43349 -3.26652,-4.57829 -1.83301,-7.02414c1.43349,-2.44583 4.57829,-3.26652 7.02414,-1.83303c2.44583,1.43349 3.26653,4.5783 1.83302,7.02413z" fill="#181818" stroke-linecap="butt"/><path d="M256.77789,187.67858l-25.55915,0.55089l-0.16917,-7.84888l25.55915,-0.55089z" fill="#181818" stroke-linecap="butt"/><path d="M229.62921,190.40358l0.04291,-14.42732l5.03251,3.63865l4.86299,-4.22664l1.7821,17.01096l-6.10573,-4.17758z" fill="#0e0e0e" stroke-linecap="round"/><path d="M260.30899,179.13921c-2.013,-0.64011 -3.12595,-2.79088 -2.48585,-4.80387c0.64011,-2.013 2.79088,-3.12595 4.80387,-2.48585c2.013,0.64011 3.12595,2.79088 2.48585,4.80387c-0.64011,2.013 -2.79088,3.12595 -4.80387,2.48585z" fill="#181818" stroke-linecap="butt"/><path d="M212.56592,199.45201c-8.58786,3.22069 -18.16058,-1.13026 -21.38127,-9.71812c-3.22069,-8.58786 1.13026,-18.16059 9.71812,-21.38128c8.58786,-3.22069 18.16058,1.13027 21.38127,9.71812c3.22069,8.58786 -1.13027,18.16058 -9.71812,21.38127z" fill="#181818" stroke-linecap="butt"/><path d="M285.38895,170.04215c4.91638,-0.55211 6.59805,1.93445 6.96404,5.19363c0.366,3.25917 -3.3228,6.34882 -8.23919,6.90092c-4.91638,0.55211 -8.99641,0.15797 -9.36242,-3.1012c-0.14135,-1.25874 2.52051,-8.08181 10.63757,-8.99335z" data-paper-data="{&quot;index&quot;:null}" fill="#181818" stroke-linecap="butt"/><path d="M204.83802,178.54391l-8.06215,0.17939c0,0 -2.7724,-3.31102 -3.8512,-5.02279c-1.02147,-1.62079 1.72444,-7.22458 1.72444,-7.22458l5.54013,-0.45055c0,0 -2.01485,4.29587 -1.31297,6.18597c0.82707,2.22718 5.96173,6.33256 5.96173,6.33256z" fill="#ff0000" stroke-linecap="butt"/><path d="M253.6012,196.43609c-2.013,-0.64011 -3.12595,-2.79088 -2.48585,-4.80387c0.64011,-2.013 2.79088,-3.12595 4.80387,-2.48585c2.013,0.64011 3.12595,2.79088 2.48585,4.80387c-0.64011,2.013 -2.79088,3.12595 -4.80387,2.48585z" fill="#181818" stroke-linecap="butt"/><path d="M284.54506,189.97305c4.55465,1.9315 4.79972,4.92331 3.51929,7.94269c-1.28043,3.01937 -6.01071,3.90128 -10.56538,1.96977c-4.55465,-1.9315 -7.91626,-4.27707 -6.63582,-7.29645c0.49452,-1.16613 6.16206,-5.80497 13.68191,-2.61601z" data-paper-data="{&quot;index&quot;:null}" fill="#181818" stroke-linecap="butt"/></g></g></svg>