<svg version="1.1" xmlns="http://www.w3.org/2000/svg" xmlns:xlink="http://www.w3.org/1999/xlink" width="117.95518" height="110.06368" viewBox="0,0,117.95518,110.06368"><g transform="translate(-175.58558,-100.03519)"><g data-paper-data="{&quot;isPaintingLayer&quot;:true}" fill-rule="nonzero" stroke="#000000" stroke-width="2" stroke-linejoin="miter" stroke-miterlimit="10" stroke-dasharray="" stroke-dashoffset="0" style="mix-blend-mode: normal"><path d="M195.52827,153.2614c-0.29871,-9.16706 6.89051,-16.84058 16.05756,-17.13929c9.16706,-0.29871 16.84058,6.89051 17.13929,16.05756c0.29871,9.16706 -6.89051,16.84058 -16.05756,17.13929c-9.16706,0.29871 -16.84058,-6.89051 -17.13929,-16.05756z" fill="#ff6b00" stroke-linecap="butt"/><path d="M236.92963,194.69278l-17.79924,-18.35102l5.63534,-5.46593l17.79925,18.35103z" data-paper-data="{&quot;index&quot;:null}" fill="#ff6b00" stroke-linecap="butt"/><path d="M193.26116,181.45191c-1.29992,-1.66497 -1.00398,-4.06848 0.66098,-5.36841c1.66497,-1.29992 4.06848,-1.00398 5.36841,0.66098c1.29992,1.66497 1.00398,4.06848 -0.66098,5.36841c-1.66497,1.29992 -4.06848,1.00398 -5.36841,-0.66098z" fill="#ff6b00" stroke-linecap="butt"/><path d="M186.08957,142.28767c0,0 2.39243,-1.91226 4.24872,-2.75201c1.47059,-0.66526 6.00398,-1.8861 6.00398,-1.8861" data-paper-data="{&quot;index&quot;:null}" fill="none" stroke-linecap="round"/><path d="M176.74005,146.38871c-0.68756,-2.7503 0.98461,-5.53728 3.73493,-6.22485c2.75031,-0.68756 5.53727,0.98462 6.22484,3.73493c0.68756,2.7503 -0.98461,5.53728 -3.73493,6.22485c-2.75031,0.68756 -5.53727,-0.98462 -6.22484,-3.73493z" data-paper-data="{&quot;index&quot;:null}" fill="#ff6b00" stroke-linecap="butt"/><path d="M218.88009,208.7696c-4.79918,1.20146 -6.7968,-1.0392 -7.59325,-4.22067c-0.79647,-3.18148 2.44836,-6.73455 7.24756,-7.936c4.79918,-1.20146 8.89538,-1.35379 9.69185,1.82768c0.3076,1.22873 -1.42256,8.34536 -9.34614,10.32899z" data-paper-data="{&quot;index&quot;:null}" fill="#ff6b00" stroke-linecap="butt"/><path d="M188.48259,148.41261l7.91867,-10.17889l-18.34289,-28.81773l46.68764,-8.14301l-6.80245,32.9337l10.9331,6.78638z" data-paper-data="{&quot;index&quot;:null}" fill="#ffa340" stroke-linecap="butt"/><path d="M223.04182,178.66975c-1.29992,-1.66497 -1.00398,-4.06848 0.66098,-5.36841c1.66497,-1.29992 4.06848,-1.00398 5.36841,0.66098c1.29992,1.66497 1.00398,4.06848 -0.66098,5.36841c-1.66497,1.29992 -4.06848,1.00398 -5.36841,-0.66098z" fill="#ff6b00" stroke-linecap="butt"/><path d="M280.43991,134.11302c-0.57702,-4.91353 1.90099,-6.60777 5.15826,-6.99027c3.25728,-0.38252 6.36559,3.29058 6.94259,8.20411c0.57702,4.91353 0.20357,8.9955 -3.0537,9.37802c-1.258,0.14773 -8.09449,-2.4795 -9.04716,-10.59185z" data-paper-data="{&quot;index&quot;:null}" fill="#ff6b00" stroke-linecap="butt"/></g></g></svg>