<svg version="1.1" xmlns="http://www.w3.org/2000/svg" xmlns:xlink="http://www.w3.org/1999/xlink" width="61.25988" height="122.87946" viewBox="0,0,61.25988,122.87946"><g transform="translate(-212.37979,-101.82067)"><g data-paper-data="{&quot;isPaintingLayer&quot;:true}" fill-rule="nonzero" stroke="#000000" stroke-width="2" stroke-linejoin="miter" stroke-miterlimit="10" stroke-dasharray="" stroke-dashoffset="0" style="mix-blend-mode: normal"><path d="M227.39977,198.26526c5.67288,-5.87674 12.70351,-3.82491 13.61484,-2.9452c2.35964,2.27777 0.18361,5.75154 -3.25236,9.31098c-3.43598,3.55945 -8.13425,4.59844 -10.49388,2.32067c-2.35963,-2.27777 -3.30458,-5.12701 0.13139,-8.68645z" data-paper-data="{&quot;index&quot;:null}" fill="#ff6b00" stroke-linecap="butt"/><path d="M248.8134,172.52086c2.11232,0 3.8247,1.71238 3.8247,3.8247c0,2.11232 -1.71238,3.8247 -3.8247,3.8247c-0.51114,0 -6.19603,-0.55436 -11.9419,-0.32419c-6.16015,0.24677 -12.3904,1.27923 -12.3904,1.27923c0,0 5.49585,-2.98324 11.52217,-5.16148c5.87424,-2.12327 12.27574,-3.44296 12.81012,-3.44296z" fill="#ff6b00" stroke-linecap="butt"/><path d="M238.67998,159.40658c0,-9.17193 7.43532,-16.60724 16.60724,-16.60724c9.17193,0 16.60724,7.43532 16.60724,16.60724c0,9.17193 -7.43532,16.60724 -16.60724,16.60724c-9.17193,0 -16.60724,-7.43532 -16.60724,-16.60724z" fill="#ff6b00" stroke-linecap="butt"/><path d="M232.51309,196.88256l8.78682,-24.00761l7.37241,2.69832l-8.78681,24.0076z" data-paper-data="{&quot;index&quot;:null}" fill="#ff6b00" stroke-linecap="butt"/><path d="M233.25974,157.53134l5.36709,-11.72645l-24.47544,-23.83015l43.56603,-18.65596l0.94934,33.61548l12.20022,4.09175z" data-paper-data="{&quot;index&quot;:null}" fill="#ffa340" stroke-linecap="butt"/><path d="M229.4321,220.79838c-3.04424,3.89977 -5.99758,3.36235 -8.58282,1.34424c-2.58523,-2.0181 -2.21314,-6.81547 0.83112,-10.71525c3.04424,-3.89977 6.17977,-6.53996 8.76498,-4.52186c0.99846,0.77943 4.01283,7.45426 -1.01329,13.89285z" data-paper-data="{&quot;index&quot;:null}" fill="#ff6b00" stroke-linecap="butt"/><path d="M243.71078,186.02909c0,-2.11232 1.71238,-3.8247 3.8247,-3.8247c2.11232,0 3.8247,1.71238 3.8247,3.8247c0,2.11232 -1.71238,3.8247 -3.8247,3.8247c-2.11232,0 -3.8247,-1.71238 -3.8247,-3.8247z" fill="#ff6b00" stroke-linecap="butt"/><path d="M245.02836,141.98598c0,0 -4.32361,1.82985 -5.89196,2.21132c-1.97969,0.48151 -5.04226,0.44815 -5.04226,0.44815" data-paper-data="{&quot;index&quot;:null}" fill="none" stroke-linecap="round"/><path d="M226.8067,140.3958c2.59037,-1.15197 5.62412,0.01411 6.77609,2.60446c1.15196,2.59035 -0.01409,5.62411 -2.60445,6.77607c-2.59037,1.15197 -5.62412,-0.01411 -6.77609,-2.60446c-1.15196,-2.59035 0.01409,-5.62411 2.60445,-6.77607z" data-paper-data="{&quot;index&quot;:null}" fill="#ff6b00" stroke-linecap="butt"/></g></g></svg>