<svg version="1.1" xmlns="http://www.w3.org/2000/svg" xmlns:xlink="http://www.w3.org/1999/xlink" width="61.45522" height="83.34756" viewBox="0,0,61.45522,83.34756"><g transform="translate(-205.10188,-142.47636)"><g data-paper-data="{&quot;isPaintingLayer&quot;:true}" fill-rule="nonzero" stroke="#000000" stroke-width="2" stroke-linejoin="miter" stroke-miterlimit="10" stroke-dasharray="" stroke-dashoffset="0" style="mix-blend-mode: normal"><path d="M216.29502,150.59285c0,0 2.90973,-0.95593 4.94245,-1.09425c1.61035,-0.10957 6.2846,0.33033 6.2846,0.33033" fill="none" stroke-linecap="round"/><path d="M206.10189,151.16913c0.31662,-2.81723 2.85709,-4.84438 5.67432,-4.52776c2.81723,0.31662 4.84437,2.85709 4.52775,5.67432c-0.31662,2.81723 -2.85709,4.84438 -5.67432,4.52776c-2.81723,-0.31662 -4.84437,-2.85709 -4.52775,-5.67432z" fill="#e80000" stroke-linecap="butt"/><path d="M215.58322,160.0836c0,-9.17193 7.43532,-16.60724 16.60724,-16.60724c9.17193,0 16.60724,7.43532 16.60724,16.60724c0,9.17193 -7.43532,16.60724 -16.60724,16.60724c-9.17193,0 -16.60724,-7.43532 -16.60724,-16.60724z" fill="#e80000" stroke-linecap="butt"/><path d="M234.03784,205.49682l-3.24834,-25.35788l7.78707,-0.99751l3.24834,25.35788z" fill="#e80000" stroke-linecap="butt"/><path d="M214.62105,195.10097c0,-2.11232 1.71238,-3.8247 3.8247,-3.8247c2.11232,0 3.8247,1.71238 3.8247,3.8247c0,2.11232 -1.71238,3.8247 -3.8247,3.8247c-2.11232,0 -3.8247,-1.71238 -3.8247,-3.8247z" fill="#e80000" stroke-linecap="butt"/><path d="M249.26615,159.25336c0,-2.11232 1.71238,-3.8247 3.8247,-3.8247c2.11232,0 3.8247,1.71238 3.8247,3.8247c0,2.11232 -1.71238,3.8247 -3.8247,3.8247c-2.11232,0 -3.8247,-1.71238 -3.8247,-3.8247z" fill="#e80000" stroke-linecap="butt"/><path d="M227.18279,213.75242c4.11347,0 7.4481,2.47844 7.4481,5.53575c0,3.05731 -3.33463,5.53575 -7.4481,5.53575c-4.11347,0 -7.4481,-2.47844 -7.4481,-5.53575c0,-3.05731 3.33463,-5.53575 7.4481,-5.53575z" data-paper-data="{&quot;index&quot;:null}" fill="#e80000" stroke-linecap="butt"/><path d="M258.88304,212.03015c4.93898,-0.28639 6.48422,2.28717 6.67407,5.56133c0.18985,3.27416 -3.66008,6.16055 -8.59907,6.44694c-4.93898,0.28639 -8.99185,-0.32702 -9.18171,-3.60118c-0.07333,-1.26453 2.95233,-7.93426 11.10671,-8.40709z" data-paper-data="{&quot;index&quot;:null}" fill="#e80000" stroke-linecap="butt"/><path d="M214.50747,158.60658l-1.3957,-5.42329l32.34602,-8.32434l1.3957,5.42328z" fill="#ff2121" stroke-linecap="butt"/></g></g></svg>