<svg version="1.1" xmlns="http://www.w3.org/2000/svg" xmlns:xlink="http://www.w3.org/1999/xlink" width="71.71807" height="131.51509" viewBox="0,0,71.71807,131.51509"><g transform="translate(-182.27005,-98.72247)"><g data-paper-data="{&quot;isPaintingLayer&quot;:true}" fill-rule="nonzero" stroke="#000000" stroke-width="2" stroke-linejoin="miter" stroke-miterlimit="10" stroke-dasharray="" stroke-dashoffset="0" style="mix-blend-mode: normal"><path d="M221.46525,154.47367c-4.03721,-8.23561 -0.63374,-18.18469 7.60187,-22.22189c8.23561,-4.03721 18.18469,-0.63373 22.2219,7.60187c4.03721,8.23561 0.63374,18.18469 -7.60187,22.22189c-8.23561,4.03721 -18.18469,0.63373 -22.2219,-7.60187z" fill="#ff6b00" stroke-linecap="butt"/><path d="M238.61285,197.91059l-3.28339,-25.35336l7.78568,-1.0083l3.28339,25.35336z" data-paper-data="{&quot;index&quot;:null}" fill="#ff6b00" stroke-linecap="butt"/><path d="M209.37002,153.66399c0,0 1.85508,-2.43702 3.45119,-3.70331c1.26448,-1.00318 5.36442,-3.29063 5.36442,-3.29063" fill="none" stroke-linecap="round"/><path d="M201.29975,159.91724c-1.33627,-2.50027 -0.39265,-5.61042 2.10763,-6.94669c2.50027,-1.33627 5.6104,-0.39265 6.94667,2.10764c1.33627,2.50027 0.39266,5.61042 -2.10762,6.94668c-2.50027,1.33627 -5.61041,0.39265 -6.94668,-2.10762z" fill="#ff6b00" stroke-linecap="butt"/><path d="M250.84809,221.98043c0.83996,4.87545 -1.54351,6.70029 -4.77557,7.25712c-3.23204,0.55682 -6.53305,-2.94411 -7.37302,-7.81958c-0.83996,-4.87545 -0.68619,-8.9716 2.54585,-9.52842c1.24826,-0.21505 8.21592,2.0414 9.60272,10.09088z" data-paper-data="{&quot;index&quot;:null}" fill="#ff6b00" stroke-linecap="butt"/><path d="M218.84712,159.49431l-1.56629,-12.80086l-33.32902,-7.49l27.35182,-38.703l18.40741,28.14371l12.53684,-2.90093z" data-paper-data="{&quot;index&quot;:null}" fill="#ffa340" stroke-linecap="butt"/><path d="M223.25358,219.17404c-1.39152,4.74755 -4.33488,5.33714 -7.48214,4.41467c-3.14726,-0.92247 -4.57055,-5.51894 -3.17902,-10.2665c1.39152,-4.74755 3.33238,-8.35798 6.47962,-7.4355c1.21552,0.35627 6.47896,5.449 4.18153,13.28732z" data-paper-data="{&quot;index&quot;:null}" fill="#ff6b00" stroke-linecap="butt"/><path d="M192.71986,120.52921c-1.97548,-0.74792 -2.97063,-2.95567 -2.22271,-4.93115c0.74792,-1.97548 2.95567,-2.97063 4.93115,-2.22271c1.97548,0.74792 2.97063,2.95567 2.22271,4.93115c-0.74792,1.97548 -2.95567,2.97063 -4.93115,2.22271z" fill="#ff6b00" stroke-linecap="butt"/><path d="M185.88918,130.59177c-1.97548,-0.74792 -2.97063,-2.95567 -2.22271,-4.93115c0.74792,-1.97548 2.95567,-2.97064 4.93115,-2.22272c1.97548,0.74792 2.97063,2.95567 2.22271,4.93115c-0.74792,1.97548 -2.95567,2.97063 -4.93115,2.22271z" fill="#ff6b00" stroke-linecap="butt"/></g></g></svg>