<svg version="1.1" xmlns="http://www.w3.org/2000/svg" xmlns:xlink="http://www.w3.org/1999/xlink" width="76.49231" height="101.50835" viewBox="0,0,76.49231,101.50835"><g transform="translate(-199.18146,-135.16608)"><g data-paper-data="{&quot;isPaintingLayer&quot;:true}" fill-rule="nonzero" stroke="#000000" stroke-width="2" stroke-linejoin="miter" stroke-miterlimit="10" stroke-dasharray="" stroke-dashoffset="0" style="mix-blend-mode: normal"><path d="M249.03406,192.95503c-0.36947,-2.07976 1.01699,-4.06525 3.09675,-4.43473c2.07976,-0.36947 4.06525,1.01699 4.43473,3.09675c0.36947,2.07976 -1.01699,4.06525 -3.09675,4.43473c-2.07976,0.36947 -4.06525,-1.01699 -4.43473,-3.09675z" fill="#ffe819" stroke-linecap="butt"/><path d="M223.36582,160.60724c0,-9.17193 7.43532,-16.60724 16.60724,-16.60724c9.17193,0 16.60724,7.43532 16.60724,16.60724c0,9.17193 -7.43532,16.60724 -16.60724,16.60724c-9.17193,0 -16.60724,-7.43532 -16.60724,-16.60724z" fill="#ffe819" stroke-linecap="butt"/><path d="M243.08284,204.88306l-7.45923,-24.45268l7.50909,-2.29063l7.45923,24.45268z" data-paper-data="{&quot;index&quot;:null}" fill="#ffe819" stroke-linecap="butt"/><path d="M221.60429,203.69919c-0.36947,-2.07976 1.01699,-4.06525 3.09675,-4.43473c2.07976,-0.36947 4.06525,1.01699 4.43473,3.09675c0.36947,2.07976 -1.01699,4.06525 -3.09675,4.43473c-2.07976,0.36947 -4.06525,-1.01699 -4.43473,-3.09675z" fill="#ffe819" stroke-linecap="butt"/><path d="M209.24709,154.73505c0,0 2.10397,-2.22568 3.82583,-3.31485c1.36408,-0.86285 5.68426,-2.70082 5.68426,-2.70082" fill="none" stroke-linecap="round"/><path d="M200.55696,160.09356c-1.06249,-2.62833 0.20687,-5.62033 2.8352,-6.68282c2.62833,-1.06249 5.62033,0.20687 6.68282,2.8352c1.06249,2.62833 -0.20687,5.62033 -2.8352,6.68282c-2.62833,1.06249 -5.62033,-0.20687 -6.68282,-2.8352z" fill="#ffe819" stroke-linecap="butt"/><path d="M270.85839,208.45742c-7.6344,2.90403 -13.12356,-1.94456 -13.5739,-3.12846c-1.16602,-3.06538 2.28137,-5.28292 6.90541,-7.04185c4.62406,-1.75893 9.31784,-0.69985 10.48387,2.36553c1.16604,3.06538 0.80868,6.04585 -3.81536,7.80478z" data-paper-data="{&quot;index&quot;:null}" fill="#ffe819" stroke-linecap="butt"/><path d="M218.83687,160.56016l4.89612,-10.31864l-10.87825,-3.59266c0,0 12.90247,-9.78819 23.49736,-10.48278c10.59489,-0.69459 18.66148,9.6863 18.66148,9.6863z" data-paper-data="{&quot;index&quot;:null}" fill="#fff067" stroke-linecap="butt"/><path d="M232.97372,229.17058c0.13645,4.9454 -2.4828,6.41187 -5.76121,6.50232c-3.27841,0.09045 -6.0467,-3.84526 -6.18314,-8.79067c-0.13645,-4.9454 0.59962,-8.9778 3.87803,-9.06825c1.26618,-0.03493 7.84105,3.19163 8.06633,11.35661z" data-paper-data="{&quot;index&quot;:null}" fill="#ffe819" stroke-linecap="butt"/></g></g></svg>