<svg version="1.1" xmlns="http://www.w3.org/2000/svg" xmlns:xlink="http://www.w3.org/1999/xlink" width="170.1699" height="77.65866" viewBox="0,0,170.1699,77.65866"><g transform="translate(-205.39238,-149.94083)"><g data-paper-data="{&quot;isPaintingLayer&quot;:true}" fill-rule="nonzero" stroke-linejoin="miter" stroke-miterlimit="10" stroke-dasharray="" stroke-dashoffset="0" style="mix-blend-mode: normal"><path d="M253.1855,160.98325c7.33795,-5.50263 17.74728,-4.01479 23.24989,3.32313c5.50263,7.33795 4.01479,17.74729 -3.32313,23.2499c-7.33795,5.50263 -17.74728,4.01478 -23.2499,-3.32314c-5.50263,-7.33795 -4.01479,-17.74728 3.32313,-23.2499z" fill="#2d6a2b" stroke="#000000" stroke-width="2" stroke-linecap="butt"/><path d="M273.25029,157.10192c13.34819,8.54213 12.59717,21.91086 12.59717,21.91086l-35.56053,-20.38492c0,0 8.61187,-10.71009 22.96337,-1.52593z" fill="#367e33" stroke="#000000" stroke-width="2" stroke-linecap="round"/><path d="M259.13042,157.6512c0,0 2.96402,0.77132 4.74806,1.75537c1.41333,0.77959 2.04688,1.56831 2.04688,1.56831" fill="none" stroke="#000000" stroke-width="2" stroke-linecap="round"/><path d="M251.27355,152.83083c1.79122,-2.19738 5.02463,-2.52663 7.22202,-0.73541c2.19738,1.79122 2.52663,5.02462 0.73541,7.22201c-1.79122,2.19738 -5.02463,2.52663 -7.22201,0.73541c-2.19738,-1.79122 -2.52663,-5.02463 -0.73541,-7.22202z" fill="#2d6a2b" stroke="#000000" stroke-width="2" stroke-linecap="butt"/><path d="M223.92088,205.43801l17.77776,-18.37184l5.64175,5.4593l-17.77776,18.37185z" data-paper-data="{&quot;index&quot;:null}" fill="#2d6a2b" stroke="#000000" stroke-width="2" stroke-linecap="butt"/><path d="M281.46341,206.80346c0.26753,-2.09531 2.18299,-3.57703 4.2783,-3.3095c2.09531,0.26753 3.57703,2.18299 3.3095,4.2783c-0.26753,2.09531 -2.18299,3.57703 -4.2783,3.3095c-2.09531,-0.26753 -3.57703,-2.18299 -3.3095,-4.2783z" fill="#2d6a2b" stroke="#000000" stroke-width="2" stroke-linecap="butt"/><path d="M258.93282,213.3827c4.93244,-0.38296 6.52773,2.15988 6.7816,5.4297c0.25387,3.26982 -3.53887,6.23098 -8.4713,6.61393c-4.93244,0.38296 -8.99653,-0.15105 -9.2504,-3.42087c-0.09805,-1.26286 2.79655,-7.9905 10.94011,-8.62276z" data-paper-data="{&quot;index&quot;:null}" fill="#2d6a2b" stroke="#000000" stroke-width="2" stroke-linecap="butt"/><path d="M213.84048,214.61092c4.11347,0 7.4481,2.47844 7.4481,5.53575c0,3.05731 -3.33463,5.53575 -7.4481,5.53575c-4.11347,0 -7.4481,-2.47844 -7.4481,-5.53575c0,-3.05731 3.33463,-5.53575 7.4481,-5.53575z" data-paper-data="{&quot;index&quot;:null}" fill="#2d6a2b" stroke="#000000" stroke-width="2" stroke-linecap="butt"/><g stroke="#61ff00" stroke-width="3" stroke-linecap="round"><path d="M374.06228,222.11531c0,0 -34.42747,-3.89632 -49.61105,-6.29324c-13.61482,-2.14927 -37.29836,-7.42655 -37.29836,-7.42655" fill="none"/><path d="M343.21917,217.48656c0,0 -14.43225,-5.91317 -15.18333,-10.62559c-0.75105,-4.71242 5.0261,-4.59137 5.0261,-4.59137z" fill="#61ff00"/><path d="M301.43335,222.31201c0,0 -4.07139,-3.33609 0.65921,-6.12427c4.7306,-2.78818 19.92053,1.69696 19.92053,1.69696z" data-paper-data="{&quot;index&quot;:null}" fill="#61ff00"/><path d="M344.95412,225.9832c0,0 -3.41028,-2.83303 0.60677,-5.16232c4.01706,-2.32929 16.80571,1.5255 16.80571,1.5255z" data-paper-data="{&quot;index&quot;:null}" fill="#61ff00"/></g><path d="M280.4214,208.86307c0.26753,-2.09531 2.18299,-3.57703 4.2783,-3.3095c2.09531,0.26753 3.57703,2.18299 3.3095,4.2783c-0.26753,2.09531 -2.18299,3.57703 -4.2783,3.3095c-2.09531,-0.26753 -3.57703,-2.18299 -3.3095,-4.2783z" fill="#2d6a2b" stroke="#000000" stroke-width="2" stroke-linecap="butt"/></g></g></svg>