<svg version="1.1" xmlns="http://www.w3.org/2000/svg" xmlns:xlink="http://www.w3.org/1999/xlink" width="94.75756" height="92.68713" viewBox="0,0,94.75756,92.68713"><defs><radialGradient cx="221.52536" cy="168.19811" r="19.76471" gradientUnits="userSpaceOnUse" id="color-1"><stop offset="0" stop-color="#e82d00" stop-opacity="0"/><stop offset="1" stop-color="#e82d00"/></radialGradient><radialGradient cx="221.12365" cy="168.17448" r="19.76471" gradientUnits="userSpaceOnUse" id="color-2"><stop offset="0" stop-color="#e82d00" stop-opacity="0"/><stop offset="1" stop-color="#e82d00"/></radialGradient><radialGradient cx="221.52779" cy="167.98121" r="19.76471" gradientUnits="userSpaceOnUse" id="color-3"><stop offset="0" stop-color="#e82d00"/><stop offset="1" stop-color="#e82d00" stop-opacity="0"/></radialGradient><linearGradient x1="290.32485" y1="154.05855" x2="201.09642" y2="172.84093" gradientUnits="userSpaceOnUse" id="color-4"><stop offset="0" stop-color="#e82d00" stop-opacity="0"/><stop offset="1" stop-color="#e82d00"/></linearGradient></defs><g transform="translate(-200.84282,-138.43188)"><g data-paper-data="{&quot;isPaintingLayer&quot;:true}" fill-rule="nonzero" stroke-linejoin="miter" stroke-miterlimit="10" stroke-dasharray="" stroke-dashoffset="0" style="mix-blend-mode: normal"><path d="M266.28554,219.31626c4.43311,2.19616 4.50171,5.1972 3.04582,8.13601c-1.45588,2.9388 -6.22985,3.54083 -10.66297,1.34467c-4.43311,-2.19616 -7.65087,-4.73547 -6.19498,-7.67427c0.56229,-1.13502 6.49296,-5.43232 13.81213,-1.8064z" data-paper-data="{&quot;index&quot;:null}" fill="#e80000" stroke="#000000" stroke-width="2" stroke-linecap="butt"/><g data-paper-data="{&quot;index&quot;:null}" stroke-linecap="butt"><path d="M222.39595,160.85748c2.07295,0.40587 3.4244,2.41537 3.01852,4.48833c-0.40587,2.07295 -2.41537,3.4244 -4.48833,3.01852c-2.07295,-0.40587 -3.4244,-2.41537 -3.01852,-4.48833c0.40587,-2.07295 2.41537,-3.4244 4.48833,-3.01852z" fill="#e80000" stroke="#000000" stroke-width="2"/><path d="M217.45415,148.85725c10.68166,-2.24847 21.16361,4.58799 23.41208,15.26966c2.24847,10.68166 -4.58799,21.16361 -15.26966,23.41208c-10.68166,2.24847 -21.16361,-4.58799 -23.41208,-15.26966c-2.24847,-10.68166 4.58799,-21.16361 15.26966,-23.41208z" fill="url(#color-1)" stroke="none" stroke-width="0"/><path d="M217.05244,148.83361c10.68166,-2.24847 21.16361,4.58799 23.41208,15.26966c2.24847,10.68166 -4.58799,21.16361 -15.26966,23.41208c-10.68166,2.24847 -21.16361,-4.58799 -23.41208,-15.26966c-2.24847,-10.68166 4.58799,-21.16361 15.26966,-23.41208z" fill="url(#color-2)" stroke="none" stroke-width="0"/><path d="M217.45659,148.64035c10.68166,-2.24847 21.16361,4.58799 23.41208,15.26966c2.24847,10.68166 -4.58799,21.16361 -15.26966,23.41208c-10.68166,2.24847 -21.16361,-4.58799 -23.41208,-15.26966c-2.24847,-10.68166 4.58799,-21.16361 15.26966,-23.41208z" fill="url(#color-3)" stroke="none" stroke-width="0"/><path d="M209.76214,185.50725c-13.73825,-10.63864 -9.78181,-23.11317 -0.38676,-33.63466c9.39507,-10.52155 24.83548,-13.35188 42.42201,-13.44039c26.19821,-0.13185 43.80299,40.68853 43.80299,40.68853c0,0 -25.4705,-18.76849 -47.24113,-7.42064c-19.50632,10.16755 -24.85887,24.44589 -38.59711,13.80721z" data-paper-data="{&quot;index&quot;:null}" fill="url(#color-4)" stroke="#000000" stroke-width="0"/></g><path d="M227.56675,201.81339c0,0 0.09768,-8.04583 1.19916,-11.96871c1.19462,-4.25458 5.71184,-12.64454 5.71184,-12.64454l7.72311,4.09875c0,0 -4.68889,6.01639 -5.85607,10.17325c-1.13562,4.04448 -1.21964,10.98118 -1.21964,10.98118z" fill="#e80000" stroke="#000000" stroke-width="2" stroke-linecap="butt"/><path d="M235.09658,191.99225c0.98391,-1.86917 3.2968,-2.58682 5.16598,-1.60291c1.86917,0.98391 2.58682,3.2968 1.60291,5.16598c-0.98391,1.86917 -3.2968,2.58682 -5.16598,1.60291c-1.86917,-0.98391 -2.58682,-3.2968 -1.60291,-5.16598z" fill="#e80000" stroke="#000000" stroke-width="2" stroke-linecap="butt"/><path d="M238.17234,201.42721c4.52084,-2.00937 6.87423,-0.14591 8.20629,2.85105c1.33206,2.99697 -1.25295,7.0554 -5.77381,9.06478c-4.52084,2.00937 -8.52972,2.86431 -9.86178,-0.13265c-0.51446,-1.15748 -0.03471,-8.46566 7.4293,-11.78318z" data-paper-data="{&quot;index&quot;:null}" fill="#e80000" stroke="#000000" stroke-width="2" stroke-linecap="butt"/><path d="M240.81938,155.90403c0,0 2.8288,-1.17399 4.84516,-1.46616c1.59739,-0.23146 6.29154,-0.14753 6.29154,-0.14753" data-paper-data="{&quot;index&quot;:null}" fill="none" stroke="#000000" stroke-width="2" stroke-linecap="round"/><path d="M233.24998,160.00115c0.10192,-2.83313 2.48123,-5.04722 5.31436,-4.9453c2.83313,0.10192 5.04722,2.48123 4.9453,5.31436c-0.10192,2.83313 -2.48123,5.04722 -5.31436,4.9453c-2.83313,-0.10192 -5.04722,-2.48123 -4.9453,-5.31436z" data-paper-data="{&quot;index&quot;:null}" fill="#e80000" stroke="#000000" stroke-width="2" stroke-linecap="butt"/><path d="M240.6409,159.56156c3.72966,-8.37937 13.54597,-12.1487 21.92534,-8.41904c8.37937,3.72966 12.1487,13.54597 8.41904,21.92534c-3.72966,8.37937 -13.54597,12.1487 -21.92534,8.41904c-8.37937,-3.72966 -12.1487,-13.54597 -8.41904,-21.92534z" data-paper-data="{&quot;index&quot;:null}" fill="#e80000" stroke="#000000" stroke-width="2" stroke-linecap="butt"/><path d="M242.10041,155.97547l2.21606,-5.14288l30.67354,13.21717l-2.21605,5.14287z" data-paper-data="{&quot;index&quot;:null}" fill="#ff2121" stroke="#000000" stroke-width="2" stroke-linecap="butt"/></g></g></svg>