<svg version="1.1" xmlns="http://www.w3.org/2000/svg" xmlns:xlink="http://www.w3.org/1999/xlink" width="142.01044" height="84.88117" viewBox="0,0,142.01044,84.88117"><g transform="translate(-219.55911,-141.80124)"><g data-paper-data="{&quot;isPaintingLayer&quot;:true}" fill-rule="nonzero" stroke-linejoin="miter" stroke-miterlimit="10" stroke-dasharray="" stroke-dashoffset="0" style="mix-blend-mode: normal"><path d="M240.00643,167.82098c0,0 2.15944,-2.1719 3.90823,-3.21732c1.38542,-0.82818 5.75056,-2.5566 5.75056,-2.5566" data-paper-data="{&quot;index&quot;:null}" fill="none" stroke="#000000" stroke-width="2" stroke-linecap="round"/><path d="M235.03267,169.69111c-0.99586,-2.65429 0.34856,-5.61331 3.00285,-6.60918c2.65429,-0.99586 5.61331,0.34856 6.60918,3.00285c0.99586,2.65429 -0.34856,5.61331 -3.00285,6.60918c-2.65429,0.99586 -5.61331,-0.34856 -6.60918,-3.00285z" data-paper-data="{&quot;index&quot;:null}" fill="#2d6a2b" stroke="#000000" stroke-width="2" stroke-linecap="butt"/><g data-paper-data="{&quot;index&quot;:null}" stroke="#61ff00" stroke-width="3" stroke-linecap="round"><path d="M360.06956,143.30124c0,0 -19.64278,31.26357 -28.90842,44.68481c-8.30832,12.03455 -24.12728,32.13703 -24.12728,32.13703" fill="none"/><path d="M341.46118,170.69433c0,0 -12.03508,10.79117 -16.57301,8.97048c-4.5379,-1.82071 -1.71484,-7.35511 -1.71484,-7.35511z" fill="#61ff00"/><path d="M326.10499,213.80759c0,0 -4.87637,2.14212 -5.1288,-3.9513c-0.25243,-6.09341 10.87064,-18.39137 10.87064,-18.39137z" data-paper-data="{&quot;index&quot;:null}" fill="#61ff00"/><path d="M349.82216,173.60807c0,0 -4.11889,1.77338 -4.29919,-3.3802c-0.18031,-5.15358 9.25427,-15.4649 9.25427,-15.4649z" data-paper-data="{&quot;index&quot;:null}" fill="#61ff00"/></g><path d="M268.24427,188.21168c0.30024,-2.09088 2.23864,-3.54247 4.3295,-3.24222c2.09088,0.30024 3.54247,2.23864 3.24222,4.3295c-0.30024,2.09088 -2.23864,3.54247 -4.3295,3.24222c-2.09088,-0.30024 -3.54247,-2.23864 -3.24222,-4.3295z" data-paper-data="{&quot;index&quot;:null}" fill="#2d6a2b" stroke="#000000" stroke-width="2" stroke-linecap="butt"/><path d="M280.71098,156.10067c6.07286,6.87345 5.42387,17.36852 -1.4496,23.4414c-6.87345,6.07285 -17.36853,5.42388 -23.44141,-1.4496c-6.07285,-6.87343 -5.42387,-17.36852 1.4496,-23.4414c6.87343,-6.07285 17.36852,-5.42387 23.4414,1.4496z" data-paper-data="{&quot;index&quot;:null}" fill="#2d6a2b" stroke="#000000" stroke-width="2" stroke-linecap="butt"/><path d="M261.16847,149.91991c15.09364,-4.82955 24.9094,4.27746 24.9094,4.27746l-38.38395,14.37945c0,0 -2.75354,-13.46435 13.47457,-18.65692z" data-paper-data="{&quot;index&quot;:null}" fill="#367e33" stroke="#000000" stroke-width="2" stroke-linecap="round"/><path d="M246.40551,209.0688l4.38256,-25.18664l7.73448,1.34582l-4.38257,25.18664z" data-paper-data="{&quot;index&quot;:null}" fill="#2d6a2b" stroke="#000000" stroke-width="2" stroke-linecap="butt"/><path d="M270.68288,213.38271c4.93244,-0.38296 6.52773,2.15988 6.7816,5.4297c0.25387,3.26982 -3.53887,6.23098 -8.4713,6.61393c-4.93244,0.38296 -8.99653,-0.15105 -9.2504,-3.42087c-0.09805,-1.26286 2.79655,-7.9905 10.94011,-8.62276z" data-paper-data="{&quot;index&quot;:null}" fill="#2d6a2b" stroke="#000000" stroke-width="2" stroke-linecap="butt"/><path d="M228.00721,214.61091c4.11347,0 7.4481,2.47844 7.4481,5.53575c0,3.05731 -3.33463,5.53575 -7.4481,5.53575c-4.11347,0 -7.4481,-2.47844 -7.4481,-5.53575c0,-3.05731 3.33463,-5.53575 7.4481,-5.53575z" data-paper-data="{&quot;index&quot;:null}" fill="#2d6a2b" stroke="#000000" stroke-width="2" stroke-linecap="butt"/><path d="M227.25479,188.11306c0.26753,-2.09531 2.18299,-3.57703 4.2783,-3.3095c2.09531,0.26753 3.57703,2.18299 3.3095,4.2783c-0.26753,2.09531 -2.18299,3.57703 -4.2783,3.3095c-2.09531,-0.26753 -3.57703,-2.18299 -3.3095,-4.2783z" data-paper-data="{&quot;index&quot;:null}" fill="#2d6a2b" stroke="#000000" stroke-width="2" stroke-linecap="butt"/></g></g></svg>