<svg version="1.1" xmlns="http://www.w3.org/2000/svg" xmlns:xlink="http://www.w3.org/1999/xlink" width="63.76302" height="87.91548" viewBox="0,0,63.76302,87.91548"><g transform="translate(-210.25813,-138.90249)"><g data-paper-data="{&quot;isPaintingLayer&quot;:true}" fill-rule="nonzero" stroke="#000000" stroke-width="2" stroke-linejoin="miter" stroke-miterlimit="10" stroke-dasharray="" stroke-dashoffset="0" style="mix-blend-mode: normal"><path d="M225.90347,184.11596c0.14352,-2.10744 1.96829,-3.69952 4.07572,-3.556c2.10744,0.14352 3.69952,1.96829 3.556,4.07572c-0.14352,2.10744 -1.96829,3.69952 -4.07572,3.556c-2.10744,-0.14352 -3.69952,-1.96829 -3.556,-4.07572z" fill="#181818" stroke-linecap="butt"/><path d="M221.75623,144.84588c0,0 3.03625,-0.40192 5.05954,-0.16231c1.60288,0.18982 6.11539,1.4857 6.11539,1.4857" fill="#181818" stroke-linecap="round"/><path d="M211.25813,143.53119c0.83164,-2.71023 3.70289,-4.23316 6.41313,-3.4015c2.71023,0.83164 4.23316,3.70289 3.4015,6.41313c-0.83164,2.71023 -3.70289,4.23316 -6.41313,3.4015c-2.71023,-0.83164 -4.23316,-3.70289 -3.4015,-6.41313z" fill="#181818" stroke-linecap="butt"/><path d="M230.3657,158.96598c0.62317,-9.15074 8.54649,-16.06368 17.69721,-15.44051c9.15074,0.62317 16.06368,8.54649 15.44051,17.69721c-0.62317,9.15074 -8.54649,16.06368 -17.69721,15.44051c-9.15074,-0.62317 -16.06368,-8.54649 -15.44051,-17.69721z" fill="#181818" stroke-linecap="butt"/><path d="M239.10872,205.38518l1.73698,-25.50601l7.83256,0.5334l-1.73698,25.50601z" fill="#181818" stroke-linecap="butt"/><path d="M228.5361,214.34387c4.11347,0 7.4481,2.47844 7.4481,5.53575c0,3.05731 -3.33463,5.53575 -7.4481,5.53575c-4.11347,0 -7.4481,-2.47844 -7.4481,-5.53575c0,-3.05731 3.33463,-5.53575 7.4481,-5.53575z" data-paper-data="{&quot;index&quot;:null}" fill="#181818" stroke-linecap="butt"/><path d="M257.17807,213.94127c4.94728,0 6.34095,2.65869 6.34095,5.93835c0,3.27966 -4.01056,5.93835 -8.95785,5.93835c-4.94728,0 -8.95785,-0.84699 -8.95785,-4.12665c0,-1.26666 3.40667,-7.75005 11.57475,-7.75005z" data-paper-data="{&quot;index&quot;:null}" fill="#181818" stroke-linecap="butt"/><path d="M253.01782,163.93505l0.35634,-5.23262c0,0 4.88849,1.62271 7.3653,1.79138c2.61154,0.17785 7.92116,-0.75036 7.92116,-0.75036l-0.35634,5.23262z" fill="#ff0000" stroke-linecap="butt"/><path d="M238.82244,178.10158l14.3692,1.28122l-4.02483,3.96328l3.82411,4.4978l-17.0881,0.04697l4.64701,-4.82892z" fill="#0e0e0e" stroke-linecap="round"/><g><path d="M232.72993,152.02979l0.81959,-12.03503l29.56432,2.01335l-0.81959,12.03503z" fill="#343434" stroke-linecap="butt"/><path d="M273.02115,154.77364l-51.01809,-3.47436" fill="none" stroke-linecap="round"/></g><path d="M226.29575,204.14846c0.14352,-2.10744 1.96829,-3.69952 4.07572,-3.556c2.10744,0.14352 3.69952,1.96829 3.556,4.07572c-0.14352,2.10744 -1.96829,3.69952 -4.07572,3.556c-2.10744,-0.14352 -3.69952,-1.96829 -3.556,-4.07572z" fill="#181818" stroke-linecap="butt"/></g></g></svg>