<svg version="1.1" xmlns="http://www.w3.org/2000/svg" xmlns:xlink="http://www.w3.org/1999/xlink" width="98.3152" height="94.69316" viewBox="0,0,98.3152,94.69316"><g transform="translate(-213.84246,-146.31455)"><g data-paper-data="{&quot;isPaintingLayer&quot;:true}" fill-rule="nonzero" stroke="#000000" stroke-width="2" stroke-linejoin="miter" stroke-miterlimit="10" stroke-dasharray="" stroke-dashoffset="0" style="mix-blend-mode: normal"><path d="M300.1637,193.13223c0.22641,0 1.82439,-0.08165 3.29529,-2.00019c1.90617,-2.48628 3.75595,-6.95829 3.75595,-6.95829c0,0 6.22509,6.55462 3.03118,11.10036c-2.97305,4.2314 -9.6449,5.50752 -10.08242,5.50752c-2.11232,0 -3.8247,-1.71238 -3.8247,-3.8247c0,-2.11232 1.71238,-3.8247 3.8247,-3.8247z" fill="#e80000" stroke-linecap="butt"/><path d="M226.80437,156.24103c0,0 2.70101,-1.4439 4.67934,-1.93106c1.56725,-0.38592 6.24727,-0.75956 6.24727,-0.75956" fill="none" stroke-linecap="round"/><path d="M216.86377,158.56832c-0.17449,-2.82959 1.97789,-5.26487 4.80748,-5.43936c2.82959,-0.17449 5.26487,1.9779 5.43935,4.80749c0.17449,2.82959 -1.97789,5.26487 -4.80748,5.43936c-2.82959,0.17449 -5.26487,-1.97789 -5.43935,-4.80748z" fill="#e80000" stroke-linecap="butt"/><path d="M235.4104,158.68285c2.89587,-8.70277 12.29843,-13.41018 21.00119,-10.51431c8.70277,2.89587 13.41018,12.29843 10.51431,21.00119c-2.89587,8.70277 -12.29843,13.41018 -21.00119,10.51431c-8.70277,-2.89587 -13.41018,-12.29843 -10.51431,-21.00119z" fill="#e80000" stroke-linecap="butt"/><path d="M233.29213,207.89741l5.65666,-24.93142l7.65611,1.73707l-5.65666,24.93142z" data-paper-data="{&quot;index&quot;:null}" fill="#e80000" stroke-linecap="butt"/><path d="M214.84246,190.22397c0,-2.11232 1.71238,-3.8247 3.8247,-3.8247c2.11232,0 3.8247,1.71238 3.8247,3.8247c0,2.11232 -1.71238,3.8247 -3.8247,3.8247c-2.11232,0 -3.8247,-1.71238 -3.8247,-3.8247z" fill="#e80000" stroke-linecap="butt"/><path d="M265.06009,211.14289c4.61023,1.79481 4.94442,4.77797 3.7546,7.8342c-1.18982,3.05622 -5.89169,4.0788 -10.50192,2.28399c-4.61023,-1.79481 -8.0403,-4.03908 -6.85047,-7.0953c0.45953,-1.18037 5.9862,-5.98616 13.59781,-3.02289z" data-paper-data="{&quot;index&quot;:null}" fill="#e80000" stroke-linecap="butt"/><path d="M234.85602,156.94174l0.388,-5.58655l33.31973,2.31415l-0.388,5.58653z" fill="#ff2121" stroke-linecap="butt"/><path d="M233.60615,235.42646c-1.575,4.68988 -4.53905,5.16462 -7.64806,4.12052c-3.10902,-1.0441 -4.3526,-5.6924 -2.77759,-10.3823c1.575,-4.68988 3.65471,-8.22213 6.76374,-7.17804c1.20075,0.40325 6.26228,5.6967 3.66192,13.4398z" data-paper-data="{&quot;index&quot;:null}" fill="#e80000" stroke-linecap="butt"/></g></g></svg>