<svg version="1.1" xmlns="http://www.w3.org/2000/svg" xmlns:xlink="http://www.w3.org/1999/xlink" width="59.83992" height="91.83289" viewBox="0,0,59.83992,91.83289"><g transform="translate(-210.22692,-134.58248)"><g data-paper-data="{&quot;isPaintingLayer&quot;:true}" fill-rule="nonzero" stroke="#000000" stroke-width="2" stroke-linejoin="miter" stroke-miterlimit="10" stroke-dasharray="" stroke-dashoffset="0" style="mix-blend-mode: normal"><path d="M220.72002,169.94883c0,0 -0.07653,-3.06178 0.37702,-5.04808c0.35932,-1.57358 2.12805,-5.92256 2.12805,-5.92256" fill="#181818" stroke-linecap="round"/><path d="M218.29562,180.24742c-2.60634,-1.11534 -3.81507,-4.13234 -2.69973,-6.73869c1.11534,-2.60634 4.13234,-3.81507 6.73869,-2.69972c2.60634,1.11534 3.81507,4.13234 2.69973,6.73869c-1.11534,2.60634 -4.13234,3.81507 -6.73869,2.69972z" fill="#181818" stroke-linecap="butt"/><g><path d="M219.32908,163.03005l-7.01854,-9.81091c0,0 -1.02991,-6.18484 8.32717,-12.85968c9.42818,-6.72556 15.77354,-4.38151 15.77354,-4.38151l7.01854,9.81091c0,0 -9.5184,2.69702 -13.45042,5.50991c-4.09494,2.92944 -10.65029,11.73128 -10.65029,11.73128z" fill="#343434" stroke-linecap="butt"/><path d="M252.60175,142.95275c0,0 -16.01089,3.60535 -23.02744,8.62486c-6.84231,4.89486 -15.14273,19.20414 -15.14273,19.20414" fill="none" stroke-linecap="round"/></g><path d="M240.90881,206.14651l-8.27026,-24.19042l7.42856,-2.53969l8.27026,24.19042z" fill="#181818" stroke-linecap="butt"/><path d="M230.08498,181.10012l13.76195,-4.33107l-1.94254,5.89852l5.50155,3.35352l-15.67107,6.8532l2.13091,-7.08458z" fill="#0e0e0e" stroke-linecap="round"/><path d="M257.61505,193.93127c0,-2.11232 1.71238,-3.8247 3.8247,-3.8247c2.11232,0 3.8247,1.71238 3.8247,3.8247c0,2.11232 -1.71238,3.8247 -3.8247,3.8247c-2.11232,0 -3.8247,-1.71238 -3.8247,-3.8247z" fill="#181818" stroke-linecap="butt"/><path d="M218.16595,163.57134c-4.2726,-8.11598 -1.15692,-18.1589 6.95905,-22.4315c8.11598,-4.2726 18.15891,-1.15692 22.43151,6.95905c4.2726,8.11598 1.15692,18.15891 -6.95905,22.4315c-8.11598,4.2726 -18.15891,1.15692 -22.4315,-6.95905z" fill="#181818" stroke-linecap="butt"/><path d="M228.5361,214.34387c4.11347,0 7.4481,2.47844 7.4481,5.53575c0,3.05731 -3.33463,5.53575 -7.4481,5.53575c-4.11347,0 -7.4481,-2.47844 -7.4481,-5.53575c0,-3.05731 3.33463,-5.53575 7.4481,-5.53575z" data-paper-data="{&quot;index&quot;:null}" fill="#181818" stroke-linecap="butt"/><path d="M262.72589,212.65894c4.94728,0 6.34095,2.65869 6.34095,5.93835c0,3.27966 -4.01056,5.93835 -8.95785,5.93835c-4.94728,0 -8.95785,-0.84699 -8.95785,-4.12665c0,-1.26666 3.40667,-7.75005 11.57475,-7.75005z" data-paper-data="{&quot;index&quot;:null}" fill="#181818" stroke-linecap="butt"/><path d="M217.45918,149.89803l-1.95863,-2.59599l16.01224,-10.92288l4.30957,6.01555z" fill="#ff0000" stroke-linecap="butt"/><path d="M211.22692,196.72429c0,-2.11232 1.71238,-3.8247 3.8247,-3.8247c2.11232,0 3.8247,1.71238 3.8247,3.8247c0,2.11232 -1.71238,3.8247 -3.8247,3.8247c-2.11232,0 -3.8247,-1.71238 -3.8247,-3.8247z" fill="#181818" stroke-linecap="butt"/></g></g></svg>