<svg version="1.1" xmlns="http://www.w3.org/2000/svg" xmlns:xlink="http://www.w3.org/1999/xlink" width="98.57324" height="133.40284" viewBox="0,0,98.57324,133.40284"><g transform="translate(-177.96072,-90.39276)"><g data-paper-data="{&quot;isPaintingLayer&quot;:true}" fill-rule="nonzero" stroke="#000000" stroke-width="2" stroke-linejoin="miter" stroke-miterlimit="10" stroke-dasharray="" stroke-dashoffset="0" style="mix-blend-mode: normal"><path d="M252.00292,152.0997c-0.47828,-2.05746 0.8019,-4.11309 2.85936,-4.59137c2.05746,-0.47828 4.11309,0.8019 4.59137,2.85936c0.47828,2.05746 -0.8019,4.11309 -2.85936,4.59137c-2.05746,0.47828 -4.11309,-0.8019 -4.59137,-2.85936z" fill="#ff6b00" stroke-linecap="butt"/><path d="M212.12785,151.01056c-2.07674,-8.93373 3.48195,-17.85946 12.41566,-19.9362c8.93373,-2.07674 17.85946,3.48195 19.9362,12.41566c2.07674,8.93373 -3.48195,17.85946 -12.41566,19.9362c-8.93373,2.07674 -17.85946,-3.48195 -19.9362,-12.41566z" fill="#ff6b00" stroke-linecap="butt"/><path d="M242.12756,194.33851l-9.99268,-23.53124l7.22612,-3.06863l9.99268,23.53125z" data-paper-data="{&quot;index&quot;:null}" fill="#ff6b00" stroke-linecap="butt"/><path d="M200.83298,174.24095c-0.47828,-2.05746 0.8019,-4.11309 2.85936,-4.59137c2.05746,-0.47828 4.11309,0.8019 4.59137,2.85936c0.47828,2.05746 -0.8019,4.11309 -2.85936,4.59137c-2.05746,0.47828 -4.11309,-0.8019 -4.59137,-2.85936z" fill="#ff6b00" stroke-linecap="butt"/><path d="M210.40632,138.52518c0,0 -4.61138,0.88152 -6.22487,0.92528c-2.03666,0.05522 -5.024,-0.62025 -5.024,-0.62025" data-paper-data="{&quot;index&quot;:null}" fill="none" stroke-linecap="round"/><path d="M192.92442,133.14553c2.77447,-0.58257 5.49586,1.19435 6.07842,3.9688c0.58256,2.77445 -1.19433,5.49585 -3.96879,6.07841c-2.77447,0.58257 -5.49586,-1.19434 -6.07842,-3.9688c-0.58256,-2.77445 1.19433,-5.49585 3.96879,-6.07841z" data-paper-data="{&quot;index&quot;:null}" fill="#ff6b00" stroke-linecap="butt"/><path d="M267.10902,183.75292c4.32693,-2.3986 6.83487,-0.74898 8.42494,2.11943c1.59008,2.86841 -0.62856,7.13817 -4.95549,9.53678c-4.32693,2.3986 -8.24525,3.60228 -9.83533,0.73386c-0.61411,-1.10782 -0.77799,-8.42991 6.36587,-12.39007z" data-paper-data="{&quot;index&quot;:null}" fill="#ff6b00" stroke-linecap="butt"/><path d="M206.42378,150.41129l2.57256,-12.63714l-29.23549,-17.66944l38.21043,-28.03582l8.53602,32.5275l12.80984,1.22306z" data-paper-data="{&quot;index&quot;:null}" fill="#ffa340" stroke-linecap="butt"/><path d="M251.65479,212.71058c3.6529,3.33645 2.88891,6.23944 0.67709,8.66102c-2.21181,2.42158 -6.96609,1.67993 -10.619,-1.65653c-3.6529,-3.33645 -6.04295,-6.66659 -3.83114,-9.08815c0.85424,-0.93525 7.74202,-3.42489 13.77304,2.08367z" data-paper-data="{&quot;index&quot;:null}" fill="#ff6b00" stroke-linecap="butt"/></g></g></svg>