<svg version="1.1" xmlns="http://www.w3.org/2000/svg" xmlns:xlink="http://www.w3.org/1999/xlink" width="186.7286" height="81.11632" viewBox="0,0,186.7286,81.11632"><defs><linearGradient x1="162.65752" y1="194.44715" x2="342.5537" y2="209.19891" gradientUnits="userSpaceOnUse" id="color-1"><stop offset="0" stop-color="#ffffff" stop-opacity="0"/><stop offset="1" stop-color="#ffffff"/></linearGradient></defs><g transform="translate(-160.31194,-145.56609)"><g data-paper-data="{&quot;isPaintingLayer&quot;:true}" fill-rule="nonzero" stroke-linejoin="miter" stroke-miterlimit="10" stroke-dasharray="" stroke-dashoffset="0" style="mix-blend-mode: normal"><path d="M197.40886,163.00922c2.36188,-8.86262 11.46114,-14.13248 20.32371,-11.77061c8.86262,2.36188 14.13248,11.46114 11.77061,20.32371c-2.36188,8.86262 -11.46113,14.13247 -20.32372,11.77061c-8.86262,-2.36188 -14.13248,-11.46112 -11.77061,-20.32371z" data-paper-data="{&quot;index&quot;:null}" fill="#2d6a2b" stroke="#000000" stroke-width="2" stroke-linecap="butt"/><path d="M212.13056,148.74801c16.83824,-2.60538 20.39079,10.67054 20.39079,10.67054l-40.76429,4.28587c0,0 4.71242,-12.53315 20.37353,-14.95641z" data-paper-data="{&quot;index&quot;:null}" fill="#367e33" stroke="#000000" stroke-width="2" stroke-linecap="round"/><path d="M233.96716,206.33417l-12.23322,-22.4482l6.89354,-3.75666l12.23322,22.44821z" data-paper-data="{&quot;index&quot;:null}" fill="#2d6a2b" stroke="#000000" stroke-width="2" stroke-linecap="butt"/><path d="M260.34952,213.3827c4.93244,-0.38296 6.52773,2.15988 6.7816,5.4297c0.25387,3.26982 -3.53887,6.23098 -8.4713,6.61393c-4.93244,0.38296 -8.99653,-0.15105 -9.2504,-3.42087c-0.09805,-1.26286 2.79655,-7.9905 10.94011,-8.62276z" data-paper-data="{&quot;index&quot;:null}" fill="#2d6a2b" stroke="#000000" stroke-width="2" stroke-linecap="butt"/><path d="M228.00718,214.61091c4.11347,0 7.4481,2.47844 7.4481,5.53575c0,3.05731 -3.33463,5.53575 -7.4481,5.53575c-4.11347,0 -7.4481,-2.47844 -7.4481,-5.53575c0,-3.05731 3.33463,-5.53575 7.4481,-5.53575z" data-paper-data="{&quot;index&quot;:null}" fill="#2d6a2b" stroke="#000000" stroke-width="2" stroke-linecap="butt"/><path d="M274.83626,201.45239c-29.82685,0.24048 -114.52432,-11.71755 -114.52432,-11.71755c0,0 55.35907,-4.03734 90.8593,-4.69786c35.50023,-0.66051 94.81438,-1.75676 94.81438,-1.75676c0,0 -2.3267,17.61729 -71.14936,18.17216z" data-paper-data="{&quot;index&quot;:null}" fill="url(#color-1)" stroke="none" stroke-width="0" stroke-linecap="round"/><g data-paper-data="{&quot;index&quot;:null}" stroke="#61ff00" stroke-width="3" stroke-linecap="round"><path d="M345.54054,182.86334c0,0 -34.79753,2.33789 -50.26676,2.70144c-13.87095,0.32599 -38.27764,-0.62056 -38.27764,-0.62056" fill="none"/><path d="M314.16055,183.83817c0,0 -15.35961,-3.23043 -16.95374,-7.73189c-1.59408,-4.50147 4.14904,-5.41793 4.14904,-5.41793z" fill="#61ff00"/><path d="M273.64958,196.07555c0,0 -4.63396,-2.55226 -0.45221,-6.14324c4.18175,-3.59098 20.03404,-1.90127 20.03404,-1.90127z" data-paper-data="{&quot;index&quot;:null}" fill="#61ff00"/><path d="M317.41182,191.88622c0,0 -3.88849,-2.17585 -0.33058,-5.18747c3.55792,-3.01162 16.91844,-1.51162 16.91844,-1.51162z" data-paper-data="{&quot;index&quot;:null}" fill="#61ff00"/></g><path d="M251.38011,183.55346c0.26753,-2.09531 2.18299,-3.57703 4.2783,-3.3095c2.09531,0.26753 3.57703,2.18299 3.3095,4.2783c-0.26753,2.09531 -2.18299,3.57703 -4.2783,3.3095c-2.09531,-0.26753 -3.57703,-2.18299 -3.3095,-4.2783z" data-paper-data="{&quot;index&quot;:null}" fill="#2d6a2b" stroke="#000000" stroke-width="2" stroke-linecap="butt"/><path d="M255.5881,184.36306c0.26753,-2.09531 2.18299,-3.57703 4.2783,-3.3095c2.09531,0.26753 3.57703,2.18299 3.3095,4.2783c-0.26753,2.09531 -2.18299,3.57703 -4.2783,3.3095c-2.09531,-0.26753 -3.57703,-2.18299 -3.3095,-4.2783z" data-paper-data="{&quot;index&quot;:null}" fill="#2d6a2b" stroke="#000000" stroke-width="2" stroke-linecap="butt"/><path d="M223.80862,156.18892c0,0 3.64873,-2.95443 5.05037,-3.75485c1.76928,-1.01034 4.72156,-1.82544 4.72156,-1.82544" data-paper-data="{&quot;index&quot;:null}" fill="none" stroke="#000000" stroke-width="2" stroke-linecap="round"/><path d="M239.25913,154.42666c-2.17064,1.82354 -5.40856,1.54217 -7.23211,-0.62846c-1.82354,-2.17064 -1.54217,-5.40856 0.62846,-7.23211c2.17064,-1.82354 5.40856,-1.54217 7.23211,0.62846c1.82354,2.17064 1.54217,5.40856 -0.62846,7.23211z" data-paper-data="{&quot;index&quot;:null}" fill="#2d6a2b" stroke="#000000" stroke-width="2" stroke-linecap="butt"/></g></g></svg>