<svg version="1.1" xmlns="http://www.w3.org/2000/svg" xmlns:xlink="http://www.w3.org/1999/xlink" width="70.9616" height="94.49452" viewBox="0,0,70.9616,94.49452"><g transform="translate(-174.47816,-145.09047)"><g data-paper-data="{&quot;isPaintingLayer&quot;:true}" fill-rule="nonzero" stroke="#000000" stroke-width="2" stroke-linejoin="miter" stroke-miterlimit="10" stroke-dasharray="" stroke-dashoffset="0" style="mix-blend-mode: normal"><path d="M214.57448,219.86657c0,-2.11232 1.71238,-3.8247 3.8247,-3.8247c2.11232,0 3.8247,1.71238 3.8247,3.8247c0,2.11232 -1.71238,3.8247 -3.8247,3.8247c-2.11232,0 -3.8247,-1.71238 -3.8247,-3.8247z" fill="#6532cc" stroke-linecap="butt"/><path d="M207.40058,172.97335c0,-9.17193 7.43532,-16.60724 16.60724,-16.60724c9.17193,0 16.60724,7.43532 16.60724,16.60724c0,9.17193 -7.43532,16.60724 -16.60724,16.60724c-9.17193,0 -16.60724,-7.43532 -16.60724,-16.60724z" fill="#6532cc" stroke-linecap="butt"/><path d="M219.27727,218.69126v-25.56509h7.8507v25.56509z" fill="#6532cc" stroke-linecap="butt"/><path d="M208.24276,218.58787c0,-2.11232 1.71238,-3.8247 3.8247,-3.8247c2.11232,0 3.8247,1.71238 3.8247,3.8247c0,2.11232 -1.71238,3.8247 -3.8247,3.8247c-2.11232,0 -3.8247,-1.71238 -3.8247,-3.8247z" fill="#6532cc" stroke-linecap="butt"/><path d="M212.03047,227.11089c4.11347,0 7.4481,2.47844 7.4481,5.53575c0,3.05731 -3.33463,5.53575 -7.4481,5.53575c-4.11347,0 -7.4481,-2.47844 -7.4481,-5.53575c0,-3.05731 3.33463,-5.53575 7.4481,-5.53575z" data-paper-data="{&quot;index&quot;:null}" fill="#6532cc" stroke-linecap="butt"/><path d="M197.59391,173.54082c0,0 2.10397,-2.22568 3.82583,-3.31485c1.36408,-0.86285 5.68426,-2.70082 5.68426,-2.70082" fill="none" stroke-linecap="round"/><path d="M188.90378,178.89933c-1.06249,-2.62833 0.20687,-5.62033 2.8352,-6.68282c2.62833,-1.06249 5.62033,0.20687 6.68282,2.8352c1.06249,2.62833 -0.20687,5.62033 -2.8352,6.68282c-2.62833,1.06249 -5.62033,-0.20687 -6.68282,-2.8352z" fill="#6532cc" stroke-linecap="butt"/><path d="M238.09881,226.70829c4.94728,0 6.34095,2.65869 6.34095,5.93835c0,3.27966 -4.01056,5.93835 -8.95785,5.93835c-4.94728,0 -8.95785,-0.84699 -8.95785,-4.12665c0,-1.26666 3.40667,-7.75005 11.57475,-7.75005z" data-paper-data="{&quot;index&quot;:null}" fill="#6532cc" stroke-linecap="butt"/><g fill="#b53ff9" stroke-linecap="butt"><path d="M175.62556,211.05515l1.04895,-7.60488h35.40203v7.60488z"/><path d="M176.22007,205.28593c0,0 -1.38562,-16.94652 16.78318,-17.69411c22.35444,-0.91981 18.88108,17.69411 18.88108,17.69411z" data-paper-data="{&quot;index&quot;:null}"/></g><g fill="#b53ff9" stroke-linecap="butt"><path d="M203.01501,175.51669l1.87895,-8.61265l33.65551,-10.98226l2.35915,7.2297z"/><path d="M205.03139,168.79011c0,0 0.91473,-3.38136 -0.22449,-7.03512c-1.09679,-3.51766 -7.75568,1.77993 -7.67493,0.10165c0.29214,-6.07237 7.06123,-9.83598 8.71904,-10.84293c23.30359,-14.15454 33.08519,6.71279 33.08519,6.71279z" data-paper-data="{&quot;index&quot;:null}"/></g></g></g></svg>