<svg version="1.1" xmlns="http://www.w3.org/2000/svg" xmlns:xlink="http://www.w3.org/1999/xlink" width="68.83455" height="83.49218" viewBox="0,0,68.83455,83.49218"><defs><linearGradient x1="226.46677" y1="160.38071" x2="200.61221" y2="175.91629" gradientUnits="userSpaceOnUse" id="color-1"><stop offset="0" stop-color="#e80000" stop-opacity="0"/><stop offset="1" stop-color="#e80000"/></linearGradient><linearGradient x1="254.90542" y1="182.3714" x2="235.4456" y2="205.41761" gradientUnits="userSpaceOnUse" id="color-2"><stop offset="0" stop-color="#e80000" stop-opacity="0"/><stop offset="1" stop-color="#e80000"/></linearGradient></defs><g transform="translate(-205.46559,-141.45623)"><g data-paper-data="{&quot;isPaintingLayer&quot;:true}" fill-rule="nonzero" stroke="#000000" stroke-linejoin="miter" stroke-miterlimit="10" stroke-dasharray="" stroke-dashoffset="0" style="mix-blend-mode: normal"><path d="M231.81675,202.31337c0,0 0.09768,-8.04583 1.19916,-11.96871c1.19462,-4.25458 5.71184,-12.64454 5.71184,-12.64454l7.72311,4.09875c0,0 -4.68889,6.01639 -5.85607,10.17325c-1.13562,4.04448 -1.21964,10.98118 -1.21964,10.98118z" fill="#e80000" stroke-width="2" stroke-linecap="butt"/><path d="M264.47965,213.14565c4.43311,2.19616 4.50171,5.1972 3.04582,8.13601c-1.45588,2.9388 -6.22985,3.54083 -10.66297,1.34467c-4.43311,-2.19616 -7.65087,-4.73547 -6.19498,-7.67427c0.56229,-1.13502 6.49296,-5.43232 13.81213,-1.8064z" data-paper-data="{&quot;index&quot;:null}" fill="#e80000" stroke-width="2" stroke-linecap="butt"/><path d="M256.98007,202.66156c4.9471,0.04198 6.31817,2.7124 6.29034,5.99194c-0.02783,3.27955 -4.0608,5.90411 -9.00792,5.86212c-4.9471,-0.04198 -8.95034,-0.92297 -8.92251,-4.20251c0.01075,-1.26662 3.47231,-7.72086 11.64009,-7.65155z" data-paper-data="{&quot;index&quot;:null}" fill="#e80000" stroke-width="2" stroke-linecap="butt"/><path d="M214.00553,182.61391c0.82416,-1.9449 3.06895,-2.85344 5.01385,-2.02927c1.9449,0.82416 2.85344,3.06895 2.02927,5.01385c-0.82416,1.9449 -3.06895,2.85344 -5.01385,2.02927c-1.9449,-0.82416 -2.85344,-3.06895 -2.02927,-5.01385z" fill="#e80000" stroke-width="2" stroke-linecap="butt"/><path d="M210.31752,191.28438c-5.61961,-6.57202 -0.15737,-11.34899 2.36014,-23.72082c2.80977,-13.80797 -7.21207,-26.10733 -7.21207,-26.10733c0,0 18.49293,5.1508 20.72856,20.13993c1.50075,10.06201 1.67512,19.2273 -1.8734,25.86276c-3.5485,6.63544 -8.38362,10.39747 -14.00321,3.82545z" data-paper-data="{&quot;index&quot;:null}" fill="url(#color-1)" stroke-width="0" stroke-linecap="butt"/><path d="M222.84658,186.74223c0.98391,-1.86917 3.2968,-2.58682 5.16598,-1.60291c1.86917,0.98391 2.58682,3.2968 1.60291,5.16598c-0.98391,1.86917 -3.2968,2.58682 -5.16598,1.60291c-1.86917,-0.98391 -2.58682,-3.2968 -1.60291,-5.16598z" fill="#e80000" stroke-width="2" stroke-linecap="butt"/><path d="M221.82191,193.38571c-5.59175,-6.59573 -1.10681,-10.76903 6.00961,-13.21396c7.11643,-2.44494 16.13662,-0.8112 25.83055,2.27495c14.44079,4.59736 16.57658,23.67503 16.57658,23.67503c0,0 -10.54376,-11.85499 -24.6231,-11.28315c-12.61498,0.51234 -18.20188,5.14289 -23.79364,-1.45286z" data-paper-data="{&quot;index&quot;:null}" fill="url(#color-2)" stroke-width="0" stroke-linecap="butt"/><path d="M231.07875,168.88387c0,0 2.10697,-2.22284 3.83029,-3.3097c1.36524,-0.86102 5.68789,-2.69317 5.68789,-2.69317" fill="none" stroke-width="2" stroke-linecap="round"/><path d="M222.38143,174.23069c-1.05895,-2.62976 0.21443,-5.62005 2.84419,-6.679c2.62976,-1.05895 5.62005,0.21443 6.679,2.84419c1.05895,2.62976 -0.21443,5.62005 -2.84419,6.679c-2.62976,1.05895 -5.62005,-0.21443 -6.679,-2.84419z" fill="#e80000" stroke-width="2" stroke-linecap="butt"/><path d="M240.01553,168.48359c0,-9.17193 7.43532,-16.60724 16.60724,-16.60724c9.17193,0 16.60724,7.43532 16.60724,16.60724c0,9.17193 -7.43532,16.60724 -16.60724,16.60724c-9.17193,0 -16.60724,-7.43532 -16.60724,-16.60724z" fill="#e80000" stroke-width="2" stroke-linecap="butt"/><path d="M239.89068,164.61389l-0.06673,-5.59961l33.39762,-0.39799l0.06673,5.5996z" fill="#ff2121" stroke-width="2" stroke-linecap="butt"/></g></g></svg>