<svg version="1.1" xmlns="http://www.w3.org/2000/svg" xmlns:xlink="http://www.w3.org/1999/xlink" width="103.34078" height="80.53705" viewBox="0,0,103.34078,80.53705"><g transform="translate(-195.00846,-145.97636)"><g data-paper-data="{&quot;isPaintingLayer&quot;:true}" fill-rule="nonzero" stroke="#000000" stroke-width="2" stroke-linejoin="miter" stroke-miterlimit="10" stroke-dasharray="" stroke-dashoffset="0" style="mix-blend-mode: normal"><path d="M208.27144,163.5836c0,-9.17193 7.43532,-16.60724 16.60724,-16.60724c9.17193,0 16.60724,7.43532 16.60724,16.60724c0,9.17193 -7.43532,16.60724 -16.60724,16.60724c-9.17193,0 -16.60724,-7.43532 -16.60724,-16.60724z" fill="#e80000" stroke-linecap="butt"/><path d="M251.48186,204.48341l-17.72428,-18.42345l5.6576,-5.44288l17.72428,18.42345z" fill="#e80000" stroke-linecap="butt"/><path d="M218.09245,196.47397c0,-2.11232 1.71238,-3.8247 3.8247,-3.8247c2.11232,0 3.8247,1.71238 3.8247,3.8247c0,2.11232 -1.71238,3.8247 -3.8247,3.8247c-2.11232,0 -3.8247,-1.71238 -3.8247,-3.8247z" fill="#e80000" stroke-linecap="butt"/><path d="M252.04419,173.7185c0,-2.11232 1.71238,-3.8247 3.8247,-3.8247c2.11232,0 3.8247,1.71238 3.8247,3.8247c0,2.11232 -1.71238,3.8247 -3.8247,3.8247c-2.11232,0 -3.8247,-1.71238 -3.8247,-3.8247z" fill="#e80000" stroke-linecap="butt"/><path d="M207.19569,162.10658l-1.3957,-5.42329l32.34602,-8.32434l1.3957,5.42328z" fill="#ff2121" stroke-linecap="butt"/><path d="M226.38578,222.10467c-0.31347,3.26465 -4.38663,3.72443 -9.31126,3.25156c-4.92464,-0.47287 -8.66273,-3.50271 -8.34926,-6.76736c0.31347,-3.26465 1.95488,-5.77796 6.87951,-5.3051c8.13068,0.7807 10.90208,7.56003 10.781,8.82088z" data-paper-data="{&quot;index&quot;:null}" fill="#e80000" stroke-linecap="butt"/><path d="M206.29789,156.56003c0,0 2.96514,-0.76703 5.00255,-0.77447c1.61407,-0.00589 6.25039,0.7334 6.25039,0.7334" data-paper-data="{&quot;index&quot;:null}" fill="none" stroke-linecap="round"/><path d="M200.24267,162.43372c-2.79106,-0.49696 -4.65082,-3.16241 -4.15386,-5.95348c0.49695,-2.79106 3.16241,-4.65081 5.95348,-4.15385c2.79106,0.49696 4.65081,3.16241 4.15386,5.95348c-0.49696,2.79107 -3.16241,4.65082 -5.95348,4.15386z" data-paper-data="{&quot;index&quot;:null}" fill="#e80000" stroke-linecap="butt"/><path d="M288.58442,187.6028c-1.14609,-0.53933 -5.56183,-6.38237 -2.08386,-13.773c2.10655,-4.47638 5.1056,-4.60534 8.07309,-3.20886c2.9675,1.39648 3.66543,6.15737 1.55887,10.63378c-2.10656,4.47639 -4.58062,7.74457 -7.54812,6.34809z" data-paper-data="{&quot;index&quot;:null}" fill="#e80000" stroke-linecap="butt"/></g></g></svg>