<svg version="1.1" xmlns="http://www.w3.org/2000/svg" xmlns:xlink="http://www.w3.org/1999/xlink" width="58.92967" height="88.408" viewBox="0,0,58.92967,88.408"><g transform="translate(-218.75397,-137.66055)"><g data-paper-data="{&quot;isPaintingLayer&quot;:true}" fill-rule="nonzero" stroke="#000000" stroke-width="2" stroke-linejoin="miter" stroke-miterlimit="10" stroke-dasharray="" stroke-dashoffset="0" style="mix-blend-mode: normal"><path d="M244.50043,199.99724c0.3127,-2.08905 2.2597,-3.52907 4.34875,-3.21637c2.08905,0.3127 3.52907,2.2597 3.21637,4.34875c-0.3127,2.08905 -2.2597,3.52907 -4.34875,3.21637c-2.08905,-0.3127 -3.52907,-2.2597 -3.21637,-4.34875z" fill="#ffe819" stroke-linecap="butt"/><path d="M243.41164,162.00517c0.7219,-9.14348 8.71937,-15.97051 17.86283,-15.24861c9.14348,0.7219 15.97051,8.71937 15.24861,17.86283c-0.7219,9.14348 -8.71937,15.97051 -17.86283,15.24861c-9.14348,-0.7219 -15.97051,-8.71937 -15.24861,-17.86283z" fill="#ffe819" stroke-linecap="butt"/><path d="M237.34957,204.25242l6.27638,-24.78267l7.61043,1.92739l-6.27638,24.78267z" fill="#ffe819" stroke-linecap="butt"/><path d="M246.49025,195.2359c0.3127,-2.08905 2.2597,-3.52907 4.34875,-3.21637c2.08905,0.3127 3.52907,2.2597 3.21637,4.34875c-0.3127,2.08905 -2.2597,3.52907 -4.34875,3.21637c-2.08905,-0.3127 -3.52907,-2.2597 -3.21637,-4.34875z" fill="#ffe819" stroke-linecap="butt"/><path d="M229.28552,213.59445c4.11347,0 7.4481,2.47844 7.4481,5.53575c0,3.05731 -3.33463,5.53575 -7.4481,5.53575c-4.11347,0 -7.4481,-2.47844 -7.4481,-5.53575c0,-3.05731 3.33463,-5.53575 7.4481,-5.53575z" data-paper-data="{&quot;index&quot;:null}" fill="#ffe819" stroke-linecap="butt"/><path d="M229.07776,155.65555c0,0 2.27262,-2.05318 4.07486,-3.00345c1.42776,-0.75281 5.8792,-2.24505 5.8792,-2.24505" fill="none" stroke-linecap="round"/><path d="M219.99283,160.31346c-0.85233,-2.7038 0.64859,-5.58661 3.35239,-6.43894c2.7038,-0.85233 5.58661,0.64859 6.43894,3.35239c0.85233,2.7038 -0.64859,5.58661 -3.35239,6.43894c-2.7038,0.85233 -5.58661,-0.64859 -6.43894,-3.35239z" fill="#ffe819" stroke-linecap="butt"/><path d="M258.43549,213.19185c4.94728,0 6.34095,2.65869 6.34095,5.93835c0,3.27966 -4.01056,5.93835 -8.95785,5.93835c-4.94728,0 -8.95785,-0.84699 -8.95785,-4.12665c0,-1.26666 3.40667,-7.75005 11.57475,-7.75005z" data-paper-data="{&quot;index&quot;:null}" fill="#ffe819" stroke-linecap="butt"/><path d="M238.90045,161.60177l5.69308,-9.90127l-11.38841,-2.48536c0,0 14.45952,-10.69466 25.07622,-10.5532c10.61669,0.14146 17.8412,11.12505 17.8412,11.12505z" data-paper-data="{&quot;index&quot;:null}" fill="#fff067" stroke-linecap="butt"/></g></g></svg>