<svg version="1.1" xmlns="http://www.w3.org/2000/svg" xmlns:xlink="http://www.w3.org/1999/xlink" width="156.3526" height="89.33161" viewBox="0,0,156.3526,89.33161"><g transform="translate(-216.25476,-137.3508)"><g data-paper-data="{&quot;isPaintingLayer&quot;:true}" fill-rule="nonzero" stroke-linejoin="miter" stroke-miterlimit="10" stroke-dasharray="" stroke-dashoffset="0" style="mix-blend-mode: normal"><g data-paper-data="{&quot;index&quot;:null}" stroke="#61ff00" stroke-width="3" stroke-linecap="round"><path d="M371.10736,138.8508c0,0 -29.40272,18.75671 -42.79811,26.50221c-12.01138,6.94523 -33.87586,17.83225 -33.87586,17.83225" fill="none"/><path d="M344.04819,154.77109c0,0 -15.02465,4.54016 -18.58415,1.3567c-3.55946,-3.18348 1.03855,-6.74462 1.03855,-6.74462z" fill="#61ff00"/><path d="M314.38616,184.95478c0,0 -5.29031,-0.01418 -3.34598,-5.17187c1.94433,-5.15769 16.6615,-11.28593 16.6615,-11.28593z" data-paper-data="{&quot;index&quot;:null}" fill="#61ff00"/><path d="M350.76405,160.27012c0,0 -4.45566,-0.04188 -2.78043,-4.39185c1.67524,-4.34997 14.1155,-9.44836 14.1155,-9.44836z" data-paper-data="{&quot;index&quot;:null}" fill="#61ff00"/></g><path d="M291.9109,182.54502c0.30024,-2.09088 2.23864,-3.54247 4.3295,-3.24222c2.09088,0.30024 3.54247,2.23864 3.24222,4.3295c-0.30024,2.09088 -2.23864,3.54247 -4.3295,3.24222c-2.09088,-0.30024 -3.54247,-2.23864 -3.24222,-4.3295z" data-paper-data="{&quot;index&quot;:null}" fill="#2d6a2b" stroke="#000000" stroke-width="2" stroke-linecap="butt"/><path d="M295.71096,161.43401c6.07286,6.87345 5.42387,17.36852 -1.4496,23.4414c-6.87345,6.07285 -17.36853,5.42388 -23.44141,-1.4496c-6.07285,-6.87343 -5.42387,-17.36852 1.4496,-23.4414c6.87343,-6.07285 17.36852,-5.42387 23.4414,1.4496z" data-paper-data="{&quot;index&quot;:null}" fill="#2d6a2b" stroke="#000000" stroke-width="2" stroke-linecap="butt"/><path d="M276.16845,155.25325c15.09364,-4.82955 24.9094,4.27746 24.9094,4.27746l-38.38395,14.37945c0,0 -2.75354,-13.46435 13.47457,-18.65692z" data-paper-data="{&quot;index&quot;:null}" fill="#367e33" stroke="#000000" stroke-width="2" stroke-linecap="round"/><path d="M254.49015,208.4146l12.41883,-22.34606l6.86218,3.81365l-12.41884,22.34605z" data-paper-data="{&quot;index&quot;:null}" fill="#2d6a2b" stroke="#000000" stroke-width="2" stroke-linecap="butt"/><path d="M281.68285,213.38271c4.93244,-0.38296 6.52773,2.15988 6.7816,5.4297c0.25387,3.26982 -3.53887,6.23098 -8.4713,6.61393c-4.93244,0.38296 -8.99653,-0.15105 -9.2504,-3.42087c-0.09805,-1.26286 2.79655,-7.9905 10.94011,-8.62276z" data-paper-data="{&quot;index&quot;:null}" fill="#2d6a2b" stroke="#000000" stroke-width="2" stroke-linecap="butt"/><path d="M228.00718,214.61091c4.11347,0 7.4481,2.47844 7.4481,5.53575c0,3.05731 -3.33463,5.53575 -7.4481,5.53575c-4.11347,0 -7.4481,-2.47844 -7.4481,-5.53575c0,-3.05731 3.33463,-5.53575 7.4481,-5.53575z" data-paper-data="{&quot;index&quot;:null}" fill="#2d6a2b" stroke="#000000" stroke-width="2" stroke-linecap="butt"/><path d="M217.25476,183.77972c0.26753,-2.09531 2.18299,-3.57703 4.2783,-3.3095c2.09531,0.26753 3.57703,2.18299 3.3095,4.2783c-0.26753,2.09531 -2.18299,3.57703 -4.2783,3.3095c-2.09531,-0.26753 -3.57703,-2.18299 -3.3095,-4.2783z" data-paper-data="{&quot;index&quot;:null}" fill="#2d6a2b" stroke="#000000" stroke-width="2" stroke-linecap="butt"/><path d="M257.80998,166.50179c0,0 3.00539,-0.58988 5.03967,-0.47653c1.61158,0.08982 6.19591,1.10267 6.19591,1.10267" data-paper-data="{&quot;index&quot;:null}" fill="none" stroke="#000000" stroke-width="2" stroke-linecap="round"/><path d="M250.64208,166.26547c0.66155,-2.75669 3.43258,-4.45513 6.18927,-3.79359c2.75669,0.66155 4.45513,3.43258 3.79359,6.18927c-0.66155,2.75669 -3.43258,4.45513 -6.18927,3.79359c-2.75669,-0.66155 -4.45513,-3.43258 -3.79359,-6.18927z" data-paper-data="{&quot;index&quot;:null}" fill="#2d6a2b" stroke="#000000" stroke-width="2" stroke-linecap="butt"/></g></g></svg>