<svg version="1.1" xmlns="http://www.w3.org/2000/svg" xmlns:xlink="http://www.w3.org/1999/xlink" width="90.89175" height="114.59477" viewBox="0,0,90.89175,114.59477"><g transform="translate(-184.67739,-106.41503)"><g data-paper-data="{&quot;isPaintingLayer&quot;:true}" fill-rule="nonzero" stroke="#000000" stroke-width="2" stroke-linejoin="miter" stroke-miterlimit="10" stroke-dasharray="" stroke-dashoffset="0" style="mix-blend-mode: normal"><path d="M242.57658,182.23044c0,-2.11232 1.71238,-3.8247 3.8247,-3.8247c2.11232,0 3.8247,1.71238 3.8247,3.8247c0,2.11232 -1.71238,3.8247 -3.8247,3.8247c-2.11232,0 -3.8247,-1.71238 -3.8247,-3.8247z" fill="#ff6b00" stroke-linecap="butt"/><path d="M213.4346,160.93357c0,-9.17193 7.43532,-16.60724 16.60724,-16.60724c9.17193,0 16.60724,7.43532 16.60724,16.60724c0,9.17193 -7.43532,16.60724 -16.60724,16.60724c-9.17193,0 -16.60724,-7.43532 -16.60724,-16.60724z" fill="#ff6b00" stroke-linecap="butt"/><path d="M233.50919,204.80819l-10.75465,-23.19292l7.12224,-3.30261l10.75465,23.19292z" fill="#ff6b00" stroke-linecap="butt"/><path d="M221.9474,198.84506c0,-2.11232 1.71238,-3.8247 3.8247,-3.8247c2.11232,0 3.8247,1.71238 3.8247,3.8247c0,2.11232 -1.71238,3.8247 -3.8247,3.8247c-2.11232,0 -3.8247,-1.71238 -3.8247,-3.8247z" fill="#ff6b00" stroke-linecap="butt"/><path d="M202.62092,156.2145c0,0 2.46684,-1.81523 4.3552,-2.58019c1.49598,-0.60602 6.0745,-1.64488 6.0745,-1.64488" fill="none" stroke-linecap="round"/><path d="M193.11514,159.93901c-0.57722,-2.77558 1.2049,-5.49355 3.98047,-6.07076c2.77558,-0.57722 5.49355,1.2049 6.07076,3.98047c0.57722,2.77558 -1.2049,5.49355 -3.98047,6.07076c-2.77558,0.57722 -5.49355,-1.2049 -6.07076,-3.98047z" fill="#ff6b00" stroke-linecap="butt"/><path d="M265.95913,194.50336c4.02934,-2.87054 6.70707,-1.5138 8.61001,1.15734c1.90294,2.67114 0.17916,7.16355 -3.85019,10.03411c-4.02934,2.87054 -7.78721,4.50775 -9.69015,1.83661c-0.73495,-1.03163 -1.7222,-8.2887 4.93034,-13.02804z" data-paper-data="{&quot;index&quot;:null}" fill="#ff6b00" stroke-linecap="butt"/><path d="M208.8738,164.28927l4.22817,-12.18351l-26.62972,-21.39582l41.5955,-22.71252l4.14025,33.37304l12.53391,2.91357z" data-paper-data="{&quot;index&quot;:null}" fill="#ffa340" stroke-linecap="butt"/><path d="M213.05019,217.42866c-3.30237,3.68374 -6.21232,2.94676 -8.65436,0.75754c-2.44203,-2.18922 -1.74459,-6.95018 1.55778,-10.63393c3.30237,-3.68374 6.61013,-6.10464 9.05216,-3.91542c0.94315,0.8455 3.49669,7.70985 -1.9556,13.7918z" data-paper-data="{&quot;index&quot;:null}" fill="#ff6b00" stroke-linecap="butt"/></g></g></svg>