<svg version="1.1" xmlns="http://www.w3.org/2000/svg" xmlns:xlink="http://www.w3.org/1999/xlink" width="45.0346" height="117.78748" viewBox="0,0,45.0346,117.78748"><g transform="translate(-220.13418,-118.0839)"><g data-paper-data="{&quot;isPaintingLayer&quot;:true}" fill-rule="nonzero" stroke="#000000" stroke-width="2" stroke-linejoin="miter" stroke-miterlimit="10" stroke-dasharray="" stroke-dashoffset="0" style="mix-blend-mode: normal"><path d="M243.2717,184.99003c0,-2.11232 1.71238,-3.8247 3.8247,-3.8247c2.11232,0 3.8247,1.71238 3.8247,3.8247c0,2.11232 -1.71238,3.8247 -3.8247,3.8247c-2.11232,0 -3.8247,-1.71238 -3.8247,-3.8247z" fill="#1d28e8" stroke-linecap="butt"/><g data-paper-data="{&quot;index&quot;:null}"><path d="M243.20108,147.63508c0,0 4.68652,0.28019 6.26117,0.63477c1.98766,0.44759 4.71694,1.83732 4.71694,1.83732" fill="none" stroke-linecap="round"/><path d="M258.8219,157.15072c-2.83252,-0.11799 -5.03305,-2.50984 -4.91505,-5.34235c0.11799,-2.83252 2.50984,-5.03305 5.34235,-4.91505c2.83252,0.11799 5.03305,2.50984 4.91505,5.34235c-0.11799,2.83252 -2.50984,5.03305 -5.34235,4.91505z" fill="#1d28e8" stroke-linecap="butt"/></g><path d="M238.69875,206.62206v-25.56509h7.8507v25.56509z" fill="#1d28e8" stroke-linecap="butt"/><path d="M233.42292,193.71346c0,-2.11232 1.71238,-3.8247 3.8247,-3.8247c2.11232,0 3.8247,1.71238 3.8247,3.8247c0,2.11232 -1.71238,3.8247 -3.8247,3.8247c-2.11232,0 -3.8247,-1.71238 -3.8247,-3.8247z" fill="#1d28e8" stroke-linecap="butt"/><path d="M244.22321,172.64005c-8.93733,2.06115 -17.85336,-3.51307 -19.91453,-12.45041c-2.06115,-8.93733 3.51307,-17.85336 12.45041,-19.91453c8.93733,-2.06115 17.85336,3.51307 19.91453,12.45041c2.06115,8.93733 -3.51307,17.85336 -12.45041,19.91453z" data-paper-data="{&quot;index&quot;:null}" fill="#1d28e8" stroke-linecap="butt"/><path d="M220.2021,149.41261l5.64962,-0.20108l-1.60333,-29.869l38.82252,8.527l-6.38466,24.02683z" data-paper-data="{&quot;index&quot;:null}" fill="#2530ff" stroke-linecap="round"/><path d="M237.8984,232.00281c-5.07091,-6.4034 -2.10316,-13.09908 -1.11016,-13.88545c2.5711,-2.03608 5.72494,0.58219 8.79631,4.46063c3.07137,3.87844 3.47692,8.6731 0.90582,10.70918c-2.5711,2.03608 -5.52061,2.59408 -8.59198,-1.28436z" data-paper-data="{&quot;index&quot;:null}" fill="#1d28e8" stroke-linecap="butt"/><path d="M241.04163,216.99383c2.62659,-7.73425 9.8611,-8.87512 11.06048,-8.46781c3.10546,1.05463 2.6178,5.12456 1.02691,9.80907c-1.59089,4.68452 -5.39803,7.62711 -8.5035,6.57248c-3.10547,-1.05463 -5.17479,-3.22923 -3.5839,-7.91374z" data-paper-data="{&quot;index&quot;:null}" fill="#1d28e8" stroke-linecap="butt"/></g></g></svg>