<svg version="1.1" xmlns="http://www.w3.org/2000/svg" xmlns:xlink="http://www.w3.org/1999/xlink" width="100.47648" height="63.54936" viewBox="0,0,100.47648,63.54936"><g transform="translate(-197.94077,-154.03574)"><g data-paper-data="{&quot;isPaintingLayer&quot;:true}" fill-rule="nonzero" stroke-linejoin="miter" stroke-miterlimit="10" stroke-dasharray="" stroke-dashoffset="0" style="mix-blend-mode: normal"><path d="M255.12334,192.95689c0,0 2.60798,-2.60912 -9.05951,-5.99075c-11.66749,-3.38164 -24.04421,-3.11519 -24.04421,-3.11519c0,0 24.24496,-3.79903 40.71486,1.19815c5.82528,1.76746 -0.32059,10.06446 -0.32059,10.06446" fill="#e80000" stroke="#000000" stroke-width="2" stroke-linecap="round"/><path d="M252.85071,168.99888c0,0 2.95649,-0.79969 4.99369,-0.82961c1.6139,-0.0237 6.2581,0.6644 6.2581,0.6644" fill="none" stroke="#000000" stroke-width="2" stroke-linecap="round"/><path d="M242.64136,169.03177c0.46613,-2.79638 3.11091,-4.68542 5.90729,-4.21929c2.79638,0.46613 4.68542,3.11091 4.21929,5.90729c-0.46613,2.79638 -3.11091,4.68542 -5.90729,4.21929c-2.79638,-0.46613 -4.68542,-3.11091 -4.21929,-5.90729z" fill="#e80000" stroke="#000000" stroke-width="2" stroke-linecap="butt"/><path d="M264.20277,171.64298c0,-9.17193 7.43532,-16.60724 16.60724,-16.60724c9.17193,0 16.60724,7.43532 16.60724,16.60724c0,9.17193 -7.43532,16.60724 -16.60724,16.60724c-9.17193,0 -16.60724,-7.43532 -16.60724,-16.60724z" fill="#e80000" stroke="#000000" stroke-width="2" stroke-linecap="butt"/><path d="M236.30246,200.07019l19.83772,-16.12572l4.95199,6.0919l-19.83772,16.12572z" fill="#e80000" stroke="#000000" stroke-width="2" stroke-linecap="butt"/><path d="M214.18751,189.9665c0,-2.11232 1.71238,-3.8247 3.8247,-3.8247c2.11232,0 3.8247,1.71238 3.8247,3.8247c0,2.11232 -1.71238,3.8247 -3.8247,3.8247c-2.11232,0 -3.8247,-1.71238 -3.8247,-3.8247z" fill="#e80000" stroke="#000000" stroke-width="2" stroke-linecap="butt"/><path d="M280.3988,201.10623c4.29908,-2.44816 6.8258,-0.82747 8.44874,2.02248c1.62294,2.84995 -0.5465,7.14492 -4.84559,9.59309c-4.29908,2.44816 -8.20331,3.69677 -9.82625,0.84682c-0.62681,-1.1007 -0.87479,-8.42042 6.2231,-12.46239z" data-paper-data="{&quot;index&quot;:null}" fill="#e80000" stroke="#000000" stroke-width="2" stroke-linecap="butt"/><path d="M263.12701,170.16596l-1.3957,-5.42329l32.34602,-8.32434l1.3957,5.42328z" fill="#ff2121" stroke="#000000" stroke-width="2" stroke-linecap="butt"/><path d="M208.6763,214.55458c-3.72349,3.25748 -6.523,2.17411 -8.68246,-0.29428c-2.15946,-2.46838 -0.89156,-7.11011 2.83194,-10.3676c3.72349,-3.25748 7.29968,-5.26072 9.45913,-2.79234c0.83402,0.95333 2.53896,8.07604 -3.60862,13.45422z" data-paper-data="{&quot;index&quot;:null}" fill="#e80000" stroke="#000000" stroke-width="2" stroke-linecap="butt"/><path d="M255.88313,192.12317c0,-2.11232 1.71238,-3.8247 3.8247,-3.8247c2.11232,0 3.8247,1.71238 3.8247,3.8247c0,2.11232 -1.71238,3.8247 -3.8247,3.8247c-2.11232,0 -3.8247,-1.71238 -3.8247,-3.8247z" fill="#e80000" stroke="#000000" stroke-width="2" stroke-linecap="butt"/><path d="M258.36335,190.26006c0,0 1.30509,-1.06039 1.59058,-1.83529c0.28549,-0.7749 0.12235,-2.81411 0.12235,-2.81411l3.91529,3.54823c0,0 -0.34786,1.2824 -0.57629,1.90539c-0.21987,0.59964 -1.0143,1.52048 -1.0143,1.52048z" fill="#e80000" stroke="none" stroke-width="0" stroke-linecap="butt"/></g></g></svg>