<svg version="1.1" xmlns="http://www.w3.org/2000/svg" xmlns:xlink="http://www.w3.org/1999/xlink" width="58.50774" height="73.02109" viewBox="0,0,58.50774,73.02109"><g transform="translate(-221.23559,-149.79039)"><g data-paper-data="{&quot;isPaintingLayer&quot;:true}" fill-rule="nonzero" stroke="#000000" stroke-width="2" stroke-linejoin="miter" stroke-miterlimit="10" stroke-dasharray="" stroke-dashoffset="0" style="mix-blend-mode: normal"><path d="M265.03175,201.37512c-0.82383,-1.94505 0.0851,-4.18967 2.03015,-5.0135c1.94505,-0.82383 4.18967,0.0851 5.0135,2.03015c0.82383,1.94505 -0.0851,4.18967 -2.03015,5.0135c-1.94505,0.82383 -4.18967,-0.0851 -5.0135,-2.03015z" fill="#ffe819" stroke-linecap="butt"/><path d="M224.97893,204.75249l7.96833,-24.29156l7.45961,2.44697l-7.96832,24.29156z" fill="#ffe819" stroke-linecap="butt"/><path d="M256.2303,205.13828c-0.82383,-1.94505 0.0851,-4.18967 2.03015,-5.0135c1.94505,-0.82383 4.18967,0.0851 5.0135,2.03015c0.82383,1.94505 -0.0851,4.18967 -2.03015,5.0135c-1.94505,0.82383 -4.18967,-0.0851 -5.0135,-2.03015z" fill="#ffe819" stroke-linecap="butt"/><path d="M262.43778,208.03992c4.50318,-2.04864 6.8727,-0.20572 8.23079,2.77953c1.35809,2.98526 -1.19151,7.06604 -5.6947,9.11468c-4.50318,2.04864 -8.50447,2.93844 -9.86256,-0.04682c-0.52452,-1.15296 -0.10839,-8.46504 7.32648,-11.8474z" data-paper-data="{&quot;index&quot;:null}" fill="#ffe819" stroke-linecap="butt"/><path d="M243.55897,168.88805c3.89518,-8.30373 13.78434,-11.87756 22.08806,-7.98238c8.30373,3.89518 11.87755,13.78434 7.98238,22.08806c-3.89518,8.30373 -13.78434,11.87756 -22.08806,7.98238c-8.30373,-3.89518 -11.87755,-13.78434 -7.98238,-22.08806z" fill="#ffe819" stroke-linecap="butt"/><path d="M232.37881,157.89796c0,0 2.85003,-1.12148 4.87145,-1.3763c1.60139,-0.20187 6.29319,-0.03115 6.29319,-0.03115" fill="none" stroke-linecap="round"/><path d="M222.2356,159.05868c0.15429,-2.83076 2.57416,-5.00046 5.40492,-4.84616c2.83076,0.15429 5.00046,2.57415 4.84617,5.40491c-0.15429,2.83076 -2.57416,5.00046 -5.40492,4.84617c-2.83076,-0.15429 -5.00046,-2.57416 -4.84617,-5.40492z" fill="#ffe819" stroke-linecap="butt"/><path d="M239.47871,166.92205l8.81483,-7.26259l-9.78396,-6.33617c0,0 17.29921,-4.91841 27.18619,-1.04776c9.88698,3.87064 12.78139,16.69465 12.78139,16.69465z" data-paper-data="{&quot;index&quot;:null}" fill="#fff067" stroke-linecap="butt"/><path d="M242.81124,208.1264c4.94728,0 6.34095,2.65869 6.34095,5.93835c0,3.27966 -4.01056,5.93835 -8.95785,5.93835c-4.94728,0 -8.95785,-0.84699 -8.95785,-4.12665c0,-1.26666 3.40667,-7.75005 11.57475,-7.75005z" data-paper-data="{&quot;index&quot;:null}" fill="#ffe819" stroke-linecap="butt"/></g></g></svg>