<svg version="1.1" xmlns="http://www.w3.org/2000/svg" xmlns:xlink="http://www.w3.org/1999/xlink" width="173.13897" height="57.60245" viewBox="0,0,173.13897,57.60245"><defs><linearGradient x1="151.65163" y1="200.17153" x2="197.09306" y2="148.35184" gradientUnits="userSpaceOnUse" id="color-1"><stop offset="0" stop-color="#ff8200"/><stop offset="1" stop-color="#e80000"/></linearGradient><linearGradient x1="151.65164" y1="200.17153" x2="197.09307" y2="148.35184" gradientUnits="userSpaceOnUse" id="color-2"><stop offset="0" stop-color="#e80000" stop-opacity="0"/><stop offset="1" stop-color="#e80000"/></linearGradient></defs><g transform="translate(-125.27827,-162.18316)"><g data-paper-data="{&quot;isPaintingLayer&quot;:true}" fill-rule="nonzero" stroke="#000000" stroke-linejoin="miter" stroke-miterlimit="10" stroke-dasharray="" stroke-dashoffset="0" style="mix-blend-mode: normal"><path d="M190.93523,219.78511c-17.26058,0.12858 -65.65696,-24.5132 -65.65696,-24.5132c0,0 37.80778,-10.26005 66.42398,-10.47321c28.6162,-0.21316 34.11475,-2.26988 36.43202,9.70704c3.12232,16.13783 -19.93845,25.1508 -37.19903,25.27937z" data-paper-data="{&quot;index&quot;:null}" fill="url(#color-1)" stroke-width="0" stroke-linecap="butt"/><path d="M207.62182,197.77744c0,-2.11232 1.71238,-3.8247 3.8247,-3.8247c2.11232,0 3.8247,1.71238 3.8247,3.8247c0,2.11232 -1.71238,3.8247 -3.8247,3.8247c-2.11232,0 -3.8247,-1.71238 -3.8247,-3.8247z" fill="#e80000" stroke-width="2" stroke-linecap="butt"/><path d="M263.86288,176.669c0,0 -4.64421,0.6881 -6.25811,0.6644c-2.03721,-0.02992 -4.99369,-0.82962 -4.99369,-0.82962" data-paper-data="{&quot;index&quot;:null}" fill="none" stroke-width="2" stroke-linecap="round"/><path d="M246.62102,170.5636c2.79638,-0.46614 5.44115,1.42291 5.90729,4.21929c0.46614,2.79638 -1.42291,5.44115 -4.21929,5.90729c-2.79638,0.46614 -5.44115,-1.42291 -5.90729,-4.21929c-0.46614,-2.79638 1.42291,-5.44115 4.21929,-5.90729z" data-paper-data="{&quot;index&quot;:null}" fill="#e80000" stroke-width="2" stroke-linecap="butt"/><path d="M264.20275,179.7904c0,-9.17193 7.43532,-16.60724 16.60724,-16.60724c9.17193,0 16.60724,7.43532 16.60724,16.60724c0,9.17193 -7.43532,16.60724 -16.60724,16.60724c-9.17193,0 -16.60724,-7.43532 -16.60724,-16.60724z" fill="#e80000" stroke-width="2" stroke-linecap="butt"/><path d="M236.30245,205.58168l19.83772,-16.12572l4.95199,6.0919l-19.83772,16.12572z" fill="#e80000" stroke-width="2" stroke-linecap="butt"/><path d="M200.17686,218.30611c-4.94225,0.22292 -6.45431,-2.37027 -6.6021,-5.64659c-0.14778,-3.27633 3.73891,-6.11303 8.68117,-6.33595c4.94225,-0.22292 8.98692,0.44249 9.13471,3.71883c0.05708,1.26537 -3.05401,7.89567 -11.21378,8.26375z" data-paper-data="{&quot;index&quot;:null}" fill="#e80000" stroke-width="2" stroke-linecap="butt"/><path d="M263.12701,178.31338l-1.3957,-5.42329l32.34602,-8.32434l1.3957,5.42328z" fill="#ff2121" stroke-width="2" stroke-linecap="butt"/><path d="M239.21978,214.90207c-4.89711,-0.70273 -5.89901,-3.53242 -5.43317,-6.77881c0.46585,-3.24641 4.81339,-5.30847 9.71052,-4.60573c4.89711,0.70273 8.74672,2.11079 8.28087,5.35722c-0.17993,1.25381 -4.47297,7.18757 -12.55823,6.02736z" data-paper-data="{&quot;index&quot;:null}" fill="#e80000" stroke-width="2" stroke-linecap="butt"/><path d="M204.12079,201.22921c0,-2.11232 1.71238,-3.8247 3.8247,-3.8247c2.11232,0 3.8247,1.71238 3.8247,3.8247c0,2.11232 -1.71238,3.8247 -3.8247,3.8247c-2.11232,0 -3.8247,-1.71238 -3.8247,-3.8247z" fill="#e80000" stroke-width="2" stroke-linecap="butt"/><path d="M190.93523,219.78511c-17.26058,0.12858 -65.65696,-24.5132 -65.65696,-24.5132c0,0 37.80778,-10.26005 66.42398,-10.47321c28.6162,-0.21316 34.11475,-2.26988 36.43202,9.70704c3.12232,16.13783 -19.93845,25.1508 -37.19904,25.27937z" data-paper-data="{&quot;index&quot;:null}" fill="url(#color-2)" stroke-width="0" stroke-linecap="butt"/></g></g></svg>