<svg version="1.1" xmlns="http://www.w3.org/2000/svg" xmlns:xlink="http://www.w3.org/1999/xlink" width="74.75999" height="92.96526" viewBox="0,0,74.75999,92.96526"><g transform="translate(-212.17799,-133.45011)"><g data-paper-data="{&quot;isPaintingLayer&quot;:true}" fill-rule="nonzero" stroke="#000000" stroke-width="2" stroke-linejoin="miter" stroke-miterlimit="10" stroke-dasharray="" stroke-dashoffset="0" style="mix-blend-mode: normal"><path d="M278.28857,171.73212c0,-2.11232 1.71238,-3.8247 3.8247,-3.8247c2.11232,0 3.8247,1.71238 3.8247,3.8247c0,2.11232 -1.71238,3.8247 -3.8247,3.8247c-2.11232,0 -3.8247,-1.71238 -3.8247,-3.8247z" fill="#181818" stroke-linecap="butt"/><path d="M232.74396,206.91547c0,-2.11232 1.71238,-3.8247 3.8247,-3.8247c2.11232,0 3.8247,1.71238 3.8247,3.8247c0,2.11232 -1.71238,3.8247 -3.8247,3.8247c-2.11232,0 -3.8247,-1.71238 -3.8247,-3.8247z" fill="#181818" stroke-linecap="butt"/><path d="M223.50981,151.30835c0,0 2.72268,-1.40264 4.70819,-1.85964c1.57295,-0.36204 6.2581,-0.66443 6.2581,-0.66443" fill="#181818" stroke-linecap="round"/><path d="M213.18361,153.61229c-0.13141,-2.83191 2.05776,-5.23418 4.88968,-5.36558c2.83191,-0.13141 5.23418,2.05776 5.36558,4.88968c0.13141,2.83191 -2.05776,5.23418 -4.88968,5.36558c-2.83191,0.13141 -5.23418,-2.05776 -5.36558,-4.88968z" fill="#181818" stroke-linecap="butt"/><path d="M236.37802,161.69629c-2.50038,-8.82453 2.62637,-18.00518 11.45089,-20.50556c8.82453,-2.50038 18.00518,2.62637 20.50556,11.45089c2.50038,8.82453 -2.62637,18.00518 -11.45089,20.50556c-8.82453,2.50038 -18.00518,-2.62637 -20.50556,-11.45089z" fill="#181818" stroke-linecap="butt"/><path d="M238.50288,204.50822l4.00465,-25.24949l7.75378,1.22978l-4.00465,25.24949z" fill="#181818" stroke-linecap="butt"/><path d="M228.5361,214.34387c4.11347,0 7.4481,2.47844 7.4481,5.53575c0,3.05731 -3.33463,5.53575 -7.4481,5.53575c-4.11347,0 -7.4481,-2.47844 -7.4481,-5.53575c0,-3.05731 3.33463,-5.53575 7.4481,-5.53575z" data-paper-data="{&quot;index&quot;:null}" fill="#181818" stroke-linecap="butt"/><path d="M259.78664,213.07757c4.94728,0 6.34095,2.65869 6.34095,5.93835c0,3.27966 -4.01056,5.93835 -8.95785,5.93835c-4.94728,0 -8.95785,-0.84699 -8.95785,-4.12665c0,-1.26666 3.40667,-7.75005 11.57475,-7.75005z" data-paper-data="{&quot;index&quot;:null}" fill="#181818" stroke-linecap="butt"/><path d="M258.8628,159.10138l-1.42978,-5.04609l13.39919,-3.79658l1.42978,5.04609z" fill="#ff0000" stroke-linecap="butt"/><path d="M240.65086,177.3078l14.19769,2.55755l-4.36223,3.58856l3.40777,4.82091l-17.0242,-1.47712l5.05913,-4.39526z" fill="#0e0e0e" stroke-linecap="round"/><g><path d="M236.26372,154.36913l-3.2885,-11.60602l28.51043,-8.07826l3.2885,11.60602z" fill="#343434" stroke-linecap="butt"/><path d="M275.11866,143.35982l-49.19942,13.94036" fill="none" stroke-linecap="round"/></g></g></g></svg>