<svg version="1.1" xmlns="http://www.w3.org/2000/svg" xmlns:xlink="http://www.w3.org/1999/xlink" width="70.62607" height="88.408" viewBox="0,0,70.62607,88.408"><g transform="translate(-214.85057,-137.66055)"><g data-paper-data="{&quot;isPaintingLayer&quot;:true}" fill-rule="nonzero" stroke="#000000" stroke-width="2" stroke-linejoin="miter" stroke-miterlimit="10" stroke-dasharray="" stroke-dashoffset="0" style="mix-blend-mode: normal"><path d="M276.83891,182.63761c0.16626,-2.10577 2.0081,-3.67806 4.11387,-3.5118c2.10577,0.16626 3.67806,2.0081 3.5118,4.11387c-0.16626,2.10577 -2.0081,3.67806 -4.11387,3.5118c-2.10577,-0.16626 -3.67806,-2.0081 -3.5118,-4.11387z" fill="#ffe819" stroke-linecap="butt"/><path d="M239.50824,162.00517c0.7219,-9.14348 8.71937,-15.97051 17.86283,-15.24861c9.14348,0.7219 15.97051,8.71937 15.24861,17.86283c-0.7219,9.14348 -8.71937,15.97051 -17.86283,15.24861c-9.14348,-0.7219 -15.97051,-8.71937 -15.24861,-17.86283z" fill="#ffe819" stroke-linecap="butt"/><path d="M235.8988,205.66544l4.53289,-25.16002l7.72631,1.39199l-4.53289,25.16002z" fill="#ffe819" stroke-linecap="butt"/><path d="M226.51501,194.18447c0.16626,-2.10577 2.0081,-3.67806 4.11387,-3.5118c2.10577,0.16626 3.67806,2.0081 3.5118,4.11387c-0.16626,2.10577 -2.0081,3.67806 -4.11387,3.5118c-2.10577,-0.16626 -3.67806,-2.0081 -3.5118,-4.11387z" fill="#ffe819" stroke-linecap="butt"/><path d="M229.28552,213.59445c4.11347,0 7.4481,2.47844 7.4481,5.53575c0,3.05731 -3.33463,5.53575 -7.4481,5.53575c-4.11347,0 -7.4481,-2.47844 -7.4481,-5.53575c0,-3.05731 3.33463,-5.53575 7.4481,-5.53575z" data-paper-data="{&quot;index&quot;:null}" fill="#ffe819" stroke-linecap="butt"/><path d="M225.17436,155.65555c0,0 2.27262,-2.05318 4.07486,-3.00345c1.42776,-0.75281 5.8792,-2.24505 5.8792,-2.24505" fill="none" stroke-linecap="round"/><path d="M216.08943,160.31346c-0.85233,-2.7038 0.64859,-5.58661 3.35239,-6.43894c2.7038,-0.85233 5.58661,0.64859 6.43894,3.35239c0.85233,2.7038 -0.64859,5.58661 -3.35239,6.43894c-2.7038,0.85233 -5.58661,-0.64859 -6.43894,-3.35239z" fill="#ffe819" stroke-linecap="butt"/><path d="M255.35386,213.19185c4.94728,0 6.34095,2.65869 6.34095,5.93835c0,3.27966 -4.01056,5.93835 -8.95785,5.93835c-4.94728,0 -8.95785,-0.84699 -8.95785,-4.12665c0,-1.26666 3.40667,-7.75005 11.57475,-7.75005z" data-paper-data="{&quot;index&quot;:null}" fill="#ffe819" stroke-linecap="butt"/><path d="M234.99705,161.60177l5.69308,-9.90127l-11.38841,-2.48536c0,0 14.45952,-10.69466 25.07622,-10.5532c10.61669,0.14146 17.8412,11.12505 17.8412,11.12505z" data-paper-data="{&quot;index&quot;:null}" fill="#fff067" stroke-linecap="butt"/></g></g></svg>