<svg version="1.1" xmlns="http://www.w3.org/2000/svg" xmlns:xlink="http://www.w3.org/1999/xlink" width="183.12785" height="199.51887" viewBox="0,0,183.12785,199.51887"><defs><radialGradient cx="225.28754" cy="115.3821" r="18.84183" gradientUnits="userSpaceOnUse" id="color-1"><stop offset="0" stop-color="#ffffff"/><stop offset="1" stop-color="#0debff"/></radialGradient></defs><g transform="translate(-92.80112,-20.39051)"><g data-paper-data="{&quot;isPaintingLayer&quot;:true}" fill-rule="nonzero" stroke-linejoin="miter" stroke-miterlimit="10" stroke-dasharray="" stroke-dashoffset="0" style="mix-blend-mode: normal"><path d="M239.54585,182.37487l0.77429,-25.55336l7.8471,0.23776l-0.77429,25.55336z" data-paper-data="{&quot;index&quot;:null}" fill="#0debff" stroke="#000000" stroke-width="2" stroke-linecap="butt"/><path d="M273.07261,181.37016c3.10651,3.85034 1.91245,6.60446 -0.64003,8.66383c-2.55248,2.05939 -7.14,0.60751 -10.24652,-3.24283c-3.10651,-3.85034 -4.96567,-7.5035 -2.41319,-9.56289c0.98581,-0.79537 8.1708,-2.21513 13.29973,4.14189z" data-paper-data="{&quot;index&quot;:null}" fill="#0debff" stroke="#000000" stroke-width="2" stroke-linecap="butt"/><path d="M228.82678,130.26314c2.00018,-8.95118 10.87801,-14.58607 19.82918,-12.58589c8.95118,2.00018 14.58607,10.87801 12.58589,19.82918c-2.00018,8.95118 -10.87801,14.58607 -19.82918,12.58589c-8.95118,-2.00018 -14.58607,-10.87801 -12.58589,-19.82918z" fill="#0debff" stroke="#000000" stroke-width="2" stroke-linecap="butt"/><path d="M218.09386,131.01445c0,0 2.02818,-2.29495 3.71257,-3.44122c1.33439,-0.90809 5.59054,-2.88983 5.59054,-2.88983" fill="none" stroke="#000000" stroke-width="2" stroke-linecap="round"/><path d="M209.58822,136.66122c-1.14999,-2.59124 0.01837,-5.62411 2.60961,-6.7741c2.59124,-1.14999 5.62411,0.01837 6.7741,2.60961c1.14999,2.59124 -0.01837,5.62411 -2.60961,6.7741c-2.59124,1.14999 -5.62411,-0.01837 -6.7741,-2.60961z" fill="#0debff" stroke="#000000" stroke-width="2" stroke-linecap="butt"/><path d="M225.73226,135.13902l-3.78893,-20.45897l28.00546,-10.8095l10.93926,17.6991z" fill="url(#color-1)" stroke="#000000" stroke-width="2" stroke-linecap="butt"/><path d="M175.28772,122.63329c-1.49364,-1.49364 -1.49364,-3.91531 0,-5.40894c1.49364,-1.49364 3.91531,-1.49364 5.40894,0c1.49364,1.49364 1.49364,3.91531 0,5.40894c-1.49364,1.49364 -3.91531,1.49364 -5.40894,0z" fill="#0debff" stroke="#000000" stroke-width="2" stroke-linecap="butt"/><path d="M171.73042,118.81854c-1.49364,-1.49364 -1.49364,-3.91531 0,-5.40894c1.49364,-1.49364 3.91531,-1.49364 5.40894,0c1.49364,1.49364 1.49364,3.91531 0,5.40894c-1.49364,1.49364 -3.91531,1.49364 -5.40894,0z" fill="#0debff" stroke="#000000" stroke-width="2" stroke-linecap="butt"/><g fill="#76f4ff" stroke="#53acb4" stroke-width="1" stroke-linecap="butt"><path d="M93.21047,20.7514l57.25626,54.90275l17.15976,31.84736l-28.8653,-21.80612z" data-paper-data="{&quot;index&quot;:null}"/><path d="M173.61213,123.3885l-13.98687,-20.61917l4.2638,-3.65758l17.82429,17.32736z"/><path d="M171.38172,81.48533l-1.56152,16.27848l-12.76098,11.01148l-15.93057,-1.33826l17.54172,-10.16037z"/></g><path d="M242.51523,212.58343c-0.01252,4.94726 -2.67472,6.33421 -5.95437,6.32591c-3.27966,-0.0083 -5.92819,-4.02558 -5.91568,-8.97285c0.01252,-4.94726 0.86964,-8.95567 4.1493,-8.94738c1.26665,0.0032 7.74141,3.42626 7.72074,11.59432z" data-paper-data="{&quot;index&quot;:null}" fill="#0debff" stroke="#000000" stroke-width="2" stroke-linecap="butt"/></g></g></svg>