<svg version="1.1" xmlns="http://www.w3.org/2000/svg" xmlns:xlink="http://www.w3.org/1999/xlink" width="59.29042" height="82.14286" viewBox="0,0,59.29042,82.14286"><g transform="translate(-214.95928,-135.80454)"><g data-paper-data="{&quot;isPaintingLayer&quot;:true}" fill-rule="nonzero" stroke="#000000" stroke-width="2" stroke-linejoin="miter" stroke-miterlimit="10" stroke-dasharray="" stroke-dashoffset="0" style="mix-blend-mode: normal"><path d="M255.62394,189.09508c0,-2.11232 1.71238,-3.8247 3.8247,-3.8247c2.11232,0 3.8247,1.71238 3.8247,3.8247c0,2.11232 -1.71238,3.8247 -3.8247,3.8247c-2.11232,0 -3.8247,-1.71238 -3.8247,-3.8247z" fill="#ffe819" stroke-linecap="butt"/><path d="M239.42796,159.39347c1.18677,-9.09483 9.52166,-15.50556 18.61648,-14.31879c9.09483,1.18677 15.50556,9.52166 14.31879,18.61648c-1.18677,9.09483 -9.52166,15.50556 -18.61648,14.31879c-9.09483,-1.18677 -15.50556,-9.52166 -14.31879,-18.61648z" fill="#ffe819" stroke-linecap="butt"/><path d="M237.76456,203.38433l0.41239,-25.56177l7.84968,0.12664l-0.41239,25.56177z" fill="#ffe819" stroke-linecap="butt"/><path d="M219.01888,190.85308c0,-2.11232 1.71238,-3.8247 3.8247,-3.8247c2.11232,0 3.8247,1.71238 3.8247,3.8247c0,2.11232 -1.71238,3.8247 -3.8247,3.8247c-2.11232,0 -3.8247,-1.71238 -3.8247,-3.8247z" fill="#ffe819" stroke-linecap="butt"/><path d="M225.43616,152.32186c0,0 2.37427,-1.93473 4.22258,-2.79195c1.46426,-0.6791 5.98594,-1.94262 5.98594,-1.94262" fill="none" stroke-linecap="round"/><path d="M216.12574,156.51089c-0.71347,-2.74371 0.93236,-5.54632 3.67607,-6.25979c2.74371,-0.71347 5.54632,0.93236 6.25979,3.67607c0.71347,2.74371 -0.93236,5.54632 -3.67607,6.25979c-2.74371,0.71347 -5.54632,-0.93236 -6.25979,-3.67607z" fill="#ffe819" stroke-linecap="butt"/><path d="M262.86024,203.39976c4.60638,-1.80464 6.87385,0.16248 8.07019,3.21615c1.19633,3.05368 -1.56805,6.99211 -6.17446,8.79677c-4.60638,1.80464 -8.64956,2.47898 -9.84592,-0.57471c-0.46204,-1.17937 0.34491,-8.45871 7.95018,-11.43821z" data-paper-data="{&quot;index&quot;:null}" fill="#ffe819" stroke-linecap="butt"/><path d="M234.94317,158.76078l6.19011,-9.59838l-11.24701,-3.06232c0,0 14.98559,-9.94413 25.58129,-9.26199c10.5957,0.68214 17.25127,12.01952 17.25127,12.01952z" data-paper-data="{&quot;index&quot;:null}" fill="#fff067" stroke-linecap="butt"/><path d="M237.21083,197.67584c3.0232,-3.9161 5.97939,-3.3946 8.57545,-1.39044c2.59606,2.00414 2.2498,6.80345 -0.77342,10.71956c-3.0232,3.9161 -6.14446,6.57313 -8.74052,4.56899c-1.00265,-0.77404 -4.05291,-7.43253 0.93849,-13.89811z" data-paper-data="{&quot;index&quot;:null}" fill="#ffe819" stroke-linecap="butt"/></g></g></svg>