<svg version="1.1" xmlns="http://www.w3.org/2000/svg" xmlns:xlink="http://www.w3.org/1999/xlink" width="113.63357" height="96.03764" viewBox="0,0,113.63357,96.03764"><g transform="translate(-212.96714,-142.48534)"><g data-paper-data="{&quot;isPaintingLayer&quot;:true}" fill-rule="nonzero" stroke="#000000" stroke-width="2" stroke-linejoin="miter" stroke-miterlimit="10" stroke-dasharray="" stroke-dashoffset="0" style="mix-blend-mode: normal"><path d="M270.78368,187.2441c0,-2.11232 46.78486,-4.58031 49.64261,-4.58031c2.85775,0 5.17442,1.71238 5.17442,3.8247c0,2.11232 -2.31667,3.8247 -5.17442,3.8247c-2.85775,0 -49.64261,-0.95677 -49.64261,-3.06909z" fill="#ffe819" stroke-linecap="butt"/><path d="M260.73806,167.9265c0,-9.17193 7.43532,-16.60724 16.60724,-16.60724c9.17193,0 16.60724,7.43532 16.60724,16.60724c0,9.17193 -7.43532,16.60724 -16.60724,16.60724c-9.17193,0 -16.60724,-7.43532 -16.60724,-16.60724z" fill="#ffe819" stroke-linecap="butt"/><path d="M237.71968,203.44736l15.37933,-20.4218l6.27127,4.72279l-15.37933,20.4218z" fill="#ffe819" stroke-linecap="butt"/><path d="M245.94888,162.72476c0,0 2.10397,-2.22568 3.82583,-3.31485c1.36408,-0.86285 5.68426,-2.70082 5.68426,-2.70082" fill="none" stroke-linecap="round"/><path d="M237.25875,168.08327c-1.06249,-2.62833 0.20687,-5.62033 2.8352,-6.68282c2.62833,-1.06249 5.62033,0.20687 6.68282,2.8352c1.06249,2.62833 -0.20687,5.62033 -2.8352,6.68282c-2.62833,1.06249 -5.62033,-0.20687 -6.68282,-2.8352z" fill="#ffe819" stroke-linecap="butt"/><path d="M241.85981,232.57821c-1.24194,4.78886 -4.16536,5.47047 -7.34,4.64716c-3.17464,-0.82331 -4.7414,-5.37287 -3.49945,-10.16174c1.24194,-4.78886 3.06861,-8.45838 6.24325,-7.63506c1.2261,0.31798 6.64668,5.24312 4.5962,13.14964z" data-paper-data="{&quot;index&quot;:null}" fill="#ffe819" stroke-linecap="butt"/><path d="M256.20911,167.87942l4.89612,-10.31864l-11.5487,-1.5813c0,0 13.57292,-11.79955 24.16781,-12.49414c10.59489,-0.69459 18.66148,9.6863 18.66148,9.6863z" data-paper-data="{&quot;index&quot;:null}" fill="#fff067" stroke-linecap="butt"/><path d="M235.80615,192.57853c0.28196,-2.09342 2.20759,-3.5619 4.30101,-3.27993c2.09342,0.28196 3.5619,2.20759 3.27993,4.30101c-0.28196,2.09342 -2.20759,3.5619 -4.30101,3.27993c-2.09342,-0.28196 -3.5619,-2.20759 -3.27993,-4.30101z" fill="#ffe819" stroke-linecap="butt"/><path d="M221.41524,199.50115c4.11347,0 7.4481,2.47844 7.4481,5.53575c0,3.05731 -3.33463,5.53575 -7.4481,5.53575c-4.11347,0 -7.4481,-2.47844 -7.4481,-5.53575c0,-3.05731 3.33463,-5.53575 7.4481,-5.53575z" data-paper-data="{&quot;index&quot;:null}" fill="#ffe819" stroke-linecap="butt"/></g></g></svg>