<svg version="1.1" xmlns="http://www.w3.org/2000/svg" xmlns:xlink="http://www.w3.org/1999/xlink" width="91.47539" height="84.37377" viewBox="0,0,91.47539,84.37377"><g transform="translate(-182.86648,-142.8436)"><g data-paper-data="{&quot;isPaintingLayer&quot;:true}" fill-rule="nonzero" stroke="#000000" stroke-width="2" stroke-linejoin="miter" stroke-miterlimit="10" stroke-dasharray="" stroke-dashoffset="0" style="mix-blend-mode: normal"><path d="M248.30829,166.96843l-1.26174,25.53394l-7.84114,-0.38746l1.26174,-25.53395z" fill="#181818" stroke-linecap="butt"/><path d="M238.39781,186.20948l-1.60074,-6.58818l15.85338,12.09897l-6.08504,0.37954l1.50971,5.55606l-14.07423,-9.26951z" data-paper-data="{&quot;index&quot;:null}" fill="#0e0e0e" stroke-linecap="round"/><path d="M251.42643,221.19501c-2.08054,-0.36501 -3.47127,-2.34753 -3.10625,-4.42808c0.36501,-2.08054 2.34753,-3.47127 4.42808,-3.10625c2.08054,0.36501 3.47127,2.34753 3.10625,4.42808c-0.36501,2.08054 -2.34753,3.47127 -4.42808,3.10625z" fill="#181818" stroke-linecap="butt"/><path d="M250.58289,212.40755c0,0 -2.84735,1.12826 -4.86816,1.3879c-1.60092,0.20568 -6.29311,0.04612 -6.29311,0.04612" data-paper-data="{&quot;index&quot;:null}" fill="#181818" stroke-linecap="round"/><path d="M257.82854,216.94609c-2.17052,1.82369 -5.40846,1.54256 -7.23215,-0.62797c-1.82369,-2.17052 -1.54257,-5.40847 0.62797,-7.23215c2.17052,-1.82369 5.40846,-1.54256 7.23215,0.62797c1.82369,2.17052 1.54257,5.40847 -0.62797,7.23215z" data-paper-data="{&quot;index&quot;:null}" fill="#181818" stroke-linecap="butt"/><path d="M246.60803,203.3183c-3.52765,8.46642 -13.25074,12.47006 -21.71713,8.94242c-8.46642,-3.52765 -12.47006,-13.25074 -8.94242,-21.71713c3.52765,-8.46642 13.25074,-12.47006 21.71713,-8.94242c8.46642,3.52765 12.47006,13.25074 8.94242,21.71713z" fill="#181818" stroke-linecap="butt"/><path d="M235.64829,189.74427l-2.01719,4.84131c0,0 -4.74858,-4.43755 -8.49483,-5.99847c-3.74624,-1.56092 -9.40993,-1.46177 -9.40993,-1.46177l2.01719,-4.84131z" fill="#ff0000" stroke-linecap="butt"/><g><path d="M242.14235,209.12845l-4.63954,11.13501l-27.35338,-11.39715l4.63955,-11.13501z" fill="#343434" stroke-linecap="butt"/><path d="M204.86426,193.59603l47.20276,19.66767" fill="none" stroke-linecap="round"/></g><path d="M241.95053,226.21737c-2.08054,-0.36501 -3.47127,-2.34753 -3.10625,-4.42808c0.36501,-2.08054 2.34753,-3.47127 4.42808,-3.10625c2.08054,0.36501 3.47127,2.34753 3.10625,4.42808c-0.36501,2.08054 -2.34753,3.47127 -4.42808,3.10625z" fill="#181818" stroke-linecap="butt"/><path d="M202.97259,185.31482c-2.11389,4.47293 -5.11315,4.59696 -8.07835,3.19562c-2.9652,-1.40135 -3.65532,-6.16339 -1.54144,-10.63632c0.83578,-1.76849 6.94383,-17.86441 20.35351,-24.90719c20.50645,-10.77004 57.84273,-3.15294 59.63557,-2.30565c0.67399,0.31853 -30.28933,-3.30305 -48.40713,8.76888c-12.66704,8.44006 -20.52607,22.846 -21.96214,25.88468z" data-paper-data="{&quot;index&quot;:null}" fill="#181818" stroke-linecap="butt"/><path d="M194.71143,182.86771c-2.11389,4.47293 -5.11314,4.59695 -8.07834,3.19562c-2.9652,-1.40134 -3.65532,-6.16339 -1.54144,-10.63632c0.83578,-1.76849 6.94384,-17.86441 20.35351,-24.90719c20.50645,-10.77004 62.07346,-5.47985 63.8663,-4.63256c0.67399,0.31853 -34.52005,-0.97613 -52.63787,11.09579c-12.66703,8.44006 -20.52606,22.846 -21.96214,25.88468z" data-paper-data="{&quot;index&quot;:null}" fill="#181818" stroke-linecap="butt"/></g></g></svg>