<svg version="1.1" xmlns="http://www.w3.org/2000/svg" xmlns:xlink="http://www.w3.org/1999/xlink" width="72.78831" height="107.83047" viewBox="0,0,72.78831,107.83047"><g transform="translate(-217.2811,-119.0829)"><g data-paper-data="{&quot;isPaintingLayer&quot;:true}" fill-rule="nonzero" stroke="#000000" stroke-width="2" stroke-linejoin="miter" stroke-miterlimit="10" stroke-dasharray="" stroke-dashoffset="0" style="mix-blend-mode: normal"><path d="M253.7186,173.60144c0,-9.17193 7.43532,-16.60724 16.60724,-16.60724c9.17193,0 16.60724,7.43532 16.60724,16.60724c0,9.17193 -7.43532,16.60724 -16.60724,16.60724c-9.17193,0 -16.60724,-7.43532 -16.60724,-16.60724z" fill="#ff6b00" stroke-linecap="butt"/><path d="M240.95048,208.44257l13.40927,-21.76614l6.6841,4.1178l-13.40928,21.76614z" data-paper-data="{&quot;index&quot;:null}" fill="#ff6b00" stroke-linecap="butt"/><path d="M243.21451,167.55048c0,0 2.73841,-1.37169 4.72896,-1.80614c1.57696,-0.34418 6.26523,-0.59344 6.26523,-0.59344" fill="none" stroke-linecap="round"/><path d="M233.21562,169.61304c-0.0993,-2.83322 2.11697,-5.21051 4.9502,-5.30981c2.83322,-0.0993 5.2105,2.11697 5.3098,4.95019c0.0993,2.83322 -2.11697,5.21051 -4.9502,5.30981c-2.83322,0.0993 -5.2105,-2.11697 -5.3098,-4.95019z" fill="#ff6b00" stroke-linecap="butt"/><path d="M268.09279,214.19593c4.9377,0.30779 6.16326,3.04805 5.95922,6.32135c-0.20405,3.2733 -4.37224,5.67733 -9.30995,5.36954c-4.9377,-0.30779 -8.88781,-1.40266 -8.68376,-4.67596c0.0788,-1.2642 3.88224,-7.52309 12.03449,-7.01493z" data-paper-data="{&quot;index&quot;:null}" fill="#ff6b00" stroke-linecap="butt"/><path d="M249.1578,176.95714l4.22817,-12.18351l-26.62972,-21.39582l41.5955,-22.71252l4.14025,33.37304l12.53391,2.91357z" data-paper-data="{&quot;index&quot;:null}" fill="#ffa340" stroke-linecap="butt"/><path d="M248.5232,200.29629c0,-2.11232 1.71238,-3.8247 3.8247,-3.8247c2.11232,0 3.8247,1.71238 3.8247,3.8247c0,2.11232 -1.71238,3.8247 -3.8247,3.8247c-2.11232,0 -3.8247,-1.71238 -3.8247,-3.8247z" fill="#ff6b00" stroke-linecap="butt"/><path d="M281.42001,198.60106c0,-2.11232 1.71238,-3.8247 3.8247,-3.8247c2.11232,0 3.8247,1.71238 3.8247,3.8247c0,2.11232 -1.71238,3.8247 -3.8247,3.8247c-2.11232,0 -3.8247,-1.71238 -3.8247,-3.8247z" fill="#ff6b00" stroke-linecap="butt"/><path d="M228.70097,219.00359c-2.86753,4.03149 -5.84187,3.62615 -8.51443,1.7252c-2.67255,-1.90095 -2.51451,-6.71013 0.35303,-10.74162c2.86753,-4.03149 5.88233,-6.80873 8.55488,-4.90778c1.03218,0.73417 4.34086,7.26812 -0.39348,13.9242z" data-paper-data="{&quot;index&quot;:null}" fill="#ff6b00" stroke-linecap="butt"/></g></g></svg>