<svg version="1.1" xmlns="http://www.w3.org/2000/svg" xmlns:xlink="http://www.w3.org/1999/xlink" width="89.90395" height="55.17456" viewBox="0,0,89.90395,55.17456"><g transform="translate(-193.03883,-171.62594)"><g data-paper-data="{&quot;isPaintingLayer&quot;:true}" fill-rule="nonzero" stroke="#000000" stroke-width="2" stroke-linejoin="miter" stroke-miterlimit="10" stroke-dasharray="" stroke-dashoffset="0" style="mix-blend-mode: normal"><path d="M221.88657,214.03555l18.84805,-17.27207l5.30403,5.78799l-18.84806,17.27208z" fill="#ffe819" stroke-linecap="butt"/><path d="M229.50449,220.64929c0,-2.11232 1.71238,-3.8247 3.8247,-3.8247c2.11232,0 3.8247,1.71238 3.8247,3.8247c0,2.11232 -1.71238,3.8247 -3.8247,3.8247c-2.11232,0 -3.8247,-1.71238 -3.8247,-3.8247z" fill="#ffe819" stroke-linecap="butt"/><path d="M256.5042,213.19186c4.94728,0 6.34095,2.65869 6.34095,5.93835c0,3.27966 -4.01056,5.93835 -8.95785,5.93835c-4.94728,0 -8.95785,-0.84699 -8.95785,-4.12665c0,-1.26666 3.40667,-7.75005 11.57475,-7.75005z" data-paper-data="{&quot;index&quot;:null}" fill="#ffe819" stroke-linecap="butt"/><path d="M200.17819,225.8005c-4.94435,-0.17033 -6.24565,-2.87543 -6.13274,-6.15314c0.11291,-3.27772 4.21263,-5.79675 9.15699,-5.62642c4.94435,0.17033 8.92337,1.15489 8.81046,4.43261c-0.04362,1.26591 -3.67147,7.62817 -11.83472,7.34695z" data-paper-data="{&quot;index&quot;:null}" fill="#ffe819" stroke-linecap="butt"/><path d="M274.29338,196.62721c0,-2.11232 1.71238,-3.8247 3.8247,-3.8247c2.11232,0 3.8247,1.71238 3.8247,3.8247c0,2.11232 -1.71238,3.8247 -3.8247,3.8247c-2.11232,0 -3.8247,-1.71238 -3.8247,-3.8247z" fill="#ffe819" stroke-linecap="butt"/><path d="M243.57203,192.01612c3.08762,-8.6366 12.59198,-13.13494 21.22857,-10.04732c8.6366,3.08762 13.13494,12.59198 10.04732,21.22857c-3.08762,8.6366 -12.59198,13.13494 -21.22857,10.04732c-8.6366,-3.08762 -13.13494,-12.59198 -10.04732,-21.22857z" fill="#ffe819" stroke-linecap="butt"/><path d="M231.39713,182.13938c0,0 2.73042,-1.3875 4.71844,-1.83346c1.57493,-0.35329 6.26169,-0.62965 6.26169,-0.62965" fill="none" stroke-linecap="round"/><path d="M221.41033,184.25971c-0.11568,-2.8326 2.08681,-5.22265 4.91941,-5.33834c2.8326,-0.11568 5.22265,2.08681 5.33834,4.91941c0.11568,2.8326 -2.08681,5.22265 -4.91941,5.33834c-2.8326,0.11568 -5.22265,-2.08681 -5.33834,-4.91941z" fill="#ffe819" stroke-linecap="butt"/><path d="M239.32326,190.44717l8.084,-8.06817l-10.34233,-5.37673c0,0 16.7529,-6.5417 26.96324,-3.62911c10.21034,2.91259 14.31151,15.40311 14.31151,15.40311z" data-paper-data="{&quot;index&quot;:null}" fill="#fff067" stroke-linecap="butt"/></g></g></svg>