<svg version="1.1" xmlns="http://www.w3.org/2000/svg" xmlns:xlink="http://www.w3.org/1999/xlink" width="94.88259" height="98.39359" viewBox="0,0,94.88259,98.39359"><g transform="translate(-211.01564,-129.50105)"><g data-paper-data="{&quot;isPaintingLayer&quot;:true}" fill-rule="nonzero" stroke="#000000" stroke-width="2" stroke-linejoin="miter" stroke-miterlimit="10" stroke-dasharray="" stroke-dashoffset="0" style="mix-blend-mode: normal"><path d="M232.90729,202.51475c0,-2.11232 1.71238,-3.8247 3.8247,-3.8247c2.11232,0 3.8247,1.71238 3.8247,3.8247c0,2.11232 -1.71238,3.8247 -3.8247,3.8247c-2.11232,0 -3.8247,-1.71238 -3.8247,-3.8247z" fill="#1d28e8" stroke-linecap="butt"/><path d="M256.52807,169.65464c0,-9.17193 7.43532,-16.60724 16.60724,-16.60724c9.17193,0 16.60724,7.43532 16.60724,16.60724c0,9.17193 -7.43532,16.60724 -16.60724,16.60724c-9.17193,0 -16.60724,-7.43532 -16.60724,-16.60724z" fill="#1d28e8" stroke-linecap="butt"/><path d="M238.53566,203.77834l15.28757,-20.49058l6.29239,4.69461l-15.28757,20.49058z" fill="#1d28e8" stroke-linecap="butt"/><path d="M243.09991,209.12536c0,-2.11232 1.71238,-3.8247 3.8247,-3.8247c2.11232,0 3.8247,1.71238 3.8247,3.8247c0,2.11232 -1.71238,3.8247 -3.8247,3.8247c-2.11232,0 -3.8247,-1.71238 -3.8247,-3.8247z" fill="#1d28e8" stroke-linecap="butt"/><path d="M256.82169,168.0147c0,0 -4.64393,0.68989 -6.25784,0.66683c-2.03722,-0.02912 -4.99401,-0.82767 -4.99401,-0.82767" data-paper-data="{&quot;index&quot;:null}" fill="none" stroke-linecap="round"/><path d="M239.57746,161.91605c2.7962,-0.46722 5.44171,1.42079 5.90892,4.21699c0.46722,2.7962 -1.42079,5.44171 -4.21699,5.90892c-2.7962,0.46722 -5.44171,-1.42079 -5.90892,-4.21699c-0.46722,-2.7962 1.42079,-5.44171 4.21699,-5.90892z" data-paper-data="{&quot;index&quot;:null}" fill="#1d28e8" stroke-linecap="butt"/><path d="M257.57775,214.79242c4.91287,-0.58251 6.60989,1.8936 6.99604,5.15046c0.38616,3.25685 -3.28346,6.36926 -8.19635,6.95176c-4.91287,0.58251 -8.99527,0.21362 -9.38143,-3.04323c-0.14915,-1.25785 2.47047,-8.09726 10.58173,-9.05898z" data-paper-data="{&quot;index&quot;:null}" fill="#1d28e8" stroke-linecap="butt"/><path d="M256.32942,168.84954l-11.03481,-20.23016l37.07784,-17.61821l3.39948,28.30289l19.81931,-6.34473z" fill="#2530ff" stroke-linecap="round"/><path d="M219.33565,212.05871c-4.86384,0.90475 -6.72023,-1.45423 -7.32001,-4.67859c-0.59977,-3.22435 2.85693,-6.57164 7.72079,-7.4764c4.86384,-0.90475 8.96168,-0.8055 9.56145,2.41887c0.23165,1.2453 -1.93189,8.24235 -9.96223,9.73612z" data-paper-data="{&quot;index&quot;:null}" fill="#1d28e8" stroke-linecap="butt"/></g></g></svg>