<svg version="1.1" xmlns="http://www.w3.org/2000/svg" xmlns:xlink="http://www.w3.org/1999/xlink" width="84.48464" height="109.12868" viewBox="0,0,84.48464,109.12868"><g transform="translate(-185.2207,-130.6457)"><g data-paper-data="{&quot;isPaintingLayer&quot;:true}" fill-rule="nonzero" stroke="#000000" stroke-width="2" stroke-linejoin="miter" stroke-miterlimit="10" stroke-dasharray="" stroke-dashoffset="0" style="mix-blend-mode: normal"><path d="M253.35998,204.39265c-1.95876,0.79067 -4.18762,-0.15627 -4.97828,-2.11503c-0.79067,-1.95876 0.15627,-4.18762 2.11503,-4.97828c1.95876,-0.79067 4.18762,0.15627 4.97828,2.11503c0.79067,1.95876 -0.15627,4.18762 -2.11503,4.97828z" data-paper-data="{&quot;index&quot;:null}" fill="#1d28e8" stroke-linecap="butt"/><path d="M225.06173,182.34444c-8.50515,3.43315 -18.18306,-0.67852 -21.61621,-9.18368c-3.43315,-8.50515 0.67852,-18.18307 9.18368,-21.61622c8.50515,-3.43315 18.18307,0.67852 21.61622,9.18368c3.43315,8.50515 -0.67852,18.18307 -9.18368,21.61622z" data-paper-data="{&quot;index&quot;:null}" fill="#1d28e8" stroke-linecap="butt"/><path d="M242.68989,206.62157l-9.56929,-23.7066l7.27998,-2.9386l9.56929,23.7066z" data-paper-data="{&quot;index&quot;:null}" fill="#1d28e8" stroke-linecap="butt"/><path d="M227.67614,211.39728c-1.95876,0.79067 -4.18762,-0.15627 -4.97828,-2.11503c-0.79067,-1.95876 0.15627,-4.18762 2.11503,-4.97828c1.95876,-0.79067 4.18762,0.15627 4.97828,2.11503c0.79067,1.95876 -0.15627,4.18762 -2.11503,4.97828z" data-paper-data="{&quot;index&quot;:null}" fill="#1d28e8" stroke-linecap="butt"/><path d="M268.70534,227.45238c-0.67921,4.90043 -3.50406,5.91589 -6.75267,5.46564c-3.2486,-0.45027 -5.33151,-4.78785 -4.6523,-9.6883c0.67921,-4.90043 2.06879,-8.75675 5.31739,-8.30648c1.25467,0.1739 7.20897,4.43842 6.08758,12.52915z" data-paper-data="{&quot;index&quot;:null}" fill="#1d28e8" stroke-linecap="butt"/><path d="M249.91249,234.46596c-1.82335,4.59902 -4.80852,4.91471 -7.85731,3.70598c-3.0488,-1.20874 -4.04221,-5.91686 -2.21886,-10.51588c1.82335,-4.59902 4.08882,-8.01511 7.13762,-6.80638c1.1775,0.46683 5.94894,6.02318 2.93855,13.61628z" data-paper-data="{&quot;index&quot;:null}" fill="#1d28e8" stroke-linecap="butt"/><path d="M214.47036,191.12317c0,0 -2.12162,-2.20886 -3.1265,-3.98124c-0.79607,-1.40411 -2.42356,-5.80789 -2.42356,-5.80789" fill="none" stroke-linecap="round"/><path d="M219.3891,198.77118c-2.67651,0.9345 -5.60381,-0.47766 -6.53831,-3.15418c-0.9345,-2.67651 0.47766,-5.60381 3.15418,-6.53831c2.67651,-0.9345 5.60382,0.47766 6.53832,3.15417c0.9345,2.67651 -0.47767,5.60381 -3.15418,6.53832z" fill="#1d28e8" stroke-linecap="butt"/><path d="M209.34279,181.26652l-23.02235,-0.99903l4.06288,-40.84924l25.99168,11.70651l4.80298,-20.24826z" fill="#2530ff" stroke-linecap="round"/></g></g></svg>