<svg version="1.1" xmlns="http://www.w3.org/2000/svg" xmlns:xlink="http://www.w3.org/1999/xlink" width="15.51688" height="11.5577" viewBox="0,0,15.51688,11.5577"><defs><linearGradient x1="242.20357" y1="175.83385" x2="242.20357" y2="185.24128" gradientUnits="userSpaceOnUse" id="color-1"><stop offset="0" stop-color="#ff0000"/><stop offset="1" stop-color="#ff7070"/></linearGradient><linearGradient x1="237.79641" y1="176.01304" x2="237.79641" y2="185.42046" gradientUnits="userSpaceOnUse" id="color-2"><stop offset="0" stop-color="#ff0000"/><stop offset="1" stop-color="#ff7070"/></linearGradient><linearGradient x1="239.89041" y1="174.22115" x2="239.89041" y2="185.77885" gradientUnits="userSpaceOnUse" id="color-3"><stop offset="0" stop-color="#ff0000"/><stop offset="1" stop-color="#ff7070"/></linearGradient></defs><g transform="translate(-232.24156,-174.22115)"><g data-paper-data="{&quot;isPaintingLayer&quot;:true}" fill-rule="nonzero" stroke="none" stroke-width="0" stroke-linecap="butt" stroke-linejoin="miter" stroke-miterlimit="10" stroke-dasharray="" stroke-dashoffset="0" style="mix-blend-mode: normal"><path d="M247.75844,180.53756c0,2.59779 -2.487,4.70371 -5.55486,4.70371c-3.06787,0 -5.55486,-2.10592 -5.55486,-4.70371c0,-2.59779 2.487,-4.70371 5.55486,-4.70371c3.06787,0 5.55486,2.10592 5.55486,4.70371z" fill="url(#color-1)"/><path d="M243.35128,180.71675c0,2.59779 -2.487,4.70371 -5.55486,4.70371c-3.06787,0 -5.55486,-2.10592 -5.55486,-4.70371c0,-2.59779 2.487,-4.70371 5.55486,-4.70371c3.06787,0 5.55486,2.10592 5.55486,4.70371z" fill="url(#color-2)"/><path d="M239.89041,174.22115c3.06787,0 5.55486,2.58728 5.55486,5.77885c0,3.19157 -2.487,5.77885 -5.55486,5.77885c-3.06787,0 -5.55486,-2.58728 -5.55486,-5.77885c0,-3.19157 2.487,-5.77885 5.55486,-5.77885z" fill="url(#color-3)"/></g></g></svg>