<svg version="1.1" xmlns="http://www.w3.org/2000/svg" xmlns:xlink="http://www.w3.org/1999/xlink" width="94.69714" height="112.28694" viewBox="0,0,94.69714,112.28694"><g transform="translate(-185.99947,-121.79605)"><g data-paper-data="{&quot;isPaintingLayer&quot;:true}" fill-rule="nonzero" stroke="#000000" stroke-width="2" stroke-linejoin="miter" stroke-miterlimit="10" stroke-dasharray="" stroke-dashoffset="0" style="mix-blend-mode: normal"><path d="M250.15323,203.54531l-21.12444,-14.39905l4.42176,-6.48703l21.12444,14.39905z" fill="#1d28e8" stroke-linecap="butt"/><path d="M207.69587,203.89858c-1.01825,-1.85069 -0.34343,-4.17644 1.50726,-5.1947c1.85069,-1.01825 4.17644,-0.34343 5.1947,1.50726c1.01825,1.85069 0.34343,4.17644 -1.50726,5.1947c-1.85069,1.01825 -4.17644,0.34343 -5.1947,-1.50726z" fill="#1d28e8" stroke-linecap="butt"/><path d="M205.99318,161.75503c0.06656,-9.17169 7.55565,-16.55284 16.72733,-16.48628c9.17169,0.06656 16.55284,7.55565 16.48628,16.72733c-0.06656,9.17169 -7.55565,16.55284 -16.72733,16.48628c-9.17169,-0.06656 -16.55284,-7.55565 -16.48628,-16.72733z" fill="#1d28e8" stroke-linecap="butt"/><path d="M196.45706,165.29674c0,0 2.36139,-1.95043 4.20398,-2.8199c1.45973,-0.68879 5.97293,-1.98228 5.97293,-1.98228" fill="none" stroke-linecap="round"/><path d="M187.17464,169.54743c-0.73165,-2.73892 0.89554,-5.55238 3.63448,-6.28402c2.73892,-0.73165 5.55238,0.89554 6.28402,3.63448c0.73165,2.73892 -0.89554,5.55238 -3.63448,6.28402c-2.73892,0.73165 -5.55238,-0.89554 -6.28402,-3.63448z" fill="#1d28e8" stroke-linecap="butt"/><path d="M205.80036,160.94851l-10.88771,-20.30971l37.20472,-17.34867l3.19398,28.32682l19.86483,-6.20073z" fill="#2530ff" stroke-linecap="round"/><path d="M220.02311,203.24078c-1.01825,-1.85069 -0.34343,-4.17644 1.50726,-5.1947c1.85069,-1.01825 4.17644,-0.34343 5.1947,1.50726c1.01825,1.85069 0.34343,4.17644 -1.50726,5.1947c-1.85069,1.01825 -4.17644,0.34343 -5.1947,-1.50726z" fill="#1d28e8" stroke-linecap="butt"/><path d="M248.88825,225.76303c0.9047,4.86386 -1.4543,6.7202 -4.67867,7.31996c-3.22436,0.59974 -6.57162,-2.857 -7.47631,-7.72087c-0.9047,-4.86386 -0.8054,-8.96168 2.41897,-9.56143c1.2453,-0.23163 8.24234,1.932 9.73601,9.96233z" data-paper-data="{&quot;index&quot;:null}" fill="#1d28e8" stroke-linecap="butt"/><path d="M267.53574,164.95453c-1.01164,-4.84273 1.30591,-6.75063 4.51627,-7.42126c3.21035,-0.67063 6.63297,2.71152 7.64459,7.55429c1.01164,4.84273 1.00262,8.94177 -2.20775,9.61241c-1.2399,0.25901 -8.2829,-1.74995 -9.95312,-9.74544z" data-paper-data="{&quot;index&quot;:null}" fill="#1d28e8" stroke-linecap="butt"/></g></g></svg>