<svg version="1.1" xmlns="http://www.w3.org/2000/svg" xmlns:xlink="http://www.w3.org/1999/xlink" width="199.98975" height="80.1625" viewBox="0,0,199.98975,80.1625"><defs><radialGradient cx="240.27631" cy="145.0311" r="18.84183" gradientUnits="userSpaceOnUse" id="color-1"><stop offset="0" stop-color="#ffffff"/><stop offset="1" stop-color="#0debff"/></radialGradient></defs><g transform="translate(-180.28716,-137.01036)"><g data-paper-data="{&quot;isPaintingLayer&quot;:true}" fill-rule="nonzero" stroke-linejoin="miter" stroke-miterlimit="10" stroke-dasharray="" stroke-dashoffset="0" style="mix-blend-mode: normal"><g fill="#76f4ff" stroke="#53acb4" stroke-width="1" stroke-linecap="butt"><path d="M379.99876,137.47182l-65.91781,44.12974l-34.78944,9.92002l27.4963,-23.50885z" data-paper-data="{&quot;index&quot;:null}"/><path d="M262.48976,193.95577l23.14182,-9.23247l2.65657,4.9498l-20.75092,13.68728z"/><path d="M303.89423,200.7763l-15.56333,-5.02097l-8.01408,-14.82801l4.7282,-15.27148l6.15615,19.31442z"/></g><path d="M261.35039,197.77302c0.42045,-2.07005 2.4394,-3.40733 4.50946,-2.98688c2.07005,0.42045 3.40733,2.4394 2.98688,4.50946c-0.42045,2.07005 -2.4394,3.40733 -4.50946,2.98688c-2.07005,-0.42045 -3.40733,-2.4394 -2.98688,-4.50946z" fill="#0debff" stroke="#000000" stroke-width="2" stroke-linecap="butt"/><path d="M218.09493,195.66354l19.36721,-16.68786l5.12462,5.94741l-19.36721,16.68786z" data-paper-data="{&quot;index&quot;:null}" fill="#0debff" stroke="#000000" stroke-width="2" stroke-linecap="butt"/><path d="M235.11753,188.56632c0,-2.11232 1.71238,-3.8247 3.8247,-3.8247c2.11232,0 3.8247,1.71238 3.8247,3.8247c0,2.11232 -1.71238,3.8247 -3.8247,3.8247c-2.11232,0 -3.8247,-1.71238 -3.8247,-3.8247z" fill="#0debff" stroke="#000000" stroke-width="2" stroke-linecap="butt"/><path d="M205.50206,215.84578c-4.80027,1.19707 -6.79584,-1.04539 -7.58941,-4.2276c-0.79356,-3.18221 2.45451,-6.73231 7.25479,-7.92939c4.80027,-1.19707 8.8966,-1.34568 9.69017,1.83653c0.30649,1.22903 -1.43018,8.34405 -9.35556,10.32044z" data-paper-data="{&quot;index&quot;:null}" fill="#0debff" stroke="#000000" stroke-width="2" stroke-linecap="butt"/><path d="M240.38044,160.32688c3.96081,-8.27262 13.87796,-11.76803 22.15058,-7.80723c8.27262,3.96081 11.76803,13.87796 7.80723,22.15058c-3.96081,8.27262 -13.87796,11.76803 -22.15058,7.80723c-8.27262,-3.96081 -11.76803,-13.87796 -7.80723,-22.15058z" fill="#0debff" stroke="#000000" stroke-width="2" stroke-linecap="butt"/><path d="M229.75326,158.64671c0,0 2.49209,-1.7804 4.39101,-2.51877c1.50435,-0.58495 6.09701,-1.55941 6.09701,-1.55941" fill="none" stroke="#000000" stroke-width="2" stroke-linecap="round"/><path d="M220.1961,162.23734c-0.53818,-2.78341 1.28193,-5.47609 4.06534,-6.01427c2.78341,-0.53818 5.47609,1.28193 6.01427,4.06534c0.53818,2.78341 -1.28193,5.47609 -4.06534,6.01427c-2.78341,0.53818 -5.47609,-1.28193 -6.01427,-4.06534z" fill="#0debff" stroke="#000000" stroke-width="2" stroke-linecap="butt"/><path d="M236.26922,164.38251l0.90622,-20.78712l29.71843,-4.23864l6.68147,19.70491z" fill="url(#color-1)" stroke="#000000" stroke-width="2" stroke-linecap="butt"/><path d="M186.45532,197.22676c-4.83732,-1.03723 -5.64262,-3.92902 -4.95501,-7.13581c0.6876,-3.20678 5.16644,-4.96553 10.00377,-3.9283c4.83732,1.03723 8.58118,2.70623 7.89358,5.91301c-0.26556,1.23852 -4.9558,6.86358 -12.94236,5.15107z" data-paper-data="{&quot;index&quot;:null}" fill="#0debff" stroke="#000000" stroke-width="2" stroke-linecap="butt"/></g></g></svg>