<svg version="1.1" xmlns="http://www.w3.org/2000/svg" xmlns:xlink="http://www.w3.org/1999/xlink" width="36.6987" height="10.37588" viewBox="0,0,36.6987,10.37588"><defs><linearGradient x1="231.4763" y1="181.24999" x2="231.4763" y2="189.62956" gradientUnits="userSpaceOnUse" id="color-1"><stop offset="0" stop-color="#ff0000"/><stop offset="1" stop-color="#ff7070"/></linearGradient><linearGradient x1="227.06914" y1="181.4096" x2="227.06914" y2="189.78916" gradientUnits="userSpaceOnUse" id="color-2"><stop offset="0" stop-color="#ff0000"/><stop offset="1" stop-color="#ff7070"/></linearGradient><linearGradient x1="229.16314" y1="179.81349" x2="229.16314" y2="190.1084" gradientUnits="userSpaceOnUse" id="color-3"><stop offset="0" stop-color="#ff0000"/><stop offset="1" stop-color="#ff7070"/></linearGradient><linearGradient x1="252.65812" y1="181.16901" x2="252.65812" y2="189.54858" gradientUnits="userSpaceOnUse" id="color-4"><stop offset="0" stop-color="#ff0000"/><stop offset="1" stop-color="#ff7070"/></linearGradient><linearGradient x1="248.25096" y1="181.32862" x2="248.25096" y2="189.70819" gradientUnits="userSpaceOnUse" id="color-5"><stop offset="0" stop-color="#ff0000"/><stop offset="1" stop-color="#ff7070"/></linearGradient><linearGradient x1="250.34496" y1="179.73251" x2="250.34496" y2="190.02742" gradientUnits="userSpaceOnUse" id="color-6"><stop offset="0" stop-color="#ff0000"/><stop offset="1" stop-color="#ff7070"/></linearGradient></defs><g transform="translate(-221.51429,-179.73251)"><g data-paper-data="{&quot;isPaintingLayer&quot;:true}" fill-rule="nonzero" stroke="none" stroke-width="0" stroke-linecap="butt" stroke-linejoin="miter" stroke-miterlimit="10" stroke-dasharray="" stroke-dashoffset="0" style="mix-blend-mode: normal"><path d="M237.03117,185.43977c0,2.31396 -2.487,4.18978 -5.55486,4.18978c-3.06787,0 -5.55486,-1.87583 -5.55486,-4.18978c0,-2.31396 2.487,-4.18978 5.55486,-4.18978c3.06787,0 5.55486,1.87583 5.55486,4.18978z" fill="url(#color-1)"/><path d="M232.62401,185.59938c0,2.31396 -2.487,4.18978 -5.55486,4.18978c-3.06787,0 -5.55486,-1.87583 -5.55486,-4.18978c0,-2.31396 2.487,-4.18978 5.55486,-4.18978c3.06787,0 5.55486,1.87583 5.55486,4.18978z" fill="url(#color-2)"/><path d="M229.16314,179.81349c3.06787,0 5.55486,2.30459 5.55486,5.14745c0,2.84286 -2.487,5.14745 -5.55486,5.14745c-3.06787,0 -5.55486,-2.30459 -5.55486,-5.14745c0,-2.84286 2.487,-5.14745 5.55486,-5.14745z" fill="url(#color-3)"/><path d="M258.21299,185.35879c0,2.31396 -2.487,4.18978 -5.55486,4.18978c-3.06787,0 -5.55486,-1.87583 -5.55486,-4.18978c0,-2.31396 2.487,-4.18978 5.55486,-4.18978c3.06787,0 5.55486,1.87583 5.55486,4.18978z" fill="url(#color-4)"/><path d="M253.80583,185.5184c0,2.31396 -2.487,4.18978 -5.55486,4.18978c-3.06787,0 -5.55486,-1.87583 -5.55486,-4.18978c0,-2.31396 2.487,-4.18978 5.55486,-4.18978c3.06787,0 5.55486,1.87583 5.55486,4.18978z" fill="url(#color-5)"/><path d="M250.34496,179.73251c3.06787,0 5.55486,2.30459 5.55486,5.14745c0,2.84286 -2.487,5.14745 -5.55486,5.14745c-3.06787,0 -5.55486,-2.30459 -5.55486,-5.14745c0,-2.84286 2.487,-5.14745 5.55486,-5.14745z" fill="url(#color-6)"/></g></g></svg>