<svg version="1.1" xmlns="http://www.w3.org/2000/svg" xmlns:xlink="http://www.w3.org/1999/xlink" width="177.45195" height="99.81716" viewBox="0,0,177.45195,99.81716"><defs><radialGradient cx="251.56351" cy="145.41722" r="18.84183" gradientUnits="userSpaceOnUse" id="color-1"><stop offset="0" stop-color="#ffffff"/><stop offset="1" stop-color="#0debff"/></radialGradient></defs><g transform="translate(-108.32035,-139.39362)"><g data-paper-data="{&quot;isPaintingLayer&quot;:true}" fill-rule="nonzero" stroke-linejoin="miter" stroke-miterlimit="10" stroke-dasharray="" stroke-dashoffset="0" style="mix-blend-mode: normal"><path d="M217.11348,188.84194c0,-2.11232 1.71238,-3.8247 3.8247,-3.8247c2.11232,0 3.8247,1.71238 3.8247,3.8247c0,2.11232 -1.71238,3.8247 -3.8247,3.8247c-2.11232,0 -3.8247,-1.71238 -3.8247,-3.8247z" fill="#0debff" stroke="#000000" stroke-width="2" stroke-linecap="butt"/><path d="M238.91684,206.28733l7.80961,-24.34304l7.47542,2.39822l-7.80961,24.34304z" data-paper-data="{&quot;index&quot;:null}" fill="#0debff" stroke="#000000" stroke-width="2" stroke-linecap="butt"/><path d="M226.81496,188.35772c0,-2.11232 1.71238,-3.8247 3.8247,-3.8247c2.11232,0 3.8247,1.71238 3.8247,3.8247c0,2.11232 -1.71238,3.8247 -3.8247,3.8247c-2.11232,0 -3.8247,-1.71238 -3.8247,-3.8247z" fill="#0debff" stroke="#000000" stroke-width="2" stroke-linecap="butt"/><path d="M222.88335,215.61447c4.11347,0 7.4481,2.47844 7.4481,5.53575c0,3.05731 -3.33463,5.53575 -7.4481,5.53575c-4.11347,0 -7.4481,-2.47844 -7.4481,-5.53575c0,-3.05731 3.33463,-5.53575 7.4481,-5.53575z" data-paper-data="{&quot;index&quot;:null}" fill="#0debff" stroke="#000000" stroke-width="2" stroke-linecap="butt"/><path d="M275.0003,212.74483c3.57011,3.42489 2.73528,6.30829 0.46485,8.675c-2.27044,2.36671 -7.00513,1.50888 -10.57526,-1.91601c-3.57011,-3.42489 -5.87792,-6.81252 -3.60748,-9.17923c0.87688,-0.91407 7.82354,-3.23433 13.71789,2.42026z" data-paper-data="{&quot;index&quot;:null}" fill="#0debff" stroke="#000000" stroke-width="2" stroke-linecap="butt"/><path d="M251.24438,160.71003c4.18819,-8.15986 14.19825,-11.37954 22.35812,-7.19136c8.15986,4.18819 11.37954,14.19825 7.19136,22.35812c-4.18819,8.15986 -14.19825,11.37954 -22.35812,7.19136c-8.15986,-4.18819 -11.37954,-14.19825 -7.19136,-22.35812z" fill="#0debff" stroke="#000000" stroke-width="2" stroke-linecap="butt"/><path d="M241.2848,163.87358c0,0 2.83621,-1.15597 4.85439,-1.43528c1.59883,-0.22128 6.29236,-0.10748 6.29236,-0.10748" fill="none" stroke="#000000" stroke-width="2" stroke-linecap="round"/><path d="M231.15642,165.15722c0.11995,-2.83242 2.51331,-5.03132 5.34574,-4.91137c2.83242,0.11995 5.03132,2.51331 4.91137,5.34574c-0.11995,2.83242 -2.51331,5.03132 -5.34574,4.91137c-2.83242,-0.11995 -5.03132,-2.51331 -4.91137,-5.34574z" fill="#0debff" stroke="#000000" stroke-width="2" stroke-linecap="butt"/><path d="M247.02252,164.65036l1.48103,-20.75408l29.82434,-3.41473l6.13369,19.88223z" fill="url(#color-1)" stroke="#000000" stroke-width="2" stroke-linecap="butt"/><g fill="#76f4ff" stroke="#53acb4" stroke-width="1" stroke-linecap="butt"><path d="M108.55388,238.73184l70.14212,-37.04961l35.63118,-6.25555l-29.78784,20.52796z" data-paper-data="{&quot;index&quot;:null}"/><path d="M231.29081,194.74952l-23.97509,6.78066l-2.12848,-5.1988l22.05948,-11.45956z"/><path d="M190.81789,183.66833l14.95813,6.60921l6.43176,15.57972l-6.28773,14.69826l-4.1182,-19.84907z"/></g></g></g></svg>