<svg version="1.1" xmlns="http://www.w3.org/2000/svg" xmlns:xlink="http://www.w3.org/1999/xlink" width="93.9514" height="83.02491" viewBox="0,0,93.9514,83.02491"><g transform="translate(-214.36603,-148.98333)"><g data-paper-data="{&quot;isPaintingLayer&quot;:true}" fill-rule="nonzero" stroke="#000000" stroke-width="2" stroke-linejoin="miter" stroke-miterlimit="10" stroke-dasharray="" stroke-dashoffset="0" style="mix-blend-mode: normal"><path d="M229.75129,207.4911l-3.24234,-25.35865l7.78731,-0.99568l3.24234,25.35865z" fill="#ff6b00" stroke-linecap="butt"/><path d="M270.45377,197.02732c1.70849,1.24216 2.08653,3.63413 0.84439,5.34263c-1.24216,1.70849 -3.63413,2.08653 -5.34263,0.84439c-1.70849,-1.24216 -2.08653,-3.63413 -0.84439,-5.34263c1.24216,-1.70849 3.63413,-2.08653 5.34263,-0.84439z" fill="#ff6b00" stroke-linecap="butt"/><path d="M221.99458,166.59057c0,-9.17193 7.43532,-16.60724 16.60724,-16.60724c9.17193,0 16.60724,7.43532 16.60724,16.60724c0,9.17193 -7.43532,16.60724 -16.60724,16.60724c-9.17193,0 -16.60724,-7.43532 -16.60724,-16.60724z" fill="#ff6b00" stroke-linecap="butt"/><path d="M222.81413,215.01801c4.11347,0 7.4481,2.47844 7.4481,5.53575c0,3.05731 -3.33463,5.53575 -7.4481,5.53575c-4.11347,0 -7.4481,-2.47844 -7.4481,-5.53575c0,-3.05731 3.33463,-5.53575 7.4481,-5.53575z" data-paper-data="{&quot;index&quot;:null}" fill="#ff6b00" stroke-linecap="butt"/><path d="M279.13325,178.40429c0,0 -1.47403,2.6847 -2.8652,4.17323c-1.1021,1.17924 -4.81845,4.04819 -4.81845,4.04819" fill="none" stroke-linecap="round"/><path d="M286.18938,171.02573c1.69152,2.27502 1.21852,5.49055 -1.0565,7.18207c-2.27502,1.69152 -5.49055,1.21852 -7.18207,-1.0565c-1.69152,-2.27502 -1.21852,-5.49055 1.0565,-7.18207c2.27502,-1.69152 5.49055,-1.21852 7.18207,1.0565z" fill="#ff6b00" stroke-linecap="butt"/><path d="M255.84353,213.99604c4.94301,-0.20549 6.44591,2.39302 6.58214,5.66985c0.13622,3.27683 -3.76044,6.0998 -8.70347,6.30531c-4.94301,0.20549 -8.9853,-0.47417 -9.12152,-3.75101c-0.05261,-1.26556 3.08182,-7.88486 11.24285,-8.22413z" data-paper-data="{&quot;index&quot;:null}" fill="#ff6b00" stroke-linecap="butt"/><path d="M272.57393,172.81655l0.89145,12.19847l33.10769,10.6346l-29.96848,34.70531l-19.90241,-30.13209l-13.66502,0.3425z" data-paper-data="{&quot;index&quot;:null}" fill="#ffa340" stroke-linecap="butt"/><path d="M261.91345,178.68304c1.70849,1.24216 2.08653,3.63413 0.84439,5.34263c-1.24216,1.70849 -3.63413,2.08653 -5.34263,0.84439c-1.70849,-1.24216 -2.08653,-3.63413 -0.84439,-5.34263c1.24216,-1.70849 3.63413,-2.08653 5.34263,-0.84439z" fill="#ff6b00" stroke-linecap="butt"/></g></g></svg>