<svg version="1.1" xmlns="http://www.w3.org/2000/svg" xmlns:xlink="http://www.w3.org/1999/xlink" width="151.44503" height="111.52484" viewBox="0,0,151.44503,111.52484"><defs><radialGradient cx="256.6977" cy="147.46508" r="18.84183" gradientUnits="userSpaceOnUse" id="color-1"><stop offset="0" stop-color="#ffffff"/><stop offset="1" stop-color="#0debff"/></radialGradient></defs><g transform="translate(-214.43525,-116.16113)"><g data-paper-data="{&quot;isPaintingLayer&quot;:true}" fill-rule="nonzero" stroke-linejoin="miter" stroke-miterlimit="10" stroke-dasharray="" stroke-dashoffset="0" style="mix-blend-mode: normal"><g fill="#76f4ff" stroke="#53acb4" stroke-width="1" stroke-linecap="butt"><path d="M365.53816,116.58507l-57.8483,54.27859l-32.70869,15.45488l23.29929,-27.67409z" data-paper-data="{&quot;index&quot;:null}"/><path d="M258.80039,191.45729l21.32867,-12.87906l3.42743,4.45091l-18.244,16.88488z"/><path d="M300.76287,191.44172l-16.17337,-2.41855l-10.32259,-13.3244l2.17724,-15.83773l9.22033,18.05354z"/></g><path d="M258.2981,195.40916c0.07761,-2.11089 1.85175,-3.7592 3.96264,-3.68159c2.11089,0.07761 3.7592,1.85175 3.68159,3.96264c-0.07761,2.11089 -1.85175,3.7592 -3.96264,3.68159c-2.11089,-0.07761 -3.7592,-1.85175 -3.68159,-3.96264z" fill="#0debff" stroke="#000000" stroke-width="2" stroke-linecap="butt"/><path d="M236.6425,207.91909l11.75963,-22.69988l6.97083,3.61122l-11.75963,22.69988z" data-paper-data="{&quot;index&quot;:null}" fill="#0debff" stroke="#000000" stroke-width="2" stroke-linecap="butt"/><path d="M219.84077,189.27556c0,-2.11232 1.71238,-3.8247 3.8247,-3.8247c2.11232,0 3.8247,1.71238 3.8247,3.8247c0,2.11232 -1.71238,3.8247 -3.8247,3.8247c-2.11232,0 -3.8247,-1.71238 -3.8247,-3.8247z" fill="#0debff" stroke="#000000" stroke-width="2" stroke-linecap="butt"/><path d="M222.88336,215.61448c4.11347,0 7.4481,2.47844 7.4481,5.53575c0,3.05731 -3.33463,5.53575 -7.4481,5.53575c-4.11347,0 -7.4481,-2.47844 -7.4481,-5.53575c0,-3.05731 3.33463,-5.53575 7.4481,-5.53575z" data-paper-data="{&quot;index&quot;:null}" fill="#0debff" stroke="#000000" stroke-width="2" stroke-linecap="butt"/><path d="M262.7249,213.49501c4.74209,-1.41001 6.83571,0.7412 7.77044,3.88484c0.93473,3.14364 -2.15175,6.8351 -6.89385,8.24512c-4.74209,1.41001 -8.82772,1.7412 -9.76245,-1.40244c-0.36101,-1.21413 1.05655,-8.39955 8.88587,-10.72751z" data-paper-data="{&quot;index&quot;:null}" fill="#0debff" stroke="#000000" stroke-width="2" stroke-linecap="butt"/><path d="M254.42692,162.59173c5.1966,-7.55775 15.53604,-9.47184 23.09379,-4.27525c7.55775,5.1966 9.47184,15.53604 4.27525,23.09379c-5.1966,7.55775 -15.53604,9.47184 -23.09379,4.27525c-7.55775,-5.1966 -9.47184,-15.53604 -4.27525,-23.09379z" fill="#0debff" stroke="#000000" stroke-width="2" stroke-linecap="butt"/><path d="M244.18921,159.28275c0,0 2.73819,-1.3721 4.72869,-1.80684c1.5769,-0.34441 6.26514,-0.59436 6.26514,-0.59436" fill="none" stroke="#000000" stroke-width="2" stroke-linecap="round"/><path d="M234.19063,161.34677c-0.09972,-2.83321 2.1162,-5.21082 4.94941,-5.31054c2.83321,-0.09972 5.21082,2.1162 5.31054,4.94941c0.09972,2.83321 -2.1162,5.21082 -4.94941,5.31054c-2.83321,0.09972 -5.21082,-2.1162 -5.31054,-4.94941z" fill="#0debff" stroke="#000000" stroke-width="2" stroke-linecap="butt"/><path d="M249.73614,165.96024l4.12106,-20.39467l30.01618,0.42452l3.54265,20.50305z" fill="url(#color-1)" stroke="#000000" stroke-width="2" stroke-linecap="butt"/></g></g></svg>