<svg version="1.1" xmlns="http://www.w3.org/2000/svg" xmlns:xlink="http://www.w3.org/1999/xlink" width="113.29924" height="78.06159" viewBox="0,0,113.29924,78.06159"><g transform="translate(-183.78109,-146.67636)"><g data-paper-data="{&quot;isPaintingLayer&quot;:true}" fill-rule="nonzero" stroke="#000000" stroke-width="2" stroke-linejoin="miter" stroke-miterlimit="10" stroke-dasharray="" stroke-dashoffset="0" style="mix-blend-mode: normal"><path d="M214.30942,183.89774c-9.16761,-0.28111 -16.37155,-7.94081 -16.09045,-17.10843c0.28111,-9.16761 7.94081,-16.37155 17.10843,-16.09045c9.16761,0.28111 16.37155,7.94081 16.09045,17.10843c-0.28111,9.16761 -7.94081,16.37155 -17.10843,16.09045z" data-paper-data="{&quot;index&quot;:null}" fill="#181818" stroke-linecap="butt"/><g data-paper-data="{&quot;index&quot;:null}"><path d="M200.12937,159.76378l0.36971,-12.05724l29.61888,0.90821l-0.36971,12.05724z" fill="#343434" stroke-linecap="butt"/><path d="M240.49492,161.00151l-51.11224,-1.56725" fill="none" stroke-linecap="round"/></g><path d="M282.69476,211.36527c-0.74823,-1.02203 -1.82934,-8.26573 4.76131,-13.09078c3.99185,-2.92246 6.68691,-1.60049 8.62427,1.04579c1.93735,2.64629 0.27185,7.16063 -3.71999,10.08309c-3.99185,2.92246 -7.72823,4.60815 -9.66559,1.96188z" data-paper-data="{&quot;index&quot;:null}" fill="#181818" stroke-linecap="butt"/><path d="M198.5945,201.22209c0.92534,-1.89886 3.21481,-2.68804 5.11367,-1.76271c1.89886,0.92534 2.68804,3.21481 1.76271,5.11367c-0.92534,1.89886 -3.21481,2.68804 -5.11367,1.76271c-1.89886,-0.92534 -2.68804,-3.21481 -1.76271,-5.11367z" fill="#181818" stroke-linecap="butt"/><path d="M195.20413,153.02448c0,0 3.05202,-0.25591 5.0615,0.0804c1.59193,0.26643 6.03714,1.77714 6.03714,1.77714" data-paper-data="{&quot;index&quot;:null}" fill="#181818" stroke-linecap="round"/><path d="M184.78109,151.20805c0.96061,-2.66726 3.90156,-4.0508 6.56881,-3.09018c2.66726,0.96061 4.0508,3.90156 3.09017,6.56882c-0.96061,2.66726 -3.90155,4.0508 -6.56881,3.09018c-2.66726,-0.96061 -4.0508,-3.90156 -3.09018,-6.56881z" data-paper-data="{&quot;index&quot;:null}" fill="#181818" stroke-linecap="butt"/><path d="M240.93492,170.51701c0.92534,-1.89886 3.21481,-2.68804 5.11367,-1.76271c1.89886,0.92534 2.68804,3.21481 1.76271,5.11367c-0.92534,1.89886 -3.21481,2.68804 -5.11367,1.76271c-1.89886,-0.92534 -2.68804,-3.21481 -1.76271,-5.11367z" fill="#181818" stroke-linecap="butt"/><path d="M244.37692,215.27897c2.47013,4.2865 0.86237,6.82147 -1.97924,8.45897c-2.84161,1.63749 -7.14762,-0.50995 -9.61775,-4.79646c-2.47013,-4.2865 -3.73868,-8.18429 -0.89707,-9.82179c1.09747,-0.63244 8.41583,-0.91786 12.49405,6.15928z" data-paper-data="{&quot;index&quot;:null}" fill="#181818" stroke-linecap="butt"/><g data-paper-data="{&quot;index&quot;:null}" fill="#181818" stroke-linecap="butt"><path d="M241.81711,198.60811c-1.75397,2.95307 -3.87134,2.08509 -3.87134,2.08509l-12.08299,-6.25188c0,0 2.62204,-1.46703 3.30398,-2.63795c0.63165,-1.08456 0.64838,-4.14833 0.64838,-4.14833l12.08299,6.25186c0,0 1.98321,1.22579 -0.08098,4.7012z"/><path d="M229.08754,191.84906c-1.13901,1.90912 -3.069,2.88732 -4.31071,2.18485c-1.24173,-0.70248 -1.32497,-2.81959 -0.18596,-4.72872c1.13901,-1.90912 3.06899,-2.8873 4.3107,-2.18484c1.24173,0.70248 1.32497,2.81959 0.18596,4.72872z"/></g><path d="M219.57362,193.90459l9.64208,-13.82166l0.65467,5.72018l5.79313,-1.90038l-8.10968,13.32009l-3.08976,-2.92399z" data-paper-data="{&quot;index&quot;:null}" fill="#0e0e0e" stroke-linecap="round"/><path d="M223.9201,172.26613l-0.64514,-5.4347l10.94104,-0.19383l-0.16082,5.24471z" data-paper-data="{&quot;index&quot;:null}" fill="#ff0000" stroke-linecap="butt"/></g></g></svg>