<svg version="1.1" xmlns="http://www.w3.org/2000/svg" xmlns:xlink="http://www.w3.org/1999/xlink" width="73.0987" height="114.98494" viewBox="0,0,73.0987,114.98494"><g transform="translate(-200.63535,-100.55939)"><g data-paper-data="{&quot;isPaintingLayer&quot;:true}" fill-rule="nonzero" stroke="#000000" stroke-width="2" stroke-linejoin="miter" stroke-miterlimit="10" stroke-dasharray="" stroke-dashoffset="0" style="mix-blend-mode: normal"><path d="M255.88796,185.12043c0,-2.11232 1.71238,-3.8247 3.8247,-3.8247c2.11232,0 3.8247,1.71238 3.8247,3.8247c0,2.11232 -1.71238,3.8247 -3.8247,3.8247c-2.11232,0 -3.8247,-1.71238 -3.8247,-3.8247z" fill="#ff6b00" stroke-linecap="butt"/><path d="M229.39257,155.07794c0,-9.17193 7.43532,-16.60724 16.60724,-16.60724c9.17193,0 16.60724,7.43532 16.60724,16.60724c0,9.17193 -7.43532,16.60724 -16.60724,16.60724c-9.17193,0 -16.60724,-7.43532 -16.60724,-16.60724z" fill="#ff6b00" stroke-linecap="butt"/><path d="M237.62027,198.75644l1.50916,-25.52049l7.837,0.46343l-1.50916,25.5205z" data-paper-data="{&quot;index&quot;:null}" fill="#ff6b00" stroke-linecap="butt"/><path d="M224.3099,190.11762c0,-2.11232 1.71238,-3.8247 3.8247,-3.8247c2.11232,0 3.8247,1.71238 3.8247,3.8247c0,2.11232 -1.71238,3.8247 -3.8247,3.8247c-2.11232,0 -3.8247,-1.71238 -3.8247,-3.8247z" fill="#ff6b00" stroke-linecap="butt"/><path d="M218.88848,149.02698c0,0 2.73841,-1.37169 4.72896,-1.80614c1.57696,-0.34418 6.26523,-0.59344 6.26523,-0.59344" fill="none" stroke-linecap="round"/><path d="M208.88959,151.08953c-0.0993,-2.83322 2.11697,-5.21051 4.9502,-5.30981c2.83322,-0.0993 5.2105,2.11697 5.3098,4.95019c0.0993,2.83322 -2.11697,5.21051 -4.9502,5.30981c-2.83322,0.0993 -5.2105,-2.11697 -5.3098,-4.95019z" fill="#ff6b00" stroke-linecap="butt"/><path d="M264.31703,200.44931c4.3358,-2.38253 6.8376,-0.7236 8.41702,2.15069c1.57942,2.8743 -0.65506,7.13579 -4.99087,9.51832c-4.3358,2.38253 -8.25856,3.57164 -9.83798,0.69734c-0.60999,-1.1101 -0.74668,-8.43274 6.41183,-12.36635z" data-paper-data="{&quot;index&quot;:null}" fill="#ff6b00" stroke-linecap="butt"/><path d="M224.83177,158.43363l4.22817,-12.18351l-26.62972,-21.39582l41.5955,-22.71252l4.14025,33.37304l12.53391,2.91357z" data-paper-data="{&quot;index&quot;:null}" fill="#ffa340" stroke-linecap="butt"/><path d="M219.65379,212.17208c-3.46558,3.53063 -6.33923,2.66281 -8.67976,0.36539c-2.34053,-2.2974 -1.4285,-7.02196 2.03708,-10.55261c3.46558,-3.53063 6.87945,-5.79946 9.21997,-3.50205c0.90395,0.8873 3.14445,7.8601 -2.5773,13.68926z" data-paper-data="{&quot;index&quot;:null}" fill="#ff6b00" stroke-linecap="butt"/></g></g></svg>