<svg version="1.1" xmlns="http://www.w3.org/2000/svg" xmlns:xlink="http://www.w3.org/1999/xlink" width="60.46845" height="78.05581" viewBox="0,0,60.46845,78.05581"><g transform="translate(-216.54013,-143.38402)"><g data-paper-data="{&quot;isPaintingLayer&quot;:true}" fill-rule="nonzero" stroke="#000000" stroke-width="2" stroke-linejoin="miter" stroke-miterlimit="10" stroke-dasharray="" stroke-dashoffset="0" style="mix-blend-mode: normal"><path d="M232.21547,205.02155l7.46595,-24.45063l7.50847,2.2927l-7.46595,24.45063z" fill="#2d6a2b" stroke-linecap="butt"/><path d="M217.54013,186.28001c0,-2.11232 1.71238,-3.8247 3.8247,-3.8247c2.11232,0 3.8247,1.71238 3.8247,3.8247c0,2.11232 -1.71238,3.8247 -3.8247,3.8247c-2.11232,0 -3.8247,-1.71238 -3.8247,-3.8247z" fill="#2d6a2b" stroke-linecap="butt"/><path d="M262.05807,187.25351c0,-2.11232 1.71238,-3.8247 3.8247,-3.8247c2.11232,0 3.8247,1.71238 3.8247,3.8247c0,2.11232 -1.71238,3.8247 -3.8247,3.8247c-2.11232,0 -3.8247,-1.71238 -3.8247,-3.8247z" fill="#2d6a2b" stroke-linecap="butt"/><path d="M259.71843,205.16546c4.24453,-2.54157 6.80608,-0.97651 8.49094,1.83728c1.68486,2.81379 -0.39017,7.15517 -4.6347,9.69673c-4.24453,2.54157 -8.12053,3.87524 -9.80539,1.06145c-0.65072,-1.08673 -1.05867,-8.39928 5.94915,-12.59547z" data-paper-data="{&quot;index&quot;:null}" fill="#2d6a2b" stroke-linecap="butt"/><path d="M238.38248,163.20994c2.47085,-8.83285 11.6343,-13.99026 20.46714,-11.51941c8.83285,2.47085 13.99026,11.6343 11.51941,20.46714c-2.47085,8.83285 -11.6343,13.99026 -20.46714,11.51941c-8.83285,-2.47085 -13.99026,-11.6343 -11.51941,-20.46714z" fill="#2d6a2b" stroke-linecap="butt"/><path d="M251.93652,147.91452c15.78981,-1.35063 23.33352,9.71188 23.33352,9.71188l-40.62103,5.47978c0,0 0.31088,-13.7395 17.28751,-15.19166z" fill="#367e33" stroke-linecap="round"/><path d="M232.07004,149.19929c0,0 3.02527,-0.47759 5.05391,-0.28857c1.60711,0.14975 6.15057,1.33257 6.15057,1.33257" fill="none" stroke-linecap="round"/><path d="M221.9162,148.13565c0.76372,-2.73015 3.59606,-4.32427 6.32621,-3.56055c2.73015,0.76372 4.32427,3.59606 3.56055,6.32621c-0.76372,2.73015 -3.59606,4.32427 -6.32621,3.56055c-2.73015,-0.76372 -4.32427,-3.59606 -3.56055,-6.32621z" fill="#2d6a2b" stroke-linecap="butt"/><path d="M238.31731,207.0795c4.67777,-1.6106 6.86106,0.44955 7.92876,3.55054c1.0677,3.101 -1.85885,6.9205 -6.53662,8.5311c-4.67777,1.6106 -8.7456,2.11539 -9.8133,-0.9856c-0.41236,-1.19766 0.69805,-8.43691 8.42116,-11.09604z" data-paper-data="{&quot;index&quot;:null}" fill="#2d6a2b" stroke-linecap="butt"/></g></g></svg>