<svg version="1.1" xmlns="http://www.w3.org/2000/svg" xmlns:xlink="http://www.w3.org/1999/xlink" width="109.68297" height="50.42477" viewBox="0,0,109.68297,50.42477"><g transform="translate(-197.15729,-180.4823)"><g data-paper-data="{&quot;isPaintingLayer&quot;:true}" fill-rule="nonzero" stroke="#000000" stroke-width="2" stroke-linejoin="miter" stroke-miterlimit="10" stroke-dasharray="" stroke-dashoffset="0" style="mix-blend-mode: normal"><path d="M268.45604,187.4078c0,0 3.05779,0.17382 5.00042,0.78809c1.53896,0.48665 5.72895,2.6047 5.72895,2.6047" fill="none" stroke-linecap="round"/><path d="M258.75764,184.21828c1.32449,-2.50653 4.43016,-3.46478 6.9367,-2.14028c2.50654,1.3245 3.46478,4.43016 2.14027,6.93669c-1.32449,2.50653 -4.43016,3.46478 -6.93669,2.14029c-2.50654,-1.3245 -3.46478,-4.43016 -2.14028,-6.9367z" fill="#e80000" stroke-linecap="butt"/><path d="M274.53165,193.97387c7.00407,-5.92177 17.48252,-5.04436 23.40428,1.9597c5.92176,7.00406 5.04436,17.48252 -1.9597,23.40428c-7.00407,5.92177 -17.48252,5.04437 -23.40428,-1.9597c-5.92176,-7.00406 -5.04437,-17.48253 1.9597,-23.40428z" fill="#e80000" stroke-linecap="butt"/><path d="M237.1799,215.73129l25.4932,-1.91598l0.58836,7.82862l-25.49319,1.91597z" fill="#e80000" stroke-linecap="butt"/><path d="M237.65653,210.02456c2.09914,-0.23564 3.99185,1.27504 4.22749,3.37416c0.23564,2.09914 -1.27504,3.99185 -3.37416,4.22749c-2.09914,0.23564 -3.99185,-1.27504 -4.22749,-3.37417c-0.23564,-2.09914 1.27504,-3.99185 3.37417,-4.22749z" fill="#e80000" stroke-linecap="butt"/><path d="M259.23781,219.83566c2.09914,-0.23564 3.99185,1.27504 4.22749,3.37416c0.23563,2.09914 -1.27504,3.99185 -3.37417,4.22749c-2.09914,0.23564 -3.99185,-1.27504 -4.22749,-3.37417c-0.23564,-2.09914 1.27504,-3.99185 3.37416,-4.22749z" fill="#e80000" stroke-linecap="butt"/><path d="M203.18229,226.36686c-4.80733,-1.16837 -5.5337,-4.08098 -4.75917,-7.26786c0.77453,-3.18689 5.29953,-4.82322 10.10688,-3.65487c4.80733,1.16837 8.50443,2.93855 7.7299,6.12544c-0.29913,1.23082 -5.14059,6.72629 -13.07762,4.7973z" data-paper-data="{&quot;index&quot;:null}" fill="#e80000" stroke-linecap="butt"/><path d="M274.96502,192.19875l3.24033,-4.56731l27.24069,19.32627l-3.24032,4.5673z" fill="#ff2121" stroke-linecap="butt"/><path d="M225.2108,229.90486c-4.94646,0.08935 -6.38792,-2.54374 -6.44716,-5.82287c-0.05923,-3.27913 3.90266,-6.0098 8.84915,-6.09915c4.94646,-0.08935 8.97168,0.68508 9.03091,3.9642c0.02287,1.26646 -3.26616,7.8103 -11.4329,7.95782z" data-paper-data="{&quot;index&quot;:null}" fill="#e80000" stroke-linecap="butt"/></g></g></svg>