<svg version="1.1" xmlns="http://www.w3.org/2000/svg" xmlns:xlink="http://www.w3.org/1999/xlink" width="72.41061" height="92.88655" viewBox="0,0,72.41061,92.88655"><g transform="translate(-212.46087,-134.27379)"><g data-paper-data="{&quot;isPaintingLayer&quot;:true}" fill-rule="nonzero" stroke="#000000" stroke-width="2" stroke-linejoin="miter" stroke-miterlimit="10" stroke-dasharray="" stroke-dashoffset="0" style="mix-blend-mode: normal"><path d="M228.80246,206.0349l2.84437,-25.40637l7.80196,0.87347l-2.84437,25.40637z" fill="#1d28e8" stroke-linecap="butt"/><path d="M215.4344,196.06459c0,-2.11232 1.71238,-3.8247 3.8247,-3.8247c2.11232,0 3.8247,1.71238 3.8247,3.8247c0,2.11232 -1.71238,3.8247 -3.8247,3.8247c-2.11232,0 -3.8247,-1.71238 -3.8247,-3.8247z" fill="#1d28e8" stroke-linecap="butt"/><path d="M229.28717,214.68624c4.11347,0 7.4481,2.47844 7.4481,5.53575c0,3.05731 -3.33463,5.53575 -7.4481,5.53575c-4.11347,0 -7.4481,-2.47844 -7.4481,-5.53575c0,-3.05731 3.33463,-5.53575 7.4481,-5.53575z" data-paper-data="{&quot;index&quot;:null}" fill="#1d28e8" stroke-linecap="butt"/><path d="M255.35551,214.28364c4.94728,0 6.34095,2.65869 6.34095,5.93835c0,3.27966 -4.01056,5.93835 -8.95785,5.93835c-4.94728,0 -8.95785,-0.84699 -8.95785,-4.12665c0,-1.26666 3.40667,-7.75005 11.57475,-7.75005z" data-paper-data="{&quot;index&quot;:null}" fill="#1d28e8" stroke-linecap="butt"/><path d="M233.70495,159.18422c4.47959,-8.0036 14.5992,-10.86037 22.6028,-6.38079c8.0036,4.47959 10.86037,14.5992 6.38079,22.6028c-4.47959,8.0036 -14.5992,10.86037 -22.6028,6.38079c-8.0036,-4.47959 -10.86037,-14.5992 -6.38079,-22.6028z" fill="#1d28e8" stroke-linecap="butt"/><path d="M223.64266,157.69031c0,0 3.00913,-0.57053 5.04262,-0.44407c1.61096,0.10019 6.18869,1.14253 6.18869,1.14253" fill="none" stroke-linecap="round"/><path d="M213.46088,156.93986c0.67928,-2.75238 3.46118,-4.43296 6.21356,-3.75367c2.75238,0.67928 4.43296,3.46118 3.75367,6.21356c-0.67928,2.75238 -3.46118,4.43296 -6.21356,3.75367c-2.75238,-0.67928 -4.43296,-3.46118 -3.75367,-6.21356z" fill="#1d28e8" stroke-linecap="butt"/><path d="M233.92479,158.38465l0.25126,-23.04264l40.95959,2.73489l-10.85673,26.35795l20.39348,4.14325z" fill="#2530ff" stroke-linecap="round"/><path d="M232.48451,200.43521c0,-2.11232 1.71238,-3.8247 3.8247,-3.8247c2.11232,0 3.8247,1.71238 3.8247,3.8247c0,2.11232 -1.71238,3.8247 -3.8247,3.8247c-2.11232,0 -3.8247,-1.71238 -3.8247,-3.8247z" fill="#1d28e8" stroke-linecap="butt"/></g></g></svg>