<svg version="1.1" xmlns="http://www.w3.org/2000/svg" xmlns:xlink="http://www.w3.org/1999/xlink" width="58.4618" height="92.61762" viewBox="0,0,58.4618,92.61762"><g transform="translate(-210.69315,-134.28374)"><g data-paper-data="{&quot;isPaintingLayer&quot;:true}" fill-rule="nonzero" stroke="#000000" stroke-width="2" stroke-linejoin="miter" stroke-miterlimit="10" stroke-dasharray="" stroke-dashoffset="0" style="mix-blend-mode: normal"><path d="M237.95156,212.3986l3.78892,-25.28276l7.76401,1.16353l-3.78893,25.28276z" fill="#ff6b00" stroke-linecap="butt"/><path d="M247.25222,196.91933c0.48614,-2.05562 2.54665,-3.32793 4.60227,-2.84179c2.05562,0.48614 3.32794,2.54665 2.84179,4.60226c-0.48614,2.05562 -2.54665,3.32794 -4.60227,2.8418c-2.05562,-0.48614 -3.32793,-2.54665 -2.84179,-4.60227z" fill="#ff6b00" stroke-linecap="butt"/><path d="M230.08158,179.4356c2.11088,-8.92572 11.0578,-14.45023 19.98351,-12.33936c8.92572,2.11088 14.45024,11.0578 12.33937,19.98352c-2.11088,8.92572 -11.0578,14.45023 -19.98351,12.33936c-8.92572,-2.11088 -14.45024,-11.0578 -12.33937,-19.98352z" fill="#ff6b00" stroke-linecap="butt"/><path d="M224.28416,204.57849c0.48614,-2.05562 2.54665,-3.32794 4.60226,-2.8418c2.05562,0.48614 3.32794,2.54665 2.8418,4.60227c-0.48614,2.05562 -2.54665,3.32793 -4.60227,2.84179c-2.05562,-0.48614 -3.32794,-2.54665 -2.84179,-4.60226z" fill="#ff6b00" stroke-linecap="butt"/><path d="M252.59196,213.52564c4.93271,-0.37933 6.52614,2.16467 6.77761,5.43468c0.25147,3.27001 -3.54343,6.22837 -8.47616,6.60772c-4.93271,0.37933 -8.99642,-0.15764 -9.24789,-3.42765c-0.09712,-1.26292 2.8024,-7.98844 10.94644,-8.61473z" data-paper-data="{&quot;index&quot;:null}" fill="#ff6b00" stroke-linecap="butt"/><path d="M225.73256,180.63933l8.43831,-9.75245l-16.81637,-29.73437l47.04853,-5.69919l-8.5093,32.53449l10.56464,7.34684z" data-paper-data="{&quot;index&quot;:null}" fill="#ffa340" stroke-linecap="butt"/><path d="M221.54733,168.10831c0,0 3.06272,0.01106 5.03523,0.52124c1.56266,0.40417 5.85926,2.29656 5.85926,2.29656" data-paper-data="{&quot;index&quot;:null}" fill="none" stroke-linecap="round"/><path d="M211.69315,165.4387c1.18942,-2.57338 4.23975,-3.69531 6.81313,-2.5059c2.57338,1.18942 3.69531,4.23976 2.5059,6.81315c-1.18942,2.57338 -4.23976,3.69531 -6.81314,2.5059c-2.57338,-1.18942 -3.69531,-4.23976 -2.50589,-6.81314z" data-paper-data="{&quot;index&quot;:null}" fill="#ff6b00" stroke-linecap="butt"/><path d="M230.25863,213.85897c4.93271,-0.37933 6.52614,2.16467 6.77761,5.43468c0.25147,3.27001 -3.54343,6.22837 -8.47616,6.60772c-4.93271,0.37933 -8.99642,-0.15764 -9.24789,-3.42765c-0.09712,-1.26292 2.8024,-7.98844 10.94644,-8.61473z" data-paper-data="{&quot;index&quot;:null}" fill="#ff6b00" stroke-linecap="butt"/></g></g></svg>