<svg version="1.1" xmlns="http://www.w3.org/2000/svg" xmlns:xlink="http://www.w3.org/1999/xlink" width="98.33334" height="98.33334" viewBox="0,0,98.33334,98.33334"><defs><radialGradient cx="245.33333" cy="180.5" r="49.16667" gradientUnits="userSpaceOnUse" id="color-1"><stop offset="0" stop-color="#ffe600" stop-opacity="0"/><stop offset="1" stop-color="#ffe600"/></radialGradient></defs><g transform="translate(-196.16667,-131.33333)"><g data-paper-data="{&quot;isPaintingLayer&quot;:true}" fill-rule="nonzero" stroke="#000000" stroke-linejoin="miter" stroke-miterlimit="10" stroke-dasharray="" stroke-dashoffset="0" style="mix-blend-mode: normal"><path d="M210.56725,145.73392c19.20078,-19.20078 50.33139,-19.20078 69.53217,0c19.20078,19.20078 19.20078,50.33139 0,69.53217c-19.20078,19.20078 -50.33139,19.20078 -69.53217,0c-19.20078,-19.20078 -19.20078,-50.33139 0,-69.53217z" fill="url(#color-1)" stroke-width="0" stroke-linecap="butt"/><path d="M247.96872,206.19992c2.10477,-0.17857 3.95575,1.38293 4.13433,3.48768c0.17857,2.10477 -1.38293,3.95575 -3.48768,4.13433c-2.10477,0.17857 -3.95575,-1.38293 -4.13433,-3.48768c-0.17857,-2.10477 1.38293,-3.95575 3.48768,-4.13433z" fill="#ffe819" stroke-width="2" stroke-linecap="butt"/><path d="M265.56781,164.56191c8.84779,2.41677 14.06115,11.54852 11.64439,20.3963c-2.41677,8.84779 -11.54852,14.06115 -20.3963,11.64439c-8.84779,-2.41677 -14.06115,-11.54852 -11.64439,-20.3963c2.41677,-8.84779 11.54851,-14.06116 20.3963,-11.64439z" fill="#ffe819" stroke-width="2" stroke-linecap="butt"/><path d="M211.95445,178.39565l19.59365,-16.4214l5.04279,6.01696l-19.59365,16.4214z" fill="#ffe819" stroke-width="2" stroke-linecap="butt"/><path d="M274.48262,151.66602c0,0 1.59264,2.61608 2.18961,4.56408c0.47293,1.54323 1.10758,6.19505 1.10758,6.19505" fill="none" stroke-width="2" stroke-linecap="round"/><path d="M271.60332,141.87104c2.81542,-0.33237 5.3672,1.6805 5.69958,4.4959c0.33237,2.81542 -1.6805,5.3672 -4.49591,5.69959c-2.81542,0.33237 -5.3672,-1.6805 -5.69959,-4.49591c-0.33237,-2.81542 1.6805,-5.3672 4.49591,-5.69959z" fill="#ffe819" stroke-width="2" stroke-linecap="butt"/><path d="M236.28152,202.75581c2.84516,4.04731 1.47162,6.71645 -1.21144,8.60257c-2.68305,1.88612 -7.16453,0.13414 -10.0097,-3.91318c-2.84516,-4.04731 -4.4587,-7.8154 -1.77567,-9.70151c1.03625,-0.72845 8.29938,-1.67007 12.99679,5.01213z" data-paper-data="{&quot;index&quot;:null}" fill="#ffe819" stroke-width="2" stroke-linecap="butt"/><path d="M266.80661,160.20541l8.66386,7.44202l4.56847,-10.7239c0,0 7.80613,16.20241 5.68445,26.6059c-2.12169,10.40349 -14.26123,15.44968 -14.26123,15.44968z" data-paper-data="{&quot;index&quot;:null}" fill="#fff067" stroke-width="2" stroke-linecap="butt"/><path d="M218.14653,204.67543c0.76706,4.88746 -1.6434,6.67649 -4.8834,7.18499c-3.24,0.5085 -6.48836,-3.04134 -7.25542,-7.92881c-0.76706,-4.88746 -0.55212,-8.98085 2.68787,-9.48936c1.25135,-0.19638 8.18452,2.16386 9.45095,10.23316z" data-paper-data="{&quot;index&quot;:null}" fill="#ffe819" stroke-width="2" stroke-linecap="butt"/><path d="M237.25797,209.95426c2.10477,-0.17857 3.95575,1.38293 4.13433,3.48768c0.17857,2.10477 -1.38293,3.95575 -3.48768,4.13433c-2.10477,0.17857 -3.95575,-1.38293 -4.13433,-3.48768c-0.17857,-2.10477 1.38293,-3.95575 3.48768,-4.13433z" fill="#ffe819" stroke-width="2" stroke-linecap="butt"/></g></g></svg>