<svg version="1.1" xmlns="http://www.w3.org/2000/svg" xmlns:xlink="http://www.w3.org/1999/xlink" width="85.99145" height="87.1987" viewBox="0,0,85.99145,87.1987"><g transform="translate(-196.18174,-113.13769)"><g data-paper-data="{&quot;isPaintingLayer&quot;:true}" fill-rule="nonzero" stroke="#000000" stroke-width="2" stroke-linejoin="miter" stroke-miterlimit="10" stroke-dasharray="" stroke-dashoffset="0" style="mix-blend-mode: normal"><path d="M218.64289,134.21487c3.48482,-8.48412 13.18758,-12.53682 21.6717,-9.052c8.48412,3.48482 12.53684,13.18758 9.052,21.6717c-3.48482,8.48412 -13.18758,12.53682 -21.6717,9.052c-8.48412,-3.48482 -12.53684,-13.18758 -9.05201,-21.67169z" fill="#2d6a2b" stroke-linecap="butt"/><path d="M233.88941,120.60586c15.83955,0.5014 22.04061,12.36873 22.04061,12.36873l-40.98297,0.70152c0,0 1.91228,-13.60933 18.94236,-13.07024z" fill="#367e33" stroke-linecap="round"/><path d="M226.01294,185.34813l-3.31874,-25.34876l7.78427,-1.01915l3.31874,25.34876z" fill="#2d6a2b" stroke-linecap="butt"/><path d="M205.86036,168.37466c1.32156,-1.64785 3.72873,-1.91236 5.37659,-0.59079c1.64785,1.32156 1.91236,3.72873 0.59082,5.37658c-1.32156,1.64785 -3.72873,1.91236 -5.37659,0.59079c-1.64785,-1.32156 -1.91236,-3.72873 -0.59082,-5.37658z" fill="#2d6a2b" stroke-linecap="butt"/><path d="M250.27808,171.05321c2.0997,-0.23073 3.98885,1.28436 4.21959,3.38404c0.23072,2.09967 -1.28436,3.98885 -3.38404,4.21959c-2.0997,0.23073 -3.98885,-1.28436 -4.21957,-3.38406c-0.23072,-2.09967 1.28436,-3.98885 3.38404,-4.21958z" fill="#2d6a2b" stroke-linecap="butt"/><path d="M214.00875,119.56325c0,0 3.06033,-0.12127 5.05306,0.30325c1.57865,0.33629 5.95302,2.04128 5.95302,2.04128" fill="none" stroke-linecap="round"/><path d="M204.04844,117.32187c1.07713,-2.62237 4.07616,-3.87502 6.69853,-2.7979c2.62237,1.07713 3.87503,4.07615 2.7979,6.69853c-1.07713,2.62237 -4.07615,3.87503 -6.69853,2.7979c-2.62237,-1.07713 -3.87503,-4.07615 -2.7979,-6.69853z" fill="#2d6a2b" stroke-linecap="butt"/><path d="M202.26481,199.33638c-4.81996,-1.11513 -5.57849,-4.01956 -4.83923,-7.21481c0.73924,-3.19526 5.24588,-4.88152 10.06586,-3.76636c4.81996,1.11513 8.53639,2.84434 7.79714,6.0396c-0.28552,1.23407 -5.06589,6.78272 -13.02378,4.94159z" data-paper-data="{&quot;index&quot;:null}" fill="#2d6a2b" stroke-linecap="butt"/><path d="M269.67036,158.23756c0.74222,-4.89128 3.57993,-5.87031 6.82247,-5.37825c3.24254,0.49203 5.26943,4.85609 4.52718,9.74739c-0.40091,2.64198 -3.0266,15.59898 -17.93726,24.46564c-12.69449,7.54881 -37.90456,11.4106 -39.39567,11.18433c-0.65378,-0.09921 17.98903,-8.80068 30.00053,-18.2447c10.99672,-8.64615 15.39703,-17.91468 15.98273,-21.77442z" data-paper-data="{&quot;index&quot;:null}" fill="#2d6a2b" stroke-linecap="butt"/></g></g></svg>