<svg version="1.1" xmlns="http://www.w3.org/2000/svg" xmlns:xlink="http://www.w3.org/1999/xlink" width="71.63487" height="81.18395" viewBox="0,0,71.63487,81.18395"><g transform="translate(-207.40347,-145.54014)"><g data-paper-data="{&quot;isPaintingLayer&quot;:true}" fill-rule="nonzero" stroke="#000000" stroke-width="2" stroke-linejoin="miter" stroke-miterlimit="10" stroke-dasharray="" stroke-dashoffset="0" style="mix-blend-mode: normal"><path d="M243.2403,210.55142c0,-2.11232 1.71238,-3.8247 3.8247,-3.8247c2.11232,0 3.8247,1.71238 3.8247,3.8247c0,2.11232 -1.71238,3.8247 -3.8247,3.8247c-2.11232,0 -3.8247,-1.71238 -3.8247,-3.8247z" fill="#1d28e8" stroke-linecap="butt"/><path d="M226.94521,217.18284l3.2413,-25.35878l7.78735,0.99536l-3.2413,25.35878z" fill="#1d28e8" stroke-linecap="butt"/><path d="M221.95729,212.07462c0,-2.11232 1.71238,-3.8247 3.8247,-3.8247c2.11232,0 3.8247,1.71238 3.8247,3.8247c0,2.11232 -1.71238,3.8247 -3.8247,3.8247c-2.11232,0 -3.8247,-1.71238 -3.8247,-3.8247z" fill="#1d28e8" stroke-linecap="butt"/><path d="M264.08619,213.0811c4.93451,-0.35522 6.51548,2.19655 6.75096,5.46774c0.23548,3.27119 -3.57383,6.21099 -8.50835,6.56621c-4.93451,0.35522 -8.99554,-0.20161 -9.23102,-3.47281c-0.09095,-1.2634 2.84141,-7.97466 10.98841,-8.56113z" data-paper-data="{&quot;index&quot;:null}" fill="#1d28e8" stroke-linecap="butt"/><path d="M235.26002,213.63831c4.91995,-0.51932 6.585,1.97839 6.92927,5.23993c0.34427,3.26154 -3.36505,6.32653 -8.28501,6.84585c-4.91995,0.51932 -8.99727,0.09799 -9.34154,-3.16355c-0.13296,-1.25966 2.57433,-8.06483 10.69728,-8.92223z" data-paper-data="{&quot;index&quot;:null}" fill="#1d28e8" stroke-linecap="butt"/><path d="M228.07055,181.98812c1.16287,-9.09791 9.48089,-15.53052 18.57879,-14.36765c9.09791,1.16287 15.53052,9.48089 14.36765,18.57879c-1.16287,9.09791 -9.48089,15.53052 -18.57879,14.36765c-9.09791,-1.16287 -15.53052,-9.48089 -14.36765,-18.57879z" fill="#1d28e8" stroke-linecap="butt"/><path d="M218.17933,184.36406c0,0 2.57768,-1.65405 4.51102,-2.29693c1.53162,-0.50929 6.16711,-1.25378 6.16711,-1.25378" fill="none" stroke-linecap="round"/><path d="M208.45519,187.47421c-0.39887,-2.80676 1.5531,-5.40544 4.35986,-5.80431c2.80676,-0.39887 5.40544,1.5531 5.80431,4.35986c0.39887,2.80676 -1.5531,5.40544 -4.35986,5.80431c-2.80676,0.39887 -5.40544,-1.5531 -5.80431,-4.35986z" fill="#1d28e8" stroke-linecap="butt"/><path d="M227.97556,181.16434l-8.38085,-21.46597l39.01237,-12.77507l-0.21637,28.50549l20.46379,-3.78071z" fill="#2530ff" stroke-linecap="round"/></g></g></svg>