<svg version="1.1" xmlns="http://www.w3.org/2000/svg" xmlns:xlink="http://www.w3.org/1999/xlink" width="119.98706" height="41.39902" viewBox="0,0,119.98706,41.39902"><g transform="translate(-181.50026,-163.92544)"><g data-paper-data="{&quot;isPaintingLayer&quot;:true}" fill-rule="nonzero" stroke="#000000" stroke-width="2" stroke-linejoin="miter" stroke-miterlimit="10" stroke-dasharray="" stroke-dashoffset="0" style="mix-blend-mode: normal"><path d="M247.82393,184.62495c0,-10.87974 8.81977,-19.69951 19.69951,-19.69951c10.87974,0 19.69951,8.81977 19.69951,19.69951c0,10.87974 -8.81977,19.69951 -19.69951,19.69951c-10.87974,0 -19.69951,-8.81977 -19.69951,-19.69951z" fill="#367e33" stroke-linecap="butt"/><path d="M293.24171,187.10645c0.9456,-1.88885 3.24337,-2.65351 5.13222,-1.70792c1.88885,0.94559 2.65352,3.24337 1.70792,5.13223c-0.9456,1.88885 -3.24337,2.65351 -5.13222,1.70792c-1.88885,-0.94559 -2.65352,-3.24337 -1.70792,-5.13223z" fill="#2d6a2b" stroke-linecap="butt"/><path d="M292.70125,179.24177c0.9456,-1.88885 3.24336,-2.65352 5.13222,-1.70792c1.88885,0.94559 2.65352,3.24337 1.70792,5.13223c-0.9456,1.88885 -3.24337,2.65351 -5.13222,1.70792c-1.88885,-0.94559 -2.65351,-3.24336 -1.70792,-5.13222z" fill="#2d6a2b" stroke-linecap="butt"/><path d="M189.41069,200.25784c-4.86348,-0.90672 -5.74627,-3.7758 -5.14519,-6.9999c0.60108,-3.2241 5.031,-5.10273 9.89447,-4.19601c4.86348,0.90672 8.65089,2.47441 8.0498,5.69851c-0.23215,1.24521 -4.76936,6.99442 -12.79909,5.4974z" data-paper-data="{&quot;index&quot;:null}" fill="#2d6a2b" stroke-linecap="butt"/><path d="M188.05379,174.9366c8.10472,-1.01544 12.29096,4.99415 12.44842,6.25099c0.40771,3.25421 -3.46645,4.59322 -8.37535,5.20825c-4.90891,0.61503 -9.21888,-1.52446 -9.6266,-4.77868c-0.40771,-3.25421 0.64461,-6.06553 5.55352,-6.68056z" data-paper-data="{&quot;index&quot;:null}" fill="#2d6a2b" stroke-linecap="butt"/><path d="M253.20755,185.1568c-0.45909,-9.16044 6.59473,-16.9586 15.75516,-17.41769c9.16044,-0.45909 16.9586,6.59473 17.41769,15.75516c0.45909,9.16044 -6.59474,16.9586 -15.75516,17.41769c-9.16044,0.45909 -16.95859,-6.59473 -17.41769,-15.75516z" fill="#2d6a2b" stroke-linecap="butt"/><path d="M253.33342,184.95l-11.18402,1.24416" fill="none" stroke-linecap="round"/><path d="M231.99033,187.20654c0.19564,-2.8282 2.64695,-4.96231 5.47515,-4.76667c2.8282,0.19564 4.96232,2.64695 4.76668,5.47515c-0.19564,2.8282 -2.64695,4.96231 -5.47515,4.76667c-2.8282,-0.19564 -4.96232,-2.64695 -4.76668,-5.47515z" fill="#2d6a2b" stroke-linecap="butt"/><path d="M217.99609,183.87215l25.56305,-0.32335l0.09931,7.85007l-25.56304,0.32335z" fill="#2d6a2b" stroke-linecap="butt"/></g></g></svg>