<svg version="1.1" xmlns="http://www.w3.org/2000/svg" xmlns:xlink="http://www.w3.org/1999/xlink" width="81" height="130.47483" viewBox="0,0,81,130.47483"><defs><linearGradient x1="236.57571" y1="72.52953" x2="236.57571" y2="196.02953" gradientUnits="userSpaceOnUse" id="color-1"><stop offset="0" stop-color="#5c6cff"/><stop offset="1" stop-color="#4576c0"/></linearGradient><linearGradient x1="237.12501" y1="69.0547" x2="237.12501" y2="77.29623" gradientUnits="userSpaceOnUse" id="color-2"><stop offset="0" stop-color="#ffffff"/><stop offset="1" stop-color="#5c6cff"/></linearGradient><linearGradient x1="238.70969" y1="185.52953" x2="238.70969" y2="199.52953" gradientUnits="userSpaceOnUse" id="color-3"><stop offset="0" stop-color="#ffffff"/><stop offset="1" stop-color="#5c6cff"/></linearGradient></defs><g transform="translate(-197.95969,-69.0547)"><g data-paper-data="{&quot;isPaintingLayer&quot;:true}" fill-rule="nonzero" stroke="none" stroke-width="0" stroke-linecap="butt" stroke-linejoin="miter" stroke-miterlimit="10" stroke-dasharray="" stroke-dashoffset="0" style="mix-blend-mode: normal"><path d="M216.45969,196.02953c0,0 -8.23382,-43.87524 -9.77712,-65.05268c-1.45101,-19.91109 0.77712,-58.44732 0.77712,-58.44732h59.5c0,0 -5.27846,35.37718 -6.30789,53.53923c-1.25783,22.19172 -0.69211,69.96077 -0.69211,69.96077z" data-paper-data="{&quot;index&quot;:null}" fill="url(#color-1)"/><path d="M267.16997,73.27268c-2.91754,0.7436 -30.32148,4.71722 -46.61202,3.91786c-16.29054,-0.79937 -15.7371,-6.51011 -12.81962,-7.25371c2.91753,-0.74359 26.37717,-1.28651 42.66776,-0.48714c16.29053,0.79937 19.6814,3.0794 16.76387,3.823z" data-paper-data="{&quot;index&quot;:null}" fill="url(#color-2)"/><path d="M260.45096,192.48635c-3.52046,0.712 18.31116,4.06628 18.31116,4.06628l-41.30243,2.9769l-34.51777,-2.86654l15.52271,-4.16275l-20.50494,-14.47071l20.08226,8.57314l7.41774,-16.57314l13,15.5l8.5,-14.5l13.20704,15.70931l18.79296,-5.70931c0,0 -10.7549,9.88863 -18.50873,11.45682z" data-paper-data="{&quot;index&quot;:null}" fill="url(#color-3)"/></g></g></svg>