<svg version="1.1" xmlns="http://www.w3.org/2000/svg" xmlns:xlink="http://www.w3.org/1999/xlink" width="66.06549" height="154.72795" viewBox="0,0,66.06549,154.72795"><g transform="translate(-204.06299,-90.35813)"><g data-paper-data="{&quot;isPaintingLayer&quot;:true}" fill-rule="nonzero" stroke-linejoin="miter" stroke-miterlimit="10" stroke-dasharray="" stroke-dashoffset="0" style="mix-blend-mode: normal"><path d="M270.12848,188.42241l-19.1484,-3.98519l18.2185,29.66763l-19.49667,-4.18899l12.04614,30.0034l-32.01072,5.16682l-6.63759,-51.26053l13.60784,4.22302l-14.33883,-32.53173l15.81375,6.02074l-13.07489,-40.55987l10.47806,5.99556l-13.0593,-46.61514l37.31546,62.80328l-14.14929,-5.09589l24.43594,40.35689" data-paper-data="{&quot;index&quot;:null}" fill="#fff200" stroke="none" stroke-width="0.66342" stroke-linecap="butt"/><path d="M245.1659,185.26423c1.23399,1.7144 0.84454,4.10455 -0.86986,5.33854c-1.7144,1.23399 -4.10455,0.84454 -5.33854,-0.86986c-1.23399,-1.7144 -0.84454,-4.10455 0.86986,-5.33854c1.7144,-1.23399 4.10455,-0.84454 5.33854,0.86986z" data-paper-data="{&quot;index&quot;:null}" fill="#ffe819" stroke="#000000" stroke-width="2" stroke-linecap="butt"/><path d="M223.27789,153.35424c-8.33943,-3.81813 -12.00467,-13.67379 -8.18654,-22.01321c3.81813,-8.33943 13.67379,-12.00467 22.01321,-8.18654c8.33943,3.81813 12.00467,13.67379 8.18654,22.01321c-3.81813,8.33943 -13.67379,12.00467 -22.01321,8.18654z" fill="#ffe819" stroke="#000000" stroke-width="2" stroke-linecap="butt"/><path d="M243.54507,185.85649l-2.89048,-25.40116l7.80036,-0.88763l2.89048,25.40116z" fill="#ffe819" stroke="#000000" stroke-width="2" stroke-linecap="butt"/><path d="M254.66046,185.43108c1.23399,1.7144 0.84454,4.10455 -0.86986,5.33854c-1.7144,1.23399 -4.10455,0.84454 -5.33854,-0.86986c-1.23399,-1.7144 -0.84454,-4.10455 0.86986,-5.33854c1.7144,-1.23399 4.10455,-0.84454 5.33854,0.86986z" data-paper-data="{&quot;index&quot;:null}" fill="#ffe819" stroke="#000000" stroke-width="2" stroke-linecap="butt"/><path d="M212.39178,164.63566c0,0 -1.14782,-2.83952 -1.42134,-4.8585c-0.21669,-1.59946 -0.0894,-6.29263 -0.0894,-6.29263" fill="none" stroke="#000000" stroke-width="2" stroke-linecap="round"/><path d="M213.64636,174.76769c-2.83207,-0.12808 -5.02408,-2.52775 -4.896,-5.35982c0.12808,-2.83207 2.52775,-5.02408 5.35982,-4.896c2.83207,0.12808 5.02408,2.52775 4.896,5.35982c-0.12808,2.83207 -2.52775,5.02408 -5.35982,4.896z" fill="#ffe819" stroke="#000000" stroke-width="2" stroke-linecap="butt"/><path d="M235.68158,218.88138c-3.88193,3.06696 -6.62368,1.84476 -8.65683,-0.72864c-2.03315,-2.57342 -0.53443,-7.14583 3.3475,-10.2128c3.88193,-3.06696 7.55392,-4.88862 9.58708,-2.3152c0.78524,0.9939 2.1314,8.19303 -4.27776,13.25666z" data-paper-data="{&quot;index&quot;:null}" fill="#ffe819" stroke="#000000" stroke-width="2" stroke-linecap="butt"/><path d="M221.34976,157.45252l-7.34388,-8.74721l-6.24531,9.8422c0,0 -5.07836,-17.25294 -1.29941,-27.17532c3.77895,-9.92238 16.57561,-12.9354 16.57561,-12.9354z" data-paper-data="{&quot;index&quot;:null}" fill="#fff067" stroke="#000000" stroke-width="2" stroke-linecap="butt"/><path d="M253.88131,217.50307c-1.94875,4.5473 -4.94146,4.78102 -7.95596,3.48916c-3.01451,-1.29187 -3.87847,-6.02545 -1.92972,-10.57276c1.94875,-4.5473 4.30704,-7.9 7.32155,-6.60813c1.16425,0.49894 5.78157,6.18402 2.56414,13.69173z" data-paper-data="{&quot;index&quot;:null}" fill="#ffe819" stroke="#000000" stroke-width="2" stroke-linecap="butt"/></g></g></svg>