<svg version="1.1" xmlns="http://www.w3.org/2000/svg" xmlns:xlink="http://www.w3.org/1999/xlink" width="109.24777" height="75.22761" viewBox="0,0,109.24777,75.22761"><g transform="translate(-193.37191,-149.60943)"><g data-paper-data="{&quot;isPaintingLayer&quot;:true}" fill-rule="nonzero" stroke="#000000" stroke-width="2" stroke-linejoin="miter" stroke-miterlimit="10" stroke-dasharray="" stroke-dashoffset="0" style="mix-blend-mode: normal"><path d="M296.58796,179.04226c1.93749,-0.84145 4.19027,0.04707 5.03172,1.98456c0.84145,1.93749 -0.04706,4.19026 -1.98456,5.03171c-1.93749,0.84145 -70.15411,-1.09829 -70.99556,-3.03578c-0.84145,-1.93749 66.01091,-3.13905 67.9484,-3.9805z" fill="#181818" stroke-linecap="butt"/><path d="M201.34563,223.75756c-4.91534,0.56128 -6.60164,-1.92213 -6.97372,-5.18062c-0.37208,-3.25849 3.31096,-6.35501 8.2263,-6.91629c4.91534,-0.56128 8.99611,-0.17475 9.36819,3.08373c0.1437,1.25848 -2.50543,8.0865 -10.62077,9.01317z" data-paper-data="{&quot;index&quot;:null}" fill="#181818" stroke-linecap="butt"/><path d="M227.15758,195.22876l19.48486,-16.55034l5.08239,5.98354l-19.48486,16.55034z" fill="#181818" stroke-linecap="butt"/><path d="M206.65283,213.30612c-4.83525,-1.04687 -5.63476,-3.94027 -4.94077,-7.14567c0.694,-3.2054 5.17633,-4.95522 10.0116,-3.90834c4.83525,1.04687 8.57577,2.72334 7.88178,5.92874c-0.26803,1.23798 -4.96948,6.85369 -12.9526,5.12527z" data-paper-data="{&quot;index&quot;:null}" fill="#181818" stroke-linecap="butt"/><path d="M246.50437,175.98876l9.10704,11.18826l-5.64737,-0.11842l-0.55436,5.87764l-11.95548,-12.2095l6.70161,-0.03977z" fill="#0e0e0e" stroke-linecap="round"/><path d="M212.55298,182.55801c1.45723,-1.52918 3.87819,-1.58751 5.40738,-0.13029c1.52918,1.45723 1.58751,3.87818 0.13028,5.40737c-1.45723,1.52918 -3.87819,1.58751 -5.40738,0.13029c-1.52918,-1.45723 -1.58752,-3.87819 -0.1303,-5.40737z" fill="#181818" stroke-linecap="butt"/><path d="M237.28019,157.95911c0,0 3.03259,-0.42867 5.05791,-0.20691c1.60449,0.17568 6.12825,1.43173 6.12825,1.43173" fill="#181818" stroke-linecap="round"/><path d="M227.54476,156.48357c0.80772,-2.71746 3.66542,-4.26564 6.38289,-3.45791c2.71746,0.80772 4.26564,3.66543 3.45791,6.38289c-0.80772,2.71746 -3.66542,4.26563 -6.38289,3.4579c-2.71746,-0.80772 -4.26564,-3.66542 -3.45791,-6.38289z" fill="#181818" stroke-linecap="butt"/><path d="M246.01381,172.00275c0.54247,-9.15588 8.40453,-16.13841 17.5604,-15.59593c9.15587,0.54247 16.1384,8.40453 15.59593,17.5604c-0.54247,9.15588 -8.40453,16.13841 -17.5604,15.59593c-9.15587,-0.54247 -16.13841,-8.40453 -15.59594,-17.5604z" fill="#181818" stroke-linecap="butt"/><g><path d="M248.31679,165.04599l0.71346,-12.04179l29.58092,1.75262l-0.71346,12.0418z" fill="#343434" stroke-linecap="butt"/><path d="M288.63064,167.43453l-51.04674,-3.02445" fill="none" stroke-linecap="round"/></g><path d="M271.28336,177.12989l-0.03807,-5.24426c0,0 3.62931,0.89988 5.31832,0.85799c1.80112,-0.04467 5.17368,-1.11823 5.17368,-1.11823l0.03807,5.24426z" fill="#ff0000" stroke-linecap="butt"/></g></g></svg>