<svg version="1.1" xmlns="http://www.w3.org/2000/svg" xmlns:xlink="http://www.w3.org/1999/xlink" width="9.37134" height="5.04763" viewBox="0,0,9.37134,5.04763"><defs><linearGradient x1="246.39472" y1="180.16342" x2="246.39472" y2="181.85712" gradientUnits="userSpaceOnUse" id="color-1"><stop offset="0" stop-color="#78706a"/><stop offset="1" stop-color="#131212"/></linearGradient><linearGradient x1="238.98325" y1="179.0214" x2="238.98325" y2="180.52354" gradientUnits="userSpaceOnUse" id="color-2"><stop offset="0" stop-color="#78706a"/><stop offset="1" stop-color="#131212"/></linearGradient><linearGradient x1="246.56746" y1="176.80949" x2="246.56746" y2="178.68239" gradientUnits="userSpaceOnUse" id="color-3"><stop offset="0" stop-color="#78706a"/><stop offset="1" stop-color="#131212"/></linearGradient></defs><g transform="translate(-238.09627,-176.80949)"><g data-paper-data="{&quot;isPaintingLayer&quot;:true}" fill-rule="nonzero" stroke="none" stroke-width="0" stroke-linecap="butt" stroke-linejoin="miter" stroke-miterlimit="10" stroke-dasharray="" stroke-dashoffset="0" style="mix-blend-mode: normal"><path d="M247.39481,181.01027c0,0.4677 -0.44776,0.84685 -1.00009,0.84685c-0.55234,0 -1.00009,-0.37915 -1.00009,-0.84685c0,-0.4677 0.44776,-0.84685 1.00009,-0.84685c0.55234,0 1.00009,0.37915 1.00009,0.84685z" fill="url(#color-1)"/><path d="M239.87023,179.77247c0,0.41481 -0.39711,0.75107 -0.88698,0.75107c-0.48987,0 -0.88698,-0.33627 -0.88698,-0.75107c0,-0.41481 0.39711,-0.75107 0.88698,-0.75107c0.48987,0 0.88698,0.33627 0.88698,0.75107z" fill="url(#color-2)"/><path d="M246.56746,176.80949c0.49714,0 0.90015,0.41926 0.90015,0.93645c0,0.51719 -0.40301,0.93645 -0.90015,0.93645c-0.49714,0 -0.90015,-0.41926 -0.90015,-0.93645c0,-0.51719 0.40301,-0.93645 0.90015,-0.93645z" fill="url(#color-3)"/></g></g></svg>