<svg version="1.1" xmlns="http://www.w3.org/2000/svg" xmlns:xlink="http://www.w3.org/1999/xlink" width="99.14524" height="79.2479" viewBox="0,0,99.14524,79.2479"><g transform="translate(-218.00036,-146.85817)"><g data-paper-data="{&quot;isPaintingLayer&quot;:true}" fill-rule="nonzero" stroke="#000000" stroke-width="2" stroke-linejoin="miter" stroke-miterlimit="10" stroke-dasharray="" stroke-dashoffset="0" style="mix-blend-mode: normal"><path d="M241.77009,206.12441l-5.33534,-25.00216l7.67783,-1.6384l5.33534,25.00216z" data-paper-data="{&quot;index&quot;:null}" fill="#181818" stroke-linecap="butt"/><path d="M235.20852,177.85078l14.32032,1.74468l-4.15074,3.83121l3.67684,4.61897l-17.0807,-0.505l4.80056,-4.6763z" data-paper-data="{&quot;index&quot;:null}" fill="#0e0e0e" stroke-linecap="round"/><path d="M219.00036,204.28401c0,-2.11232 1.71238,-3.8247 3.8247,-3.8247c2.11232,0 3.8247,1.71238 3.8247,3.8247c0,2.11232 -1.71238,3.8247 -3.8247,3.8247c-2.11232,0 -3.8247,-1.71238 -3.8247,-3.8247z" fill="#181818" stroke-linecap="butt"/><path d="M231.1524,152.79885c0,0 3.03536,-0.40861 5.05917,-0.17347c1.60329,0.18629 6.11865,1.47222 6.11865,1.47222" fill="#181818" stroke-linecap="round"/><path d="M220.65143,151.50731c0.82567,-2.71206 3.69355,-4.24131 6.40561,-3.41563c2.71206,0.82567 4.24131,3.69355 3.41563,6.40561c-0.82567,2.71206 -3.69355,4.24131 -6.40561,3.41563c-2.71206,-0.82567 -4.24131,-3.69355 -3.41563,-6.40561z" fill="#181818" stroke-linecap="butt"/><path d="M239.79299,166.89994c0.60299,-9.15209 8.51105,-16.08249 17.66313,-15.4795c9.15209,0.60299 16.08249,8.51105 15.4795,17.66313c-0.60299,9.15209 -8.51105,16.08249 -17.66313,15.4795c-9.15209,-0.60299 -16.08249,-8.51105 -15.4795,-17.66313z" fill="#181818" stroke-linecap="butt"/><path d="M267.29728,172.35295l0.34481,-5.23339l9.16972,0.60415l-0.34481,5.23339z" fill="#ff0000" stroke-linecap="butt"/><g><path d="M242.14192,159.95856l0.79306,-12.03681l29.56869,1.94816l-0.79306,12.03681z" fill="#343434" stroke-linecap="butt"/><path d="M282.43907,162.61358l-51.02563,-3.36187" fill="none" stroke-linecap="round"/></g><path d="M314.09861,211.70079c3.27134,3.71132 2.19839,6.51485 -0.26192,8.68348c-2.46032,2.16865 -7.10676,0.91805 -10.3781,-2.7933c-3.27134,-3.71132 -5.28789,-7.28002 -2.82757,-9.44866c0.95021,-0.83756 8.06653,-2.56903 13.46758,3.55847z" data-paper-data="{&quot;index&quot;:null}" fill="#181818" stroke-linecap="butt"/><path d="M243.69224,214.03457c4.11347,0 7.4481,2.47844 7.4481,5.53575c0,3.05731 -3.33463,5.53575 -7.4481,5.53575c-4.11347,0 -7.4481,-2.47844 -7.4481,-5.53575c0,-3.05731 3.33463,-5.53575 7.4481,-5.53575z" data-paper-data="{&quot;index&quot;:null}" fill="#181818" stroke-linecap="butt"/><path d="M242.0638,204.05565c0,-2.11232 1.71238,-3.8247 3.8247,-3.8247c2.11232,0 3.8247,1.71238 3.8247,3.8247c0,2.11232 -1.71238,3.8247 -3.8247,3.8247c-2.11232,0 -3.8247,-1.71238 -3.8247,-3.8247z" fill="#181818" stroke-linecap="butt"/></g></g></svg>