<svg version="1.1" xmlns="http://www.w3.org/2000/svg" xmlns:xlink="http://www.w3.org/1999/xlink" width="90.52626" height="78.50277" viewBox="0,0,90.52626,78.50277"><g transform="translate(-187.07495,-144.51384)"><g data-paper-data="{&quot;isPaintingLayer&quot;:true}" fill-rule="nonzero" stroke="#000000" stroke-width="2" stroke-linejoin="miter" stroke-miterlimit="10" stroke-dasharray="" stroke-dashoffset="0" style="mix-blend-mode: normal"><path d="M249.56015,184.78c-1.15443,-1.76895 -0.65626,-4.13883 1.11269,-5.29326c1.76895,-1.15443 4.13883,-0.65626 5.29326,1.11269c1.15443,1.76895 0.65626,4.13883 -1.11269,5.29326c-1.76895,1.15443 -4.13883,0.65626 -5.29326,-1.11269z" fill="#181818" stroke-linecap="butt"/><path d="M198.62222,156.77241c0,0 2.8925,-1.0069 4.92248,-1.1809c1.60818,-0.13784 6.28943,0.21989 6.28943,0.21989" fill="#181818" stroke-linecap="round"/><path d="M188.07495,157.60523c0.26709,-2.82235 2.77155,-4.89382 5.59391,-4.62673c2.82235,0.26709 4.89382,2.77155 4.62673,5.59391c-0.26709,2.82235 -2.77155,4.89382 -5.59391,4.62673c-2.82235,-0.26709 -4.89382,-2.77155 -4.62673,-5.59391z" fill="#181818" stroke-linecap="butt"/><path d="M209.90624,168.86253c-1.23795,-9.088 5.12578,-17.45883 14.21377,-18.69678c9.088,-1.23795 17.45883,5.12578 18.69678,14.21377c1.23795,9.088 -5.12578,17.45883 -14.21377,18.69678c-9.088,1.23795 -17.45883,-5.12578 -18.69678,-14.21377z" fill="#181818" stroke-linecap="butt"/><path d="M244.2413,204.07051l-18.15245,-18.00174l5.52809,-5.57438l18.15245,18.00174z" fill="#181818" stroke-linecap="butt"/><path d="M246.18874,213.43811c2.76925,4.09962 1.34619,6.74271 -1.37152,8.5785c-2.71772,1.83579 -7.16579,0.00059 -9.93504,-4.09902c-2.76925,-4.09962 -4.31231,-7.89711 -1.59458,-9.7329c1.04962,-0.70901 8.32905,-1.51513 12.90115,5.25344z" data-paper-data="{&quot;index&quot;:null}" fill="#181818" stroke-linecap="butt"/><path d="M229.36263,170.04667l-0.60054,-5.2098l15.52941,-1.93921l0.60054,5.2098z" data-paper-data="{&quot;index&quot;:null}" fill="#ff0000" stroke-linecap="butt"/><path d="M223.42077,186.43582l10.37044,-10.02842l0.36386,5.63688l5.90351,0.05084l-11.14493,12.9536l-0.61141,-6.67378z" fill="#0e0e0e" stroke-linecap="round"/><g><path d="M210.82076,161.59177l-1.62815,-11.95253l29.36164,-3.99958l1.62815,11.95253z" fill="#343434" stroke-linecap="butt"/><path d="M200.16743,163.04295l50.66834,-6.90194" fill="none" stroke-linecap="round"/></g><path d="M212.3149,209.54011c-1.15443,-1.76895 -0.65626,-4.13883 1.11269,-5.29326c1.76895,-1.15443 4.13883,-0.65626 5.29326,1.11269c1.15443,1.76895 0.65626,4.13883 -1.11269,5.29326c-1.76895,1.15443 -4.13883,0.65626 -5.29326,-1.11269z" fill="#181818" stroke-linecap="butt"/><path d="M265.84772,201.35866c2.29037,-4.38518 5.29219,-4.38966 8.19922,-2.87133c2.90704,1.51833 3.40695,6.30408 1.11658,10.68926c-2.29037,4.38518 -4.89783,7.54796 -7.80486,6.02964c-1.12275,-0.58641 -5.29239,-6.60752 -1.51094,-13.84758z" data-paper-data="{&quot;index&quot;:null}" fill="#181818" stroke-linecap="butt"/></g></g></svg>