<svg version="1.1" xmlns="http://www.w3.org/2000/svg" xmlns:xlink="http://www.w3.org/1999/xlink" width="68.04841" height="92.07352" viewBox="0,0,68.04841,92.07352"><g transform="translate(-209.07888,-137.1161)"><g data-paper-data="{&quot;isPaintingLayer&quot;:true}" fill-rule="nonzero" stroke="#000000" stroke-width="2" stroke-linejoin="miter" stroke-miterlimit="10" stroke-dasharray="" stroke-dashoffset="0" style="mix-blend-mode: normal"><path d="M244.89616,180.50079c0,-2.11232 1.71238,-3.8247 3.8247,-3.8247c2.11232,0 3.8247,1.71238 3.8247,3.8247c0,2.11232 -1.71238,3.8247 -3.8247,3.8247c-2.11232,0 -3.8247,-1.71238 -3.8247,-3.8247z" fill="#ffe819" stroke-linecap="butt"/><path d="M256.91606,143.96457c0,0 4.43947,1.52742 5.86124,2.29151c1.79467,0.9645 4.05097,3.0356 4.05097,3.0356" data-paper-data="{&quot;index&quot;:null}" fill="none" stroke-linecap="round"/><path d="M269.41077,157.32267c-2.69697,-0.87372 -4.17502,-3.7683 -3.30132,-6.46528c0.87372,-2.69697 3.7683,-4.17502 6.46528,-3.30132c2.69697,0.87372 4.17502,3.7683 3.30132,6.46528c-0.87372,2.69697 -3.7683,4.17502 -6.46528,3.30132z" data-paper-data="{&quot;index&quot;:null}" fill="#ffe819" stroke-linecap="butt"/><path d="M233.49225,204.95775l6.79649,-24.64511l7.56819,2.08712l-6.79649,24.64511z" fill="#ffe819" stroke-linecap="butt"/><path d="M232.12739,215.98114c8.13434,0.74164 10.93825,7.50756 10.82326,8.76899c-0.29779,3.26611 -4.36869,3.74545 -9.29554,3.29625c-4.92686,-0.44919 -8.67945,-3.46104 -8.38167,-6.72716c0.29778,-3.26612 1.9271,-5.78728 6.85394,-5.33808z" data-paper-data="{&quot;index&quot;:null}" fill="#ffe819" stroke-linecap="butt"/><path d="M246.25724,177.72431c-9.08006,1.29488 -17.49061,-5.01623 -18.78551,-14.09629c-1.29488,-9.08006 5.01623,-17.49061 14.09629,-18.78551c9.08006,-1.29488 17.49061,5.01623 18.78551,14.09629c1.29488,9.08006 -5.01623,17.49061 -14.09629,18.78551z" data-paper-data="{&quot;index&quot;:null}" fill="#ffe819" stroke-linecap="butt"/><path d="M219.49516,195.82123c6.61171,4.79614 5.56234,12.04448 4.81859,13.06979c-1.92575,2.65473 -5.66946,0.98541 -9.67407,-1.91953c-4.00462,-2.90494 -5.68987,-7.41195 -3.76412,-10.0667c1.92575,-2.65475 4.61498,-3.9885 8.61959,-1.08356z" data-paper-data="{&quot;index&quot;:null}" fill="#ffe819" stroke-linecap="butt"/><path d="M232.89616,190.83413c0,-2.11232 1.71238,-3.8247 3.8247,-3.8247c2.11232,0 3.8247,1.71238 3.8247,3.8247c0,2.11232 -1.71238,3.8247 -3.8247,3.8247c-2.11232,0 -3.8247,-1.71238 -3.8247,-3.8247z" fill="#ffe819" stroke-linecap="butt"/><path d="M226.30499,152.6325c0,0 5.28153,-12.03903 15.72435,-13.95779c10.44282,-1.91877 22.16826,1.72132 22.16826,1.72132l-2.34498,9.43079c0,0 -4.39409,-6.73593 -3.42989,-5.56818c1.33623,1.61831 6.55798,13.78329 6.55798,13.78329z" data-paper-data="{&quot;index&quot;:null}" fill="#fff067" stroke-linecap="butt"/></g></g></svg>