<svg version="1.1" xmlns="http://www.w3.org/2000/svg" xmlns:xlink="http://www.w3.org/1999/xlink" width="90.19006" height="103.34759" viewBox="0,0,90.19006,103.34759"><g transform="translate(-196.0754,-125.58552)"><g data-paper-data="{&quot;isPaintingLayer&quot;:true}" fill-rule="nonzero" stroke-linejoin="miter" stroke-miterlimit="10" stroke-dasharray="" stroke-dashoffset="0" style="mix-blend-mode: normal"><path d="M248.83157,193.79245c0,-2.11232 1.71238,-3.8247 3.8247,-3.8247c2.11232,0 3.8247,1.71238 3.8247,3.8247c0,2.11232 -1.71238,3.8247 -3.8247,3.8247c-2.11232,0 -3.8247,-1.71238 -3.8247,-3.8247z" fill="#ffe819" stroke="#000000" stroke-width="2" stroke-linecap="butt"/><path d="M231.63232,200.03948l8.70977,-24.03568l7.38104,2.67466l-8.70977,24.03568z" fill="#ffe819" stroke="#000000" stroke-width="2" stroke-linecap="butt"/><path d="M255.47438,213.64703c4.13733,-2.71258 6.76058,-1.25331 8.55881,1.48942c1.79823,2.74273 -0.09799,7.16513 -4.23533,9.87771c-4.13733,2.71258 -7.9557,4.20324 -9.75393,1.46052c-0.6945,-1.05929 -1.40039,-8.3491 5.43044,-12.82764z" data-paper-data="{&quot;index&quot;:null}" fill="#ffe819" stroke="#000000" stroke-width="2" stroke-linecap="butt"/><path d="M248.45045,209.46794c-4.96404,1.68225 -9.83534,0.54613 -10.88038,-2.5376c-1.04503,-3.08372 2.13194,-6.9473 7.09599,-8.62956c4.96404,-1.68225 8.4735,-0.08462 9.51854,2.9991c1.04503,3.08372 -0.7701,6.48579 -5.73414,8.16803z" fill="#ffe819" stroke="#000000" stroke-width="2" stroke-linecap="butt"/><path d="M250.55324,159.7052c4.96202,-7.7138 15.23779,-9.94455 22.95158,-4.98254c7.7138,4.96202 9.94455,15.23779 4.98254,22.95158c-4.96202,7.7138 -15.23779,9.94455 -22.95158,4.98254c-7.7138,-4.96202 -9.94455,-15.23779 -4.98254,-22.95158z" fill="#ffe819" stroke="#000000" stroke-width="2" stroke-linecap="butt"/><path d="M246.52665,134.34077c0,0 2.78286,1.27908 4.36669,2.56071c1.25473,1.01533 4.38108,4.51789 4.38108,4.51789" fill="none" stroke="#000000" stroke-width="2" stroke-linecap="round"/><path d="M238.66428,127.82807c2.14877,-1.84927 5.38982,-1.60647 7.23909,0.5423c1.84927,2.14877 1.60647,5.38982 -0.5423,7.23909c-2.14877,1.84927 -5.38982,1.60647 -7.23909,-0.5423c-1.84927,-2.14877 -1.60647,-5.38982 0.5423,-7.23909z" fill="#ffe819" stroke="#000000" stroke-width="2" stroke-linecap="butt"/><path d="M246.76976,157.21544l9.70013,-6.0294l-4.12043,-15.47301c0,0 13.06189,5.31452 22.3482,10.46219c9.28631,5.14767 10.45443,18.24226 10.45443,18.24226z" data-paper-data="{&quot;index&quot;:null}" fill="#fff067" stroke="#000000" stroke-width="2" stroke-linecap="butt"/><path d="M224.67414,162.13705l-4.80041,2.77751l9.45885,2.82632l-4.91254,2.80027l8.21778,4.0641l-5.7888,7.14329l-11.09309,-9.57926l3.67436,-1.67987l-9.1803,-4.16506l4.48042,-1.71691l-10.43079,-6.10076l3.34795,-0.71358l-11.57217,-7.3835l19.75895,6.21955l-3.9538,1.59774l12.7936,3.91017" data-paper-data="{&quot;index&quot;:null}" fill="#fff200" stroke="none" stroke-width="0.66342" stroke-linecap="butt"/><path d="M218.86003,171.85884c0,-2.11232 1.71238,-3.8247 3.8247,-3.8247c2.11232,0 3.8247,1.71238 3.8247,3.8247c0,2.11232 -1.71238,3.8247 -3.8247,3.8247c-2.11232,0 -3.8247,-1.71238 -3.8247,-3.8247z" fill="#ffe819" stroke="#000000" stroke-width="2" stroke-linecap="butt"/></g></g></svg>