<svg version="1.1" xmlns="http://www.w3.org/2000/svg" xmlns:xlink="http://www.w3.org/1999/xlink" width="90.31145" height="64.61433" viewBox="0,0,90.31145,64.61433"><g transform="translate(-214.84171,-168.75978)"><g data-paper-data="{&quot;isPaintingLayer&quot;:true}" fill-rule="nonzero" stroke="#000000" stroke-width="2" stroke-linejoin="miter" stroke-miterlimit="10" stroke-dasharray="" stroke-dashoffset="0" style="mix-blend-mode: normal"><path d="M226.94522,217.18285l3.2413,-25.35878l7.78735,0.99536l-3.2413,25.35878z" fill="#1d28e8" stroke-linecap="butt"/><path d="M217.40703,212.07463c0,-2.11232 1.71238,-3.8247 3.8247,-3.8247c2.11232,0 3.8247,1.71238 3.8247,3.8247c0,2.11232 -1.71238,3.8247 -3.8247,3.8247c-2.11232,0 -3.8247,-1.71238 -3.8247,-3.8247z" fill="#1d28e8" stroke-linecap="butt"/><path d="M247.16921,209.25027c4.92982,-0.4153 6.54175,2.11702 6.81706,5.3851c0.27531,3.26808 -3.49791,6.25406 -8.42774,6.66936c-4.92982,0.4153 -8.99733,-0.09203 -9.27264,-3.36012c-0.10633,-1.26219 2.74407,-8.00867 10.88332,-8.69434z" data-paper-data="{&quot;index&quot;:null}" fill="#1d28e8" stroke-linecap="butt"/><path d="M229.57219,213.63832c4.91995,-0.51932 6.585,1.97839 6.92927,5.23993c0.34427,3.26154 -3.36505,6.32653 -8.28501,6.84585c-4.91995,0.51932 -8.99727,0.09799 -9.34154,-3.16355c-0.13296,-1.25966 2.57433,-8.06483 10.69728,-8.92223z" data-paper-data="{&quot;index&quot;:null}" fill="#1d28e8" stroke-linecap="butt"/><path d="M215.84171,184.26326c1.16287,-9.09791 9.48089,-15.53052 18.57879,-14.36765c9.09791,1.16287 15.53052,9.48089 14.36765,18.57879c-1.16287,9.09791 -9.48089,15.53052 -18.57879,14.36765c-9.09791,-1.16287 -15.53052,-9.48089 -14.36765,-18.57879z" fill="#1d28e8" stroke-linecap="butt"/><path d="M250.62457,177.95677c1.75667,-1.17303 4.13168,-0.69989 5.3047,1.05678c1.17303,1.75667 0.69989,4.13168 -1.05678,5.3047c-1.75667,1.17303 -4.13168,0.69989 -5.3047,-1.05678c-1.17303,-1.75667 -0.69989,-4.13168 1.05678,-5.3047z" fill="#1d28e8" stroke-linecap="butt"/><path d="M294.00359,212.53045c0,0 -3.02713,0.46566 -5.05499,0.26864c-1.6065,-0.1561 -6.14526,-1.35681 -6.14526,-1.35681" fill="none" stroke-linecap="round"/><path d="M304.15316,213.63412c-0.77448,2.72712 -3.61307,4.31005 -6.34019,3.53557c-2.72712,-0.77448 -4.31005,-3.61307 -3.53557,-6.34019c0.77448,-2.72712 3.61307,-4.31005 6.34019,-3.53557c2.72712,0.77448 4.31005,3.61307 3.53557,6.34019z" fill="#1d28e8" stroke-linecap="butt"/><path d="M285.09358,212.9769l-13.0992,18.95884l-32.42026,-25.18122l23.74447,-15.77371l-14.58569,-14.84312z" fill="#2530ff" stroke-linecap="round"/></g></g></svg>