<svg version="1.1" xmlns="http://www.w3.org/2000/svg" xmlns:xlink="http://www.w3.org/1999/xlink" width="59.40907" height="86.53468" viewBox="0,0,59.40907,86.53468"><g transform="translate(-205.76836,-140.42975)"><g data-paper-data="{&quot;isPaintingLayer&quot;:true}" fill-rule="nonzero" stroke="#000000" stroke-width="2" stroke-linejoin="miter" stroke-miterlimit="10" stroke-dasharray="" stroke-dashoffset="0" style="mix-blend-mode: normal"><path d="M225.08129,214.19819c4.11347,0 7.4481,2.63396 7.4481,5.88312c0,3.24916 -3.33463,5.88312 -7.4481,5.88312c-4.11347,0 -7.4481,-2.63396 -7.4481,-5.88312c0,-3.24916 3.33463,-5.88312 7.4481,-5.88312z" data-paper-data="{&quot;index&quot;:null}" fill="#181818" stroke-linecap="butt"/><path d="M240.14023,221.43236c0,-1.34614 3.40667,-8.23637 11.57475,-8.23637c4.94728,0 6.34095,2.82553 6.34095,6.31099c0,3.48547 -4.01056,6.31099 -8.95785,6.31099c-4.94728,0 -8.95785,-0.90014 -8.95785,-4.3856z" data-paper-data="{&quot;index&quot;:null}" fill="#181818" stroke-linecap="butt"/><path d="M224.03953,154.8613c-1.604,1.37444 -4.01851,1.18835 -5.39295,-0.41565c-1.37444,-1.604 -1.18835,-4.01851 0.41565,-5.39295c1.604,-1.37444 4.01851,-1.18835 5.39295,0.41565c1.37444,1.604 1.18835,4.01851 -0.41565,5.39295z" data-paper-data="{&quot;index&quot;:null}" fill="#181818" stroke-linecap="butt"/><path d="M216.85721,147.38432c0,0 3.05895,0.15229 5.00584,0.75288c1.54236,0.4758 5.74714,2.56428 5.74714,2.56428" data-paper-data="{&quot;index&quot;:null}" fill="#181818" stroke-linecap="round"/><path d="M206.76836,144.19778c1.30682,-2.5158 4.40564,-3.49589 6.92144,-2.18907c2.5158,1.30682 3.49589,4.40564 2.18907,6.92144c-1.30682,2.5158 -4.40564,3.49589 -6.92144,2.18907c-2.5158,-1.30682 -3.49589,-4.40564 -2.18907,-6.92144z" data-paper-data="{&quot;index&quot;:null}" fill="#181818" stroke-linecap="butt"/><path d="M256.25875,166.35065c-2.11232,0 -3.8247,-1.71238 -3.8247,-3.8247c0,-2.11232 1.71238,-3.8247 3.8247,-3.8247c2.11232,0 3.8247,1.71238 3.8247,3.8247c0,2.11232 -1.71238,3.8247 -3.8247,3.8247z" data-paper-data="{&quot;index&quot;:null}" fill="#181818" stroke-linecap="butt"/><path d="M238.14959,176.50117c-9.17192,0 -16.60724,-7.43531 -16.60724,-16.60724c0,-9.17192 7.43531,-16.60724 16.60724,-16.60724c9.17192,0 16.60724,7.43531 16.60724,16.60724c0,9.17192 -7.43531,16.60724 -16.60724,16.60724z" data-paper-data="{&quot;index&quot;:null}" fill="#181818" stroke-linecap="butt"/><path d="M233.49616,205.61184v-25.56509h7.8507v25.56509z" data-paper-data="{&quot;index&quot;:null}" fill="#181818" stroke-linecap="butt"/><path d="M231.3568,178.41074l14.42305,0.30197l-3.74625,4.22758l4.12087,4.22758l-17.04542,1.20788l4.30818,-5.13349z" data-paper-data="{&quot;index&quot;:null}" fill="#0e0e0e" stroke-linecap="round"/><g data-paper-data="{&quot;index&quot;:null}"><path d="M222.6944,153.64772v-12.06291h30.43885v12.06291z" fill="#343434" stroke-linecap="butt"/><path d="M264.17743,153.64772h-52.52723" fill="none" stroke-linecap="round"/></g><path d="M241.54752,163.80512v-5.24474h17.25191v5.24474z" data-paper-data="{&quot;index&quot;:null}" fill="#4f4b4b" stroke-linecap="butt"/></g></g></svg>