<svg version="1.1" xmlns="http://www.w3.org/2000/svg" xmlns:xlink="http://www.w3.org/1999/xlink" width="59.06929" height="88.9419" viewBox="0,0,59.06929,88.9419"><g transform="translate(-207.5656,-135.16608)"><g data-paper-data="{&quot;isPaintingLayer&quot;:true}" fill-rule="nonzero" stroke="#000000" stroke-width="2" stroke-linejoin="miter" stroke-miterlimit="10" stroke-dasharray="" stroke-dashoffset="0" style="mix-blend-mode: normal"><path d="M236.64338,204.91221c0,-2.11232 1.71238,-3.8247 3.8247,-3.8247c2.11232,0 3.8247,1.71238 3.8247,3.8247c0,2.11232 -1.71238,3.8247 -3.8247,3.8247c-2.11232,0 -3.8247,-1.71238 -3.8247,-3.8247z" fill="#ffe819" stroke-linecap="butt"/><path d="M232.42041,160.60724c0,-9.17193 7.43532,-16.60724 16.60724,-16.60724c9.17193,0 16.60724,7.43532 16.60724,16.60724c0,9.17193 -7.43532,16.60724 -16.60724,16.60724c-9.17193,0 -16.60724,-7.43532 -16.60724,-16.60724z" fill="#ffe819" stroke-linecap="butt"/><path d="M235.82023,204.44646l3.81266,-25.27919l7.7629,1.17082l-3.81266,25.27919z" fill="#ffe819" stroke-linecap="butt"/><path d="M234.54842,204.08194c0,-2.11232 1.71238,-3.8247 3.8247,-3.8247c2.11232,0 3.8247,1.71238 3.8247,3.8247c0,2.11232 -1.71238,3.8247 -3.8247,3.8247c-2.11232,0 -3.8247,-1.71238 -3.8247,-3.8247z" fill="#ffe819" stroke-linecap="butt"/><path d="M217.63123,155.4055c0,0 2.10397,-2.22568 3.82583,-3.31485c1.36408,-0.86285 5.68426,-2.70082 5.68426,-2.70082" fill="none" stroke-linecap="round"/><path d="M208.9411,160.76401c-1.06249,-2.62833 0.20687,-5.62033 2.8352,-6.68282c2.62833,-1.06249 5.62033,0.20687 6.68282,2.8352c1.06249,2.62833 -0.20687,5.62033 -2.8352,6.68282c-2.62833,1.06249 -5.62033,-0.20687 -6.68282,-2.8352z" fill="#ffe819" stroke-linecap="butt"/><path d="M236.73949,204.14691c4.2527,2.52787 4.09222,5.5254 2.41644,8.34461c-1.67578,2.81921 -6.48176,3.05539 -10.73447,0.52752c-4.2527,-2.52787 -7.26743,-5.30518 -5.59165,-8.12439c0.64721,-1.08883 6.88836,-4.9213 13.90967,-0.74773z" data-paper-data="{&quot;index&quot;:null}" fill="#ffe819" stroke-linecap="butt"/><path d="M227.89146,160.56016l4.89612,-10.31864l-11.5487,-1.5813c0,0 13.57292,-11.79955 24.16781,-12.49414c10.59489,-0.69459 18.66148,9.6863 18.66148,9.6863z" data-paper-data="{&quot;index&quot;:null}" fill="#fff067" stroke-linecap="butt"/><path d="M246.53381,211.27123c4.9467,0.07597 6.29938,2.75576 6.24901,6.03503c-0.05037,3.27927 -4.10128,5.87606 -9.04798,5.80009c-4.9467,-0.07597 -8.94379,-0.98445 -8.89342,-4.26373c0.01946,-1.26651 3.52529,-7.69682 11.6924,-7.57138z" data-paper-data="{&quot;index&quot;:null}" fill="#ffe819" stroke-linecap="butt"/></g></g></svg>