<svg version="1.1" xmlns="http://www.w3.org/2000/svg" xmlns:xlink="http://www.w3.org/1999/xlink" width="84.62949" height="77.72486" viewBox="0,0,84.62949,77.72486"><g transform="translate(-205.1128,-145.40455)"><g data-paper-data="{&quot;isPaintingLayer&quot;:true}" fill-rule="nonzero" stroke="#000000" stroke-width="2" stroke-linejoin="miter" stroke-miterlimit="10" stroke-dasharray="" stroke-dashoffset="0" style="mix-blend-mode: normal"><path d="M216.80918,218.46418c-2.39683,4.32791 -5.39786,4.25903 -8.26693,2.67012c-2.86907,-1.58892 -3.25188,-6.38544 -0.85505,-10.71335c2.39683,-4.32791 5.08081,-7.42603 7.94987,-5.83712c1.10808,0.61367 5.12933,6.73488 1.1721,13.88035z" data-paper-data="{&quot;index&quot;:null}" fill="#181818" stroke-linecap="butt"/><path d="M283.71056,179.30506c1.93749,-0.84145 4.19027,0.04707 5.03172,1.98456c0.84145,1.93749 -0.04706,4.19026 -1.98456,5.03171c-1.93749,0.84145 -4.19027,-0.04707 -5.03172,-1.98456c-0.84145,-1.93749 0.04707,-4.19027 1.98456,-5.03172z" fill="#181818" stroke-linecap="butt"/><path d="M230.33493,199.20948l13.07119,-21.97084l6.74696,4.01398l-13.07119,21.97084z" fill="#181818" stroke-linecap="butt"/><path d="M244.19235,206.72742c2.66789,4.16629 1.18045,6.77368 -1.58148,8.54229c-2.76193,1.7686 -7.16365,-0.17511 -9.83155,-4.34142c-2.66789,-4.16629 -4.11735,-8.00049 -1.35542,-9.7691c1.0667,-0.68307 8.3637,-1.31043 12.76844,5.56822z" data-paper-data="{&quot;index&quot;:null}" fill="#181818" stroke-linecap="butt"/><path d="M242.40402,174.73882l12.24087,7.63389l-5.38108,1.71779l1.37997,5.74018l-15.26655,-7.67711l6.32719,-2.20903z" fill="#0e0e0e" stroke-linecap="round"/><path d="M212.55298,182.55801c1.45723,-1.52918 3.87819,-1.58751 5.40738,-0.13029c1.52918,1.45723 1.58751,3.87818 0.13028,5.40737c-1.45723,1.52918 -3.87819,1.58751 -5.40738,0.13029c-1.52918,-1.45723 -1.58752,-3.87819 -0.1303,-5.40737z" fill="#181818" stroke-linecap="butt"/><path d="M232.02411,153.75424c0,0 3.03259,-0.42867 5.05791,-0.20691c1.60449,0.17568 6.12825,1.43173 6.12825,1.43173" fill="#181818" stroke-linecap="round"/><path d="M222.28868,152.2787c0.80772,-2.71746 3.66542,-4.26564 6.38289,-3.45791c2.71746,0.80772 4.26564,3.66543 3.45791,6.38289c-0.80772,2.71746 -3.66542,4.26563 -6.38289,3.4579c-2.71746,-0.80772 -4.26564,-3.66542 -3.45791,-6.38289z" fill="#181818" stroke-linecap="butt"/><path d="M240.75773,167.79788c0.54247,-9.15588 8.40453,-16.13841 17.5604,-15.59593c9.15587,0.54247 16.1384,8.40453 15.59593,17.5604c-0.54247,9.15588 -8.40453,16.13841 -17.5604,15.59593c-9.15587,-0.54247 -16.13841,-8.40453 -15.59594,-17.5604z" fill="#181818" stroke-linecap="butt"/><g><path d="M243.06071,160.84112l0.71346,-12.04179l29.58092,1.75262l-0.71346,12.0418z" fill="#343434" stroke-linecap="butt"/><path d="M283.37456,163.22966l-51.04674,-3.02445" fill="none" stroke-linecap="round"/></g><path d="M263.14688,172.92502l-0.04852,-5.24426c0,0 4.62567,0.37427 6.77837,0.33238c2.29559,-0.04467 6.59402,-0.59262 6.59402,-0.59262l0.04852,5.24426z" fill="#ff0000" stroke-linecap="butt"/></g></g></svg>