<svg version="1.1" xmlns="http://www.w3.org/2000/svg" xmlns:xlink="http://www.w3.org/1999/xlink" width="67.84632" height="85.13924" viewBox="0,0,67.84632,85.13924"><defs><linearGradient x1="206.53428" y1="158.73365" x2="232.38884" y2="174.26923" gradientUnits="userSpaceOnUse" id="color-1"><stop offset="0" stop-color="#e80000" stop-opacity="0"/><stop offset="1" stop-color="#e80000"/></linearGradient><linearGradient x1="252.10966" y1="181.11958" x2="223.71662" y2="170.93883" gradientUnits="userSpaceOnUse" id="color-2"><stop offset="0" stop-color="#e80000" stop-opacity="0"/><stop offset="1" stop-color="#e80000"/></linearGradient></defs><g transform="translate(-205.79501,-139.80917)"><g data-paper-data="{&quot;isPaintingLayer&quot;:true}" fill-rule="nonzero" stroke="#000000" stroke-linejoin="miter" stroke-miterlimit="10" stroke-dasharray="" stroke-dashoffset="0" style="mix-blend-mode: normal"><path d="M231.81675,202.31337c0,0 0.09768,-8.04583 1.19916,-11.96871c1.19462,-4.25458 5.71184,-12.64454 5.71184,-12.64454l7.72311,4.09875c0,0 -4.68889,6.01639 -5.85607,10.17325c-1.13562,4.04448 -1.21964,10.98118 -1.21964,10.98118z" fill="#e80000" stroke-width="2" stroke-linecap="butt"/><path d="M264.47965,213.14565c4.43311,2.19616 4.50171,5.1972 3.04582,8.13601c-1.45588,2.9388 -6.22985,3.54083 -10.66297,1.34467c-4.43311,-2.19616 -7.65087,-4.73547 -6.19498,-7.67427c0.56229,-1.13502 6.49296,-5.43232 13.81213,-1.8064z" data-paper-data="{&quot;index&quot;:null}" fill="#e80000" stroke-width="2" stroke-linecap="butt"/><path d="M256.98007,202.66156c4.9471,0.04198 6.31817,2.7124 6.29034,5.99194c-0.02783,3.27955 -4.0608,5.90411 -9.00792,5.86212c-4.9471,-0.04198 -8.95034,-0.92297 -8.92251,-4.20251c0.01075,-1.26662 3.47231,-7.72086 11.64009,-7.65155z" data-paper-data="{&quot;index&quot;:null}" fill="#e80000" stroke-width="2" stroke-linecap="butt"/><path d="M214.00553,182.61391c0.82416,-1.9449 3.06895,-2.85344 5.01385,-2.02927c1.9449,0.82416 2.85344,3.06895 2.02927,5.01385c-0.82416,1.9449 -3.06895,2.85344 -5.01385,2.02927c-1.9449,-0.82416 -2.85344,-3.06895 -2.02927,-5.01385z" fill="#e80000" stroke-width="2" stroke-linecap="butt"/><path d="M222.68351,189.63731c-5.61959,6.57202 -10.45471,2.80999 -14.00321,-3.82545c-3.54852,-6.63546 -3.37415,-15.80075 -1.8734,-25.86276c2.23563,-14.98913 20.72856,-20.13993 20.72856,-20.13993c0,0 -10.02184,12.29936 -7.21207,26.10733c2.51751,12.37183 7.97975,17.1488 2.36014,23.72082z" data-paper-data="{&quot;index&quot;:null}" fill="url(#color-1)" stroke-width="0" stroke-linecap="butt"/><path d="M222.84658,186.74223c0.98391,-1.86917 3.2968,-2.58682 5.16598,-1.60291c1.86917,0.98391 2.58682,3.2968 1.60291,5.16598c-0.98391,1.86917 -3.2968,2.58682 -5.16598,1.60291c-1.86917,-0.98391 -2.58682,-3.2968 -1.60291,-5.16598z" fill="#e80000" stroke-width="2" stroke-linecap="butt"/><path d="M217.9632,188.18034c1.53036,-8.51056 8.68608,-7.30592 19.85722,-13.18859c12.46792,-6.56551 15.64534,-22.1095 15.64534,-22.1095c0,0 7.71889,17.57663 -2.46959,28.79568c-6.8394,7.53121 -13.82423,13.46797 -21.20726,14.92128c-7.38302,1.45331 -13.35605,0.09168 -11.82569,-8.41886z" data-paper-data="{&quot;index&quot;:null}" fill="url(#color-2)" stroke-width="0" stroke-linecap="butt"/><path d="M230.41993,168.38975c0,0 2.10697,-2.22284 3.83029,-3.3097c1.36524,-0.86102 5.68789,-2.69317 5.68789,-2.69317" fill="none" stroke-width="2" stroke-linecap="round"/><path d="M221.72261,173.73657c-1.05895,-2.62976 0.21443,-5.62005 2.84419,-6.679c2.62976,-1.05895 5.62005,0.21443 6.679,2.84419c1.05895,2.62976 -0.21443,5.62005 -2.84419,6.679c-2.62976,1.05895 -5.62005,-0.21443 -6.679,-2.84419z" fill="#e80000" stroke-width="2" stroke-linecap="butt"/><path d="M239.35671,167.98947c0,-9.17193 7.43532,-16.60724 16.60724,-16.60724c9.17193,0 16.60724,7.43532 16.60724,16.60724c0,9.17193 -7.43532,16.60724 -16.60724,16.60724c-9.17193,0 -16.60724,-7.43532 -16.60724,-16.60724z" fill="#e80000" stroke-width="2" stroke-linecap="butt"/><path d="M239.23186,164.11977l-0.06673,-5.59961l33.39762,-0.39799l0.06673,5.5996z" fill="#ff2121" stroke-width="2" stroke-linecap="butt"/></g></g></svg>