<svg version="1.1" xmlns="http://www.w3.org/2000/svg" xmlns:xlink="http://www.w3.org/1999/xlink" width="63.03895" height="120.14264" viewBox="0,0,63.03895,120.14264"><g transform="translate(-206.24216,-107.34546)"><g data-paper-data="{&quot;isPaintingLayer&quot;:true}" fill-rule="nonzero" stroke="#000000" stroke-width="2" stroke-linejoin="miter" stroke-miterlimit="10" stroke-dasharray="" stroke-dashoffset="0" style="mix-blend-mode: normal"><path d="M259.86298,192.66841c0.27686,-2.0941 2.1989,-3.56727 4.293,-3.29041c2.0941,0.27686 3.56727,2.1989 3.29041,4.293c-0.27685,2.0941 -2.1989,3.56727 -4.293,3.29041c-2.0941,-0.27686 -3.56727,-2.1989 -3.29041,-4.293z" fill="#ff6b00" stroke-linecap="butt"/><path d="M235.06672,161.89813c-0.02035,-9.17191 7.39846,-16.62369 16.57036,-16.64404c9.17191,-0.02035 16.62369,7.39845 16.64404,16.57035c0.02035,9.17191 -7.39846,16.62369 -16.57036,16.64404c-9.17191,0.02035 -16.62369,-7.39845 -16.64404,-16.57035z" fill="#ff6b00" stroke-linecap="butt"/><path d="M236.45006,208.04999l5.61305,-24.94128l7.65914,1.7237l-5.61304,24.94128z" fill="#ff6b00" stroke-linecap="butt"/><path d="M236.14228,198.98723c0.27686,-2.0941 2.1989,-3.56726 4.293,-3.29041c2.0941,0.27686 3.56727,2.1989 3.29041,4.293c-0.27686,2.0941 -2.1989,3.56727 -4.293,3.29041c-2.0941,-0.27686 -3.56727,-2.1989 -3.29041,-4.293z" fill="#ff6b00" stroke-linecap="butt"/><path d="M226.12434,159.81529c0,0 1.85407,-2.43778 3.44968,-3.70471c1.26406,-1.00369 5.36309,-3.2928 5.36309,-3.2928" fill="none" stroke-linecap="round"/><path d="M218.05661,166.07177c-1.33728,-2.49974 -0.39493,-5.61025 2.10481,-6.94753c2.49974,-1.33728 5.61025,-0.39492 6.94753,2.10481c1.33728,2.49974 0.39493,5.61025 -2.10481,6.94753c-2.49974,1.33728 -5.61025,0.39492 -6.94753,-2.10481z" fill="#ff6b00" stroke-linecap="butt"/><path d="M251.43265,214.81653c4.93117,0.39887 6.10595,3.16127 5.84154,6.43025c-0.26441,3.26898 -4.47627,5.59567 -9.40746,5.19682c-4.93117,-0.39887 -8.8604,-1.56644 -8.59599,-4.83542c0.10212,-1.26253 4.02041,-7.45016 12.1619,-6.79163z" data-paper-data="{&quot;index&quot;:null}" fill="#ff6b00" stroke-linecap="butt"/><path d="M230.51338,165.26394l4.20112,-12.19286l-26.67712,-21.33668l41.54501,-22.80475l4.21428,33.36377l12.54034,2.88576z" data-paper-data="{&quot;index&quot;:null}" fill="#ffa340" stroke-linecap="butt"/><path d="M227.425,215.52606c4.26369,2.50928 4.11629,5.50749 2.45283,8.33399c-1.66346,2.8265 -6.46836,3.08365 -10.73207,0.57437c-4.26369,-2.50928 -7.29051,-5.27341 -5.62705,-8.09991c0.64245,-1.09164 6.86681,-4.95131 13.90628,-0.80843z" data-paper-data="{&quot;index&quot;:null}" fill="#ff6b00" stroke-linecap="butt"/></g></g></svg>