<svg version="1.1" xmlns="http://www.w3.org/2000/svg" xmlns:xlink="http://www.w3.org/1999/xlink" width="91.86787" height="105.06472" viewBox="0,0,91.86787,105.06472"><g transform="translate(-214.21202,-122.09562)"><g data-paper-data="{&quot;isPaintingLayer&quot;:true}" fill-rule="nonzero" stroke="#000000" stroke-width="2" stroke-linejoin="miter" stroke-miterlimit="10" stroke-dasharray="" stroke-dashoffset="0" style="mix-blend-mode: normal"><path d="M237.10848,205.81963l2.50917,-25.44166l7.8128,0.77053l-2.50917,25.44166z" data-paper-data="{&quot;index&quot;:null}" fill="#1d28e8" stroke-linecap="butt"/><path d="M300.26982,171.93124c-1.96346,0.77892 -4.18661,-0.18134 -4.96553,-2.14481c-0.77892,-1.96346 0.18134,-4.18661 2.14481,-4.96553c1.96346,-0.77892 4.18661,0.18134 4.96553,2.14481c0.77892,1.96346 -0.18134,4.18661 -2.14481,4.96553z" data-paper-data="{&quot;index&quot;:null}" fill="#1d28e8" stroke-linecap="butt"/><path d="M302.93508,175.62655c-1.96346,0.77892 -4.18661,-0.18134 -4.96553,-2.14481c-0.77892,-1.96346 0.18134,-4.18661 2.14481,-4.96553c1.96346,-0.77892 4.18661,0.18134 4.96553,2.14481c0.77892,1.96346 -0.18134,4.18661 -2.14481,4.96553z" data-paper-data="{&quot;index&quot;:null}" fill="#1d28e8" stroke-linecap="butt"/><path d="M229.28716,214.68624c4.11347,0 7.4481,2.47844 7.4481,5.53575c0,3.05731 -3.33463,5.53575 -7.4481,5.53575c-4.11347,0 -7.4481,-2.47844 -7.4481,-5.53575c0,-3.05731 3.33463,-5.53575 7.4481,-5.53575z" data-paper-data="{&quot;index&quot;:null}" fill="#1d28e8" stroke-linecap="butt"/><path d="M255.3555,214.28364c4.94728,0 6.34095,2.65869 6.34095,5.93835c0,3.27966 -4.01056,5.93835 -8.95785,5.93835c-4.94728,0 -8.95785,-0.84699 -8.95785,-4.12665c0,-1.26666 3.40667,-7.75005 11.57475,-7.75005z" data-paper-data="{&quot;index&quot;:null}" fill="#1d28e8" stroke-linecap="butt"/><path d="M233.22585,153.50566c2.08253,-8.93238 11.01188,-14.48526 19.94425,-12.40273c8.93238,2.08253 14.48526,11.01188 12.40273,19.94425c-2.08253,8.93238 -11.01188,14.48526 -19.94425,12.40273c-8.93238,-2.08253 -14.48526,-11.01188 -12.40273,-19.94425z" data-paper-data="{&quot;index&quot;:null}" fill="#1d28e8" stroke-linecap="butt"/><path d="M222.67196,156.94351c0,0 2.73259,-1.3832 4.72132,-1.82603c1.5755,-0.35081 6.26267,-0.61979 6.26267,-0.61979" data-paper-data="{&quot;index&quot;:null}" fill="none" stroke-linecap="round"/><path d="M215.21605,159.77219c-0.11123,-2.83278 2.09502,-5.21936 4.92781,-5.33058c2.83278,-0.11123 5.21936,2.09502 5.33058,4.92781c0.11123,2.83278 -2.09502,5.21936 -4.92781,5.33058c-2.83278,0.11123 -5.21936,-2.09502 -5.33058,-4.92781z" data-paper-data="{&quot;index&quot;:null}" fill="#1d28e8" stroke-linecap="butt"/><path d="M233.5772,154.12462l-6.15324,-22.2073l37.78534,-8.56165l-0.79121,28.15785l13.18795,-1.10146z" data-paper-data="{&quot;index&quot;:null}" fill="#2530ff" stroke-linecap="round"/></g></g></svg>