<svg version="1.1" xmlns="http://www.w3.org/2000/svg" xmlns:xlink="http://www.w3.org/1999/xlink" width="198.78536" height="50.12741" viewBox="0,0,198.78536,50.12741"><defs><linearGradient x1="244.92388" y1="157.71773" x2="244.92388" y2="173.60829" gradientUnits="userSpaceOnUse" id="color-1"><stop offset="0" stop-color="#573a14"/><stop offset="1" stop-color="#1c4f1c"/></linearGradient><linearGradient x1="252.32814" y1="160.05842" x2="252.32814" y2="173.9308" gradientUnits="userSpaceOnUse" id="color-2"><stop offset="0" stop-color="#573a14"/><stop offset="1" stop-color="#1c4f1c"/></linearGradient><linearGradient x1="240.24039" y1="163.59104" x2="240.24039" y2="177.52074" gradientUnits="userSpaceOnUse" id="color-3"><stop offset="0" stop-color="#573a14"/><stop offset="1" stop-color="#1c4f1c"/></linearGradient><linearGradient x1="259.18551" y1="158.21773" x2="259.18551" y2="174.10829" gradientUnits="userSpaceOnUse" id="color-4"><stop offset="0" stop-color="#573a14"/><stop offset="1" stop-color="#1c4f1c"/></linearGradient><linearGradient x1="251.78125" y1="160.55842" x2="251.78125" y2="174.4308" gradientUnits="userSpaceOnUse" id="color-5"><stop offset="0" stop-color="#573a14"/><stop offset="1" stop-color="#1c4f1c"/></linearGradient><linearGradient x1="266.04008" y1="165.31688" x2="261.82488" y2="177.45821" gradientUnits="userSpaceOnUse" id="color-6"><stop offset="0" stop-color="#23571f"/><stop offset="1" stop-color="#184518"/></linearGradient><linearGradient x1="273.68286" y1="156.09488" x2="273.68286" y2="172.07732" gradientUnits="userSpaceOnUse" id="color-7"><stop offset="0" stop-color="#573a14"/><stop offset="1" stop-color="#1c4f1c"/></linearGradient><linearGradient x1="266.31197" y1="158.17463" x2="266.31197" y2="172.11142" gradientUnits="userSpaceOnUse" id="color-8"><stop offset="0" stop-color="#573a14"/><stop offset="1" stop-color="#1c4f1c"/></linearGradient><linearGradient x1="280.59324" y1="163.51682" x2="275.92453" y2="175.49108" gradientUnits="userSpaceOnUse" id="color-9"><stop offset="0" stop-color="#23571f"/><stop offset="1" stop-color="#184518"/></linearGradient><linearGradient x1="260.08058" y1="160.3588" x2="260.08058" y2="176.15186" gradientUnits="userSpaceOnUse" id="color-10"><stop offset="0" stop-color="#573a14"/><stop offset="1" stop-color="#1c4f1c"/></linearGradient><linearGradient x1="267.50735" y1="162.94519" x2="267.50735" y2="176.76233" gradientUnits="userSpaceOnUse" id="color-11"><stop offset="0" stop-color="#573a14"/><stop offset="1" stop-color="#1c4f1c"/></linearGradient><linearGradient x1="255.21853" y1="166.0468" x2="255.21853" y2="179.88819" gradientUnits="userSpaceOnUse" id="color-12"><stop offset="0" stop-color="#573a14"/><stop offset="1" stop-color="#1c4f1c"/></linearGradient><linearGradient x1="304.29472" y1="156.05106" x2="304.29472" y2="171.94162" gradientUnits="userSpaceOnUse" id="color-13"><stop offset="0" stop-color="#573a14"/><stop offset="1" stop-color="#1c4f1c"/></linearGradient><linearGradient x1="299.11127" y1="157.72671" x2="294.28767" y2="171.62041" gradientUnits="userSpaceOnUse" id="color-14"><stop offset="0" stop-color="#23571f"/><stop offset="1" stop-color="#184518"/></linearGradient><linearGradient x1="308.97821" y1="161.92437" x2="308.97821" y2="175.85407" gradientUnits="userSpaceOnUse" id="color-15"><stop offset="0" stop-color="#573a14"/><stop offset="1" stop-color="#1c4f1c"/></linearGradient><linearGradient x1="290.03309" y1="156.55106" x2="290.03309" y2="172.44162" gradientUnits="userSpaceOnUse" id="color-16"><stop offset="0" stop-color="#573a14"/><stop offset="1" stop-color="#1c4f1c"/></linearGradient><linearGradient x1="297.43735" y1="158.89175" x2="297.43735" y2="172.76413" gradientUnits="userSpaceOnUse" id="color-17"><stop offset="0" stop-color="#573a14"/><stop offset="1" stop-color="#1c4f1c"/></linearGradient><linearGradient x1="283.17852" y1="163.65021" x2="287.39373" y2="175.79154" gradientUnits="userSpaceOnUse" id="color-18"><stop offset="0" stop-color="#23571f"/><stop offset="1" stop-color="#184518"/></linearGradient><linearGradient x1="275.53575" y1="154.42821" x2="275.53575" y2="170.41065" gradientUnits="userSpaceOnUse" id="color-19"><stop offset="0" stop-color="#573a14"/><stop offset="1" stop-color="#1c4f1c"/></linearGradient><linearGradient x1="282.90663" y1="156.50796" x2="282.90663" y2="170.44474" gradientUnits="userSpaceOnUse" id="color-20"><stop offset="0" stop-color="#573a14"/><stop offset="1" stop-color="#1c4f1c"/></linearGradient><linearGradient x1="271.03735" y1="160.47951" x2="271.03735" y2="174.49237" gradientUnits="userSpaceOnUse" id="color-21"><stop offset="0" stop-color="#573a14"/><stop offset="1" stop-color="#1c4f1c"/></linearGradient><linearGradient x1="289.13801" y1="158.69214" x2="289.13801" y2="174.48519" gradientUnits="userSpaceOnUse" id="color-22"><stop offset="0" stop-color="#573a14"/><stop offset="1" stop-color="#1c4f1c"/></linearGradient><linearGradient x1="281.71126" y1="161.27852" x2="281.71126" y2="175.09566" gradientUnits="userSpaceOnUse" id="color-23"><stop offset="0" stop-color="#573a14"/><stop offset="1" stop-color="#1c4f1c"/></linearGradient><linearGradient x1="294.00009" y1="164.38013" x2="294.00009" y2="178.22152" gradientUnits="userSpaceOnUse" id="color-24"><stop offset="0" stop-color="#573a14"/><stop offset="1" stop-color="#1c4f1c"/></linearGradient><linearGradient x1="171.42389" y1="157.05106" x2="171.42389" y2="172.94162" gradientUnits="userSpaceOnUse" id="color-25"><stop offset="0" stop-color="#573a14"/><stop offset="1" stop-color="#1c4f1c"/></linearGradient><linearGradient x1="176.60735" y1="158.72671" x2="181.43094" y2="172.62041" gradientUnits="userSpaceOnUse" id="color-26"><stop offset="0" stop-color="#23571f"/><stop offset="1" stop-color="#184518"/></linearGradient><linearGradient x1="166.7404" y1="162.92437" x2="166.7404" y2="176.85407" gradientUnits="userSpaceOnUse" id="color-27"><stop offset="0" stop-color="#573a14"/><stop offset="1" stop-color="#1c4f1c"/></linearGradient><linearGradient x1="185.68552" y1="157.55106" x2="185.68552" y2="173.44162" gradientUnits="userSpaceOnUse" id="color-28"><stop offset="0" stop-color="#573a14"/><stop offset="1" stop-color="#1c4f1c"/></linearGradient><linearGradient x1="178.28126" y1="159.89175" x2="178.28126" y2="173.76413" gradientUnits="userSpaceOnUse" id="color-29"><stop offset="0" stop-color="#573a14"/><stop offset="1" stop-color="#1c4f1c"/></linearGradient><linearGradient x1="192.54009" y1="164.65021" x2="188.32489" y2="176.79154" gradientUnits="userSpaceOnUse" id="color-30"><stop offset="0" stop-color="#23571f"/><stop offset="1" stop-color="#184518"/></linearGradient><linearGradient x1="200.18287" y1="155.4282" x2="200.18287" y2="171.41065" gradientUnits="userSpaceOnUse" id="color-31"><stop offset="0" stop-color="#573a14"/><stop offset="1" stop-color="#1c4f1c"/></linearGradient><linearGradient x1="192.81197" y1="157.50796" x2="192.81197" y2="171.44474" gradientUnits="userSpaceOnUse" id="color-32"><stop offset="0" stop-color="#573a14"/><stop offset="1" stop-color="#1c4f1c"/></linearGradient><linearGradient x1="207.09325" y1="162.85016" x2="202.42453" y2="174.82442" gradientUnits="userSpaceOnUse" id="color-33"><stop offset="0" stop-color="#23571f"/><stop offset="1" stop-color="#184518"/></linearGradient><linearGradient x1="186.58059" y1="159.69213" x2="186.58059" y2="175.48519" gradientUnits="userSpaceOnUse" id="color-34"><stop offset="0" stop-color="#573a14"/><stop offset="1" stop-color="#1c4f1c"/></linearGradient><linearGradient x1="194.00734" y1="162.27853" x2="194.00734" y2="176.09567" gradientUnits="userSpaceOnUse" id="color-35"><stop offset="0" stop-color="#573a14"/><stop offset="1" stop-color="#1c4f1c"/></linearGradient><linearGradient x1="181.71853" y1="165.38015" x2="181.71853" y2="179.22154" gradientUnits="userSpaceOnUse" id="color-36"><stop offset="0" stop-color="#573a14"/><stop offset="1" stop-color="#1c4f1c"/></linearGradient><linearGradient x1="230.79473" y1="155.3844" x2="230.79473" y2="171.27496" gradientUnits="userSpaceOnUse" id="color-37"><stop offset="0" stop-color="#573a14"/><stop offset="1" stop-color="#1c4f1c"/></linearGradient><linearGradient x1="223.39048" y1="157.72509" x2="223.39048" y2="171.59747" gradientUnits="userSpaceOnUse" id="color-38"><stop offset="0" stop-color="#573a14"/><stop offset="1" stop-color="#1c4f1c"/></linearGradient><linearGradient x1="235.47822" y1="161.25771" x2="235.47822" y2="175.18741" gradientUnits="userSpaceOnUse" id="color-39"><stop offset="0" stop-color="#573a14"/><stop offset="1" stop-color="#1c4f1c"/></linearGradient><linearGradient x1="216.5331" y1="155.8844" x2="216.5331" y2="171.77496" gradientUnits="userSpaceOnUse" id="color-40"><stop offset="0" stop-color="#573a14"/><stop offset="1" stop-color="#1c4f1c"/></linearGradient><linearGradient x1="223.93736" y1="158.22508" x2="223.93736" y2="172.09746" gradientUnits="userSpaceOnUse" id="color-41"><stop offset="0" stop-color="#573a14"/><stop offset="1" stop-color="#1c4f1c"/></linearGradient><linearGradient x1="209.67854" y1="162.98353" x2="213.89374" y2="175.12488" gradientUnits="userSpaceOnUse" id="color-42"><stop offset="0" stop-color="#23571f"/><stop offset="1" stop-color="#184518"/></linearGradient><linearGradient x1="202.03575" y1="153.76155" x2="202.03575" y2="169.74399" gradientUnits="userSpaceOnUse" id="color-43"><stop offset="0" stop-color="#573a14"/><stop offset="1" stop-color="#1c4f1c"/></linearGradient><linearGradient x1="209.40664" y1="155.8413" x2="209.40664" y2="169.77809" gradientUnits="userSpaceOnUse" id="color-44"><stop offset="0" stop-color="#573a14"/><stop offset="1" stop-color="#1c4f1c"/></linearGradient><linearGradient x1="197.53735" y1="159.81286" x2="197.53735" y2="173.82571" gradientUnits="userSpaceOnUse" id="color-45"><stop offset="0" stop-color="#573a14"/><stop offset="1" stop-color="#1c4f1c"/></linearGradient><linearGradient x1="215.63803" y1="158.02548" x2="215.63803" y2="173.81854" gradientUnits="userSpaceOnUse" id="color-46"><stop offset="0" stop-color="#573a14"/><stop offset="1" stop-color="#1c4f1c"/></linearGradient><linearGradient x1="208.21127" y1="160.61186" x2="208.21127" y2="174.429" gradientUnits="userSpaceOnUse" id="color-47"><stop offset="0" stop-color="#573a14"/><stop offset="1" stop-color="#1c4f1c"/></linearGradient><linearGradient x1="220.50007" y1="163.71347" x2="220.50007" y2="177.55486" gradientUnits="userSpaceOnUse" id="color-48"><stop offset="0" stop-color="#573a14"/><stop offset="1" stop-color="#1c4f1c"/></linearGradient><linearGradient x1="263.41521" y1="178.13204" x2="263.41521" y2="188.92572" gradientUnits="userSpaceOnUse" id="color-49"><stop offset="0" stop-color="#573a14"/><stop offset="1" stop-color="#1c4f1c"/></linearGradient><linearGradient x1="257.74976" y1="181.1465" x2="257.74976" y2="191.35673" gradientUnits="userSpaceOnUse" id="color-50"><stop offset="0" stop-color="#573a14"/><stop offset="1" stop-color="#1c4f1c"/></linearGradient><linearGradient x1="268.19199" y1="180.75753" x2="268.19199" y2="190.18984" gradientUnits="userSpaceOnUse" id="color-51"><stop offset="0" stop-color="#573a14"/><stop offset="1" stop-color="#1c4f1c"/></linearGradient><linearGradient x1="296.9156" y1="178.2987" x2="296.9156" y2="189.09238" gradientUnits="userSpaceOnUse" id="color-52"><stop offset="0" stop-color="#573a14"/><stop offset="1" stop-color="#1c4f1c"/></linearGradient><linearGradient x1="302.58104" y1="181.31316" x2="302.58104" y2="191.52339" gradientUnits="userSpaceOnUse" id="color-53"><stop offset="0" stop-color="#573a14"/><stop offset="1" stop-color="#1c4f1c"/></linearGradient><linearGradient x1="292.13882" y1="180.92419" x2="292.13882" y2="190.3565" gradientUnits="userSpaceOnUse" id="color-54"><stop offset="0" stop-color="#573a14"/><stop offset="1" stop-color="#1c4f1c"/></linearGradient><linearGradient x1="180.69017" y1="181.22145" x2="180.69017" y2="196.37443" gradientUnits="userSpaceOnUse" id="color-55"><stop offset="0" stop-color="#573a14"/><stop offset="1" stop-color="#1c4f1c"/></linearGradient><linearGradient x1="182.63227" y1="173.6146" x2="182.63227" y2="189.10359" gradientUnits="userSpaceOnUse" id="color-56"><stop offset="0" stop-color="#573a14"/><stop offset="1" stop-color="#1c4f1c"/></linearGradient><linearGradient x1="185.14978" y1="187.26903" x2="185.14978" y2="200.50787" gradientUnits="userSpaceOnUse" id="color-57"><stop offset="0" stop-color="#573a14"/><stop offset="1" stop-color="#1c4f1c"/></linearGradient><linearGradient x1="234.4661" y1="176.32197" x2="234.4661" y2="189.13903" gradientUnits="userSpaceOnUse" id="color-58"><stop offset="0" stop-color="#573a14"/><stop offset="1" stop-color="#1c4f1c"/></linearGradient><linearGradient x1="241.51491" y1="179.90152" x2="241.51491" y2="192.02577" gradientUnits="userSpaceOnUse" id="color-59"><stop offset="0" stop-color="#573a14"/><stop offset="1" stop-color="#1c4f1c"/></linearGradient><linearGradient x1="228.52297" y1="179.43964" x2="228.52297" y2="190.64013" gradientUnits="userSpaceOnUse" id="color-60"><stop offset="0" stop-color="#573a14"/><stop offset="1" stop-color="#1c4f1c"/></linearGradient><linearGradient x1="239.9028" y1="188.11118" x2="239.9028" y2="203.88896" gradientUnits="userSpaceOnUse" id="color-61"><stop offset="0" stop-color="#a89d3b"/><stop offset="1" stop-color="#6d7529"/></linearGradient><linearGradient x1="275.4826" y1="155.65805" x2="275.4826" y2="169.5743" gradientUnits="userSpaceOnUse" id="color-62"><stop offset="0" stop-color="#573a14"/><stop offset="1" stop-color="#1c4f1c"/></linearGradient><linearGradient x1="282.78706" y1="159.54456" x2="282.78706" y2="172.70857" gradientUnits="userSpaceOnUse" id="color-63"><stop offset="0" stop-color="#573a14"/><stop offset="1" stop-color="#1c4f1c"/></linearGradient><linearGradient x1="269.32392" y1="159.04309" x2="269.32392" y2="171.20412" gradientUnits="userSpaceOnUse" id="color-64"><stop offset="0" stop-color="#573a14"/><stop offset="1" stop-color="#1c4f1c"/></linearGradient></defs><g transform="translate(-140.51011,-153.76156)"><g data-paper-data="{&quot;isPaintingLayer&quot;:true}" fill-rule="nonzero" stroke="none" stroke-width="0" stroke-linecap="butt" stroke-linejoin="miter" stroke-miterlimit="10" stroke-dasharray="" stroke-dashoffset="0" style="mix-blend-mode: normal"><path d="M174.26806,194.96338v-31.83334h133.32728v31.83334z" fill="#2e0909"/><g><g><g><g><path d="M245.02956,192.50111l0.60171,-9.30418l-0.32439,-2.5222l-6.95742,0.3445l-2.87535,-1.31565l1.34301,-0.81057l-0.52995,-1.6338l5.29979,1.55606l3.70718,-0.78892l-0.26459,-5.99066l5.5491,-0.19917l-0.46484,2.25262l3.68853,-0.67297l6.25469,-2.97448l-2.00471,2.05795l0.8006,0.27815l-4.05307,2.54109l-5.42463,1.84479l1.27028,15.12989z" data-paper-data="{&quot;index&quot;:null}" fill="#572d14"/><g><path d="M237.69544,169.0721c-1.33199,-3.83662 2.72816,-9.13983 6.68191,-10.82672c3.95373,-1.68687 6.30384,0.88134 7.63584,4.71798c1.33199,3.83662 -0.79334,8.31433 -4.74708,10.00121c-3.95373,1.68687 -8.23866,-0.05584 -9.57066,-3.89247z" fill="url(#color-1)"/><path d="M245.36026,169.3946c-1.33199,-3.83662 -1.26772,-6.57271 2.68601,-8.25959c3.95373,-1.68687 10.29974,-1.68577 11.63173,2.15086c1.33199,3.83662 -0.79335,8.31434 -4.74708,10.00121c-3.95373,1.68687 -8.23866,-0.05585 -9.57066,-3.89248z" fill="url(#color-2)"/><path d="M233.92096,173.55668c-1.16399,-3.35273 2.49913,-8.03615 5.95419,-9.51027c3.45506,-1.47412 5.39371,0.81927 6.5577,4.17201c1.16399,3.35273 -0.69329,7.26566 -4.14835,8.73978c-3.45506,1.47412 -7.19957,-0.04878 -8.36356,-3.40152z" fill="url(#color-3)"/></g></g><g><path d="M253.4639,192.79356l1.27028,-15.12989l-5.42463,-1.84479l-4.05307,-2.54109l0.8006,-0.27815l-2.00471,-2.05795l6.25469,2.97448l3.68853,0.67297l-0.46484,-2.25262l5.5491,0.19917l-0.26459,5.99066l3.70718,0.78892l5.29979,-1.55606l-0.52995,1.6338l1.34301,0.81057l-2.87535,1.31565l-6.95742,-0.3445l-0.32439,2.5222l0.60171,9.30418z" data-paper-data="{&quot;index&quot;:null}" fill="#572d14"/><g data-paper-data="{&quot;index&quot;:null}"><path d="M266.41395,169.5721c-1.332,3.83663 -5.61693,5.57934 -9.57066,3.89247c-3.95374,-1.68688 -6.07907,-6.16459 -4.74708,-10.00121c1.332,-3.83664 3.68211,-6.40485 7.63584,-4.71798c3.95375,1.68689 8.0139,6.9901 6.68191,10.82672z" fill="url(#color-4)"/><path d="M249.17848,173.78708c-3.95373,-1.68687 -6.07907,-6.16459 -4.74708,-10.00121c1.33199,-3.83663 7.678,-3.83773 11.63173,-2.15086c3.95373,1.68688 4.018,4.42297 2.68601,8.25959c-1.332,3.83663 -5.61693,5.57935 -9.57066,3.89248z" fill="url(#color-5)"/><path d="M270.18845,174.05668c-1.16399,3.35274 -4.9085,4.87564 -8.36356,3.40152c-3.45506,-1.47412 -5.31234,-5.38705 -4.14835,-8.73978c1.16399,-3.35274 3.10264,-5.64613 6.5577,-4.17201c3.45506,1.47412 7.11818,6.15754 5.95419,9.51027z" fill="url(#color-6)"/></g></g></g><g><path d="M266.99288,190.50123l1.83824,-15.07143l-5.35143,-2.04745l-3.95466,-2.69168l0.81049,-0.24786l-1.92591,-2.13187l6.13843,3.20754l3.66062,0.81117l-0.37982,-2.2685l5.53769,0.40766l-0.48964,5.97648l3.6749,0.92774l5.35454,-1.35569l-0.591,1.61272l1.31159,0.86049l-2.92278,1.20661l-6.93955,-0.60584l-0.41899,2.50822l0.25146,9.32022z" data-paper-data="{&quot;index&quot;:null}" fill="#572d14"/><g><path d="M280.80686,167.78309c-1.47531,3.78384 -5.82273,5.3642 -9.71024,3.52988c-3.88752,-1.83434 -5.843,-6.38879 -4.3677,-10.17262c1.47531,-3.78385 3.92032,-6.26188 7.80783,-4.42755c3.88753,1.83435 7.74542,7.28647 6.27012,11.07029z" fill="url(#color-7)"/><path d="M263.4251,171.34707c-3.88751,-1.83433 -5.843,-6.38879 -4.3677,-10.17262c1.4753,-3.78384 7.81687,-3.54633 11.70438,-1.71201c3.88751,1.83434 3.84886,4.57091 2.37356,8.35474c-1.47531,3.78384 -5.82273,5.36422 -9.71024,3.52989z" fill="url(#color-8)"/><path d="M284.41008,172.40642c-1.28922,3.3066 -5.08834,4.68764 -8.48554,3.08466c-3.3972,-1.60298 -5.10604,-5.58298 -3.81681,-8.88958c1.28922,-3.3066 3.31272,-5.52548 6.70992,-3.9225c3.3972,1.60298 6.88164,6.42082 5.59241,9.72741z" fill="url(#color-9)"/></g></g><g><path d="M259.20457,195.05783l0.95111,-9.27498l-0.22933,-2.53261l-6.96546,0.08266l-2.82385,-1.42282l1.37254,-0.7595l-0.46815,-1.65257l5.23754,1.75422l3.73422,-0.64898l-0.03917,-5.99637l5.55267,0.0096l-0.54921,2.23355l3.71123,-0.53381l6.3621,-2.73721l-2.08067,1.98112l0.78958,0.30805l-4.14575,2.3869l-5.49015,1.63953l0.70052,15.16695z" data-paper-data="{&quot;index&quot;:null}" fill="#572d14"/><g data-paper-data="{&quot;index&quot;:null}"><path d="M252.75652,171.36964c-1.1868,-3.88399 3.06987,-9.03079 7.08425,-10.56784c4.01436,-1.53702 6.26625,1.11773 7.45305,5.00173c1.1868,3.88399 -1.10538,8.27863 -5.11975,9.81566c-4.01436,1.53703 -8.23074,-0.36556 -9.41754,-4.24956z" fill="url(#color-10)"/><path d="M260.4038,171.98009c-1.1868,-3.88399 -1.0197,-6.61572 2.99466,-8.15276c4.01436,-1.53702 10.35584,-1.29732 11.54264,2.58668c1.1868,3.88399 -1.10539,8.27863 -5.11975,9.81565c-4.01436,1.53703 -8.23074,-0.36557 -9.41755,-4.24957z" fill="url(#color-11)"/><path d="M248.8161,175.70913c-1.03711,-3.39413 2.79951,-7.9365 6.30755,-9.27968c3.50804,-1.34318 5.35909,1.02148 6.3962,4.41562c1.03711,3.39413 -0.96598,7.23445 -4.47402,8.57763c-3.50804,1.34318 -7.19264,-0.31943 -8.22975,-3.71357z" fill="url(#color-12)"/></g></g></g><g data-paper-data="{&quot;index&quot;:null}"><g><g><path d="M298.57311,190.62689l1.27028,-15.12989l-5.42463,-1.84479l-4.05307,-2.54109l0.8006,-0.27815l-2.00471,-2.05795l6.25469,2.97448l3.68853,0.67297l-0.46484,-2.25262l5.5491,0.19917l-0.26459,5.99066l3.70718,0.78892l5.29979,-1.55606l-0.52995,1.6338l1.34301,0.81057l-2.87535,1.31565l-6.95742,-0.3445l-0.32439,2.5222l0.60171,9.30418z" data-paper-data="{&quot;index&quot;:null}" fill="#572d14"/><g><path d="M311.52315,167.40543c-1.332,3.83663 -5.61693,5.57934 -9.57066,3.89247c-3.95374,-1.68688 -6.07907,-6.16459 -4.74708,-10.00121c1.332,-3.83664 3.68211,-6.40485 7.63584,-4.71798c3.95375,1.68689 8.0139,6.9901 6.68191,10.82672z" fill="url(#color-13)"/><path d="M294.28769,171.62041c-3.95373,-1.68687 -6.07907,-6.16459 -4.74708,-10.00121c1.33199,-3.83663 7.678,-3.83773 11.63173,-2.15086c3.95373,1.68688 4.018,4.42297 2.68601,8.25959c-1.332,3.83663 -5.61693,5.57935 -9.57066,3.89248z" fill="url(#color-14)"/><path d="M315.29767,171.89001c-1.16399,3.35274 -4.9085,4.87564 -8.36356,3.40152c-3.45506,-1.47412 -5.31234,-5.38705 -4.14835,-8.73978c1.16399,-3.35274 3.10264,-5.64613 6.5577,-4.17201c3.45506,1.47412 7.11818,6.15754 5.95419,9.51027z" fill="url(#color-15)"/></g></g><g><path d="M290.13876,191.33444l0.60171,-9.30418l-0.32439,-2.5222l-6.95742,0.3445l-2.87535,-1.31565l1.34301,-0.81057l-0.52995,-1.6338l5.29979,1.55606l3.70718,-0.78892l-0.26459,-5.99066l5.5491,-0.19917l-0.46484,2.25262l3.68853,-0.67297l6.25469,-2.97448l-2.00471,2.05795l0.8006,0.27815l-4.05307,2.54109l-5.42463,1.84479l1.27028,15.12989z" data-paper-data="{&quot;index&quot;:null}" fill="#572d14"/><g data-paper-data="{&quot;index&quot;:null}"><path d="M282.80465,167.90543c-1.33199,-3.83662 2.72816,-9.13983 6.68191,-10.82672c3.95373,-1.68687 6.30384,0.88134 7.63584,4.71798c1.33199,3.83662 -0.79334,8.31433 -4.74708,10.00121c-3.95373,1.68687 -8.23866,-0.05584 -9.57066,-3.89247z" fill="url(#color-16)"/><path d="M290.46947,168.22793c-1.33199,-3.83662 -1.26772,-6.57271 2.68601,-8.25959c3.95373,-1.68687 10.29974,-1.68577 11.63173,2.15086c1.33199,3.83662 -0.79335,8.31434 -4.74708,10.00121c-3.95373,1.68687 -8.23866,-0.05585 -9.57066,-3.89248z" fill="url(#color-17)"/><path d="M279.03017,172.39001c-1.16399,-3.35273 2.49913,-8.03615 5.95419,-9.51027c3.45506,-1.47412 5.39371,0.81927 6.5577,4.17201c1.16399,3.35273 -0.69329,7.26566 -4.14835,8.73978c-3.45506,1.47412 -7.19957,-0.04878 -8.36356,-3.40152z" fill="url(#color-18)"/></g></g></g><g><path d="M276.62156,189.25312l0.25146,-9.32022l-0.41899,-2.50822l-6.93955,0.60584l-2.92278,-1.20661l1.31158,-0.8605l-0.591,-1.61272l5.35455,1.3557l3.67489,-0.92775l-0.48964,-5.97647l5.53769,-0.40767l-0.37982,2.26851l3.66062,-0.81118l6.13843,-3.20754l-1.92592,2.13187l0.81049,0.24785l-3.95466,2.69168l-5.35144,2.04745l1.83824,15.07143z" data-paper-data="{&quot;index&quot;:null}" fill="#572d14"/><g><path d="M268.41175,166.11641c-1.4753,-3.78383 2.38259,-9.23594 6.27012,-11.07029c3.88751,-1.83433 6.33252,0.6437 7.80783,4.42754c1.4753,3.78383 -0.48017,8.33829 -4.36769,10.17263c-3.88751,1.83433 -8.23493,0.25396 -9.71024,-3.52988z" fill="url(#color-19)"/><path d="M276.08327,166.15051c-1.4753,-3.78383 -1.51395,-6.5204 2.37356,-8.35474c3.88751,-1.83433 10.22907,-2.07183 11.70437,1.712c1.4753,3.78383 -0.48018,8.33829 -4.36769,10.17262c-3.88751,1.83433 -8.23494,0.25395 -9.71024,-3.52989z" fill="url(#color-20)"/><path d="M264.80854,170.73975c-1.28922,-3.30659 2.19521,-8.12444 5.59241,-9.72742c3.3972,-1.60298 5.4207,0.6159 6.70992,3.92251c1.28922,3.30659 -0.41962,7.28659 -3.81681,8.88957c-3.3972,1.60298 -7.19632,0.22195 -8.48554,-3.08466z" fill="url(#color-21)"/></g></g><g><path d="M284.39428,193.39491l0.70053,-15.16696l-5.49016,-1.63953l-4.14574,-2.38691l0.78958,-0.30805l-2.08067,-1.98112l6.3621,2.73721l3.71123,0.53382l-0.54921,-2.23355l5.55266,-0.00961l-0.03916,5.99638l3.73422,0.64898l5.23753,-1.75422l-0.46814,1.65257l1.37254,0.7595l-2.82385,1.42283l-6.96545,-0.08267l-0.22933,2.53262l0.95111,9.27497z" data-paper-data="{&quot;index&quot;:null}" fill="#572d14"/><g data-paper-data="{&quot;index&quot;:null}"><path d="M296.46208,169.70297c-1.1868,3.884 -5.40319,5.78658 -9.41755,4.24956c-4.01437,-1.53704 -6.30655,-5.93166 -5.11975,-9.81565c1.1868,-3.88401 3.43869,-6.53876 7.45305,-5.00174c4.01438,1.53705 8.27106,6.68384 7.08426,10.56784z" fill="url(#color-22)"/><path d="M279.39727,174.56299c-4.01436,-1.53702 -6.30656,-5.93166 -5.11975,-9.81565c1.1868,-3.884 7.52827,-4.1237 11.54263,-2.58668c4.01436,1.53704 4.18146,4.26877 2.99466,8.15276c-1.1868,3.884 -5.40318,5.7866 -9.41754,4.24957z" fill="url(#color-23)"/><path d="M300.40254,174.04246c-1.03711,3.39414 -4.72171,5.05674 -8.22975,3.71357c-3.50804,-1.34318 -5.51113,-5.1835 -4.47402,-8.57763c1.03711,-3.39414 2.88817,-5.75879 6.39621,-4.41562c3.50804,1.34318 7.34466,5.88555 6.30755,9.27968z" fill="url(#color-24)"/></g></g></g></g><g><g><g><g><path d="M171.52957,191.83444l0.60171,-9.30418l-0.32439,-2.5222l-6.95742,0.3445l-2.87535,-1.31565l1.34301,-0.81057l-0.52995,-1.6338l5.29979,1.55606l3.70718,-0.78892l-0.26459,-5.99066l5.5491,-0.19917l-0.46484,2.25262l3.68853,-0.67297l6.25469,-2.97448l-2.00471,2.05795l0.8006,0.27815l-4.05307,2.54109l-5.42463,1.84479l1.27028,15.12989z" data-paper-data="{&quot;index&quot;:null}" fill="#572d14"/><g><path d="M164.19545,168.40543c-1.33199,-3.83662 2.72816,-9.13983 6.68191,-10.82672c3.95373,-1.68687 6.30384,0.88134 7.63584,4.71798c1.33199,3.83662 -0.79334,8.31433 -4.74708,10.00121c-3.95373,1.68687 -8.23866,-0.05584 -9.57066,-3.89247z" fill="url(#color-25)"/><path d="M171.86027,168.72793c-1.33199,-3.83662 -1.26772,-6.57271 2.68601,-8.25959c3.95373,-1.68687 10.29974,-1.68577 11.63173,2.15086c1.33199,3.83662 -0.79335,8.31434 -4.74708,10.00121c-3.95373,1.68687 -8.23866,-0.05585 -9.57066,-3.89248z" fill="url(#color-26)"/><path d="M160.42097,172.89001c-1.16399,-3.35273 2.49913,-8.03615 5.95419,-9.51027c3.45506,-1.47412 5.39371,0.81927 6.5577,4.17201c1.16399,3.35273 -0.69329,7.26566 -4.14835,8.73978c-3.45506,1.47412 -7.19957,-0.04878 -8.36356,-3.40152z" fill="url(#color-27)"/></g></g><g><path d="M179.96391,192.12689l1.27028,-15.12989l-5.42463,-1.84479l-4.05307,-2.54109l0.8006,-0.27815l-2.00471,-2.05795l6.25469,2.97448l3.68853,0.67297l-0.46484,-2.25262l5.5491,0.19917l-0.26459,5.99066l3.70718,0.78892l5.29979,-1.55606l-0.52995,1.6338l1.34301,0.81057l-2.87535,1.31565l-6.95742,-0.3445l-0.32439,2.5222l0.60171,9.30418z" data-paper-data="{&quot;index&quot;:null}" fill="#572d14"/><g data-paper-data="{&quot;index&quot;:null}"><path d="M192.91396,168.90543c-1.332,3.83663 -5.61693,5.57934 -9.57066,3.89247c-3.95374,-1.68688 -6.07907,-6.16459 -4.74708,-10.00121c1.332,-3.83664 3.68211,-6.40485 7.63584,-4.71798c3.95375,1.68689 8.0139,6.9901 6.68191,10.82672z" fill="url(#color-28)"/><path d="M175.67849,173.12041c-3.95373,-1.68687 -6.07907,-6.16459 -4.74708,-10.00121c1.33199,-3.83663 7.678,-3.83773 11.63173,-2.15086c3.95373,1.68688 4.018,4.42297 2.68601,8.25959c-1.332,3.83663 -5.61693,5.57935 -9.57066,3.89248z" fill="url(#color-29)"/><path d="M196.68847,173.39001c-1.16399,3.35274 -4.9085,4.87564 -8.36356,3.40152c-3.45506,-1.47412 -5.31234,-5.38705 -4.14835,-8.73978c1.16399,-3.35274 3.10264,-5.64613 6.5577,-4.17201c3.45506,1.47412 7.11818,6.15754 5.95419,9.51027z" fill="url(#color-30)"/></g></g></g><g><path d="M193.49288,189.83457l1.83824,-15.07143l-5.35144,-2.04745l-3.95466,-2.69168l0.81049,-0.24785l-1.92592,-2.13187l6.13843,3.20754l3.66062,0.81118l-0.37982,-2.26851l5.53769,0.40766l-0.48964,5.97648l3.67489,0.92775l5.35455,-1.3557l-0.591,1.61272l1.31158,0.8605l-2.92279,1.20661l-6.93954,-0.60584l-0.41899,2.50822l0.25146,9.32022z" data-paper-data="{&quot;index&quot;:null}" fill="#572d14"/><g><path d="M207.30686,167.11641c-1.47531,3.78384 -5.82273,5.36421 -9.71024,3.52988c-3.88752,-1.83434 -5.843,-6.3888 -4.36769,-10.17263c1.47531,-3.78385 3.92032,-6.26188 7.80783,-4.42755c3.88753,1.83435 7.74542,7.28646 6.27012,11.07029z" fill="url(#color-31)"/><path d="M189.9251,170.6804c-3.88751,-1.83433 -5.84299,-6.38879 -4.36769,-10.17262c1.4753,-3.78384 7.81686,-3.54633 11.70437,-1.71201c3.88751,1.83434 3.84886,4.57092 2.37356,8.35474c-1.47531,3.78384 -5.82273,5.36421 -9.71024,3.52988z" fill="url(#color-32)"/><path d="M210.91009,171.73975c-1.28922,3.3066 -5.08834,4.68764 -8.48554,3.08466c-3.3972,-1.60298 -5.10604,-5.58298 -3.81682,-8.88957c1.28922,-3.3066 3.31273,-5.52549 6.70992,-3.92251c3.3972,1.60298 6.88163,6.42082 5.59241,9.72742z" fill="url(#color-33)"/></g></g><g><path d="M185.70457,194.39117l0.95111,-9.27497l-0.22933,-2.53262l-6.96545,0.08267l-2.82385,-1.42283l1.37253,-0.7595l-0.46815,-1.65257l5.23754,1.75422l3.73422,-0.64898l-0.03916,-5.99637l5.55266,0.00961l-0.54921,2.23355l3.71122,-0.53382l6.36211,-2.73721l-2.08067,1.98112l0.78957,0.30805l-4.14575,2.38691l-5.49015,1.63953l0.70052,15.16696z" data-paper-data="{&quot;index&quot;:null}" fill="#572d14"/><g data-paper-data="{&quot;index&quot;:null}"><path d="M179.25653,170.70297c-1.1868,-3.88399 3.06987,-9.03079 7.08425,-10.56784c4.01436,-1.53702 6.26625,1.11773 7.45305,5.00174c1.1868,3.88399 -1.10538,8.27862 -5.11975,9.81565c-4.01436,1.53703 -8.23074,-0.36556 -9.41754,-4.24956z" fill="url(#color-34)"/><path d="M186.9038,171.31343c-1.1868,-3.88399 -1.0197,-6.61572 2.99466,-8.15276c4.01436,-1.53702 10.35584,-1.29732 11.54263,2.58668c1.1868,3.88399 -1.10539,8.27863 -5.11975,9.81565c-4.01436,1.53703 -8.23074,-0.36557 -9.41754,-4.24957z" fill="url(#color-35)"/><path d="M175.3161,175.04247c-1.03711,-3.39413 2.79951,-7.9365 6.30755,-9.27967c3.50804,-1.34318 5.35909,1.02148 6.39621,4.41562c1.03711,3.39413 -0.96598,7.23445 -4.47402,8.57763c-3.50804,1.34318 -7.19264,-0.31943 -8.22976,-3.71357z" fill="url(#color-36)"/></g></g></g><g data-paper-data="{&quot;index&quot;:null}"><g><g><path d="M225.07312,189.96023l1.27028,-15.12989l-5.42463,-1.84479l-4.05307,-2.54109l0.8006,-0.27815l-2.00471,-2.05795l6.25469,2.97448l3.68853,0.67297l-0.46484,-2.25262l5.5491,0.19917l-0.26459,5.99066l3.70718,0.78892l5.29979,-1.55606l-0.52995,1.6338l1.34301,0.81057l-2.87535,1.31565l-6.95742,-0.3445l-0.32439,2.5222l0.60171,9.30418z" data-paper-data="{&quot;index&quot;:null}" fill="#572d14"/><g><path d="M238.02317,166.73877c-1.332,3.83663 -5.61693,5.57934 -9.57066,3.89247c-3.95374,-1.68688 -6.07907,-6.16459 -4.74708,-10.00121c1.332,-3.83664 3.68211,-6.40485 7.63584,-4.71798c3.95375,1.68689 8.0139,6.9901 6.68191,10.82672z" fill="url(#color-37)"/><path d="M220.7877,170.95375c-3.95373,-1.68687 -6.07907,-6.16459 -4.74708,-10.00121c1.33199,-3.83663 7.678,-3.83773 11.63173,-2.15086c3.95373,1.68688 4.018,4.42297 2.68601,8.25959c-1.332,3.83663 -5.61693,5.57935 -9.57066,3.89248z" fill="url(#color-38)"/><path d="M241.79768,171.22335c-1.16399,3.35274 -4.9085,4.87564 -8.36356,3.40152c-3.45506,-1.47412 -5.31234,-5.38705 -4.14835,-8.73978c1.16399,-3.35274 3.10264,-5.64613 6.5577,-4.17201c3.45506,1.47412 7.11818,6.15754 5.95419,9.51027z" fill="url(#color-39)"/></g></g><g><path d="M216.63878,190.66778l0.60171,-9.30418l-0.32439,-2.5222l-6.95742,0.3445l-2.87535,-1.31565l1.34301,-0.81057l-0.52995,-1.6338l5.29979,1.55606l3.70718,-0.78892l-0.26459,-5.99066l5.5491,-0.19917l-0.46484,2.25262l3.68853,-0.67297l6.25469,-2.97448l-2.00471,2.05795l0.8006,0.27815l-4.05307,2.54109l-5.42463,1.84479l1.27028,15.12989z" data-paper-data="{&quot;index&quot;:null}" fill="#572d14"/><g data-paper-data="{&quot;index&quot;:null}"><path d="M209.30466,167.23877c-1.33199,-3.83662 2.72816,-9.13983 6.68191,-10.82672c3.95373,-1.68687 6.30384,0.88134 7.63584,4.71798c1.33199,3.83662 -0.79334,8.31433 -4.74708,10.00121c-3.95373,1.68687 -8.23866,-0.05584 -9.57066,-3.89247z" fill="url(#color-40)"/><path d="M216.96948,167.56125c-1.33199,-3.83662 -1.26772,-6.57271 2.68601,-8.25959c3.95373,-1.68687 10.29974,-1.68577 11.63173,2.15086c1.33199,3.83662 -0.79335,8.31434 -4.74708,10.00121c-3.95373,1.68687 -8.23866,-0.05585 -9.57066,-3.89248z" fill="url(#color-41)"/><path d="M205.53018,171.72335c-1.16399,-3.35273 2.49913,-8.03615 5.95419,-9.51027c3.45506,-1.47412 5.39371,0.81927 6.5577,4.17201c1.16399,3.35273 -0.69329,7.26566 -4.14835,8.73978c-3.45506,1.47412 -7.19957,-0.04878 -8.36356,-3.40152z" fill="url(#color-42)"/></g></g></g><g><path d="M203.12158,188.58646l0.25146,-9.32022l-0.41899,-2.50822l-6.93955,0.60584l-2.92279,-1.20661l1.31159,-0.86049l-0.591,-1.61272l5.35455,1.3557l3.6749,-0.92775l-0.48964,-5.97648l5.53768,-0.40766l-0.37981,2.2685l3.66062,-0.81118l6.13843,-3.20754l-1.92592,2.13187l0.81049,0.24785l-3.95466,2.69168l-5.35143,2.04745l1.83824,15.07143z" data-paper-data="{&quot;index&quot;:null}" fill="#572d14"/><g><path d="M194.91175,165.44976c-1.4753,-3.78383 2.38259,-9.23594 6.27012,-11.07029c3.88751,-1.83433 6.33252,0.6437 7.80783,4.42755c1.4753,3.78383 -0.48018,8.33828 -4.36769,10.17262c-3.88751,1.83433 -8.23493,0.25396 -9.71024,-3.52988z" fill="url(#color-43)"/><path d="M202.58328,165.48385c-1.4753,-3.78383 -1.51395,-6.5204 2.37356,-8.35474c3.88751,-1.83433 10.22907,-2.07183 11.70437,1.71201c1.4753,3.78383 -0.48018,8.33829 -4.36769,10.17262c-3.88751,1.83433 -8.23493,0.25395 -9.71024,-3.52989z" fill="url(#color-44)"/><path d="M191.30855,170.07309c-1.28922,-3.30659 2.19521,-8.12443 5.59241,-9.72741c3.3972,-1.60298 5.4207,0.6159 6.70992,3.92251c1.28922,3.30659 -0.41962,7.28659 -3.81681,8.88957c-3.3972,1.60298 -7.19632,0.22194 -8.48554,-3.08466z" fill="url(#color-45)"/></g></g><g><path d="M210.89428,192.72825l0.70052,-15.16696l-5.49016,-1.63953l-4.14574,-2.3869l0.78957,-0.30805l-2.08067,-1.98112l6.36211,2.73721l3.71122,0.53381l-0.54921,-2.23355l5.55266,-0.00961l-0.03916,5.99638l3.73422,0.64898l5.23753,-1.75422l-0.46814,1.65257l1.37253,0.7595l-2.82385,1.42283l-6.96546,-0.08267l-0.22933,2.53261l0.95111,9.27498z" data-paper-data="{&quot;index&quot;:null}" fill="#572d14"/><g data-paper-data="{&quot;index&quot;:null}"><path d="M222.96209,169.03631c-1.1868,3.884 -5.40318,5.78659 -9.41754,4.24956c-4.01437,-1.53704 -6.30655,-5.93166 -5.11975,-9.81565c1.1868,-3.88401 3.43869,-6.53877 7.45305,-5.00174c4.01438,1.53705 8.27106,6.68384 7.08426,10.56784z" fill="url(#color-46)"/><path d="M205.89728,173.89633c-4.01436,-1.53702 -6.30656,-5.93166 -5.11975,-9.81565c1.18679,-3.884 7.52828,-4.1237 11.54264,-2.58668c4.01436,1.53704 4.18146,4.26877 2.99466,8.15276c-1.1868,3.884 -5.40318,5.7866 -9.41754,4.24957z" fill="url(#color-47)"/><path d="M226.90254,173.3758c-1.03711,3.39414 -4.72172,5.05675 -8.22976,3.71357c-3.50804,-1.34318 -5.51113,-5.1835 -4.47402,-8.57763c1.03711,-3.39414 2.88816,-5.75879 6.3962,-4.41562c3.50804,1.34318 7.34466,5.88555 6.30755,9.27967z" fill="url(#color-48)"/></g></g></g></g><g data-paper-data="{&quot;index&quot;:null}"><path d="M263.41522,188.92572c-3.40504,0 -6.16537,-2.41625 -6.16537,-5.39684c0,-2.98059 1.09402,-5.39684 4.49905,-5.39684c3.40504,0 7.83167,2.41626 7.83167,5.39684c0,2.98059 -2.76032,5.39684 -6.16535,5.39684z" fill="url(#color-49)"/><path d="M257.74976,191.35673c-3.40503,0 -6.16536,-2.41626 -6.16536,-5.39684c0,-2.98058 4.75992,-4.81339 8.16495,-4.81339c3.40503,0 4.16578,1.83281 4.16578,4.81339c0,2.98059 -2.76033,5.39684 -6.16536,5.39684z" fill="url(#color-50)"/><path d="M273.57974,185.47369c0,2.60466 -2.41218,4.71615 -5.38775,4.71615c-2.97557,0 -5.38775,-2.11149 -5.38775,-4.71615c0,-2.60466 0.85695,-4.71616 3.83252,-4.71616c2.97557,0 6.94297,2.1115 6.94297,4.71616z" fill="url(#color-51)"/></g><path d="M272.58974,188.50111l1.22722,-16.1968l-5.24077,-1.97488l-3.9157,-2.72028l0.77347,-0.29776l-1.93676,-2.20307l6.04271,3.18424l3.56352,0.72043l-0.44908,-2.41147l5.36102,0.21322l-0.25562,6.4131l3.58153,0.84456l7.48176,-0.47633l-2.87358,1.86796l1.29749,0.62984l-2.77789,0.33791l-6.72162,-0.36879l-0.31339,2.70006l0.58132,9.96027z" data-paper-data="{&quot;index&quot;:null}" fill="#572d14"/><path d="M207.38259,189.98836l-9.21536,-0.41665l-2.54094,0.10159l-0.26796,6.96079l-1.56313,2.74867l-0.68947,-1.40902l-1.67404,0.3844l2.01557,-5.14263l-0.46024,-3.76215l-5.99075,-0.26264l0.28903,-5.54514l2.20308,0.66091l-0.34637,-3.73338l-2.41358,-6.49179l1.87391,2.17773l0.3474,-0.77308l2.17525,4.26061l1.36117,5.5657c0,0 7.74489,0.23375 11.28309,0.68316c3.14239,0.39915 8.8999,1.88046 8.8999,1.88046z" data-paper-data="{&quot;index&quot;:null}" fill="#572d14"/><g data-paper-data="{&quot;index&quot;:null}"><path d="M290.75023,183.69554c0,-2.98058 4.42663,-5.39684 7.83167,-5.39684c3.40503,0 4.49905,2.41625 4.49905,5.39684c0,2.98059 -2.76033,5.39684 -6.16537,5.39684c-3.40503,0 -6.16535,-2.41625 -6.16535,-5.39684z" fill="url(#color-52)"/><path d="M302.58104,191.52339c-3.40503,0 -6.16536,-2.41625 -6.16536,-5.39684c0,-2.98058 0.76075,-4.81339 4.16578,-4.81339c3.40503,0 8.16495,1.83281 8.16495,4.81339c0,2.98058 -2.76033,5.39684 -6.16536,5.39684z" fill="url(#color-53)"/><path d="M286.75108,185.64035c0,-2.60466 3.9674,-4.71616 6.94297,-4.71616c2.97557,0 3.83252,2.1115 3.83252,4.71616c0,2.60466 -2.41218,4.71615 -5.38775,4.71615c-2.97557,0 -5.38775,-2.11149 -5.38775,-4.71615z" fill="url(#color-54)"/></g><g><path d="M183.39992,196.23617c-3.93879,0.98984 -8.86487,-3.52045 -10.19795,-7.60709c-1.33306,-4.08662 1.43165,-6.20206 5.37046,-7.1919c3.93879,-0.98984 8.21251,1.52059 9.54558,5.60722c1.33306,4.08662 -0.7793,8.20191 -4.7181,9.19176z" fill="url(#color-55)"/><path d="M184.39444,188.6293c-3.93879,0.98984 -6.65866,0.68548 -7.99173,-3.40114c-1.33306,-4.08662 -0.77454,-10.40801 3.16426,-11.39784c3.93879,-0.98984 8.21252,1.5206 9.54558,5.60722c1.33306,4.08662 -0.77931,8.20191 -4.71811,9.19176z" fill="url(#color-56)"/><path d="M187.53563,200.38998c-3.44201,0.86499 -7.78557,-3.19535 -8.95051,-6.76654c-1.16494,-3.57119 1.28988,-5.3009 4.73191,-6.16589c3.44201,-0.86499 7.17667,1.32881 8.34161,4.9c1.16494,3.57119 -0.68098,7.16746 -4.12301,8.03245z" fill="url(#color-57)"/></g><g><path d="M226.79532,182.7305c0,-3.53932 5.5075,-6.40853 9.74396,-6.40853c4.23645,0 5.5976,2.8692 5.5976,6.40853c0,3.53932 -3.43432,6.40853 -7.67078,6.40853c-4.23645,0 -7.67077,-2.8692 -7.67077,-6.40853z" fill="url(#color-58)"/><path d="M233.84414,185.61723c0,-3.53932 0.94651,-5.71571 5.18295,-5.71571c4.23645,0 10.1586,2.17639 10.1586,5.71571c0,3.53932 -3.43434,6.40853 -7.67078,6.40853c-4.23645,0 -7.67077,-2.8692 -7.67077,-6.40853z" fill="url(#color-59)"/><path d="M221.81968,185.03988c0,-3.09293 4.93614,-5.60025 8.63826,-5.60025c3.70212,0 4.76832,2.50731 4.76832,5.60025c0,3.09293 -3.00117,5.60025 -6.70329,5.60025c-3.70212,0 -6.70329,-2.50731 -6.70329,-5.60025z" fill="url(#color-60)"/></g><path d="M140.51011,203.88896v-15.77777h198.78536v15.77777z" fill="url(#color-61)"/><g><path d="M267.53362,162.61618c0,-3.84285 5.70724,-6.95812 10.09735,-6.95812c4.39009,0 5.80061,3.11526 5.80061,6.95812c0,3.84285 -3.55887,6.95812 -7.94898,6.95812c-4.39009,0 -7.94897,-3.11525 -7.94897,-6.95812z" fill="url(#color-62)"/><path d="M274.83808,165.75045c0,-3.84285 0.98083,-6.20589 5.37092,-6.20589c4.39009,0 10.52703,2.36303 10.52703,6.20589c0,3.84285 -3.55889,6.95812 -7.94898,6.95812c-4.39009,0 -7.94897,-3.11526 -7.94897,-6.95812z" fill="url(#color-63)"/><path d="M262.37753,165.12361c0,-3.35818 5.11516,-6.08052 8.95155,-6.08052c3.83639,0 4.94125,2.72234 4.94125,6.08052c0,3.35818 -3.11001,6.08051 -6.9464,6.08051c-3.83639,0 -6.94641,-2.72234 -6.94641,-6.08051z" fill="url(#color-64)"/></g></g></g></svg>