<svg version="1.1" xmlns="http://www.w3.org/2000/svg" xmlns:xlink="http://www.w3.org/1999/xlink" width="71.35216" height="106.36262" viewBox="0,0,71.35216,106.36262"><g transform="translate(-204.71082,-120.39512)"><g data-paper-data="{&quot;isPaintingLayer&quot;:true}" fill-rule="nonzero" stroke="#000000" stroke-width="2" stroke-linejoin="miter" stroke-miterlimit="10" stroke-dasharray="" stroke-dashoffset="0" style="mix-blend-mode: normal"><path d="M267.41358,182.96543c0,-2.11232 1.71238,-3.8247 3.8247,-3.8247c2.11232,0 3.8247,1.71238 3.8247,3.8247c0,2.11232 -1.71238,3.8247 -3.8247,3.8247c-2.11232,0 -3.8247,-1.71238 -3.8247,-3.8247z" fill="#1d28e8" stroke-linecap="butt"/><path d="M224.65727,160.5487c0,-9.17193 7.43532,-16.60724 16.60724,-16.60724c9.17193,0 16.60724,7.43532 16.60724,16.60724c0,9.17193 -7.43532,16.60724 -16.60724,16.60724c-9.17193,0 -16.60724,-7.43532 -16.60724,-16.60724z" fill="#1d28e8" stroke-linecap="butt"/><path d="M236.53396,206.26661v-25.56509h7.8507v25.56509z" fill="#1d28e8" stroke-linecap="butt"/><path d="M222.24167,211.22144c0,-2.11232 1.71238,-3.8247 3.8247,-3.8247c2.11232,0 3.8247,1.71238 3.8247,3.8247c0,2.11232 -1.71238,3.8247 -3.8247,3.8247c-2.11232,0 -3.8247,-1.71238 -3.8247,-3.8247z" fill="#1d28e8" stroke-linecap="butt"/><path d="M229.28716,214.68624c4.11347,0 7.4481,2.47844 7.4481,5.53575c0,3.05731 -3.33463,5.53575 -7.4481,5.53575c-4.11347,0 -7.4481,-2.47844 -7.4481,-5.53575c0,-3.05731 3.33463,-5.53575 7.4481,-5.53575z" data-paper-data="{&quot;index&quot;:null}" fill="#1d28e8" stroke-linecap="butt"/><path d="M215.1471,164.15953c0,0 2.34717,-1.96752 4.1834,-2.85033c1.45469,-0.69937 5.95838,-2.02557 5.95838,-2.02557" fill="none" stroke-linecap="round"/><path d="M205.89576,168.47747c-0.75151,-2.73354 0.85523,-5.55873 3.58877,-6.31024c2.73354,-0.75151 5.55873,0.85523 6.31024,3.58877c0.75151,2.73354 -0.85523,5.55873 -3.58877,6.31024c-2.73354,0.75151 -5.55873,-0.85523 -6.31024,-3.58877z" fill="#1d28e8" stroke-linecap="butt"/><path d="M259.49217,212.64224c4.73446,-1.43542 6.83958,0.70453 7.79116,3.84311c0.95157,3.13858 -2.11506,6.84654 -6.84953,8.28197c-4.73446,1.43542 -8.81826,1.78851 -9.76983,-1.35007c-0.36751,-1.21217 1.01149,-8.40509 8.82821,-10.77501z" data-paper-data="{&quot;index&quot;:null}" fill="#1d28e8" stroke-linecap="butt"/><path d="M224.4586,159.74361l-11.03481,-20.23016l37.07784,-17.61821l3.39948,28.30289l19.81931,-6.34473z" fill="#2530ff" stroke-linecap="round"/></g></g></svg>