<svg version="1.1" xmlns="http://www.w3.org/2000/svg" xmlns:xlink="http://www.w3.org/1999/xlink" width="69.39096" height="114.85295" viewBox="0,0,69.39096,114.85295"><g transform="translate(-195.02584,-111.62839)"><g data-paper-data="{&quot;isPaintingLayer&quot;:true}" fill-rule="nonzero" stroke="#000000" stroke-width="2" stroke-linejoin="miter" stroke-miterlimit="10" stroke-dasharray="" stroke-dashoffset="0" style="mix-blend-mode: normal"><path d="M249.81152,191.47787c0,-2.11232 1.71238,-3.8247 3.8247,-3.8247c2.11232,0 3.8247,1.71238 3.8247,3.8247c0,2.11232 -1.71238,3.8247 -3.8247,3.8247c-2.11232,0 -3.8247,-1.71238 -3.8247,-3.8247z" fill="#ff6b00" stroke-linecap="butt"/><path d="M219.49588,163.61461c1.21739,-9.09078 9.57382,-15.47341 18.66459,-14.25602c9.09078,1.21739 15.47341,9.57382 14.25602,18.66459c-1.21739,9.09078 -9.57382,15.47341 -18.66459,14.25602c-9.09078,-1.21739 -15.47341,-9.57382 -14.25602,-18.66459z" fill="#ff6b00" stroke-linecap="butt"/><path d="M223.6186,208.58324l0.19148,-25.56437l7.85048,0.05881l-0.19148,25.56437z" fill="#ff6b00" stroke-linecap="butt"/><path d="M233.75291,197.27731c0,-2.11232 1.71238,-3.8247 3.8247,-3.8247c2.11232,0 3.8247,1.71238 3.8247,3.8247c0,2.11232 -1.71238,3.8247 -3.8247,3.8247c-2.11232,0 -3.8247,-1.71238 -3.8247,-3.8247z" fill="#ff6b00" stroke-linecap="butt"/><path d="M228.21867,210.28904c4.11347,0 7.4481,2.47844 7.4481,5.53575c0,3.05731 -3.33463,5.53575 -7.4481,5.53575c-4.11347,0 -7.4481,-2.47844 -7.4481,-5.53575c0,-3.05731 3.33463,-5.53575 7.4481,-5.53575z" data-paper-data="{&quot;index&quot;:null}" fill="#ff6b00" stroke-linecap="butt"/><path d="M210.91631,160.34422c0,0 2.16605,-2.16532 3.91801,-3.20537c1.38792,-0.82395 5.75834,-2.53905 5.75834,-2.53905" fill="none" stroke-linecap="round"/><path d="M202.07818,165.45492c-0.98776,-2.65732 0.36567,-5.61223 3.02299,-6.59999c2.65732,-0.98776 5.61223,0.36567 6.59999,3.02299c0.98776,2.65732 -0.36567,5.61223 -3.02299,6.59999c-2.65732,0.98776 -5.61223,-0.36567 -6.59999,-3.02299z" fill="#ff6b00" stroke-linecap="butt"/><path d="M256.31504,213.35675c4.89967,-0.68466 6.64788,1.75557 7.10176,5.00368c0.45388,3.24811 -3.15015,6.43623 -8.04983,7.12091c-4.89967,0.68466 -8.98886,0.40087 -9.44274,-2.84724c-0.1753,-1.25446 2.30134,-8.14693 10.39082,-9.27733z" data-paper-data="{&quot;index&quot;:null}" fill="#ff6b00" stroke-linecap="butt"/><path d="M214.53003,166.33526l5.80788,-11.51451l-23.55423,-24.74109l44.24211,-16.99057l-0.326,33.6273l12.03629,4.55142z" data-paper-data="{&quot;index&quot;:null}" fill="#ffa340" stroke-linecap="butt"/></g></g></svg>