<svg version="1.1" xmlns="http://www.w3.org/2000/svg" xmlns:xlink="http://www.w3.org/1999/xlink" width="142.42981" height="66.56741" viewBox="0,0,142.42981,66.56741"><g transform="translate(-198.90278,-163.02393)"><g data-paper-data="{&quot;isPaintingLayer&quot;:true}" fill-rule="nonzero" stroke="#000000" stroke-width="2" stroke-linejoin="miter" stroke-miterlimit="10" stroke-dasharray="" stroke-dashoffset="0" style="mix-blend-mode: normal"><path d="M221.92031,224.32173c-1.85849,4.58492 -4.846,4.87776 -7.88545,3.64575c-3.03945,-1.23202 -3.99682,-5.94761 -2.13834,-10.53256c1.85849,-4.58492 4.15005,-7.98359 7.18949,-6.75156c1.17388,0.47583 5.90268,6.06853 2.83428,13.63837z" data-paper-data="{&quot;index&quot;:null}" fill="#ff6b00" stroke-linecap="butt"/><path d="M298.50594,219.21104c0.27686,-2.0941 2.1989,-3.56727 4.293,-3.29041c2.0941,0.27686 3.56727,2.1989 3.29041,4.293c-0.27685,2.0941 -2.1989,3.56727 -4.293,3.29041c-2.0941,-0.27686 -3.56727,-2.1989 -3.29041,-4.293z" fill="#ff6b00" stroke-linecap="butt"/><path d="M275.94207,192.06226c8.92631,-2.1084 17.87169,3.41862 19.98009,12.34491c2.1084,8.92631 -3.41861,17.87169 -12.3449,19.98009c-8.92631,2.1084 -17.87169,-3.41862 -19.98009,-12.34491c-2.1084,-8.92631 3.41861,-17.87169 12.3449,-19.98009z" fill="#ff6b00" stroke-linecap="butt"/><path d="M232.54911,213.53274l25.55667,-0.65591l0.20141,7.84813l-25.55666,0.65592z" fill="#ff6b00" stroke-linecap="butt"/><path d="M273.61424,220.0652c0.27686,-2.0941 2.1989,-3.56726 4.293,-3.29041c2.0941,0.27686 3.56727,2.1989 3.29041,4.293c-0.27686,2.0941 -2.1989,3.56727 -4.293,3.29041c-2.0941,-0.27686 -3.56727,-2.1989 -3.29041,-4.293z" fill="#ff6b00" stroke-linecap="butt"/><path d="M287.32372,184.79366c0,0 2.55906,1.68272 3.93232,3.18779c1.08793,1.19233 3.65245,5.12493 3.65245,5.12493" fill="none" stroke-linecap="round"/><path d="M280.52927,177.17346c2.40226,-1.50538 5.57001,-0.77832 7.0754,1.62394c1.50538,2.40226 0.77831,5.57002 -1.62394,7.0754c-2.40226,1.50538 -5.57001,0.77832 -7.0754,-1.62394c-1.50538,-2.40226 -0.77831,-5.57002 1.62394,-7.0754z" fill="#ff6b00" stroke-linecap="butt"/><path d="M282.18853,189.54564l12.45201,3.356l19.4591,-28.07608l25.59714,39.88522l-32.9967,6.4899l-2.01993,12.70857z" data-paper-data="{&quot;index&quot;:null}" fill="#ffa340" stroke-linecap="butt"/><path d="M209.92818,225.44954c-3.40927,3.58503 -6.29629,2.7628 -8.67289,0.50272c-2.3766,-2.26008 -1.53945,-6.99847 1.86982,-10.58352c3.40927,-3.58503 6.78679,-5.9076 9.16339,-3.64752c0.91788,0.87288 3.26844,7.80934 -2.36033,13.72833z" data-paper-data="{&quot;index&quot;:null}" fill="#ff6b00" stroke-linecap="butt"/></g></g></svg>