<svg version="1.1" xmlns="http://www.w3.org/2000/svg" xmlns:xlink="http://www.w3.org/1999/xlink" width="56.93251" height="84.51767" viewBox="0,0,56.93251,84.51767"><g transform="translate(-212.42793,-139.3516)"><g data-paper-data="{&quot;isPaintingLayer&quot;:true}" fill-rule="nonzero" stroke="#000000" stroke-width="2" stroke-linejoin="miter" stroke-miterlimit="10" stroke-dasharray="" stroke-dashoffset="0" style="mix-blend-mode: normal"><path d="M235.30955,202.37436l3.30559,-25.35048l7.78479,1.01511l-3.30559,25.35048z" fill="#e80000" stroke-linecap="butt"/><path d="M221.09244,182.63058c0,-2.11232 1.71238,-3.8247 3.8247,-3.8247c2.11232,0 3.8247,1.71238 3.8247,3.8247c0,2.11232 -1.71238,3.8247 -3.8247,3.8247c-2.11232,0 -3.8247,-1.71238 -3.8247,-3.8247z" fill="#e80000" stroke-linecap="butt"/><path d="M255.04418,195.87502c0,-2.11232 1.71238,-3.8247 3.8247,-3.8247c2.11232,0 3.8247,1.71238 3.8247,3.8247c0,2.11232 -1.71238,3.8247 -3.8247,3.8247c-2.11232,0 -3.8247,-1.71238 -3.8247,-3.8247z" fill="#e80000" stroke-linecap="butt"/><path d="M262.43462,205.07875c4.93449,0.3554 6.13358,3.10733 5.89797,6.37852c-0.23561,3.27119 -4.4268,5.6349 -9.3613,5.2795c-4.93449,-0.3554 -8.87386,-1.48831 -8.63826,-4.7595c0.09099,-1.26338 3.95461,-7.4853 12.10159,-6.89852z" data-paper-data="{&quot;index&quot;:null}" fill="#e80000" stroke-linecap="butt"/><path d="M223.49817,220.35467c-3.35479,3.63606 -6.25389,2.85748 -8.66431,0.63351c-2.41042,-2.22396 -1.64487,-6.97446 1.70993,-10.61053c3.35479,-3.63606 6.6969,-6.00933 9.10732,-3.78536c0.93095,0.85893 3.3859,7.75915 -2.15295,13.76237z" data-paper-data="{&quot;index&quot;:null}" fill="#e80000" stroke-linecap="butt"/><path d="M222.67796,157.35912c0,0 2.10697,-2.22284 3.83029,-3.3097c1.36524,-0.86102 5.68789,-2.69317 5.68789,-2.69317" fill="none" stroke-linecap="round"/><path d="M213.98064,162.70594c-1.05895,-2.62976 0.21443,-5.62005 2.84419,-6.679c2.62976,-1.05895 5.62005,0.21443 6.679,2.84419c1.05895,2.62976 -0.21443,5.62005 -2.84419,6.679c-2.62976,1.05895 -5.62005,-0.21443 -6.679,-2.84419z" fill="#e80000" stroke-linecap="butt"/><path d="M231.61474,156.95884c0,-9.17193 7.43532,-16.60724 16.60724,-16.60724c9.17193,0 16.60724,7.43532 16.60724,16.60724c0,9.17193 -7.43532,16.60724 -16.60724,16.60724c-9.17193,0 -16.60724,-7.43532 -16.60724,-16.60724z" fill="#e80000" stroke-linecap="butt"/><path d="M230.53899,155.48182l-1.3957,-5.42329l32.34602,-8.32434l1.3957,5.42328z" fill="#ff2121" stroke-linecap="butt"/></g></g></svg>