<svg version="1.1" xmlns="http://www.w3.org/2000/svg" xmlns:xlink="http://www.w3.org/1999/xlink" width="89.08617" height="120.45872" viewBox="0,0,89.08617,120.45872"><defs><radialGradient cx="242.34796" cy="144.55054" r="18.84183" gradientUnits="userSpaceOnUse" id="color-1"><stop offset="0" stop-color="#ffffff"/><stop offset="1" stop-color="#0debff"/></radialGradient></defs><g transform="translate(-205.74085,-135.37454)"><g data-paper-data="{&quot;isPaintingLayer&quot;:true}" fill-rule="nonzero" stroke-linejoin="miter" stroke-miterlimit="10" stroke-dasharray="" stroke-dashoffset="0" style="mix-blend-mode: normal"><path d="M206.83514,162.47762c-0.53818,-2.78341 1.28193,-5.47609 4.06534,-6.01427c2.78341,-0.53818 5.47609,1.28193 6.01427,4.06534c0.53818,2.78341 -1.28193,5.47609 -4.06534,6.01427c-2.78341,0.53818 -5.47609,-1.28193 -6.01427,-4.06534z" data-paper-data="{&quot;index&quot;:null}" fill="#0debff" stroke="#000000" stroke-width="2" stroke-linecap="butt"/><path d="M281.69186,172.46388c0,2.11232 -1.71238,3.8247 -3.8247,3.8247c-2.11232,0 -3.8247,-1.71238 -3.8247,-3.8247c0,-2.11232 1.71238,-3.8247 3.8247,-3.8247c2.11232,0 3.8247,1.71238 3.8247,3.8247z" data-paper-data="{&quot;index&quot;:null}" fill="#0debff" stroke="#000000" stroke-width="2" stroke-linecap="butt"/><path d="M235.59324,209.82411l-7.58502,-24.41395l7.4972,-2.32925l7.58502,24.41395z" data-paper-data="{&quot;index&quot;:null}" fill="#0debff" stroke="#000000" stroke-width="2" stroke-linecap="butt"/><path d="M247.3993,204.54234c0,-2.11232 1.71238,-3.8247 3.8247,-3.8247c2.11232,0 3.8247,1.71238 3.8247,3.8247c0,2.11232 -1.71238,3.8247 -3.8247,3.8247c-2.11232,0 -3.8247,-1.71238 -3.8247,-3.8247z" fill="#0debff" stroke="#000000" stroke-width="2" stroke-linecap="butt"/><path d="M222.88335,215.61447c4.11347,0 7.4481,2.47844 7.4481,5.53575c0,3.05731 -3.33463,5.53575 -7.4481,5.53575c-4.11347,0 -7.4481,-2.47844 -7.4481,-5.53575c0,-3.05731 3.33463,-5.53575 7.4481,-5.53575z" data-paper-data="{&quot;index&quot;:null}" fill="#0debff" stroke="#000000" stroke-width="2" stroke-linecap="butt"/><path d="M262.7249,213.495c4.74209,-1.41001 6.83571,0.7412 7.77044,3.88484c0.93473,3.14364 -2.15175,6.8351 -6.89385,8.24512c-4.74209,1.41001 -8.82772,1.7412 -9.76245,-1.40244c-0.36101,-1.21413 1.05655,-8.39955 8.88587,-10.72751z" data-paper-data="{&quot;index&quot;:null}" fill="#0debff" stroke="#000000" stroke-width="2" stroke-linecap="butt"/><path d="M234.4366,181.9969c-8.27262,3.9608 -18.18977,0.46539 -22.15058,-7.80723c-3.9608,-8.27262 -0.46539,-18.18977 7.80723,-22.15058c8.27262,-3.9608 18.18977,-0.46539 22.15058,7.80723c3.9608,8.27262 0.46539,18.18977 -7.80723,22.15058z" data-paper-data="{&quot;index&quot;:null}" fill="#0debff" stroke="#000000" stroke-width="2" stroke-linecap="butt"/><path d="M216.3923,158.88699c0,0 2.49209,-1.7804 4.39101,-2.51877c1.50435,-0.58495 6.09701,-1.55941 6.09701,-1.55941" data-paper-data="{&quot;index&quot;:null}" fill="none" stroke="#000000" stroke-width="2" stroke-linecap="round"/><path d="M209.04893,158.5811l6.68147,-19.70491l29.71843,4.23864l0.90622,20.78712z" data-paper-data="{&quot;index&quot;:null}" fill="url(#color-1)" stroke="#000000" stroke-width="2" stroke-linecap="butt"/><g data-paper-data="{&quot;index&quot;:null}" fill="#76f4ff" stroke="#53acb4" stroke-width="1" stroke-linecap="butt"><path d="M232.46723,255.57394l27.24206,-74.50142l22.25787,-28.5184l-8.35701,35.19762z" data-paper-data="{&quot;index&quot;:null}"/><path d="M294.10577,140.6849l-13.25359,21.09798l-5.06347,-2.43294l8.69648,-23.28763z"/><path d="M256.63724,159.57828l15.53213,-5.11667l15.21364,7.25538l5.18117,15.1238l-16.35695,-11.97477z"/></g></g></g></svg>