<svg version="1.1" xmlns="http://www.w3.org/2000/svg" xmlns:xlink="http://www.w3.org/1999/xlink" width="62.75643" height="154.72795" viewBox="0,0,62.75643,154.72795"><g transform="translate(-222.71131,-125.93054)"><g data-paper-data="{&quot;isPaintingLayer&quot;:true}" fill-rule="nonzero" stroke-linejoin="miter" stroke-miterlimit="10" stroke-dasharray="" stroke-dashoffset="0" style="mix-blend-mode: normal"><path d="M270.47104,182.59421l-24.43594,40.35689l14.14929,-5.09589l-37.31546,62.80328l13.0593,-46.61514l-10.47806,5.99556l13.07489,-40.55987l-15.81375,6.02074l14.33883,-32.53173l-13.60784,4.22302l6.63759,-51.26053l32.01072,5.16682l-12.04614,30.0034l19.49667,-4.18899l-18.2185,29.66763l19.1484,-3.98519" data-paper-data="{&quot;index&quot;:null}" fill="#fff200" stroke="none" stroke-width="0.66342" stroke-linecap="butt"/><path d="M244.36483,164.51925c-1.23399,-1.7144 -0.84454,-4.10455 0.86986,-5.33854c1.7144,-1.23399 4.10455,-0.84454 5.33854,0.86986c1.23399,1.7144 0.84454,4.10455 -0.86986,5.33854c-1.7144,1.23399 -4.10455,0.84454 -5.33854,-0.86986z" data-paper-data="{&quot;index&quot;:null}" fill="#ffe819" stroke="#000000" stroke-width="2" stroke-linecap="butt"/><path d="M266.25284,196.42924c8.33943,3.81813 12.00467,13.67379 8.18654,22.01321c-3.81813,8.33943 -13.67379,12.00467 -22.01321,8.18654c-8.33943,-3.81813 -12.00467,-13.67379 -8.18654,-22.01321c3.81813,-8.33943 13.67379,-12.00467 22.01321,-8.18654z" data-paper-data="{&quot;index&quot;:null}" fill="#ffe819" stroke="#000000" stroke-width="2" stroke-linecap="butt"/><path d="M245.98566,163.92699l2.89048,25.40116l-7.80036,0.88763l-2.89048,-25.40116z" data-paper-data="{&quot;index&quot;:null}" fill="#ffe819" stroke="#000000" stroke-width="2" stroke-linecap="butt"/><path d="M237.90358,239.90929c-1.23399,-1.7144 -0.84454,-4.10455 0.86986,-5.33854c1.7144,-1.23399 4.10455,-0.84454 5.33854,0.86986c1.23399,1.7144 0.84454,4.10455 -0.86986,5.33854c-1.7144,1.23399 -4.10455,0.84454 -5.33854,-0.86986z" data-paper-data="{&quot;index&quot;:null}" fill="#ffe819" stroke="#000000" stroke-width="2" stroke-linecap="butt"/><path d="M277.13895,185.14782c0,0 1.14782,2.83952 1.42134,4.8585c0.21669,1.59946 0.0894,6.29263 0.0894,6.29263" data-paper-data="{&quot;index&quot;:null}" fill="none" stroke="#000000" stroke-width="2" stroke-linecap="round"/><path d="M275.88437,175.01579c2.83207,0.12808 5.02408,2.52775 4.896,5.35982c-0.12808,2.83207 -2.52775,5.02408 -5.35982,4.896c-2.83207,-0.12808 -5.02408,-2.52775 -4.896,-5.35982c0.12808,-2.83207 2.52775,-5.02408 5.35982,-4.896z" data-paper-data="{&quot;index&quot;:null}" fill="#ffe819" stroke="#000000" stroke-width="2" stroke-linecap="butt"/><path d="M253.84915,130.9021c3.88193,-3.06696 6.62368,-1.84476 8.65683,0.72864c2.03315,2.57342 0.53443,7.14583 -3.3475,10.2128c-3.88193,3.06696 -7.55392,4.88862 -9.58708,2.3152c-0.78524,-0.9939 -2.1314,-8.19303 4.27776,-13.25666z" data-paper-data="{&quot;index&quot;:null}" fill="#ffe819" stroke="#000000" stroke-width="2" stroke-linecap="butt"/><path d="M268.18097,192.33096l7.34388,8.74721l6.24531,-9.8422c0,0 5.07836,17.25294 1.29941,27.17532c-3.77895,9.92238 -16.57561,12.9354 -16.57561,12.9354z" data-paper-data="{&quot;index&quot;:null}" fill="#fff067" stroke="#000000" stroke-width="2" stroke-linecap="butt"/><path d="M235.64942,132.28041c1.94875,-4.5473 4.94146,-4.78102 7.95596,-3.48916c3.01451,1.29187 3.87847,6.02545 1.92972,10.57276c-1.94875,4.5473 -4.30704,7.9 -7.32155,6.60813c-1.16425,-0.49894 -5.78157,-6.18402 -2.56414,-13.69173z" data-paper-data="{&quot;index&quot;:null}" fill="#ffe819" stroke="#000000" stroke-width="2" stroke-linecap="butt"/></g></g></svg>