<svg version="1.1" xmlns="http://www.w3.org/2000/svg" xmlns:xlink="http://www.w3.org/1999/xlink" width="68.83738" height="98.36916" viewBox="0,0,68.83738,98.36916"><g transform="translate(-217.42808,-126.13703)"><g data-paper-data="{&quot;isPaintingLayer&quot;:true}" fill-rule="nonzero" stroke-linejoin="miter" stroke-miterlimit="10" stroke-dasharray="" stroke-dashoffset="0" style="mix-blend-mode: normal"><path d="M217.42808,171.93734l6.92902,-11.44353l-4.01215,1.44498l10.58111,-17.8084l-3.70307,13.21811l2.97114,-1.70009l-3.70749,11.50109l4.48412,-1.70723l-4.0659,9.22465l3.85862,-1.19747l-1.88214,14.53535l-9.07691,-1.4651l3.41578,-8.50772l-5.52844,1.18782l5.16601,-8.41251l-5.42969,1.13003" data-paper-data="{&quot;index&quot;:null}" fill="#fff200" stroke="none" stroke-width="0.66342" stroke-linecap="butt"/><path d="M253.92209,192.46329c0,-2.11232 1.71238,-3.8247 3.8247,-3.8247c2.11232,0 3.8247,1.71238 3.8247,3.8247c0,2.11232 -1.71238,3.8247 -3.8247,3.8247c-2.11232,0 -3.8247,-1.71238 -3.8247,-3.8247z" fill="#ffe819" stroke="#000000" stroke-width="2" stroke-linecap="butt"/><path d="M231.63232,200.03948l8.70977,-24.03568l7.38104,2.67466l-8.70977,24.03568z" fill="#ffe819" stroke="#000000" stroke-width="2" stroke-linecap="butt"/><path d="M223.54217,171.16762c-2.11232,0 -3.8247,-1.71238 -3.8247,-3.8247c0,-2.11232 1.71238,-3.8247 3.8247,-3.8247c2.11232,0 3.8247,1.71238 3.8247,3.8247c0,2.11232 -1.71238,3.8247 -3.8247,3.8247z" data-paper-data="{&quot;index&quot;:null}" fill="#ffe819" stroke="#000000" stroke-width="2" stroke-linecap="butt"/><path d="M261.87883,208.89924c3.54001,-3.456 6.39451,-2.52715 8.68557,-0.1804c2.29106,2.34675 1.27858,7.05081 -2.26144,10.50681c-3.54001,3.456 -7.00143,5.65158 -9.29249,3.30483c-0.88484,-0.90636 -2.97628,-7.9253 2.86836,-13.63123z" data-paper-data="{&quot;index&quot;:null}" fill="#ffe819" stroke="#000000" stroke-width="2" stroke-linecap="butt"/><path d="M244.99699,205.38913c-3.67147,3.74058 -8.5315,4.924 -10.8552,2.64323c-2.32369,-2.28076 -1.23111,-7.16202 2.44036,-10.90261c3.67147,-3.74058 7.52426,-3.8978 9.84796,-1.61704c2.32369,2.28076 2.23835,6.13582 -1.43312,9.8764z" fill="#ffe819" stroke="#000000" stroke-width="2" stroke-linecap="butt"/><path d="M250.55324,159.7052c4.96202,-7.7138 15.23779,-9.94455 22.95158,-4.98254c7.7138,4.96202 9.94455,15.23779 4.98254,22.95158c-4.96202,7.7138 -15.23779,9.94455 -22.95158,4.98254c-7.7138,-4.96202 -9.94455,-15.23779 -4.98254,-22.95158z" fill="#ffe819" stroke="#000000" stroke-width="2" stroke-linecap="butt"/><path d="M246.52665,134.89228c0,0 2.78286,1.27908 4.36669,2.56071c1.25473,1.01533 4.38108,4.51789 4.38108,4.51789" fill="none" stroke="#000000" stroke-width="2" stroke-linecap="round"/><path d="M238.66428,128.37958c2.14877,-1.84927 5.38982,-1.60647 7.23909,0.5423c1.84927,2.14877 1.60647,5.38982 -0.5423,7.23909c-2.14877,1.84927 -5.38982,1.60647 -7.23909,-0.5423c-1.84927,-2.14877 -1.60647,-5.38982 0.5423,-7.23909z" fill="#ffe819" stroke="#000000" stroke-width="2" stroke-linecap="butt"/><path d="M246.76976,156.66393l9.70013,-6.0294l-4.12043,-15.47301c0,0 13.06189,5.31452 22.3482,10.46219c9.28631,5.14767 10.45443,18.24226 10.45443,18.24226z" data-paper-data="{&quot;index&quot;:null}" fill="#fff067" stroke="#000000" stroke-width="2" stroke-linecap="butt"/></g></g></svg>