<svg version="1.1" xmlns="http://www.w3.org/2000/svg" xmlns:xlink="http://www.w3.org/1999/xlink" width="102.46285" height="60.51977" viewBox="0,0,102.46285,60.51977"><g transform="translate(-196.62495,-163.26235)"><g data-paper-data="{&quot;isPaintingLayer&quot;:true}" fill-rule="nonzero" stroke="#000000" stroke-width="2" stroke-linejoin="miter" stroke-miterlimit="10" stroke-dasharray="" stroke-dashoffset="0" style="mix-blend-mode: normal"><path d="M257.11816,205.21883l-23.25535,-10.61898l3.26095,-7.14141l23.25535,10.61898z" fill="#181818" stroke-linecap="butt"/><path d="M240.79532,186.97341l5.62748,-3.78125l-5.86683,19.0603l-2.46139,-5.57793l-4.69061,3.33876l3.82766,-16.41209z" data-paper-data="{&quot;index&quot;:null}" fill="#0e0e0e" stroke-linecap="round"/><path d="M243.66994,222.29891c-1.46545,-1.5213 -1.42018,-3.94255 0.10112,-5.408c1.5213,-1.46545 3.94255,-1.42018 5.408,0.10112c1.46545,1.5213 1.42018,3.94255 -0.10112,5.408c-1.5213,1.46545 -3.94255,1.42018 -5.408,-0.10112z" fill="#181818" stroke-linecap="butt"/><path d="M216.78263,215.04318c0,0 -1.91149,-2.39302 -2.75066,-4.2496c-0.66479,-1.47082 -1.88417,-6.0046 -1.88417,-6.0046" data-paper-data="{&quot;index&quot;:null}" fill="#181818" stroke-linecap="round"/><path d="M213.63323,220.26484c-2.37864,-1.54243 -3.05654,-4.72107 -1.5141,-7.09971c1.54243,-2.37864 4.72108,-3.05655 7.09971,-1.5141c2.37864,1.54243 3.05654,4.72107 1.5141,7.09971c-1.54243,2.37864 -4.72108,3.05655 -7.09971,1.5141z" data-paper-data="{&quot;index&quot;:null}" fill="#181818" stroke-linecap="butt"/><path d="M224.16785,203.48164c-8.88853,2.2624 -17.92813,-3.10914 -20.19052,-11.99765c-2.2624,-8.88853 3.10914,-17.92813 11.99765,-20.19052c8.88853,-2.2624 17.92813,3.10914 20.19052,11.99765c2.2624,8.88853 -3.10914,17.92813 -11.99765,20.19052z" fill="#181818" stroke-linecap="butt"/><path d="M292.95027,202.27819c4.83124,1.06527 5.61973,3.96168 4.91353,7.16441c-0.70619,3.20273 -5.19515,4.9355 -10.0264,3.87022c-4.83124,-1.06527 -8.56534,-2.75596 -7.85916,-5.95869c0.27274,-1.23694 4.99552,-6.83472 12.97202,-5.07595z" data-paper-data="{&quot;index&quot;:null}" fill="#181818" stroke-linecap="butt"/><path d="M225.15152,187.20828l-5.08268,1.2937c0,0 -1.16218,-10.99355 -1.43365,-13.36731c-0.3046,-2.66353 -3.35087,-5.43012 -3.35087,-5.43012l5.08268,-1.2937z" fill="#ff0000" stroke-linecap="butt"/><g><path d="M216.84027,203.39905l-11.69017,2.97551l-7.30939,-28.71716l11.69018,-2.9755z" fill="#343434" stroke-linecap="butt"/><path d="M219.49234,213.81854l-12.61354,-49.55619" fill="none" stroke-linecap="round"/></g><path d="M231.31429,222.681c-1.46545,-1.5213 -1.42018,-3.94255 0.10112,-5.408c1.5213,-1.46545 3.94255,-1.42018 5.408,0.10112c1.46545,1.5213 1.42018,3.94255 -0.10112,5.408c-1.5213,1.46545 -3.94255,1.42018 -5.408,-0.10112z" fill="#181818" stroke-linecap="butt"/><path d="M291.21324,212.45638c3.76093,3.21419 3.09309,6.14077 0.96234,8.63397c-2.13075,2.49321 -6.90691,1.90873 -10.66785,-1.30544c-3.76093,-3.21419 -6.2595,-6.46367 -4.12873,-8.95688c0.82294,-0.96292 7.62486,-3.67834 13.83426,1.62836z" data-paper-data="{&quot;index&quot;:null}" fill="#181818" stroke-linecap="butt"/></g></g></svg>