<svg version="1.1" xmlns="http://www.w3.org/2000/svg" xmlns:xlink="http://www.w3.org/1999/xlink" width="32.76202" height="37.09072" viewBox="0,0,32.76202,37.09072"><defs><linearGradient x1="242.45687" y1="164.49134" x2="231.49414" y2="182.81151" gradientUnits="userSpaceOnUse" id="color-1"><stop offset="0" stop-color="#ffe8e8"/><stop offset="1" stop-color="#ffffff"/></linearGradient><linearGradient x1="232.44464" y1="166.85199" x2="218.62557" y2="166.79791" gradientUnits="userSpaceOnUse" id="color-2"><stop offset="0" stop-color="#ffe8e8"/><stop offset="1" stop-color="#ffffff"/></linearGradient><linearGradient x1="243.30918" y1="165.79883" x2="222.14995" y2="172.15225" gradientUnits="userSpaceOnUse" id="color-3"><stop offset="0" stop-color="#ffe8e8"/><stop offset="1" stop-color="#ffffff"/></linearGradient></defs><g transform="translate(-218.62546,-150.91224)"><g data-paper-data="{&quot;isPaintingLayer&quot;:true}" fill-rule="nonzero" stroke="none" stroke-width="0" stroke-linecap="butt" stroke-linejoin="miter" stroke-miterlimit="10" stroke-dasharray="" stroke-dashoffset="0" style="mix-blend-mode: normal"><path d="M231.49417,182.8115c-6.76216,-4.04645 -9.78986,-11.42784 -6.7626,-16.4868c3.02727,-5.05897 19.32545,2.25593 19.32545,2.25593c0,0 -2.64448,6.87209 -0.5233,12.27304c2.8006,7.13088 7.85376,7.14929 7.85376,7.14929c0,0 -13.13118,-1.14503 -19.89331,-5.19147z" fill="url(#color-1)"/><path d="M218.62555,166.79795c0.03439,-8.78838 3.15576,-15.90061 6.9718,-15.88568c3.81604,0.01493 10.43104,2.38397 10.43104,2.38397c0,0 -4.49215,5.93864 -6.02364,11.57267c-2.30774,8.48969 0.57685,15.02605 -1.71694,15.01707c0,0 -9.69664,-4.29967 -9.66225,-13.08802z" fill="url(#color-2)"/><path d="M238.72452,171.92177c-0.29261,6.48635 1.14399,9.80821 -1.89153,10.71969c-5.84296,1.75445 -12.41679,-2.94174 -14.68304,-10.4892c-2.26627,-7.54749 0.63323,-15.08817 6.47619,-16.84262c5.84296,-1.75445 13.24463,6.17508 13.24463,6.17508c0,0 -2.87562,4.4381 -3.14625,10.43704z" fill="url(#color-3)"/></g></g></svg>