<svg version="1.1" xmlns="http://www.w3.org/2000/svg" xmlns:xlink="http://www.w3.org/1999/xlink" width="86.15721" height="91.49773" viewBox="0,0,86.15721,91.49773"><g transform="translate(-210.71675,-135.37368)"><g data-paper-data="{&quot;isPaintingLayer&quot;:true}" fill-rule="nonzero" stroke="#000000" stroke-width="2" stroke-linejoin="miter" stroke-miterlimit="10" stroke-dasharray="" stroke-dashoffset="0" style="mix-blend-mode: normal"><path d="M238.3952,203.29144l7.34127,-24.48835l7.52006,2.25442l-7.34127,24.48835z" data-paper-data="{&quot;index&quot;:null}" fill="#ffe819" stroke-linecap="butt"/><path d="M211.71675,185.3551c0,-2.11232 1.71238,-3.8247 3.8247,-3.8247c2.11232,0 3.8247,1.71238 3.8247,3.8247c0,2.11232 -1.71238,3.8247 -3.8247,3.8247c-2.11232,0 -3.8247,-1.71238 -3.8247,-3.8247z" fill="#ffe819" stroke-linecap="butt"/><path d="M237.86917,160.81484c0,-9.17193 7.43532,-16.60724 16.60724,-16.60724c9.17193,0 16.60724,7.43532 16.60724,16.60724c0,9.17193 -7.43532,16.60724 -16.60724,16.60724c-9.17193,0 -16.60724,-7.43532 -16.60724,-16.60724z" fill="#ffe819" stroke-linecap="butt"/><path d="M233.34022,160.76776l4.85397,-10.3664l5.46439,-2.41963l-5.42224,2.46739l-11.5487,-1.5813c0,0 13.57292,-11.79955 24.16781,-12.49414c10.59489,-0.69459 18.66148,9.6863 18.66148,9.6863z" data-paper-data="{&quot;index&quot;:null}" fill="#fff067" stroke-linecap="butt"/><path d="M288.22456,167.73375c0,-2.34973 1.71238,-4.25457 3.8247,-4.25457c2.11232,0 3.8247,1.90484 3.8247,4.25457c0,1.01064 -0.91925,14.30306 -14.90069,19.48937c-18.52546,6.87189 -52.72401,5.90069 -52.72401,5.90069c0,0 29.90003,-3.51603 47.60053,-11.14926c11.74263,-5.06393 12.37477,-13.26772 12.37477,-14.24081z" fill="#ffe819" stroke-linecap="butt"/><path d="M228.74704,152.96848c0,0 2.10397,-2.22568 3.82583,-3.31485c1.36408,-0.86285 5.68426,-2.70082 5.68426,-2.70082" fill="none" stroke-linecap="round"/><path d="M220.05691,158.32699c-1.06249,-2.62833 0.20687,-5.62033 2.8352,-6.68282c2.62833,-1.06249 5.62033,0.20687 6.68282,2.8352c1.06249,2.62833 -0.20687,5.62033 -2.8352,6.68282c-2.62833,1.06249 -5.62033,-0.20687 -6.68282,-2.8352z" fill="#ffe819" stroke-linecap="butt"/><path d="M266.36817,205.31181c4.42639,2.20967 4.48584,5.2109 3.02101,8.14525c-1.46484,2.93435 -6.24062,3.52183 -10.66702,1.31216c-4.42639,-2.20967 -7.6364,-4.75877 -6.17156,-7.69312c0.56574,-1.1333 6.50949,-5.4125 13.81758,-1.76429z" data-paper-data="{&quot;index&quot;:null}" fill="#ffe819" stroke-linecap="butt"/><path d="M230.8744,220.33566c0,3.05731 -3.33463,5.53575 -7.4481,5.53575c-4.11347,0 -7.4481,-2.47844 -7.4481,-5.53575c0,-3.05731 3.33463,-5.53575 7.4481,-5.53575c4.11347,0 7.4481,2.47844 7.4481,5.53575z" data-paper-data="{&quot;index&quot;:null}" fill="#ffe819" stroke-linecap="butt"/></g></g></svg>