<svg version="1.1" xmlns="http://www.w3.org/2000/svg" xmlns:xlink="http://www.w3.org/1999/xlink" width="84.63761" height="112.65229" viewBox="0,0,84.63761,112.65229"><g transform="translate(-189.53112,-119.26577)"><g data-paper-data="{&quot;isPaintingLayer&quot;:true}" fill-rule="nonzero" stroke="#000000" stroke-width="2" stroke-linejoin="miter" stroke-miterlimit="10" stroke-dasharray="" stroke-dashoffset="0" style="mix-blend-mode: normal"><path d="M242.7987,208.72636c-0.4429,-2.06537 0.87237,-4.09872 2.93774,-4.54163c2.06537,-0.4429 4.09872,0.87237 4.54163,2.93774c0.4429,2.06537 -0.87237,4.09872 -2.93774,4.54163c-2.06537,0.4429 -4.09872,-0.87237 -4.54163,-2.93774z" fill="#1d28e8" stroke-linecap="butt"/><path d="M210.92129,167.2962c-4.40782,-8.04334 -1.46065,-18.137 6.58269,-22.54482c8.04334,-4.40782 18.137,-1.46065 22.54482,6.58269c4.40782,8.04334 1.46065,18.137 -6.58269,22.54482c-8.04334,4.40782 -18.137,1.46065 -22.54482,-6.58269z" fill="#1d28e8" stroke-linecap="butt"/><path d="M239.09847,206.21708l-5.36036,-24.99681l7.67619,-1.6461l5.36036,24.99681z" fill="#1d28e8" stroke-linecap="butt"/><path d="M222.0565,211.33622c-0.4429,-2.06537 0.87237,-4.09872 2.93774,-4.54163c2.06537,-0.4429 4.09872,0.87237 4.54163,2.93774c0.4429,2.06537 -0.87237,4.09872 -2.93774,4.54163c-2.06537,0.4429 -4.09872,-0.87237 -4.54163,-2.93774z" fill="#1d28e8" stroke-linecap="butt"/><path d="M204.31661,175.0331c0,0 1.11281,-2.85342 2.29884,-4.51005c0.93959,-1.31241 4.25177,-4.63979 4.25177,-4.63979" fill="none" stroke-linecap="round"/><path d="M198.27873,183.26571c-1.97272,-2.03602 -1.92141,-5.28574 0.11462,-7.25846c2.03602,-1.97272 5.28574,-1.92141 7.25846,0.11462c1.97272,2.03602 1.92141,5.28574 -0.11462,7.25846c-2.03602,1.97272 -5.28574,1.92141 -7.25846,-0.11462z" fill="#1d28e8" stroke-linecap="butt"/><path d="M265.72361,206.69679c4.83731,-1.03732 6.75746,1.27005 7.44512,4.47681c0.68766,3.20676 -2.67629,6.64726 -7.5136,7.68458c-4.83731,1.03732 -8.93632,1.05007 -9.62398,-2.15668c-0.26559,-1.2385 1.70595,-8.29207 9.69246,-10.00471z" data-paper-data="{&quot;index&quot;:null}" fill="#1d28e8" stroke-linecap="butt"/><path d="M210.36016,166.68565l-19.39916,-12.4378l24.04857,-33.26911l16.58292,23.18657l14.33145,-15.08874z" fill="#2530ff" stroke-linecap="round"/><path d="M236.99253,223.20582c1.33986,4.76239 -0.84203,6.82402 -3.99912,7.71224c-3.15709,0.88822 -6.80259,-2.25242 -8.14245,-7.01481c-1.33986,-4.76239 -1.61069,-8.85246 1.5464,-9.74068c1.21932,-0.34304 8.38304,1.18043 10.59517,9.04326z" data-paper-data="{&quot;index&quot;:null}" fill="#1d28e8" stroke-linecap="butt"/></g></g></svg>