<svg version="1.1" xmlns="http://www.w3.org/2000/svg" xmlns:xlink="http://www.w3.org/1999/xlink" width="98.12476" height="108.40364" viewBox="0,0,98.12476,108.40364"><g transform="translate(-204.33809,-118.35413)"><g data-paper-data="{&quot;isPaintingLayer&quot;:true}" fill-rule="nonzero" stroke="#000000" stroke-width="2" stroke-linejoin="miter" stroke-miterlimit="10" stroke-dasharray="" stroke-dashoffset="0" style="mix-blend-mode: normal"><path d="M295.69507,206.9432c-1.24861,-0.21317 -7.06621,-4.66233 -5.69162,-12.71393c0.83258,-4.87673 3.68789,-5.80309 6.92078,-5.25116c3.23288,0.55194 5.17873,4.95273 4.34616,9.82946c-0.83257,4.87673 -2.34242,8.68756 -5.5753,8.13562z" data-paper-data="{&quot;index&quot;:null}" fill="#1d28e8" stroke-linecap="butt"/><path d="M244.94692,173.15191c-8.40125,3.68008 -18.19513,-0.14719 -21.87521,-8.54845c-3.68008,-8.40125 0.1472,-18.19513 8.54846,-21.87521c8.40125,-3.68008 18.19513,0.14719 21.87521,8.54845c3.68008,8.40125 -0.1472,18.19513 -8.54846,21.87521z" data-paper-data="{&quot;index&quot;:null}" fill="#1d28e8" stroke-linecap="butt"/><path d="M253.68382,205.73335l-10.94143,-23.10538l7.09535,-3.35997l10.94144,23.10539z" data-paper-data="{&quot;index&quot;:null}" fill="#1d28e8" stroke-linecap="butt"/><path d="M223.62714,214.68627c4.11347,0 7.4481,2.47844 7.4481,5.53575c0,3.05731 -3.33463,5.53575 -7.4481,5.53575c-4.11347,0 -7.4481,-2.47844 -7.4481,-5.53575c0,-3.05731 3.33463,-5.53575 7.4481,-5.53575z" data-paper-data="{&quot;index&quot;:null}" fill="#1d28e8" stroke-linecap="butt"/><path d="M223.9492,204.10087c-1.90865,-0.90494 -2.72233,-3.18583 -1.81739,-5.09449c0.90494,-1.90866 3.18583,-2.72233 5.09449,-1.81739c1.90866,0.90494 2.72233,3.18582 1.81739,5.09448c-0.90494,1.90866 -3.18582,2.72233 -5.09448,1.81739z" data-paper-data="{&quot;index&quot;:null}" fill="#1d28e8" stroke-linecap="butt"/><path d="M214.08683,159.39781c0,0 2.12841,-2.20232 3.86217,-3.27243c1.37353,-0.84775 5.71371,-2.63793 5.71371,-2.63793" data-paper-data="{&quot;index&quot;:null}" fill="none" stroke-linecap="round"/><path d="M211.98922,167.56886c-2.6399,1.03342 -5.6177,-0.26886 -6.65113,-2.90876c-1.03341,-2.6399 0.26887,-5.61771 2.90877,-6.65113c2.63991,-1.03342 5.61771,0.26887 6.65113,2.90877c1.03343,2.63991 -0.26886,5.6177 -2.90876,6.65113z" data-paper-data="{&quot;index&quot;:null}" fill="#1d28e8" stroke-linecap="butt"/><path d="M222.20724,155.36227l-9.33563,-21.06828l38.39983,-14.51275l1.06293,28.48649l20.27354,-4.69514z" data-paper-data="{&quot;index&quot;:null}" fill="#2530ff" stroke-linecap="round"/><path d="M270.68573,164.45329c-2.11232,0 -3.8247,-1.71238 -3.8247,-3.8247c0,-2.11232 1.71238,-3.8247 3.8247,-3.8247c2.11232,0 3.8247,1.71238 3.8247,3.8247c0,2.11232 -1.71238,3.8247 -3.8247,3.8247z" data-paper-data="{&quot;index&quot;:null}" fill="#1d28e8" stroke-linecap="butt"/></g></g></svg>