<svg version="1.1" xmlns="http://www.w3.org/2000/svg" xmlns:xlink="http://www.w3.org/1999/xlink" width="109.3519" height="51.81735" viewBox="0,0,109.3519,51.81735"><g transform="translate(-185.87717,-156.89806)"><g data-paper-data="{&quot;isPaintingLayer&quot;:true}" fill-rule="nonzero" stroke="#000000" stroke-width="2" stroke-linejoin="miter" stroke-miterlimit="10" stroke-dasharray="" stroke-dashoffset="0" style="mix-blend-mode: normal"><path d="M220.47547,169.98706c-2.10843,0.12808 -3.92149,-1.47732 -4.04957,-3.58575c-0.12808,-2.10843 1.47732,-3.92149 3.58575,-4.04957c2.10843,-0.12808 3.92149,1.47732 4.04957,3.58575c0.12808,2.10843 -1.47732,3.92149 -3.58575,4.04957z" fill="#e80000" stroke-linecap="butt"/><path d="M192.0533,197.65932c0,0 -0.26742,-3.05104 0.0613,-5.06177c0.26043,-1.59292 1.75435,-6.0438 1.75435,-6.0438" fill="none" stroke-linecap="round"/><path d="M190.29064,207.71541c-2.67086,-0.95053 -4.06547,-3.88624 -3.11494,-6.5571c0.95053,-2.67086 3.88624,-4.06547 6.5571,-3.11494c2.67086,0.95053 4.06547,3.88624 3.11494,6.5571c-0.95053,2.67086 -3.88624,4.06547 -6.5571,3.11494z" fill="#e80000" stroke-linecap="butt"/><path d="M197.67808,190.70316c-6.86684,-6.08035 -7.50443,-16.57613 -1.42408,-23.44297c6.08035,-6.86684 16.57613,-7.50443 23.44297,-1.42408c6.86684,6.08035 7.50443,16.57613 1.42408,23.44297c-6.08035,6.86684 -16.57613,7.50443 -23.44297,1.42408z" fill="#e80000" stroke-linecap="butt"/><path d="M259.4324,190.64954l-25.54781,-0.93984l0.28862,-7.84539l25.54781,0.93984z" fill="#e80000" stroke-linecap="butt"/><path d="M209.41191,202.16885c-2.10843,0.12808 -3.92149,-1.47732 -4.04957,-3.58575c-0.12808,-2.10843 1.47732,-3.92149 3.58575,-4.04957c2.10843,-0.12808 3.92149,1.47732 4.04957,3.58575c0.12808,2.10843 -1.47732,3.92149 -3.58575,4.04957z" fill="#e80000" stroke-linecap="butt"/><path d="M195.85912,190.52939l-4.98556,-2.55033l15.21089,-29.73531l4.98556,2.55033z" fill="#ff2121" stroke-linecap="butt"/><path d="M255.10238,171.92592c0,-5.36383 8.75881,-6.87484 19.56335,-6.87484c10.80454,0 19.56335,4.34824 19.56335,9.71209c0,5.36383 -2.79033,9.71209 -13.59487,9.71209c-4.17289,0 -25.53183,-3.69351 -25.53183,-12.54933z" data-paper-data="{&quot;index&quot;:null}" fill="#e80000" stroke-linecap="butt"/><path d="M255.10238,183.8521c0,-5.36383 8.75881,-6.87485 19.56335,-6.87485c10.80454,0 19.56335,4.34824 19.56335,9.71209c0,5.36383 -2.79033,9.71209 -13.59487,9.71209c-4.17289,0 -25.53183,-3.6935 -25.53183,-12.54932z" data-paper-data="{&quot;index&quot;:null}" fill="#e80000" stroke-linecap="butt"/></g></g></svg>