<svg version="1.1" xmlns="http://www.w3.org/2000/svg" xmlns:xlink="http://www.w3.org/1999/xlink" width="115.03044" height="104.87644" viewBox="0,0,115.03044,104.87644"><g transform="translate(-198.85663,-122.28391)"><g data-paper-data="{&quot;isPaintingLayer&quot;:true}" fill-rule="nonzero" stroke="#000000" stroke-width="2" stroke-linejoin="miter" stroke-miterlimit="10" stroke-dasharray="" stroke-dashoffset="0" style="mix-blend-mode: normal"><path d="M250.63448,180.6903c0,-2.11232 56.31557,-3.25592 58.42789,-3.25592c2.11232,0 3.8247,1.71238 3.8247,3.8247c0,2.11232 -1.71238,3.8247 -3.8247,3.8247c-2.11232,0 -58.42789,-2.28116 -58.42789,-4.39348z" fill="#1d28e8" stroke-linecap="butt"/><path d="M219.5788,158.35726c1.2701,-9.08356 9.6634,-15.41762 18.74696,-14.14752c9.08356,1.2701 15.41762,9.6634 14.14752,18.74696c-1.2701,9.08356 -9.6634,15.41762 -18.74696,14.14752c-9.08356,-1.2701 -15.41762,-9.6634 -14.14752,-18.74696z" fill="#1d28e8" stroke-linecap="butt"/><path d="M234.48109,206.94412l-3.22572,-25.36077l7.78796,-0.99058l3.22572,25.36077z" fill="#1d28e8" stroke-linecap="butt"/><path d="M222.81045,209.51509c0,-2.11232 1.71238,-3.8247 3.8247,-3.8247c2.11232,0 3.8247,1.71238 3.8247,3.8247c0,2.11232 -1.71238,3.8247 -3.8247,3.8247c-2.11232,0 -3.8247,-1.71238 -3.8247,-3.8247z" fill="#1d28e8" stroke-linecap="butt"/><path d="M229.28716,214.68624c4.11347,0 7.4481,2.47844 7.4481,5.53575c0,3.05731 -3.33463,5.53575 -7.4481,5.53575c-4.11347,0 -7.4481,-2.47844 -7.4481,-5.53575c0,-3.05731 3.33463,-5.53575 7.4481,-5.53575z" data-paper-data="{&quot;index&quot;:null}" fill="#1d28e8" stroke-linecap="butt"/><path d="M209.66024,160.61637c0,0 2.59701,-1.62354 4.5378,-2.24357c1.53752,-0.49119 6.18147,-1.18096 6.18147,-1.18096" fill="none" stroke-linecap="round"/><path d="M199.9001,163.61161c-0.36574,-2.81127 1.61675,-5.38675 4.42802,-5.75248c2.81127,-0.36574 5.38675,1.61675 5.75248,4.42802c0.36574,2.81127 -1.61675,5.38675 -4.42802,5.75248c-2.81127,0.36574 -5.38675,-1.61675 -5.75248,-4.42802z" fill="#1d28e8" stroke-linecap="butt"/><path d="M255.3555,214.28364c4.94728,0 6.34095,2.65869 6.34095,5.93835c0,3.27966 -4.01056,5.93835 -8.95785,5.93835c-4.94728,0 -8.95785,-0.84699 -8.95785,-4.12665c0,-1.26666 3.40667,-7.75005 11.57475,-7.75005z" data-paper-data="{&quot;index&quot;:null}" fill="#1d28e8" stroke-linecap="butt"/><path d="M219.49353,157.53242l-8.12709,-21.56332l39.16033,-12.31405l-0.55257,28.50096l20.50696,-3.53909z" fill="#2530ff" stroke-linecap="round"/></g></g></svg>