<svg version="1.1" xmlns="http://www.w3.org/2000/svg" xmlns:xlink="http://www.w3.org/1999/xlink" width="83.21227" height="123.63824" viewBox="0,0,83.21227,123.63824"><g transform="translate(-207.16913,-103.65435)"><g data-paper-data="{&quot;isPaintingLayer&quot;:true}" fill-rule="nonzero" stroke="#000000" stroke-width="2" stroke-linejoin="miter" stroke-miterlimit="10" stroke-dasharray="" stroke-dashoffset="0" style="mix-blend-mode: normal"><path d="M238.86236,177.08493c-0.00492,-2.11231 1.70348,-3.82868 3.81579,-3.83359c2.11231,-0.00492 3.82868,1.70348 3.83359,3.81579c0.00492,2.11231 -1.70348,3.82868 -3.81579,3.83359c-2.11231,0.00492 -3.82868,-1.70348 -3.83359,-3.81579z" fill="#ff6b00" stroke-linecap="butt"/><path d="M230.94004,194.77411l12.66806,-22.20572l6.81908,3.8902l-12.66805,22.20571z" data-paper-data="{&quot;index&quot;:null}" fill="#ff6b00" stroke-linecap="butt"/><path d="M219.87973,199.73868c6.59215,-4.82298 13.16978,-1.60199 13.91769,-0.57974c1.93652,2.64688 -0.80013,5.69856 -4.7929,8.61977c-3.99277,2.92121 -8.79941,3.14359 -10.73595,0.4967c-1.93653,-2.64687 -2.38164,-5.61552 1.61113,-8.53673z" data-paper-data="{&quot;index&quot;:null}" fill="#ff6b00" stroke-linecap="butt"/><path d="M216.81549,224.53727c-3.92245,3.01497 -6.64768,1.75635 -8.64636,-0.84394c-1.99867,-2.60027 -0.43916,-7.15231 3.4833,-10.16729c3.92245,-3.01497 7.61841,-4.78753 9.61707,-2.18726c0.77192,1.00428 2.02204,8.22071 -4.45402,13.19848z" data-paper-data="{&quot;index&quot;:null}" fill="#ff6b00" stroke-linecap="butt"/><path d="M253.68004,177.03136c-9.11685,1.00351 -17.32105,-5.57367 -18.32455,-14.69053c-1.00351,-9.11685 5.57367,-17.32105 14.69053,-18.32455c9.11685,-1.00351 17.32105,5.57367 18.32455,14.69053c1.00351,9.11685 -5.57367,17.32105 -14.69053,18.32455z" data-paper-data="{&quot;index&quot;:null}" fill="#ff6b00" stroke-linecap="butt"/><path d="M234.36577,143.95819l11.67929,-5.40202l-2.73425,-33.51754l45.34565,13.77737l-21.72123,26.36496l6.61787,11.06883z" data-paper-data="{&quot;index&quot;:null}" fill="#ffa340" stroke-linecap="butt"/><path d="M215.73703,184.87135c-2.07788,-5.86121 4.99062,-11.54272 12.00748,-15.29694c1.85754,-0.99384 4.23912,-2.10774 6.1044,-1.11648c1.86528,0.99126 2.57382,3.30697 1.58256,5.17225c-0.49702,0.93526 -11.31758,3.82183 -10.52801,8.91112c0.78515,5.06078 20.4857,6.70731 20.4857,6.70731c0,0 -27.67575,1.19763 -29.65213,-4.37726z" fill="#ff6b00" stroke-linecap="butt"/><path d="M271.81948,140.95926c0,0 -2.59427,1.62794 -4.53398,2.25127c-1.53669,0.49381 -6.17945,1.19146 -6.17945,1.19146" data-paper-data="{&quot;index&quot;:null}" fill="none" stroke-linecap="round"/><path d="M281.57454,137.94746c0.3705,2.81063 -1.6076,5.3895 -4.41825,5.76c-2.81064,0.3705 -5.38949,-1.60761 -5.75999,-4.41824c-0.3705,-2.81063 1.6076,-5.3895 4.41825,-5.76c2.81064,-0.3705 5.38949,1.60761 5.75999,4.41824z" data-paper-data="{&quot;index&quot;:null}" fill="#ff6b00" stroke-linecap="butt"/></g></g></svg>