<svg version="1.1" xmlns="http://www.w3.org/2000/svg" xmlns:xlink="http://www.w3.org/1999/xlink" width="165.68492" height="109.22582" viewBox="0,0,165.68492,109.22582"><defs><radialGradient cx="241.3456" cy="146.34251" r="18.84183" gradientUnits="userSpaceOnUse" id="color-1"><stop offset="0" stop-color="#ffffff"/><stop offset="1" stop-color="#0debff"/></radialGradient></defs><g transform="translate(-106.31158,-143.157)"><g data-paper-data="{&quot;isPaintingLayer&quot;:true}" fill-rule="nonzero" stroke-linejoin="miter" stroke-miterlimit="10" stroke-dasharray="" stroke-dashoffset="0" style="mix-blend-mode: normal"><path d="M217.11348,188.84194c0,-2.11232 1.71238,-3.8247 3.8247,-3.8247c2.11232,0 3.8247,1.71238 3.8247,3.8247c0,2.11232 -1.71238,3.8247 -3.8247,3.8247c-2.11232,0 -3.8247,-1.71238 -3.8247,-3.8247z" fill="#0debff" stroke="#000000" stroke-width="2" stroke-linecap="butt"/><path d="M232.61825,209.15727l7.58502,-24.41395l7.4972,2.32925l-7.58502,24.41395z" data-paper-data="{&quot;index&quot;:null}" fill="#0debff" stroke="#000000" stroke-width="2" stroke-linecap="butt"/><path d="M218.21496,189.35772c0,-2.11232 1.71238,-3.8247 3.8247,-3.8247c2.11232,0 3.8247,1.71238 3.8247,3.8247c0,2.11232 -1.71238,3.8247 -3.8247,3.8247c-2.11232,0 -3.8247,-1.71238 -3.8247,-3.8247z" fill="#0debff" stroke="#000000" stroke-width="2" stroke-linecap="butt"/><path d="M222.88335,215.61447c4.11347,0 7.4481,2.47844 7.4481,5.53575c0,3.05731 -3.33463,5.53575 -7.4481,5.53575c-4.11347,0 -7.4481,-2.47844 -7.4481,-5.53575c0,-3.05731 3.33463,-5.53575 7.4481,-5.53575z" data-paper-data="{&quot;index&quot;:null}" fill="#0debff" stroke="#000000" stroke-width="2" stroke-linecap="butt"/><path d="M267.17231,214.15497c4.4024,2.25709 4.42961,5.25879 2.93333,8.17725c-1.49628,2.91845 -6.2781,3.45459 -10.6805,1.1975c-4.4024,-2.25709 -7.58484,-4.84052 -6.08856,-7.75897c0.57789,-1.12716 6.56726,-5.34227 13.83573,-1.61575z" data-paper-data="{&quot;index&quot;:null}" fill="#0debff" stroke="#000000" stroke-width="2" stroke-linecap="butt"/><path d="M237.91039,161.24792c5.76619,-7.13269 16.22279,-8.24047 23.35549,-2.47429c7.13269,5.76619 8.24047,16.22279 2.47429,23.35549c-5.76619,7.13269 -16.22279,8.24047 -23.35549,2.47429c-7.13269,-5.76619 -8.24047,-16.22279 -2.47429,-23.35549z" fill="#0debff" stroke="#000000" stroke-width="2" stroke-linecap="butt"/><path d="M239.41813,156.14025c0,0 2.83621,-1.15597 4.85439,-1.43528c1.59883,-0.22128 6.29236,-0.10748 6.29236,-0.10748" fill="none" stroke="#000000" stroke-width="2" stroke-linecap="round"/><path d="M229.28975,157.42389c0.11995,-2.83242 2.51331,-5.03132 5.34574,-4.91137c2.83242,0.11995 5.03132,2.51331 4.91137,5.34574c-0.11995,2.83242 -2.51331,5.03132 -5.34574,4.91137c-2.83242,-0.11995 -5.03132,-2.51331 -4.91137,-5.34574z" fill="#0debff" stroke="#000000" stroke-width="2" stroke-linecap="butt"/><path d="M232.97287,164.24311l5.68782,-20.01435l29.8932,2.74736l1.94449,20.7158z" fill="url(#color-1)" stroke="#000000" stroke-width="2" stroke-linecap="butt"/><g fill="#76f4ff" stroke="#53acb4" stroke-width="1" stroke-linecap="butt"><path d="M106.59895,251.92577l64.91505,-45.59197l34.55905,-10.69508l-26.96402,24.11751z" data-paper-data="{&quot;index&quot;:null}"/><path d="M222.81618,192.82962l-22.92969,9.74738l-2.76654,-4.88919l20.43983,-14.14764z"/><path d="M181.26961,186.93616l15.67166,4.67188l8.34348,14.64519l-4.3857,15.37335l-6.58628,-19.17201z"/></g></g></g></svg>