<svg version="1.1" xmlns="http://www.w3.org/2000/svg" xmlns:xlink="http://www.w3.org/1999/xlink" width="145.6435" height="135.37281" viewBox="0,0,145.6435,135.37281"><g transform="translate(-164.04783,-91.71672)"><g data-paper-data="{&quot;isPaintingLayer&quot;:true}" fill-rule="nonzero" stroke="#000000" stroke-width="2" stroke-linejoin="miter" stroke-miterlimit="10" stroke-dasharray="" stroke-dashoffset="0" style="mix-blend-mode: normal"><path d="M203.49786,155.73642c-4.1836,-8.16222 -0.9583,-18.17048 7.20392,-22.35406c8.16222,-4.1836 18.17048,-0.95829 22.35408,7.20393c4.1836,8.16222 0.9583,18.17048 -7.20392,22.35406c-8.16222,4.1836 -18.17048,0.95829 -22.35408,-7.20393z" fill="#ff6b00" stroke-linecap="butt"/><path d="M234.45856,196.60003l-8.03541,-24.26943l7.45283,-2.46756l8.03541,24.26943z" data-paper-data="{&quot;index&quot;:null}" fill="#ff6b00" stroke-linecap="butt"/><path d="M223.5948,209.55337c4.11347,0 7.4481,3.70175 7.4481,8.26808c0,4.56633 -3.33463,8.26808 -7.4481,8.26808c-4.11347,0 -7.4481,-3.70175 -7.4481,-8.26808c0,-4.56633 3.33463,-8.26808 7.4481,-8.26808z" data-paper-data="{&quot;index&quot;:null}" fill="#ff6b00" stroke-linecap="butt"/><path d="M191.3901,155.14282c0,0 1.81128,-2.46975 3.38452,-3.76434c1.24637,-1.0256 5.30482,-3.38588 5.30482,-3.38588" fill="none" stroke-linecap="round"/><path d="M183.43276,161.53914c-1.38069,-2.47602 -0.49275,-5.60252 1.98328,-6.98321c2.47602,-1.38069 5.6025,-0.49275 6.98319,1.98328c1.38069,2.47602 0.49276,5.60251 -1.98327,6.9832c-2.47602,1.38069 -5.60251,0.49275 -6.9832,-1.98327z" fill="#ff6b00" stroke-linecap="butt"/><path d="M260.84801,215.96632c3.26896,3.71342 2.19422,6.51626 -0.26749,8.68333c-2.46171,2.16706 -7.10733,0.91349 -10.3763,-2.79994c-3.26896,-3.71342 -5.28323,-7.2834 -2.82152,-9.45046c0.95075,-0.83695 8.06816,-2.56386 13.46529,3.56708z" data-paper-data="{&quot;index&quot;:null}" fill="#ff6b00" stroke-linecap="butt"/><path d="M200.96978,160.80301l-1.79458,-12.77085l-33.45743,-6.89377l26.65648,-39.18516l18.90694,27.81059l12.48305,-3.12429z" data-paper-data="{&quot;index&quot;:null}" fill="#ffa340" stroke-linecap="butt"/><path d="M297.46668,143.39202c0.93847,-21.19827 -7.99921,-42.42979 -7.95676,-43.5052c0.1032,-2.61414 -0.63998,-5.96056 2.06714,-7.1701c2.70712,-1.20954 5.83832,0.5679 7.73625,2.78998c0.87041,1.01906 11.66873,24.96807 8.93609,49.82086c-3.22589,29.33886 -20.25262,60.26318 -21.71823,60.91802c-1.59346,0.71195 9.59271,-32.52222 10.93551,-62.85356z" data-paper-data="{&quot;index&quot;:null}" fill="#ff6b00" stroke-linecap="butt"/><path d="M285.29204,146.83069c0.93847,-21.19827 -7.99921,-42.42979 -7.95676,-43.5052c0.1032,-2.61414 -0.63998,-5.96056 2.06714,-7.1701c2.70712,-1.20954 5.83832,0.5679 7.73625,2.78998c0.87041,1.01906 11.66873,24.96807 8.93609,49.82086c-3.22589,29.33886 -20.25262,60.26318 -21.71823,60.91802c-1.59346,0.71195 9.59271,-32.52222 10.93551,-62.85356z" data-paper-data="{&quot;index&quot;:null}" fill="#ff6b00" stroke-linecap="butt"/></g></g></svg>