<svg version="1.1" xmlns="http://www.w3.org/2000/svg" xmlns:xlink="http://www.w3.org/1999/xlink" width="142.66175" height="89.52182" viewBox="0,0,142.66175,89.52182"><g transform="translate(-180.92339,-134.67615)"><g data-paper-data="{&quot;isPaintingLayer&quot;:true}" fill-rule="nonzero" stroke="#000000" stroke-width="2" stroke-linejoin="miter" stroke-miterlimit="10" stroke-dasharray="" stroke-dashoffset="0" style="mix-blend-mode: normal"><path d="M254.31845,218.67197l-23.7667,-9.419l2.89245,-7.29844l23.7667,9.419z" fill="#ff6b00" stroke-linecap="butt"/><path d="M258.24418,193.14898c0,-2.11232 1.71238,-3.8247 3.8247,-3.8247c2.11232,0 3.8247,1.71238 3.8247,3.8247c0,2.11232 -1.71238,3.8247 -3.8247,3.8247c-2.11232,0 -3.8247,-1.71238 -3.8247,-3.8247z" fill="#ff6b00" stroke-linecap="butt"/><path d="M209.6806,189.19469c0,-9.17193 7.43532,-16.60724 16.60724,-16.60724c9.17193,0 16.60724,7.43532 16.60724,16.60724c0,9.17193 -7.43532,16.60724 -16.60724,16.60724c-9.17193,0 -16.60724,-7.43532 -16.60724,-16.60724z" fill="#ff6b00" stroke-linecap="butt"/><path d="M207.67021,218.91727c0,-2.11232 1.71238,-3.8247 3.8247,-3.8247c2.11232,0 3.8247,1.71238 3.8247,3.8247c0,2.11232 -1.71238,3.8247 -3.8247,3.8247c-2.11232,0 -3.8247,-1.71238 -3.8247,-3.8247z" fill="#ff6b00" stroke-linecap="butt"/><path d="M200.74286,187.09201c0,0 1.85948,-2.43366 3.45789,-3.69705c1.26628,-1.00088 5.37038,-3.28089 5.37038,-3.28089" fill="none" stroke-linecap="round"/><path d="M192.66127,193.33058c-1.33173,-2.5027 -0.38248,-5.61111 2.12022,-6.94284c2.5027,-1.33173 5.61111,-0.38248 6.94284,2.12022c1.33173,2.5027 0.38248,5.61111 -2.12022,6.94284c-2.5027,1.33173 -5.61111,0.38248 -6.94284,-2.12022z" fill="#ff6b00" stroke-linecap="butt"/><path d="M205.1198,192.55039l4.22817,-12.18351l-26.62972,-21.39582l41.5955,-22.71252l4.14025,33.37304l12.53391,2.91357z" data-paper-data="{&quot;index&quot;:null}" fill="#ffa340" stroke-linecap="butt"/><path d="M315.69547,211.1227c4.92371,-0.48231 6.56994,2.02785 6.88967,5.2919c0.31973,3.26404 -3.41253,6.30105 -8.33626,6.78337c-4.92371,0.48231 -8.99775,0.03035 -9.31748,-3.23369c-0.12349,-1.26062 2.63489,-8.04524 10.76407,-8.84155z" data-paper-data="{&quot;index&quot;:null}" fill="#ff6b00" stroke-linecap="butt"/><path d="M267.06598,209.49103c4.5378,-1.97076 6.87522,-0.08729 8.18168,2.92094c1.30645,3.00822 -1.31307,7.04446 -5.85089,9.01523c-4.5378,1.97076 -8.55383,2.79149 -9.86028,-0.21673c-0.50458,-1.16182 0.03747,-8.46564 7.52951,-11.71942z" data-paper-data="{&quot;index&quot;:null}" fill="#ff6b00" stroke-linecap="butt"/></g></g></svg>