<svg version="1.1" xmlns="http://www.w3.org/2000/svg" xmlns:xlink="http://www.w3.org/1999/xlink" width="96.52609" height="89.80746" viewBox="0,0,96.52609,89.80746"><g transform="translate(-216.13514,-136.68026)"><g data-paper-data="{&quot;isPaintingLayer&quot;:true}" fill-rule="nonzero" stroke-linejoin="miter" stroke-miterlimit="10" stroke-dasharray="" stroke-dashoffset="0" style="mix-blend-mode: normal"><path d="M297.21119,200.77185l-3.6554,-5.91175l-3.19385,11.95288l-3.68803,-6.05138l-4.78995,10.44353l-9.16071,-6.98989l11.59349,-14.24764l2.23909,4.54136l4.88113,-11.653l2.31505,5.54977l7.26018,-13.29047l1.01664,4.16788l8.82526,-14.76731l-7.06706,24.98037l-2.14645,-4.89443l-4.42939,16.1701" data-paper-data="{&quot;index&quot;:null}" fill="#fff200" stroke="none" stroke-width="0.66342" stroke-linecap="butt"/><path d="M237.91925,202.35624c0,-2.11232 1.71238,-3.8247 3.8247,-3.8247c2.11232,0 3.8247,1.71238 3.8247,3.8247c0,2.11232 -1.71238,3.8247 -3.8247,3.8247c-2.11232,0 -3.8247,-1.71238 -3.8247,-3.8247z" fill="#ffe819" stroke="#000000" stroke-width="2" stroke-linecap="butt"/><path d="M247.70952,204.4588l11.62062,-22.77136l6.99279,3.56854l-11.62062,22.77136z" fill="#ffe819" stroke="#000000" stroke-width="2" stroke-linecap="butt"/><path d="M302.91916,175.16079c2.51902,-0.52265 4.08721,0.73034 4.51633,2.79861c0.22089,1.06465 2.18857,9.91194 -9.1558,17.56305c-10.69394,7.21244 -33.87118,13.27525 -35.09352,13.52886c-1.34675,0.27942 16.70317,-8.01401 26.69387,-15.62637c8.69632,-6.6261 10.2765,-12.61037 10.0768,-13.57288c0,0 0.44331,-4.16862 2.96233,-4.69127z" fill="#ffe819" stroke="#000000" stroke-width="2" stroke-linecap="butt"/><path d="M233.94219,221.68182c-0.94361,3.14098 -5.02829,2.79825 -9.76638,1.37483c-4.7381,-1.42342 -7.81412,-5.12359 -6.87051,-8.26457c0.94361,-3.14098 3.0433,-5.28627 7.78139,-3.86285c7.8227,2.35009 9.21994,9.53949 8.8555,10.75259z" data-paper-data="{&quot;index&quot;:null}" fill="#ffe819" stroke="#000000" stroke-width="2" stroke-linecap="butt"/><path d="M263.63692,183.2541c-9.17192,0 -16.60724,-7.43531 -16.60724,-16.60724c0,-9.17192 7.43531,-16.60724 16.60724,-16.60724c9.17192,0 16.60724,7.43531 16.60724,16.60724c0,9.17192 -7.43531,16.60724 -16.60724,16.60724z" data-paper-data="{&quot;index&quot;:null}" fill="#ffe819" stroke="#000000" stroke-width="2" stroke-linecap="butt"/><path d="M268.11328,144.93348c0,0 4.38976,-1.66497 5.97141,-1.98684c1.99651,-0.40628 5.0556,-0.25707 5.0556,-0.25707" data-paper-data="{&quot;index&quot;:null}" fill="none" stroke="#000000" stroke-width="2" stroke-linecap="round"/><path d="M286.26174,147.2119c-2.63209,1.05314 -5.61956,-0.22686 -6.67269,-2.85895c-1.05314,-2.63209 0.22686,-5.61956 2.85895,-6.67269c2.63209,-1.05314 5.61956,0.22686 6.67269,2.85895c1.05314,2.63209 -0.22686,5.61956 -2.85895,6.67269z" data-paper-data="{&quot;index&quot;:null}" fill="#ffe819" stroke="#000000" stroke-width="2" stroke-linecap="butt"/><path d="M245.80921,156.12501c0,0 5.28153,-12.03903 15.72435,-13.95779c10.44282,-1.91877 22.16826,1.72132 22.16826,1.72132l-2.34498,9.43079c0,0 -4.39409,-6.73593 -3.42989,-5.56818c1.33623,1.61831 6.55798,13.78329 6.55798,13.78329z" data-paper-data="{&quot;index&quot;:null}" fill="#fff067" stroke="#000000" stroke-width="2" stroke-linecap="butt"/><path d="M259.8964,214.41622c4.11347,0 7.4481,2.47844 7.4481,5.53575c0,3.05731 -3.33463,5.53575 -7.4481,5.53575c-4.11347,0 -7.4481,-2.47844 -7.4481,-5.53575c0,-3.05731 3.33463,-5.53575 7.4481,-5.53575z" data-paper-data="{&quot;index&quot;:null}" fill="#ffe819" stroke="#000000" stroke-width="2" stroke-linecap="butt"/></g></g></svg>