<svg version="1.1" xmlns="http://www.w3.org/2000/svg" xmlns:xlink="http://www.w3.org/1999/xlink" width="85.50061" height="114.48222" viewBox="0,0,85.50061,114.48222"><g transform="translate(-195.44364,-112.967)"><g data-paper-data="{&quot;isPaintingLayer&quot;:true}" fill-rule="nonzero" stroke="#000000" stroke-width="2" stroke-linejoin="miter" stroke-miterlimit="10" stroke-dasharray="" stroke-dashoffset="0" style="mix-blend-mode: normal"><path d="M236.26426,214.24592l-2.13149,-25.47608l7.82337,-0.65455l2.13149,25.47608z" fill="#ff6b00" stroke-linecap="butt"/><path d="M246.24418,197.81565c0,-2.11232 1.71238,-3.8247 3.8247,-3.8247c2.11232,0 3.8247,1.71238 3.8247,3.8247c0,2.11232 -1.71238,3.8247 -3.8247,3.8247c-2.11232,0 -3.8247,-1.71238 -3.8247,-3.8247z" fill="#ff6b00" stroke-linecap="butt"/><path d="M224.20086,167.48554c0,-9.17193 7.43532,-16.60724 16.60724,-16.60724c9.17193,0 16.60724,7.43532 16.60724,16.60724c0,9.17193 -7.43532,16.60724 -16.60724,16.60724c-9.17193,0 -16.60724,-7.43532 -16.60724,-16.60724z" fill="#ff6b00" stroke-linecap="butt"/><path d="M225.86196,204.14046c0,-2.11232 1.71238,-3.8247 3.8247,-3.8247c2.11232,0 3.8247,1.71238 3.8247,3.8247c0,2.11232 -1.71238,3.8247 -3.8247,3.8247c-2.11232,0 -3.8247,-1.71238 -3.8247,-3.8247z" fill="#ff6b00" stroke-linecap="butt"/><path d="M215.41934,163.03142c0,0 2.0817,-2.24653 3.79263,-3.35279c1.35542,-0.8764 5.65709,-2.75729 5.65709,-2.75729" data-paper-data="{&quot;index&quot;:null}" fill="none" stroke-linecap="round"/><path d="M206.78302,168.47619c-1.08861,-2.61762 0.15089,-5.6221 2.76851,-6.71071c2.61762,-1.08861 5.6221,0.15089 6.71071,2.76851c1.08861,2.61762 -0.15089,5.6221 -2.76851,6.71071c-2.61762,1.08861 -5.6221,-0.15089 -6.71071,-2.76851z" data-paper-data="{&quot;index&quot;:null}" fill="#ff6b00" stroke-linecap="butt"/><path d="M271.75017,211.52851c4.52935,-1.99011 6.87479,-0.11664 8.19408,2.88597c1.31929,3.00261 -1.28298,7.05 -5.81234,9.04013c-4.52935,1.99011 -8.54183,2.82799 -9.86112,-0.17462c-0.50953,-1.15965 0.00132,-8.46573 7.47939,-11.75146z" data-paper-data="{&quot;index&quot;:null}" fill="#ff6b00" stroke-linecap="butt"/><path d="M219.64006,170.84124l4.22817,-12.18351l-26.62972,-21.39582l41.5955,-22.71252l4.14025,33.37304l12.53391,2.91357z" data-paper-data="{&quot;index&quot;:null}" fill="#ffa340" stroke-linecap="butt"/><path d="M247.20925,214.39786c4.9306,-0.40584 6.53768,2.12957 6.80672,5.39818c0.26904,3.26861 -3.5099,6.24733 -8.44052,6.65318c-4.9306,0.40584 -8.99714,-0.10929 -9.26618,-3.3779c-0.10391,-1.26238 2.75943,-8.00338 10.89998,-8.67344z" data-paper-data="{&quot;index&quot;:null}" fill="#ff6b00" stroke-linecap="butt"/></g></g></svg>