<svg version="1.1" xmlns="http://www.w3.org/2000/svg" xmlns:xlink="http://www.w3.org/1999/xlink" width="63.11058" height="84.14902" viewBox="0,0,63.11058,84.14902"><g transform="translate(-216.75765,-142.0775)"><g data-paper-data="{&quot;isPaintingLayer&quot;:true}" fill-rule="nonzero" stroke="#000000" stroke-width="2" stroke-linejoin="miter" stroke-miterlimit="10" stroke-dasharray="" stroke-dashoffset="0" style="mix-blend-mode: normal"><path d="M233.33447,156.6276c0,0 2.81667,-1.20279 4.82996,-1.51552c1.59495,-0.24775 6.28971,-0.21172 6.28971,-0.21172" fill="none" stroke-linecap="round"/><path d="M224.1152,158.58794c-0.23162,-2.82548 1.87113,-5.30376 4.69661,-5.53536c2.82548,-0.23162 5.30376,1.87113 5.53536,4.69661c0.23162,2.82548 -1.87113,5.30376 -4.69661,5.53536c-2.82548,0.23162 -5.30376,-1.87113 -5.53536,-4.69661z" fill="#e80000" stroke-linecap="butt"/><path d="M245.84564,161.37136c-0.98449,-9.11894 5.60979,-17.30938 14.72873,-18.29386c9.11894,-0.98449 17.30938,5.60979 18.29386,14.72873c0.98449,9.11894 -5.60979,17.30938 -14.72873,18.29386c-9.11894,0.98449 -17.30938,-5.60979 -18.29386,-14.72873z" fill="#e80000" stroke-linecap="butt"/><path d="M242.8094,204.31402l5.01653,-25.06807l7.69807,1.54052l-5.01653,25.06807z" fill="#e80000" stroke-linecap="butt"/><path d="M227.18278,213.75242c4.11347,0 7.4481,2.47844 7.4481,5.53575c0,3.05731 -3.33463,5.53575 -7.4481,5.53575c-4.11347,0 -7.4481,-2.47844 -7.4481,-5.53575c0,-3.05731 3.33463,-5.53575 7.4481,-5.53575z" data-paper-data="{&quot;index&quot;:null}" fill="#e80000" stroke-linecap="butt"/><path d="M270.17706,213.34982c4.94728,0 6.34095,2.65869 6.34095,5.93835c0,3.27966 -4.01056,5.93835 -8.95785,5.93835c-4.94728,0 -8.95785,-0.84699 -8.95785,-4.12665c0,-1.26666 3.40667,-7.75005 11.57475,-7.75005z" data-paper-data="{&quot;index&quot;:null}" fill="#e80000" stroke-linecap="butt"/><path d="M245.43302,157.12492l-0.74942,-5.54963l33.09957,-4.46974l0.74942,5.54962z" fill="#ff2121" stroke-linecap="butt"/><path d="M217.78007,197.08646c-0.22673,-2.10012 1.29196,-3.98641 3.39207,-4.21314c2.10012,-0.22673 33.15465,-10.93988 33.38138,-8.83977c0.22673,2.10012 -30.4602,16.21825 -32.56031,16.44498c-2.10012,0.22673 -3.98641,-1.29196 -4.21314,-3.39207z" fill="#e80000" stroke-linecap="butt"/><path d="M223.1988,202.40328c-0.22673,-2.10012 1.29196,-3.98641 3.39207,-4.21314c2.10012,-0.22673 33.38988,-15.40921 33.61661,-13.3091c0.22673,2.10012 -30.69543,20.68758 -32.79554,20.91431c-2.10012,0.22673 -3.98641,-1.29196 -4.21314,-3.39207z" fill="#e80000" stroke-linecap="butt"/></g></g></svg>