<svg version="1.1" xmlns="http://www.w3.org/2000/svg" xmlns:xlink="http://www.w3.org/1999/xlink" width="81.05896" height="106.23285" viewBox="0,0,81.05896,106.23285"><g transform="translate(-217.7803,-120.92749)"><g data-paper-data="{&quot;isPaintingLayer&quot;:true}" fill-rule="nonzero" stroke="#000000" stroke-width="2" stroke-linejoin="miter" stroke-miterlimit="10" stroke-dasharray="" stroke-dashoffset="0" style="mix-blend-mode: normal"><path d="M238.23106,206.23135l0.22643,-25.56409l7.8504,0.06953l-0.22643,25.56409z" data-paper-data="{&quot;index&quot;:null}" fill="#1d28e8" stroke-linecap="butt"/><path d="M293.02919,153.1056c-1.96346,0.77892 -4.18661,-0.18134 -4.96553,-2.14481c-0.77892,-1.96346 0.18134,-4.18661 2.14481,-4.96553c1.96346,-0.77892 4.18661,0.18134 4.96553,2.14481c0.77892,1.96346 -0.18134,4.18661 -2.14481,4.96553z" data-paper-data="{&quot;index&quot;:null}" fill="#1d28e8" stroke-linecap="butt"/><path d="M295.69445,156.80091c-1.96346,0.77892 -4.18661,-0.18134 -4.96553,-2.14481c-0.77892,-1.96346 0.18134,-4.18661 2.14481,-4.96553c1.96346,-0.77892 4.18661,0.18134 4.96553,2.14481c0.77892,1.96346 -0.18134,4.18661 -2.14481,4.96553z" data-paper-data="{&quot;index&quot;:null}" fill="#1d28e8" stroke-linecap="butt"/><path d="M229.28716,214.68624c4.11347,0 7.4481,2.47844 7.4481,5.53575c0,3.05731 -3.33463,5.53575 -7.4481,5.53575c-4.11347,0 -7.4481,-2.47844 -7.4481,-5.53575c0,-3.05731 3.33463,-5.53575 7.4481,-5.53575z" data-paper-data="{&quot;index&quot;:null}" fill="#1d28e8" stroke-linecap="butt"/><path d="M255.3555,214.28364c4.94728,0 6.34095,2.65869 6.34095,5.93835c0,3.27966 -4.01056,5.93835 -8.95785,5.93835c-4.94728,0 -8.95785,-0.84699 -8.95785,-4.12665c0,-1.26666 3.40667,-7.75005 11.57475,-7.75005z" data-paper-data="{&quot;index&quot;:null}" fill="#1d28e8" stroke-linecap="butt"/><path d="M226.27546,155.5691c2.06117,-8.93734 10.9772,-14.51156 19.91453,-12.45041c8.93734,2.06117 14.51156,10.9772 12.45041,19.91453c-2.06117,8.93734 -10.9772,14.51156 -19.91453,12.45041c-8.93734,-2.06117 -14.51156,-10.9772 -12.45041,-19.91453z" data-paper-data="{&quot;index&quot;:null}" fill="#1d28e8" stroke-linecap="butt"/><path d="M226.26283,154.73995l-6.38466,-24.02683l38.82252,-8.527l-1.60333,29.869l5.64962,0.20108z" data-paper-data="{&quot;index&quot;:null}" fill="#2530ff" stroke-linecap="round"/><g data-paper-data="{&quot;index&quot;:null}"><path d="M228.76989,152.95075c0,0 2.72928,-1.38973 4.71694,-1.83732c1.57465,-0.35458 6.26117,-0.63477 6.26117,-0.63477" fill="none" stroke-linecap="round"/><path d="M218.78483,155.07925c-0.118,-2.83251 2.08253,-5.22436 4.91505,-5.34235c2.83251,-0.118 5.22436,2.08253 5.34235,4.91505c0.118,2.83251 -2.08253,5.22436 -4.91505,5.34235c-2.83251,0.118 -5.22436,-2.08253 -5.34235,-4.91505z" fill="#1d28e8" stroke-linecap="butt"/></g></g></g></svg>