<svg version="1.1" xmlns="http://www.w3.org/2000/svg" xmlns:xlink="http://www.w3.org/1999/xlink" width="83.7772" height="59.70722" viewBox="0,0,83.7772,59.70722"><defs><linearGradient x1="245.77429" y1="155.94682" x2="245.77429" y2="193.93248" gradientUnits="userSpaceOnUse" id="color-1"><stop offset="0" stop-color="#5a6593"/><stop offset="1" stop-color="#686868"/></linearGradient><linearGradient x1="233.49844" y1="156.67036" x2="233.49844" y2="194.65598" gradientUnits="userSpaceOnUse" id="color-2"><stop offset="0" stop-color="#5a6593"/><stop offset="1" stop-color="#686868"/></linearGradient><linearGradient x1="239.33114" y1="136.02908" x2="239.33114" y2="195.73627" gradientUnits="userSpaceOnUse" id="color-3"><stop offset="0" stop-color="#5a6593"/><stop offset="1" stop-color="#686868"/></linearGradient></defs><g transform="translate(-198.1114,-136.02908)"><g data-paper-data="{&quot;isPaintingLayer&quot;:true}" fill-rule="nonzero" stroke-linejoin="miter" stroke-miterlimit="10" stroke-dasharray="" stroke-dashoffset="0" style="mix-blend-mode: normal"><path d="M198.86853,182.59533c0,0 1.80497,-6.67991 42.01069,-6.74139c39.75462,-0.06079 40.25938,6.89772 40.25938,6.89772" fill="none" stroke="#b4b37c" stroke-width="1.5" stroke-linecap="round"/><path d="M198.86853,182.59533c0,0 1.80497,-6.67991 42.01069,-6.74139c39.75462,-0.06079 40.25938,6.89772 40.25938,6.89772" fill="none" stroke="#b4b37c" stroke-width="1.5" stroke-linecap="round"/><path d="M261.24701,174.93964c0,10.48945 -6.92737,18.99281 -15.47269,18.99281c-8.54535,0 -15.47269,-8.50336 -15.47269,-18.99281c0,-10.48945 6.92737,-18.99281 15.47269,-18.99281c8.54535,0 15.47269,8.50336 15.47269,18.99281z" fill="url(#color-1)" stroke="none" stroke-width="0" stroke-linecap="butt"/><path d="M248.97116,175.66316c0,10.48945 -6.92737,18.99282 -15.47269,18.99282c-8.54535,0 -15.4727,-8.50336 -15.4727,-18.99282c0,-10.48945 6.92738,-18.99281 15.4727,-18.99281c8.54535,0 15.47269,8.50336 15.47269,18.99281z" fill="url(#color-2)" stroke="none" stroke-width="0" stroke-linecap="butt"/><path d="M239.33114,136.02908c8.54535,0 15.47269,13.3659 15.47269,29.85361c0,16.48768 -6.92737,29.85361 -15.47269,29.85361c-8.54535,0 -15.4727,-13.36593 -15.4727,-29.85361c0,-16.48768 6.92738,-29.85361 15.4727,-29.85361z" data-paper-data="{&quot;origPos&quot;:null}" fill="url(#color-3)" stroke="none" stroke-width="0" stroke-linecap="butt"/><path d="M281.13146,183.04211c0,0 -0.50475,7.27117 -40.25938,7.21038c-40.2057,-0.06148 -42.01068,-6.74139 -42.01068,-6.74139" data-paper-data="{&quot;index&quot;:null}" fill="none" stroke="#b4b37c" stroke-width="1.5" stroke-linecap="round"/></g></g></svg>