<svg version="1.1" xmlns="http://www.w3.org/2000/svg" xmlns:xlink="http://www.w3.org/1999/xlink" width="202.83006" height="79.79822" viewBox="0,0,202.83006,79.79822"><defs><linearGradient x1="272.22047" y1="185.71467" x2="387.53367" y2="185.71467" gradientUnits="userSpaceOnUse" id="color-1"><stop offset="0" stop-color="#ff3100"/><stop offset="1" stop-color="#ff8d00"/></linearGradient><linearGradient x1="279.17898" y1="186.00383" x2="358.32887" y2="186.00383" gradientUnits="userSpaceOnUse" id="color-2"><stop offset="0" stop-color="#ffe049"/><stop offset="1" stop-color="#fff3e5"/></linearGradient></defs><g transform="translate(-208.87228,-146.81123)"><g data-paper-data="{&quot;isPaintingLayer&quot;:true}" fill-rule="nonzero" stroke="#000000" stroke-linejoin="miter" stroke-miterlimit="10" stroke-dasharray="" stroke-dashoffset="0" style="mix-blend-mode: normal"><path d="M411.70234,185.10021c0,0 -49.9824,35.2289 -81.82526,35.2289c-31.84286,0 -57.6566,-15.49741 -57.6566,-34.61444c0,-19.11703 25.81374,-34.61444 57.6566,-34.61444c31.84286,0 81.82526,33.99998 81.82526,33.99998z" fill="url(#color-1)" stroke-width="0" stroke-linecap="butt"/><path d="M236.11061,205.71571v-25.56509h7.8507v25.56509z" fill="#e80000" stroke-width="2" stroke-linecap="butt"/><path d="M219.51103,160.06637c0,0 2.48345,-1.79243 4.37877,-2.53999c1.5015,-0.59223 6.08939,-1.5889 6.08939,-1.5889" fill="none" stroke-width="2" stroke-linecap="round"/><path d="M209.97137,163.70323c-0.55164,-2.78077 1.25541,-5.48223 4.03619,-6.03388c2.78077,-0.55164 5.48223,1.25541 6.03388,4.03619c0.55164,2.78077 -1.25541,5.48223 -4.03619,6.03388c-2.78077,0.55164 -5.48223,-1.25541 -6.03388,-4.03619z" fill="#e80000" stroke-width="2" stroke-linecap="butt"/><path d="M228.36645,161.33433c1.70499,-9.01207 10.39287,-14.93562 19.40493,-13.23063c9.01207,1.70499 14.93562,10.39287 13.23063,19.40493c-1.70499,9.01207 -10.39287,14.93562 -19.40493,13.23063c-9.01207,-1.70499 -14.93562,-10.39287 -13.23063,-19.40493z" fill="#e80000" stroke-width="2" stroke-linecap="butt"/><path d="M224.77292,208.13772c0,-2.11232 1.71238,-3.8247 3.8247,-3.8247c2.11232,0 3.8247,1.71238 3.8247,3.8247c0,2.11232 -1.71238,3.8247 -3.8247,3.8247c-2.11232,0 -3.8247,-1.71238 -3.8247,-3.8247z" fill="#e80000" stroke-width="2" stroke-linecap="butt"/><path d="M272.6009,184.91371c0,-2.11232 1.71238,-3.8247 3.8247,-3.8247c2.11232,0 3.8247,1.71238 3.8247,3.8247c0,2.11232 -1.71238,3.8247 -3.8247,3.8247c-2.11232,0 -3.8247,-1.71238 -3.8247,-3.8247z" fill="#e80000" stroke-width="2" stroke-linecap="butt"/><path d="M228.86381,214.13534c4.11347,0 7.4481,2.47844 7.4481,5.53575c0,3.05731 -3.33463,5.53575 -7.4481,5.53575c-4.11347,0 -7.4481,-2.47844 -7.4481,-5.53575c0,-3.05731 3.33463,-5.53575 7.4481,-5.53575z" data-paper-data="{&quot;index&quot;:null}" fill="#e80000" stroke-width="2" stroke-linecap="butt"/><path d="M254.93215,213.73274c4.94728,0 6.34095,2.65869 6.34095,5.93835c0,3.27966 -4.01056,5.93835 -8.95785,5.93835c-4.94728,0 -8.95785,-0.84699 -8.95785,-4.12665c0,-1.26666 3.40667,-7.75005 11.57475,-7.75005z" data-paper-data="{&quot;index&quot;:null}" fill="#e80000" stroke-width="2" stroke-linecap="butt"/><path d="M369.18429,186.00383c0,0 -28.57372,23.75903 -50.43036,23.75903c-21.85664,0 -39.57495,-10.63728 -39.57495,-23.75903c0,-13.12175 17.71831,-23.75902 39.57495,-23.75902c21.85664,0 50.43036,23.75902 50.43036,23.75902z" fill="url(#color-2)" stroke-width="0" stroke-linecap="butt"/><path d="M227.58403,159.68307l-0.36323,-5.58821l33.32966,-2.16639l0.36323,5.58821z" fill="#ff2121" stroke-width="2" stroke-linecap="butt"/></g></g></svg>