<svg version="1.1" xmlns="http://www.w3.org/2000/svg" xmlns:xlink="http://www.w3.org/1999/xlink" width="81.33553" height="83.09042" viewBox="0,0,81.33553,83.09042"><g transform="translate(-184.75105,-144.18529)"><g data-paper-data="{&quot;isPaintingLayer&quot;:true}" fill-rule="nonzero" stroke="#000000" stroke-width="2" stroke-linejoin="miter" stroke-miterlimit="10" stroke-dasharray="" stroke-dashoffset="0" style="mix-blend-mode: normal"><path d="M257.43718,189.44218c0,-2.11232 1.71238,-3.8247 3.8247,-3.8247c2.11232,0 3.8247,1.71238 3.8247,3.8247c0,2.11232 -1.71238,3.8247 -3.8247,3.8247c-2.11232,0 -3.8247,-1.71238 -3.8247,-3.8247z" fill="#181818" stroke-linecap="butt"/><path d="M220.04213,208.68981l-8.74106,-24.02431l7.37755,-2.68426l8.74106,24.02431z" fill="#181818" stroke-linecap="butt"/><path d="M214.77074,215.20421c4.11347,0 7.4481,2.47844 7.4481,5.53575c0,3.05731 -3.33463,5.53575 -7.4481,5.53575c-4.11347,0 -7.4481,-2.47844 -7.4481,-5.53575c0,-3.05731 3.33463,-5.53575 7.4481,-5.53575z" data-paper-data="{&quot;index&quot;:null}" fill="#181818" stroke-linecap="butt"/><path d="M254.60444,213.94127c4.94728,0 6.34095,2.65869 6.34095,5.93835c0,3.27966 -4.01056,5.93835 -8.95785,5.93835c-4.94728,0 -8.95785,-0.84699 -8.95785,-4.12665c0,-1.26666 3.40667,-7.75005 11.57475,-7.75005z" data-paper-data="{&quot;index&quot;:null}" fill="#181818" stroke-linecap="butt"/><path d="M208.73128,183.85956l13.65704,-4.64767l-2.075,5.25368l5.31798,2.56381l-15.60512,6.96315l2.29332,-6.29713z" fill="#0e0e0e" stroke-linecap="round"/><path d="M255.72022,196.55321c0,-2.11232 1.71238,-3.8247 3.8247,-3.8247c2.11232,0 3.8247,1.71238 3.8247,3.8247c0,2.11232 -1.71238,3.8247 -3.8247,3.8247c-2.11232,0 -3.8247,-1.71238 -3.8247,-3.8247z" fill="#181818" stroke-linecap="butt"/><path d="M196.24621,150.14109c0,0 3.03714,-0.39518 5.05989,-0.15109c1.60245,0.19338 6.11208,1.49927 6.11208,1.49927" fill="#181818" stroke-linecap="round"/><path d="M185.75105,148.80311c0.83765,-2.70838 3.71227,-4.22493 6.42066,-3.38726c2.70838,0.83765 4.22493,3.71227 3.38726,6.42066c-0.83765,2.70838 -3.71227,4.22493 -6.42066,3.38726c-2.70838,-0.83765 -4.22493,-3.71227 -3.38726,-6.42066z" fill="#181818" stroke-linecap="butt"/><path d="M204.82433,164.28025c0.64347,-9.14933 8.58211,-16.04468 17.73143,-15.40121c9.14933,0.64347 16.04468,8.58211 15.40121,17.73143c-0.64347,9.14933 -8.58211,16.04468 -17.73143,15.40121c-9.14933,-0.64347 -16.04468,-8.58211 -15.40121,-17.73143z" fill="#181818" stroke-linecap="butt"/><path d="M219.96239,168.98689l0.36795,-5.23182c0,0 7.00558,1.92659 10.33249,2.16058c3.10783,0.21857 9.0165,-0.79976 9.0165,-0.79976l-0.36795,5.23182z" fill="#ff0000" stroke-linecap="butt"/><g><path d="M207.20394,157.34933l0.84629,-12.03319l29.55978,2.07894l-0.84629,12.03319z" fill="#343434" stroke-linecap="butt"/><path d="M247.48898,160.18258l-51.01026,-3.58755" fill="none" stroke-linecap="round"/></g></g></g></svg>