<svg version="1.1" xmlns="http://www.w3.org/2000/svg" xmlns:xlink="http://www.w3.org/1999/xlink" width="54.31156" height="77.55528" viewBox="0,0,54.31156,77.55528"><g transform="translate(-209.0928,-148.67124)"><g data-paper-data="{&quot;isPaintingLayer&quot;:true}" fill-rule="nonzero" stroke="#000000" stroke-width="2" stroke-linejoin="miter" stroke-miterlimit="10" stroke-dasharray="" stroke-dashoffset="0" style="mix-blend-mode: normal"><path d="M229.88225,212.38318l-2.8895,-25.40127l7.80039,-0.88732l2.8895,25.40127z" fill="#e80000" stroke-linecap="butt"/><path d="M219.78179,155.61185c0,0 3.05727,0.18278 4.99808,0.80276c1.53753,0.49116 5.72128,2.62148 5.72128,2.62148" fill="none" stroke-linecap="round"/><path d="M210.0928,152.39391c1.33184,-2.50264 4.44029,-3.45177 6.94293,-2.11994c2.50264,1.33184 3.45177,4.44029 2.11994,6.94293c-1.33184,2.50264 -4.44029,3.45177 -6.94293,2.11994c-2.50264,-1.33184 -3.45177,-4.44029 -2.11994,-6.94293z" fill="#e80000" stroke-linecap="butt"/><path d="M218.77783,167.37948c1.86332,-8.98066 10.65411,-14.7504 19.63477,-12.88708c8.98066,1.86332 14.7504,10.65411 12.88708,19.63477c-1.86332,8.98066 -10.65411,14.7504 -19.63477,12.88708c-8.98066,-1.86332 -14.7504,-10.65411 -12.88708,-19.63477z" fill="#e80000" stroke-linecap="butt"/><path d="M211.33816,199.4578c0,-2.11232 1.71238,-3.8247 3.8247,-3.8247c2.11232,0 3.8247,1.71238 3.8247,3.8247c0,2.11232 -1.71238,3.8247 -3.8247,3.8247c-2.11232,0 -3.8247,-1.71238 -3.8247,-3.8247z" fill="#e80000" stroke-linecap="butt"/><path d="M240.5521,210.05886c0,-2.11232 1.71238,-3.8247 3.8247,-3.8247c2.11232,0 3.8247,1.71238 3.8247,3.8247c0,2.11232 -1.71238,3.8247 -3.8247,3.8247c-2.11232,0 -3.8247,-1.71238 -3.8247,-3.8247z" fill="#e80000" stroke-linecap="butt"/><path d="M227.18278,213.75242c4.11347,0 7.4481,2.47844 7.4481,5.53575c0,3.05731 -3.33463,5.53575 -7.4481,5.53575c-4.11347,0 -7.4481,-2.47844 -7.4481,-5.53575c0,-3.05731 3.33463,-5.53575 7.4481,-5.53575z" data-paper-data="{&quot;index&quot;:null}" fill="#e80000" stroke-linecap="butt"/><path d="M256.06341,213.34982c4.94728,0 6.34095,2.65869 6.34095,5.93835c0,3.27966 -4.01056,5.93835 -8.95785,5.93835c-4.94728,0 -8.95785,-0.84699 -8.95785,-4.12665c0,-1.26666 3.40667,-7.75005 11.57475,-7.75005z" data-paper-data="{&quot;index&quot;:null}" fill="#e80000" stroke-linecap="butt"/><path d="M218.02458,165.71471l-0.26483,-5.59374l33.36263,-1.57949l0.26483,5.59373z" fill="#ff2121" stroke-linecap="butt"/></g></g></svg>