<svg version="1.1" xmlns="http://www.w3.org/2000/svg" xmlns:xlink="http://www.w3.org/1999/xlink" width="507" height="389" viewBox="0,0,507,389"><defs><radialGradient cx="237.31941" cy="153.80734" r="35.95262" gradientUnits="userSpaceOnUse" id="color-1"><stop offset="0" stop-color="#ff4545"/><stop offset="1" stop-color="#ff4545" stop-opacity="0"/></radialGradient><radialGradient cx="240.00002" cy="180.00004" r="63.58429" gradientUnits="userSpaceOnUse" id="color-2"><stop offset="0" stop-color="#ff0000"/><stop offset="1" stop-color="#ff0000" stop-opacity="0"/></radialGradient></defs><g transform="translate(11.5,9)"><g data-paper-data="{&quot;isPaintingLayer&quot;:true}" fill-rule="nonzero" stroke-linejoin="miter" stroke-miterlimit="10" stroke-dasharray="" stroke-dashoffset="0" style="mix-blend-mode: normal"><path d="M-11.5,380v-389h507v389z" fill="#0a0711" stroke="none" stroke-width="NaN" stroke-linecap="butt"/><path d="M201.36679,153.80734c0,-19.85608 16.09653,-35.95262 35.95262,-35.95262c19.85608,0 35.95262,16.09653 35.95262,35.95262c0,19.85608 -16.09653,35.95262 -35.95262,35.95262c-19.85608,0 -35.95262,-16.09653 -35.95262,-35.95262z" fill="url(#color-1)" stroke="#000000" stroke-width="0" stroke-linecap="butt"/><path d="M176.41573,180.00004c0,-35.11664 28.46765,-63.58429 63.58429,-63.58429c35.11664,0 63.58429,28.46765 63.58429,63.58429c0,35.11664 -28.46765,63.58429 -63.58429,63.58429c-35.11664,0 -63.58429,-28.46765 -63.58429,-63.58429z" fill="url(#color-2)" stroke="#000000" stroke-width="0" stroke-linecap="butt"/><path d="M228.1901,202.47766c0,-1.83618 1.48852,-3.3247 3.3247,-3.3247c1.83618,0 3.3247,1.48852 3.3247,3.3247c0,1.83618 -1.48852,3.3247 -3.3247,3.3247c-1.83618,0 -3.3247,-1.48852 -3.3247,-3.3247z" fill="#181818" stroke="#000000" stroke-width="2" stroke-linecap="butt"/><path d="M216.85338,140.12009c0,0 2.30662,-2.01493 4.12448,-2.93495c1.44014,-0.72886 5.91588,-2.14651 5.91588,-2.14651" fill="#181818" stroke="#000000" stroke-width="2" stroke-linecap="round"/><path d="M209.13157,144.83426c-0.80702,-2.71766 0.74182,-5.57501 3.45949,-6.38203c2.71766,-0.80702 5.575,0.74182 6.38203,3.45949c0.80702,2.71766 -0.74182,5.575 -3.45949,6.38203c-2.71766,0.80702 -5.57501,-0.74182 -6.38203,-3.45949z" fill="#9b9b9b" stroke="#000000" stroke-width="2" stroke-linecap="butt"/><g stroke="#000000" stroke-linecap="butt"><g fill="#343434" stroke-width="2"><path d="M220.22467,141.96207l1.02461,-12.01931c0,0 3.22906,-5.37459 14.68004,-4.38289c11.53799,0.99924 14.84568,6.89987 14.84568,6.89987l-1.02461,12.01931c0,0 -8.9929,-4.1233 -13.81001,-4.53395c-5.01669,-0.42766 -15.7157,2.01698 -15.7157,2.01698z"/></g><path d="M258.2895,148.37957c-0.3459,3.70637 -11.03763,5.73929 -23.88061,4.54069c-12.84297,-1.19861 -22.97387,-5.17488 -22.62795,-8.88125c0.3459,-3.70637 11.03763,-5.73929 23.88061,-4.54069c12.84297,1.19861 22.97387,5.17488 22.62795,8.88125z" fill="#343434" stroke-width="2"/><path d="M250.68588,148.71262c-0.23911,2.56211 -7.63004,3.96743 -16.50806,3.13886c-8.87802,-0.82856 -15.88127,-3.57727 -15.64214,-6.13938c0.23911,-2.56211 7.63004,-3.96743 16.50806,-3.13886c8.87802,0.82856 15.88127,3.57727 15.64214,6.13938z" fill="#111111" stroke-width="0.5"/></g><path d="M232.17647,208.74334l-1.52422,-25.51961l7.83674,-0.46806l1.52422,25.51961z" fill="#181818" stroke="#000000" stroke-width="2" stroke-linecap="butt"/><path d="M253.3761,234.01171c-2.08742,4.56583 -6.64875,6.06563 -10.18801,3.34992c-3.53927,-2.71572 -4.71621,-8.61857 -2.62879,-13.1844c2.08742,-4.56583 6.64875,-6.06563 10.18801,-3.34992c3.53927,2.71572 4.71621,8.61857 2.62879,13.1844z" data-paper-data="{&quot;index&quot;:null}" fill="#181818" stroke="#000000" stroke-width="2" stroke-linecap="butt"/><path d="M218.75515,231.03005c1.07239,-8.09737 7.94693,-10.62335 9.20262,-10.45704c3.25127,0.43058 3.56438,4.51764 2.91485,9.4221c-0.64954,4.90446 -3.81176,8.53124 -7.06303,8.10066c-3.25127,-0.43058 -5.70397,-2.16124 -5.05444,-7.0657z" data-paper-data="{&quot;index&quot;:null}" fill="#181818" stroke="#000000" stroke-width="2" stroke-linecap="butt"/><path d="M227.66916,181.71818l14.4154,-0.55848l-3.48753,4.44341l4.3656,3.97436l-16.94308,2.22199l3.99445,-5.38121z" fill="#0e0e0e" stroke="#000000" stroke-width="2" stroke-linecap="round"/><path d="M215.76814,159.09245c0.71704,-9.14386 8.71087,-15.97514 17.85472,-15.25811c9.14386,0.71704 15.97514,8.71087 15.25811,17.85472c-0.71704,9.14386 -8.71087,15.97514 -17.85472,15.25811c-9.14386,-0.71704 -15.97514,-8.71087 -15.25811,-17.85472z" fill="#181818" stroke="#000000" stroke-width="2" stroke-linecap="butt"/><path d="M219.27015,166.4913l-0.21851,-6.44642c0,0 6.44178,2.45317 9.34252,2.34166c3.46087,-0.13303 10.04054,-3.08671 10.04054,-3.08671l0.21851,6.44642z" fill="#ff4545" stroke="#000000" stroke-width="2" stroke-linecap="butt"/><path d="M247.97118,191.00105c0,-25.76849 20.88957,-46.65803 46.65803,-46.65803c25.76849,0 46.65803,20.88957 46.65803,46.65803c0,25.76849 -20.88957,46.65803 -46.65803,46.65803c-25.76849,0 -46.65803,-20.88957 -46.65803,-46.65803z" fill="#181818" stroke="#000000" stroke-width="2" stroke-linecap="butt"/></g></g></svg>