<svg version="1.1" xmlns="http://www.w3.org/2000/svg" xmlns:xlink="http://www.w3.org/1999/xlink" width="70.06747" height="105.93277" viewBox="0,0,70.06747,105.93277"><g transform="translate(-202.39933,-120.82497)"><g data-paper-data="{&quot;isPaintingLayer&quot;:true}" fill-rule="nonzero" stroke="#000000" stroke-width="2" stroke-linejoin="miter" stroke-miterlimit="10" stroke-dasharray="" stroke-dashoffset="0" style="mix-blend-mode: normal"><path d="M241.53395,200.59772c0,-2.11232 1.71238,-3.8247 3.8247,-3.8247c2.11232,0 3.8247,1.71238 3.8247,3.8247c0,2.11232 -1.71238,3.8247 -3.8247,3.8247c-2.11232,0 -3.8247,-1.71238 -3.8247,-3.8247z" fill="#1d28e8" stroke-linecap="butt"/><path d="M222.56973,160.00812c0.32504,-9.16617 8.01919,-16.33331 17.18535,-16.00826c9.16617,0.32504 16.33331,8.01919 16.00826,17.18535c-0.32504,9.16617 -8.01919,16.33331 -17.18535,16.00826c-9.16617,-0.32504 -16.33331,-8.01919 -16.00826,-17.18535z" fill="#1d28e8" stroke-linecap="butt"/><path d="M233.3187,206.32558l-0.39396,-25.56205l7.84977,-0.12098l0.39396,25.56205z" fill="#1d28e8" stroke-linecap="butt"/><path d="M229.92025,210.08388c0,-2.11232 1.71238,-3.8247 3.8247,-3.8247c2.11232,0 3.8247,1.71238 3.8247,3.8247c0,2.11232 -1.71238,3.8247 -3.8247,3.8247c-2.11232,0 -3.8247,-1.71238 -3.8247,-3.8247z" fill="#1d28e8" stroke-linecap="butt"/><path d="M229.28716,214.68624c4.11347,0 7.4481,2.47844 7.4481,5.53575c0,3.05731 -3.33463,5.53575 -7.4481,5.53575c-4.11347,0 -7.4481,-2.47844 -7.4481,-5.53575c0,-3.05731 3.33463,-5.53575 7.4481,-5.53575z" data-paper-data="{&quot;index&quot;:null}" fill="#1d28e8" stroke-linecap="butt"/><path d="M212.93757,163.27965c0,0 2.41542,-1.8831 4.28178,-2.70028c1.47856,-0.64738 6.02642,-1.81314 6.02642,-1.81314" fill="none" stroke-linecap="round"/><path d="M203.53902,167.26702c-0.65416,-2.75846 1.05169,-5.52493 3.81014,-6.17909c2.75846,-0.65416 5.52493,1.05169 6.17909,3.81014c0.65416,2.75846 -1.05169,5.52493 -3.81014,6.17909c-2.75846,0.65416 -5.52493,-1.05169 -6.17909,-3.81014z" fill="#1d28e8" stroke-linecap="butt"/><path d="M261.37605,210.39113c4.77228,-1.30419 6.81753,0.89305 7.68211,4.0567c0.86458,3.16365 -2.30324,6.78555 -7.07553,8.08975c-4.77228,1.30419 -8.86427,1.54442 -9.72884,-1.61923c-0.33391,-1.22185 1.24311,-8.37397 9.12226,-10.52722z" data-paper-data="{&quot;index&quot;:null}" fill="#1d28e8" stroke-linecap="butt"/><path d="M222.39972,159.19649l-10.31094,-20.60851l37.67892,-16.29314l2.39432,28.40559l20.03171,-5.63837z" fill="#2530ff" stroke-linecap="round"/></g></g></svg>