<svg version="1.1" xmlns="http://www.w3.org/2000/svg" xmlns:xlink="http://www.w3.org/1999/xlink" width="69.89498" height="120.72758" viewBox="0,0,69.89498,120.72758"><g transform="translate(-178.64337,-118.45481)"><g data-paper-data="{&quot;isPaintingLayer&quot;:true}" fill-rule="nonzero" stroke="#000000" stroke-width="2" stroke-linejoin="miter" stroke-miterlimit="10" stroke-dasharray="" stroke-dashoffset="0" style="mix-blend-mode: normal"><path d="M231.21787,211.05011c0,-2.11232 1.71238,-3.8247 3.8247,-3.8247c2.11232,0 3.8247,1.71238 3.8247,3.8247c0,2.11232 -1.71238,3.8247 -3.8247,3.8247c-2.11232,0 -3.8247,-1.71238 -3.8247,-3.8247z" fill="#ff6b00" stroke-linecap="butt"/><path d="M207.40058,172.97335c0,-9.17193 7.43532,-16.60724 16.60724,-16.60724c9.17193,0 16.60724,7.43532 16.60724,16.60724c0,9.17193 -7.43532,16.60724 -16.60724,16.60724c-9.17193,0 -16.60724,-7.43532 -16.60724,-16.60724z" fill="#ff6b00" stroke-linecap="butt"/><path d="M219.27727,218.69126v-25.56509h7.8507v25.56509z" fill="#ff6b00" stroke-linecap="butt"/><path d="M224.63533,213.14603c0,-2.11232 1.71238,-3.8247 3.8247,-3.8247c2.11232,0 3.8247,1.71238 3.8247,3.8247c0,2.11232 -1.71238,3.8247 -3.8247,3.8247c-2.11232,0 -3.8247,-1.71238 -3.8247,-3.8247z" fill="#ff6b00" stroke-linecap="butt"/><path d="M210.5298,227.11089c4.11347,0 7.4481,2.47844 7.4481,5.53575c0,3.05731 -3.33463,5.53575 -7.4481,5.53575c-4.11347,0 -7.4481,-2.47844 -7.4481,-5.53575c0,-3.05731 3.33463,-5.53575 7.4481,-5.53575z" data-paper-data="{&quot;index&quot;:null}" fill="#ff6b00" stroke-linecap="butt"/><path d="M196.59766,170.08036c0,0 1.17071,-2.83016 2.39024,-4.46228c0.96613,-1.29299 4.34541,-4.55221 4.34541,-4.55221" fill="none" stroke-linecap="round"/><path d="M190.39332,178.18826c-1.93083,-2.07579 -1.81332,-5.32379 0.26247,-7.25462c2.07579,-1.93083 5.32379,-1.81332 7.25462,0.26247c1.93083,2.07579 1.81332,5.32379 -0.26247,7.25462c-2.07579,1.93083 -5.32379,1.81332 -7.25462,-0.26247z" fill="#ff6b00" stroke-linecap="butt"/><path d="M240.42004,225.83469c4.89738,-0.7009 6.65366,1.73353 7.1183,4.98011c0.46464,3.24658 -3.1288,6.44664 -8.02619,7.14755c-4.89738,0.7009 -8.98749,0.43065 -9.45213,-2.81593c-0.17945,-1.25388 2.27433,-8.15451 10.36002,-9.31172z" data-paper-data="{&quot;index&quot;:null}" fill="#ff6b00" stroke-linecap="butt"/><path d="M202.83978,176.32905l4.22817,-12.18351l-26.62972,-21.39582l41.5955,-22.71252l4.14025,33.37304l12.53391,2.91357z" data-paper-data="{&quot;index&quot;:null}" fill="#ffa340" stroke-linecap="butt"/></g></g></svg>