<svg version="1.1" xmlns="http://www.w3.org/2000/svg" xmlns:xlink="http://www.w3.org/1999/xlink" width="106.12657" height="43.30941" viewBox="0,0,106.12657,43.30941"><g transform="translate(-200.32486,-188.31036)"><g data-paper-data="{&quot;isPaintingLayer&quot;:true}" fill-rule="nonzero" stroke="#000000" stroke-width="2" stroke-linejoin="miter" stroke-miterlimit="10" stroke-dasharray="" stroke-dashoffset="0" style="mix-blend-mode: normal"><path d="M257.18502,219.74259c2.03166,-0.57813 4.14734,0.60018 4.72547,2.63185c0.57813,2.03166 -0.60018,4.14734 -2.63185,4.72547c-2.03166,0.57813 -4.14734,-0.60018 -4.72547,-2.63185c-0.57813,-2.03166 0.60018,-4.14734 2.63185,-4.72547z" fill="#2d6a2b" stroke-linecap="butt"/><path d="M260.81151,195.76984c0,0 2.68216,-1.47862 4.65404,-1.99127c1.56216,-0.40612 6.23694,-0.84009 6.23694,-0.84009" fill="none" stroke-linecap="round"/><path d="M250.90176,198.22518c-0.21098,-2.82709 1.90981,-5.28994 4.73689,-5.50092c2.82709,-0.21098 5.28994,1.90981 5.50092,4.73689c0.21098,2.82709 -1.90981,5.28994 -4.73689,5.50092c-2.82709,0.21098 -5.28994,-1.90981 -5.50092,-4.73689z" fill="#2d6a2b" stroke-linecap="butt"/><path d="M218.2303,230.37682c-4.94129,-0.24361 -6.20235,-2.9677 -6.04085,-6.24338c0.16149,-3.27568 4.29812,-5.73366 9.23939,-5.49006c4.94129,0.24361 8.90528,1.28706 8.74378,4.56273c-0.06237,1.26512 -3.78416,7.5729 -11.94232,7.1707z" data-paper-data="{&quot;index&quot;:null}" fill="#2d6a2b" stroke-linecap="butt"/><path d="M267.54165,203.22805c3.31073,-8.55356 12.92863,-12.80371 21.48218,-9.49298c8.55356,3.31073 12.80371,12.92863 9.49298,21.48218c-3.31073,8.55356 -12.92863,12.80371 -21.48218,9.49298c-8.55356,-3.31073 -12.80371,-12.92863 -9.49298,-21.48218z" fill="#2d6a2b" stroke-linecap="butt"/><path d="M282.50689,189.3103c15.84647,0.17762 22.28876,11.91573 22.28876,11.91573l-40.96008,1.53887c0,0 1.63376,-13.64556 18.6713,-13.4546z" fill="#367e33" stroke-linecap="round"/><path d="M233.96699,218.88805l25.34177,-3.37168l1.0354,7.78212l-25.34177,3.37168z" fill="#2d6a2b" stroke-linecap="butt"/><path d="M237.06855,220.89114c2.03166,-0.57813 4.14734,0.60018 4.72547,2.63185c0.57813,2.03166 -0.60018,4.14734 -2.63185,4.72547c-2.03166,0.57813 -4.14734,-0.60018 -4.72547,-2.63185c-0.57813,-2.03166 0.60018,-4.14734 2.63185,-4.72547z" fill="#2d6a2b" stroke-linecap="butt"/><path d="M209.05954,230.20301c-4.75476,1.3667 -6.82866,-0.80352 -7.73468,-3.95556c-0.90602,-3.15203 2.21401,-6.81519 6.96877,-8.18189c4.75476,-1.3667 8.84324,-1.66061 9.74925,1.49143c0.34992,1.21737 -1.13312,8.38956 -8.98334,10.64602z" data-paper-data="{&quot;index&quot;:null}" fill="#2d6a2b" stroke-linecap="butt"/></g></g></svg>