<svg version="1.1" xmlns="http://www.w3.org/2000/svg" xmlns:xlink="http://www.w3.org/1999/xlink" width="65.29441" height="97.15072" viewBox="0,0,65.29441,97.15072"><g transform="translate(-190.64107,-127.87567)"><g data-paper-data="{&quot;isPaintingLayer&quot;:true}" fill-rule="nonzero" stroke="#000000" stroke-width="2" stroke-linejoin="miter" stroke-miterlimit="10" stroke-dasharray="" stroke-dashoffset="0" style="mix-blend-mode: normal"><path d="M199.22004,168.50694c0,0 1.17071,-2.83016 2.39024,-4.46228c0.96613,-1.29299 4.34541,-4.55221 4.34541,-4.55221" fill="none" stroke-linecap="round"/><path d="M193.0157,176.61484c-1.93083,-2.07579 -1.81332,-5.32379 0.26247,-7.25462c2.07579,-1.93083 5.32379,-1.81332 7.25462,0.26247c1.93083,2.07579 1.81332,5.32379 -0.26247,7.25462c-2.07579,1.93083 -5.32379,1.81332 -7.25462,-0.26247z" fill="#494c58" stroke-linecap="butt"/><path d="M209.31941,172.6632c0,-9.17193 7.43532,-16.60724 16.60724,-16.60724c9.17193,0 16.60724,7.43532 16.60724,16.60724c0,9.17193 -7.43532,16.60724 -16.60724,16.60724c-9.17193,0 -16.60724,-7.43532 -16.60724,-16.60724z" fill="#494c58" stroke-linecap="butt"/><path d="M207.49129,220.20169c0,-2.11232 1.71238,-3.8247 3.8247,-3.8247c2.11232,0 3.8247,1.71238 3.8247,3.8247c0,2.11232 -1.71238,3.8247 -3.8247,3.8247c-2.11232,0 -3.8247,-1.71238 -3.8247,-3.8247z" fill="#494c58" stroke-linecap="butt"/><path d="M233.74757,219.26267c0,-2.11232 1.71238,-3.8247 3.8247,-3.8247c2.11232,0 3.8247,1.71238 3.8247,3.8247c0,2.11232 -1.71238,3.8247 -3.8247,3.8247c-2.11232,0 -3.8247,-1.71238 -3.8247,-3.8247z" fill="#494c58" stroke-linecap="butt"/><path d="M216.69782,155.83107l9.70278,-25.17477l9.70277,25.17477l18.09437,1.04895c0,0 -5.50305,8.85029 -28.02673,9.05293c-20.00454,0.17998 -26.51293,-8.19664 -26.51293,-8.19664z" fill="#7f8499" stroke-linecap="butt"/><path d="M221.19609,218.38111c-2.39276,-1.91359 -6.03146,-11.10214 -6.03146,-11.10214l6.03146,5.24474v-19.70769h7.8507v25.56509c0,0 -5.45794,1.91359 -7.8507,0z" fill="#494c58" stroke-linecap="butt"/></g></g></svg>