<svg version="1.1" xmlns="http://www.w3.org/2000/svg" xmlns:xlink="http://www.w3.org/1999/xlink" width="81.58596" height="64.39628" viewBox="0,0,81.58596,64.39628"><g transform="translate(-194.62432,-162.77421)"><g data-paper-data="{&quot;isPaintingLayer&quot;:true}" fill-rule="nonzero" stroke="#000000" stroke-width="2" stroke-linejoin="miter" stroke-miterlimit="10" stroke-dasharray="" stroke-dashoffset="0" style="mix-blend-mode: normal"><path d="M235.16062,219.91351l-11.88603,-22.63397l6.95059,-3.65003l11.88604,22.63396z" fill="#ffe819" stroke-linecap="butt"/><path d="M244.69575,204.62466c0,-2.11232 1.71238,-3.8247 3.8247,-3.8247c2.11232,0 3.8247,1.71238 3.8247,3.8247c0,2.11232 -1.71238,3.8247 -3.8247,3.8247c-2.11232,0 -3.8247,-1.71238 -3.8247,-3.8247z" fill="#ffe819" stroke-linecap="butt"/><path d="M219.47913,188.21537c0,-9.17193 7.43532,-16.60724 16.60724,-16.60724c9.17193,0 16.60724,7.43532 16.60724,16.60724c0,9.17193 -7.43532,16.60724 -16.60724,16.60724c-9.17193,0 -16.60724,-7.43532 -16.60724,-16.60724z" fill="#ffe819" stroke-linecap="butt"/><path d="M210.39135,215.29777c0,-2.11232 1.71238,-3.8247 3.8247,-3.8247c2.11232,0 3.8247,1.71238 3.8247,3.8247c0,2.11232 -1.71238,3.8247 -3.8247,3.8247c-2.11232,0 -3.8247,-1.71238 -3.8247,-3.8247z" fill="#ffe819" stroke-linecap="butt"/><path d="M204.68995,183.01363c0,0 2.10397,-2.22568 3.82583,-3.31485c1.36408,-0.86285 5.68426,-2.70082 5.68426,-2.70082" fill="none" stroke-linecap="round"/><path d="M195.99982,188.37214c-1.06249,-2.62833 0.20687,-5.62033 2.8352,-6.68282c2.62833,-1.06249 5.62033,0.20687 6.68282,2.8352c1.06249,2.62833 -0.20687,5.62033 -2.8352,6.68282c-2.62833,1.06249 -5.62033,-0.20687 -6.68282,-2.8352z" fill="#ffe819" stroke-linecap="butt"/><path d="M214.95018,188.16829l4.89612,-10.31864l-11.5487,-1.5813c0,0 13.57292,-11.79955 24.16781,-12.49414c10.59489,-0.69459 18.66148,9.6863 18.66148,9.6863z" data-paper-data="{&quot;index&quot;:null}" fill="#fff067" stroke-linecap="butt"/><path d="M237.28686,215.3102c4.48709,2.08365 4.63136,5.082 3.25007,8.0566c-1.3813,2.97459 -6.13855,3.69684 -10.62566,1.61319c-4.48709,-2.08365 -7.76788,-4.541 -6.38658,-7.51558c0.53347,-1.14882 6.35388,-5.59435 13.76218,-2.15419z" data-paper-data="{&quot;index&quot;:null}" fill="#ffe819" stroke-linecap="butt"/><path d="M266.76134,198.4477c4.29883,-2.44858 6.82572,-0.82814 8.44894,2.02166c1.62321,2.8498 -0.5458,7.14497 -4.84466,9.59356c-4.29883,2.44858 -8.20296,3.69757 -9.82617,0.84777c-0.62691,-1.10063 -0.8756,-8.42032 6.22191,-12.46299z" data-paper-data="{&quot;index&quot;:null}" fill="#ffe819" stroke-linecap="butt"/></g></g></svg>