<svg version="1.1" xmlns="http://www.w3.org/2000/svg" xmlns:xlink="http://www.w3.org/1999/xlink" width="62.4589" height="85.23321" viewBox="0,0,62.4589,85.23321"><g transform="translate(-209.64008,-139.47985)"><g data-paper-data="{&quot;isPaintingLayer&quot;:true}" fill-rule="nonzero" stroke="#000000" stroke-width="2" stroke-linejoin="miter" stroke-miterlimit="10" stroke-dasharray="" stroke-dashoffset="0" style="mix-blend-mode: normal"><path d="M227.14026,183.86633c0,-2.11232 1.71238,-3.8247 3.8247,-3.8247c2.11232,0 3.8247,1.71238 3.8247,3.8247c0,2.11232 -1.71238,3.8247 -3.8247,3.8247c-2.11232,0 -3.8247,-1.71238 -3.8247,-3.8247z" fill="#ffe819" stroke-linecap="butt"/><path d="M235.88832,204.47892l3.67,-25.3003l7.76939,1.12701l-3.67,25.3003z" fill="#ffe819" stroke-linecap="butt"/><path d="M242.3653,194.12757c0,-2.11232 1.71238,-3.8247 3.8247,-3.8247c2.11232,0 3.8247,1.71238 3.8247,3.8247c0,2.11232 -1.71238,3.8247 -3.8247,3.8247c-2.11232,0 -3.8247,-1.71238 -3.8247,-3.8247z" fill="#ffe819" stroke-linecap="butt"/><path d="M233.1897,209.24042c0.65251,5.20056 -1.4375,9.74504 -4.66816,10.15039c-3.23065,0.40534 -6.37857,-3.48195 -7.03107,-8.68252c-0.65251,-5.20056 1.61652,-8.31831 4.84717,-8.72365c3.23065,-0.40534 6.19956,2.05522 6.85207,7.25578z" fill="#ffe819" stroke-linecap="butt"/><path d="M237.8845,164.92101c0,-9.17193 7.43532,-16.60724 16.60724,-16.60724c9.17193,0 16.60724,7.43532 16.60724,16.60724c0,9.17193 -7.43532,16.60724 -16.60724,16.60724c-9.17193,0 -16.60724,-7.43532 -16.60724,-16.60724z" fill="#ffe819" stroke-linecap="butt"/><path d="M220.77588,145.76734c0,0 3.03243,-0.42979 5.05783,-0.20877c1.60455,0.1751 6.12877,1.42948 6.12877,1.42948" fill="none" stroke-linecap="round"/><path d="M210.64008,144.54356c0.80671,-2.71776 3.66386,-4.26697 6.38162,-3.46026c2.71776,0.80671 4.26697,3.66386 3.46026,6.38162c-0.80671,2.71776 -3.66386,4.26697 -6.38162,3.46026c-2.71776,-0.80671 -4.26697,-3.66386 -3.46026,-6.38162z" fill="#ffe819" stroke-linecap="butt"/><path d="M233.35555,164.87393l4.89612,-10.31864l-11.83628,-10.78399c0,0 13.8605,-2.59686 24.45539,-3.29145c10.59489,-0.69459 18.66148,9.6863 18.66148,9.6863z" data-paper-data="{&quot;index&quot;:null}" fill="#fff067" stroke-linecap="butt"/><path d="M259.08352,211.64781c4.92684,-0.4492 6.55616,2.07196 6.85394,5.33808c0.29778,3.26612 -3.45481,6.27797 -8.38167,6.72716c-4.92685,0.4492 -8.99775,-0.03014 -9.29554,-3.29625c-0.11499,-1.26143 2.68892,-8.02735 10.82326,-8.76899z" data-paper-data="{&quot;index&quot;:null}" fill="#ffe819" stroke-linecap="butt"/></g></g></svg>