<svg version="1.1" xmlns="http://www.w3.org/2000/svg" xmlns:xlink="http://www.w3.org/1999/xlink" width="108.2375" height="82.79572" viewBox="0,0,108.2375,82.79572"><g transform="translate(-185.0602,-138.028)"><g data-paper-data="{&quot;isPaintingLayer&quot;:true}" fill-rule="nonzero" stroke="#000000" stroke-width="2" stroke-linejoin="miter" stroke-miterlimit="10" stroke-dasharray="" stroke-dashoffset="0" style="mix-blend-mode: normal"><path d="M246.01344,197.22171c4.51147,2.03032 4.69127,5.02676 3.34532,8.01751c-1.34594,2.99075 -6.09432,3.76934 -10.6058,1.73901c-4.51147,-2.03032 -7.82115,-4.4486 -6.47521,-7.43936c0.51983,-1.15508 6.28713,-5.66928 13.73568,-2.31717z" data-paper-data="{&quot;index&quot;:null}" fill="#181818" stroke-linecap="butt"/><path d="M186.0602,191.96068c0,-2.11232 1.71238,-3.8247 3.8247,-3.8247c2.11232,0 3.8247,1.71238 3.8247,3.8247c0,2.11232 -1.71238,3.8247 -3.8247,3.8247c-2.11232,0 -3.8247,-1.71238 -3.8247,-3.8247z" fill="#181818" stroke-linecap="butt"/><path d="M202.73239,145.27581c0,0 3.00193,-0.60728 5.03682,-0.5057c1.61207,0.08048 6.2022,1.06677 6.2022,1.06677" fill="#181818" stroke-linecap="round"/><path d="M192.16922,144.67743c0.64558,-2.76047 3.40672,-4.47496 6.1672,-3.82937c2.76047,0.64558 4.47496,3.40672 3.82937,6.1672c-0.64558,2.76047 -3.40672,4.47496 -6.1672,3.82937c-2.76047,-0.64558 -4.47496,-3.40672 -3.82937,-6.1672z" fill="#181818" stroke-linecap="butt"/><path d="M212.28133,158.77832c0,-9.17193 7.43532,-16.60724 16.60724,-16.60724c9.17193,0 16.60724,7.43532 16.60724,16.60724c0,9.17193 -7.43532,16.60724 -16.60724,16.60724c-9.17193,0 -16.60724,-7.43532 -16.60724,-16.60724z" fill="#181818" stroke-linecap="butt"/><path d="M242.25208,203.54723l-16.11141,-19.84934l6.09547,-4.94759l16.11141,19.84934z" fill="#181818" stroke-linecap="butt"/><path d="M228.00019,169.32092v-5.24474h18.24518v5.24474z" fill="#ff0000" stroke-linecap="butt"/><path d="M220.30412,182.75159l13.69246,-7.51859l0.87202,6.291l8.17124,2.02401l-14.57274,10.46203l-1.28233,-7.50844z" fill="#0e0e0e" stroke-linecap="round"/><g><g><path d="M212.16933,158.08901l2.31817,-15.2288c0,0 11.30268,4.14976 16.99775,5.01668c5.98033,0.91034 18.07028,0.32147 18.07028,0.32147l-2.31817,15.2288c0,0 -12.15025,-0.11438 -17.96702,-0.99982c-5.87205,-0.89386 -17.10101,-4.33833 -17.10101,-4.33833z" fill="#343434" stroke-linecap="butt"/><path d="M260.11607,164.34649c0,0 -19.87514,0.09785 -29.87524,-1.42439c-10.16895,-1.54794 -30.6404,-7.78747 -30.6404,-7.78747" fill="none" stroke-linecap="round"/></g><path d="M250.13261,146.75027c-0.35643,2.34151 -8.57743,3.03224 -18.36212,1.54279c-9.78469,-1.48945 -17.42779,-4.59506 -17.07136,-6.93657c0.35643,-2.34151 8.57743,-3.03224 18.36211,-1.54279c9.78469,1.48945 17.4278,4.59506 17.07137,6.93657z" fill="#252525" stroke-linecap="butt"/></g><path d="M243.17609,163.84219c0,-2.11232 1.71238,-3.8247 3.8247,-3.8247c2.11232,0 3.8247,1.71238 3.8247,3.8247c0,2.11232 -1.71238,3.8247 -3.8247,3.8247c-2.11232,0 -3.8247,-1.71238 -3.8247,-3.8247z" fill="#181818" stroke-linecap="butt"/><path d="M282.23484,205.19978c3.36388,-3.62766 6.26101,-2.84183 8.66587,-0.61184c2.40486,2.22999 1.62742,6.97855 -1.73647,10.60621c-3.36388,3.62766 -6.71191,5.99256 -9.11676,3.76257c-0.9288,-0.86126 -3.36648,-7.76759 2.18736,-13.75695z" data-paper-data="{&quot;index&quot;:null}" fill="#181818" stroke-linecap="butt"/></g></g></svg>