<svg version="1.1" xmlns="http://www.w3.org/2000/svg" xmlns:xlink="http://www.w3.org/1999/xlink" width="118.59963" height="101.45286" viewBox="0,0,118.59963,101.45286"><defs><radialGradient cx="264.72477" cy="151.06042" r="18.84183" gradientUnits="userSpaceOnUse" id="color-1"><stop offset="0" stop-color="#ffffff"/><stop offset="1" stop-color="#0debff"/></radialGradient></defs><g transform="translate(-213.68525,-127.07116)"><g data-paper-data="{&quot;isPaintingLayer&quot;:true}" fill-rule="nonzero" stroke-linejoin="miter" stroke-miterlimit="10" stroke-dasharray="" stroke-dashoffset="0" style="mix-blend-mode: normal"><g fill="#76f4ff" stroke="#53acb4" stroke-width="1" stroke-linecap="butt"><path d="M331.96761,127.51169l-61.30985,50.3358l-33.65879,13.25887l25.07771,-26.07337z" data-paper-data="{&quot;index&quot;:null}"/><path d="M220.5139,195.16426l22.13339,-11.44095l3.12571,4.66775l-19.32026,15.64193z"/><path d="M262.38562,197.92265l-15.97811,-3.4824l-9.4192,-13.97763l3.21942,-15.65916l8.00673,18.62357z"/></g><path d="M219.75146,199.07427c0.21698,-2.10115 2.0962,-3.62858 4.19735,-3.41159c2.10115,0.21698 3.62857,2.0962 3.41158,4.19735c-0.21698,2.10115 -2.09619,3.62858 -4.19734,3.41159c-2.10115,-0.21698 -3.62858,-2.0962 -3.41159,-4.19735z" fill="#0debff" stroke="#000000" stroke-width="2" stroke-linecap="butt"/><path d="M236.95828,207.2749l16.63843,-19.4097l5.96046,5.10943l-16.63843,19.4097z" data-paper-data="{&quot;index&quot;:null}" fill="#0debff" stroke="#000000" stroke-width="2" stroke-linecap="butt"/><path d="M222.13335,215.61449c4.11347,0 7.4481,2.47844 7.4481,5.53575c0,3.05731 -3.33463,5.53575 -7.4481,5.53575c-4.11347,0 -7.4481,-2.47844 -7.4481,-5.53575c0,-3.05731 3.33463,-5.53575 7.4481,-5.53575z" data-paper-data="{&quot;index&quot;:null}" fill="#0debff" stroke="#000000" stroke-width="2" stroke-linecap="butt"/><path d="M270.35277,215.68504c4.94675,0.0717 6.30176,2.75029 6.25423,6.02961c-0.04753,3.27932 -4.0962,5.87962 -9.04297,5.80793c-4.94675,-0.0717 -8.94464,-0.9767 -8.89711,-4.25602c0.01835,-1.26653 3.51862,-7.69987 11.68585,-7.5815z" data-paper-data="{&quot;index&quot;:null}" fill="#0debff" stroke="#000000" stroke-width="2" stroke-linecap="butt"/><path d="M261.78848,166.07208c5.52515,-7.32099 15.93901,-8.7768 23.26,-3.25166c7.32099,5.52515 8.7768,15.93901 3.25166,23.26c-5.52515,7.32099 -15.93901,8.7768 -23.26,3.25166c-7.32099,-5.52515 -8.7768,-15.93901 -3.25166,-23.26z" fill="#0debff" stroke="#000000" stroke-width="2" stroke-linecap="butt"/><path d="M251.70682,162.3144c0,0 2.79609,-1.24989 4.80384,-1.59635c1.59057,-0.27447 6.28527,-0.31722 6.28527,-0.31722" fill="none" stroke="#000000" stroke-width="2" stroke-linecap="round"/><path d="M241.62687,163.93505c0.02544,-2.83485 2.34415,-5.11232 5.179,-5.08688c2.83485,0.02544 5.11232,2.34415 5.08688,5.179c-0.02544,2.83485 -2.34415,5.11232 -5.179,5.08688c-2.83485,-0.02544 -5.11232,-2.34415 -5.08688,-5.179z" fill="#0debff" stroke="#000000" stroke-width="2" stroke-linecap="butt"/><path d="M256.95357,169.23023l5.01731,-20.19287l29.96818,1.74909l2.63414,20.63945z" fill="url(#color-1)" stroke="#000000" stroke-width="2" stroke-linecap="butt"/><path d="M302.94872,195.0308c0.55294,-2.03867 2.65385,-3.2431 4.69252,-2.69016c2.03867,0.55294 3.24309,2.65385 2.69015,4.69252c-0.55294,2.03867 -2.65384,3.2431 -4.69251,2.69016c-2.03867,-0.55294 -3.2431,-2.65385 -2.69016,-4.69252z" fill="#0debff" stroke="#000000" stroke-width="2" stroke-linecap="butt"/></g></g></svg>