<svg version="1.1" xmlns="http://www.w3.org/2000/svg" xmlns:xlink="http://www.w3.org/1999/xlink" width="126.91586" height="85.56475" viewBox="0,0,126.91586,85.56475"><g transform="translate(-189.66824,-141.67042)"><g data-paper-data="{&quot;isPaintingLayer&quot;:true}" fill-rule="nonzero" stroke="#000000" stroke-width="2" stroke-linejoin="miter" stroke-miterlimit="10" stroke-dasharray="" stroke-dashoffset="0" style="mix-blend-mode: normal"><path d="M308.04648,182.54178c0.50894,-2.05009 2.58346,-3.29944 4.63355,-2.7905c2.05009,0.50894 3.29944,2.58346 2.7905,4.63355c-0.50894,2.05009 -2.58346,3.29944 -4.63355,2.7905c-2.05009,-0.50894 -3.29944,-2.58346 -2.7905,-4.63355z" fill="#181818" stroke-linecap="butt"/><path d="M224.05697,191.6033c0.6399,-2.01306 2.79057,-3.12623 4.80363,-2.48633c2.01306,0.6399 3.12623,2.79057 2.48633,4.80363c-0.6399,2.01306 -2.79057,3.12623 -4.80363,2.48633c-2.01306,-0.6399 -3.12623,-2.79057 -2.48633,-4.80363z" fill="#181818" stroke-linecap="butt"/><path d="M226.0393,148.31161c0,0 3.00193,-0.60728 5.03682,-0.5057c1.61207,0.08048 6.2022,1.06677 6.2022,1.06677" fill="#181818" stroke-linecap="round"/><path d="M215.47613,147.71323c0.64558,-2.76047 3.40672,-4.47496 6.1672,-3.82937c2.76047,0.64558 4.47496,3.40672 3.82937,6.1672c-0.64558,2.76047 -3.40672,4.47496 -6.1672,3.82937c-2.76047,-0.64558 -4.47496,-3.40672 -3.82937,-6.1672z" fill="#181818" stroke-linecap="butt"/><path d="M235.58824,161.81412c0,-9.17193 7.43532,-16.60724 16.60724,-16.60724c9.17193,0 16.60724,7.43532 16.60724,16.60724c0,9.17193 -7.43532,16.60724 -16.60724,16.60724c-9.17193,0 -16.60724,-7.43532 -16.60724,-16.60724z" fill="#181818" stroke-linecap="butt"/><path d="M223.04507,202.36866l13.09426,-21.9571l6.74273,4.02107l-13.09426,21.9571z" fill="#181818" stroke-linecap="butt"/><path d="M238.99129,207.83624c1.11066,4.82099 -1.16727,6.77597 -4.36322,7.51227c-3.19594,0.73629 -6.68715,-2.57501 -7.79782,-7.39603c-1.11066,-4.82099 -1.18568,-8.91934 2.01026,-9.65563c1.23432,-0.28436 8.31702,1.57981 10.15077,9.5394z" data-paper-data="{&quot;index&quot;:null}" fill="#181818" stroke-linecap="butt"/><path d="M235.13985,177.91067l12.23286,7.64674l-5.38289,1.71214l1.37395,5.74162l-15.25848,-7.69313l6.32951,-2.20238z" fill="#0e0e0e" stroke-linecap="round"/><g><path d="M237.47574,154.73333v-12.06291h29.6328v12.06291z" fill="#343434" stroke-linecap="butt"/><path d="M226.72402,154.73333h51.13626" fill="none" stroke-linecap="round"/></g><path d="M201.30686,222.6901c-2.50145,4.26828 -5.49992,4.12639 -8.32947,2.46812c-2.82955,-1.65827 -3.0955,-6.4627 -0.59405,-10.73099c2.50145,-4.26828 5.26003,-7.30017 8.08957,-5.64191c1.09283,0.64044 4.96391,6.85773 0.83395,13.90477z" data-paper-data="{&quot;index&quot;:null}" fill="#181818" stroke-linecap="butt"/><path d="M243.33841,166.72725v-5.24474h26.11747v5.24474z" fill="#ff0000" stroke-linecap="butt"/></g></g></svg>