<svg version="1.1" xmlns="http://www.w3.org/2000/svg" xmlns:xlink="http://www.w3.org/1999/xlink" width="105.57376" height="81.05266" viewBox="0,0,105.57376,81.05266"><g transform="translate(-214.0421,-145.76531)"><g data-paper-data="{&quot;isPaintingLayer&quot;:true}" fill-rule="nonzero" stroke="#000000" stroke-width="2" stroke-linejoin="miter" stroke-miterlimit="10" stroke-dasharray="" stroke-dashoffset="0" style="mix-blend-mode: normal"><path d="M300.38435,179.26705c-10.52353,-6.29808 -46.47473,-8.49671 -46.47473,-8.49671c0,0 38.88353,-11.01932 56.24381,1.92269c10.17031,7.9294 11.55022,21.22322 2.08166,28.47081c-12.32667,11.23064 -50.91685,2.58599 -51.96569,2.15781c-0.99648,-0.4068 36.82147,-4.9227 41.82185,-8.89331c4.34201,-4.13025 3.33125,-12.14607 -1.70692,-15.16129z" data-paper-data="{&quot;index&quot;:null}" fill="#181818" stroke-linecap="butt"/><path d="M221.51586,192.23257c0,-2.11232 1.71238,-3.8247 3.8247,-3.8247c2.11232,0 3.8247,1.71238 3.8247,3.8247c0,2.11232 -1.71238,3.8247 -3.8247,3.8247c-2.11232,0 -3.8247,-1.71238 -3.8247,-3.8247z" fill="#181818" stroke-linecap="butt"/><path d="M238.15806,153.01312c0,0 3.00193,-0.60728 5.03682,-0.5057c1.61207,0.08048 6.2022,1.06677 6.2022,1.06677" fill="#181818" stroke-linecap="round"/><path d="M227.59489,152.41474c0.64558,-2.76047 3.40672,-4.47496 6.1672,-3.82937c2.76047,0.64558 4.47496,3.40672 3.82937,6.1672c-0.64558,2.76047 -3.40672,4.47496 -6.1672,3.82937c-2.76047,-0.64558 -4.47496,-3.40672 -3.82937,-6.1672z" fill="#181818" stroke-linecap="butt"/><path d="M247.707,166.51563c0,-9.17193 7.43532,-16.60724 16.60724,-16.60724c9.17193,0 16.60724,7.43532 16.60724,16.60724c0,9.17193 -7.43532,16.60724 -16.60724,16.60724c-9.17193,0 -16.60724,-7.43532 -16.60724,-16.60724z" fill="#181818" stroke-linecap="butt"/><path d="M239.45726,206.18388l9.08437,-23.89661l7.33832,2.7897l-9.08437,23.89661z" fill="#181818" stroke-linecap="butt"/><path d="M222.4902,214.34387c4.11347,0 7.4481,2.47844 7.4481,5.53575c0,3.05731 -3.33463,5.53575 -7.4481,5.53575c-4.11347,0 -7.4481,-2.47844 -7.4481,-5.53575c0,-3.05731 3.33463,-5.53575 7.4481,-5.53575z" data-paper-data="{&quot;index&quot;:null}" fill="#181818" stroke-linecap="butt"/><path d="M263.24144,213.94127c4.94728,0 6.34095,2.65869 6.34095,5.93835c0,3.27966 -4.01056,5.93835 -8.95785,5.93835c-4.94728,0 -8.95785,-0.84699 -8.95785,-4.12665c0,-1.26666 3.40667,-7.75005 11.57475,-7.75005z" data-paper-data="{&quot;index&quot;:null}" fill="#181818" stroke-linecap="butt"/><path d="M263.42586,177.92193v-5.24474h18.24518v5.24474z" fill="#ff0000" stroke-linecap="butt"/><path d="M245.97164,177.69463l13.37443,8.07077l-5.00399,3.91117l2.34969,8.08361l-16.36218,-7.35514l5.85115,-4.877z" fill="#0e0e0e" stroke-linecap="round"/><g><g><path d="M247.595,165.82632l2.31817,-15.2288c0,0 11.30268,4.14976 16.99775,5.01668c5.98033,0.91034 18.07028,0.32147 18.07028,0.32147l-2.31817,15.2288c0,0 -12.15025,-0.11438 -17.96702,-0.99982c-5.87205,-0.89386 -17.10101,-4.33833 -17.10101,-4.33833z" fill="#343434" stroke-linecap="butt"/><path d="M295.54174,172.0838c0,0 -19.87514,0.09785 -29.87524,-1.42439c-10.16895,-1.54794 -30.6404,-7.78747 -30.6404,-7.78747" fill="none" stroke-linecap="round"/></g><path d="M285.55828,154.48758c-0.35643,2.34151 -8.57743,3.03224 -18.36212,1.54279c-9.78469,-1.48945 -17.42779,-4.59506 -17.07136,-6.93657c0.35643,-2.34151 8.57743,-3.03224 18.36211,-1.54279c9.78469,1.48945 17.4278,4.59506 17.07137,6.93657z" fill="#252525" stroke-linecap="butt"/></g></g></g></svg>