<svg version="1.1" xmlns="http://www.w3.org/2000/svg" xmlns:xlink="http://www.w3.org/1999/xlink" width="86.43102" height="117.08002" viewBox="0,0,86.43102,117.08002"><defs><radialGradient cx="259.81538" cy="184.03946" r="25.33378" gradientUnits="userSpaceOnUse" id="color-1"><stop offset="0" stop-color="#ffaa40"/><stop offset="1" stop-color="#ffaa40" stop-opacity="0"/></radialGradient><radialGradient cx="259.81538" cy="184.03946" r="25.33378" gradientUnits="userSpaceOnUse" id="color-2"><stop offset="0" stop-color="#ff0000"/><stop offset="1" stop-color="#ffffff"/></radialGradient></defs><g transform="translate(-184.67738,-110.00949)"><g data-paper-data="{&quot;isPaintingLayer&quot;:true}" fill-rule="nonzero" stroke-linejoin="miter" stroke-miterlimit="10" stroke-dasharray="" stroke-dashoffset="0" style="mix-blend-mode: normal"><path d="M245.08255,166.81965c0,-2.11232 1.71238,-3.8247 3.8247,-3.8247c2.11232,0 3.8247,1.71238 3.8247,3.8247c0,2.11232 -1.71238,3.8247 -3.8247,3.8247c-2.11232,0 -3.8247,-1.71238 -3.8247,-3.8247z" fill="#ff6b00" stroke="#000000" stroke-width="2" stroke-linecap="butt"/><path d="M213.4346,164.52803c0,-9.17193 7.43532,-16.60724 16.60724,-16.60724c9.17193,0 16.60724,7.43532 16.60724,16.60724c0,9.17193 -7.43532,16.60724 -16.60724,16.60724c-9.17193,0 -16.60724,-7.43532 -16.60724,-16.60724z" fill="#ff6b00" stroke="#000000" stroke-width="2" stroke-linecap="butt"/><path d="M228.84705,208.2202l-2.13149,-25.47608l7.82337,-0.65455l2.13149,25.47608z" fill="#ff6b00" stroke="#000000" stroke-width="2" stroke-linecap="butt"/><path d="M203.35237,192.54834c0,-2.11232 1.71238,-3.8247 3.8247,-3.8247c2.11232,0 3.8247,1.71238 3.8247,3.8247c0,2.11232 -1.71238,3.8247 -3.8247,3.8247c-2.11232,0 -3.8247,-1.71238 -3.8247,-3.8247z" fill="#ff6b00" stroke="#000000" stroke-width="2" stroke-linecap="butt"/><path d="M222.81413,215.01801c4.11347,0 7.4481,2.47844 7.4481,5.53575c0,3.05731 -3.33463,5.53575 -7.4481,5.53575c-4.11347,0 -7.4481,-2.47844 -7.4481,-5.53575c0,-3.05731 3.33463,-5.53575 7.4481,-5.53575z" data-paper-data="{&quot;index&quot;:null}" fill="#ff6b00" stroke="#000000" stroke-width="2" stroke-linecap="butt"/><path d="M204.49686,156.34524c0,0 1.85948,-2.43366 3.45789,-3.69705c1.26628,-1.00088 5.37038,-3.28089 5.37038,-3.28089" fill="none" stroke="#000000" stroke-width="2" stroke-linecap="round"/><path d="M196.41527,162.58381c-1.33173,-2.5027 -0.38248,-5.61111 2.12022,-6.94284c2.5027,-1.33173 5.61111,-0.38248 6.94284,2.12022c1.33173,2.5027 0.38248,5.61111 -2.12022,6.94284c-2.5027,1.33173 -5.61111,0.38248 -6.94284,-2.12022z" fill="#ff6b00" stroke="#000000" stroke-width="2" stroke-linecap="butt"/><path d="M254.56185,211.5285c4.52935,-1.99011 6.87479,-0.11664 8.19408,2.88597c1.31929,3.00261 -1.28298,7.05 -5.81234,9.04013c-4.52935,1.99011 -8.54183,2.82799 -9.86112,-0.17462c-0.50953,-1.15965 0.00132,-8.46573 7.47939,-11.75146z" data-paper-data="{&quot;index&quot;:null}" fill="#ff6b00" stroke="#000000" stroke-width="2" stroke-linecap="butt"/><path d="M208.8738,167.88373l4.22817,-12.18351l-26.62972,-21.39582l41.5955,-22.71252l4.14025,33.37304l12.53391,2.91357z" data-paper-data="{&quot;index&quot;:null}" fill="#ffa340" stroke="#000000" stroke-width="2" stroke-linecap="butt"/><path d="M269.85841,184.03946c0,13.99146 -4.49642,25.33378 -10.04303,25.33378c-5.54661,0 -10.04303,-11.34232 -10.04303,-25.33378c0,-13.99146 4.49642,-25.33378 10.04303,-25.33378c5.54661,0 10.04303,11.34232 10.04303,25.33378z" fill="url(#color-1)" stroke="url(#color-2)" stroke-width="2.5" stroke-linecap="butt"/></g></g></svg>