<svg version="1.1" xmlns="http://www.w3.org/2000/svg" xmlns:xlink="http://www.w3.org/1999/xlink" width="118.25554" height="85.68105" viewBox="0,0,118.25554,85.68105"><g transform="translate(-203.85141,-124.51219)"><g data-paper-data="{&quot;isPaintingLayer&quot;:true}" fill-rule="nonzero" stroke="#000000" stroke-width="2" stroke-linejoin="miter" stroke-miterlimit="10" stroke-dasharray="" stroke-dashoffset="0" style="mix-blend-mode: normal"><path d="M204.85141,178.16456c0,-2.11232 1.71238,-3.8247 3.8247,-3.8247c2.11232,0 3.8247,1.71238 3.8247,3.8247c0,2.11232 -1.71238,3.8247 -3.8247,3.8247c-2.11232,0 -3.8247,-1.71238 -3.8247,-3.8247z" fill="#ffe819" stroke-linecap="butt"/><path d="M240.34209,202.71415l-8.70977,-24.03568l7.38104,-2.67466l8.70977,24.03568z" data-paper-data="{&quot;index&quot;:null}" fill="#ffe819" stroke-linecap="butt"/><path d="M265.80372,172.2175c0,-2.11232 1.71238,-3.8247 3.8247,-3.8247c2.11232,0 3.8247,1.71238 3.8247,3.8247c0,2.11232 -1.71238,3.8247 -3.8247,3.8247c-2.11232,0 -3.8247,-1.71238 -3.8247,-3.8247z" data-paper-data="{&quot;index&quot;:null}" fill="#ffe819" stroke-linecap="butt"/><path d="M244.99699,205.38914c-3.67147,3.74058 -8.5315,4.924 -10.8552,2.64323c-2.32369,-2.28076 -1.23111,-7.16202 2.44036,-10.90261c3.67147,-3.74058 7.52426,-3.8978 9.84796,-1.61704c2.32369,2.28076 2.23835,6.13582 -1.43312,9.8764z" fill="#ffe819" stroke-linecap="butt"/><path d="M240.23458,181.03193c-7.71379,4.96201 -17.98956,2.73126 -22.95158,-4.98254c-4.96201,-7.71379 -2.73126,-17.98956 4.98254,-22.95158c7.71379,-4.96201 17.98956,-2.73126 22.95158,4.98254c4.96201,7.71379 2.73126,17.98956 -4.98254,22.95158z" data-paper-data="{&quot;index&quot;:null}" fill="#ffe819" stroke-linecap="butt"/><path d="M240.49594,140.34603c0,0 3.12635,-3.50256 4.38108,-4.51789c1.58383,-1.28163 4.36669,-2.56071 4.36669,-2.56071" data-paper-data="{&quot;index&quot;:null}" fill="none" stroke-linecap="round"/><path d="M257.64838,133.99382c-1.84927,2.14877 -5.09032,2.39157 -7.23909,0.5423c-2.14877,-1.84927 -2.39157,-5.09032 -0.5423,-7.23909c1.84927,-2.14877 5.09032,-2.39157 7.23909,-0.5423c2.14877,1.84927 2.39157,5.09032 0.5423,7.23909z" data-paper-data="{&quot;index&quot;:null}" fill="#ffe819" stroke-linecap="butt"/><path d="M210.61827,162.24112c0,0 1.16812,-13.09459 10.45443,-18.24226c9.28631,-5.14767 25.92289,-4.61271 25.92289,-4.61271l-7.69512,9.62353l9.70013,6.0294z" data-paper-data="{&quot;index&quot;:null}" fill="#fff067" stroke-linecap="butt"/><path d="M309.17174,193.92303c-0.11689,-4.9459 2.50814,-6.40199 5.78688,-6.47948c3.27875,-0.07749 6.03144,3.86914 6.14833,8.81505c0.11689,4.9459 -0.63512,8.97536 -3.91385,9.05285c-1.26631,0.02993 -7.82837,-3.22262 -8.02135,-11.38841z" data-paper-data="{&quot;index&quot;:null}" fill="#ffe819" stroke-linecap="butt"/></g></g></svg>