<svg version="1.1" xmlns="http://www.w3.org/2000/svg" xmlns:xlink="http://www.w3.org/1999/xlink" width="60.67395" height="113.71094" viewBox="0,0,60.67395,113.71094"><g transform="translate(-206.95706,-114.31454)"><g data-paper-data="{&quot;isPaintingLayer&quot;:true}" fill-rule="nonzero" stroke="#000000" stroke-width="2" stroke-linejoin="miter" stroke-miterlimit="10" stroke-dasharray="" stroke-dashoffset="0" style="mix-blend-mode: normal"><path d="M250.02524,199.208c0,-2.11232 1.71238,-3.8247 3.8247,-3.8247c2.11232,0 3.8247,1.71238 3.8247,3.8247c0,2.11232 -1.71238,3.8247 -3.8247,3.8247c-2.11232,0 -3.8247,-1.71238 -3.8247,-3.8247z" fill="#1d28e8" stroke-linecap="butt"/><path d="M225.66093,160.79514c-2.86842,-8.71186 1.86864,-18.09952 10.58049,-20.96793c8.71186,-2.86842 18.09952,1.86864 20.96793,10.58049c2.86842,8.71186 -1.86864,18.09952 -10.58049,20.96793c-8.71186,2.86842 -18.09952,-1.86864 -20.96793,-10.58049z" fill="#1d28e8" stroke-linecap="butt"/><path d="M237.98786,202.35666v-25.56509h7.8507v25.56509z" fill="#1d28e8" stroke-linecap="butt"/><path d="M236.62196,201.17789c0,-2.11232 1.71238,-3.8247 3.8247,-3.8247c2.11232,0 3.8247,1.71238 3.8247,3.8247c0,2.11232 -1.71238,3.8247 -3.8247,3.8247c-2.11232,0 -3.8247,-1.71238 -3.8247,-3.8247z" fill="#1d28e8" stroke-linecap="butt"/><path d="M229.28717,214.68624c4.11347,0 7.4481,2.47844 7.4481,5.53575c0,3.05731 -3.33463,5.53575 -7.4481,5.53575c-4.11347,0 -7.4481,-2.47844 -7.4481,-5.53575c0,-3.05731 3.33463,-5.53575 7.4481,-5.53575z" data-paper-data="{&quot;index&quot;:null}" fill="#1d28e8" stroke-linecap="butt"/><path d="M217.75704,167.19905c0,0 1.61412,-2.60288 3.08215,-4.01567c1.163,-1.11923 5.02603,-3.78738 5.02603,-3.78738" fill="none" stroke-linecap="round"/><path d="M210.32014,174.19365c-1.5687,-2.3614 -0.9261,-5.54736 1.4353,-7.11606c2.3614,-1.5687 5.54736,-0.9261 7.11606,1.4353c1.5687,2.3614 0.9261,5.54736 -1.4353,7.11606c-2.3614,1.5687 -5.54736,0.9261 -7.11606,-1.4353z" fill="#1d28e8" stroke-linecap="butt"/><path d="M257.95199,216.35767c4.2986,2.449 4.19344,5.44898 2.56994,8.29862c-1.62349,2.84964 -6.4243,3.17442 -10.72291,0.72542c-4.2986,-2.449 -7.36404,-5.17024 -5.74055,-8.01988c0.62702,-1.10058 6.79642,-5.04752 13.89352,-1.00416z" data-paper-data="{&quot;index&quot;:null}" fill="#1d28e8" stroke-linecap="butt"/><path d="M225.22044,160.09256l-16.80804,-15.76439l29.7081,-28.33013l12.08036,25.82005l16.84092,-12.22473z" fill="#2530ff" stroke-linecap="round"/></g></g></svg>