<svg version="1.1" xmlns="http://www.w3.org/2000/svg" xmlns:xlink="http://www.w3.org/1999/xlink" width="15.51688" height="2.1577" viewBox="0,0,15.51688,2.1577"><defs><linearGradient x1="242.20357" y1="179.22222" x2="242.20357" y2="180.97849" gradientUnits="userSpaceOnUse" id="color-1"><stop offset="0" stop-color="#ff0000"/><stop offset="1" stop-color="#ff7070"/></linearGradient><linearGradient x1="237.79641" y1="179.25568" x2="237.79641" y2="181.01194" gradientUnits="userSpaceOnUse" id="color-2"><stop offset="0" stop-color="#ff0000"/><stop offset="1" stop-color="#ff7070"/></linearGradient><linearGradient x1="239.89041" y1="178.92115" x2="239.89041" y2="181.07885" gradientUnits="userSpaceOnUse" id="color-3"><stop offset="0" stop-color="#ff0000"/><stop offset="1" stop-color="#ff7070"/></linearGradient></defs><g transform="translate(-232.24156,-178.92115)"><g data-paper-data="{&quot;isPaintingLayer&quot;:true}" fill-rule="nonzero" stroke="none" stroke-width="0" stroke-linecap="butt" stroke-linejoin="miter" stroke-miterlimit="10" stroke-dasharray="" stroke-dashoffset="0" style="mix-blend-mode: normal"><path d="M247.75844,180.10036c0,0.48498 -2.487,0.87813 -5.55486,0.87813c-3.06787,0 -5.55486,-0.39315 -5.55486,-0.87813c0,-0.48498 2.487,-0.87813 5.55486,-0.87813c3.06787,0 5.55486,0.39315 5.55486,0.87813z" fill="url(#color-1)"/><path d="M243.35128,180.13381c0,0.48498 -2.487,0.87813 -5.55486,0.87813c-3.06787,0 -5.55486,-0.39315 -5.55486,-0.87813c0,-0.48498 2.487,-0.87813 5.55486,-0.87813c3.06787,0 5.55486,0.39315 5.55486,0.87813z" fill="url(#color-2)"/><path d="M239.89041,178.92115c3.06787,0 5.55486,0.48302 5.55486,1.07885c0,0.59583 -2.487,1.07885 -5.55486,1.07885c-3.06787,0 -5.55486,-0.48302 -5.55486,-1.07885c0,-0.59583 2.487,-1.07885 5.55486,-1.07885z" fill="url(#color-3)"/></g></g></svg>