<svg version="1.1" xmlns="http://www.w3.org/2000/svg" xmlns:xlink="http://www.w3.org/1999/xlink" width="507" height="389" viewBox="0,0,507,389"><defs><radialGradient cx="237.31941" cy="153.80734" r="35.95262" gradientUnits="userSpaceOnUse" id="color-1"><stop offset="0" stop-color="#ff4545"/><stop offset="1" stop-color="#ff4545" stop-opacity="0"/></radialGradient><radialGradient cx="240.00002" cy="180.00004" r="63.58429" gradientUnits="userSpaceOnUse" id="color-2"><stop offset="0" stop-color="#ff0000"/><stop offset="1" stop-color="#ff0000" stop-opacity="0"/></radialGradient></defs><g transform="translate(11.5,9)"><g data-paper-data="{&quot;isPaintingLayer&quot;:true}" fill-rule="nonzero" stroke-linejoin="miter" stroke-miterlimit="10" stroke-dasharray="" stroke-dashoffset="0" style="mix-blend-mode: normal"><path d="M-11.5,380v-389h507v389z" fill="#0a0711" stroke="none" stroke-width="NaN" stroke-linecap="butt"/><path d="M201.36679,153.80734c0,-19.85608 16.09653,-35.95262 35.95262,-35.95262c19.85608,0 35.95262,16.09653 35.95262,35.95262c0,19.85608 -16.09653,35.95262 -35.95262,35.95262c-19.85608,0 -35.95262,-16.09653 -35.95262,-35.95262z" fill="url(#color-1)" stroke="#000000" stroke-width="0" stroke-linecap="butt"/><path d="M176.41573,180.00004c0,-35.11664 28.46765,-63.58429 63.58429,-63.58429c35.11664,0 63.58429,28.46765 63.58429,63.58429c0,35.11664 -28.46765,63.58429 -63.58429,63.58429c-35.11664,0 -63.58429,-28.46765 -63.58429,-63.58429z" fill="url(#color-2)" stroke="#000000" stroke-width="0" stroke-linecap="butt"/><path d="M205.60338,143.87009c0,0 2.30662,-2.01493 4.12448,-2.93495c1.44014,-0.72886 5.91588,-2.14651 5.91588,-2.14651" fill="#181818" stroke="#000000" stroke-width="2" stroke-linecap="round"/><path d="M196.13157,148.58426c-0.80702,-2.71766 0.74182,-5.57501 3.45949,-6.38203c2.71766,-0.80702 5.575,0.74182 6.38203,3.45949c0.80702,2.71766 -0.74182,5.575 -3.45949,6.38203c-2.71766,0.80702 -5.57501,-0.74182 -6.38203,-3.45949z" fill="#9b9b9b" stroke="#000000" stroke-width="2" stroke-linecap="butt"/><g stroke="#000000" stroke-linecap="butt"><g fill="#343434" stroke-width="2"><path d="M214.66708,144.95486l-1.67745,-11.94571c0,0 1.95123,-5.95867 13.33554,-7.54165c11.47082,-1.595 16.00935,3.42096 16.00935,3.42096l1.67745,11.94571c0,0 -9.68526,-2.01734 -14.47287,-1.34505c-4.98597,0.70014 -14.87202,5.46575 -14.87202,5.46575z"/></g><path d="M253.20524,142.73536c0.48807,3.69034 -9.48255,8.05295 -22.26999,9.74417c-12.78743,1.69122 -23.54937,0.07062 -24.03744,-3.61972c-0.48807,-3.69034 9.48255,-8.05295 22.26999,-9.74417c12.78743,-1.69122 23.54937,-0.07062 24.03744,3.61972z" fill="#343434" stroke-width="2"/><path d="M245.86667,144.75315c0.33739,2.55103 -6.55505,5.5668 -15.39468,6.7359c-8.83963,1.1691 -16.2791,0.04881 -16.61649,-2.50222c-0.33739,-2.55103 6.55505,-5.5668 15.39468,-6.7359c8.83963,-1.1691 16.2791,-0.04881 16.61649,2.50222z" fill="#111111" stroke-width="0.5"/></g><path d="M229.57314,208.58625l-0.39622,-25.56202l7.84976,-0.12167l0.39622,25.56202z" fill="#181818" stroke="#000000" stroke-width="2" stroke-linecap="butt"/><path d="M218.56187,220.82731c3.53926,-2.71571 8.10059,-1.21591 10.18801,3.34992c2.08742,4.56583 0.91048,10.46868 -2.62879,13.1844c-3.53926,2.71571 -8.10059,1.21591 -10.18801,-3.34992c-2.08742,-4.56583 -0.91048,-10.46868 2.62879,-13.1844z" data-paper-data="{&quot;index&quot;:null}" fill="#181818" stroke="#000000" stroke-width="2" stroke-linecap="butt"/><path d="M250.55403,231.03007c0.64953,4.90446 -1.80317,6.63512 -5.05444,7.0657c-3.25127,0.43058 -6.41349,-3.1962 -7.06303,-8.10066c-0.64953,-4.90446 -0.33642,-8.99152 2.91485,-9.4221c1.25569,-0.16631 8.13023,2.35967 9.20262,10.45704z" data-paper-data="{&quot;index&quot;:null}" fill="#181818" stroke="#000000" stroke-width="2" stroke-linecap="butt"/><path d="M227.01247,181.42157l14.426,0.0784l-3.68028,4.28513l4.1859,4.1632l-17.02465,1.47191l4.2281,-5.19964z" fill="#0e0e0e" stroke="#000000" stroke-width="2" stroke-linecap="round"/><path d="M215.76814,159.09245c0.71704,-9.14386 8.71087,-15.97514 17.85472,-15.25811c9.14386,0.71704 15.97514,8.71087 15.25811,17.85472c-0.71704,9.14386 -8.71087,15.97514 -17.85472,15.25811c-9.14386,-0.71704 -15.97514,-8.71087 -15.25811,-17.85472z" fill="#181818" stroke="#000000" stroke-width="2" stroke-linecap="butt"/><path d="M223.52015,165.2413l-0.21851,-6.44642c0,0 6.44178,2.45317 9.34252,2.34166c3.46087,-0.13303 10.04054,-3.08671 10.04054,-3.08671l0.21851,6.44642z" fill="#ff4545" stroke="#000000" stroke-width="2" stroke-linecap="butt"/><path d="M213.9401,206.22766c0,-2.11232 1.71238,-3.8247 3.8247,-3.8247c2.11232,0 3.8247,1.71238 3.8247,3.8247c0,2.11232 -1.71238,3.8247 -3.8247,3.8247c-2.11232,0 -3.8247,-1.71238 -3.8247,-3.8247z" fill="#181818" stroke="#000000" stroke-width="2" stroke-linecap="butt"/><path d="M248.97118,191.00105c0,-25.76849 20.88957,-46.65803 46.65803,-46.65803c25.76849,0 46.65803,20.88957 46.65803,46.65803c0,25.76849 -20.88957,46.65803 -46.65803,46.65803c-25.76849,0 -46.65803,-20.88957 -46.65803,-46.65803z" fill="#181818" stroke="#000000" stroke-width="2" stroke-linecap="butt"/></g></g></svg>