<svg version="1.1" xmlns="http://www.w3.org/2000/svg" xmlns:xlink="http://www.w3.org/1999/xlink" width="78.8668" height="84.81706" viewBox="0,0,78.8668,84.81706"><g transform="translate(-220.08249,-142.26794)"><g data-paper-data="{&quot;isPaintingLayer&quot;:true}" fill-rule="nonzero" stroke="#000000" stroke-width="2" stroke-linejoin="miter" stroke-miterlimit="10" stroke-dasharray="" stroke-dashoffset="0" style="mix-blend-mode: normal"><path d="M285.94771,183.05626c0.60395,-2.07753 3.75764,-3.4522 7.04398,-3.0704c3.28633,0.3818 5.46085,2.37548 4.8569,4.45301c-0.60395,2.07753 -3.75764,3.4522 -7.04398,3.0704c-3.28633,-0.3818 -5.46085,-2.37548 -4.8569,-4.45301z" fill="#2d6a2b" stroke-linecap="butt"/><path d="M239.89614,160.98946c1.6578,-9.02086 10.31457,-14.98981 19.33542,-13.332c9.02086,1.6578 14.9898,10.31456 13.332,19.33541c-1.6578,9.02086 -10.31456,14.98981 -19.33542,13.332c-9.02086,-1.6578 -14.98981,-10.31456 -13.332,-19.33541z" fill="#2d6a2b" stroke-linecap="butt"/><path d="M252.00386,144.52541c15.60169,-2.78018 24.11967,7.55088 24.11967,7.55088l-39.95484,9.14917c0,0 -0.9392,-13.71089 15.83518,-16.70005z" fill="#367e33" stroke-linecap="round"/><path d="M238.49373,204.97726l8.20455,-24.21278l7.43543,2.5195l-8.20454,24.21279z" fill="#2d6a2b" stroke-linecap="butt"/><path d="M224.78953,188.60379c0.3818,-2.07753 2.37548,-3.4522 4.45301,-3.0704c2.07753,0.3818 3.4522,2.37548 3.0704,4.45301c-0.3818,2.07753 -2.37548,3.4522 -4.45301,3.0704c-2.07753,-0.3818 -3.4522,-2.37548 -3.0704,-4.45301z" fill="#2d6a2b" stroke-linecap="butt"/><path d="M255.19247,214.2083c4.94728,0 6.34095,2.65869 6.34095,5.93835c0,3.27966 -4.01057,5.93835 -8.95785,5.93835c-4.94728,0 -8.95785,-0.84699 -8.95785,-4.12665c0,-1.26666 3.40667,-7.75005 11.57475,-7.75005z" data-paper-data="{&quot;index&quot;:null}" fill="#2d6a2b" stroke-linecap="butt"/><path d="M228.53059,214.6109c4.11347,0 7.4481,2.47844 7.4481,5.53575c0,3.05731 -3.33463,5.53575 -7.4481,5.53575c-4.11347,0 -7.4481,-2.47844 -7.4481,-5.53575c0,-3.05731 3.33463,-5.53575 7.4481,-5.53575z" data-paper-data="{&quot;index&quot;:null}" fill="#2d6a2b" stroke-linecap="butt"/><path d="M232.33638,147.61054c0,0 2.96934,-0.75058 5.00675,-0.74673c1.61407,0.00306 6.24623,0.76803 6.24623,0.76803" fill="none" stroke-linecap="round"/><path d="M222.12791,147.47419c0.51241,-2.78827 3.18814,-4.63321 5.9764,-4.1208c2.78827,0.51241 4.63321,3.18814 4.1208,5.9764c-0.51241,2.78827 -3.18814,4.63321 -5.97641,4.1208c-2.78827,-0.51241 -4.63321,-3.18814 -4.1208,-5.97641z" fill="#2d6a2b" stroke-linecap="butt"/></g></g></svg>