<svg version="1.1" xmlns="http://www.w3.org/2000/svg" xmlns:xlink="http://www.w3.org/1999/xlink" width="79.81861" height="92.98107" viewBox="0,0,79.81861,92.98107"><g transform="translate(-186.447,-138.83422)"><g data-paper-data="{&quot;isPaintingLayer&quot;:true}" fill-rule="nonzero" stroke="#000000" stroke-width="2" stroke-linejoin="miter" stroke-miterlimit="10" stroke-dasharray="" stroke-dashoffset="0" style="mix-blend-mode: normal"><path d="M226.3182,157.3438c1.36344,-9.07002 9.82144,-15.31743 18.89145,-13.95399c9.07002,1.36344 15.31743,9.82144 13.95399,18.89145c-1.36344,9.07002 -9.82144,15.31743 -18.89145,13.95399c-9.07002,-1.36344 -15.31743,-9.82144 -13.95399,-18.89145z" fill="#2d6a2b" stroke-linecap="butt"/><path d="M237.88388,140.49455c15.50299,-3.28629 24.35255,6.76219 24.35255,6.76219l-39.63603,10.44419c0,0 -1.38476,-13.67308 15.28348,-17.20638z" fill="#367e33" stroke-linecap="round"/><path d="M234.5685,206.74442l-5.69422,-24.92287l7.65348,-1.74862l5.69422,24.92287z" fill="#2d6a2b" stroke-linecap="butt"/><path d="M187.447,176.30532c0,-2.11232 1.71238,-3.8247 3.8247,-3.8247c2.11232,0 3.8247,1.71238 3.8247,3.8247c0,2.11232 -1.71238,3.8247 -3.8247,3.8247c-2.11232,0 -3.8247,-1.71238 -3.8247,-3.8247z" fill="#2d6a2b" stroke-linecap="butt"/><path d="M251.64754,186.98659c0,-2.11232 1.71238,-3.8247 3.8247,-3.8247c2.11232,0 3.8247,1.71238 3.8247,3.8247c0,2.11232 -1.71238,3.8247 -3.8247,3.8247c-2.11232,0 -3.8247,-1.71238 -3.8247,-3.8247z" fill="#2d6a2b" stroke-linecap="butt"/><path d="M262.00561,212.21849c4.11537,2.74577 3.79909,5.73089 1.97887,8.45906c-1.82024,2.72818 -6.632,2.71389 -10.74737,-0.03188c-4.11537,-2.74577 -6.98146,-5.67624 -5.16122,-8.40441c0.703,-1.05366 7.13516,-4.55611 13.92974,-0.02277z" data-paper-data="{&quot;index&quot;:null}" fill="#2d6a2b" stroke-linecap="butt"/><path d="M218.32718,144.21791c0,0 2.94335,-0.84679 4.97982,-0.90922c1.61332,-0.04945 6.26791,0.56441 6.26791,0.56441" fill="none" stroke-linecap="round"/><path d="M208.11967,144.41375c0.42143,-2.80346 3.03572,-4.73448 5.83918,-4.31305c2.80346,0.42143 4.73448,3.03572 4.31305,5.83918c-0.42143,2.80346 -3.03572,4.73448 -5.83918,4.31305c-2.80346,-0.42143 -4.73448,-3.03572 -4.31305,-5.83918z" fill="#2d6a2b" stroke-linecap="butt"/><path d="M235.12873,225.18746c-0.61995,4.90828 -3.43233,5.9578 -6.68613,5.54683c-3.25381,-0.41098 -5.38897,-4.7231 -4.76902,-9.63138c0.61995,-4.90828 1.96283,-8.7811 5.21664,-8.37012c1.25668,0.15872 7.26207,4.35098 6.23852,12.45468z" data-paper-data="{&quot;index&quot;:null}" fill="#2d6a2b" stroke-linecap="butt"/></g></g></svg>