<svg version="1.1" xmlns="http://www.w3.org/2000/svg" xmlns:xlink="http://www.w3.org/1999/xlink" width="172.02597" height="103.73681" viewBox="0,0,172.02597,103.73681"><defs><radialGradient cx="245.02634" cy="142.28111" r="18.84183" gradientUnits="userSpaceOnUse" id="color-1"><stop offset="0" stop-color="#ffffff"/><stop offset="1" stop-color="#0debff"/></radialGradient></defs><g transform="translate(-206.63644,-122.89348)"><g data-paper-data="{&quot;isPaintingLayer&quot;:true}" fill-rule="nonzero" stroke-linejoin="miter" stroke-miterlimit="10" stroke-dasharray="" stroke-dashoffset="0" style="mix-blend-mode: normal"><g fill="#76f4ff" stroke="#53acb4" stroke-width="1" stroke-linecap="butt"><path d="M378.33111,123.32499l-59.41262,52.5617l-33.14715,14.49064l24.09951,-26.9801z" data-paper-data="{&quot;index&quot;:null}"/><path d="M269.44705,195.04017l21.69659,-12.2491l3.29565,4.54935l-18.73051,16.34351z"/><path d="M311.39198,196.25314l-16.09563,-2.89102l-9.92806,-13.6209l2.63998,-15.7672l8.68782,18.31575z"/></g><path d="M268.82929,198.97563c0.13938,-2.10772 1.96101,-3.70338 4.06873,-3.564c2.10772,0.13938 3.70338,1.96101 3.564,4.06873c-0.13938,2.10772 -1.96101,3.70338 -4.06873,3.564c-2.10772,-0.13938 -3.70338,-1.96101 -3.564,-4.06873z" fill="#0debff" stroke="#000000" stroke-width="2" stroke-linecap="butt"/><path d="M234.37752,205.04462l9.46802,-23.74721l7.29245,2.9075l-9.46802,23.74721z" data-paper-data="{&quot;index&quot;:null}" fill="#0debff" stroke="#000000" stroke-width="2" stroke-linecap="butt"/><path d="M211.59801,183.08896c0,-2.11232 1.71238,-3.8247 3.8247,-3.8247c2.11232,0 3.8247,1.71238 3.8247,3.8247c0,2.11232 -1.71238,3.8247 -3.8247,3.8247c-2.11232,0 -3.8247,-1.71238 -3.8247,-3.8247z" fill="#0debff" stroke="#000000" stroke-width="2" stroke-linecap="butt"/><path d="M259.18259,213.47543c4.7933,-1.22469 6.80174,1.00624 7.61363,4.18382c0.81188,3.17758 -2.4157,6.74634 -7.20901,7.97104c-4.7933,1.22469 -8.88871,1.39689 -9.70058,-1.78069c-0.31356,-1.22724 1.38211,-8.35215 9.29598,-10.37416z" data-paper-data="{&quot;index&quot;:null}" fill="#0debff" stroke="#000000" stroke-width="2" stroke-linecap="butt"/><path d="M245.13047,157.57689c3.96081,-8.27262 13.87796,-11.76803 22.15058,-7.80723c8.27262,3.96081 11.76803,13.87796 7.80723,22.15058c-3.96081,8.27262 -13.87796,11.76803 -22.15058,7.80723c-8.27262,-3.96081 -11.76803,-13.87796 -7.80723,-22.15058z" fill="#0debff" stroke="#000000" stroke-width="2" stroke-linecap="butt"/><path d="M234.50328,155.89672c0,0 2.49209,-1.7804 4.39101,-2.51877c1.50435,-0.58495 6.09701,-1.55941 6.09701,-1.55941" fill="none" stroke="#000000" stroke-width="2" stroke-linecap="round"/><path d="M224.94613,159.48735c-0.53818,-2.78341 1.28193,-5.47609 4.06534,-6.01427c2.78341,-0.53818 5.47609,1.28193 6.01427,4.06534c0.53818,2.78341 -1.28193,5.47609 -4.06534,6.01427c-2.78341,0.53818 -5.47609,-1.28193 -6.01427,-4.06534z" fill="#0debff" stroke="#000000" stroke-width="2" stroke-linecap="butt"/><path d="M241.01924,161.63252l0.90622,-20.78712l29.71843,-4.23864l6.68147,19.70491z" fill="url(#color-1)" stroke="#000000" stroke-width="2" stroke-linecap="butt"/><path d="M215.57195,220.64243c-4.6747,1.61949 -6.86191,-0.43648 -7.93551,-3.53545c-1.0736,-3.09896 1.84567,-6.92403 6.52038,-8.54353c4.6747,-1.61949 8.74156,-2.13204 9.81516,0.96692c0.41465,1.19688 -0.68199,8.43822 -8.40003,11.11205z" data-paper-data="{&quot;index&quot;:null}" fill="#0debff" stroke="#000000" stroke-width="2" stroke-linecap="butt"/></g></g></svg>