<svg version="1.1" xmlns="http://www.w3.org/2000/svg" xmlns:xlink="http://www.w3.org/1999/xlink" width="62.27226" height="77.03024" viewBox="0,0,62.27226,77.03024"><g transform="translate(-204.16113,-148.75073)"><g data-paper-data="{&quot;isPaintingLayer&quot;:true}" fill-rule="nonzero" stroke="#000000" stroke-width="2" stroke-linejoin="miter" stroke-miterlimit="10" stroke-dasharray="" stroke-dashoffset="0" style="mix-blend-mode: normal"><path d="M233.88069,201.27875c0,-2.11232 1.71238,-3.8247 3.8247,-3.8247c2.11232,0 3.8247,1.71238 3.8247,3.8247c0,2.11232 -1.71238,3.8247 -3.8247,3.8247c-2.11232,0 -3.8247,-1.71238 -3.8247,-3.8247z" fill="#ffe819" stroke-linecap="butt"/><path d="M237.68266,209.48858v-25.56509h7.8507v25.56509z" fill="#ffe819" stroke-linecap="butt"/><path d="M224.19539,198.90543c0,-2.11232 1.71238,-3.8247 3.8247,-3.8247c2.11232,0 3.8247,1.71238 3.8247,3.8247c0,2.11232 -1.71238,3.8247 -3.8247,3.8247c-2.11232,0 -3.8247,-1.71238 -3.8247,-3.8247z" fill="#ffe819" stroke-linecap="butt"/><path d="M226.69726,213.59445c4.11347,0 7.4481,2.47844 7.4481,5.53575c0,3.05731 -3.33463,5.53575 -7.4481,5.53575c-4.11347,0 -7.4481,-2.47844 -7.4481,-5.53575c0,-3.05731 3.33463,-5.53575 7.4481,-5.53575z" data-paper-data="{&quot;index&quot;:null}" fill="#ffe819" stroke-linecap="butt"/><path d="M259.09245,212.90426c4.94728,0 6.34095,2.65869 6.34095,5.93835c0,3.27966 -4.01056,5.93835 -8.95785,5.93835c-4.94728,0 -8.95785,-0.84699 -8.95785,-4.12665c0,-1.26666 3.40667,-7.75005 11.57475,-7.75005z" data-paper-data="{&quot;index&quot;:null}" fill="#ffe819" stroke-linecap="butt"/><path d="M228.57279,178.34833c-2.9807,-8.67408 1.63471,-18.12214 10.30879,-21.10284c8.67408,-2.9807 18.12214,1.63471 21.10284,10.30879c2.9807,8.67408 -1.63471,18.12214 -10.30879,21.10284c-8.67408,2.9807 -18.12214,-1.63471 -21.10284,-10.30879z" fill="#ffe819" stroke-linecap="butt"/><path d="M212.8959,178.23512c0,0 1.26647,-2.78862 2.54091,-4.37824c1.00963,-1.25931 4.49801,-4.40149 4.49801,-4.40149" fill="none" stroke-linecap="round"/><path d="M206.41887,186.1269c-1.85897,-2.14038 -1.63086,-5.38249 0.50952,-7.24147c2.14038,-1.85897 5.38249,-1.63086 7.24147,0.50952c1.85897,2.14038 1.63086,5.38249 -0.50952,7.24147c-2.14038,1.85897 -5.38249,1.63086 -7.24147,-0.50952z" fill="#ffe819" stroke-linecap="butt"/><path d="M224.27437,179.77562l1.27701,-11.34969l-11.43574,2.25763c0,0 9.00157,-15.57001 18.79565,-19.67003c9.79408,-4.10002 20.79641,3.09592 20.79641,3.09592z" data-paper-data="{&quot;index&quot;:null}" fill="#fff067" stroke-linecap="butt"/></g></g></svg>