<svg version="1.1" xmlns="http://www.w3.org/2000/svg" xmlns:xlink="http://www.w3.org/1999/xlink" width="113.16654" height="68.77396" viewBox="0,0,113.16654,68.77396"><g transform="translate(-191.66551,-151.988)"><g data-paper-data="{&quot;isPaintingLayer&quot;:true}" fill-rule="nonzero" stroke="#000000" stroke-width="2" stroke-linejoin="miter" stroke-miterlimit="10" stroke-dasharray="" stroke-dashoffset="0" style="mix-blend-mode: normal"><path d="M217.76113,193.41011c0,-2.11232 1.71238,-3.8247 3.8247,-3.8247c2.11232,0 3.8247,1.71238 3.8247,3.8247c0,2.11232 -1.71238,3.8247 -3.8247,3.8247c-2.11232,0 -3.8247,-1.71238 -3.8247,-3.8247z" fill="#ffe819" stroke-linecap="butt"/><path d="M269.17901,177.42916c0,-9.17193 7.43532,-16.60724 16.60724,-16.60724c9.17193,0 16.60724,7.43532 16.60724,16.60724c0,9.17193 -7.43532,16.60724 -16.60724,16.60724c-9.17193,0 -16.60724,-7.43532 -16.60724,-16.60724z" fill="#ffe819" stroke-linecap="butt"/><path d="M236.6774,198.38558l23.66611,-9.66896l2.96921,7.26755l-23.66612,9.66896z" fill="#ffe819" stroke-linecap="butt"/><path d="M212.64562,195.35964c0,-2.11232 1.71238,-3.8247 3.8247,-3.8247c2.11232,0 3.8247,1.71238 3.8247,3.8247c0,2.11232 -1.71238,3.8247 -3.8247,3.8247c-2.11232,0 -3.8247,-1.71238 -3.8247,-3.8247z" fill="#ffe819" stroke-linecap="butt"/><path d="M262.21297,166.13618c0,0 -4.69414,0.08488 -6.29158,-0.14625c-2.01643,-0.29175 -4.84546,-1.46518 -4.84546,-1.46518" data-paper-data="{&quot;index&quot;:null}" fill="none" stroke-linecap="round"/><path d="M245.89987,157.86334c2.83311,-0.10248 5.21288,2.11112 5.31537,4.94423c0.10248,2.83311 -2.11112,5.21287 -4.94422,5.31536c-2.83311,0.10248 -5.21289,-2.11111 -5.31537,-4.94422c-0.10248,-2.83311 2.11112,-5.21287 4.94423,-5.31537z" data-paper-data="{&quot;index&quot;:null}" fill="#ffe819" stroke-linecap="butt"/><path d="M295.44629,205.76011c4.36907,-2.32096 6.84714,-0.62682 8.38576,2.26953c1.53862,2.89635 -0.75591,7.12582 -5.12499,9.44677c-4.36907,2.32096 -8.30825,3.45447 -9.84687,0.55812c-0.59424,-1.11862 -0.62733,-8.44246 6.5861,-12.27442z" data-paper-data="{&quot;index&quot;:null}" fill="#ffe819" stroke-linecap="butt"/><path d="M264.65006,177.38208l4.89612,-10.31864l-11.5487,-1.5813c0,0 13.57292,-11.79955 24.16781,-12.49414c10.59489,-0.69459 18.66148,9.6863 18.66148,9.6863z" data-paper-data="{&quot;index&quot;:null}" fill="#fff067" stroke-linecap="butt"/><path d="M199.71327,210.35103c-4.90672,0.63215 -6.62869,-1.82666 -7.04776,-5.07944c-0.41907,-3.25278 3.2189,-6.40214 8.12563,-7.03429c4.90672,-0.63215 8.99264,-0.30456 9.41171,2.94821c0.16185,1.25628 -2.38846,8.12181 -10.48959,9.16551z" data-paper-data="{&quot;index&quot;:null}" fill="#ffe819" stroke-linecap="butt"/></g></g></svg>