<svg version="1.1" xmlns="http://www.w3.org/2000/svg" xmlns:xlink="http://www.w3.org/1999/xlink" width="103.03288" height="105.25489" viewBox="0,0,103.03288,105.25489"><g transform="translate(-191.35971,-121.50285)"><g data-paper-data="{&quot;isPaintingLayer&quot;:true}" fill-rule="nonzero" stroke="#000000" stroke-width="2" stroke-linejoin="miter" stroke-miterlimit="10" stroke-dasharray="" stroke-dashoffset="0" style="mix-blend-mode: normal"><path d="M282.93646,197.07847c2.81018,-4.07167 5.78995,-3.70848 8.48915,-1.84554c2.6992,1.86293 2.60923,6.67386 -0.20096,10.74554c-2.81018,4.07167 -5.78536,6.8913 -8.48456,5.02837c-1.04247,-0.71949 -4.44331,-7.20595 0.19636,-13.92838z" data-paper-data="{&quot;index&quot;:null}" fill="#1d28e8" stroke-linecap="butt"/><path d="M241.53395,200.59772c0,-2.11232 1.71238,-3.8247 3.8247,-3.8247c2.11232,0 3.8247,1.71238 3.8247,3.8247c0,2.11232 -1.71238,3.8247 -3.8247,3.8247c-2.11232,0 -3.8247,-1.71238 -3.8247,-3.8247z" fill="#1d28e8" stroke-linecap="butt"/><path d="M211.81986,159.21159c0.7895,-9.13789 8.83723,-15.90559 17.97511,-15.11609c9.13789,0.7895 15.90559,8.83723 15.11609,17.97511c-0.7895,9.13789 -8.83723,15.90559 -17.97511,15.11609c-9.13789,-0.7895 -15.90559,-8.83723 -15.11609,-17.97511z" fill="#1d28e8" stroke-linecap="butt"/><path d="M230.78871,207.70891l-7.50247,-24.43945l7.50503,-2.30391l7.50247,24.43945z" fill="#1d28e8" stroke-linecap="butt"/><path d="M229.92025,210.08388c0,-2.11232 1.71238,-3.8247 3.8247,-3.8247c2.11232,0 3.8247,1.71238 3.8247,3.8247c0,2.11232 -1.71238,3.8247 -3.8247,3.8247c-2.11232,0 -3.8247,-1.71238 -3.8247,-3.8247z" fill="#1d28e8" stroke-linecap="butt"/><path d="M229.28716,214.68624c4.11347,0 7.4481,2.47844 7.4481,5.53575c0,3.05731 -3.33463,5.53575 -7.4481,5.53575c-4.11347,0 -7.4481,-2.47844 -7.4481,-5.53575c0,-3.05731 3.33463,-5.53575 7.4481,-5.53575z" data-paper-data="{&quot;index&quot;:null}" fill="#1d28e8" stroke-linecap="butt"/><path d="M202.03418,161.99041c0,0 2.50782,-1.75818 4.41322,-2.47965c1.50949,-0.57156 6.11062,-1.50517 6.11062,-1.50517" fill="none" stroke-linecap="round"/><path d="M192.4455,165.49598c-0.51342,-2.78808 1.33054,-5.46448 4.11862,-5.97791c2.78808,-0.51342 5.46448,1.33054 5.97791,4.11862c0.51342,2.78808 -1.33054,5.46448 -4.11862,5.97791c-2.78808,0.51342 -5.46448,-1.33054 -5.97791,-4.11862z" fill="#1d28e8" stroke-linecap="butt"/><path d="M211.69123,158.39238l-9.25249,-21.10492l38.45676,-14.36125l0.95062,28.49046l20.29189,-4.61518z" fill="#2530ff" stroke-linecap="round"/></g></g></svg>