<svg version="1.1" xmlns="http://www.w3.org/2000/svg" xmlns:xlink="http://www.w3.org/1999/xlink" width="98.22473" height="145.89855" viewBox="0,0,98.22473,145.89855"><defs><linearGradient x1="265.28216" y1="156.00437" x2="262.88265" y2="79.90389" gradientUnits="userSpaceOnUse" id="color-1"><stop offset="0" stop-color="#ff0000" stop-opacity="0"/><stop offset="1" stop-color="#ff0000"/></linearGradient></defs><g transform="translate(-218.18775,-81.648)"><g data-paper-data="{&quot;isPaintingLayer&quot;:true}" fill-rule="nonzero" stroke-linejoin="miter" stroke-miterlimit="10" stroke-dasharray="" stroke-dashoffset="0" style="mix-blend-mode: normal"><path d="M315.70472,121.23556c-4.62119,1.79698 -35.20945,-7.75147 -43.24579,-7.49808c-1.5748,0.04966 2.22294,41.84065 -7.87065,42.28823c-13.34275,0.59167 -6.09661,-41.84783 -8.03404,-41.78675c-9.32688,0.29409 -15.67051,1.65288 -19.38382,0.6112c-2.4677,-0.69225 -4.85294,-25.30348 -0.8776,-27.8332c9.31425,-5.92715 37.16388,-8.53685 58.11061,0.63225c20.94673,9.16911 23.66721,32.66634 21.30129,33.58635z" fill="url(#color-1)" stroke="none" stroke-width="0" stroke-linecap="butt"/><path d="M239.07777,204.61229c0,-2.11232 1.71238,-3.8247 3.8247,-3.8247c2.11232,0 3.8247,1.71238 3.8247,3.8247c0,2.11232 -1.71238,3.8247 -3.8247,3.8247c-2.11232,0 -3.8247,-1.71238 -3.8247,-3.8247z" fill="#181818" stroke="#000000" stroke-width="2" stroke-linecap="butt"/><path d="M256.3143,157.09472l-2.26103,-4.73234l16.46269,-7.86554l2.26103,4.73234z" fill="#ff0000" stroke="#000000" stroke-width="2" stroke-linecap="butt"/><path d="M238.7033,163.32388c-2.95969,-8.68128 1.67858,-18.11814 10.35986,-21.07781c8.68128,-2.95969 18.11814,1.67858 21.07781,10.35986c2.95969,8.68128 -1.67858,18.11814 -10.35986,21.07781c-8.68128,2.95969 -18.11814,-1.67858 -21.07781,-10.35986z" fill="#181818" stroke="#000000" stroke-width="2" stroke-linecap="butt"/><path d="M246.71863,202.93672l3.65983,-25.30176l7.76983,1.1239l-3.65982,25.30177z" fill="#181818" stroke="#000000" stroke-width="2" stroke-linecap="butt"/><path d="M268.42365,213.9413c4.94728,0 6.34095,2.65869 6.34095,5.93835c0,3.27966 -4.01056,5.93835 -8.95785,5.93835c-4.94728,0 -8.95785,-0.84699 -8.95785,-4.12665c0,-1.26666 3.40667,-7.75005 11.57475,-7.75005z" data-paper-data="{&quot;index&quot;:null}" fill="#181818" stroke="#000000" stroke-width="2" stroke-linecap="butt"/><path d="M246.8696,173.71253l14.81152,4.96302l-4.03166,4.90743l4.05441,7.37751l-17.57158,-3.61365l4.64805,-6.03464z" fill="#0e0e0e" stroke="#000000" stroke-width="2" stroke-linecap="round"/><g stroke="#000000" stroke-width="2"><g><path d="M238.02439,165.64151l-9.24728,-12.31983c0,0 10.87773,-5.162 15.48494,-8.62018c4.83797,-3.63139 12.88448,-12.67393 12.88448,-12.67393l9.24728,12.31983c0,0 -8.59073,8.59307 -13.29639,12.12517c-4.75038,3.56564 -15.07302,9.16895 -15.07302,9.16895z" fill="#343434" stroke-linecap="butt"/><path d="M276.06929,135.79805c0,0 -13.84913,14.25595 -21.93905,20.32824c-8.2265,6.17481 -27.01703,16.41823 -27.01703,16.41823" fill="none" stroke-linecap="round"/></g><path d="M256.51698,130.60152c1.42182,1.89424 -3.84246,8.24635 -11.75811,14.18784c-7.91564,5.94149 -15.48513,9.22242 -16.90696,7.32818c-1.42182,-1.89424 3.84246,-8.24635 11.7581,-14.18784c7.91564,-5.94149 15.48514,-9.22243 16.90697,-7.32818z" fill="#252525" stroke-linecap="butt"/></g><path d="M228.6516,164.74345c0,0 2.17035,-2.16101 3.92437,-3.19758c1.38957,-0.82119 5.76337,-2.5276 5.76337,-2.5276" fill="#181818" stroke="#000000" stroke-width="2" stroke-linecap="round"/><path d="M219.50726,170.06509c-0.98248,-2.65927 0.37682,-5.61151 3.0361,-6.59398c2.65927,-0.98248 5.61151,0.37682 6.59398,3.0361c0.98248,2.65927 -0.37682,5.61151 -3.0361,6.59398c-2.65927,0.98248 -5.61151,-0.37682 -6.59398,-3.0361z" fill="#181818" stroke="#000000" stroke-width="2" stroke-linecap="butt"/><path d="M233.4894,216.95395c3.09839,3.85688 1.89853,6.60847 -0.65827,8.66246c-2.55681,2.054 -7.14126,0.59248 -10.23966,-3.2644c-3.09839,-3.85688 -2.3833,-11.27834 2.77141,-13.83162c5.15471,-2.55327 3.01099,2.06577 8.12652,8.43356z" data-paper-data="{&quot;index&quot;:null}" fill="#181818" stroke="#000000" stroke-width="2" stroke-linecap="butt"/><path d="M269.12943,147.41643c0,-2.11232 1.71238,-3.8247 3.8247,-3.8247c2.11232,0 3.8247,1.71238 3.8247,3.8247c0,2.11232 -1.71238,3.8247 -3.8247,3.8247c-2.11232,0 -3.8247,-1.71238 -3.8247,-3.8247z" fill="#181818" stroke="#000000" stroke-width="2" stroke-linecap="butt"/></g></g></svg>