<svg version="1.1" xmlns="http://www.w3.org/2000/svg" xmlns:xlink="http://www.w3.org/1999/xlink" width="63.10666" height="102.88036" viewBox="0,0,63.10666,102.88036"><g transform="translate(-203.94991,-123.93761)"><g data-paper-data="{&quot;isPaintingLayer&quot;:true}" fill-rule="nonzero" stroke-linejoin="miter" stroke-miterlimit="10" stroke-dasharray="" stroke-dashoffset="0" style="mix-blend-mode: normal"><path d="M213.78081,182.48926c-2.11232,0 -3.8247,-1.71238 -3.8247,-3.8247c0,-2.11232 1.71238,-3.8247 3.8247,-3.8247c2.11232,0 3.8247,1.71238 3.8247,3.8247c0,2.11232 -1.71238,3.8247 -3.8247,3.8247z" data-paper-data="{&quot;index&quot;:null}" fill="#181818" stroke="#000000" stroke-width="2" stroke-linecap="butt"/><path d="M213.37885,171.92015c0,0 2.22373,2.10603 3.31132,3.82889c0.8616,1.36488 2.69559,5.68674 2.69559,5.68674" data-paper-data="{&quot;index&quot;:null}" fill="#181818" stroke="#000000" stroke-width="2" stroke-linecap="round"/><path d="M207.79126,162.93585c2.62931,-1.06006 5.62014,0.21204 6.6802,2.84136c1.06006,2.62931 -0.21204,5.62014 -2.84136,6.6802c-2.62931,1.06006 -5.62014,-0.21204 -6.6802,-2.84136c-1.06006,-2.62931 0.21204,-5.62014 2.84136,-6.6802z" data-paper-data="{&quot;index&quot;:null}" fill="#181818" stroke="#000000" stroke-width="2" stroke-linecap="butt"/><path d="M253.16276,202.84726c-2.11232,0 -3.8247,-1.71238 -3.8247,-3.8247c0,-2.11232 1.71238,-3.8247 3.8247,-3.8247c2.11232,0 3.8247,1.71238 3.8247,3.8247c0,2.11232 -1.71238,3.8247 -3.8247,3.8247z" data-paper-data="{&quot;index&quot;:null}" fill="#181818" stroke="#000000" stroke-width="2" stroke-linecap="butt"/><path d="M238.14959,176.50117c-9.17192,0 -16.60724,-7.43531 -16.60724,-16.60724c0,-9.17192 7.43531,-16.60724 16.60724,-16.60724c9.17192,0 16.60724,7.43531 16.60724,16.60724c0,9.17192 -7.43531,16.60724 -16.60724,16.60724z" data-paper-data="{&quot;index&quot;:null}" fill="#181818" stroke="#000000" stroke-width="2" stroke-linecap="butt"/><path d="M235.02944,205.61184v-25.56509h7.8507v25.56509z" data-paper-data="{&quot;index&quot;:null}" fill="#181818" stroke="#000000" stroke-width="2" stroke-linecap="butt"/><path d="M258.05593,219.87962c0,3.05731 -3.33463,5.53575 -7.4481,5.53575c-4.11347,0 -7.4481,-2.47844 -7.4481,-5.53575c0,-3.05731 3.33463,-5.53575 7.4481,-5.53575c4.11347,0 7.4481,2.47844 7.4481,5.53575z" data-paper-data="{&quot;index&quot;:null}" fill="#181818" stroke="#000000" stroke-width="2" stroke-linecap="butt"/><path d="M234.16689,221.69132c0,3.27966 -3.76147,4.12665 -8.40146,4.12665c-4.64001,0 -8.40146,-2.65869 -8.40146,-5.93835c0,-3.27966 1.30711,-5.93835 5.9471,-5.93835c7.66075,0 10.85582,6.48339 10.85582,7.75005z" data-paper-data="{&quot;index&quot;:null}" fill="#181818" stroke="#000000" stroke-width="2" stroke-linecap="butt"/><path d="M242.95907,183.24226l4.30818,5.13349l-17.04542,-1.20788l4.12087,-4.22758l-3.74625,-4.22758l14.42305,-0.30197z" data-paper-data="{&quot;index&quot;:null}" fill="#0e0e0e" stroke="#000000" stroke-width="2" stroke-linecap="round"/><g data-paper-data="{&quot;index&quot;:null}" stroke="#000000" stroke-width="2"><path d="M222.6944,153.64772v-12.06291h30.43885v12.06291z" fill="#343434" stroke-linecap="butt"/><path d="M264.17743,153.64772h-52.52723" fill="none" stroke-linecap="round"/></g><text transform="translate(256.37272,146.69681) scale(0.85685,0.5232)" font-size="40" xml:space="preserve" fill="#000000" fill-rule="nonzero" stroke="none" stroke-width="1" stroke-linecap="butt" stroke-linejoin="miter" stroke-miterlimit="10" stroke-dasharray="" stroke-dashoffset="0" font-family="Sans Serif" font-weight="normal" text-anchor="start" style="mix-blend-mode: normal"><tspan x="0" dy="0">!</tspan></text><path d="M250.25222,163.80512v-5.24474h8.54722v5.24474z" data-paper-data="{&quot;index&quot;:null}" fill="#00fff9" stroke="#000000" stroke-width="2" stroke-linecap="butt"/></g></g></svg>