<svg version="1.1" xmlns="http://www.w3.org/2000/svg" xmlns:xlink="http://www.w3.org/1999/xlink" width="109.92515" height="53.34774" viewBox="0,0,109.92515,53.34774"><g transform="translate(-193.99212,-158.22524)"><g data-paper-data="{&quot;isPaintingLayer&quot;:true}" fill-rule="nonzero" stroke="#000000" stroke-width="2" stroke-linejoin="miter" stroke-miterlimit="10" stroke-dasharray="" stroke-dashoffset="0" style="mix-blend-mode: normal"><path d="M199.50976,200.37494c0,0 -0.64979,-2.99301 -0.57707,-5.02913c0.05761,-1.61304 0.97873,-6.2167 0.97873,-6.2167" fill="none" stroke-linecap="round"/><path d="M199.02843,210.57298c-2.76934,-0.60637 -4.52281,-3.34293 -3.91643,-6.11229c0.60637,-2.76934 3.34293,-4.52281 6.11229,-3.91643c2.76934,0.60637 4.52281,3.34293 3.91643,6.11229c-0.60637,2.76934 -3.34293,4.52281 -6.11229,3.91643z" fill="#e80000" stroke-linecap="butt"/><path d="M204.21309,192.76541c-7.57834,-5.16652 -9.53352,-15.49826 -4.36699,-23.07662c5.16652,-7.57834 15.49828,-9.5335 23.07663,-4.36698c7.57834,5.16652 9.53352,15.49826 4.36698,23.07662c-5.16652,7.57834 -15.49826,9.53352 -23.07662,4.36699z" fill="#e80000" stroke-linecap="butt"/><path d="M256.4189,195.22754l-25.56509,0.02144l-0.00658,-7.85069l25.56509,-0.02144z" fill="#e80000" stroke-linecap="butt"/><path d="M261.31228,181.75012c-2.10017,-0.22621 -3.61934,-2.11211 -3.39313,-4.21228c0.22621,-2.10017 2.11211,-3.61934 4.21228,-3.39313c2.10017,0.22621 3.61934,2.11211 3.39313,4.21228c-0.22621,2.10017 -2.11211,3.61934 -4.21228,3.39313z" fill="#e80000" stroke-linecap="butt"/><path d="M295.68687,179.73451c4.88005,-0.81279 6.69158,1.5808 7.2304,4.8159c0.5388,3.2351 -2.98046,6.51656 -7.86051,7.32935c-4.88005,0.81279 -8.97529,0.63621 -9.5141,-2.59889c-0.20811,-1.24946 2.08711,-8.20443 10.14421,-9.54638z" data-paper-data="{&quot;index&quot;:null}" fill="#e80000" stroke-linecap="butt"/><path d="M202.38673,192.82225l-5.2672,-1.90172l11.34239,-31.41512l5.26719,1.90172z" fill="#ff2121" stroke-linecap="butt"/><path d="M291.34842,189.72827c4.7771,1.28646 5.43147,4.21609 4.57864,7.38293c-0.85281,3.16683 -5.41676,4.6912 -10.19386,3.40472c-4.7771,-1.28646 -8.42945,-3.1472 -7.57663,-6.31404c0.32937,-1.22308 5.30476,-6.59759 13.19184,-4.47363z" data-paper-data="{&quot;index&quot;:null}" fill="#e80000" stroke-linecap="butt"/><path d="M268.98682,192.99492c-2.10017,-0.22621 -3.61934,-2.11211 -3.39313,-4.21228c0.22621,-2.10017 2.11211,-3.61934 4.21228,-3.39313c2.10017,0.22621 3.61934,2.11211 3.39313,4.21228c-0.22621,2.10017 -2.11211,3.61934 -4.21228,3.39313z" fill="#e80000" stroke-linecap="butt"/></g></g></svg>