<svg version="1.1" xmlns="http://www.w3.org/2000/svg" xmlns:xlink="http://www.w3.org/1999/xlink" width="85.74015" height="87.43686" viewBox="0,0,85.74015,87.43686"><g transform="translate(-194.53216,-116.58358)"><g data-paper-data="{&quot;isPaintingLayer&quot;:true}" fill-rule="nonzero" stroke="#000000" stroke-width="2" stroke-linejoin="miter" stroke-miterlimit="10" stroke-dasharray="" stroke-dashoffset="0" style="mix-blend-mode: normal"><path d="M211.85826,136.51552c2.55245,-8.80961 11.76324,-13.88201 20.57285,-11.32956c8.80961,2.55245 13.88203,11.76324 11.32956,20.57285c-2.55245,8.80961 -11.76324,13.88201 -20.57285,11.32956c-8.80961,-2.55245 -13.88203,-11.76324 -11.32957,-20.57284z" fill="#2d6a2b" stroke-linecap="butt"/><path d="M225.55323,121.34617c15.80164,-1.20449 23.24267,9.92734 23.24267,9.92734l-40.66999,5.10373c0,0 0.43799,-13.73604 17.42732,-15.03106z" fill="#367e33" stroke-linecap="round"/><path d="M229.14334,186.56l-6.02487,-24.84501l7.62957,-1.85017l6.02487,24.84501z" fill="#2d6a2b" stroke-linecap="butt"/><path d="M207.28268,171.85162c1.13673,-1.78039 3.50151,-2.30217 5.28191,-1.16543c1.78039,1.13673 2.30217,3.50151 1.16546,5.28189c-1.13673,1.78039 -3.50151,2.30217 -5.28191,1.16543c-1.78039,-1.13673 -2.30217,-3.50151 -1.16546,-5.28189z" fill="#2d6a2b" stroke-linecap="butt"/><path d="M251.73091,169.73908c2.06272,-0.45514 4.10382,0.84805 4.55897,2.91076c0.45513,2.06269 -0.84805,4.10382 -2.91076,4.55897c-2.06272,0.45514 -4.10382,-0.84805 -4.55895,-2.91078c-0.45513,-2.06269 0.84805,-4.10382 2.91076,-4.55896z" fill="#2d6a2b" stroke-linecap="butt"/><path d="M205.67572,122.44707c0,0 3.02955,-0.4496 5.05637,-0.24179c1.60566,0.16461 6.13798,1.38941 6.13798,1.38941" fill="none" stroke-linecap="round"/><path d="M195.53216,121.28956c0.78894,-2.72298 3.63591,-4.29081 6.35889,-3.50187c2.72298,0.78894 4.29082,3.6359 3.50187,6.35889c-0.78894,2.72298 -3.6359,4.29082 -6.35889,3.50187c-2.72298,-0.78894 -4.29082,-3.6359 -3.50187,-6.35889z" fill="#2d6a2b" stroke-linecap="butt"/><path d="M207.03681,203.02044c-4.91191,-0.59045 -5.97832,-3.39649 -5.58688,-6.6527c0.39142,-3.25622 4.69064,-5.41723 9.60257,-4.82676c4.91191,0.59045 8.79272,1.91006 8.40129,5.16628c-0.15118,1.25761 -4.30728,7.28806 -12.41699,6.3132z" data-paper-data="{&quot;index&quot;:null}" fill="#2d6a2b" stroke-linecap="butt"/><path d="M267.18752,160.34518c-0.51578,-4.92032 1.98311,-6.58358 5.24491,-6.92549c3.26179,-0.34193 6.32412,3.36959 6.83988,8.28991c0.51578,4.92032 0.09153,8.99732 -3.17024,9.33924c-1.25975,0.13206 -8.06298,-2.5801 -8.91454,-10.70368z" data-paper-data="{&quot;index&quot;:null}" fill="#2d6a2b" stroke-linecap="butt"/></g></g></svg>