<svg version="1.1" xmlns="http://www.w3.org/2000/svg" xmlns:xlink="http://www.w3.org/1999/xlink" width="507" height="389" viewBox="0,0,507,389"><defs><radialGradient cx="246.68059" cy="153.80734" r="35.95262" gradientUnits="userSpaceOnUse" id="color-1"><stop offset="0" stop-color="#ff4545"/><stop offset="1" stop-color="#ff4545" stop-opacity="0"/></radialGradient><radialGradient cx="243.99998" cy="180.00004" r="63.58429" gradientUnits="userSpaceOnUse" id="color-2"><stop offset="0" stop-color="#ff0000"/><stop offset="1" stop-color="#ff0000" stop-opacity="0"/></radialGradient></defs><g transform="translate(11.5,9)"><g data-paper-data="{&quot;isPaintingLayer&quot;:true}" fill-rule="nonzero" stroke-linejoin="miter" stroke-miterlimit="10" stroke-dasharray="" stroke-dashoffset="0" style="mix-blend-mode: normal"><path d="M-11.5,380v-389h507v389z" data-paper-data="{&quot;index&quot;:null}" fill="#0a0711" stroke="none" stroke-width="NaN" stroke-linecap="butt"/><path d="M246.68059,189.75996c-19.85609,0 -35.95262,-16.09654 -35.95262,-35.95262c0,-19.85609 16.09654,-35.95262 35.95262,-35.95262c19.85609,0 35.95262,16.09654 35.95262,35.95262c0,19.85609 -16.09654,35.95262 -35.95262,35.95262z" data-paper-data="{&quot;index&quot;:null}" fill="url(#color-1)" stroke="#000000" stroke-width="0" stroke-linecap="butt"/><path d="M243.99998,243.58433c-35.11664,0 -63.58429,-28.46765 -63.58429,-63.58429c0,-35.11664 28.46765,-63.58429 63.58429,-63.58429c35.11664,0 63.58429,28.46765 63.58429,63.58429c0,35.11664 -28.46765,63.58429 -63.58429,63.58429z" data-paper-data="{&quot;index&quot;:null}" fill="url(#color-2)" stroke="#000000" stroke-width="0" stroke-linecap="butt"/><path d="M257.10626,135.03863c0,0 4.47574,1.41765 5.91588,2.14651c1.81786,0.92002 4.12448,2.93495 4.12448,2.93495" data-paper-data="{&quot;index&quot;:null}" fill="#181818" stroke="#000000" stroke-width="2" stroke-linecap="round"/><path d="M268.4864,148.29375c-2.71767,-0.80703 -4.26651,-3.66437 -3.45949,-6.38203c0.80703,-2.71767 3.66437,-4.26651 6.38203,-3.45949c2.71767,0.80702 4.26651,3.66437 3.45949,6.38203c-0.80702,2.71767 -3.66437,4.26651 -6.38203,3.45949z" data-paper-data="{&quot;index&quot;:null}" fill="#9b9b9b" stroke="#000000" stroke-width="2" stroke-linecap="butt"/><g data-paper-data="{&quot;index&quot;:null}" stroke="#000000" stroke-linecap="butt"><g fill="#343434" stroke-width="2"><path d="M263.47359,143.33304c0,0 -10.43718,-3.3927 -15.47201,-3.41589c-4.83453,-0.02227 -14.16047,3.27935 -14.16047,3.27935l0.05558,-12.06278c0,0 3.82268,-5.5808 15.4038,-5.54305c11.49378,0.03747 14.22869,5.67957 14.22869,5.67957l-0.05558,12.06278z"/></g><path d="M248.31929,139.49712c12.89872,-0.04398 23.3655,2.938 23.37819,6.66045c0.0127,3.72245 -10.4335,6.77575 -23.33221,6.81973c-12.89872,0.04398 -23.3655,-2.938 -23.37819,-6.66045c-0.0127,-3.72245 10.4335,-6.77575 23.33221,-6.81973z" fill="#343434" stroke-width="2"/><path d="M248.65933,142.615c8.91655,-0.0304 16.15198,2.03097 16.16075,4.6042c0.00878,2.57323 -7.21243,4.68391 -16.12898,4.71431c-8.91655,0.0304 -16.15198,-2.03097 -16.16075,-4.6042c-0.00878,-2.57323 7.21243,-4.68391 16.12898,-4.71431z" fill="#111111" stroke-width="0.5"/></g><path d="M244.98679,208.27528l1.52422,-25.51961l7.83674,0.46806l-1.52422,25.51961z" data-paper-data="{&quot;index&quot;:null}" fill="#181818" stroke="#000000" stroke-width="2" stroke-linecap="butt"/><path d="M233.25269,220.82731c3.53926,-2.71571 8.10059,-1.21591 10.18801,3.34992c2.08742,4.56583 0.91048,10.46868 -2.62879,13.1844c-3.53926,2.71571 -8.10059,1.21591 -10.18801,-3.34992c-2.08742,-4.56583 -0.91048,-10.46868 2.62879,-13.1844z" data-paper-data="{&quot;index&quot;:null}" fill="#181818" stroke="#000000" stroke-width="2" stroke-linecap="butt"/><path d="M265.24485,231.03007c0.64953,4.90446 -1.80317,6.63512 -5.05444,7.0657c-3.25127,0.43058 -6.41349,-3.1962 -7.06303,-8.10066c-0.64953,-4.90446 -0.33642,-8.99152 2.91485,-9.4221c1.25569,-0.16631 8.13023,2.35967 9.20262,10.45704z" data-paper-data="{&quot;index&quot;:null}" fill="#181818" stroke="#000000" stroke-width="2" stroke-linecap="butt"/><path d="M254.236,186.41825l3.99445,5.38121l-16.94308,-2.22199l4.3656,-3.97436l-3.48753,-4.44341l14.4154,0.55848z" data-paper-data="{&quot;index&quot;:null}" fill="#0e0e0e" stroke="#000000" stroke-width="2" stroke-linecap="round"/><path d="M252.97375,176.94717c-9.14385,0.71703 -17.13768,-6.11425 -17.85472,-15.25811c-0.71703,-9.14385 6.11425,-17.13768 15.25811,-17.85472c9.14385,-0.71703 17.13768,6.11425 17.85472,15.25811c0.71703,9.14385 -6.11425,17.13768 -15.25811,17.85472z" data-paper-data="{&quot;index&quot;:null}" fill="#181818" stroke="#000000" stroke-width="2" stroke-linecap="butt"/><path d="M244.84679,165.49625l0.21851,-6.44642c0,0 6.57967,2.95368 10.04054,3.08671c2.90074,0.11151 9.34252,-2.34166 9.34252,-2.34166l-0.21851,6.44642z" data-paper-data="{&quot;index&quot;:null}" fill="#ff4545" stroke="#000000" stroke-width="2" stroke-linecap="butt"/><path d="M256.7352,205.30236c-1.83618,0 -3.3247,-1.48852 -3.3247,-3.3247c0,-1.83618 1.48852,-3.3247 3.3247,-3.3247c1.83618,0 3.3247,1.48852 3.3247,3.3247c0,1.83618 -1.48852,3.3247 -3.3247,3.3247z" data-paper-data="{&quot;index&quot;:null}" fill="#181818" stroke="#000000" stroke-width="2" stroke-linecap="butt"/><path d="M220.87079,233.40908c-25.76846,0 -46.65803,-20.88954 -46.65803,-46.65803c0,-25.76846 20.88954,-46.65803 46.65803,-46.65803c25.76846,0 46.65803,20.88954 46.65803,46.65803c0,25.76846 -20.88954,46.65803 -46.65803,46.65803z" data-paper-data="{&quot;index&quot;:null}" fill="#181818" stroke="#000000" stroke-width="2" stroke-linecap="butt"/></g></g></svg>