<svg version="1.1" xmlns="http://www.w3.org/2000/svg" xmlns:xlink="http://www.w3.org/1999/xlink" width="143.81658" height="81.40636" viewBox="0,0,143.81658,81.40636"><g transform="translate(-209.4957,-145.27605)"><g data-paper-data="{&quot;isPaintingLayer&quot;:true}" fill-rule="nonzero" stroke-linejoin="miter" stroke-miterlimit="10" stroke-dasharray="" stroke-dashoffset="0" style="mix-blend-mode: normal"><path d="M214.24216,162.25924c2.36188,-8.86262 11.46114,-14.13248 20.32371,-11.77061c8.86262,2.36188 14.13248,11.46114 11.77061,20.32371c-2.36188,8.86262 -11.46113,14.13247 -20.32372,11.77061c-8.86262,-2.36188 -14.13248,-11.46112 -11.77061,-20.32371z" fill="#2d6a2b" stroke="#000000" stroke-width="2" stroke-linecap="butt"/><path d="M227.60679,146.79808c15.77198,-1.54499 23.45138,9.42377 23.45138,9.42377l-40.55046,5.97964c0,0 0.14165,-13.74229 17.0991,-15.40342z" fill="#367e33" stroke="#000000" stroke-width="2" stroke-linecap="round"/><path d="M220.09542,155.63775c0,0 2.80603,-1.2274 4.81651,-1.55777c1.59273,-0.2617 2.5784,-0.03387 2.5784,-0.03387" fill="none" stroke="#000000" stroke-width="2" stroke-linecap="round"/><path d="M213.04675,156.96102c0.04818,-2.83454 2.38509,-5.09334 5.21965,-5.04516c2.83454,0.04818 5.09334,2.38509 5.04516,5.21964c-0.04818,2.83454 -2.3851,5.09333 -5.21965,5.04516c-2.83454,-0.04818 -5.09333,-2.3851 -5.04516,-5.21965z" fill="#2d6a2b" stroke="#000000" stroke-width="2" stroke-linecap="butt"/><path d="M226.75712,203.68371l-3.52854,-25.3204l7.77555,-1.08357l3.52854,25.32041z" data-paper-data="{&quot;index&quot;:null}" fill="#2d6a2b" stroke="#000000" stroke-width="2" stroke-linecap="butt"/><path d="M259.21341,192.80345c0.26753,-2.09531 2.18299,-3.57703 4.2783,-3.3095c2.09531,0.26753 3.57703,2.18299 3.3095,4.2783c-0.26753,2.09531 -2.18299,3.57703 -4.2783,3.3095c-2.09531,-0.26753 -3.57703,-2.18299 -3.3095,-4.2783z" fill="#2d6a2b" stroke="#000000" stroke-width="2" stroke-linecap="butt"/><path d="M258.93282,213.38269c4.93244,-0.38296 6.52773,2.15988 6.7816,5.4297c0.25387,3.26982 -3.53887,6.23098 -8.4713,6.61393c-4.93244,0.38296 -8.99653,-0.15105 -9.2504,-3.42087c-0.09805,-1.26286 2.79655,-7.9905 10.94011,-8.62276z" data-paper-data="{&quot;index&quot;:null}" fill="#2d6a2b" stroke="#000000" stroke-width="2" stroke-linecap="butt"/><path d="M223.59048,214.61091c4.11347,0 7.4481,2.47844 7.4481,5.53575c0,3.05731 -3.33463,5.53575 -7.4481,5.53575c-4.11347,0 -7.4481,-2.47844 -7.4481,-5.53575c0,-3.05731 3.33463,-5.53575 7.4481,-5.53575z" data-paper-data="{&quot;index&quot;:null}" fill="#2d6a2b" stroke="#000000" stroke-width="2" stroke-linecap="butt"/><g stroke="#61ff00" stroke-width="3" stroke-linecap="round"><path d="M351.81228,208.1153c0,0 -34.42747,-3.89632 -49.61105,-6.29324c-13.61482,-2.14927 -37.29836,-7.42655 -37.29836,-7.42655" fill="none"/><path d="M320.96917,203.48655c0,0 -14.43225,-5.91317 -15.18333,-10.62559c-0.75105,-4.71242 5.0261,-4.59137 5.0261,-4.59137z" fill="#61ff00"/><path d="M279.18335,208.312c0,0 -4.07139,-3.33609 0.65921,-6.12427c4.7306,-2.78818 19.92053,1.69696 19.92053,1.69696z" data-paper-data="{&quot;index&quot;:null}" fill="#61ff00"/><path d="M322.70412,211.98319c0,0 -3.41028,-2.83303 0.60677,-5.16232c4.01706,-2.32929 16.80571,1.5255 16.80571,1.5255z" data-paper-data="{&quot;index&quot;:null}" fill="#61ff00"/></g><path d="M258.1714,194.86306c0.26753,-2.09531 2.18299,-3.57703 4.2783,-3.3095c2.09531,0.26753 3.57703,2.18299 3.3095,4.2783c-0.26753,2.09531 -2.18299,3.57703 -4.2783,3.3095c-2.09531,-0.26753 -3.57703,-2.18299 -3.3095,-4.2783z" fill="#2d6a2b" stroke="#000000" stroke-width="2" stroke-linecap="butt"/></g></g></svg>