<svg version="1.1" xmlns="http://www.w3.org/2000/svg" xmlns:xlink="http://www.w3.org/1999/xlink" width="129.97051" height="132.68495" viewBox="0,0,129.97051,132.68495"><defs><linearGradient x1="257.88377" y1="156.36211" x2="326.6611" y2="115.81207" gradientUnits="userSpaceOnUse" id="color-1"><stop offset="0" stop-color="#ff0000"/><stop offset="1" stop-color="#ff0000" stop-opacity="0"/></linearGradient></defs><g transform="translate(-210.05612,-94.56198)"><g data-paper-data="{&quot;isPaintingLayer&quot;:true}" fill-rule="nonzero" stroke="#000000" stroke-linejoin="miter" stroke-miterlimit="10" stroke-dasharray="" stroke-dashoffset="0" style="mix-blend-mode: normal"><path d="M260.52329,168.3896l-9.25165,-23.4535l63.21567,-50.37411l25.53933,65.55665z" fill="url(#color-1)" stroke-width="0" stroke-linecap="butt"/><path d="M221.60367,147.49442c0,0 2.89281,-1.00598 4.92285,-1.17933c1.60823,-0.13733 6.28936,0.22189 6.28936,0.22189" fill="#181818" stroke-width="2" stroke-linecap="round"/><path d="M211.05613,148.32387c0.26799,-2.82226 2.77311,-4.89294 5.59539,-4.62494c2.82226,0.26799 4.89294,2.77311 4.62494,5.59539c-0.26799,2.82226 -2.77312,4.89294 -5.59539,4.62494c-2.82226,-0.26799 -4.89294,-2.77311 -4.62494,-5.59538z" fill="#181818" stroke-width="2" stroke-linecap="butt"/><path d="M232.88383,159.58814c-1.23505,-9.0884 5.13134,-17.4572 14.21972,-18.69225c9.0884,-1.23505 17.45719,5.13135 18.69224,14.21973c1.23505,9.0884 -5.13135,17.4572 -14.21972,18.69225c-9.0884,1.23505 -17.45719,-5.13135 -18.69224,-14.21973z" fill="#181818" stroke-width="2" stroke-linecap="butt"/><g stroke-width="2"><path d="M233.80067,152.31767l-1.62435,-11.95304l29.36292,-3.99023l1.62434,11.95304z" fill="#343434" stroke-linecap="butt"/><path d="M273.81739,146.87965l-50.67053,6.8858" fill="none" stroke-linecap="round"/></g><path d="M228.53613,214.3439c4.11347,0 7.4481,2.47844 7.4481,5.53575c0,3.05731 -3.33463,5.53575 -7.4481,5.53575c-4.11347,0 -7.4481,-2.47844 -7.4481,-5.53575c0,-3.05731 3.33463,-5.53575 7.4481,-5.53575z" data-paper-data="{&quot;index&quot;:null}" fill="#181818" stroke-width="2" stroke-linecap="butt"/><path d="M262.75431,214.37024c4.94728,0 6.34095,2.65869 6.34095,5.93835c0,3.27966 -4.01056,5.93835 -8.95785,5.93835c-4.94728,0 -8.95785,-0.84699 -8.95785,-4.12665c0,-1.26666 3.40667,-7.75005 11.57475,-7.75005z" data-paper-data="{&quot;index&quot;:null}" fill="#181818" stroke-width="2" stroke-linecap="butt"/><path d="M242.303,205.77391l1.89207,-25.49498l7.82917,0.58103l-1.89207,25.49498z" fill="#181818" stroke-width="2" stroke-linecap="butt"/><path d="M242.18265,178.48908l14.36114,1.36859l-4.04886,3.93873l3.79668,4.52098l-17.08807,-0.05696l4.67629,-4.80057z" fill="#0e0e0e" stroke-width="2" stroke-linecap="round"/><path d="M293.21026,162.11246c0.14352,-2.10744 1.96829,-3.69952 4.07572,-3.556c2.10744,0.14352 3.69952,1.96829 3.556,4.07572c-0.14352,2.10744 -1.96829,3.69952 -4.07572,3.556c-2.10744,-0.14352 -3.69952,-1.96829 -3.556,-4.07572z" fill="#181818" stroke-width="2" stroke-linecap="butt"/><path d="M223.14594,203.14334c0.14352,-2.10744 1.96829,-3.69952 4.07572,-3.556c2.10744,0.14352 3.69952,1.96829 3.556,4.07572c-0.14352,2.10744 -1.96829,3.69952 -4.07572,3.556c-2.10744,-0.14352 -3.69952,-1.96829 -3.556,-4.07572z" fill="#181818" stroke-width="2" stroke-linecap="butt"/><path d="M256.82213,159.94077l-2.11139,-8.48983c0,0 5.21506,-0.10668 7.65978,-0.51565c2.57772,-0.43122 7.4287,-2.00843 7.4287,-2.00843l2.11138,8.48983z" fill="#ff1515" stroke-width="2" stroke-linecap="butt"/></g></g></svg>