<svg version="1.1" xmlns="http://www.w3.org/2000/svg" xmlns:xlink="http://www.w3.org/1999/xlink" width="74.39342" height="74.86027" viewBox="0,0,74.39342,74.86027"><g transform="translate(-205.77894,-159.84988)"><g data-paper-data="{&quot;isPaintingLayer&quot;:true}" fill-rule="nonzero" stroke="#000000" stroke-width="2" stroke-linejoin="miter" stroke-miterlimit="10" stroke-dasharray="" stroke-dashoffset="0" style="mix-blend-mode: normal"><path d="M227.96823,208.41637l15.02243,-20.68574l6.35232,4.61319l-15.02243,20.68574z" fill="#e80000" stroke-linecap="butt"/><path d="M237.15421,174.80806c0,0 2.35717,-1.95553 4.19785,-2.82899c1.45822,-0.69196 5.96862,-1.9952 5.96862,-1.9952" fill="none" stroke-linecap="round"/><path d="M227.88099,179.07883c-0.73758,-2.73733 0.88353,-5.5543 3.62087,-6.29188c2.73733,-0.73758 5.5543,0.88353 6.29188,3.62087c0.73758,2.73733 -0.88353,5.5543 -3.62087,6.29188c-2.73733,0.73758 -5.5543,-0.88353 -6.29188,-3.62087z" fill="#e80000" stroke-linecap="butt"/><path d="M246.07489,175.47704c1.09448,-9.10639 9.36392,-15.60134 18.4703,-14.50685c9.10639,1.09448 15.60134,9.36392 14.50685,18.4703c-1.09448,9.10639 -9.36392,15.60134 -18.4703,14.50685c-9.10639,-1.09448 -15.60134,-9.36392 -14.50685,-18.4703z" fill="#e80000" stroke-linecap="butt"/><path d="M222.35866,188.76821c0.74925,-1.97498 2.95767,-2.96863 4.93264,-2.21937c1.97498,0.74925 2.96863,2.95767 2.21937,4.93264c-0.74925,1.97498 -2.95767,2.96863 -4.93264,2.21937c-1.97498,-0.74925 -2.96863,-2.95767 -2.21937,-4.93264z" fill="#e80000" stroke-linecap="butt"/><path d="M259.09988,203.45162c0.74925,-1.97498 2.95767,-2.96863 4.93264,-2.21937c1.97498,0.74925 2.96863,2.95767 2.21937,4.93264c-0.74925,1.97498 -2.95767,2.96863 -4.93264,2.21937c-1.97498,-0.74925 -2.96863,-2.95767 -2.21937,-4.93264z" fill="#e80000" stroke-linecap="butt"/><path d="M257.76063,224.00119c3.22776,3.74927 2.12217,6.54008 -0.36331,8.67984c-2.48548,2.13975 -7.11698,0.83498 -10.34474,-2.91429c-3.22776,-3.74927 -5.20252,-7.34128 -2.71702,-9.48102c0.95993,-0.82642 8.09597,-2.47465 13.4251,3.71549z" data-paper-data="{&quot;index&quot;:null}" fill="#e80000" stroke-linecap="butt"/><path d="M245.18308,173.88222l-0.73858,-5.55109l33.10823,-4.40504l0.73858,5.55107z" fill="#ff2121" stroke-linecap="butt"/><path d="M218.94025,217.90569c1.09661,4.82422 -1.18704,6.77254 -4.38511,7.49949c-3.19807,0.72697 -6.6796,-2.59451 -7.7762,-7.41874c-1.09661,-4.82422 -1.15966,-8.92276 2.03843,-9.64974c1.23514,-0.28076 8.31237,1.60406 10.1229,9.56896z" data-paper-data="{&quot;index&quot;:null}" fill="#e80000" stroke-linecap="butt"/></g></g></svg>