<svg version="1.1" xmlns="http://www.w3.org/2000/svg" xmlns:xlink="http://www.w3.org/1999/xlink" width="82.3056" height="105.31809" viewBox="0,0,82.3056,105.31809"><g transform="translate(-182.95037,-121.84225)"><g data-paper-data="{&quot;isPaintingLayer&quot;:true}" fill-rule="nonzero" stroke="#000000" stroke-width="2" stroke-linejoin="miter" stroke-miterlimit="10" stroke-dasharray="" stroke-dashoffset="0" style="mix-blend-mode: normal"><path d="M248.14483,199.51807c-0.08193,-2.11073 1.56274,-3.88824 3.67347,-3.97018c2.11073,-0.08193 3.88824,1.56274 3.97018,3.67347c0.08193,2.11073 -1.56274,3.88824 -3.67347,3.97018c-2.11073,0.08193 -3.88824,-1.56274 -3.97018,-3.67347z" fill="#1d28e8" stroke-linecap="butt"/><path d="M204.63889,169.95655c-4.59821,-7.93604 -1.89235,-18.09706 6.04369,-22.69526c7.93604,-4.59821 18.09706,-1.89235 22.69526,6.04369c4.59821,7.93604 1.89235,18.09706 -6.04369,22.69526c-7.93604,4.59821 -18.09706,1.89235 -22.69526,-6.04369z" fill="#1d28e8" stroke-linecap="butt"/><path d="M232.19097,205.40279l-7.43938,-24.45873l7.51095,-2.28453l7.43938,24.45873z" fill="#1d28e8" stroke-linecap="butt"/><path d="M217.61684,211.05022c-0.08193,-2.11073 1.56274,-3.88824 3.67347,-3.97018c2.11073,-0.08193 3.88824,1.56274 3.97018,3.67347c0.08193,2.11073 -1.56274,3.88824 -3.67347,3.97018c-2.11073,0.08193 -3.88824,-1.56274 -3.97018,-3.67347z" fill="#1d28e8" stroke-linecap="butt"/><path d="M229.28716,214.68624c4.11347,0 7.4481,2.47844 7.4481,5.53575c0,3.05731 -3.33463,5.53575 -7.4481,5.53575c-4.11347,0 -7.4481,-2.47844 -7.4481,-5.53575c0,-3.05731 3.33463,-5.53575 7.4481,-5.53575z" data-paper-data="{&quot;index&quot;:null}" fill="#1d28e8" stroke-linecap="butt"/><path d="M198.22042,177.84861c0,0 1.04451,-2.87912 2.19073,-4.56354c0.90806,-1.33442 4.14002,-4.73977 4.14002,-4.73977" fill="none" stroke-linecap="round"/><path d="M192.3804,186.22274c-2.02066,-1.98845 -2.04679,-5.23847 -0.05835,-7.25913c1.98845,-2.02066 5.23847,-2.04679 7.25913,-0.05835c2.02066,1.98845 2.04679,5.23847 0.05835,7.25913c-1.98845,2.02066 -5.23847,2.04679 -7.25913,0.05835z" fill="#1d28e8" stroke-linecap="butt"/><path d="M257.91502,214.28364c4.94728,0 6.34095,2.65869 6.34095,5.93835c0,3.27966 -4.01056,5.93835 -8.95785,5.93835c-4.94728,0 -8.95785,-0.84699 -8.95785,-4.12665c0,-1.26666 3.40667,-7.75005 11.57475,-7.75005z" data-paper-data="{&quot;index&quot;:null}" fill="#1d28e8" stroke-linecap="butt"/><path d="M204.06337,169.35954l-19.68999,-11.97208l23.24911,-33.83262l17.13063,22.7849l13.96789,-15.42591z" fill="#2530ff" stroke-linecap="round"/></g></g></svg>