<svg version="1.1" xmlns="http://www.w3.org/2000/svg" xmlns:xlink="http://www.w3.org/1999/xlink" width="178.14752" height="73.17471" viewBox="0,0,178.14752,73.17471"><defs><linearGradient x1="357.20874" y1="199.53048" x2="394.03311" y2="214.28225" gradientUnits="userSpaceOnUse" id="color-1"><stop offset="0" stop-color="#ffffff" stop-opacity="0"/><stop offset="1" stop-color="#ffffff"/></linearGradient></defs><g transform="translate(-216.5881,-153.5077)"><g data-paper-data="{&quot;isPaintingLayer&quot;:true}" fill-rule="nonzero" stroke-linejoin="miter" stroke-miterlimit="10" stroke-dasharray="" stroke-dashoffset="0" style="mix-blend-mode: normal"><path d="M295.71096,162.10068c6.07286,6.87345 5.42387,17.36852 -1.4496,23.4414c-6.87345,6.07285 -17.36853,5.42388 -23.44141,-1.4496c-6.07285,-6.87343 -5.42387,-17.36852 1.4496,-23.4414c6.87343,-6.07285 17.36852,-5.42387 23.4414,1.4496z" data-paper-data="{&quot;index&quot;:null}" fill="#2d6a2b" stroke="#000000" stroke-width="2" stroke-linecap="butt"/><path d="M276.16845,155.91992c15.09364,-4.82955 24.9094,4.27746 24.9094,4.27746l-38.38395,14.37945c0,0 -2.75354,-13.46435 13.47457,-18.65692z" data-paper-data="{&quot;index&quot;:null}" fill="#367e33" stroke="#000000" stroke-width="2" stroke-linecap="round"/><path d="M253.82348,209.41461l12.41883,-22.34606l6.86218,3.81365l-12.41884,22.34605z" data-paper-data="{&quot;index&quot;:null}" fill="#2d6a2b" stroke="#000000" stroke-width="2" stroke-linecap="butt"/><path d="M280.34952,213.38271c4.93244,-0.38296 6.52773,2.15988 6.7816,5.4297c0.25387,3.26982 -3.53887,6.23098 -8.4713,6.61393c-4.93244,0.38296 -8.99653,-0.15105 -9.2504,-3.42087c-0.09805,-1.26286 2.79655,-7.9905 10.94011,-8.62276z" data-paper-data="{&quot;index&quot;:null}" fill="#2d6a2b" stroke="#000000" stroke-width="2" stroke-linecap="butt"/><path d="M228.00718,214.61091c4.11347,0 7.4481,2.47844 7.4481,5.53575c0,3.05731 -3.33463,5.53575 -7.4481,5.53575c-4.11347,0 -7.4481,-2.47844 -7.4481,-5.53575c0,-3.05731 3.33463,-5.53575 7.4481,-5.53575z" data-paper-data="{&quot;index&quot;:null}" fill="#2d6a2b" stroke="#000000" stroke-width="2" stroke-linecap="butt"/><path d="M380.1715,206.53573c-6.10549,0.24048 -23.44289,-11.71755 -23.44289,-11.71755c0,0 11.33189,-4.03734 18.59871,-4.69786c7.26682,-0.66051 19.4083,-1.75676 19.4083,-1.75676c0,0 -0.47627,17.61729 -14.56412,18.17216z" data-paper-data="{&quot;index&quot;:null}" fill="url(#color-1)" stroke="none" stroke-width="0" stroke-linecap="round"/><g data-paper-data="{&quot;index&quot;:null}" stroke="#61ff00" stroke-width="3" stroke-linecap="round"><path d="M389.59786,170.48347c0,0 -33.95854,7.94679 -49.16432,10.81271c-13.63472,2.56981 -37.87213,5.59149 -37.87213,5.59149" fill="none"/><path d="M358.79076,176.53133c0,0 -15.6801,-0.69831 -17.98273,-4.88189c-2.30258,-4.18359 3.21608,-6.01875 3.21608,-6.01875z" fill="#61ff00"/><path d="M320.79879,195.17273c0,0 -4.98635,-1.76746 -1.4419,-5.98872c3.54445,-4.22126 19.46101,-5.12315 19.46101,-5.12315z" data-paper-data="{&quot;index&quot;:null}" fill="#61ff00"/><path d="M363.30343,183.94603c0,0 -4.18973,-1.51685 -1.16697,-5.06531c3.02277,-3.54845 16.44976,-4.23369 16.44976,-4.23369z" data-paper-data="{&quot;index&quot;:null}" fill="#61ff00"/></g><path d="M300.39389,185.44728c0.97652,-1.87305 3.28656,-2.59983 5.1596,-1.62331c1.87305,0.97652 2.59983,3.28656 1.62331,5.1596c-0.97652,1.87305 -3.28656,2.59983 -5.1596,1.62331c-1.87305,-0.97652 -2.59983,-3.28656 -1.62331,-5.1596z" data-paper-data="{&quot;index&quot;:null}" fill="#2d6a2b" stroke="#000000" stroke-width="2" stroke-linecap="butt"/><path d="M217.5881,184.11305c0.26753,-2.09531 2.18299,-3.57703 4.2783,-3.3095c2.09531,0.26753 3.57703,2.18299 3.3095,4.2783c-0.26753,2.09531 -2.18299,3.57703 -4.2783,3.3095c-2.09531,-0.26753 -3.57703,-2.18299 -3.3095,-4.2783z" data-paper-data="{&quot;index&quot;:null}" fill="#2d6a2b" stroke="#000000" stroke-width="2" stroke-linecap="butt"/><path d="M257.80998,167.16846c0,0 3.00539,-0.58988 5.03967,-0.47653c1.61158,0.08982 6.19591,1.10267 6.19591,1.10267" data-paper-data="{&quot;index&quot;:null}" fill="none" stroke="#000000" stroke-width="2" stroke-linecap="round"/><path d="M250.64208,166.93214c0.66155,-2.75669 3.43258,-4.45513 6.18927,-3.79359c2.75669,0.66155 4.45513,3.43258 3.79359,6.18927c-0.66155,2.75669 -3.43258,4.45513 -6.18927,3.79359c-2.75669,-0.66155 -4.45513,-3.43258 -3.79359,-6.18927z" data-paper-data="{&quot;index&quot;:null}" fill="#2d6a2b" stroke="#000000" stroke-width="2" stroke-linecap="butt"/></g></g></svg>