<svg version="1.1" xmlns="http://www.w3.org/2000/svg" xmlns:xlink="http://www.w3.org/1999/xlink" width="89.36523" height="84.48397" viewBox="0,0,89.36523,84.48397"><g transform="translate(-220.088,-142.76294)"><g data-paper-data="{&quot;isPaintingLayer&quot;:true}" fill-rule="nonzero" stroke="#000000" stroke-width="2" stroke-linejoin="miter" stroke-miterlimit="10" stroke-dasharray="" stroke-dashoffset="0" style="mix-blend-mode: normal"><g><path d="M236.12569,148.70634c0,0 3.03625,-0.40192 5.05954,-0.16231c1.60288,0.18982 6.11539,1.4857 6.11539,1.4857" fill="#181818" stroke-linecap="round"/><path d="M225.62759,147.39165c0.83164,-2.71023 3.70289,-4.23316 6.41313,-3.4015c2.71023,0.83164 4.23316,3.70289 3.4015,6.41313c-0.83164,2.71023 -3.70289,4.23316 -6.41313,3.4015c-2.71023,-0.83164 -4.23316,-3.70289 -3.4015,-6.41313z" fill="#181818" stroke-linecap="butt"/><path d="M244.73516,162.82644c0.62317,-9.15074 8.54649,-16.06368 17.69721,-15.44051c9.15074,0.62317 16.06368,8.54649 15.44051,17.69721c-0.62317,9.15074 -8.54649,16.06368 -17.69721,15.44051c-9.15074,-0.62317 -16.06368,-8.54649 -15.44051,-17.69721z" fill="#181818" stroke-linecap="butt"/><path d="M267.38728,167.79551l0.35634,-5.23262c0,0 4.88849,1.62271 7.3653,1.79138c2.61154,0.17785 7.92116,-0.75036 7.92116,-0.75036l-0.35634,5.23262z" fill="#ff0000" stroke-linecap="butt"/><g><path d="M247.09939,155.89025l0.81959,-12.03503l29.56432,2.01335l-0.81959,12.03503z" fill="#343434" stroke-linecap="butt"/><path d="M287.39061,158.6341l-51.01809,-3.47436" fill="none" stroke-linecap="round"/></g></g><path d="M228.5361,214.34388c4.11347,0 7.4481,2.47844 7.4481,5.53575c0,3.05731 -3.33463,5.53575 -7.4481,5.53575c-4.11347,0 -7.4481,-2.47844 -7.4481,-5.53575c0,-3.05731 3.33463,-5.53575 7.4481,-5.53575z" data-paper-data="{&quot;index&quot;:null}" fill="#181818" stroke-linecap="butt"/><path d="M262.32535,214.37022c4.94728,0 6.34095,2.65869 6.34095,5.93835c0,3.27966 -4.01056,5.93835 -8.95785,5.93835c-4.94728,0 -8.95785,-0.84699 -8.95785,-4.12665c0,-1.26666 3.40667,-7.75005 11.57475,-7.75005z" data-paper-data="{&quot;index&quot;:null}" fill="#181818" stroke-linecap="butt"/><path d="M245.39531,185.40952c0,-2.11232 57.1209,-4.69957 59.23322,-4.69957c2.11232,0 3.8247,1.71238 3.8247,3.8247c0,2.11232 -1.71238,3.8247 -3.8247,3.8247c-2.11232,0 -59.23322,-0.83751 -59.23322,-2.94983z" fill="#181818" stroke-linecap="butt"/><path d="M240.44886,206.47434l5.83883,-24.88939l7.6432,1.79303l-5.83883,24.88939z" fill="#181818" stroke-linecap="butt"/><path d="M244.57853,179.50357l13.97287,3.58808l-4.61278,3.26024l3.04641,5.05702l-16.87077,-2.71706l5.36675,-4.01387z" fill="#0e0e0e" stroke-linecap="round"/><path d="M226.29575,204.14847c0.14352,-2.10744 1.96829,-3.69952 4.07572,-3.556c2.10744,0.14352 3.69952,1.96829 3.556,4.07572c-0.14352,2.10744 -1.96829,3.69952 -4.07572,3.556c-2.10744,-0.14352 -3.69952,-1.96829 -3.556,-4.07572z" fill="#181818" stroke-linecap="butt"/></g></g></svg>