<svg version="1.1" xmlns="http://www.w3.org/2000/svg" xmlns:xlink="http://www.w3.org/1999/xlink" width="62.81412" height="116.21692" viewBox="0,0,62.81412,116.21692"><g transform="translate(-201.74021,-111.27117)"><g data-paper-data="{&quot;isPaintingLayer&quot;:true}" fill-rule="nonzero" stroke="#000000" stroke-width="2" stroke-linejoin="miter" stroke-miterlimit="10" stroke-dasharray="" stroke-dashoffset="0" style="mix-blend-mode: normal"><path d="M252.05632,194.22974c0.27686,-2.0941 2.1989,-3.56727 4.293,-3.29041c2.0941,0.27686 3.56727,2.1989 3.29041,4.293c-0.27686,2.0941 -2.1989,3.56727 -4.293,3.29041c-2.0941,-0.27686 -3.56727,-2.1989 -3.29041,-4.293z" fill="#ff6b00" stroke-linecap="butt"/><path d="M226.26713,163.29513c1.20214,-9.09281 9.54785,-15.48945 18.64065,-14.2873c9.09281,1.20214 15.48945,9.54785 14.2873,18.64065c-1.20214,9.09281 -9.54785,15.48945 -18.64065,14.2873c-9.09281,-1.20214 -15.48945,-9.54785 -14.2873,-18.64065z" fill="#ff6b00" stroke-linecap="butt"/><path d="M235.81999,208.63046l1.22599,-25.53568l7.84167,0.37649l-1.22599,25.53568z" fill="#ff6b00" stroke-linecap="butt"/><path d="M247.0716,197.03557c0.27686,-2.0941 2.1989,-3.56727 4.293,-3.29041c2.0941,0.27686 3.56727,2.1989 3.29041,4.293c-0.27686,2.0941 -2.1989,3.56727 -4.293,3.29041c-2.0941,-0.27686 -3.56727,-2.1989 -3.29041,-4.293z" fill="#ff6b00" stroke-linecap="butt"/><path d="M222.81413,215.01801c4.11347,0 7.4481,2.47844 7.4481,5.53575c0,3.05731 -3.33463,5.53575 -7.4481,5.53575c-4.11347,0 -7.4481,-2.47844 -7.4481,-5.53575c0,-3.05731 3.33463,-5.53575 7.4481,-5.53575z" data-paper-data="{&quot;index&quot;:null}" fill="#ff6b00" stroke-linecap="butt"/><path d="M217.68208,160.03914c0,0 2.16241,-2.16895 3.91262,-3.21194c1.38654,-0.82628 5.75407,-2.5487 5.75407,-2.5487" fill="none" stroke-linecap="round"/><path d="M208.85253,165.16466c-0.99222,-2.65566 0.35625,-5.61284 3.01191,-6.60505c2.65566,-0.99222 5.61284,0.35625 6.60505,3.01191c0.99222,2.65566 -0.35625,5.61284 -3.01191,6.60505c-2.65566,0.99222 -5.61284,-0.35625 -6.60505,-3.01191z" fill="#ff6b00" stroke-linecap="butt"/><path d="M257.67798,214.81652c4.93117,0.39887 6.10596,3.16127 5.84154,6.43025c-0.26442,3.26899 -4.47627,5.59567 -9.40746,5.19682c-4.93117,-0.39887 -8.8604,-1.56643 -8.59598,-4.83542c0.10212,-1.26253 4.02041,-7.45016 12.1619,-6.79163z" data-paper-data="{&quot;index&quot;:null}" fill="#ff6b00" stroke-linecap="butt"/><path d="M221.30585,166.02411l5.78856,-11.52423l-23.5957,-24.70154l44.21355,-17.06477l-0.26959,33.6278l12.04391,4.53123z" data-paper-data="{&quot;index&quot;:null}" fill="#ffa340" stroke-linecap="butt"/></g></g></svg>