<svg version="1.1" xmlns="http://www.w3.org/2000/svg" xmlns:xlink="http://www.w3.org/1999/xlink" width="56.85385" height="88.4287" viewBox="0,0,56.85385,88.4287"><g transform="translate(-202.12948,-138.61785)"><g data-paper-data="{&quot;isPaintingLayer&quot;:true}" fill-rule="nonzero" stroke="#000000" stroke-width="2" stroke-linejoin="miter" stroke-miterlimit="10" stroke-dasharray="" stroke-dashoffset="0" style="mix-blend-mode: normal"><path d="M221.05258,157.19159c1.55353,-9.0394 10.14081,-15.10789 19.1802,-13.55436c9.0394,1.55353 15.10789,10.14081 13.55436,19.1802c-1.55353,9.0394 -10.14081,15.10789 -19.1802,13.55436c-9.0394,-1.55353 -15.10789,-10.14081 -13.55436,-19.1802z" fill="#2d6a2b" stroke-linecap="butt"/><path d="M232.9694,140.58885c15.56856,-2.96013 24.20523,7.2719 24.20523,7.2719l-39.84654,9.60987c0,0 -1.09744,-13.69913 15.6413,-16.88176z" fill="#367e33" stroke-linecap="round"/><path d="M227.70666,204.92248l2.16573,-25.47318l7.82248,0.66506l-2.16573,25.47318z" data-paper-data="{&quot;index&quot;:null}" fill="#2d6a2b" stroke-linecap="butt"/><path d="M215.27561,193.22039c0,-2.11232 1.71238,-3.8247 3.8247,-3.8247c2.11232,0 3.8247,1.71238 3.8247,3.8247c0,2.11232 -1.71238,3.8247 -3.8247,3.8247c-2.11232,0 -3.8247,-1.71238 -3.8247,-3.8247z" fill="#2d6a2b" stroke-linecap="butt"/><path d="M247.1463,184.23583c0,-2.11232 1.71238,-3.8247 3.8247,-3.8247c2.11232,0 3.8247,1.71238 3.8247,3.8247c0,2.11232 -1.71238,3.8247 -3.8247,3.8247c-2.11232,0 -3.8247,-1.71238 -3.8247,-3.8247z" fill="#2d6a2b" stroke-linecap="butt"/><path d="M251.70817,215.6188c4.04025,2.85515 3.64403,5.83071 1.75129,8.50909c-1.89275,2.67838 -6.7024,2.53505 -10.74265,-0.3201c-4.04025,-2.85515 -6.82671,-5.86143 -4.93397,-8.5398c0.73101,-1.03443 7.25478,-4.36312 13.92533,0.35082z" data-paper-data="{&quot;index&quot;:null}" fill="#2d6a2b" stroke-linecap="butt"/><path d="M213.33886,143.90085c0,0 2.96048,-0.78482 4.99781,-0.80449c1.614,-0.01558 6.25468,0.69586 6.25468,0.69586" fill="none" stroke-linecap="round"/><path d="M203.12948,143.88238c0.48018,-2.794 3.13443,-4.66972 5.92843,-4.18953c2.794,0.48018 4.66972,3.13443 4.18953,5.92843c-0.48018,2.794 -3.13443,4.66972 -5.92843,4.18953c-2.794,-0.48018 -4.66972,-3.13443 -4.18953,-5.92843z" fill="#2d6a2b" stroke-linecap="butt"/><path d="M236.99461,213.07697c3.66821,3.3196 2.9176,6.22607 0.71697,8.65781c-2.20064,2.43174 -6.95829,1.71198 -10.6265,-1.60762c-3.66821,-3.3196 -6.07357,-6.63868 -3.87293,-9.07043c0.84992,-0.93919 7.72616,-3.46051 13.78248,2.02024z" data-paper-data="{&quot;index&quot;:null}" fill="#2d6a2b" stroke-linecap="butt"/></g></g></svg>