<svg version="1.1" xmlns="http://www.w3.org/2000/svg" xmlns:xlink="http://www.w3.org/1999/xlink" width="398.05066" height="165.80772" viewBox="0,0,398.05066,165.80772"><defs><linearGradient x1="284.94748" y1="246.69681" x2="546.06317" y2="246.69681" gradientUnits="userSpaceOnUse" id="color-1"><stop offset="0" stop-color="#ffb33b"/><stop offset="1" stop-color="#ff4f00"/></linearGradient></defs><g transform="translate(-182.18893,-145.63855)"><g data-paper-data="{&quot;isPaintingLayer&quot;:true}" fill-rule="nonzero" stroke-linejoin="miter" stroke-miterlimit="10" stroke-dasharray="" stroke-dashoffset="0" style="mix-blend-mode: normal"><path d="M271.94777,198.54719c0.98391,-1.86917 3.2968,-2.58682 5.16598,-1.60291c1.86917,0.98391 2.58682,3.2968 1.60291,5.16598c-0.98391,1.86917 -3.2968,2.58682 -5.16598,1.60291c-1.86917,-0.98391 -2.58682,-3.2968 -1.60291,-5.16598z" fill="#e80000" stroke="#000000" stroke-width="2" stroke-linecap="butt"/><path d="M220.94779,179.21386c0.98391,-1.86917 3.2968,-2.58682 5.16598,-1.60291c1.86917,0.98391 2.58682,3.2968 1.60291,5.16598c-0.98391,1.86917 -3.2968,2.58682 -5.16598,1.60291c-1.86917,-0.98391 -2.58682,-3.2968 -1.60291,-5.16598z" fill="#e80000" stroke="#000000" stroke-width="2" stroke-linecap="butt"/><path d="M241.65928,210.7852c1.86698,4.58148 -0.06918,6.87543 -3.10634,8.1131c-3.03717,1.23767 -7.01276,-1.47302 -8.87975,-6.05452c-1.86698,-4.58148 -2.59611,-8.61514 0.44105,-9.85281c1.17301,-0.478 8.46261,0.2301 11.54504,7.79422z" data-paper-data="{&quot;index&quot;:null}" fill="#e80000" stroke="#000000" stroke-width="2" stroke-linecap="butt"/><path d="M240.62813,151.84527c0,0 3.05807,0.16912 5.00162,0.78042c1.53971,0.48428 5.73293,2.59589 5.73293,2.59589" data-paper-data="{&quot;index&quot;:null}" fill="none" stroke="#000000" stroke-width="2" stroke-linecap="round"/><path d="M230.24809,149.38151c1.32065,-2.50857 4.42482,-3.47158 6.93339,-2.15094c2.50857,1.32065 3.47158,4.42482 2.15094,6.93339c-1.32065,2.50857 -4.42482,3.47159 -6.93338,2.15094c-2.50857,-1.32065 -3.47159,-4.42482 -2.15094,-6.93339z" data-paper-data="{&quot;index&quot;:null}" fill="#e80000" stroke="#000000" stroke-width="2" stroke-linecap="butt"/><path d="M247.64151,161.37652c3.72966,-8.37937 13.54597,-12.1487 21.92534,-8.41904c8.37937,3.72966 12.1487,13.54597 8.41904,21.92534c-3.72966,8.37937 -13.54597,12.1487 -21.92534,8.41904c-8.37937,-3.72966 -12.1487,-13.54597 -8.41904,-21.92534z" data-paper-data="{&quot;index&quot;:null}" fill="#e80000" stroke="#000000" stroke-width="2" stroke-linecap="butt"/><path d="M249.10102,157.79044l2.21606,-5.14288l30.67354,13.21717l-2.21605,5.14287z" data-paper-data="{&quot;index&quot;:null}" fill="#ff2121" stroke="#000000" stroke-width="2" stroke-linecap="butt"/><path d="M191.74964,218.39737c-4.13387,2.71785 -6.75898,1.26192 -8.5607,-1.47852c-1.80172,-2.74043 0.08886,-7.16524 4.22274,-9.8831c4.13387,-2.71785 7.95035,-4.21337 9.75206,-1.47294c0.69586,1.05841 1.41102,8.34731 -5.4141,12.83455z" data-paper-data="{&quot;index&quot;:null}" fill="#e80000" stroke="#000000" stroke-width="2" stroke-linecap="butt"/><path d="M217.58633,194.77345l20.00161,-15.92199l4.88942,6.14223l-20.00161,15.92199z" fill="#e80000" stroke="#000000" stroke-width="2" stroke-linecap="butt"/><g stroke-width="0" stroke-linecap="butt"><path d="M309.78224,182.65917c16.88973,3.49163 25.4663,19.24561 25.4663,19.24561l44.26405,94.11953c0,0 -71.20526,-45.1958 -85.02196,-58.91754c-23.55834,-23.39656 -22.7927,-36.80535 -13.24856,-46.4229c7.49251,-7.55017 11.65043,-11.51631 28.54016,-8.02466z" data-paper-data="{&quot;index&quot;:null}" fill="#e82d00" stroke="#000000"/><path d="M277.51287,203.8785c0.07917,-13.87077 8.71231,-24.52559 40.69432,-25.87884c18.75702,-0.79363 98.00134,14.38601 98.00134,14.38601l-94.33259,40.41677c0,0 -16.58309,5.95661 -30.44502,-3.10218c-13.86191,-9.0588 -13.98018,-14.93264 -13.91803,-25.82176z" data-paper-data="{&quot;index&quot;:null}" fill="#e82d00" stroke="#000000"/><path d="M358.05936,262.1601c-74.47817,-32.81774 -103.45065,-64.43231 -64.7118,-70.61306c38.73882,-6.18077 130.51936,15.4128 204.99762,48.23059c74.47817,32.81774 103.45065,64.43231 64.7118,70.61306c-38.73882,6.18077 -130.51936,-15.4128 -204.99762,-48.23059z" fill="#e82d00" stroke="none"/><path d="M355.27204,256.30697c-63.95608,-28.18133 -88.83539,-55.32947 -55.56947,-60.63702c33.26589,-5.30756 112.07991,13.23532 176.03606,41.41669c63.95608,28.18133 88.83539,55.32947 55.56947,60.63702c-33.26589,5.30756 -112.07991,-13.23532 -176.03606,-41.41669z" fill="url(#color-1)" stroke="none"/></g></g></g></svg>