<svg version="1.1" xmlns="http://www.w3.org/2000/svg" xmlns:xlink="http://www.w3.org/1999/xlink" width="72.22454" height="92.96803" viewBox="0,0,72.22454,92.96803"><g transform="translate(-212.78279,-134.04919)"><g data-paper-data="{&quot;isPaintingLayer&quot;:true}" fill-rule="nonzero" stroke="#000000" stroke-width="2" stroke-linejoin="miter" stroke-miterlimit="10" stroke-dasharray="" stroke-dashoffset="0" style="mix-blend-mode: normal"><path d="M230.51503,205.92945c0,-2.11232 1.71238,-3.8247 3.8247,-3.8247c2.11232,0 3.8247,1.71238 3.8247,3.8247c0,2.11232 -1.71238,3.8247 -3.8247,3.8247c-2.11232,0 -3.8247,-1.71238 -3.8247,-3.8247z" fill="#1d28e8" stroke-linecap="butt"/><path d="M236.53397,206.26661v-25.56509h7.8507v25.56509z" fill="#1d28e8" stroke-linecap="butt"/><path d="M222.10038,207.24028c0,-2.11232 1.71238,-3.8247 3.8247,-3.8247c2.11232,0 3.8247,1.71238 3.8247,3.8247c0,2.11232 -1.71238,3.8247 -3.8247,3.8247c-2.11232,0 -3.8247,-1.71238 -3.8247,-3.8247z" fill="#1d28e8" stroke-linecap="butt"/><path d="M229.28717,214.68624c4.11347,0 7.4481,2.47844 7.4481,5.53575c0,3.05731 -3.33463,5.53575 -7.4481,5.53575c-4.11347,0 -7.4481,-2.47844 -7.4481,-5.53575c0,-3.05731 3.33463,-5.53575 7.4481,-5.53575z" data-paper-data="{&quot;index&quot;:null}" fill="#1d28e8" stroke-linecap="butt"/><path d="M255.18793,211.79059c4.19476,-2.6229 6.786,-1.1075 8.52478,1.6733c1.73878,2.7808 -0.25218,7.16136 -4.44695,9.78426c-4.19476,2.6229 -8.04433,4.03103 -9.78311,1.25023c-0.67155,-1.07399 -1.22035,-8.37731 5.70529,-12.70779z" data-paper-data="{&quot;index&quot;:null}" fill="#1d28e8" stroke-linecap="butt"/><path d="M233.98697,158.96477c4.61137,-7.92841 14.77686,-10.61738 22.70526,-6.00602c7.92841,4.61137 10.61738,14.77686 6.00602,22.70526c-4.61137,7.92841 -14.77686,10.61738 -22.70526,6.00602c-7.92841,-4.61137 -10.61738,-14.77686 -6.00602,-22.70526z" fill="#1d28e8" stroke-linecap="butt"/><path d="M223.95077,157.30461c0,0 3.01815,-0.52068 5.04927,-0.36059c1.60908,0.12683 6.16894,1.24475 6.16894,1.24475" fill="none" stroke-linecap="round"/><path d="M213.78279,156.38583c0.72472,-2.74076 3.53404,-4.37509 6.27481,-3.65037c2.74076,0.72472 4.37509,3.53404 3.65037,6.27481c-0.72472,2.74076 -3.53404,4.37509 -6.27481,3.65037c-2.74076,-0.72472 -4.37509,-3.53404 -3.65037,-6.27481z" fill="#1d28e8" stroke-linecap="butt"/><path d="M234.22001,158.16895l0.63241,-23.03533l40.90875,3.41209l-11.29127,26.17474l20.32215,4.48005z" fill="#2530ff" stroke-linecap="round"/></g></g></svg>