<svg version="1.1" xmlns="http://www.w3.org/2000/svg" xmlns:xlink="http://www.w3.org/1999/xlink" width="79.53445" height="117.08002" viewBox="0,0,79.53445,117.08002"><g transform="translate(-184.67739,-110.00949)"><g data-paper-data="{&quot;isPaintingLayer&quot;:true}" fill-rule="nonzero" stroke="#000000" stroke-width="2" stroke-linejoin="miter" stroke-miterlimit="10" stroke-dasharray="" stroke-dashoffset="0" style="mix-blend-mode: normal"><path d="M213.4346,164.52803c0,-9.17193 7.43532,-16.60724 16.60724,-16.60724c9.17193,0 16.60724,7.43532 16.60724,16.60724c0,9.17193 -7.43532,16.60724 -16.60724,16.60724c-9.17193,0 -16.60724,-7.43532 -16.60724,-16.60724z" fill="#ff6b00" stroke-linecap="butt"/><path d="M227.56769,209.17972l-2.13149,-25.47608l7.82337,-0.65455l2.13149,25.47608z" fill="#ff6b00" stroke-linecap="butt"/><path d="M222.81413,215.01801c4.11347,0 7.4481,2.47844 7.4481,5.53575c0,3.05731 -3.33463,5.53575 -7.4481,5.53575c-4.11347,0 -7.4481,-2.47844 -7.4481,-5.53575c0,-3.05731 3.33463,-5.53575 7.4481,-5.53575z" data-paper-data="{&quot;index&quot;:null}" fill="#ff6b00" stroke-linecap="butt"/><path d="M204.49686,162.42535c0,0 1.85948,-2.43366 3.45789,-3.69705c1.26628,-1.00088 5.37038,-3.28089 5.37038,-3.28089" fill="none" stroke-linecap="round"/><path d="M196.41527,168.66392c-1.33173,-2.5027 -0.38248,-5.61111 2.12022,-6.94284c2.5027,-1.33173 5.61111,-0.38248 6.94284,2.12022c1.33173,2.5027 0.38248,5.61111 -2.12022,6.94284c-2.5027,1.33173 -5.61111,0.38248 -6.94284,-2.12022z" fill="#ff6b00" stroke-linecap="butt"/><path d="M255.55932,212.53484c4.7816,-1.26957 6.81088,0.94244 7.65251,4.11228c0.84163,3.16984 -2.35236,6.76867 -7.13397,8.03826c-4.7816,1.26957 -8.87522,1.48015 -9.71685,-1.68969c-0.32505,-1.22424 1.30377,-8.36473 9.19832,-10.46083z" data-paper-data="{&quot;index&quot;:null}" fill="#ff6b00" stroke-linecap="butt"/><path d="M208.8738,167.88373l4.22817,-12.18351l-26.62972,-21.39582l41.5955,-22.71252l4.14025,33.37304l12.53391,2.91357z" data-paper-data="{&quot;index&quot;:null}" fill="#ffa340" stroke-linecap="butt"/><path d="M241.13681,149.59674c0,-2.11232 1.71238,-3.8247 3.8247,-3.8247c2.11232,0 3.8247,1.71238 3.8247,3.8247c0,2.11232 -1.71238,3.8247 -3.8247,3.8247c-2.11232,0 -3.8247,-1.71238 -3.8247,-3.8247z" fill="#ff6b00" stroke-linecap="butt"/><path d="M209.67802,167.85381c0,-2.11232 1.71238,-3.8247 3.8247,-3.8247c2.11232,0 3.8247,1.71238 3.8247,3.8247c0,2.11232 -1.71238,3.8247 -3.8247,3.8247c-2.11232,0 -3.8247,-1.71238 -3.8247,-3.8247z" fill="#ff6b00" stroke-linecap="butt"/></g></g></svg>