<svg version="1.1" xmlns="http://www.w3.org/2000/svg" xmlns:xlink="http://www.w3.org/1999/xlink" width="64.37169" height="82.12815" viewBox="0,0,64.37169,82.12815"><g transform="translate(-205.58241,-144.68982)"><g data-paper-data="{&quot;isPaintingLayer&quot;:true}" fill-rule="nonzero" stroke="#000000" stroke-width="2" stroke-linejoin="miter" stroke-miterlimit="10" stroke-dasharray="" stroke-dashoffset="0" style="mix-blend-mode: normal"><path d="M236.26379,205.61184v-25.56509h7.8507v25.56509z" fill="#181818" stroke-linecap="butt"/><path d="M233.35524,178.41074l16.85041,0.2672l-4.37673,3.74077l4.8144,3.74077l-19.91412,1.06879l5.03324,-4.54236z" fill="#0e0e0e" stroke-linecap="round"/><path d="M250.84458,200.62288c0,-2.11232 1.71238,-3.8247 3.8247,-3.8247c2.11232,0 3.8247,1.71238 3.8247,3.8247c0,2.11232 -1.71238,3.8247 -3.8247,3.8247c-2.11232,0 -3.8247,-1.71238 -3.8247,-3.8247z" fill="#181818" stroke-linecap="butt"/><path d="M228.09317,154.58373c0,0 -4.69447,-0.06337 -6.28382,-0.34482c-2.00621,-0.35528 -4.79679,-1.61743 -4.79679,-1.61743" data-paper-data="{&quot;index&quot;:null}" fill="#181818" stroke-linecap="round"/><path d="M211.69198,145.68988c2.83494,-0.01301 5.14362,2.27464 5.15662,5.10957c0.01301,2.83494 -2.27464,5.14362 -5.10957,5.15662c-2.83494,0.01301 -5.14362,-2.27464 -5.15662,-5.10957c-0.01301,-2.83494 2.27464,-5.14362 5.10957,-5.15662z" data-paper-data="{&quot;index&quot;:null}" fill="#181818" stroke-linecap="butt"/><path d="M226.68206,165.05759c0,-9.17193 7.43532,-16.60724 16.60724,-16.60724c9.17193,0 16.60724,7.43532 16.60724,16.60724c0,9.17193 -7.43532,16.60724 -16.60724,16.60724c-9.17193,0 -16.60724,-7.43532 -16.60724,-16.60724z" fill="#181818" stroke-linecap="butt"/><path d="M228.5361,214.34387c4.11347,0 7.4481,2.47844 7.4481,5.53575c0,3.05731 -3.33463,5.53575 -7.4481,5.53575c-4.11347,0 -7.4481,-2.47844 -7.4481,-5.53575c0,-3.05731 3.33463,-5.53575 7.4481,-5.53575z" data-paper-data="{&quot;index&quot;:null}" fill="#181818" stroke-linecap="butt"/><path d="M254.60444,213.94127c4.94728,0 6.34095,2.65869 6.34095,5.93835c0,3.27966 -4.01056,5.93835 -8.95785,5.93835c-4.94728,0 -8.95785,-0.84699 -8.95785,-4.12665c0,-1.26666 3.40667,-7.75005 11.57475,-7.75005z" data-paper-data="{&quot;index&quot;:null}" fill="#181818" stroke-linecap="butt"/><path d="M242.11302,168.69059v-5.24474h19.39678v5.24474z" fill="#ff0000" stroke-linecap="butt"/><g><path d="M228.56956,157.9768v-12.06291h29.6328v12.06291z" fill="#343434" stroke-linecap="butt"/><path d="M268.9541,157.9768h-51.13626" fill="none" stroke-linecap="round"/></g><path d="M221.01811,201.9987c0,-2.11232 1.71238,-3.8247 3.8247,-3.8247c2.11232,0 3.8247,1.71238 3.8247,3.8247c0,2.11232 -1.71238,3.8247 -3.8247,3.8247c-2.11232,0 -3.8247,-1.71238 -3.8247,-3.8247z" fill="#181818" stroke-linecap="butt"/></g></g></svg>