<svg version="1.1" xmlns="http://www.w3.org/2000/svg" xmlns:xlink="http://www.w3.org/1999/xlink" width="64.39208" height="85.43373" viewBox="0,0,64.39208,85.43373"><g transform="translate(-203.26707,-139.75023)"><g data-paper-data="{&quot;isPaintingLayer&quot;:true}" fill-rule="nonzero" stroke="#000000" stroke-width="2" stroke-linejoin="miter" stroke-miterlimit="10" stroke-dasharray="" stroke-dashoffset="0" style="mix-blend-mode: normal"><path d="M238.22232,209.51584c0,-2.11232 1.71238,-3.8247 3.8247,-3.8247c2.11232,0 3.8247,1.71238 3.8247,3.8247c0,2.11232 -1.71238,3.8247 -3.8247,3.8247c-2.11232,0 -3.8247,-1.71238 -3.8247,-3.8247z" fill="#181818" stroke-linecap="butt"/><path d="M214.7262,149.32814c0,0 2.81186,-1.214 4.82388,-1.53474c1.59395,-0.25409 6.28882,-0.23677 6.28882,-0.23677" fill="#181818" stroke-linecap="round"/><path d="M204.26708,150.92361c0.06172,-2.83428 2.40938,-5.08192 5.24368,-5.02019c2.83428,0.06172 5.08192,2.40938 5.02019,5.24368c-0.06172,2.83428 -2.40938,5.08192 -5.24368,5.02019c-2.83428,-0.06172 -5.08192,-2.40938 -5.02019,-5.24368z" fill="#181818" stroke-linecap="butt"/><path d="M224.38712,159.89393c0,-9.17193 7.43532,-16.60724 16.60724,-16.60724c9.17193,0 16.60724,7.43532 16.60724,16.60724c0,9.17193 -7.43532,16.60724 -16.60724,16.60724c-9.17193,0 -16.60724,-7.43532 -16.60724,-16.60724z" fill="#181818" stroke-linecap="butt"/><path d="M236.26381,205.61184v-25.56509h7.8507v25.56509z" fill="#181818" stroke-linecap="butt"/><path d="M233.72584,220.31044c-4.40452,2.25295 -6.85604,0.52061 -8.34957,-2.39924c-1.49353,-2.91986 0.86629,-7.11324 5.27081,-9.3662c4.40452,-2.25295 8.3608,-3.32527 9.85434,-0.40542c0.57683,1.12769 0.49639,8.45117 -6.77558,12.17085z" data-paper-data="{&quot;index&quot;:null}" fill="#181818" stroke-linecap="butt"/><path d="M244.78641,163.52693v-5.24474h16.47423v5.24474z" fill="#ff0000" stroke-linecap="butt"/><path d="M234.12445,178.41074l14.42305,0.30197l-3.74625,4.22758l4.12087,4.22758l-17.04542,1.20788l4.30818,-5.13349z" fill="#0e0e0e" stroke-linecap="round"/><g><path d="M226.27462,152.81314v-12.06291h29.6328v12.06291z" fill="#343434" stroke-linecap="butt"/><path d="M215.5229,152.81314h51.13626" fill="none" stroke-linecap="round"/></g><path d="M235.07475,210.03106c0,-2.11232 1.71238,-3.8247 3.8247,-3.8247c2.11232,0 3.8247,1.71238 3.8247,3.8247c0,2.11232 -1.71238,3.8247 -3.8247,3.8247c-2.11232,0 -3.8247,-1.71238 -3.8247,-3.8247z" fill="#181818" stroke-linecap="butt"/><path d="M248.7698,212.38125c4.94526,0.14134 6.2624,2.83876 6.1687,6.11708c-0.0937,3.27832 -4.17858,5.82135 -9.12385,5.68001c-4.94526,-0.14134 -8.93,-1.10257 -8.8363,-4.38089c0.03618,-1.26615 3.6267,-7.64956 11.79144,-7.4162z" data-paper-data="{&quot;index&quot;:null}" fill="#181818" stroke-linecap="butt"/></g></g></svg>