<svg version="1.1" xmlns="http://www.w3.org/2000/svg" xmlns:xlink="http://www.w3.org/1999/xlink" width="45.59038" height="82.82973" viewBox="0,0,45.59038,82.82973"><g transform="translate(-217.81398,-143.39679)"><g data-paper-data="{&quot;isPaintingLayer&quot;:true}" fill-rule="nonzero" stroke="#000000" stroke-width="2" stroke-linejoin="miter" stroke-miterlimit="10" stroke-dasharray="" stroke-dashoffset="0" style="mix-blend-mode: normal"><g><path d="M233.42028,156.27481c0,0 2.86531,-1.08182 4.89008,-1.30859c1.60405,-0.17964 6.29302,0.05616 6.29302,0.05616" fill="none" stroke-linecap="round"/><path d="M223.26195,157.29471c0.19355,-2.82835 2.64328,-4.96427 5.47163,-4.77072c2.82835,0.19355 4.96427,2.64328 4.77072,5.47163c-0.19355,2.82835 -2.64328,4.96427 -5.47163,4.77072c-2.82835,-0.19355 -4.96427,-2.64328 -4.77072,-5.47163z" fill="#e80000" stroke-linecap="butt"/></g><path d="M228.61716,190.26089c0,-2.11232 1.71238,-3.8247 3.8247,-3.8247c2.11232,0 3.8247,1.71238 3.8247,3.8247c0,2.11232 -1.71238,3.8247 -3.8247,3.8247c-2.11232,0 -3.8247,-1.71238 -3.8247,-3.8247z" fill="#e80000" stroke-linecap="butt"/><path d="M227.18278,213.75242c4.11347,0 7.4481,2.47844 7.4481,5.53575c0,3.05731 -3.33463,5.53575 -7.4481,5.53575c-4.11347,0 -7.4481,-2.47844 -7.4481,-5.53575c0,-3.05731 3.33463,-5.53575 7.4481,-5.53575z" data-paper-data="{&quot;index&quot;:null}" fill="#e80000" stroke-linecap="butt"/><path d="M256.06341,213.34982c4.94728,0 6.34095,2.65869 6.34095,5.93835c0,3.27966 -4.01056,5.93835 -8.95785,5.93835c-4.94728,0 -8.95785,-0.84699 -8.95785,-4.12665c0,-1.26666 3.40667,-7.75005 11.57475,-7.75005z" data-paper-data="{&quot;index&quot;:null}" fill="#e80000" stroke-linecap="butt"/><path d="M223.74245,158.28147c1.50506,-9.0476 10.05968,-15.16204 19.10727,-13.65698c9.0476,1.50506 15.16204,10.05968 13.65698,19.10727c-1.50506,9.0476 -10.05968,15.16204 -19.10727,13.65698c-9.0476,-1.50506 -15.16204,-10.05968 -13.65698,-19.10727z" fill="#e80000" stroke-linecap="butt"/><path d="M234.35503,205.45853l0.93984,-25.54781l7.84539,0.28862l-0.93984,25.54781z" fill="#e80000" stroke-linecap="butt"/><path d="M218.81398,200.86195c0,-2.11232 1.71238,-3.8247 3.8247,-3.8247c2.11232,0 3.8247,1.71238 3.8247,3.8247c0,2.11232 -1.71238,3.8247 -3.8247,3.8247c-2.11232,0 -3.8247,-1.71238 -3.8247,-3.8247z" fill="#e80000" stroke-linecap="butt"/><path d="M223.206,157.77678l-0.49163,-5.57838l33.27103,-2.93225l0.49163,5.57837z" fill="#ff2121" stroke-linecap="butt"/></g></g></svg>