<svg version="1.1" xmlns="http://www.w3.org/2000/svg" xmlns:xlink="http://www.w3.org/1999/xlink" width="144.38222" height="84.4364" viewBox="0,0,144.38222,84.4364"><defs><radialGradient cx="258.2763" cy="150.0311" r="18.84183" gradientUnits="userSpaceOnUse" id="color-1"><stop offset="0" stop-color="#ffffff"/><stop offset="1" stop-color="#0debff"/></radialGradient></defs><g transform="translate(-197.24163,-143.24957)"><g data-paper-data="{&quot;isPaintingLayer&quot;:true}" fill-rule="nonzero" stroke-linejoin="miter" stroke-miterlimit="10" stroke-dasharray="" stroke-dashoffset="0" style="mix-blend-mode: normal"><path d="M278.6018,161.31853c0,0 4.59266,0.97446 6.09701,1.55941c1.89892,0.73837 4.39101,2.51877 4.39101,2.51877" data-paper-data="{&quot;index&quot;:null}" fill="none" stroke="#000000" stroke-width="2" stroke-linecap="round"/><path d="M292.63271,173.05268c-2.78341,-0.53818 -4.60352,-3.23086 -4.06534,-6.01427c0.53818,-2.78341 3.23086,-4.60352 6.01427,-4.06534c2.78341,0.53818 4.60352,3.23086 4.06534,6.01427c-0.53818,2.78341 -3.23086,4.60352 -6.01427,4.06534z" data-paper-data="{&quot;index&quot;:null}" fill="#0debff" stroke="#000000" stroke-width="2" stroke-linecap="butt"/><g data-paper-data="{&quot;index&quot;:null}" fill="#76f4ff" stroke="#53acb4" stroke-width="1" stroke-linecap="butt"><path d="M280.61982,182.04915l38.38865,4.48004l-36.86663,11.10032l-84.81053,-0.39628z" data-paper-data="{&quot;index&quot;:null}"/><path d="M336.47537,189.95769l-26.57746,0.04845l-0.5544,-5.67523l26.07849,-5.15614z"/><path d="M304.52481,187.66024l-5.91589,-19.78641l13.23079,10.26853l1.61102,17.03246l-10.90813,12.96663z"/></g><path d="M335.33051,187.05178c-7.41098,2.82944 -19.84888,5.0323 -27.78078,4.92023c-7.93195,-0.11207 -8.35427,-2.49663 -0.94329,-5.32605c7.41098,-2.82944 19.84888,-5.0323 27.78078,-4.92023c7.93195,0.11207 8.35427,2.49663 0.94329,5.32605z" data-paper-data="{&quot;index&quot;:null}" fill="#0debff" stroke="#000000" stroke-width="2" stroke-linecap="butt"/><path d="M251.51878,210.04608l12.05478,-22.54454l6.92312,3.70187l-12.05478,22.54454z" data-paper-data="{&quot;index&quot;:null}" fill="#0debff" stroke="#000000" stroke-width="2" stroke-linecap="butt"/><path d="M230.39077,197.37555c0,-2.11232 1.71238,-3.8247 3.8247,-3.8247c2.11232,0 3.8247,1.71238 3.8247,3.8247c0,2.11232 -1.71238,3.8247 -3.8247,3.8247c-2.11232,0 -3.8247,-1.71238 -3.8247,-3.8247z" fill="#0debff" stroke="#000000" stroke-width="2" stroke-linecap="butt"/><path d="M272.28233,221.15022c0,3.05731 -3.33463,5.53575 -7.4481,5.53575c-4.11347,0 -7.4481,-2.47844 -7.4481,-5.53575c0,-3.05731 3.33463,-5.53575 7.4481,-5.53575c4.11347,0 7.4481,2.47844 7.4481,5.53575z" data-paper-data="{&quot;index&quot;:null}" fill="#0debff" stroke="#000000" stroke-width="2" stroke-linecap="butt"/><path d="M221.69593,214.6829c8.16733,-0.11105 11.66182,6.32543 11.67904,7.59198c0.04459,3.27936 -3.9541,4.18079 -8.90092,4.24804c-4.94683,0.06725 -8.99317,-2.53667 -9.03775,-5.81603c-0.04459,-3.27936 1.31282,-5.95675 6.25964,-6.02401z" data-paper-data="{&quot;index&quot;:null}" fill="#0debff" stroke="#000000" stroke-width="2" stroke-linecap="butt"/><path d="M258.63043,164.82688c3.96081,-8.27262 13.87796,-11.76803 22.15058,-7.80723c8.27262,3.96081 11.76803,13.87796 7.80723,22.15058c-3.96081,8.27262 -13.87796,11.76803 -22.15058,7.80723c-8.27262,-3.96081 -11.76803,-13.87796 -7.80723,-22.15058z" fill="#0debff" stroke="#000000" stroke-width="2" stroke-linecap="butt"/><path d="M254.26922,169.38251l0.90622,-20.78712l29.71843,-4.23864l6.68147,19.70491z" data-paper-data="{&quot;index&quot;:null}" fill="url(#color-1)" stroke="#000000" stroke-width="2" stroke-linecap="butt"/></g></g></svg>