<svg version="1.1" xmlns="http://www.w3.org/2000/svg" xmlns:xlink="http://www.w3.org/1999/xlink" width="47.75" height="47.75" viewBox="0,0,47.75,47.75"><defs><linearGradient x1="259.3157" y1="180" x2="220.68431" y2="180" gradientUnits="userSpaceOnUse" id="color-1"><stop offset="0" stop-color="#828282"/><stop offset="1" stop-color="#484848"/></linearGradient></defs><g transform="translate(-216.125,-156.125)"><g data-paper-data="{&quot;isPaintingLayer&quot;:true}" fill-rule="nonzero" stroke-linecap="butt" stroke-linejoin="miter" stroke-miterlimit="10" stroke-dasharray="" stroke-dashoffset="0" style="mix-blend-mode: normal"><path d="M240.00001,156.125c13.1858,0 23.875,10.6892 23.875,23.875c0,13.1858 -10.6892,23.875 -23.875,23.875c-13.1858,0 -23.875,-10.6892 -23.875,-23.875c0,-13.1858 10.6892,-23.875 23.875,-23.875z" fill="#898989" stroke="none" stroke-width="0"/><path d="M241.10488,165.18726c1.35182,-1.35112 3.54246,-1.3495 4.89359,0.00358c5.33083,5.33861 12.30568,12.32396 12.30568,12.32396c1.35014,1.35182 1.34853,3.54281 -0.00357,4.89324c0,0 -8.09417,8.08338 -12.42311,12.40532c-1.3521,1.35049 -3.54239,1.34852 -4.89352,-0.00358c-1.35049,-1.3521 0.01602,-11.40045 0.01602,-11.40045c0,0 -13.19419,-0.01424 -16.85791,-0.01693c-1.91113,-0.0014 -3.45915,-1.55132 -3.45775,-3.46245c0.0014,-1.91085 1.55174,-3.45915 3.46279,-3.45782c4.27285,0.00312 16.85278,0.01659 16.85278,0.01659c0,0 -1.24744,-9.95133 0.10501,-11.30147z" fill="url(#color-1)" stroke="#000000" stroke-width="2"/></g></g></svg>