<svg version="1.1" xmlns="http://www.w3.org/2000/svg" xmlns:xlink="http://www.w3.org/1999/xlink" width="58.90792" height="90.90939" viewBox="0,0,58.90792,90.90939"><g transform="translate(-198.41561,-134.75656)"><g data-paper-data="{&quot;isPaintingLayer&quot;:true}" fill-rule="nonzero" stroke="#000000" stroke-width="2" stroke-linejoin="miter" stroke-miterlimit="10" stroke-dasharray="" stroke-dashoffset="0" style="mix-blend-mode: normal"><path d="M247.16474,212.67423c3.20566,3.7682 2.08365,6.55245 -0.41437,8.67755c-2.49802,2.1251 -7.12177,0.7931 -10.32743,-2.97511c-3.20566,-3.7682 -5.15923,-7.37176 -2.66121,-9.49686c0.96478,-0.82075 8.11039,-2.42698 13.40301,3.79441z" data-paper-data="{&quot;index&quot;:null}" fill="#ffe819" stroke-linecap="butt"/><path d="M247.55375,199.41619c0.16087,-2.10619 1.99868,-3.68318 4.10487,-3.52232c2.10619,0.16087 3.68318,1.99868 3.52232,4.10487c-0.16087,2.10619 -1.99868,3.68318 -4.10487,3.52232c-2.10619,-0.16087 -3.68318,-1.99868 -3.52232,-4.10487z" fill="#ffe819" stroke-linecap="butt"/><path d="M223.0815,159.13866c0.6985,-9.14529 8.67847,-15.99277 17.82375,-15.29427c9.14529,0.6985 15.99277,8.67847 15.29427,17.82375c-0.6985,9.14529 -8.67847,15.99277 -17.82375,15.29427c-9.14529,-0.6985 -15.99277,-8.67847 -15.29427,-17.82375z" fill="#ffe819" stroke-linecap="butt"/><path d="M231.44201,205.62828l1.94693,-25.49085l7.8279,0.59788l-1.94693,25.49085z" fill="#ffe819" stroke-linecap="butt"/><path d="M216.16473,205.24931c0.16087,-2.10619 1.99868,-3.68318 4.10487,-3.52232c2.10619,0.16087 3.68318,1.99868 3.52232,4.10487c-0.16087,2.10619 -1.99868,3.68318 -4.10487,3.52232c-2.10619,-0.16087 -3.68318,-1.99868 -3.52232,-4.10487z" fill="#ffe819" stroke-linecap="butt"/><path d="M229.28552,213.59445c4.11347,0 7.4481,2.47844 7.4481,5.53575c0,3.05731 -3.33463,5.53575 -7.4481,5.53575c-4.11347,0 -7.4481,-2.47844 -7.4481,-5.53575c0,-3.05731 3.33463,-5.53575 7.4481,-5.53575z" data-paper-data="{&quot;index&quot;:null}" fill="#ffe819" stroke-linecap="butt"/><path d="M208.73141,152.82574c0,0 2.26736,-2.05899 4.06716,-3.01386c1.42583,-0.75646 5.87344,-2.26009 5.87344,-2.26009" fill="none" stroke-linecap="round"/><path d="M199.65844,157.50689c-0.85924,-2.70161 0.63429,-5.58825 3.3359,-6.4475c2.70161,-0.85924 5.58825,0.63429 6.4475,3.3359c0.85924,2.70161 -0.63429,5.58825 -3.3359,6.4475c-2.70161,0.85924 -5.58825,-0.63429 -6.4475,-3.3359z" fill="#ffe819" stroke-linecap="butt"/><path d="M218.56929,158.74681l5.66773,-9.91581l-11.39474,-2.45621c0,0 14.43211,-10.73163 25.04913,-10.61733c10.61702,0.11429 17.86962,11.07935 17.86962,11.07935z" data-paper-data="{&quot;index&quot;:null}" fill="#fff067" stroke-linecap="butt"/></g></g></svg>