<svg version="1.1" xmlns="http://www.w3.org/2000/svg" xmlns:xlink="http://www.w3.org/1999/xlink" width="55.51071" height="104.20378" viewBox="0,0,55.51071,104.20378"><g transform="translate(-189.37993,-122.88573)"><g data-paper-data="{&quot;isPaintingLayer&quot;:true}" fill-rule="nonzero" stroke="#000000" stroke-width="2" stroke-linejoin="miter" stroke-miterlimit="10" stroke-dasharray="" stroke-dashoffset="0" style="mix-blend-mode: normal"><path d="M232.37291,208.79604l-14.58367,-20.99739l6.44802,-4.47846l14.58368,20.99739z" fill="#ff6b00" stroke-linecap="butt"/><path d="M234.34197,183.83333c0,-2.11232 1.71238,-3.8247 3.8247,-3.8247c2.11232,0 3.8247,1.71238 3.8247,3.8247c0,2.11232 -1.71238,3.8247 -3.8247,3.8247c-2.11232,0 -3.8247,-1.71238 -3.8247,-3.8247z" fill="#ff6b00" stroke-linecap="butt"/><path d="M207.2189,169.86142c2.8624,-8.71384 12.24678,-13.45736 20.96062,-10.59498c8.71384,2.8624 13.45736,12.24678 10.59498,20.96062c-2.8624,8.71384 -12.24678,13.45736 -20.96062,10.59498c-8.71384,-2.8624 -13.45736,-12.24678 -10.59498,-20.96062z" fill="#ff6b00" stroke-linecap="butt"/><path d="M202.61409,195.35961c0,-2.11232 1.71238,-3.8247 3.8247,-3.8247c2.11232,0 3.8247,1.71238 3.8247,3.8247c0,2.11232 -1.71238,3.8247 -3.8247,3.8247c-2.11232,0 -3.8247,-1.71238 -3.8247,-3.8247z" fill="#ff6b00" stroke-linecap="butt"/><path d="M228.66913,215.01801c4.11347,0 7.4481,2.47844 7.4481,5.53575c0,3.05731 -3.33463,5.53575 -7.4481,5.53575c-4.11347,0 -7.4481,-2.47844 -7.4481,-5.53575c0,-3.05731 3.33463,-5.53575 7.4481,-5.53575z" data-paper-data="{&quot;index&quot;:null}" fill="#ff6b00" stroke-linecap="butt"/><path d="M204.38376,161.74112c0,0 2.52611,-1.7318 4.43896,-2.43326c1.51539,-0.55571 6.12606,-1.44103 6.12606,-1.44103" fill="none" stroke-linecap="round"/><path d="M194.75886,165.14599c-0.48417,-2.79331 1.38775,-5.45023 4.18106,-5.9344c2.79331,-0.48417 5.45023,1.38775 5.9344,4.18106c0.48417,2.79331 -1.38775,5.45023 -4.18106,5.9344c-2.79331,0.48417 -5.45023,-1.38775 -5.9344,-4.18106z" fill="#ff6b00" stroke-linecap="butt"/><path d="M201.83864,171.62616l7.81925,-10.25547l-18.62245,-28.63787l46.60619,-8.59694l-6.48166,32.99833l10.99863,6.67966z" data-paper-data="{&quot;index&quot;:null}" fill="#ffa340" stroke-linecap="butt"/><path d="M232.09632,197.13262c4.65566,6.71137 1.27029,13.2059 0.22953,13.92787c-2.69475,1.86935 -5.67664,-0.9432 -8.4965,-5.00816c-2.81986,-4.06499 -2.92128,-8.8757 -0.22653,-10.74505c2.69477,-1.86936 5.67367,-2.23964 8.49353,1.82532z" data-paper-data="{&quot;index&quot;:null}" fill="#ff6b00" stroke-linecap="butt"/></g></g></svg>