<svg version="1.1" xmlns="http://www.w3.org/2000/svg" xmlns:xlink="http://www.w3.org/1999/xlink" width="62.14653" height="124.61085" viewBox="0,0,62.14653,124.61085"><g transform="translate(-197.55992,-98.93683)"><g data-paper-data="{&quot;isPaintingLayer&quot;:true}" fill-rule="nonzero" stroke="#000000" stroke-width="2" stroke-linejoin="miter" stroke-miterlimit="10" stroke-dasharray="" stroke-dashoffset="0" style="mix-blend-mode: normal"><path d="M223.31933,154.64514c0.76839,-9.13969 8.80047,-15.92596 17.94015,-15.15757c9.13969,0.76839 15.92596,8.80047 15.15757,17.94015c-0.76839,9.13969 -8.80047,15.92596 -17.94015,15.15757c-9.13969,-0.76839 -15.92596,-8.80047 -15.15757,-17.94015z" fill="#ff6b00" stroke-linecap="butt"/><path d="M227.85889,198.85938l3.64187,-25.30434l7.77063,1.11835l-3.64187,25.30435z" data-paper-data="{&quot;index&quot;:null}" fill="#ff6b00" stroke-linecap="butt"/><path d="M214.43931,175.62415c0.17697,-2.1049 2.02678,-3.66779 4.13168,-3.49084c2.1049,0.17697 3.66779,2.02678 3.49084,4.13168c-0.17697,2.1049 -2.02678,3.66779 -4.13168,3.49084c-2.1049,-0.17697 -3.66779,-2.02678 -3.49084,-4.13168z" fill="#ff6b00" stroke-linecap="butt"/><path d="M225.51693,142.2347c0,0 -4.65919,-0.57786 -6.20808,-1.03193c-1.95512,-0.57317 -4.59046,-2.13376 -4.59046,-2.13376" data-paper-data="{&quot;index&quot;:null}" fill="none" stroke-linecap="round"/><path d="M210.53331,131.74431c2.81926,0.29801 4.86312,2.82507 4.56512,5.64431c-0.29801,2.81924 -2.82505,4.86311 -5.6443,4.56511c-2.81926,-0.29801 -4.86312,-2.82507 -4.56512,-5.64431c0.29801,-2.81924 2.82505,-4.86311 5.6443,-4.56511z" data-paper-data="{&quot;index&quot;:null}" fill="#ff6b00" stroke-linecap="butt"/><path d="M250.70208,204.93623c3.8145,3.15044 3.19599,6.08787 1.1075,8.61655c-2.08849,2.52871 -6.8738,2.0247 -10.6883,-1.12574c-3.8145,-3.15044 -6.36739,-6.35742 -4.2789,-8.88613c0.80661,-0.97661 7.56187,-3.80614 13.8597,1.39531z" data-paper-data="{&quot;index&quot;:null}" fill="#ff6b00" stroke-linecap="butt"/><path d="M218.07525,152.3224l6.33062,-11.23559l-22.39299,-25.79684l44.97581,-14.94057l-1.87018,33.57684l11.81453,5.09946z" data-paper-data="{&quot;index&quot;:null}" fill="#ffa340" stroke-linecap="butt"/><path d="M208.76752,219.80945c-3.17702,3.79238 -6.11005,3.15337 -8.62409,1.04725c-2.51404,-2.10611 -1.97661,-6.88778 1.20041,-10.68018c3.17702,-3.79238 6.40178,-6.3228 8.91581,-4.21668c0.97096,0.81342 3.75319,7.5883 -1.49214,13.84961z" data-paper-data="{&quot;index&quot;:null}" fill="#ff6b00" stroke-linecap="butt"/><path d="M236.18874,179.67958c0.17697,-2.1049 2.02678,-3.66779 4.13168,-3.49084c2.1049,0.17697 3.66779,2.02678 3.49084,4.13168c-0.17697,2.1049 -2.02678,3.66779 -4.13168,3.49084c-2.1049,-0.17697 -3.66779,-2.02678 -3.49084,-4.13168z" fill="#ff6b00" stroke-linecap="butt"/></g></g></svg>