<svg version="1.1" xmlns="http://www.w3.org/2000/svg" xmlns:xlink="http://www.w3.org/1999/xlink" width="140.88341" height="126.12516" viewBox="0,0,140.88341,126.12516"><g transform="translate(-205.17802,-100.96435)"><g data-paper-data="{&quot;isPaintingLayer&quot;:true}" fill-rule="nonzero" stroke="#000000" stroke-width="2" stroke-linejoin="miter" stroke-miterlimit="10" stroke-dasharray="" stroke-dashoffset="0" style="mix-blend-mode: normal"><path d="M224.42751,136.12148l26.9104,7.30569l10.59335,-40.81621c0,0 43.40317,30.45241 56.80925,47.26532c14.10778,17.69293 25.83977,56.38697 25.83977,56.38697l-42.40726,-11.52153l1.54508,21.10728c0,0 -15.3526,-40.07956 -22.72051,-47.00862c-7.36791,-6.92906 -56.57009,-32.71889 -56.57009,-32.71889z" data-paper-data="{&quot;index&quot;:null}" fill="#ffa340" stroke-linecap="butt"/><path d="M230.76609,205.98131l-2.13149,-25.47608l7.82337,-0.65455l2.13149,25.47608z" fill="#ff6b00" stroke-linecap="butt"/><path d="M221.4306,166.76691c0,-9.17193 7.43532,-16.60724 16.60724,-16.60724c9.17193,0 16.60724,7.43532 16.60724,16.60724c0,9.17193 -7.43532,16.60724 -16.60724,16.60724c-9.17193,0 -16.60724,-7.43532 -16.60724,-16.60724z" fill="#ff6b00" stroke-linecap="butt"/><path d="M206.17802,188.85381c0,-2.11232 1.71238,-3.8247 3.8247,-3.8247c2.11232,0 3.8247,1.71238 3.8247,3.8247c0,2.11232 -1.71238,3.8247 -3.8247,3.8247c-2.11232,0 -3.8247,-1.71238 -3.8247,-3.8247z" fill="#ff6b00" stroke-linecap="butt"/><path d="M222.81413,215.01801c4.11347,0 7.4481,2.47844 7.4481,5.53575c0,3.05731 -3.33463,5.53575 -7.4481,5.53575c-4.11347,0 -7.4481,-2.47844 -7.4481,-5.53575c0,-3.05731 3.33463,-5.53575 7.4481,-5.53575z" data-paper-data="{&quot;index&quot;:null}" fill="#ff6b00" stroke-linecap="butt"/><path d="M244.95864,133.77201c0,0 2.18273,2.1485 3.23689,3.892c0.83512,1.38123 2.58545,5.73765 2.58545,5.73765" fill="none" stroke-linecap="round"/><path d="M239.77677,124.97541c2.64926,-1.00918 5.615,0.32035 6.62418,2.96961c1.00918,2.64926 -0.32035,5.615 -2.96961,6.62418c-2.64926,1.00918 -5.615,-0.32035 -6.62418,-2.96961c-1.00918,-2.64926 0.32035,-5.615 2.96961,-6.62418z" fill="#ff6b00" stroke-linecap="butt"/><path d="M256.48089,211.5285c4.52935,-1.99011 6.87479,-0.11664 8.19408,2.88597c1.31929,3.00261 -1.28298,7.05 -5.81234,9.04013c-4.52935,1.99011 -8.54183,2.82799 -9.86112,-0.17462c-0.50953,-1.15965 0.00132,-8.46573 7.47939,-11.75146z" data-paper-data="{&quot;index&quot;:null}" fill="#ff6b00" stroke-linecap="butt"/><path d="M283.03588,182.86012c0,-2.11232 1.71238,-3.8247 3.8247,-3.8247c2.11232,0 3.8247,1.71238 3.8247,3.8247c0,2.11232 -1.71238,3.8247 -3.8247,3.8247c-2.11232,0 -3.8247,-1.71238 -3.8247,-3.8247z" fill="#ff6b00" stroke-linecap="butt"/></g></g></svg>