<svg version="1.1" xmlns="http://www.w3.org/2000/svg" xmlns:xlink="http://www.w3.org/1999/xlink" width="67.33149" height="64.05072" viewBox="0,0,67.33149,64.05072"><g transform="translate(-212.60967,-162.76725)"><g data-paper-data="{&quot;isPaintingLayer&quot;:true}" fill-rule="nonzero" stroke="#000000" stroke-width="2" stroke-linejoin="miter" stroke-miterlimit="10" stroke-dasharray="" stroke-dashoffset="0" style="mix-blend-mode: normal"><path d="M233.97283,216.4241l1.65113,-25.51171l7.83431,0.50704l-1.65113,25.51171z" fill="#181818" stroke-linecap="butt"/><path d="M245.51413,197.61257l3.87568,5.56288l-19.15658,-5.54435l5.5356,-2.55517l-3.41744,-4.6336l16.47435,3.55016z" data-paper-data="{&quot;index&quot;:null}" fill="#0e0e0e" stroke-linecap="round"/><path d="M243.27086,213.36285c0,-2.11232 1.71238,-3.8247 3.8247,-3.8247c2.11232,0 3.8247,1.71238 3.8247,3.8247c0,2.11232 -1.71238,3.8247 -3.8247,3.8247c-2.11232,0 -3.8247,-1.71238 -3.8247,-3.8247z" fill="#181818" stroke-linecap="butt"/><path d="M227.28649,172.9021c0,0 2.79058,-1.26215 4.79679,-1.61743c1.58935,-0.28145 6.28382,-0.34482 6.28382,-0.34482" data-paper-data="{&quot;index&quot;:null}" fill="#181818" stroke-linecap="round"/><path d="M216.85634,174.67708c0.013,-2.83493 2.32168,-5.12258 5.15662,-5.10957c2.83493,0.013 5.12258,2.32168 5.10957,5.15662c-0.013,2.83493 -2.32168,5.12258 -5.15662,5.10957c-2.83493,-0.013 -5.12258,-2.32168 -5.10957,-5.15662z" data-paper-data="{&quot;index&quot;:null}" fill="#181818" stroke-linecap="butt"/><path d="M236.66912,182.91095c0,-9.17193 7.43532,-16.60724 16.60724,-16.60724c9.17193,0 16.60724,7.43532 16.60724,16.60724c0,9.17193 -7.43532,16.60724 -16.60724,16.60724c-9.17193,0 -16.60724,-7.43532 -16.60724,-16.60724z" fill="#181818" stroke-linecap="butt"/><path d="M228.5361,214.34387c4.11347,0 7.4481,2.47844 7.4481,5.53575c0,3.05731 -3.33463,5.53575 -7.4481,5.53575c-4.11347,0 -7.4481,-2.47844 -7.4481,-5.53575c0,-3.05731 3.33463,-5.53575 7.4481,-5.53575z" data-paper-data="{&quot;index&quot;:null}" fill="#181818" stroke-linecap="butt"/><path d="M254.60444,213.94127c4.94728,0 6.34095,2.65869 6.34095,5.93835c0,3.27966 -4.01056,5.93835 -8.95785,5.93835c-4.94728,0 -8.95785,-0.84699 -8.95785,-4.12665c0,-1.26666 3.40667,-7.75005 11.57475,-7.75005z" data-paper-data="{&quot;index&quot;:null}" fill="#181818" stroke-linecap="butt"/><path d="M252.10008,186.54395v-5.24474h19.39678v5.24474z" fill="#ff0000" stroke-linecap="butt"/><g><path d="M238.55662,175.83016v-12.06291h29.6328v12.06291z" fill="#343434" stroke-linecap="butt"/><path d="M227.8049,175.83016h51.13626" fill="none" stroke-linecap="round"/></g><path d="M213.60967,202.79234c0,-2.11232 1.71238,-3.8247 3.8247,-3.8247c2.11232,0 3.8247,1.71238 3.8247,3.8247c0,2.11232 -1.71238,3.8247 -3.8247,3.8247c-2.11232,0 -3.8247,-1.71238 -3.8247,-3.8247z" fill="#181818" stroke-linecap="butt"/></g></g></svg>