<svg version="1.1" xmlns="http://www.w3.org/2000/svg" xmlns:xlink="http://www.w3.org/1999/xlink" width="107.32152" height="81.05668" viewBox="0,0,107.32152,81.05668"><g transform="translate(-210.3994,-142.53595)"><g data-paper-data="{&quot;isPaintingLayer&quot;:true}" fill-rule="nonzero" stroke-linejoin="miter" stroke-miterlimit="10" stroke-dasharray="" stroke-dashoffset="0" style="mix-blend-mode: normal"><path d="M228.2295,180.50079c0,-2.11232 1.71238,-3.8247 3.8247,-3.8247c2.11232,0 3.8247,1.71238 3.8247,3.8247c0,2.11232 -1.71238,3.8247 -3.8247,3.8247c-2.11232,0 -3.8247,-1.71238 -3.8247,-3.8247z" fill="#ffe819" stroke="#000000" stroke-width="2" stroke-linecap="butt"/><path d="M229.99858,201.73012l14.9932,-20.70695l6.35883,4.60422l-14.9932,20.70695z" fill="#ffe819" stroke="#000000" stroke-width="2" stroke-linecap="butt"/><path d="M223.56098,215.12562c1.06105,4.83216 -1.23687,6.76361 -4.44022,7.467c-3.20335,0.70339 -6.66032,-2.64364 -7.72136,-7.47581c-1.06105,-4.83216 -1.09392,-8.93105 2.10942,-9.63445c1.23719,-0.27165 8.30033,1.66524 10.05215,9.64325z" data-paper-data="{&quot;index&quot;:null}" fill="#ffe819" stroke="#000000" stroke-width="2" stroke-linecap="butt"/><path d="M250.55324,159.7052c4.96202,-7.7138 15.23779,-9.94455 22.95158,-4.98254c7.7138,4.96202 9.94455,15.23779 4.98254,22.95158c-4.96202,7.7138 -15.23779,9.94455 -22.95158,4.98254c-7.7138,-4.96202 -9.94455,-15.23779 -4.98254,-22.95158z" fill="#ffe819" stroke="#000000" stroke-width="2" stroke-linecap="butt"/><path d="M248.38803,154.66658l10.37059,-3.61627l8.64226,1.13323l-8.36105,-1.63829l-10.36989,-6.88194c0,0 21.04373,-1.43755 29.2114,5.3465c8.16767,6.78404 6.88149,19.86756 6.88149,19.86756z" data-paper-data="{&quot;index&quot;:null}" fill="#fff067" stroke="#000000" stroke-width="2" stroke-linecap="butt"/><path d="M248.68922,148.23721c0,0 2.91426,-0.94205 4.94762,-1.07066c1.61086,-0.10188 6.28294,0.36031 6.28294,0.36031" fill="none" stroke="#000000" stroke-width="2" stroke-linecap="round"/><path d="M238.49345,148.76484c0.33004,-2.81569 2.88016,-4.83069 5.69585,-4.50065c2.81569,0.33004 4.83069,2.88016 4.50065,5.69585c-0.33004,2.81569 -2.88016,4.83069 -5.69585,4.50065c-2.81569,-0.33004 -4.83069,-2.88016 -4.50065,-5.69585z" fill="#ffe819" stroke="#000000" stroke-width="2" stroke-linecap="butt"/><path d="M265.31971,211.30624c3.96059,2.96468 3.48308,5.92827 1.51772,8.55383c-1.96536,2.62556 -6.76928,2.35065 -10.72987,-0.61404c-3.96059,-2.96468 -6.66372,-6.04609 -4.69838,-8.67165c0.75906,-1.01403 7.37148,-4.16291 13.91052,0.73185z" data-paper-data="{&quot;index&quot;:null}" fill="#ffe819" stroke="#000000" stroke-width="2" stroke-linecap="butt"/><path d="M266.18252,202.99371l6.36429,-4.45525l-16.53892,-2.56717l6.53324,-4.50173l-15.14392,-4.42948l5.84677,-10.55924l22.41471,11.57512l-5.08633,2.80028l16.73698,4.43556l-6.36185,2.96142l19.67608,6.91043l-5.02815,1.43451l22.1255,8.5076l-34.7008,-5.79403l5.57427,-2.72631l-22.41188,-3.59174" data-paper-data="{&quot;index&quot;:null}" fill="#fff200" stroke="none" stroke-width="0.66342" stroke-linecap="butt"/><path d="M301.51204,203.86966c1.16901,1.75935 0.69045,4.13326 -1.06889,5.30228c-1.75935,1.16901 -4.13326,0.69045 -5.30228,-1.06889c-1.16901,-1.75935 -45.69045,-18.79993 -43.93111,-19.96895c1.75935,-1.16901 49.13326,13.97622 50.30228,15.73556z" data-paper-data="{&quot;index&quot;:null}" fill="#ffe819" stroke="#000000" stroke-width="2" stroke-linecap="butt"/></g></g></svg>