<svg version="1.1" xmlns="http://www.w3.org/2000/svg" xmlns:xlink="http://www.w3.org/1999/xlink" width="79.68148" height="90.2827" viewBox="0,0,79.68148,90.2827"><g transform="translate(-191.49387,-135.38324)"><g data-paper-data="{&quot;isPaintingLayer&quot;:true}" fill-rule="nonzero" stroke="#000000" stroke-width="2" stroke-linejoin="miter" stroke-miterlimit="10" stroke-dasharray="" stroke-dashoffset="0" style="mix-blend-mode: normal"><path d="M262.52596,169.25177c0,-2.11232 1.71238,-3.8247 3.8247,-3.8247c2.11232,0 3.8247,1.71238 3.8247,3.8247c0,2.11232 -1.71238,3.8247 -3.8247,3.8247c-2.11232,0 -3.8247,-1.71238 -3.8247,-3.8247z" fill="#ffe819" stroke-linecap="butt"/><path d="M216.32635,163.47057c-1.81961,-8.98962 3.99284,-17.75223 12.98245,-19.57184c8.98962,-1.81961 17.75223,3.99284 19.57184,12.98245c1.81961,8.98962 -3.99284,17.75223 -12.98245,19.57184c-8.98962,1.81961 -17.75223,-3.99284 -19.57184,-12.98245z" fill="#ffe819" stroke-linecap="butt"/><path d="M238.38938,205.55478l-3.08169,-25.37867l7.79345,-0.94635l3.08169,25.37867z" fill="#ffe819" stroke-linecap="butt"/><path d="M226.49607,182.22555c0,-2.11232 1.71238,-3.8247 3.8247,-3.8247c2.11232,0 3.8247,1.71238 3.8247,3.8247c0,2.11232 -1.71238,3.8247 -3.8247,3.8247c-2.11232,0 -3.8247,-1.71238 -3.8247,-3.8247z" fill="#ffe819" stroke-linecap="butt"/><path d="M229.28552,213.59445c4.11347,0 7.4481,2.47844 7.4481,5.53575c0,3.05731 -3.33463,5.53575 -7.4481,5.53575c-4.11347,0 -7.4481,-2.47844 -7.4481,-5.53575c0,-3.05731 3.33463,-5.53575 7.4481,-5.53575z" data-paper-data="{&quot;index&quot;:null}" fill="#ffe819" stroke-linecap="butt"/><path d="M200.79916,161.30624c0,0 1.6206,-2.59885 3.09216,-4.00796c1.16579,-1.11632 5.03546,-3.77483 5.03546,-3.77483" fill="none" stroke-linecap="round"/><path d="M193.34483,168.28226c-1.5628,-2.3653 -0.91225,-5.54966 1.45305,-7.11246c2.3653,-1.5628 5.54966,-0.91225 7.11246,1.45305c1.5628,2.3653 0.91225,5.54966 -1.45305,7.11246c-2.3653,1.5628 -5.54966,0.91225 -7.11246,-1.45305z" fill="#ffe819" stroke-linecap="butt"/><path d="M259.9845,208.78939c4.86514,-0.89775 6.71813,1.4639 7.31327,4.68911c0.59514,3.22521 -2.86638,6.56753 -7.73153,7.46528c-4.86514,0.89775 -8.96283,0.7926 -9.55797,-2.43261c-0.22985,-1.24563 1.94376,-8.23957 9.97623,-9.72178z" data-paper-data="{&quot;index&quot;:null}" fill="#ffe819" stroke-linecap="butt"/><path d="M211.87808,164.32292l2.7517,-11.08488l-11.63286,0.74127c0,0 10.96223,-14.25773 21.20873,-17.04043c10.2465,-2.78269 20.21221,5.79153 20.21221,5.79153z" data-paper-data="{&quot;index&quot;:null}" fill="#fff067" stroke-linecap="butt"/></g></g></svg>