<svg version="1.1" xmlns="http://www.w3.org/2000/svg" xmlns:xlink="http://www.w3.org/1999/xlink" width="80.78207" height="112.41617" viewBox="0,0,80.78207,112.41617"><g transform="translate(-184.6774,-113.12469)"><g data-paper-data="{&quot;isPaintingLayer&quot;:true}" fill-rule="nonzero" stroke="#000000" stroke-width="2" stroke-linejoin="miter" stroke-miterlimit="10" stroke-dasharray="" stroke-dashoffset="0" style="mix-blend-mode: normal"><path d="M227.69855,199.08469c0,-2.11232 1.71238,-3.8247 3.8247,-3.8247c2.11232,0 3.8247,1.71238 3.8247,3.8247c0,2.11232 -1.71238,3.8247 -3.8247,3.8247c-2.11232,0 -3.8247,-1.71238 -3.8247,-3.8247z" fill="#ff6b00" stroke-linecap="butt"/><path d="M236.34621,192.29491c0,-2.11232 1.71238,-3.8247 3.8247,-3.8247c2.11232,0 3.8247,1.71238 3.8247,3.8247c0,2.11232 -1.71238,3.8247 -3.8247,3.8247c-2.11232,0 -3.8247,-1.71238 -3.8247,-3.8247z" fill="#ff6b00" stroke-linecap="butt"/><path d="M233.50921,208.88192l-10.75465,-23.19292l7.12225,-3.30261l10.75464,23.19292z" fill="#ff6b00" stroke-linecap="butt"/><path d="M256.93139,212.38032c4.81692,-1.12819 6.78017,1.14262 7.52808,4.33587c0.7479,3.19325 -2.55068,6.69644 -7.36762,7.82467c-4.81692,1.12819 -8.91497,1.21812 -9.66287,-1.97513c-0.28885,-1.23327 1.54956,-8.3227 9.50241,-10.18539z" data-paper-data="{&quot;index&quot;:null}" fill="#ff6b00" stroke-linecap="butt"/><path d="M213.43462,167.64322c0,-9.17193 7.43532,-16.60724 16.60724,-16.60724c9.17193,0 16.60724,7.43532 16.60724,16.60724c0,9.17193 -7.43532,16.60724 -16.60724,16.60724c-9.17193,0 -16.60724,-7.43532 -16.60724,-16.60724z" fill="#ff6b00" stroke-linecap="butt"/><path d="M202.65851,160.96602c0,0 2.71389,-1.41956 4.69651,-1.88892c1.57066,-0.37182 6.25385,-0.70336 6.25385,-0.70336" fill="none" stroke-linecap="round"/><path d="M192.69739,163.20383c-0.14903,-2.83104 2.02514,-5.24687 4.85619,-5.39591c2.83104,-0.14903 5.24687,2.02515 5.3959,4.8562c0.14903,2.83104 -2.02514,5.24687 -4.85619,5.3959c-2.83104,0.14903 -5.24687,-2.02514 -5.3959,-4.85619z" fill="#ff6b00" stroke-linecap="butt"/><path d="M208.87382,170.99893l4.22817,-12.18351l-26.62972,-21.39582l41.5955,-22.71252l4.14025,33.37304l12.53391,2.91357z" data-paper-data="{&quot;index&quot;:null}" fill="#ffa340" stroke-linecap="butt"/><path d="M228.51107,217.58591c-4.76925,1.31524 -6.81958,-0.87728 -7.69149,-4.03891c-0.87191,-3.16164 2.28753,-6.79087 7.05678,-8.10612c4.76925,-1.31524 8.86067,-1.56496 9.73257,1.59669c0.33673,1.22108 -1.22372,8.37682 -9.09786,10.54832z" data-paper-data="{&quot;index&quot;:null}" fill="#ff6b00" stroke-linecap="butt"/></g></g></svg>