<svg version="1.1" xmlns="http://www.w3.org/2000/svg" xmlns:xlink="http://www.w3.org/1999/xlink" width="59.50943" height="76.96659" viewBox="0,0,59.50943,76.96659"><g transform="translate(-214.27188,-147.4646)"><g data-paper-data="{&quot;isPaintingLayer&quot;:true}" fill-rule="nonzero" stroke="#000000" stroke-width="2" stroke-linejoin="miter" stroke-miterlimit="10" stroke-dasharray="" stroke-dashoffset="0" style="mix-blend-mode: normal"><path d="M259.65011,202.03636c0,-2.11232 1.71238,-3.8247 3.8247,-3.8247c2.11232,0 3.8247,1.71238 3.8247,3.8247c0,2.11232 -1.71238,3.8247 -3.8247,3.8247c-2.11232,0 -3.8247,-1.71238 -3.8247,-3.8247z" fill="#ffe819" stroke-linecap="butt"/><path d="M229.55804,206.62243l3.07746,-25.37919l7.79361,0.94505l-3.07746,25.37919z" fill="#ffe819" stroke-linecap="butt"/><path d="M246.05179,204.94469c0,-2.11232 1.71238,-3.8247 3.8247,-3.8247c2.11232,0 3.8247,1.71238 3.8247,3.8247c0,2.11232 -1.71238,3.8247 -3.8247,3.8247c-2.11232,0 -3.8247,-1.71238 -3.8247,-3.8247z" fill="#ffe819" stroke-linecap="butt"/><path d="M235.32479,211.58136c4.11347,0 7.4481,2.47844 7.4481,5.53575c0,3.05731 -3.33463,5.53575 -7.4481,5.53575c-4.11347,0 -7.4481,-2.47844 -7.4481,-5.53575c0,-3.05731 3.33463,-5.53575 7.4481,-5.53575z" data-paper-data="{&quot;index&quot;:null}" fill="#ffe819" stroke-linecap="butt"/><path d="M257.84011,210.06233c4.67477,-1.61929 6.86189,0.43679 7.93536,3.5358c1.07347,3.09901 -1.84597,6.92394 -6.52074,8.54324c-4.67477,1.61929 -8.74165,2.13165 -9.81512,-0.96735c-0.41459,-1.19689 0.68236,-8.4382 8.40052,-11.11168z" data-paper-data="{&quot;index&quot;:null}" fill="#ffe819" stroke-linecap="butt"/><path d="M237.80703,168.56998c2.66196,-8.77714 11.93519,-13.73447 20.71233,-11.0725c8.77714,2.66196 13.73447,11.93519 11.0725,20.71233c-2.66196,8.77714 -11.93519,13.73447 -20.71233,11.0725c-8.77714,-2.66196 -13.73447,-11.93519 -11.0725,-20.71233z" fill="#ffe819" stroke-linecap="butt"/><path d="M225.16412,159.29988c0,0 2.65937,-1.51925 4.62322,-2.0618c1.55579,-0.42981 6.22345,-0.93483 6.22345,-0.93483" fill="none" stroke-linecap="round"/><path d="M215.29284,161.90561c-0.25394,-2.82356 1.82915,-5.31837 4.65272,-5.57231c2.82356,-0.25394 5.31837,1.82915 5.57231,4.65272c0.25394,2.82356 -1.82915,5.31837 -4.65272,5.57231c-2.82356,0.25394 -5.31837,-1.82915 -5.57231,-4.65272z" fill="#ffe819" stroke-linecap="butt"/><path d="M233.48668,167.21049l7.68015,-8.4535l-10.59267,-4.86501c0,0 16.41328,-7.3524 26.75372,-4.94214c10.34045,2.41026 15.04699,14.68549 15.04699,14.68549z" data-paper-data="{&quot;index&quot;:null}" fill="#fff067" stroke-linecap="butt"/></g></g></svg>