<svg version="1.1" xmlns="http://www.w3.org/2000/svg" xmlns:xlink="http://www.w3.org/1999/xlink" width="72.83799" height="91.58668" viewBox="0,0,72.83799,91.58668"><g transform="translate(-188.75874,-135.49832)"><g data-paper-data="{&quot;isPaintingLayer&quot;:true}" fill-rule="nonzero" stroke="#000000" stroke-width="2" stroke-linejoin="miter" stroke-miterlimit="10" stroke-dasharray="" stroke-dashoffset="0" style="mix-blend-mode: normal"><path d="M221.98825,220.68732c-4.55933,1.92045 -6.87577,0.01125 -8.14888,-3.01122c-1.27311,-3.02248 1.39089,-7.02952 5.95023,-8.94996c4.55933,-1.92045 8.58418,-2.69672 9.85729,0.32575c0.4917,1.16734 -0.13109,8.46472 -7.65865,11.63544z" data-paper-data="{&quot;index&quot;:null}" fill="#2d6a2b" stroke-linecap="butt"/><path d="M211.43241,160.74154c-1.88231,-8.9767 3.86883,-17.77967 12.84552,-19.66198c8.9767,-1.88231 17.77967,3.86883 19.66198,12.84552c1.88231,8.9767 -3.86883,17.77967 -12.84552,19.66198c-8.9767,1.88231 -17.77967,-3.86883 -19.66198,-12.84552z" fill="#2d6a2b" stroke-linecap="butt"/><path d="M216.40244,140.91831c13.3864,-8.48213 25.18263,-2.14685 25.18263,-2.14685l-33.51304,23.60026c0,0 -6.06216,-12.33373 8.33041,-21.4534z" fill="#367e33" stroke-linecap="round"/><path d="M236.07305,204.37657l-5.14805,-25.04138l7.68988,-1.5809l5.14805,25.04138z" fill="#2d6a2b" stroke-linecap="butt"/><path d="M220.39853,193.22038c0,-2.11232 1.71238,-3.8247 3.8247,-3.8247c2.11232,0 3.8247,1.71238 3.8247,3.8247c0,2.11232 -1.71238,3.8247 -3.8247,3.8247c-2.11232,0 -3.8247,-1.71238 -3.8247,-3.8247z" fill="#2d6a2b" stroke-linecap="butt"/><path d="M250.76881,186.98658c0,-2.11232 1.71238,-3.8247 3.8247,-3.8247c2.11232,0 3.8247,1.71238 3.8247,3.8247c0,2.11232 -1.71238,3.8247 -3.8247,3.8247c-2.11232,0 -3.8247,-1.71238 -3.8247,-3.8247z" fill="#2d6a2b" stroke-linecap="butt"/><path d="M254.25579,214.2083c4.94728,0 6.34095,2.65869 6.34095,5.93835c0,3.27966 -4.01057,5.93835 -8.95785,5.93835c-4.94728,0 -8.95785,-0.84699 -8.95785,-4.12665c0,-1.26666 3.40667,-7.75005 11.57475,-7.75005z" data-paper-data="{&quot;index&quot;:null}" fill="#2d6a2b" stroke-linecap="butt"/><path d="M199.36865,151.22255c0,0 2.46385,-1.81929 4.35094,-2.58739c1.49498,-0.60849 6.07178,-1.65492 6.07178,-1.65492" fill="none" stroke-linecap="round"/><path d="M189.86904,154.96278c-0.58181,-2.77462 1.19582,-5.49554 3.97044,-6.07734c2.77462,-0.58181 5.49554,1.19582 6.07734,3.97044c0.58181,2.77462 -1.19582,5.49554 -3.97044,6.07734c-2.77462,0.58181 -5.49554,-1.19582 -6.07734,-3.97044z" fill="#2d6a2b" stroke-linecap="butt"/></g></g></svg>