<svg version="1.1" xmlns="http://www.w3.org/2000/svg" xmlns:xlink="http://www.w3.org/1999/xlink" width="27.10248" height="34.01799" viewBox="0,0,27.10248,34.01799"><g transform="translate(-226.44876,-162.99101)"><g data-paper-data="{&quot;isPaintingLayer&quot;:true}" fill-rule="nonzero" stroke="#000000" stroke-width="0" stroke-linecap="round" stroke-linejoin="miter" stroke-miterlimit="10" stroke-dasharray="" stroke-dashoffset="0" style="mix-blend-mode: normal"><path d="M241.83078,170.32839l10.16512,-7.33738l-3.76212,15.25186l4.97244,-0.53992l-3.1474,5.89648l3.49242,3.09939l-5.93828,4.17395l1.6892,4.87193l-4.3402,-2.56636l-4.70285,3.83066l-2.03314,-3.46598l-5.46312,-0.45797l-4.63762,-9.09517l3.40064,2.23862l-5.07711,-10.89688l5.31731,-0.26009l4.9717,-11.87182z" fill="#ffe600"/><path d="M249.31626,167.63983l-2.00962,11.23257l3.91126,0.19131l-3.73458,8.01544l2.50142,-1.64666l-3.4113,6.69015l-4.01852,0.33687l-1.49552,2.54948l-3.45928,-2.81772l-3.19253,1.88774l1.24253,-3.58365l-4.36803,-3.07024l2.56892,-2.27983l-3.48181,-7.00395l4.15758,0.56382l2.56602,-10.8855l2.81051,7.56383z" data-paper-data="{&quot;index&quot;:null}" fill="#ffed4a"/></g></g></svg>