<svg version="1.1" xmlns="http://www.w3.org/2000/svg" xmlns:xlink="http://www.w3.org/1999/xlink" width="63.39816" height="84.13185" viewBox="0,0,63.39816,84.13185"><g transform="translate(-203.31853,-142.28352)"><g data-paper-data="{&quot;isPaintingLayer&quot;:true}" fill-rule="nonzero" stroke="#000000" stroke-width="2" stroke-linejoin="miter" stroke-miterlimit="10" stroke-dasharray="" stroke-dashoffset="0" style="mix-blend-mode: normal"><path d="M235.31269,203.85701l-6.82223,-24.638l7.566,-2.09502l6.82223,24.638z" fill="#181818" stroke-linecap="butt"/><path d="M225.9921,178.21323l13.9806,-3.55788l-2.48224,5.07399l5.09959,2.97458l-16.10495,5.71277l2.78204,-6.097z" fill="#0e0e0e" stroke-linecap="round"/><path d="M208.98076,189.75932c0,-2.11232 1.71238,-3.8247 3.8247,-3.8247c2.11232,0 3.8247,1.71238 3.8247,3.8247c0,2.11232 -1.71238,3.8247 -3.8247,3.8247c-2.11232,0 -3.8247,-1.71238 -3.8247,-3.8247z" fill="#181818" stroke-linecap="butt"/><path d="M214.7725,148.39467c0,0 3.04694,-0.31069 5.06213,-0.01053c1.59646,0.2378 6.06809,1.6684 6.06809,1.6684" fill="#181818" stroke-linecap="round"/><path d="M204.31853,146.76579c0.91253,-2.68408 3.82816,-4.12023 6.51224,-3.20768c2.68408,0.91253 4.12022,3.82816 3.20768,6.51224c-0.91253,2.68408 -3.82816,4.12022 -6.51224,3.20768c-2.68408,-0.91253 -4.12023,-3.82816 -3.20768,-6.51224z" fill="#181818" stroke-linecap="butt"/><path d="M222.95471,162.76657c0.89727,-9.12794 9.0243,-15.8002 18.15223,-14.90293c9.12794,0.89727 15.8002,9.0243 14.90293,18.15223c-0.89727,9.12794 -9.02431,15.8002 -18.15223,14.90293c-9.12794,-0.89727 -15.8002,-9.02431 -14.90293,-18.15223z" fill="#181818" stroke-linecap="butt"/><path d="M228.5361,214.34387c4.11347,0 7.4481,2.47844 7.4481,5.53575c0,3.05731 -3.33463,5.53575 -7.4481,5.53575c-4.11347,0 -7.4481,-2.47844 -7.4481,-5.53575c0,-3.05731 3.33463,-5.53575 7.4481,-5.53575z" data-paper-data="{&quot;index&quot;:null}" fill="#181818" stroke-linecap="butt"/><path d="M237.95625,167.89172l0.51308,-5.21958c0,0 6.45049,2.68485 9.55801,2.99032c3.31379,0.32575 9.74573,-1.09277 9.74573,-1.09277l-0.51308,5.21958z" fill="#ff0000" stroke-linecap="butt"/><g><path d="M225.52586,155.90439l1.18009,-12.00504l29.49066,2.89891l-1.18009,12.00505z" fill="#343434" stroke-linecap="butt"/><path d="M265.71669,159.85512l-50.89098,-5.00255" fill="none" stroke-linecap="round"/></g><path d="M204.70403,182.10354c0,-2.11232 1.71238,-3.8247 3.8247,-3.8247c2.11232,0 3.8247,1.71238 3.8247,3.8247c0,2.11232 -1.71238,3.8247 -3.8247,3.8247c-2.11232,0 -3.8247,-1.71238 -3.8247,-3.8247z" fill="#181818" stroke-linecap="butt"/><path d="M239.08049,204.69678c-1.34093,2.99301 -5.34726,2.12619 -9.86213,0.10343c-4.51487,-2.02276 -7.08785,-6.08884 -5.74693,-9.08185c1.34093,-2.99301 3.69983,-4.84949 8.2147,-2.82673c7.45415,3.33963 7.91225,10.6492 7.39436,11.80515z" data-paper-data="{&quot;index&quot;:null}" fill="#181818" stroke-linecap="butt"/></g></g></svg>