<svg version="1.1" xmlns="http://www.w3.org/2000/svg" xmlns:xlink="http://www.w3.org/1999/xlink" width="117.63529" height="64.91533" viewBox="0,0,117.63529,64.91533"><g transform="translate(-188.65694,-161.02616)"><g data-paper-data="{&quot;isPaintingLayer&quot;:true}" fill-rule="nonzero" stroke="#000000" stroke-width="2" stroke-linejoin="miter" stroke-miterlimit="10" stroke-dasharray="" stroke-dashoffset="0" style="mix-blend-mode: normal"><path d="M230.9783,207.44396c-4.94443,0.16793 -6.42755,-2.44193 -6.53887,-5.71969c-0.11133,-3.27775 3.80667,-6.07107 8.75112,-6.239c4.94443,-0.16793 8.98143,0.54245 9.09276,3.82021c0.043,1.26592 -3.14164,7.86123 -11.30502,8.13848z" data-paper-data="{&quot;index&quot;:null}" fill="#2d6a2b" stroke-linecap="butt"/><path d="M243.48049,214.0199l-23.75466,-9.44933l2.90176,-7.29474l23.75466,9.44933z" fill="#2d6a2b" stroke-linecap="butt"/><path d="M209.70322,221.11679c0,-2.11232 1.71238,-3.8247 3.8247,-3.8247c2.11232,0 3.8247,1.71238 3.8247,3.8247c0,2.11232 -1.71238,3.8247 -3.8247,3.8247c-2.11232,0 -3.8247,-1.71238 -3.8247,-3.8247z" fill="#2d6a2b" stroke-linecap="butt"/><path d="M224.3257,187.31968c-0.20531,-2.10232 1.33252,-3.97303 3.43484,-4.17834c2.10232,-0.20531 3.97303,1.33252 4.17834,3.43484c0.20531,2.10232 -1.33252,3.97303 -3.43484,4.17834c-2.10232,0.20531 -3.97303,-1.33252 -4.17834,-3.43484z" fill="#2d6a2b" stroke-linecap="butt"/><path d="M193.97071,184.8017c-1.20434,-9.09252 5.1903,-17.43976 14.28281,-18.64409c9.09252,-1.20434 17.43976,5.1903 18.64409,14.28281c1.20434,9.09252 -5.1903,17.43976 -14.28281,18.64409c-9.09252,1.20434 -17.43976,-5.1903 -18.64409,-14.28281z" fill="#2d6a2b" stroke-linecap="butt"/><path d="M200.41225,165.40664c13.98439,-7.45514 25.27271,-0.25371 25.27271,-0.25371l-35.18734,21.02254c0,0 -5.12087,-12.75332 9.91463,-20.76883z" fill="#367e33" stroke-linecap="round"/><path d="M197.90638,179.06121c0,0 1.23707,-2.8018 2.4947,-4.40475c0.99632,-1.26987 4.45144,-4.44858 4.45144,-4.44858" data-paper-data="{&quot;index&quot;:null}" fill="none" stroke-linecap="round"/><path d="M191.29078,187.21766c-1.8814,-2.1207 -1.6874,-5.36503 0.43328,-7.24643c2.1207,-1.8814 5.36503,-1.6874 7.24643,0.43328c1.8814,2.1207 1.6874,5.36503 -0.43328,7.24643c-2.1207,1.8814 -5.36503,1.6874 -7.24643,-0.43328z" data-paper-data="{&quot;index&quot;:null}" fill="#2d6a2b" stroke-linecap="butt"/><path d="M294.22092,209.34387c0.08847,-4.11253 2.63806,-7.39308 5.69466,-7.32731c3.0566,0.06575 5.46275,3.45292 5.37428,7.56545c-0.08847,4.11253 -2.63806,7.39308 -5.69467,7.32731c-3.0566,-0.06575 -5.46274,-3.45292 -5.37427,-7.56545z" data-paper-data="{&quot;index&quot;:null}" fill="#2d6a2b" stroke-linecap="butt"/></g></g></svg>