<svg version="1.1" xmlns="http://www.w3.org/2000/svg" xmlns:xlink="http://www.w3.org/1999/xlink" width="96.66263" height="86.05587" viewBox="0,0,96.66263,86.05587"><defs><linearGradient x1="216.81522" y1="152.46032" x2="240.37833" y2="171.29094" gradientUnits="userSpaceOnUse" id="color-1"><stop offset="0" stop-color="#e80000" stop-opacity="0"/><stop offset="1" stop-color="#e80000"/></linearGradient><linearGradient x1="299.67007" y1="201.391" x2="262.84821" y2="188.83005" gradientUnits="userSpaceOnUse" id="color-2"><stop offset="0" stop-color="#e80000" stop-opacity="0"/><stop offset="1" stop-color="#e80000"/></linearGradient></defs><g transform="translate(-208.08657,-136.49158)"><g data-paper-data="{&quot;isPaintingLayer&quot;:true}" fill-rule="nonzero" stroke="#000000" stroke-linejoin="miter" stroke-miterlimit="10" stroke-dasharray="" stroke-dashoffset="0" style="mix-blend-mode: normal"><path d="M222.56079,182.8747c-2.029,-0.5875 -3.19754,-2.70858 -2.61007,-4.73755c0.5875,-2.029 2.70858,-3.19754 4.73755,-2.61007c2.029,0.5875 3.19754,2.70858 2.61007,4.73755c-0.5875,2.029 -2.70858,3.19754 -4.73755,2.61007z" data-paper-data="{&quot;index&quot;:null}" fill="#e80000" stroke-width="2" stroke-linecap="butt"/><path d="M228.71856,185.23445c-6.44239,5.76776 -10.73523,1.39712 -13.37137,-5.65072c-2.63616,-7.04784 -1.2465,-16.10885 1.57685,-25.88254c4.20587,-14.55963 23.21895,-17.20961 23.21895,-17.20961c0,0 -11.56606,10.85993 -10.61437,24.9187c0.85268,12.59654 5.63236,18.05642 -0.81004,23.82419z" data-paper-data="{&quot;index&quot;:null}" fill="url(#color-1)" stroke-width="0" stroke-linecap="butt"/><path d="M236.69558,145.87506c0,0 3.02256,0.49442 4.88982,1.30956c1.47926,0.64579 5.42327,3.19269 5.42327,3.19269" fill="none" stroke-width="2" stroke-linecap="round"/><path d="M226.27956,141.4571c1.58075,-2.35335 4.76994,-2.97969 7.1233,-1.39896c2.35335,1.58075 2.97969,4.76994 1.39896,7.1233c-1.58075,2.35335 -4.76994,2.97969 -7.1233,1.39896c-2.35335,-1.58075 -2.97969,-4.76994 -1.39896,-7.1233z" fill="#e80000" stroke-width="2" stroke-linecap="butt"/><path d="M257.57718,205.49489c0.58699,4.91233 -1.88756,6.61161 -5.14407,7.00075c-3.25649,0.38912 -6.37226,-3.27766 -6.95925,-8.19c-0.58699,-4.91233 -0.22183,-8.99508 3.03466,-9.38421c1.25771,-0.15029 8.09949,2.46307 9.06864,10.57345z" data-paper-data="{&quot;index&quot;:null}" fill="#e80000" stroke-width="2" stroke-linecap="butt"/><path d="M260.23823,211.03726c1.39464,-1.58645 3.8113,-1.74201 5.39778,-0.34735c1.58645,1.39464 1.74201,3.8113 0.34735,5.39778c-1.39464,1.58645 -3.8113,1.74201 -5.39778,0.34735c-1.58645,-1.39464 -1.74201,-3.8113 -0.34735,-5.39778z" data-paper-data="{&quot;index&quot;:null}" fill="#e80000" stroke-width="2" stroke-linecap="butt"/><path d="M255.77362,211.18133c1.80314,-11.00656 11.05584,-9.59635 25.34515,-17.40691c15.94804,-8.71722 19.73442,-28.82763 19.73442,-28.82763c0,0 10.30708,22.51351 -2.60798,37.18661c-8.6697,9.84988 -17.55892,17.64634 -27.05155,19.6686c-9.49261,2.02227 -17.22316,0.38586 -15.42002,-10.62066z" data-paper-data="{&quot;index&quot;:null}" fill="url(#color-2)" stroke-width="0" stroke-linecap="butt"/><path d="M234.58654,195.30953l7.30154,-24.50023l7.52369,2.24222l-7.30154,24.50023z" fill="#e80000" stroke-width="2" stroke-linecap="butt"/><path d="M218.45571,197.75615c6.67219,4.71163 5.71512,11.97274 4.98446,13.00743c-1.89183,2.67903 -5.65647,1.05746 -9.69772,-1.7963c-4.04126,-2.85377 -5.78369,-7.33898 -3.89186,-10.018c1.89181,-2.67903 4.56387,-4.0469 8.60512,-1.19314z" data-paper-data="{&quot;index&quot;:null}" fill="#e80000" stroke-width="2" stroke-linecap="butt"/><path d="M240.32849,153.46824c4.4653,-8.01158 14.57979,-10.88641 22.59137,-6.42113c8.01158,4.4653 10.88641,14.57979 6.42113,22.59137c-4.4653,8.01158 -14.57979,10.88641 -22.59137,6.42113c-8.01158,-4.4653 -10.88641,-14.57979 -6.42113,-22.59137z" fill="#e80000" stroke-width="2" stroke-linecap="butt"/><path d="M240.10791,151.65436l1.42117,-5.41668l32.30655,8.47622l-1.42117,5.41667z" fill="#ff2121" stroke-width="2" stroke-linecap="butt"/></g></g></svg>