<svg version="1.1" xmlns="http://www.w3.org/2000/svg" xmlns:xlink="http://www.w3.org/1999/xlink" width="116.45232" height="126.85507" viewBox="0,0,116.45232,126.85507"><defs><linearGradient x1="259.22589" y1="156.86152" x2="235.45341" y2="139.11019" gradientUnits="userSpaceOnUse" id="color-1"><stop offset="0" stop-color="#e80000" stop-opacity="0"/><stop offset="1" stop-color="#e80000"/></linearGradient><linearGradient x1="272.2957" y1="162.94057" x2="248.52321" y2="145.18924" gradientUnits="userSpaceOnUse" id="color-2"><stop offset="0" stop-color="#e80000" stop-opacity="0"/><stop offset="1" stop-color="#e80000"/></linearGradient><linearGradient x1="304.77719" y1="225.45918" x2="304.77719" y2="120.88643" gradientUnits="userSpaceOnUse" id="color-3"><stop offset="0" stop-color="#ff3100"/><stop offset="1" stop-color="#ff8d00"/></linearGradient><linearGradient x1="304.92951" y1="219.1488" x2="304.92951" y2="147.37106" gradientUnits="userSpaceOnUse" id="color-4"><stop offset="0" stop-color="#ffe049"/><stop offset="1" stop-color="#fff3e5"/></linearGradient></defs><g transform="translate(-206.55865,-98.96889)"><g data-paper-data="{&quot;isPaintingLayer&quot;:true}" fill-rule="nonzero" stroke="#000000" stroke-linejoin="miter" stroke-miterlimit="10" stroke-dasharray="" stroke-dashoffset="0" style="mix-blend-mode: normal"><path d="M256.91401,129.96414c-0.10471,2.10972 -1.89987,3.73511 -4.00959,3.63041c-2.10972,-0.10471 -3.73511,-1.89987 -3.63041,-4.00959c0.10471,-2.10972 1.89987,-3.73511 4.00959,-3.63041c2.10972,0.10471 3.73511,1.89987 3.63041,4.00959z" data-paper-data="{&quot;index&quot;:null}" fill="#e80000" stroke-width="2" stroke-linecap="butt"/><path d="M246.9563,125.65422c6.37739,-5.58341 10.71892,-1.45069 13.43381,5.2594c2.7149,6.71008 1.42681,15.38803 -1.28693,24.76271c-4.04257,13.96522 -23.02477,16.70239 -23.02477,16.70239c0,0 11.44371,-10.50683 10.33467,-23.93796c-0.99368,-12.0342 -5.83419,-17.20311 0.54322,-22.78654z" data-paper-data="{&quot;index&quot;:null}" fill="url(#color-1)" stroke-width="0" stroke-linecap="butt"/><path d="M268.87758,136.58812c-0.10471,2.10972 -1.89987,3.73511 -4.00959,3.63041c-2.10972,-0.10471 -3.73511,-1.89987 -3.63041,-4.00959c0.10471,-2.10972 1.89987,-3.73511 4.00959,-3.63041c2.10972,0.10471 3.73511,1.89987 3.63041,4.00959z" data-paper-data="{&quot;index&quot;:null}" fill="#e80000" stroke-width="2" stroke-linecap="butt"/><path d="M260.02608,131.73326c6.37739,-5.58341 10.71892,-1.45069 13.43381,5.2594c2.71489,6.71008 1.42681,15.38803 -1.28693,24.76271c-4.04257,13.96523 -23.02477,16.7024 -23.02477,16.7024c0,0 11.44372,-10.50682 10.33467,-23.93796c-0.99368,-12.0342 -5.83419,-17.20312 0.54321,-22.78654z" data-paper-data="{&quot;index&quot;:null}" fill="url(#color-2)" stroke-width="0" stroke-linecap="butt"/><path d="M231.63748,197.7629l0.93984,-25.54781l7.84539,0.28862l-0.93984,25.54781z" fill="#e80000" stroke-width="2" stroke-linecap="butt"/><path d="M213.2779,158.14529c0,0 2.16875,-2.16261 3.922,-3.20049c1.38896,-0.82223 5.7615,-2.53188 5.7615,-2.53188" fill="none" stroke-width="2" stroke-linecap="round"/><path d="M207.87948,163.14714c-0.98446,-2.65854 0.37266,-5.61178 3.0312,-6.59623c2.65854,-0.98446 5.61178,0.37265 6.59623,3.03119c0.98446,2.65854 -0.37265,5.61178 -3.03119,6.59624c-2.65854,0.98446 -5.61178,-0.37265 -6.59624,-3.03119z" fill="#e80000" stroke-width="2" stroke-linecap="butt"/><path d="M224.38407,158.5561c-5.47094,-7.3616 -3.93826,-17.76442 3.42334,-23.23534c7.3616,-5.47094 17.76442,-3.93826 23.23535,3.42334c5.47093,7.3616 3.93825,17.76442 -3.42335,23.23535c-7.3616,5.47094 -17.76442,3.93826 -23.23534,-3.42335z" fill="#e80000" stroke-width="2" stroke-linecap="butt"/><path d="M224.6932,208.6688c4.11347,0 7.4481,3.61645 7.4481,8.07758c0,4.46113 -3.33463,8.07758 -7.4481,8.07758c-4.11347,0 -7.4481,-3.61645 -7.4481,-8.07758c0,-4.46113 3.33463,-8.07758 7.4481,-8.07758z" data-paper-data="{&quot;index&quot;:null}" fill="#e80000" stroke-width="2" stroke-linecap="butt"/><path d="M257.04177,214.15416c2.36602,4.34483 0.69761,6.84029 -2.18267,8.40878c-2.88028,1.56849 -7.13325,-0.68218 -9.49928,-5.02702c-2.36603,-4.34482 -3.54022,-8.27208 -0.65994,-9.84056c1.11241,-0.60578 8.43552,-0.71462 12.34188,6.4588z" data-paper-data="{&quot;index&quot;:null}" fill="#e80000" stroke-width="2" stroke-linecap="butt"/><path d="M222.63962,158.01226l-4.35515,-3.52034l20.99629,-25.97528l4.35514,3.52033z" fill="#ff2121" stroke-width="2" stroke-linecap="butt"/><path d="M304.45352,98.96889c0,0 18.55745,45.32696 18.55745,74.20391c0,28.87696 -8.16353,52.28637 -18.23377,52.28637c-10.07024,0 -18.23377,-23.40943 -18.23377,-52.28637c0,-28.87695 17.91009,-74.20391 17.91009,-74.20391z" fill="url(#color-3)" stroke-width="0" stroke-linecap="butt"/><path d="M304.92951,137.52673c0,0 12.51549,25.91232 12.51549,45.73322c0,19.82087 -5.60337,35.8889 -12.51549,35.8889c-6.91211,0 -12.51549,-16.06798 -12.51549,-35.8889c0,-19.82087 12.51549,-45.73322 12.51549,-45.73322z" fill="url(#color-4)" stroke-width="0" stroke-linecap="butt"/></g></g></svg>