<svg version="1.1" xmlns="http://www.w3.org/2000/svg" xmlns:xlink="http://www.w3.org/1999/xlink" width="133.31097" height="84.4194" viewBox="0,0,133.31097,84.4194"><defs><radialGradient cx="260.9038" cy="146.27397" r="18.84183" gradientUnits="userSpaceOnUse" id="color-1"><stop offset="0" stop-color="#ffffff"/><stop offset="1" stop-color="#0debff"/></radialGradient></defs><g transform="translate(-188.48698,-143.26657)"><g data-paper-data="{&quot;isPaintingLayer&quot;:true}" fill-rule="nonzero" stroke-linejoin="miter" stroke-miterlimit="10" stroke-dasharray="" stroke-dashoffset="0" style="mix-blend-mode: normal"><path d="M255.22567,167.4209c0,0 2.12776,-2.20295 3.86122,-3.27356c1.37327,-0.84815 5.71295,-2.6396 5.71295,-2.6396" data-paper-data="{&quot;index&quot;:null}" fill="none" stroke="#000000" stroke-width="2" stroke-linecap="round"/><path d="M246.47847,172.68572c-1.03419,-2.63959 0.26724,-5.61778 2.90683,-6.65198c2.63959,-1.03419 5.61778,0.26724 6.65198,2.90683c1.03419,2.63959 -0.26724,5.61778 -2.90683,6.65198c-2.63959,1.03419 -5.61778,-0.26724 -6.65198,-2.90683z" data-paper-data="{&quot;index&quot;:null}" fill="#0debff" stroke="#000000" stroke-width="2" stroke-linecap="butt"/><g data-paper-data="{&quot;index&quot;:null}" fill="#76f4ff" stroke="#53acb4" stroke-width="1" stroke-linecap="butt"><path d="M188.58131,177.20403l79.32489,-0.39058l34.48205,10.94077l-35.90563,4.41565z" data-paper-data="{&quot;index&quot;:null}"/><path d="M317.74013,195.00295l-24.3917,-5.08203l0.51854,-5.59366l24.8584,0.04775z"/><path d="M286.98742,166.45262l10.20258,12.78025l-1.50682,16.78764l-12.37501,10.12093l5.53324,-19.50201z"/></g><path d="M320.79795,192.44966c-1.49363,1.49364 -3.9153,1.49364 -5.40894,0c-1.49364,-1.49363 -1.49364,-3.9153 0,-5.40894c1.49363,-1.49364 3.9153,-1.49364 5.40894,0c1.49364,1.49363 1.49364,3.9153 0,5.40894z" data-paper-data="{&quot;index&quot;:null}" fill="#0debff" stroke="#000000" stroke-width="2" stroke-linecap="butt"/><path d="M241.76878,209.04608l12.05478,-22.54454l6.92312,3.70187l-12.05478,22.54454z" data-paper-data="{&quot;index&quot;:null}" fill="#0debff" stroke="#000000" stroke-width="2" stroke-linecap="butt"/><path d="M225.64077,194.12555c0,-2.11232 1.71238,-3.8247 3.8247,-3.8247c2.11232,0 3.8247,1.71238 3.8247,3.8247c0,2.11232 -1.71238,3.8247 -3.8247,3.8247c-2.11232,0 -3.8247,-1.71238 -3.8247,-3.8247z" fill="#0debff" stroke="#000000" stroke-width="2" stroke-linecap="butt"/><path d="M222.88335,215.61447c4.11347,0 7.4481,2.47844 7.4481,5.53575c0,3.05731 -3.33463,5.53575 -7.4481,5.53575c-4.11347,0 -7.4481,-2.47844 -7.4481,-5.53575c0,-3.05731 3.33463,-5.53575 7.4481,-5.53575z" data-paper-data="{&quot;index&quot;:null}" fill="#0debff" stroke="#000000" stroke-width="2" stroke-linecap="butt"/><path d="M266.02164,214.68288c4.94682,0.06726 6.30423,2.74465 6.25964,6.02401c-0.04458,3.27936 -4.09092,5.88328 -9.03775,5.81603c-4.94682,-0.06725 -8.94551,-0.96868 -8.90092,-4.24804c0.01722,-1.26655 3.51171,-7.70303 11.67904,-7.59198z" data-paper-data="{&quot;index&quot;:null}" fill="#0debff" stroke="#000000" stroke-width="2" stroke-linecap="butt"/><path d="M281.41696,184.53421c-7.41682,5.39583 -17.80353,3.7575 -23.19936,-3.65932c-5.39583,-7.41682 -3.7575,-17.80353 3.65932,-23.19936c7.41682,-5.39583 17.80353,-3.7575 23.19936,3.65932c5.39583,7.41682 3.7575,17.80353 -3.65932,23.19936z" data-paper-data="{&quot;index&quot;:null}" fill="#0debff" stroke="#000000" stroke-width="2" stroke-linecap="butt"/><path d="M253.45264,164.57736l4.6622,-20.27781l29.99426,1.22295l2.99592,20.59005z" data-paper-data="{&quot;index&quot;:null}" fill="url(#color-1)" stroke="#000000" stroke-width="2" stroke-linecap="butt"/></g></g></svg>