<svg version="1.1" xmlns="http://www.w3.org/2000/svg" xmlns:xlink="http://www.w3.org/1999/xlink" width="72.5382" height="91.8186" viewBox="0,0,72.5382,91.8186"><g transform="translate(-212.7471,-134.93913)"><g data-paper-data="{&quot;isPaintingLayer&quot;:true}" fill-rule="nonzero" stroke="#000000" stroke-width="2" stroke-linejoin="miter" stroke-miterlimit="10" stroke-dasharray="" stroke-dashoffset="0" style="mix-blend-mode: normal"><path d="M230.51503,205.92945c0,-2.11232 1.71238,-3.8247 3.8247,-3.8247c2.11232,0 3.8247,1.71238 3.8247,3.8247c0,2.11232 -1.71238,3.8247 -3.8247,3.8247c-2.11232,0 -3.8247,-1.71238 -3.8247,-3.8247z" fill="#1d28e8" stroke-linecap="butt"/><path d="M236.53397,206.26661v-25.56509h7.8507v25.56509z" fill="#1d28e8" stroke-linecap="butt"/><path d="M222.10038,207.24028c0,-2.11232 1.71238,-3.8247 3.8247,-3.8247c2.11232,0 3.8247,1.71238 3.8247,3.8247c0,2.11232 -1.71238,3.8247 -3.8247,3.8247c-2.11232,0 -3.8247,-1.71238 -3.8247,-3.8247z" fill="#1d28e8" stroke-linecap="butt"/><path d="M229.28717,214.68624c4.11347,0 7.4481,2.47844 7.4481,5.53575c0,3.05731 -3.33463,5.53575 -7.4481,5.53575c-4.11347,0 -7.4481,-2.47844 -7.4481,-5.53575c0,-3.05731 3.33463,-5.53575 7.4481,-5.53575z" data-paper-data="{&quot;index&quot;:null}" fill="#1d28e8" stroke-linecap="butt"/><path d="M266.23646,209.78503c1.36906,6.76002 -1.42142,13.5286 -6.23272,15.11804c-4.81129,1.58945 -9.06517,1.13217 -10.43423,-5.62785c-0.52876,-2.61083 1.60506,-31.19311 1.60506,-31.19311c0,0 13.69283,14.94291 15.06188,21.70293z" data-paper-data="{&quot;index&quot;:null}" fill="#1d28e8" stroke-linecap="butt"/><path d="M234.01763,159.84116c4.37925,-8.05894 14.46239,-11.04191 22.52132,-6.66267c8.05894,4.37925 11.04191,14.46239 6.66267,22.52132c-4.37925,8.05894 -14.46239,11.04191 -22.52132,6.66267c-8.05894,-4.37925 -11.04191,-14.46239 -6.66267,-22.52132z" fill="#1d28e8" stroke-linecap="butt"/><path d="M223.93747,158.47308c0,0 3.00176,-0.60808 5.03668,-0.50703c1.61209,0.08006 6.20248,1.06513 6.20248,1.06513" fill="none" stroke-linecap="round"/><path d="M213.7471,157.84989c0.64485,-2.76065 3.40553,-4.47585 6.16618,-3.83101c2.76065,0.64485 4.47585,3.40553 3.83101,6.16618c-0.64485,2.76065 -3.40553,4.47585 -6.16618,3.83101c-2.76065,-0.64485 -4.47585,-3.40553 -3.83101,-6.16618z" fill="#1d28e8" stroke-linecap="butt"/><path d="M234.22747,159.03891l-0.03663,-23.04398l40.99056,2.22298l-10.52659,26.49152l20.44365,3.88815z" fill="#2530ff" stroke-linecap="round"/></g></g></svg>