<svg version="1.1" xmlns="http://www.w3.org/2000/svg" xmlns:xlink="http://www.w3.org/1999/xlink" width="69.31659" height="106.76522" viewBox="0,0,69.31659,106.76522"><g transform="translate(-204.71081,-120.39511)"><g data-paper-data="{&quot;isPaintingLayer&quot;:true}" fill-rule="nonzero" stroke="#000000" stroke-width="2" stroke-linejoin="miter" stroke-miterlimit="10" stroke-dasharray="" stroke-dashoffset="0" style="mix-blend-mode: normal"><path d="M241.53394,200.59771c0,-2.11232 1.71238,-3.8247 3.8247,-3.8247c2.11232,0 3.8247,1.71238 3.8247,3.8247c0,2.11232 -1.71238,3.8247 -3.8247,3.8247c-2.11232,0 -3.8247,-1.71238 -3.8247,-3.8247z" fill="#1d28e8" stroke-linecap="butt"/><path d="M224.65726,160.54869c0,-9.17193 7.43532,-16.60724 16.60724,-16.60724c9.17193,0 16.60724,7.43532 16.60724,16.60724c0,9.17193 -7.43532,16.60724 -16.60724,16.60724c-9.17193,0 -16.60724,-7.43532 -16.60724,-16.60724z" fill="#1d28e8" stroke-linecap="butt"/><path d="M236.53395,206.2666v-25.56509h7.8507v25.56509z" fill="#1d28e8" stroke-linecap="butt"/><path d="M229.92024,210.08387c0,-2.11232 1.71238,-3.8247 3.8247,-3.8247c2.11232,0 3.8247,1.71238 3.8247,3.8247c0,2.11232 -1.71238,3.8247 -3.8247,3.8247c-2.11232,0 -3.8247,-1.71238 -3.8247,-3.8247z" fill="#1d28e8" stroke-linecap="butt"/><path d="M229.28715,214.68623c4.11347,0 7.4481,2.47844 7.4481,5.53575c0,3.05731 -3.33463,5.53575 -7.4481,5.53575c-4.11347,0 -7.4481,-2.47844 -7.4481,-5.53575c0,-3.05731 3.33463,-5.53575 7.4481,-5.53575z" data-paper-data="{&quot;index&quot;:null}" fill="#1d28e8" stroke-linecap="butt"/><path d="M215.14709,164.15952c0,0 2.34717,-1.96752 4.1834,-2.85033c1.45469,-0.69937 5.95838,-2.02557 5.95838,-2.02557" fill="none" stroke-linecap="round"/><path d="M205.89575,168.47746c-0.75151,-2.73354 0.85523,-5.55873 3.58877,-6.31024c2.73354,-0.75151 5.55873,0.85523 6.31024,3.58877c0.75151,2.73354 -0.85523,5.55873 -3.58877,6.31024c-2.73354,0.75151 -5.55873,-0.85523 -6.31024,-3.58877z" fill="#1d28e8" stroke-linecap="butt"/><path d="M255.35549,214.28363c4.94728,0 6.34095,2.65869 6.34095,5.93835c0,3.27966 -4.01056,5.93835 -8.95785,5.93835c-4.94728,0 -8.95785,-0.84699 -8.95785,-4.12665c0,-1.26666 3.40667,-7.75005 11.57475,-7.75005z" data-paper-data="{&quot;index&quot;:null}" fill="#1d28e8" stroke-linecap="butt"/><path d="M224.45859,159.7436l-11.03481,-20.23016l37.07784,-17.61821l3.39948,28.30289l19.81931,-6.34473z" fill="#2530ff" stroke-linecap="round"/></g></g></svg>