<svg version="1.1" xmlns="http://www.w3.org/2000/svg" xmlns:xlink="http://www.w3.org/1999/xlink" width="76.52618" height="57.45708" viewBox="0,0,76.52618,57.45708"><g transform="translate(-197.92015,-168.16225)"><g data-paper-data="{&quot;isPaintingLayer&quot;:true}" fill-rule="nonzero" stroke="#000000" stroke-width="2" stroke-linejoin="miter" stroke-miterlimit="10" stroke-dasharray="" stroke-dashoffset="0" style="mix-blend-mode: normal"><path d="M265.60227,189.82876c4.71395,-1.50142 6.84875,0.60893 7.84407,3.73391c0.99532,3.12499 -2.01923,6.8754 -6.73318,8.37682c-4.71395,1.50142 -8.79242,1.91151 -9.78774,-1.21347c-0.38441,-1.20693 0.894,-8.41839 8.67685,-10.89726z" data-paper-data="{&quot;index&quot;:null}" fill="#e80000" stroke-linecap="butt"/><path d="M225.1907,220.79463c0,-2.11232 1.71238,-3.8247 3.8247,-3.8247c2.11232,0 3.8247,1.71238 3.8247,3.8247c0,2.11232 -1.71238,3.8247 -3.8247,3.8247c-2.11232,0 -3.8247,-1.71238 -3.8247,-3.8247z" fill="#e80000" stroke-linecap="butt"/><path d="M254.73171,219.21822c0,-2.11232 1.71238,-3.8247 3.8247,-3.8247c2.11232,0 3.8247,1.71238 3.8247,3.8247c0,2.11232 -1.71238,3.8247 -3.8247,3.8247c-2.11232,0 -3.8247,-1.71238 -3.8247,-3.8247z" fill="#e80000" stroke-linecap="butt"/><path d="M252.26455,177.79311c2.35247,-4.35218 5.35404,-4.31397 8.23921,-2.75448c2.88516,1.5595 3.31698,6.35186 0.96451,10.70405c-2.35247,4.35218 -5.00462,7.47757 -7.88979,5.91807c-1.1143,-0.60231 -5.19792,-6.6821 -1.31394,-13.86766z" data-paper-data="{&quot;index&quot;:null}" fill="#e80000" stroke-linecap="butt"/><g stroke-linecap="butt"><path d="M253.75527,201.15613l-10.63227,1.82091c0,0 0.63038,-2.87649 0.37091,-4.10383c-0.28013,-1.32506 -1.99447,-3.57586 -1.99447,-3.57586l10.63227,-1.82093c0,0 1.81538,-0.10585 2.54816,3.24738c0.8624,3.94635 -0.92461,4.43232 -0.92461,4.43232z" fill="#e80000"/><path d="M242.30613,203.17282c-1.10523,0.24335 -2.38843,-1.31814 -2.8661,-3.48766c-0.47768,-2.16952 0.03106,-4.12555 1.13629,-4.36888c1.10523,-0.24335 2.38843,1.31814 2.8661,3.48766c0.47768,2.16952 -0.03106,4.12555 -1.13629,4.36888z" fill="#fd0000"/></g><path d="M215.89162,185.76949c0,-9.17193 7.43532,-16.60724 16.60724,-16.60724c9.17193,0 16.60724,7.43532 16.60724,16.60724c0,9.17193 -7.43532,16.60724 -16.60724,16.60724c-9.17193,0 -16.60724,-7.43532 -16.60724,-16.60724z" fill="#e80000" stroke-linecap="butt"/><path d="M214.81587,184.29247l-1.3957,-5.42329l32.34602,-8.32434l1.3957,5.42328z" fill="#ff2121" stroke-linecap="butt"/><path d="M208.51218,184.70813c0,0 2.15009,-2.18116 3.89436,-3.23407c1.38183,-0.83412 5.73954,-2.58127 5.73954,-2.58127" data-paper-data="{&quot;index&quot;:null}" fill="none" stroke-linecap="round"/><path d="M199.25646,191.09792c-1.00725,-2.64999 0.32443,-5.61477 2.97444,-6.62203c2.64999,-1.00725 5.61476,0.32444 6.62202,2.97443c1.00725,2.64999 -0.32443,5.61477 -2.97442,6.62203c-2.64999,1.00725 -5.61477,-0.32443 -6.62202,-2.97443z" data-paper-data="{&quot;index&quot;:null}" fill="#e80000" stroke-linecap="butt"/></g></g></svg>