<svg version="1.1" xmlns="http://www.w3.org/2000/svg" xmlns:xlink="http://www.w3.org/1999/xlink" width="94.25645" height="98.82737" viewBox="0,0,94.25645,98.82737"><g transform="translate(-211.64177,-129.50105)"><g data-paper-data="{&quot;isPaintingLayer&quot;:true}" fill-rule="nonzero" stroke="#000000" stroke-width="2" stroke-linejoin="miter" stroke-miterlimit="10" stroke-dasharray="" stroke-dashoffset="0" style="mix-blend-mode: normal"><path d="M242.25286,208.5055c0,-2.11232 1.71238,-3.8247 3.8247,-3.8247c2.11232,0 3.8247,1.71238 3.8247,3.8247c0,2.11232 -1.71238,3.8247 -3.8247,3.8247c-2.11232,0 -3.8247,-1.71238 -3.8247,-3.8247z" fill="#1d28e8" stroke-linecap="butt"/><path d="M256.52807,169.65464c0,-9.17193 7.43532,-16.60724 16.60724,-16.60724c9.17193,0 16.60724,7.43532 16.60724,16.60724c0,9.17193 -7.43532,16.60724 -16.60724,16.60724c-9.17193,0 -16.60724,-7.43532 -16.60724,-16.60724z" fill="#1d28e8" stroke-linecap="butt"/><path d="M238.53566,203.77834l15.28757,-20.49058l6.29239,4.69461l-15.28757,20.49058z" fill="#1d28e8" stroke-linecap="butt"/><path d="M231.35804,203.37423c0,-2.11232 1.71238,-3.8247 3.8247,-3.8247c2.11232,0 3.8247,1.71238 3.8247,3.8247c0,2.11232 -1.71238,3.8247 -3.8247,3.8247c-2.11232,0 -3.8247,-1.71238 -3.8247,-3.8247z" fill="#1d28e8" stroke-linecap="butt"/><path d="M256.82169,168.0147c0,0 -4.64393,0.68989 -6.25784,0.66683c-2.03722,-0.02912 -4.99401,-0.82767 -4.99401,-0.82767" data-paper-data="{&quot;index&quot;:null}" fill="none" stroke-linecap="round"/><path d="M239.57746,161.91605c2.7962,-0.46722 5.44171,1.42079 5.90892,4.21699c0.46722,2.7962 -1.42079,5.44171 -4.21699,5.90892c-2.7962,0.46722 -5.44171,-1.42079 -5.90892,-4.21699c-0.46722,-2.7962 1.42079,-5.44171 4.21699,-5.90892z" data-paper-data="{&quot;index&quot;:null}" fill="#1d28e8" stroke-linecap="butt"/><path d="M227.24441,217.43732c3.43261,3.56269 2.48498,6.41102 0.12319,8.68658c-2.36179,2.27556 -7.05907,1.23213 -10.49169,-2.33059c-3.43261,-3.56269 -5.60535,-7.03851 -3.24356,-9.31406c0.91216,-0.87886 7.94474,-2.92403 13.61205,2.95807z" data-paper-data="{&quot;index&quot;:null}" fill="#1d28e8" stroke-linecap="butt"/><path d="M256.32942,168.84954l-11.03481,-20.23016l37.07784,-17.61821l3.39948,28.30289l19.81931,-6.34473z" fill="#2530ff" stroke-linecap="round"/><path d="M255.73816,213.34037c0.53944,4.91778 -1.95144,6.59304 -5.21155,6.95064c-3.2601,0.3576 -6.34024,-3.33915 -6.87968,-8.25694c-0.53944,-4.91778 -0.13481,-8.9968 3.12532,-9.35439c1.25911,-0.13812 8.07529,2.5413 8.96592,10.66069z" data-paper-data="{&quot;index&quot;:null}" fill="#1d28e8" stroke-linecap="butt"/></g></g></svg>