<svg version="1.1" xmlns="http://www.w3.org/2000/svg" xmlns:xlink="http://www.w3.org/1999/xlink" width="125.81644" height="111.29366" viewBox="0,0,125.81644,111.29366"><g transform="translate(-185.46094,-121.98629)"><g data-paper-data="{&quot;isPaintingLayer&quot;:true}" fill-rule="nonzero" stroke="#000000" stroke-width="2" stroke-linejoin="miter" stroke-miterlimit="10" stroke-dasharray="" stroke-dashoffset="0" style="mix-blend-mode: normal"><path d="M251.83287,202.4127l-22.03418,-12.96415l3.98112,-6.7664l22.03418,12.96415z" fill="#1d28e8" stroke-linecap="butt"/><path d="M209.49273,205.58525c-1.13893,-1.77897 -0.62008,-4.1444 1.15889,-5.28334c1.77897,-1.13893 4.1444,-0.62008 5.28334,1.15889c1.13893,1.77897 0.62008,4.1444 -1.15889,5.28334c-1.77897,1.13893 -4.1444,0.62008 -5.28334,-1.15889z" fill="#1d28e8" stroke-linecap="butt"/><path d="M204.9946,163.64785c-0.54277,-9.15586 6.43951,-17.01814 15.59536,-17.56092c9.15586,-0.54277 17.01814,6.43951 17.56092,15.59536c0.54277,9.15586 -6.43951,17.01814 -15.59536,17.56092c-9.15586,0.54277 -17.01814,-6.43951 -17.56092,-15.59536z" fill="#1d28e8" stroke-linecap="butt"/><path d="M195.71478,167.81514c0,0 2.22663,-2.10297 4.00739,-3.0929c1.41075,-0.78423 5.82807,-2.37463 5.82807,-2.37463" fill="none" stroke-linecap="round"/><path d="M186.73518,172.67299c-0.91196,-2.68428 0.52477,-5.5996 3.20906,-6.51155c2.68428,-0.91196 5.5996,0.52477 6.51155,3.20906c0.91196,2.68428 -0.52477,5.5996 -3.20906,6.51155c-2.68428,0.91196 -5.5996,-0.52477 -6.51155,-3.20906z" fill="#1d28e8" stroke-linecap="butt"/><path d="M204.74863,162.85593l-12.21265,-19.54169l35.97025,-19.78152l5.06842,28.05212l19.40911,-7.50647z" fill="#2530ff" stroke-linecap="round"/><path d="M215.6066,204.519c-1.13893,-1.77897 -0.62008,-4.1444 1.15889,-5.28334c1.77897,-1.13893 4.1444,-0.62008 5.28334,1.15889c1.13893,1.77897 0.62008,4.1444 -1.15889,5.28334c-1.77897,1.13893 -4.1444,0.62008 -5.28334,-1.15889z" fill="#1d28e8" stroke-linecap="butt"/><path d="M252.04639,224.66539c1.22576,4.79303 -1.00472,6.80196 -4.18214,7.61456c-3.1774,0.81258 -6.74687,-2.4142 -7.97263,-7.20723c-1.22576,-4.79303 -1.39886,-8.88839 1.77855,-9.70098c1.22716,-0.31383 8.35246,1.38027 10.37622,9.29366z" data-paper-data="{&quot;index&quot;:null}" fill="#1d28e8" stroke-linecap="butt"/><path d="M276.53433,159.97523c-0.37569,-5.06625 1.84031,-7.8432 4.67389,-9.49457c2.83357,-1.65136 7.15003,0.47499 9.64108,4.74939c1.10224,1.89133 31.73384,44.29518 13.81947,58.71785c-22.57176,18.17228 -58.491,4.8992 -60.07077,5.81988c-0.57906,0.33747 19.1908,4.29524 38.61656,-12.10061c17.28729,-14.59093 -5.1665,-27.27904 -6.68023,-47.69195z" data-paper-data="{&quot;index&quot;:null}" fill="#1d28e8" stroke-linecap="butt"/></g></g></svg>