<svg version="1.1" xmlns="http://www.w3.org/2000/svg" xmlns:xlink="http://www.w3.org/1999/xlink" width="117.19204" height="49.09208" viewBox="0,0,117.19204,49.09208"><g transform="translate(-183.88133,-156.16889)"><g data-paper-data="{&quot;isPaintingLayer&quot;:true}" fill-rule="nonzero" stroke="#000000" stroke-width="2" stroke-linejoin="miter" stroke-miterlimit="10" stroke-dasharray="" stroke-dashoffset="0" style="mix-blend-mode: normal"><path d="M222.89878,171.24728c-2.10503,-0.17537 -3.66933,-2.024 -3.49396,-4.12903c0.17537,-2.10503 2.024,-3.66933 4.12903,-3.49396c2.10503,0.17537 3.66933,2.024 3.49396,4.12903c-0.17537,2.10503 -2.024,3.66933 -4.12903,3.49396z" fill="#e80000" stroke-linecap="butt"/><path d="M190.80466,194.56124c0,0 0.17253,-3.05787 0.78599,-5.00075c0.486,-1.53917 2.60229,-5.73004 2.60229,-5.73004" fill="none" stroke-linecap="round"/><path d="M187.61922,204.26097c-2.50709,-1.32344 -3.46664,-4.42869 -2.1432,-6.93579c1.32344,-2.50709 4.42869,-3.46664 6.93579,-2.1432c2.50709,1.32344 3.46664,4.42869 2.1432,6.93579c-1.32344,2.50709 -4.42869,3.46664 -6.93579,2.1432z" fill="#e80000" stroke-linecap="butt"/><path d="M197.36817,188.48287c-5.9247,-7.00158 -5.05172,-17.48041 1.94985,-23.4051c7.00158,-5.9247 17.48041,-5.05172 23.4051,1.94985c5.9247,7.00158 5.05172,17.48041 -1.94985,23.4051c-7.00158,5.9247 -17.48041,5.05172 -23.4051,-1.94985z" fill="#e80000" stroke-linecap="butt"/><path d="M257.63051,195.94713l-24.91482,-5.72938l1.75942,-7.651l24.91482,5.72938z" fill="#e80000" stroke-linecap="butt"/><path d="M207.33795,201.51162c-2.10503,-0.17537 -3.66933,-2.024 -3.49396,-4.12903c0.17537,-2.10503 2.024,-3.66933 4.12903,-3.49396c2.10503,0.17537 3.66933,2.024 3.49396,4.12903c-0.17537,2.10503 -2.024,3.66933 -4.12903,3.49396z" fill="#e80000" stroke-linecap="butt"/><path d="M288.0986,177.05329c1.41461,-4.74072 4.3608,-5.31598 7.50353,-4.37821c3.14273,0.93778 4.54364,5.54111 3.12903,10.28184c-1.41461,4.74072 -3.37301,8.34166 -6.51574,7.40388c-1.21377,-0.36219 -6.45238,-5.48047 -4.11681,-13.30752z" data-paper-data="{&quot;index&quot;:null}" fill="#e80000" stroke-linecap="butt"/><path d="M195.59288,188.05025l-4.56866,-3.23842l19.3148,-27.24882l4.56867,3.23841z" fill="#ff2121" stroke-linecap="butt"/><path d="M289.59795,186.75809c2.77914,-4.09292 5.76158,-3.75239 8.47487,-1.91004c2.71328,1.84235 2.6599,6.65383 -0.11924,10.74676c-2.77914,4.09292 -5.7328,6.93509 -8.44608,5.09274c-1.04792,-0.71155 -4.49797,-7.17195 0.09045,-13.92946z" data-paper-data="{&quot;index&quot;:null}" fill="#e80000" stroke-linecap="butt"/></g></g></svg>