<svg version="1.1" xmlns="http://www.w3.org/2000/svg" xmlns:xlink="http://www.w3.org/1999/xlink" width="118.93838" height="54.32718" viewBox="0,0,118.93838,54.32718"><g transform="translate(-172.17632,-179.53671)"><g data-paper-data="{&quot;isPaintingLayer&quot;:true}" fill-rule="nonzero" stroke="#000000" stroke-width="2" stroke-linejoin="miter" stroke-miterlimit="10" stroke-dasharray="" stroke-dashoffset="0" style="mix-blend-mode: normal"><path d="M258.98288,190.9515c-0.08857,2.11047 -1.87125,3.74953 -3.9817,3.66097c-2.11047,-0.08857 -3.74953,-1.87125 -3.66097,-3.9817c0.08857,-2.11047 1.87125,-3.74953 3.9817,-3.66097c2.11047,0.08857 3.74953,1.87125 3.66097,3.9817z" data-paper-data="{&quot;index&quot;:null}" fill="#1d28e8" stroke-linecap="butt"/><path d="M227.29528,198.04091c-0.38457,9.16386 -8.12511,16.28088 -17.28897,15.8963c-9.16386,-0.38457 -16.28088,-8.12511 -15.8963,-17.28897c0.38457,-9.16386 8.12511,-16.28088 17.28897,-15.8963c9.16386,0.38457 16.28088,8.12511 15.8963,17.28897z" data-paper-data="{&quot;index&quot;:null}" fill="#1d28e8" stroke-linecap="butt"/><path d="M256.68474,192.00844l-25.54261,-1.07194l0.32918,-7.8438l25.54261,1.07194z" data-paper-data="{&quot;index&quot;:null}" fill="#1d28e8" stroke-linecap="butt"/><path d="M257.0933,209.07505c-0.08857,2.11047 -1.87125,3.74953 -3.9817,3.66097c-2.11047,-0.08857 -3.74953,-1.87125 -3.66097,-3.9817c0.08857,-2.11047 1.87125,-3.74953 3.9817,-3.66097c2.11047,0.08857 3.74953,1.87125 3.66097,3.9817z" data-paper-data="{&quot;index&quot;:null}" fill="#1d28e8" stroke-linecap="butt"/><path d="M286.66531,185.21655c4.21877,2.58409 4.01852,5.57923 2.30548,8.37594c-1.71304,2.79672 -6.52173,2.9691 -10.74052,0.385c-4.21877,-2.58409 -7.19637,-5.40118 -5.48333,-8.1979c0.66161,-1.08013 6.95307,-4.82944 13.91837,-0.56305z" data-paper-data="{&quot;index&quot;:null}" fill="#1d28e8" stroke-linecap="butt"/><path d="M283.7615,203.35089c3.43596,3.55946 2.49103,6.40868 0.13138,8.68645c-2.35965,2.27778 -7.05792,1.23877 -10.49388,-2.3207c-3.43596,-3.55946 -5.61197,-7.03322 -3.25234,-9.31099c0.91133,-0.87972 7.94197,-2.93151 13.61483,2.94525z" data-paper-data="{&quot;index&quot;:null}" fill="#1d28e8" stroke-linecap="butt"/><path d="M230.91809,211.31187c0,0 -2.88775,1.0204 -4.91691,1.20388c-1.60752,0.14534 -6.29038,-0.1905 -6.29038,-0.1905" fill="none" stroke-linecap="round"/><path d="M239.91463,209.98949c-0.25389,2.82357 -2.74866,4.90671 -5.57223,4.65281c-2.82357,-0.25389 -4.90671,-2.74866 -4.65281,-5.57223c0.25389,-2.82357 2.74866,-4.90671 5.57223,-4.65281c2.82357,0.25389 4.90671,2.74866 4.65281,5.57223z" fill="#1d28e8" stroke-linecap="butt"/><path d="M219.82374,211.91258l-10.41498,20.55613l-35.52779,-20.56559l21.39322,-18.83986l-16.459,-12.73428z" fill="#2530ff" stroke-linecap="round"/></g></g></svg>