<svg version="1.1" xmlns="http://www.w3.org/2000/svg" xmlns:xlink="http://www.w3.org/1999/xlink" width="102.4635" height="143.42347" viewBox="0,0,102.4635,143.42347"><g transform="translate(-183.29094,-80.33013)"><g data-paper-data="{&quot;isPaintingLayer&quot;:true}" fill-rule="nonzero" stroke="#000000" stroke-width="2" stroke-linejoin="miter" stroke-miterlimit="10" stroke-dasharray="" stroke-dashoffset="0" style="mix-blend-mode: normal"><path d="M217.64646,136.8537c-1.87292,-8.97867 3.88742,-17.77562 12.86609,-19.64852c8.97867,-1.87292 17.77561,3.88743 19.64853,12.86609c1.87292,8.97867 -3.88742,17.77562 -12.86609,19.64852c-8.97867,1.87292 -17.77561,-3.88743 -19.64853,-12.86609z" fill="#ff6b00" stroke-linecap="butt"/><path d="M236.02076,186.20832l-2.44273,-25.44811l7.81478,-0.75014l2.44273,25.44811z" data-paper-data="{&quot;index&quot;:null}" fill="#ff6b00" stroke-linecap="butt"/><path d="M206.12809,133.07518c0,0 2.4006,-1.90196 4.2605,-2.73374c1.47345,-0.65895 6.01203,-1.86031 6.01203,-1.86031" fill="none" stroke-linecap="round"/><path d="M196.76106,137.1361c-0.67576,-2.75324 1.00837,-5.53301 3.76162,-6.20877c2.75324,-0.67576 5.53299,1.00837 6.20875,3.76162c0.67576,2.75324 -1.00837,5.53301 -3.76161,6.20876c-2.75324,0.67576 -5.533,-1.00837 -6.20876,-3.76161z" fill="#ff6b00" stroke-linecap="butt"/><path d="M262.16172,210.55414c2.93116,3.98545 1.61506,6.6834 -1.02699,8.62653c-2.64205,1.94313 -7.16002,0.28749 -10.09119,-3.69798c-2.93116,-3.98545 -4.62501,-7.71814 -1.98296,-9.66127c1.02039,-0.75047 8.26171,-1.84736 13.10113,4.73273z" data-paper-data="{&quot;index&quot;:null}" fill="#ff6b00" stroke-linecap="butt"/><path d="M213.867,141.07001l1.65119,-12.79019l-30.43767,-15.50716l36.08111,-30.7278l10.86784,31.82439l12.86476,0.29272z" data-paper-data="{&quot;index&quot;:null}" fill="#ffa340" stroke-linecap="butt"/><path d="M235.62597,215.46917c0.86795,4.87055 -1.50501,6.70904 -4.7338,7.28443c-3.2288,0.57538 -6.54985,-2.90654 -7.41781,-7.7771c-0.86795,-4.87055 -0.73771,-8.96751 2.49107,-9.54288c1.24701,-0.22223 8.22751,1.99418 9.66052,10.03556z" data-paper-data="{&quot;index&quot;:null}" fill="#ff6b00" stroke-linecap="butt"/><path d="M278.0564,104.70914c-1.02021,-1.84961 -0.34786,-4.17608 1.50175,-5.19629c1.84961,-1.02021 4.17608,-0.34786 5.19629,1.50175c1.02021,1.84961 0.34786,4.17608 -1.50175,5.19629c-1.84961,1.02021 -4.17608,0.34786 -5.19629,-1.50175z" fill="#ff6b00" stroke-linecap="butt"/><path d="M266.33379,107.94855c-1.02021,-1.84961 -0.34786,-4.17608 1.50175,-5.19629c1.84961,-1.02021 4.17608,-0.34787 5.19629,1.50174c1.02021,1.84961 0.34786,4.17608 -1.50175,5.19629c-1.84961,1.02021 -4.17608,0.34786 -5.19629,-1.50175z" fill="#ff6b00" stroke-linecap="butt"/></g></g></svg>