<svg version="1.1" xmlns="http://www.w3.org/2000/svg" xmlns:xlink="http://www.w3.org/1999/xlink" width="56.45317" height="89.05259" viewBox="0,0,56.45317,89.05259"><g transform="translate(-206.85009,-138.03241)"><g data-paper-data="{&quot;isPaintingLayer&quot;:true}" fill-rule="nonzero" stroke="#000000" stroke-width="2" stroke-linejoin="miter" stroke-miterlimit="10" stroke-dasharray="" stroke-dashoffset="0" style="mix-blend-mode: normal"><path d="M228.80329,147.48515c0,0 -4.69342,-0.11789 -6.27939,-0.41778c-2.00194,-0.37856 -4.77768,-1.67303 -4.77768,-1.67303" data-paper-data="{&quot;index&quot;:null}" fill="none" stroke-linecap="round"/><path d="M207.85009,142.62046c0.85409,-2.70324 3.73789,-4.20227 6.44113,-3.34818c2.70324,0.85409 4.20227,3.73789 3.34818,6.44113c-0.85409,2.70324 -3.73789,4.20227 -6.44113,3.34818c-2.70324,-0.85409 -4.20227,-3.73789 -3.34818,-6.44113z" fill="#2d6a2b" stroke-linecap="butt"/><path d="M227.40066,160.53544c0,-9.17193 7.43532,-16.60724 16.60724,-16.60724c9.17193,0 16.60724,7.43532 16.60724,16.60724c0,9.17193 -7.43532,16.60724 -16.60724,16.60724c-9.17193,0 -16.60724,-7.43532 -16.60724,-16.60724z" fill="#2d6a2b" stroke-linecap="butt"/><path d="M236.33314,142.15413c14.84222,-5.55435 25.0872,3.06696 25.0872,3.06696l-37.64308,16.22019c0,0 -3.40193,-13.31531 12.55588,-19.28715z" fill="#367e33" stroke-linecap="round"/><path d="M233.972,204.33981l3.69303,-25.29694l7.76836,1.13408l-3.69303,25.29694z" fill="#2d6a2b" stroke-linecap="butt"/><path d="M221.56485,189.76937c0,-2.11232 1.71238,-3.8247 3.8247,-3.8247c2.11232,0 3.8247,1.71238 3.8247,3.8247c0,2.11232 -1.71238,3.8247 -3.8247,3.8247c-2.11232,0 -3.8247,-1.71238 -3.8247,-3.8247z" fill="#2d6a2b" stroke-linecap="butt"/><path d="M251.64753,182.67282c0,-2.11232 1.71238,-3.8247 3.8247,-3.8247c2.11232,0 3.8247,1.71238 3.8247,3.8247c0,2.11232 -1.71238,3.8247 -3.8247,3.8247c-2.11232,0 -3.8247,-1.71238 -3.8247,-3.8247z" fill="#2d6a2b" stroke-linecap="butt"/><path d="M254.59889,214.2083c4.94728,0 6.34095,2.65869 6.34095,5.93835c0,3.27966 -4.01057,5.93835 -8.95785,5.93835c-4.94728,0 -8.95785,-0.84699 -8.95785,-4.12665c0,-1.26666 3.40667,-7.75005 11.57475,-7.75005z" data-paper-data="{&quot;index&quot;:null}" fill="#2d6a2b" stroke-linecap="butt"/><path d="M228.53055,214.6109c4.11347,0 7.4481,2.47844 7.4481,5.53575c0,3.05731 -3.33463,5.53575 -7.4481,5.53575c-4.11347,0 -7.4481,-2.47844 -7.4481,-5.53575c0,-3.05731 3.33463,-5.53575 7.4481,-5.53575z" data-paper-data="{&quot;index&quot;:null}" fill="#2d6a2b" stroke-linecap="butt"/></g></g></svg>