<svg version="1.1" xmlns="http://www.w3.org/2000/svg" xmlns:xlink="http://www.w3.org/1999/xlink" width="152.93483" height="118.82043" viewBox="0,0,152.93483,118.82043"><defs><radialGradient cx="243.52632" cy="142.5311" r="18.84183" gradientUnits="userSpaceOnUse" id="color-1"><stop offset="0" stop-color="#ffffff"/><stop offset="1" stop-color="#0debff"/></radialGradient></defs><g transform="translate(-210.21948,-108.48009)"><g data-paper-data="{&quot;isPaintingLayer&quot;:true}" fill-rule="nonzero" stroke-linejoin="miter" stroke-miterlimit="10" stroke-dasharray="" stroke-dashoffset="0" style="mix-blend-mode: normal"><g fill="#76f4ff" stroke="#53acb4" stroke-width="1" stroke-linecap="butt"><path d="M362.77611,108.87414l-51.88775,60.0021l-30.92343,18.77375l20.2939,-29.94779z" data-paper-data="{&quot;index&quot;:null}"/><path d="M264.40655,194.44418l19.87312,-15.02802l3.87187,4.0702l-16.38845,18.6912z"/><path d="M306.13971,190.06328l-16.33722,-0.72289l-11.65273,-12.17823l0.5178,-15.97829l11.04843,16.99638z"/></g><path d="M264.31809,198.42686c-0.14241,-2.10751 1.45063,-3.93145 3.55814,-4.07386c2.10751,-0.14241 3.93145,1.45063 4.07386,3.55814c0.14241,2.10751 -1.45063,3.93145 -3.55814,4.07386c-2.10751,0.14241 -3.93145,-1.45063 -4.07386,-3.55814z" fill="#0debff" stroke="#000000" stroke-width="2" stroke-linecap="butt"/><path d="M235.21663,205.6671l7.58502,-24.41395l7.4972,2.32925l-7.58502,24.41395z" data-paper-data="{&quot;index&quot;:null}" fill="#0debff" stroke="#000000" stroke-width="2" stroke-linecap="butt"/><path d="M212.84799,185.08895c0,-2.11232 1.71238,-3.8247 3.8247,-3.8247c2.11232,0 3.8247,1.71238 3.8247,3.8247c0,2.11232 -1.71238,3.8247 -3.8247,3.8247c-2.11232,0 -3.8247,-1.71238 -3.8247,-3.8247z" fill="#0debff" stroke="#000000" stroke-width="2" stroke-linecap="butt"/><path d="M225.82905,215.40286c3.80989,3.15599 3.18712,6.0925 1.09494,8.61817c-2.09218,2.52567 -6.87675,2.01468 -10.68665,-1.14131c-3.80989,-3.15599 -6.35813,-6.36669 -4.26595,-8.89235c0.80804,-0.97546 7.56742,-3.79512 13.85765,1.41551z" data-paper-data="{&quot;index&quot;:null}" fill="#0debff" stroke="#000000" stroke-width="2" stroke-linecap="butt"/><path d="M243.63045,157.82688c3.96081,-8.27262 13.87796,-11.76803 22.15058,-7.80723c8.27262,3.96081 11.76803,13.87796 7.80723,22.15058c-3.96081,8.27262 -13.87796,11.76803 -22.15058,7.80723c-8.27262,-3.96081 -11.76803,-13.87796 -7.80723,-22.15058z" fill="#0debff" stroke="#000000" stroke-width="2" stroke-linecap="butt"/><path d="M233.00327,156.14671c0,0 2.49209,-1.7804 4.39101,-2.51877c1.50435,-0.58495 6.09701,-1.55941 6.09701,-1.55941" fill="none" stroke="#000000" stroke-width="2" stroke-linecap="round"/><path d="M223.44611,159.73734c-0.53818,-2.78341 1.28193,-5.47609 4.06534,-6.01427c2.78341,-0.53818 5.47609,1.28193 6.01427,4.06534c0.53818,2.78341 -1.28193,5.47609 -4.06534,6.01427c-2.78341,0.53818 -5.47609,-1.28193 -6.01427,-4.06534z" fill="#0debff" stroke="#000000" stroke-width="2" stroke-linecap="butt"/><path d="M239.51923,161.88251l0.90622,-20.78712l29.71843,-4.23864l6.68147,19.70491z" fill="url(#color-1)" stroke="#000000" stroke-width="2" stroke-linecap="butt"/><path d="M266.43834,216.33682c3.5149,3.48153 2.63408,6.35122 0.32608,8.68133c-2.30798,2.33011 -7.02837,1.39669 -10.54327,-2.08485c-3.5149,-3.48153 -5.76825,-6.90564 -3.46026,-9.23574c0.89139,-0.89993 7.87425,-3.10882 13.67744,2.63927z" data-paper-data="{&quot;index&quot;:null}" fill="#0debff" stroke="#000000" stroke-width="2" stroke-linecap="butt"/></g></g></svg>