<svg version="1.1" xmlns="http://www.w3.org/2000/svg" xmlns:xlink="http://www.w3.org/1999/xlink" width="149.73724" height="94.56251" viewBox="0,0,149.73724,94.56251"><g transform="translate(-215.20706,-133.0422)"><g data-paper-data="{&quot;isPaintingLayer&quot;:true}" fill-rule="nonzero" stroke="#000000" stroke-width="2" stroke-linejoin="miter" stroke-miterlimit="10" stroke-dasharray="" stroke-dashoffset="0" style="mix-blend-mode: normal"><path d="M242.69794,211.14597l-3.22571,-25.36077l7.78795,-0.99058l3.22572,25.36077z" fill="#1d28e8" stroke-linecap="butt"/><path d="M216.78791,195.76366c0,-2.11232 1.71238,-3.8247 3.8247,-3.8247c2.11232,0 3.8247,1.71238 3.8247,3.8247c0,2.11232 -1.71238,3.8247 -3.8247,3.8247c-2.11232,0 -3.8247,-1.71238 -3.8247,-3.8247z" fill="#1d28e8" stroke-linecap="butt"/><path d="M233.48952,223.77004c-0.64882,3.21484 -4.74769,3.25167 -9.59719,2.27294c-4.84951,-0.97873 -8.25483,-4.3783 -7.60601,-7.59314c0.64882,-3.21484 2.54092,-5.54527 7.39043,-4.56654c8.00664,1.61591 10.06336,8.64511 9.81277,9.88674z" data-paper-data="{&quot;index&quot;:null}" fill="#1d28e8" stroke-linecap="butt"/><path d="M348.38391,152.03154l10.04341,20.74021l-37.88659,15.80422l-2.02655,-28.43419l-20.103,5.37868z" data-paper-data="{&quot;index&quot;:null}" fill="#2530ff" stroke-linecap="round"/><path d="M303.59907,162.94908c0.19098,2.10367 -1.35956,3.96386 -3.46323,4.15484c-2.10367,0.19098 -3.96386,-1.35956 -4.15484,-3.46323c-0.19098,-2.10367 1.35956,-3.96386 3.46323,-4.15484c2.10367,-0.19098 3.96386,1.35956 4.15484,3.46323z" data-paper-data="{&quot;index&quot;:null}" fill="#1d28e8" stroke-linecap="butt"/><path d="M355.84433,143.47115c0,0 -1.49247,2.67448 -2.89386,4.1534c-1.11021,1.17162 -4.8462,4.01492 -4.8462,4.01492" fill="none" stroke-linecap="round"/><path d="M362.95107,136.14134c1.67583,2.28662 1.1807,5.4988 -1.10591,7.17463c-2.28662,1.67583 -5.4988,1.1807 -7.17463,-1.10591c-1.67583,-2.28662 -1.1807,-5.4988 1.10591,-7.17463c2.28662,-1.67583 5.4988,-1.1807 7.17463,1.10591z" fill="#1d28e8" stroke-linecap="butt"/><path d="M225.12175,170.19879c1.2701,-9.08356 9.66341,-15.41762 18.74696,-14.14752c9.08356,1.2701 15.41763,9.66341 14.14753,18.74696c-1.2701,9.08356 -9.66341,15.41762 -18.74696,14.14752c-9.08356,-1.2701 -15.41763,-9.66341 -14.14753,-18.74696z" fill="#1d28e8" stroke-linecap="butt"/><path d="M261.21646,214.29949c4.84951,-0.97873 6.74161,1.3517 7.39043,4.56654c0.64882,3.21484 -2.7565,6.61441 -7.60601,7.59314c-4.8495,0.97873 -8.94837,0.9419 -9.59719,-2.27294c-0.25059,-1.24163 1.80613,-8.27083 9.81277,-9.88674z" data-paper-data="{&quot;index&quot;:null}" fill="#1d28e8" stroke-linecap="butt"/></g></g></svg>