<svg version="1.1" xmlns="http://www.w3.org/2000/svg" xmlns:xlink="http://www.w3.org/1999/xlink" width="58.51331" height="78.33784" viewBox="0,0,58.51331,78.33784"><defs><radialGradient cx="255.16052" cy="193.21746" r="10.22261" gradientUnits="userSpaceOnUse" id="color-1"><stop offset="0" stop-color="#e80000"/><stop offset="1" stop-color="#e80000" stop-opacity="0"/></radialGradient><radialGradient cx="255.16052" cy="193.21746" r="10.22261" gradientUnits="userSpaceOnUse" id="color-2"><stop offset="0" stop-color="#000000"/><stop offset="1" stop-color="#000000" stop-opacity="0"/></radialGradient></defs><g transform="translate(-207.11982,-148.2716)"><g data-paper-data="{&quot;isPaintingLayer&quot;:true}" fill-rule="nonzero" stroke-linejoin="miter" stroke-miterlimit="10" stroke-dasharray="" stroke-dashoffset="0" style="mix-blend-mode: normal"><path d="M234.65023,205.71571v-25.56509h7.8507v25.56509z" fill="#e80000" stroke="#000000" stroke-width="2" stroke-linecap="butt"/><path d="M217.75858,161.52674c0,0 2.48345,-1.79243 4.37877,-2.53999c1.5015,-0.59223 6.08939,-1.5889 6.08939,-1.5889" fill="none" stroke="#000000" stroke-width="2" stroke-linecap="round"/><path d="M208.21892,165.1636c-0.55164,-2.78077 1.25541,-5.48223 4.03619,-6.03388c2.78077,-0.55164 5.48223,1.25541 6.03388,4.03619c0.55164,2.78077 -1.25541,5.48223 -4.03619,6.03388c-2.78077,0.55164 -5.48223,-1.25541 -6.03388,-4.03619z" fill="#e80000" stroke="#000000" stroke-width="2" stroke-linecap="butt"/><path d="M226.614,162.7947c1.70499,-9.01207 10.39287,-14.93562 19.40493,-13.23063c9.01207,1.70499 14.93562,10.39287 13.23063,19.40493c-1.70499,9.01207 -10.39287,14.93562 -19.40493,13.23063c-9.01207,-1.70499 -14.93562,-10.39287 -13.23063,-19.40493z" fill="#e80000" stroke="#000000" stroke-width="2" stroke-linecap="butt"/><path d="M224.77292,208.13772c0,-2.11232 1.71238,-3.8247 3.8247,-3.8247c2.11232,0 3.8247,1.71238 3.8247,3.8247c0,2.11232 -1.71238,3.8247 -3.8247,3.8247c-2.11232,0 -3.8247,-1.71238 -3.8247,-3.8247z" fill="#e80000" stroke="#000000" stroke-width="2" stroke-linecap="butt"/><path d="M251.57153,193.67595c0,-2.11232 1.71238,-3.8247 3.8247,-3.8247c2.11232,0 3.8247,1.71238 3.8247,3.8247c0,2.11232 -1.71238,3.8247 -3.8247,3.8247c-2.11232,0 -3.8247,-1.71238 -3.8247,-3.8247z" fill="#e80000" stroke="#000000" stroke-width="2" stroke-linecap="butt"/><path d="M228.86381,214.13534c4.11347,0 7.4481,2.47844 7.4481,5.53575c0,3.05731 -3.33463,5.53575 -7.4481,5.53575c-4.11347,0 -7.4481,-2.47844 -7.4481,-5.53575c0,-3.05731 3.33463,-5.53575 7.4481,-5.53575z" data-paper-data="{&quot;index&quot;:null}" fill="#e80000" stroke="#000000" stroke-width="2" stroke-linecap="butt"/><path d="M254.93215,213.73274c4.94728,0 6.34095,2.65869 6.34095,5.93835c0,3.27966 -4.01056,5.93835 -8.95785,5.93835c-4.94728,0 -8.95785,-0.84699 -8.95785,-4.12665c0,-1.26666 3.40667,-7.75005 11.57475,-7.75005z" data-paper-data="{&quot;index&quot;:null}" fill="#e80000" stroke="#000000" stroke-width="2" stroke-linecap="butt"/><path d="M225.83158,161.14344l-0.36323,-5.58821l33.32966,-2.16639l0.36323,5.58821z" fill="#ff2121" stroke="#000000" stroke-width="2" stroke-linecap="butt"/><path d="M265.38313,193.21746c0,7.62677 -4.57682,13.80949 -10.22261,13.80949c-5.64579,0 -10.22261,-6.18272 -10.22261,-13.80949c0,-7.62677 4.57682,-13.80949 10.22261,-13.80949c5.64579,0 10.22261,6.18272 10.22261,13.80949z" fill="url(#color-1)" stroke="url(#color-2)" stroke-width="0.5" stroke-linecap="butt"/></g></g></svg>