<svg version="1.1" xmlns="http://www.w3.org/2000/svg" xmlns:xlink="http://www.w3.org/1999/xlink" width="49.26688" height="27.3077" viewBox="0,0,49.26688,27.3077"><defs><linearGradient x1="246.99645" y1="170.15652" x2="246.99645" y2="192.38372" gradientUnits="userSpaceOnUse" id="color-1"><stop offset="0" stop-color="#5a6593"/><stop offset="1" stop-color="#686868"/></linearGradient><linearGradient x1="233.00349" y1="170.5799" x2="233.00349" y2="192.80707" gradientUnits="userSpaceOnUse" id="color-2"><stop offset="0" stop-color="#5a6593"/><stop offset="1" stop-color="#686868"/></linearGradient><linearGradient x1="239.65205" y1="166.34615" x2="239.65205" y2="193.65385" gradientUnits="userSpaceOnUse" id="color-3"><stop offset="0" stop-color="#5a6593"/><stop offset="1" stop-color="#686868"/></linearGradient></defs><g transform="translate(-215.36656,-166.34615)"><g data-paper-data="{&quot;isPaintingLayer&quot;:true}" fill-rule="nonzero" stroke="none" stroke-width="0" stroke-linecap="butt" stroke-linejoin="miter" stroke-miterlimit="10" stroke-dasharray="" stroke-dashoffset="0" style="mix-blend-mode: normal"><path d="M264.63344,181.27011c0,6.13787 -7.89635,11.11359 -17.63696,11.11359c-9.74065,0 -17.63697,-4.97572 -17.63697,-11.11358c0,-6.13787 7.89636,-11.11359 17.63697,-11.11359c9.74065,0 17.63696,4.97572 17.63696,11.11359z" fill="url(#color-1)"/><path d="M250.64049,181.69349c0,6.13787 -7.89635,11.11359 -17.63697,11.11359c-9.74065,0 -17.63696,-4.97572 -17.63696,-11.11358c0,-6.13787 7.89635,-11.11358 17.63696,-11.11358c9.74065,0 17.63697,4.97572 17.63697,11.11359z" fill="url(#color-2)"/><path d="M239.65205,166.34615c9.74065,0 17.63697,6.11304 17.63697,13.65385c0,7.54081 -7.89636,13.65385 -17.63697,13.65385c-9.74065,0 -17.63696,-6.11304 -17.63696,-13.65385c0,-7.54081 7.89635,-13.65385 17.63696,-13.65385z" fill="url(#color-3)"/></g></g></svg>