<svg version="1.1" xmlns="http://www.w3.org/2000/svg" xmlns:xlink="http://www.w3.org/1999/xlink" width="63.53623" height="88.07378" viewBox="0,0,63.53623,88.07378"><g transform="translate(-220.95729,-138.78121)"><g data-paper-data="{&quot;isPaintingLayer&quot;:true}" fill-rule="nonzero" stroke="#000000" stroke-width="2" stroke-linejoin="miter" stroke-miterlimit="10" stroke-dasharray="" stroke-dashoffset="0" style="mix-blend-mode: normal"><path d="M269.44236,189.58772c1.83705,-1.04266 4.17153,-0.39869 5.21419,1.43836c1.04266,1.83705 0.39869,4.17153 -1.43836,5.21419c-1.83705,1.04266 -4.17153,0.39869 -5.21419,-1.43836c-1.04266,-1.83705 -0.39869,-4.17153 1.43836,-5.21419z" fill="#1d28e8" stroke-linecap="butt"/><path d="M226.94522,217.18284l3.2413,-25.35878l7.78735,0.99536l-3.2413,25.35878z" fill="#1d28e8" stroke-linecap="butt"/><path d="M221.9573,212.07462c0,-2.11232 1.71238,-3.8247 3.8247,-3.8247c2.11232,0 3.8247,1.71238 3.8247,3.8247c0,2.11232 -1.71238,3.8247 -3.8247,3.8247c-2.11232,0 -3.8247,-1.71238 -3.8247,-3.8247z" fill="#1d28e8" stroke-linecap="butt"/><path d="M252.85705,213.80053c4.92982,-0.4153 6.54175,2.11702 6.81706,5.3851c0.27531,3.26808 -3.49791,6.25406 -8.42774,6.66936c-4.92982,0.4153 -8.99733,-0.09203 -9.27264,-3.36012c-0.10633,-1.26219 2.74407,-8.00867 10.88332,-8.69434z" data-paper-data="{&quot;index&quot;:null}" fill="#1d28e8" stroke-linecap="butt"/><path d="M235.26003,213.63831c4.91995,-0.51932 6.585,1.97839 6.92927,5.23993c0.34427,3.26154 -3.36505,6.32653 -8.28501,6.84585c-4.91995,0.51932 -8.99727,0.09799 -9.34154,-3.16355c-0.13296,-1.25966 2.57433,-8.06483 10.69728,-8.92223z" data-paper-data="{&quot;index&quot;:null}" fill="#1d28e8" stroke-linecap="butt"/><path d="M228.07056,181.98812c1.16287,-9.09791 9.48089,-15.53052 18.57879,-14.36765c9.09791,1.16287 15.53052,9.48089 14.36765,18.57879c-1.16287,9.09791 -9.48089,15.53052 -18.57879,14.36765c-9.09791,-1.16287 -15.53052,-9.48089 -14.36765,-18.57879z" fill="#1d28e8" stroke-linecap="butt"/><path d="M232.69327,151.87183c0,0 2.71087,1.42531 4.22429,2.78937c1.19895,1.08063 4.13454,4.74455 4.13454,4.74455" fill="none" stroke-linecap="round"/><path d="M225.18849,144.95012c2.2441,-1.73234 5.46765,-1.31748 7.19998,0.92663c1.73234,2.2441 1.31748,5.46765 -0.92663,7.19998c-2.2441,1.73234 -5.46765,1.31748 -7.19998,-0.92663c-1.73234,-2.2441 -1.31748,-5.46765 0.92663,-7.19998z" fill="#1d28e8" stroke-linecap="butt"/><path d="M236.8726,160.34892l11.16571,-20.15821l34.74549,21.86135l-22.0732,18.03838l15.97835,13.33239z" fill="#2530ff" stroke-linecap="round"/></g></g></svg>