<svg version="1.1" xmlns="http://www.w3.org/2000/svg" xmlns:xlink="http://www.w3.org/1999/xlink" width="124.0098" height="94.2584" viewBox="0,0,124.0098,94.2584"><g transform="translate(-199.22813,-141.45823)"><g data-paper-data="{&quot;isPaintingLayer&quot;:true}" fill-rule="nonzero" stroke-linejoin="miter" stroke-miterlimit="10" stroke-dasharray="" stroke-dashoffset="0" style="mix-blend-mode: normal"><path d="M281.80383,235.71663l-34.85528,-11.175l6.39313,9.76047l-54.11355,-16.85343l37.52988,1.46274l-6.41109,-6.82795l32.963,2.5647l-7.39073,-10.85006l27.13203,4.96395l-5.63691,-9.50901l39.87941,-4.21983l1.86403,25.08751l-24.81122,-3.68894l6.67145,13.95921l-25.6691,-8.40744l6.45496,13.73307" data-paper-data="{&quot;index&quot;:null}" fill="#fff200" stroke="none" stroke-width="0.66342" stroke-linecap="butt"/><path d="M224.74564,215.47642c3.73112,0.54178 61.23576,-2.93293 74.0782,-9.24281c16.62649,-8.16909 -13.15429,-31.76828 -13.26964,-31.06195c-0.2373,1.45302 39.81926,8.57537 36.48674,25.6982c-5.75774,29.58392 -93.60825,27.15864 -96.46936,26.74319c-5.18565,-0.75297 -8.9603,-3.99109 -8.43093,-7.23254c0.52938,-3.24145 2.41935,-5.65706 7.60498,-4.90408z" data-paper-data="{&quot;index&quot;:null}" fill="#ffe819" stroke="#000000" stroke-width="2" stroke-linecap="butt"/><path d="M246.16687,204.90811l-15.62714,-20.2328l6.21322,-4.79888l15.62714,20.2328z" data-paper-data="{&quot;index&quot;:null}" fill="#ffe819" stroke="#000000" stroke-width="2" stroke-linecap="butt"/><path d="M248.95496,184.0242c0,-2.11232 1.71238,-3.8247 3.8247,-3.8247c2.11232,0 3.8247,1.71238 3.8247,3.8247c0,2.11232 -1.71238,3.8247 -3.8247,3.8247c-2.11232,0 -3.8247,-1.71238 -3.8247,-3.8247z" fill="#ffe819" stroke="#000000" stroke-width="2" stroke-linecap="butt"/><path d="M217.87556,163.20246c2.48689,-8.82834 11.6597,-13.9691 20.48804,-11.48221c8.82834,2.48689 13.9691,11.6597 11.48221,20.48804c-2.48689,8.82834 -11.6597,13.9691 -20.48804,11.48221c-8.82834,-2.48689 -13.9691,-11.6597 -11.48221,-20.48804z" fill="#ffe819" stroke="#000000" stroke-width="2" stroke-linecap="butt"/><path d="M214.51799,187.22184c0,-2.11232 1.71238,-3.8247 3.8247,-3.8247c2.11232,0 3.8247,1.71238 3.8247,3.8247c0,2.11232 -1.71238,3.8247 -3.8247,3.8247c-2.11232,0 -3.8247,-1.71238 -3.8247,-3.8247z" fill="#ffe819" stroke="#000000" stroke-width="2" stroke-linecap="butt"/><path d="M211.25425,150.70898c0,0 2.62863,-1.57183 4.58131,-2.15333c1.54694,-0.46067 6.20363,-1.05841 6.20363,-1.05841" fill="none" stroke="#000000" stroke-width="2" stroke-linecap="round"/><path d="M201.43674,153.5105c-0.31004,-2.81796 1.72303,-5.3537 4.54098,-5.66374c2.81796,-0.31004 5.3537,1.72303 5.66374,4.54098c0.31004,2.81796 -1.72303,5.3537 -4.54098,5.66374c-2.81796,0.31004 -5.3537,-1.72303 -5.66374,-4.54098z" fill="#ffe819" stroke="#000000" stroke-width="2" stroke-linecap="butt"/><path d="M213.52903,161.92915l7.51052,-8.60456l-6.00632,-8.90717c0,0 11.58282,-3.42357 21.96915,-1.21943c10.38633,2.20415 15.33605,14.38335 15.33605,14.38335z" data-paper-data="{&quot;index&quot;:null}" fill="#fff067" stroke="#000000" stroke-width="2" stroke-linecap="butt"/><path d="M245.99169,200.78893c8.16285,-0.29234 11.79936,6.06498 11.84471,7.33082c0.11737,3.27756 -3.86031,4.26754 -8.80443,4.4446c-4.94411,0.17707 -9.04726,-2.33638 -9.16465,-5.61394c-0.11738,-3.27756 1.18025,-5.98442 6.12436,-6.16148z" data-paper-data="{&quot;index&quot;:null}" fill="#ffe819" stroke="#000000" stroke-width="2" stroke-linecap="butt"/></g></g></svg>