<svg version="1.1" xmlns="http://www.w3.org/2000/svg" xmlns:xlink="http://www.w3.org/1999/xlink" width="180.63726" height="98.35032" viewBox="0,0,180.63726,98.35032"><defs><radialGradient cx="199.96898" cy="153.68698" r="18.84183" gradientUnits="userSpaceOnUse" id="color-1"><stop offset="0" stop-color="#ffffff"/><stop offset="1" stop-color="#0debff"/></radialGradient></defs><g transform="translate(-193.94226,-130.08469)"><g data-paper-data="{&quot;isPaintingLayer&quot;:true}" fill-rule="nonzero" stroke-linejoin="miter" stroke-miterlimit="10" stroke-dasharray="" stroke-dashoffset="0" style="mix-blend-mode: normal"><g fill="#76f4ff" stroke="#53acb4" stroke-width="1" stroke-linecap="butt"><path d="M374.32397,145.86028l-68.18224,40.54348l-35.26992,8.04641l28.7135,-22.00562z" data-paper-data="{&quot;index&quot;:null}"/><path d="M253.96397,195.98287l23.6022,-7.98238l2.38822,5.08472l-21.45282,12.55862z"/><path d="M294.94471,205.00664l-15.27272,-5.84562l-7.2101,-15.23515l5.53767,-14.99694l5.11503,19.61585z"/></g><path d="M252.62221,199.73376c0.53049,-2.04462 2.61803,-3.27208 4.66265,-2.74159c2.04462,0.53049 3.27208,2.61803 2.74159,4.66265c-0.53049,2.04462 -2.61803,3.27208 -4.66265,2.74159c-2.04462,-0.53049 -3.27208,-2.61803 -2.74159,-4.66265z" fill="#0debff" stroke="#000000" stroke-width="2" stroke-linecap="butt"/><path d="M237.0265,205.67315l-4.90883,-25.08938l7.70461,-1.50743l4.90883,25.08938z" data-paper-data="{&quot;index&quot;:null}" fill="#0debff" stroke="#000000" stroke-width="2" stroke-linecap="butt"/><path d="M221.2241,207.12555c0,-2.11232 1.71238,-3.8247 3.8247,-3.8247c2.11232,0 3.8247,1.71238 3.8247,3.8247c0,2.11232 -1.71238,3.8247 -3.8247,3.8247c-2.11232,0 -3.8247,-1.71238 -3.8247,-3.8247z" fill="#0debff" stroke="#000000" stroke-width="2" stroke-linecap="butt"/><path d="M258.61968,212.48557c3.8666,-3.08626 6.61441,-1.87775 8.66036,0.68551c2.04595,2.56325 0.57003,7.14309 -3.29658,10.22936c-3.8666,3.08626 -7.52947,4.92621 -9.57542,2.36295c-0.79018,-0.98997 -2.1722,-8.18231 4.21166,-13.27781z" data-paper-data="{&quot;index&quot;:null}" fill="#0debff" stroke="#000000" stroke-width="2" stroke-linecap="butt"/><path d="M210.49521,164.78518c-2.75964,-8.74692 2.09401,-18.07483 10.84093,-20.83448c8.74692,-2.75964 18.07483,2.09401 20.83448,10.84093c2.75964,8.74692 -2.09401,18.07483 -10.84093,20.83448c-8.74692,2.75964 -18.07483,-2.09401 -20.83448,-10.84093z" fill="#0debff" stroke="#000000" stroke-width="2" stroke-linecap="butt"/><path d="M201.58709,170.81885c0,0 0.6034,-3.00271 1.48558,-4.83924c0.69887,-1.45493 3.38678,-5.30424 3.38678,-5.30424" fill="none" stroke="#000000" stroke-width="2" stroke-linecap="round"/><path d="M197.06136,179.97034c-2.29464,-1.66482 -2.80521,-4.8746 -1.14039,-7.16924c1.66482,-2.29464 4.8746,-2.80521 7.16924,-1.14039c2.29464,1.66482 2.80521,4.8746 1.14039,7.16924c-1.66482,2.29464 -4.8746,2.80521 -7.16924,1.14039z" fill="#0debff" stroke="#000000" stroke-width="2" stroke-linecap="butt"/><path d="M210.26394,170.55552l-13.54018,-15.79839l18.80524,-23.39902l18.34152,9.82417z" fill="url(#color-1)" stroke="#000000" stroke-width="2" stroke-linecap="butt"/><path d="M236.00624,212.87376c3.71059,-3.27216 6.51436,-2.19986 8.68356,0.25997c2.16919,2.45984 0.91964,7.10654 -2.79096,10.37871c-3.71059,3.27216 -7.27883,5.28952 -9.44802,2.82969c-0.83778,-0.95003 -2.57085,-8.06595 3.55544,-13.46837z" data-paper-data="{&quot;index&quot;:null}" fill="#0debff" stroke="#000000" stroke-width="2" stroke-linecap="butt"/></g></g></svg>