<svg version="1.1" xmlns="http://www.w3.org/2000/svg" xmlns:xlink="http://www.w3.org/1999/xlink" width="79.12422" height="88.66526" viewBox="0,0,79.12422,88.66526"><g transform="translate(-202.45749,-139.75023)"><g data-paper-data="{&quot;isPaintingLayer&quot;:true}" fill-rule="nonzero" stroke="#000000" stroke-width="2" stroke-linejoin="miter" stroke-miterlimit="10" stroke-dasharray="" stroke-dashoffset="0" style="mix-blend-mode: normal"><path d="M255.71012,212.56037c4.49134,2.07446 4.64175,5.07252 3.26654,8.04993c-1.37521,2.97741 -6.13099,3.70939 -10.62234,1.63493c-4.49134,-2.07446 -7.77715,-4.52508 -6.40195,-7.50249c0.53112,-1.14993 6.34242,-5.60736 13.75774,-2.18237z" data-paper-data="{&quot;index&quot;:null}" fill="#181818" stroke-linecap="butt"/><path d="M236.68154,198.86789c0.83369,-1.94084 3.08291,-2.83835 5.02375,-2.00465c1.94084,0.83369 2.83835,3.08291 2.00465,5.02375c-0.83369,1.94084 -3.08291,2.83835 -5.02375,2.00465c-1.94084,-0.83369 -2.83835,-3.08291 -2.00465,-5.02375z" fill="#181818" stroke-linecap="butt"/><path d="M272.93231,193.3623c0,-2.11232 1.71238,-3.8247 3.8247,-3.8247c2.11232,0 3.8247,1.71238 3.8247,3.8247c0,2.11232 -1.71238,3.8247 -3.8247,3.8247c-2.11232,0 -3.8247,-1.71238 -3.8247,-3.8247z" fill="#181818" stroke-linecap="butt"/><path d="M226.99942,146.39142c0,0 3.00193,-0.60728 5.03682,-0.5057c1.61207,0.08048 6.2022,1.06677 6.2022,1.06677" fill="#181818" stroke-linecap="round"/><path d="M216.43625,145.79304c0.64558,-2.76047 3.40672,-4.47496 6.1672,-3.82937c2.76047,0.64558 4.47496,3.40672 3.82937,6.1672c-0.64558,2.76047 -3.40672,4.47496 -6.1672,3.82937c-2.76047,-0.64558 -4.47496,-3.40672 -3.82937,-6.1672z" fill="#474747" stroke-linecap="butt"/><path d="M236.54836,159.89393c0,-9.17193 7.43532,-16.60724 16.60724,-16.60724c9.17193,0 16.60724,7.43532 16.60724,16.60724c0,9.17193 -7.43532,16.60724 -16.60724,16.60724c-9.17193,0 -16.60724,-7.43532 -16.60724,-16.60724z" fill="#181818" stroke-linecap="butt"/><path d="M231.21173,202.56472l10.09013,-23.48964l7.21335,3.09855l-10.09013,23.48964z" fill="#181818" stroke-linecap="butt"/><path d="M213.44655,225.02594c-3.45221,3.5437 -6.32912,2.68674 -8.67832,0.3982c-2.3492,-2.28854 -1.45503,-7.01651 1.99719,-10.56022c3.45221,-3.5437 6.85748,-5.82542 9.20668,-3.53687c0.9073,0.88387 3.17413,7.84816 -2.52555,13.6989z" data-paper-data="{&quot;index&quot;:null}" fill="#181818" stroke-linecap="butt"/><path d="M263.30554,163.52693v-5.24474h10.315v5.24474z" fill="#ff0000" stroke-linecap="butt"/><path d="M239.98189,176.72752l13.13296,5.97l-5.11067,2.40579l2.11777,5.51081l-16.13836,-5.61774l5.98453,-3.01636z" fill="#0e0e0e" stroke-linecap="round"/><g><path d="M238.43586,152.81314v-12.06291h29.6328v12.06291z" fill="#343434" stroke-linecap="butt"/><path d="M227.68414,152.81314h51.13626" fill="none" stroke-linecap="round"/></g></g></g></svg>