<svg version="1.1" xmlns="http://www.w3.org/2000/svg" xmlns:xlink="http://www.w3.org/1999/xlink" width="81.19564" height="99.53936" viewBox="0,0,81.19564,99.53936"><g transform="translate(-196.81333,-113.47203)"><g data-paper-data="{&quot;isPaintingLayer&quot;:true}" fill-rule="nonzero" stroke="#000000" stroke-width="2" stroke-linejoin="miter" stroke-miterlimit="10" stroke-dasharray="" stroke-dashoffset="0" style="mix-blend-mode: normal"><path d="M227.80157,173.77232c1.49634,-1.49093 3.91801,-1.48654 5.40894,0.00981c1.49093,1.49634 1.48654,3.91801 -0.00981,5.40894c-1.49634,1.49093 -3.91801,1.48654 -5.40894,-0.00981c-1.49093,-1.49634 -1.48654,-3.91801 0.00981,-5.40894z" fill="#1d28e8" stroke-linecap="butt"/><path d="M232.41512,189.3122l16.43836,-19.57943l6.01258,5.048l-16.43836,19.57943z" fill="#1d28e8" stroke-linecap="butt"/><path d="M265.0779,176.27611c1.49634,-1.49093 3.91801,-1.48654 5.40894,0.00981c1.49093,1.49634 1.48654,3.91801 -0.00981,5.40894c-1.49634,1.49093 -3.91801,1.48654 -5.40894,-0.00981c-1.49093,-1.49634 -1.48654,-3.91801 0.00981,-5.40894z" fill="#1d28e8" stroke-linecap="butt"/><path d="M208.37333,175.67144c2.43055,7.79807 -2.74544,12.97967 -3.95472,13.35658c-3.13109,0.97593 -5.13313,-2.60093 -6.60528,-7.32411c-1.47214,-4.72319 -0.12731,-9.34321 3.00379,-10.31914c3.13111,-0.97593 6.08406,-0.43652 7.55621,4.28665z" data-paper-data="{&quot;index&quot;:null}" fill="#1d28e8" stroke-linecap="butt"/><path d="M256.17821,163.38671c-8.60893,3.16393 -18.15273,-1.25009 -21.31667,-9.85903c-3.16393,-8.60893 1.25009,-18.15273 9.85903,-21.31667c8.60893,-3.16393 18.15273,1.25009 21.31667,9.85903c3.16393,8.60893 -1.25009,18.15273 -9.85903,21.31667z" data-paper-data="{&quot;index&quot;:null}" fill="#1d28e8" stroke-linecap="butt"/><path d="M255.63474,138.15565c0,0 4.68472,-0.30879 6.29138,-0.15416c2.02806,0.1952 4.90986,1.23228 4.90986,1.23228" data-paper-data="{&quot;index&quot;:null}" fill="none" stroke-linecap="round"/><path d="M272.32405,145.6406c-2.825,0.23758 -5.30769,-1.85993 -5.54526,-4.68492c-0.23758,-2.825 1.85993,-5.30769 4.68492,-5.54526c2.825,-0.23758 5.30769,1.85993 5.54526,4.68492c0.23758,2.825 -1.85993,5.30769 -4.68492,5.54526z" data-paper-data="{&quot;index&quot;:null}" fill="#1d28e8" stroke-linecap="butt"/><path d="M221.79455,142.96953l13.22338,-0.52678l-4.24389,-27.84744l38.55085,3.85558l-3.37889,22.79495z" data-paper-data="{&quot;index&quot;:null}" fill="#2530ff" stroke-linecap="round"/><path d="M243.75171,204.7075c1.36994,-8.05238 8.33286,-10.3234 9.58158,-10.11096c3.23321,0.55005 3.39555,4.64587 2.5658,9.52307c-0.82977,4.87722 -4.12343,8.38505 -7.35664,7.835c-3.23322,-0.55005 -5.62049,-2.36991 -4.79075,-7.2471z" data-paper-data="{&quot;index&quot;:null}" fill="#1d28e8" stroke-linecap="butt"/></g></g></svg>