<svg version="1.1" xmlns="http://www.w3.org/2000/svg" xmlns:xlink="http://www.w3.org/1999/xlink" width="56.67368" height="130.46647" viewBox="0,0,56.67368,130.46647"><g transform="translate(-207.10695,-96.43959)"><g data-paper-data="{&quot;isPaintingLayer&quot;:true}" fill-rule="nonzero" stroke="#000000" stroke-width="2" stroke-linejoin="miter" stroke-miterlimit="10" stroke-dasharray="" stroke-dashoffset="0" style="mix-blend-mode: normal"><path d="M216.66797,157.94872c0.38848,-2.07629 2.38657,-3.44454 4.46286,-3.05606c2.07629,0.38848 3.44454,2.38657 3.05606,4.46286c-0.38848,2.07629 -2.38657,3.44454 -4.46286,3.05606c-2.07629,-0.38848 -3.44454,-2.38657 -3.05606,-4.46286z" fill="#ff6b00" stroke-linecap="butt"/><path d="M214.32662,176.09899c0.38848,-2.07629 2.38657,-3.44454 4.46286,-3.05606c2.07629,0.38848 3.44454,2.38657 3.05606,4.46286c-0.38848,2.07629 -2.38657,3.44454 -4.46286,3.05606c-2.07629,-0.38848 -3.44454,-2.38657 -3.05606,-4.46286z" fill="#ff6b00" stroke-linecap="butt"/><path d="M226.01391,149.36587c1.68681,-9.01548 10.36274,-14.95654 19.37821,-13.26973c9.01548,1.68681 14.95654,10.36274 13.26973,19.37821c-1.68681,9.01548 -10.36274,14.95654 -19.37821,13.26973c-9.01548,-1.68681 -14.95654,-10.36274 -13.26973,-19.37821z" fill="#ff6b00" stroke-linecap="butt"/><path d="M228.2647,195.71118l3.21006,-25.36275l7.78855,0.98578l-3.21006,25.36274z" data-paper-data="{&quot;index&quot;:null}" fill="#ff6b00" stroke-linecap="butt"/><path d="M229.4527,137.24056c0,0 -4.57709,-1.0451 -6.07225,-1.65316c-1.8873,-0.76755 -4.35169,-2.58612 -4.35169,-2.58612" data-paper-data="{&quot;index&quot;:null}" fill="none" stroke-linecap="round"/><path d="M215.60422,125.29163c2.7748,0.58099 4.5532,3.30141 3.97221,6.07619c-0.58099,2.77478 -3.30139,4.55319 -6.07618,3.9722c-2.7748,-0.58099 -4.5532,-3.30141 -3.97221,-6.07619c0.58099,-2.77478 3.30139,-4.55319 6.07618,-3.9722z" data-paper-data="{&quot;index&quot;:null}" fill="#ff6b00" stroke-linecap="butt"/><path d="M250.2767,199.83487c4.92599,-0.45847 6.56006,2.05964 6.86397,5.32518c0.30393,3.26555 -3.44299,6.28445 -8.36899,6.74293c-4.92599,0.45847 -8.9978,-0.01321 -9.30172,-3.27876c-0.11737,-1.2612 2.6738,-8.0324 10.80673,-8.78935z" data-paper-data="{&quot;index&quot;:null}" fill="#ff6b00" stroke-linecap="butt"/><path d="M221.03099,146.52578l7.43216,-10.53937l-19.67536,-27.92496l46.25395,-10.32551l-5.24908,33.2167l11.23961,6.2657z" data-paper-data="{&quot;index&quot;:null}" fill="#ffa340" stroke-linecap="butt"/><path d="M235.15264,215.02127c4.50939,2.03496 4.6861,5.0316 3.33706,8.02095c-1.34902,2.98936 -6.09819,3.76306 -10.60759,1.72809c-4.50939,-2.03496 -7.81657,-4.45666 -6.46754,-7.44601c0.52102,-1.15454 6.29297,-5.6628 13.73806,-2.30302z" data-paper-data="{&quot;index&quot;:null}" fill="#ff6b00" stroke-linecap="butt"/></g></g></svg>