<svg version="1.1" xmlns="http://www.w3.org/2000/svg" xmlns:xlink="http://www.w3.org/1999/xlink" width="246.04602" height="100.06765" viewBox="0,0,246.04602,100.06765"><defs><radialGradient cx="248.81079" cy="139.84581" r="18.84183" gradientUnits="userSpaceOnUse" id="color-1"><stop offset="0" stop-color="#ffffff"/><stop offset="1" stop-color="#0debff"/></radialGradient></defs><g transform="translate(-195.67022,-133.06429)"><g data-paper-data="{&quot;isPaintingLayer&quot;:true}" fill-rule="nonzero" stroke-linejoin="miter" stroke-miterlimit="10" stroke-dasharray="" stroke-dashoffset="0" style="mix-blend-mode: normal"><path d="M234.1951,200.9585l12.83582,-22.10916l6.78943,3.9417l-12.83582,22.10916z" data-paper-data="{&quot;index&quot;:null}" fill="#0debff" stroke="#000000" stroke-width="2" stroke-linecap="butt"/><path d="M225.73681,184.14874c0,-2.11232 1.71238,-3.8247 3.8247,-3.8247c2.11232,0 3.8247,1.71238 3.8247,3.8247c0,2.11232 -1.71238,3.8247 -3.8247,3.8247c-2.11232,0 -3.8247,-1.71238 -3.8247,-3.8247z" fill="#0debff" stroke="#000000" stroke-width="2" stroke-linecap="butt"/><path d="M257.73107,215.62746c0.5494,4.91668 -1.93808,6.59698 -5.19746,6.9612c-3.25938,0.36422 -6.347,-3.32629 -6.8964,-8.24299c-0.5494,-4.91668 -0.15304,-8.9965 3.10635,-9.36071c1.25883,-0.14066 8.08043,2.52494 8.9875,10.64251z" data-paper-data="{&quot;index&quot;:null}" fill="#0debff" stroke="#000000" stroke-width="2" stroke-linecap="butt"/><path d="M248.91491,155.14158c3.96081,-8.27262 13.87796,-11.76803 22.15058,-7.80723c8.27262,3.96081 11.76803,13.87796 7.80723,22.15058c-3.96081,8.27262 -13.87796,11.76803 -22.15058,7.80723c-8.27262,-3.96081 -11.76803,-13.87796 -7.80723,-22.15058z" fill="#0debff" stroke="#000000" stroke-width="2" stroke-linecap="butt"/><path d="M238.28774,153.46142c0,0 2.49209,-1.7804 4.39101,-2.51877c1.50435,-0.58495 6.09701,-1.55941 6.09701,-1.55941" fill="none" stroke="#000000" stroke-width="2" stroke-linecap="round"/><path d="M228.73058,157.05204c-0.53818,-2.78341 1.28193,-5.47609 4.06534,-6.01427c2.78341,-0.53818 5.47609,1.28193 6.01427,4.06534c0.53818,2.78341 -1.28193,5.47609 -4.06534,6.01427c-2.78341,0.53818 -5.47609,-1.28193 -6.01427,-4.06534z" fill="#0debff" stroke="#000000" stroke-width="2" stroke-linecap="butt"/><path d="M244.8037,159.19722l0.90622,-20.78712l29.71843,-4.23864l6.68147,19.70491z" fill="url(#color-1)" stroke="#000000" stroke-width="2" stroke-linecap="butt"/><path d="M205.29214,223.97266c-3.99835,2.91354 -6.69046,1.58559 -8.62192,-1.06501c-1.93146,-2.6506 -0.25591,-7.16123 3.74245,-10.07479c3.99835,-2.91354 7.73846,-4.59093 9.66992,-1.94033c0.74596,1.02371 1.81092,8.26979 -4.79047,13.08012z" data-paper-data="{&quot;index&quot;:null}" fill="#0debff" stroke="#000000" stroke-width="2" stroke-linecap="butt"/><g fill="#76f4ff" stroke="#53acb4" stroke-width="1" stroke-linecap="butt"><path d="M429.71496,214.13615l-79.08816,-6.13626l-33.46515,-13.74029l36.14718,-1.44697z" data-paper-data="{&quot;index&quot;:null}"/><path d="M302.4581,185.77255l23.89097,7.07135l-0.97694,5.53204l-24.77022,-2.09252z"/><path d="M330.75793,216.75592l-9.11665,-13.57623l2.88272,-16.60679l13.16564,-9.06862l-7.11878,18.98072z"/></g><path d="M299.88942,188.29524c1.61144,-1.3657 4.02491,-1.16649 5.39061,0.44496c1.3657,1.61144 1.16649,4.02491 -0.44496,5.39061c-1.61144,1.3657 -4.02491,1.16649 -5.39061,-0.44496c-1.3657,-1.61144 -1.16649,-4.02491 0.44496,-5.39061z" fill="#0debff" stroke="#000000" stroke-width="2" stroke-linecap="butt"/><g fill="#ffffff" stroke="#000000" stroke-width="0" stroke-linecap="butt"><path d="M419.45125,214.41569l3.54875,-18.71626l3.54875,18.71626l-3.54875,18.71625z"/><path d="M423,210.86694l18.71625,3.54875l-18.71625,3.54874l-18.71625,-3.54874z"/></g></g></g></svg>