<svg version="1.1" xmlns="http://www.w3.org/2000/svg" xmlns:xlink="http://www.w3.org/1999/xlink" width="96.30139" height="76.13645" viewBox="0,0,96.30139,76.13645"><g transform="translate(-211.40287,-138.20769)"><g data-paper-data="{&quot;isPaintingLayer&quot;:true}" fill-rule="nonzero" stroke="#000000" stroke-width="2" stroke-linejoin="miter" stroke-miterlimit="10" stroke-dasharray="" stroke-dashoffset="0" style="mix-blend-mode: normal"><path d="M301.15165,200.10834c-4.35353,0.98834 -28.11516,1.42406 -46.95544,2.72156c-23.09772,1.5907 -41.56186,3.91592 -41.79334,3.24407c-0.496,-1.43953 13.8394,-6.98836 31.64036,-10.30104c21.25589,-3.95563 46.86829,-5.67232 50.0627,-6.39752c5.86961,-1.33253 11.51007,0.14768 12.59833,3.30614c1.08826,3.15846 0.31698,6.09427 -5.55262,7.4268z" data-paper-data="{&quot;index&quot;:null}" fill="#e80000" stroke-linecap="butt"/><path d="M224.81537,152.00938c0,0 2.56748,-1.66984 4.49683,-2.32459c1.52846,-0.51869 6.15929,-1.29164 6.15929,-1.29164" data-paper-data="{&quot;index&quot;:null}" fill="none" stroke-linecap="round"/><path d="M216.78301,154.34378c-0.4161,-2.80426 1.51987,-5.41489 4.32413,-5.83099c2.80426,-0.4161 5.41489,1.51987 5.83099,4.32413c0.4161,2.80426 -1.51987,5.41489 -4.32413,5.83099c-2.80426,0.4161 -5.41489,-1.51987 -5.83099,-4.32413z" data-paper-data="{&quot;index&quot;:null}" fill="#e80000" stroke-linecap="butt"/><path d="M234.27053,155.87696c-0.03433,-9.17187 7.37311,-16.63494 16.54497,-16.66927c9.17187,-0.03433 16.63494,7.37311 16.66927,16.54497c0.03433,9.17187 -7.37311,16.63494 -16.54497,16.66927c-9.17187,0.03433 -16.63494,-7.37311 -16.66927,-16.54497z" data-paper-data="{&quot;index&quot;:null}" fill="#e80000" stroke-linecap="butt"/><path d="M233.18926,154.40398l-1.41599,-5.41803l32.31464,-8.44532l1.41599,5.41802z" data-paper-data="{&quot;index&quot;:null}" fill="#ff2121" stroke-linecap="butt"/><path d="M235.62946,199.71701l6.29994,-24.7767l7.60859,1.93464l-6.29994,24.7767z" data-paper-data="{&quot;index&quot;:null}" fill="#e80000" stroke-linecap="butt"/><path d="M226.38763,186.39187c0,-2.11232 1.71238,-3.8247 3.8247,-3.8247c2.11232,0 3.8247,1.71238 3.8247,3.8247c0,2.11232 -1.71238,3.8247 -3.8247,3.8247c-2.11232,0 -3.8247,-1.71238 -3.8247,-3.8247z" data-paper-data="{&quot;index&quot;:null}" fill="#e80000" stroke-linecap="butt"/><path d="M256.59333,189.43191c0,-2.11232 1.71238,-3.8247 3.8247,-3.8247c2.11232,0 3.8247,1.71238 3.8247,3.8247c0,2.11232 -1.71238,3.8247 -3.8247,3.8247c-2.11232,0 -3.8247,-1.71238 -3.8247,-3.8247z" data-paper-data="{&quot;index&quot;:null}" fill="#e80000" stroke-linecap="butt"/><path d="M238.04641,204.8738c2.49501,4.27206 0.90204,6.81634 -1.93001,8.47034c-2.83205,1.654 -7.15048,-0.46836 -9.64549,-4.74043c-2.49501,-4.27206 -3.78622,-8.16241 -0.95418,-9.8164c1.09378,-0.6388 8.41035,-0.96677 12.52967,6.0865z" data-paper-data="{&quot;index&quot;:null}" fill="#e80000" stroke-linecap="butt"/></g></g></svg>