<svg version="1.1" xmlns="http://www.w3.org/2000/svg" xmlns:xlink="http://www.w3.org/1999/xlink" width="62.12922" height="91.36736" viewBox="0,0,62.12922,91.36736"><g transform="translate(-205.41222,-135.45061)"><g data-paper-data="{&quot;isPaintingLayer&quot;:true}" fill-rule="nonzero" stroke="#000000" stroke-width="2" stroke-linejoin="miter" stroke-miterlimit="10" stroke-dasharray="" stroke-dashoffset="0" style="mix-blend-mode: normal"><path d="M245.1931,204.64696c0,-2.11232 1.71238,-3.8247 3.8247,-3.8247c2.11232,0 3.8247,1.71238 3.8247,3.8247c0,2.11232 -1.71238,3.8247 -3.8247,3.8247c-2.11232,0 -3.8247,-1.71238 -3.8247,-3.8247z" fill="#181818" stroke-linecap="butt"/><path d="M218.04401,142.54442c0,0 3.00193,-0.60728 5.03682,-0.5057c1.61207,0.08048 6.2022,1.06677 6.2022,1.06677" fill="#181818" stroke-linecap="round"/><path d="M206.41223,141.94604c0.64558,-2.76047 3.40672,-4.47496 6.1672,-3.82937c2.76047,0.64558 4.47496,3.40672 3.82937,6.1672c-0.64558,2.76047 -3.40672,4.47496 -6.1672,3.82937c-2.76047,-0.64558 -4.47496,-3.40672 -3.82937,-6.1672z" fill="#181818" stroke-linecap="butt"/><path d="M223.3185,159.89393c0,-9.17193 7.43532,-16.60724 16.60724,-16.60724c9.17193,0 16.60724,7.43532 16.60724,16.60724c0,9.17193 -7.43532,16.60724 -16.60724,16.60724c-9.17193,0 -16.60724,-7.43532 -16.60724,-16.60724z" fill="#181818" stroke-linecap="butt"/><path d="M232.26462,206.5601c0,0 -3.94588,-13.04481 -4.43346,-17.61414c-0.39853,-3.73483 1.72093,-7.80663 1.72093,-7.80663l7.80639,-0.83299c0,0 -1.55841,4.1471 -1.17313,7.75778c0.49237,4.61429 3.88565,17.663 3.88565,17.663z" fill="#181818" stroke-linecap="butt"/><path d="M219.98722,213.91643c4.11347,0 7.4481,2.47844 7.4481,5.53575c0,3.05731 -3.33463,5.53575 -7.4481,5.53575c-4.11347,0 -7.4481,-2.47844 -7.4481,-5.53575c0,-3.05731 3.33463,-5.53575 7.4481,-5.53575z" data-paper-data="{&quot;index&quot;:null}" fill="#181818" stroke-linecap="butt"/><path d="M253.5321,213.94127c4.94728,0 6.34095,2.65869 6.34095,5.93835c0,3.27966 -4.01056,5.93835 -8.95785,5.93835c-4.94728,0 -8.95785,-0.84699 -8.95785,-4.12665c0,-1.26666 3.40667,-7.75005 11.57475,-7.75005z" data-paper-data="{&quot;index&quot;:null}" fill="#181818" stroke-linecap="butt"/><path d="M238.47369,165.51537l0.75511,-5.19009l19.19469,2.79265l-0.75511,5.1901z" fill="#ff0000" stroke-linecap="butt"/><path d="M225.13863,179.35176l14.37367,-1.23006l-3.27654,4.6012l4.54616,3.76648l-16.82104,3.00964l3.73919,-5.56162z" fill="#0e0e0e" stroke-linecap="round"/><g><path d="M227.38606,148.36077l2.95346,-11.69576l28.7309,7.25526l-2.95347,11.69576z" fill="#343434" stroke-linecap="butt"/><path d="M216.96158,145.72833l49.57987,12.52014" fill="none" stroke-linecap="round"/></g><path d="M231.32721,179.39815c0,-2.11232 1.71238,-3.8247 3.8247,-3.8247c2.11232,0 3.8247,1.71238 3.8247,3.8247c0,2.11232 -1.71238,3.8247 -3.8247,3.8247c-2.11232,0 -3.8247,-1.71238 -3.8247,-3.8247z" fill="#181818" stroke-linecap="butt"/></g></g></svg>