<svg version="1.1" xmlns="http://www.w3.org/2000/svg" xmlns:xlink="http://www.w3.org/1999/xlink" width="100.41866" height="74.89772" viewBox="0,0,100.41866,74.89772"><g transform="translate(-196.71648,-120.25971)"><g data-paper-data="{&quot;isPaintingLayer&quot;:true}" fill-rule="nonzero" stroke="#000000" stroke-width="2" stroke-linejoin="miter" stroke-miterlimit="10" stroke-dasharray="" stroke-dashoffset="0" style="mix-blend-mode: normal"><path d="M213.91301,129.34753c0,0 2.8361,-1.15623 4.85426,-1.43575c1.59882,-0.22143 6.29235,-0.10807 6.29235,-0.10807" fill="none" stroke-linecap="round"/><path d="M203.78474,130.63215c0.11969,-2.83244 2.51284,-5.03155 5.34527,-4.91189c2.83244,0.11969 5.03155,2.51284 4.91189,5.34527c-0.11969,2.83244 -2.51284,5.03155 -5.34527,4.91189c-2.83244,-0.11969 -5.03155,-2.51284 -4.91189,-5.34527z" fill="#ffe819" stroke-linecap="butt"/><path d="M234.18386,184.2894l-13.74907,-21.55311l6.6187,-4.22216l13.74907,21.55311z" data-paper-data="{&quot;index&quot;:null}" fill="#ffe819" stroke-linecap="butt"/><path d="M218.97324,140.26415c3.79337,-8.35072 13.63811,-12.04518 21.98883,-8.25182c8.35073,3.79338 12.04518,13.63811 8.25181,21.98883c-3.79337,8.35072 -13.6381,12.04518 -21.98882,8.25182c-8.35072,-3.79338 -12.04518,-13.63811 -8.25182,-21.98883z" fill="#ffe819" stroke-linecap="butt"/><path d="M214.86927,138.34817l8.72538,-7.36979l-6.65944,-8.98583c0,0 14.03655,-2.3598 23.9701,1.38969c9.93356,3.74949 12.98453,16.53716 12.98453,16.53716z" data-paper-data="{&quot;index&quot;:null}" fill="#fff067" stroke-linecap="butt"/><path d="M200.68601,188.47414c-3.62223,-3.36973 -2.83172,-6.26559 -0.59787,-8.66684c2.23388,-2.40125 6.98117,-1.61614 10.6034,1.75357c3.62223,3.36973 5.98173,6.72158 3.74785,9.12283c-0.86275,0.92741 -7.77301,3.35394 -13.75339,-2.20955z" data-paper-data="{&quot;index&quot;:null}" fill="#ffe819" stroke-linecap="butt"/><path d="M197.77148,153.99661c-0.35498,-2.08228 1.04528,-4.05807 3.12756,-4.41305c2.08228,-0.35498 4.05807,1.04528 4.41305,3.12756c0.35498,2.08228 -1.04528,4.05807 -3.12756,4.41305c-2.08228,0.35498 -4.05807,-1.04528 -4.41305,-3.12756z" fill="#ffe819" stroke-linecap="butt"/><path d="M260.34767,149.66263c-0.35498,-2.08228 1.04528,-4.05807 3.12756,-4.41305c2.08228,-0.35498 4.05807,1.04528 4.41305,3.12756c0.35498,2.08228 -1.04528,4.05807 -3.12756,4.41305c-2.08228,0.35498 -4.05807,-1.04528 -4.41305,-3.12756z" fill="#ffe819" stroke-linecap="butt"/><path d="M285.71048,179.6241c2.86001,-4.03683 5.83508,-3.63704 8.51118,-1.7411c2.67609,1.89598 2.52701,6.70543 -0.33298,10.74226c-2.86001,4.03683 -5.86963,6.81969 -8.54572,4.92372c-1.03356,-0.73223 -4.35441,-7.26 0.36751,-13.9249z" data-paper-data="{&quot;index&quot;:null}" fill="#ffe819" stroke-linecap="butt"/></g></g></svg>