<svg version="1.1" xmlns="http://www.w3.org/2000/svg" xmlns:xlink="http://www.w3.org/1999/xlink" width="100.66147" height="91.32064" viewBox="0,0,100.66147,91.32064"><g transform="translate(-216.51647,-135.16708)"><g data-paper-data="{&quot;isPaintingLayer&quot;:true}" fill-rule="nonzero" stroke-linejoin="miter" stroke-miterlimit="10" stroke-dasharray="" stroke-dashoffset="0" style="mix-blend-mode: normal"><path d="M301.40269,180.81125l-3.61808,-10.08718l-1.12719,3.22473l-5.73233,-15.57214l6.35052,8.977l0.44291,-2.70614l5.28048,8.1128l1.2024,-3.65067l3.6838,7.18626l1.2036,-3.00428l8.08913,8.50968l-5.49424,4.90512l-3.56621,-6.41997l-2.05272,4.03787l-2.62327,-7.46036l-2.03879,3.94727" data-paper-data="{&quot;index&quot;:null}" fill="#fff200" stroke="none" stroke-width="0.66342" stroke-linecap="butt"/><path d="M303.34387,180.5364l-2.03879,-3.94727l-2.62327,7.46036l-2.05272,-4.03786l-3.56621,6.41997l-5.49424,-4.90512l8.08913,-8.50968l1.20359,3.00428l3.68381,-7.18627l1.2024,3.65067l5.28048,-8.1128l0.44291,2.70614l6.35052,-8.977l-5.73233,15.57214l-1.12719,-3.22473l-3.61808,10.08718" data-paper-data="{&quot;index&quot;:null}" fill="#fff200" stroke="none" stroke-width="0.66342" stroke-linecap="butt"/><path d="M237.09749,202.35624c0,-2.11232 1.71238,-3.8247 3.8247,-3.8247c2.11232,0 3.8247,1.71238 3.8247,3.8247c0,2.11232 -1.71238,3.8247 -3.8247,3.8247c-2.11232,0 -3.8247,-1.71238 -3.8247,-3.8247z" fill="#ffe819" stroke="#000000" stroke-width="2" stroke-linecap="butt"/><path d="M248.73674,204.4588l11.62062,-22.77136l6.99279,3.56854l-11.62062,22.77136z" fill="#ffe819" stroke="#000000" stroke-width="2" stroke-linecap="butt"/><path d="M232.80253,221.53121c-1.59681,2.86467 -5.5123,1.65181 -9.83358,-0.75694c-4.3213,-2.40876 -6.52991,-6.68371 -4.9331,-9.54838c1.59681,-2.86467 4.10861,-4.5084 8.4299,-2.09964c7.13455,3.9769 6.95351,11.29858 6.33679,12.40497z" data-paper-data="{&quot;index&quot;:null}" fill="#ffe819" stroke="#000000" stroke-width="2" stroke-linecap="butt"/><path d="M264.57623,183.78507c-9.09544,1.18197 -17.42694,-5.23317 -18.60891,-14.32862c-1.18197,-9.09544 5.23317,-17.42694 14.32862,-18.60891c9.09544,-1.18197 17.42694,5.23317 18.60891,14.32862c1.18197,9.09544 -5.23317,17.42694 -14.32862,18.60891z" data-paper-data="{&quot;index&quot;:null}" fill="#ffe819" stroke="#000000" stroke-width="2" stroke-linecap="butt"/><path d="M264.07696,145.20712c0,0 4.1386,-2.21679 5.66558,-2.7398c1.92751,-0.66018 4.98032,-0.90643 4.98032,-0.90643" data-paper-data="{&quot;index&quot;:null}" fill="none" stroke="#000000" stroke-width="2" stroke-linecap="round"/><path d="M282.36771,145.12778c-2.47443,1.38355 -5.60194,0.49921 -6.98548,-1.97522c-1.38355,-2.47443 -0.49921,-5.60194 1.97522,-6.98548c2.47443,-1.38355 5.60194,-0.49921 6.98548,1.97522c1.38355,2.47443 0.49921,5.60194 -1.97522,6.98548z" data-paper-data="{&quot;index&quot;:null}" fill="#ffe819" stroke="#000000" stroke-width="2" stroke-linecap="butt"/><path d="M243.4011,159.17961c0,0 3.68605,-12.61927 13.79452,-15.86777c10.10848,-3.24852 22.20524,-1.14981 22.20524,-1.14981l-1.1101,9.65435c0,0 -5.2255,-6.11351 -4.11885,-5.07975c1.53364,1.43262 8.27952,12.82325 8.27952,12.82325z" data-paper-data="{&quot;index&quot;:null}" fill="#fff067" stroke="#000000" stroke-width="2" stroke-linecap="butt"/><path d="M259.89641,214.41622c4.11347,0 7.4481,2.47844 7.4481,5.53575c0,3.05731 -3.33463,5.53575 -7.4481,5.53575c-4.11347,0 -7.4481,-2.47844 -7.4481,-5.53575c0,-3.05731 3.33463,-5.53575 7.4481,-5.53575z" data-paper-data="{&quot;index&quot;:null}" fill="#ffe819" stroke="#000000" stroke-width="2" stroke-linecap="butt"/><path d="M298.73008,175.64878c0,-2.11232 1.71238,-3.8247 3.8247,-3.8247c2.11232,0 3.8247,1.71238 3.8247,3.8247c0,2.11232 -1.71238,3.8247 -3.8247,3.8247c-2.11232,0 -3.8247,-1.71238 -3.8247,-3.8247z" fill="#ffe819" stroke="#000000" stroke-width="2" stroke-linecap="butt"/></g></g></svg>