<svg version="1.1" xmlns="http://www.w3.org/2000/svg" xmlns:xlink="http://www.w3.org/1999/xlink" width="178.93128" height="113.18091" viewBox="0,0,178.93128,113.18091"><defs><linearGradient x1="325.60754" y1="224.4452" x2="355.19035" y2="117.97873" gradientUnits="userSpaceOnUse" id="color-1"><stop offset="0" stop-color="#ffffff" stop-opacity="0"/><stop offset="1" stop-color="#ffffff"/></linearGradient></defs><g transform="translate(-187.88118,-114.39636)"><g data-paper-data="{&quot;isPaintingLayer&quot;:true}" fill-rule="nonzero" stroke-linejoin="miter" stroke-miterlimit="10" stroke-dasharray="" stroke-dashoffset="0" style="mix-blend-mode: normal"><path d="M345.55791,115.30226l-64.775,46.9078l48.76996,45.05278c0,0 29.04716,-25.71567 36.09187,-54.82649c7.04471,-29.11082 -20.08682,-37.13409 -20.08682,-37.13409z" fill="url(#color-1)" stroke="none" stroke-width="0" stroke-linecap="round"/><path d="M230.77897,211.04365l-16.39507,-19.61569l6.02372,-5.03471l16.39507,19.61569z" fill="#2d6a2b" stroke="#000000" stroke-width="2" stroke-linecap="butt"/><path d="M278.70102,167.19849c-1.89939,0.92423 -4.1884,0.13371 -5.11263,-1.76569c-0.92423,-1.89939 -0.13371,-4.1884 1.76569,-5.11263c1.89939,-0.92423 4.1884,-0.13371 5.11263,1.76569c0.92423,1.89939 0.13371,4.1884 -1.76569,5.11263z" data-paper-data="{&quot;index&quot;:null}" fill="#2d6a2b" stroke="#000000" stroke-width="2" stroke-linecap="butt"/><path d="M202.74874,205.02074c0,-2.11232 1.71238,-3.8247 3.8247,-3.8247c2.11232,0 3.8247,1.71238 3.8247,3.8247c0,2.11232 -1.71238,3.8247 -3.8247,3.8247c-2.11232,0 -3.8247,-1.71238 -3.8247,-3.8247z" fill="#2d6a2b" stroke="#000000" stroke-width="2" stroke-linecap="butt"/><path d="M262.29342,205.96728c2.21661,-4.42292 5.21793,-4.47766 8.14998,-3.00822c2.93205,1.46944 3.51203,6.24615 1.29542,10.66907c-2.21661,4.42292 -4.77075,7.62892 -7.7028,6.15948c-1.13241,-0.56752 -5.40228,-6.51798 -1.7426,-13.82033z" data-paper-data="{&quot;index&quot;:null}" fill="#2d6a2b" stroke="#000000" stroke-width="2" stroke-linecap="butt"/><path d="M204.58723,170.50159c0,-9.17193 7.43532,-16.60724 16.60724,-16.60724c9.17193,0 16.60724,7.43532 16.60724,16.60724c0,9.17193 -7.43532,16.60724 -16.60724,16.60724c-9.17193,0 -16.60724,-7.43532 -16.60724,-16.60724z" fill="#2d6a2b" stroke="#000000" stroke-width="2" stroke-linecap="butt"/><path d="M213.51971,152.12028c14.84222,-5.55435 25.0872,3.06696 25.0872,3.06696l-37.64308,16.22019c0,0 -3.40193,-13.31531 12.55588,-19.28715z" fill="#367e33" stroke="#000000" stroke-width="2" stroke-linecap="round"/><g data-paper-data="{&quot;index&quot;:null}" stroke="#61ff00" stroke-width="3" stroke-linecap="round"><path d="M346.01745,115.89636c0,0 -17.00552,13.70843 -27.21598,20.82151c-11.38696,7.9327 -37.9619,24.58455 -37.9619,24.58455" fill="none"/><path d="M305.01643,128.27855c0,0 4.72124,-2.33202 6.41535,2.04616c1.69409,4.3782 -7.34331,15.0721 -7.34331,15.0721z" fill="#61ff00"/><path d="M321.83263,137.56763c0,0 10.36609,-9.74696 15.65085,-9.15139c5.28475,0.59556 3.5549,5.05953 3.5549,5.05953z" data-paper-data="{&quot;index&quot;:null}" fill="#61ff00"/><path d="M290.63157,156.99439c0,0 8.68873,-8.27438 13.1575,-7.80192c4.46877,0.47247 3.0388,4.24513 3.0388,4.24513z" data-paper-data="{&quot;index&quot;:null}" fill="#61ff00"/></g><path d="M198.94617,160.93952c0,0 2.78477,-1.27492 4.78933,-1.63939c1.58804,-0.28873 6.28217,-0.37361 6.28217,-0.37361" fill="none" stroke="#000000" stroke-width="2" stroke-linecap="round"/><path d="M188.88118,162.65057c0,-2.83496 2.29819,-5.13315 5.13315,-5.13315c2.83496,0 5.13315,2.29819 5.13315,5.13315c0,2.83496 -2.29819,5.13315 -5.13315,5.13315c-2.83496,0 -5.13315,-2.29819 -5.13315,-5.13315z" fill="#2d6a2b" stroke="#000000" stroke-width="2" stroke-linecap="butt"/><path d="M228.49393,215.65966c4.53854,1.96907 4.75888,4.9628 3.45354,7.97149c-1.30534,3.0087 -6.04274,3.85147 -10.58129,1.88241c-4.53854,-1.96907 -7.88065,-4.34234 -6.57531,-7.35103c0.50415,-1.16201 6.20982,-5.75385 13.70306,-2.50287z" data-paper-data="{&quot;index&quot;:null}" fill="#2d6a2b" stroke="#000000" stroke-width="2" stroke-linecap="butt"/></g></g></svg>