<svg version="1.1" xmlns="http://www.w3.org/2000/svg" xmlns:xlink="http://www.w3.org/1999/xlink" width="10.42596" height="17.92134" viewBox="0,0,10.42596,17.92134"><defs><linearGradient x1="241.11698" y1="174.68772" x2="241.11698" y2="189.27485" gradientUnits="userSpaceOnUse" id="color-1"><stop offset="0" stop-color="#ff0000"/><stop offset="1" stop-color="#ff7070"/></linearGradient><linearGradient x1="238.15575" y1="174.96557" x2="238.15575" y2="189.55268" gradientUnits="userSpaceOnUse" id="color-2"><stop offset="0" stop-color="#ff0000"/><stop offset="1" stop-color="#ff7070"/></linearGradient><linearGradient x1="239.56274" y1="172.18707" x2="239.56274" y2="190.1084" gradientUnits="userSpaceOnUse" id="color-3"><stop offset="0" stop-color="#ff0000"/><stop offset="1" stop-color="#ff7070"/></linearGradient></defs><g transform="translate(-234.4234,-172.18707)"><g data-paper-data="{&quot;isPaintingLayer&quot;:true}" fill-rule="nonzero" stroke="none" stroke-width="0" stroke-linecap="butt" stroke-linejoin="miter" stroke-miterlimit="10" stroke-dasharray="" stroke-dashoffset="0" style="mix-blend-mode: normal"><path d="M244.84936,181.98128c0,4.02813 -1.67105,7.29357 -3.73237,7.29357c-2.06133,0 -3.73237,-3.26544 -3.73237,-7.29357c0,-4.02813 1.67105,-7.29357 3.73237,-7.29357c2.06133,0 3.73237,3.26544 3.73237,7.29357z" fill="url(#color-1)"/><path d="M241.88814,182.25914c0,4.02813 -1.67105,7.29357 -3.73237,7.29357c-2.06133,0 -3.73237,-3.26544 -3.73237,-7.29357c0,-4.02813 1.67105,-7.29357 3.73237,-7.29357c2.06133,0 3.73237,3.26544 3.73237,7.29357z" fill="url(#color-2)"/><path d="M239.56274,172.18707c2.06133,0 3.73237,4.01183 3.73237,8.96067c0,4.94884 -1.67105,8.96067 -3.73237,8.96067c-2.06133,0 -3.73237,-4.01183 -3.73237,-8.96067c0,-4.94884 1.67105,-8.96067 3.73237,-8.96067z" data-paper-data="{&quot;origPos&quot;:null}" fill="url(#color-3)"/></g></g></svg>