<svg version="1.1" xmlns="http://www.w3.org/2000/svg" xmlns:xlink="http://www.w3.org/1999/xlink" width="85.68569" height="95.01884" viewBox="0,0,85.68569,95.01884"><defs><linearGradient x1="257.65482" y1="180.8543" x2="257.65482" y2="215.97993" gradientUnits="userSpaceOnUse" id="color-1"><stop offset="0" stop-color="#ff0000"/><stop offset="1" stop-color="#ff0000" stop-opacity="0"/></linearGradient><linearGradient x1="258.96164" y1="183.89936" x2="248.58671" y2="249.0963" gradientUnits="userSpaceOnUse" id="color-2"><stop offset="0" stop-color="#ff0000" stop-opacity="0"/><stop offset="1" stop-color="#ff0000"/></linearGradient></defs><g transform="translate(-203.31745,-154.68269)"><g data-paper-data="{&quot;isPaintingLayer&quot;:true}" fill-rule="nonzero" stroke-linejoin="miter" stroke-miterlimit="10" stroke-dasharray="" stroke-dashoffset="0" style="mix-blend-mode: normal"><path d="M266.40648,187.07145c0,-2.11232 1.71238,-3.8247 3.8247,-3.8247c2.11232,0 3.8247,1.71238 3.8247,3.8247c0,2.11232 -1.71238,3.8247 -3.8247,3.8247c-2.11232,0 -3.8247,-1.71238 -3.8247,-3.8247z" fill="#181818" stroke="#000000" stroke-width="2" stroke-linecap="butt"/><path d="M234.7506,208.67475l4.59306,-25.14911l7.72296,1.41047l-4.59306,25.14911z" fill="#181818" stroke="#000000" stroke-width="2" stroke-linecap="butt"/><path d="M219.90641,214.34387c4.11347,0 7.4481,2.47844 7.4481,5.53575c0,3.05731 -3.33463,5.53575 -7.4481,5.53575c-4.11347,0 -7.4481,-2.47844 -7.4481,-5.53575c0,-3.05731 3.33463,-5.53575 7.4481,-5.53575z" data-paper-data="{&quot;index&quot;:null}" fill="#181818" stroke="#000000" stroke-width="2" stroke-linecap="butt"/><path d="M258.91935,213.94127c4.94728,0 6.34095,2.65869 6.34095,5.93835c0,3.27966 -4.01056,5.93835 -8.95785,5.93835c-4.94728,0 -8.95785,-0.84699 -8.95785,-4.12665c0,-1.26666 3.40667,-7.75005 11.57475,-7.75005z" data-paper-data="{&quot;index&quot;:null}" fill="#181818" stroke="#000000" stroke-width="2" stroke-linecap="butt"/><path d="M237.53304,181.53189l14.13411,2.88832l-4.44483,3.48574l3.29428,4.89915l-16.98508,-1.87418l5.16037,-4.27595z" fill="#0e0e0e" stroke="#000000" stroke-width="2" stroke-linecap="round"/><path d="M204.31745,197.65547c0,-2.11232 1.71238,-3.8247 3.8247,-3.8247c2.11232,0 3.8247,1.71238 3.8247,3.8247c0,2.11232 -1.71238,3.8247 -3.8247,3.8247c-2.11232,0 -3.8247,-1.71238 -3.8247,-3.8247z" fill="#181818" stroke="#000000" stroke-width="2" stroke-linecap="butt"/><path d="M226.65178,161.64286c0,0 3.00193,-0.60728 5.03682,-0.5057c1.61207,0.08048 6.2022,1.06677 6.2022,1.06677" fill="#181818" stroke="#000000" stroke-width="2" stroke-linecap="round"/><path d="M216.08861,161.04448c0.64558,-2.76047 3.40672,-4.47496 6.1672,-3.82937c2.76047,0.64558 4.47496,3.40672 3.82937,6.1672c-0.64558,2.76047 -3.40672,4.47496 -6.1672,3.82937c-2.76047,-0.64558 -4.47496,-3.40672 -3.82937,-6.1672z" fill="#181818" stroke="#000000" stroke-width="2" stroke-linecap="butt"/><path d="M236.20072,175.14537c0,-9.17193 7.43532,-16.60724 16.60724,-16.60724c9.17193,0 16.60724,7.43532 16.60724,16.60724c0,9.17193 -7.43532,16.60724 -16.60724,16.60724c-9.17193,0 -16.60724,-7.43532 -16.60724,-16.60724z" fill="#181818" stroke="#000000" stroke-width="2" stroke-linecap="butt"/><path d="M250.19363,186.55167v-5.24474c0,0 6.02695,1.72595 8.9956,1.72595c3.10679,0 9.24958,-1.72595 9.24958,-1.72595v5.24474z" fill="#ff0000" stroke="#000000" stroke-width="2" stroke-linecap="butt"/><g stroke="#000000" stroke-width="2"><g><path d="M234.93808,174.74372l2.31817,-15.2288c0,0 11.30268,4.14976 16.99775,5.01668c5.98033,0.91034 18.07028,0.32147 18.07028,0.32147l-2.31817,15.2288c0,0 -12.15025,-0.11438 -17.96702,-0.99982c-5.87205,-0.89386 -17.10101,-4.33833 -17.10101,-4.33833z" fill="#343434" stroke-linecap="butt"/><path d="M282.88482,181.0012c0,0 -19.87514,0.09785 -29.87524,-1.42439c-10.16895,-1.54794 -30.6404,-7.78747 -30.6404,-7.78747" fill="none" stroke-linecap="round"/></g><path d="M272.90135,163.40497c-0.35643,2.34151 -8.57743,3.03224 -18.36212,1.54279c-9.78469,-1.48945 -17.42779,-4.59506 -17.07136,-6.93657c0.35643,-2.34151 8.57743,-3.03224 18.36211,-1.54279c9.78469,1.48945 17.4278,4.59506 17.07137,6.93657z" fill="#252525" stroke-linecap="butt"/></g><path d="M289.00314,215.97993l-62.69665,-0.13352l24.39775,-32.97851c0,0 4.43001,1.76098 8.29894,1.77758c3.60104,0.01544 8.70317,-1.39356 8.70317,-1.39356z" data-paper-data="{&quot;index&quot;:null}" fill="url(#color-1)" stroke="#000000" stroke-width="0" stroke-linecap="butt"/><path d="M227.04206,240.16154c-4.34254,-3.67888 1.62968,-23.44792 3.79455,-23.8453c4.22853,-0.77617 8.2313,1.30986 15.11622,2.40548c1.34916,0.2147 4.93468,-35.99326 13.60318,-34.72731c11.45892,1.67347 -1.63712,36.63149 0.02271,36.89563c7.99055,1.27155 13.61436,1.14961 16.60655,2.64263c1.98848,0.9922 0.00356,22.33976 -3.79455,23.8453c-8.89901,3.5275 -31.67523,4.36737 -45.34866,-7.21643z" fill="url(#color-2)" stroke="none" stroke-width="0" stroke-linecap="butt"/></g></g></svg>