<svg version="1.1" xmlns="http://www.w3.org/2000/svg" xmlns:xlink="http://www.w3.org/1999/xlink" width="70.79786" height="104.68344" viewBox="0,0,70.79786,104.68344"><g transform="translate(-207.97817,-121.37743)"><g data-paper-data="{&quot;isPaintingLayer&quot;:true}" fill-rule="nonzero" stroke="#000000" stroke-width="2" stroke-linejoin="miter" stroke-miterlimit="10" stroke-dasharray="" stroke-dashoffset="0" style="mix-blend-mode: normal"><path d="M238.6966,213.38073c4.93253,0.38175 6.11689,3.14006 5.86381,6.40994c-0.25307,3.26988 -4.45683,5.61117 -9.38937,5.22942c-4.93253,-0.38175 -8.86578,-1.5357 -8.61271,-4.80557c0.09774,-1.26288 3.99454,-7.46406 12.13827,-6.83378z" data-paper-data="{&quot;index&quot;:null}" fill="#1d28e8" stroke-linecap="butt"/><path d="M230.15828,205.73768c0,-2.11232 1.71238,-3.8247 3.8247,-3.8247c2.11232,0 3.8247,1.71238 3.8247,3.8247c0,2.11232 -1.71238,3.8247 -3.8247,3.8247c-2.11232,0 -3.8247,-1.71238 -3.8247,-3.8247z" fill="#1d28e8" stroke-linecap="butt"/><path d="M228.37363,159.4409c0.68068,-9.14664 8.6473,-16.00964 17.79393,-15.32896c9.14664,0.68068 16.00964,8.6473 15.32896,17.79393c-0.68068,9.14664 -8.6473,16.00964 -17.79393,15.32896c-9.14664,-0.68068 -16.00964,-8.6473 -15.32896,-17.79393z" fill="#1d28e8" stroke-linecap="butt"/><path d="M236.82467,205.91416l1.89728,-25.49459l7.82905,0.58263l-1.89728,25.49459z" fill="#1d28e8" stroke-linecap="butt"/><path d="M221.3885,204.41696c0,-2.11232 1.71238,-3.8247 3.8247,-3.8247c2.11232,0 3.8247,1.71238 3.8247,3.8247c0,2.11232 -1.71238,3.8247 -3.8247,3.8247c-2.11232,0 -3.8247,-1.71238 -3.8247,-3.8247z" fill="#1d28e8" stroke-linecap="butt"/><path d="M218.62172,162.336c0,0 2.48671,-1.7879 4.3834,-2.532c1.50258,-0.58948 6.09227,-1.57779 6.09227,-1.57779" fill="none" stroke-linecap="round"/><path d="M209.07544,165.95545c-0.54657,-2.78177 1.26541,-5.47993 4.04718,-6.0265c2.78177,-0.54657 5.47993,1.26541 6.0265,4.04718c0.54657,2.78177 -1.26541,5.47993 -4.04718,6.0265c-2.78177,0.54657 -5.47993,-1.26541 -6.0265,-4.04718z" fill="#1d28e8" stroke-linecap="butt"/><path d="M252.72077,206.21572c4.72836,1.45539 5.27823,4.40643 4.31342,7.54096c-0.96481,3.13453 -5.58004,4.49575 -10.30841,3.04035c-4.72836,-1.45539 -8.3123,-3.44474 -7.34748,-6.57927c0.37263,-1.21061 5.53584,-6.40493 13.34248,-4.00204z" data-paper-data="{&quot;index&quot;:null}" fill="#1d28e8" stroke-linecap="butt"/><path d="M228.23526,158.62329l-9.50302,-20.99331l38.28311,-14.81794l1.28964,28.47713l20.23552,-4.85637z" fill="#2530ff" stroke-linecap="round"/></g></g></svg>