<svg version="1.1" xmlns="http://www.w3.org/2000/svg" xmlns:xlink="http://www.w3.org/1999/xlink" width="93.58805" height="87.17971" viewBox="0,0,93.58805,87.17971"><defs><linearGradient x1="282.64132" y1="150.51916" x2="271.9785" y2="187.93482" gradientUnits="userSpaceOnUse" id="color-1"><stop offset="0" stop-color="#e80000" stop-opacity="0"/><stop offset="1" stop-color="#e80000"/></linearGradient><linearGradient x1="219.27343" y1="151.75798" x2="242.83654" y2="170.5886" gradientUnits="userSpaceOnUse" id="color-2"><stop offset="0" stop-color="#e80000" stop-opacity="0"/><stop offset="1" stop-color="#e80000"/></linearGradient></defs><g transform="translate(-211.98298,-135.78924)"><g data-paper-data="{&quot;isPaintingLayer&quot;:true}" fill-rule="nonzero" stroke="#000000" stroke-linejoin="miter" stroke-miterlimit="10" stroke-dasharray="" stroke-dashoffset="0" style="mix-blend-mode: normal"><path d="M233.17937,145.85068c0,0 3.05858,0.15939 5.00408,0.76448c1.54125,0.47938 5.74117,2.57761 5.74117,2.57761" fill="none" stroke-width="2" stroke-linecap="round"/><path d="M222.34107,142.60367c1.31266,-2.51276 4.41375,-3.48564 6.92651,-2.173c2.51276,1.31266 3.48564,4.41375 2.173,6.92651c-1.31266,2.51276 -4.41375,3.48564 -6.92651,2.173c-2.51276,-1.31266 -3.48564,-4.41375 -2.173,-6.92651z" fill="#e80000" stroke-width="2" stroke-linecap="butt"/><path d="M257.57718,208.65545c0.58699,4.91233 -1.88756,6.61161 -5.14407,7.00075c-3.25649,0.38912 -6.37226,-3.27766 -6.95925,-8.19c-0.58699,-4.91233 -0.22183,-8.99508 3.03466,-9.38421c1.25771,-0.15029 8.09949,2.46307 9.06864,10.57345z" data-paper-data="{&quot;index&quot;:null}" fill="#e80000" stroke-width="2" stroke-linecap="butt"/><path d="M294.29007,189.40652c-1.65565,-1.31174 -1.9345,-3.7173 -0.62274,-5.37298c1.31174,-1.65565 3.7173,-1.9345 5.37298,-0.62274c1.65565,1.31174 1.9345,3.7173 0.62274,5.37298c-1.31174,1.65565 -3.7173,1.9345 -5.37298,0.62274z" data-paper-data="{&quot;index&quot;:null}" fill="#e80000" stroke-width="2" stroke-linecap="butt"/><path d="M294.66211,193.85794c-11.08432,-1.23831 -10.1488,-10.55099 -18.67939,-24.42248c-9.52083,-15.48172 -29.79846,-18.23545 -29.79846,-18.23545c0,0 21.95737,-11.44413 37.2713,0.70421c10.28006,8.15501 18.5206,16.63419 21.02532,26.01107c2.50473,9.37686 1.26552,17.18094 -9.81877,15.94262z" data-paper-data="{&quot;index&quot;:null}" fill="url(#color-1)" stroke-width="0" stroke-linecap="butt"/><path d="M234.58654,193.90484l7.30154,-24.50023l7.52369,2.24222l-7.30154,24.50023z" fill="#e80000" stroke-width="2" stroke-linecap="butt"/><path d="M227.20923,213.4444c2.62234,4.19511 1.1066,6.78615 -1.67443,8.52455c-2.78102,1.73842 -7.16132,-0.25311 -9.78367,-4.44823c-2.62234,-4.19511 -4.02997,-8.04486 -1.24894,-9.78328c1.07408,-0.67141 8.37747,-1.21926 12.70703,5.70696z" data-paper-data="{&quot;index&quot;:null}" fill="#e80000" stroke-width="2" stroke-linecap="butt"/><path d="M225.019,182.17236c-2.029,-0.5875 -3.19754,-2.70858 -2.61007,-4.73755c0.5875,-2.029 2.70858,-3.19754 4.73755,-2.61007c2.029,0.5875 3.19754,2.70858 2.61007,4.73755c-0.5875,2.029 -2.70858,3.19754 -4.73755,2.61007z" data-paper-data="{&quot;index&quot;:null}" fill="#e80000" stroke-width="2" stroke-linecap="butt"/><path d="M231.17677,184.53211c-6.44239,5.76776 -10.73523,1.39712 -13.37137,-5.65072c-2.63616,-7.04784 -1.2465,-16.10885 1.57685,-25.88254c4.20587,-14.55963 23.21895,-17.20961 23.21895,-17.20961c0,0 -11.56606,10.85993 -10.61437,24.9187c0.85268,12.59654 5.63236,18.05642 -0.81004,23.82419z" data-paper-data="{&quot;index&quot;:null}" fill="url(#color-2)" stroke-width="0" stroke-linecap="butt"/><path d="M237.62442,152.99882c3.55819,-8.45361 13.29566,-12.42214 21.74927,-8.86397c8.45361,3.55819 12.42214,13.29566 8.86397,21.74927c-3.55819,8.45361 -13.29566,12.42214 -21.74927,8.86397c-8.45361,-3.55819 -12.42214,-13.29566 -8.86397,-21.74927z" fill="#e80000" stroke-width="2" stroke-linecap="butt"/><path d="M237.20592,151.22015l0.81754,-5.54002l33.04216,4.87599l-0.81754,5.54001z" fill="#ff2121" stroke-width="2" stroke-linecap="butt"/></g></g></svg>