<svg version="1.1" xmlns="http://www.w3.org/2000/svg" xmlns:xlink="http://www.w3.org/1999/xlink" width="15.51688" height="6.1577" viewBox="0,0,15.51688,6.1577"><defs><linearGradient x1="242.20357" y1="177.78036" x2="242.20357" y2="182.79244" gradientUnits="userSpaceOnUse" id="color-1"><stop offset="0" stop-color="#ff0000"/><stop offset="1" stop-color="#ff7070"/></linearGradient><linearGradient x1="237.79641" y1="177.87583" x2="237.79641" y2="182.8879" gradientUnits="userSpaceOnUse" id="color-2"><stop offset="0" stop-color="#ff0000"/><stop offset="1" stop-color="#ff7070"/></linearGradient><linearGradient x1="239.89041" y1="176.92115" x2="239.89041" y2="183.07885" gradientUnits="userSpaceOnUse" id="color-3"><stop offset="0" stop-color="#ff0000"/><stop offset="1" stop-color="#ff7070"/></linearGradient></defs><g transform="translate(-232.24156,-176.92115)"><g data-paper-data="{&quot;isPaintingLayer&quot;:true}" fill-rule="nonzero" stroke="none" stroke-width="0" stroke-linecap="butt" stroke-linejoin="miter" stroke-miterlimit="10" stroke-dasharray="" stroke-dashoffset="0" style="mix-blend-mode: normal"><path d="M247.75844,180.2864c0,1.38405 -2.487,2.50604 -5.55486,2.50604c-3.06787,0 -5.55486,-1.12199 -5.55486,-2.50604c0,-1.38405 2.487,-2.50604 5.55486,-2.50604c3.06787,0 5.55486,1.12199 5.55486,2.50604z" fill="url(#color-1)"/><path d="M243.35128,180.38187c0,1.38405 -2.487,2.50604 -5.55486,2.50604c-3.06787,0 -5.55486,-1.12199 -5.55486,-2.50604c0,-1.38405 2.487,-2.50604 5.55486,-2.50604c3.06787,0 5.55486,1.12199 5.55486,2.50604z" fill="url(#color-2)"/><path d="M239.89041,176.92115c3.06787,0 5.55486,1.37845 5.55486,3.07885c0,1.7004 -2.487,3.07885 -5.55486,3.07885c-3.06787,0 -5.55486,-1.37845 -5.55486,-3.07885c0,-1.7004 2.487,-3.07885 5.55486,-3.07885z" fill="url(#color-3)"/></g></g></svg>