<svg version="1.1" xmlns="http://www.w3.org/2000/svg" xmlns:xlink="http://www.w3.org/1999/xlink" width="119.54828" height="50.79257" viewBox="0,0,119.54828,50.79257"><g transform="translate(-184.18081,-156.94737)"><g data-paper-data="{&quot;isPaintingLayer&quot;:true}" fill-rule="nonzero" stroke="#000000" stroke-width="2" stroke-linejoin="miter" stroke-miterlimit="10" stroke-dasharray="" stroke-dashoffset="0" style="mix-blend-mode: normal"><path d="M220.72107,170.91126c-2.11232,0 -3.8247,-1.71238 -3.8247,-3.8247c0,-2.11232 1.71238,-3.8247 3.8247,-3.8247c2.11232,0 3.8247,1.71238 3.8247,3.8247c0,2.11232 -1.71238,3.8247 -3.8247,3.8247z" fill="#e80000" stroke-linecap="butt"/><path d="M190.6733,196.80923c0,0 -0.08193,-3.06164 0.36811,-5.04874c0.35654,-1.5742 2.11759,-5.9263 2.11759,-5.9263" fill="none" stroke-linecap="round"/><path d="M188.30414,206.73994c-2.60831,-1.11073 -3.82235,-4.1256 -2.71162,-6.73391c1.11073,-2.60831 4.1256,-3.82235 6.73391,-2.71162c2.60831,1.11073 3.82235,4.1256 2.71162,6.73391c-1.11073,2.60831 -4.1256,3.82235 -6.73391,2.71162z" fill="#e80000" stroke-linecap="butt"/><path d="M196.70952,190.20693c-6.48553,-6.48553 -6.48553,-17.00066 0,-23.48618c6.48553,-6.48553 17.00066,-6.48553 23.48618,0c6.48553,6.48553 6.48553,17.00066 0,23.48618c-6.48553,6.48553 -17.00066,6.48553 -23.48618,0z" fill="#e80000" stroke-linecap="butt"/><path d="M259.43241,190.64955l-25.54781,-0.93984l0.28862,-7.84539l25.54781,0.93984z" fill="#e80000" stroke-linecap="butt"/><path d="M207.72654,202.363c-2.11232,0 -3.8247,-1.71238 -3.8247,-3.8247c0,-2.11232 1.71238,-3.8247 3.8247,-3.8247c2.11232,0 3.8247,1.71238 3.8247,3.8247c0,2.11232 -1.71238,3.8247 -3.8247,3.8247z" fill="#e80000" stroke-linecap="butt"/><path d="M290.85239,174.39202c0,-4.94728 2.65869,-6.34095 5.93835,-6.34095c3.27966,0 5.93835,4.01056 5.93835,8.95785c0,4.94728 -0.84699,8.95785 -4.12665,8.95785c-1.26666,0 -7.75005,-3.40667 -7.75005,-11.57475z" data-paper-data="{&quot;index&quot;:null}" fill="#e80000" stroke-linecap="butt"/><path d="M194.90444,189.92319l-4.82175,-2.84794l16.98589,-28.75829l4.82175,2.84793z" fill="#ff2121" stroke-linecap="butt"/><path d="M290.85239,185.39203c0,-4.94728 2.65869,-6.34095 5.93835,-6.34095c3.27966,0 5.93835,4.01056 5.93835,8.95785c0,4.94728 -0.84699,8.95785 -4.12665,8.95785c-1.26666,0 -7.75005,-3.40667 -7.75005,-11.57475z" data-paper-data="{&quot;index&quot;:null}" fill="#e80000" stroke-linecap="butt"/></g></g></svg>