<svg version="1.1" xmlns="http://www.w3.org/2000/svg" xmlns:xlink="http://www.w3.org/1999/xlink" width="78.57722" height="82.49787" viewBox="0,0,78.57722,82.49787"><g transform="translate(-212.70992,-143.87934)"><g data-paper-data="{&quot;isPaintingLayer&quot;:true}" fill-rule="nonzero" stroke="#000000" stroke-width="2" stroke-linejoin="miter" stroke-miterlimit="10" stroke-dasharray="" stroke-dashoffset="0" style="mix-blend-mode: normal"><path d="M262.57893,196.90062c0,-2.11232 1.71238,-3.8247 3.8247,-3.8247c2.11232,0 3.8247,1.71238 3.8247,3.8247c0,2.11232 -1.71238,3.8247 -3.8247,3.8247c-2.11232,0 -3.8247,-1.71238 -3.8247,-3.8247z" fill="#1d28e8" stroke-linecap="butt"/><path d="M228.91384,204.51076l7.63561,-24.39818l7.49236,2.34479l-7.63561,24.39818z" fill="#1d28e8" stroke-linecap="butt"/><path d="M213.70992,181.9291c0,-2.11232 1.71238,-3.8247 3.8247,-3.8247c2.11232,0 3.8247,1.71238 3.8247,3.8247c0,2.11232 -1.71238,3.8247 -3.8247,3.8247c-2.11232,0 -3.8247,-1.71238 -3.8247,-3.8247z" fill="#1d28e8" stroke-linecap="butt"/><path d="M259.72175,208.97233c4.17406,-2.65571 6.7771,-1.16067 8.53763,1.60641c1.76053,2.76708 -0.19603,7.16311 -4.3701,9.81882c-4.17406,2.65571 -8.01248,4.09397 -9.77301,1.32689c-0.67994,-1.06869 -1.286,-8.36749 5.60548,-12.75212z" data-paper-data="{&quot;index&quot;:null}" fill="#1d28e8" stroke-linecap="butt"/><path d="M241.68603,211.12842c4.17406,-2.65571 6.77711,-1.16067 8.53763,1.60641c1.76053,2.76708 -0.19603,7.16311 -4.37011,9.81882c-4.17406,2.65571 -8.01248,4.09398 -9.77301,1.3269c-0.67994,-1.06869 -1.286,-8.36749 5.60548,-12.75213z" data-paper-data="{&quot;index&quot;:null}" fill="#1d28e8" stroke-linecap="butt"/><path d="M239.62327,169.14122c3.84744,-8.32595 13.71593,-11.95649 22.04187,-8.10905c8.32595,3.84744 11.95649,13.71593 8.10905,22.04187c-3.84744,8.32595 -13.71593,11.95649 -22.04187,8.10905c-8.32595,-3.84744 -11.95649,-13.71593 -8.10905,-22.04187z" fill="#1d28e8" stroke-linecap="butt"/><path d="M229.4756,168.42968c0,0 2.95601,-0.80145 4.9932,-0.83257c1.61389,-0.02465 6.25849,0.66068 6.25849,0.66068" fill="none" stroke-linecap="round"/><path d="M219.26627,168.4686c0.46447,-2.79665 3.10812,-4.68727 5.90478,-4.22279c2.79665,0.46447 4.68727,3.10812 4.22279,5.90478c-0.46447,2.79665 -3.10812,4.68727 -5.90478,4.22279c-2.79665,-0.46447 -4.68727,-3.10812 -4.22279,-5.90478z" fill="#1d28e8" stroke-linecap="butt"/><path d="M239.78064,168.32705l-1.53086,-22.99311l41.04844,-0.43977l-8.78657,27.11837l20.65275,2.55429z" fill="#2530ff" stroke-linecap="round"/></g></g></svg>