<svg version="1.1" xmlns="http://www.w3.org/2000/svg" xmlns:xlink="http://www.w3.org/1999/xlink" width="73.17101" height="113.60789" viewBox="0,0,73.17101,113.60789"><g transform="translate(-204.97628,-121.31141)"><g data-paper-data="{&quot;isPaintingLayer&quot;:true}" fill-rule="nonzero" stroke="#000000" stroke-width="2" stroke-linejoin="miter" stroke-miterlimit="10" stroke-dasharray="" stroke-dashoffset="0" style="mix-blend-mode: normal"><path d="M237.00662,206.62206v-25.56509h7.8507v25.56509z" data-paper-data="{&quot;index&quot;:null}" fill="#1d28e8" stroke-linecap="butt"/><path d="M248.99709,229.39515c-1.62713,4.67205 -4.59629,5.11375 -7.69349,4.03509c-3.0972,-1.07866 -4.28892,-5.74053 -2.66179,-10.41258c1.62714,-4.67205 3.74606,-8.18092 6.84326,-7.10226c1.19619,0.4166 6.19845,5.76609 3.51201,13.47976z" data-paper-data="{&quot;index&quot;:null}" fill="#1d28e8" stroke-linecap="butt"/><path d="M228.3269,220.3834c-3.01931,-7.58956 1.74561,-13.1515 2.92255,-13.61972c3.04736,-1.21232 5.31687,2.20111 7.14561,6.79798c1.82875,4.59689 0.84086,9.30616 -2.20651,10.51848c-3.04737,1.21232 -6.03292,0.90013 -7.86166,-3.69674z" data-paper-data="{&quot;index&quot;:null}" fill="#1d28e8" stroke-linecap="butt"/><path d="M209.80098,192.01377c-2.11232,0 -3.8247,-1.71238 -3.8247,-3.8247c0,-2.11232 1.71238,-3.8247 3.8247,-3.8247c2.11232,0 3.8247,1.71238 3.8247,3.8247c0,2.11232 -1.71238,3.8247 -3.8247,3.8247z" data-paper-data="{&quot;index&quot;:null}" fill="#1d28e8" stroke-linecap="butt"/><path d="M273.32259,191.14007c-2.11232,0 -3.8247,-1.71238 -3.8247,-3.8247c0,-2.11232 1.71238,-3.8247 3.8247,-3.8247c2.11232,0 3.8247,1.71238 3.8247,3.8247c0,2.11232 -1.71238,3.8247 -3.8247,3.8247z" data-paper-data="{&quot;index&quot;:null}" fill="#1d28e8" stroke-linecap="butt"/><path d="M226.55515,156.96623c1.38803,-9.06629 9.86294,-15.29074 18.92923,-13.90271c9.06629,1.38803 15.29074,9.86294 13.90271,18.92923c-1.38803,9.06629 -9.86294,15.29074 -18.92923,13.90271c-9.06629,-1.38803 -15.29074,-9.86294 -13.90271,-18.92923z" data-paper-data="{&quot;index&quot;:null}" fill="#1d28e8" stroke-linecap="butt"/><path d="M216.60807,159.09624c0,0 2.61789,-1.58965 4.56658,-2.18441c1.54378,-0.47116 6.1963,-1.10053 6.1963,-1.10053" data-paper-data="{&quot;index&quot;:null}" fill="none" stroke-linecap="round"/><path d="M206.80984,161.96441c-0.32917,-2.81578 1.6866,-5.36529 4.5024,-5.69445c2.81578,-0.32917 5.36529,1.6866 5.69445,4.5024c0.32917,2.81578 -1.6866,5.36529 -4.5024,5.69445c-2.81578,0.32917 -5.36529,-1.6866 -5.69445,-4.5024z" data-paper-data="{&quot;index&quot;:null}" fill="#1d28e8" stroke-linecap="butt"/><path d="M226.48061,156.14034l-7.84619,-21.66711l39.31705,-11.80413l-0.9229,28.49138l20.55122,-3.2723z" data-paper-data="{&quot;index&quot;:null}" fill="#2530ff" stroke-linecap="round"/></g></g></svg>