<svg version="1.1" xmlns="http://www.w3.org/2000/svg" xmlns:xlink="http://www.w3.org/1999/xlink" width="124.14842" height="64.82545" viewBox="0,0,124.14842,64.82545"><g transform="translate(-184.55887,-161.04871)"><g data-paper-data="{&quot;isPaintingLayer&quot;:true}" fill-rule="nonzero" stroke="#000000" stroke-width="2" stroke-linejoin="miter" stroke-miterlimit="10" stroke-dasharray="" stroke-dashoffset="0" style="mix-blend-mode: normal"><path d="M242.15625,216.21856l-22.59782,-11.95462l3.67111,-6.93948l22.59782,11.95461z" fill="#ffe819" stroke-linecap="butt"/><path d="M240.95715,198.87298c0,-2.11232 1.71238,-3.8247 3.8247,-3.8247c2.11232,0 3.8247,1.71238 3.8247,3.8247c0,2.11232 -1.71238,3.8247 -3.8247,3.8247c-2.11232,0 -3.8247,-1.71238 -3.8247,-3.8247z" fill="#ffe819" stroke-linecap="butt"/><path d="M209.41368,186.48987c0,-9.17193 7.43532,-16.60724 16.60724,-16.60724c9.17193,0 16.60724,7.43532 16.60724,16.60724c0,9.17193 -7.43532,16.60724 -16.60724,16.60724c-9.17193,0 -16.60724,-7.43532 -16.60724,-16.60724z" fill="#ffe819" stroke-linecap="butt"/><path d="M212.97961,221.04946c0,-2.11232 1.71238,-3.8247 3.8247,-3.8247c2.11232,0 3.8247,1.71238 3.8247,3.8247c0,2.11232 -1.71238,3.8247 -3.8247,3.8247c-2.11232,0 -3.8247,-1.71238 -3.8247,-3.8247z" fill="#ffe819" stroke-linecap="butt"/><path d="M194.6245,181.28813c0,0 2.10397,-2.22568 3.82583,-3.31485c1.36408,-0.86285 5.68426,-2.70082 5.68426,-2.70082" fill="none" stroke-linecap="round"/><path d="M185.93437,186.64664c-1.06249,-2.62833 0.20687,-5.62033 2.8352,-6.68282c2.62833,-1.06249 5.62033,0.20687 6.68282,2.8352c1.06249,2.62833 -0.20687,5.62033 -2.8352,6.68282c-2.62833,1.06249 -5.62033,-0.20687 -6.68282,-2.8352z" fill="#ffe819" stroke-linecap="butt"/><path d="M204.88473,186.44279l4.89612,-10.31864l-11.5487,-1.5813c0,0 13.57292,-11.79955 24.16781,-12.49414c10.59489,-0.69459 18.66148,9.6863 18.66148,9.6863z" data-paper-data="{&quot;index&quot;:null}" fill="#fff067" stroke-linecap="butt"/><path d="M248.12456,216.40514c2.11861,4.47069 0.31286,6.86865 -2.65085,8.27313c-2.96372,1.40447 -7.08375,-1.08118 -9.20237,-5.55188c-2.11861,-4.47069 -3.07069,-8.45763 -0.10697,-9.86209c1.14462,-0.54243 8.46231,-0.24036 11.96019,7.14086z" data-paper-data="{&quot;index&quot;:null}" fill="#ffe819" stroke-linecap="butt"/><path d="M299.25835,194.13394c4.29883,-2.44858 6.82572,-0.82814 8.44894,2.02166c1.62321,2.8498 -0.5458,7.14497 -4.84466,9.59356c-4.29883,2.44858 -8.20296,3.69757 -9.82617,0.84777c-0.62691,-1.10063 -0.8756,-8.42032 6.22191,-12.46299z" data-paper-data="{&quot;index&quot;:null}" fill="#ffe819" stroke-linecap="butt"/></g></g></svg>