<svg version="1.1" xmlns="http://www.w3.org/2000/svg" xmlns:xlink="http://www.w3.org/1999/xlink" width="9.15323" height="18.64861" viewBox="0,0,9.15323,18.64861"><defs><linearGradient x1="240.93624" y1="174.06193" x2="240.93624" y2="189.24103" gradientUnits="userSpaceOnUse" id="color-1"><stop offset="0" stop-color="#ff0000"/><stop offset="1" stop-color="#ff7070"/></linearGradient><linearGradient x1="238.3365" y1="174.35106" x2="238.3365" y2="189.53013" gradientUnits="userSpaceOnUse" id="color-2"><stop offset="0" stop-color="#ff0000"/><stop offset="1" stop-color="#ff7070"/></linearGradient><linearGradient x1="239.57173" y1="171.4598" x2="239.57173" y2="190.1084" gradientUnits="userSpaceOnUse" id="color-3"><stop offset="0" stop-color="#ff0000"/><stop offset="1" stop-color="#ff7070"/></linearGradient></defs><g transform="translate(-235.05977,-171.4598)"><g data-paper-data="{&quot;isPaintingLayer&quot;:true}" fill-rule="nonzero" stroke="none" stroke-width="0" stroke-linecap="butt" stroke-linejoin="miter" stroke-miterlimit="10" stroke-dasharray="" stroke-dashoffset="0" style="mix-blend-mode: normal"><path d="M244.213,181.65147c0,4.1916 -1.46706,7.58955 -3.27675,7.58955c-1.8097,0 -3.27675,-3.39796 -3.27675,-7.58955c0,-4.1916 1.46706,-7.58955 3.27675,-7.58955c1.8097,0 3.27675,3.39796 3.27675,7.58955z" fill="url(#color-1)"/><path d="M241.61327,181.94061c0,4.1916 -1.46706,7.58955 -3.27675,7.58955c-1.8097,0 -3.27675,-3.39796 -3.27675,-7.58955c0,-4.1916 1.46706,-7.58955 3.27675,-7.58955c1.8097,0 3.27675,3.39796 3.27675,7.58955z" fill="url(#color-2)"/><path d="M239.57173,171.4598c1.8097,0 3.27675,4.17464 3.27675,9.32431c0,5.14967 -1.46706,9.32431 -3.27675,9.32431c-1.8097,0 -3.27675,-4.17464 -3.27675,-9.32431c0,-5.14967 1.46706,-9.32431 3.27675,-9.32431z" data-paper-data="{&quot;origPos&quot;:null}" fill="url(#color-3)"/></g></g></svg>