<svg version="1.1" xmlns="http://www.w3.org/2000/svg" xmlns:xlink="http://www.w3.org/1999/xlink" width="95.409" height="70.33143" viewBox="0,0,95.409,70.33143"><g transform="translate(-208.55797,-156.75809)"><g data-paper-data="{&quot;isPaintingLayer&quot;:true}" fill-rule="nonzero" stroke="#000000" stroke-width="2" stroke-linejoin="miter" stroke-miterlimit="10" stroke-dasharray="" stroke-dashoffset="0" style="mix-blend-mode: normal"><path d="M291.17407,170.15755c0,0 -2.96383,0.7721 -5.00121,0.78302c-1.61406,0.00865 -6.25164,-0.7227 -6.25164,-0.7227" data-paper-data="{&quot;index&quot;:null}" fill="none" stroke-linecap="round"/><path d="M297.23131,170.06476c-0.49218,2.79191 -3.15445,4.65622 -5.94637,4.16405c-2.79191,-0.49218 -4.65622,-3.15445 -4.16404,-5.94636c0.49218,-2.79191 3.15445,-4.65622 5.94637,-4.16405c2.79191,0.49218 4.65622,3.15445 4.16404,5.94636z" data-paper-data="{&quot;index&quot;:null}" fill="#ff6b00" stroke-linecap="butt"/><path d="M287.31734,159.72043l-6.66985,11.03759l21.59701,26.46682l-45.40994,13.56397l2.89185,-33.50431l-11.65376,-5.45688z" data-paper-data="{&quot;index&quot;:null}" fill="#ffa340" stroke-linecap="butt"/><path d="M234.19984,210.66173l-1.54842,-25.51815l7.83628,-0.47548l1.54841,25.51815z" data-paper-data="{&quot;index&quot;:null}" fill="#ff6b00" stroke-linecap="butt"/><path d="M261.02628,168.83754c0,-2.11232 1.71238,-3.8247 3.8247,-3.8247c2.11232,0 3.8247,1.71238 3.8247,3.8247c0,2.11232 -1.71238,3.8247 -3.8247,3.8247c-2.11232,0 -3.8247,-1.71238 -3.8247,-3.8247z" fill="#ff6b00" stroke-linecap="butt"/><path d="M216.75512,174.73392c-0.20588,-9.16962 7.06067,-16.76995 16.23028,-16.97583c9.16962,-0.20588 16.76995,7.06067 16.97583,16.23028c0.20588,9.16962 -7.06067,16.76995 -16.23028,16.97583c-9.16962,0.20588 -16.76995,-7.06067 -16.97583,-16.23028z" fill="#ff6b00" stroke-linecap="butt"/><path d="M209.55797,186.77852c0,-2.11232 1.71238,-3.8247 3.8247,-3.8247c2.11232,0 3.8247,1.71238 3.8247,3.8247c0,2.11232 -1.71238,3.8247 -3.8247,3.8247c-2.11232,0 -3.8247,-1.71238 -3.8247,-3.8247z" fill="#ff6b00" stroke-linecap="butt"/><path d="M218.5948,215.01802c4.11347,0 7.4481,2.47844 7.4481,5.53575c0,3.05731 -3.33463,5.53575 -7.4481,5.53575c-4.11347,0 -7.4481,-2.47844 -7.4481,-5.53575c0,-3.05731 3.33463,-5.53575 7.4481,-5.53575z" data-paper-data="{&quot;index&quot;:null}" fill="#ff6b00" stroke-linecap="butt"/><path d="M266.89876,212.13779c4.43079,-2.20083 6.86171,-0.43967 8.32067,2.4976c1.45898,2.93727 -0.95017,7.10252 -5.38097,9.30335c-4.43079,2.20083 -8.39946,3.22638 -9.85843,0.28911c-0.56347,-1.13442 -0.39663,-8.45644 6.91873,-12.09005z" data-paper-data="{&quot;index&quot;:null}" fill="#ff6b00" stroke-linecap="butt"/></g></g></svg>