<svg version="1.1" xmlns="http://www.w3.org/2000/svg" xmlns:xlink="http://www.w3.org/1999/xlink" width="57.1178" height="64.55936" viewBox="0,0,57.1178,64.55936"><g transform="translate(-216.57241,-162.3912)"><g data-paper-data="{&quot;isPaintingLayer&quot;:true}" fill-rule="nonzero" stroke="#000000" stroke-width="2" stroke-linejoin="miter" stroke-miterlimit="10" stroke-dasharray="" stroke-dashoffset="0" style="mix-blend-mode: normal"><path d="M227.23529,213.99351l14.26514,-21.21508l6.51486,4.38063l-14.26514,21.21507z" fill="#2d6a2b" stroke-linecap="butt"/><path d="M221.27726,197.67193c0,-2.11232 1.71238,-3.8247 3.8247,-3.8247c2.11232,0 3.8247,1.71238 3.8247,3.8247c0,2.11232 -1.71238,3.8247 -3.8247,3.8247c-2.11232,0 -3.8247,-1.71238 -3.8247,-3.8247z" fill="#2d6a2b" stroke-linecap="butt"/><path d="M257.28617,208.35403c0,-2.11232 1.71238,-3.8247 3.8247,-3.8247c2.11232,0 3.8247,1.71238 3.8247,3.8247c0,2.11232 -1.71238,3.8247 -3.8247,3.8247c-2.11232,0 -3.8247,-1.71238 -3.8247,-3.8247z" fill="#2d6a2b" stroke-linecap="butt"/><path d="M233.16019,214.46701c4.88505,0.78224 5.84081,3.62785 5.32224,6.86625c-0.51857,3.23841 -4.89906,5.22952 -9.78411,4.44728c-4.88505,-0.78224 -8.71124,-2.25271 -8.19268,-5.49111c0.20028,-1.25073 4.58922,-7.11391 12.65455,-5.82241z" data-paper-data="{&quot;index&quot;:null}" fill="#2d6a2b" stroke-linecap="butt"/><path d="M227.93417,174.21958c0,0 2.78477,-1.27492 4.78933,-1.63939c1.58804,-0.28873 6.28217,-0.37361 6.28217,-0.37361" data-paper-data="{&quot;index&quot;:null}" fill="none" stroke-linecap="round"/><path d="M217.57241,175.93063c0,-2.83496 2.29819,-5.13315 5.13315,-5.13315c2.83496,0 5.13315,2.29819 5.13315,5.13315c0,2.83496 -2.29819,5.13315 -5.13315,5.13315c-2.83496,0 -5.13315,-2.29819 -5.13315,-5.13315z" data-paper-data="{&quot;index&quot;:null}" fill="#2d6a2b" stroke-linecap="butt"/><path d="M237.78761,183.63758c0,-9.17193 7.43532,-16.60724 16.60724,-16.60724c9.17193,0 16.60724,7.43532 16.60724,16.60724c0,9.17193 -7.43532,16.60724 -16.60724,16.60724c-9.17193,0 -16.60724,-7.43532 -16.60724,-16.60724z" fill="#2d6a2b" stroke-linecap="butt"/><path d="M246.72009,165.25627c14.84222,-5.55435 25.0872,3.06696 25.0872,3.06696l-37.64308,16.22019c0,0 -3.40193,-13.31531 12.55588,-19.28715z" fill="#367e33" stroke-linecap="round"/><path d="M253.46943,213.50922c2.72688,-3.07974 6.79305,-3.93337 9.08204,-1.90663c2.28899,2.02673 1.93402,6.16635 -0.79286,9.24609c-2.72688,3.07974 -6.79305,3.93337 -9.08204,1.90663c-2.28899,-2.02673 -1.93402,-6.16635 0.79286,-9.24609z" data-paper-data="{&quot;index&quot;:null}" fill="#2d6a2b" stroke-linecap="butt"/></g></g></svg>