<svg version="1.1" xmlns="http://www.w3.org/2000/svg" xmlns:xlink="http://www.w3.org/1999/xlink" width="88.6365" height="89.78978" viewBox="0,0,88.6365,89.78978"><g transform="translate(-201.74642,-138.44119)"><g data-paper-data="{&quot;isPaintingLayer&quot;:true}" fill-rule="nonzero" stroke="#000000" stroke-width="2" stroke-linejoin="miter" stroke-miterlimit="10" stroke-dasharray="" stroke-dashoffset="0" style="mix-blend-mode: normal"><path d="M285.86141,190.92609c-7.52073,3.18688 -13.18697,-1.45353 -13.68118,-2.61979c-1.27959,-3.01974 2.08266,-5.36437 6.63785,-7.29461c4.55519,-1.93025 9.28522,-1.04704 10.56483,1.97269c1.2796,3.01973 1.0337,6.01147 -3.52149,7.94171z" data-paper-data="{&quot;index&quot;:null}" fill="#ffe819" stroke-linecap="butt"/><path d="M251.19528,204.90811l-15.62714,-20.2328l6.21322,-4.79888l15.62714,20.2328z" data-paper-data="{&quot;index&quot;:null}" fill="#ffe819" stroke-linecap="butt"/><path d="M253.98337,184.0242c0,-2.11232 1.71238,-3.8247 3.8247,-3.8247c2.11232,0 3.8247,1.71238 3.8247,3.8247c0,2.11232 -1.71238,3.8247 -3.8247,3.8247c-2.11232,0 -3.8247,-1.71238 -3.8247,-3.8247z" fill="#ffe819" stroke-linecap="butt"/><path d="M219.21647,160.18542c2.48689,-8.82834 11.6597,-13.9691 20.48804,-11.48221c8.82834,2.48689 13.9691,11.6597 11.48221,20.48804c-2.48689,8.82834 -11.6597,13.9691 -20.48804,11.48221c-8.82834,-2.48689 -13.9691,-11.6597 -11.48221,-20.48804z" fill="#ffe819" stroke-linecap="butt"/><path d="M219.5464,187.22184c0,-2.11232 1.71238,-3.8247 3.8247,-3.8247c2.11232,0 3.8247,1.71238 3.8247,3.8247c0,2.11232 -1.71238,3.8247 -3.8247,3.8247c-2.11232,0 -3.8247,-1.71238 -3.8247,-3.8247z" fill="#ffe819" stroke-linecap="butt"/><path d="M212.59516,147.69194c0,0 2.62863,-1.57183 4.58131,-2.15333c1.54694,-0.46067 6.20363,-1.05841 6.20363,-1.05841" fill="none" stroke-linecap="round"/><path d="M202.77765,150.49346c-0.31004,-2.81796 1.72303,-5.3537 4.54098,-5.66374c2.81796,-0.31004 5.3537,1.72303 5.66374,4.54098c0.31004,2.81796 -1.72303,5.3537 -4.54098,5.66374c-2.81796,0.31004 -5.3537,-1.72303 -5.66374,-4.54098z" fill="#ffe819" stroke-linecap="butt"/><path d="M214.86994,158.91211l7.51052,-8.60456l-6.00632,-8.90717c0,0 11.58282,-3.42357 21.96915,-1.21943c10.38633,2.20415 15.33605,14.38335 15.33605,14.38335z" data-paper-data="{&quot;index&quot;:null}" fill="#fff067" stroke-linecap="butt"/><path d="M231.56571,215.01762c8.13352,0.75065 10.92995,7.51967 10.81355,8.78097c-0.3014,3.26578 -4.37283,3.74063 -9.29918,3.28597c-4.92636,-0.45465 -8.67561,-3.47066 -8.37422,-6.73644c0.3014,-3.26578 1.93351,-5.78515 6.85985,-5.33049z" data-paper-data="{&quot;index&quot;:null}" fill="#ffe819" stroke-linecap="butt"/></g></g></svg>