<svg version="1.1" xmlns="http://www.w3.org/2000/svg" xmlns:xlink="http://www.w3.org/1999/xlink" width="90.51268" height="120.5949" viewBox="0,0,90.51268,120.5949"><g transform="translate(-202.39049,-103.44314)"><g data-paper-data="{&quot;isPaintingLayer&quot;:true}" fill-rule="nonzero" stroke="#000000" stroke-width="2" stroke-linejoin="miter" stroke-miterlimit="10" stroke-dasharray="" stroke-dashoffset="0" style="mix-blend-mode: normal"><path d="M230.07594,174.0586c0.11327,-2.10928 1.91502,-3.72737 4.0243,-3.61409c2.10928,0.11327 3.72737,1.91502 3.61409,4.0243c-0.11327,2.10928 -1.91502,3.72737 -4.0243,3.61409c-2.10928,-0.11327 -3.72737,-1.91502 -3.61409,-4.0243z" fill="#ff6b00" stroke-linecap="butt"/><path d="M229.27595,193.79049l13.89062,-21.46216l6.59074,4.26563l-13.89061,21.46215z" data-paper-data="{&quot;index&quot;:null}" fill="#ff6b00" stroke-linecap="butt"/><path d="M210.91269,202.48577c1.15146,-8.08652 8.05036,-10.54519 9.30436,-10.36664c3.24689,0.46234 3.52006,4.55225 2.82264,9.45013c-0.69743,4.89789 -3.89494,8.4936 -7.14184,8.03127c-3.2469,-0.46232 -5.68259,-2.21687 -4.98517,-7.11475z" data-paper-data="{&quot;index&quot;:null}" fill="#ff6b00" stroke-linecap="butt"/><path d="M206.13611,212.82607c6.26952,-5.23552 13.04003,-2.44268 13.85193,-1.47044c2.10217,2.51732 -0.43329,5.73812 -4.23065,8.90919c-3.79737,3.17108 -8.57987,3.70102 -10.68204,1.18368c-2.10218,-2.51734 -2.7366,-5.45137 1.06076,-8.62244z" data-paper-data="{&quot;index&quot;:null}" fill="#ff6b00" stroke-linecap="butt"/><path d="M233.16588,188.16833c0.11327,-2.10928 1.91502,-3.72737 4.0243,-3.61409c2.10928,0.11327 48.13563,-0.04006 48.02235,2.06922c-0.11327,2.10928 -46.32328,5.68245 -48.43256,5.56917c-2.10928,-0.11327 -3.72737,-1.91502 -3.61409,-4.0243z" fill="#ff6b00" stroke-linecap="butt"/><path d="M252.97303,177.34783c-9.15872,0.49185 -16.98207,-6.53404 -17.47392,-15.69277c-0.49185,-9.15872 6.53404,-16.98207 15.69277,-17.47392c9.15872,-0.49185 16.98207,6.53404 17.47392,15.69277c0.49185,9.15872 -6.53404,16.98207 -15.69277,17.47392z" data-paper-data="{&quot;index&quot;:null}" fill="#ff6b00" stroke-linecap="butt"/><path d="M277.7335,144.56479c0,0 -2.68129,1.48024 -4.65284,1.99407c-1.56191,0.40706 -6.23643,0.84386 -6.23643,0.84386" data-paper-data="{&quot;index&quot;:null}" fill="none" stroke-linecap="round"/><path d="M287.64179,142.1035c0.21267,2.82696 -1.90662,5.29111 -4.7336,5.50378c-2.82697,0.21267 -5.2911,-1.90663 -5.50377,-4.73359c-0.21267,-2.82696 1.90662,-5.29111 4.7336,-5.50378c2.82697,-0.21267 5.2911,1.90663 5.50377,4.73359z" data-paper-data="{&quot;index&quot;:null}" fill="#ff6b00" stroke-linecap="butt"/><path d="M235.53944,143.24584l11.96324,-4.74011l-0.85468,-33.61802l44.50378,16.29286l-23.16231,25.10837l5.98821,11.42176z" data-paper-data="{&quot;index&quot;:null}" fill="#ffa340" stroke-linecap="butt"/></g></g></svg>