<svg version="1.1" xmlns="http://www.w3.org/2000/svg" xmlns:xlink="http://www.w3.org/1999/xlink" width="139.48746" height="104.74237" viewBox="0,0,139.48746,104.74237"><g transform="translate(-173.86019,-122.02005)"><g data-paper-data="{&quot;isPaintingLayer&quot;:true}" fill-rule="nonzero" stroke="#000000" stroke-width="2" stroke-linejoin="miter" stroke-miterlimit="10" stroke-dasharray="" stroke-dashoffset="0" style="mix-blend-mode: normal"><path d="M221.93374,188.06104c-6.96169,5.97151 -17.44614,5.16881 -23.41765,-1.79289c-5.97151,-6.96169 -5.16882,-17.44612 1.79288,-23.41764c6.96169,-5.97151 17.44614,-5.16881 23.41765,1.79289c5.97151,6.96169 5.16882,17.44612 -1.79288,23.41764z" data-paper-data="{&quot;index&quot;:null}" fill="#ff6b00" stroke-linecap="butt"/><path d="M242.53716,208.29797l-18.98331,-17.1233l5.25834,-5.82953l18.98332,17.12331z" fill="#ff6b00" stroke-linecap="butt"/><path d="M219.31579,202.89766c0,-2.11232 1.71238,-3.8247 3.8247,-3.8247c2.11232,0 3.8247,1.71238 3.8247,3.8247c0,2.11232 -1.71238,3.8247 -3.8247,3.8247c-2.11232,0 -3.8247,-1.71238 -3.8247,-3.8247z" fill="#ff6b00" stroke-linecap="butt"/><path d="M207.05788,154.57437c0,0 4.59954,-0.94145 6.21231,-1.00619c2.03578,-0.08173 5.03163,0.55484 5.03163,0.55484" data-paper-data="{&quot;index&quot;:null}" fill="none" stroke-linecap="round"/><path d="M220.94159,159.72613c-2.76665,0.61861 -5.51093,-1.12272 -6.12953,-3.88937c-0.61861,-2.76665 1.12272,-5.51093 3.88937,-6.12953c2.76665,-0.61861 5.51094,1.12272 6.12954,3.88936c0.61861,2.76665 -1.12273,5.51093 -3.88938,6.12954z" data-paper-data="{&quot;index&quot;:null}" fill="#ff6b00" stroke-linecap="butt"/><path d="M187.75368,172.07872l7.44039,-10.53357l-19.65355,-27.94032l46.262,-10.28938l-5.27502,33.21258l11.23471,6.27448z" data-paper-data="{&quot;index&quot;:null}" fill="#ffa340" stroke-linecap="butt"/><path d="M213.03608,199.08262c0,-2.11232 1.71238,-3.8247 3.8247,-3.8247c2.11232,0 3.8247,1.71238 3.8247,3.8247c0,2.11232 -1.71238,3.8247 -3.8247,3.8247c-2.11232,0 -3.8247,-1.71238 -3.8247,-3.8247z" fill="#ff6b00" stroke-linecap="butt"/><path d="M226.53339,213.32916c8.08827,1.13904 10.55755,8.03414 10.38091,9.28842c-0.45734,3.24761 -4.54684,3.52704 -9.44578,2.83715c-4.89895,-0.6899 -8.49956,-3.88188 -8.04222,-7.1295c0.45735,-3.24762 2.20816,-5.68599 7.1071,-4.9961z" data-paper-data="{&quot;index&quot;:null}" fill="#ff6b00" stroke-linecap="butt"/><path d="M301.52159,170.08705c2.15092,-4.45523 5.15112,-4.55437 8.10459,-3.12848c2.95347,1.4259 3.60406,6.19349 1.45314,10.64874c-2.15092,4.45523 -4.65733,7.69868 -7.61081,6.27278c-1.14067,-0.5507 -5.49813,-6.43733 -1.94691,-13.79304z" data-paper-data="{&quot;index&quot;:null}" fill="#ff6b00" stroke-linecap="butt"/></g></g></svg>