<svg version="1.1" xmlns="http://www.w3.org/2000/svg" xmlns:xlink="http://www.w3.org/1999/xlink" width="82.98371" height="78.93154" viewBox="0,0,82.98371,78.93154"><g transform="translate(-203.31741,-147.88644)"><g data-paper-data="{&quot;isPaintingLayer&quot;:true}" fill-rule="nonzero" stroke="#000000" stroke-width="2" stroke-linejoin="miter" stroke-miterlimit="10" stroke-dasharray="" stroke-dashoffset="0" style="mix-blend-mode: normal"><path d="M268.13241,182.75658c0,-2.11232 1.71238,-3.8247 3.8247,-3.8247c2.11232,0 3.8247,1.71238 3.8247,3.8247c0,2.11232 -1.71238,3.8247 -3.8247,3.8247c-2.11232,0 -3.8247,-1.71238 -3.8247,-3.8247z" fill="#181818" stroke-linecap="butt"/><path d="M236.47651,204.35989l4.59306,-25.14911l7.72296,1.41047l-4.59306,25.14911z" fill="#181818" stroke-linecap="butt"/><path d="M219.90637,214.34388c4.11347,0 7.4481,2.47844 7.4481,5.53575c0,3.05731 -3.33463,5.53575 -7.4481,5.53575c-4.11347,0 -7.4481,-2.47844 -7.4481,-5.53575c0,-3.05731 3.33463,-5.53575 7.4481,-5.53575z" data-paper-data="{&quot;index&quot;:null}" fill="#181818" stroke-linecap="butt"/><path d="M258.91931,213.94128c4.94728,0 6.34095,2.65869 6.34095,5.93835c0,3.27966 -4.01056,5.93835 -8.95785,5.93835c-4.94728,0 -8.95785,-0.84699 -8.95785,-4.12665c0,-1.26666 3.40667,-7.75005 11.57475,-7.75005z" data-paper-data="{&quot;index&quot;:null}" fill="#181818" stroke-linecap="butt"/><path d="M239.25895,177.21703l14.13411,2.88832l-4.44483,3.48574l3.29428,4.89915l-16.98508,-1.87418l5.16037,-4.27595z" fill="#0e0e0e" stroke-linecap="round"/><path d="M204.31741,197.65548c0,-2.11232 1.71238,-3.8247 3.8247,-3.8247c2.11232,0 3.8247,1.71238 3.8247,3.8247c0,2.11232 -1.71238,3.8247 -3.8247,3.8247c-2.11232,0 -3.8247,-1.71238 -3.8247,-3.8247z" fill="#181818" stroke-linecap="butt"/><path d="M228.37769,157.328c0,0 3.00193,-0.60728 5.03682,-0.5057c1.61207,0.08048 6.2022,1.06677 6.2022,1.06677" fill="#181818" stroke-linecap="round"/><path d="M217.81452,156.72961c0.64558,-2.76047 3.40672,-4.47496 6.1672,-3.82937c2.76047,0.64558 4.47496,3.40672 3.82937,6.1672c-0.64558,2.76047 -3.40672,4.47496 -6.1672,3.82937c-2.76047,-0.64558 -4.47496,-3.40672 -3.82937,-6.1672z" fill="#181818" stroke-linecap="butt"/><path d="M237.92663,170.83051c0,-9.17193 7.43532,-16.60724 16.60724,-16.60724c9.17193,0 16.60724,7.43532 16.60724,16.60724c0,9.17193 -7.43532,16.60724 -16.60724,16.60724c-9.17193,0 -16.60724,-7.43532 -16.60724,-16.60724z" fill="#181818" stroke-linecap="butt"/><path d="M253.64549,182.23681v-7.25834c0,0 6.02695,2.38859 8.9956,2.38859c3.10679,0 9.24958,-2.38859 9.24958,-2.38859v7.25834z" fill="#ff0000" stroke-linecap="butt"/><g><g><path d="M237.03322,170.76538l-0.58782,-15.39301c0,0 11.8815,1.9496 17.63798,1.72978c6.04481,-0.23084 17.80818,-3.08337 17.80818,-3.08337l0.58782,15.39301c0,0 -11.95487,2.17318 -17.83436,2.3977c-5.93537,0.22665 -17.6118,-1.04411 -17.6118,-1.04411z" fill="#343434" stroke-linecap="butt"/><path d="M285.30112,167.89215c0,0 -19.50194,3.8347 -29.60987,4.2207c-10.2786,0.39252 -31.5583,-1.88486 -31.5583,-1.88486" fill="none" stroke-linecap="round"/></g><path d="M272.18595,152.48799c0.09038,2.36676 -7.85394,4.59156 -17.74413,4.96924c-9.8902,0.37768 -17.98104,-1.23479 -18.07142,-3.60155c-0.09038,-2.36676 7.85394,-4.59156 17.74412,-4.96924c9.8902,-0.37768 17.98105,1.23479 18.07143,3.60155z" fill="#252525" stroke-linecap="butt"/></g></g></g></svg>