<svg version="1.1" xmlns="http://www.w3.org/2000/svg" xmlns:xlink="http://www.w3.org/1999/xlink" width="136.02042" height="79.37645" viewBox="0,0,136.02042,79.37645"><g transform="translate(-205.17802,-147.71306)"><g data-paper-data="{&quot;isPaintingLayer&quot;:true}" fill-rule="nonzero" stroke="#000000" stroke-width="2" stroke-linejoin="miter" stroke-miterlimit="10" stroke-dasharray="" stroke-dashoffset="0" style="mix-blend-mode: normal"><path d="M230.76609,205.98131l-2.13149,-25.47608l7.82337,-0.65455l2.13149,25.47608z" fill="#ff6b00" stroke-linecap="butt"/><path d="M221.4306,166.76691c0,-9.17193 7.43532,-16.60724 16.60724,-16.60724c9.17193,0 16.60724,7.43532 16.60724,16.60724c0,9.17193 -7.43532,16.60724 -16.60724,16.60724c-9.17193,0 -16.60724,-7.43532 -16.60724,-16.60724z" fill="#ff6b00" stroke-linecap="butt"/><path d="M206.17802,188.85381c0,-2.11232 1.71238,-3.8247 3.8247,-3.8247c2.11232,0 3.8247,1.71238 3.8247,3.8247c0,2.11232 -1.71238,3.8247 -3.8247,3.8247c-2.11232,0 -3.8247,-1.71238 -3.8247,-3.8247z" fill="#ff6b00" stroke-linecap="butt"/><path d="M222.81413,215.01801c4.11347,0 7.4481,2.47844 7.4481,5.53575c0,3.05731 -3.33463,5.53575 -7.4481,5.53575c-4.11347,0 -7.4481,-2.47844 -7.4481,-5.53575c0,-3.05731 3.33463,-5.53575 7.4481,-5.53575z" data-paper-data="{&quot;index&quot;:null}" fill="#ff6b00" stroke-linecap="butt"/><path d="M303.66253,165.96107c0,0 1.76044,2.50623 2.48363,4.41097c0.57292,1.50897 1.51068,6.10926 1.51068,6.10926" fill="none" stroke-linecap="round"/><path d="M300.14831,156.37554c2.78762,-0.51594 5.46568,1.3256 5.98161,4.11323c0.51594,2.78762 -1.3256,5.46568 -4.11323,5.98161c-2.78762,0.51594 -5.46568,-1.3256 -5.98161,-4.11323c-0.51594,-2.78762 1.3256,-5.46568 4.11323,-5.98161z" fill="#ff6b00" stroke-linecap="butt"/><path d="M256.48089,211.5285c4.52935,-1.99011 6.87479,-0.11664 8.19408,2.88597c1.31929,3.00261 -1.28298,7.05 -5.81234,9.04013c-4.52935,1.99011 -8.54183,2.82799 -9.86112,-0.17462c-0.50953,-1.15965 0.00132,-8.46573 7.47939,-11.75146z" data-paper-data="{&quot;index&quot;:null}" fill="#ff6b00" stroke-linecap="butt"/><path d="M289.46206,159.22312l17.72094,19.61715l22.1606,-28.89711c0,0 5.9371,22.68498 7.52124,33.03155c1.93373,12.62986 3.24289,37.27275 3.24289,37.27275l-34.66513,-17.72956l-11.27573,8.01451z" data-paper-data="{&quot;index&quot;:null}" fill="#ffa340" stroke-linecap="butt"/><path d="M291.86765,193.48313c0.38014,-2.07784 2.37272,-3.45409 4.45056,-3.07396c2.07784,0.38014 3.45409,2.37272 3.07396,4.45056c-0.38014,2.07784 -2.37272,3.45409 -4.45056,3.07396c-2.07784,-0.38014 -3.45409,-2.37272 -3.07396,-4.45056z" fill="#ff6b00" stroke-linecap="butt"/></g></g></svg>