<svg version="1.1" xmlns="http://www.w3.org/2000/svg" xmlns:xlink="http://www.w3.org/1999/xlink" width="98.03389" height="113.25961" viewBox="0,0,98.03389,113.25961"><g transform="translate(-215.1467,-113.8299)"><g data-paper-data="{&quot;isPaintingLayer&quot;:true}" fill-rule="nonzero" stroke="#000000" stroke-width="2" stroke-linejoin="miter" stroke-miterlimit="10" stroke-dasharray="" stroke-dashoffset="0" style="mix-blend-mode: normal"><path d="M306.77712,189.45372c-1.55932,-1.42493 -1.66827,-3.84415 -0.24334,-5.40347c1.42493,-1.55932 3.84415,-1.66827 5.40347,-0.24334c1.55932,1.42493 1.66827,3.84415 0.24334,5.40347c-1.42493,1.55932 -3.84415,1.66827 -5.40347,0.24334z" fill="#ff6b00" stroke-linecap="butt"/><path d="M254.43146,167.29308c0.56521,-9.1545 8.44459,-16.11748 17.59908,-15.55228c9.1545,0.56521 16.11748,8.44459 15.55228,17.59908c-0.56521,9.1545 -8.44459,16.11748 -17.59908,15.55228c-9.1545,-0.56521 -16.11748,-8.44459 -15.55228,-17.59908z" fill="#ff6b00" stroke-linecap="butt"/><path d="M238.39772,202.18723l12.68513,-22.19596l6.81609,3.89543l-12.68514,22.19596z" data-paper-data="{&quot;index&quot;:null}" fill="#ff6b00" stroke-linecap="butt"/><path d="M305.5076,195.85196c-1.55932,-1.42493 -1.66827,-3.84415 -0.24334,-5.40347c1.42493,-1.55932 3.84415,-1.66827 5.40347,-0.24334c1.55932,1.42493 1.66827,3.84415 0.24334,5.40347c-1.42493,1.55932 -3.84415,1.66827 -5.40347,0.24334z" fill="#ff6b00" stroke-linecap="butt"/><path d="M223.5948,215.01802c4.11347,0 7.4481,2.47844 7.4481,5.53575c0,3.05731 -3.33463,5.53575 -7.4481,5.53575c-4.11347,0 -7.4481,-2.47844 -7.4481,-5.53575c0,-3.05731 3.33463,-5.53575 7.4481,-5.53575z" data-paper-data="{&quot;index&quot;:null}" fill="#ff6b00" stroke-linecap="butt"/><path d="M244.32021,160.60632c0,0 2.81773,-1.20033 4.83127,-1.51129c1.59517,-0.24635 6.28989,-0.20622 6.28989,-0.20622" fill="none" stroke-linecap="round"/><path d="M234.21323,162.04879c0.07548,-2.83395 2.43404,-5.07015 5.268,-4.99467c2.83395,0.07548 5.07014,2.43404 4.99466,5.26799c-0.07548,2.83395 -2.43404,5.07015 -5.268,4.99467c-2.83395,-0.07548 -5.07014,-2.43404 -4.99466,-5.26799z" fill="#ff6b00" stroke-linecap="butt"/><path d="M261.79495,213.74182c4.89738,-0.7009 6.65366,1.73353 7.1183,4.98011c0.46464,3.24658 -3.1288,6.44664 -8.02619,7.14755c-4.89738,0.7009 -8.98749,0.43065 -9.45213,-2.81593c-0.17945,-1.25388 2.27433,-8.15451 10.36002,-9.31172z" data-paper-data="{&quot;index&quot;:null}" fill="#ff6b00" stroke-linecap="butt"/><path d="M249.67253,170.36135l4.97093,-11.8998l-25.26062,-22.99618l42.91608,-20.10608l2.07581,33.56475l12.33054,3.68042z" data-paper-data="{&quot;index&quot;:null}" fill="#ffa340" stroke-linecap="butt"/></g></g></svg>