<svg version="1.1" xmlns="http://www.w3.org/2000/svg" xmlns:xlink="http://www.w3.org/1999/xlink" width="74.7196" height="82.88816" viewBox="0,0,74.7196,82.88816"><g transform="translate(-197.2465,-143.46797)"><g data-paper-data="{&quot;isPaintingLayer&quot;:true}" fill-rule="nonzero" stroke="#000000" stroke-width="2" stroke-linejoin="miter" stroke-miterlimit="10" stroke-dasharray="" stroke-dashoffset="0" style="mix-blend-mode: normal"><path d="M200.00836,181.47884c0.64713,-2.01075 2.80177,-3.11619 4.81252,-2.46906c2.01075,0.64713 3.11619,2.80177 2.46906,4.81252c-0.64713,2.01075 -2.80177,3.11619 -4.81252,2.46906c-2.01075,-0.64713 -3.11619,-2.80177 -2.46906,-4.81252z" fill="#ffe819" stroke-linecap="butt"/><path d="M235.81688,162.2898c4.08147,-8.21377 14.04873,-11.56363 22.26248,-7.48216c8.21377,4.08147 11.56363,14.04873 7.48216,22.26248c-4.08147,8.21377 -14.04873,11.56363 -22.26248,7.48216c-8.21377,-4.08147 -11.56363,-14.04873 -7.48216,-22.26248z" fill="#ffe819" stroke-linecap="butt"/><path d="M223.88816,206.26873l7.40853,-24.46809l7.51383,2.27506l-7.40853,24.46809z" fill="#ffe819" stroke-linecap="butt"/><path d="M198.2465,186.68605c0.64713,-2.01075 2.80177,-3.11619 4.81252,-2.46906c2.01075,0.64713 3.11619,2.80177 2.46906,4.81252c-0.64713,2.01075 -2.80177,3.11619 -4.81252,2.46906c-2.01075,-0.64713 -3.11619,-2.80177 -2.46906,-4.81252z" fill="#ffe819" stroke-linecap="butt"/><path d="M229.28552,213.59445c4.11347,0 7.4481,2.47844 7.4481,5.53575c0,3.05731 -3.33463,5.53575 -7.4481,5.53575c-4.11347,0 -7.4481,-2.47844 -7.4481,-5.53575c0,-3.05731 3.33463,-5.53575 7.4481,-5.53575z" data-paper-data="{&quot;index&quot;:null}" fill="#ffe819" stroke-linecap="butt"/><path d="M224.88744,151.05033c0,0 2.87459,-1.05691 4.90125,-1.26607c1.60555,-0.1657 6.2923,0.1108 6.2923,0.1108" fill="none" stroke-linecap="round"/><path d="M214.72063,151.98198c0.2181,-2.82656 2.68629,-4.94113 5.51285,-4.72302c2.82656,0.2181 4.94113,2.68629 4.72302,5.51285c-0.2181,2.82656 -2.68629,4.94113 -5.51285,4.72302c-2.82656,-0.2181 -4.94113,-2.68629 -4.72302,-5.51285z" fill="#ffe819" stroke-linecap="butt"/><path d="M260.24279,213.47943c4.94728,0 6.34095,2.65869 6.34095,5.93835c0,3.27966 -4.01056,5.93835 -8.95785,5.93835c-4.94728,0 -8.95785,-0.84699 -8.95785,-4.12665c0,-1.26666 3.40667,-7.75005 11.57475,-7.75005z" data-paper-data="{&quot;index&quot;:null}" fill="#ffe819" stroke-linecap="butt"/><path d="M231.782,160.23226l8.9764,-7.06192l-9.63857,-6.55524c0,0 17.40574,-4.52698 27.20291,-0.43432c9.79715,4.09266 12.40159,16.97868 12.40159,16.97868z" data-paper-data="{&quot;index&quot;:null}" fill="#fff067" stroke-linecap="butt"/></g></g></svg>