<svg version="1.1" xmlns="http://www.w3.org/2000/svg" xmlns:xlink="http://www.w3.org/1999/xlink" width="91.79484" height="91.99809" viewBox="0,0,91.79484,91.99809"><g transform="translate(-210.0561,-135.24884)"><g data-paper-data="{&quot;isPaintingLayer&quot;:true}" fill-rule="nonzero" stroke="#000000" stroke-width="2" stroke-linejoin="miter" stroke-miterlimit="10" stroke-dasharray="" stroke-dashoffset="0" style="mix-blend-mode: normal"><g><path d="M221.60364,147.49441c0,0 2.89281,-1.00598 4.92285,-1.17933c1.60823,-0.13733 6.28936,0.22189 6.28936,0.22189" fill="#181818" stroke-linecap="round"/><path d="M211.0561,148.32387c0.26799,-2.82226 2.77311,-4.89294 5.59539,-4.62494c2.82226,0.26799 4.89294,2.77311 4.62494,5.59539c-0.26799,2.82226 -2.77312,4.89294 -5.59539,4.62494c-2.82226,-0.26799 -4.89294,-2.77311 -4.62494,-5.59538z" fill="#181818" stroke-linecap="butt"/><path d="M232.8838,159.58813c-1.23505,-9.0884 5.13134,-17.4572 14.21972,-18.69225c9.0884,-1.23505 17.45719,5.13135 18.69224,14.21973c1.23505,9.0884 -5.13135,17.4572 -14.21972,18.69225c-9.0884,1.23505 -17.45719,-5.13135 -18.69224,-14.21973z" fill="#181818" stroke-linecap="butt"/><path d="M256.07261,159.88687l-0.70624,-5.19698c0,0 5.11531,0.60352 7.57524,0.26923c2.59375,-0.35247 7.60708,-2.3324 7.60708,-2.3324l0.70623,5.19698z" fill="#ff0000" stroke-linecap="butt"/><g><path d="M233.80064,152.31766l-1.62435,-11.95304l29.36292,-3.99023l1.62434,11.95304z" fill="#343434" stroke-linecap="butt"/><path d="M273.81738,146.87964l-50.67053,6.8858" fill="none" stroke-linecap="round"/></g></g><path d="M228.5361,214.34389c4.11347,0 7.4481,2.47844 7.4481,5.53575c0,3.05731 -3.33463,5.53575 -7.4481,5.53575c-4.11347,0 -7.4481,-2.47844 -7.4481,-5.53575c0,-3.05731 3.33463,-5.53575 7.4481,-5.53575z" data-paper-data="{&quot;index&quot;:null}" fill="#181818" stroke-linecap="butt"/><path d="M262.75428,214.37023c4.94728,0 6.34095,2.65869 6.34095,5.93835c0,3.27966 -4.01056,5.93835 -8.95785,5.93835c-4.94728,0 -8.95785,-0.84699 -8.95785,-4.12665c0,-1.26666 3.40667,-7.75005 11.57475,-7.75005z" data-paper-data="{&quot;index&quot;:null}" fill="#181818" stroke-linecap="butt"/><path d="M242.30297,205.7739l1.89207,-25.49498l7.82917,0.58103l-1.89207,25.49498z" fill="#181818" stroke-linecap="butt"/><path d="M242.18262,178.48907l14.36114,1.36859l-4.04886,3.93873l3.79668,4.52098l-17.08807,-0.05696l4.67629,-4.80057z" fill="#0e0e0e" stroke-linecap="round"/><path d="M293.21023,162.11245c0.14352,-2.10744 1.96829,-3.69952 4.07572,-3.556c2.10744,0.14352 3.69952,1.96829 3.556,4.07572c-0.14352,2.10744 -1.96829,3.69952 -4.07572,3.556c-2.10744,-0.14352 -3.69952,-1.96829 -3.556,-4.07572z" fill="#181818" stroke-linecap="butt"/><path d="M223.14591,203.14333c0.14352,-2.10744 1.96829,-3.69952 4.07572,-3.556c2.10744,0.14352 3.69952,1.96829 3.556,4.07572c-0.14352,2.10744 -1.96829,3.69952 -4.07572,3.556c-2.10744,-0.14352 -3.69952,-1.96829 -3.556,-4.07572z" fill="#181818" stroke-linecap="butt"/></g></g></svg>