<svg version="1.1" xmlns="http://www.w3.org/2000/svg" xmlns:xlink="http://www.w3.org/1999/xlink" width="58.67029" height="132.14326" viewBox="0,0,58.67029,132.14326"><defs><radialGradient cx="234.11057" cy="134.73827" r="18.84183" gradientUnits="userSpaceOnUse" id="color-1"><stop offset="0" stop-color="#ffffff"/><stop offset="1" stop-color="#0debff"/></radialGradient></defs><g transform="translate(-209.3626,-92.90244)"><g data-paper-data="{&quot;isPaintingLayer&quot;:true}" fill-rule="nonzero" stroke-linejoin="miter" stroke-miterlimit="10" stroke-dasharray="" stroke-dashoffset="0" style="mix-blend-mode: normal"><g data-paper-data="{&quot;index&quot;:null}" fill="#76f4ff" stroke="#53acb4" stroke-width="1" stroke-linecap="butt"><path d="M230.49893,142.5359l16.70944,-32.08593l-1.82684,36.12998l-28.14371,74.16551z" data-paper-data="{&quot;index&quot;:null}"/><path d="M256.0945,96.33058l-8.66014,23.30117l-5.42107,-1.47306l3.78119,-24.62692z"/><path d="M243.50873,123.52945l-20.20482,-1.64629l13.81356,-8.04733l16.25236,4.46725l8.39833,14.03194z"/></g><path d="M249.38396,204.60927c-0.60692,-2.02325 0.54125,-4.15543 2.5645,-4.76235c2.02325,-0.60692 4.15543,0.54125 4.76235,2.5645c0.60692,2.02325 -0.54125,4.15543 -2.5645,4.76235c-2.02325,0.60692 -4.15543,-0.54125 -4.76235,-2.5645z" data-paper-data="{&quot;index&quot;:null}" fill="#0debff" stroke="#000000" stroke-width="2" stroke-linecap="butt"/><path d="M229.21779,156.36412c1.64358,-9.02346 10.29093,-15.00603 19.31439,-13.36245c9.02346,1.64358 15.00603,10.29093 13.36245,19.31439c-1.64358,9.02346 -10.29093,15.00603 -19.31439,13.36245c-9.02346,-1.64358 -15.00603,-10.29093 -13.36245,-19.31439z" data-paper-data="{&quot;index&quot;:null}" fill="#0debff" stroke="#000000" stroke-width="2" stroke-linecap="butt"/><path d="M239.81497,205.03747l-4.71522,-25.12649l7.71601,-1.44798l4.71522,25.12649z" data-paper-data="{&quot;index&quot;:null}" fill="#0debff" stroke="#000000" stroke-width="2" stroke-linecap="butt"/><path d="M227.56176,174.76817c-1.08554,2.48481 -3.08478,3.34301 -4.46542,1.91685c-1.38064,-1.42617 -1.61986,-4.59664 -0.53432,-7.08145c1.08554,-2.48481 3.08478,-3.343 4.46542,-1.91684c1.38065,1.42616 1.61987,4.59663 0.53433,7.08144z" data-paper-data="{&quot;index&quot;:null}" fill="#0debff" stroke="#000000" stroke-width="2" stroke-linecap="butt"/><path d="M219.97975,152.35647c0,0 2.46875,-1.81263 4.35791,-2.57562c1.49662,-0.60444 6.07623,-1.6385 6.07623,-1.6385" data-paper-data="{&quot;index&quot;:null}" fill="none" stroke="#000000" stroke-width="2" stroke-linecap="round"/><path d="M210.47005,156.07099c-0.5743,-2.77618 1.21067,-5.49229 3.98685,-6.06659c2.77618,-0.5743 5.49229,1.21067 6.06659,3.98685c0.5743,2.77618 -1.21067,5.49229 -3.98685,6.06659c-2.77618,0.5743 -5.49229,-1.21067 -6.06659,-3.98685z" data-paper-data="{&quot;index&quot;:null}" fill="#0debff" stroke="#000000" stroke-width="2" stroke-linecap="butt"/><path d="M225.3531,224.0457c-3.24315,-0.48796 -5.27555,-4.84944 -4.53949,-9.74167c0.73607,-4.89222 2.17033,-8.73214 5.41349,-8.24418c1.25257,0.18846 7.15695,4.52183 5.94168,12.59899c-0.73606,4.89222 -3.57252,5.87481 -6.81568,5.38686z" data-paper-data="{&quot;index&quot;:null}" fill="#0debff" stroke="#000000" stroke-width="2" stroke-linecap="butt"/><path d="M264.59765,154.13466c0,0 -12.80263,-2.92688 -18.9218,-3.0871c-6.11917,-0.16023 -18.74895,2.10073 -18.74895,2.10073l4.36623,-20.34359l30.00889,0.78575l3.29563,20.5442z" data-paper-data="{&quot;index&quot;:null}" fill="url(#color-1)" stroke="#000000" stroke-width="2" stroke-linecap="butt"/><path d="M258.52947,208.72518c4.22689,-2.5708 6.79917,-1.02345 8.50341,1.77865c1.70423,2.8021 -0.34078,7.15769 -4.56767,9.72849c-4.22689,2.57079 -8.0936,3.93118 -9.79783,1.12908c-0.65821,-1.08222 -1.11661,-8.39177 5.86209,-12.63621z" data-paper-data="{&quot;index&quot;:null}" fill="#0debff" stroke="#000000" stroke-width="2" stroke-linecap="butt"/></g></g></svg>