<svg version="1.1" xmlns="http://www.w3.org/2000/svg" xmlns:xlink="http://www.w3.org/1999/xlink" width="72.29304" height="87.3067" viewBox="0,0,72.29304,87.3067"><defs><radialGradient cx="219.47853" cy="193.5101" r="15.66729" gradientUnits="userSpaceOnUse" id="color-1"><stop offset="0" stop-color="#ffe819"/><stop offset="1" stop-color="#ffe819" stop-opacity="0"/></radialGradient></defs><g transform="translate(-203.81124,-139.04944)"><g data-paper-data="{&quot;isPaintingLayer&quot;:true}" fill-rule="nonzero" stroke="#000000" stroke-linejoin="miter" stroke-miterlimit="10" stroke-dasharray="" stroke-dashoffset="0" style="mix-blend-mode: normal"><path d="M212.47579,190.58859c0.36745,-2.08011 2.3516,-3.46851 4.43171,-3.10106c2.08011,0.36745 3.46851,2.3516 3.10106,4.43171c-0.36745,2.08011 -2.3516,3.46851 -4.43171,3.10106c-2.08011,-0.36745 -3.46851,-2.3516 -3.10106,-4.43171z" fill="#ffe819" stroke-width="2" stroke-linecap="butt"/><path d="M240.02387,159.71033c2.92562,-8.69282 12.34424,-13.36803 21.03704,-10.4424c8.69282,2.92562 13.36803,12.34424 10.4424,21.03704c-2.92562,8.69282 -12.34424,13.36803 -21.03704,10.4424c-8.69282,-2.92562 -13.36803,-12.34424 -10.4424,-21.03704z" fill="#ffe819" stroke-width="2" stroke-linecap="butt"/><path d="M234.19155,204.90352l4.00956,-25.24871l7.75355,1.23128l-4.00956,25.24871z" fill="#ffe819" stroke-width="2" stroke-linecap="butt"/><path d="M218.71311,196.54668c0.36745,-2.08011 2.3516,-3.46851 4.43171,-3.10106c2.08011,0.36745 3.46851,2.3516 3.10106,4.43171c-0.36745,2.08011 -2.3516,3.46851 -4.43171,3.10106c-2.08011,-0.36745 -3.46851,-2.3516 -3.10106,-4.43171z" fill="#ffe819" stroke-width="2" stroke-linecap="butt"/><path d="M229.28552,213.59446c4.11347,0 7.4481,2.47844 7.4481,5.53575c0,3.05731 -3.33463,5.53575 -7.4481,5.53575c-4.11347,0 -7.4481,-2.47844 -7.4481,-5.53575c0,-3.05731 3.33463,-5.53575 7.4481,-5.53575z" data-paper-data="{&quot;index&quot;:null}" fill="#ffe819" stroke-width="2" stroke-linecap="butt"/><path d="M227.66646,150.0629c0,0 2.704,-1.4383 4.68334,-1.92134c1.56806,-0.38267 6.24883,-0.7466 6.24883,-0.7466" fill="none" stroke-width="2" stroke-linecap="round"/><path d="M217.72104,152.36956c-0.16862,-2.82994 1.98882,-5.26075 4.81877,-5.42936c2.82994,-0.16862 5.26075,1.98882 5.42936,4.81877c0.16862,2.82994 -1.98882,5.26075 -4.81877,5.42936c-2.82994,0.16862 -5.26075,-1.98882 -5.42936,-4.81877z" fill="#ffe819" stroke-width="2" stroke-linecap="butt"/><path d="M260.24279,213.47944c4.94728,0 6.34095,2.65869 6.34095,5.93835c0,3.27966 -4.01056,5.93835 -8.95785,5.93835c-4.94728,0 -8.95785,-0.84699 -8.95785,-4.12665c0,-1.26666 3.40667,-7.75005 11.57475,-7.75005z" data-paper-data="{&quot;index&quot;:null}" fill="#ffe819" stroke-width="2" stroke-linecap="butt"/><path d="M235.74651,158.22107l7.93177,-8.21788l-10.44104,-5.18246c0,0 16.62768,-6.85373 26.89069,-4.13252c10.26299,2.72122 14.59695,15.13288 14.59695,15.13288z" data-paper-data="{&quot;index&quot;:null}" fill="#fff067" stroke-width="2" stroke-linecap="butt"/><path d="M203.81124,193.5101c0,-8.65281 7.01448,-15.66729 15.66729,-15.66729c8.65281,0 15.66729,7.01448 15.66729,15.66729c0,8.65281 -7.01448,15.66729 -15.66729,15.66729c-8.65281,0 -15.66729,-7.01448 -15.66729,-15.66729z" fill="url(#color-1)" stroke-width="0" stroke-linecap="butt"/></g></g></svg>