<svg version="1.1" xmlns="http://www.w3.org/2000/svg" xmlns:xlink="http://www.w3.org/1999/xlink" width="97.1155" height="106.74212" viewBox="0,0,97.1155,106.74212"><g transform="translate(-204.66396,-116.69866)"><g data-paper-data="{&quot;isPaintingLayer&quot;:true}" fill-rule="nonzero" stroke="#000000" stroke-width="2" stroke-linejoin="miter" stroke-miterlimit="10" stroke-dasharray="" stroke-dashoffset="0" style="mix-blend-mode: normal"><path d="M242.37151,186.59387c1.49634,-1.49093 3.91801,-1.48654 5.40894,0.00981c1.49093,1.49634 1.48654,3.91801 -0.00981,5.40894c-1.49634,1.49093 -3.91801,1.48654 -5.40894,-0.00981c-1.49093,-1.49634 -1.48654,-3.91801 0.00981,-5.40894z" fill="#1d28e8" stroke-linecap="butt"/><path d="M252.38084,156.80382c0.01663,-9.17192 7.46541,-16.59373 16.63732,-16.57711c9.17192,0.01663 16.59373,7.46541 16.57711,16.63732c-0.01663,9.17192 -7.46541,16.59373 -16.63732,16.57711c-9.17192,-0.01663 -16.59373,-7.46541 -16.57711,-16.63732z" fill="#1d28e8" stroke-linecap="butt"/><path d="M230.64939,190.61924l18.10999,-18.04445l5.54121,5.56133l-18.10999,18.04445z" fill="#1d28e8" stroke-linecap="butt"/><path d="M231.56706,182.39549c1.49634,-1.49093 3.91801,-1.48654 5.40894,0.00981c1.49093,1.49634 1.48654,3.91801 -0.00981,5.40894c-1.49634,1.49093 -3.91801,1.48654 -5.40894,-0.00981c-1.49093,-1.49634 -1.48654,-3.91801 0.00981,-5.40894z" fill="#1d28e8" stroke-linecap="butt"/><path d="M242.86414,160.3974c0,0 2.35073,-1.96326 4.18856,-2.84275c1.45596,-0.69674 5.96204,-2.01477 5.96204,-2.01477" fill="none" stroke-linecap="round"/><path d="M233.60499,164.69857c-0.74656,-2.7349 0.8653,-5.55717 3.60021,-6.30372c2.7349,-0.74656 5.55717,0.8653 6.30372,3.60021c0.74656,2.7349 -0.8653,5.55717 -3.60021,6.30372c-2.7349,0.74656 -5.55717,-0.8653 -6.30372,-3.60021z" fill="#1d28e8" stroke-linecap="butt"/><path d="M218.79419,221.21781c-4.28282,2.47649 -6.82019,0.87253 -8.46191,-1.96666c-1.64172,-2.83918 0.49931,-7.14837 4.78215,-9.62488c4.28282,-2.47649 8.17873,-3.75086 9.82044,-0.91168c0.63406,1.09654 0.93037,8.41446 -6.14068,12.50321z" data-paper-data="{&quot;index&quot;:null}" fill="#1d28e8" stroke-linecap="butt"/><path d="M252.18364,155.99837l-10.99812,-20.25013l37.10972,-17.55096l3.34817,28.30901l19.83078,-6.30879z" fill="#2530ff" stroke-linecap="round"/><path d="M212.11075,212.22237c-4.94649,0.08849 -6.38749,-2.54485 -6.44615,-5.82399c-0.05866,-3.27913 3.9037,-6.00914 8.85021,-6.09762c4.94649,-0.08849 8.97157,0.68664 9.03022,3.96577c0.02265,1.26646 -3.26751,7.80974 -11.43428,7.95583z" data-paper-data="{&quot;index&quot;:null}" fill="#1d28e8" stroke-linecap="butt"/></g></g></svg>