<svg version="1.1" xmlns="http://www.w3.org/2000/svg" xmlns:xlink="http://www.w3.org/1999/xlink" width="89.95471" height="113.62834" viewBox="0,0,89.95471,113.62834"><defs><linearGradient x1="207.31601" y1="212.38699" x2="291.09093" y2="212.38699" gradientUnits="userSpaceOnUse" id="color-1"><stop offset="0" stop-color="#5c6cff" stop-opacity="0"/><stop offset="1" stop-color="#5c6cff"/></linearGradient></defs><g transform="translate(-202.45415,-117.81978)"><g data-paper-data="{&quot;isPaintingLayer&quot;:true}" fill-rule="nonzero" stroke-linejoin="miter" stroke-miterlimit="10" stroke-dasharray="" stroke-dashoffset="0" style="mix-blend-mode: normal"><path d="M258.98668,211.23295c4.81712,-1.12734 6.77997,1.14383 7.52731,4.3372c0.74734,3.19337 -2.55187,6.69601 -7.36901,7.82335c-4.81712,1.12734 -8.91519,1.21652 -9.66253,-1.97685c-0.28864,-1.23334 1.55104,-8.32244 9.50423,-10.1837z" data-paper-data="{&quot;index&quot;:null}" fill="#1d28e8" stroke="#000000" stroke-width="2" stroke-linecap="butt"/><path d="M257.61403,172.58753c0,-2.11232 1.71238,-3.8247 3.8247,-3.8247c2.11232,0 3.8247,1.71238 3.8247,3.8247c0,2.11232 -1.71238,3.8247 -3.8247,3.8247c-2.11232,0 -3.8247,-1.71238 -3.8247,-3.8247z" fill="#1d28e8" stroke="#000000" stroke-width="2" stroke-linecap="butt"/><path d="M222.4006,157.97336c0,-9.17193 7.43532,-16.60724 16.60724,-16.60724c9.17193,0 16.60724,7.43532 16.60724,16.60724c0,9.17193 -7.43532,16.60724 -16.60724,16.60724c-9.17193,0 -16.60724,-7.43532 -16.60724,-16.60724z" fill="#1d28e8" stroke="#000000" stroke-width="2" stroke-linecap="butt"/><path d="M236.32995,204.14862l-4.00822,-25.24892l7.75361,-1.23087l4.00822,25.24892z" fill="#1d28e8" stroke="#000000" stroke-width="2" stroke-linecap="butt"/><path d="M211.90106,195.66903c0,-2.11232 1.71238,-3.8247 3.8247,-3.8247c2.11232,0 3.8247,1.71238 3.8247,3.8247c0,2.11232 -1.71238,3.8247 -3.8247,3.8247c-2.11232,0 -3.8247,-1.71238 -3.8247,-3.8247z" fill="#1d28e8" stroke="#000000" stroke-width="2" stroke-linecap="butt"/><path d="M232.61112,216.57541c4.11347,0 7.4481,2.47844 7.4481,5.53575c0,3.05731 -3.33463,5.53575 -7.4481,5.53575c-4.11347,0 -7.4481,-2.47844 -7.4481,-5.53575c0,-3.05731 3.33463,-5.53575 7.4481,-5.53575z" data-paper-data="{&quot;index&quot;:null}" fill="#1d28e8" stroke="#000000" stroke-width="2" stroke-linecap="butt"/><path d="M212.89043,161.58419c0,0 2.34717,-1.96752 4.1834,-2.85033c1.45469,-0.69937 5.95838,-2.02557 5.95838,-2.02557" fill="none" stroke="#000000" stroke-width="2" stroke-linecap="round"/><path d="M203.63909,165.90213c-0.75151,-2.73354 0.85523,-5.55873 3.58877,-6.31024c2.73354,-0.75151 5.55873,0.85523 6.31024,3.58877c0.75151,2.73354 -0.85523,5.55873 -3.58877,6.31024c-2.73354,0.75151 -5.55873,-0.85523 -6.31024,-3.58877z" fill="#1d28e8" stroke="#000000" stroke-width="2" stroke-linecap="butt"/><path d="M222.20193,157.16827l-11.0348,-20.23016l37.07784,-17.61821l3.39948,28.30289l19.81931,-6.34473z" fill="#2530ff" stroke="#000000" stroke-width="2" stroke-linecap="round"/><g fill="url(#color-1)" stroke="none" stroke-width="0" stroke-linecap="butt"><path d="M263.10298,196.77603c8.98055,-3.38597 5.69287,6.68932 9.35127,6.65136c3.65839,-0.03796 5.4439,-17.95432 17.78007,-2.96964c4.3005,5.22379 2.80873,18.1828 -9.80888,23.88912c-14.90547,6.74101 -29.16845,7.10125 -30.99706,7.10125c-11.23786,0 -42.11237,-6.37088 -42.11237,-12.50874c0,-2.64939 10.31328,1.59077 16.35352,-0.66303c7.95322,-2.96758 12.74975,-12.07556 19.1368,-12.07556c11.23786,0 6.4584,7.69174 8.10277,8.55311c6.38191,3.34306 3.21333,-14.59191 12.19388,-17.97788z"/><path d="M263.10298,196.77603c8.98055,-3.38597 5.69287,6.68932 9.35127,6.65136c3.65839,-0.03796 5.44389,-17.95432 17.78007,-2.96964c4.3005,5.22379 2.80873,18.18281 -9.80888,23.88912c-14.90548,6.74101 -29.16845,7.10125 -30.99706,7.10125c-11.23786,0 -42.11237,-6.37088 -42.11237,-12.50874c0,-2.64939 10.31328,1.59077 16.35351,-0.66303c7.95322,-2.96758 12.74975,-12.07556 19.1368,-12.07556c11.23786,0 6.4584,7.69174 8.10278,8.55311c6.38191,3.34306 3.21333,-14.59191 12.19388,-17.97788z"/><path d="M263.10298,196.77603c8.98055,-3.38597 5.69287,6.68932 9.35127,6.65136c3.65839,-0.03796 5.44389,-17.95432 17.78007,-2.96964c4.3005,5.22379 2.80873,18.18281 -9.80888,23.88912c-14.90548,6.74101 -29.16845,7.10125 -30.99706,7.10125c-11.23786,0 -42.11237,-6.37088 -42.11237,-12.50874c0,-2.64939 10.31328,1.59077 16.35351,-0.66303c7.95322,-2.96758 12.74975,-12.07556 19.1368,-12.07556c11.23786,0 6.4584,7.69174 8.10278,8.55311c6.38191,3.34306 3.21333,-14.59191 12.19388,-17.97788z"/></g></g></g></svg>