<svg version="1.1" xmlns="http://www.w3.org/2000/svg" xmlns:xlink="http://www.w3.org/1999/xlink" width="58.27731" height="85.9535" viewBox="0,0,58.27731,85.9535"><g transform="translate(-199.39982,-141.79345)"><g data-paper-data="{&quot;isPaintingLayer&quot;:true}" fill-rule="nonzero" stroke="#000000" stroke-width="2" stroke-linejoin="miter" stroke-miterlimit="10" stroke-dasharray="" stroke-dashoffset="0" style="mix-blend-mode: normal"><path d="M245.49642,204.90811l-15.62714,-20.2328l6.21322,-4.79888l15.62714,20.2328z" data-paper-data="{&quot;index&quot;:null}" fill="#ffe819" stroke-linecap="butt"/><path d="M248.28451,184.0242c0,-2.11232 1.71238,-3.8247 3.8247,-3.8247c2.11232,0 3.8247,1.71238 3.8247,3.8247c0,2.11232 -1.71238,3.8247 -3.8247,3.8247c-2.11232,0 -3.8247,-1.71238 -3.8247,-3.8247z" fill="#ffe819" stroke-linecap="butt"/><path d="M216.86988,163.53769c2.48689,-8.82834 11.6597,-13.9691 20.48804,-11.48221c8.82834,2.48689 13.9691,11.6597 11.48221,20.48804c-2.48689,8.82834 -11.6597,13.9691 -20.48804,11.48221c-8.82834,-2.48689 -13.9691,-11.6597 -11.48221,-20.48804z" fill="#ffe819" stroke-linecap="butt"/><path d="M213.84754,187.22184c0,-2.11232 1.71238,-3.8247 3.8247,-3.8247c2.11232,0 3.8247,1.71238 3.8247,3.8247c0,2.11232 -1.71238,3.8247 -3.8247,3.8247c-2.11232,0 -3.8247,-1.71238 -3.8247,-3.8247z" fill="#ffe819" stroke-linecap="butt"/><path d="M210.24857,151.04421c0,0 2.62863,-1.57183 4.58131,-2.15333c1.54694,-0.46067 6.20363,-1.05841 6.20363,-1.05841" fill="none" stroke-linecap="round"/><path d="M200.43106,153.84573c-0.31004,-2.81796 1.72303,-5.3537 4.54098,-5.66374c2.81796,-0.31004 5.3537,1.72303 5.66374,4.54098c0.31004,2.81796 -1.72303,5.3537 -4.54098,5.66374c-2.81796,0.31004 -5.3537,-1.72303 -5.66374,-4.54098z" fill="#ffe819" stroke-linecap="butt"/><path d="M212.52335,162.26438l7.51052,-8.60456l-6.00632,-8.90717c0,0 11.58282,-3.42357 21.96915,-1.21943c10.38633,2.20415 15.33605,14.38335 15.33605,14.38335z" data-paper-data="{&quot;index&quot;:null}" fill="#fff067" stroke-linecap="butt"/><path d="M244.7711,198.43543c8.1601,-0.36107 11.85002,5.96539 11.90603,7.23081c0.14497,3.27645 -3.82424,4.2999 -8.76668,4.5186c-4.94245,0.2187 -9.06661,-2.2601 -9.2116,-5.53656c-0.14498,-3.27645 1.12981,-5.99415 6.07225,-6.21284z" data-paper-data="{&quot;index&quot;:null}" fill="#ffe819" stroke-linecap="butt"/><path d="M219.52782,212.70672c7.1704,3.91189 7.05591,11.23491 6.44929,12.34685c-1.5707,2.87907 -5.49705,1.70186 -9.84006,-0.66751c-4.34302,-2.36938 -6.5904,-6.62407 -5.0197,-9.50314c1.5707,-2.87907 4.06746,-4.54557 8.41047,-2.17618z" data-paper-data="{&quot;index&quot;:null}" fill="#ffe819" stroke-linecap="butt"/></g></g></svg>