<svg version="1.1" xmlns="http://www.w3.org/2000/svg" xmlns:xlink="http://www.w3.org/1999/xlink" width="94.15183" height="82.01177" viewBox="0,0,94.15183,82.01177"><g transform="translate(-214.41485,-144.69301)"><g data-paper-data="{&quot;isPaintingLayer&quot;:true}" fill-rule="nonzero" stroke="#000000" stroke-width="2" stroke-linejoin="miter" stroke-miterlimit="10" stroke-dasharray="" stroke-dashoffset="0" style="mix-blend-mode: normal"><path d="M239.38775,205.91549l-2.55991,-25.4366l7.81124,-0.78611l2.55991,25.4366z" data-paper-data="{&quot;index&quot;:null}" fill="#181818" stroke-linecap="butt"/><path d="M235.51783,177.85078l14.32032,1.74468l-4.15074,3.83121l3.67684,4.61897l-17.0807,-0.505l4.80056,-4.6763z" data-paper-data="{&quot;index&quot;:null}" fill="#0e0e0e" stroke-linecap="round"/><path d="M220.23759,204.28401c0,-2.11232 1.71238,-3.8247 3.8247,-3.8247c2.11232,0 3.8247,1.71238 3.8247,3.8247c0,2.11232 -1.71238,3.8247 -3.8247,3.8247c-2.11232,0 -3.8247,-1.71238 -3.8247,-3.8247z" fill="#181818" stroke-linecap="butt"/><path d="M228.36861,150.63369c0,0 3.03536,-0.40861 5.05917,-0.17347c1.60329,0.18629 6.11865,1.47222 6.11865,1.47222" fill="#181818" stroke-linecap="round"/><path d="M217.86764,149.34215c0.82567,-2.71206 3.69355,-4.24131 6.40561,-3.41563c2.71206,0.82567 4.24131,3.69355 3.41563,6.40561c-0.82567,2.71206 -3.69355,4.24131 -6.40561,3.41563c-2.71206,-0.82567 -4.24131,-3.69355 -3.41563,-6.40561z" fill="#181818" stroke-linecap="butt"/><path d="M237.0092,164.73478c0.60299,-9.15209 8.51105,-16.08249 17.66313,-15.4795c9.15209,0.60299 16.08249,8.51105 15.4795,17.66313c-0.60299,9.15209 -8.51105,16.08249 -17.66313,15.4795c-9.15209,-0.60299 -16.08249,-8.51105 -15.4795,-17.66313z" fill="#181818" stroke-linecap="butt"/><path d="M264.5135,170.18779l0.34481,-5.23339l9.16972,0.60415l-0.34481,5.23339z" fill="#ff0000" stroke-linecap="butt"/><g><path d="M239.35813,157.7934l0.79306,-12.03681l29.56869,1.94816l-0.79306,12.03681z" fill="#343434" stroke-linecap="butt"/><path d="M279.6553,160.44842l-51.02563,-3.36187" fill="none" stroke-linecap="round"/></g><path d="M243.69223,214.03457c4.11347,0 7.4481,2.47844 7.4481,5.53575c0,3.05731 -3.33463,5.53575 -7.4481,5.53575c-4.11347,0 -7.4481,-2.47844 -7.4481,-5.53575c0,-3.05731 3.33463,-5.53575 7.4481,-5.53575z" data-paper-data="{&quot;index&quot;:null}" fill="#181818" stroke-linecap="butt"/><path d="M244.53827,204.05565c0,-2.11232 1.71238,-3.8247 3.8247,-3.8247c2.11232,0 3.8247,1.71238 3.8247,3.8247c0,2.11232 -1.71238,3.8247 -3.8247,3.8247c-2.11232,0 -3.8247,-1.71238 -3.8247,-3.8247z" fill="#181818" stroke-linecap="butt"/><path d="M306.94629,209.28646c0,0 -6.73552,16.12225 -44.59915,16.41468c-41.92989,0.32383 -46.47181,-21.06385 -46.47181,-21.06385c0,0 20.711,12.64497 47.84129,10.35478c18.33704,-1.54791 43.22968,-5.70561 43.22968,-5.70561z" data-paper-data="{&quot;index&quot;:null}" fill="#181818" stroke-linecap="butt"/></g></g></svg>