<svg version="1.1" xmlns="http://www.w3.org/2000/svg" xmlns:xlink="http://www.w3.org/1999/xlink" width="305.53591" height="76.19973" viewBox="0,0,305.53591,76.19973"><g transform="translate(-109.54636,-158.18071)"><g data-paper-data="{&quot;isPaintingLayer&quot;:true}" fill-rule="nonzero" stroke-linejoin="miter" stroke-miterlimit="10" stroke-dasharray="" stroke-dashoffset="0" style="mix-blend-mode: normal"><path d="M217.06508,164.51925c-1.23399,-1.7144 -0.84454,-4.10455 0.86986,-5.33854c1.7144,-1.23399 4.10455,-0.84454 5.33854,0.86986c1.23399,1.7144 0.84454,4.10455 -0.86986,5.33854c-1.7144,1.23399 -4.10455,0.84454 -5.33854,-0.86986z" data-paper-data="{&quot;index&quot;:null}" fill="#ffe819" stroke="#000000" stroke-width="2" stroke-linecap="butt"/><path d="M266.25284,196.42924c8.33943,3.81813 12.00467,13.67379 8.18654,22.01321c-3.81813,8.33943 -13.67379,12.00467 -22.01321,8.18654c-8.33943,-3.81813 -12.00467,-13.67379 -8.18654,-22.01321c3.81813,-8.33943 13.67379,-12.00467 22.01321,-8.18654z" data-paper-data="{&quot;index&quot;:null}" fill="#ffe819" stroke="#000000" stroke-width="2" stroke-linecap="butt"/><path d="M228.97737,174.67684l18.9381,17.17329l-5.27368,5.81564l-18.9381,-17.17329z" data-paper-data="{&quot;index&quot;:null}" fill="#ffe819" stroke="#000000" stroke-width="2" stroke-linecap="butt"/><path d="M230.18244,229.4306c-1.23399,-1.7144 -0.84454,-4.10455 0.86986,-5.33854c1.7144,-1.23399 4.10455,-0.84454 5.33854,0.86986c1.23399,1.7144 0.84454,4.10455 -0.86986,5.33854c-1.7144,1.23399 -4.10455,0.84454 -5.33854,-0.86986z" data-paper-data="{&quot;index&quot;:null}" fill="#ffe819" stroke="#000000" stroke-width="2" stroke-linecap="butt"/><path d="M276.77287,185.62041c0,0 1.42322,2.71198 1.89522,4.69397c0.37393,1.57016 0.71176,6.25289 0.71176,6.25289" data-paper-data="{&quot;index&quot;:null}" fill="none" stroke="#000000" stroke-width="2" stroke-linecap="round"/><path d="M274.52165,175.6623c2.83084,-0.15285 5.24959,2.01809 5.40244,4.84893c0.15285,2.83084 -2.01809,5.24959 -4.84893,5.40244c-2.83084,0.15285 -5.24959,-2.01809 -5.40244,-4.84893c-0.15285,-2.83084 2.01809,-5.24959 4.84893,-5.40244z" data-paper-data="{&quot;index&quot;:null}" fill="#ffe819" stroke="#000000" stroke-width="2" stroke-linecap="butt"/><path d="M195.92592,177.11316c-4.51189,-2.02941 -4.69228,-5.02581 -3.34696,-8.01683c1.34534,-2.99103 6.09354,-3.77057 10.60544,-1.74117c4.51189,2.02941 7.82205,4.44701 6.47671,7.43804c-0.51959,1.15519 -6.28597,5.67055 -13.73521,2.31995z" data-paper-data="{&quot;index&quot;:null}" fill="#ffe819" stroke="#000000" stroke-width="2" stroke-linecap="butt"/><path d="M268.18097,192.33096l7.34388,8.74721l6.24531,-9.8422c0,0 5.07836,17.25294 1.29941,27.17532c-3.77895,9.92238 -16.57561,12.9354 -16.57561,12.9354z" data-paper-data="{&quot;index&quot;:null}" fill="#fff067" stroke="#000000" stroke-width="2" stroke-linecap="butt"/><path d="M209.70611,197.6637c-4.49861,2.05865 -6.87221,0.221 -8.23694,-2.76122c-1.36473,-2.98223 1.17579,-7.06867 5.67441,-9.12732c4.49861,-2.05865 8.49793,-2.95734 9.86264,0.02489c0.52707,1.15178 0.12721,8.46478 -7.30012,11.86366z" data-paper-data="{&quot;index&quot;:null}" fill="#ffe819" stroke="#000000" stroke-width="2" stroke-linecap="butt"/><path d="M135.43929,233.7925l-10.65585,-6.45207l1.34552,3.73598l-16.5826,-9.85278l12.30827,3.44818l-1.58307,-2.76663l10.70944,3.4523l-1.58972,-4.17546l8.58968,3.78603l-1.11505,-3.59302l13.53484,1.75259l-1.36425,8.45212l-7.92211,-3.18066l1.10606,5.14791l-7.83345,-4.81042l1.05225,5.05595" data-paper-data="{&quot;index&quot;:null}" fill="#fff200" stroke="none" stroke-width="0.66342" stroke-linecap="butt"/><path d="M389.18934,234.38042l1.05225,-5.05595l-7.83345,4.81042l1.10607,-5.14791l-7.9221,3.18067l-1.36425,-8.45212l13.53485,-1.75259l-1.11505,3.59302l8.58969,-3.78602l-1.58972,4.17547l10.70944,-3.4523l-1.58307,2.76663l12.30827,-3.44818l-16.5826,9.85279l1.34553,-3.73598l-10.65584,6.45207" data-paper-data="{&quot;index&quot;:null}" fill="#fff200" stroke="none" stroke-width="0.66342" stroke-linecap="butt"/></g></g></svg>