<svg version="1.1" xmlns="http://www.w3.org/2000/svg" xmlns:xlink="http://www.w3.org/1999/xlink" width="108.02974" height="93.01696" viewBox="0,0,108.02974,93.01696"><g transform="translate(-217.15248,-133.92467)"><g data-paper-data="{&quot;isPaintingLayer&quot;:true}" fill-rule="nonzero" stroke="#000000" stroke-width="2" stroke-linejoin="miter" stroke-miterlimit="10" stroke-dasharray="" stroke-dashoffset="0" style="mix-blend-mode: normal"><path d="M245.98736,208.93077c0,-2.11232 1.71238,-3.8247 3.8247,-3.8247c2.11232,0 3.8247,1.71238 3.8247,3.8247c0,2.11232 -1.71238,3.8247 -3.8247,3.8247c-2.11232,0 -3.8247,-1.71238 -3.8247,-3.8247z" fill="#181818" stroke-linecap="butt"/><path d="M248.24319,203.52482l0.91093,-25.54885l7.84571,0.27975l-0.91093,25.54885z" fill="#181818" stroke-linecap="butt"/><path d="M268.42364,213.94127c4.94728,0 6.34095,2.65869 6.34095,5.93835c0,3.27966 -4.01056,5.93835 -8.95785,5.93835c-4.94728,0 -8.95785,-0.84699 -8.95785,-4.12665c0,-1.26666 3.40667,-7.75005 11.57475,-7.75005z" data-paper-data="{&quot;index&quot;:null}" fill="#181818" stroke-linecap="butt"/><path d="M245.24287,174.45468l15.26023,3.3374l-3.47914,5.31345l4.82609,6.89744l-17.85874,-1.69835l3.97042,-6.50053z" fill="#0e0e0e" stroke-linecap="round"/><path d="M298.75808,176.33664c9.09464,-9.34963 -20.4389,-27.41645 -18.65265,-28.77058c2.09148,-1.58552 56.64735,9.79946 41.38679,30.08538c-14.06193,17.84028 -97.67877,18.14181 -97.67877,18.14181c0,0 65.84999,-10.10697 74.94463,-19.45661z" data-paper-data="{&quot;index&quot;:null}" fill="#181818" stroke-linecap="butt"/><path d="M230.88299,215.44171c4.11978,2.73915 3.80832,5.72477 1.99248,8.45586c-1.81584,2.7311 -6.62762,2.72457 -10.74741,-0.01458c-4.11978,-2.73915 -5.68276,-10.02932 -1.54169,-14.02204c4.14107,-3.99271 3.49476,1.05836 10.29662,5.58076z" data-paper-data="{&quot;index&quot;:null}" fill="#181818" stroke-linecap="butt"/><path d="M262.61124,160.81735l-0.12567,-5.24323l18.23995,-0.43716l0.12567,5.24323z" fill="#ff0000" stroke-linecap="butt"/><path d="M243.99347,159.29144c0.85342,-9.13214 8.94832,-15.84336 18.08045,-14.98993c9.13214,0.85342 15.84336,8.94832 14.98993,18.08045c-0.85342,9.13214 -8.94832,15.84336 -18.08045,14.98993c-9.13214,-0.85342 -15.84336,-8.94832 -14.98993,-18.08045z" fill="#181818" stroke-linecap="butt"/><g><g><path d="M242.42531,161.12807l-3.39373,-15.02574c0,0 12.03766,-0.25677 17.65679,-1.52592c5.90058,-1.33272 16.94365,-6.28898 16.94365,-6.28898l3.39373,15.02574c0,0 -11.35561,4.3234 -17.09482,5.61968c-5.79375,1.30858 -17.50561,2.19523 -17.50561,2.19523z" fill="#343434" stroke-linecap="butt"/><path d="M289.35315,149.47373c0,0 -18.47139,7.33748 -28.33815,9.56599c-10.03336,2.26614 -31.37057,3.91988 -31.37057,3.91988" fill="none" stroke-linecap="round"/></g><path d="M273.64141,136.72863c0.52181,2.31028 -6.88148,5.9508 -16.53571,8.13132c-9.65422,2.18052 -17.9035,2.07531 -18.42532,-0.23498c-0.52181,-2.31028 6.88148,-5.9508 16.5357,-8.13132c9.65422,-2.18052 17.90351,-2.07531 18.42532,0.23498z" fill="#252525" stroke-linecap="butt"/></g><path d="M234.24146,156.47187c0,0 2.8648,-1.08319 4.88945,-1.31091c1.60397,-0.1804 6.29304,0.05317 6.29304,0.05317" fill="#181818" stroke-linecap="round"/><path d="M223.71995,157.58386c0.19221,-2.82843 2.64092,-4.96554 5.46936,-4.77332c2.82843,0.19221 4.96554,2.64092 4.77332,5.46936c-0.19221,2.82843 -2.64092,4.96554 -5.46936,4.77332c-2.82843,-0.19221 -4.96554,-2.64092 -4.77332,-5.46936z" fill="#181818" stroke-linecap="butt"/></g></g></svg>