<svg version="1.1" xmlns="http://www.w3.org/2000/svg" xmlns:xlink="http://www.w3.org/1999/xlink" width="53.281" height="77.40949" viewBox="0,0,53.281,77.40949"><g transform="translate(-210.13596,-148.41443)"><g data-paper-data="{&quot;isPaintingLayer&quot;:true}" fill-rule="nonzero" stroke="#000000" stroke-width="2" stroke-linejoin="miter" stroke-miterlimit="10" stroke-dasharray="" stroke-dashoffset="0" style="mix-blend-mode: normal"><path d="M220.93599,160.04643c0,0 2.59452,-1.62752 4.53435,-2.25053c1.53676,-0.49356 6.17965,-1.19045 6.17965,-1.19045" fill="none" stroke-linecap="round"/><path d="M211.18046,163.05668c-0.37006,-2.81071 1.60847,-5.38923 4.41918,-5.75928c2.81071,-0.37006 5.38923,1.60847 5.75928,4.41918c0.37006,2.81071 -1.60847,5.38923 -4.41918,5.75928c-2.81071,0.37006 -5.38923,-1.60847 -5.75928,-4.41918z" fill="#e80000" stroke-linecap="butt"/><path d="M229.69048,161.88629c2.28612,-8.88245 11.34004,-14.22983 20.22248,-11.94371c8.88245,2.28612 14.22983,11.34004 11.94371,20.22248c-2.28612,8.88245 -11.34004,14.22983 -20.22248,11.94371c-8.88245,-2.28612 -14.22983,-11.34004 -11.94371,-20.22248z" fill="#e80000" stroke-linecap="butt"/><path d="M231.11603,206.39979l4.99411,-25.07255l7.69944,1.53363l-4.99411,25.07255z" fill="#e80000" stroke-linecap="butt"/><path d="M221.09244,185.39387c0,-2.11232 1.71238,-3.8247 3.8247,-3.8247c2.11232,0 3.8247,1.71238 3.8247,3.8247c0,2.11232 -1.71238,3.8247 -3.8247,3.8247c-2.11232,0 -3.8247,-1.71238 -3.8247,-3.8247z" fill="#e80000" stroke-linecap="butt"/><path d="M249.72839,197.61952c0,-2.11232 1.71238,-3.8247 3.8247,-3.8247c2.11232,0 3.8247,1.71238 3.8247,3.8247c0,2.11232 -1.71238,3.8247 -3.8247,3.8247c-2.11232,0 -3.8247,-1.71238 -3.8247,-3.8247z" fill="#e80000" stroke-linecap="butt"/><path d="M229.494,213.75242c4.11347,0 7.4481,2.47844 7.4481,5.53575c0,3.05731 -3.33463,5.53575 -7.4481,5.53575c-4.11347,0 -7.4481,-2.47844 -7.4481,-5.53575c0,-3.05731 3.33463,-5.53575 7.4481,-5.53575z" data-paper-data="{&quot;index&quot;:null}" fill="#e80000" stroke-linecap="butt"/><path d="M252.60397,209.15576c4.22984,-2.56593 6.80035,-1.01563 8.50136,1.78843c1.70101,2.80406 -0.34901,7.15729 -4.57886,9.72323c-4.22984,2.56593 -8.09811,3.92187 -9.79912,1.11782c-0.65696,-1.08297 -1.10696,-8.39305 5.87662,-12.62947z" data-paper-data="{&quot;index&quot;:null}" fill="#e80000" stroke-linecap="butt"/><path d="M229.01683,160.18776l0.00012,-5.6l33.39999,0.00069l-0.00011,5.6z" fill="#ff2121" stroke-linecap="butt"/></g></g></svg>