<svg version="1.1" xmlns="http://www.w3.org/2000/svg" xmlns:xlink="http://www.w3.org/1999/xlink" width="101.30984" height="82.06207" viewBox="0,0,101.30984,82.06207"><g transform="translate(-205.70464,-144.08055)"><g data-paper-data="{&quot;isPaintingLayer&quot;:true}" fill-rule="nonzero" stroke="#000000" stroke-width="2" stroke-linejoin="miter" stroke-miterlimit="10" stroke-dasharray="" stroke-dashoffset="0" style="mix-blend-mode: normal"><path d="M233.70598,150.72174c0,0 3.00193,-0.60728 5.03682,-0.5057c1.61207,0.08048 6.2022,1.06677 6.2022,1.06677" fill="#181818" stroke-linecap="round"/><path d="M223.14281,150.12336c0.64558,-2.76047 3.40672,-4.47496 6.1672,-3.82937c2.76047,0.64558 4.47496,3.40672 3.82937,6.1672c-0.64558,2.76047 -3.40672,4.47496 -6.1672,3.82937c-2.76047,-0.64558 -4.47496,-3.40672 -3.82937,-6.1672z" fill="#181818" stroke-linecap="butt"/><path d="M243.25492,164.22425c0,-9.17193 7.43532,-16.60724 16.60724,-16.60724c9.17193,0 16.60724,7.43532 16.60724,16.60724c0,9.17193 -7.43532,16.60724 -16.60724,16.60724c-9.17193,0 -16.60724,-7.43532 -16.60724,-16.60724z" fill="#181818" stroke-linecap="butt"/><path d="M258.68588,167.85725v-5.24474h19.39678v5.24474z" fill="#ff0000" stroke-linecap="butt"/><g><path d="M245.14242,157.14346v-12.06291h29.6328v12.06291z" fill="#343434" stroke-linecap="butt"/><path d="M234.3907,157.14346h51.13626" fill="none" stroke-linecap="round"/></g><path d="M231.39725,207.95973c-2.05728,0.47905 -4.11339,-0.80036 -4.59244,-2.85764c-0.47905,-2.05728 0.80036,-4.11339 2.85764,-4.59244c2.05728,-0.47905 4.11339,0.80036 4.59244,2.85764c0.47905,2.05728 -0.80036,4.11339 -2.85764,4.59244z" data-paper-data="{&quot;index&quot;:null}" fill="#181818" stroke-linecap="butt"/><path d="M233.41987,203.90276l14.85737,-20.80462l6.38882,4.5625l-14.85737,20.80462z" data-paper-data="{&quot;index&quot;:null}" fill="#181818" stroke-linecap="butt"/><path d="M223.79013,222.50029c-0.78031,3.18548 -4.87722,3.05394 -9.68244,1.87687c-4.80522,-1.17707 -8.06804,-4.71361 -7.28775,-7.89909c0.78031,-3.18548 2.76651,-5.43624 7.57173,-4.25917c7.93352,1.94337 9.69982,9.05111 9.39845,10.2814z" data-paper-data="{&quot;index&quot;:null}" fill="#181818" stroke-linecap="butt"/><path d="M252.87321,190.30699l0.52258,6.68131l-13.16943,-10.88905l5.81042,-1.04548l-0.59177,-5.61754l11.91283,8.13635z" data-paper-data="{&quot;index&quot;:null}" fill="#0e0e0e" stroke-linecap="round"/><path d="M253.5901,213.72525c4.11347,0 7.4481,2.47844 7.4481,5.53575c0,3.05731 -3.33463,5.53575 -7.4481,5.53575c-4.11347,0 -7.4481,-2.47844 -7.4481,-5.53575c0,-3.05731 3.33463,-5.53575 7.4481,-5.53575z" data-paper-data="{&quot;index&quot;:null}" fill="#181818" stroke-linecap="butt"/><path d="M303.15684,176.41025c-2.05728,0.47905 -4.11339,-0.80036 -4.59244,-2.85764c-0.47905,-2.05728 0.80036,-4.11339 2.85764,-4.59244c2.05728,-0.47905 4.11339,0.80036 4.59244,2.85764c0.47905,2.05728 -0.80036,4.11339 -2.85764,4.59244z" data-paper-data="{&quot;index&quot;:null}" fill="#181818" stroke-linecap="butt"/></g></g></svg>