<svg version="1.1" xmlns="http://www.w3.org/2000/svg" xmlns:xlink="http://www.w3.org/1999/xlink" width="113.55832" height="74.38672" viewBox="0,0,113.55832,74.38672"><g transform="translate(-161.87497,-152.69828)"><g data-paper-data="{&quot;isPaintingLayer&quot;:true}" fill-rule="nonzero" stroke-linejoin="miter" stroke-miterlimit="10" stroke-dasharray="" stroke-dashoffset="0" style="mix-blend-mode: normal"><path d="M242.96984,190.36811c0,-2.11232 1.71238,-3.8247 3.8247,-3.8247c2.11232,0 3.8247,1.71238 3.8247,3.8247c0,2.11232 -1.71238,3.8247 -3.8247,3.8247c-2.11232,0 -3.8247,-1.71238 -3.8247,-3.8247z" fill="#2d6a2b" stroke="#000000" stroke-width="2" stroke-linecap="butt"/><path d="M232.15828,207.25092l9.90706,-23.56743l7.23725,3.04232l-9.90706,23.56743z" fill="#2d6a2b" stroke="#000000" stroke-width="2" stroke-linecap="butt"/><path d="M228.01302,193.95358c-0.49264,-2.05407 0.77315,-4.11859 2.82721,-4.61124c2.05407,-0.49264 4.11859,0.77315 4.61124,2.82721c0.49264,2.05407 -0.77315,4.11859 -2.82721,4.61124c-2.05407,0.49264 -4.11859,-0.77315 -4.61124,-2.82721z" fill="#2d6a2b" stroke="#000000" stroke-width="2" stroke-linecap="butt"/><path d="M256.65742,214.2083c4.94728,0 6.34095,2.65869 6.34095,5.93835c0,3.27966 -4.01057,5.93835 -8.95785,5.93835c-4.94728,0 -8.95785,-0.84699 -8.95785,-4.12665c0,-1.26666 3.40667,-7.75005 11.57475,-7.75005z" data-paper-data="{&quot;index&quot;:null}" fill="#2d6a2b" stroke="#000000" stroke-width="2" stroke-linecap="butt"/><path d="M220.59047,214.6109c4.11347,0 7.4481,2.47844 7.4481,5.53575c0,3.05731 -3.33463,5.53575 -7.4481,5.53575c-4.11347,0 -7.4481,-2.47844 -7.4481,-5.53575c0,-3.05731 3.33463,-5.53575 7.4481,-5.53575z" data-paper-data="{&quot;index&quot;:null}" fill="#2d6a2b" stroke="#000000" stroke-width="2" stroke-linecap="butt"/><path d="M238.16675,172.02285c0.94966,-9.12263 9.11487,-15.74813 18.2375,-14.79846c9.12263,0.94966 15.74813,9.11487 14.79846,18.2375c-0.94966,9.12263 -9.11487,15.74813 -18.2375,14.79846c-9.12263,-0.94966 -15.74813,-9.11487 -14.79846,-18.2375z" fill="#2d6a2b" stroke="#000000" stroke-width="2" stroke-linecap="butt"/><path d="M248.95442,154.6652c15.33755,-3.98773 24.63481,5.64801 24.63481,5.64801l-39.1202,12.23544c0,0 -2.00498,-13.59598 14.48539,-17.88345z" fill="#367e33" stroke="#000000" stroke-width="2" stroke-linecap="round"/><path d="M229.58723,159.27384c0,0 2.90181,-0.97973 4.93333,-1.13469c1.6094,-0.12275 6.28709,0.27886 6.28709,0.27886" fill="none" stroke="#000000" stroke-width="2" stroke-linecap="round"/><path d="M219.39917,159.93356c0.29353,-2.81972 2.81733,-4.86761 5.63705,-4.57407c2.81972,0.29353 4.86761,2.81733 4.57407,5.63705c-0.29353,2.81972 -2.81733,4.86761 -5.63705,4.57407c-2.81972,-0.29353 -4.86761,-2.81733 -4.57407,-5.63705z" fill="#2d6a2b" stroke="#000000" stroke-width="2" stroke-linecap="butt"/><g stroke="#61ff00" stroke-width="3" stroke-linecap="round"><path d="M229.57215,191.70549c0,0 -26.07606,0.49533 -37.64109,0.04073c-10.37014,-0.40763 -28.55609,-2.64287 -28.55609,-2.64287" fill="none"/><path d="M206.10246,191.02033c0,0 -11.33927,-4.03769 -12.34928,-8.61704c-1.00999,-4.57935 3.31495,-5.19096 3.31495,-5.19096z" fill="#61ff00"/><path d="M175.36387,201.09914c0,0 -3.35785,-2.79358 -0.09163,-6.15844c3.26622,-3.36486 15.03506,-0.83966 15.03506,-0.83966z" data-paper-data="{&quot;index&quot;:null}" fill="#61ff00"/><path d="M208.20781,199.22881c0,0 -2.81629,-2.3783 -0.03909,-5.1976c2.77721,-2.8193 12.69309,-0.61525 12.69309,-0.61525z" data-paper-data="{&quot;index&quot;:null}" fill="#61ff00"/></g></g></g></svg>