<svg version="1.1" xmlns="http://www.w3.org/2000/svg" xmlns:xlink="http://www.w3.org/1999/xlink" width="87.4682" height="107.48928" viewBox="0,0,87.4682,107.48928"><g transform="translate(-213.03754,-119.67106)"><g data-paper-data="{&quot;isPaintingLayer&quot;:true}" fill-rule="nonzero" stroke="#000000" stroke-width="2" stroke-linejoin="miter" stroke-miterlimit="10" stroke-dasharray="" stroke-dashoffset="0" style="mix-blend-mode: normal"><path d="M236.38442,205.81963l2.50917,-25.44166l7.8128,0.77053l-2.50917,25.44166z" data-paper-data="{&quot;index&quot;:null}" fill="#1d28e8" stroke-linecap="butt"/><path d="M232.98399,159.82464c0,-9.17193 7.43532,-16.60724 16.60724,-16.60724c9.17193,0 16.60724,7.43532 16.60724,16.60724c0,9.17193 -7.43532,16.60724 -16.60724,16.60724c-9.17193,0 -16.60724,-7.43532 -16.60724,-16.60724z" fill="#1d28e8" stroke-linecap="butt"/><path d="M240.25979,182.85816c0,-2.11232 52.36159,-4.18673 54.81096,-4.18673c2.44938,0 4.43499,1.71238 4.43499,3.8247c0,2.11232 -1.98562,3.8247 -4.43499,3.8247c-2.44938,0 -54.81096,-1.35035 -54.81096,-3.46267z" fill="#1d28e8" stroke-linecap="butt"/><path d="M228.47212,186.18979c0,-2.11232 62.85658,-3.10064 65.30596,-3.10064c2.44938,0 4.43499,1.71238 4.43499,3.8247c0,2.11232 -1.98562,3.8247 -4.43499,3.8247c-2.44938,0 -65.30596,-2.43644 -65.30596,-4.54876z" fill="#1d28e8" stroke-linecap="butt"/><path d="M229.28716,214.68624c4.11347,0 7.4481,2.47844 7.4481,5.53575c0,3.05731 -3.33463,5.53575 -7.4481,5.53575c-4.11347,0 -7.4481,-2.47844 -7.4481,-5.53575c0,-3.05731 3.33463,-5.53575 7.4481,-5.53575z" data-paper-data="{&quot;index&quot;:null}" fill="#1d28e8" stroke-linecap="butt"/><path d="M223.47382,163.43547c0,0 2.34717,-1.96752 4.1834,-2.85033c1.45469,-0.69937 5.95838,-2.02557 5.95838,-2.02557" fill="none" stroke-linecap="round"/><path d="M214.22248,167.75341c-0.75151,-2.73354 0.85523,-5.55873 3.58877,-6.31024c2.73354,-0.75151 5.55873,0.85523 6.31024,3.58877c0.75151,2.73354 -0.85523,5.55873 -3.58877,6.31024c-2.73354,0.75151 -5.55873,-0.85523 -6.31024,-3.58877z" fill="#1d28e8" stroke-linecap="butt"/><path d="M255.3555,214.28364c4.94728,0 6.34095,2.65869 6.34095,5.93835c0,3.27966 -4.01056,5.93835 -8.95785,5.93835c-4.94728,0 -8.95785,-0.84699 -8.95785,-4.12665c0,-1.26666 3.40667,-7.75005 11.57475,-7.75005z" data-paper-data="{&quot;index&quot;:null}" fill="#1d28e8" stroke-linecap="butt"/><path d="M232.78532,159.01955l-11.03481,-20.23016l37.07784,-17.61821l3.39948,28.30289l19.81931,-6.34473z" fill="#2530ff" stroke-linecap="round"/></g></g></svg>