<svg version="1.1" xmlns="http://www.w3.org/2000/svg" xmlns:xlink="http://www.w3.org/1999/xlink" width="71.90826" height="87.08902" viewBox="0,0,71.90826,87.08902"><g transform="translate(-213.76742,-140.00049)"><g data-paper-data="{&quot;isPaintingLayer&quot;:true}" fill-rule="nonzero" stroke="#000000" stroke-width="2" stroke-linejoin="miter" stroke-miterlimit="10" stroke-dasharray="" stroke-dashoffset="0" style="mix-blend-mode: normal"><path d="M237.55157,215.67062l7.3736,-24.47863l7.51706,2.26432l-7.37361,24.47863z" data-paper-data="{&quot;index&quot;:null}" fill="#ff6b00" stroke-linecap="butt"/><path d="M277.02628,178.92087c0,-2.11232 1.71238,-3.8247 3.8247,-3.8247c2.11232,0 3.8247,1.71238 3.8247,3.8247c0,2.11232 -1.71238,3.8247 -3.8247,3.8247c-2.11232,0 -3.8247,-1.71238 -3.8247,-3.8247z" fill="#ff6b00" stroke-linecap="butt"/><path d="M242.52464,194.51903c0,-9.17193 7.43532,-16.60724 16.60724,-16.60724c9.17193,0 16.60724,7.43532 16.60724,16.60724c0,9.17193 -7.43532,16.60724 -16.60724,16.60724c-9.17193,0 -16.60724,-7.43532 -16.60724,-16.60724z" fill="#ff6b00" stroke-linecap="butt"/><path d="M216.22464,186.02851c0,-2.11232 1.71238,-3.8247 3.8247,-3.8247c2.11232,0 3.8247,1.71238 3.8247,3.8247c0,2.11232 -1.71238,3.8247 -3.8247,3.8247c-2.11232,0 -3.8247,-1.71238 -3.8247,-3.8247z" fill="#ff6b00" stroke-linecap="butt"/><path d="M223.5948,215.01801c4.11347,0 7.4481,2.47844 7.4481,5.53575c0,3.05731 -3.33463,5.53575 -7.4481,5.53575c-4.11347,0 -7.4481,-2.47844 -7.4481,-5.53575c0,-3.05731 3.33463,-5.53575 7.4481,-5.53575z" data-paper-data="{&quot;index&quot;:null}" fill="#ff6b00" stroke-linecap="butt"/><path d="M232.02055,188.46807c0,0 2.73841,-1.37169 4.72896,-1.80614c1.57696,-0.34418 6.26523,-0.59344 6.26523,-0.59344" fill="none" stroke-linecap="round"/><path d="M226.11509,189.81873c-0.0993,-2.83322 2.11697,-5.21051 4.9502,-5.30981c2.83322,-0.0993 5.2105,2.11697 5.3098,4.95019c0.0993,2.83322 -2.11697,5.21051 -4.9502,5.30981c-2.83322,0.0993 -5.2105,-2.11697 -5.3098,-4.95019z" fill="#ff6b00" stroke-linecap="butt"/><path d="M269.70352,212.33296c4.76047,-1.34666 6.82522,0.83229 7.71794,3.98811c0.89273,3.15582 -2.2427,6.8058 -7.00318,8.15246c-4.76047,1.34666 -8.85015,1.62333 -9.74288,-1.53249c-0.34478,-1.21883 1.16846,-8.38471 9.02812,-10.60807z" data-paper-data="{&quot;index&quot;:null}" fill="#ff6b00" stroke-linecap="butt"/><path d="M237.96384,197.87473l4.22817,-12.18351l-26.62972,-21.39582l41.5955,-22.71252l4.14025,33.37304l12.53391,2.91357z" data-paper-data="{&quot;index&quot;:null}" fill="#ffa340" stroke-linecap="butt"/></g></g></svg>