<svg version="1.1" xmlns="http://www.w3.org/2000/svg" xmlns:xlink="http://www.w3.org/1999/xlink" width="73.91211" height="113.36282" viewBox="0,0,73.91211,113.36282"><g transform="translate(-195.22048,-113.7267)"><g data-paper-data="{&quot;isPaintingLayer&quot;:true}" fill-rule="nonzero" stroke="#000000" stroke-width="2" stroke-linejoin="miter" stroke-miterlimit="10" stroke-dasharray="" stroke-dashoffset="0" style="mix-blend-mode: normal"><path d="M240.6534,192.93153c0,-2.11232 1.71238,-3.8247 3.8247,-3.8247c2.11232,0 3.8247,1.71238 3.8247,3.8247c0,2.11232 -1.71238,3.8247 -3.8247,3.8247c-2.11232,0 -3.8247,-1.71238 -3.8247,-3.8247z" fill="#ff6b00" stroke-linecap="butt"/><path d="M223.97769,168.24524c0,-9.17193 7.43532,-16.60724 16.60724,-16.60724c9.17193,0 16.60724,7.43532 16.60724,16.60724c0,9.17193 -7.43532,16.60724 -16.60724,16.60724c-9.17193,0 -16.60724,-7.43532 -16.60724,-16.60724z" fill="#ff6b00" stroke-linecap="butt"/><path d="M235.63258,211.73629l-3.92669,-25.26173l7.75754,-1.20581l3.92669,25.26172z" data-paper-data="{&quot;index&quot;:null}" fill="#ff6b00" stroke-linecap="butt"/><path d="M234.34345,203.07843c-2.05704,-0.48007 -3.33544,-2.53682 -2.85536,-4.59386c0.48007,-2.05704 2.53682,-3.33544 4.59386,-2.85536c2.05704,0.48007 3.33544,2.53682 2.85536,4.59386c-0.48007,2.05704 -2.53682,3.33544 -4.59386,2.85536z" data-paper-data="{&quot;index&quot;:null}" fill="#ff6b00" stroke-linecap="butt"/><path d="M228.66912,215.01802c4.11347,0 7.4481,2.47844 7.4481,5.53575c0,3.05731 -3.33463,5.53575 -7.4481,5.53575c-4.11347,0 -7.4481,-2.47844 -7.4481,-5.53575c0,-3.05731 3.33463,-5.53575 7.4481,-5.53575z" data-paper-data="{&quot;index&quot;:null}" fill="#ff6b00" stroke-linecap="butt"/><path d="M215.90989,167.41829c0,0 1.61685,-2.6012 3.08636,-4.01243c1.16418,-1.11801 5.02999,-3.78212 5.02999,-3.78212" fill="none" stroke-linecap="round"/><path d="M208.46567,174.4051c-1.56622,-2.36304 -0.92029,-5.54834 1.44275,-7.11456c2.36304,-1.56622 5.54833,-0.92029 7.11455,1.44275c1.56622,2.36304 0.92029,5.54834 -1.44275,7.11456c-2.36304,1.56622 -5.54833,0.92029 -7.11455,-1.44275z" fill="#ff6b00" stroke-linecap="butt"/><path d="M261.01428,213.74182c4.89738,-0.7009 6.65366,1.73353 7.1183,4.98011c0.46464,3.24658 -3.1288,6.44664 -8.02619,7.14755c-4.89738,0.7009 -8.98749,0.43065 -9.45213,-2.81593c-0.17945,-1.25388 2.27433,-8.15451 10.36002,-9.31172z" data-paper-data="{&quot;index&quot;:null}" fill="#ff6b00" stroke-linecap="butt"/><path d="M219.41689,171.60094l4.22817,-12.18351l-26.62972,-21.39582l41.5955,-22.71252l4.14025,33.37304l12.53391,2.91357z" data-paper-data="{&quot;index&quot;:null}" fill="#ffa340" stroke-linecap="butt"/></g></g></svg>