<svg version="1.1" xmlns="http://www.w3.org/2000/svg" xmlns:xlink="http://www.w3.org/1999/xlink" width="86.05341" height="77.0373" viewBox="0,0,86.05341,77.0373"><g transform="translate(-222.77802,-138.65968)"><g data-paper-data="{&quot;isPaintingLayer&quot;:true}" fill-rule="nonzero" stroke="#000000" stroke-width="2" stroke-linejoin="miter" stroke-miterlimit="10" stroke-dasharray="" stroke-dashoffset="0" style="mix-blend-mode: normal"><path d="M232.05055,145.57559c0,0 3.03049,-0.44321 5.05685,-0.23119c1.60531,0.16798 6.13505,1.40229 6.13505,1.40229" data-paper-data="{&quot;index&quot;:null}" fill="none" stroke-linecap="round"/><path d="M223.77802,144.33726c0.79466,-2.72131 3.64491,-4.28318 6.36622,-3.48852c2.72131,0.79466 4.28318,3.64491 3.48852,6.36622c-0.79466,2.72131 -3.64491,4.28318 -6.36622,3.48852c-2.72131,-0.79466 -4.28318,-3.64491 -3.48852,-6.36622z" data-paper-data="{&quot;index&quot;:null}" fill="#e80000" stroke-linecap="butt"/><path d="M234.29977,155.01506c0.69181,-9.14581 8.66678,-15.99909 17.81257,-15.30728c9.14581,0.69181 15.99909,8.66678 15.30728,17.81257c-0.69181,9.14581 -8.66678,15.99909 -17.81257,15.30728c-9.14581,-0.69181 -15.99909,-8.66678 -15.30728,-17.81257z" data-paper-data="{&quot;index&quot;:null}" fill="#e80000" stroke-linecap="butt"/><path d="M233.33849,153.46112l-0.98266,-5.51312l32.88176,-5.86083l0.98266,5.51311z" data-paper-data="{&quot;index&quot;:null}" fill="#ff2121" stroke-linecap="butt"/><path d="M235.62946,199.71703l6.29994,-24.7767l7.60859,1.93464l-6.29994,24.7767z" data-paper-data="{&quot;index&quot;:null}" fill="#e80000" stroke-linecap="butt"/><path d="M226.38763,186.39189c0,-2.11232 1.71238,-3.8247 3.8247,-3.8247c2.11232,0 3.8247,1.71238 3.8247,3.8247c0,2.11232 -1.71238,3.8247 -3.8247,3.8247c-2.11232,0 -3.8247,-1.71238 -3.8247,-3.8247z" data-paper-data="{&quot;index&quot;:null}" fill="#e80000" stroke-linecap="butt"/><path d="M256.59333,189.43193c0,-2.11232 1.71238,-3.8247 3.8247,-3.8247c2.11232,0 3.8247,1.71238 3.8247,3.8247c0,2.11232 -1.71238,3.8247 -3.8247,3.8247c-2.11232,0 -3.8247,-1.71238 -3.8247,-3.8247z" data-paper-data="{&quot;index&quot;:null}" fill="#e80000" stroke-linecap="butt"/><path d="M237.5209,209.06104c-0.61267,4.9092 -3.42349,5.96288 -6.67791,5.55673c-3.25442,-0.40614 -5.39597,-4.7151 -4.78329,-9.6243c0.61267,-4.9092 1.94982,-8.784 5.20424,-8.37783c1.25691,0.15686 7.2685,4.34023 6.25696,12.44542z" data-paper-data="{&quot;index&quot;:null}" fill="#e80000" stroke-linecap="butt"/><path d="M307.83143,201.45179c0,3.05731 -3.33463,5.53575 -7.4481,5.53575c-4.11347,0 -7.4481,-2.47844 -7.4481,-5.53575c0,-3.05731 3.33463,-5.53575 7.4481,-5.53575c4.11347,0 7.4481,2.47844 7.4481,5.53575z" data-paper-data="{&quot;index&quot;:null}" fill="#e80000" stroke-linecap="butt"/></g></g></svg>