<svg version="1.1" xmlns="http://www.w3.org/2000/svg" xmlns:xlink="http://www.w3.org/1999/xlink" width="64.39207" height="87.02258" viewBox="0,0,64.39207,87.02258"><g transform="translate(-203.26709,-139.46336)"><g data-paper-data="{&quot;isPaintingLayer&quot;:true}" fill-rule="nonzero" stroke="#000000" stroke-width="2" stroke-linejoin="miter" stroke-miterlimit="10" stroke-dasharray="" stroke-dashoffset="0" style="mix-blend-mode: normal"><path d="M244.53347,207.79462c0,-2.11232 1.71238,-3.8247 3.8247,-3.8247c2.11232,0 3.8247,1.71238 3.8247,3.8247c0,2.11232 -1.71238,3.8247 -3.8247,3.8247c-2.11232,0 -3.8247,-1.71238 -3.8247,-3.8247z" fill="#181818" stroke-linecap="butt"/><path d="M214.72622,149.04127c0,0 2.81186,-1.214 4.82388,-1.53474c1.59395,-0.25409 6.28882,-0.23677 6.28882,-0.23677" fill="#181818" stroke-linecap="round"/><path d="M204.2671,150.63674c0.06172,-2.83428 2.40938,-5.08192 5.24368,-5.02019c2.83428,0.06172 5.08192,2.40938 5.02019,5.24368c-0.06172,2.83428 -2.40938,5.08192 -5.24368,5.02019c-2.83428,-0.06172 -5.08192,-2.40938 -5.02019,-5.24368z" fill="#181818" stroke-linecap="butt"/><path d="M224.38714,159.60706c0,-9.17193 7.43532,-16.60724 16.60724,-16.60724c9.17193,0 16.60724,7.43532 16.60724,16.60724c0,9.17193 -7.43532,16.60724 -16.60724,16.60724c-9.17193,0 -16.60724,-7.43532 -16.60724,-16.60724z" fill="#181818" stroke-linecap="butt"/><path d="M236.26383,205.32497v-25.56509h7.8507v25.56509z" fill="#181818" stroke-linecap="butt"/><path d="M259.76223,212.93402c4.94684,0.06608 6.30488,2.74315 6.26107,6.02251c-0.04381,3.27937 -4.08952,5.88426 -9.03637,5.81818c-4.94684,-0.06608 -8.94573,-0.96656 -8.90194,-4.24593c0.01691,-1.26655 3.50988,-7.70386 11.67723,-7.59476z" data-paper-data="{&quot;index&quot;:null}" fill="#181818" stroke-linecap="butt"/><path d="M244.78643,163.24006v-5.24474h16.47423v5.24474z" fill="#ff0000" stroke-linecap="butt"/><path d="M234.12447,178.12387l14.42305,0.30197l-3.74625,4.22758l4.12087,4.22758l-17.04542,1.20788l4.30818,-5.13349z" fill="#0e0e0e" stroke-linecap="round"/><g><path d="M226.27464,152.52627v-12.06291h29.6328v12.06291z" fill="#343434" stroke-linecap="butt"/><path d="M266.65917,152.52627h-51.13626" fill="none" stroke-linecap="round"/></g><path d="M229.05051,210.6048c0,-2.11232 1.71238,-3.8247 3.8247,-3.8247c2.11232,0 3.8247,1.71238 3.8247,3.8247c0,2.11232 -1.71238,3.8247 -3.8247,3.8247c-2.11232,0 -3.8247,-1.71238 -3.8247,-3.8247z" fill="#181818" stroke-linecap="butt"/><path d="M226.89095,222.6386c-3.08868,3.86467 -6.03566,3.29349 -8.59763,1.24593c-2.56197,-2.04755 -2.13499,-6.84035 0.95369,-10.70503c3.08868,-3.86467 6.2542,-6.46881 8.81617,-4.42126c0.98949,0.7908 3.92725,7.49969 -1.17223,13.88034z" data-paper-data="{&quot;index&quot;:null}" fill="#181818" stroke-linecap="butt"/></g></g></svg>