<svg version="1.1" xmlns="http://www.w3.org/2000/svg" xmlns:xlink="http://www.w3.org/1999/xlink" width="118.61591" height="118.61591" viewBox="0,0,118.61591,118.61591"><defs><radialGradient cx="239.14511" cy="171.87855" r="59.30795" gradientUnits="userSpaceOnUse" id="color-1"><stop offset="0" stop-color="#ff0000"/><stop offset="1" stop-color="#ff0000" stop-opacity="0"/></radialGradient></defs><g transform="translate(-179.83716,-112.5706)"><g data-paper-data="{&quot;isPaintingLayer&quot;:true}" fill-rule="nonzero" stroke="#000000" stroke-linejoin="miter" stroke-miterlimit="10" stroke-dasharray="" stroke-dashoffset="0" style="mix-blend-mode: normal"><path d="M179.83716,171.87855c0,-32.75488 26.55307,-59.30795 59.30795,-59.30795c32.75488,0 59.30795,26.55307 59.30795,59.30795c0,32.75488 -26.55307,59.30795 -59.30795,59.30795c-32.75488,0 -59.30795,-26.55307 -59.30795,-59.30795z" fill="url(#color-1)" stroke-width="0" stroke-linecap="butt"/><path d="M238.82016,206.13872l-4.67419,-25.13415l7.71837,-1.43538l4.67419,25.13416z" fill="#181818" stroke-width="2" stroke-linecap="butt"/><path d="M231.74355,179.78728l14.24461,-2.28921l-2.77753,5.5544l4.95698,4.11602l-16.49936,4.50777l3.13594,-6.7006z" fill="#0e0e0e" stroke-width="2" stroke-linecap="round"/><path d="M257.61505,193.93127c0,-2.11232 1.71238,-3.8247 3.8247,-3.8247c2.11232,0 3.8247,1.71238 3.8247,3.8247c0,2.11232 -1.71238,3.8247 -3.8247,3.8247c-2.11232,0 -3.8247,-1.71238 -3.8247,-3.8247z" fill="#181818" stroke-width="2" stroke-linecap="butt"/><path d="M218.37031,153.16047c0,0 2.96935,-0.75054 5.00677,-0.74666c1.61408,0.00308 6.24622,0.76812 6.24622,0.76812" fill="#181818" stroke-width="2" stroke-linecap="round"/><path d="M207.7906,153.06934c0.51246,-2.78825 3.1882,-4.63319 5.97647,-4.12072c2.78825,0.51246 4.63318,3.18821 4.12071,5.97647c-0.51246,2.78825 -3.1882,4.63318 -5.97647,4.12071c-2.78825,-0.51246 -4.63318,-3.1882 -4.12071,-5.97647z" fill="#181818" stroke-width="2" stroke-linecap="butt"/><path d="M228.55578,166.18953c-0.43984,-9.16138 6.63037,-16.94469 15.79173,-17.38453c9.16138,-0.43984 16.94469,6.63037 17.38453,15.79173c0.43984,9.16138 -6.63037,16.94469 -15.79173,17.38453c-9.16138,0.43984 -16.94469,-6.63037 -17.38453,-15.79173z" fill="#181818" stroke-width="2" stroke-linecap="butt"/><path d="M228.5361,214.34387c4.11347,0 7.4481,2.47844 7.4481,5.53575c0,3.05731 -3.33463,5.53575 -7.4481,5.53575c-4.11347,0 -7.4481,-2.47844 -7.4481,-5.53575c0,-3.05731 3.33463,-5.53575 7.4481,-5.53575z" data-paper-data="{&quot;index&quot;:null}" fill="#181818" stroke-width="2" stroke-linecap="butt"/><path d="M261.65728,212.87266c4.94728,0 6.34095,2.65869 6.34095,5.93835c0,3.27966 -4.01056,5.93835 -8.95785,5.93835c-4.94728,0 -8.95785,-0.84699 -8.95785,-4.12665c0,-1.26666 3.40667,-7.75005 11.57475,-7.75005z" data-paper-data="{&quot;index&quot;:null}" fill="#181818" stroke-width="2" stroke-linecap="butt"/><path d="M244.1432,169.07836l-0.25151,-3.24225l19.37446,-0.57568l0.25151,3.24225z" fill="#ff0000" stroke-width="2" stroke-linecap="butt"/><g stroke-width="2"><path d="M230.10154,159.02637l-0.57848,-12.04903l29.59871,-1.42104l0.57848,12.04903z" fill="#343434" stroke-linecap="butt"/><path d="M270.43963,157.08973l-51.07743,2.45223" fill="none" stroke-linecap="round"/></g><path d="M214.00532,199.93013c0,-2.11232 1.71238,-3.8247 3.8247,-3.8247c2.11232,0 3.8247,1.71238 3.8247,3.8247c0,2.11232 -1.71238,3.8247 -3.8247,3.8247c-2.11232,0 -3.8247,-1.71238 -3.8247,-3.8247z" fill="#181818" stroke-width="2" stroke-linecap="butt"/></g></g></svg>