<svg version="1.1" xmlns="http://www.w3.org/2000/svg" xmlns:xlink="http://www.w3.org/1999/xlink" width="73.12808" height="89.12299" viewBox="0,0,73.12808,89.12299"><g transform="translate(-211.21081,-138.09806)"><g data-paper-data="{&quot;isPaintingLayer&quot;:true}" fill-rule="nonzero" stroke="#000000" stroke-width="2" stroke-linejoin="miter" stroke-miterlimit="10" stroke-dasharray="" stroke-dashoffset="0" style="mix-blend-mode: normal"><path d="M230.58403,207.33363l4.63581,-25.14126l7.72055,1.4236l-4.63581,25.14126z" fill="#1d28e8" stroke-linecap="butt"/><path d="M248.35934,200.02893c0,-2.11232 1.71238,-3.8247 3.8247,-3.8247c2.11232,0 3.8247,1.71238 3.8247,3.8247c0,2.11232 -1.71238,3.8247 -3.8247,3.8247c-2.11232,0 -3.8247,-1.71238 -3.8247,-3.8247z" fill="#1d28e8" stroke-linecap="butt"/><path d="M232.57835,164.40395c3.63277,-8.42183 13.40496,-12.30413 21.82678,-8.67136c8.42183,3.63277 12.30413,13.40496 8.67136,21.82678c-3.63277,8.42183 -13.40496,12.30413 -21.82678,8.67136c-8.42183,-3.63277 -12.30413,-13.40496 -8.67136,-21.82678z" fill="#1d28e8" stroke-linecap="butt"/><path d="M219.96654,195.5799c0,-2.11232 1.71238,-3.8247 3.8247,-3.8247c2.11232,0 3.8247,1.71238 3.8247,3.8247c0,2.11232 -1.71238,3.8247 -3.8247,3.8247c-2.11232,0 -3.8247,-1.71238 -3.8247,-3.8247z" fill="#1d28e8" stroke-linecap="butt"/><path d="M222.41578,163.95274c0,0 2.9345,-0.87696 4.97022,-0.96029c1.61273,-0.06601 6.27337,0.50005 6.27337,0.50005" fill="none" stroke-linecap="round"/><path d="M212.21081,164.25333c0.39264,-2.80764 2.98696,-4.76539 5.7946,-4.37276c2.80764,0.39264 4.76539,2.98696 4.37276,5.7946c-0.39264,2.80764 -2.98696,4.76539 -5.7946,4.37276c-2.80764,-0.39264 -4.76539,-2.98696 -4.37276,-5.7946z" fill="#1d28e8" stroke-linecap="butt"/><path d="M258.46547,212.47724c4.86012,-0.92458 6.7261,1.42682 7.33902,4.64869c0.61292,3.22188 -2.83011,6.58324 -7.69024,7.50782c-4.86012,0.92458 -8.95832,0.84203 -9.57124,-2.37985c-0.23672,-1.24434 1.89828,-8.25016 9.92245,-9.77666z" data-paper-data="{&quot;index&quot;:null}" fill="#1d28e8" stroke-linecap="butt"/><path d="M232.71481,163.58602l-2.11971,-22.94631l41.02368,-1.49176l-8.0886,27.33468l20.71144,2.02408z" fill="#2530ff" stroke-linecap="round"/><path d="M238.43901,214.06454c4.86012,-0.92458 6.7261,1.42682 7.33902,4.6487c0.61292,3.22188 -2.83011,6.58325 -7.69023,7.50782c-4.86012,0.92458 -8.95832,0.84202 -9.57124,-2.37986c-0.23672,-1.24435 1.89829,-8.25016 9.92246,-9.77666z" data-paper-data="{&quot;index&quot;:null}" fill="#1d28e8" stroke-linecap="butt"/></g></g></svg>