<svg version="1.1" xmlns="http://www.w3.org/2000/svg" xmlns:xlink="http://www.w3.org/1999/xlink" width="145.2572" height="118.11307" viewBox="0,0,145.2572,118.11307"><defs><radialGradient cx="240.77394" cy="147.51933" r="18.84183" gradientUnits="userSpaceOnUse" id="color-1"><stop offset="0" stop-color="#ffffff"/><stop offset="1" stop-color="#0debff"/></radialGradient></defs><g transform="translate(-214.43524,-110.17014)"><g data-paper-data="{&quot;isPaintingLayer&quot;:true}" fill-rule="nonzero" stroke-linejoin="miter" stroke-miterlimit="10" stroke-dasharray="" stroke-dashoffset="0" style="mix-blend-mode: normal"><g fill="#76f4ff" stroke="#53acb4" stroke-width="1" stroke-linecap="butt"><path d="M359.29547,110.5452l-48.22862,62.98088l-29.75257,20.57905l18.4775,-31.10136z" data-paper-data="{&quot;index&quot;:null}"/><path d="M266.18737,201.81231l18.9445,-16.18297l4.10699,3.8328l-15.2482,19.63248z"/><path d="M307.58626,194.95796l-16.3513,0.2497l-12.35616,-11.46389l-0.43307,-15.98081l12.03939,16.30944z"/></g><path d="M265.80908,205.85424c0,-2.11232 1.71238,-3.8247 3.8247,-3.8247c2.11232,0 3.8247,1.71238 3.8247,3.8247c0,2.11232 -1.71238,3.8247 -3.8247,3.8247c-2.11232,0 -3.8247,-1.71238 -3.8247,-3.8247z" fill="#0debff" stroke="#000000" stroke-width="2" stroke-linecap="butt"/><path d="M235.37822,209.87289l7.9623,-24.29352l7.46022,2.44511l-7.96231,24.29353z" data-paper-data="{&quot;index&quot;:null}" fill="#0debff" stroke="#000000" stroke-width="2" stroke-linecap="butt"/><path d="M220.78609,191.7326c0,-2.11232 1.71238,-3.8247 3.8247,-3.8247c2.11232,0 3.8247,1.71238 3.8247,3.8247c0,2.11232 -1.71238,3.8247 -3.8247,3.8247c-2.11232,0 -3.8247,-1.71238 -3.8247,-3.8247z" fill="#0debff" stroke="#000000" stroke-width="2" stroke-linecap="butt"/><path d="M222.88334,215.61448c4.11347,0 7.4481,2.47844 7.4481,5.53575c0,3.05731 -3.33463,5.53575 -7.4481,5.53575c-4.11347,0 -7.4481,-2.47844 -7.4481,-5.53575c0,-3.05731 3.33463,-5.53575 7.4481,-5.53575z" data-paper-data="{&quot;index&quot;:null}" fill="#0debff" stroke="#000000" stroke-width="2" stroke-linecap="butt"/><path d="M264.09714,215.25357c4.93535,-0.34323 6.51013,2.21235 6.73767,5.48411c0.22754,3.27177 -3.5889,6.20228 -8.52426,6.54553c-4.93535,0.34323 -8.99503,-0.22345 -9.22257,-3.49521c-0.08788,-1.26361 2.86077,-7.96774 11.00917,-8.53442z" data-paper-data="{&quot;index&quot;:null}" fill="#0debff" stroke="#000000" stroke-width="2" stroke-linecap="butt"/><path d="M240.87807,162.8151c3.96081,-8.27262 13.87796,-11.76803 22.15058,-7.80723c8.27262,3.96081 11.76803,13.87796 7.80723,22.15058c-3.96081,8.27262 -13.87796,11.76803 -22.15058,7.80723c-8.27262,-3.96081 -11.76803,-13.87796 -7.80723,-22.15058z" fill="#0debff" stroke="#000000" stroke-width="2" stroke-linecap="butt"/><path d="M230.25089,161.13494c0,0 2.49209,-1.7804 4.39101,-2.51877c1.50435,-0.58495 6.09701,-1.55941 6.09701,-1.55941" fill="none" stroke="#000000" stroke-width="2" stroke-linecap="round"/><path d="M220.69373,164.72558c-0.53818,-2.78341 1.28193,-5.47609 4.06534,-6.01427c2.78341,-0.53818 5.47609,1.28193 6.01427,4.06534c0.53818,2.78341 -1.28193,5.47609 -4.06534,6.01427c-2.78341,0.53818 -5.47609,-1.28193 -6.01427,-4.06534z" fill="#0debff" stroke="#000000" stroke-width="2" stroke-linecap="butt"/><path d="M236.76685,166.87074l0.90622,-20.78712l29.71843,-4.23864l6.68147,19.70491z" fill="url(#color-1)" stroke="#000000" stroke-width="2" stroke-linecap="butt"/></g></g></svg>