<svg version="1.1" xmlns="http://www.w3.org/2000/svg" xmlns:xlink="http://www.w3.org/1999/xlink" width="91.37362" height="80.96032" viewBox="0,0,91.37362,80.96032"><g transform="translate(-211.37014,-146.28661)"><g data-paper-data="{&quot;isPaintingLayer&quot;:true}" fill-rule="nonzero" stroke="#000000" stroke-width="2" stroke-linejoin="miter" stroke-miterlimit="10" stroke-dasharray="" stroke-dashoffset="0" style="mix-blend-mode: normal"><path d="M242.30299,205.7739l1.89207,-25.49498l7.82917,0.58103l-1.89207,25.49498z" fill="#181818" stroke-linecap="butt"/><path d="M242.18264,178.48907l14.36114,1.36859l-4.04886,3.93873l3.79668,4.52098l-17.08807,-0.05696l4.67629,-4.80057z" fill="#0e0e0e" stroke-linecap="round"/><g><path d="M222.91768,158.53218c0,0 2.89281,-1.00598 4.92285,-1.17933c1.60823,-0.13733 6.28936,0.22189 6.28936,0.22189" fill="#181818" stroke-linecap="round"/><path d="M212.37014,159.36164c0.26799,-2.82226 2.77311,-4.89294 5.59539,-4.62494c2.82226,0.26799 4.89294,2.77311 4.62494,5.59539c-0.26799,2.82226 -2.77312,4.89294 -5.59539,4.62494c-2.82226,-0.26799 -4.89294,-2.77311 -4.62494,-5.59538z" fill="#181818" stroke-linecap="butt"/><path d="M234.19784,170.6259c-1.23505,-9.0884 5.13134,-17.4572 14.21972,-18.69225c9.0884,-1.23505 17.45719,5.13135 18.69224,14.21973c1.23505,9.0884 -5.13135,17.4572 -14.21972,18.69225c-9.0884,1.23505 -17.45719,-5.13135 -18.69224,-14.21973z" fill="#181818" stroke-linecap="butt"/><path d="M257.38665,170.92464l-0.49177,-2.83782c0,0 5.75872,-0.25436 8.21865,-0.58865c2.59375,-0.35247 6.96367,-1.04558 6.96367,-1.04558l0.49176,2.40888z" fill="#d70000" stroke-linecap="butt"/><g><path d="M235.11468,163.35543l-1.62435,-11.95304l29.36292,-3.99023l1.62434,11.95304z" fill="#343434" stroke-linecap="butt"/><path d="M275.13142,157.91741l-50.67053,6.8858" fill="none" stroke-linecap="round"/></g></g><path d="M228.53612,214.34389c4.11347,0 7.4481,2.47844 7.4481,5.53575c0,3.05731 -3.33463,5.53575 -7.4481,5.53575c-4.11347,0 -7.4481,-2.47844 -7.4481,-5.53575c0,-3.05731 3.33463,-5.53575 7.4481,-5.53575z" data-paper-data="{&quot;index&quot;:null}" fill="#181818" stroke-linecap="butt"/><path d="M262.7543,214.37023c4.94728,0 6.34095,2.65869 6.34095,5.93835c0,3.27966 -4.01056,5.93835 -8.95785,5.93835c-4.94728,0 -8.95785,-0.84699 -8.95785,-4.12665c0,-1.26666 3.40667,-7.75005 11.57475,-7.75005z" data-paper-data="{&quot;index&quot;:null}" fill="#181818" stroke-linecap="butt"/><path d="M291.70896,159.75329c0.14352,-2.10744 1.96829,-3.69952 4.07572,-3.556c2.10744,0.14352 3.69952,1.96829 3.556,4.07572c-0.14352,2.10744 -1.96829,3.69952 -4.07572,3.556c-2.10744,-0.14352 -3.69952,-1.96829 -3.556,-4.07572z" fill="#181818" stroke-linecap="butt"/><path d="M294.10305,165.03673c0.14352,-2.10744 1.96829,-3.69952 4.07572,-3.556c2.10744,0.14352 3.69952,1.96829 3.556,4.07572c-0.14352,2.10744 -1.96829,3.69952 -4.07572,3.556c-2.10744,-0.14352 -3.69952,-1.96829 -3.556,-4.07572z" fill="#181818" stroke-linecap="butt"/></g></g></svg>