<svg version="1.1" xmlns="http://www.w3.org/2000/svg" xmlns:xlink="http://www.w3.org/1999/xlink" width="115.6798" height="98.49746" viewBox="0,0,115.6798,98.49746"><g transform="translate(-194.57201,-125.70051)"><g data-paper-data="{&quot;isPaintingLayer&quot;:true}" fill-rule="nonzero" stroke="#000000" stroke-width="2" stroke-linejoin="miter" stroke-miterlimit="10" stroke-dasharray="" stroke-dashoffset="0" style="mix-blend-mode: normal"><path d="M250.17391,216.77843l-18.12252,-18.03186l5.53735,-5.56519l18.12252,18.03186z" fill="#ff6b00" stroke-linecap="butt"/><path d="M258.24418,193.14898c0,-2.11232 1.71238,-3.8247 3.8247,-3.8247c2.11232,0 3.8247,1.71238 3.8247,3.8247c0,2.11232 -1.71238,3.8247 -3.8247,3.8247c-2.11232,0 -3.8247,-1.71238 -3.8247,-3.8247z" fill="#ff6b00" stroke-linecap="butt"/><path d="M219.57673,178.03749c1.07316,-9.10893 9.32738,-15.6232 18.4363,-14.55003c9.10893,1.07316 15.6232,9.32738 14.55003,18.4363c-1.07316,9.10893 -9.32738,15.6232 -18.4363,14.55003c-9.10893,-1.07316 -15.6232,-9.32738 -14.55003,-18.4363z" fill="#ff6b00" stroke-linecap="butt"/><path d="M220.33688,218.91727c0,-2.11232 1.71238,-3.8247 3.8247,-3.8247c2.11232,0 3.8247,1.71238 3.8247,3.8247c0,2.11232 -1.71238,3.8247 -3.8247,3.8247c-2.11232,0 -3.8247,-1.71238 -3.8247,-3.8247z" fill="#ff6b00" stroke-linecap="butt"/><path d="M210.94641,174.90349c0,0 2.13146,-2.19937 3.86671,-3.26706c1.37469,-0.84584 5.71737,-2.62999 5.71737,-2.62999" fill="none" stroke-linecap="round"/><path d="M202.19038,180.15362c-1.02975,-2.64133 0.27668,-5.61732 2.91801,-6.64707c2.64133,-1.02975 5.61732,0.27668 6.64707,2.91801c1.02975,2.64133 -0.27668,5.61732 -2.91801,6.64707c-2.64133,1.02975 -5.61732,-0.27668 -6.64707,-2.91801z" fill="#ff6b00" stroke-linecap="butt"/><path d="M214.65463,180.8365l5.62466,-11.60511l-23.94338,-24.36468l43.96728,-17.68962l0.20699,33.62824l12.10692,4.36009z" data-paper-data="{&quot;index&quot;:null}" fill="#ffa340" stroke-linecap="butt"/><path d="M302.36214,211.1227c4.92371,-0.48231 6.56994,2.02785 6.88967,5.2919c0.31973,3.26404 -3.41253,6.30105 -8.33626,6.78337c-4.92371,0.48231 -8.99775,0.03035 -9.31748,-3.23369c-0.12349,-1.26062 2.63489,-8.04524 10.76407,-8.84155z" data-paper-data="{&quot;index&quot;:null}" fill="#ff6b00" stroke-linecap="butt"/><path d="M267.06598,209.49103c4.5378,-1.97076 6.87522,-0.08729 8.18168,2.92094c1.30645,3.00822 -1.31307,7.04446 -5.85089,9.01523c-4.5378,1.97076 -8.55383,2.79149 -9.86028,-0.21673c-0.50458,-1.16182 0.03747,-8.46564 7.52951,-11.71942z" data-paper-data="{&quot;index&quot;:null}" fill="#ff6b00" stroke-linecap="butt"/></g></g></svg>