<svg version="1.1" xmlns="http://www.w3.org/2000/svg" xmlns:xlink="http://www.w3.org/1999/xlink" width="83.14068" height="75.01192" viewBox="0,0,83.14068,75.01192"><g transform="translate(-205.69827,-152.58518)"><g data-paper-data="{&quot;isPaintingLayer&quot;:true}" fill-rule="nonzero" stroke="#000000" stroke-width="2" stroke-linejoin="miter" stroke-miterlimit="10" stroke-dasharray="" stroke-dashoffset="0" style="mix-blend-mode: normal"><path d="M252.93635,173.83156c0,-9.17193 7.43532,-16.60724 16.60724,-16.60724c9.17193,0 16.60724,7.43532 16.60724,16.60724c0,9.17193 -7.43532,16.60724 -16.60724,16.60724c-9.17193,0 -16.60724,-7.43532 -16.60724,-16.60724z" fill="#2d6a2b" stroke-linecap="butt"/><path d="M261.86883,155.45025c14.84222,-5.55435 25.0872,3.06696 25.0872,3.06696l-37.64308,16.22019c0,0 -3.40193,-13.31531 12.55588,-19.28715z" fill="#367e33" stroke-linecap="round"/><path d="M233.2701,206.718l13.43541,-21.75003l6.67914,4.12584l-13.43541,21.75002z" fill="#2d6a2b" stroke-linecap="butt"/><path d="M226.70608,193.10549c0.96571,-1.87864 3.27151,-2.61873 5.15016,-1.65303c1.87864,0.96571 2.61873,3.27151 1.65303,5.15016c-0.96571,1.87864 -3.27151,2.61873 -5.15016,1.65303c-1.87864,-0.96571 -2.61873,-3.27151 -1.65303,-5.15016z" fill="#2d6a2b" stroke-linecap="butt"/><path d="M248.05753,204.51531c0.96571,-1.87864 3.27152,-2.61873 5.15016,-1.65303c1.87864,0.96571 2.61873,3.27151 1.65303,5.15016c-0.96571,1.87864 -3.27152,2.61873 -5.15016,1.65303c-1.87864,-0.96571 -2.61873,-3.27151 -1.65303,-5.15016z" fill="#2d6a2b" stroke-linecap="butt"/><path d="M255.34187,210.87421c4.59292,1.83865 4.89867,4.82486 3.67979,7.86961c-1.21888,3.04475 -5.93029,4.02248 -10.52321,2.18383c-4.59292,-1.83865 -8.00145,-4.1155 -6.78257,-7.16025c0.47075,-1.17593 6.04296,-5.92886 13.62599,-2.8932z" data-paper-data="{&quot;index&quot;:null}" fill="#2d6a2b" stroke-linecap="butt"/><path d="M243.08291,162.0394c0,0 2.78477,-1.27492 4.78933,-1.63939c1.58804,-0.28873 6.28217,-0.37361 6.28217,-0.37361" fill="none" stroke-linecap="round"/><path d="M233.01792,163.75045c0,-2.83496 2.29819,-5.13315 5.13315,-5.13315c2.83496,0 5.13315,2.29819 5.13315,5.13315c0,2.83496 -2.29819,5.13315 -5.13315,5.13315c-2.83496,0 -5.13315,-2.29819 -5.13315,-5.13315z" fill="#2d6a2b" stroke-linecap="butt"/><path d="M221.31775,216.43604c3.73946,3.23914 3.05215,6.16122 0.90486,8.64019c-2.1473,2.47897 -6.91946,1.86272 -10.65892,-1.37642c-3.73946,-3.23914 -6.21634,-6.50519 -4.06905,-8.98416c0.82932,-0.95742 7.64917,-3.62751 13.82311,1.72039z" data-paper-data="{&quot;index&quot;:null}" fill="#2d6a2b" stroke-linecap="butt"/></g></g></svg>