<svg version="1.1" xmlns="http://www.w3.org/2000/svg" xmlns:xlink="http://www.w3.org/1999/xlink" width="88.87743" height="91.32626" viewBox="0,0,88.87743,91.32626"><g transform="translate(-208.41222,-137.86335)"><g data-paper-data="{&quot;isPaintingLayer&quot;:true}" fill-rule="nonzero" stroke="#000000" stroke-width="2" stroke-linejoin="miter" stroke-miterlimit="10" stroke-dasharray="" stroke-dashoffset="0" style="mix-blend-mode: normal"><path d="M279.7494,149.17544c0,0 3.89352,2.62344 5.06935,3.72919c1.48423,1.39577 3.12824,3.97987 3.12824,3.97987" data-paper-data="{&quot;index&quot;:null}" fill="none" stroke-linecap="round"/><path d="M288.36498,165.31013c-2.37932,-1.54139 -3.05861,-4.71973 -1.51723,-7.09905c1.54139,-2.37932 4.71973,-3.05861 7.09905,-1.51723c2.37932,1.54139 3.05861,4.71973 1.51723,7.09905c-1.54139,2.37932 -4.71973,3.05861 -7.09905,1.51723z" data-paper-data="{&quot;index&quot;:null}" fill="#ffe819" stroke-linecap="butt"/><path d="M228.2295,180.50079c0,-2.11232 1.71238,-3.8247 3.8247,-3.8247c2.11232,0 3.8247,1.71238 3.8247,3.8247c0,2.11232 -1.71238,3.8247 -3.8247,3.8247c-2.11232,0 -3.8247,-1.71238 -3.8247,-3.8247z" fill="#ffe819" stroke-linecap="butt"/><path d="M229.99858,201.73012l14.9932,-20.70695l6.35883,4.60422l-14.9932,20.70695z" fill="#ffe819" stroke-linecap="butt"/><path d="M218.79406,215.98114c8.13434,0.74164 10.93825,7.50756 10.82326,8.76899c-0.29779,3.26611 -4.36869,3.74545 -9.29554,3.29625c-4.92686,-0.44919 -8.67945,-3.46104 -8.38167,-6.72716c0.29778,-3.26612 1.9271,-5.78728 6.85394,-5.33808z" data-paper-data="{&quot;index&quot;:null}" fill="#ffe819" stroke-linecap="butt"/><path d="M260.72341,179.0308c-9.10607,-1.0971 -15.59863,-9.36839 -14.50154,-18.47447c1.0971,-9.10607 9.36839,-15.59863 18.47447,-14.50154c9.10607,1.0971 15.59863,9.36839 14.50154,18.47447c-1.0971,9.10607 -9.36839,15.59863 -18.47447,14.50154z" data-paper-data="{&quot;index&quot;:null}" fill="#ffe819" stroke-linecap="butt"/><path d="M246.99794,149.77838c0,0 7.35284,-10.89809 17.97046,-10.91501c10.61762,-0.01693 25.91029,14.51027 25.91029,14.51027l-12.37636,-1.31206l-0.10548,0.56837l5.68203,9.39899z" data-paper-data="{&quot;index&quot;:null}" fill="#fff067" stroke-linecap="butt"/><path d="M218.8285,186.82123c6.61171,4.79614 5.56234,12.04448 4.81859,13.06979c-1.92575,2.65473 -5.66946,0.98541 -9.67407,-1.91953c-4.00462,-2.90494 -5.68987,-7.41195 -3.76412,-10.0667c1.92575,-2.65475 4.61498,-3.9885 8.61959,-1.08356z" data-paper-data="{&quot;index&quot;:null}" fill="#ffe819" stroke-linecap="butt"/><path d="M278.56283,189.83412c0,-2.11232 1.71238,-3.8247 3.8247,-3.8247c2.11232,0 3.8247,1.71238 3.8247,3.8247c0,2.11232 -1.71238,3.8247 -3.8247,3.8247c-2.11232,0 -3.8247,-1.71238 -3.8247,-3.8247z" fill="#ffe819" stroke-linecap="butt"/></g></g></svg>