<svg version="1.1" xmlns="http://www.w3.org/2000/svg" xmlns:xlink="http://www.w3.org/1999/xlink" width="118.80569" height="103.04548" viewBox="0,0,118.80569,103.04548"><g transform="translate(-211.89824,-123.71227)"><g data-paper-data="{&quot;isPaintingLayer&quot;:true}" fill-rule="nonzero" stroke="#000000" stroke-width="2" stroke-linejoin="miter" stroke-miterlimit="10" stroke-dasharray="" stroke-dashoffset="0" style="mix-blend-mode: normal"><path d="M212.89825,167.5249c1.2701,-9.08356 9.66341,-15.41762 18.74696,-14.14752c9.08356,1.2701 15.41763,9.66341 14.14753,18.74696c-1.2701,9.08356 -9.66341,15.41762 -18.74696,14.14752c-9.08356,-1.2701 -15.41763,-9.66341 -14.14753,-18.74696z" fill="#1d28e8" stroke-linecap="butt"/><path d="M253.77548,210.382l-3.22571,-25.36077l7.78795,-0.99058l3.22572,25.36077z" fill="#1d28e8" stroke-linecap="butt"/><path d="M216.78791,195.76366c0,-2.11232 1.71238,-3.8247 3.8247,-3.8247c2.11232,0 3.8247,1.71238 3.8247,3.8247c0,2.11232 -1.71238,3.8247 -3.8247,3.8247c-2.11232,0 -3.8247,-1.71238 -3.8247,-3.8247z" fill="#1d28e8" stroke-linecap="butt"/><path d="M263.98836,220.222c0,3.05731 -3.33463,5.53575 -7.4481,5.53575c-4.11347,0 -7.4481,-2.47844 -7.4481,-5.53575c0,-3.05731 3.33463,-5.53575 7.4481,-5.53575c4.11347,0 7.4481,2.47844 7.4481,5.53575z" data-paper-data="{&quot;index&quot;:null}" fill="#1d28e8" stroke-linecap="butt"/><path d="M232.66684,214.02882c0.90786,3.1515 -2.71154,5.07558 -7.4655,6.44505c-4.75397,1.36948 -9.34377,-0.07515 -10.25163,-3.22665c-0.90786,-3.1515 -0.30461,-6.09209 4.44936,-7.46157c7.8489,-2.26103 12.91714,3.02599 13.26777,4.24316z" data-paper-data="{&quot;index&quot;:null}" fill="#1d28e8" stroke-linecap="butt"/><path d="M314.45651,143.67736l14.80181,17.66162l-32.88337,24.57338l-8.90531,-27.07961l-18.18222,10.12263z" data-paper-data="{&quot;index&quot;:null}" fill="#2530ff" stroke-linecap="round"/><path d="M273.69081,165.19553c0.69866,1.99343 -0.35097,4.17581 -2.3444,4.87447c-1.99343,0.69866 -4.17581,-0.35097 -4.87447,-2.3444c-0.69866,-1.99343 0.35097,-4.17581 2.3444,-4.87447c1.99343,-0.69866 4.17581,0.35097 4.87447,2.3444z" data-paper-data="{&quot;index&quot;:null}" fill="#1d28e8" stroke-linecap="butt"/><path d="M319.60194,133.55497c0,0 -0.79457,2.95787 -1.7926,4.73411c-0.79067,1.40716 -3.71969,5.07633 -3.71969,5.07633" fill="none" stroke-linecap="round"/><path d="M324.70472,124.71227c2.18325,1.80844 2.48711,5.04432 0.67868,7.22757c-1.80844,2.18325 -5.04432,2.48711 -7.22757,0.67868c-2.18325,-1.80844 -2.48711,-5.04432 -0.67868,-7.22757c1.80844,-2.18325 5.04432,-2.48711 7.22757,-0.67868z" fill="#1d28e8" stroke-linecap="butt"/></g></g></svg>