<svg version="1.1" xmlns="http://www.w3.org/2000/svg" xmlns:xlink="http://www.w3.org/1999/xlink" width="93.40022" height="107.95987" viewBox="0,0,93.40022,107.95987"><defs><radialGradient cx="258.90878" cy="184.88392" r="33.27169" gradientUnits="userSpaceOnUse" id="color-1"><stop offset="0" stop-color="#ffaa40"/><stop offset="1" stop-color="#ffaa40" stop-opacity="0"/></radialGradient><radialGradient cx="258.90878" cy="184.88392" r="33.27169" gradientUnits="userSpaceOnUse" id="color-2"><stop offset="0" stop-color="#ff0000"/><stop offset="1" stop-color="#ffffff"/></radialGradient></defs><g transform="translate(-179.94841,-119.12964)"><g data-paper-data="{&quot;isPaintingLayer&quot;:true}" fill-rule="nonzero" stroke-linejoin="miter" stroke-miterlimit="10" stroke-dasharray="" stroke-dashoffset="0" style="mix-blend-mode: normal"><path d="M256.82431,188.01905c-1.7055,-1.24627 -2.07778,-3.63915 -0.83151,-5.34465c1.24627,-1.7055 3.63915,-2.07778 5.34465,-0.83151c1.7055,1.24627 2.07778,3.63915 0.83151,5.34465c-1.24627,1.7055 -3.63915,2.07778 -5.34465,0.83151z" fill="#ff6b00" stroke="#000000" stroke-width="2" stroke-linecap="butt"/><path d="M220.40245,208.55798l-2.13149,-25.47608l7.82337,-0.65455l2.13149,25.47608z" fill="#ff6b00" stroke="#000000" stroke-width="2" stroke-linecap="butt"/><path d="M256.89907,193.73871c-1.7055,-1.24627 -2.07778,-3.63915 -0.83151,-5.34465c1.24627,-1.7055 3.63915,-2.07778 5.34465,-0.83151c1.7055,1.24627 2.07778,3.63915 0.83151,5.34465c-1.24627,1.7055 -3.63915,2.07778 -5.34465,0.83151z" fill="#ff6b00" stroke="#000000" stroke-width="2" stroke-linecap="butt"/><path d="M222.81413,215.01801c4.11347,0 7.4481,2.47844 7.4481,5.53575c0,3.05731 -3.33463,5.53575 -7.4481,5.53575c-4.11347,0 -7.4481,-2.47844 -7.4481,-5.53575c0,-3.05731 3.33463,-5.53575 7.4481,-5.53575z" data-paper-data="{&quot;index&quot;:null}" fill="#ff6b00" stroke="#000000" stroke-width="2" stroke-linecap="butt"/><path d="M254.56185,211.5285c4.52935,-1.99011 6.87479,-0.11664 8.19408,2.88597c1.31929,3.00261 -1.28298,7.05 -5.81234,9.04013c-4.52935,1.99011 -8.54183,2.82799 -9.86112,-0.17462c-0.50953,-1.15965 0.00132,-8.46573 7.47939,-11.75146z" data-paper-data="{&quot;index&quot;:null}" fill="#ff6b00" stroke="#000000" stroke-width="2" stroke-linecap="butt"/><path d="M208.70562,173.64818c0,-9.17193 7.43532,-16.60724 16.60724,-16.60724c9.17193,0 16.60724,7.43532 16.60724,16.60724c0,9.17193 -7.43532,16.60724 -16.60724,16.60724c-9.17193,0 -16.60724,-7.43532 -16.60724,-16.60724z" fill="#ff6b00" stroke="#000000" stroke-width="2" stroke-linecap="butt"/><path d="M205.95584,160.1311c0,0 2.74346,-1.36153 4.73562,-1.7886c1.57821,-0.33833 6.26738,-0.5702 6.26738,-0.5702" fill="none" stroke="#000000" stroke-width="2" stroke-linecap="round"/><path d="M195.94937,162.15656c-0.08879,-2.83357 2.13628,-5.20261 4.96985,-5.29141c2.83357,-0.08879 5.20261,2.13628 5.29141,4.96985c0.08879,2.83357 -2.13628,5.20261 -4.96985,5.29141c-2.83357,0.08879 -5.20261,-2.13628 -5.29141,-4.96985z" fill="#ff6b00" stroke="#000000" stroke-width="2" stroke-linecap="butt"/><path d="M204.14482,177.00388l4.22817,-12.18351l-26.62972,-21.39582l41.5955,-22.71252l4.14025,33.37304l12.53391,2.91357z" data-paper-data="{&quot;index&quot;:null}" fill="#ffa340" stroke="#000000" stroke-width="2" stroke-linecap="butt"/><path d="M272.09863,184.88392c0,18.37545 -5.9053,33.27169 -13.18985,33.27169c-7.28455,0 -13.18985,-14.89624 -13.18985,-33.27169c0,-18.37545 5.9053,-33.27169 13.18985,-33.27169c7.28455,0 13.18985,14.89624 13.18985,33.27169z" fill="url(#color-1)" stroke="url(#color-2)" stroke-width="2.5" stroke-linecap="butt"/></g></g></svg>