<svg version="1.1" xmlns="http://www.w3.org/2000/svg" xmlns:xlink="http://www.w3.org/1999/xlink" width="133.31097" height="83.9196" viewBox="0,0,133.31097,83.9196"><defs><radialGradient cx="260.09515" cy="148.44929" r="18.84183" gradientUnits="userSpaceOnUse" id="color-1"><stop offset="0" stop-color="#ffffff"/><stop offset="1" stop-color="#0debff"/></radialGradient></defs><g transform="translate(-213.23698,-143.76637)"><g data-paper-data="{&quot;isPaintingLayer&quot;:true}" fill-rule="nonzero" stroke-linejoin="miter" stroke-miterlimit="10" stroke-dasharray="" stroke-dashoffset="0" style="mix-blend-mode: normal"><path d="M278.6018,161.31853c0,0 4.59266,0.97446 6.09701,1.55941c1.89892,0.73837 4.39101,2.51877 4.39101,2.51877" data-paper-data="{&quot;index&quot;:null}" fill="none" stroke="#000000" stroke-width="2" stroke-linecap="round"/><path d="M292.63271,173.05268c-2.78341,-0.53818 -4.60352,-3.23086 -4.06534,-6.01427c0.53818,-2.78341 3.23086,-4.60352 6.01427,-4.06534c2.78341,0.53818 4.60352,3.23086 4.06534,6.01427c-0.53818,2.78341 -3.23086,4.60352 -6.01427,4.06534z" data-paper-data="{&quot;index&quot;:null}" fill="#0debff" stroke="#000000" stroke-width="2" stroke-linecap="butt"/><g data-paper-data="{&quot;index&quot;:null}" fill="#76f4ff" stroke="#53acb4" stroke-width="1" stroke-linecap="butt"><path d="M291.23262,182.17419l35.90563,4.41565l-34.48205,10.94077l-79.32489,-0.39058z" data-paper-data="{&quot;index&quot;:null}"/><path d="M343.47537,189.96905l-24.8584,0.04775l-0.51854,-5.59366l24.3917,-5.08203z"/><path d="M313.59141,187.70463l-5.53324,-19.50201l12.37501,10.12093l1.50682,16.78764l-10.20258,12.78025z"/></g><path d="M345.54795,187.30334c-1.49364,1.49364 -3.91531,1.49364 -5.40894,0c-1.49364,-1.49364 -1.49364,-3.91531 0,-5.40894c1.49364,-1.49364 3.91531,-1.49364 5.40894,0c1.49364,1.49364 1.49364,3.91531 0,5.40894z" data-paper-data="{&quot;index&quot;:null}" fill="#0debff" stroke="#000000" stroke-width="2" stroke-linecap="butt"/><path d="M251.51878,210.04608l12.05478,-22.54454l6.92312,3.70187l-12.05478,22.54454z" data-paper-data="{&quot;index&quot;:null}" fill="#0debff" stroke="#000000" stroke-width="2" stroke-linecap="butt"/><path d="M230.39077,197.37555c0,-2.11232 1.71238,-3.8247 3.8247,-3.8247c2.11232,0 3.8247,1.71238 3.8247,3.8247c0,2.11232 -1.71238,3.8247 -3.8247,3.8247c-2.11232,0 -3.8247,-1.71238 -3.8247,-3.8247z" fill="#0debff" stroke="#000000" stroke-width="2" stroke-linecap="butt"/><path d="M272.28233,221.15022c0,3.05731 -3.33463,5.53575 -7.4481,5.53575c-4.11347,0 -7.4481,-2.47844 -7.4481,-5.53575c0,-3.05731 3.33463,-5.53575 7.4481,-5.53575c4.11347,0 7.4481,2.47844 7.4481,5.53575z" data-paper-data="{&quot;index&quot;:null}" fill="#0debff" stroke="#000000" stroke-width="2" stroke-linecap="butt"/><path d="M221.69593,214.6829c8.16733,-0.11105 11.66182,6.32543 11.67904,7.59198c0.04459,3.27936 -3.9541,4.18079 -8.90092,4.24804c-4.94683,0.06725 -8.99317,-2.53667 -9.03775,-5.81603c-0.04459,-3.27936 1.31282,-5.95675 6.25964,-6.02401z" data-paper-data="{&quot;index&quot;:null}" fill="#0debff" stroke="#000000" stroke-width="2" stroke-linecap="butt"/><path d="M258.63043,164.82688c3.96081,-8.27262 13.87796,-11.76803 22.15058,-7.80723c8.27262,3.96081 11.76803,13.87796 7.80723,22.15058c-3.96081,8.27262 -13.87796,11.76803 -22.15058,7.80723c-8.27262,-3.96081 -11.76803,-13.87796 -7.80723,-22.15058z" fill="#0debff" stroke="#000000" stroke-width="2" stroke-linecap="butt"/><path d="M254.62599,167.43935l2.48665,-20.65774l29.95492,-1.9631l5.16142,20.15652z" data-paper-data="{&quot;index&quot;:null}" fill="url(#color-1)" stroke="#000000" stroke-width="2" stroke-linecap="butt"/></g></g></svg>