<svg version="1.1" xmlns="http://www.w3.org/2000/svg" xmlns:xlink="http://www.w3.org/1999/xlink" width="110.14002" height="100.0535" viewBox="0,0,110.14002,100.0535"><g transform="translate(-195.88208,-114.75197)"><g data-paper-data="{&quot;isPaintingLayer&quot;:true}" fill-rule="nonzero" stroke="#000000" stroke-width="2" stroke-linejoin="miter" stroke-miterlimit="10" stroke-dasharray="" stroke-dashoffset="0" style="mix-blend-mode: normal"><path d="M220.98186,210.7048c-2.87976,4.02275 -5.85286,3.60838 -8.51963,1.69932c-2.66677,-1.90906 -2.4941,-6.71774 0.38566,-10.74051c2.87976,-4.02275 5.90298,-6.79082 8.56975,-4.88175c1.02994,0.7373 4.31876,7.28127 -0.4358,13.92293z" data-paper-data="{&quot;index&quot;:null}" fill="#ff6b00" stroke-linecap="butt"/><path d="M266.80646,182.16186c1.49364,-1.49364 3.91531,-1.49364 5.40894,0c1.49364,1.49364 1.49364,3.91531 0,5.40894c-1.49364,1.49364 -3.91531,1.49364 -5.40894,0c-1.49364,-1.49364 -1.49364,-3.91531 0,-5.40894z" fill="#ff6b00" stroke-linecap="butt"/><path d="M256.55076,156.57037c6.48553,-6.48553 17.00066,-6.48553 23.48618,0c6.48553,6.48553 6.48553,17.00066 0,23.48618c-6.48553,6.48553 -17.00066,6.48553 -23.48618,0c-6.48553,-6.48553 -6.48553,-17.00066 0,-23.48618z" fill="#ff6b00" stroke-linecap="butt"/><path d="M224.75493,189.27425l22.58655,-11.97588l3.67763,6.93603l-22.58655,11.97588z" fill="#ff6b00" stroke-linecap="butt"/><path d="M243.73568,184.25773c1.49364,-1.49364 3.91531,-1.49364 5.40894,0c1.49364,1.49364 1.49364,3.91531 0,5.40894c-1.49364,1.49364 -3.91531,1.49364 -5.40894,0c-1.49364,-1.49364 -1.49364,-3.91531 0,-5.40894z" fill="#ff6b00" stroke-linecap="butt"/><path d="M251.71764,148.76362c0,0 3.03571,-0.40601 5.05931,-0.16911c1.60312,0.18767 6.11737,1.47749 6.11737,1.47749" fill="none" stroke-linecap="round"/><path d="M241.59176,147.46041c0.828,-2.71135 3.6972,-4.23811 6.40855,-3.41011c2.71135,0.828 4.23811,3.6972 3.41011,6.40855c-0.828,2.71135 -3.6972,4.23811 -6.40855,3.41011c-2.71135,-0.828 -4.23811,-3.6972 -3.41011,-6.40855z" fill="#ff6b00" stroke-linecap="butt"/><path d="M205.45373,205.6157c-4.1132,2.74903 -6.74925,1.31299 -8.57165,-1.41374c-1.82239,-2.72673 0.03467,-7.16571 4.14787,-9.91476c4.1132,-2.74903 7.91824,-4.27338 9.74064,-1.54665c0.70384,1.0531 1.47411,8.3364 -5.31688,12.87513z" data-paper-data="{&quot;index&quot;:null}" fill="#ff6b00" stroke-linecap="butt"/><path d="M250.95295,155.71824l11.60481,-5.62527l-3.70093,-33.95919l45.47264,13.35228l-20.6707,26.5259l6.80261,10.92302z" data-paper-data="{&quot;index&quot;:null}" fill="#ffa340" stroke-linecap="butt"/></g></g></svg>