<svg version="1.1" xmlns="http://www.w3.org/2000/svg" xmlns:xlink="http://www.w3.org/1999/xlink" width="54.63616" height="113.48713" viewBox="0,0,54.63616,113.48713"><g transform="translate(-206.01786,-127.14626)"><g data-paper-data="{&quot;isPaintingLayer&quot;:true}" fill-rule="nonzero" stroke="#000000" stroke-width="2" stroke-linejoin="miter" stroke-miterlimit="10" stroke-dasharray="" stroke-dashoffset="0" style="mix-blend-mode: normal"><path d="M224.37844,212.53463l-2.75826,7.57776c0,0 -4.09134,1.38201 -6.0779,1.76616c-1.88098,0.36374 -6.10645,-4.22841 -6.10645,-4.22841l1.59044,-5.32602c0,0 3.27198,3.43632 5.28794,3.46811c2.37549,0.03745 8.06422,-3.25758 8.06422,-3.25758z" fill="#9d2222" stroke-linecap="butt"/><path d="M241.42235,164.77952l-2.75855,25.41583l-7.80486,-0.84711l2.75855,-25.41583z" fill="#181818" stroke-linecap="butt"/><path d="M240.61414,192.05264l-14.30066,-1.90802l4.25882,-4.51978l-3.56237,-5.36867l17.09858,0.43239l-4.93199,5.51431z" fill="#0e0e0e" stroke-linecap="round"/><path d="M232.06028,164.67941c-0.89502,1.91334 -3.17164,2.73884 -5.08497,1.84383c-1.91334,-0.89502 -2.73884,-3.17164 -1.84383,-5.08497c0.89502,-1.91334 3.17164,-2.73884 5.08497,-1.84383c1.91334,0.89502 2.73884,3.17164 1.84383,5.08497z" fill="#181818" stroke-linecap="butt"/><path d="M246.75787,214.44226c-0.115,9.1712 -7.64294,16.51271 -16.81414,16.39771c-9.1712,-0.115 -16.51272,-7.64295 -16.39772,-16.81415c0.115,-9.1712 7.64295,-16.51271 16.81414,-16.39771c9.1712,0.115 16.51271,7.64295 16.39771,16.81414z" fill="#181818" stroke-linecap="butt"/><path d="M229.73585,133.27851c1.07009,-4.83016 3.9673,-5.61577 7.16933,-4.90637c3.20202,0.70939 4.93028,5.20008 3.86018,10.03025c-1.07009,4.83016 -2.76453,8.56258 -5.96654,7.8532c-1.23667,-0.27398 -6.82971,-5.00236 -5.06295,-12.97707z" data-paper-data="{&quot;index&quot;:null}" fill="#181818" stroke-linecap="butt"/><path d="M250.62803,165.54368c-0.89502,1.91334 -3.17164,2.73884 -5.08497,1.84383c-1.91334,-0.89502 -2.73884,-3.17164 -1.84383,-5.08497c0.89502,-1.91334 3.17164,-2.73884 5.08497,-1.84383c1.91334,0.89502 2.73884,3.17164 1.84383,5.08497z" fill="#181818" stroke-linecap="butt"/><path d="M249.01695,137.5297c2.50421,-4.26667 5.50258,-4.12284 8.33107,-2.46275c2.82846,1.66009 3.09134,6.4647 0.58713,10.73139c-2.50421,4.26667 -5.26475,7.29678 -8.09321,5.63668c-1.0924,-0.64115 -4.95948,-6.86092 -0.82497,-13.90531z" data-paper-data="{&quot;index&quot;:null}" fill="#181818" stroke-linecap="butt"/><g><path d="M245.83797,220.33086l1.49028,11.97051c0,0 -2.04425,5.92739 -13.45195,7.33202c-11.49438,1.41529 -15.95385,-3.6711 -15.95385,-3.6711l-1.49028,-11.9705c0,0 9.6525,2.16868 14.45004,1.5714c4.99632,-0.62202 14.95575,-5.23231 14.95575,-5.23231z" fill="#343434" stroke-linecap="butt"/><path d="M253.83941,215.853c0,0 -14.11974,8.6189 -22.46817,9.65825c-8.56104,1.06581 -24.35337,-3.40068 -24.35337,-3.40068" fill="none" stroke-linecap="round"/></g><path d="M242.41759,219.84786c0,0 -1.39288,2.72769 -2.73878,4.25727c-1.06625,1.21177 -4.69488,4.19084 -4.69488,4.19084" fill="#181818" stroke-linecap="round"/><path d="M249.38972,210.1848c1.75898,2.22328 1.38263,5.45155 -0.84067,7.21054c-2.22328,1.75898 -5.45154,1.38262 -7.21052,-0.84069c-1.75898,-2.22328 -1.38262,-5.45154 0.84067,-7.21054c2.22328,-1.75898 5.45154,-1.38264 7.21051,0.84067z" fill="#181818" stroke-linecap="butt"/></g></g></svg>