<svg version="1.1" xmlns="http://www.w3.org/2000/svg" xmlns:xlink="http://www.w3.org/1999/xlink" width="83.25795" height="105.17626" viewBox="0,0,83.25795,105.17626"><g transform="translate(-193.0333,-132.15066)"><g data-paper-data="{&quot;isPaintingLayer&quot;:true}" fill-rule="nonzero" stroke="#000000" stroke-width="2" stroke-linejoin="miter" stroke-miterlimit="10" stroke-dasharray="" stroke-dashoffset="0" style="mix-blend-mode: normal"><path d="M210.48715,204.30603l-5.5897,5.81255c0,0 -4.30058,-0.3925 -6.27259,-0.8454c-1.86721,-0.42883 -3.87206,-6.33841 -3.87206,-6.33841l3.61031,-4.22629c0,0 1.60085,4.4667 3.43138,5.31185c2.15699,0.99587 8.69263,0.28573 8.69263,0.28573z" fill="#cd2b2b" stroke-linecap="butt"/><path d="M248.70091,169.72179l-12.81096,22.12359l-6.79386,-3.93408l12.81096,-22.12359z" fill="#181818" stroke-linecap="butt"/><path d="M236.92148,194.3332l-12.30416,-7.53372l5.72391,-2.4089l-1.08415,-6.3512l15.45994,7.31703l-6.74205,3.04578z" fill="#0e0e0e" stroke-linecap="round"/><path d="M240.18073,165.8404c-1.59294,1.38725 -4.00886,1.2205 -5.3961,-0.37243c-1.38725,-1.59294 -1.2205,-4.00886 0.37243,-5.3961c1.59294,-1.38725 4.00886,-1.2205 5.3961,0.37243c1.38725,1.59294 1.2205,4.00886 -0.37243,5.3961z" fill="#181818" stroke-linecap="butt"/><path d="M233.47582,217.29334c-3.81773,8.33961 -13.6732,12.00532 -22.01281,8.18759c-8.33961,-3.81773 -12.00533,-13.67321 -8.1876,-22.01282c3.81773,-8.33961 13.67321,-12.00532 22.01281,-8.18759c8.33961,3.81773 12.00532,13.67321 8.18759,22.01281z" fill="#181818" stroke-linecap="butt"/><path d="M250.76661,136.18642c2.93379,-3.98353 5.90102,-3.52908 8.54178,-1.58419c2.64076,1.94487 2.40322,6.75078 -0.53057,10.73432c-2.93379,3.98353 -5.99409,6.71054 -8.63485,4.76567c-1.0199,-0.75114 -4.2201,-7.33889 0.62366,-13.91579z" data-paper-data="{&quot;index&quot;:null}" fill="#181818" stroke-linecap="butt"/><path d="M256.80924,174.14707c-1.59294,1.38725 -4.00886,1.2205 -5.3961,-0.37243c-1.38725,-1.59294 -1.2205,-4.00886 0.37243,-5.3961c1.59294,-1.38725 4.00886,-1.2205 5.3961,0.37243c1.38725,1.59294 1.2205,4.00886 -0.37243,5.3961z" fill="#181818" stroke-linecap="butt"/><path d="M266.67637,147.87886c4.01703,-2.88773 6.70053,-1.54244 8.61488,1.12054c1.91433,2.66298 0.20977,7.16273 -3.80729,10.05047c-4.01703,2.88773 -7.76789,4.54097 -9.68222,1.87799c-0.73934,-1.02848 -1.7576,-8.28128 4.87463,-13.04899z" data-paper-data="{&quot;index&quot;:null}" fill="#181818" stroke-linecap="butt"/><g><path d="M230.2509,222.3055l-3.48304,11.54913c0,0 -4.26872,4.59249 -15.26854,1.25894c-11.08339,-3.35888 -13.10214,-9.8151 -13.10214,-9.8151l3.48304,-11.54913c0,0 7.94837,5.89046 12.57703,7.28638c4.82044,1.45378 15.79365,1.26978 15.79365,1.26978z" fill="#343434" stroke-linecap="butt"/><path d="M239.38011,221.44998c0,0 -16.40012,2.16535 -24.45468,-0.26378c-8.25968,-2.491 -20.89213,-12.96803 -20.89213,-12.96803" fill="none" stroke-linecap="round"/></g><path d="M227.31883,220.47924c0,0 -2.37783,1.93035 -4.22772,2.78417c-1.46552,0.67641 -5.9895,1.93158 -5.9895,1.93158" fill="#181818" stroke-linecap="round"/><path d="M237.60583,214.46571c0.70841,2.74502 -0.94255,5.54461 -3.68759,6.25302c-2.74502,0.70841 -5.54459,-0.94257 -6.253,-3.68761c-0.70841,-2.74502 0.94257,-5.54459 3.68759,-6.25302c2.74502,-0.70841 5.54461,0.94255 6.253,3.68759z" fill="#181818" stroke-linecap="butt"/></g></g></svg>