<svg version="1.1" xmlns="http://www.w3.org/2000/svg" xmlns:xlink="http://www.w3.org/1999/xlink" width="102.63916" height="54.15371" viewBox="0,0,102.63916,54.15371"><g transform="translate(-196.49094,-172.39011)"><g data-paper-data="{&quot;isPaintingLayer&quot;:true}" fill-rule="nonzero" stroke="#000000" stroke-width="2" stroke-linejoin="miter" stroke-miterlimit="10" stroke-dasharray="" stroke-dashoffset="0" style="mix-blend-mode: normal"><path d="M224.80716,206.85696c2.05688,-0.48082 4.11407,0.79684 4.59489,2.85371c0.48082,2.05688 -0.79684,4.11407 -2.85371,4.59489c-2.05688,0.48082 -4.11407,-0.79684 -4.59489,-2.85371c-0.48082,-2.05688 0.79684,-4.11407 2.85371,-4.59489z" fill="#ffe819" stroke-linecap="butt"/><path d="M266.99608,195.09814c7.64177,-5.07224 17.94851,-2.98922 23.02074,4.65255c5.07224,7.64177 2.98922,17.94851 -4.65255,23.02074c-7.64177,5.07224 -17.94851,2.98922 -23.02074,-4.65255c-5.07224,-7.64177 -2.98922,-17.94851 4.65255,-23.02074z" fill="#ffe819" stroke-linecap="butt"/><path d="M256.58235,221.74131l-25.56505,-0.04151l0.01274,-7.85069l25.56505,0.04151z" data-paper-data="{&quot;index&quot;:null}" fill="#ffe819" stroke-linecap="butt"/><path d="M263.15133,179.89959c0,0 3.01791,0.52213 4.87759,1.3544c1.47326,0.65934 5.39374,3.24235 5.39374,3.24235" fill="none" stroke-linecap="round"/><path d="M253.881,175.62259c1.60227,-2.33874 4.79708,-2.93579 7.13584,-1.33352c2.33874,1.60227 2.93579,4.79708 1.33352,7.13584c-1.60227,2.33874 -4.79708,2.93579 -7.13584,1.33352c-2.33874,-1.60227 -2.93579,-4.79708 -1.33352,-7.13584z" fill="#ffe819" stroke-linecap="butt"/><path d="M212.82828,217.08972c-4.76422,-1.33331 -5.3898,-4.26923 -4.5059,-7.42754c0.88389,-3.1583 5.46258,-4.63776 10.22682,-3.30443c4.76422,1.33331 8.39812,3.22984 7.51424,6.38815c-0.34137,1.21979 -5.3693,6.54518 -13.23515,4.34383z" data-paper-data="{&quot;index&quot;:null}" fill="#ffe819" stroke-linecap="butt"/><path d="M264.53073,191.29872l11.30481,-1.6271l-5.06914,-10.4965c0,0 17.33709,4.78317 23.77497,13.2264c6.43787,8.44322 2.24981,20.90487 2.24981,20.90487z" data-paper-data="{&quot;index&quot;:null}" fill="#fff067" stroke-linecap="butt"/><path d="M203.21059,217.76866c-4.91796,-0.53777 -6.01437,-3.3322 -5.65786,-6.59244c0.3565,-3.26023 4.6323,-5.46721 9.55028,-4.92943c4.91796,0.53777 8.81269,1.81571 8.4562,5.07593c-0.13769,1.25916 -4.22892,7.33382 -12.34861,6.44593z" data-paper-data="{&quot;index&quot;:null}" fill="#ffe819" stroke-linecap="butt"/><path d="M216.07904,200.66721c2.05688,-0.48082 4.11407,0.79684 4.59489,2.85371c0.48082,2.05688 -0.79684,4.11407 -2.85371,4.59489c-2.05688,0.48082 -4.11407,-0.79684 -4.59489,-2.85371c-0.48082,-2.05688 0.79684,-4.11407 2.85371,-4.59489z" fill="#ffe819" stroke-linecap="butt"/></g></g></svg>