<svg version="1.1" xmlns="http://www.w3.org/2000/svg" xmlns:xlink="http://www.w3.org/1999/xlink" width="94.18277" height="86.01825" viewBox="0,0,94.18277,86.01825"><defs><linearGradient x1="262.17569" y1="183.03157" x2="195.42752" y2="219.66108" gradientUnits="userSpaceOnUse" id="color-1"><stop offset="0" stop-color="#ff0000" stop-opacity="0"/><stop offset="1" stop-color="#ff0000"/></linearGradient></defs><g transform="translate(-188.30711,-154.40909)"><g data-paper-data="{&quot;isPaintingLayer&quot;:true}" fill-rule="nonzero" stroke-linejoin="miter" stroke-miterlimit="10" stroke-dasharray="" stroke-dashoffset="0" style="mix-blend-mode: normal"><path d="M264.68053,186.7838c0,-2.11232 1.71238,-3.8247 3.8247,-3.8247c2.11232,0 3.8247,1.71238 3.8247,3.8247c0,2.11232 -1.71238,3.8247 -3.8247,3.8247c-2.11232,0 -3.8247,-1.71238 -3.8247,-3.8247z" fill="#181818" stroke="#000000" stroke-width="2" stroke-linecap="butt"/><path d="M233.02465,208.3871l4.59306,-25.14911l7.72296,1.41047l-4.59306,25.14911z" fill="#181818" stroke="#000000" stroke-width="2" stroke-linecap="butt"/><path d="M219.90641,214.34388c4.11347,0 7.4481,2.47844 7.4481,5.53575c0,3.05731 -3.33463,5.53575 -7.4481,5.53575c-4.11347,0 -7.4481,-2.47844 -7.4481,-5.53575c0,-3.05731 3.33463,-5.53575 7.4481,-5.53575z" data-paper-data="{&quot;index&quot;:null}" fill="#181818" stroke="#000000" stroke-width="2" stroke-linecap="butt"/><path d="M258.91935,213.94128c4.94728,0 6.34095,2.65869 6.34095,5.93835c0,3.27966 -4.01056,5.93835 -8.95785,5.93835c-4.94728,0 -8.95785,-0.84699 -8.95785,-4.12665c0,-1.26666 3.40667,-7.75005 11.57475,-7.75005z" data-paper-data="{&quot;index&quot;:null}" fill="#181818" stroke="#000000" stroke-width="2" stroke-linecap="butt"/><path d="M235.80709,181.24424l14.13411,2.88832l-4.44483,3.48574l3.29428,4.89915l-16.98508,-1.87418l5.16037,-4.27595z" fill="#0e0e0e" stroke="#000000" stroke-width="2" stroke-linecap="round"/><path d="M208.63232,197.65548c0,-2.11232 1.71238,-3.8247 3.8247,-3.8247c2.11232,0 3.8247,1.71238 3.8247,3.8247c0,2.11232 -1.71238,3.8247 -3.8247,3.8247c-2.11232,0 -3.8247,-1.71238 -3.8247,-3.8247z" fill="#181818" stroke="#000000" stroke-width="2" stroke-linecap="butt"/><path d="M224.92583,161.35521c0,0 3.00193,-0.60728 5.03682,-0.5057c1.61207,0.08048 6.2022,1.06677 6.2022,1.06677" fill="#181818" stroke="#000000" stroke-width="2" stroke-linecap="round"/><path d="M214.36266,160.75683c0.64558,-2.76047 3.40672,-4.47496 6.1672,-3.82937c2.76047,0.64558 4.47496,3.40672 3.82937,6.1672c-0.64558,2.76047 -3.40672,4.47496 -6.1672,3.82937c-2.76047,-0.64558 -4.47496,-3.40672 -3.82937,-6.1672z" fill="#181818" stroke="#000000" stroke-width="2" stroke-linecap="butt"/><path d="M234.47477,174.85772c0,-9.17193 7.43532,-16.60724 16.60724,-16.60724c9.17193,0 16.60724,7.43532 16.60724,16.60724c0,9.17193 -7.43532,16.60724 -16.60724,16.60724c-9.17193,0 -16.60724,-7.43532 -16.60724,-16.60724z" fill="#181818" stroke="#000000" stroke-width="2" stroke-linecap="butt"/><path d="M248.46768,186.26402v-5.24474c0,0 6.02695,1.72595 8.9956,1.72595c3.10679,0 9.24958,-1.72595 9.24958,-1.72595v5.24474z" fill="#ff0000" stroke="#000000" stroke-width="2" stroke-linecap="butt"/><g stroke="#000000" stroke-width="2"><g><path d="M233.44043,178.00261l2.2434,-17.82882c0,0 11.34062,4.49088 17.04853,5.32644c5.99381,0.87741 18.09853,-0.1814 18.09853,-0.1814l-2.2434,17.82882c0,0 -12.16873,0.24064 -17.9986,-0.61276c-5.88528,-0.86152 -17.14846,-4.53228 -17.14846,-4.53228z" fill="#343434" stroke-linecap="butt"/><path d="M281.48988,183.82319c0,0 -19.9039,0.7259 -29.92654,-0.74127c-10.19187,-1.49194 -30.72549,-8.13735 -30.72549,-8.13735" fill="none" stroke-linecap="round"/></g><path d="M271.40137,163.61251c-0.34493,2.74128 -8.57449,3.79976 -18.38123,2.36419c-9.80674,-1.43557 -17.47704,-4.82157 -17.1321,-7.56285c0.34493,-2.74128 8.57449,-3.79976 18.38122,-2.36419c9.80674,1.43557 17.47705,4.82157 17.13211,7.56285z" fill="#252525" stroke-linecap="butt"/></g><path d="M188.34107,193.7117c0.28309,-6.55781 22.52028,-15.08897 24.41266,-13.39698c3.69626,3.30488 4.62459,8.42715 8.49273,15.47587c0.758,1.38127 36.28911,-20.94473 41.26275,-12.15019c6.57467,11.62552 -34.53987,24.40096 -33.60733,26.10029c4.48932,8.18066 8.57563,13.21951 9.33004,17.00166c0.50135,2.51345 -20.35596,15.79405 -24.41266,13.39698c-9.50489,-5.61636 -26.3696,-25.77891 -25.47818,-46.42765z" fill="url(#color-1)" stroke="none" stroke-width="0" stroke-linecap="butt"/></g></g></svg>