<svg version="1.1" xmlns="http://www.w3.org/2000/svg" xmlns:xlink="http://www.w3.org/1999/xlink" width="92.33791" height="99.47218" viewBox="0,0,92.33791,99.47218"><g transform="translate(-193.92755,-125.58553)"><g data-paper-data="{&quot;isPaintingLayer&quot;:true}" fill-rule="nonzero" stroke-linejoin="miter" stroke-miterlimit="10" stroke-dasharray="" stroke-dashoffset="0" style="mix-blend-mode: normal"><path d="M222.52629,158.61801l-4.80041,2.77751l9.45885,2.82632l-4.91254,2.80027l8.21778,4.0641l-5.7888,7.14329l-11.09309,-9.57926l3.67436,-1.67987l-9.1803,-4.16506l4.48042,-1.71691l-10.43079,-6.10076l3.34795,-0.71358l-11.57217,-7.3835l19.75895,6.21955l-3.9538,1.59774l12.7936,3.91017" data-paper-data="{&quot;index&quot;:null}" fill="#fff200" stroke="none" stroke-width="0.66342" stroke-linecap="butt"/><path d="M252.81907,192.46329c0,-2.11232 1.71238,-3.8247 3.8247,-3.8247c2.11232,0 3.8247,1.71238 3.8247,3.8247c0,2.11232 -1.71238,3.8247 -3.8247,3.8247c-2.11232,0 -3.8247,-1.71238 -3.8247,-3.8247z" fill="#ffe819" stroke="#000000" stroke-width="2" stroke-linecap="butt"/><path d="M231.63232,200.03948l8.70977,-24.03568l7.38104,2.67466l-8.70977,24.03568z" fill="#ffe819" stroke="#000000" stroke-width="2" stroke-linecap="butt"/><path d="M210.39864,160.03251c0,-2.11232 1.71238,-3.8247 3.8247,-3.8247c2.11232,0 3.8247,1.71238 3.8247,3.8247c0,2.11232 -1.71238,3.8247 -3.8247,3.8247c-2.11232,0 -3.8247,-1.71238 -3.8247,-3.8247z" fill="#ffe819" stroke="#000000" stroke-width="2" stroke-linecap="butt"/><path d="M261.87883,209.45075c3.54001,-3.456 6.39451,-2.52715 8.68557,-0.1804c2.29106,2.34675 1.27858,7.05081 -2.26144,10.50681c-3.54001,3.456 -7.00143,5.65158 -9.29249,3.30483c-0.88484,-0.90636 -2.97628,-7.9253 2.86836,-13.63123z" data-paper-data="{&quot;index&quot;:null}" fill="#ffe819" stroke="#000000" stroke-width="2" stroke-linecap="butt"/><path d="M244.99699,204.83762c-3.67147,3.74058 -8.5315,4.924 -10.8552,2.64323c-2.32369,-2.28076 -1.23111,-7.16202 2.44036,-10.90261c3.67147,-3.74058 7.52426,-3.8978 9.84796,-1.61704c2.32369,2.28076 2.23835,6.13582 -1.43312,9.8764z" fill="#ffe819" stroke="#000000" stroke-width="2" stroke-linecap="butt"/><path d="M250.55324,159.7052c4.96202,-7.7138 15.23779,-9.94455 22.95158,-4.98254c7.7138,4.96202 9.94455,15.23779 4.98254,22.95158c-4.96202,7.7138 -15.23779,9.94455 -22.95158,4.98254c-7.7138,-4.96202 -9.94455,-15.23779 -4.98254,-22.95158z" fill="#ffe819" stroke="#000000" stroke-width="2" stroke-linecap="butt"/><path d="M246.52665,134.34077c0,0 2.78286,1.27908 4.36669,2.56071c1.25473,1.01533 4.38108,4.51789 4.38108,4.51789" fill="none" stroke="#000000" stroke-width="2" stroke-linecap="round"/><path d="M238.66428,127.82807c2.14877,-1.84927 5.38982,-1.60647 7.23909,0.5423c1.84927,2.14877 1.60647,5.38982 -0.5423,7.23909c-2.14877,1.84927 -5.38982,1.60647 -7.23909,-0.5423c-1.84927,-2.14877 -1.60647,-5.38982 0.5423,-7.23909z" fill="#ffe819" stroke="#000000" stroke-width="2" stroke-linecap="butt"/><path d="M246.76976,157.21544l9.70013,-6.0294l-4.12043,-15.47301c0,0 13.06189,5.31452 22.3482,10.46219c9.28631,5.14767 10.45443,18.24226 10.45443,18.24226z" data-paper-data="{&quot;index&quot;:null}" fill="#fff067" stroke="#000000" stroke-width="2" stroke-linecap="butt"/></g></g></svg>