<svg version="1.1" xmlns="http://www.w3.org/2000/svg" xmlns:xlink="http://www.w3.org/1999/xlink" width="83.70558" height="66.85185" viewBox="0,0,83.70558,66.85185"><g transform="translate(-214.71165,-160.74538)"><g data-paper-data="{&quot;isPaintingLayer&quot;:true}" fill-rule="nonzero" stroke="#000000" stroke-width="2" stroke-linejoin="miter" stroke-miterlimit="10" stroke-dasharray="" stroke-dashoffset="0" style="mix-blend-mode: normal"><path d="M258.98417,205.54695c0,-2.11232 1.71238,-3.8247 3.8247,-3.8247c2.11232,0 3.8247,1.71238 3.8247,3.8247c0,2.11232 -1.71238,3.8247 -3.8247,3.8247c-2.11232,0 -3.8247,-1.71238 -3.8247,-3.8247z" fill="#e80000" stroke-linecap="butt"/><path d="M263.86288,175.23122c0,0 -4.64421,0.6881 -6.25811,0.6644c-2.03721,-0.02992 -4.99369,-0.82962 -4.99369,-0.82962" data-paper-data="{&quot;index&quot;:null}" fill="none" stroke-linecap="round"/><path d="M246.62102,169.12582c2.79638,-0.46614 5.44115,1.42291 5.90729,4.21929c0.46614,2.79638 -1.42291,5.44115 -4.21929,5.90729c-2.79638,0.46614 -5.44115,-1.42291 -5.90729,-4.21929c-0.46614,-2.79638 1.42291,-5.44115 4.21929,-5.90729z" data-paper-data="{&quot;index&quot;:null}" fill="#e80000" stroke-linecap="butt"/><path d="M264.20275,178.35262c0,-9.17193 7.43532,-16.60724 16.60724,-16.60724c9.17193,0 16.60724,7.43532 16.60724,16.60724c0,9.17193 -7.43532,16.60724 -16.60724,16.60724c-9.17193,0 -16.60724,-7.43532 -16.60724,-16.60724z" fill="#e80000" stroke-linecap="butt"/><path d="M236.30245,203.66464l19.83772,-16.12572l4.95199,6.0919l-19.83772,16.12572z" fill="#e80000" stroke-linecap="butt"/><path d="M224.73123,194.27984c0,-2.11232 1.71238,-3.8247 3.8247,-3.8247c2.11232,0 3.8247,1.71238 3.8247,3.8247c0,2.11232 -1.71238,3.8247 -3.8247,3.8247c-2.11232,0 -3.8247,-1.71238 -3.8247,-3.8247z" fill="#e80000" stroke-linecap="butt"/><path d="M254.26951,214.77501c4.94619,0.10377 6.28379,2.79111 6.215,6.07004c-0.06879,3.27894 -4.13424,5.85292 -9.08044,5.74915c-4.94619,-0.10377 -8.93811,-1.0347 -8.86933,-4.31364c0.02657,-1.26638 3.56849,-7.67688 11.73477,-7.50557z" data-paper-data="{&quot;index&quot;:null}" fill="#e80000" stroke-linecap="butt"/><path d="M263.12701,176.8756l-1.3957,-5.42329l32.34602,-8.32434l1.3957,5.42328z" fill="#ff2121" stroke-linecap="butt"/><path d="M221.24753,214.90207c-4.89711,-0.70273 -5.89901,-3.53242 -5.43317,-6.77881c0.46585,-3.24641 4.81339,-5.30847 9.71052,-4.60573c4.89711,0.70273 8.74672,2.11079 8.28087,5.35722c-0.17993,1.25381 -4.47297,7.18757 -12.55823,6.02736z" data-paper-data="{&quot;index&quot;:null}" fill="#e80000" stroke-linecap="butt"/></g></g></svg>