<svg version="1.1" xmlns="http://www.w3.org/2000/svg" xmlns:xlink="http://www.w3.org/1999/xlink" width="71.42125" height="64.12404" viewBox="0,0,71.42125,64.12404"><g transform="translate(-212.16919,-149.07133)"><g data-paper-data="{&quot;isPaintingLayer&quot;:true}" fill-rule="nonzero" stroke="#000000" stroke-width="2" stroke-linejoin="miter" stroke-miterlimit="10" stroke-dasharray="" stroke-dashoffset="0" style="mix-blend-mode: normal"><path d="M250.95601,157.51751c0.17858,-2.10475 2.02956,-3.66625 4.13433,-3.48768c2.10475,0.17858 3.66625,2.02956 3.48768,4.13433c-0.17858,2.10475 -2.02956,3.66625 -4.13433,3.48768c-2.10475,-0.17858 -3.66625,-2.02956 -3.48768,-4.13433z" data-paper-data="{&quot;index&quot;:null}" fill="#ffe819" stroke-linecap="butt"/><path d="M225.13569,188.73633c0,0 1.42977,8.66719 3.39649,10.35622c1.9777,1.69846 11.76679,2.06985 11.76679,2.06985l-0.69046,6.58772c0,0 -10.75899,1.95853 -15.7277,-1.93887c-4.96871,-3.8974 -5.93523,-15.05329 -5.93523,-15.05329z" data-paper-data="{&quot;index&quot;:null}" fill="#ffe819" stroke-linecap="butt"/><path d="M227.53618,172.13533c-4.69741,6.6822 -11.96054,5.74058 -12.99679,5.01213c-2.68303,-1.88611 -1.06949,-5.6542 1.77567,-9.70151c2.84517,-4.04732 7.32665,-5.7993 10.0097,-3.91318c2.68306,1.88612 4.0566,4.55526 1.21144,8.60257z" data-paper-data="{&quot;index&quot;:null}" fill="#ffe819" stroke-linecap="butt"/><path d="M234.82767,165.66116c-7.6164,2.95091 -13.13526,-1.86384 -13.59288,-3.04495c-1.18484,-3.05814 2.24884,-5.29685 6.86199,-7.08418c4.61315,-1.78733 9.31335,-0.75712 10.49821,2.30103c1.18485,3.05816 0.84584,6.04077 -3.76731,7.8281z" data-paper-data="{&quot;index&quot;:null}" fill="#ffe819" stroke-linecap="butt"/><path d="M243.28932,153.57292c0.17858,-2.10475 2.02956,-3.66625 4.13433,-3.48768c2.10475,0.17858 3.66625,2.02956 3.48768,4.13433c-0.17858,2.10475 -2.02956,3.66625 -4.13433,3.48768c-2.10475,-0.17858 -3.66625,-2.02956 -3.48768,-4.13433z" data-paper-data="{&quot;index&quot;:null}" fill="#ffe819" stroke-linecap="butt"/><path d="M242.86796,197.04893c-5.84935,-7.06464 -4.8642,-17.53352 2.20044,-23.38288c7.06464,-5.84935 17.53352,-4.8642 23.38288,2.20044c5.84935,7.06464 4.8642,17.53352 -2.20044,23.38288c-7.06464,5.84937 -17.53352,4.8642 -23.38288,-2.20044z" data-paper-data="{&quot;index&quot;:null}" fill="#ffe819" stroke-linecap="butt"/><path d="M279.00171,194.36393c0,0 -0.72016,4.63936 -1.22141,6.17362c-0.63272,1.93668 -2.27324,4.52301 -2.27324,4.52301" data-paper-data="{&quot;index&quot;:null}" fill="none" stroke-linecap="round"/><path d="M272.06746,212.13735c-2.80881,-0.38415 -4.77438,-2.97254 -4.39025,-5.78137c0.38415,-2.80881 2.97254,-4.77438 5.78137,-4.39025c2.80881,0.38415 4.77438,2.97254 4.39025,5.78137c-0.38414,2.8088 -2.97253,4.77437 -5.78136,4.39024z" data-paper-data="{&quot;index&quot;:null}" fill="#ffe819" stroke-linecap="butt"/><path d="M257.43245,165.46294c0,0 13.14028,-0.40712 19.36214,8.19652c6.22186,8.60364 5.7894,26.58326 5.7894,26.58326l-8.58314,-7.88686l-4.8254,10.35189z" data-paper-data="{&quot;index&quot;:null}" fill="#fff067" stroke-linecap="butt"/></g></g></svg>