<svg version="1.1" xmlns="http://www.w3.org/2000/svg" xmlns:xlink="http://www.w3.org/1999/xlink" width="105.83633" height="65.35592" viewBox="0,0,105.83633,65.35592"><g transform="translate(-189.24487,-160.58557)"><g data-paper-data="{&quot;isPaintingLayer&quot;:true}" fill-rule="nonzero" stroke="#000000" stroke-width="2" stroke-linejoin="miter" stroke-miterlimit="10" stroke-dasharray="" stroke-dashoffset="0" style="mix-blend-mode: normal"><path d="M216.0308,210.09131c7.70413,-2.71367 13.07127,2.26968 13.49208,3.46439c1.08958,3.09337 -2.41178,5.22468 -7.07805,6.8683c-4.66629,1.64363 -9.33235,0.46835 -10.42193,-2.62501c-1.08959,-3.09337 -0.65837,-6.06407 4.0079,-7.70769z" data-paper-data="{&quot;index&quot;:null}" fill="#2d6a2b" stroke-linecap="butt"/><path d="M242.59018,214.61344l-23.75466,-9.44933l2.90176,-7.29474l23.75466,9.44933z" fill="#2d6a2b" stroke-linecap="butt"/><path d="M215.93539,221.11679c0,-2.11232 1.71238,-3.8247 3.8247,-3.8247c2.11232,0 3.8247,1.71238 3.8247,3.8247c0,2.11232 -1.71238,3.8247 -3.8247,3.8247c-2.11232,0 -3.8247,-1.71238 -3.8247,-3.8247z" fill="#2d6a2b" stroke-linecap="butt"/><path d="M214.23552,187.91322c-0.20531,-2.10232 1.33252,-3.97303 3.43484,-4.17834c2.10232,-0.20531 3.97303,1.33252 4.17834,3.43484c0.20531,2.10232 -1.33252,3.97303 -3.43484,4.17834c-2.10232,0.20531 -3.97303,-1.33252 -4.17834,-3.43484z" fill="#2d6a2b" stroke-linecap="butt"/><path d="M193.97071,184.8017c-1.20434,-9.09252 5.1903,-17.43976 14.28281,-18.64409c9.09252,-1.20434 17.43976,5.1903 18.64409,14.28281c1.20434,9.09252 -5.1903,17.43976 -14.28281,18.64409c-9.09252,1.20434 -17.43976,-5.1903 -18.64409,-14.28281z" fill="#2d6a2b" stroke-linecap="butt"/><path d="M202.48964,164.8131c13.98439,-7.45514 23.19532,0.33983 23.19532,0.33983l-35.18734,21.02254c0,0 -3.04348,-13.34686 11.99202,-21.36237z" fill="#367e33" stroke-linecap="round"/><path d="M216.72333,166.34987l-10.80415,7.66625" data-paper-data="{&quot;index&quot;:null}" fill="none" stroke-linecap="round"/><path d="M200.78743,179.50163c-1.8814,-2.1207 -1.6874,-5.36503 0.43328,-7.24643c2.1207,-1.8814 5.36503,-1.6874 7.24643,0.43328c1.8814,2.1207 1.6874,5.36503 -0.43328,7.24643c-2.1207,1.8814 -5.36503,1.6874 -7.24643,-0.43328z" data-paper-data="{&quot;index&quot;:null}" fill="#2d6a2b" stroke-linecap="butt"/><path d="M279.6534,205.89914c-2.95607,-3.96702 -1.6569,-6.67316 0.97292,-8.6328c2.62981,-1.95964 7.15809,-0.33234 10.11416,3.63469c2.95607,3.96702 4.67325,7.68902 2.04344,9.64866c-1.01568,0.75685 -8.24998,1.89909 -13.13052,-4.65057z" data-paper-data="{&quot;index&quot;:null}" fill="#2d6a2b" stroke-linecap="butt"/></g></g></svg>