<svg version="1.1" xmlns="http://www.w3.org/2000/svg" xmlns:xlink="http://www.w3.org/1999/xlink" width="80.27992" height="74.14438" viewBox="0,0,80.27992,74.14438"><g transform="translate(-215.1763,-151.73173)"><g data-paper-data="{&quot;isPaintingLayer&quot;:true}" fill-rule="nonzero" stroke="#000000" stroke-width="2" stroke-linejoin="miter" stroke-miterlimit="10" stroke-dasharray="" stroke-dashoffset="0" style="mix-blend-mode: normal"><path d="M264.48026,195.80283c0,-2.11232 1.71238,-3.8247 3.8247,-3.8247c2.11232,0 3.8247,1.71238 3.8247,3.8247c0,2.11232 -1.71238,3.8247 -3.8247,3.8247c-2.11232,0 -3.8247,-1.71238 -3.8247,-3.8247z" fill="#181818" stroke-linecap="butt"/><path d="M242.68251,158.83213c0,0 3.04136,-0.36129 5.06126,-0.09465c1.6002,0.21124 6.09498,1.56733 6.09498,1.56733" fill="#181818" stroke-linecap="round"/><path d="M232.20292,157.3772c0.8678,-2.69887 3.75916,-4.18327 6.45803,-3.31545c2.69887,0.8678 4.18327,3.75916 3.31545,6.45803c-0.8678,2.69887 -3.75916,4.18327 -6.45803,3.31545c-2.69887,-0.8678 -4.18327,-3.75916 -3.31545,-6.45803z" fill="#181818" stroke-linecap="butt"/><path d="M252.18418,173.31321c0,-9.17193 7.43532,-16.60724 16.60724,-16.60724c9.17193,0 16.60724,7.43532 16.60724,16.60724c0,9.17193 -7.43532,16.60724 -16.60724,16.60724c-9.17193,0 -16.60724,-7.43532 -16.60724,-16.60724z" fill="#181818" stroke-linecap="butt"/><path d="M231.45249,202.05884l18.07725,-18.07725l5.55128,5.55128l-18.07725,18.07725z" fill="#181818" stroke-linecap="butt"/><path d="M243.68261,212.96251c4.94676,-0.07214 6.37905,2.56594 6.42686,5.84525c0.04783,3.27931 -3.92354,5.9962 -8.8703,6.06835c-4.94676,0.07214 -8.96925,-0.71628 -9.01707,-3.99558c-0.01848,-1.26653 3.2933,-7.7989 11.4605,-7.91801z" data-paper-data="{&quot;index&quot;:null}" fill="#181818" stroke-linecap="butt"/><path d="M267.61514,176.94621v-5.24474h19.39678v5.24474z" fill="#ff0000" stroke-linecap="butt"/><path d="M249.17381,181.312l9.98511,10.41216l-5.63835,0.34035l-0.07546,5.90325l-12.90703,-11.19883l6.67627,-0.58358z" fill="#0e0e0e" stroke-linecap="round"/><g><path d="M254.07168,164.79464v-12.06291h29.6328v12.06291z" fill="#343434" stroke-linecap="butt"/><path d="M243.31996,164.79464h51.13626" fill="none" stroke-linecap="round"/></g><path d="M233.99165,195.79155c0,-2.11232 1.71238,-3.8247 3.8247,-3.8247c2.11232,0 3.8247,1.71238 3.8247,3.8247c0,2.11232 -1.71238,3.8247 -3.8247,3.8247c-2.11232,0 -3.8247,-1.71238 -3.8247,-3.8247z" fill="#181818" stroke-linecap="butt"/><path d="M222.21532,213.85655c-4.94061,-0.25676 -6.19443,-2.98421 -6.02421,-6.25945c0.17023,-3.27524 4.31336,-5.7222 9.25398,-5.46542c4.94062,0.25677 8.90183,1.31076 8.7316,4.586c-0.06573,1.26495 -3.8043,7.5628 -11.96137,7.13888z" data-paper-data="{&quot;index&quot;:null}" fill="#181818" stroke-linecap="butt"/></g></g></svg>