<svg version="1.1" xmlns="http://www.w3.org/2000/svg" xmlns:xlink="http://www.w3.org/1999/xlink" width="141.2917" height="81.86632" viewBox="0,0,141.2917,81.86632"><defs><linearGradient x1="269.98707" y1="187.70641" x2="337.18329" y2="177.24385" gradientUnits="userSpaceOnUse" id="color-1"><stop offset="0" stop-color="#ffffff" stop-opacity="0"/><stop offset="1" stop-color="#ffffff"/></linearGradient></defs><g transform="translate(-195.50111,-144.81609)"><g data-paper-data="{&quot;isPaintingLayer&quot;:true}" fill-rule="nonzero" stroke-linejoin="miter" stroke-miterlimit="10" stroke-dasharray="" stroke-dashoffset="0" style="mix-blend-mode: normal"><path d="M234.55862,155.43892c0,0 3.64873,-2.95443 5.05037,-3.75485c1.76928,-1.01034 4.72156,-1.82544 4.72156,-1.82544" data-paper-data="{&quot;index&quot;:null}" fill="none" stroke="#000000" stroke-width="2" stroke-linecap="round"/><path d="M250.00913,153.67666c-2.17064,1.82354 -5.40856,1.54217 -7.23211,-0.62846c-1.82354,-2.17064 -1.54217,-5.40856 0.62846,-7.23211c2.17064,-1.82354 5.40856,-1.54217 7.23211,0.62846c1.82354,2.17064 1.54217,5.40856 -0.62846,7.23211z" data-paper-data="{&quot;index&quot;:null}" fill="#2d6a2b" stroke="#000000" stroke-width="2" stroke-linecap="butt"/><path d="M202.65886,163.00922c2.36188,-8.86262 11.46114,-14.13248 20.32371,-11.77061c8.86262,2.36188 14.13248,11.46114 11.77061,20.32371c-2.36188,8.86262 -11.46113,14.13247 -20.32372,11.77061c-8.86262,-2.36188 -14.13248,-11.46112 -11.77061,-20.32371z" data-paper-data="{&quot;index&quot;:null}" fill="#2d6a2b" stroke="#000000" stroke-width="2" stroke-linecap="butt"/><path d="M217.38056,148.74801c16.83824,-2.60538 20.39079,10.67054 20.39079,10.67054l-40.76429,4.28587c0,0 4.71242,-12.53315 20.37353,-14.95641z" data-paper-data="{&quot;index&quot;:null}" fill="#367e33" stroke="#000000" stroke-width="2" stroke-linecap="round"/><path d="M235.67368,206.55592l-9.53672,-23.7197l7.284,-2.9286l9.53672,23.71971z" data-paper-data="{&quot;index&quot;:null}" fill="#2d6a2b" stroke="#000000" stroke-width="2" stroke-linecap="butt"/><path d="M260.34952,213.38272c4.93244,-0.38296 6.52773,2.15988 6.7816,5.4297c0.25387,3.26982 -3.53887,6.23098 -8.4713,6.61393c-4.93244,0.38296 -8.99653,-0.15105 -9.2504,-3.42087c-0.09805,-1.26286 2.79655,-7.9905 10.94011,-8.62276z" data-paper-data="{&quot;index&quot;:null}" fill="#2d6a2b" stroke="#000000" stroke-width="2" stroke-linecap="butt"/><path d="M228.00718,214.61091c4.11347,0 7.4481,2.47844 7.4481,5.53575c0,3.05731 -3.33463,5.53575 -7.4481,5.53575c-4.11347,0 -7.4481,-2.47844 -7.4481,-5.53575c0,-3.05731 3.33463,-5.53575 7.4481,-5.53575z" data-paper-data="{&quot;index&quot;:null}" fill="#2d6a2b" stroke="#000000" stroke-width="2" stroke-linecap="butt"/><path d="M311.69548,180.37871c-10.90423,2.71868 -42.98319,5.80847 -42.98319,5.80847c0,0 19.92171,-6.36129 32.86703,-9.73421c12.94532,-3.37291 30.79026,-14.50814 34.57515,-9.00572c1.99094,2.8944 0.70151,6.65835 -24.45899,12.93145z" data-paper-data="{&quot;index&quot;:null}" fill="url(#color-1)" stroke="none" stroke-width="0" stroke-linecap="round"/><g data-paper-data="{&quot;index&quot;:null}" stroke="#61ff00" stroke-width="3" stroke-linecap="round"><path d="M330.68693,167.39561c0,0 -28.08995,7.61716 -40.80502,10.61675c-11.40135,2.68968 -31.97483,6.55259 -31.97483,6.55259" fill="none"/><path d="M304.97384,173.61619c0,0 -13.83504,0.92361 -16.67467,-1.3641c-2.8396,-2.28773 1.6177,-3.84847 1.6177,-3.84847z" fill="#61ff00"/><path d="M275.47793,187.92814c0,0 -4.70556,-0.62396 -2.44515,-3.43308c2.26041,-2.80912 15.98519,-4.70312 15.98519,-4.70312z" data-paper-data="{&quot;index&quot;:null}" fill="#61ff00"/><path d="M310.38368,177.63394c0,0 -3.96009,-0.54313 -2.02218,-2.90821c1.93792,-2.36509 13.53091,-3.91795 13.53091,-3.91795z" data-paper-data="{&quot;index&quot;:null}" fill="#61ff00"/></g><path d="M251.38011,183.55348c0.26753,-2.09531 2.18299,-3.57703 4.2783,-3.3095c2.09531,0.26753 3.57703,2.18299 3.3095,4.2783c-0.26753,2.09531 -2.18299,3.57703 -4.2783,3.3095c-2.09531,-0.26753 -3.57703,-2.18299 -3.3095,-4.2783z" data-paper-data="{&quot;index&quot;:null}" fill="#2d6a2b" stroke="#000000" stroke-width="2" stroke-linecap="butt"/><path d="M255.5881,184.36306c0.26753,-2.09531 2.18299,-3.57703 4.2783,-3.3095c2.09531,0.26753 3.57703,2.18299 3.3095,4.2783c-0.26753,2.09531 -2.18299,3.57703 -4.2783,3.3095c-2.09531,-0.26753 -3.57703,-2.18299 -3.3095,-4.2783z" data-paper-data="{&quot;index&quot;:null}" fill="#2d6a2b" stroke="#000000" stroke-width="2" stroke-linecap="butt"/></g></g></svg>