<svg version="1.1" xmlns="http://www.w3.org/2000/svg" xmlns:xlink="http://www.w3.org/1999/xlink" width="64.35479" height="82.09756" viewBox="0,0,64.35479,82.09756"><g transform="translate(-199.33879,-143.72636)"><g data-paper-data="{&quot;isPaintingLayer&quot;:true}" fill-rule="nonzero" stroke="#000000" stroke-width="2" stroke-linejoin="miter" stroke-miterlimit="10" stroke-dasharray="" stroke-dashoffset="0" style="mix-blend-mode: normal"><path d="M218.02143,161.3336c0,-9.17193 7.43532,-16.60724 16.60724,-16.60724c9.17193,0 16.60724,7.43532 16.60724,16.60724c0,9.17193 -7.43532,16.60724 -16.60724,16.60724c-9.17193,0 -16.60724,-7.43532 -16.60724,-16.60724z" fill="#e80000" stroke-linecap="butt"/><path d="M216.94568,159.85658l-1.3957,-5.42329l32.34602,-8.32434l1.3957,5.42328z" fill="#ff2121" stroke-linecap="butt"/><path d="M209.79788,155.31002c0,0 2.96513,-0.76702 5.00254,-0.77447c1.61406,-0.00589 6.25039,0.7334 6.25039,0.7334" fill="none" stroke-linecap="round"/><path d="M200.33879,154.73025c0.49696,-2.79107 3.16241,-4.65081 5.95348,-4.15386c2.79107,0.49696 4.65081,3.16241 4.15386,5.95348c-0.49696,2.79107 -3.16241,4.65081 -5.95348,4.15386c-2.79107,-0.49696 -4.65081,-3.16241 -4.15386,-5.95348z" fill="#e80000" stroke-linecap="butt"/><path d="M239.77776,206.67168l-7.64954,-24.39382l7.49102,-2.34906l7.64954,24.39382z" fill="#e80000" stroke-linecap="butt"/><path d="M217.34244,188.22397c0,-2.11232 1.71238,-3.8247 3.8247,-3.8247c2.11232,0 3.8247,1.71238 3.8247,3.8247c0,2.11232 -1.71238,3.8247 -3.8247,3.8247c-2.11232,0 -3.8247,-1.71238 -3.8247,-3.8247z" fill="#e80000" stroke-linecap="butt"/><path d="M255.04418,198.9685c0,-2.11232 1.71238,-3.8247 3.8247,-3.8247c2.11232,0 3.8247,1.71238 3.8247,3.8247c0,2.11232 -1.71238,3.8247 -3.8247,3.8247c-2.11232,0 -3.8247,-1.71238 -3.8247,-3.8247z" fill="#e80000" stroke-linecap="butt"/><path d="M223.43278,213.75242c4.11347,0 7.4481,2.47844 7.4481,5.53575c0,3.05731 -3.33463,5.53575 -7.4481,5.53575c-4.11347,0 -7.4481,-2.47844 -7.4481,-5.53575c0,-3.05731 3.33463,-5.53575 7.4481,-5.53575z" data-paper-data="{&quot;index&quot;:null}" fill="#e80000" stroke-linecap="butt"/><path d="M241.4445,216.08425c-1.62211,2.85043 -5.52671,1.60295 -9.8265,-0.84395c-4.29981,-2.44691 -6.47049,-6.74125 -4.84839,-9.59167c1.6221,-2.85042 4.14835,-4.47185 8.44814,-2.02495c7.09907,4.03989 6.85323,11.35968 6.22675,12.46057z" data-paper-data="{&quot;index&quot;:null}" fill="#e80000" stroke-linecap="butt"/></g></g></svg>