<svg version="1.1" xmlns="http://www.w3.org/2000/svg" xmlns:xlink="http://www.w3.org/1999/xlink" width="19.87009" height="29.64073" viewBox="0,0,19.87009,29.64073"><defs><linearGradient x1="239.92434" y1="163.18563" x2="224.96744" y2="162.28766" gradientUnits="userSpaceOnUse" id="color-1"><stop offset="0" stop-color="#ffe8e8"/><stop offset="1" stop-color="#ffffff"/></linearGradient><linearGradient x1="235.2139" y1="157.71448" x2="230.77521" y2="149.0911" gradientUnits="userSpaceOnUse" id="color-2"><stop offset="0" stop-color="#ffe8e8"/><stop offset="1" stop-color="#ffffff"/></linearGradient><linearGradient x1="239.38594" y1="164.13957" x2="228.5814" y2="153.01879" gradientUnits="userSpaceOnUse" id="color-3"><stop offset="0" stop-color="#ffe8e8"/><stop offset="1" stop-color="#ffffff"/></linearGradient></defs><g transform="translate(-224.94554,-146.71573)"><g data-paper-data="{&quot;isPaintingLayer&quot;:true}" fill-rule="nonzero" stroke="none" stroke-width="0" stroke-linecap="butt" stroke-linejoin="miter" stroke-miterlimit="10" stroke-dasharray="" stroke-dashoffset="0" style="mix-blend-mode: normal"><path d="M224.96746,162.28767c0.33145,-5.52074 3.94836,-9.79515 8.07858,-9.54718c4.13023,0.24797 4.84956,12.76509 4.84956,12.76509c0,0 -5.13547,0.57721 -7.81244,3.64613c-3.5344,4.05191 -1.91047,7.20474 -1.91047,7.20474c0,0 -3.53668,-8.54806 -3.20522,-14.06878z" fill="url(#color-1)"/><path d="M230.77518,149.0911c5.48412,-2.82284 10.92348,-3.18078 12.1492,-0.7995c1.22572,2.38128 1.89125,7.26751 1.89125,7.26751c0,0 -5.15214,-0.87553 -9.1564,-0.00589c-6.03386,1.31043 -9.17083,5.22223 -9.9076,3.79086c0,0 -0.46057,-7.43015 5.02354,-10.25298z" fill="url(#color-2)"/><path d="M234.08909,163.26607c-4.1341,1.917 -5.73786,3.88673 -7.28789,2.29134c-2.98359,-3.07092 -2.18656,-8.68466 1.7802,-12.53862c3.96677,-3.85398 9.60115,-4.48876 12.58474,-1.41784c2.98359,3.07092 0.44091,10.24663 0.44091,10.24663c0,0 -3.6945,-0.35446 -7.51795,1.41848z" fill="url(#color-3)"/></g></g></svg>