<svg version="1.1" xmlns="http://www.w3.org/2000/svg" xmlns:xlink="http://www.w3.org/1999/xlink" width="130.42203" height="60.33882" viewBox="0,0,130.42203,60.33882"><g transform="translate(-223.27835,-166.51617)"><g data-paper-data="{&quot;isPaintingLayer&quot;:true}" fill-rule="nonzero" stroke="#000000" stroke-width="2" stroke-linejoin="miter" stroke-miterlimit="10" stroke-dasharray="" stroke-dashoffset="0" style="mix-blend-mode: normal"><path d="M284.1927,196.90062c0,-2.11232 1.71238,-3.8247 3.8247,-3.8247c2.11232,0 3.8247,1.71238 3.8247,3.8247c0,2.11232 -1.71238,3.8247 -3.8247,3.8247c-2.11232,0 -3.8247,-1.71238 -3.8247,-3.8247z" fill="#1d28e8" stroke-linecap="butt"/><path d="M230.94981,216.36069l4.41764,-25.18051l7.73261,1.3566l-4.41764,25.18051z" fill="#1d28e8" stroke-linecap="butt"/><path d="M224.51682,212.07462c0,-2.11232 1.71238,-3.8247 3.8247,-3.8247c2.11232,0 3.8247,1.71238 3.8247,3.8247c0,2.11232 -1.71238,3.8247 -3.8247,3.8247c-2.11232,0 -3.8247,-1.71238 -3.8247,-3.8247z" fill="#1d28e8" stroke-linecap="butt"/><path d="M255.41657,213.80053c4.92982,-0.4153 6.54175,2.11702 6.81706,5.3851c0.27531,3.26808 -3.49791,6.25406 -8.42774,6.66936c-4.92982,0.4153 -8.99733,-0.09203 -9.27264,-3.36012c-0.10633,-1.26219 2.74407,-8.00867 10.88332,-8.69434z" data-paper-data="{&quot;index&quot;:null}" fill="#1d28e8" stroke-linecap="butt"/><path d="M234.97564,213.63831c4.91995,-0.51932 6.585,1.97839 6.92927,5.23993c0.34427,3.26154 -3.36505,6.32653 -8.28501,6.84585c-4.91995,0.51932 -8.99727,0.09799 -9.34154,-3.16355c-0.13296,-1.25966 2.57433,-8.06483 10.69728,-8.92223z" data-paper-data="{&quot;index&quot;:null}" fill="#1d28e8" stroke-linecap="butt"/><path d="M233.71141,181.25645c1.5849,-9.03395 10.1932,-15.07259 19.22714,-13.48769c9.03395,1.5849 15.07259,10.1932 13.48769,19.22714c-1.5849,9.03395 -10.1932,15.07259 -19.22714,13.48769c-9.03395,-1.5849 -15.07259,-10.1932 -13.48769,-19.22714z" fill="#1d28e8" stroke-linecap="butt"/><path d="M344.9213,181.52954c0,0 -1.29378,2.77605 -2.58377,4.35308c-1.02195,1.24934 -4.541,4.35712 -4.541,4.35712" fill="none" stroke-linecap="round"/><path d="M351.47549,173.70174c1.83787,2.15853 1.57794,5.39824 -0.58059,7.23611c-2.15853,1.83787 -5.39824,1.57794 -7.23611,-0.58059c-1.83787,-2.15853 -1.57794,-5.39824 0.58059,-7.23611c2.15853,-1.83787 5.39824,-1.57794 7.23611,0.58059z" fill="#1d28e8" stroke-linecap="butt"/><path d="M340.34461,189.18732l8.49243,21.42207l-38.94537,12.9779l0.06804,-28.50623l-20.44384,3.88714z" fill="#2530ff" stroke-linecap="round"/></g></g></svg>