<svg version="1.1" xmlns="http://www.w3.org/2000/svg" xmlns:xlink="http://www.w3.org/1999/xlink" width="97.40681" height="80.33985" viewBox="0,0,97.40681,80.33985"><g transform="translate(-194.32403,-123.4432)"><g data-paper-data="{&quot;isPaintingLayer&quot;:true}" fill-rule="nonzero" stroke="#000000" stroke-width="2" stroke-linejoin="miter" stroke-miterlimit="10" stroke-dasharray="" stroke-dashoffset="0" style="mix-blend-mode: normal"><path d="M277.23328,157.36762c-1.75205,-4.62666 0.24077,-6.87157 3.30786,-8.03303c3.06712,-1.16148 6.97382,1.6476 8.72586,6.27426c1.75205,4.62666 2.38028,8.67725 -0.68681,9.83873c-1.18458,0.44859 -8.45423,-0.44125 -11.34692,-8.07996z" data-paper-data="{&quot;index&quot;:null}" fill="#2d6a2b" stroke-linecap="butt"/><path d="M216.99769,148.68642c-1.88232,-8.97671 3.86883,-17.77967 12.84552,-19.66198c8.97671,-1.88232 17.77967,3.86883 19.66198,12.84553c1.88232,8.97671 -3.86883,17.77967 -12.84552,19.66198c-8.97671,1.88232 -17.77967,-3.86883 -19.66198,-12.84553z" fill="#2d6a2b" stroke-linecap="butt"/><path d="M221.96772,128.86319c13.3864,-8.48212 25.18263,-2.14686 25.18263,-2.14686l-33.51304,23.60026c0,0 -6.06216,-12.33373 8.33041,-21.45341z" fill="#367e33" stroke-linecap="round"/><path d="M239.85636,189.70468l-9.39684,-23.77546l7.30114,-2.88565l9.39683,23.77546z" fill="#2d6a2b" stroke-linecap="butt"/><path d="M206.63177,163.88358c0,-2.11232 1.71238,-3.8247 3.8247,-3.8247c2.11232,0 3.8247,1.71238 3.8247,3.8247c0,2.11232 -1.71238,3.8247 -3.8247,3.8247c-2.11232,0 -3.8247,-1.71238 -3.8247,-3.8247z" fill="#2d6a2b" stroke-linecap="butt"/><path d="M244.03188,165.55835c0,-2.11232 1.71238,-3.8247 3.8247,-3.8247c2.11232,0 3.8247,1.71238 3.8247,3.8247c0,2.11232 -1.71238,3.8247 -3.8247,3.8247c-2.11232,0 -3.8247,-1.71238 -3.8247,-3.8247z" fill="#2d6a2b" stroke-linecap="butt"/><path d="M216.79689,202.04273c-4.6872,-1.58294 -5.15693,-4.54779 -4.10756,-7.65504c1.04937,-3.10725 5.69978,-4.34294 10.38699,-2.76c4.6872,1.58294 8.21593,3.66864 7.16656,6.77589c-0.40528,1.20007 -5.70731,6.25262 -13.44599,3.63915z" data-paper-data="{&quot;index&quot;:null}" fill="#2d6a2b" stroke-linecap="butt"/><path d="M204.93393,139.16744c0,0 2.46385,-1.81929 4.35095,-2.58739c1.49499,-0.60849 6.07178,-1.65492 6.07178,-1.65492" fill="none" stroke-linecap="round"/><path d="M195.43433,142.90766c-0.58181,-2.77462 1.19582,-5.49553 3.97044,-6.07734c2.77462,-0.58181 5.49554,1.19582 6.07734,3.97044c0.58181,2.77462 -1.19582,5.49553 -3.97044,6.07734c-2.77462,0.58181 -5.49553,-1.19582 -6.07734,-3.97044z" fill="#2d6a2b" stroke-linecap="butt"/></g></g></svg>