<svg version="1.1" xmlns="http://www.w3.org/2000/svg" xmlns:xlink="http://www.w3.org/1999/xlink" width="56.88567" height="77.10092" viewBox="0,0,56.88567,77.10092"><g transform="translate(-212.51442,-149.22636)"><g data-paper-data="{&quot;isPaintingLayer&quot;:true}" fill-rule="nonzero" stroke="#000000" stroke-width="2" stroke-linejoin="miter" stroke-miterlimit="10" stroke-dasharray="" stroke-dashoffset="0" style="mix-blend-mode: normal"><path d="M228.55654,203.85484l6.70835,-24.66925l7.57559,2.06005l-6.70835,24.66925z" fill="#e80000" stroke-linecap="butt"/><path d="M222.58466,167.23388c0,0 2.10697,-2.22284 3.83029,-3.3097c1.36524,-0.86102 5.68789,-2.69317 5.68789,-2.69317" fill="none" stroke-linecap="round"/><path d="M213.88733,172.5807c-1.05895,-2.62976 0.21443,-5.62005 2.84419,-6.679c2.62976,-1.05895 5.62005,0.21443 6.679,2.84419c1.05895,2.62976 -0.21443,5.62005 -2.84419,6.679c-2.62976,1.05895 -5.62005,-0.21443 -6.679,-2.84419z" fill="#e80000" stroke-linecap="butt"/><path d="M231.52144,166.8336c0,-9.17193 7.43532,-16.60724 16.60724,-16.60724c9.17193,0 16.60724,7.43532 16.60724,16.60724c0,9.17193 -7.43532,16.60724 -16.60724,16.60724c-9.17193,0 -16.60724,-7.43532 -16.60724,-16.60724z" fill="#e80000" stroke-linecap="butt"/><path d="M216.34245,187.47397c0,-2.11232 1.71238,-3.8247 3.8247,-3.8247c2.11232,0 3.8247,1.71238 3.8247,3.8247c0,2.11232 -1.71238,3.8247 -3.8247,3.8247c-2.11232,0 -3.8247,-1.71238 -3.8247,-3.8247z" fill="#e80000" stroke-linecap="butt"/><path d="M252.54419,190.4685c0,-2.11232 1.71238,-3.8247 3.8247,-3.8247c2.11232,0 3.8247,1.71238 3.8247,3.8247c0,2.11232 -1.71238,3.8247 -3.8247,3.8247c-2.11232,0 -3.8247,-1.71238 -3.8247,-3.8247z" fill="#e80000" stroke-linecap="butt"/><path d="M263.28638,210.88723c2.70625,4.14147 1.24297,6.76249 -1.5025,8.55653c-2.74547,1.79403 -7.16497,-0.10894 -9.87122,-4.25041c-2.70625,-4.14147 -4.19108,-7.96212 -1.4456,-9.75615c1.06035,-0.69289 8.35124,-1.38763 12.81933,5.45004z" data-paper-data="{&quot;index&quot;:null}" fill="#e80000" stroke-linecap="butt"/><path d="M230.44569,165.35658l-1.3957,-5.42329l32.34602,-8.32434l1.3957,5.42328z" fill="#ff2121" stroke-linecap="butt"/><path d="M240.74233,216.75999c2.73647,4.12157 1.29239,6.75322 -1.43989,8.56728c-2.73227,1.81407 -7.16557,-0.05653 -9.90204,-4.17811c-2.73647,-4.12157 -4.24919,-7.93125 -1.51691,-9.74533c1.05525,-0.70062 8.34086,-1.44866 12.85884,5.35614z" data-paper-data="{&quot;index&quot;:null}" fill="#e80000" stroke-linecap="butt"/></g></g></svg>