<svg version="1.1" xmlns="http://www.w3.org/2000/svg" xmlns:xlink="http://www.w3.org/1999/xlink" width="53.02714" height="109.64095" viewBox="0,0,53.02714,109.64095"><g transform="translate(-205.58788,-132.48893)"><g data-paper-data="{&quot;isPaintingLayer&quot;:true}" fill-rule="nonzero" stroke="#000000" stroke-width="2" stroke-linejoin="miter" stroke-miterlimit="10" stroke-dasharray="" stroke-dashoffset="0" style="mix-blend-mode: normal"><path d="M248.56161,176.28131l-3.30609,25.35043l-7.78477,-1.01526l3.30609,-25.35043z" fill="#e80000" stroke-linecap="butt"/><path d="M238.40406,164.21771c-0.49763,2.05286 -2.56521,3.31366 -4.61807,2.81603c-2.05286,-0.49763 -3.31366,-2.56521 -2.81603,-4.61807c0.49763,-2.05286 2.56521,-3.31366 4.61807,-2.81603c2.05286,0.49763 3.31366,2.56521 2.81603,4.61807z" fill="#e80000" stroke-linecap="butt"/><path d="M234.62629,141.0649c-1.18186,-4.80403 1.06691,-6.79249 4.25162,-7.57597c3.18471,-0.78346 6.7245,2.47583 7.90636,7.27986c1.18186,4.80403 1.31748,8.90083 -1.86722,9.68431c-1.23,0.3026 -8.33948,-1.45661 -10.29078,-9.3882z" data-paper-data="{&quot;index&quot;:null}" fill="#e80000" stroke-linecap="butt"/><path d="M245.88439,141.4197c0.91914,-4.86116 3.79046,-5.73661 7.01303,-5.12728c3.22255,0.60931 5.08987,5.044 4.17071,9.90515c-0.91914,4.86116 -2.4965,8.64454 -5.71906,8.03522c-1.2446,-0.23532 -6.9822,-4.78722 -5.4647,-12.81308z" data-paper-data="{&quot;index&quot;:null}" fill="#e80000" stroke-linecap="butt"/><path d="M257.61502,168.02432c-0.49763,2.05286 -2.56521,3.31366 -4.61807,2.81603c-2.05286,-0.49763 -3.31366,-2.56521 -2.81603,-4.61807c0.49763,-2.05286 2.56521,-3.31366 4.61807,-2.81603c2.05286,0.49763 3.31366,2.56521 2.81603,4.61807z" fill="#e80000" stroke-linecap="butt"/><path d="M239.02975,234.08168c0,0 -2.94327,-0.84704 -4.70148,-1.87649c-1.39287,-0.81555 -5.00939,-3.80937 -5.00939,-3.80937" fill="none" stroke-linecap="round"/><path d="M247.78032,239.34087c-1.84696,2.15074 -5.08776,2.39702 -7.23851,0.55004c-2.15074,-1.84696 -2.39702,-5.08776 -0.55004,-7.23851c1.84696,-2.15074 5.08776,-2.39702 7.23851,-0.55004c2.15074,1.84696 2.39702,5.08776 0.55004,7.23851z" fill="#e80000" stroke-linecap="butt"/><path d="M234.56008,226.33259c-8.14211,4.22259 -18.16567,1.0452 -22.38827,-7.09692c-4.22259,-8.14211 -1.04518,-18.16568 7.09694,-22.38828c8.14211,-4.22259 18.16567,-1.0452 22.38827,7.09693c4.22259,8.14211 1.0452,18.16567 -7.09692,22.38827z" fill="#e80000" stroke-linecap="butt"/><path d="M233.74415,227.96755l-4.17181,3.73577c0,0 -1.10803,-5.06246 -14.17115,-19.64623c-2.48264,-2.04037 -8.11008,-5.23562 -8.11008,-5.23562l4.1718,-3.73576c0,0 4.8853,1.77368 8.36185,5.65601c8.82966,9.28502 13.91939,19.22583 13.91939,19.22583z" fill="#ff2121" stroke-linecap="butt"/></g></g></svg>