<svg version="1.1" xmlns="http://www.w3.org/2000/svg" xmlns:xlink="http://www.w3.org/1999/xlink" width="58.27918" height="104.56392" viewBox="0,0,58.27918,104.56392"><defs><linearGradient x1="207.42445" y1="164.28702" x2="236.45021" y2="172.49174" gradientUnits="userSpaceOnUse" id="color-1"><stop offset="0" stop-color="#e80000" stop-opacity="0"/><stop offset="1" stop-color="#e80000"/></linearGradient><linearGradient x1="240.31229" y1="149.01916" x2="223.41162" y2="174.00275" gradientUnits="userSpaceOnUse" id="color-2"><stop offset="0" stop-color="#e80000" stop-opacity="0"/><stop offset="1" stop-color="#e80000"/></linearGradient></defs><g transform="translate(-204.1929,-130.0669)"><g data-paper-data="{&quot;isPaintingLayer&quot;:true}" fill-rule="nonzero" stroke="#000000" stroke-linejoin="miter" stroke-miterlimit="10" stroke-dasharray="" stroke-dashoffset="0" style="mix-blend-mode: normal"><path d="M253.30932,217.5659c-4.15309,2.68837 -6.76779,1.2138 -8.54998,-1.53939c-1.78217,-2.75318 0.13983,-7.16443 4.29294,-9.85281c4.15309,-2.68837 7.98012,-4.15671 9.7623,-1.40353c0.68831,1.06332 1.35161,8.35713 -5.50526,12.79571z" data-paper-data="{&quot;index&quot;:null}" fill="#e80000" stroke-width="2" stroke-linecap="butt"/><path d="M236.53022,157.72841c-1.30819,1.65846 -3.71315,1.94245 -5.37164,0.63424c-1.65846,-1.30819 -1.94245,-3.71315 -0.63424,-5.37164c1.30819,-1.65846 3.71315,-1.94245 5.37164,-0.63424c1.65846,1.30819 1.94245,3.71315 0.63424,5.37164z" data-paper-data="{&quot;index&quot;:null}" fill="#e80000" stroke-width="2" stroke-linecap="butt"/><path d="M241.00472,154.89548c-0.94166,8.59564 -8.16326,7.88579 -18.90356,14.52251c-11.98706,7.40712 -14.08836,23.13277 -14.08836,23.13277c0,0 -8.90898,-17.00439 0.48413,-28.89732c6.30546,-7.98358 12.86563,-14.38648 20.13129,-16.34392c7.26565,-1.95745 13.31815,-1.00965 12.37648,7.58596z" data-paper-data="{&quot;index&quot;:null}" fill="url(#color-1)" stroke-width="0" stroke-linecap="butt"/><path d="M228.57538,146.63553c1.79455,-8.99466 10.54091,-14.8315 19.53556,-13.03697c8.99466,1.79455 14.8315,10.54091 13.03697,19.53556c-1.79455,8.99466 -10.54091,14.8315 -19.53556,13.03697c-8.99466,-1.79455 -14.8315,-10.54091 -13.03697,-19.53556z" fill="#e80000" stroke-width="2" stroke-linecap="butt"/><path d="M239.93079,195.4789l0.50162,-25.56017l7.84919,0.15405l-0.50162,25.56017z" fill="#e80000" stroke-width="2" stroke-linecap="butt"/><path d="M247.09231,227.93292c-0.5572,4.9158 -3.35594,6.00117 -6.61473,5.63179c-3.25879,-0.36937 -5.44888,-4.65385 -4.89168,-9.56967c0.5572,-4.9158 1.85048,-8.80546 5.10928,-8.43609c1.25861,0.14265 7.31706,4.25785 6.39712,12.37396z" data-paper-data="{&quot;index&quot;:null}" fill="#e80000" stroke-width="2" stroke-linecap="butt"/><path d="M227.80941,144.97658l-0.30762,-5.59156l33.34956,-1.83477l0.30762,5.59155z" fill="#ff2121" stroke-width="2" stroke-linecap="butt"/><path d="M223.6977,137.07136c0,0 3.05858,0.15939 5.00408,0.76448c1.54125,0.47938 5.74117,2.57761 5.74117,2.57761" fill="none" stroke-width="2" stroke-linecap="round"/><path d="M212.8594,133.82435c1.31266,-2.51276 4.41375,-3.48564 6.92651,-2.173c2.51276,1.31266 3.48564,4.41375 2.173,6.92651c-1.31266,2.51276 -4.41375,3.48564 -6.92651,2.173c-2.51276,-1.31266 -3.48564,-4.41375 -2.173,-6.92651z" fill="#e80000" stroke-width="2" stroke-linecap="butt"/><path d="M238.56782,178.68281c-1.16403,-1.76263 -0.6788,-4.13519 1.08386,-5.29925c1.76263,-1.16403 4.13519,-0.6788 5.29925,1.08386c1.16403,1.76263 0.6788,4.13519 -1.08386,5.29925c-1.76263,1.16403 -4.13519,0.6788 -5.29925,-1.08386z" data-paper-data="{&quot;index&quot;:null}" fill="#e80000" stroke-width="2" stroke-linecap="butt"/><path d="M238.68905,183.85017c-7.86567,-3.59207 -4.92498,-10.22591 -7.85515,-22.50655c-3.27028,-13.7062 -17.54166,-20.63726 -17.54166,-20.63726c0,0 18.94139,-3.12142 27.28499,9.52992c5.60096,8.49268 9.62118,16.73106 9.19914,24.24393c-0.42202,7.51287 -3.22166,12.962 -11.08731,9.36994z" data-paper-data="{&quot;index&quot;:null}" fill="url(#color-2)" stroke-width="0" stroke-linecap="butt"/></g></g></svg>