<svg version="1.1" xmlns="http://www.w3.org/2000/svg" xmlns:xlink="http://www.w3.org/1999/xlink" width="93.59936" height="102.77182" viewBox="0,0,93.59936,102.77182"><g transform="translate(-191.8453,-122.68232)"><g data-paper-data="{&quot;isPaintingLayer&quot;:true}" fill-rule="nonzero" stroke="#000000" stroke-width="2" stroke-linejoin="miter" stroke-miterlimit="10" stroke-dasharray="" stroke-dashoffset="0" style="mix-blend-mode: normal"><path d="M242.99731,199.0077c-1.13978,-1.77843 -0.62205,-4.14411 1.15638,-5.28389c1.77843,-1.13978 4.14411,-0.62205 5.28389,1.15638c1.13978,1.77843 0.62205,4.14411 -1.15638,5.28389c-1.77843,1.13978 -4.14411,0.62205 -5.28389,-1.15638z" fill="#1d28e8" stroke-linecap="butt"/><path d="M211.79174,162.8359c0,-9.17193 7.43532,-16.60724 16.60724,-16.60724c9.17193,0 16.60724,7.43532 16.60724,16.60724c0,9.17193 -7.43532,16.60724 -16.60724,16.60724c-9.17193,0 -16.60724,-7.43532 -16.60724,-16.60724z" fill="#1d28e8" stroke-linecap="butt"/><path d="M241.84651,206.47844l-13.79456,-21.52403l6.60974,-4.23613l13.79456,21.52403z" fill="#1d28e8" stroke-linecap="butt"/><path d="M246.34319,207.82887c-1.13978,-1.77843 -0.62205,-4.14411 1.15638,-5.28389c1.77843,-1.13978 4.14411,-0.62205 5.28389,1.15638c1.13978,1.77843 0.62205,4.14411 -1.15638,5.28389c-1.77843,1.13978 -4.14411,0.62205 -5.28389,-1.15638z" fill="#1d28e8" stroke-linecap="butt"/><path d="M202.28157,166.44673c0,0 2.34717,-1.96752 4.1834,-2.85033c1.45469,-0.69937 5.95838,-2.02557 5.95838,-2.02557" fill="none" stroke-linecap="round"/><path d="M193.03023,170.76467c-0.75151,-2.73354 0.85523,-5.55873 3.58877,-6.31024c2.73354,-0.75151 5.55873,0.85523 6.31024,3.58877c0.75151,2.73354 -0.85523,5.55873 -3.58877,6.31024c-2.73354,0.75151 -5.55873,-0.85523 -6.31024,-3.58877z" fill="#1d28e8" stroke-linecap="butt"/><path d="M276.25671,202.37742c4.53355,-1.98052 6.87502,-0.10209 8.18795,2.9033c1.31293,3.00539 -1.29789,7.04727 -5.83146,9.0278c-4.53355,1.98052 -8.5478,2.8099 -9.86074,-0.19549c-0.50708,-1.16073 0.01924,-8.46571 7.50424,-11.73561z" data-paper-data="{&quot;index&quot;:null}" fill="#1d28e8" stroke-linecap="butt"/><path d="M211.59307,162.03081l-11.03481,-20.23016l37.07784,-17.61821l3.39948,28.30289l19.81931,-6.34473z" fill="#2530ff" stroke-linecap="round"/><path d="M252.54551,212.38901c4.92688,-0.44882 6.556,2.07247 6.85354,5.33861c0.29754,3.26614 -3.45529,6.2777 -8.38218,6.72653c-4.92688,0.44882 -8.99775,-0.03083 -9.29529,-3.29696c-0.11491,-1.26144 2.68953,-8.02715 10.82393,-8.76817z" data-paper-data="{&quot;index&quot;:null}" fill="#1d28e8" stroke-linecap="butt"/></g></g></svg>