<svg version="1.1" xmlns="http://www.w3.org/2000/svg" xmlns:xlink="http://www.w3.org/1999/xlink" width="131.26174" height="88.58473" viewBox="0,0,131.26174,88.58473"><g transform="translate(-183.18611,-140.07026)"><g data-paper-data="{&quot;isPaintingLayer&quot;:true}" fill-rule="nonzero" stroke="#000000" stroke-width="2" stroke-linejoin="miter" stroke-miterlimit="10" stroke-dasharray="" stroke-dashoffset="0" style="mix-blend-mode: normal"><path d="M184.18611,176.98674c0,-1.15261 36.7195,-9.13878 70.42886,-8.88755c28.06769,0.20919 54.04848,8.58321 55.00818,8.58321c2.11232,0 3.8247,1.71238 3.8247,3.8247c0,2.11232 -1.71238,3.8247 -3.8247,3.8247c-0.95569,0 -26.72325,-7.47178 -54.65554,-8.84043c-33.80538,-1.65643 -70.7815,2.652 -70.7815,1.49537z" fill="#181818" stroke-linecap="butt"/><path d="M223.35839,191.30318c0.50894,-2.05009 2.58346,-3.29944 4.63355,-2.7905c2.05009,0.50894 3.29944,2.58346 2.7905,4.63355c-0.50894,2.05009 -2.58346,3.29944 -4.63355,2.7905c-2.05009,-0.50894 -3.29944,-2.58346 -2.7905,-4.63355z" fill="#181818" stroke-linecap="butt"/><path d="M222.83898,146.71145c0,0 3.00193,-0.60728 5.03682,-0.5057c1.61207,0.08048 6.2022,1.06677 6.2022,1.06677" fill="#181818" stroke-linecap="round"/><path d="M212.27581,146.11307c0.64558,-2.76047 3.40672,-4.47496 6.1672,-3.82937c2.76047,0.64558 4.47496,3.40672 3.82937,6.1672c-0.64558,2.76047 -3.40672,4.47496 -6.1672,3.82937c-2.76047,-0.64558 -4.47496,-3.40672 -3.82937,-6.1672z" fill="#181818" stroke-linecap="butt"/><path d="M232.38792,160.21396c0,-9.17193 7.43532,-16.60724 16.60724,-16.60724c9.17193,0 16.60724,7.43532 16.60724,16.60724c0,9.17193 -7.43532,16.60724 -16.60724,16.60724c-9.17193,0 -16.60724,-7.43532 -16.60724,-16.60724z" fill="#181818" stroke-linecap="butt"/><path d="M223.04183,202.11136l11.65313,-22.75474l6.98768,3.57852l-11.65313,22.75474z" fill="#181818" stroke-linecap="butt"/><path d="M239.30705,206.54072c1.41881,4.73946 -0.7285,6.83707 -3.8704,7.77765c-3.14189,0.94057 -6.83909,-2.13904 -8.25791,-6.87853c-1.41881,-4.73946 -1.75759,-8.82447 1.3843,-9.76504c1.21345,-0.36326 8.40149,1.04095 10.744,8.86593z" data-paper-data="{&quot;index&quot;:null}" fill="#181818" stroke-linecap="butt"/><path d="M242.37832,163.52693v-5.24474h26.4375v5.24474z" fill="#ff0000" stroke-linecap="butt"/><path d="M233.53651,176.92528l12.69989,6.84312l-5.26146,2.05522l1.74084,5.64123l-15.72222,-6.69458l6.17455,-2.6054z" fill="#0e0e0e" stroke-linecap="round"/><g><path d="M234.27542,153.13317v-12.06291h29.6328v12.06291z" fill="#343434" stroke-linecap="butt"/><path d="M223.5237,153.13317h51.13626" fill="none" stroke-linecap="round"/></g><path d="M202.65736,223.79048c-2.2214,4.4205 -5.22278,4.472 -8.15324,2.99938c-2.93046,-1.47262 -3.50525,-6.24995 -1.28385,-10.67046c2.2214,-4.4205 4.77901,-7.62374 7.70946,-6.15114c1.1318,0.56874 5.39522,6.52384 1.72763,13.82221z" data-paper-data="{&quot;index&quot;:null}" fill="#181818" stroke-linecap="butt"/></g></g></svg>