<svg version="1.1" xmlns="http://www.w3.org/2000/svg" xmlns:xlink="http://www.w3.org/1999/xlink" width="381.12511" height="146.1173" viewBox="0,0,381.12511,146.1173"><defs><linearGradient x1="338.62968" y1="238.65062" x2="553.38407" y2="271.5384" gradientUnits="userSpaceOnUse" id="color-1"><stop offset="0" stop-color="#ffb33b"/><stop offset="1" stop-color="#ff4f00"/></linearGradient></defs><g transform="translate(-205.77894,-159.84988)"><g data-paper-data="{&quot;isPaintingLayer&quot;:true}" fill-rule="nonzero" stroke-linejoin="miter" stroke-miterlimit="10" stroke-dasharray="" stroke-dashoffset="0" style="mix-blend-mode: normal"><path d="M227.96823,208.41637l15.02243,-20.68574l6.35232,4.61319l-15.02243,20.68574z" fill="#e80000" stroke="#000000" stroke-width="2" stroke-linecap="butt"/><path d="M237.15421,174.80806c0,0 2.35717,-1.95553 4.19785,-2.82899c1.45822,-0.69196 5.96862,-1.9952 5.96862,-1.9952" fill="none" stroke="#000000" stroke-width="2" stroke-linecap="round"/><path d="M227.88099,179.07883c-0.73758,-2.73733 0.88353,-5.5543 3.62087,-6.29188c2.73733,-0.73758 5.5543,0.88353 6.29188,3.62087c0.73758,2.73733 -0.88353,5.5543 -3.62087,6.29188c-2.73733,0.73758 -5.5543,-0.88353 -6.29188,-3.62087z" fill="#e80000" stroke="#000000" stroke-width="2" stroke-linecap="butt"/><path d="M246.07489,175.47704c1.09448,-9.10639 9.36392,-15.60134 18.4703,-14.50685c9.10639,1.09448 15.60134,9.36392 14.50685,18.4703c-1.09448,9.10639 -9.36392,15.60134 -18.4703,14.50685c-9.10639,-1.09448 -15.60134,-9.36392 -14.50685,-18.4703z" fill="#e80000" stroke="#000000" stroke-width="2" stroke-linecap="butt"/><path d="M222.35866,188.76821c0.74925,-1.97498 2.95767,-2.96863 4.93264,-2.21937c1.97498,0.74925 2.96863,2.95767 2.21937,4.93264c-0.74925,1.97498 -2.95767,2.96863 -4.93264,2.21937c-1.97498,-0.74925 -2.96863,-2.95767 -2.21937,-4.93264z" fill="#e80000" stroke="#000000" stroke-width="2" stroke-linecap="butt"/><path d="M269.09988,205.45162c0.74925,-1.97498 2.95767,-2.96863 4.93264,-2.21937c1.97498,0.74925 2.96863,2.95767 2.21937,4.93264c-0.74925,1.97498 -2.95767,2.96863 -4.93264,2.21937c-1.97498,-0.74925 -2.96863,-2.95767 -2.21937,-4.93264z" fill="#e80000" stroke="#000000" stroke-width="2" stroke-linecap="butt"/><path d="M257.76063,224.00119c3.22776,3.74927 2.12217,6.54008 -0.36331,8.67984c-2.48548,2.13975 -7.11698,0.83498 -10.34474,-2.91429c-3.22776,-3.74927 -5.20252,-7.34128 -2.71702,-9.48102c0.95993,-0.82642 8.09597,-2.47465 13.4251,3.71549z" data-paper-data="{&quot;index&quot;:null}" fill="#e80000" stroke="#000000" stroke-width="2" stroke-linecap="butt"/><path d="M245.18308,173.88222l-0.73858,-5.55109l33.10823,-4.40504l0.73858,5.55107z" fill="#ff2121" stroke="#000000" stroke-width="2" stroke-linecap="butt"/><path d="M218.94025,217.90569c1.09661,4.82422 -1.18704,6.77254 -4.38511,7.49949c-3.19807,0.72697 -6.6796,-2.59451 -7.7762,-7.41874c-1.09661,-4.82422 -1.15966,-8.92276 2.03843,-9.64974c1.23514,-0.28076 8.31237,1.60406 10.1229,9.56896z" data-paper-data="{&quot;index&quot;:null}" fill="#e80000" stroke="#000000" stroke-width="2" stroke-linecap="butt"/><g stroke-width="0" stroke-linecap="butt"><path d="M352.44382,209.42584c14.25142,3.89131 22.93165,12.93067 22.93165,12.93067l46.12177,53.12566c0,0 -63.22869,-31.80194 -76.00884,-40.47459c-21.79099,-14.78747 -22.54559,-21.46536 -15.68894,-25.12219c5.38273,-2.87076 8.39295,-4.35082 22.64437,-0.45951z" data-paper-data="{&quot;index&quot;:null}" fill="#e82d00" stroke="#000000"/><path d="M328.09457,216.08179c-1.3669,-6.99775 4.63342,-11.29336 30.7973,-7.94888c15.34477,1.96151 82.08632,19.61139 82.08632,19.61139l-73.41116,8.53786c0,0 -13.0238,0.92072 -25.35975,-5.40185c-12.33594,-6.32256 -13.03961,-9.30501 -14.11269,-14.79852z" data-paper-data="{&quot;index&quot;:null}" fill="#e82d00" stroke="#000000"/><path d="M400.35692,255.67142c-64.6426,-25.96059 -91.73485,-45.58185 -60.51221,-43.82526c31.22261,1.75657 108.93675,24.22581 173.57941,50.18644c64.6426,25.96059 91.73485,45.58185 60.51221,43.82526c-31.22261,-1.75657 -108.93675,-24.22581 -173.57941,-50.18644z" fill="#e82d00" stroke="none"/><path d="M397.46022,252.36327c-55.51004,-22.29295 -78.77477,-39.14216 -51.96319,-37.63373c26.81155,1.50841 93.54644,20.80325 149.05653,43.09623c55.51004,22.29295 78.77477,39.14216 51.96319,37.63373c-26.81155,-1.50841 -93.54644,-20.80325 -149.05653,-43.09623z" fill="url(#color-1)" stroke="none"/></g></g></g></svg>