<svg version="1.1" xmlns="http://www.w3.org/2000/svg" xmlns:xlink="http://www.w3.org/1999/xlink" width="67.83995" height="93.35792" viewBox="0,0,67.83995,93.35792"><g transform="translate(-202.94638,-140.04838)"><g data-paper-data="{&quot;isPaintingLayer&quot;:true}" fill-rule="nonzero" stroke="#000000" stroke-width="2" stroke-linejoin="miter" stroke-miterlimit="10" stroke-dasharray="" stroke-dashoffset="0" style="mix-blend-mode: normal"><path d="M253.93855,203.5372c-0.85025,-1.93364 0.02802,-4.19045 1.96166,-5.04069c1.93364,-0.85025 4.19045,0.02802 5.04069,1.96167c0.85025,1.93364 -0.02802,4.19045 -1.96166,5.04068c-1.93364,0.85025 -4.19045,-0.02802 -5.04068,-1.96166z" fill="#2d6a2b" stroke-linecap="butt"/><path d="M208.89585,153.61402c7.88212,-13.74825 24.17731,-12.53855 24.17731,-12.53855c0,0 2.62428,8.08443 -5.19001,23.06775c-5.70039,10.93007 -16.02718,13.73496 -16.02718,13.73496c0,0 -11.43466,-9.48253 -2.9601,-24.26415z" fill="#204d1f" stroke-linecap="round"/><path d="M216.22727,175.30354c-7.08916,-5.81962 -8.1183,-16.28428 -2.29869,-23.37342c5.81962,-7.08916 16.28427,-8.11831 23.37342,-2.2987c7.08916,5.81962 8.1183,16.28428 2.29869,23.37342c-5.81962,7.08916 -16.28427,8.11831 -23.37342,2.2987z" fill="#2d6a2b" stroke-linecap="butt"/><path d="M246.50621,205.27384l-11.68004,-22.74094l6.98344,-3.58679l11.68004,22.74094z" fill="#2d6a2b" stroke-linecap="butt"/><path d="M237.33111,211.11156c-0.85025,-1.93364 0.02802,-4.19045 1.96166,-5.04069c1.93364,-0.85025 4.19045,0.02802 5.04069,1.96167c0.85025,1.93364 -0.02802,4.19045 -1.96166,5.04068c-1.93364,0.85025 -4.19045,-0.02802 -5.04068,-1.96166z" fill="#2d6a2b" stroke-linecap="butt"/><path d="M269.16794,218.07487c1.69847,4.64658 -0.32016,6.86831 -3.40049,7.99426c-3.08032,1.12595 -6.9543,-1.72809 -8.65277,-6.37467c-1.69847,-4.64658 -2.27984,-8.70419 0.80048,-9.83014c1.18967,-0.43485 8.44855,0.53892 11.25278,8.21053z" data-paper-data="{&quot;index&quot;:null}" fill="#2d6a2b" stroke-linecap="butt"/><path d="M208.95327,184.16707c0,0 -0.36617,-3.04078 -0.1028,-5.0611c0.20866,-1.60053 1.55752,-6.09748 1.55752,-6.09748" fill="none" stroke-linecap="round"/><path d="M207.51749,194.275c-2.70027,-0.86345 -4.18929,-3.75242 -3.32584,-6.45269c0.86345,-2.70027 3.75242,-4.18929 6.45269,-3.32584c2.70027,0.86345 4.1893,3.75242 3.32585,6.45269c-0.86345,2.70027 -3.75242,4.18929 -6.45269,3.32584z" fill="#2d6a2b" stroke-linecap="butt"/><path d="M256.08343,226.32496c-0.22018,4.94238 -2.93827,6.21634 -6.21468,6.07038c-3.27641,-0.14598 -5.75397,-4.27089 -5.53377,-9.21328c0.22018,-4.94238 1.24482,-8.91127 4.52124,-8.7653c1.26541,0.05636 7.59077,3.74822 7.22722,11.90821z" data-paper-data="{&quot;index&quot;:null}" fill="#2d6a2b" stroke-linecap="butt"/><path d="M208.89585,153.61402c7.88212,-13.74825 24.17731,-12.53855 24.17731,-12.53855c0,0 -9.34902,8.14519 -13.22174,14.86271c-3.87272,6.71752 -7.99545,21.93999 -7.99545,21.93999c0,0 -11.43466,-9.48253 -2.9601,-24.26415z" fill="#367e33" stroke-linecap="round"/></g></g></svg>