<svg version="1.1" xmlns="http://www.w3.org/2000/svg" xmlns:xlink="http://www.w3.org/1999/xlink" width="123.44587" height="53.00328" viewBox="0,0,123.44587,53.00328"><g transform="translate(-178.3572,-148.5788)"><g data-paper-data="{&quot;isPaintingLayer&quot;:true}" fill-rule="nonzero" stroke="#000000" stroke-width="2" stroke-linejoin="miter" stroke-miterlimit="10" stroke-dasharray="" stroke-dashoffset="0" style="mix-blend-mode: normal"><path d="M250.04412,170.77759c-0.4591,-9.16043 6.59473,-16.95859 15.75516,-17.41769c9.16043,-0.4591 16.95859,6.59473 17.41769,15.75516c0.4591,9.16043 -6.59473,16.95859 -15.75516,17.41769c-9.16043,0.4591 -16.95859,-6.59473 -17.41769,-15.75516z" fill="#2d6a2b" stroke-linecap="butt"/><path d="M258.04534,151.97221c14.5456,-6.29031 25.20927,1.80739 25.20927,1.80739l-36.784,18.08406c0,0 -4.06416,-13.12834 11.57474,-19.89145z" fill="#367e33" stroke-linecap="round"/><path d="M239.61279,159.49342l10.95686,-2.56465" fill="none" stroke-linecap="round"/><path d="M229.64606,161.70612c-0.1419,-2.83141 2.03837,-5.24175 4.86978,-5.38365c2.83141,-0.1419 5.24175,2.03837 5.38365,4.86978c0.1419,2.83141 -2.03837,5.24175 -4.86978,5.38365c-2.83141,0.1419 -5.24175,-2.03837 -5.38365,-4.86978z" fill="#2d6a2b" stroke-linecap="butt"/><path d="M293.4306,182.17622c0.79051,-1.95882 3.0193,-2.90592 4.97812,-2.11541c1.95882,0.79051 2.90592,3.0193 2.11541,4.97812c-0.79051,1.95882 -3.0193,2.90592 -4.97812,2.11541c-1.95882,-0.79051 -2.90592,-3.0193 -2.11541,-4.97812z" fill="#2d6a2b" stroke-linecap="butt"/><path d="M292.25896,174.38054c0.79051,-1.95882 3.0193,-2.90592 4.97812,-2.11541c1.95882,0.79051 2.90592,3.0193 2.11541,4.97812c-0.79051,1.95882 -3.0193,2.90592 -4.97812,2.11541c-1.95882,-0.79051 -2.90592,-3.0193 -2.11541,-4.97812z" fill="#2d6a2b" stroke-linecap="butt"/><path d="M191.46436,200.58208c-4.91252,-0.58543 -5.98178,-3.39036 -5.59369,-6.64698c0.38809,-3.25662 4.6851,-5.42204 9.59762,-4.83661c4.91252,0.58543 8.79469,1.90107 8.40658,5.15768c-0.14988,1.25776 -4.29983,7.29248 -12.41052,6.32591z" data-paper-data="{&quot;index&quot;:null}" fill="#2d6a2b" stroke-linecap="butt"/><path d="M183.04361,190.04554c-4.33811,-2.37831 -4.28206,-5.37961 -2.70543,-8.25543c1.57663,-2.87583 6.3715,-3.27915 10.70961,-0.90084c4.33811,2.37831 7.44768,5.04902 5.87105,7.92484c-0.60893,1.1107 -6.7129,5.15809 -13.87522,1.23143z" data-paper-data="{&quot;index&quot;:null}" fill="#2d6a2b" stroke-linecap="butt"/><path d="M217.9961,183.00941l25.56305,-0.32335l0.0993,7.85007l-25.56304,0.32335z" fill="#2d6a2b" stroke-linecap="butt"/></g></g></svg>