<svg version="1.1" xmlns="http://www.w3.org/2000/svg" xmlns:xlink="http://www.w3.org/1999/xlink" width="65.30822" height="119.87874" viewBox="0,0,65.30822,119.87874"><g transform="translate(-195.26119,-99.70552)"><g data-paper-data="{&quot;isPaintingLayer&quot;:true}" fill-rule="nonzero" stroke="#000000" stroke-width="2" stroke-linejoin="miter" stroke-miterlimit="10" stroke-dasharray="" stroke-dashoffset="0" style="mix-blend-mode: normal"><path d="M223.61036,154.41639c1.12081,-9.10319 9.409,-15.57418 18.51218,-14.45337c9.10319,1.12081 15.57418,9.409 14.45337,18.51218c-1.12081,9.10319 -9.409,15.57418 -18.51218,14.45337c-9.10319,-1.12081 -15.57418,-9.409 -14.45337,-18.51218z" fill="#ff6b00" stroke-linecap="butt"/><path d="M226.43888,198.77296l4.61646,-25.1448l7.72164,1.41763l-4.61646,25.14481z" data-paper-data="{&quot;index&quot;:null}" fill="#ff6b00" stroke-linecap="butt"/><path d="M213.92671,175.03678c0.25813,-2.09649 2.16693,-3.58677 4.26342,-3.32866c2.09649,0.25813 3.58677,2.16693 3.32866,4.26342c-0.25813,2.09649 -2.16693,3.58677 -4.26342,3.32866c-2.09649,-0.25813 -3.58677,-2.16693 -3.32866,-4.26342z" fill="#ff6b00" stroke-linecap="butt"/><path d="M226.28564,142.10008c0,0 -4.6334,-0.75738 -6.16359,-1.27093c-1.93152,-0.64825 -4.50462,-2.30946 -4.50462,-2.30946" data-paper-data="{&quot;index&quot;:null}" fill="none" stroke-linecap="round"/><path d="M211.71836,131.03882c2.80565,0.40667 4.75038,3.01079 4.34372,5.81641c-0.40667,2.80563 -3.01077,4.75037 -5.8164,4.34371c-2.80565,-0.40667 -4.75038,-3.01079 -4.34372,-5.81641c0.40667,-2.80563 3.01077,-4.75037 5.8164,-4.34371z" data-paper-data="{&quot;index&quot;:null}" fill="#ff6b00" stroke-linecap="butt"/><path d="M249.03033,205.72753c3.68998,3.29541 2.95848,6.20676 0.77388,8.6529c-2.1846,2.44616 -6.94687,1.75771 -10.63685,-1.53771c-3.68998,-3.29541 -6.1171,-6.5986 -3.93251,-9.04476c0.84373,-0.94473 7.70323,-3.51124 13.79547,1.92956z" data-paper-data="{&quot;index&quot;:null}" fill="#ff6b00" stroke-linecap="butt"/><path d="M218.4599,151.89284l6.75984,-10.9827l-21.37995,-26.64246l45.51929,-13.19236l-3.16559,33.47956l11.60876,5.55196z" data-paper-data="{&quot;index&quot;:null}" fill="#ffa340" stroke-linecap="butt"/><path d="M203.77939,218.29613c-4.81948,1.11725 -6.77757,-1.15803 -7.5182,-4.35297c-0.74064,-3.19492 2.5659,-6.69065 7.38538,-7.8079c4.81948,-1.11725 8.91772,-1.19784 9.65835,1.99709c0.28604,1.23394 -1.56846,8.31917 -9.52554,10.16377z" data-paper-data="{&quot;index&quot;:null}" fill="#ff6b00" stroke-linecap="butt"/><path d="M235.50328,179.92919c0.25813,-2.09649 2.16693,-3.58677 4.26342,-3.32866c2.09649,0.25813 3.58677,2.16693 3.32866,4.26342c-0.25813,2.09649 -2.16693,3.58677 -4.26342,3.32866c-2.09649,-0.25813 -3.58677,-2.16693 -3.32866,-4.26342z" fill="#ff6b00" stroke-linecap="butt"/></g></g></svg>