<svg version="1.1" xmlns="http://www.w3.org/2000/svg" xmlns:xlink="http://www.w3.org/1999/xlink" width="79.74649" height="114.87984" viewBox="0,0,79.74649,114.87984"><g transform="translate(-185.24754,-112.20966)"><g data-paper-data="{&quot;isPaintingLayer&quot;:true}" fill-rule="nonzero" stroke="#000000" stroke-width="2" stroke-linejoin="miter" stroke-miterlimit="10" stroke-dasharray="" stroke-dashoffset="0" style="mix-blend-mode: normal"><path d="M234.53958,203.79604l-14.58367,-20.99739l6.44802,-4.47846l14.58368,20.99739z" fill="#ff6b00" stroke-linecap="butt"/><path d="M236.1753,180c0,-2.11232 1.71238,-3.8247 3.8247,-3.8247c2.11232,0 3.8247,1.71238 3.8247,3.8247c0,2.11232 -1.71238,3.8247 -3.8247,3.8247c-2.11232,0 -3.8247,-1.71238 -3.8247,-3.8247z" fill="#ff6b00" stroke-linecap="butt"/><path d="M208.55385,163.40218c1.52472,-9.04431 10.0926,-15.14014 19.1369,-13.61543c9.04431,1.52472 15.14014,10.0926 13.61543,19.1369c-1.52472,9.04431 -10.0926,15.14014 -19.1369,13.61543c-9.04431,-1.52472 -15.14014,-10.0926 -13.61543,-19.1369z" fill="#ff6b00" stroke-linecap="butt"/><path d="M204.11409,191.52628c0,-2.11232 1.71238,-3.8247 3.8247,-3.8247c2.11232,0 3.8247,1.71238 3.8247,3.8247c0,2.11232 -1.71238,3.8247 -3.8247,3.8247c-2.11232,0 -3.8247,-1.71238 -3.8247,-3.8247z" fill="#ff6b00" stroke-linecap="butt"/><path d="M228.66913,215.01801c4.11347,0 7.4481,2.47844 7.4481,5.53575c0,3.05731 -3.33463,5.53575 -7.4481,5.53575c-4.11347,0 -7.4481,-2.47844 -7.4481,-5.53575c0,-3.05731 3.33463,-5.53575 7.4481,-5.53575z" data-paper-data="{&quot;index&quot;:null}" fill="#ff6b00" stroke-linecap="butt"/><path d="M200.09002,159.84298c0,0 2.23817,-2.09068 4.02436,-3.07078c1.41504,-0.77645 5.84106,-2.34249 5.84106,-2.34249" fill="none" stroke-linecap="round"/><path d="M191.0838,164.65129c-0.89716,-2.68926 0.55561,-5.59662 3.24488,-6.49378c2.68926,-0.89716 5.59662,0.55561 6.49378,3.24488c0.89716,2.68926 -0.55561,5.59662 -3.24488,6.49378c-2.68926,0.89716 -5.59662,-0.55561 -6.49378,-3.24488z" fill="#ff6b00" stroke-linecap="butt"/><path d="M203.49868,165.95302l6.19468,-11.31111l-22.70242,-25.52496l44.79239,-15.48179l-1.46519,33.59695l11.87517,4.95663z" data-paper-data="{&quot;index&quot;:null}" fill="#ffa340" stroke-linecap="butt"/><path d="M256.31599,193.55235c4.77358,-1.29941 6.81663,0.89989 7.67804,4.06442c0.8614,3.16452 -2.31004,6.78324 -7.08364,8.08266c-4.77358,1.29941 -8.86581,1.53554 -9.72721,-1.62898c-0.33269,-1.22218 1.25151,-8.37271 9.13282,-10.51807z" data-paper-data="{&quot;index&quot;:null}" fill="#ff6b00" stroke-linecap="butt"/></g></g></svg>