<svg version="1.1" xmlns="http://www.w3.org/2000/svg" xmlns:xlink="http://www.w3.org/1999/xlink" width="56.63619" height="74.97103" viewBox="0,0,56.63619,74.97103"><g transform="translate(-213.19144,-150.84633)"><g data-paper-data="{&quot;isPaintingLayer&quot;:true}" fill-rule="nonzero" stroke="#000000" stroke-width="2" stroke-linejoin="miter" stroke-miterlimit="10" stroke-dasharray="" stroke-dashoffset="0" style="mix-blend-mode: normal"><path d="M250.30849,187.68989c0,-2.11232 1.71238,-3.8247 3.8247,-3.8247c2.11232,0 3.8247,1.71238 3.8247,3.8247c0,2.11232 -1.71238,3.8247 -3.8247,3.8247c-2.11232,0 -3.8247,-1.71238 -3.8247,-3.8247z" fill="#e80000" stroke-linecap="butt"/><path d="M222.0011,203.80108l9.84791,-23.59221l7.24485,3.02417l-9.84792,23.59221z" fill="#e80000" stroke-linecap="butt"/><path d="M226.95422,160.41275c0,0 2.72211,-1.40373 4.70744,-1.86153c1.57281,-0.36267 6.25783,-0.66693 6.25783,-0.66693" fill="none" stroke-linecap="round"/><path d="M216.98023,162.59252c-0.13255,-2.83186 2.05567,-5.23499 4.88753,-5.36754c2.83186,-0.13255 5.23499,2.05567 5.36754,4.88753c0.13255,2.83186 -2.05567,5.23499 -4.88753,5.36754c-2.83186,0.13255 -5.23499,-2.05567 -5.36754,-4.88753z" fill="#e80000" stroke-linecap="butt"/><path d="M235.52313,162.98179c3.02448,-8.65891 12.49574,-13.22653 21.15464,-10.20204c8.65891,3.02448 13.22653,12.49574 10.20204,21.15464c-3.02448,8.65891 -12.49574,13.22653 -21.15464,10.20204c-8.65891,-3.02448 -13.22653,-12.49574 -10.20204,-21.15464z" fill="#e80000" stroke-linecap="butt"/><path d="M214.19144,190.38415c0,-2.11232 1.71238,-3.8247 3.8247,-3.8247c2.11232,0 3.8247,1.71238 3.8247,3.8247c0,2.11232 -1.71238,3.8247 -3.8247,3.8247c-2.11232,0 -3.8247,-1.71238 -3.8247,-3.8247z" fill="#e80000" stroke-linecap="butt"/><path d="M249.60674,199.67566c2.94071,-3.97841 5.90714,-3.5188 8.54452,-1.56934c2.63738,1.94946 2.39148,6.75496 -0.54923,10.73338c-2.94071,3.97841 -6.00575,6.70012 -8.64313,4.75063c-1.01861,-0.75292 -4.20734,-7.34622 0.64785,-13.91469z" data-paper-data="{&quot;index&quot;:null}" fill="#e80000" stroke-linecap="butt"/><path d="M234.9946,161.23265l0.47072,-5.58019l33.28179,2.80749l-0.47071,5.58018z" fill="#ff2121" stroke-linecap="butt"/><path d="M235.02893,212.65599c4.83758,-1.03605 6.75713,1.27185 7.44393,4.47878c0.68682,3.20693 -2.67804,6.64655 -7.51565,7.68259c-4.83758,1.03605 -8.9366,1.04771 -9.62341,-2.15923c-0.26525,-1.23857 1.70815,-8.29161 9.69511,-10.00213z" data-paper-data="{&quot;index&quot;:null}" fill="#e80000" stroke-linecap="butt"/></g></g></svg>