<svg version="1.1" xmlns="http://www.w3.org/2000/svg" xmlns:xlink="http://www.w3.org/1999/xlink" width="95.35395" height="83.25758" viewBox="0,0,95.35395,83.25758"><defs><linearGradient x1="262.04702" y1="175.7839" x2="274.87671" y2="213.88406" gradientUnits="userSpaceOnUse" id="color-1"><stop offset="0" stop-color="#e80000" stop-opacity="0"/><stop offset="1" stop-color="#e80000"/></linearGradient><linearGradient x1="246.30926" y1="164.54155" x2="223.34564" y2="184.09877" gradientUnits="userSpaceOnUse" id="color-2"><stop offset="0" stop-color="#e80000" stop-opacity="0"/><stop offset="1" stop-color="#e80000"/></linearGradient></defs><g transform="translate(-211.57297,-142.56635)"><g data-paper-data="{&quot;isPaintingLayer&quot;:true}" fill-rule="nonzero" stroke="#000000" stroke-linejoin="miter" stroke-miterlimit="10" stroke-dasharray="" stroke-dashoffset="0" style="mix-blend-mode: normal"><path d="M227.63871,149.90207c0,0 3.06033,-0.12102 5.05303,0.3036c1.57863,0.33641 5.95286,2.04173 5.95286,2.04173" fill="none" stroke-width="2" stroke-linecap="round"/><path d="M221.35009,147.65993c1.07733,-2.62228 4.07645,-3.87472 6.69873,-2.7974c2.62228,1.07733 3.87472,4.07645 2.7974,6.69873c-1.07733,2.62228 -4.07645,3.87472 -6.69873,2.7974c-2.62228,-1.07733 -3.87472,-4.07645 -2.7974,-6.69873z" fill="#e80000" stroke-width="2" stroke-linecap="butt"/><path d="M236.03993,158.42882c0.96437,-9.12109 9.14024,-15.73342 18.26132,-14.76906c9.12109,0.96437 15.73342,9.14024 14.76906,18.26132c-0.96437,9.12109 -9.14024,15.73342 -18.26132,14.76906c-9.12109,-0.96437 -15.73342,-9.14024 -14.76906,-18.26132z" fill="#e80000" stroke-width="2" stroke-linecap="butt"/><path d="M241.05109,206.39098l3.06332,-25.38089l7.79413,0.94071l-3.06332,25.38089z" fill="#e80000" stroke-width="2" stroke-linecap="butt"/><path d="M224.69318,213.75243c4.11347,0 7.4481,2.47844 7.4481,5.53575c0,3.05731 -3.33463,5.53575 -7.4481,5.53575c-4.11347,0 -7.4481,-2.47844 -7.4481,-5.53575c0,-3.05731 3.33463,-5.53575 7.4481,-5.53575z" data-paper-data="{&quot;index&quot;:null}" fill="#e80000" stroke-width="2" stroke-linecap="butt"/><path d="M260.33313,211.86668c4.90323,-0.6587 6.63848,1.79077 7.07515,5.04123c0.43666,3.25046 -3.1842,6.41946 -8.08745,7.07816c-4.90323,0.6587 -8.99087,0.35323 -9.42753,-2.89723c-0.16865,-1.25538 2.34447,-8.13462 10.43983,-9.22215z" data-paper-data="{&quot;index&quot;:null}" fill="#e80000" stroke-width="2" stroke-linecap="butt"/><path d="M235.12544,156.84688l-0.81774,-5.53998l33.04197,-4.87724l0.81774,5.53997z" fill="#ff2121" stroke-width="2" stroke-linecap="butt"/><path d="M274.77117,212.31243c-0.71664,1.98704 -2.90841,3.0169 -4.89545,2.30026c-1.98704,-0.71664 -3.0169,-2.90841 -2.30026,-4.89545c0.71664,-1.98704 2.90841,-3.0169 4.89545,-2.30026c1.98704,0.71664 3.0169,2.90841 2.30026,4.89545z" data-paper-data="{&quot;index&quot;:null}" fill="#e80000" stroke-width="2" stroke-linecap="butt"/><path d="M266.76058,195.21944c-24.79128,-13.86152 -55.1876,-13.78826 -55.1876,-13.78826c0,0 27.14596,-18.71591 57.56656,-8.91035c20.421,6.58233 30.62758,11.33397 37.10405,25.15963c6.47646,13.82567 -34.93232,28.56847 -46.15879,18.28461c-11.42421,-10.465 28.88857,-8.32582 6.67579,-20.74564z" data-paper-data="{&quot;index&quot;:null}" fill="url(#color-1)" stroke-width="0" stroke-linecap="butt"/><path d="M236.69948,192.65966c-0.65056,-2.00964 0.4512,-4.16617 2.46086,-4.81673c2.00964,-0.65056 4.16617,0.4512 4.81673,2.46086c0.65056,2.00964 -0.4512,4.16617 -2.46086,4.81673c-2.00964,0.65056 -4.16617,-0.4512 -4.81673,-2.46086z" data-paper-data="{&quot;index&quot;:null}" fill="#e80000" stroke-width="2" stroke-linecap="butt"/><path d="M235.43511,197.6714c-6.61936,-5.56378 -2.01251,-11.17024 -1.55358,-23.78727c0.51222,-14.08163 -11.3873,-24.57511 -11.3873,-24.57511c0,0 19.08655,2.055 23.745,16.47619c3.12717,9.68077 4.79908,18.69397 2.38429,25.82068c-2.41478,7.12672 -6.56906,11.62927 -13.1884,6.0655z" data-paper-data="{&quot;index&quot;:null}" fill="url(#color-2)" stroke-width="0" stroke-linecap="butt"/></g></g></svg>