<svg version="1.1" xmlns="http://www.w3.org/2000/svg" xmlns:xlink="http://www.w3.org/1999/xlink" width="137.04591" height="111.63477" viewBox="0,0,137.04591,111.63477"><defs><radialGradient cx="245.27503" cy="158.49411" r="18.84183" gradientUnits="userSpaceOnUse" id="color-1"><stop offset="0" stop-color="#ffffff"/><stop offset="1" stop-color="#0debff"/></radialGradient></defs><g transform="translate(-215.40321,-114.46376)"><g data-paper-data="{&quot;isPaintingLayer&quot;:true}" fill-rule="nonzero" stroke-linejoin="miter" stroke-miterlimit="10" stroke-dasharray="" stroke-dashoffset="0" style="mix-blend-mode: normal"><g fill="#76f4ff" stroke="#53acb4" stroke-width="1" stroke-linecap="butt"><path d="M352.09383,114.87766l-55.81499,56.36735l-32.11878,16.6462l22.26678,-28.51145z" data-paper-data="{&quot;index&quot;:null}"/><path d="M248.17902,193.621l20.84108,-13.654l3.58865,4.32198l-17.61131,17.54378z"/><path d="M290.1126,192.06369l-16.25131,-1.82269l-10.80517,-12.93614l1.59387,-15.90703l9.87741,17.70259z"/></g><path d="M246.62086,197.10809c0,-2.11232 1.71238,-3.8247 3.8247,-3.8247c2.11232,0 3.8247,1.71238 3.8247,3.8247c0,2.11232 -1.71238,3.8247 -3.8247,3.8247c-2.11232,0 -3.8247,-1.71238 -3.8247,-3.8247z" fill="#0debff" stroke="#000000" stroke-width="2" stroke-linecap="butt"/><path d="M233.29438,203.89067l7.58502,-24.41395l7.4972,2.32925l-7.58502,24.41395z" data-paper-data="{&quot;index&quot;:null}" fill="#0debff" stroke="#000000" stroke-width="2" stroke-linecap="butt"/><path d="M216.40321,197.09366c0,-2.11232 1.71238,-3.8247 3.8247,-3.8247c2.11232,0 3.8247,1.71238 3.8247,3.8247c0,2.11232 -1.71238,3.8247 -3.8247,3.8247c-2.11232,0 -3.8247,-1.71238 -3.8247,-3.8247z" fill="#0debff" stroke="#000000" stroke-width="2" stroke-linecap="butt"/><path d="M262.48463,209.8908c4.74209,-1.41001 6.83571,0.7412 7.77044,3.88484c0.93473,3.14364 -2.15175,6.8351 -6.89385,8.24512c-4.74209,1.41001 -8.82772,1.7412 -9.76245,-1.40244c-0.36101,-1.21413 1.05655,-8.39955 8.88587,-10.72751z" data-paper-data="{&quot;index&quot;:null}" fill="#0debff" stroke="#000000" stroke-width="2" stroke-linecap="butt"/><path d="M241.08631,167.12801c6.23244,-6.72912 16.73984,-7.13176 23.46896,-0.89934c6.72912,6.23244 7.13176,16.73984 0.89934,23.46896c-6.23244,6.72912 -16.73985,7.13176 -23.46896,0.89933c-6.72912,-6.23244 -7.13176,-16.73984 -0.89934,-23.46896z" fill="#0debff" stroke="#000000" stroke-width="2" stroke-linecap="butt"/><path d="M236.71914,167.18248c0,0 2.90747,-0.96278 4.93986,-1.10585c1.61009,-0.11335 6.28536,0.31558 6.28536,0.31558" fill="none" stroke="#000000" stroke-width="2" stroke-linecap="round"/><path d="M226.52739,167.78265c0.31,-2.81796 2.84571,-4.85107 5.66367,-4.54107c2.81796,0.31 4.85107,2.84571 4.54107,5.66367c-0.31,2.81796 -2.84571,4.85107 -5.66367,4.54107c-2.81796,-0.31 -4.85107,-2.84571 -4.54107,-5.66367z" fill="#0debff" stroke="#000000" stroke-width="2" stroke-linecap="butt"/><path d="M235.71841,175.79165l7.01982,-19.58693l29.64103,4.74981l0.54811,20.79964c0,0 -7.22091,2.376 -19.6458,0.48531c-11.87872,-1.80758 -17.56315,-6.44783 -17.56315,-6.44783z" fill="url(#color-1)" stroke="#000000" stroke-width="2" stroke-linecap="butt"/><path d="M237.20937,212.96857c4.74209,-1.41001 6.83571,0.7412 7.77044,3.88484c0.93473,3.14364 -2.15175,6.8351 -6.89385,8.24512c-4.74209,1.41001 -8.82772,1.7412 -9.76245,-1.40244c-0.36101,-1.21413 1.05655,-8.39955 8.88587,-10.72751z" data-paper-data="{&quot;index&quot;:null}" fill="#0debff" stroke="#000000" stroke-width="2" stroke-linecap="butt"/></g></g></svg>