<svg version="1.1" xmlns="http://www.w3.org/2000/svg" xmlns:xlink="http://www.w3.org/1999/xlink" width="77.44132" height="98.28839" viewBox="0,0,77.44132,98.28839"><g transform="translate(-198.03162,-141.67164)"><g data-paper-data="{&quot;isPaintingLayer&quot;:true}" fill-rule="nonzero" stroke="#000000" stroke-width="2" stroke-linejoin="miter" stroke-miterlimit="10" stroke-dasharray="" stroke-dashoffset="0" style="mix-blend-mode: normal"><path d="M204.66478,181.08491c0,0 0.00091,-3.06273 0.50455,-5.03692c0.39899,-1.56398 2.27713,-5.86685 2.27713,-5.86685" fill="none" stroke-linecap="round"/><path d="M202.02785,190.94789c-2.5773,-1.18088 -3.70935,-4.22749 -2.52846,-6.80481c1.18088,-2.5773 4.22749,-3.70935 6.80481,-2.52846c2.5773,1.18088 3.70935,4.22749 2.52846,6.80481c-1.18088,2.5773 -4.22749,3.70935 -6.80481,2.52846z" fill="#e80000" stroke-linecap="butt"/><path d="M210.87739,174.64832c-6.30771,-6.6586 -6.02326,-17.16987 0.63535,-23.47759c6.6586,-6.30771 17.16988,-6.02324 23.4776,0.63536c6.30771,6.6586 6.02326,17.16987 -0.63536,23.47759c-6.6586,6.30771 -17.16987,6.02326 -23.47759,-0.63535z" fill="#e80000" stroke-linecap="butt"/><path d="M244.47161,206.7259l-11.4283,-22.8685l7.02261,-3.50947l11.4283,22.8685z" fill="#e80000" stroke-linecap="butt"/><path d="M234.67491,221.00008c-0.70183,-1.99232 0.34431,-4.17637 2.33663,-4.8782c1.99232,-0.70183 4.17637,0.34431 4.8782,2.33663c0.70183,1.99232 -0.34431,4.17637 -2.33663,4.8782c-1.99232,0.70183 -4.17637,-0.34431 -4.8782,-2.33663z" fill="#e80000" stroke-linecap="butt"/><path d="M255.56232,210.33556c-0.70183,-1.99232 0.34431,-4.17637 2.33663,-4.8782c1.99232,-0.70183 4.17637,0.34431 4.8782,2.33663c0.70183,1.99232 -0.34431,4.17637 -2.33663,4.8782c-1.99232,0.70183 -4.17637,-0.34431 -4.8782,-2.33663z" fill="#e80000" stroke-linecap="butt"/><path d="M272.90353,217.37147c2.8383,4.05211 1.46024,6.71892 -1.226,8.6005c-2.68624,1.88156 -7.16476,0.12199 -10.00306,-3.93012c-2.8383,-4.05211 -4.44547,-7.82294 -1.75923,-9.70451c1.03747,-0.72671 8.30219,-1.65602 12.9883,5.03412z" data-paper-data="{&quot;index&quot;:null}" fill="#e80000" stroke-linecap="butt"/><path d="M209.08065,174.31585l-4.74294,-2.97733l17.75764,-28.28826l4.74293,2.97733z" fill="#ff2121" stroke-linecap="butt"/><path d="M259.04251,231.64462c0.89998,4.86474 -1.46083,6.7188 -4.68577,7.31541c-3.22493,0.59662 -6.56885,-2.86337 -7.46881,-7.72812c-0.89998,-4.86474 -0.79669,-8.96246 2.42825,-9.55908c1.24552,-0.23042 8.24045,1.94 9.72634,9.97178z" data-paper-data="{&quot;index&quot;:null}" fill="#e80000" stroke-linecap="butt"/></g></g></svg>