<svg version="1.1" xmlns="http://www.w3.org/2000/svg" xmlns:xlink="http://www.w3.org/1999/xlink" width="57.0462" height="92.16432" viewBox="0,0,57.0462,92.16432"><g transform="translate(-188.39358,-147.42066)"><g data-paper-data="{&quot;isPaintingLayer&quot;:true}" fill-rule="nonzero" stroke="#000000" stroke-width="2" stroke-linejoin="miter" stroke-miterlimit="10" stroke-dasharray="" stroke-dashoffset="0" style="mix-blend-mode: normal"><path d="M198.46381,173.37363c0,0 2.10697,-2.22284 3.83029,-3.3097c1.36524,-0.86102 5.68789,-2.69317 5.68789,-2.69317" fill="#ff00ca" stroke-linecap="round"/><path d="M189.76649,178.72044c-1.05895,-2.62976 0.21443,-5.62005 2.84419,-6.679c2.62976,-1.05895 5.62005,0.21443 6.679,2.84419c1.05895,2.62976 -0.21443,5.62005 -2.84419,6.679c-2.62976,1.05895 -5.62005,-0.21443 -6.679,-2.84419z" fill="#ff4cdb" stroke-linecap="butt"/><path d="M207.40059,172.97334c0,-9.17193 7.43532,-16.60724 16.60724,-16.60724c9.17193,0 16.60724,7.43532 16.60724,16.60724c0,9.17193 -7.43532,16.60724 -16.60724,16.60724c-9.17193,0 -16.60724,-7.43532 -16.60724,-16.60724z" fill="#ff4cdb" stroke-linecap="butt"/><path d="M219.27728,218.69125v-25.56509h7.8507v25.56509z" fill="#ff4cdb" stroke-linecap="butt"/><path d="M207.20836,217.90736c0,-2.11232 1.71238,-3.8247 3.8247,-3.8247c2.11232,0 3.8247,1.71238 3.8247,3.8247c0,2.11232 -1.71238,3.8247 -3.8247,3.8247c-2.11232,0 -3.8247,-1.71238 -3.8247,-3.8247z" fill="#ff4cdb" stroke-linecap="butt"/><path d="M230.51757,215.63925c0,-2.11232 1.71238,-3.8247 3.8247,-3.8247c2.11232,0 3.8247,1.71238 3.8247,3.8247c0,2.11232 -1.71238,3.8247 -3.8247,3.8247c-2.11232,0 -3.8247,-1.71238 -3.8247,-3.8247z" fill="#ff4cdb" stroke-linecap="butt"/><path d="M212.03048,227.11088c4.11347,0 7.4481,2.47844 7.4481,5.53575c0,3.05731 -3.33463,5.53575 -7.4481,5.53575c-4.11347,0 -7.4481,-2.47844 -7.4481,-5.53575c0,-3.05731 3.33463,-5.53575 7.4481,-5.53575z" data-paper-data="{&quot;index&quot;:null}" fill="#ff4cdb" stroke-linecap="butt"/><path d="M238.09882,226.70828c4.94728,0 6.34095,2.65869 6.34095,5.93835c0,3.27966 -4.01056,5.93835 -8.95785,5.93835c-4.94728,0 -8.95785,-0.84699 -8.95785,-4.12665c0,-1.26666 3.40667,-7.75005 11.57475,-7.75005z" data-paper-data="{&quot;index&quot;:null}" fill="#ff4cdb" stroke-linecap="butt"/><g stroke-linecap="butt"><path d="M229.08538,160.54187c-3.23279,1.36198 -14.02296,-0.98455 -14.02296,-0.98455c0,0 5.85801,-9.36043 9.0908,-10.72241c3.23279,-1.36198 4.57978,0.80292 5.94176,4.03571c1.36198,3.23279 2.22319,6.30927 -1.0096,7.67125z" data-paper-data="{&quot;index&quot;:null}" fill="#f8b5ff"/><path d="M199.63765,166.08432c-1.36198,-3.23279 -1.97026,-5.70892 1.26253,-7.07089c3.23279,-1.36198 14.02296,0.98456 14.02296,0.98456c0,0 -5.85801,9.36044 -9.0908,10.72241c-3.23279,1.36198 -4.83271,-1.40328 -6.19469,-4.63608z" fill="#f8b5ff"/><path d="M210.64942,161.17996c-0.92545,-2.19664 0.10506,-4.72759 2.3017,-5.65304c2.19664,-0.92545 4.72759,0.10506 5.65304,2.3017c0.92545,2.19664 -0.10506,4.72759 -2.3017,5.65304c-2.19664,0.92545 -4.72759,-0.10506 -5.65304,-2.3017z" fill="#f8b5ff"/></g></g></g></svg>