<svg version="1.1" xmlns="http://www.w3.org/2000/svg" xmlns:xlink="http://www.w3.org/1999/xlink" width="198.78536" height="49.0159" viewBox="0,0,198.78536,49.0159"><defs><linearGradient x1="295.41276" y1="185.06942" x2="295.41276" y2="188.2939" gradientUnits="userSpaceOnUse" id="color-1"><stop offset="0" stop-color="#61a83b"/><stop offset="1" stop-color="#82fc58"/></linearGradient><linearGradient x1="294.99202" y1="185.04209" x2="294.99202" y2="188.26657" gradientUnits="userSpaceOnUse" id="color-2"><stop offset="0" stop-color="#61a83b"/><stop offset="1" stop-color="#82fc58"/></linearGradient><linearGradient x1="293.82878" y1="185.17872" x2="293.82878" y2="188.4032" gradientUnits="userSpaceOnUse" id="color-3"><stop offset="0" stop-color="#61a83b"/><stop offset="1" stop-color="#82fc58"/></linearGradient><linearGradient x1="294.24953" y1="185.1514" x2="294.24953" y2="188.37588" gradientUnits="userSpaceOnUse" id="color-4"><stop offset="0" stop-color="#61a83b"/><stop offset="1" stop-color="#82fc58"/></linearGradient><linearGradient x1="291.34665" y1="184.99534" x2="291.34665" y2="188.21982" gradientUnits="userSpaceOnUse" id="color-5"><stop offset="0" stop-color="#61a83b"/><stop offset="1" stop-color="#82fc58"/></linearGradient><linearGradient x1="291.7674" y1="184.96802" x2="291.7674" y2="188.1925" gradientUnits="userSpaceOnUse" id="color-6"><stop offset="0" stop-color="#61a83b"/><stop offset="1" stop-color="#82fc58"/></linearGradient><linearGradient x1="292.93063" y1="185.10465" x2="292.93063" y2="188.32913" gradientUnits="userSpaceOnUse" id="color-7"><stop offset="0" stop-color="#61a83b"/><stop offset="1" stop-color="#82fc58"/></linearGradient><linearGradient x1="292.50988" y1="185.07733" x2="292.50988" y2="188.30181" gradientUnits="userSpaceOnUse" id="color-8"><stop offset="0" stop-color="#61a83b"/><stop offset="1" stop-color="#82fc58"/></linearGradient><linearGradient x1="259.0021" y1="154.05898" x2="256.16788" y2="170.21881" gradientUnits="userSpaceOnUse" id="color-9"><stop offset="0" stop-color="#43a93c"/><stop offset="1" stop-color="#369936"/></linearGradient><linearGradient x1="266.0528" y1="159.00967" x2="263.21858" y2="175.16949" gradientUnits="userSpaceOnUse" id="color-10"><stop offset="0" stop-color="#43a93c"/><stop offset="1" stop-color="#369936"/></linearGradient><linearGradient x1="251.82978" y1="156.88432" x2="249.35303" y2="171.00597" gradientUnits="userSpaceOnUse" id="color-11"><stop offset="0" stop-color="#43a93c"/><stop offset="1" stop-color="#369936"/></linearGradient><linearGradient x1="225.19841" y1="172.90796" x2="228.81615" y2="189.305" gradientUnits="userSpaceOnUse" id="color-12"><stop offset="0" stop-color="#43a93c"/><stop offset="1" stop-color="#369936"/></linearGradient><linearGradient x1="230.65987" y1="174.4914" x2="234.27761" y2="190.88844" gradientUnits="userSpaceOnUse" id="color-13"><stop offset="0" stop-color="#43a93c"/><stop offset="1" stop-color="#369936"/></linearGradient><linearGradient x1="218.07308" y1="175.71935" x2="221.23454" y2="190.0483" gradientUnits="userSpaceOnUse" id="color-14"><stop offset="0" stop-color="#43a93c"/><stop offset="1" stop-color="#369936"/></linearGradient><linearGradient x1="239.90278" y1="188.11115" x2="239.90278" y2="203.88893" gradientUnits="userSpaceOnUse" id="color-15"><stop offset="0" stop-color="#7cfe58"/><stop offset="1" stop-color="#6fe34f"/></linearGradient><linearGradient x1="300.41276" y1="185.14085" x2="300.41276" y2="188.36533" gradientUnits="userSpaceOnUse" id="color-16"><stop offset="0" stop-color="#61a83b"/><stop offset="1" stop-color="#82fc58"/></linearGradient><linearGradient x1="299.99202" y1="185.11352" x2="299.99202" y2="188.338" gradientUnits="userSpaceOnUse" id="color-17"><stop offset="0" stop-color="#61a83b"/><stop offset="1" stop-color="#82fc58"/></linearGradient><linearGradient x1="298.82878" y1="185.25015" x2="298.82878" y2="188.47463" gradientUnits="userSpaceOnUse" id="color-18"><stop offset="0" stop-color="#61a83b"/><stop offset="1" stop-color="#82fc58"/></linearGradient><linearGradient x1="299.24953" y1="185.22283" x2="299.24953" y2="188.44731" gradientUnits="userSpaceOnUse" id="color-19"><stop offset="0" stop-color="#61a83b"/><stop offset="1" stop-color="#82fc58"/></linearGradient><linearGradient x1="296.34666" y1="185.06677" x2="296.34666" y2="188.29125" gradientUnits="userSpaceOnUse" id="color-20"><stop offset="0" stop-color="#61a83b"/><stop offset="1" stop-color="#82fc58"/></linearGradient><linearGradient x1="296.76741" y1="185.03945" x2="296.76741" y2="188.26393" gradientUnits="userSpaceOnUse" id="color-21"><stop offset="0" stop-color="#61a83b"/><stop offset="1" stop-color="#82fc58"/></linearGradient><linearGradient x1="297.93064" y1="185.17608" x2="297.93064" y2="188.40056" gradientUnits="userSpaceOnUse" id="color-22"><stop offset="0" stop-color="#61a83b"/><stop offset="1" stop-color="#82fc58"/></linearGradient><linearGradient x1="297.50989" y1="185.14876" x2="297.50989" y2="188.37324" gradientUnits="userSpaceOnUse" id="color-23"><stop offset="0" stop-color="#61a83b"/><stop offset="1" stop-color="#82fc58"/></linearGradient><linearGradient x1="261.63498" y1="185.40276" x2="261.63498" y2="188.62724" gradientUnits="userSpaceOnUse" id="color-24"><stop offset="0" stop-color="#61a83b"/><stop offset="1" stop-color="#82fc58"/></linearGradient><linearGradient x1="261.21424" y1="185.37543" x2="261.21424" y2="188.59991" gradientUnits="userSpaceOnUse" id="color-25"><stop offset="0" stop-color="#61a83b"/><stop offset="1" stop-color="#82fc58"/></linearGradient><linearGradient x1="260.051" y1="185.51206" x2="260.051" y2="188.73654" gradientUnits="userSpaceOnUse" id="color-26"><stop offset="0" stop-color="#61a83b"/><stop offset="1" stop-color="#82fc58"/></linearGradient><linearGradient x1="260.47175" y1="185.48474" x2="260.47175" y2="188.70922" gradientUnits="userSpaceOnUse" id="color-27"><stop offset="0" stop-color="#61a83b"/><stop offset="1" stop-color="#82fc58"/></linearGradient><linearGradient x1="278.67998" y1="184.99535" x2="278.67998" y2="188.21983" gradientUnits="userSpaceOnUse" id="color-28"><stop offset="0" stop-color="#61a83b"/><stop offset="1" stop-color="#82fc58"/></linearGradient><linearGradient x1="279.10073" y1="184.96803" x2="279.10073" y2="188.19251" gradientUnits="userSpaceOnUse" id="color-29"><stop offset="0" stop-color="#61a83b"/><stop offset="1" stop-color="#82fc58"/></linearGradient><linearGradient x1="280.26396" y1="185.10466" x2="280.26396" y2="188.32914" gradientUnits="userSpaceOnUse" id="color-30"><stop offset="0" stop-color="#61a83b"/><stop offset="1" stop-color="#82fc58"/></linearGradient><linearGradient x1="279.84321" y1="185.07734" x2="279.84321" y2="188.30182" gradientUnits="userSpaceOnUse" id="color-31"><stop offset="0" stop-color="#61a83b"/><stop offset="1" stop-color="#82fc58"/></linearGradient><linearGradient x1="269.19054" y1="185.47419" x2="269.19054" y2="188.69867" gradientUnits="userSpaceOnUse" id="color-32"><stop offset="0" stop-color="#61a83b"/><stop offset="1" stop-color="#82fc58"/></linearGradient><linearGradient x1="268.7698" y1="185.44686" x2="268.7698" y2="188.67134" gradientUnits="userSpaceOnUse" id="color-33"><stop offset="0" stop-color="#61a83b"/><stop offset="1" stop-color="#82fc58"/></linearGradient><linearGradient x1="267.60656" y1="185.58349" x2="267.60656" y2="188.80797" gradientUnits="userSpaceOnUse" id="color-34"><stop offset="0" stop-color="#61a83b"/><stop offset="1" stop-color="#82fc58"/></linearGradient><linearGradient x1="268.02731" y1="185.55617" x2="268.02731" y2="188.78065" gradientUnits="userSpaceOnUse" id="color-35"><stop offset="0" stop-color="#61a83b"/><stop offset="1" stop-color="#82fc58"/></linearGradient><linearGradient x1="263.7911" y1="185.40011" x2="263.7911" y2="188.62459" gradientUnits="userSpaceOnUse" id="color-36"><stop offset="0" stop-color="#61a83b"/><stop offset="1" stop-color="#82fc58"/></linearGradient><linearGradient x1="264.21185" y1="185.37279" x2="264.21185" y2="188.59727" gradientUnits="userSpaceOnUse" id="color-37"><stop offset="0" stop-color="#61a83b"/><stop offset="1" stop-color="#82fc58"/></linearGradient><linearGradient x1="265.37508" y1="185.50942" x2="265.37508" y2="188.7339" gradientUnits="userSpaceOnUse" id="color-38"><stop offset="0" stop-color="#61a83b"/><stop offset="1" stop-color="#82fc58"/></linearGradient><linearGradient x1="264.95433" y1="185.4821" x2="264.95433" y2="188.70658" gradientUnits="userSpaceOnUse" id="color-39"><stop offset="0" stop-color="#61a83b"/><stop offset="1" stop-color="#82fc58"/></linearGradient><linearGradient x1="234.19054" y1="185.40276" x2="234.19054" y2="188.62724" gradientUnits="userSpaceOnUse" id="color-40"><stop offset="0" stop-color="#61a83b"/><stop offset="1" stop-color="#82fc58"/></linearGradient><linearGradient x1="233.7698" y1="185.37543" x2="233.7698" y2="188.59991" gradientUnits="userSpaceOnUse" id="color-41"><stop offset="0" stop-color="#61a83b"/><stop offset="1" stop-color="#82fc58"/></linearGradient><linearGradient x1="232.60656" y1="185.51206" x2="232.60656" y2="188.73654" gradientUnits="userSpaceOnUse" id="color-42"><stop offset="0" stop-color="#61a83b"/><stop offset="1" stop-color="#82fc58"/></linearGradient><linearGradient x1="233.02731" y1="185.48474" x2="233.02731" y2="188.70922" gradientUnits="userSpaceOnUse" id="color-43"><stop offset="0" stop-color="#61a83b"/><stop offset="1" stop-color="#82fc58"/></linearGradient><linearGradient x1="235.12444" y1="185.40011" x2="235.12444" y2="188.62459" gradientUnits="userSpaceOnUse" id="color-44"><stop offset="0" stop-color="#61a83b"/><stop offset="1" stop-color="#82fc58"/></linearGradient><linearGradient x1="235.54519" y1="185.37279" x2="235.54519" y2="188.59727" gradientUnits="userSpaceOnUse" id="color-45"><stop offset="0" stop-color="#61a83b"/><stop offset="1" stop-color="#82fc58"/></linearGradient><linearGradient x1="236.70842" y1="185.50942" x2="236.70842" y2="188.7339" gradientUnits="userSpaceOnUse" id="color-46"><stop offset="0" stop-color="#61a83b"/><stop offset="1" stop-color="#82fc58"/></linearGradient><linearGradient x1="236.28767" y1="185.4821" x2="236.28767" y2="188.70658" gradientUnits="userSpaceOnUse" id="color-47"><stop offset="0" stop-color="#61a83b"/><stop offset="1" stop-color="#82fc58"/></linearGradient><linearGradient x1="200.54912" y1="183.69843" x2="200.54912" y2="188.24297" gradientUnits="userSpaceOnUse" id="color-48"><stop offset="0" stop-color="#61a83b"/><stop offset="1" stop-color="#82fc58"/></linearGradient><linearGradient x1="200.12838" y1="183.65991" x2="200.12838" y2="188.20445" gradientUnits="userSpaceOnUse" id="color-49"><stop offset="0" stop-color="#61a83b"/><stop offset="1" stop-color="#82fc58"/></linearGradient><linearGradient x1="198.96514" y1="183.85248" x2="198.96514" y2="188.39701" gradientUnits="userSpaceOnUse" id="color-50"><stop offset="0" stop-color="#61a83b"/><stop offset="1" stop-color="#82fc58"/></linearGradient><linearGradient x1="199.38589" y1="183.81397" x2="199.38589" y2="188.35851" gradientUnits="userSpaceOnUse" id="color-51"><stop offset="0" stop-color="#61a83b"/><stop offset="1" stop-color="#82fc58"/></linearGradient><linearGradient x1="198.14003" y1="184.1228" x2="198.14003" y2="188.27488" gradientUnits="userSpaceOnUse" id="color-52"><stop offset="0" stop-color="#61a83b"/><stop offset="1" stop-color="#82fc58"/></linearGradient><linearGradient x1="197.71929" y1="184.08761" x2="197.71929" y2="188.23969" gradientUnits="userSpaceOnUse" id="color-53"><stop offset="0" stop-color="#61a83b"/><stop offset="1" stop-color="#82fc58"/></linearGradient><linearGradient x1="196.55605" y1="184.26354" x2="196.55605" y2="188.41562" gradientUnits="userSpaceOnUse" id="color-54"><stop offset="0" stop-color="#61a83b"/><stop offset="1" stop-color="#82fc58"/></linearGradient><linearGradient x1="196.9768" y1="184.22836" x2="196.9768" y2="188.38044" gradientUnits="userSpaceOnUse" id="color-55"><stop offset="0" stop-color="#61a83b"/><stop offset="1" stop-color="#82fc58"/></linearGradient><linearGradient x1="196.00367" y1="183.7811" x2="196.00367" y2="188.32564" gradientUnits="userSpaceOnUse" id="color-56"><stop offset="0" stop-color="#61a83b"/><stop offset="1" stop-color="#82fc58"/></linearGradient><linearGradient x1="195.58293" y1="183.74258" x2="195.58293" y2="188.28712" gradientUnits="userSpaceOnUse" id="color-57"><stop offset="0" stop-color="#61a83b"/><stop offset="1" stop-color="#82fc58"/></linearGradient><linearGradient x1="194.41969" y1="183.93515" x2="194.41969" y2="188.47968" gradientUnits="userSpaceOnUse" id="color-58"><stop offset="0" stop-color="#61a83b"/><stop offset="1" stop-color="#82fc58"/></linearGradient><linearGradient x1="194.84044" y1="183.89664" x2="194.84044" y2="188.44118" gradientUnits="userSpaceOnUse" id="color-59"><stop offset="0" stop-color="#61a83b"/><stop offset="1" stop-color="#82fc58"/></linearGradient><linearGradient x1="192.44035" y1="183.84303" x2="192.44035" y2="188.38757" gradientUnits="userSpaceOnUse" id="color-60"><stop offset="0" stop-color="#61a83b"/><stop offset="1" stop-color="#82fc58"/></linearGradient><linearGradient x1="192.86109" y1="183.80451" x2="192.86109" y2="188.34905" gradientUnits="userSpaceOnUse" id="color-61"><stop offset="0" stop-color="#61a83b"/><stop offset="1" stop-color="#82fc58"/></linearGradient><linearGradient x1="194.02433" y1="183.99708" x2="194.02433" y2="188.54161" gradientUnits="userSpaceOnUse" id="color-62"><stop offset="0" stop-color="#61a83b"/><stop offset="1" stop-color="#82fc58"/></linearGradient><linearGradient x1="193.60358" y1="183.95857" x2="193.60358" y2="188.50311" gradientUnits="userSpaceOnUse" id="color-63"><stop offset="0" stop-color="#61a83b"/><stop offset="1" stop-color="#82fc58"/></linearGradient><linearGradient x1="191.73094" y1="183.14933" x2="191.73094" y2="188.11904" gradientUnits="userSpaceOnUse" id="color-64"><stop offset="0" stop-color="#61a83b"/><stop offset="1" stop-color="#82fc58"/></linearGradient><linearGradient x1="191.3102" y1="183.10721" x2="191.3102" y2="188.07692" gradientUnits="userSpaceOnUse" id="color-65"><stop offset="0" stop-color="#61a83b"/><stop offset="1" stop-color="#82fc58"/></linearGradient><linearGradient x1="190.14696" y1="183.31779" x2="190.14696" y2="188.2875" gradientUnits="userSpaceOnUse" id="color-66"><stop offset="0" stop-color="#61a83b"/><stop offset="1" stop-color="#82fc58"/></linearGradient><linearGradient x1="190.56771" y1="183.27568" x2="190.56771" y2="188.24539" gradientUnits="userSpaceOnUse" id="color-67"><stop offset="0" stop-color="#61a83b"/><stop offset="1" stop-color="#82fc58"/></linearGradient><linearGradient x1="189.59458" y1="183.65298" x2="189.59458" y2="188.19751" gradientUnits="userSpaceOnUse" id="color-68"><stop offset="0" stop-color="#61a83b"/><stop offset="1" stop-color="#82fc58"/></linearGradient><linearGradient x1="189.17384" y1="183.61446" x2="189.17384" y2="188.15899" gradientUnits="userSpaceOnUse" id="color-69"><stop offset="0" stop-color="#61a83b"/><stop offset="1" stop-color="#82fc58"/></linearGradient><linearGradient x1="188.0106" y1="183.80702" x2="188.0106" y2="188.35156" gradientUnits="userSpaceOnUse" id="color-70"><stop offset="0" stop-color="#61a83b"/><stop offset="1" stop-color="#82fc58"/></linearGradient><linearGradient x1="188.43135" y1="183.76852" x2="188.43135" y2="188.31305" gradientUnits="userSpaceOnUse" id="color-71"><stop offset="0" stop-color="#61a83b"/><stop offset="1" stop-color="#82fc58"/></linearGradient><linearGradient x1="247.21879" y1="177.79463" x2="247.21879" y2="189.3875" gradientUnits="userSpaceOnUse" id="color-72"><stop offset="0" stop-color="#61a83b"/><stop offset="1" stop-color="#82fc58"/></linearGradient><linearGradient x1="245.83471" y1="177.69636" x2="245.83471" y2="189.28924" gradientUnits="userSpaceOnUse" id="color-73"><stop offset="0" stop-color="#61a83b"/><stop offset="1" stop-color="#82fc58"/></linearGradient><linearGradient x1="242.00806" y1="178.1876" x2="242.00806" y2="189.78045" gradientUnits="userSpaceOnUse" id="color-74"><stop offset="0" stop-color="#61a83b"/><stop offset="1" stop-color="#82fc58"/></linearGradient><linearGradient x1="243.39218" y1="178.08936" x2="243.39218" y2="189.68223" gradientUnits="userSpaceOnUse" id="color-75"><stop offset="0" stop-color="#61a83b"/><stop offset="1" stop-color="#82fc58"/></linearGradient><linearGradient x1="248.82804" y1="177.02326" x2="248.82804" y2="188.61614" gradientUnits="userSpaceOnUse" id="color-76"><stop offset="0" stop-color="#61a83b"/><stop offset="1" stop-color="#82fc58"/></linearGradient><linearGradient x1="250.21212" y1="176.925" x2="250.21212" y2="188.51787" gradientUnits="userSpaceOnUse" id="color-77"><stop offset="0" stop-color="#61a83b"/><stop offset="1" stop-color="#82fc58"/></linearGradient><linearGradient x1="254.03877" y1="177.41624" x2="254.03877" y2="189.00908" gradientUnits="userSpaceOnUse" id="color-78"><stop offset="0" stop-color="#61a83b"/><stop offset="1" stop-color="#82fc58"/></linearGradient><linearGradient x1="252.65466" y1="177.318" x2="252.65466" y2="188.91087" gradientUnits="userSpaceOnUse" id="color-79"><stop offset="0" stop-color="#61a83b"/><stop offset="1" stop-color="#82fc58"/></linearGradient></defs><g transform="translate(-140.5101,-154.87303)"><g data-paper-data="{&quot;isPaintingLayer&quot;:true}" fill-rule="nonzero" stroke-width="0" stroke-linejoin="miter" stroke-miterlimit="10" stroke-dasharray="" stroke-dashoffset="0" style="mix-blend-mode: normal"><g data-paper-data="{&quot;index&quot;:null}" stroke="#000000" stroke-linecap="round"><path d="M295.15875,188.29389c0,0 0.27865,-0.76385 0.30566,-1.3645c0.03568,-0.79333 -0.11027,-2.98035 -0.11027,-2.98035c0,0 0.33563,1.64302 0.38711,2.35395c0.0527,0.72785 -0.07448,1.96358 -0.07448,1.96358z" fill="url(#color-1)"/><path d="M294.73801,188.23924l0.31263,-4.31752l0.19539,4.34485z" data-paper-data="{&quot;index&quot;:null}" fill="url(#color-2)"/><path d="M293.57478,188.37588c0,0 -0.12719,-1.23574 -0.07449,-1.96358c0.05148,-0.71093 0.38711,-2.35395 0.38711,-2.35395c0,0 -0.14595,2.18701 -0.11027,2.98034c0.02701,0.60065 0.30566,1.36451 0.30566,1.36451z" data-paper-data="{&quot;index&quot;:null}" fill="url(#color-3)"/><path d="M293.99552,188.37588l0.19539,-4.34485l0.31263,4.31752z" data-paper-data="{&quot;index&quot;:null}" fill="url(#color-4)"/></g><g data-paper-data="{&quot;index&quot;:null}" stroke="#000000" stroke-linecap="round"><path d="M291.09265,188.19249c0,0 -0.12719,-1.23572 -0.07449,-1.96357c0.05148,-0.71093 0.38711,-2.35395 0.38711,-2.35395c0,0 -0.14595,2.18701 -0.11027,2.98034c0.02701,0.60065 0.30566,1.36451 0.30566,1.36451z" fill="url(#color-5)"/><path d="M291.51338,188.1925l0.19539,-4.34485l0.31263,4.31752z" data-paper-data="{&quot;index&quot;:null}" fill="url(#color-6)"/><path d="M292.67663,188.32914c0,0 0.27865,-0.76387 0.30566,-1.36451c0.03568,-0.79333 -0.11027,-2.98035 -0.11027,-2.98035c0,0 0.33563,1.64302 0.38711,2.35395c0.0527,0.72784 -0.07449,1.96357 -0.07449,1.96357z" data-paper-data="{&quot;index&quot;:null}" fill="url(#color-7)"/><path d="M292.25587,188.27449l0.31263,-4.31753l0.19539,4.34485z" data-paper-data="{&quot;index&quot;:null}" fill="url(#color-8)"/></g><path d="M254.17907,188.29353l1.27028,-15.12989l-5.42463,-1.84479l-4.05307,-2.54109l0.8006,-0.27815l-2.00471,-2.05795l6.25469,2.97448l3.68853,0.67297l-0.46484,-2.25262l5.5491,0.19917l-0.26459,5.99066l3.70718,0.78892l5.29979,-1.55606l-0.52995,1.6338l1.34301,0.81057l-2.87535,1.31565l-6.95742,-0.3445l-0.32439,2.5222l0.60171,9.30418z" data-paper-data="{&quot;index&quot;:null}" fill="#ad6222" stroke="none" stroke-linecap="butt"/><g data-paper-data="{&quot;index&quot;:null}" stroke="none" stroke-linecap="butt"><path d="M256.16788,170.21882c-4.62124,-0.78799 -7.73302,-5.04426 -6.95037,-9.50668c0.78265,-4.46242 6.66521,-6.45894 11.28645,-5.67095c4.62123,0.78798 6.16257,4.72965 5.37992,9.19207c-0.78264,4.46241 -5.09476,6.77354 -9.716,5.98555z" fill="url(#color-9)"/><path d="M256.13101,166.99801c0.78264,-4.4624 2.43356,-8.36556 7.05479,-7.57757c4.62123,0.78799 10.28144,3.65625 9.49879,8.11866c-0.78264,4.4624 -3.61568,7.3303 -8.23691,6.54231c-4.62123,-0.78798 -9.09932,-2.62098 -8.31667,-7.0834z" fill="url(#color-10)"/><path d="M243.44389,161.09608c1.4719,-4.41547 6.45822,-4.54046 10.49659,-3.85186c4.03837,0.6886 4.64697,4.04815 3.96303,7.94773c-0.68393,3.89959 -4.51212,6.50262 -8.55049,5.81402c-4.03837,-0.6886 -7.38102,-5.49442 -5.90912,-9.90989z" fill="url(#color-11)"/></g><g data-paper-data="{&quot;index&quot;:null}" stroke="none" stroke-linecap="butt"><path d="M218.80876,182.91535c-0.99901,-4.52791 4.07754,-9.49726 8.60547,-10.49627c4.52791,-0.99901 6.79257,2.35062 7.79158,6.87853c0.99901,4.52791 -1.86173,9.00839 -6.38965,10.0074c-4.52792,0.99901 -9.00838,-1.86175 -10.00739,-6.38966z" fill="url(#color-12)"/><path d="M224.27023,184.49878c-0.99901,-4.52792 2.98933,-6.00402 7.51724,-7.00303c4.52791,-0.99901 7.30304,1.15363 8.30205,5.68154c0.99901,4.52791 -1.28399,6.71214 -5.8119,7.71115c-4.52791,0.99901 -9.00838,-1.86175 -10.00739,-6.38966z" fill="url(#color-13)"/><path d="M212.48935,184.46455c-0.87301,-3.95683 3.69501,-8.32848 7.65184,-9.20149c3.95683,-0.87301 5.80409,2.08321 6.6771,6.04004c0.87301,3.95683 -1.62692,7.87219 -5.58375,8.7452c-3.95682,0.87301 -7.87218,-1.62692 -8.74519,-5.58375z" fill="url(#color-14)"/></g><path d="M140.5101,203.88893v-15.77777h198.78536v15.77777z" data-paper-data="{&quot;index&quot;:null}" fill="url(#color-15)" stroke="none" stroke-linecap="butt"/><g data-paper-data="{&quot;index&quot;:null}" stroke="#000000" stroke-linecap="round"><path d="M300.15875,188.36532c0,0 0.27865,-0.76385 0.30566,-1.3645c0.03568,-0.79333 -0.11027,-2.98035 -0.11027,-2.98035c0,0 0.33563,1.64302 0.38711,2.35395c0.0527,0.72785 -0.07448,1.96358 -0.07448,1.96358z" fill="url(#color-16)"/><path d="M299.73801,188.31067l0.31263,-4.31752l0.19539,4.34485z" data-paper-data="{&quot;index&quot;:null}" fill="url(#color-17)"/><path d="M298.57478,188.44731c0,0 -0.12719,-1.23574 -0.07449,-1.96358c0.05148,-0.71093 0.38711,-2.35395 0.38711,-2.35395c0,0 -0.14595,2.18701 -0.11027,2.98034c0.02701,0.60065 0.30566,1.36451 0.30566,1.36451z" data-paper-data="{&quot;index&quot;:null}" fill="url(#color-18)"/><path d="M298.99552,188.44731l0.19539,-4.34485l0.31263,4.31752z" data-paper-data="{&quot;index&quot;:null}" fill="url(#color-19)"/></g><g data-paper-data="{&quot;index&quot;:null}" stroke="#000000" stroke-linecap="round"><path d="M296.09266,188.26392c0,0 -0.12719,-1.23572 -0.07449,-1.96357c0.05148,-0.71093 0.38711,-2.35395 0.38711,-2.35395c0,0 -0.14595,2.18701 -0.11027,2.98034c0.02701,0.60065 0.30566,1.36451 0.30566,1.36451z" fill="url(#color-20)"/><path d="M296.51339,188.26393l0.19539,-4.34485l0.31263,4.31752z" data-paper-data="{&quot;index&quot;:null}" fill="url(#color-21)"/><path d="M297.67664,188.40057c0,0 0.27865,-0.76387 0.30566,-1.36451c0.03568,-0.79333 -0.11027,-2.98035 -0.11027,-2.98035c0,0 0.33563,1.64302 0.38711,2.35395c0.0527,0.72784 -0.07449,1.96357 -0.07449,1.96357z" data-paper-data="{&quot;index&quot;:null}" fill="url(#color-22)"/><path d="M297.25588,188.34592l0.31263,-4.31753l0.19539,4.34485z" data-paper-data="{&quot;index&quot;:null}" fill="url(#color-23)"/></g><g data-paper-data="{&quot;index&quot;:null}" stroke="#000000" stroke-linecap="round"><path d="M261.38097,188.62723c0,0 0.27865,-0.76385 0.30566,-1.3645c0.03568,-0.79333 -0.11027,-2.98035 -0.11027,-2.98035c0,0 0.33563,1.64302 0.38711,2.35395c0.0527,0.72785 -0.07448,1.96358 -0.07448,1.96358z" fill="url(#color-24)"/><path d="M260.96023,188.57258l0.31263,-4.31752l0.19539,4.34485z" data-paper-data="{&quot;index&quot;:null}" fill="url(#color-25)"/><path d="M259.797,188.70922c0,0 -0.12719,-1.23574 -0.07449,-1.96358c0.05148,-0.71093 0.38711,-2.35395 0.38711,-2.35395c0,0 -0.14595,2.18701 -0.11027,2.98034c0.02701,0.60065 0.30566,1.36451 0.30566,1.36451z" data-paper-data="{&quot;index&quot;:null}" fill="url(#color-26)"/><path d="M260.21774,188.70922l0.19539,-4.34485l0.31263,4.31752z" data-paper-data="{&quot;index&quot;:null}" fill="url(#color-27)"/></g><g data-paper-data="{&quot;index&quot;:null}" stroke="#000000" stroke-linecap="round"><path d="M278.42598,188.1925c0,0 -0.12719,-1.23572 -0.07449,-1.96357c0.05148,-0.71093 0.38711,-2.35395 0.38711,-2.35395c0,0 -0.14595,2.18701 -0.11027,2.98034c0.02701,0.60065 0.30566,1.36451 0.30566,1.36451z" fill="url(#color-28)"/><path d="M278.84671,188.19251l0.19539,-4.34485l0.31263,4.31752z" data-paper-data="{&quot;index&quot;:null}" fill="url(#color-29)"/><path d="M280.00996,188.32915c0,0 0.27865,-0.76387 0.30566,-1.36451c0.03568,-0.79333 -0.11027,-2.98035 -0.11027,-2.98035c0,0 0.33563,1.64302 0.38711,2.35395c0.0527,0.72784 -0.07449,1.96357 -0.07449,1.96357z" data-paper-data="{&quot;index&quot;:null}" fill="url(#color-30)"/><path d="M279.5892,188.2745l0.31263,-4.31753l0.19539,4.34485z" data-paper-data="{&quot;index&quot;:null}" fill="url(#color-31)"/></g><g data-paper-data="{&quot;index&quot;:null}" stroke="#000000" stroke-linecap="round"><path d="M268.93653,188.69866c0,0 0.27865,-0.76385 0.30566,-1.3645c0.03568,-0.79333 -0.11027,-2.98035 -0.11027,-2.98035c0,0 0.33563,1.64302 0.38711,2.35395c0.0527,0.72785 -0.07448,1.96358 -0.07448,1.96358z" fill="url(#color-32)"/><path d="M268.51579,188.64401l0.31263,-4.31752l0.19539,4.34485z" data-paper-data="{&quot;index&quot;:null}" fill="url(#color-33)"/><path d="M267.35256,188.78065c0,0 -0.12719,-1.23574 -0.07449,-1.96358c0.05148,-0.71093 0.38711,-2.35395 0.38711,-2.35395c0,0 -0.14595,2.18701 -0.11027,2.98034c0.02701,0.60065 0.30566,1.36451 0.30566,1.36451z" data-paper-data="{&quot;index&quot;:null}" fill="url(#color-34)"/><path d="M267.7733,188.78065l0.19539,-4.34485l0.31263,4.31752z" data-paper-data="{&quot;index&quot;:null}" fill="url(#color-35)"/></g><g data-paper-data="{&quot;index&quot;:null}" stroke="#000000" stroke-linecap="round"><path d="M263.5371,188.59726c0,0 -0.12719,-1.23572 -0.07449,-1.96357c0.05148,-0.71093 0.38711,-2.35395 0.38711,-2.35395c0,0 -0.14595,2.18701 -0.11027,2.98034c0.02701,0.60065 0.30566,1.36451 0.30566,1.36451z" fill="url(#color-36)"/><path d="M263.95783,188.59727l0.19539,-4.34485l0.31263,4.31752z" data-paper-data="{&quot;index&quot;:null}" fill="url(#color-37)"/><path d="M265.12108,188.73391c0,0 0.27865,-0.76387 0.30566,-1.36451c0.03568,-0.79333 -0.11027,-2.98035 -0.11027,-2.98035c0,0 0.33563,1.64302 0.38711,2.35395c0.0527,0.72784 -0.07449,1.96357 -0.07449,1.96357z" data-paper-data="{&quot;index&quot;:null}" fill="url(#color-38)"/><path d="M264.70032,188.67926l0.31263,-4.31753l0.19539,4.34485z" data-paper-data="{&quot;index&quot;:null}" fill="url(#color-39)"/></g><g data-paper-data="{&quot;index&quot;:null}" stroke="#000000" stroke-linecap="round"><path d="M233.93653,188.62723c0,0 0.27865,-0.76385 0.30566,-1.3645c0.03568,-0.79333 -0.11027,-2.98035 -0.11027,-2.98035c0,0 0.33563,1.64302 0.38711,2.35395c0.0527,0.72785 -0.07448,1.96358 -0.07448,1.96358z" fill="url(#color-40)"/><path d="M233.51579,188.57258l0.31263,-4.31752l0.19539,4.34485z" data-paper-data="{&quot;index&quot;:null}" fill="url(#color-41)"/><path d="M232.35256,188.70922c0,0 -0.12719,-1.23574 -0.07449,-1.96358c0.05148,-0.71093 0.38711,-2.35395 0.38711,-2.35395c0,0 -0.14595,2.18701 -0.11027,2.98034c0.02701,0.60065 0.30566,1.36451 0.30566,1.36451z" data-paper-data="{&quot;index&quot;:null}" fill="url(#color-42)"/><path d="M232.7733,188.70922l0.19539,-4.34485l0.31263,4.31752z" data-paper-data="{&quot;index&quot;:null}" fill="url(#color-43)"/></g><g data-paper-data="{&quot;index&quot;:null}" stroke="#000000" stroke-linecap="round"><path d="M234.87044,188.59726c0,0 -0.12719,-1.23572 -0.07449,-1.96357c0.05148,-0.71093 0.38711,-2.35395 0.38711,-2.35395c0,0 -0.14595,2.18701 -0.11027,2.98034c0.02701,0.60065 0.30566,1.36451 0.30566,1.36451z" fill="url(#color-44)"/><path d="M235.29117,188.59727l0.19539,-4.34485l0.31263,4.31752z" data-paper-data="{&quot;index&quot;:null}" fill="url(#color-45)"/><path d="M236.45442,188.73391c0,0 0.27865,-0.76387 0.30566,-1.36451c0.03568,-0.79333 -0.11027,-2.98035 -0.11027,-2.98035c0,0 0.33563,1.64302 0.38711,2.35395c0.0527,0.72784 -0.07449,1.96357 -0.07449,1.96357z" data-paper-data="{&quot;index&quot;:null}" fill="url(#color-46)"/><path d="M236.03366,188.67926l0.31263,-4.31753l0.19539,4.34485z" data-paper-data="{&quot;index&quot;:null}" fill="url(#color-47)"/></g><g data-paper-data="{&quot;index&quot;:null}" stroke="#000000" stroke-linecap="round"><path d="M200.29511,188.24295c0,0 0.27865,-1.07656 0.30566,-1.92311c0.03568,-1.1181 -0.11027,-4.20046 -0.11027,-4.20046c0,0 0.33563,2.31565 0.38711,3.31763c0.0527,1.02582 -0.07448,2.76744 -0.07448,2.76744z" fill="url(#color-48)"/><path d="M199.87437,188.16593l0.31263,-6.08505l0.19539,6.12357z" data-paper-data="{&quot;index&quot;:null}" fill="url(#color-49)"/><path d="M198.71114,188.35851c0,0 -0.10446,-1.74163 -0.05176,-2.76744c0.05148,-1.00198 0.61438,-3.31763 0.61438,-3.31763c0,0 -0.39595,3.08234 -0.36027,4.20045c0.02701,0.84655 0.30566,1.92312 0.30566,1.92312z" data-paper-data="{&quot;index&quot;:null}" fill="url(#color-50)"/><path d="M199.13188,188.35851l0.44539,-6.12357l0.06263,6.08505z" data-paper-data="{&quot;index&quot;:null}" fill="url(#color-51)"/></g><g data-paper-data="{&quot;index&quot;:null}" stroke="#000000" stroke-linecap="round"><path d="M197.88602,188.27487c0,0 0.27865,-0.98359 0.30566,-1.75703c0.03568,-1.02155 -0.11027,-3.83772 -0.11027,-3.83772c0,0 0.33563,2.11567 0.38711,3.03112c0.0527,0.93723 -0.07448,2.52845 -0.07448,2.52845z" fill="url(#color-52)"/><path d="M197.46528,188.2045l0.31263,-5.55956l0.19539,5.59475z" data-paper-data="{&quot;index&quot;:null}" fill="url(#color-53)"/><path d="M196.30205,188.38045c0,0 -0.10447,-1.59123 -0.05177,-2.52845c0.05148,-0.91545 0.61439,-3.03112 0.61439,-3.03112c0,0 -0.39595,2.81615 -0.36027,3.8377c0.02701,0.77344 0.30566,1.75704 0.30566,1.75704z" data-paper-data="{&quot;index&quot;:null}" fill="url(#color-54)"/><path d="M196.72279,188.38044l0.44539,-5.59475l0.06263,5.55956z" data-paper-data="{&quot;index&quot;:null}" fill="url(#color-55)"/></g><g data-paper-data="{&quot;index&quot;:null}" stroke="#000000" stroke-linecap="round"><path d="M195.74966,188.32562c0,0 0.27865,-1.07656 0.30566,-1.92311c0.03568,-1.1181 -0.11027,-4.20046 -0.11027,-4.20046c0,0 0.33563,2.31565 0.38711,3.31763c0.0527,1.02582 -0.07448,2.76744 -0.07448,2.76744z" fill="url(#color-56)"/><path d="M195.32892,188.2486l0.31263,-6.08505l0.19539,6.12357z" data-paper-data="{&quot;index&quot;:null}" fill="url(#color-57)"/><path d="M194.16569,188.44118c0,0 -0.10447,-1.74163 -0.05177,-2.76744c0.05148,-1.00198 0.61439,-3.31763 0.61439,-3.31763c0,0 -0.39595,3.08234 -0.36027,4.20045c0.02701,0.84655 0.30566,1.92312 0.30566,1.92312z" data-paper-data="{&quot;index&quot;:null}" fill="url(#color-58)"/><path d="M194.58643,188.44118l0.44539,-6.12357l0.06263,6.08505z" data-paper-data="{&quot;index&quot;:null}" fill="url(#color-59)"/></g><g data-paper-data="{&quot;index&quot;:null}" stroke="#000000" stroke-linecap="round"><path d="M192.18634,188.34905c0,0 -0.12718,-1.74162 -0.07448,-2.76744c0.05148,-1.00198 0.38711,-3.31763 0.38711,-3.31763c0,0 -0.14595,3.08235 -0.11027,4.20046c0.02701,0.84655 0.30566,1.92311 0.30566,1.92311z" fill="url(#color-60)"/><path d="M192.60708,188.34905l0.19539,-6.12357l0.31263,6.08505z" data-paper-data="{&quot;index&quot;:null}" fill="url(#color-61)"/><path d="M193.77032,188.54161c0,0 0.27865,-1.07657 0.30566,-1.92312c0.03568,-1.11811 -0.36027,-4.20045 -0.36027,-4.20045c0,0 0.56291,2.31565 0.61439,3.31763c0.0527,1.0258 -0.05177,2.76744 -0.05177,2.76744z" data-paper-data="{&quot;index&quot;:null}" fill="url(#color-62)"/><path d="M193.34957,188.46459l0.06263,-6.08505l0.44539,6.12357z" data-paper-data="{&quot;index&quot;:null}" fill="url(#color-63)"/></g><g data-paper-data="{&quot;index&quot;:null}" stroke="#000000" stroke-linecap="round"><path d="M191.47693,188.11902c0,0 0.27865,-1.17727 0.30566,-2.10302c0.03568,-1.22271 -0.11027,-4.59344 -0.11027,-4.59344c0,0 0.33563,2.53229 0.38711,3.62801c0.0527,1.12179 -0.07448,3.02635 -0.07448,3.02635z" fill="url(#color-64)"/><path d="M191.05619,188.03479l0.31263,-6.65434l0.19539,6.69647z" data-paper-data="{&quot;index&quot;:null}" fill="url(#color-65)"/><path d="M189.89295,188.24539c0,0 -0.10446,-1.90457 -0.05176,-3.02635c0.05148,-1.09572 0.61439,-3.62801 0.61439,-3.62801c0,0 -0.39595,3.37072 -0.36027,4.59343c0.02701,0.92575 0.30566,2.10304 0.30566,2.10304z" data-paper-data="{&quot;index&quot;:null}" fill="url(#color-66)"/><path d="M190.3137,188.2454l0.44539,-6.69647l0.06263,6.65434z" data-paper-data="{&quot;index&quot;:null}" fill="url(#color-67)"/></g><g data-paper-data="{&quot;index&quot;:null}" stroke="#000000" stroke-linecap="round"><path d="M189.34057,188.19749c0,0 0.27865,-1.07656 0.30566,-1.92311c0.03568,-1.1181 -0.11027,-4.20046 -0.11027,-4.20046c0,0 0.33563,2.31565 0.38711,3.31763c0.0527,1.02582 -0.07448,2.76744 -0.07448,2.76744z" fill="url(#color-68)"/><path d="M188.91983,188.12047l0.31263,-6.08505l0.19539,6.12357z" data-paper-data="{&quot;index&quot;:null}" fill="url(#color-69)"/><path d="M187.7566,188.31306c0,0 -0.10447,-1.74163 -0.05177,-2.76744c0.05148,-1.00198 0.61439,-3.31763 0.61439,-3.31763c0,0 -0.39595,3.08234 -0.36027,4.20045c0.02701,0.84655 0.30566,1.92312 0.30566,1.92312z" data-paper-data="{&quot;index&quot;:null}" fill="url(#color-70)"/><path d="M188.17734,188.31306l0.44539,-6.12357l0.06263,6.08505z" data-paper-data="{&quot;index&quot;:null}" fill="url(#color-71)"/></g><g data-paper-data="{&quot;index&quot;:null}" stroke="#000000" stroke-linecap="round"><path d="M246.38319,189.38745c0,0 0.91666,-2.74625 1.00551,-4.90575c0.11737,-2.85221 -0.36275,-10.71514 -0.36275,-10.71514c0,0 1.1041,5.9071 1.27346,8.46309c0.17336,2.61681 -0.24501,7.05959 -0.24501,7.05959z" fill="url(#color-72)"/><path d="M244.9991,189.19097l1.02844,-15.52263l0.64276,15.62089z" data-paper-data="{&quot;index&quot;:null}" fill="url(#color-73)"/><path d="M241.17249,189.68223c0,0 -0.34367,-4.4428 -0.17031,-7.05959c0.16935,-2.556 2.02113,-8.46309 2.02113,-8.46309c0,0 -1.30254,7.86288 -1.18516,10.71512c0.08885,2.1595 1.00551,4.90577 1.00551,4.90577z" data-paper-data="{&quot;index&quot;:null}" fill="url(#color-74)"/><path d="M242.55657,189.68223l1.46518,-15.62089l0.20603,15.52263z" data-paper-data="{&quot;index&quot;:null}" fill="url(#color-75)"/></g><g data-paper-data="{&quot;index&quot;:null}" stroke="#000000" stroke-linecap="round"><path d="M247.99244,188.51787c0,0 -0.41838,-4.44278 -0.24501,-7.05958c0.16935,-2.55599 1.27345,-8.46309 1.27345,-8.46309c0,0 -0.48012,7.86293 -0.36275,10.71514c0.08885,2.1595 1.00551,4.90575 1.00551,4.90575z" fill="url(#color-76)"/><path d="M249.37652,188.51787l0.64276,-15.62089l1.02844,15.52263z" data-paper-data="{&quot;index&quot;:null}" fill="url(#color-77)"/><path d="M253.20317,189.00908c0,0 0.91665,-2.74626 1.00551,-4.90577c0.11738,-2.85224 -1.18516,-10.71512 -1.18516,-10.71512c0,0 1.85178,5.90709 2.02113,8.46309c0.17336,2.61678 -0.17031,7.05959 -0.17031,7.05959z" data-paper-data="{&quot;index&quot;:null}" fill="url(#color-78)"/><path d="M251.81905,188.81261l0.20603,-15.52263l1.46517,15.62089z" data-paper-data="{&quot;index&quot;:null}" fill="url(#color-79)"/></g></g></g></svg>