<svg version="1.1" xmlns="http://www.w3.org/2000/svg" xmlns:xlink="http://www.w3.org/1999/xlink" width="88.08917" height="90.24081" viewBox="0,0,88.08917,90.24081"><g transform="translate(-191.58825,-135.38298)"><g data-paper-data="{&quot;isPaintingLayer&quot;:true}" fill-rule="nonzero" stroke="#000000" stroke-width="2" stroke-linejoin="miter" stroke-miterlimit="10" stroke-dasharray="" stroke-dashoffset="0" style="mix-blend-mode: normal"><path d="M271.41766,164.20157c-0.66556,-2.00473 0.42005,-4.16943 2.42477,-4.83499c2.00473,-0.66556 4.16943,0.42005 4.83499,2.42477c0.66556,2.00473 -0.42005,4.16943 -2.42477,4.83499c-2.00473,0.66556 -4.16943,-0.42005 -4.83499,-2.42477z" fill="#ffe819" stroke-linecap="butt"/><path d="M215.20822,166.42175c-4.15852,-8.17503 -0.90248,-18.17333 7.27253,-22.33184c8.17503,-4.15852 18.17333,-0.90248 22.33184,7.27253c4.15852,8.17503 0.90248,18.17333 -7.27253,22.33184c-8.17503,4.15852 -18.17333,0.90248 -22.33184,-7.27253z" fill="#ffe819" stroke-linecap="butt"/><path d="M240.99463,205.4985l-8.05519,-24.26289l7.45081,-2.47364l8.05519,24.26289z" fill="#ffe819" stroke-linecap="butt"/><path d="M260.86685,166.48821c-0.66556,-2.00473 0.42005,-4.16943 2.42477,-4.83499c2.00473,-0.66556 4.16943,0.42005 4.83499,2.42477c0.66556,2.00473 -0.42005,4.16943 -2.42477,4.83499c-2.00473,0.66556 -4.16943,-0.42005 -4.83499,-2.42477z" fill="#ffe819" stroke-linecap="butt"/><path d="M228.17961,213.55258c4.11336,-0.02976 7.46584,2.42448 7.48796,5.48171c0.02212,3.05723 -3.29449,5.55973 -7.40785,5.5895c-4.11336,0.02976 -7.46584,-2.42448 -7.48796,-5.48171c-0.02212,-3.05723 3.29449,-5.55973 7.40785,-5.5895z" data-paper-data="{&quot;index&quot;:null}" fill="#ffe819" stroke-linecap="butt"/><path d="M199.66803,168.49074c0,0 0.86617,-2.9377 1.90706,-4.68917c0.8246,-1.38753 3.84189,-4.98449 3.84189,-4.98449" fill="none" stroke-linecap="round"/><path d="M194.35197,177.2069c-2.13868,-1.86093 -2.36385,-5.10325 -0.50292,-7.24193c1.86093,-2.13868 5.10325,-2.36385 7.24193,-0.50292c2.13868,1.86093 2.36385,5.10325 0.50292,7.24193c-1.86093,2.13868 -5.10325,2.36385 -7.24193,0.50292z" fill="#ffe819" stroke-linecap="butt"/><path d="M262.88002,205.23855c4.69528,-1.55882 6.85568,0.52532 7.88905,3.63793c1.03337,3.1126 -1.93519,6.89954 -6.63048,8.45836c-4.69528,1.55882 -8.76844,2.01864 -9.80181,-1.09396c-0.39911,-1.20214 0.79122,-8.42868 8.54324,-11.00233z" data-paper-data="{&quot;index&quot;:null}" fill="#ffe819" stroke-linecap="butt"/><path d="M211.15017,168.43319l-0.31447,-11.41698l-11.01042,3.82671c0,0 6.7478,-16.67095 15.8762,-22.09373c9.1284,-5.42277 21.02488,0.17245 21.02488,0.17245z" data-paper-data="{&quot;index&quot;:null}" fill="#fff067" stroke-linecap="butt"/></g></g></svg>