<svg version="1.1" xmlns="http://www.w3.org/2000/svg" xmlns:xlink="http://www.w3.org/1999/xlink" width="73.17101" height="113.11883" viewBox="0,0,73.17101,113.11883"><g transform="translate(-205.40878,-121.31142)"><g data-paper-data="{&quot;isPaintingLayer&quot;:true}" fill-rule="nonzero" stroke="#000000" stroke-width="2" stroke-linejoin="miter" stroke-miterlimit="10" stroke-dasharray="" stroke-dashoffset="0" style="mix-blend-mode: normal"><path d="M238.69875,206.62206v-25.56509h7.8507v25.56509z" fill="#1d28e8" stroke-linecap="butt"/><path d="M234.55899,229.39516c-2.68644,-7.71367 2.31582,-13.06316 3.51201,-13.47976c3.0972,-1.07866 5.21612,2.43021 6.84326,7.10226c1.62713,4.67205 0.43541,9.33392 -2.66179,10.41258c-3.0972,1.07866 -6.06636,0.63696 -7.69349,-4.03509z" data-paper-data="{&quot;index&quot;:null}" fill="#1d28e8" stroke-linecap="butt"/><path d="M255.22918,220.3834c-1.82874,4.59687 -4.81429,4.90906 -7.86166,3.69674c-3.04737,-1.21232 -4.03526,-5.92159 -2.20651,-10.51848c1.82874,-4.59687 4.09825,-8.0103 7.14561,-6.79798c1.17694,0.46822 5.94186,6.03016 2.92255,13.61972z" data-paper-data="{&quot;index&quot;:null}" fill="#1d28e8" stroke-linecap="butt"/><path d="M269.93039,188.18907c0,-2.11232 1.71238,-3.8247 3.8247,-3.8247c2.11232,0 3.8247,1.71238 3.8247,3.8247c0,2.11232 -1.71238,3.8247 -3.8247,3.8247c-2.11232,0 -3.8247,-1.71238 -3.8247,-3.8247z" fill="#1d28e8" stroke-linecap="butt"/><path d="M206.40878,187.31537c0,-2.11232 1.71238,-3.8247 3.8247,-3.8247c2.11232,0 3.8247,1.71238 3.8247,3.8247c0,2.11232 -1.71238,3.8247 -3.8247,3.8247c-2.11232,0 -3.8247,-1.71238 -3.8247,-3.8247z" fill="#1d28e8" stroke-linecap="butt"/><path d="M243.09821,175.89546c-9.06629,1.38803 -17.5412,-4.83642 -18.92923,-13.90271c-1.38803,-9.06629 4.83642,-17.5412 13.90271,-18.92923c9.06629,-1.38803 17.5412,4.83642 18.92923,13.90271c1.38803,9.06629 -4.83642,17.5412 -13.90271,18.92923z" data-paper-data="{&quot;index&quot;:null}" fill="#1d28e8" stroke-linecap="butt"/><path d="M256.18512,155.8113c0,0 4.65252,0.62937 6.1963,1.10053c1.94869,0.59476 4.56658,2.18441 4.56658,2.18441" data-paper-data="{&quot;index&quot;:null}" fill="none" stroke-linecap="round"/><path d="M271.05178,166.46681c-2.8158,-0.32916 -4.83157,-2.87867 -4.5024,-5.69445c0.32916,-2.8158 2.87867,-4.83157 5.69445,-4.5024c2.8158,0.32916 4.83157,2.87867 4.5024,5.69445c-0.32916,2.8158 -2.87867,4.83157 -5.69445,4.5024z" data-paper-data="{&quot;index&quot;:null}" fill="#1d28e8" stroke-linecap="butt"/><path d="M205.97628,147.88818l20.55122,3.2723l-0.9229,-28.49138l39.31705,11.80413l-7.84619,21.66711z" data-paper-data="{&quot;index&quot;:null}" fill="#2530ff" stroke-linecap="round"/></g></g></svg>