<svg version="1.1" xmlns="http://www.w3.org/2000/svg" xmlns:xlink="http://www.w3.org/1999/xlink" width="70.79786" height="106.85678" viewBox="0,0,70.79786,106.85678"><g transform="translate(-207.97817,-117.96473)"><g data-paper-data="{&quot;isPaintingLayer&quot;:true}" fill-rule="nonzero" stroke="#000000" stroke-width="2" stroke-linejoin="miter" stroke-miterlimit="10" stroke-dasharray="" stroke-dashoffset="0" style="mix-blend-mode: normal"><path d="M230.15829,203.45934c0,-2.11232 1.71238,-3.8247 3.8247,-3.8247c2.11232,0 3.8247,1.71238 3.8247,3.8247c0,2.11232 -1.71238,3.8247 -3.8247,3.8247c-2.11232,0 -3.8247,-1.71238 -3.8247,-3.8247z" fill="#1d28e8" stroke-linecap="butt"/><path d="M228.37363,156.0282c0.68068,-9.14664 8.6473,-16.00964 17.79393,-15.32896c9.14664,0.68068 16.00964,8.6473 15.32896,17.79393c-0.68068,9.14664 -8.6473,16.00964 -17.79393,15.32896c-9.14664,-0.68068 -16.00964,-8.6473 -15.32896,-17.79393z" fill="#1d28e8" stroke-linecap="butt"/><path d="M236.82467,202.50146l1.89728,-25.49459l7.82905,0.58263l-1.89728,25.49459z" fill="#1d28e8" stroke-linecap="butt"/><path d="M219.68216,200.14626c0,-2.11232 1.71238,-3.8247 3.8247,-3.8247c2.11232,0 3.8247,1.71238 3.8247,3.8247c0,2.11232 -1.71238,3.8247 -3.8247,3.8247c-2.11232,0 -3.8247,-1.71238 -3.8247,-3.8247z" fill="#1d28e8" stroke-linecap="butt"/><path d="M218.62172,158.9233c0,0 2.48671,-1.7879 4.3834,-2.532c1.50258,-0.58948 6.09227,-1.57779 6.09227,-1.57779" fill="none" stroke-linecap="round"/><path d="M209.07544,162.54275c-0.54657,-2.78177 1.26541,-5.47993 4.04718,-6.0265c2.78177,-0.54657 5.47993,1.26541 6.0265,4.04718c0.54657,2.78177 -1.26541,5.47993 -4.04718,6.0265c-2.78177,0.54657 -5.47993,-1.26541 -6.0265,-4.04718z" fill="#1d28e8" stroke-linecap="butt"/><path d="M259.82555,211.68209c4.88682,-0.77105 6.67783,1.63794 7.18898,4.87752c0.51115,3.23958 -3.03603,6.49085 -7.92287,7.2619c-4.88682,0.77105 -8.98039,0.55947 -9.49154,-2.68011c-0.19741,-1.25119 2.15717,-8.18628 10.22543,-9.45931z" data-paper-data="{&quot;index&quot;:null}" fill="#1d28e8" stroke-linecap="butt"/><path d="M228.23526,155.21059l-9.50302,-20.99331l38.28311,-14.81794l1.28964,28.47713l20.23552,-4.85637z" fill="#2530ff" stroke-linecap="round"/><path d="M225.44734,217.51412c-3.79185,3.17763 -6.56772,2.03502 -8.67425,-0.47868c-2.10652,-2.51371 -0.74028,-7.12745 3.05157,-10.30509c3.79185,-3.17763 7.40981,-5.10445 9.51632,-2.59074c0.81357,0.97083 2.3668,8.12815 -3.89365,13.37452z" data-paper-data="{&quot;index&quot;:null}" fill="#1d28e8" stroke-linecap="butt"/></g></g></svg>