<svg version="1.1" xmlns="http://www.w3.org/2000/svg" xmlns:xlink="http://www.w3.org/1999/xlink" width="99.76569" height="82.06206" viewBox="0,0,99.76569,82.06206"><g transform="translate(-206.94187,-143.77124)"><g data-paper-data="{&quot;isPaintingLayer&quot;:true}" fill-rule="nonzero" stroke="#000000" stroke-width="2" stroke-linejoin="miter" stroke-miterlimit="10" stroke-dasharray="" stroke-dashoffset="0" style="mix-blend-mode: normal"><path d="M233.70598,150.41243c0,0 3.00193,-0.60728 5.03682,-0.5057c1.61207,0.08048 6.2022,1.06677 6.2022,1.06677" fill="#181818" stroke-linecap="round"/><path d="M223.14281,149.81405c0.64558,-2.76047 3.40672,-4.47496 6.1672,-3.82937c2.76047,0.64558 4.47496,3.40672 3.82937,6.1672c-0.64558,2.76047 -3.40672,4.47496 -6.1672,3.82937c-2.76047,-0.64558 -4.47496,-3.40672 -3.82937,-6.1672z" fill="#181818" stroke-linecap="butt"/><path d="M243.25492,163.91494c0,-9.17193 7.43532,-16.60724 16.60724,-16.60724c9.17193,0 16.60724,7.43532 16.60724,16.60724c0,9.17193 -7.43532,16.60724 -16.60724,16.60724c-9.17193,0 -16.60724,-7.43532 -16.60724,-16.60724z" fill="#181818" stroke-linecap="butt"/><path d="M258.68588,167.54794v-5.24474h19.39678v5.24474z" fill="#ff0000" stroke-linecap="butt"/><g><path d="M245.14242,156.83415v-12.06291h29.6328v12.06291z" fill="#343434" stroke-linecap="butt"/><path d="M285.52696,156.83415h-51.13626" fill="none" stroke-linecap="round"/></g><path d="M231.39725,207.95973c-2.05728,0.47905 -4.11339,-0.80036 -4.59244,-2.85764c-0.47905,-2.05728 0.80036,-4.11339 2.85764,-4.59244c2.05728,-0.47905 4.11339,0.80036 4.59244,2.85764c0.47905,2.05728 -0.80036,4.11339 -2.85764,4.59244z" data-paper-data="{&quot;index&quot;:null}" fill="#181818" stroke-linecap="butt"/><path d="M234.08936,204.67712l13.45429,-21.73835l6.67556,4.13163l-13.45429,21.73835z" data-paper-data="{&quot;index&quot;:null}" fill="#181818" stroke-linecap="butt"/><path d="M225.02736,222.19098c-0.78031,3.18548 -4.87722,3.05394 -9.68244,1.87687c-4.80522,-1.17707 -8.06804,-4.71361 -7.28775,-7.89909c0.78031,-3.18548 2.76651,-5.43624 7.57173,-4.25917c7.93352,1.94337 9.69982,9.05111 9.39845,10.2814z" data-paper-data="{&quot;index&quot;:null}" fill="#181818" stroke-linecap="butt"/><path d="M252.60461,189.82913l0.96167,6.63236l-13.85828,-9.99767l5.72891,-1.42605l-0.96062,-5.56634l12.42304,7.33374z" data-paper-data="{&quot;index&quot;:null}" fill="#0e0e0e" stroke-linecap="round"/><path d="M303.89999,177.76059c-1.0525,0.76182 -18.51828,10.66572 -42.16126,13.74592c-20.22789,2.63529 -47.16874,-1.36259 -47.81958,-2.11022c-0.65936,-0.75741 29.00902,-0.54865 47.11202,-4.28312c18.103,-3.73446 36.74505,-12.492 37.75703,-13.2245c1.95297,-1.41361 4.68049,-1.24509 6.09207,0.37639c1.41158,1.62148 0.97269,4.08192 -0.98028,5.49553z" data-paper-data="{&quot;index&quot;:null}" fill="#181818" stroke-linecap="butt"/><path d="M253.5901,213.72525c4.11347,0 7.4481,2.47844 7.4481,5.53575c0,3.05731 -3.33463,5.53575 -7.4481,5.53575c-4.11347,0 -7.4481,-2.47844 -7.4481,-5.53575c0,-3.05731 3.33463,-5.53575 7.4481,-5.53575z" data-paper-data="{&quot;index&quot;:null}" fill="#181818" stroke-linecap="butt"/></g></g></svg>