<svg version="1.1" xmlns="http://www.w3.org/2000/svg" xmlns:xlink="http://www.w3.org/1999/xlink" width="138.86323" height="174.98183" viewBox="0,0,138.86323,174.98183"><defs><radialGradient cx="240.27633" cy="145.03111" r="18.84183" gradientUnits="userSpaceOnUse" id="color-1"><stop offset="0" stop-color="#ffffff"/><stop offset="1" stop-color="#0debff"/></radialGradient><linearGradient x1="176.03969" y1="147.26573" x2="305.6378" y2="147.26573" gradientUnits="userSpaceOnUse" id="color-2"><stop offset="0" stop-color="#ffffff"/><stop offset="1" stop-color="#76f4ff"/></linearGradient></defs><g transform="translate(-175.53968,-60.09031)"><g data-paper-data="{&quot;isPaintingLayer&quot;:true}" fill-rule="nonzero" stroke-linejoin="miter" stroke-miterlimit="10" stroke-dasharray="" stroke-dashoffset="0" style="mix-blend-mode: normal"><path d="M289.36529,187.50555c-1.68584,-1.27273 -2.02073,-3.67113 -0.748,-5.35697c1.27273,-1.68584 3.67113,-2.02073 5.35697,-0.748c1.68584,1.27273 2.02073,3.67113 0.748,5.35697c-1.27273,1.68584 -3.67113,2.02073 -5.35697,0.748z" fill="#0debff" stroke="#000000" stroke-width="2" stroke-linecap="butt"/><path d="M236.49089,210.18697l4.82404,-25.10582l7.70966,1.48139l-4.82404,25.10582z" data-paper-data="{&quot;index&quot;:null}" fill="#0debff" stroke="#000000" stroke-width="2" stroke-linecap="butt"/><path d="M216.24608,195.1694c-0.23482,-2.09923 1.27659,-3.99135 3.37582,-4.22617c2.09923,-0.23482 3.99135,1.27659 4.22617,3.37582c0.23482,2.09923 -1.27659,3.99135 -3.37582,4.22617c-2.09923,0.23482 -3.99135,-1.27659 -4.22617,-3.37582z" fill="#0debff" stroke="#000000" stroke-width="2" stroke-linecap="butt"/><path d="M222.88337,215.61448c4.11347,0 7.4481,2.47844 7.4481,5.53575c0,3.05731 -3.33463,5.53575 -7.4481,5.53575c-4.11347,0 -7.4481,-2.47844 -7.4481,-5.53575c0,-3.05731 3.33463,-5.53575 7.4481,-5.53575z" data-paper-data="{&quot;index&quot;:null}" fill="#0debff" stroke="#000000" stroke-width="2" stroke-linecap="butt"/><path d="M262.72492,213.49501c4.74209,-1.41001 6.83571,0.7412 7.77044,3.88484c0.93473,3.14364 -2.15175,6.8351 -6.89385,8.24512c-4.74209,1.41001 -8.82772,1.7412 -9.76245,-1.40244c-0.36101,-1.21413 1.05655,-8.39955 8.88587,-10.72751z" data-paper-data="{&quot;index&quot;:null}" fill="#0debff" stroke="#000000" stroke-width="2" stroke-linecap="butt"/><path d="M240.38046,160.32689c3.96081,-8.27262 13.87796,-11.76803 22.15058,-7.80723c8.27262,3.96081 11.76803,13.87796 7.80723,22.15058c-3.96081,8.27262 -13.87796,11.76803 -22.15058,7.80723c-8.27262,-3.96081 -11.76803,-13.87796 -7.80723,-22.15058z" fill="#0debff" stroke="#000000" stroke-width="2" stroke-linecap="butt"/><path d="M229.75328,158.64672c0,0 2.49209,-1.7804 4.39101,-2.51877c1.50435,-0.58495 6.09701,-1.55941 6.09701,-1.55941" fill="none" stroke="#000000" stroke-width="2" stroke-linecap="round"/><path d="M220.19612,162.23735c-0.53818,-2.78341 1.28193,-5.47609 4.06534,-6.01427c2.78341,-0.53818 5.47609,1.28193 6.01427,4.06534c0.53818,2.78341 -1.28193,5.47609 -4.06534,6.01427c-2.78341,0.53818 -5.47609,-1.28193 -6.01427,-4.06534z" fill="#0debff" stroke="#000000" stroke-width="2" stroke-linecap="butt"/><path d="M236.26924,164.38252l0.90622,-20.78712l29.71843,-4.23864l6.68147,19.70491z" fill="url(#color-1)" stroke="#000000" stroke-width="2" stroke-linecap="butt"/><g data-paper-data="{&quot;index&quot;:null}" stroke="#53acb4" stroke-width="1" stroke-linecap="butt"><path d="M305.6378,130.38172l-5.81977,29.77133c0,0 -34.47997,-14.21115 -51.52554,-3.45838c-17.04557,10.75277 -65.44534,77.24649 -65.44534,77.24649c0,0 -42.53048,-153.12539 85.02054,-173.27281c17.60868,-2.78139 37.7701,69.71337 37.7701,69.71337z" data-paper-data="{&quot;index&quot;:null}" fill="url(#color-2)"/><path d="M291.1488,186.10305l0.016,-24.85844l5.59496,-0.50419l5.01946,24.40466z" fill="#76f4ff"/><path d="M293.48983,156.225l19.51614,-5.4832l-10.15264,12.34901l-16.79144,1.46377l-12.75404,-10.23533z" fill="#76f4ff"/></g></g></g></svg>