<svg version="1.1" xmlns="http://www.w3.org/2000/svg" xmlns:xlink="http://www.w3.org/1999/xlink" width="64.38415" height="83.39647" viewBox="0,0,64.38415,83.39647"><g transform="translate(-211.87834,-144.05191)"><g data-paper-data="{&quot;isPaintingLayer&quot;:true}" fill-rule="nonzero" stroke="#000000" stroke-width="2" stroke-linejoin="miter" stroke-miterlimit="10" stroke-dasharray="" stroke-dashoffset="0" style="mix-blend-mode: normal"><path d="M232.19251,205.65659l5.11469,-25.04823l7.69198,1.57065l-5.11469,25.04823z" fill="#181818" stroke-linecap="butt"/><path d="M235.5384,178.57741l14.07104,3.18142l-4.5163,3.39261l3.19176,4.96655l-16.94246,-2.22674l5.24811,-4.16779z" fill="#0e0e0e" stroke-linecap="round"/><path d="M240.51726,212.09767c0,-2.11232 1.71238,-3.8247 3.8247,-3.8247c2.11232,0 3.8247,1.71238 3.8247,3.8247c0,2.11232 -1.71238,3.8247 -3.8247,3.8247c-2.11232,0 -3.8247,-1.71238 -3.8247,-3.8247z" fill="#181818" stroke-linecap="butt"/><path d="M223.44151,150.6931c0,0 3.00193,-0.60728 5.03682,-0.5057c1.61207,0.08048 6.2022,1.06677 6.2022,1.06677" fill="#181818" stroke-linecap="round"/><path d="M212.87834,150.09472c0.64558,-2.76047 3.40672,-4.47496 6.1672,-3.82937c2.76047,0.64558 4.47496,3.40672 3.82937,6.1672c-0.64558,2.76047 -3.40672,4.47496 -6.1672,3.82937c-2.76047,-0.64558 -4.47496,-3.40672 -3.82937,-6.1672z" fill="#181818" stroke-linecap="butt"/><path d="M232.99045,164.19561c0,-9.17193 7.43532,-16.60724 16.60724,-16.60724c9.17193,0 16.60724,7.43532 16.60724,16.60724c0,9.17193 -7.43532,16.60724 -16.60724,16.60724c-9.17193,0 -16.60724,-7.43532 -16.60724,-16.60724z" fill="#181818" stroke-linecap="butt"/><path d="M251.89247,213.35504c4.92579,-0.46066 6.56096,2.05671 6.86634,5.32212c0.30538,3.26541 -3.4402,6.28598 -8.366,6.74664c-4.92579,0.46066 -8.99779,-0.00921 -9.30318,-3.27463c-0.11794,-1.26116 2.67024,-8.03359 10.80283,-8.79414z" data-paper-data="{&quot;index&quot;:null}" fill="#181818" stroke-linecap="butt"/><path d="M252.72308,171.55673v-5.24474h16.529v5.24474z" fill="#8c0808" stroke-linecap="butt"/><g><path d="M234.87795,157.11482v-12.06291h29.6328v12.06291z" fill="#343434" stroke-linecap="butt"/><path d="M275.26249,157.11482h-51.13626" fill="none" stroke-linecap="round"/></g><path d="M227.04238,212.32602c0,-2.11232 1.71238,-3.8247 3.8247,-3.8247c2.11232,0 3.8247,1.71238 3.8247,3.8247c0,2.11232 -1.71238,3.8247 -3.8247,3.8247c-2.11232,0 -3.8247,-1.71238 -3.8247,-3.8247z" fill="#181818" stroke-linecap="butt"/><path d="M226.72668,214.66697c4.94391,0.18258 6.2385,2.89089 6.11747,6.16832c-0.12103,3.27743 -4.22698,5.7863 -9.1709,5.60371c-4.94391,-0.18258 -8.92049,-1.17701 -8.79945,-4.45443c0.04674,-1.2658 3.69037,-7.61905 11.85289,-7.3176z" data-paper-data="{&quot;index&quot;:null}" fill="#181818" stroke-linecap="butt"/></g></g></svg>