<svg version="1.1" xmlns="http://www.w3.org/2000/svg" xmlns:xlink="http://www.w3.org/1999/xlink" width="102.60666" height="76.90113" viewBox="0,0,102.60666,76.90113"><g transform="translate(-213.91068,-151.58272)"><g data-paper-data="{&quot;isPaintingLayer&quot;:true}" fill-rule="nonzero" stroke="#000000" stroke-width="2" stroke-linejoin="miter" stroke-miterlimit="10" stroke-dasharray="" stroke-dashoffset="0" style="mix-blend-mode: normal"><path d="M238.02117,193.55872c0.24417,-2.09816 2.14301,-3.60112 4.24117,-3.35695c2.09816,0.24417 3.60112,2.14301 3.35695,4.24117c-0.24417,2.09816 -2.14301,3.60112 -4.24117,3.35695c-2.09816,-0.24417 -3.60112,-2.14301 -3.35695,-4.24117z" fill="#2d6a2b" stroke-linecap="butt"/><path d="M261.44879,170.68812c1.06021,-9.11045 9.30516,-15.63644 18.4156,-14.57623c9.11045,1.06021 15.63644,9.30516 14.57623,18.4156c-1.06021,9.11045 -9.30516,15.63644 -18.4156,14.57623c-9.11045,-1.06021 -15.63644,-9.30516 -14.57623,-18.4156z" fill="#2d6a2b" stroke-linecap="butt"/><path d="M272.44614,153.46256c15.38477,-3.80146 24.56451,5.94631 24.56451,5.94631l-39.26569,11.76018c0,0 -1.83997,-13.61929 14.70117,-17.70649z" fill="#367e33" stroke-linecap="round"/><path d="M239.20904,207.0167l18.68416,-17.44925l5.35842,5.73766l-18.68416,17.44925z" fill="#2d6a2b" stroke-linecap="butt"/><path d="M307.89322,192.08785c0.24417,-2.09816 2.14301,-3.60112 4.24117,-3.35695c2.09816,0.24417 3.60112,2.14301 3.35695,4.24117c-0.24417,2.09816 -2.14301,3.60112 -4.24117,3.35695c-2.09816,-0.24417 -3.60112,-2.14301 -3.35695,-4.24117z" fill="#2d6a2b" stroke-linecap="butt"/><path d="M266.34938,215.60716c4.94728,0 6.34095,2.65869 6.34095,5.93835c0,3.27966 -4.01057,5.93835 -8.95785,5.93835c-4.94728,0 -8.95785,-0.84699 -8.95785,-4.12665c0,-1.26666 3.40667,-7.75005 11.57475,-7.75005z" data-paper-data="{&quot;index&quot;:null}" fill="#2d6a2b" stroke-linecap="butt"/><path d="M258.06041,157.83602c0,0 2.91347,-0.94447 4.94673,-1.07479c1.61077,-0.10323 6.28325,0.35507 6.28325,0.35507" fill="none" stroke-linecap="round"/><path d="M247.8651,158.37215c0.3277,-2.81596 2.87614,-4.83309 5.6921,-4.50538c2.81596,0.3277 4.83309,2.87614 4.50538,5.6921c-0.3277,2.81596 -2.87614,4.83309 -5.6921,4.50538c-2.81596,-0.3277 -4.83309,-2.87614 -4.50538,-5.6921z" fill="#2d6a2b" stroke-linecap="butt"/><path d="M225.58629,222.57384c-2.43484,4.30664 -5.43515,4.21134 -8.29012,2.59723c-2.85497,-1.61411 -3.19554,-6.41383 -0.7607,-10.72047c2.43484,-4.30664 5.14598,-7.38101 8.00095,-5.7669c1.10264,0.6234 5.06985,6.77977 1.04987,13.89013z" data-paper-data="{&quot;index&quot;:null}" fill="#2d6a2b" stroke-linecap="butt"/></g></g></svg>