<svg version="1.1" xmlns="http://www.w3.org/2000/svg" xmlns:xlink="http://www.w3.org/1999/xlink" width="105.80863" height="89.04792" viewBox="0,0,105.80863,89.04792"><g transform="translate(-191.99549,-134.91119)"><g data-paper-data="{&quot;isPaintingLayer&quot;:true}" fill-rule="nonzero" stroke="#000000" stroke-width="2" stroke-linejoin="miter" stroke-miterlimit="10" stroke-dasharray="" stroke-dashoffset="0" style="mix-blend-mode: normal"><path d="M209.62159,154.61342c2.37652,-8.85869 11.48445,-14.11354 20.34314,-11.73702c8.85869,2.37652 14.11354,11.48445 11.73702,20.34314c-2.37652,8.85869 -11.48445,14.11353 -20.34313,11.73701c-8.85869,-2.37652 -14.11354,-11.48444 -11.73702,-20.34313z" fill="#2d6a2b" stroke-linecap="butt"/><path d="M223.01175,139.17433c15.77451,-1.51893 23.43577,9.4625 23.43577,9.4625l-40.56029,5.91265c0,0 0.16434,-13.74204 17.12452,-15.37514z" fill="#367e33" stroke-linecap="round"/><path d="M236.62865,204.28417l-14.43673,-21.09868l6.47912,-4.43333l14.43673,21.09868z" data-paper-data="{&quot;index&quot;:null}" fill="#2d6a2b" stroke-linecap="butt"/><path d="M208.97299,195.72108c0,-2.11232 1.71238,-3.8247 3.8247,-3.8247c2.11232,0 3.8247,1.71238 3.8247,3.8247c0,2.11232 -1.71238,3.8247 -3.8247,3.8247c-2.11232,0 -3.8247,-1.71238 -3.8247,-3.8247z" fill="#2d6a2b" stroke-linecap="butt"/><path d="M244.34463,186.23639c0,-2.11232 1.71238,-3.8247 3.8247,-3.8247c2.11232,0 3.8247,1.71238 3.8247,3.8247c0,2.11232 -1.71238,3.8247 -3.8247,3.8247c-2.11232,0 -3.8247,-1.71238 -3.8247,-3.8247z" fill="#2d6a2b" stroke-linecap="butt"/><path d="M210.06417,222.91745c-4.93104,0.40039 -6.53532,-2.13679 -6.80075,-5.40569c-0.26542,-3.26891 3.51682,-6.24343 8.44787,-6.64384c4.93104,-0.40038 8.99703,0.11923 9.26244,3.38814c0.10252,1.2625 -2.76829,8.00034 -10.90957,8.66138z" data-paper-data="{&quot;index&quot;:null}" fill="#2d6a2b" stroke-linecap="butt"/><path d="M203.16009,140.67087c0,0 3.02001,-0.50982 5.05055,-0.34244c1.60862,0.1326 6.16443,1.2669 6.16443,1.2669" fill="none" stroke-linecap="round"/><path d="M192.99549,139.71558c0.73457,-2.73814 3.54974,-4.36237 6.28788,-3.62782c2.73814,0.73457 4.36237,3.54974 3.62781,6.28788c-0.73457,2.73814 -3.54974,4.36237 -6.28788,3.62782c-2.73814,-0.73457 -4.36236,-3.54974 -3.62781,-6.28788z" fill="#2d6a2b" stroke-linecap="butt"/><path d="M285.38022,181.94609c3.95353,-4.0499 7.24371,-3.06614 9.92849,-0.44526c2.68478,2.6209 1.65622,8.02863 -2.2973,12.07856c-3.95353,4.0499 -7.85188,6.65617 -10.53665,4.03528c-1.0369,-1.01223 -3.6219,-8.98209 2.90549,-15.66857z" data-paper-data="{&quot;index&quot;:null}" fill="#2d6a2b" stroke-linecap="butt"/></g></g></svg>