<svg version="1.1" xmlns="http://www.w3.org/2000/svg" xmlns:xlink="http://www.w3.org/1999/xlink" width="115.31625" height="104.65636" viewBox="0,0,115.31625,104.65636"><defs><radialGradient cx="235.91378" cy="138.60211" r="18.84183" gradientUnits="userSpaceOnUse" id="color-1"><stop offset="0" stop-color="#ffffff"/><stop offset="1" stop-color="#0debff"/></radialGradient></defs><g transform="translate(-198.51147,-123.66708)"><g data-paper-data="{&quot;isPaintingLayer&quot;:true}" fill-rule="nonzero" stroke-linejoin="miter" stroke-miterlimit="10" stroke-dasharray="" stroke-dashoffset="0" style="mix-blend-mode: normal"><path d="M236.38407,206.87473l2.16965,-25.47285l7.82237,0.66626l-2.16965,25.47285z" data-paper-data="{&quot;index&quot;:null}" fill="#0debff" stroke="#000000" stroke-width="2" stroke-linecap="butt"/><path d="M275.0115,154.5365c0,-2.11232 1.71238,-3.8247 3.8247,-3.8247c2.11232,0 3.8247,1.71238 3.8247,3.8247c0,2.11232 -1.71238,3.8247 -3.8247,3.8247c-2.11232,0 -3.8247,-1.71238 -3.8247,-3.8247z" fill="#0debff" stroke="#000000" stroke-width="2" stroke-linecap="butt"/><path d="M222.88335,215.61447c4.11347,0 7.4481,2.47844 7.4481,5.53575c0,3.05731 -3.33463,5.53575 -7.4481,5.53575c-4.11347,0 -7.4481,-2.47844 -7.4481,-5.53575c0,-3.05731 3.33463,-5.53575 7.4481,-5.53575z" data-paper-data="{&quot;index&quot;:null}" fill="#0debff" stroke="#000000" stroke-width="2" stroke-linecap="butt"/><path d="M236.01791,153.89789c3.96081,-8.27262 13.87796,-11.76803 22.15058,-7.80723c8.27262,3.96081 11.76803,13.87796 7.80723,22.15058c-3.96081,8.27262 -13.87796,11.76803 -22.15058,7.80723c-8.27262,-3.96081 -11.76803,-13.87796 -7.80723,-22.15058z" fill="#0debff" stroke="#000000" stroke-width="2" stroke-linecap="butt"/><path d="M225.39073,152.21772c0,0 2.49209,-1.7804 4.39101,-2.51877c1.50435,-0.58495 6.09701,-1.55941 6.09701,-1.55941" fill="none" stroke="#000000" stroke-width="2" stroke-linecap="round"/><path d="M215.83357,155.80835c-0.53818,-2.78341 1.28193,-5.47609 4.06534,-6.01427c2.78341,-0.53818 5.47609,1.28193 6.01427,4.06534c0.53818,2.78341 -1.28193,5.47609 -4.06534,6.01427c-2.78341,0.53818 -5.47609,-1.28193 -6.01427,-4.06534z" fill="#0debff" stroke="#000000" stroke-width="2" stroke-linecap="butt"/><path d="M231.90669,157.95352l0.90622,-20.78712l29.71843,-4.23864l6.68147,19.70491z" fill="url(#color-1)" stroke="#000000" stroke-width="2" stroke-linecap="butt"/><path d="M257.04341,216.25194c4.11347,0 7.4481,2.47844 7.4481,5.53575c0,3.05731 -3.33463,5.53575 -7.4481,5.53575c-4.11347,0 -7.4481,-2.47844 -7.4481,-5.53575c0,-3.05731 3.33463,-5.53575 7.4481,-5.53575z" data-paper-data="{&quot;index&quot;:null}" fill="#0debff" stroke="#000000" stroke-width="2" stroke-linecap="butt"/><g data-paper-data="{&quot;index&quot;:null}" fill="#76f4ff" stroke="#53acb4" stroke-width="1" stroke-linecap="butt"><path d="M262.62563,149.07838l34.29608,-11.51047l-26.38532,24.74928l-71.72795,33.87762z" data-paper-data="{&quot;index&quot;:null}"/><path d="M313.1177,133.56659l-22.40429,10.76987l-2.88153,-4.82231l19.81091,-15.10994z"/><path d="M285.18209,144.41924l-13.40699,-15.20518l15.5309,3.79013l8.60345,14.494l-3.68892,15.9317z"/></g><path d="M215.83166,194.69982c0,-2.11232 1.71238,-3.8247 3.8247,-3.8247c2.11232,0 3.8247,1.71238 3.8247,3.8247c0,2.11232 -1.71238,3.8247 -3.8247,3.8247c-2.11232,0 -3.8247,-1.71238 -3.8247,-3.8247z" fill="#0debff" stroke="#000000" stroke-width="2" stroke-linecap="butt"/></g></g></svg>