<svg version="1.1" xmlns="http://www.w3.org/2000/svg" xmlns:xlink="http://www.w3.org/1999/xlink" width="18.76285" height="32.95614" viewBox="0,0,18.76285,32.95614"><defs><linearGradient x1="264.09508" y1="158.97322" x2="245.12639" y2="158.35542" gradientUnits="userSpaceOnUse" id="color-1"><stop offset="0" stop-color="#ff0000" stop-opacity="0"/><stop offset="1" stop-color="#ff0000"/></linearGradient><linearGradient x1="261.77617" y1="157.15138" x2="247.0286" y2="157.15546" gradientUnits="userSpaceOnUse" id="color-2"><stop offset="0" stop-color="#ff7b00" stop-opacity="0"/><stop offset="1" stop-color="#ff7b00"/></linearGradient><linearGradient x1="259.32394" y1="155.0058" x2="248.52423" y2="155.5293" gradientUnits="userSpaceOnUse" id="color-3"><stop offset="0" stop-color="#ffde00" stop-opacity="0"/><stop offset="1" stop-color="#ffde00"/></linearGradient></defs><g transform="translate(-245.5912,-142.85143)"><g data-paper-data="{&quot;isPaintingLayer&quot;:true}" fill-rule="nonzero" stroke="#000000" stroke-width="0" stroke-linecap="butt" stroke-linejoin="miter" stroke-miterlimit="10" stroke-dasharray="" stroke-dashoffset="0" style="mix-blend-mode: normal"><path d="M245.75241,146.93606c1.07517,-5.33347 4.88498,-4.74712 8.86796,-2.18739c3.98297,2.55973 6.6949,7.65031 8.95254,13.64006c3.36317,8.92278 -5.22247,17.41884 -5.22247,17.41884c0,0 1.74007,-9.82977 -4.03416,-16.55776c-5.17366,-6.02823 -9.63906,-6.98027 -8.56388,-12.31376z" data-paper-data="{&quot;index&quot;:null}" fill="url(#color-1)"/><path d="M246.64617,147.32272c0.42805,-4.61451 3.42517,-4.218 6.70644,-2.13024c3.28126,2.08776 5.76974,6.38668 7.97447,11.47126c3.28435,7.57437 -2.72398,15.11902 -2.72398,15.11902c0,0 0.60172,-8.49789 -4.38444,-14.1178c-4.46755,-5.03539 -8.00055,-5.72772 -7.5725,-10.34224z" data-paper-data="{&quot;index&quot;:null}" fill="url(#color-2)"/><path d="M247.66643,147.93244c0.04233,-3.58664 2.26049,-3.3855 4.7861,-1.88538c2.5256,1.50012 4.60056,4.73959 6.51388,8.59718c2.85025,5.74654 0.32306,12.56679 0.32306,12.56679c0,0 -1.48819,-7.36728 -5.46988,-11.54106c-3.56755,-3.73967 -6.19551,-4.15086 -6.15317,-7.73752z" data-paper-data="{&quot;index&quot;:null}" fill="url(#color-3)"/></g></g></svg>