<svg version="1.1" xmlns="http://www.w3.org/2000/svg" xmlns:xlink="http://www.w3.org/1999/xlink" width="144.4964" height="112.31637" viewBox="0,0,144.4964,112.31637"><g transform="translate(-214.36603,-114.77314)"><g data-paper-data="{&quot;isPaintingLayer&quot;:true}" fill-rule="nonzero" stroke="#000000" stroke-width="2" stroke-linejoin="miter" stroke-miterlimit="10" stroke-dasharray="" stroke-dashoffset="0" style="mix-blend-mode: normal"><path d="M234.28618,161.32963c0,-9.17193 7.43532,-16.60724 16.60724,-16.60724c9.17193,0 16.60724,7.43532 16.60724,16.60724c0,9.17193 -7.43532,16.60724 -16.60724,16.60724c-9.17193,0 -16.60724,-7.43532 -16.60724,-16.60724z" fill="#ff6b00" stroke-linecap="butt"/><path d="M237.47377,205.20032l4.50247,-25.16548l7.72799,1.38265l-4.50247,25.16548z" fill="#ff6b00" stroke-linecap="butt"/><path d="M222.81413,215.01801c4.11347,0 7.4481,2.47844 7.4481,5.53575c0,3.05731 -3.33463,5.53575 -7.4481,5.53575c-4.11347,0 -7.4481,-2.47844 -7.4481,-5.53575c0,-3.05731 3.33463,-5.53575 7.4481,-5.53575z" data-paper-data="{&quot;index&quot;:null}" fill="#ff6b00" stroke-linecap="butt"/><path d="M306.45874,150.79625c0,0 2.66711,-1.50562 4.63371,-2.03811c1.55797,-0.42185 6.22815,-0.90297 6.22815,-0.90297" fill="none" stroke-linecap="round"/><path d="M296.57426,153.35142c-0.23948,-2.82483 1.85634,-5.30894 4.68117,-5.54842c2.82483,-0.23948 5.30894,1.85634 5.54842,4.68117c0.23948,2.82483 -1.85634,5.30894 -4.68117,5.54842c-2.82483,0.23948 -5.30894,-1.85634 -5.54842,-4.68117z" fill="#ff6b00" stroke-linecap="butt"/><path d="M260.56185,211.5285c4.52935,-1.99011 6.87479,-0.11664 8.19408,2.88597c1.31929,3.00261 -1.28298,7.05 -5.81234,9.04013c-4.52935,1.99011 -8.54183,2.82799 -9.86112,-0.17462c-0.50953,-1.15965 0.00132,-8.46573 7.47939,-11.75146z" data-paper-data="{&quot;index&quot;:null}" fill="#ff6b00" stroke-linecap="butt"/><path d="M306.68607,156.20376l10.99693,-6.73668l-7.01479,-33.43226l46.56324,8.82658l-17.96854,28.42592l7.84144,10.20292z" data-paper-data="{&quot;index&quot;:null}" fill="#ffa340" stroke-linecap="butt"/><path d="M275.82247,173.91259c0,-2.11232 1.71238,-3.8247 3.8247,-3.8247c2.11232,0 3.8247,1.71238 3.8247,3.8247c0,2.11232 -1.71238,3.8247 -3.8247,3.8247c-2.11232,0 -3.8247,-1.71238 -3.8247,-3.8247z" fill="#ff6b00" stroke-linecap="butt"/><path d="M246.41358,190.59309c0.42738,-2.06863 2.4508,-3.39914 4.51944,-2.97176c2.06863,0.42738 3.39914,2.4508 2.97176,4.51944c-0.42738,2.06863 -2.4508,3.39914 -4.51944,2.97176c-2.06863,-0.42738 -3.39914,-2.4508 -2.97176,-4.51944z" fill="#ff6b00" stroke-linecap="butt"/></g></g></svg>