<svg version="1.1" xmlns="http://www.w3.org/2000/svg" xmlns:xlink="http://www.w3.org/1999/xlink" width="59.17584" height="88.37575" viewBox="0,0,59.17584,88.37575"><g transform="translate(-204.68837,-138.70925)"><g data-paper-data="{&quot;isPaintingLayer&quot;:true}" fill-rule="nonzero" stroke="#000000" stroke-width="2" stroke-linejoin="miter" stroke-miterlimit="10" stroke-dasharray="" stroke-dashoffset="0" style="mix-blend-mode: normal"><path d="M216.14858,145.4582c0,0 3.01082,-0.56161 5.04392,-0.42911c1.61066,0.10497 6.18527,1.16089 6.18527,1.16089" fill="none" stroke-linecap="round"/><path d="M205.96908,144.67756c0.68744,-2.75035 3.47432,-4.42267 6.22467,-3.73523c2.75035,0.68744 4.42268,3.47432 3.73524,6.22467c-0.68744,2.75035 -3.47432,4.42268 -6.22467,3.73524c-2.75035,-0.68744 -4.42267,-3.47432 -3.73523,-6.22468z" fill="#2d6a2b" stroke-linecap="butt"/><path d="M237.20005,209.22302c3.31418,3.67312 2.27384,6.48891 -0.16114,8.68595c-2.435,2.19703 -7.09562,1.00044 -10.4098,-2.67269c-3.31418,-3.67312 -5.372,-7.21819 -2.937,-9.41522c0.94043,-0.84853 8.03617,-2.66246 13.50795,3.40198z" data-paper-data="{&quot;index&quot;:null}" fill="#2d6a2b" stroke-linecap="butt"/><path d="M225.38691,155.5753c2.22407,-8.89819 11.24045,-14.30862 20.13863,-12.08456c8.89819,2.22407 14.30863,11.24044 12.08456,20.13862c-2.22407,8.89819 -11.24044,14.30863 -20.13863,12.08457c-8.89819,-2.22407 -14.30863,-11.24045 -12.08457,-20.13863z" fill="#2d6a2b" stroke-linecap="butt"/><path d="M238.51002,139.90859c15.7461,-1.78954 23.59477,9.05874 23.59477,9.05874l-40.45279,6.60815c0,0 -0.07161,-13.74284 16.85802,-15.66689z" fill="#367e33" stroke-linecap="round"/><path d="M235.19709,206.6621l-0.50049,-25.56019l7.84919,-0.15369l0.50049,25.56018z" fill="#2d6a2b" stroke-linecap="butt"/><path d="M220.39996,187.05374c0.51221,-2.04928 2.58871,-3.29532 4.63799,-2.78311c2.04928,0.51221 3.29533,2.58871 2.78312,4.63799c-0.51221,2.04928 -2.58871,3.29533 -4.63799,2.78312c-2.04928,-0.51221 -3.29533,-2.58872 -2.78312,-4.63799z" fill="#2d6a2b" stroke-linecap="butt"/><path d="M250.16948,185.34014c0.51221,-2.04928 2.58872,-3.29533 4.63799,-2.78312c2.04928,0.51221 3.29532,2.58872 2.78311,4.63799c-0.51221,2.04928 -2.58871,3.29533 -4.63799,2.78312c-2.04928,-0.51221 -3.29533,-2.58872 -2.78312,-4.63799z" fill="#2d6a2b" stroke-linecap="butt"/><path d="M253.70858,214.20831c4.94728,0 6.34095,2.65869 6.34095,5.93835c0,3.27966 -4.01057,5.93835 -8.95785,5.93835c-4.94728,0 -8.95785,-0.84699 -8.95785,-4.12665c0,-1.26666 3.40667,-7.75005 11.57475,-7.75005z" data-paper-data="{&quot;index&quot;:null}" fill="#2d6a2b" stroke-linecap="butt"/></g></g></svg>