<svg version="1.1" xmlns="http://www.w3.org/2000/svg" xmlns:xlink="http://www.w3.org/1999/xlink" width="70.2269" height="63.80348" viewBox="0,0,70.2269,63.80348"><g transform="translate(-209.99224,-163.28151)"><g data-paper-data="{&quot;isPaintingLayer&quot;:true}" fill-rule="nonzero" stroke="#000000" stroke-width="2" stroke-linejoin="miter" stroke-miterlimit="10" stroke-dasharray="" stroke-dashoffset="0" style="mix-blend-mode: normal"><path d="M234.46311,175.10989c0,0 2.78477,-1.27492 4.78933,-1.63939c1.58804,-0.28873 6.28217,-0.37361 6.28217,-0.37361" data-paper-data="{&quot;index&quot;:null}" fill="none" stroke-linecap="round"/><path d="M224.10135,176.82094c0,-2.83496 2.29819,-5.13315 5.13315,-5.13315c2.83496,0 5.13315,2.29819 5.13315,5.13315c0,2.83496 -2.29819,5.13315 -5.13315,5.13315c-2.83496,0 -5.13315,-2.29819 -5.13315,-5.13315z" data-paper-data="{&quot;index&quot;:null}" fill="#2d6a2b" stroke-linecap="butt"/><path d="M244.31655,184.52789c0,-9.17193 7.43532,-16.60724 16.60724,-16.60724c9.17193,0 16.60724,7.43532 16.60724,16.60724c0,9.17193 -7.43532,16.60724 -16.60724,16.60724c-9.17193,0 -16.60724,-7.43532 -16.60724,-16.60724z" fill="#2d6a2b" stroke-linecap="butt"/><path d="M253.24903,166.14658c14.84222,-5.55435 25.0872,3.06696 25.0872,3.06696l-37.64308,16.22019c0,0 -3.40193,-13.31531 12.55588,-19.28715z" fill="#367e33" stroke-linecap="round"/><path d="M225.36531,213.0337l18.51191,-17.63188l5.41451,5.68476l-18.51191,17.63187z" fill="#2d6a2b" stroke-linecap="butt"/><path d="M221.27725,197.67193c0,-2.11232 1.71238,-3.8247 3.8247,-3.8247c2.11232,0 3.8247,1.71238 3.8247,3.8247c0,2.11232 -1.71238,3.8247 -3.8247,3.8247c-2.11232,0 -3.8247,-1.71238 -3.8247,-3.8247z" fill="#2d6a2b" stroke-linecap="butt"/><path d="M257.28616,208.35403c0,-2.11232 1.71238,-3.8247 3.8247,-3.8247c2.11232,0 3.8247,1.71238 3.8247,3.8247c0,2.11232 -1.71238,3.8247 -3.8247,3.8247c-2.11232,0 -3.8247,-1.71238 -3.8247,-3.8247z" fill="#2d6a2b" stroke-linecap="butt"/><path d="M256.3795,214.2083c4.94728,0 6.34095,2.65869 6.34095,5.93835c0,3.27966 -4.01057,5.93835 -8.95785,5.93835c-4.94728,0 -8.95785,-0.84699 -8.95785,-4.12665c0,-1.26666 3.40667,-7.75005 11.57475,-7.75005z" data-paper-data="{&quot;index&quot;:null}" fill="#2d6a2b" stroke-linecap="butt"/><path d="M218.44035,214.6109c4.11347,0 7.4481,2.47844 7.4481,5.53575c0,3.05731 -3.33463,5.53575 -7.4481,5.53575c-4.11347,0 -7.4481,-2.47844 -7.4481,-5.53575c0,-3.05731 3.33463,-5.53575 7.4481,-5.53575z" data-paper-data="{&quot;index&quot;:null}" fill="#2d6a2b" stroke-linecap="butt"/></g></g></svg>