<svg version="1.1" xmlns="http://www.w3.org/2000/svg" xmlns:xlink="http://www.w3.org/1999/xlink" width="58.4744" height="89.80428" viewBox="0,0,58.4744,89.80428"><g transform="translate(-206.68763,-133.30774)"><g data-paper-data="{&quot;isPaintingLayer&quot;:true}" fill-rule="nonzero" stroke="#000000" stroke-width="2" stroke-linejoin="miter" stroke-miterlimit="10" stroke-dasharray="" stroke-dashoffset="0" style="mix-blend-mode: normal"><path d="M217.897,142.73141c0,0 2.95717,-0.79721 4.99439,-0.82543c1.61392,-0.02234 6.25754,0.66964 6.25754,0.66964" fill="none" stroke-linecap="round"/><path d="M207.68763,142.7557c0.46847,-2.79598 3.11484,-4.68281 5.91082,-4.21433c2.79598,0.46847 4.68281,3.11484 4.21433,5.91082c-0.46847,2.79598 -3.11484,4.68281 -5.91082,4.21433c-2.79598,-0.46847 -4.68281,-3.11484 -4.21433,-5.91082z" fill="#2d6a2b" stroke-linecap="butt"/><path d="M227.4007,154.55411c0,-9.17193 7.43532,-16.60724 16.60724,-16.60724c9.17193,0 16.60724,7.43532 16.60724,16.60724c0,9.17193 -7.43532,16.60724 -16.60724,16.60724c-9.17193,0 -16.60724,-7.43532 -16.60724,-16.60724z" fill="#2d6a2b" stroke-linecap="butt"/><path d="M236.33318,136.1728c14.84222,-5.55435 25.0872,3.06696 25.0872,3.06696l-37.64308,16.22019c0,0 -3.40193,-13.31531 12.55588,-19.28715z" fill="#367e33" stroke-linecap="round"/><path d="M234.56558,198.36767l3.69303,-25.29694l7.76836,1.13408l-3.69303,25.29694z" fill="#2d6a2b" stroke-linecap="butt"/><path d="M223.65146,186.69144c0,-2.11232 1.71238,-3.8247 3.8247,-3.8247c2.11232,0 3.8247,1.71238 3.8247,3.8247c0,2.11232 -1.71238,3.8247 -3.8247,3.8247c-2.11232,0 -3.8247,-1.71238 -3.8247,-3.8247z" fill="#2d6a2b" stroke-linecap="butt"/><path d="M251.64757,177.78671c0,-2.11232 1.71238,-3.8247 3.8247,-3.8247c2.11232,0 3.8247,1.71238 3.8247,3.8247c0,2.11232 -1.71238,3.8247 -3.8247,3.8247c-2.11232,0 -3.8247,-1.71238 -3.8247,-3.8247z" fill="#2d6a2b" stroke-linecap="butt"/><path d="M256.3961,209.98106c4.74373,-1.40452 6.83485,0.74912 7.76594,3.89382c0.93108,3.14472 -2.15966,6.8326 -6.90339,8.23713c-4.74373,1.40452 -8.82973,1.73098 -9.76082,-1.41373c-0.35961,-1.21454 1.06627,-8.39831 8.89829,-10.71722z" data-paper-data="{&quot;index&quot;:null}" fill="#2d6a2b" stroke-linecap="butt"/><path d="M223.70254,212.89233c-4.43929,2.18363 -6.86336,0.41307 -8.31093,-2.52983c-1.44757,-2.9429 0.9777,-7.09878 5.41699,-9.28242c4.43929,-2.18363 8.4119,-3.19379 9.85948,-0.2509c0.55908,1.1366 0.36384,8.45792 -6.96553,12.06315z" data-paper-data="{&quot;index&quot;:null}" fill="#2d6a2b" stroke-linecap="butt"/></g></g></svg>