<svg version="1.1" xmlns="http://www.w3.org/2000/svg" xmlns:xlink="http://www.w3.org/1999/xlink" width="90.27431" height="90.39802" viewBox="0,0,90.27431,90.39802"><g transform="translate(-185.26559,-143.24095)"><g data-paper-data="{&quot;isPaintingLayer&quot;:true}" fill-rule="nonzero" stroke="#000000" stroke-width="2" stroke-linejoin="miter" stroke-miterlimit="10" stroke-dasharray="" stroke-dashoffset="0" style="mix-blend-mode: normal"><path d="M235.36082,208.44213l-12.51571,-22.29194l6.84557,-3.84341l12.51571,22.29194z" data-paper-data="{&quot;index&quot;:null}" fill="#ffe819" stroke-linecap="butt"/><path d="M211.71675,182.75531c0,-2.11232 1.71238,-3.8247 3.8247,-3.8247c2.11232,0 3.8247,1.71238 3.8247,3.8247c0,2.11232 -1.71238,3.8247 -3.8247,3.8247c-2.11232,0 -3.8247,-1.71238 -3.8247,-3.8247z" fill="#ffe819" stroke-linecap="butt"/><path d="M210.1204,168.68211c0,-9.17193 7.43532,-16.60724 16.60724,-16.60724c9.17193,0 16.60724,7.43532 16.60724,16.60724c0,9.17193 -7.43532,16.60724 -16.60724,16.60724c-9.17193,0 -16.60724,-7.43532 -16.60724,-16.60724z" fill="#ffe819" stroke-linecap="butt"/><path d="M273.74597,221.6586c1.87396,4.47559 0.31722,9.39167 -3.47708,10.98037c-3.79429,1.5887 -8.38933,-0.7516 -10.26329,-5.22719c-1.87396,-4.47559 -0.31722,-9.39167 3.47708,-10.98037c3.79429,-1.5887 8.38933,0.75159 10.26329,5.22718z" data-paper-data="{&quot;index&quot;:null}" fill="#ffe819" stroke-linecap="butt"/><path d="M195.33122,163.48037c0,0 2.10397,-2.22568 3.82583,-3.31485c1.36408,-0.86285 5.68426,-2.70082 5.68426,-2.70082" fill="none" stroke-linecap="round"/><path d="M186.64109,168.83888c-1.06249,-2.62833 0.20687,-5.62033 2.8352,-6.68282c2.62833,-1.06249 5.62033,0.20687 6.68282,2.8352c1.06249,2.62833 -0.20687,5.62033 -2.8352,6.68282c-2.62833,1.06249 -5.62033,-0.20687 -6.68282,-2.8352z" fill="#ffe819" stroke-linecap="butt"/><path d="M229.60804,209.89288c0,3.27966 -4.01057,4.12665 -8.95785,4.12665c-4.94729,0 -8.95785,-2.65869 -8.95785,-5.93835c0,-3.27966 1.39367,-5.93835 6.34095,-5.93835c8.16808,0 11.57475,6.48339 11.57475,7.75005z" data-paper-data="{&quot;index&quot;:null}" fill="#ffe819" stroke-linecap="butt"/><path d="M205.59145,168.63503l4.89612,-10.31864l-11.5487,-1.5813c0,0 13.57292,-11.79955 24.16781,-12.49414c10.59489,-0.69459 18.66148,9.6863 18.66148,9.6863z" data-paper-data="{&quot;index&quot;:null}" fill="#fff067" stroke-linecap="butt"/><path d="M225.49098,216.02782c0,-2.11232 1.71238,-3.8247 3.8247,-3.8247c2.11232,0 3.8247,1.71238 3.8247,3.8247c0,2.11232 -1.71238,3.8247 -3.8247,3.8247c-2.11232,0 -3.8247,-1.71238 -3.8247,-3.8247z" fill="#ffe819" stroke-linecap="butt"/></g></g></svg>