<svg version="1.1" xmlns="http://www.w3.org/2000/svg" xmlns:xlink="http://www.w3.org/1999/xlink" width="102.85676" height="82.27467" viewBox="0,0,102.85676,82.27467"><g transform="translate(-160.22072,-144.81723)"><g data-paper-data="{&quot;isPaintingLayer&quot;:true}" fill-rule="nonzero" stroke="#000000" stroke-width="2" stroke-linejoin="miter" stroke-miterlimit="10" stroke-dasharray="" stroke-dashoffset="0" style="mix-blend-mode: normal"><path d="M234.55079,210.78137l-18.704,-17.42798l5.3519,-5.74375l18.704,17.42798z" data-paper-data="{&quot;index&quot;:null}" fill="#1d28e8" stroke-linecap="butt"/><path d="M211.83551,190.96739c-5.45542,7.37309 -15.855,8.92767 -23.22809,3.47224c-7.37309,-5.45542 -8.92767,-15.855 -3.47224,-23.22809c5.45542,-7.37309 15.855,-8.92767 23.22809,-3.47224c7.37309,5.45542 8.92767,15.855 3.47224,23.22809z" data-paper-data="{&quot;index&quot;:null}" fill="#1d28e8" stroke-linecap="butt"/><path d="M206.97063,167.49458c0,0 3.74488,-2.83159 5.17233,-3.585c1.80186,-0.95101 4.77959,-1.66757 4.77959,-1.66757" data-paper-data="{&quot;index&quot;:null}" fill="none" stroke-linecap="round"/><path d="M225.02792,164.58061c-2.23002,1.75043 -5.45681,1.36164 -7.20724,-0.86838c-1.75043,-2.23002 -1.36164,-5.45681 0.86838,-7.20724c2.23002,-1.75043 5.45681,-1.36164 7.20724,0.86838c1.75043,2.23002 1.36164,5.45681 -0.86838,7.20724z" data-paper-data="{&quot;index&quot;:null}" fill="#1d28e8" stroke-linecap="butt"/><path d="M165.75973,197.2497l16.88883,-12.15845l-20.73003,-19.56721l36.21663,-19.32675l9.69908,20.90345z" data-paper-data="{&quot;index&quot;:null}" fill="#2530ff" stroke-linecap="round"/><path d="M221.4425,221.96525c0,3.27966 -4.01057,4.12665 -8.95785,4.12665c-4.94729,0 -8.95785,-2.65869 -8.95785,-5.93835c0,-3.27966 1.39367,-5.93835 6.34095,-5.93835c8.16808,0 11.57475,6.48339 11.57475,7.75005z" data-paper-data="{&quot;index&quot;:null}" fill="#1d28e8" stroke-linecap="butt"/><path d="M254.62937,214.68624c4.11347,0 7.4481,2.47844 7.4481,5.53575c0,3.05731 -3.33463,5.53575 -7.4481,5.53575c-4.11347,0 -7.4481,-2.47844 -7.4481,-5.53575c0,-3.05731 3.33463,-5.53575 7.4481,-5.53575z" data-paper-data="{&quot;index&quot;:null}" fill="#1d28e8" stroke-linecap="butt"/><path d="M188.57363,220.6831c-2.02676,0.59514 -4.15222,-0.56542 -4.74735,-2.59217c-0.59514,-2.02676 0.56542,-4.15222 2.59217,-4.74735c2.02676,-0.59514 4.15222,0.56542 4.74735,2.59217c0.59514,2.02676 -0.56542,4.15222 -2.59217,4.74735z" data-paper-data="{&quot;index&quot;:null}" fill="#1d28e8" stroke-linecap="butt"/><path d="M193.12647,220.50806c-2.02676,0.59514 -4.15222,-0.56542 -4.74735,-2.59217c-0.59514,-2.02676 0.56542,-4.15222 2.59217,-4.74735c2.02676,-0.59514 4.15222,0.56542 4.74735,2.59217c0.59514,2.02676 -0.56542,4.15222 -2.59217,4.74735z" data-paper-data="{&quot;index&quot;:null}" fill="#1d28e8" stroke-linecap="butt"/></g></g></svg>