<svg version="1.1" xmlns="http://www.w3.org/2000/svg" xmlns:xlink="http://www.w3.org/1999/xlink" width="123.52447" height="104.95539" viewBox="0,0,123.52447,104.95539"><g transform="translate(-193.99327,-123.18169)"><g data-paper-data="{&quot;isPaintingLayer&quot;:true}" fill-rule="nonzero" stroke="#000000" stroke-width="2" stroke-linejoin="miter" stroke-miterlimit="10" stroke-dasharray="" stroke-dashoffset="0" style="mix-blend-mode: normal"><path d="M274.8124,210.73381c-15.75462,-0.9885 -27.97724,-6.76488 -27.97724,-6.76488c-0.59532,-0.40938 13.36679,0.93682 28.96881,-1.90331c11.75158,-2.13921 28.20438,-11.97017 31.1632,-12.91723c2.95883,-0.94704 3.79171,-1.77899 7.6682,0.48823c2.70236,1.85833 3.63588,5.87865 -5.19052,12.03997c-11.51844,8.0405 -25.46292,9.63254 -34.63245,9.05721z" data-paper-data="{&quot;index&quot;:null}" fill="#1d28e8" stroke-linecap="butt"/><path d="M234.6021,177.97947c-8.40125,3.68008 -18.19513,-0.14719 -21.87521,-8.54845c-3.68008,-8.40125 0.1472,-18.19513 8.54846,-21.87521c8.40125,-3.68008 18.19513,0.14719 21.87521,8.54845c3.68008,8.40125 -0.1472,18.19513 -8.54846,21.87521z" data-paper-data="{&quot;index&quot;:null}" fill="#1d28e8" stroke-linecap="butt"/><path d="M254.69477,207.31493l-16.10343,-19.85581l6.09745,-4.94515l16.10344,19.85581z" data-paper-data="{&quot;index&quot;:null}" fill="#1d28e8" stroke-linecap="butt"/><path d="M225.00639,216.06558c4.11347,0 7.4481,2.47844 7.4481,5.53575c0,3.05731 -3.33463,5.53575 -7.4481,5.53575c-4.11347,0 -7.4481,-2.47844 -7.4481,-5.53575c0,-3.05731 3.33463,-5.53575 7.4481,-5.53575z" data-paper-data="{&quot;index&quot;:null}" fill="#1d28e8" stroke-linecap="butt"/><path d="M221.53537,210.30774c-1.90865,-0.90494 -2.72233,-3.18583 -1.81739,-5.09449c0.90494,-1.90866 3.18583,-2.72233 5.09449,-1.81739c1.90866,0.90494 2.72233,3.18582 1.81739,5.09448c-0.90494,1.90866 -3.18582,2.72233 -5.09448,1.81739z" data-paper-data="{&quot;index&quot;:null}" fill="#1d28e8" stroke-linecap="butt"/><path d="M203.74201,164.22537c0,0 2.12841,-2.20232 3.86217,-3.27243c1.37353,-0.84775 5.71371,-2.63793 5.71371,-2.63793" data-paper-data="{&quot;index&quot;:null}" fill="none" stroke-linecap="round"/><path d="M201.6444,172.39642c-2.6399,1.03342 -5.6177,-0.26886 -6.65113,-2.90876c-1.03341,-2.6399 0.26887,-5.61771 2.90877,-6.65113c2.63991,-1.03342 5.61771,0.26887 6.65113,2.90877c1.03343,2.63991 -0.26886,5.6177 -2.90876,6.65113z" data-paper-data="{&quot;index&quot;:null}" fill="#1d28e8" stroke-linecap="butt"/><path d="M211.86242,160.18983l-9.33563,-21.06828l38.39983,-14.51275l1.06293,28.48649l20.27354,-4.69514z" data-paper-data="{&quot;index&quot;:null}" fill="#2530ff" stroke-linecap="round"/><path d="M261.37541,155.14297c-2.11232,0 -3.8247,-1.71238 -3.8247,-3.8247c0,-2.11232 1.71238,-3.8247 3.8247,-3.8247c2.11232,0 3.8247,1.71238 3.8247,3.8247c0,2.11232 -1.71238,3.8247 -3.8247,3.8247z" data-paper-data="{&quot;index&quot;:null}" fill="#1d28e8" stroke-linecap="butt"/></g></g></svg>