<svg version="1.1" xmlns="http://www.w3.org/2000/svg" xmlns:xlink="http://www.w3.org/1999/xlink" width="81.43784" height="35.22617" viewBox="0,0,81.43784,35.22617"><g transform="translate(-200.84525,-140.80695)"><g data-paper-data="{&quot;isPaintingLayer&quot;:true}" fill-rule="nonzero" stroke="none" stroke-width="0" stroke-linecap="butt" stroke-linejoin="miter" stroke-miterlimit="10" stroke-dasharray="" stroke-dashoffset="0" style="mix-blend-mode: normal"><path d="M258.99731,143.1647c4.81081,-3.33253 10.73991,-3.10485 13.24299,0.50858c2.50308,3.61343 0.63231,9.24425 -4.17851,12.57679c-4.81081,3.33253 -26.15388,9.97191 -26.15388,9.97191c0,0 12.27858,-19.72474 17.08939,-23.05728z" fill="#5c6cff"/><path d="M260.65449,143.17134c3.51464,-2.43465 8.75839,-1.53007 9.69207,-0.18221c0.93369,1.34786 -3.06539,3.00429 -6.68755,3.94101c-3.62216,0.93672 -8.31387,5.06432 -9.24756,3.71645c-0.93369,-1.34786 2.7284,-5.04059 6.24304,-7.47524z" fill="#ffffff"/><path d="" fill="#5c6cff"/><path d="" fill="#5c6cff"/><path d="" fill="#5c6cff"/><path d="M271.1352,158.88907c5.11823,-1.26505 10.03767,0.82586 10.98786,4.6702c0.95019,3.84433 -2.42868,7.98631 -7.54692,9.25137c-5.11823,1.26505 -25.21607,0.01892 -25.21607,0.01892c0,0 16.65689,-12.67543 21.77513,-13.94048z" fill="#5c6cff"/><path d="M272.52844,159.42549c3.73923,-0.92421 7.86478,1.51713 8.21921,2.95112c0.35443,1.434 -3.54342,1.54775 -6.89337,1.17624c-3.34995,-0.37152 -8.62258,1.60114 -8.97701,0.16715c-0.35443,-1.434 3.91193,-3.37028 7.65117,-4.2945z" fill="#ffffff"/><path d="M229.87754,175.77667c0,0 -17.81686,0.79198 -22.32967,-0.40761c-4.51282,-1.1996 -7.44076,-4.91988 -6.53974,-8.30948c0.90103,-3.3896 5.28981,-5.16495 9.80263,-3.96535c4.51282,1.1996 19.06678,12.68244 19.06678,12.68244z" data-paper-data="{&quot;index&quot;:null}" fill="#5c6cff"/><path d="M216.27756,167.46921c-0.3361,1.26438 -4.97466,-0.56423 -7.94696,-0.28716c-2.97229,0.27707 -6.42226,0.11592 -6.08616,-1.14846c0.3361,-1.26437 4.0273,-3.36234 7.32423,-2.48595c3.29693,0.87639 7.04499,2.65719 6.70889,3.92157z" data-paper-data="{&quot;index&quot;:null}" fill="#ffffff"/></g></g></svg>