<svg version="1.1" xmlns="http://www.w3.org/2000/svg" xmlns:xlink="http://www.w3.org/1999/xlink" width="91.26365" height="85.15347" viewBox="0,0,91.26365,85.15347"><g transform="translate(-214.54705,-143.48311)"><g data-paper-data="{&quot;isPaintingLayer&quot;:true}" fill-rule="nonzero" stroke="#000000" stroke-width="2" stroke-linejoin="miter" stroke-miterlimit="10" stroke-dasharray="" stroke-dashoffset="0" style="mix-blend-mode: normal"><path d="M262.41198,207.46173c0,-2.11232 1.71238,-3.8247 3.8247,-3.8247c2.11232,0 3.8247,1.71238 3.8247,3.8247c0,2.11232 -1.71238,3.8247 -3.8247,3.8247c-2.11232,0 -3.8247,-1.71238 -3.8247,-3.8247z" fill="#1d28e8" stroke-linecap="butt"/><path d="M234.47004,211.40497l18.6068,-17.53171l5.38376,5.7139l-18.6068,17.53171z" fill="#1d28e8" stroke-linecap="butt"/><path d="M253.97317,182.3816c2.90511,-8.69969 12.31266,-13.39712 21.01234,-10.49201c8.69969,2.90511 13.39712,12.31266 10.49201,21.01234c-2.90511,8.69969 -12.31266,13.39712 -21.01234,10.49201c-8.69969,-2.90511 -13.39712,-12.31266 -10.49201,-21.01234z" fill="#1d28e8" stroke-linecap="butt"/><path d="M222.99516,214.97224c4.11347,0 7.4481,2.47844 7.4481,5.53575c0,3.05731 -3.33463,5.53575 -7.4481,5.53575c-4.11347,0 -7.4481,-2.47844 -7.4481,-5.53575c0,-3.05731 3.33463,-5.53575 7.4481,-5.53575z" data-paper-data="{&quot;index&quot;:null}" fill="#1d28e8" stroke-linecap="butt"/><path d="M243.80896,182.79427c0,0 2.84951,-1.12278 4.87082,-1.37853c1.60131,-0.2026 6.29318,-0.03402 6.29318,-0.03402" fill="none" stroke-linecap="round"/><path d="M235.38229,185.10363c0.153,-2.83083 2.57187,-5.00164 5.4027,-4.84864c2.83083,0.153 5.00164,2.57187 4.84864,5.4027c-0.153,2.83083 -2.57187,5.00164 -5.4027,4.84864c-2.83083,-0.153 -5.00164,-2.57187 -4.84864,-5.4027z" fill="#1d28e8" stroke-linecap="butt"/><path d="M277.94953,213.99764c4.94728,0 6.34095,2.65869 6.34095,5.93835c0,3.27966 -4.01056,5.93835 -8.95785,5.93835c-4.94728,0 -8.95785,-0.84699 -8.95785,-4.12665c0,-1.26666 3.40667,-7.75005 11.57475,-7.75005z" data-paper-data="{&quot;index&quot;:null}" fill="#1d28e8" stroke-linecap="butt"/><path d="M254.03972,181.55504l-4.05897,-22.68372l40.74918,-4.96708l-5.74019,27.9224l20.80849,0.2595z" fill="#2530ff" stroke-linecap="round"/><path d="M244.22027,223.81188c0,-2.11232 -25.73101,-79.32877 -21.48632,-79.32877c4.24469,0 36.85773,77.21645 36.85773,79.32877c0,2.11232 -3.44101,3.8247 -7.6857,3.8247c-4.24469,0 -7.6857,-1.71238 -7.6857,-3.8247z" fill="#1d28e8" stroke-linecap="butt"/></g></g></svg>