<svg version="1.1" xmlns="http://www.w3.org/2000/svg" xmlns:xlink="http://www.w3.org/1999/xlink" width="62.48332" height="42.54034" viewBox="0,0,62.48332,42.54034"><g transform="translate(-208.02387,-143.01891)"><g data-paper-data="{&quot;isPaintingLayer&quot;:true}" fill-rule="nonzero" stroke="none" stroke-width="0" stroke-linecap="butt" stroke-linejoin="miter" stroke-miterlimit="10" stroke-dasharray="" stroke-dashoffset="0" style="mix-blend-mode: normal"><path d="M242.95497,150.29266c2.97384,-5.83632 8.9383,-8.75687 13.32199,-6.5232c4.38369,2.23367 5.52661,8.77569 2.55277,14.61202c-2.97384,5.83632 -20.48775,23.70101 -20.48775,23.70101c0,0 1.63915,-25.9535 4.61299,-31.78982z" fill="#5c6cff"/><path d="M244.5918,149.42019c2.1726,-4.26384 7.82063,-6.15372 9.45581,-5.32053c1.63519,0.83319 -1.42767,4.58698 -4.5008,7.4315c-3.07312,2.84452 -5.50785,9.40127 -7.14304,8.56808c-1.63519,-0.83319 0.01543,-6.4152 2.18803,-10.67904z" fill="#ffffff"/><path d="" fill="#5c6cff"/><path d="" fill="#5c6cff"/><path d="" fill="#5c6cff"/><path d="M253.72849,156.7922c4.64524,-4.61824 11.22296,-5.53363 14.69175,-2.04456c3.46879,3.48906 2.51508,10.06133 -2.13016,14.67958c-4.64524,4.61824 -26.85598,16.13203 -26.85598,16.13203c0,0 9.64915,-24.1488 14.29439,-28.76704z" fill="#5c6cff"/><path d="M255.55575,156.47355c3.39367,-3.37395 9.3494,-3.4087 10.64331,-2.10723c1.29391,1.30148 -2.78662,3.91323 -6.59342,5.65783c-3.8068,1.7446 -8.16442,7.21545 -9.45833,5.91398c-1.29391,-1.30148 2.01477,-6.09062 5.40845,-9.46458z" fill="#ffffff"/><path d="M246.33456,182.67086c0,0 -24.78878,-3.37645 -30.71626,-6.16416c-5.92749,-2.78772 -9.03525,-8.6568 -6.94138,-13.10896c2.09387,-4.45216 8.59647,-5.80146 14.52395,-3.01374c5.92748,2.78772 23.13369,22.28687 23.13369,22.28687z" data-paper-data="{&quot;index&quot;:null}" fill="#5c6cff"/><path d="M229.64842,167.79357c-0.78105,1.66073 -6.72429,-2.02667 -10.89604,-2.38989c-4.17174,-0.36322 -8.89282,-1.45109 -8.11177,-3.11182c0.78104,-1.66072 6.40179,-3.63028 10.73223,-1.59366c4.33044,2.03662 9.05663,5.43464 8.27558,7.09537z" data-paper-data="{&quot;index&quot;:null}" fill="#ffffff"/></g></g></svg>