<svg version="1.1" xmlns="http://www.w3.org/2000/svg" xmlns:xlink="http://www.w3.org/1999/xlink" width="86.2469" height="88.07938" viewBox="0,0,86.2469,88.07938"><g transform="translate(-185.56959,-138.60301)"><g data-paper-data="{&quot;isPaintingLayer&quot;:true}" fill-rule="nonzero" stroke="#000000" stroke-width="2" stroke-linejoin="miter" stroke-miterlimit="10" stroke-dasharray="" stroke-dashoffset="0" style="mix-blend-mode: normal"><path d="M209.39514,168.58134c-3.96754,-8.2694 -0.48019,-18.18939 7.78919,-22.15692c8.2694,-3.96754 18.18939,-0.48019 22.15692,7.78919c3.96754,8.2694 0.48019,18.18939 -7.78919,22.15692c-8.2694,3.96754 -18.18939,0.48019 -22.15692,-7.78919z" fill="#2d6a2b" stroke-linecap="butt"/><path d="M209.49736,148.14482c10.97905,-11.42816 23.94526,-8.08691 23.94526,-8.08691l-26.9225,30.90753c0,0 -8.82704,-10.53347 2.97723,-22.82061z" fill="#367e33" stroke-linecap="round"/><path d="M239.96898,207.83751l-8.47341,-24.12001l7.40694,-2.60208l8.47341,24.12001z" fill="#2d6a2b" stroke-linecap="butt"/><path d="M203.6594,186.54695c0,-2.11232 1.71238,-3.8247 3.8247,-3.8247c2.11232,0 3.8247,1.71238 3.8247,3.8247c0,2.11232 -1.71238,3.8247 -3.8247,3.8247c-2.11232,0 -3.8247,-1.71238 -3.8247,-3.8247z" fill="#2d6a2b" stroke-linecap="butt"/><path d="M246.84266,162.96225c0,-2.11232 1.71238,-3.8247 3.8247,-3.8247c2.11232,0 3.8247,1.71238 3.8247,3.8247c0,2.11232 -1.71238,3.8247 -3.8247,3.8247c-2.11232,0 -3.8247,-1.71238 -3.8247,-3.8247z" fill="#2d6a2b" stroke-linecap="butt"/><path d="M264.47554,207.001c4.94728,0 6.34095,2.65869 6.34095,5.93835c0,3.27966 -4.01057,5.93835 -8.95785,5.93835c-4.94728,0 -8.95785,-0.84699 -8.95785,-4.12665c0,-1.26666 3.40667,-7.75005 11.57475,-7.75005z" data-paper-data="{&quot;index&quot;:null}" fill="#2d6a2b" stroke-linecap="butt"/><path d="M228.53054,214.6109c4.11347,0 7.4481,2.47844 7.4481,5.53575c0,3.05731 -3.33463,5.53575 -7.4481,5.53575c-4.11347,0 -7.4481,-2.47844 -7.4481,-5.53575c0,-3.05731 3.33463,-5.53575 7.4481,-5.53575z" data-paper-data="{&quot;index&quot;:null}" fill="#2d6a2b" stroke-linecap="butt"/><path d="M195.41031,162.2119c0,0 1.95925,-2.35409 3.60889,-3.54981c1.30688,-0.94726 5.50238,-3.05435 5.50238,-3.05435" fill="none" stroke-linecap="round"/><path d="M187.07589,168.10843c-1.22633,-2.556 -0.14842,-5.62218 2.40757,-6.84851c2.556,-1.22633 5.62218,-0.14842 6.84851,2.40757c1.22633,2.556 0.14842,5.62218 -2.40757,6.84851c-2.556,1.22633 -5.62218,0.14842 -6.84851,-2.40757z" fill="#2d6a2b" stroke-linecap="butt"/></g></g></svg>