<svg version="1.1" xmlns="http://www.w3.org/2000/svg" xmlns:xlink="http://www.w3.org/1999/xlink" width="86.96566" height="59.25452" viewBox="0,0,86.96566,59.25452"><g transform="translate(-202.45047,-153.32145)"><g data-paper-data="{&quot;isPaintingLayer&quot;:true}" fill-rule="nonzero" stroke="#000000" stroke-width="2" stroke-linejoin="miter" stroke-miterlimit="10" stroke-dasharray="" stroke-dashoffset="0" style="mix-blend-mode: normal"><path d="M267.09723,158.97091c0,0 4.691,-0.1913 6.29326,0.00354c2.02254,0.24596 4.87744,1.35493 4.87744,1.35493" data-paper-data="{&quot;index&quot;:null}" fill="none" stroke-linecap="round"/><path d="M283.5937,166.87176c-2.83005,0.16671 -5.2594,-1.99238 -5.42611,-4.82242c-0.16671,-2.83005 1.99238,-5.2594 4.82242,-5.42611c2.83005,-0.16671 5.2594,1.99238 5.42611,4.82242c0.16671,2.83005 -1.99238,5.2594 -4.82242,5.42611z" data-paper-data="{&quot;index&quot;:null}" fill="#e80000" stroke-linecap="butt"/><path d="M260.66283,188.66247c-8.93942,-2.05202 -14.52279,-10.96233 -12.47078,-19.90177c2.05202,-8.93942 10.96233,-14.52279 19.90177,-12.47078c8.93942,2.05202 14.52279,10.96233 12.47078,19.90177c-2.05202,8.93942 -10.96233,14.52279 -19.90177,12.47078z" data-paper-data="{&quot;index&quot;:null}" fill="#e80000" stroke-linecap="butt"/><path d="M224.08675,189.87846l24.66172,-6.73601l2.06853,7.57328l-24.66172,6.73601z" fill="#e80000" stroke-linecap="butt"/><path d="M231.24897,171.81287c1.89661,-0.92994 4.18798,-0.14627 5.11791,1.75034c0.92994,1.89661 0.14627,4.18798 -1.75034,5.11791c-1.89661,0.92994 -4.18798,0.14627 -5.11791,-1.75034c-0.92994,-1.89661 -0.14627,-4.18798 1.75034,-5.11791z" fill="#e80000" stroke-linecap="butt"/><path d="M276.95241,185.88674c1.6577,-1.30917 4.06283,-1.02663 5.372,0.63108c1.30917,1.6577 1.02663,4.06283 -0.63108,5.372c-1.6577,1.30917 -4.06283,1.02663 -5.372,-0.63108c-1.30917,-1.6577 -1.02663,-4.06283 0.63108,-5.372z" fill="#e80000" stroke-linecap="butt"/><path d="M222.51287,205.94073c0.5758,3.22872 -3.22377,4.76666 -8.09422,5.63524c-4.87045,0.86856 -9.28549,-1.04471 -9.86128,-4.27343c-0.5758,-3.22872 0.32945,-6.09081 5.1999,-6.95937c8.0412,-1.43404 12.53322,4.35058 12.75561,5.59756z" data-paper-data="{&quot;index&quot;:null}" fill="#e80000" stroke-linecap="butt"/><path d="M252.27979,159.64273l2.57366,-4.97356l29.66373,15.35003l-2.57368,4.97356z" data-paper-data="{&quot;index&quot;:null}" fill="#ff2121" stroke-linecap="butt"/><path d="M214.19597,186.9415c-2.68386,1.88494 -5.68202,-0.91025 -8.5254,-4.9588c-2.84339,-4.04855 -2.97271,-8.8586 -0.28884,-10.74354c2.68386,-1.88494 5.66058,-2.2725 8.50396,1.77604c4.69451,6.68424 1.34685,13.1983 0.31029,13.92629z" data-paper-data="{&quot;index&quot;:null}" fill="#e80000" stroke-linecap="butt"/></g></g></svg>