<svg version="1.1" xmlns="http://www.w3.org/2000/svg" xmlns:xlink="http://www.w3.org/1999/xlink" width="83.58533" height="90.20034" viewBox="0,0,83.58533,90.20034"><defs><linearGradient x1="216.68311" y1="149.46911" x2="238.44869" y2="170.35144" gradientUnits="userSpaceOnUse" id="color-1"><stop offset="0" stop-color="#e80000" stop-opacity="0"/><stop offset="1" stop-color="#e80000"/></linearGradient><linearGradient x1="279.10263" y1="214.39423" x2="247.42255" y2="191.81106" gradientUnits="userSpaceOnUse" id="color-2"><stop offset="0" stop-color="#e80000" stop-opacity="0"/><stop offset="1" stop-color="#e80000"/></linearGradient></defs><g transform="translate(-207.38423,-135.67311)"><g data-paper-data="{&quot;isPaintingLayer&quot;:true}" fill-rule="nonzero" stroke="#000000" stroke-linejoin="miter" stroke-miterlimit="10" stroke-dasharray="" stroke-dashoffset="0" style="mix-blend-mode: normal"><path d="M219.65752,180.27818c-1.96763,-0.7684 -2.93977,-2.98637 -2.1714,-4.95397c0.7684,-1.96763 2.98637,-2.93977 4.95397,-2.1714c1.96763,0.7684 2.93977,2.98637 2.1714,4.95397c-0.7684,1.96763 -2.98637,2.93977 -4.95397,2.1714z" data-paper-data="{&quot;index&quot;:null}" fill="#e80000" stroke-width="2" stroke-linecap="butt"/><path d="M225.57693,183.18458c-6.93711,5.16216 -10.81755,0.42158 -12.8062,-6.8356c-1.98867,-7.25717 0.21389,-16.15559 3.90866,-25.63425c5.504,-14.12013 24.67874,-15.04162 24.67874,-15.04162c0,0 -12.49986,9.77063 -12.82215,23.85789c-0.28879,12.62206 3.97809,18.49142 -2.95903,23.65359z" data-paper-data="{&quot;index&quot;:null}" fill="url(#color-1)" stroke-width="0" stroke-linecap="butt"/><path d="M238.99979,145.33475c0,0 2.97694,0.71981 4.77778,1.67275c1.42664,0.75496 5.16844,3.59059 5.16844,3.59059" fill="none" stroke-width="2" stroke-linecap="round"/><path d="M230.84481,142.15945c1.58075,-2.35335 4.76994,-2.97969 7.1233,-1.39896c2.35335,1.58075 2.97969,4.76994 1.39896,7.1233c-1.58075,2.35335 -4.76994,2.97969 -7.1233,1.39896c-2.35335,-1.58075 -2.97969,-4.76994 -1.39896,-7.1233z" fill="#e80000" stroke-width="2" stroke-linecap="butt"/><path d="M257.92835,204.44138c0.58699,4.91233 -1.88756,6.61161 -5.14407,7.00075c-3.25649,0.38912 -6.37226,-3.27766 -6.95925,-8.19c-0.58699,-4.91233 -0.22183,-8.99508 3.03466,-9.38421c1.25771,-0.15029 8.09949,2.46307 9.06864,10.57345z" data-paper-data="{&quot;index&quot;:null}" fill="#e80000" stroke-width="2" stroke-linecap="butt"/><path d="M238.56006,212.33979c1.79067,-1.12042 4.1506,-0.57714 5.27105,1.21356c1.12042,1.79067 0.57714,4.1506 -1.21356,5.27105c-1.79067,1.12042 -4.1506,0.57714 -5.27105,-1.21356c-1.12042,-1.79067 -0.57714,-4.1506 1.21356,-5.27105z" data-paper-data="{&quot;index&quot;:null}" fill="#e80000" stroke-width="2" stroke-linecap="butt"/><path d="M234.24131,211.1988c4.88071,-10.02867 13.3416,-6.02687 29.26956,-9.41647c17.7769,-3.78307 27.16579,-21.96586 27.16579,-21.96586c0,0 3.42542,24.52265 -13.15186,34.88086c-11.12811,6.95335 -21.87827,11.87646 -31.55237,11.09452c-9.67408,-0.78192 -16.61182,-4.56439 -11.73112,-14.59302z" data-paper-data="{&quot;index&quot;:null}" fill="url(#color-2)" stroke-width="0" stroke-linecap="butt"/><path d="M233.18767,194.47164l9.11919,-23.88334l7.33425,2.8004l-9.11919,23.88334z" fill="#e80000" stroke-width="2" stroke-linecap="butt"/><path d="M217.75337,194.5956c6.67219,4.71163 5.71512,11.97274 4.98446,13.00743c-1.89183,2.67903 -5.65647,1.05746 -9.69772,-1.7963c-4.04126,-2.85377 -5.78369,-7.33898 -3.89186,-10.018c1.89181,-2.67903 4.56387,-4.0469 8.60512,-1.19314z" data-paper-data="{&quot;index&quot;:null}" fill="#e80000" stroke-width="2" stroke-linecap="butt"/><path d="M242.05275,153.1791c5.05382,-7.65397 15.35549,-9.76182 23.00946,-4.70802c7.65397,5.05382 9.76182,15.35549 4.70802,23.00946c-5.05382,7.65397 -15.35549,9.76182 -23.00946,4.70802c-7.65397,-5.05382 -9.76182,-15.35549 -4.70802,-23.00946z" fill="#e80000" stroke-width="2" stroke-linecap="butt"/><path d="M241.96889,151.35379l1.82357,-5.29478l31.57952,10.87626l-1.82357,5.29477z" fill="#ff2121" stroke-width="2" stroke-linecap="butt"/></g></g></svg>