<svg version="1.1" xmlns="http://www.w3.org/2000/svg" xmlns:xlink="http://www.w3.org/1999/xlink" width="58.57227" height="36.01712" viewBox="0,0,58.57227,36.01712"><defs><linearGradient x1="242.46289" y1="165.68151" x2="242.46289" y2="192.07106" gradientUnits="userSpaceOnUse" id="color-1"><stop offset="0" stop-color="#ffe8e8"/><stop offset="1" stop-color="#ffffff"/></linearGradient><linearGradient x1="231.95318" y1="174.37187" x2="224.27582" y2="189.63066" gradientUnits="userSpaceOnUse" id="color-2"><stop offset="0" stop-color="#ffe8e8"/><stop offset="1" stop-color="#ffffff"/></linearGradient><linearGradient x1="241.33036" y1="162.67682" x2="230.85537" y2="187.89557" gradientUnits="userSpaceOnUse" id="color-3"><stop offset="0" stop-color="#ffe8e8"/><stop offset="1" stop-color="#ffffff"/></linearGradient></defs><g transform="translate(-210.12574,-157.66181)"><g data-paper-data="{&quot;isPaintingLayer&quot;:true}" fill-rule="nonzero" stroke="none" stroke-width="0" stroke-linecap="butt" stroke-linejoin="miter" stroke-miterlimit="10" stroke-dasharray="" stroke-dashoffset="0" style="mix-blend-mode: normal"><path d="M242.46292,192.07104c-9.74065,0 -17.63697,-5.90749 -17.63697,-13.19475c0,-7.28727 17.01165,-13.56598 17.01165,-13.56598c0,0 8.27204,8.16384 13.94988,12.54613c7.49645,5.78593 12.91053,12.71293 12.91053,12.71293c0,0 -16.49448,1.50166 -26.23509,1.50166z" fill="url(#color-1)"/><path d="M245.6851,190.84181c-2.12005,4.2136 -11.7053,3.67137 -21.40925,-1.21111c-9.70398,-4.8825 -15.85193,-12.25631 -13.73188,-16.46991c2.12005,-4.2136 8.38742,-10.22616 8.38742,-10.22616c0,0 4.09393,8.24343 9.48288,13.04345c8.12039,7.23296 18.54517,12.33097 17.27082,14.86373z" fill="url(#color-2)"/><path d="M230.88678,157.66181c0,0 7.18698,9.24024 12.71581,14.19273c5.97803,5.35486 10.28082,6.57913 8.77807,10.19704c-2.89259,6.96396 -12.52981,9.5804 -21.52529,5.84399c-8.99552,-3.73643 -13.94288,-12.41079 -11.05029,-19.37475c2.89259,-6.96396 11.0817,-10.85901 11.0817,-10.85901z" fill="url(#color-3)"/></g></g></svg>