<svg version="1.1" xmlns="http://www.w3.org/2000/svg" xmlns:xlink="http://www.w3.org/1999/xlink" width="23.65408" height="34.67096" viewBox="0,0,23.65408,34.67096"><g transform="translate(-228.7755,-162.65605)"><g data-paper-data="{&quot;isPaintingLayer&quot;:true}" fill-rule="nonzero" stroke="#000000" stroke-width="0" stroke-linecap="round" stroke-linejoin="miter" stroke-miterlimit="10" stroke-dasharray="" stroke-dashoffset="0" style="mix-blend-mode: normal"><path d="M244.01297,162.65605l-0.28494,5.13619l1.4355,4.65993l4.5415,-4.16998l-0.64645,10.48416l2.91187,-3.1683c0,0 3.5093,19.55122 -8.87637,21.52988c-15.07193,2.40781 -14.31222,-17.82051 -14.31222,-17.82051l2.4176,2.11654l0.88367,-8.33298l1.25452,2.14323l2.23105,-6.20012l1.09567,1.98279l1.75704,-4.91013z" data-paper-data="{&quot;index&quot;:null}" fill="#ff9e00"/><path d="M241.83142,165.74746c0,0 2.06677,8.44541 3.05508,9.80824c0.46602,0.64259 3.31432,-4.58161 3.31432,-4.58161l-0.57883,11.82129l3.1878,-4.00588c0,0 -0.09016,8.60506 -2.4163,11.89556c-2.32613,3.2905 -4.45145,3.58993 -7.60572,3.60549c-3.15427,0.01556 -6.21881,-0.91646 -8.16105,-2.95117c-1.94224,-2.0347 -1.71525,-7.39533 -1.71525,-7.39533l2.22253,0.37628l-0.31367,-8.00899l1.21087,-0.02431c0,0 1.49664,-5.18992 1.49664,-5.18992l1.65697,1.78594z" data-paper-data="{&quot;index&quot;:null}" fill="#ffd100"/></g></g></svg>