<svg version="1.1" xmlns="http://www.w3.org/2000/svg" xmlns:xlink="http://www.w3.org/1999/xlink" width="159.02073" height="117.60964" viewBox="0,0,159.02073,117.60964"><defs><radialGradient cx="243.52631" cy="142.5311" r="18.84183" gradientUnits="userSpaceOnUse" id="color-1"><stop offset="0" stop-color="#ffffff"/><stop offset="1" stop-color="#0debff"/></radialGradient></defs><g transform="translate(-205.38357,-109.73008)"><g data-paper-data="{&quot;isPaintingLayer&quot;:true}" fill-rule="nonzero" stroke-linejoin="miter" stroke-miterlimit="10" stroke-dasharray="" stroke-dashoffset="0" style="mix-blend-mode: normal"><g fill="#76f4ff" stroke="#53acb4" stroke-width="1" stroke-linecap="butt"><path d="M364.0261,110.12414l-51.88775,60.0021l-30.92343,18.77375l20.2939,-29.94779z" data-paper-data="{&quot;index&quot;:null}"/><path d="M265.65654,195.69418l19.87312,-15.02802l3.87187,4.0702l-16.38845,18.6912z"/><path d="M307.3897,191.31328l-16.33722,-0.72289l-11.65273,-12.17823l0.5178,-15.97829l11.04843,16.99638z"/></g><path d="M265.56808,199.67686c-0.14241,-2.10751 1.45063,-3.93145 3.55814,-4.07386c2.10751,-0.14241 3.93145,1.45063 4.07386,3.55814c0.14241,2.10751 -1.45063,3.93145 -3.55814,4.07386c-2.10751,0.14241 -3.93145,-1.45063 -4.07386,-3.55814z" fill="#0debff" stroke="#000000" stroke-width="2" stroke-linecap="butt"/><path d="M235.21662,205.6671l7.58502,-24.41395l7.4972,2.32925l-7.58502,24.41395z" data-paper-data="{&quot;index&quot;:null}" fill="#0debff" stroke="#000000" stroke-width="2" stroke-linecap="butt"/><path d="M212.59798,185.08895c0,-2.11232 1.71238,-3.8247 3.8247,-3.8247c2.11232,0 3.8247,1.71238 3.8247,3.8247c0,2.11232 -1.71238,3.8247 -3.8247,3.8247c-2.11232,0 -3.8247,-1.71238 -3.8247,-3.8247z" fill="#0debff" stroke="#000000" stroke-width="2" stroke-linecap="butt"/><path d="M265.58853,209.57797c4.40124,-2.25935 6.85527,-0.53058 8.35305,2.3871c1.49778,2.91768 -0.85595,7.11449 -5.25719,9.37385c-4.40124,2.25935 -8.35596,3.33743 -9.85373,0.41975c-0.57847,-1.12686 -0.50868,-8.45044 6.75788,-12.18069z" data-paper-data="{&quot;index&quot;:null}" fill="#0debff" stroke="#000000" stroke-width="2" stroke-linecap="butt"/><path d="M243.63044,157.82688c3.96081,-8.27262 13.87796,-11.76803 22.15058,-7.80723c8.27262,3.96081 11.76803,13.87796 7.80723,22.15058c-3.96081,8.27262 -13.87796,11.76803 -22.15058,7.80723c-8.27262,-3.96081 -11.76803,-13.87796 -7.80723,-22.15058z" fill="#0debff" stroke="#000000" stroke-width="2" stroke-linecap="butt"/><path d="M233.00326,156.14671c0,0 2.49209,-1.7804 4.39101,-2.51877c1.50435,-0.58495 6.09701,-1.55941 6.09701,-1.55941" fill="none" stroke="#000000" stroke-width="2" stroke-linecap="round"/><path d="M223.4461,159.73734c-0.53818,-2.78341 1.28193,-5.47609 4.06534,-6.01427c2.78341,-0.53818 5.47609,1.28193 6.01427,4.06534c0.53818,2.78341 -1.28193,5.47609 -4.06534,6.01427c-2.78341,0.53818 -5.47609,-1.28193 -6.01427,-4.06534z" fill="#0debff" stroke="#000000" stroke-width="2" stroke-linecap="butt"/><path d="M239.51922,161.88251l0.90622,-20.78712l29.71843,-4.23864l6.68147,19.70491z" fill="url(#color-1)" stroke="#000000" stroke-width="2" stroke-linecap="butt"/><path d="M220.37505,226.24207c-12.75577,0.84078 -14.32455,-3.88656 -13.94178,-8.81902c0.38277,-4.93245 1.53751,-8.86547 4.80734,-8.61172c1.26287,0.098 5.73689,0.05562 6.83129,10.42538c0.30118,2.85379 3.63,-0.15648 5.10127,1.7025c3.02615,3.82358 0.32546,5.09697 -2.79813,5.30286z" data-paper-data="{&quot;index&quot;:null}" fill="#0debff" stroke="#000000" stroke-width="2" stroke-linecap="butt"/></g></g></svg>