<svg version="1.1" xmlns="http://www.w3.org/2000/svg" xmlns:xlink="http://www.w3.org/1999/xlink" width="94.29953" height="73.88545" viewBox="0,0,94.29953,73.88545"><g transform="translate(-203.02048,-156.27723)"><g data-paper-data="{&quot;isPaintingLayer&quot;:true}" fill-rule="nonzero" stroke="#000000" stroke-width="2" stroke-linejoin="miter" stroke-miterlimit="10" stroke-dasharray="" stroke-dashoffset="0" style="mix-blend-mode: normal"><path d="M238.95431,220.91985c2.06825,4.49422 0.23568,6.87174 -2.74363,8.24282c-2.97931,1.37109 -7.07117,-1.16071 -9.13942,-5.65491c-2.06825,-4.49422 -2.97548,-8.49159 0.00383,-9.86267c1.15066,-0.52954 8.46449,-0.14528 11.87922,7.27476z" data-paper-data="{&quot;index&quot;:null}" fill="#2d6a2b" stroke-linecap="butt"/><path d="M259.61284,179.3689c5.53144,-7.31625 15.94654,-8.76312 23.26278,-3.23169c7.31625,5.53144 8.76312,15.94654 3.23169,23.26278c-5.53144,7.31625 -15.94654,8.76312 -23.26278,3.23169c-7.31625,-5.53144 -8.76312,-15.94654 -3.23169,-23.26278z" fill="#2d6a2b" stroke-linecap="butt"/><path d="M277.82355,170.09356c15.18905,4.52051 18.16188,17.57611 18.16188,17.57611l-39.8092,-9.76341c0,0 5.31659,-12.67298 21.6473,-7.8127z" fill="#367e33" stroke-linecap="round"/><path d="M230.80766,210.16929l22.03882,-12.95623l3.97869,6.76783l-22.03882,12.95623z" fill="#2d6a2b" stroke-linecap="butt"/><path d="M235.63666,196.37985c1.64722,-1.32233 4.05453,-1.05896 5.37686,0.58826c1.32233,1.64722 1.05896,4.05453 -0.58826,5.37686c-1.64722,1.32233 -4.05453,1.05896 -5.37686,-0.58826c-1.32233,-1.64722 -1.05896,-4.05453 0.58826,-5.37686z" fill="#2d6a2b" stroke-linecap="butt"/><path d="M256.30209,212.36955c1.64722,-1.32233 4.05453,-1.05896 5.37686,0.58826c1.32233,1.64722 1.05896,4.05453 -0.58826,5.37686c-1.64722,1.32233 -4.05453,1.05896 -5.37686,-0.58826c-1.32233,-1.64722 -1.05896,-4.05453 0.58826,-5.37686z" fill="#2d6a2b" stroke-linecap="butt"/><path d="M258.86462,164.0201c0,0 2.99023,0.66247 4.80903,1.58065c1.44088,0.72741 5.23647,3.49065 5.23647,3.49065" fill="none" stroke-linecap="round"/><path d="M249.80409,159.31494c1.70971,-2.26138 4.92893,-2.7086 7.19031,-0.99889c2.26138,1.70971 2.7086,4.92893 0.99889,7.19031c-1.70971,2.26138 -4.92893,2.7086 -7.19031,0.99889c-2.26138,-1.70971 -2.7086,-4.92893 -0.99889,-7.19031z" fill="#2d6a2b" stroke-linecap="butt"/><path d="M213.62113,219.25495c-3.84972,3.10729 -6.60407,1.91377 -8.66397,-0.6383c-2.05989,-2.55206 -0.60894,-7.13988 3.24078,-10.24717c3.84972,-3.10729 7.50252,-4.96717 9.5624,-2.4151c0.79557,0.98565 2.21676,8.17035 -4.13922,13.30056z" data-paper-data="{&quot;index&quot;:null}" fill="#2d6a2b" stroke-linecap="butt"/></g></g></svg>