<svg version="1.1" xmlns="http://www.w3.org/2000/svg" xmlns:xlink="http://www.w3.org/1999/xlink" width="61.72765" height="97.79762" viewBox="0,0,61.72765,97.79762"><g transform="translate(-205.69176,-134.12859)"><g data-paper-data="{&quot;isPaintingLayer&quot;:true}" fill-rule="nonzero" stroke="#000000" stroke-width="2" stroke-linejoin="miter" stroke-miterlimit="10" stroke-dasharray="" stroke-dashoffset="0" style="mix-blend-mode: normal"><path d="M226.81839,146.88961c0,0 -4.59078,-0.98325 -6.09401,-1.57108c-1.8975,-0.74202 -4.38619,-2.52718 -4.38619,-2.52718" data-paper-data="{&quot;index&quot;:null}" fill="none" stroke-linecap="round"/><path d="M212.80999,135.12859c2.78237,0.54351 4.59733,3.23967 4.05382,6.02205c-0.54351,2.78237 -3.23967,4.59733 -6.02205,4.05382c-2.78237,-0.54351 -4.59733,-3.23967 -4.05382,-6.02205c0.54351,-2.78237 3.23967,-4.59733 6.02205,-4.05382z" data-paper-data="{&quot;index&quot;:null}" fill="#2d6a2b" stroke-linecap="butt"/><path d="M226.51034,158.41212c0,-9.17193 7.43532,-16.60724 16.60724,-16.60724c9.17193,0 16.60724,7.43532 16.60724,16.60724c0,9.17193 -7.43532,16.60724 -16.60724,16.60724c-9.17193,0 -16.60724,-7.43532 -16.60724,-16.60724z" fill="#2d6a2b" stroke-linecap="butt"/><path d="M234.60132,140.68673c14.21149,-7.01255 25.26821,0.53962 25.26821,0.53962l-35.82982,19.90779c0,0 -4.71807,-12.90777 10.5616,-20.44742z" fill="#367e33" stroke-linecap="round"/><path d="M236.11264,205.39914l-0.66793,-25.55636l7.84802,-0.20512l0.66794,25.55636z" fill="#2d6a2b" stroke-linecap="butt"/><path d="M218.90308,157.01441c0,-2.11232 1.71238,-3.8247 3.8247,-3.8247c2.11232,0 3.8247,1.71238 3.8247,3.8247c0,2.11232 -1.71238,3.8247 -3.8247,3.8247c-2.11232,0 -3.8247,-1.71238 -3.8247,-3.8247z" fill="#2d6a2b" stroke-linecap="butt"/><path d="M258.77001,150.48384c0,-2.11232 1.71238,-3.8247 3.8247,-3.8247c2.11232,0 3.8247,1.71238 3.8247,3.8247c0,2.11232 -1.71238,3.8247 -3.8247,3.8247c-2.11232,0 -3.8247,-1.71238 -3.8247,-3.8247z" fill="#2d6a2b" stroke-linecap="butt"/><path d="M258.27189,208.40007c4.94412,-0.17671 6.43187,2.4305 6.54902,5.70807c0.11715,3.27757 -3.7959,6.07782 -8.74002,6.25453c-4.94412,0.17671 -8.98238,-0.52648 -9.09953,-3.80405c-0.04525,-1.26585 3.12767,-7.86679 11.29054,-8.15854z" data-paper-data="{&quot;index&quot;:null}" fill="#2d6a2b" stroke-linecap="butt"/><path d="M235.8756,223.68298c0.82581,4.87787 -1.56295,6.69578 -4.7966,7.24323c-3.23364,0.54745 -6.52449,-2.96307 -7.35029,-7.84093c-0.82581,-4.87787 -0.66015,-8.97355 2.5735,-9.521c1.24889,-0.21143 8.20997,2.06522 9.57339,10.1187z" data-paper-data="{&quot;index&quot;:null}" fill="#2d6a2b" stroke-linecap="butt"/></g></g></svg>