<svg version="1.1" xmlns="http://www.w3.org/2000/svg" xmlns:xlink="http://www.w3.org/1999/xlink" width="71.2517" height="115.91292" viewBox="0,0,71.2517,115.91292"><g transform="translate(-184.67741,-109.2906)"><g data-paper-data="{&quot;isPaintingLayer&quot;:true}" fill-rule="nonzero" stroke="#000000" stroke-width="2" stroke-linejoin="miter" stroke-miterlimit="10" stroke-dasharray="" stroke-dashoffset="0" style="mix-blend-mode: normal"><path d="M254.22546,206.17706c1.82423,4.59867 -0.13324,6.87448 -3.18179,8.08381c-3.04856,1.20933 -6.99874,-1.5383 -8.82298,-6.13697c-1.82423,-4.59867 -2.51577,-8.63895 0.5328,-9.84827c1.17741,-0.46705 8.46009,0.30892 11.47195,7.90143z" data-paper-data="{&quot;index&quot;:null}" fill="#ff6b00" stroke-linecap="butt"/><path d="M236.34621,188.46083c0,-2.11232 1.71238,-3.8247 3.8247,-3.8247c2.11232,0 3.8247,1.71238 3.8247,3.8247c0,2.11232 -1.71238,3.8247 -3.8247,3.8247c-2.11232,0 -3.8247,-1.71238 -3.8247,-3.8247z" fill="#ff6b00" stroke-linecap="butt"/><path d="M233.50921,207.44414l-10.75465,-23.19292l7.12225,-3.30261l10.75464,23.19292z" fill="#ff6b00" stroke-linecap="butt"/><path d="M222.66632,200.7621c0,-2.11232 1.71238,-3.8247 3.8247,-3.8247c2.11232,0 3.8247,1.71238 3.8247,3.8247c0,2.11232 -1.71238,3.8247 -3.8247,3.8247c-2.11232,0 -3.8247,-1.71238 -3.8247,-3.8247z" fill="#ff6b00" stroke-linecap="butt"/><path d="M227.30618,213.59693c4.23463,2.55802 4.05286,5.55433 2.35709,8.36157c-1.69577,2.80723 -6.50329,3.00924 -10.73795,0.45124c-4.23463,-2.55802 -7.22956,-5.35668 -5.53378,-8.16391c0.65493,-1.08419 6.92314,-4.87222 13.91463,-0.64888z" data-paper-data="{&quot;index&quot;:null}" fill="#ff6b00" stroke-linecap="butt"/><path d="M213.43462,163.80914c0,-9.17193 7.43532,-16.60724 16.60724,-16.60724c9.17193,0 16.60724,7.43532 16.60724,16.60724c0,9.17193 -7.43532,16.60724 -16.60724,16.60724c-9.17193,0 -16.60724,-7.43532 -16.60724,-16.60724z" fill="#ff6b00" stroke-linecap="butt"/><path d="M203.73,160.26938c0,0 2.11434,-2.21584 3.84125,-3.29698c1.36809,-0.85648 5.69681,-2.67428 5.69681,-2.67428" fill="none" stroke-linecap="round"/><path d="M195.01497,165.58728c-1.05021,-2.63326 0.23308,-5.6193 2.86634,-6.66952c2.63326,-1.05021 5.6193,0.23309 6.66951,2.86636c1.05021,2.63326 -0.23308,5.6193 -2.86635,6.66951c-2.63326,1.05021 -5.6193,-0.23308 -6.66951,-2.86635z" fill="#ff6b00" stroke-linecap="butt"/><path d="M208.87382,167.16485l4.22817,-12.18351l-26.62972,-21.39582l41.5955,-22.71252l4.14025,33.37304l12.53391,2.91357z" data-paper-data="{&quot;index&quot;:null}" fill="#ffa340" stroke-linecap="butt"/></g></g></svg>