<svg version="1.1" xmlns="http://www.w3.org/2000/svg" xmlns:xlink="http://www.w3.org/1999/xlink" width="23.45407" height="33.78338" viewBox="0,0,23.45407,33.78338"><g transform="translate(-227.98946,-163.59049)"><g data-paper-data="{&quot;isPaintingLayer&quot;:true}" fill-rule="nonzero" stroke="#000000" stroke-width="0" stroke-linecap="round" stroke-linejoin="miter" stroke-miterlimit="10" stroke-dasharray="" stroke-dashoffset="0" style="mix-blend-mode: normal"><path d="M242.66637,170.84731l0.98198,-2.04148l2.57752,6.06428l1.22831,-0.49908l1.25592,6.55825l2.69242,-0.26897c0,0 1.50232,18.17249 -13.6815,16.61941c-12.47762,-1.27627 -9.39425,-19.02987 -9.39425,-19.02987l2.40267,1.0343l2.16414,-8.47699l1.36823,1.95299l1.17013,-4.73354l5.18719,-4.43611z" data-paper-data="{&quot;index&quot;:null}" fill="#ff9e00"/><path d="M245.59288,175.96041l1.34929,7.96984l2.19774,-0.50115c0,0 0.52926,5.33927 -1.29501,7.48037c-1.82427,2.14111 -4.83131,3.24466 -7.98143,3.40719c-3.15012,0.16254 -5.28896,-0.01643 -7.79714,-3.17036c-2.50819,-3.15393 -1.62292,-8.67492 -1.62292,-8.67492l1.94777,0.75426l1.37552,-5.90837c0,0 0.5179,-0.80632 0.9469,-1.4742c0.9098,-1.41644 4.25897,-6.63068 4.25897,-6.63068z" data-paper-data="{&quot;index&quot;:null}" fill="#ffd100"/></g></g></svg>