<svg version="1.1" xmlns="http://www.w3.org/2000/svg" xmlns:xlink="http://www.w3.org/1999/xlink" width="83.57576" height="102.85531" viewBox="0,0,83.57576,102.85531"><g transform="translate(-195.83416,-136.70751)"><g data-paper-data="{&quot;isPaintingLayer&quot;:true}" fill-rule="nonzero" stroke="#000000" stroke-width="2" stroke-linejoin="miter" stroke-miterlimit="10" stroke-dasharray="" stroke-dashoffset="0" style="mix-blend-mode: normal"><path d="M228.06339,231.34672c0,0 -2.91199,-0.94902 -4.63328,-2.03908c-1.36363,-0.86356 -4.87369,-3.98151 -4.87369,-3.98151" fill="none" stroke-linecap="round"/><path d="M236.6255,236.90746c-1.92074,2.08511 -5.16815,2.21839 -7.25327,0.29763c-2.08511,-1.92074 -2.21839,-5.16815 -0.29763,-7.25327c1.92074,-2.08511 5.16815,-2.21839 7.25327,-0.29763c2.08511,1.92074 2.21839,5.16815 0.29763,7.25327z" fill="#e80000" stroke-linecap="butt"/><path d="M223.86629,223.44668c-8.28422,3.93648 -18.19105,0.41196 -22.12754,-7.87228c-3.93648,-8.28422 -0.41193,-18.19106 7.87229,-22.12755c8.28422,-3.93648 18.19105,-0.41196 22.12754,7.87229c3.93648,8.28422 0.41196,18.19105 -7.87228,22.12754z" fill="#e80000" stroke-linecap="butt"/><path d="M252.33121,179.61454l-12.87971,22.08364l-6.78158,-3.95519l12.87971,-22.08364z" fill="#e80000" stroke-linecap="butt"/><path d="M242.84263,160.88488c-1.2549,1.69915 -3.64964,2.05932 -5.34879,0.80442c-1.69915,-1.2549 -2.05932,-3.64964 -0.80442,-5.34879c1.2549,-1.69915 3.64964,-2.05932 5.34879,-0.80442c1.69915,1.2549 2.05932,3.64964 0.80442,5.34879z" fill="#e80000" stroke-linecap="butt"/><path d="M264.83741,139.48712c3.90521,-3.03725 6.63755,-1.79418 8.65102,0.79467c2.01345,2.58886 0.47989,7.14971 -3.42532,10.18696c-3.90521,3.03725 -7.59101,4.83086 -9.60447,2.242c-0.77765,-0.99986 -2.06884,-8.20906 4.37876,-13.22365z" data-paper-data="{&quot;index&quot;:null}" fill="#e80000" stroke-linecap="butt"/><path d="M222.99392,225.05223l-4.29937,3.58822c0,0 -8.11248,-10.61983 -11.88028,-15.13438c-3.30514,-3.96019 -9.52093,-10.50832 -9.52093,-10.50832l4.29937,-3.58821c0,0 6.2975,5.87584 9.44571,9.64798c3.84521,4.60728 11.9555,15.99471 11.9555,15.99471z" fill="#ff2121" stroke-linecap="butt"/><path d="M270.25132,146.97064c4.55308,-1.93523 6.87569,-0.03354 8.15859,2.9848c1.2829,3.01832 -1.36809,7.03399 -5.92118,8.9692c-4.55308,1.93523 -8.5754,2.72453 -9.8583,-0.29381c-0.49548,-1.16572 0.10366,-8.4651 7.62087,-11.6602z" data-paper-data="{&quot;index&quot;:null}" fill="#e80000" stroke-linecap="butt"/><path d="M254.81814,161.85824c-1.2549,1.69915 -3.64964,2.05932 -5.34879,0.80442c-1.69915,-1.2549 -2.05932,-3.64964 -0.80442,-5.34879c1.2549,-1.69915 3.64964,-2.05932 5.34879,-0.80442c1.69915,1.2549 2.05932,3.64964 0.80442,5.34879z" fill="#e80000" stroke-linecap="butt"/></g></g></svg>