<svg version="1.1" xmlns="http://www.w3.org/2000/svg" xmlns:xlink="http://www.w3.org/1999/xlink" width="122.70227" height="80.32102" viewBox="0,0,122.70227,80.32102"><g transform="translate(-162.15191,-146.36139)"><g data-paper-data="{&quot;isPaintingLayer&quot;:true}" fill-rule="nonzero" stroke-linejoin="miter" stroke-miterlimit="10" stroke-dasharray="" stroke-dashoffset="0" style="mix-blend-mode: normal"><path d="M227.35795,188.83175c-2.09531,0.26753 -4.01077,-1.21419 -4.2783,-3.3095c-0.26753,-2.09531 1.21419,-4.01077 3.3095,-4.2783c2.09531,-0.26753 4.01077,1.21419 4.2783,3.3095c0.26753,2.09531 -1.21419,4.01077 -3.3095,4.2783z" data-paper-data="{&quot;index&quot;:null}" fill="#2d6a2b" stroke="#000000" stroke-width="2" stroke-linecap="butt"/><path d="M236.32541,152.14933c0,0 3.03528,-0.40918 5.05915,-0.17442c1.60333,0.18599 6.11892,1.47108 6.11892,1.47108" data-paper-data="{&quot;index&quot;:null}" fill="none" stroke="#000000" stroke-width="2" stroke-linecap="round"/><path d="M229.18445,151.48495c0.82516,-2.71221 3.69276,-4.24197 6.40497,-3.41682c2.71221,0.82516 4.24197,3.69276 3.41683,6.40497c-0.82516,2.71221 -3.69276,4.24197 -6.40497,3.41682c-2.71221,-0.82516 -4.24197,-3.69276 -3.41682,-6.40497z" data-paper-data="{&quot;index&quot;:null}" fill="#2d6a2b" stroke="#000000" stroke-width="2" stroke-linecap="butt"/><g data-paper-data="{&quot;index&quot;:null}" stroke="#61ff00" stroke-width="3" stroke-linecap="round"><path d="M231.0043,185.19788c0,0 -17.76646,5.60259 -28.31757,8.44593c-11.76687,3.17097 -39.03482,9.7044 -39.03482,9.7044" fill="none"/><path d="M190.3182,189.0794c0,0 4.77923,-0.86902 5.95178,1.24797c1.17251,2.117 -8.62377,6.682 -8.62377,6.682z" fill="#61ff00"/><path d="M205.51102,194.17895c0,0 10.97458,-4.06288 15.99082,-3.54249c5.01624,0.52038 2.88974,2.51989 2.88974,2.51989z" data-paper-data="{&quot;index&quot;:null}" fill="#61ff00"/><path d="M173.50918,201.79206c0,0 9.20964,-3.45418 13.45462,-3.02866c4.24497,0.42553 2.47852,2.11685 2.47852,2.11685z" data-paper-data="{&quot;index&quot;:null}" fill="#61ff00"/></g><path d="M277.49824,159.24603c3.66805,8.40651 -0.17323,18.19488 -8.57976,21.86294c-8.40651,3.66804 -18.19489,-0.17322 -21.86295,-8.57976c-3.66804,-8.40649 0.17323,-18.19488 8.57976,-21.86294c8.40649,-3.66804 18.19488,0.17323 21.86294,8.57976z" data-paper-data="{&quot;index&quot;:null}" fill="#2d6a2b" stroke="#000000" stroke-width="2" stroke-linecap="butt"/><path d="M260.79892,147.36139c15.84742,0.04006 22.39138,11.72182 22.39138,11.72182l-40.94518,1.89435c0,0 1.51527,-13.65923 18.55383,-13.61617z" data-paper-data="{&quot;index&quot;:null}" fill="#367e33" stroke="#000000" stroke-width="2" stroke-linecap="round"/><path d="M240.73388,203.68405l8.64447,-24.05924l7.38827,2.6546l-8.64447,24.05923z" data-paper-data="{&quot;index&quot;:null}" fill="#2d6a2b" stroke="#000000" stroke-width="2" stroke-linecap="butt"/><path d="M222.19803,213.38269c8.14356,0.63226 11.03816,7.3599 10.94011,8.62276c-0.25387,3.26982 -4.31796,3.80383 -9.2504,3.42087c-4.93243,-0.38295 -8.72517,-3.34411 -8.4713,-6.61393c0.25387,-3.26982 1.84916,-5.81266 6.7816,-5.4297z" data-paper-data="{&quot;index&quot;:null}" fill="#2d6a2b" stroke="#000000" stroke-width="2" stroke-linecap="butt"/><path d="M261.98848,220.14666c0,3.05731 -3.33463,5.53575 -7.4481,5.53575c-4.11347,0 -7.4481,-2.47844 -7.4481,-5.53575c0,-3.05731 3.33463,-5.53575 7.4481,-5.53575c4.11347,0 7.4481,2.47844 7.4481,5.53575z" data-paper-data="{&quot;index&quot;:null}" fill="#2d6a2b" stroke="#000000" stroke-width="2" stroke-linecap="butt"/><path d="M229.73329,190.30802c-2.09531,0.26753 -4.01077,-1.21419 -4.2783,-3.3095c-0.26753,-2.09531 1.21419,-4.01077 3.3095,-4.2783c2.09531,-0.26753 4.01077,1.21419 4.2783,3.3095c0.26753,2.09531 -1.21419,4.01077 -3.3095,4.2783z" data-paper-data="{&quot;index&quot;:null}" fill="#2d6a2b" stroke="#000000" stroke-width="2" stroke-linecap="butt"/></g></g></svg>