<svg version="1.1" xmlns="http://www.w3.org/2000/svg" xmlns:xlink="http://www.w3.org/1999/xlink" width="93.7989" height="132.32964" viewBox="0,0,93.7989,132.32964"><g transform="translate(-179.22344,-93.26498)"><g data-paper-data="{&quot;isPaintingLayer&quot;:true}" fill-rule="nonzero" stroke="#000000" stroke-width="2" stroke-linejoin="miter" stroke-miterlimit="10" stroke-dasharray="" stroke-dashoffset="0" style="mix-blend-mode: normal"><path d="M203.72402,149.57331c-0.29871,-9.16706 6.89051,-16.84058 16.05756,-17.13929c9.16706,-0.29871 16.84058,6.89051 17.13929,16.05756c0.29871,9.16706 -6.89051,16.84058 -16.05756,17.13929c-9.16706,0.29871 -16.84058,-6.89051 -17.13929,-16.05756z" fill="#ff6b00" stroke-linecap="butt"/><path d="M233.40023,195.91009l-12.03195,-22.55671l6.92686,-3.69488l12.03196,22.55672z" data-paper-data="{&quot;index&quot;:null}" fill="#ff6b00" stroke-linecap="butt"/><path d="M204.32543,185.54978c-1.29992,-1.66497 -1.00398,-4.06848 0.66098,-5.36841c1.66497,-1.29992 4.06848,-1.00398 5.36841,0.66098c1.29992,1.66497 1.00398,4.06848 -0.66098,5.36841c-1.66497,1.29992 -4.06848,1.00398 -5.36841,-0.66098z" fill="#ff6b00" stroke-linecap="butt"/><path d="M194.28532,138.59958c0,0 2.39243,-1.91226 4.24872,-2.75201c1.47059,-0.66526 6.00398,-1.8861 6.00398,-1.8861" data-paper-data="{&quot;index&quot;:null}" fill="none" stroke-linecap="round"/><path d="M184.9358,142.70062c-0.68756,-2.7503 0.98461,-5.53728 3.73493,-6.22485c2.75031,-0.68756 5.53727,0.98462 6.22484,3.73493c0.68756,2.7503 -0.98461,5.53728 -3.73493,6.22485c-2.75031,0.68756 -5.53727,-0.98462 -6.22484,-3.73493z" data-paper-data="{&quot;index&quot;:null}" fill="#ff6b00" stroke-linecap="butt"/><path d="M233.5593,218.02207c0.19446,4.94346 -2.40742,6.44056 -5.68453,6.56945c-3.27713,0.12891 -6.0914,-3.77405 -6.28584,-8.71753c-0.19446,-4.94346 0.49425,-8.98422 3.77137,-9.11313c1.26567,-0.04978 7.87797,3.09941 8.19901,11.2612z" data-paper-data="{&quot;index&quot;:null}" fill="#ff6b00" stroke-linecap="butt"/><path d="M197.0769,146.69314l6.31464,-11.24457l-22.42964,-25.76499l44.95453,-15.00449l-1.82244,33.57947l11.82177,5.08266z" data-paper-data="{&quot;index&quot;:null}" fill="#ffa340" stroke-linecap="butt"/><path d="M237.79417,172.52293c-1.29992,-1.66497 -1.00398,-4.06848 0.66098,-5.36841c1.66497,-1.29992 4.06848,-1.00398 5.36841,0.66098c1.29992,1.66497 1.00398,4.06848 -0.66098,5.36841c-1.66497,1.29992 -4.06848,1.00398 -5.36841,-0.66098z" fill="#ff6b00" stroke-linecap="butt"/><path d="M260.25882,163.05611c0.21734,-4.94252 2.9347,-6.21803 6.21119,-6.07393c3.2765,0.14408 5.75643,4.26757 5.53907,9.21009c-0.21734,4.94252 -1.23971,8.91199 -4.51619,8.76791c-1.26542,-0.05565 -7.59291,-3.74385 -7.23407,-11.90406z" data-paper-data="{&quot;index&quot;:null}" fill="#ff6b00" stroke-linecap="butt"/></g></g></svg>