<svg version="1.1" xmlns="http://www.w3.org/2000/svg" xmlns:xlink="http://www.w3.org/1999/xlink" width="94.84613" height="79.86652" viewBox="0,0,94.84613,79.86652"><g transform="translate(-219.0328,-146.23955)"><g data-paper-data="{&quot;isPaintingLayer&quot;:true}" fill-rule="nonzero" stroke="#000000" stroke-width="2" stroke-linejoin="miter" stroke-miterlimit="10" stroke-dasharray="" stroke-dashoffset="0" style="mix-blend-mode: normal"><path d="M241.61706,206.11007l-5.04762,-25.06183l7.69615,-1.55005l5.04762,25.06183z" data-paper-data="{&quot;index&quot;:null}" fill="#181818" stroke-linecap="butt"/><path d="M235.51782,177.85078l14.32032,1.74468l-4.15074,3.83121l3.67684,4.61897l-17.0807,-0.505l4.80056,-4.6763z" data-paper-data="{&quot;index&quot;:null}" fill="#0e0e0e" stroke-linecap="round"/><path d="M220.23759,204.28401c0,-2.11232 1.71238,-3.8247 3.8247,-3.8247c2.11232,0 3.8247,1.71238 3.8247,3.8247c0,2.11232 -1.71238,3.8247 -3.8247,3.8247c-2.11232,0 -3.8247,-1.71238 -3.8247,-3.8247z" fill="#181818" stroke-linecap="butt"/><path d="M230.53377,152.18023c0,0 3.03536,-0.40861 5.05917,-0.17347c1.60329,0.18629 6.11865,1.47222 6.11865,1.47222" fill="#181818" stroke-linecap="round"/><path d="M220.0328,150.88869c0.82567,-2.71206 3.69355,-4.24131 6.40561,-3.41563c2.71206,0.82567 4.24131,3.69355 3.41563,6.40561c-0.82567,2.71206 -3.69355,4.24131 -6.40561,3.41563c-2.71206,-0.82567 -4.24131,-3.69355 -3.41563,-6.40561z" fill="#181818" stroke-linecap="butt"/><path d="M239.17436,166.28132c0.60299,-9.15209 8.51105,-16.08249 17.66313,-15.4795c9.15209,0.60299 16.08249,8.51105 15.4795,17.66313c-0.60299,9.15209 -8.51105,16.08249 -17.66313,15.4795c-9.15209,-0.60299 -16.08249,-8.51105 -15.4795,-17.66313z" fill="#181818" stroke-linecap="butt"/><path d="M266.67866,171.73433l0.34481,-5.23339l9.16972,0.60415l-0.34481,5.23339z" fill="#ff0000" stroke-linecap="butt"/><g><path d="M241.52329,159.33994l0.79306,-12.03681l29.56869,1.94816l-0.79306,12.03681z" fill="#343434" stroke-linecap="butt"/><path d="M281.82046,161.99496l-51.02563,-3.36187" fill="none" stroke-linecap="round"/></g><path d="M311.70831,213.34099c2.41753,4.31637 0.77892,6.83151 -2.0825,8.43413c-2.86143,1.60264 -7.14087,-0.59729 -9.5584,-4.91368c-2.41753,-4.31637 -3.63835,-8.22938 -0.77693,-9.83203c1.10512,-0.61896 8.42643,-0.81489 12.41783,6.31157z" data-paper-data="{&quot;index&quot;:null}" fill="#181818" stroke-linecap="butt"/><path d="M243.69223,214.03457c4.11347,0 7.4481,2.47844 7.4481,5.53575c0,3.05731 -3.33463,5.53575 -7.4481,5.53575c-4.11347,0 -7.4481,-2.47844 -7.4481,-5.53575c0,-3.05731 3.33463,-5.53575 7.4481,-5.53575z" data-paper-data="{&quot;index&quot;:null}" fill="#181818" stroke-linecap="butt"/><path d="M243.30103,204.05565c0,-2.11232 1.71238,-3.8247 3.8247,-3.8247c2.11232,0 3.8247,1.71238 3.8247,3.8247c0,2.11232 -1.71238,3.8247 -3.8247,3.8247c-2.11232,0 -3.8247,-1.71238 -3.8247,-3.8247z" fill="#181818" stroke-linecap="butt"/></g></g></svg>