<svg version="1.1" xmlns="http://www.w3.org/2000/svg" xmlns:xlink="http://www.w3.org/1999/xlink" width="54.89483" height="98.03973" viewBox="0,0,54.89483,98.03973"><defs><linearGradient x1="259.58816" y1="146.12126" x2="259.58816" y2="208.84387" gradientUnits="userSpaceOnUse" id="color-1"><stop offset="0" stop-color="#e84c00"/><stop offset="1" stop-color="#e84c00" stop-opacity="0"/></linearGradient></defs><g transform="translate(-210.41904,-131.01608)"><g data-paper-data="{&quot;isPaintingLayer&quot;:true}" fill-rule="nonzero" stroke="#000000" stroke-linejoin="miter" stroke-miterlimit="10" stroke-dasharray="" stroke-dashoffset="0" style="mix-blend-mode: normal"><path d="M227.57326,150.46904c0,0 1.8934,-4.29617 2.77373,-5.64903c1.11125,-1.70771 3.36381,-3.78286 3.36381,-3.78286" data-paper-data="{&quot;index&quot;:null}" fill="none" stroke-width="2" stroke-linecap="round"/><path d="M241.92968,139.13545c-1.09622,2.61443 -4.10431,3.84519 -6.71875,2.74897c-2.61443,-1.09622 -3.84519,-4.10431 -2.74897,-6.71875c1.09622,-2.61443 4.10431,-3.84519 6.71875,-2.74897c2.61443,1.09622 3.84519,4.10431 2.74897,6.71875z" data-paper-data="{&quot;index&quot;:null}" fill="#e80000" stroke-width="2" stroke-linecap="butt"/><path d="M251.40005,169.31777c-5.77796,7.12316 -16.23637,8.21368 -23.35954,2.43572c-7.12316,-5.77796 -8.21368,-16.23637 -2.43572,-23.35954c5.77796,-7.12316 16.23637,-8.21368 23.35954,-2.43572c7.12316,5.77796 8.21368,16.23637 2.43572,23.35954z" data-paper-data="{&quot;index&quot;:null}" fill="#e80000" stroke-width="2" stroke-linecap="butt"/><path d="M236.38962,202.69404l4.80894,-25.10872l7.71055,1.47677l-4.80894,25.10872z" fill="#e80000" stroke-width="2" stroke-linecap="butt"/><path d="M223.32199,188.31004c0,-2.11232 1.71238,-3.8247 3.8247,-3.8247c2.11232,0 3.8247,1.71238 3.8247,3.8247c0,2.11232 -1.71238,3.8247 -3.8247,3.8247c-2.11232,0 -3.8247,-1.71238 -3.8247,-3.8247z" fill="#e80000" stroke-width="2" stroke-linecap="butt"/><path d="M256.0791,153.46969c-0.44569,-2.06477 0.86683,-4.0999 2.9316,-4.54559c2.06477,-0.44569 4.0999,0.86683 4.54559,2.9316c0.44569,2.06477 -0.86683,4.0999 -2.9316,4.54559c-2.06477,0.44569 -4.0999,-0.86683 -4.54559,-2.9316z" fill="#e80000" stroke-width="2" stroke-linecap="butt"/><path d="M250.11873,211.17845c3.15249,0.90441 2.86066,4.99304 1.49637,9.7485c-1.3643,4.75545 -5.02586,7.87733 -8.17836,6.97292c-3.15249,-0.90441 -5.32377,-2.97722 -3.95947,-7.73268c2.25247,-7.85136 9.42391,-9.33804 10.64146,-8.98874z" data-paper-data="{&quot;index&quot;:null}" fill="#e80000" stroke-width="2" stroke-linecap="butt"/><path d="M221.65326,164.06909l-3.33263,-4.5004l26.84164,-19.87678l3.33263,4.50041z" data-paper-data="{&quot;index&quot;:null}" fill="#ff2121" stroke-width="2" stroke-linecap="butt"/><path d="M229.39826,210.28181c0.51092,3.23962 -3.31875,4.70104 -8.20564,5.47173c-4.88689,0.77069 -9.26266,-1.23077 -9.77358,-4.47039c-0.51092,-3.23962 0.45157,-6.08296 5.33846,-6.85366c8.06836,-1.27244 12.44343,4.60111 12.64075,5.85231z" data-paper-data="{&quot;index&quot;:null}" fill="#e80000" stroke-width="2" stroke-linecap="butt"/><path d="M262.69527,198.51246c-0.34663,0.01237 -9.11706,-46.49472 -9.2762,-48.37125c-0.17821,-2.10135 2.3037,-3.89852 5.54349,-4.01411c3.23979,-0.11558 6.01062,1.4942 6.18882,3.59555c0.17821,2.10135 0.78368,48.67421 -2.45611,48.7898z" data-paper-data="{&quot;index&quot;:null}" fill="url(#color-1)" stroke-width="0" stroke-linecap="butt"/></g></g></svg>