<svg version="1.1" xmlns="http://www.w3.org/2000/svg" xmlns:xlink="http://www.w3.org/1999/xlink" width="86.88266" height="98.78248" viewBox="0,0,86.88266,98.78248"><g transform="translate(-192.86415,-136.98628)"><g data-paper-data="{&quot;isPaintingLayer&quot;:true}" fill-rule="nonzero" stroke="#000000" stroke-width="2" stroke-linejoin="miter" stroke-miterlimit="10" stroke-dasharray="" stroke-dashoffset="0" style="mix-blend-mode: normal"><g><path d="M206.66363,172.44124l-11.09768,-4.72815c0,0 -4.09684,-4.74646 0.4225,-15.31453c4.55368,-10.64837 11.1923,-11.94716 11.1923,-11.94716l11.09768,4.72815c0,0 -6.72631,7.2547 -8.62125,11.70243c-1.97347,4.63202 -2.99355,15.55925 -2.99355,15.55925z" fill="#343434" stroke-linecap="butt"/><path d="M206.51318,181.60921c0,0 -0.3544,-16.53865 2.9431,-24.27837c3.38147,-7.93682 15.18022,-19.34456 15.18022,-19.34456" fill="none" stroke-linecap="round"/></g><path d="M216.84221,180.10612c0,0 -1.65804,-2.57512 -2.30392,-4.50746c-0.51167,-1.53083 -1.26333,-6.16517 -1.26333,-6.16517" fill="#181818" stroke-linecap="round"/><path d="M220.12877,190.16282c-2.80614,0.40321 -5.40785,-1.54472 -5.81106,-4.35087c-0.40321,-2.80614 1.54472,-5.40784 4.35088,-5.81105c2.80614,-0.40321 5.40784,1.54472 5.81106,4.35087c0.40321,2.80614 -1.54472,5.40785 -4.35087,5.81105z" fill="#181818" stroke-linecap="butt"/><path d="M248.10437,203.22664l-16.35964,-19.64525l6.0328,-5.02383l16.35964,19.64525z" fill="#181818" stroke-linecap="butt"/><path d="M229.05385,183.69323l11.30965,-8.95775l0.29072,6.20334l6.33613,1.16901l-12.19282,11.99516l-0.53809,-7.37852z" fill="#0e0e0e" stroke-linecap="round"/><path d="M256.19688,191.42029c-0.75393,-1.97319 0.23447,-4.18397 2.20766,-4.9379c1.97319,-0.75393 4.18397,0.23447 4.9379,2.20766c0.75393,1.97319 -0.23447,4.18397 -2.20766,4.9379c-1.97319,0.75393 -4.18397,-0.23447 -4.9379,-2.20766z" fill="#181818" stroke-linecap="butt"/><path d="M211.34343,175.98797c-7.87082,-4.70897 -10.434,-14.9069 -5.72503,-22.77772c4.70897,-7.87082 14.90691,-10.43401 22.77773,-5.72504c7.87082,4.70897 10.434,14.90691 5.72504,22.77772c-4.70897,7.87082 -14.90691,10.434 -22.77772,5.72503z" fill="#181818" stroke-linecap="butt"/><path d="M276.42033,210.11615c3.49573,3.50078 2.59915,6.36559 0.2784,8.68298c-2.32074,2.31739 -7.03592,1.35807 -10.53165,-2.14272c-3.49573,-3.50078 -5.73023,-6.93721 -3.40949,-9.25461c0.89631,-0.89501 7.89121,-3.06553 13.66274,2.71435z" data-paper-data="{&quot;index&quot;:null}" fill="#181818" stroke-linecap="butt"/><path d="M216.61939,161.38829l-3.7408,-4.02573c0,0 0.46878,-7.37401 1.79464,-9.89581c1.25539,-2.38777 9.63235,-5.83558 9.63235,-5.83558l4.09391,3.79667c0,0 -6.36381,2.71216 -8.14241,5.12192c-2.0958,2.83953 -3.63768,10.83852 -3.63768,10.83852z" fill="#ff0000" stroke-linecap="butt"/><path d="M229.1571,207.95614c-0.75393,-1.97319 0.23447,-4.18397 2.20766,-4.9379c1.97319,-0.75393 4.18397,0.23447 4.9379,2.20766c0.75393,1.97319 -0.23447,4.18397 -2.20766,4.9379c-1.97319,0.75393 -4.18397,-0.23447 -4.9379,-2.20766z" fill="#181818" stroke-linecap="butt"/><path d="M258.9578,227.0665c1.32799,4.76571 -0.85903,6.8219 -4.01832,7.70226c-3.15929,0.88035 -6.79696,-2.26935 -8.12495,-7.03508c-1.32799,-4.76571 -1.58863,-8.85645 1.57066,-9.7368c1.22017,-0.34001 8.38007,1.20131 10.57261,9.06962z" data-paper-data="{&quot;index&quot;:null}" fill="#181818" stroke-linecap="butt"/></g></g></svg>