<svg version="1.1" xmlns="http://www.w3.org/2000/svg" xmlns:xlink="http://www.w3.org/1999/xlink" width="112.04553" height="55.73741" viewBox="0,0,112.04553,55.73741"><g transform="translate(-184.66959,-177.93781)"><g data-paper-data="{&quot;isPaintingLayer&quot;:true}" fill-rule="nonzero" stroke="#000000" stroke-width="2" stroke-linejoin="miter" stroke-miterlimit="10" stroke-dasharray="" stroke-dashoffset="0" style="mix-blend-mode: normal"><path d="M262.67258,198.6519c-1.47282,-1.51418 -1.43926,-3.93561 0.07489,-5.40842c1.51418,-1.47282 3.93561,-1.43926 5.40842,0.07489c1.47282,1.51418 1.43926,3.93561 -0.07489,5.40842c-1.51418,1.47282 -3.93561,1.43926 -5.40842,-0.07489z" fill="#ffe819" stroke-linecap="butt"/><path d="M217.45143,211.63683c-7.26367,5.60031 -17.69197,4.25186 -23.29226,-3.01181c-5.60031,-7.26367 -4.25186,-17.69199 3.0118,-23.29227c7.26367,-5.60031 17.69198,-4.25185 23.29227,3.0118c5.60031,7.26367 4.25186,17.69197 -3.0118,23.29227z" fill="#ffe819" stroke-linecap="butt"/><path d="M254.10121,192.84794l-25.55138,-0.83728l0.25713,-7.84649l25.55137,0.83728z" fill="#ffe819" stroke-linecap="butt"/><path d="M222.36208,226.52519c0,0 -3.04728,-0.30725 -4.96121,-1.00584c-1.51623,-0.55343 -5.60966,-2.85254 -5.60966,-2.85254" fill="none" stroke-linecap="round"/><path d="M231.91183,230.13546c-1.43276,2.44627 -4.57731,3.2679 -7.02357,1.83515c-2.44627,-1.43276 -3.26789,-4.57732 -1.83514,-7.02359c1.43276,-2.44627 4.57732,-3.26789 7.02359,-1.83514c2.44627,1.43276 3.26789,4.57732 1.83514,7.02359z" fill="#ffe819" stroke-linecap="butt"/><path d="M289.34424,178.93799c4.94722,-0.02496 6.35429,2.62665 6.37083,5.90629c0.01656,3.27961 -3.98055,5.95852 -8.92776,5.98347c-4.94722,0.02496 -8.96201,-0.80178 -8.97857,-4.08139c-0.00639,-1.26664 3.36753,-7.76713 11.5355,-7.80836z" data-paper-data="{&quot;index&quot;:null}" fill="#ffe819" stroke-linecap="butt"/><path d="M220.17948,215.25227l-11.16133,2.423l5.79923,10.11147c0,0 -17.63212,-3.54433 -24.65133,-11.5108c-7.01922,-7.96648 -3.72351,-20.69326 -3.72351,-20.69326z" data-paper-data="{&quot;index&quot;:null}" fill="#fff067" stroke-linecap="butt"/><path d="M289.87038,190.5638c4.65611,1.6722 5.06911,4.64548 3.96059,7.73212c-1.10853,3.08663 -5.78171,4.23327 -10.43782,2.56106c-4.65611,-1.6722 -8.14435,-3.82493 -7.03583,-6.91157c0.42815,-1.1921 5.82571,-6.14245 13.51306,-3.38163z" data-paper-data="{&quot;index&quot;:null}" fill="#ffe819" stroke-linecap="butt"/><path d="M255.42203,211.9268c-1.47282,-1.51418 -1.43926,-3.93561 0.07489,-5.40842c1.51418,-1.47282 3.93561,-1.43926 5.40842,0.07489c1.47282,1.51418 1.43926,3.93561 -0.07489,5.40842c-1.51418,1.47282 -3.93561,1.43926 -5.40842,-0.07489z" fill="#ffe819" stroke-linecap="butt"/></g></g></svg>