<svg version="1.1" xmlns="http://www.w3.org/2000/svg" xmlns:xlink="http://www.w3.org/1999/xlink" width="102.36277" height="99.19936" viewBox="0,0,102.36277,99.19936"><g transform="translate(-203.05617,-127.58401)"><g data-paper-data="{&quot;isPaintingLayer&quot;:true}" fill-rule="nonzero" stroke="#000000" stroke-width="2" stroke-linejoin="miter" stroke-miterlimit="10" stroke-dasharray="" stroke-dashoffset="0" style="mix-blend-mode: normal"><path d="M230.75059,198.68067c0,-2.11232 1.71238,-3.8247 3.8247,-3.8247c2.11232,0 3.8247,1.71238 3.8247,3.8247c0,2.11232 -1.71238,3.8247 -3.8247,3.8247c-2.11232,0 -3.8247,-1.71238 -3.8247,-3.8247z" fill="#1d28e8" stroke-linecap="butt"/><path d="M256.0488,167.7376c0,-9.17193 7.43532,-16.60724 16.60724,-16.60724c9.17193,0 16.60724,7.43532 16.60724,16.60724c0,9.17193 -7.43532,16.60724 -16.60724,16.60724c-9.17193,0 -16.60724,-7.43532 -16.60724,-16.60724z" fill="#1d28e8" stroke-linecap="butt"/><path d="M239.01489,203.77834l15.28757,-20.49058l6.29239,4.69461l-15.28757,20.49058z" fill="#1d28e8" stroke-linecap="butt"/><path d="M250.76806,207.68758c0,-2.11232 1.71238,-3.8247 3.8247,-3.8247c2.11232,0 3.8247,1.71238 3.8247,3.8247c0,2.11232 -1.71238,3.8247 -3.8247,3.8247c-2.11232,0 -3.8247,-1.71238 -3.8247,-3.8247z" fill="#1d28e8" stroke-linecap="butt"/><path d="M256.52763,166.61309c0,0 -4.51547,1.28551 -6.11878,1.47166c-2.02383,0.23496 -5.05915,-0.17393 -5.05915,-0.17393" data-paper-data="{&quot;index&quot;:null}" fill="none" stroke-linecap="round"/><path d="M238.63881,162.79907c2.71214,-0.82542 5.57988,0.70408 6.4053,3.41622c0.82542,2.71214 -0.70408,5.57988 -3.41622,6.4053c-2.71214,0.82542 -5.57988,-0.70408 -6.4053,-3.41622c-0.82542,-2.71214 0.70408,-5.57988 3.41622,-6.4053z" data-paper-data="{&quot;index&quot;:null}" fill="#1d28e8" stroke-linecap="butt"/><path d="M273.50157,213.65547c4.73881,-1.42101 6.83742,0.72535 7.77943,3.86682c0.94202,3.14146 -2.13588,6.84007 -6.87471,8.26108c-4.73881,1.42101 -8.82367,1.76166 -9.76569,-1.3798c-0.36383,-1.21328 1.03708,-8.40198 8.86096,-10.74809z" data-paper-data="{&quot;index&quot;:null}" fill="#1d28e8" stroke-linecap="butt"/><path d="M255.85013,166.93249l-11.03481,-20.23016l37.07784,-17.61821l3.39948,28.30289l19.81931,-6.34473z" fill="#2530ff" stroke-linecap="round"/><path d="M212.26028,211.13296c-4.52237,2.00592 -6.87434,0.14065 -8.20411,-2.85734c-1.32976,-2.99799 1.25835,-7.05444 5.78074,-9.06037c4.52237,-2.00592 8.53191,-2.8578 9.86168,0.1402c0.51358,1.15788 0.02825,8.46568 -7.43831,11.77751z" data-paper-data="{&quot;index&quot;:null}" fill="#1d28e8" stroke-linecap="butt"/></g></g></svg>