<svg version="1.1" xmlns="http://www.w3.org/2000/svg" xmlns:xlink="http://www.w3.org/1999/xlink" width="129.26523" height="60.37035" viewBox="0,0,129.26523,60.37035"><g transform="translate(-220.95729,-166.48465)"><g data-paper-data="{&quot;isPaintingLayer&quot;:true}" fill-rule="nonzero" stroke="#000000" stroke-width="2" stroke-linejoin="miter" stroke-miterlimit="10" stroke-dasharray="" stroke-dashoffset="0" style="mix-blend-mode: normal"><path d="M277.67373,192.65333c0.61491,-2.02084 2.75162,-3.16057 4.77245,-2.54565c2.02084,0.61491 3.16057,2.75162 2.54565,4.77245c-0.61491,2.02084 -2.75162,3.16057 -4.77245,2.54565c-2.02084,-0.61491 -3.16057,-2.75162 -2.54565,-4.77245z" fill="#1d28e8" stroke-linecap="butt"/><path d="M226.94522,217.18285l3.2413,-25.35878l7.78735,0.99536l-3.2413,25.35878z" fill="#1d28e8" stroke-linecap="butt"/><path d="M221.9573,212.07463c0,-2.11232 1.71238,-3.8247 3.8247,-3.8247c2.11232,0 3.8247,1.71238 3.8247,3.8247c0,2.11232 -1.71238,3.8247 -3.8247,3.8247c-2.11232,0 -3.8247,-1.71238 -3.8247,-3.8247z" fill="#1d28e8" stroke-linecap="butt"/><path d="M252.85705,213.80054c4.92982,-0.4153 6.54175,2.11702 6.81706,5.3851c0.27531,3.26808 -3.49791,6.25406 -8.42774,6.66936c-4.92982,0.4153 -8.99733,-0.09203 -9.27264,-3.36012c-0.10633,-1.26219 2.74407,-8.00867 10.88332,-8.69434z" data-paper-data="{&quot;index&quot;:null}" fill="#1d28e8" stroke-linecap="butt"/><path d="M235.26003,213.63832c4.91995,-0.51932 6.585,1.97839 6.92927,5.23993c0.34427,3.26154 -3.36505,6.32653 -8.28501,6.84585c-4.91995,0.51932 -8.99727,0.09799 -9.34154,-3.16355c-0.13296,-1.25966 2.57433,-8.06483 10.69728,-8.92223z" data-paper-data="{&quot;index&quot;:null}" fill="#1d28e8" stroke-linecap="butt"/><path d="M228.07056,181.98813c1.16287,-9.09791 9.48089,-15.53052 18.57879,-14.36765c9.09791,1.16287 15.53052,9.48089 14.36765,18.57879c-1.16287,9.09791 -9.48089,15.53052 -18.57879,14.36765c-9.09791,-1.16287 -15.53052,-9.48089 -14.36765,-18.57879z" fill="#1d28e8" stroke-linecap="butt"/><path d="M340.24683,195.62652c0,0 -2.04588,2.27919 -3.73908,3.41239c-1.34138,0.89773 -5.61272,2.8465 -5.61272,2.8465" fill="none" stroke-linecap="round"/><path d="M348.79589,190.04571c1.12991,2.60006 -0.06187,5.62379 -2.66193,6.7537c-2.60006,1.12991 -5.62379,-0.06187 -6.7537,-2.66193c-1.12991,-2.60006 0.06187,-5.62379 2.66193,-6.7537c2.60006,-1.12991 5.62379,0.06187 6.7537,2.66193z" fill="#1d28e8" stroke-linecap="butt"/><path d="M333.63912,201.62033l1.8885,22.9665l-41.03662,1.07854l8.36347,-27.25183l-20.69,-2.23257z" fill="#2530ff" stroke-linecap="round"/></g></g></svg>