<svg version="1.1" xmlns="http://www.w3.org/2000/svg" xmlns:xlink="http://www.w3.org/1999/xlink" width="57.35936" height="88.29394" viewBox="0,0,57.35936,88.29394"><g transform="translate(-206.48223,-138.79107)"><g data-paper-data="{&quot;isPaintingLayer&quot;:true}" fill-rule="nonzero" stroke="#000000" stroke-width="2" stroke-linejoin="miter" stroke-miterlimit="10" stroke-dasharray="" stroke-dashoffset="0" style="mix-blend-mode: normal"><path d="M227.64516,159.66065c0.18362,-9.17009 7.7663,-16.45506 16.93638,-16.27144c9.17009,0.18362 16.45506,7.7663 16.27144,16.93638c-0.18362,9.17009 -7.7663,16.45506 -16.93638,16.27144c-9.17009,-0.18362 -16.45506,-7.7663 -16.27144,-16.93638z" fill="#2d6a2b" stroke-linecap="butt"/><path d="M236.94383,141.46185c14.95044,-5.2561 25.02077,3.56858 25.02077,3.56858l-37.96026,15.46334c0,0 -3.13468,-13.38075 12.93948,-19.03192z" fill="#367e33" stroke-linecap="round"/><path d="M233.34977,203.01276l4.19872,-25.21793l7.74409,1.28937l-4.19872,25.21793z" fill="#2d6a2b" stroke-linecap="butt"/><path d="M220.70215,190.9197c0,-2.11232 1.71238,-3.8247 3.8247,-3.8247c2.11232,0 3.8247,1.71238 3.8247,3.8247c0,2.11232 -1.71238,3.8247 -3.8247,3.8247c-2.11232,0 -3.8247,-1.71238 -3.8247,-3.8247z" fill="#2d6a2b" stroke-linecap="butt"/><path d="M251.0724,184.97349c0,-2.11232 1.71238,-3.8247 3.8247,-3.8247c2.11232,0 3.8247,1.71238 3.8247,3.8247c0,2.11232 -1.71238,3.8247 -3.8247,3.8247c-2.11232,0 -3.8247,-1.71238 -3.8247,-3.8247z" fill="#2d6a2b" stroke-linecap="butt"/><path d="M254.5989,214.2083c4.94728,0 6.34095,2.65869 6.34095,5.93835c0,3.27966 -4.01057,5.93835 -8.95785,5.93835c-4.94728,0 -8.95785,-0.84699 -8.95785,-4.12665c0,-1.26666 3.40667,-7.75005 11.57475,-7.75005z" data-paper-data="{&quot;index&quot;:null}" fill="#2d6a2b" stroke-linecap="butt"/><path d="M228.53058,214.6109c4.11347,0 7.4481,2.47844 7.4481,5.53575c0,3.05731 -3.33463,5.53575 -7.4481,5.53575c-4.11347,0 -7.4481,-2.47844 -7.4481,-5.53575c0,-3.05731 3.33463,-5.53575 7.4481,-5.53575z" data-paper-data="{&quot;index&quot;:null}" fill="#2d6a2b" stroke-linecap="butt"/><path d="M217.54724,148.16811c0,0 2.78477,-1.27492 4.78933,-1.63939c1.58804,-0.28873 6.28217,-0.37361 6.28217,-0.37361" fill="none" stroke-linecap="round"/><path d="M207.48223,149.87916c0,-2.83496 2.29819,-5.13315 5.13315,-5.13315c2.83496,0 5.13315,2.29819 5.13315,5.13315c0,2.83496 -2.29819,5.13315 -5.13315,5.13315c-2.83496,0 -5.13315,-2.29819 -5.13315,-5.13315z" fill="#2d6a2b" stroke-linecap="butt"/></g></g></svg>