<svg version="1.1" xmlns="http://www.w3.org/2000/svg" xmlns:xlink="http://www.w3.org/1999/xlink" width="109.73876" height="78.30191" viewBox="0,0,109.73876,78.30191"><g transform="translate(-193.04947,-131.00942)"><g data-paper-data="{&quot;isPaintingLayer&quot;:true}" fill-rule="nonzero" stroke="#000000" stroke-width="2" stroke-linejoin="miter" stroke-miterlimit="10" stroke-dasharray="" stroke-dashoffset="0" style="mix-blend-mode: normal"><path d="M245.40134,164.62769c1.70084,-1.25261 4.0951,-0.88925 5.34771,0.8116c1.25261,1.70084 0.88925,4.0951 -0.8116,5.34771c-1.70084,1.25261 -4.0951,0.88925 -5.34771,-0.8116c-1.25261,-1.70084 -0.88925,-4.0951 0.8116,-5.34771z" fill="#1d28e8" stroke-linecap="butt"/><path d="M254.64035,153.90966c7.38525,-5.43897 17.78132,-3.8612 23.22029,3.52403c5.43897,7.38525 3.8612,17.78132 -3.52403,23.22029c-7.38525,5.43897 -17.78132,3.8612 -23.22029,-3.52403c-5.43897,-7.38525 -3.8612,-17.78132 3.52403,-23.22029z" fill="#1d28e8" stroke-linecap="butt"/><path d="M224.87115,190.5836l20.58503,-15.16015l4.65548,6.32139l-20.58503,15.16015z" fill="#1d28e8" stroke-linecap="butt"/><path d="M218.70097,164.40974c1.70084,-1.25261 4.0951,-0.88925 5.34771,0.8116c1.25261,1.70084 0.88925,4.0951 -0.8116,5.34771c-1.70084,1.25261 -4.0951,0.88925 -5.34771,-0.8116c-1.25261,-1.70084 -0.88925,-4.0951 0.8116,-5.34771z" fill="#1d28e8" stroke-linecap="butt"/><path d="M246.09335,148.39329c0,0 2.97613,0.7232 4.77585,1.67823c1.42577,0.75659 5.16432,3.59653 5.16432,3.59653" fill="none" stroke-linecap="round"/><path d="M237.13048,143.50465c1.7554,-2.22611 4.98305,-2.60771 7.20916,-0.85231c2.22611,1.7554 2.60771,4.98305 0.85231,7.20916c-1.7554,2.22611 -4.98305,2.60771 -7.20916,0.85231c-2.22611,-1.7554 -2.60771,-4.98305 -0.85231,-7.20916z" fill="#1d28e8" stroke-linecap="butt"/><path d="M198.02791,191.24273c-4.46997,-2.12012 -4.58982,-5.11955 -3.18434,-8.0828c1.40548,-2.96324 6.16847,-3.64673 10.63845,-1.5266c4.46997,2.12012 7.73064,4.6041 6.32516,7.56734c-0.54282,1.14445 -6.39923,5.54243 -13.77926,2.04205z" data-paper-data="{&quot;index&quot;:null}" fill="#1d28e8" stroke-linecap="butt"/><path d="M255.1708,153.27227l9.74568,-20.88177l36.17344,19.40747l-20.77361,19.52094l16.86168,12.19609z" fill="#2530ff" stroke-linecap="round"/><path d="M207.21464,208.23365c-4.9161,0.55453 -6.59899,-1.93119 -6.9666,-5.19018c-0.36761,-3.25899 3.31966,-6.35047 8.23578,-6.905c4.9161,-0.55453 8.99634,-0.16241 9.36395,3.09658c0.14198,1.25868 -2.51652,8.08306 -10.63313,8.9986z" data-paper-data="{&quot;index&quot;:null}" fill="#1d28e8" stroke-linecap="butt"/></g></g></svg>