<svg version="1.1" xmlns="http://www.w3.org/2000/svg" xmlns:xlink="http://www.w3.org/1999/xlink" width="85.64128" height="115.57747" viewBox="0,0,85.64128,115.57747"><defs><radialGradient cx="239.89909" cy="161.29106" r="19.76471" gradientUnits="userSpaceOnUse" id="color-1"><stop offset="0" stop-color="#e82d00" stop-opacity="0"/><stop offset="1" stop-color="#e82d00"/></radialGradient><radialGradient cx="239.56589" cy="161.5167" r="19.76471" gradientUnits="userSpaceOnUse" id="color-2"><stop offset="0" stop-color="#e82d00" stop-opacity="0"/><stop offset="1" stop-color="#e82d00"/></radialGradient><radialGradient cx="240.01204" cy="161.47624" r="19.76471" gradientUnits="userSpaceOnUse" id="color-3"><stop offset="0" stop-color="#e82d00"/><stop offset="1" stop-color="#e82d00" stop-opacity="0"/></radialGradient><linearGradient x1="306.25982" y1="138.2791" x2="219.96721" y2="167.74222" gradientUnits="userSpaceOnUse" id="color-4"><stop offset="0" stop-color="#e82d00" stop-opacity="0"/><stop offset="1" stop-color="#e82d00"/></linearGradient></defs><g transform="translate(-212.99304,-114.04153)"><g data-paper-data="{&quot;isPaintingLayer&quot;:true}" fill-rule="nonzero" stroke-linejoin="miter" stroke-miterlimit="10" stroke-dasharray="" stroke-dashoffset="0" style="mix-blend-mode: normal"><path d="M254.28554,217.81625c4.43311,2.19616 4.50171,5.1972 3.04582,8.13601c-1.45588,2.9388 -6.22985,3.54083 -10.66297,1.34467c-4.43311,-2.19616 -7.65087,-4.73547 -6.19498,-7.67427c0.56229,-1.13502 6.49296,-5.43232 13.81213,-1.8064z" data-paper-data="{&quot;index&quot;:null}" fill="#e80000" stroke="#000000" stroke-width="2" stroke-linecap="butt"/><g data-paper-data="{&quot;index&quot;:null}" stroke-linecap="butt"><path d="M238.99874,166.85506c-1.40839,-1.57427 -1.27392,-3.99221 0.30035,-5.40059c1.57427,-1.40839 3.99221,-1.27392 5.40059,0.30035c1.40839,1.57427 1.27392,3.99221 -0.30035,5.40059c-1.57427,1.40839 -3.99221,1.27392 -5.40059,-0.30035z" fill="#e80000" stroke="#000000" stroke-width="2"/><path d="M221.19458,167.67738c-3.52707,-10.33022 1.98797,-21.56377 12.31818,-25.09084c10.33022,-3.52707 21.56377,1.98797 25.09084,12.31818c3.52707,10.33022 -1.98797,21.56377 -12.31818,25.09084c-10.33022,3.52707 -21.56377,-1.98797 -25.09084,-12.31818z" fill="url(#color-1)" stroke="none" stroke-width="0"/><path d="M220.86138,167.90302c-3.52707,-10.33022 1.98797,-21.56377 12.31818,-25.09084c10.33022,-3.52707 21.56377,1.98797 25.09084,12.31818c3.52707,10.33022 -1.98797,21.56377 -12.31818,25.09084c-10.33022,3.52707 -21.56377,-1.98797 -25.09084,-12.31818z" fill="url(#color-2)" stroke="none" stroke-width="0"/><path d="M221.30754,167.86256c-3.52707,-10.33022 1.98797,-21.56377 12.31818,-25.09084c10.33022,-3.52707 21.56377,1.98797 25.09084,12.31818c3.52707,10.33022 -1.98797,21.56377 -12.31818,25.09084c-10.33022,3.52707 -21.56377,-1.98797 -25.09084,-12.31818z" fill="url(#color-3)" stroke="none" stroke-width="0"/><path d="M220.94139,152.42614c6.37045,-16.16596 18.26899,-6.62943 40.23169,-7.86048c24.51217,-1.37391 36.81124,-30.52413 36.81124,-30.52413c0,0 5.7328,44.08363 -16.85215,57.36082c-15.16099,8.9128 -29.87879,14.37206 -43.33173,10.13075c-13.45289,-4.24127 -23.2295,-12.94099 -16.85903,-29.10692z" data-paper-data="{&quot;index&quot;:null}" fill="url(#color-4)" stroke="#000000" stroke-width="0"/></g><path d="M222.56675,196.8134c0,0 0.09768,-8.04583 1.19916,-11.96871c1.19462,-4.25458 5.71184,-12.64454 5.71184,-12.64454l7.72311,4.09875c0,0 -4.68889,6.01639 -5.85607,10.17325c-1.13562,4.04448 -1.21964,10.98118 -1.21964,10.98118z" fill="#e80000" stroke="#000000" stroke-width="2" stroke-linecap="butt"/><path d="M233.84658,187.74226c0.98391,-1.86917 3.2968,-2.58682 5.16598,-1.60291c1.86917,0.98391 2.58682,3.2968 1.60291,5.16598c-0.98391,1.86917 -3.2968,2.58682 -5.16598,1.60291c-1.86917,-0.98391 -2.58682,-3.2968 -1.60291,-5.16598z" fill="#e80000" stroke="#000000" stroke-width="2" stroke-linecap="butt"/><path d="M221.42234,193.67722c4.52084,-2.00937 6.87423,-0.14591 8.20629,2.85105c1.33206,2.99697 -1.25295,7.0554 -5.77381,9.06478c-4.52084,2.00937 -8.52972,2.86431 -9.86178,-0.13265c-0.51446,-1.15748 -0.03471,-8.46566 7.4293,-11.78318z" data-paper-data="{&quot;index&quot;:null}" fill="#e80000" stroke="#000000" stroke-width="2" stroke-linecap="butt"/><path d="M258.15822,154.1779c0,0 3.25429,3.38403 4.1711,4.71245c1.15727,1.67685 2.22069,4.54904 2.22069,4.54904" data-paper-data="{&quot;index&quot;:null}" fill="none" stroke="#000000" stroke-width="2" stroke-linecap="round"/><path d="M259.43559,171.76435c-2.00169,-2.00755 -1.99693,-5.25767 0.01062,-7.25936c2.00755,-2.00169 5.25767,-1.99693 7.25936,0.01062c2.00169,2.00755 1.99693,5.25767 -0.01062,7.25936c-2.00755,2.00169 -5.25767,1.99693 -7.25936,-0.01062z" data-paper-data="{&quot;index&quot;:null}" fill="#e80000" stroke="#000000" stroke-width="2" stroke-linecap="butt"/><path d="M240.19122,174.79896c-8.43338,-3.60586 -12.34687,-13.36559 -8.74101,-21.79898c3.60586,-8.43338 13.36559,-12.34687 21.79898,-8.74101c8.43338,3.60586 12.34687,13.36559 8.74101,21.79898c-3.60586,8.43338 -13.36559,12.34687 -21.79898,8.74101z" data-paper-data="{&quot;index&quot;:null}" fill="#e80000" stroke="#000000" stroke-width="2" stroke-linecap="butt"/><path d="M233.07442,149.05299l2.26279,-5.12248l30.55192,13.49591l-2.26279,5.12249z" data-paper-data="{&quot;index&quot;:null}" fill="#ff2121" stroke="#000000" stroke-width="2" stroke-linecap="butt"/></g></g></svg>