<svg version="1.1" xmlns="http://www.w3.org/2000/svg" xmlns:xlink="http://www.w3.org/1999/xlink" width="42.15323" height="4.64861" viewBox="0,0,42.15323,4.64861"><defs><linearGradient x1="228.74903" y1="186.13965" x2="228.74903" y2="189.89387" gradientUnits="userSpaceOnUse" id="color-1"><stop offset="0" stop-color="#ff0000"/><stop offset="1" stop-color="#ff7070"/></linearGradient><linearGradient x1="224.34187" y1="186.21116" x2="224.34187" y2="189.96538" gradientUnits="userSpaceOnUse" id="color-2"><stop offset="0" stop-color="#ff0000"/><stop offset="1" stop-color="#ff7070"/></linearGradient><linearGradient x1="226.43587" y1="185.49607" x2="226.43587" y2="190.1084" gradientUnits="userSpaceOnUse" id="color-3"><stop offset="0" stop-color="#ff0000"/><stop offset="1" stop-color="#ff7070"/></linearGradient><linearGradient x1="255.38538" y1="186.10337" x2="255.38538" y2="189.85759" gradientUnits="userSpaceOnUse" id="color-4"><stop offset="0" stop-color="#ff0000"/><stop offset="1" stop-color="#ff7070"/></linearGradient><linearGradient x1="250.97822" y1="186.17488" x2="250.97822" y2="189.9291" gradientUnits="userSpaceOnUse" id="color-5"><stop offset="0" stop-color="#ff0000"/><stop offset="1" stop-color="#ff7070"/></linearGradient><linearGradient x1="253.07222" y1="185.45979" x2="253.07222" y2="190.07212" gradientUnits="userSpaceOnUse" id="color-6"><stop offset="0" stop-color="#ff0000"/><stop offset="1" stop-color="#ff7070"/></linearGradient></defs><g transform="translate(-218.78702,-185.45979)"><g data-paper-data="{&quot;isPaintingLayer&quot;:true}" fill-rule="nonzero" stroke="none" stroke-width="0" stroke-linecap="butt" stroke-linejoin="miter" stroke-miterlimit="10" stroke-dasharray="" stroke-dashoffset="0" style="mix-blend-mode: normal"><path d="M234.3039,188.01676c0,1.0367 -2.487,1.87711 -5.55486,1.87711c-3.06787,0 -5.55486,-0.84041 -5.55486,-1.87711c0,-1.0367 2.487,-1.87711 5.55486,-1.87711c3.06787,0 5.55486,0.84041 5.55486,1.87711z" fill="url(#color-1)"/><path d="M229.89674,188.08826c0,1.0367 -2.487,1.87711 -5.55486,1.87711c-3.06787,0 -5.55486,-0.84041 -5.55486,-1.87711c0,-1.0367 2.487,-1.87711 5.55486,-1.87711c3.06787,0 5.55486,0.84041 5.55486,1.87711z" fill="url(#color-2)"/><path d="M226.43587,185.49607c3.06787,0 5.55486,1.0325 5.55486,2.30617c0,1.27366 -2.487,2.30617 -5.55486,2.30617c-3.06787,0 -5.55486,-1.0325 -5.55486,-2.30617c0,-1.27366 2.487,-2.30617 5.55486,-2.30617z" fill="url(#color-3)"/><path d="M260.94025,187.98048c0,1.0367 -2.487,1.87711 -5.55486,1.87711c-3.06787,0 -5.55486,-0.84041 -5.55486,-1.87711c0,-1.0367 2.487,-1.87711 5.55486,-1.87711c3.06787,0 5.55486,0.84041 5.55486,1.87711z" fill="url(#color-4)"/><path d="M256.53309,188.05198c0,1.0367 -2.487,1.87711 -5.55486,1.87711c-3.06787,0 -5.55486,-0.84041 -5.55486,-1.87711c0,-1.0367 2.487,-1.87711 5.55486,-1.87711c3.06787,0 5.55486,0.84041 5.55486,1.87711z" fill="url(#color-5)"/><path d="M253.07222,185.45979c3.06787,0 5.55486,1.0325 5.55486,2.30617c0,1.27366 -2.487,2.30617 -5.55486,2.30617c-3.06787,0 -5.55486,-1.0325 -5.55486,-2.30617c0,-1.27366 2.487,-2.30617 5.55486,-2.30617z" fill="url(#color-6)"/></g></g></svg>