<svg version="1.1" xmlns="http://www.w3.org/2000/svg" xmlns:xlink="http://www.w3.org/1999/xlink" width="63.96819" height="84.84522" viewBox="0,0,63.96819,84.84522"><g transform="translate(-211.3042,-137.17917)"><g data-paper-data="{&quot;isPaintingLayer&quot;:true}" fill-rule="nonzero" stroke="#000000" stroke-width="2" stroke-linejoin="miter" stroke-miterlimit="10" stroke-dasharray="" stroke-dashoffset="0" style="mix-blend-mode: normal"><path d="M234.34272,181.6179c0,-2.11232 1.71238,-3.8247 3.8247,-3.8247c2.11232,0 3.8247,1.71238 3.8247,3.8247c0,2.11232 -1.71238,3.8247 -3.8247,3.8247c-2.11232,0 -3.8247,-1.71238 -3.8247,-3.8247z" fill="#ffe819" stroke-linecap="butt"/><path d="M235.88832,204.47892l3.67,-25.3003l7.76939,1.12701l-3.67,25.3003z" fill="#ffe819" stroke-linecap="butt"/><path d="M217.00579,186.8269c0,-2.11232 1.71238,-3.8247 3.8247,-3.8247c2.11232,0 3.8247,1.71238 3.8247,3.8247c0,2.11232 -1.71238,3.8247 -3.8247,3.8247c-2.11232,0 -3.8247,-1.71238 -3.8247,-3.8247z" fill="#ffe819" stroke-linecap="butt"/><path d="M264.36064,206.41744c3.54001,-3.456 6.39451,-2.52715 8.68557,-0.1804c2.29106,2.34675 1.27858,7.05081 -2.26144,10.50681c-3.54001,3.456 -7.00143,5.65158 -9.29249,3.30483c-0.88484,-0.90636 -2.97628,-7.9253 2.86836,-13.63123z" data-paper-data="{&quot;index&quot;:null}" fill="#ffe819" stroke-linecap="butt"/><path d="M236.159,162.62033c0,-9.17193 7.43532,-16.60724 16.60724,-16.60724c9.17193,0 16.60724,7.43532 16.60724,16.60724c0,9.17193 -7.43532,16.60724 -16.60724,16.60724c-9.17193,0 -16.60724,-7.43532 -16.60724,-16.60724z" fill="#ffe819" stroke-linecap="butt"/><path d="M221.36984,157.41859c0,0 2.10397,-2.22568 3.82583,-3.31485c1.36408,-0.86285 5.68426,-2.70082 5.68426,-2.70082" fill="none" stroke-linecap="round"/><path d="M212.67969,162.7771c-1.06249,-2.62833 0.20687,-5.62033 2.8352,-6.68282c2.62833,-1.06249 5.62033,0.20687 6.68282,2.8352c1.06249,2.62833 -0.20687,5.62033 -2.8352,6.68282c-2.62833,1.06249 -5.62033,-0.20687 -6.68282,-2.8352z" fill="#ffe819" stroke-linecap="butt"/><path d="M231.63006,162.57325l4.89612,-10.31864l-11.5487,-1.5813c0,0 13.57292,-11.79955 24.16781,-12.49414c10.59489,-0.69459 18.66148,9.6863 18.66148,9.6863z" data-paper-data="{&quot;index&quot;:null}" fill="#fff067" stroke-linecap="butt"/><path d="M231.18522,206.29474c4.24506,-2.54068 6.80628,-0.97508 8.49055,1.83907c1.68427,2.81415 -0.39167,7.15509 -4.63674,9.69576c-4.24506,2.54068 -8.12134,3.87353 -9.80561,1.05939c-0.65049,-1.08687 -1.0569,-8.3995 5.9518,-12.59421z" data-paper-data="{&quot;index&quot;:null}" fill="#ffe819" stroke-linecap="butt"/></g></g></svg>