<svg version="1.1" xmlns="http://www.w3.org/2000/svg" xmlns:xlink="http://www.w3.org/1999/xlink" width="100.96104" height="109.44887" viewBox="0,0,100.96104,109.44887"><g transform="translate(-185.05008,-122.77429)"><g data-paper-data="{&quot;isPaintingLayer&quot;:true}" fill-rule="nonzero" stroke="#000000" stroke-width="2" stroke-linejoin="miter" stroke-miterlimit="10" stroke-dasharray="" stroke-dashoffset="0" style="mix-blend-mode: normal"><path d="M253.74166,201.13406l-23.00134,-11.15853l3.42664,-7.0634l23.00134,11.15853z" fill="#1d28e8" stroke-linecap="butt"/><path d="M211.79141,207.68608c-1.27769,-1.68208 -0.94988,-4.08146 0.7322,-5.35916c1.68208,-1.27769 4.08146,-0.94988 5.35916,0.7322c1.27769,1.68208 0.94988,4.08146 -0.7322,5.35916c-1.68208,1.27769 -4.08146,0.94988 -5.35916,-0.7322z" fill="#1d28e8" stroke-linecap="butt"/><path d="M203.9503,166.2434c-1.27403,-9.08302 5.05641,-17.47905 14.13941,-18.75308c9.08302,-1.27403 17.47905,5.05641 18.75308,14.13941c1.27403,9.08302 -5.05641,17.47905 -14.13941,18.75308c-9.08302,1.27403 -17.47905,-5.05641 -18.75308,-14.13941z" fill="#1d28e8" stroke-linecap="butt"/><path d="M195.03389,171.14024c0,0 2.05112,-2.27448 3.74692,-3.4038c1.34344,-0.89465 5.61926,-2.83359 5.61926,-2.83359" fill="none" stroke-linecap="round"/><path d="M186.47203,176.70138c-1.12393,-2.60265 0.07479,-5.62364 2.67746,-6.74756c2.60265,-1.12393 5.62364,0.07479 6.74756,2.67746c1.12393,2.60265 -0.07479,5.62364 -2.67746,6.74756c-2.60265,1.12393 -5.62364,-0.07479 -6.74756,-2.67746z" fill="#1d28e8" stroke-linecap="butt"/><path d="M203.64172,165.47371l-13.73792,-18.50125l34.27113,-22.59773l7.29794,27.55631l18.74586,-9.03623z" fill="#2530ff" stroke-linecap="round"/><path d="M217.8003,206.13379c-1.27769,-1.68208 -0.94988,-4.08146 0.7322,-5.35916c1.68208,-1.27769 4.08146,-0.94988 5.35916,0.7322c1.27769,1.68208 0.94988,4.08146 -0.7322,5.35916c-1.68208,1.27769 -4.08146,0.94988 -5.35916,-0.7322z" fill="#1d28e8" stroke-linecap="butt"/><path d="M255.736,223.29822c1.60555,4.67951 -0.45695,6.86056 -3.55911,7.92493c-3.10215,1.06435 -6.91849,-1.86631 -8.52403,-6.54583c-1.60555,-4.67951 -2.10596,-8.74787 0.9962,-9.81223c1.1981,-0.41107 8.43615,0.70716 11.08694,8.43313z" data-paper-data="{&quot;index&quot;:null}" fill="#1d28e8" stroke-linecap="butt"/><path d="M271.55565,153.61703c-1.70825,-4.64299 0.30571,-6.86898 3.38366,-8.00142c3.07794,-1.13243 6.95793,1.71343 8.66617,6.35646c1.70825,4.64299 2.29815,8.69937 -0.7798,9.83181c-1.18876,0.43737 -8.44968,-0.52114 -11.27004,-8.18685z" data-paper-data="{&quot;index&quot;:null}" fill="#1d28e8" stroke-linecap="butt"/></g></g></svg>