<svg version="1.1" xmlns="http://www.w3.org/2000/svg" xmlns:xlink="http://www.w3.org/1999/xlink" width="56.06412" height="90.35411" viewBox="0,0,56.06412,90.35411"><g transform="translate(-210.33145,-139.39402)"><g data-paper-data="{&quot;isPaintingLayer&quot;:true}" fill-rule="nonzero" stroke="#000000" stroke-width="2" stroke-linejoin="miter" stroke-miterlimit="10" stroke-dasharray="" stroke-dashoffset="0" style="mix-blend-mode: normal"><path d="M255.06152,217.05233c3.91232,3.0281 3.38712,5.98362 1.37973,8.57718c-2.00739,2.59356 -6.80627,2.24129 -10.71858,-0.7868c-3.91232,-3.0281 -6.56546,-6.15266 -4.55807,-8.74622c0.77529,-1.00168 7.4376,-4.04362 13.89692,0.95584z" data-paper-data="{&quot;index&quot;:null}" fill="#2d6a2b" stroke-linecap="butt"/><path d="M232.49702,163.29325c-1.26205,-9.08469 5.07945,-17.47237 14.16412,-18.73442c9.08469,-1.26205 17.47237,5.07945 18.73442,14.16412c1.26205,9.08469 -5.07945,17.47237 -14.16412,18.73442c-9.08469,1.26205 -17.47237,-5.07945 -18.73442,-14.16412z" fill="#2d6a2b" stroke-linecap="butt"/><path d="M238.81528,143.85768c13.93676,-7.5438 25.27058,-0.4142 25.27058,-0.4142l-35.05313,21.24558c0,0 -5.20175,-12.72055 9.78254,-20.83137z" fill="#367e33" stroke-linecap="round"/><path d="M233.90785,205.44076l6.42236,-24.74524l7.59894,1.97222l-6.42236,24.74524z" fill="#2d6a2b" stroke-linecap="butt"/><path d="M222.62284,191.86312c0.22973,-2.09979 2.11819,-3.61578 4.21798,-3.38605c2.09979,0.22973 3.61578,2.11819 3.38605,4.21798c-0.22973,2.09979 -2.11819,3.61578 -4.21798,3.38605c-2.09979,-0.22973 -3.61578,-2.11819 -3.38605,-4.21798z" fill="#2d6a2b" stroke-linecap="butt"/><path d="M253.49095,188.96929c0.22973,-2.09979 2.11819,-3.61578 4.21798,-3.38605c2.09979,0.22973 3.61578,2.11819 3.38605,4.21798c-0.22973,2.09979 -2.11819,3.61578 -4.21798,3.38605c-2.09979,-0.22973 -3.61578,-2.11819 -3.38605,-4.21798z" fill="#2d6a2b" stroke-linecap="butt"/><path d="M221.11471,152.96909c0,0 2.58285,-1.64598 4.51819,-2.28281c1.53321,-0.5045 6.17101,-1.23448 6.17101,-1.23448" fill="none" stroke-linecap="round"/><path d="M211.3809,156.0488c-0.39009,-2.80799 1.57001,-5.40055 4.378,-5.79064c2.80799,-0.39009 5.40055,1.57001 5.79064,4.378c0.39009,2.80799 -1.57001,5.40055 -4.378,5.79064c-2.80799,0.39009 -5.40055,-1.57001 -5.79064,-4.378z" fill="#2d6a2b" stroke-linecap="butt"/><path d="M228.99698,220.55242c1.99268,4.52823 0.12053,6.87472 -2.88133,8.19571c-3.00186,1.32099 -7.05073,-1.279 -9.04341,-5.80722c-1.99268,-4.52823 -2.83282,-8.54024 0.16904,-9.86122c1.15937,-0.51019 8.46573,-0.00347 11.75569,7.47274z" data-paper-data="{&quot;index&quot;:null}" fill="#2d6a2b" stroke-linecap="butt"/></g></g></svg>