<svg version="1.1" xmlns="http://www.w3.org/2000/svg" xmlns:xlink="http://www.w3.org/1999/xlink" width="95.34002" height="113.62713" viewBox="0,0,95.34002,113.62713"><g transform="translate(-196.7323,-113.4624)"><g data-paper-data="{&quot;isPaintingLayer&quot;:true}" fill-rule="nonzero" stroke="#000000" stroke-width="2" stroke-linejoin="miter" stroke-miterlimit="10" stroke-dasharray="" stroke-dashoffset="0" style="mix-blend-mode: normal"><path d="M215.1414,160.91183c2.73031,-8.75612 12.0419,-13.64101 20.79802,-10.9107c8.75612,2.73031 13.64101,12.0419 10.9107,20.79802c-2.73031,8.75612 -12.0419,13.64101 -20.79802,10.9107c-8.75612,-2.73031 -13.64101,-12.0419 -10.9107,-20.79802z" fill="#ff6b00" stroke-linecap="butt"/><path d="M235.68739,210.06656l-10.78971,-23.17662l7.11724,-3.31338l10.78971,23.17662z" fill="#ff6b00" stroke-linecap="butt"/><path d="M215.51941,197.26722c0,-2.11232 1.71238,-3.8247 3.8247,-3.8247c2.11232,0 3.8247,1.71238 3.8247,3.8247c0,2.11232 -1.71238,3.8247 -3.8247,3.8247c-2.11232,0 -3.8247,-1.71238 -3.8247,-3.8247z" fill="#ff6b00" stroke-linecap="butt"/><path d="M228.66912,215.01803c4.11347,0 7.4481,2.47844 7.4481,5.53575c0,3.05731 -3.33463,5.53575 -7.4481,5.53575c-4.11347,0 -7.4481,-2.47844 -7.4481,-5.53575c0,-3.05731 3.33463,-5.53575 7.4481,-5.53575z" data-paper-data="{&quot;index&quot;:null}" fill="#ff6b00" stroke-linecap="butt"/><path d="M213.58167,151.88038c0,0 2.49964,-1.7698 4.40167,-2.5001c1.50682,-0.57856 6.10357,-1.53349 6.10357,-1.53349" fill="none" stroke-linecap="round"/><path d="M204.00936,155.4304c-0.52635,-2.78567 1.30518,-5.47059 4.09085,-5.99694c2.78567,-0.52635 5.47059,1.30518 5.99694,4.09085c0.52635,2.78567 -1.30518,5.47059 -4.09085,5.99694c-2.78567,0.52635 -5.47059,-1.30518 -5.99694,-4.09085z" fill="#ff6b00" stroke-linecap="butt"/><path d="M281.28423,192.50419c3.67107,-3.31645 6.48751,-2.27784 8.68606,0.15579c2.19854,2.43364 1.00482,7.09499 -2.66626,10.41145c-3.67107,3.31645 -7.21485,5.37647 -9.41339,2.94283c-0.84911,-0.9399 -2.66742,-8.03452 3.39361,-13.51006z" data-paper-data="{&quot;index&quot;:null}" fill="#ff6b00" stroke-linecap="butt"/><path d="M209.78843,162.75774l7.66329,-10.37253l-19.05335,-28.35301l46.47087,-9.30067l-5.98196,33.09256l11.09838,6.51259z" data-paper-data="{&quot;index&quot;:null}" fill="#ffa340" stroke-linecap="butt"/><path d="M223.01343,198.48233c0,-2.11232 1.71238,-3.8247 3.8247,-3.8247c2.11232,0 3.8247,1.71238 3.8247,3.8247c0,2.11232 -1.71238,3.8247 -3.8247,3.8247c-2.11232,0 -3.8247,-1.71238 -3.8247,-3.8247z" fill="#ff6b00" stroke-linecap="butt"/></g></g></svg>