<svg version="1.1" xmlns="http://www.w3.org/2000/svg" xmlns:xlink="http://www.w3.org/1999/xlink" width="83.80752" height="117.4178" viewBox="0,0,83.80752,117.4178"><defs><radialGradient cx="251.96793" cy="197.95858" r="18.31944" gradientUnits="userSpaceOnUse" id="color-1"><stop offset="0" stop-color="#ffaa40"/><stop offset="1" stop-color="#ffaa40" stop-opacity="0"/></radialGradient><radialGradient cx="251.96793" cy="197.95858" r="18.31944" gradientUnits="userSpaceOnUse" id="color-2"><stop offset="0" stop-color="#ff0000"/><stop offset="1" stop-color="#ffffff"/></radialGradient></defs><g transform="translate(-179.94841,-109.67171)"><g data-paper-data="{&quot;isPaintingLayer&quot;:true}" fill-rule="nonzero" stroke-linejoin="miter" stroke-miterlimit="10" stroke-dasharray="" stroke-dashoffset="0" style="mix-blend-mode: normal"><path d="M249.81152,190.8023c0,-2.11232 1.71238,-3.8247 3.8247,-3.8247c2.11232,0 3.8247,1.71238 3.8247,3.8247c0,2.11232 -1.71238,3.8247 -3.8247,3.8247c-2.11232,0 -3.8247,-1.71238 -3.8247,-3.8247z" fill="#ff6b00" stroke="#000000" stroke-width="2" stroke-linecap="butt"/><path d="M208.70563,164.19025c0,-9.17193 7.43532,-16.60724 16.60724,-16.60724c9.17193,0 16.60724,7.43532 16.60724,16.60724c0,9.17193 -7.43532,16.60724 -16.60724,16.60724c-9.17193,0 -16.60724,-7.43532 -16.60724,-16.60724z" fill="#ff6b00" stroke="#000000" stroke-width="2" stroke-linecap="butt"/><path d="M223.44251,209.57134l-2.13149,-25.47608l7.82337,-0.65455l2.13149,25.47608z" fill="#ff6b00" stroke="#000000" stroke-width="2" stroke-linecap="butt"/><path d="M246.2509,197.6151c0,-2.11232 1.71238,-3.8247 3.8247,-3.8247c2.11232,0 3.8247,1.71238 3.8247,3.8247c0,2.11232 -1.71238,3.8247 -3.8247,3.8247c-2.11232,0 -3.8247,-1.71238 -3.8247,-3.8247z" fill="#ff6b00" stroke="#000000" stroke-width="2" stroke-linecap="butt"/><path d="M222.81413,215.01801c4.11347,0 7.4481,2.47844 7.4481,5.53575c0,3.05731 -3.33463,5.53575 -7.4481,5.53575c-4.11347,0 -7.4481,-2.47844 -7.4481,-5.53575c0,-3.05731 3.33463,-5.53575 7.4481,-5.53575z" data-paper-data="{&quot;index&quot;:null}" fill="#ff6b00" stroke="#000000" stroke-width="2" stroke-linecap="butt"/><path d="M199.76789,162.08757c0,0 1.85948,-2.43366 3.45789,-3.69705c1.26628,-1.00088 5.37038,-3.28089 5.37038,-3.28089" fill="none" stroke="#000000" stroke-width="2" stroke-linecap="round"/><path d="M191.6863,168.32614c-1.33173,-2.5027 -0.38248,-5.61111 2.12022,-6.94284c2.5027,-1.33173 5.61111,-0.38248 6.94284,2.12022c1.33173,2.5027 0.38248,5.61111 -2.12022,6.94284c-2.5027,1.33173 -5.61111,0.38248 -6.94284,-2.12022z" fill="#ff6b00" stroke="#000000" stroke-width="2" stroke-linecap="butt"/><path d="M254.56185,211.5285c4.52935,-1.99011 6.87479,-0.11664 8.19408,2.88597c1.31929,3.00261 -1.28298,7.05 -5.81234,9.04013c-4.52935,1.99011 -8.54183,2.82799 -9.86112,-0.17462c-0.50953,-1.15965 0.00132,-8.46573 7.47939,-11.75146z" data-paper-data="{&quot;index&quot;:null}" fill="#ff6b00" stroke="#000000" stroke-width="2" stroke-linecap="butt"/><path d="M204.14483,167.54595l4.22817,-12.18351l-26.62972,-21.39582l41.5955,-22.71252l4.14025,33.37304l12.53391,2.91357z" data-paper-data="{&quot;index&quot;:null}" fill="#ffa340" stroke="#000000" stroke-width="2" stroke-linecap="butt"/><path d="M259.23028,197.95858c0,6.11759 -3.25146,11.07687 -7.26235,11.07687c-4.01089,0 -7.26235,-4.95928 -7.26235,-11.07687c0,-6.11759 3.25146,-11.07687 7.26235,-11.07687c4.01089,0 7.26235,4.95928 7.26235,11.07687z" fill="url(#color-1)" stroke="url(#color-2)" stroke-width="2.5" stroke-linecap="butt"/></g></g></svg>