<svg version="1.1" xmlns="http://www.w3.org/2000/svg" xmlns:xlink="http://www.w3.org/1999/xlink" width="123.20768" height="64.91533" viewBox="0,0,123.20768,64.91533"><g transform="translate(-171.87353,-161.02616)"><g data-paper-data="{&quot;isPaintingLayer&quot;:true}" fill-rule="nonzero" stroke="#000000" stroke-width="2" stroke-linejoin="miter" stroke-miterlimit="10" stroke-dasharray="" stroke-dashoffset="0" style="mix-blend-mode: normal"><path d="M243.14531,213.68112l-20.65423,-15.06574l4.62648,-6.34264l20.65423,15.06574z" fill="#2d6a2b" stroke-linecap="butt"/><path d="M209.70322,221.11678c0,-2.11232 1.71238,-3.8247 3.8247,-3.8247c2.11232,0 3.8247,1.71238 3.8247,3.8247c0,2.11232 -1.71238,3.8247 -3.8247,3.8247c-2.11232,0 -3.8247,-1.71238 -3.8247,-3.8247z" fill="#2d6a2b" stroke-linecap="butt"/><path d="M234.11912,187.31967c-0.20531,-2.10232 1.33252,-3.97303 3.43484,-4.17834c2.10232,-0.20531 3.97303,1.33252 4.17834,3.43484c0.20531,2.10232 -1.33252,3.97303 -3.43484,4.17834c-2.10232,0.20531 -3.97303,-1.33252 -4.17834,-3.43484z" fill="#2d6a2b" stroke-linecap="butt"/><path d="M182.96594,176.75906c0,0 2.59326,-1.62954 4.5326,-2.25407c1.53638,-0.49475 6.17872,-1.19526 6.17872,-1.19526" data-paper-data="{&quot;index&quot;:null}" fill="none" stroke-linecap="round"/><path d="M172.91856,179.81587c-0.37225,-2.81042 1.60428,-5.39047 4.41468,-5.76273c2.81042,-0.37225 5.39047,1.60428 5.76273,4.41468c0.37225,2.81042 -1.60428,5.39047 -4.41468,5.76273c-2.81042,0.37225 -5.39047,-1.60428 -5.76273,-4.41468z" data-paper-data="{&quot;index&quot;:null}" fill="#2d6a2b" stroke-linecap="butt"/><path d="M193.97071,184.80169c-1.20434,-9.09252 5.1903,-17.43976 14.28281,-18.64409c9.09252,-1.20434 17.43976,5.1903 18.64409,14.28281c1.20434,9.09252 -5.1903,17.43976 -14.28281,18.64409c-9.09252,1.20434 -17.43976,-5.1903 -18.64409,-14.28281z" fill="#2d6a2b" stroke-linecap="butt"/><path d="M200.41225,165.40663c13.98439,-7.45514 25.27271,-0.25371 25.27271,-0.25371l-35.18734,21.02254c0,0 -5.12087,-12.75332 9.91463,-20.76883z" fill="#367e33" stroke-linecap="round"/><path d="M279.6534,201.74435c-2.95607,-3.96702 -1.6569,-6.67316 0.97292,-8.6328c2.62981,-1.95964 7.15809,-0.33234 10.11416,3.63469c2.95607,3.96702 4.67325,7.68902 2.04344,9.64866c-1.01568,0.75685 -8.24998,1.89909 -13.13052,-4.65057z" data-paper-data="{&quot;index&quot;:null}" fill="#2d6a2b" stroke-linecap="butt"/><path d="M243.54396,218.71129c-0.69858,4.89771 -3.52743,5.902 -6.77424,5.4389c-3.24679,-0.4631 -5.31255,-4.8089 -4.61396,-9.70663c0.69858,-4.89771 2.10341,-8.74849 5.3502,-8.28539c1.25397,0.17886 7.19136,4.46688 6.03798,12.55313z" data-paper-data="{&quot;index&quot;:null}" fill="#2d6a2b" stroke-linecap="butt"/></g></g></svg>