<svg version="1.1" xmlns="http://www.w3.org/2000/svg" xmlns:xlink="http://www.w3.org/1999/xlink" width="86" height="131.1083" viewBox="0,0,86,131.1083"><defs><linearGradient x1="241.34367" y1="72.52953" x2="241.34367" y2="196.02953" gradientUnits="userSpaceOnUse" id="color-1"><stop offset="0" stop-color="#5c6cff"/><stop offset="1" stop-color="#4576c0"/></linearGradient><linearGradient x1="240.79437" y1="69.0547" x2="240.79437" y2="77.29623" gradientUnits="userSpaceOnUse" id="color-2"><stop offset="0" stop-color="#ffffff"/><stop offset="1" stop-color="#5c6cff"/></linearGradient><linearGradient x1="239.20969" y1="185.52953" x2="239.20969" y2="199.52953" gradientUnits="userSpaceOnUse" id="color-3"><stop offset="0" stop-color="#ffffff"/><stop offset="1" stop-color="#5c6cff"/></linearGradient></defs><g transform="translate(-195.95969,-69.0547)"><g data-paper-data="{&quot;isPaintingLayer&quot;:true}" fill-rule="nonzero" stroke="none" stroke-width="0" stroke-linecap="butt" stroke-linejoin="miter" stroke-miterlimit="10" stroke-dasharray="" stroke-dashoffset="0" style="mix-blend-mode: normal"><path d="M217.95969,196.02953c0,0 0.56572,-47.76905 -0.69211,-69.96077c-1.02943,-18.16205 -6.30789,-53.53923 -6.30789,-53.53923h59.5c0,0 2.22813,38.53623 0.77712,58.44732c-1.5433,21.17744 -9.77712,65.05268 -9.77712,65.05268z" fill="url(#color-1)"/><path d="M210.74942,73.27269c-2.91753,-0.7436 0.47334,-3.02363 16.76387,-3.823c16.29059,-0.79937 39.75023,-0.25645 42.66776,0.48714c2.91748,0.7436 3.47092,6.45434 -12.81962,7.25371c-16.29054,0.79936 -43.69448,-3.17426 -46.61202,-3.91786z" data-paper-data="{&quot;index&quot;:null}" fill="url(#color-2)"/><path d="M195.95969,190.52953l14.79296,-3.79069l1.20704,-7.70931l27.5,6.5l32.5,-7.5l-4.58226,11.07314l14.58226,3.42686l-22.50494,4.47071l6.52271,3.16275l-25.51777,-0.63346l-20.80243,0.0231c0,0 4.33162,-3.35428 0.81116,-4.06628c-7.75383,-1.56819 -24.50873,-4.95682 -24.50873,-4.95682z" fill="url(#color-3)"/></g></g></svg>