<svg version="1.1" xmlns="http://www.w3.org/2000/svg" xmlns:xlink="http://www.w3.org/1999/xlink" width="59.06929" height="86.47154" viewBox="0,0,59.06929,86.47154"><g transform="translate(-209.24318,-139.59701)"><g data-paper-data="{&quot;isPaintingLayer&quot;:true}" fill-rule="nonzero" stroke="#000000" stroke-width="2" stroke-linejoin="miter" stroke-miterlimit="10" stroke-dasharray="" stroke-dashoffset="0" style="mix-blend-mode: normal"><path d="M248.81603,202.9755c0.34518,-2.08393 2.31436,-3.49347 4.39829,-3.14829c2.08393,0.34518 3.49347,2.31436 3.14829,4.39829c-0.34518,2.08393 -2.31436,3.49347 -4.39829,3.14829c-2.08393,-0.34518 -3.49347,-2.31436 -3.14829,-4.39829z" fill="#ffe819" stroke-linecap="butt"/><path d="M234.09799,165.03817c0,-9.17193 7.43532,-16.60724 16.60724,-16.60724c9.17193,0 16.60724,7.43532 16.60724,16.60724c0,9.17193 -7.43532,16.60724 -16.60724,16.60724c-9.17193,0 -16.60724,-7.43532 -16.60724,-16.60724z" fill="#ffe819" stroke-linecap="butt"/><path d="M235.62301,206.94384l4.17762,-25.22144l7.74517,1.28289l-4.17762,25.22144z" fill="#ffe819" stroke-linecap="butt"/><path d="M222.39288,200.08928c0.34518,-2.08393 2.31436,-3.49347 4.39829,-3.14829c2.08393,0.34518 3.49347,2.31436 3.14829,4.39829c-0.34518,2.08393 -2.31436,3.49347 -4.39829,3.14829c-2.08393,-0.34518 -3.49347,-2.31436 -3.14829,-4.39829z" fill="#ffe819" stroke-linecap="butt"/><path d="M224.67884,213.59445c4.11347,0 7.4481,2.47844 7.4481,5.53575c0,3.05731 -3.33463,5.53575 -7.4481,5.53575c-4.11347,0 -7.4481,-2.47844 -7.4481,-5.53575c0,-3.05731 3.33463,-5.53575 7.4481,-5.53575z" data-paper-data="{&quot;index&quot;:null}" fill="#ffe819" stroke-linecap="butt"/><path d="M219.30881,159.83643c0,0 2.10397,-2.22568 3.82583,-3.31485c1.36408,-0.86285 5.68426,-2.70082 5.68426,-2.70082" fill="none" stroke-linecap="round"/><path d="M210.61868,165.19494c-1.06249,-2.62833 0.20687,-5.62033 2.8352,-6.68282c2.62833,-1.06249 5.62033,0.20687 6.68282,2.8352c1.06249,2.62833 -0.20687,5.62033 -2.8352,6.68282c-2.62833,1.06249 -5.62033,-0.20687 -6.68282,-2.8352z" fill="#ffe819" stroke-linecap="butt"/><path d="M255.96808,213.19185c4.94728,0 6.34095,2.65869 6.34095,5.93835c0,3.27966 -4.01056,5.93835 -8.95785,5.93835c-4.94728,0 -8.95785,-0.84699 -8.95785,-4.12665c0,-1.26666 3.40667,-7.75005 11.57475,-7.75005z" data-paper-data="{&quot;index&quot;:null}" fill="#ffe819" stroke-linecap="butt"/><path d="M229.56904,164.99109l4.89612,-10.31864l-11.5487,-1.5813c0,0 13.57292,-11.79955 24.16781,-12.49414c10.59489,-0.69459 18.66148,9.6863 18.66148,9.6863z" data-paper-data="{&quot;index&quot;:null}" fill="#fff067" stroke-linecap="butt"/></g></g></svg>