<svg version="1.1" xmlns="http://www.w3.org/2000/svg" xmlns:xlink="http://www.w3.org/1999/xlink" width="162.5644" height="104.84721" viewBox="0,0,162.5644,104.84721"><defs><radialGradient cx="245.02632" cy="142.28111" r="18.84183" gradientUnits="userSpaceOnUse" id="color-1"><stop offset="0" stop-color="#ffffff"/><stop offset="1" stop-color="#0debff"/></radialGradient></defs><g transform="translate(-212.59799,-122.64347)"><g data-paper-data="{&quot;isPaintingLayer&quot;:true}" fill-rule="nonzero" stroke-linejoin="miter" stroke-miterlimit="10" stroke-dasharray="" stroke-dashoffset="0" style="mix-blend-mode: normal"><g fill="#76f4ff" stroke="#53acb4" stroke-width="1" stroke-linecap="butt"><path d="M374.83109,123.07499l-59.41262,52.5617l-33.14715,14.49064l24.09951,-26.9801z" data-paper-data="{&quot;index&quot;:null}"/><path d="M265.94705,194.79017l21.69659,-12.2491l3.29565,4.54935l-18.73051,16.34351z"/><path d="M307.89198,196.00314l-16.09563,-2.89102l-9.92806,-13.6209l2.63998,-15.7672l8.68782,18.31575z"/></g><path d="M265.32927,198.72563c0.13938,-2.10772 1.96101,-3.70338 4.06873,-3.564c2.10772,0.13938 3.70338,1.96101 3.564,4.06873c-0.13938,2.10772 -1.96101,3.70338 -4.06873,3.564c-2.10772,-0.13938 -3.70338,-1.96101 -3.564,-4.06873z" fill="#0debff" stroke="#000000" stroke-width="2" stroke-linecap="butt"/><path d="M234.3775,205.04462l9.46802,-23.74721l7.29245,2.9075l-9.46802,23.74721z" data-paper-data="{&quot;index&quot;:null}" fill="#0debff" stroke="#000000" stroke-width="2" stroke-linecap="butt"/><path d="M213.59799,184.58896c0,-2.11232 1.71238,-3.8247 3.8247,-3.8247c2.11232,0 3.8247,1.71238 3.8247,3.8247c0,2.11232 -1.71238,3.8247 -3.8247,3.8247c-2.11232,0 -3.8247,-1.71238 -3.8247,-3.8247z" fill="#0debff" stroke="#000000" stroke-width="2" stroke-linecap="butt"/><path d="M237.17907,214.7053c4.94419,0.17485 6.24302,2.88113 6.12712,6.15874c-0.11591,3.27761 -4.21793,5.79291 -9.16214,5.61806c-4.94419,-0.17485 -8.92232,-1.16304 -8.8064,-4.44065c0.04477,-1.26587 3.67844,-7.62481 11.84143,-7.33613z" data-paper-data="{&quot;index&quot;:null}" fill="#0debff" stroke="#000000" stroke-width="2" stroke-linecap="butt"/><path d="M245.13045,157.57689c3.96081,-8.27262 13.87796,-11.76803 22.15058,-7.80723c8.27262,3.96081 11.76803,13.87796 7.80723,22.15058c-3.96081,8.27262 -13.87796,11.76803 -22.15058,7.80723c-8.27262,-3.96081 -11.76803,-13.87796 -7.80723,-22.15058z" fill="#0debff" stroke="#000000" stroke-width="2" stroke-linecap="butt"/><path d="M234.50327,155.89672c0,0 2.49209,-1.7804 4.39101,-2.51877c1.50435,-0.58495 6.09701,-1.55941 6.09701,-1.55941" fill="none" stroke="#000000" stroke-width="2" stroke-linecap="round"/><path d="M224.94611,159.48735c-0.53818,-2.78341 1.28193,-5.47609 4.06534,-6.01427c2.78341,-0.53818 5.47609,1.28193 6.01427,4.06534c0.53818,2.78341 -1.28193,5.47609 -4.06534,6.01427c-2.78341,0.53818 -5.47609,-1.28193 -6.01427,-4.06534z" fill="#0debff" stroke="#000000" stroke-width="2" stroke-linecap="butt"/><path d="M241.01923,161.63252l0.90622,-20.78712l29.71843,-4.23864l6.68147,19.70491z" fill="url(#color-1)" stroke="#000000" stroke-width="2" stroke-linecap="butt"/><path d="M230.24086,213.85973c-4.83003,-1.07069 -5.61529,-3.96797 -4.90551,-7.16992c0.70978,-3.20193 5.20069,-4.92966 10.03073,-3.85897c4.83003,1.07069 8.56225,2.76556 7.85247,5.96749c-0.27413,1.23665 -5.00319,6.82911 -12.97769,5.06139z" data-paper-data="{&quot;index&quot;:null}" fill="#0debff" stroke="#000000" stroke-width="2" stroke-linecap="butt"/></g></g></svg>