<svg version="1.1" xmlns="http://www.w3.org/2000/svg" xmlns:xlink="http://www.w3.org/1999/xlink" width="167.49424" height="110.51166" viewBox="0,0,167.49424,110.51166"><defs><radialGradient cx="245.52631" cy="143.03111" r="18.84183" gradientUnits="userSpaceOnUse" id="color-1"><stop offset="0" stop-color="#ffffff"/><stop offset="1" stop-color="#0debff"/></radialGradient></defs><g transform="translate(-204.93699,-115.12628)"><g data-paper-data="{&quot;isPaintingLayer&quot;:true}" fill-rule="nonzero" stroke-linejoin="miter" stroke-miterlimit="10" stroke-dasharray="" stroke-dashoffset="0" style="mix-blend-mode: normal"><g fill="#76f4ff" stroke="#53acb4" stroke-width="1" stroke-linecap="butt"><path d="M372.07594,115.54019l-55.81499,56.36735l-32.11878,16.6462l22.26678,-28.51145z" data-paper-data="{&quot;index&quot;:null}"/><path d="M268.16113,194.28353l20.84108,-13.654l3.58865,4.32198l-17.61131,17.54378z"/><path d="M310.0947,192.72622l-16.25131,-1.82269l-10.80517,-12.93614l1.59387,-15.90703l9.87741,17.70259z"/></g><path d="M267.80437,198.25118c0,-2.11232 1.71238,-3.8247 3.8247,-3.8247c2.11232,0 3.8247,1.71238 3.8247,3.8247c0,2.11232 -1.71238,3.8247 -3.8247,3.8247c-2.11232,0 -3.8247,-1.71238 -3.8247,-3.8247z" fill="#0debff" stroke="#000000" stroke-width="2" stroke-linecap="butt"/><path d="M234.3775,205.04462l9.46802,-23.74721l7.29245,2.90749l-9.46802,23.74721z" data-paper-data="{&quot;index&quot;:null}" fill="#0debff" stroke="#000000" stroke-width="2" stroke-linecap="butt"/><path d="M211.84798,184.08896c0,-2.11232 1.71238,-3.8247 3.8247,-3.8247c2.11232,0 3.8247,1.71238 3.8247,3.8247c0,2.11232 -1.71238,3.8247 -3.8247,3.8247c-2.11232,0 -3.8247,-1.71238 -3.8247,-3.8247z" fill="#0debff" stroke="#000000" stroke-width="2" stroke-linecap="butt"/><path d="M263.9024,210.0543c3.64102,-3.34941 6.46669,-2.33626 8.6871,0.07745c2.2204,2.41371 1.06876,7.08565 -2.57226,10.43507c-3.64102,3.34941 -7.16608,5.44131 -9.38647,3.02759c-0.85756,-0.93222 -2.73977,-8.01014 3.27165,-13.54011z" data-paper-data="{&quot;index&quot;:null}" fill="#0debff" stroke="#000000" stroke-width="2" stroke-linecap="butt"/><path d="M245.63044,158.32689c3.96081,-8.27262 13.87796,-11.76803 22.15058,-7.80723c8.27262,3.96081 11.76803,13.87796 7.80723,22.15058c-3.96081,8.27262 -13.87796,11.76803 -22.15058,7.80723c-8.27262,-3.96081 -11.76803,-13.87796 -7.80723,-22.15058z" fill="#0debff" stroke="#000000" stroke-width="2" stroke-linecap="butt"/><path d="M235.00326,156.64672c0,0 2.49209,-1.7804 4.39101,-2.51877c1.50435,-0.58495 6.09701,-1.55941 6.09701,-1.55941" fill="none" stroke="#000000" stroke-width="2" stroke-linecap="round"/><path d="M225.4461,160.23735c-0.53818,-2.78341 1.28193,-5.47609 4.06534,-6.01427c2.78341,-0.53818 5.47609,1.28193 6.01427,4.06534c0.53818,2.78341 -1.28193,5.47609 -4.06534,6.01427c-2.78341,0.53818 -5.47609,-1.28193 -6.01427,-4.06534z" fill="#0debff" stroke="#000000" stroke-width="2" stroke-linecap="butt"/><path d="M241.51922,162.38252l0.90622,-20.78712l29.71843,-4.23864l6.68147,19.70491z" fill="url(#color-1)" stroke="#000000" stroke-width="2" stroke-linecap="butt"/><path d="M216.71524,219.3696c-2.24329,4.40945 -5.24488,4.44607 -8.16801,2.95894c-2.92312,-1.48712 -3.47424,-6.26724 -1.23095,-10.6767c2.24329,-4.40945 4.81674,-7.59997 7.73986,-6.11284c1.12897,0.57435 5.36281,6.55049 1.65909,13.8306z" data-paper-data="{&quot;index&quot;:null}" fill="#0debff" stroke="#000000" stroke-width="2" stroke-linecap="butt"/></g></g></svg>