<svg version="1.1" xmlns="http://www.w3.org/2000/svg" xmlns:xlink="http://www.w3.org/1999/xlink" width="117.78941" height="46.17583" viewBox="0,0,117.78941,46.17583"><g transform="translate(-196.38334,-187.57015)"><g data-paper-data="{&quot;isPaintingLayer&quot;:true}" fill-rule="nonzero" stroke="#000000" stroke-width="2" stroke-linejoin="miter" stroke-miterlimit="10" stroke-dasharray="" stroke-dashoffset="0" style="mix-blend-mode: normal"><path d="M261.30364,212.66719c2.11232,0 3.8247,1.71238 3.8247,3.8247c0,2.11232 -1.71238,3.8247 -3.8247,3.8247c-2.11232,0 -3.8247,-1.71238 -3.8247,-3.8247c0,-2.11232 1.71238,-3.8247 3.8247,-3.8247z" fill="#181818" stroke-linecap="butt"/><path d="M216.80805,229.9933c-4.92799,-0.43648 -6.08164,-3.20775 -5.7923,-6.47463c0.28934,-3.26687 4.51883,-5.56136 9.44683,-5.12487c4.92799,0.43648 8.8482,1.63401 8.55884,4.90087c-0.11174,1.26172 -4.07714,7.41928 -12.21337,6.69864z" data-paper-data="{&quot;index&quot;:null}" fill="#181818" stroke-linecap="butt"/><path d="M286.7779,216.00844l4.59467,-2.52908l7.9705,14.48029l-4.59468,2.52909z" fill="#6e3737" stroke-linecap="butt"/><path d="M233.7363,218.05174l25.55582,-0.68824l0.21135,7.84786l-25.55583,0.68823z" fill="#181818" stroke-linecap="butt"/><path d="M259.05522,213.68771l3.2029,14.06616l-5.00954,-2.60986l-3.10269,5.02267l-5.30335,-16.24437l6.02464,2.93546z" fill="#0e0e0e" stroke-linecap="round"/><path d="M308.97078,212.69632c2.10085,-0.21982 3.98214,1.30506 4.20196,3.40591c0.21982,2.10085 -1.30506,3.98214 -3.40591,4.20196c-2.10085,0.21982 -3.98214,-1.30506 -4.20196,-3.40591c-0.21982,-2.10085 1.30506,-3.98214 3.40591,-4.20196z" fill="#181818" stroke-linecap="butt"/><path d="M286.76085,195.50347c9.05347,1.46936 15.20159,9.99979 13.73223,19.05325c-1.46936,9.05347 -9.9998,15.2016 -19.05326,13.73224c-9.05347,-1.46936 -15.20159,-9.9998 -13.73224,-19.05326c1.46936,-9.05347 9.9998,-15.20159 19.05326,-13.73224z" fill="#181818" stroke-linecap="butt"/><path d="M204.83961,232.48927c-4.83471,1.04939 -6.76061,-1.25318 -7.45627,-4.4582c-0.69566,-3.20503 2.65969,-6.65392 7.4944,-7.70331c4.83471,-1.04939 8.93366,-1.07239 9.62934,2.13265c0.26868,1.23784 -1.68525,8.29631 -9.66746,10.02888z" data-paper-data="{&quot;index&quot;:null}" fill="#181818" stroke-linecap="butt"/><g><path d="M279.37997,196.12945l9.93734,-7.50719c0,0 6.35568,-1.229 13.49596,8.24917c7.19452,9.5502 4.94559,16.16214 4.94559,16.16214l-7.89433,4.98666c0,0 -5.08213,-7.23095 -8.09087,-11.21364c-3.1334,-4.14772 -12.39371,-10.67714 -12.39371,-10.67714z" fill="#343434" stroke-linecap="butt"/><path d="M271.24801,191.28288c0,0 14.99136,8.18265 20.227,15.11314c5.36898,7.10697 14.11486,21.2763 14.11486,21.2763" fill="none" stroke-linecap="round"/></g><path d="M279.17591,200.37753c0,0 2.89411,-1.00224 4.92437,-1.17298c1.6084,-0.13526 6.28907,0.23001 6.28907,0.23001" fill="#181818" stroke-linecap="round"/><path d="M268.62729,201.19338c0.27164,-2.82191 2.77943,-4.88936 5.60135,-4.61772c2.82191,0.27164 4.88936,2.77943 4.61772,5.60135c-0.27164,2.82191 -2.77943,4.88936 -5.60135,4.61772c-2.82191,-0.27164 -4.88937,-2.77943 -4.61772,-5.60135z" fill="#181818" stroke-linecap="butt"/></g></g></svg>