<svg version="1.1" xmlns="http://www.w3.org/2000/svg" xmlns:xlink="http://www.w3.org/1999/xlink" width="255.29957" height="138.86323" viewBox="0,0,255.29957,138.86323"><defs><radialGradient cx="244.5464" cy="117.23896" r="18.84183" gradientUnits="userSpaceOnUse" id="color-1"><stop offset="0" stop-color="#ffffff"/><stop offset="1" stop-color="#0debff"/></radialGradient><linearGradient x1="331.12303" y1="86.62546" x2="331.12303" y2="216.22357" gradientUnits="userSpaceOnUse" id="color-2"><stop offset="0" stop-color="#ffffff"/><stop offset="1" stop-color="#76f4ff"/></linearGradient></defs><g transform="translate(-162.99887,-86.12546)"><g data-paper-data="{&quot;isPaintingLayer&quot;:true}" fill-rule="nonzero" stroke-linejoin="miter" stroke-miterlimit="10" stroke-dasharray="" stroke-dashoffset="0" style="mix-blend-mode: normal"><path d="M206.55611,171.54743l18.1565,-17.99764l5.52684,5.57561l-18.1565,17.99764z" data-paper-data="{&quot;index&quot;:null}" fill="#0debff" stroke="#000000" stroke-width="2" stroke-linecap="butt"/><path d="M239.43295,202.4247c4.7845,1.25859 5.45596,4.18436 4.62161,7.35611c-0.83435,3.17177 -5.38934,4.72268 -10.17385,3.46409c-4.7845,-1.25859 -8.44765,-3.09799 -7.61331,-6.26976c0.32224,-1.22498 5.2662,-6.62841 13.16555,-4.55044z" data-paper-data="{&quot;index&quot;:null}" fill="#0debff" stroke="#000000" stroke-width="2" stroke-linecap="butt"/><path d="M241.70204,132.26831c5.48024,-7.35468 15.88499,-8.87421 23.23966,-3.39397c7.35468,5.48024 8.87421,15.88499 3.39397,23.23966c-5.48024,7.35468 -15.88499,8.87421 -23.23966,3.39397c-7.35468,-5.48024 -8.87421,-15.88499 -3.39397,-23.23966z" fill="#0debff" stroke="#000000" stroke-width="2" stroke-linecap="butt"/><path d="M231.59757,128.57242c0,0 2.78838,-1.26698 4.79397,-1.62572c1.58885,-0.2842 6.28321,-0.35569 6.28321,-0.35569" fill="none" stroke="#000000" stroke-width="2" stroke-linecap="round"/><path d="M221.52772,130.25474c0.00809,-2.83496 2.31282,-5.12658 5.14777,-5.11849c2.83496,0.00809 5.12658,2.31282 5.11849,5.14777c-0.00809,2.83496 -2.31282,5.12658 -5.14777,5.11849c-2.83496,-0.00809 -5.12658,-2.31282 -5.11849,-5.14777z" fill="#0debff" stroke="#000000" stroke-width="2" stroke-linecap="butt"/><path d="M236.88656,135.456l4.89362,-20.2232l29.97833,1.56562l2.76042,20.62294z" fill="url(#color-1)" stroke="#000000" stroke-width="2" stroke-linecap="butt"/><path d="M295.13976,201.61557c1.77606,1.14346 2.28889,3.5102 1.14542,5.28628c-1.14345,1.77605 -3.5102,2.28889 -5.28628,1.14542c-1.77606,-1.14346 -2.28889,-3.5102 -1.14541,-5.28627c1.14345,-1.77605 3.5102,-2.28889 5.28627,-1.14542z" data-paper-data="{&quot;index&quot;:null}" fill="#0debff" stroke="#000000" stroke-width="2" stroke-linecap="butt"/><path d="M292.47101,206.09712c1.77606,1.14346 2.28889,3.5102 1.14542,5.28627c-1.14346,1.77606 -3.51021,2.28888 -5.28628,1.14542c-1.77606,-1.14346 -2.28889,-3.5102 -1.14541,-5.28627c1.14346,-1.77606 3.51021,-2.28888 5.28628,-1.14542z" data-paper-data="{&quot;index&quot;:null}" fill="#0debff" stroke="#000000" stroke-width="2" stroke-linecap="butt"/><path d="M170.40937,172.82372c-4.94693,0.05807 -6.37173,-2.58407 -6.41022,-5.86351c-0.03849,-3.27945 3.94059,-5.98502 8.88753,-6.0431c4.94693,-0.05807 8.96717,0.74177 9.00567,4.02121c0.01487,1.26657 -3.31546,7.78951 -11.48298,7.88538z" data-paper-data="{&quot;index&quot;:null}" fill="#0debff" stroke="#000000" stroke-width="2" stroke-linecap="butt"/><g data-paper-data="{&quot;index&quot;:null}" stroke="#53acb4" stroke-width="1" stroke-linecap="butt"><path d="M348.00704,216.22357l-29.77133,-5.81977c0,0 14.21115,-34.47997 3.45838,-51.52554c-10.75277,-17.04557 -77.24649,-65.44534 -77.24649,-65.44534c0,0 153.12539,-42.53048 173.27281,85.02054c2.78139,17.60868 -69.71337,37.7701 -69.71337,37.7701z" data-paper-data="{&quot;index&quot;:null}" fill="url(#color-2)"/><path d="M292.28571,201.73457l24.85844,0.016l0.50419,5.59496l-24.40466,5.01946z" fill="#76f4ff"/><path d="M322.16376,204.0756l5.4832,19.51614l-12.34901,-10.15264l-1.46377,-16.79144l10.23533,-12.75404z" fill="#76f4ff"/></g></g></g></svg>