<svg version="1.1" xmlns="http://www.w3.org/2000/svg" xmlns:xlink="http://www.w3.org/1999/xlink" width="148.1602" height="94.0929" viewBox="0,0,148.1602,94.0929"><g transform="translate(-219.55911,-132.58951)"><g data-paper-data="{&quot;isPaintingLayer&quot;:true}" fill-rule="nonzero" stroke-linejoin="miter" stroke-miterlimit="10" stroke-dasharray="" stroke-dashoffset="0" style="mix-blend-mode: normal"><path d="M251.67309,169.48765c0,0 2.15944,-2.1719 3.90823,-3.21732c1.38542,-0.82818 5.75056,-2.5566 5.75056,-2.5566" data-paper-data="{&quot;index&quot;:null}" fill="none" stroke="#000000" stroke-width="2" stroke-linecap="round"/><path d="M246.69933,171.35778c-0.99586,-2.65429 0.34856,-5.61331 3.00285,-6.60918c2.65429,-0.99586 5.61331,0.34856 6.60918,3.00285c0.99586,2.65429 -0.34856,5.61331 -3.00285,6.60918c-2.65429,0.99586 -5.61331,-0.34856 -6.60918,-3.00285z" data-paper-data="{&quot;index&quot;:null}" fill="#2d6a2b" stroke="#000000" stroke-width="2" stroke-linecap="butt"/><g data-paper-data="{&quot;index&quot;:null}" stroke="#61ff00" stroke-width="3" stroke-linecap="round"><path d="M366.21932,134.08951c0,0 -23.85368,25.4428 -34.91871,36.25919c-9.9218,9.69884 -28.41652,25.65277 -28.41652,25.65277" fill="none"/><path d="M343.93531,156.20461c0,0 -13.43607,8.11327 -17.67204,5.90849c-4.23593,-2.2048 -0.66091,-6.79203 -0.66091,-6.79203z" fill="#61ff00"/><path d="M322.65504,192.78386c0,0 -5.12964,1.294 -4.5206,-4.18426c0.60904,-5.47825 13.35461,-15.05431 13.35461,-15.05431z" data-paper-data="{&quot;index&quot;:null}" fill="#61ff00"/><path d="M351.80207,159.87286c0,0 -4.32774,1.06083 -3.77978,-3.56825c0.54796,-4.62908 11.34186,-12.64441 11.34186,-12.64441z" data-paper-data="{&quot;index&quot;:null}" fill="#61ff00"/></g><path d="M278.24427,189.87835c0.30024,-2.09088 2.23864,-3.54247 4.3295,-3.24222c2.09088,0.30024 3.54247,2.23864 3.24222,4.3295c-0.30024,2.09088 -2.23864,3.54247 -4.3295,3.24222c-2.09088,-0.30024 -3.54247,-2.23864 -3.24222,-4.3295z" data-paper-data="{&quot;index&quot;:null}" fill="#2d6a2b" stroke="#000000" stroke-width="2" stroke-linecap="butt"/><path d="M292.37764,157.76734c6.07286,6.87345 5.42387,17.36852 -1.4496,23.4414c-6.87345,6.07285 -17.36853,5.42388 -23.44141,-1.4496c-6.07285,-6.87343 -5.42387,-17.36852 1.4496,-23.4414c6.87343,-6.07285 17.36852,-5.42387 23.4414,1.4496z" data-paper-data="{&quot;index&quot;:null}" fill="#2d6a2b" stroke="#000000" stroke-width="2" stroke-linecap="butt"/><path d="M272.83513,151.58658c15.09364,-4.82955 24.9094,4.27746 24.9094,4.27746l-38.38395,14.37945c0,0 -2.75354,-13.46435 13.47457,-18.65692z" data-paper-data="{&quot;index&quot;:null}" fill="#367e33" stroke="#000000" stroke-width="2" stroke-linecap="round"/><path d="M248.82352,206.74793l12.41883,-22.34606l6.86218,3.81365l-12.41884,22.34605z" data-paper-data="{&quot;index&quot;:null}" fill="#2d6a2b" stroke="#000000" stroke-width="2" stroke-linecap="butt"/><path d="M275.34954,213.38271c4.93244,-0.38296 6.52773,2.15988 6.7816,5.4297c0.25387,3.26982 -3.53887,6.23098 -8.4713,6.61393c-4.93244,0.38296 -8.99653,-0.15105 -9.2504,-3.42087c-0.09805,-1.26286 2.79655,-7.9905 10.94011,-8.62276z" data-paper-data="{&quot;index&quot;:null}" fill="#2d6a2b" stroke="#000000" stroke-width="2" stroke-linecap="butt"/><path d="M228.00721,214.61091c4.11347,0 7.4481,2.47844 7.4481,5.53575c0,3.05731 -3.33463,5.53575 -7.4481,5.53575c-4.11347,0 -7.4481,-2.47844 -7.4481,-5.53575c0,-3.05731 3.33463,-5.53575 7.4481,-5.53575z" data-paper-data="{&quot;index&quot;:null}" fill="#2d6a2b" stroke="#000000" stroke-width="2" stroke-linecap="butt"/><path d="M225.92145,186.44639c0.26753,-2.09531 2.18299,-3.57703 4.2783,-3.3095c2.09531,0.26753 3.57703,2.18299 3.3095,4.2783c-0.26753,2.09531 -2.18299,3.57703 -4.2783,3.3095c-2.09531,-0.26753 -3.57703,-2.18299 -3.3095,-4.2783z" data-paper-data="{&quot;index&quot;:null}" fill="#2d6a2b" stroke="#000000" stroke-width="2" stroke-linecap="butt"/></g></g></svg>