<svg version="1.1" xmlns="http://www.w3.org/2000/svg" xmlns:xlink="http://www.w3.org/1999/xlink" width="58.91246" height="113.18874" viewBox="0,0,58.91246,113.18874"><g transform="translate(-217.04873,-131.71971)"><g data-paper-data="{&quot;isPaintingLayer&quot;:true}" fill-rule="nonzero" stroke="#000000" stroke-width="2" stroke-linejoin="miter" stroke-miterlimit="10" stroke-dasharray="" stroke-dashoffset="0" style="mix-blend-mode: normal"><path d="M245.59981,139.91098c2.66096,-4.17071 5.65193,-3.91561 8.41679,-2.15161c2.76486,1.764 2.84909,6.57506 0.18812,10.74577c-2.66096,4.17071 -5.53215,7.09619 -8.29702,5.33219c-1.06783,-0.6813 -4.70122,-7.0404 -0.30792,-13.92635z" data-paper-data="{&quot;index&quot;:null}" fill="#ffe819" stroke-linecap="butt"/><path d="M252.36748,171.03969c-2.05501,0.48876 -4.11711,-0.78096 -4.60587,-2.83593c-0.48876,-2.05501 0.78096,-4.11711 2.83593,-4.60587c2.05501,-0.48876 4.11711,0.78096 4.60587,2.83593c0.48876,2.05501 -0.78096,4.11711 -2.83593,4.60587z" fill="#ffe819" stroke-linecap="butt"/><path d="M251.02928,218.10089c1.08666,9.10734 -5.4154,17.37117 -14.52272,18.45782c-9.10734,1.08666 -17.37119,-5.41541 -18.45783,-14.52271c-1.08666,-9.10734 5.41541,-17.37118 14.52271,-18.45783c9.10734,-1.08666 17.37117,5.4154 18.45783,14.52271z" fill="#ffe819" stroke-linecap="butt"/><path d="M243.4566,170.11705l-2.54871,25.43773l-7.81159,-0.78268l2.54871,-25.43772z" fill="#ffe819" stroke-linecap="butt"/><path d="M266.33057,221.51383c0,0 -1.82546,2.45927 -3.40616,3.74478c-1.25225,1.01839 -5.32425,3.35523 -5.32425,3.35523" fill="none" stroke-linecap="round"/><path d="M274.32466,215.16352c1.36639,2.48395 0.46046,5.60526 -2.02347,6.97165c-2.48395,1.36639 -5.60526,0.46045 -6.97166,-2.02349c-1.36639,-2.48395 -0.46045,-5.60526 2.02349,-6.97166c2.48395,-1.36639 5.60526,-0.46045 6.97166,2.02349z" fill="#ffe819" stroke-linecap="butt"/><path d="M234.14573,137.85176c1.07029,-4.83012 3.9675,-5.61562 7.16952,-4.90611c3.20199,0.70949 4.93011,5.20027 3.85982,10.03039c-1.07029,4.83012 -2.76484,8.56248 -5.96683,7.85299c-1.23667,-0.27402 -6.82953,-5.00261 -5.06248,-12.97727z" data-paper-data="{&quot;index&quot;:null}" fill="#ffe819" stroke-linecap="butt"/><path d="M255.53192,217.61107l-3.63913,10.82603l11.6547,0.20192c0,0 -12.07938,13.3245 -22.51735,15.26943c-10.43799,1.94493 -19.67765,-7.40715 -19.67765,-7.40715z" data-paper-data="{&quot;index&quot;:null}" fill="#fff067" stroke-linecap="butt"/><path d="M230.98953,167.2496c-2.05501,0.48876 -4.11711,-0.78096 -4.60587,-2.83593c-0.48876,-2.05501 0.78096,-4.11711 2.83593,-4.60587c2.05501,-0.48876 4.11711,0.78096 4.60587,2.83593c0.48876,2.05501 -0.78096,4.11711 -2.83593,4.60587z" fill="#ffe819" stroke-linecap="butt"/></g></g></svg>