<svg version="1.1" xmlns="http://www.w3.org/2000/svg" xmlns:xlink="http://www.w3.org/1999/xlink" width="69.09604" height="109.54449" viewBox="0,0,69.09604,109.54449"><g transform="translate(-194.73797,-117.61584)"><g data-paper-data="{&quot;isPaintingLayer&quot;:true}" fill-rule="nonzero" stroke="#000000" stroke-width="2" stroke-linejoin="miter" stroke-miterlimit="10" stroke-dasharray="" stroke-dashoffset="0" style="mix-blend-mode: normal"><path d="M245.61192,202.00697c-0.19044,-2.10372 1.36058,-3.96351 3.46429,-4.15395c2.10372,-0.19044 3.96351,1.36058 4.15395,3.46429c0.19044,2.10372 -1.36058,3.96351 -3.46429,4.15395c-2.10372,0.19044 -3.96351,-1.36058 -4.15395,-3.46429z" fill="#1d28e8" stroke-linecap="butt"/><path d="M213.53961,164.17177c-2.92028,-8.69461 1.76074,-18.11033 10.45534,-21.03061c8.69461,-2.92028 18.11033,1.76074 21.03061,10.45534c2.92028,8.69461 -1.76074,18.11033 -10.45534,21.03061c-8.69461,2.92028 -18.11033,-1.76074 -21.03061,-10.45534z" fill="#1d28e8" stroke-linecap="butt"/><path d="M232.61164,205.54404l-2.30492,-25.46097l7.81873,-0.70781l2.30492,25.46097z" fill="#1d28e8" stroke-linecap="butt"/><path d="M223.8095,209.94205c-0.19044,-2.10372 1.36058,-3.96351 3.46429,-4.15395c2.10372,-0.19044 3.96351,1.36058 4.15395,3.46429c0.19044,2.10372 -1.36058,3.96351 -3.46429,4.15395c-2.10372,0.19044 -3.96351,-1.36058 -4.15395,-3.46429z" fill="#1d28e8" stroke-linecap="butt"/><path d="M229.28716,214.68624c4.11347,0 7.4481,2.47844 7.4481,5.53575c0,3.05731 -3.33463,5.53575 -7.4481,5.53575c-4.11347,0 -7.4481,-2.47844 -7.4481,-5.53575c0,-3.05731 3.33463,-5.53575 7.4481,-5.53575z" data-paper-data="{&quot;index&quot;:null}" fill="#1d28e8" stroke-linecap="butt"/><path d="M205.67403,170.62266c0,0 1.59857,-2.61245 3.05816,-4.03396c1.15631,-1.12614 5.00337,-3.81727 5.00337,-3.81727" fill="none" stroke-linecap="round"/><path d="M198.27895,177.66145c-1.58274,-2.35201 -0.95914,-5.54175 1.39287,-7.12449c2.35201,-1.58274 5.54175,-0.95914 7.12449,1.39287c1.58274,2.35201 0.95914,5.54175 -1.39287,7.12449c-2.35201,1.58274 -5.54175,0.95914 -7.12449,-1.39287z" fill="#1d28e8" stroke-linecap="butt"/><path d="M256.49306,214.28364c4.94728,0 6.34095,2.65869 6.34095,5.93835c0,3.27966 -4.01056,5.93835 -8.95785,5.93835c-4.94728,0 -8.95785,-0.84699 -8.95785,-4.12665c0,-1.26666 3.40667,-7.75005 11.57475,-7.75005z" data-paper-data="{&quot;index&quot;:null}" fill="#1d28e8" stroke-linecap="butt"/><path d="M213.09495,163.47183l-16.90169,-15.66394l29.53874,-28.50668l12.23402,25.7476l16.76777,-12.32488z" fill="#2530ff" stroke-linecap="round"/></g></g></svg>