<svg version="1.1" xmlns="http://www.w3.org/2000/svg" xmlns:xlink="http://www.w3.org/1999/xlink" width="112.61511" height="45.39808" viewBox="0,0,112.61511,45.39808"><g transform="translate(-184.89966,-155.75362)"><g data-paper-data="{&quot;isPaintingLayer&quot;:true}" fill-rule="nonzero" stroke="#000000" stroke-width="2" stroke-linejoin="miter" stroke-miterlimit="10" stroke-dasharray="" stroke-dashoffset="0" style="mix-blend-mode: normal"><path d="M190.67639,199.57429c-4.74622,-1.39605 -5.33301,-4.33996 -4.40753,-7.48634c0.92548,-3.14638 5.52329,-4.56529 10.26952,-3.16924c4.74622,1.39605 8.35479,3.34035 7.42932,6.48672c-0.35744,1.21518 -5.45518,6.47377 -13.2913,4.16885z" data-paper-data="{&quot;index&quot;:null}" fill="#181818" stroke-linecap="butt"/><path d="M285.28738,185.34956c1.93749,-0.84145 4.19027,0.04707 5.03172,1.98456c0.84145,1.93749 -0.04706,4.19026 -1.98456,5.03171c-1.93749,0.84145 -4.19027,-0.04707 -5.03172,-1.98456c-0.84145,-1.93749 0.04707,-4.19027 1.98456,-5.03172z" fill="#181818" stroke-linecap="butt"/><path d="M245.16432,161.90117c0,0 3.03259,-0.42867 5.05791,-0.20691c1.60449,0.17568 6.12825,1.43173 6.12825,1.43173" fill="#181818" stroke-linecap="round"/><path d="M235.42889,160.42563c0.80772,-2.71746 3.66542,-4.26564 6.38289,-3.45791c2.71746,0.80772 4.26564,3.66543 3.45791,6.38289c-0.80772,2.71746 -3.66542,4.26563 -6.38289,3.4579c-2.71746,-0.80772 -4.26564,-3.66542 -3.45791,-6.38289z" fill="#181818" stroke-linecap="butt"/><path d="M253.89794,175.94481c0.54247,-9.15588 8.40453,-16.13841 17.5604,-15.59593c9.15587,0.54247 16.1384,8.40453 15.59593,17.5604c-0.54247,9.15588 -8.40453,16.13841 -17.5604,15.59593c-9.15587,-0.54247 -16.13841,-8.40453 -15.59594,-17.5604z" fill="#181818" stroke-linecap="butt"/><path d="M223.4542,190.43678l24.38997,-7.66178l2.35283,7.48983l-24.38997,7.66178z" fill="#181818" stroke-linecap="butt"/><path d="M189.38351,185.70522c-4.04655,-2.84623 -3.6569,-5.82266 -1.77007,-8.50521c1.88683,-2.68255 6.69678,-2.54986 10.74334,0.29638c4.04655,2.84623 6.83965,5.84634 4.95282,8.52889c-0.72872,1.03605 -7.24513,4.37914 -13.92608,-0.32006z" data-paper-data="{&quot;index&quot;:null}" fill="#181818" stroke-linecap="butt"/><path d="M269.08701,180.48411l0.31019,-5.23556c0,0 7.39312,-2.52626 10.5126,-2.34144c3.32205,0.19682 8.85023,3.48866 8.85023,3.48866l-0.3102,5.23556c0,0 -5.66795,-2.11439 -8.91039,-2.3065c-3.21154,-0.19028 -10.45243,1.15928 -10.45243,1.15928z" fill="#ff0000" stroke-linecap="butt"/><path d="M248.76382,180.24368l4.03445,13.85058l-5.15599,-2.30706l-2.79825,5.19844l-6.26082,-15.89992l6.18868,2.57166z" fill="#0e0e0e" stroke-linecap="round"/><g><path d="M256.20092,168.98805l0.71346,-12.04179l29.58092,1.75262l-0.71346,12.0418z" fill="#343434" stroke-linecap="butt"/><path d="M296.51477,171.37659l-51.04674,-3.02445" fill="none" stroke-linecap="round"/></g><path d="M214.93267,173.08093c1.93749,-0.84145 4.19027,0.04707 5.03172,1.98456c0.84145,1.93749 -0.04707,4.19026 -1.98456,5.03171c-1.93749,0.84145 -4.19027,-0.04707 -5.03172,-1.98456c-0.84145,-1.93749 0.04706,-4.19027 1.98455,-5.03172z" fill="#181818" stroke-linecap="butt"/></g></g></svg>