<svg version="1.1" xmlns="http://www.w3.org/2000/svg" xmlns:xlink="http://www.w3.org/1999/xlink" width="127.16858" height="127.16858" viewBox="0,0,127.16858,127.16858"><defs><radialGradient cx="263.40506" cy="164.9258" r="35.95262" gradientUnits="userSpaceOnUse" id="color-1"><stop offset="0" stop-color="#ff0000"/><stop offset="1" stop-color="#ff0000" stop-opacity="0"/></radialGradient><radialGradient cx="240.00006" cy="180.00005" r="63.58429" gradientUnits="userSpaceOnUse" id="color-2"><stop offset="0" stop-color="#ff0000"/><stop offset="1" stop-color="#ff0000" stop-opacity="0"/></radialGradient></defs><g transform="translate(-176.41577,-116.41576)"><g data-paper-data="{&quot;isPaintingLayer&quot;:true}" fill-rule="nonzero" stroke="#000000" stroke-linejoin="miter" stroke-miterlimit="10" stroke-dasharray="" stroke-dashoffset="0" style="mix-blend-mode: normal"><path d="M227.45244,164.9258c0,-19.85608 16.09653,-35.95262 35.95262,-35.95262c19.85608,0 35.95262,16.09653 35.95262,35.95262c0,19.85608 -16.09653,35.95262 -35.95262,35.95262c-19.85608,0 -35.95262,-16.09653 -35.95262,-35.95262z" fill="url(#color-1)" stroke-width="0" stroke-linecap="butt"/><path d="M176.41577,180.00005c0,-35.11664 28.46765,-63.58429 63.58429,-63.58429c35.11664,0 63.58429,28.46765 63.58429,63.58429c0,35.11664 -28.46765,63.58429 -63.58429,63.58429c-35.11664,0 -63.58429,-28.46765 -63.58429,-63.58429z" fill="url(#color-2)" stroke-width="0" stroke-linecap="butt"/><path d="M254.20161,206.11089c0,-2.11232 1.71238,-3.8247 3.8247,-3.8247c2.11232,0 3.8247,1.71238 3.8247,3.8247c0,2.11232 -1.71238,3.8247 -3.8247,3.8247c-2.11232,0 -3.8247,-1.71238 -3.8247,-3.8247z" fill="#181818" stroke-width="2" stroke-linecap="butt"/><path d="M218.65544,147.88265c0,0 2.81342,-1.21038 4.82585,-1.52855c1.59428,-0.25205 6.28912,-0.22869 6.28912,-0.22869" fill="#181818" stroke-width="2" stroke-linecap="round"/><path d="M208.19429,149.46473c0.06536,-2.8342 2.41591,-5.07882 5.25012,-5.01345c2.8342,0.06536 5.07882,2.41591 5.01345,5.25012c-0.06536,2.8342 -2.41591,5.07882 -5.25012,5.01345c-2.8342,-0.06536 -5.07882,-2.41591 -5.01345,-5.25012z" fill="#000000" stroke-width="2" stroke-linecap="butt"/><path d="M230.77202,159.13826c-1.88218,-8.97673 3.86909,-17.77961 12.84581,-19.66179c8.97673,-1.88218 17.77961,3.86909 19.66179,12.84581c1.88218,8.97673 -3.86909,17.77961 -12.84581,19.66179c-8.97673,1.88218 -17.77961,-3.86909 -19.66179,-12.84581z" fill="#181818" stroke-width="2" stroke-linecap="butt"/><path d="M237.69955,206.53767l3.11418,-25.37471l7.79224,0.95632l-3.11418,25.37471z" fill="#181818" stroke-width="2" stroke-linecap="butt"/><path d="M224.68747,221.61368c4.11347,0 7.4481,2.47844 7.4481,5.53575c0,3.05731 -3.33463,5.53575 -7.4481,5.53575c-4.11347,0 -7.4481,-2.47844 -7.4481,-5.53575c0,-3.05731 3.33463,-5.53575 7.4481,-5.53575z" data-paper-data="{&quot;index&quot;:null}" fill="#181818" stroke-width="2" stroke-linecap="butt"/><path d="M260.59146,224.08205c4.48849,2.08063 4.63478,5.07889 3.25548,8.05441c-1.3793,2.97552 -6.13607,3.70097 -10.62457,1.62034c-4.48849,-2.08063 -7.77093,-4.53576 -6.39163,-7.51128c0.53271,-1.1492 6.35012,-5.59863 13.76072,-2.16346z" data-paper-data="{&quot;index&quot;:null}" fill="#181818" stroke-width="2" stroke-linecap="butt"/><path d="M252.613,158.27083l-1.07628,-5.13312l12.99105,-2.72388l1.07628,5.13312z" fill="#ff4545" stroke-width="2" stroke-linecap="butt"/><path d="M238.88959,179.27853l14.27886,2.05665l-4.23333,3.73975l3.5752,4.69808l-17.06562,-0.87748l4.90143,-4.57047z" fill="#0e0e0e" stroke-width="2" stroke-linecap="round"/><g stroke-width="2"><path d="M231.1663,151.82084l-2.47544,-11.80618l29.00215,-6.08097l2.47544,11.80618z" fill="#343434" stroke-linecap="butt"/><path d="M270.69133,143.5335l-50.04797,10.49372" fill="none" stroke-linecap="round"/></g><path d="M222.64101,179.28409c0,-2.11232 1.71238,-3.8247 3.8247,-3.8247c2.11232,0 3.8247,1.71238 3.8247,3.8247c0,2.11232 -1.71238,3.8247 -3.8247,3.8247c-2.11232,0 -3.8247,-1.71238 -3.8247,-3.8247z" fill="#181818" stroke-width="2" stroke-linecap="butt"/></g></g></svg>