<svg version="1.1" xmlns="http://www.w3.org/2000/svg" xmlns:xlink="http://www.w3.org/1999/xlink" width="84.40477" height="91.9763" viewBox="0,0,84.40477,91.9763"><g transform="translate(-192.76981,-147.26216)"><g data-paper-data="{&quot;isPaintingLayer&quot;:true}" fill-rule="nonzero" stroke="#000000" stroke-width="2" stroke-linejoin="miter" stroke-miterlimit="10" stroke-dasharray="" stroke-dashoffset="0" style="mix-blend-mode: normal"><path d="M212.61166,183.45386c-8.50996,-3.42126 -12.63513,-13.09342 -9.21387,-21.60336c3.42126,-8.50996 13.09343,-12.63514 21.60336,-9.21388c8.50996,3.42126 12.63513,13.09343 9.21388,21.60336c-3.42126,8.50996 -13.09342,12.63513 -21.60336,9.21388z" fill="#ffe819" stroke-linecap="butt"/><path d="M247.38883,205.51689l-12.23359,-22.44801l6.89349,-3.75676l12.23359,22.448z" fill="#ffe819" stroke-linecap="butt"/><path d="M202.26878,195.23532c0,0 -1.28023,-2.78232 -1.64851,-4.7862c-0.29175,-1.58749 -0.38557,-6.28145 -0.38557,-6.28145" fill="none" stroke-linecap="round"/><path d="M203.99898,205.29704c-2.83496,0.00539 -5.13753,-2.2884 -5.14292,-5.12335c-0.00539,-2.83496 2.28841,-5.13752 5.12337,-5.14292c2.83496,-0.00539 5.13752,2.28841 5.14292,5.12337c0.00539,2.83496 -2.28841,5.13752 -5.12337,5.14292z" fill="#ffe819" stroke-linecap="butt"/><path d="M276.00636,221.13813c0.83567,4.87619 -1.5494,6.69893 -4.78194,7.25291c-3.23253,0.55399 -6.53047,-2.94985 -7.36614,-7.82605c-0.83567,-4.87619 -0.6783,-8.9722 2.55423,-9.52619c1.24846,-0.21395 8.21412,2.04862 9.59384,10.09933z" data-paper-data="{&quot;index&quot;:null}" fill="#ffe819" stroke-linecap="butt"/><path d="M210.8786,187.63838l-7.74757,-8.39175l-5.775,10.12533c0,0 -5.88502,-16.99472 -2.57742,-27.08401c3.3076,-10.0893 15.94821,-13.70147 15.94821,-13.70147z" data-paper-data="{&quot;index&quot;:null}" fill="#fff067" stroke-linecap="butt"/><path d="M249.18326,233.4077c-1.34652,4.76051 -4.28416,5.37795 -7.44001,4.48532c-3.15585,-0.89263 -4.62261,-5.47542 -3.27608,-10.23594c1.34652,-4.76051 3.25311,-8.38915 6.40896,-7.49652c1.21884,0.34476 6.53027,5.38741 4.30714,13.24714z" data-paper-data="{&quot;index&quot;:null}" fill="#ffe819" stroke-linecap="butt"/><path d="M249.38177,200.77155c0.55836,-2.0372 2.66247,-3.23601 4.69965,-2.67767c2.0372,0.55836 3.23601,2.66247 2.67767,4.69965c-0.55836,2.0372 -2.66247,3.23601 -4.69965,2.67767c-2.0372,-0.55836 -3.23601,-2.66247 -2.67767,-4.69965z" fill="#ffe819" stroke-linecap="butt"/><path d="M263.93205,194.5907c0.55836,-2.0372 2.66247,-3.23601 4.69965,-2.67767c2.0372,0.55836 3.23601,2.66247 2.67767,4.69965c-0.55836,2.0372 -2.66247,3.23601 -4.69965,2.67767c-2.0372,-0.55836 -3.23601,-2.66247 -2.67767,-4.69965z" fill="#ffe819" stroke-linecap="butt"/></g></g></svg>