<svg version="1.1" xmlns="http://www.w3.org/2000/svg" xmlns:xlink="http://www.w3.org/1999/xlink" width="165.14268" height="114.07355" viewBox="0,0,165.14268,114.07355"><defs><radialGradient cx="255.9102" cy="149.81355" r="18.84183" gradientUnits="userSpaceOnUse" id="color-1"><stop offset="0" stop-color="#ffffff"/><stop offset="1" stop-color="#0debff"/></radialGradient></defs><g transform="translate(-214.43526,-113.61244)"><g data-paper-data="{&quot;isPaintingLayer&quot;:true}" fill-rule="nonzero" stroke-linejoin="miter" stroke-miterlimit="10" stroke-dasharray="" stroke-dashoffset="0" style="mix-blend-mode: normal"><g fill="#76f4ff" stroke="#53acb4" stroke-width="1" stroke-linecap="butt"><path d="M379.29837,114.07324l-65.76677,44.35452l-34.75537,10.03873l27.41589,-23.60257z" data-paper-data="{&quot;index&quot;:null}"/><path d="M261.98288,170.958l23.11017,-9.31142l2.67345,4.9407l-20.70408,13.75805z"/><path d="M303.41039,177.63715l-15.58038,-4.96781l-8.06466,-14.80057l4.67604,-15.28753l6.22205,19.29329z"/></g><path d="M260.85655,174.77912c0.41338,-2.07147 2.42776,-3.41563 4.49923,-3.00225c2.07147,0.41338 3.41563,2.42776 3.00225,4.49923c-0.41338,2.07147 -2.42776,3.41563 -4.49923,3.00225c-2.07147,-0.41338 -3.41563,-2.42776 -3.00225,-4.49923z" fill="#0debff" stroke="#000000" stroke-width="2" stroke-linecap="butt"/><path d="M240.13201,205.96575l13.48098,-21.7218l6.67048,4.13982l-13.48098,21.7218z" data-paper-data="{&quot;index&quot;:null}" fill="#0debff" stroke="#000000" stroke-width="2" stroke-linecap="butt"/><path d="M219.24078,187.87556c0,-2.11232 1.71238,-3.8247 3.8247,-3.8247c2.11232,0 3.8247,1.71238 3.8247,3.8247c0,2.11232 -1.71238,3.8247 -3.8247,3.8247c-2.11232,0 -3.8247,-1.71238 -3.8247,-3.8247z" fill="#0debff" stroke="#000000" stroke-width="2" stroke-linecap="butt"/><path d="M222.88337,215.61448c4.11347,0 7.4481,2.47844 7.4481,5.53575c0,3.05731 -3.33463,5.53575 -7.4481,5.53575c-4.11347,0 -7.4481,-2.47844 -7.4481,-5.53575c0,-3.05731 3.33463,-5.53575 7.4481,-5.53575z" data-paper-data="{&quot;index&quot;:null}" fill="#0debff" stroke="#000000" stroke-width="2" stroke-linecap="butt"/><path d="M269.69212,213.69705c4.92103,-0.50894 6.58082,1.99227 6.91821,5.25453c0.33739,3.26226 -3.37839,6.31942 -8.29943,6.82837c-4.92103,0.50894 -8.99745,0.07904 -9.33484,-3.18323c-0.13031,-1.25994 2.59132,-8.05939 10.71607,-8.89967z" data-paper-data="{&quot;index&quot;:null}" fill="#0debff" stroke="#000000" stroke-width="2" stroke-linecap="butt"/><path d="M256.17138,165.10747c3.87566,-8.31285 13.7564,-11.9099 22.06925,-8.03425c8.31285,3.87566 11.9099,13.7564 8.03425,22.06925c-3.87566,8.31285 -13.7564,11.9099 -22.06925,8.03425c-8.31285,-3.87566 -11.9099,-13.7564 -8.03425,-22.06925z" fill="#0debff" stroke="#000000" stroke-width="2" stroke-linecap="butt"/><path d="M245.5275,163.5365c0,0 2.47368,-1.80589 4.36492,-2.56372c1.49827,-0.60036 6.08067,-1.62192 6.08067,-1.62192" fill="none" stroke="#000000" stroke-width="2" stroke-linecap="round"/><path d="M236.00772,167.22506c-0.56673,-2.77774 1.22564,-5.48897 4.00338,-6.0557c2.77774,-0.56673 5.48897,1.22564 6.0557,4.00338c0.56673,2.77774 -1.22564,5.48897 -4.00338,6.0557c-2.77774,0.56673 -5.48897,-1.22564 -6.0557,-4.00338z" fill="#0debff" stroke="#000000" stroke-width="2" stroke-linecap="butt"/><path d="M252.10202,169.2051l0.69275,-20.79533l29.67335,-4.54354l6.88343,19.63527z" fill="url(#color-1)" stroke="#000000" stroke-width="2" stroke-linecap="butt"/></g></g></svg>