<svg version="1.1" xmlns="http://www.w3.org/2000/svg" xmlns:xlink="http://www.w3.org/1999/xlink" width="97.24588" height="96.41552" viewBox="0,0,97.24588,96.41552"><g transform="translate(-210.65201,-130.15254)"><g data-paper-data="{&quot;isPaintingLayer&quot;:true}" fill-rule="nonzero" stroke="#000000" stroke-width="2" stroke-linejoin="miter" stroke-miterlimit="10" stroke-dasharray="" stroke-dashoffset="0" style="mix-blend-mode: normal"><path d="M260.28417,184.57851c0.48614,-2.05562 2.54665,-3.32794 4.60226,-2.8418c2.05562,0.48614 3.32794,2.54665 2.8418,4.60227c-0.48614,2.05562 -2.54665,3.32793 -4.60227,2.84179c-2.05562,-0.48614 -3.32794,-2.54665 -2.84179,-4.60226z" fill="#ff6b00" stroke-linecap="butt"/><path d="M224.91892,210.25269c0.48614,-2.05562 2.54665,-3.32793 4.60227,-2.84179c2.05562,0.48614 3.32794,2.54665 2.84179,4.60226c-0.48614,2.05562 -2.54665,3.32794 -4.60227,2.8418c-2.05562,-0.48614 -3.32793,-2.54665 -2.84179,-4.60227z" fill="#ff6b00" stroke-linecap="butt"/><path d="M248.34536,213.70521l-6.80233,-24.6435l7.5677,-2.08892l6.80232,24.6435z" data-paper-data="{&quot;index&quot;:null}" fill="#ff6b00" stroke-linecap="butt"/><path d="M228.9533,175.40284c3.69072,-8.3966 13.48942,-12.21146 21.88601,-8.52075c8.3966,3.69072 12.21147,13.48942 8.52075,21.88602c-3.69072,8.3966 -13.48942,12.21146 -21.88601,8.52075c-8.3966,-3.69072 -12.21147,-13.48942 -8.52075,-21.88602z" fill="#ff6b00" stroke-linecap="butt"/><path d="M222.91396,178.88296l7.83783,-10.20569l-17.97859,-28.41956l46.56013,-8.84304l-7.00297,33.43474l10.99932,6.73279z" data-paper-data="{&quot;index&quot;:null}" fill="#ffa340" stroke-linecap="butt"/><path d="M299.22407,198.97488c4.77492,-1.29445 6.81569,0.90696 7.67382,4.07237c0.85813,3.16541 -2.31708,6.78083 -7.09202,8.0753c-4.77492,1.29445 -8.8674,1.52635 -9.72552,-1.63906c-0.33142,-1.22252 1.26018,-8.37141 9.14372,-10.50859z" data-paper-data="{&quot;index&quot;:null}" fill="#ff6b00" stroke-linecap="butt"/><path d="M221.85166,167.69354c0,0 2.92173,-0.91863 4.95605,-1.03092c1.61163,-0.08896 6.27985,0.41074 6.27985,0.41074" data-paper-data="{&quot;index&quot;:null}" fill="none" stroke-linecap="round"/><path d="M211.65201,168.13933c0.35265,-2.81294 2.91884,-4.80741 5.73178,-4.45476c2.81294,0.35265 4.80741,2.91885 4.45477,5.7318c-0.35265,2.81294 -2.91885,4.80741 -5.73179,4.45477c-2.81294,-0.35265 -4.80741,-2.91885 -4.45476,-5.7318z" data-paper-data="{&quot;index&quot;:null}" fill="#ff6b00" stroke-linecap="butt"/><path d="M255.25865,213.52566c4.93271,-0.37933 6.52614,2.16467 6.77761,5.43468c0.25147,3.27001 -3.54343,6.22837 -8.47616,6.60772c-4.93271,0.37933 -8.99642,-0.15764 -9.24789,-3.42765c-0.09712,-1.26292 2.8024,-7.98844 10.94644,-8.61473z" data-paper-data="{&quot;index&quot;:null}" fill="#ff6b00" stroke-linecap="butt"/></g></g></svg>