<svg version="1.1" xmlns="http://www.w3.org/2000/svg" xmlns:xlink="http://www.w3.org/1999/xlink" width="125.97567" height="93.26174" viewBox="0,0,125.97567,93.26174"><g transform="translate(-215.91889,-134.28374)"><g data-paper-data="{&quot;isPaintingLayer&quot;:true}" fill-rule="nonzero" stroke="#000000" stroke-width="2" stroke-linejoin="miter" stroke-miterlimit="10" stroke-dasharray="" stroke-dashoffset="0" style="mix-blend-mode: normal"><path d="M216.91889,204.58599c0.48614,-2.05562 2.54665,-3.32793 4.60227,-2.84179c2.05562,0.48614 3.32794,2.54665 2.84179,4.60226c-0.48614,2.05562 -2.54665,3.32794 -4.60227,2.8418c-2.05562,-0.48614 -3.32793,-2.54665 -2.84179,-4.60227z" fill="#ff6b00" stroke-linecap="butt"/><path d="M247.40716,213.56213l-3.78893,-25.28276l7.76401,-1.16353l3.78892,25.28276z" data-paper-data="{&quot;index&quot;:null}" fill="#ff6b00" stroke-linecap="butt"/><path d="M231.41492,179.4356c2.11088,-8.92572 11.0578,-14.45023 19.98351,-12.33936c8.92572,2.11088 14.45024,11.0578 12.33937,19.98352c-2.11088,8.92572 -11.0578,14.45023 -19.98351,12.33936c-8.92572,-2.11088 -14.45024,-11.0578 -12.33937,-19.98352z" fill="#ff6b00" stroke-linecap="butt"/><path d="M227.0659,180.63933l8.43831,-9.75245l-16.81637,-29.73437l47.04853,-5.69919l-8.5093,32.53449l10.56464,7.34684z" data-paper-data="{&quot;index&quot;:null}" fill="#ffa340" stroke-linecap="butt"/><path d="M254.71067,215.01803c4.11347,0 7.4481,2.47844 7.4481,5.53575c0,3.05731 -3.33463,5.53575 -7.4481,5.53575c-4.11347,0 -7.4481,-2.47844 -7.4481,-5.53575c0,-3.05731 3.33463,-5.53575 7.4481,-5.53575z" data-paper-data="{&quot;index&quot;:null}" fill="#ff6b00" stroke-linecap="butt"/><path d="M224.6319,207.96355c-1.29405,-0.05263 24.23125,10.29398 54.07617,8.5792c25.56135,-1.46866 48.04091,-16.75647 55.30041,-16.84471c7.2595,-0.08824 10.63674,7.50808 0.6927,16.1641c-5.28586,4.6012 -29.27494,12.108 -58.20037,10.44802c-26.5168,-1.52175 -51.8689,-18.3466 -51.8689,-18.3466z" data-paper-data="{&quot;index&quot;:null}" fill="#ff6b00" stroke-linecap="butt"/><path d="M232.88066,168.10831c0,0 3.06272,0.01106 5.03523,0.52124c1.56266,0.40417 5.85926,2.29656 5.85926,2.29656" data-paper-data="{&quot;index&quot;:null}" fill="none" stroke-linecap="round"/><path d="M223.02648,165.4387c1.18942,-2.57338 4.23975,-3.69531 6.81313,-2.5059c2.57338,1.18942 3.69531,4.23976 2.5059,6.81315c-1.18942,2.57338 -4.23976,3.69531 -6.81314,2.5059c-2.57338,-1.18942 -3.69531,-4.23976 -2.50589,-6.81314z" data-paper-data="{&quot;index&quot;:null}" fill="#ff6b00" stroke-linecap="butt"/><path d="M272.25222,183.25265c0.48614,-2.05562 2.54665,-3.32793 4.60227,-2.84179c2.05562,0.48614 3.32794,2.54665 2.84179,4.60226c-0.48614,2.05562 -2.54665,3.32794 -4.60227,2.8418c-2.05562,-0.48614 -3.32793,-2.54665 -2.84179,-4.60227z" fill="#ff6b00" stroke-linecap="butt"/></g></g></svg>