<svg version="1.1" xmlns="http://www.w3.org/2000/svg" xmlns:xlink="http://www.w3.org/1999/xlink" width="64.38415" height="100.97826" viewBox="0,0,64.38415,100.97826"><g transform="translate(-203.27499,-139.75023)"><g data-paper-data="{&quot;isPaintingLayer&quot;:true}" fill-rule="nonzero" stroke="#000000" stroke-width="2" stroke-linejoin="miter" stroke-miterlimit="10" stroke-dasharray="" stroke-dashoffset="0" style="mix-blend-mode: normal"><path d="M247.5701,209.74672c0,-2.11232 1.71238,-3.8247 3.8247,-3.8247c2.11232,0 3.8247,1.71238 3.8247,3.8247c0,2.11232 -1.71238,3.8247 -3.8247,3.8247c-2.11232,0 -3.8247,-1.71238 -3.8247,-3.8247z" fill="#181818" stroke-linecap="butt"/><path d="M214.83816,146.39142c0,0 3.00193,-0.60728 5.03682,-0.5057c1.61207,0.08048 6.2022,1.06677 6.2022,1.06677" fill="#181818" stroke-linecap="round"/><path d="M204.27499,145.79304c0.64558,-2.76047 3.40672,-4.47496 6.1672,-3.82937c2.76047,0.64558 4.47496,3.40672 3.82937,6.1672c-0.64558,2.76047 -3.40672,4.47496 -6.1672,3.82937c-2.76047,-0.64558 -4.47496,-3.40672 -3.82937,-6.1672z" fill="#181818" stroke-linecap="butt"/><path d="M224.3871,159.89393c0,-9.17193 7.43532,-16.60724 16.60724,-16.60724c9.17193,0 16.60724,7.43532 16.60724,16.60724c0,9.17193 -7.43532,16.60724 -16.60724,16.60724c-9.17193,0 -16.60724,-7.43532 -16.60724,-16.60724z" fill="#181818" stroke-linecap="butt"/><path d="M236.26379,205.61184v-25.56509h7.8507v25.56509z" fill="#181818" stroke-linecap="butt"/><path d="M237.95345,231.17782c2.69025,4.15188 1.21687,6.76724 -1.5355,8.55067c-2.75237,1.78343 -7.16449,-0.13658 -9.85475,-4.28847c-2.69025,-4.15188 -4.16033,-7.97823 -1.40796,-9.76166c1.06301,-0.68879 8.35653,-1.3554 12.79821,5.49946z" data-paper-data="{&quot;index&quot;:null}" fill="#181818" stroke-linecap="butt"/><path d="M239.81806,163.52693v-5.24474h19.39678v5.24474z" fill="#ff0000" stroke-linecap="butt"/><path d="M234.12443,178.41074l14.42305,0.30197l-3.74625,4.22758l4.12087,4.22758l-17.04542,1.20788l4.30818,-5.13349z" fill="#0e0e0e" stroke-linecap="round"/><g><path d="M226.2746,152.81314v-12.06291h29.6328v12.06291z" fill="#343434" stroke-linecap="butt"/><path d="M266.65914,152.81314h-51.13626" fill="none" stroke-linecap="round"/></g><path d="M219.34838,211.25741c0,-2.11232 1.71238,-3.8247 3.8247,-3.8247c2.11232,0 3.8247,1.71238 3.8247,3.8247c0,2.11232 -1.71238,3.8247 -3.8247,3.8247c-2.11232,0 -3.8247,-1.71238 -3.8247,-3.8247z" fill="#181818" stroke-linecap="butt"/><path d="M256.35016,223.7615c4.49134,2.07446 4.64175,5.07252 3.26654,8.04993c-1.37521,2.97741 -6.13099,3.70939 -10.62234,1.63493c-4.49134,-2.07446 -7.77715,-4.52508 -6.40195,-7.50249c0.53112,-1.14993 6.34242,-5.60736 13.75774,-2.18237z" data-paper-data="{&quot;index&quot;:null}" fill="#181818" stroke-linecap="butt"/></g></g></svg>