<svg version="1.1" xmlns="http://www.w3.org/2000/svg" xmlns:xlink="http://www.w3.org/1999/xlink" width="70.47535" height="113.76273" viewBox="0,0,70.47535,113.76273"><g transform="translate(-187.72136,-125.85144)"><g data-paper-data="{&quot;isPaintingLayer&quot;:true}" fill-rule="nonzero" stroke="#000000" stroke-width="2" stroke-linejoin="miter" stroke-miterlimit="10" stroke-dasharray="" stroke-dashoffset="0" style="mix-blend-mode: normal"><path d="M253.87385,201.93024c-2.09614,0.26098 -4.00696,-1.22672 -4.26794,-3.32285c-0.26098,-2.09614 1.22672,-4.00696 3.32285,-4.26794c2.09614,-0.26098 4.00696,1.22672 4.26794,3.32285c0.26098,2.09614 -1.22672,4.00696 -3.32285,4.26794z" data-paper-data="{&quot;index&quot;:null}" fill="#1d28e8" stroke-linecap="butt"/><path d="M225.93686,177.89865c-9.10165,1.1332 -17.39864,-5.32651 -18.53183,-14.42817c-1.1332,-9.10165 5.32651,-17.39864 14.42817,-18.53183c9.10165,-1.1332 17.39864,5.32651 18.53183,14.42817c1.1332,9.10165 -5.32651,17.39864 -14.42817,18.53183z" data-paper-data="{&quot;index&quot;:null}" fill="#1d28e8" stroke-linecap="butt"/><path d="M236.73734,205.88937l-3.15858,-25.36922l7.79055,-0.96996l3.15858,25.36922z" data-paper-data="{&quot;index&quot;:null}" fill="#1d28e8" stroke-linecap="butt"/><path d="M218.36769,206.33634c-2.09614,0.26098 -4.00696,-1.22672 -4.26794,-3.32285c-0.26098,-2.09614 1.22672,-4.00696 3.32285,-4.26794c2.09614,-0.26098 4.00696,1.22672 4.26794,3.32285c0.26098,2.09614 -1.22672,4.00696 -3.32285,4.26794z" data-paper-data="{&quot;index&quot;:null}" fill="#1d28e8" stroke-linecap="butt"/><path d="M248.38438,234.33776c-1.85234,4.58742 -4.83945,4.88426 -7.88055,3.65631c-3.0411,-1.22795 -4.00479,-5.94224 -2.15245,-10.52967c1.85234,-4.58742 4.13934,-7.98914 7.18044,-6.76119c1.17452,0.47426 5.91081,6.06061 2.85256,13.63455z" data-paper-data="{&quot;index&quot;:null}" fill="#1d28e8" stroke-linecap="butt"/><path d="M230.01947,234.46686c-2.94354,3.97633 -5.90964,3.51462 -8.54563,1.56328c-2.636,-1.95134 -2.38669,-6.75666 0.55685,-10.73299c2.94354,-3.97633 6.0105,-6.69584 8.64649,-4.74452c1.01807,0.75363 4.20213,7.3492 -0.65772,13.91422z" data-paper-data="{&quot;index&quot;:null}" fill="#1d28e8" stroke-linecap="butt"/><path d="M213.44586,183.66215c0,0 -1.48303,-2.67973 -1.99891,-4.65077c-0.40867,-1.56148 -0.85034,-6.23555 -0.85034,-6.23555" fill="none" stroke-linecap="round"/><path d="M216.23498,192.31704c-2.82675,0.21562 -5.29308,-1.90111 -5.5087,-4.72786c-0.21562,-2.82675 1.90111,-5.29308 4.72786,-5.5087c2.82675,-0.21562 5.29308,1.90111 5.5087,4.72786c0.21562,2.82675 -1.90111,5.29308 -4.72786,5.5087z" fill="#1d28e8" stroke-linecap="butt"/><path d="M211.02226,172.8191l-21.9932,-6.87935l14.41966,-38.43489l22.11243,17.99029l9.84307,-18.33506z" fill="#2530ff" stroke-linecap="round"/></g></g></svg>