<svg version="1.1" xmlns="http://www.w3.org/2000/svg" xmlns:xlink="http://www.w3.org/1999/xlink" width="62.9717" height="114.98653" viewBox="0,0,62.9717,114.98653"><g transform="translate(-200.63539,-108.81597)"><g data-paper-data="{&quot;isPaintingLayer&quot;:true}" fill-rule="nonzero" stroke="#000000" stroke-width="2" stroke-linejoin="miter" stroke-miterlimit="10" stroke-dasharray="" stroke-dashoffset="0" style="mix-blend-mode: normal"><path d="M238.70353,206.7141c0,-2.11232 1.71238,-3.8247 3.8247,-3.8247c2.11232,0 3.8247,1.71238 3.8247,3.8247c0,2.11232 -1.71238,3.8247 -3.8247,3.8247c-2.11232,0 -3.8247,-1.71238 -3.8247,-3.8247z" fill="#ff6b00" stroke-linecap="butt"/><path d="M229.3926,163.33451c0,-9.17193 7.43532,-16.60724 16.60724,-16.60724c9.17193,0 16.60724,7.43532 16.60724,16.60724c0,9.17193 -7.43532,16.60724 -16.60724,16.60724c-9.17193,0 -16.60724,-7.43532 -16.60724,-16.60724z" fill="#ff6b00" stroke-linecap="butt"/><path d="M237.6203,207.01301l1.50915,-25.52049l7.837,0.46343l-1.50916,25.5205z" data-paper-data="{&quot;index&quot;:null}" fill="#ff6b00" stroke-linecap="butt"/><path d="M237.25402,207.02465c0,-2.11232 1.71238,-3.8247 3.8247,-3.8247c2.11232,0 3.8247,1.71238 3.8247,3.8247c0,2.11232 -1.71238,3.8247 -3.8247,3.8247c-2.11232,0 -3.8247,-1.71238 -3.8247,-3.8247z" fill="#ff6b00" stroke-linecap="butt"/><path d="M230.91986,154.57506c0,0 -4.52894,1.23722 -6.13415,1.40623c-2.02621,0.21334 -5.057,-0.22794 -5.057,-0.22794" data-paper-data="{&quot;index&quot;:null}" fill="none" stroke-linecap="round"/><path d="M213.07277,150.57023c2.72081,-0.79641 5.57206,0.76363 6.36846,3.48443c0.79641,2.7208 -0.76363,5.57204 -3.48442,6.36845c-2.72081,0.79641 -5.57206,-0.76363 -6.36846,-3.48443c-0.79641,-2.7208 0.76363,-5.57204 3.48442,-6.36845z" data-paper-data="{&quot;index&quot;:null}" fill="#ff6b00" stroke-linecap="butt"/><path d="M237.84261,211.67728c4.70181,1.53902 5.19925,4.49934 4.179,7.61628c-1.02026,3.11693 -5.6589,4.39608 -10.36071,2.85706c-4.70181,-1.53902 -8.2499,-3.5916 -7.22964,-6.70854c0.39404,-1.20381 5.64856,-6.30575 13.41136,-3.7648z" data-paper-data="{&quot;index&quot;:null}" fill="#ff6b00" stroke-linecap="butt"/><path d="M224.8318,166.69021l4.22817,-12.18351l-26.62972,-21.39582l41.5955,-22.71252l4.14025,33.37304l12.53391,2.91357z" data-paper-data="{&quot;index&quot;:null}" fill="#ffa340" stroke-linecap="butt"/><path d="M258.01885,216.16307c-0.5754,4.9137 -3.37814,5.9887 -6.63554,5.60725c-3.25742,-0.38144 -5.43159,-4.674 -4.85621,-9.58773c0.57539,-4.9137 1.88308,-8.79856 5.14048,-8.4171c1.25805,0.14732 7.30123,4.28492 6.35126,12.39757z" data-paper-data="{&quot;index&quot;:null}" fill="#ff6b00" stroke-linecap="butt"/></g></g></svg>