<svg version="1.1" xmlns="http://www.w3.org/2000/svg" xmlns:xlink="http://www.w3.org/1999/xlink" width="71.42843" height="101.18447" viewBox="0,0,71.42843,101.18447"><g transform="translate(-211.78826,-125.85927)"><g data-paper-data="{&quot;isPaintingLayer&quot;:true}" fill-rule="nonzero" stroke="#000000" stroke-width="2" stroke-linejoin="miter" stroke-miterlimit="10" stroke-dasharray="" stroke-dashoffset="0" style="mix-blend-mode: normal"><path d="M239.24595,201.45572c0,-2.11232 1.71238,-3.8247 3.8247,-3.8247c2.11232,0 3.8247,1.71238 3.8247,3.8247c0,2.11232 -1.71238,3.8247 -3.8247,3.8247c-2.11232,0 -3.8247,-1.71238 -3.8247,-3.8247z" fill="#1d28e8" stroke-linecap="butt"/><path d="M231.37914,155.49757c2.90511,-8.69969 12.31266,-13.39712 21.01234,-10.49201c8.69969,2.90511 13.39712,12.31266 10.49201,21.01234c-2.90511,8.69969 -12.31266,13.39712 -21.01234,10.49201c-8.69969,-2.90511 -13.39712,-12.31266 -10.49201,-21.01234z" fill="#1d28e8" stroke-linecap="butt"/><path d="M230.36654,205.26254l0.89969,-25.54925l7.84584,0.27628l-0.89969,25.54925z" fill="#1d28e8" stroke-linecap="butt"/><path d="M222.99515,214.97224c4.11347,0 7.4481,2.47844 7.4481,5.53575c0,3.05731 -3.33463,5.53575 -7.4481,5.53575c-4.11347,0 -7.4481,-2.47844 -7.4481,-5.53575c0,-3.05731 3.33463,-5.53575 7.4481,-5.53575z" data-paper-data="{&quot;index&quot;:null}" fill="#1d28e8" stroke-linecap="butt"/><path d="M221.21493,155.91024c0,0 2.84951,-1.12278 4.87082,-1.37853c1.60131,-0.2026 6.29318,-0.03402 6.29318,-0.03402" fill="none" stroke-linecap="round"/><path d="M212.78826,158.2196c0.153,-2.83083 2.57187,-5.00164 5.4027,-4.84864c2.83083,0.153 5.00164,2.57187 4.84864,5.4027c-0.153,2.83083 -2.57187,5.00164 -5.4027,4.84864c-2.83083,-0.153 -5.00164,-2.57187 -4.84864,-5.4027z" fill="#1d28e8" stroke-linecap="butt"/><path d="M256.49951,213.99764c4.94728,0 6.34095,2.65869 6.34095,5.93835c0,3.27966 -4.01056,5.93835 -8.95785,5.93835c-4.94728,0 -8.95785,-0.84699 -8.95785,-4.12665c0,-1.26666 3.40667,-7.75005 11.57475,-7.75005z" data-paper-data="{&quot;index&quot;:null}" fill="#1d28e8" stroke-linecap="butt"/><path d="M231.4457,154.67101l-4.05897,-22.68372l40.74918,-4.96708l-5.74019,27.9224l20.80849,0.2595z" fill="#2530ff" stroke-linecap="round"/><path d="M217.33624,142.5878c0,-2.11232 1.71238,-3.8247 3.8247,-3.8247c2.11232,0 3.8247,1.71238 3.8247,3.8247c0,2.11232 -1.71238,3.8247 -3.8247,3.8247c-2.11232,0 -3.8247,-1.71238 -3.8247,-3.8247z" fill="#1d28e8" stroke-linecap="butt"/></g></g></svg>