<svg version="1.1" xmlns="http://www.w3.org/2000/svg" xmlns:xlink="http://www.w3.org/1999/xlink" width="105.29534" height="73.7654" viewBox="0,0,105.29534,73.7654"><g transform="translate(-190.16088,-148.41802)"><g data-paper-data="{&quot;isPaintingLayer&quot;:true}" fill-rule="nonzero" stroke="#000000" stroke-width="2" stroke-linejoin="miter" stroke-miterlimit="10" stroke-dasharray="" stroke-dashoffset="0" style="mix-blend-mode: normal"><path d="M264.48026,193.40653c0,-2.11232 1.71238,-3.8247 3.8247,-3.8247c2.11232,0 3.8247,1.71238 3.8247,3.8247c0,2.11232 -1.71238,3.8247 -3.8247,3.8247c-2.11232,0 -3.8247,-1.71238 -3.8247,-3.8247z" fill="#181818" stroke-linecap="butt"/><path d="M242.66526,154.28535c0,0 3.0305,-0.44319 5.05686,-0.23113c1.60531,0.168 6.13503,1.40237 6.13503,1.40237" fill="#181818" stroke-linecap="round"/><path d="M232.15024,153.1136c0.7947,-2.72129 3.64496,-4.28314 6.36626,-3.48843c2.72129,0.7947 4.28314,3.64496 3.48843,6.36626c-0.7947,2.72129 -3.64496,4.28314 -6.36626,3.48843c-2.72129,-0.7947 -4.28314,-3.64496 -3.48843,-6.36626z" fill="#181818" stroke-linecap="butt"/><path d="M252.18418,169.2395c0,-9.17193 7.43532,-16.60724 16.60724,-16.60724c9.17193,0 16.60724,7.43532 16.60724,16.60724c0,9.17193 -7.43532,16.60724 -16.60724,16.60724c-9.17193,0 -16.60724,-7.43532 -16.60724,-16.60724z" fill="#181818" stroke-linecap="butt"/><path d="M231.45249,199.90217l18.07725,-18.07725l5.55128,5.55128l-18.07725,18.07725z" fill="#181818" stroke-linecap="butt"/><path d="M276.42556,207.03035c4.25819,-2.51861 6.81126,-0.93975 8.48089,1.8831c1.66965,2.82284 -0.42879,7.15296 -4.68698,9.67157c-4.25819,2.51861 -8.14134,3.83133 -9.81097,1.00849c-0.64485,-1.09023 -1.0133,-8.40488 6.01707,-12.56316z" data-paper-data="{&quot;index&quot;:null}" fill="#181818" stroke-linecap="butt"/><path d="M267.61514,172.8725v-5.24474h19.39678v5.24474z" fill="#ff0000" stroke-linecap="butt"/><path d="M249.17381,179.15533l9.98511,10.41216l-5.63835,0.34035l-0.07546,5.90325l-12.90703,-11.19883l6.67627,-0.58358z" fill="#0e0e0e" stroke-linecap="round"/><g><path d="M254.07168,162.15871v-12.06291h29.6328v12.06291z" fill="#343434" stroke-linecap="butt"/><path d="M294.45622,162.15871h-51.13626" fill="none" stroke-linecap="round"/></g><path d="M233.99165,194.83303c0,-2.11232 1.71238,-3.8247 3.8247,-3.8247c2.11232,0 3.8247,1.71238 3.8247,3.8247c0,2.11232 -1.71238,3.8247 -3.8247,3.8247c-2.11232,0 -3.8247,-1.71238 -3.8247,-3.8247z" fill="#181818" stroke-linecap="butt"/><path d="M199.61495,214.00695c-4.29258,2.45953 -6.82359,0.84553 -8.45407,-2.00012c-1.63046,-2.84566 0.5276,-7.14635 4.8202,-9.60587c4.29259,-2.45952 8.19351,-3.71846 9.82397,-0.87281c0.62972,1.09904 0.89706,8.41807 -6.19011,12.47881z" data-paper-data="{&quot;index&quot;:null}" fill="#181818" stroke-linecap="butt"/></g></g></svg>