<svg version="1.1" xmlns="http://www.w3.org/2000/svg" xmlns:xlink="http://www.w3.org/1999/xlink" width="129.95301" height="85.45344" viewBox="0,0,129.95301,85.45344"><defs><linearGradient x1="270.03629" y1="171.0402" x2="246.2638" y2="188.79153" gradientUnits="userSpaceOnUse" id="color-1"><stop offset="0" stop-color="#e80000" stop-opacity="0"/><stop offset="1" stop-color="#e80000"/></linearGradient><linearGradient x1="256.96648" y1="177.11925" x2="233.194" y2="194.87058" gradientUnits="userSpaceOnUse" id="color-2"><stop offset="0" stop-color="#e80000" stop-opacity="0"/><stop offset="1" stop-color="#e80000"/></linearGradient><linearGradient x1="304.77719" y1="225.45918" x2="304.77719" y2="201.90686" gradientUnits="userSpaceOnUse" id="color-3"><stop offset="0" stop-color="#ff3100"/><stop offset="1" stop-color="#ff8d00"/></linearGradient><linearGradient x1="305.06635" y1="224.03793" x2="305.06635" y2="207.87184" gradientUnits="userSpaceOnUse" id="color-4"><stop offset="0" stop-color="#ffe049"/><stop offset="1" stop-color="#fff3e5"/></linearGradient></defs><g transform="translate(-209.43861,-140.3705)"><g data-paper-data="{&quot;isPaintingLayer&quot;:true}" fill-rule="nonzero" stroke="#000000" stroke-linejoin="miter" stroke-miterlimit="10" stroke-dasharray="" stroke-dashoffset="0" style="mix-blend-mode: normal"><path d="M262.98776,201.40224c-2.10972,0.1047 -3.90488,-1.52069 -4.00959,-3.63041c-0.1047,-2.10972 1.52069,-3.90488 3.63041,-4.00959c2.10972,-0.1047 3.90488,1.52069 4.00959,3.63041c0.1047,2.10972 -1.52069,3.90488 -3.63041,4.00959z" data-paper-data="{&quot;index&quot;:null}" fill="#e80000" stroke-width="2" stroke-linecap="butt"/><path d="M231.63747,203.41141l0.93984,-25.54781l7.84539,0.28862l-0.93984,25.54781z" fill="#e80000" stroke-width="2" stroke-linecap="butt"/><path d="M217.54729,155.75504c0,0 2.92729,-0.9007 4.96228,-1.00053c1.61214,-0.07908 6.27722,0.4492 6.27722,0.4492" fill="none" stroke-width="2" stroke-linecap="round"/><path d="M210.43862,157.65982c0.36987,-2.81073 2.94825,-4.78944 5.75898,-4.41957c2.81073,0.36987 4.78944,2.94825 4.41957,5.75898c-0.36987,2.81073 -2.94825,4.78944 -5.75898,4.41957c-2.81073,-0.36987 -4.78944,-2.94825 -4.41957,-5.75898z" fill="#e80000" stroke-width="2" stroke-linecap="butt"/><path d="M227.17844,161.30093c-1.40358,-9.0639 4.80634,-17.54946 13.87023,-18.95303c9.0639,-1.40358 17.54946,4.80634 18.95303,13.87023c1.40358,9.0639 -4.80634,17.54946 -13.87023,18.95303c-9.0639,1.40358 -17.54946,-4.80634 -18.95303,-13.87023z" fill="#e80000" stroke-width="2" stroke-linecap="butt"/><path d="M224.69319,213.75245c4.11347,0 7.4481,2.47844 7.4481,5.53575c0,3.05731 -3.33463,5.53575 -7.4481,5.53575c-4.11347,0 -7.4481,-2.47844 -7.4481,-5.53575c0,-3.05731 3.33463,-5.53575 7.4481,-5.53575z" data-paper-data="{&quot;index&quot;:null}" fill="#e80000" stroke-width="2" stroke-linecap="butt"/><path d="M255.24949,211.30185c4.90323,-0.6587 6.63848,1.79077 7.07515,5.04123c0.43666,3.25046 -3.1842,6.41946 -8.08745,7.07816c-4.90323,0.6587 -8.99087,0.35323 -9.42753,-2.89723c-0.16865,-1.25538 2.34447,-8.13462 10.43983,-9.22215z" data-paper-data="{&quot;index&quot;:null}" fill="#e80000" stroke-width="2" stroke-linecap="butt"/><path d="M225.88933,160.00591l-2.20919,-5.14583l30.69116,-13.17619l2.20918,5.14582z" fill="#ff2121" stroke-width="2" stroke-linecap="butt"/><path d="M251.02419,208.02622c-2.10972,0.1047 -3.90488,-1.52069 -4.00959,-3.63041c-0.1047,-2.10972 1.52069,-3.90488 3.63041,-4.00959c2.10972,-0.1047 3.90488,1.52069 4.00959,3.63041c0.1047,2.10972 -1.52069,3.90488 -3.63041,4.00959z" data-paper-data="{&quot;index&quot;:null}" fill="#e80000" stroke-width="2" stroke-linecap="butt"/><path d="M257.76666,202.2475c-6.3774,-5.58342 -1.53689,-10.75234 -0.54321,-22.78654c1.10905,-13.43114 -10.33467,-23.93796 -10.33467,-23.93796c0,0 18.9822,2.73717 23.02477,16.7024c2.71374,9.37468 4.00182,18.05263 1.28693,24.76271c-2.71489,6.71009 -7.05642,10.84281 -13.43381,5.2594z" data-paper-data="{&quot;index&quot;:null}" fill="url(#color-1)" stroke-width="0" stroke-linecap="butt"/><path d="M244.15367,185.54001c1.10904,-13.43113 -10.33467,-23.93796 -10.33467,-23.93796c0,0 18.9822,2.73717 23.02477,16.70239c2.71374,9.37468 4.00183,18.05263 1.28693,24.76271c-2.71489,6.71009 -7.05642,10.84281 -13.43381,5.2594c-6.37741,-5.58343 -1.5369,-10.75234 -0.54322,-22.78654z" data-paper-data="{&quot;index&quot;:null}" fill="url(#color-2)" stroke-width="0" stroke-linecap="butt"/><path d="M304.16273,196.9705c0,0 35.2289,10.20873 35.2289,16.71252c0,6.50379 -15.49741,11.77616 -34.61444,11.77616c-19.11703,0 -34.61444,-5.27237 -34.61444,-11.77616c0,-6.50379 33.99998,-16.71252 33.99998,-16.71252z" fill="url(#color-3)" stroke-width="0" stroke-linecap="butt"/><path d="M305.06635,205.65466c0,0 23.75903,5.83608 23.75903,10.30023c0,4.46414 -10.63728,8.08305 -23.75903,8.08305c-13.12175,0 -23.75902,-3.6189 -23.75902,-8.08305c0,-4.46414 23.75902,-10.30023 23.75902,-10.30023z" fill="url(#color-4)" stroke-width="0" stroke-linecap="butt"/></g></g></svg>