<svg version="1.1" xmlns="http://www.w3.org/2000/svg" xmlns:xlink="http://www.w3.org/1999/xlink" width="70.79786" height="105.87098" viewBox="0,0,70.79786,105.87098"><g transform="translate(-207.97816,-120.54355)"><g data-paper-data="{&quot;isPaintingLayer&quot;:true}" fill-rule="nonzero" stroke="#000000" stroke-width="2" stroke-linejoin="miter" stroke-miterlimit="10" stroke-dasharray="" stroke-dashoffset="0" style="mix-blend-mode: normal"><path d="M230.73672,205.73124c0,-2.11232 1.71238,-3.8247 3.8247,-3.8247c2.11232,0 3.8247,1.71238 3.8247,3.8247c0,2.11232 -1.71238,3.8247 -3.8247,3.8247c-2.11232,0 -3.8247,-1.71238 -3.8247,-3.8247z" fill="#1d28e8" stroke-linecap="butt"/><path d="M228.37364,158.60703c0.68069,-9.14664 8.6473,-16.00965 17.79393,-15.32896c9.14664,0.68069 16.00964,8.6473 15.32895,17.79393c-0.68068,9.14664 -8.6473,16.00965 -17.79393,15.32896c-9.14664,-0.68069 -16.00964,-8.6473 -15.32895,-17.79393z" fill="#1d28e8" stroke-linecap="butt"/><path d="M236.82468,205.08028l1.89728,-25.49459l7.82905,0.58263l-1.89728,25.49459z" fill="#1d28e8" stroke-linecap="butt"/><path d="M222.53572,205.26369c0,-2.11232 1.71238,-3.8247 3.8247,-3.8247c2.11232,0 3.8247,1.71238 3.8247,3.8247c0,2.11232 -1.71238,3.8247 -3.8247,3.8247c-2.11232,0 -3.8247,-1.71238 -3.8247,-3.8247z" fill="#1d28e8" stroke-linecap="butt"/><path d="M218.62172,161.50211c0,0 2.48672,-1.7879 4.3834,-2.532c1.50258,-0.58948 6.09228,-1.57779 6.09228,-1.57779" fill="none" stroke-linecap="round"/><path d="M209.07544,165.12157c-0.54657,-2.78178 1.26541,-5.47993 4.04718,-6.0265c2.78178,-0.54657 5.47993,1.2654 6.0265,4.04718c0.54657,2.78178 -1.2654,5.47993 -4.04718,6.0265c-2.78178,0.54657 -5.47993,-1.2654 -6.0265,-4.04718z" fill="#1d28e8" stroke-linecap="butt"/><path d="M259.54029,206.62107c4.92357,-0.4837 6.57052,2.026 6.89118,5.28994c0.32065,3.26394 -3.41075,6.30202 -8.33434,6.7857c-4.92357,0.4837 -8.99774,0.03288 -9.31839,-3.23107c-0.12385,-1.26059 2.63263,-8.04599 10.76157,-8.84459z" data-paper-data="{&quot;index&quot;:null}" fill="#1d28e8" stroke-linecap="butt"/><path d="M228.23526,157.78941l-9.50302,-20.99331l38.28311,-14.81794l1.28964,28.47713l20.23552,-4.85637z" fill="#2530ff" stroke-linecap="round"/><path d="M230.00553,217.43312c1.68097,4.65295 -0.34603,6.86707 -3.43056,7.98141c-3.08455,1.11435 -6.94775,-1.75426 -8.62872,-6.40722c-1.68097,-4.65295 -2.24705,-8.71271 0.83749,-9.82705c1.1913,-0.43038 8.44647,0.57072 11.22179,8.25286z" data-paper-data="{&quot;index&quot;:null}" fill="#1d28e8" stroke-linecap="butt"/></g></g></svg>