<svg version="1.1" xmlns="http://www.w3.org/2000/svg" xmlns:xlink="http://www.w3.org/1999/xlink" width="98.03389" height="112.52649" viewBox="0,0,98.03389,112.52649"><g transform="translate(-215.1467,-114.56302)"><g data-paper-data="{&quot;isPaintingLayer&quot;:true}" fill-rule="nonzero" stroke="#000000" stroke-width="2" stroke-linejoin="miter" stroke-miterlimit="10" stroke-dasharray="" stroke-dashoffset="0" style="mix-blend-mode: normal"><path d="M306.77712,189.45371c-1.55932,-1.42493 -1.66827,-3.84415 -0.24334,-5.40347c1.42493,-1.55932 3.84415,-1.66827 5.40347,-0.24334c1.55932,1.42493 1.66827,3.84415 0.24334,5.40347c-1.42493,1.55932 -3.84415,1.66827 -5.40347,0.24334z" fill="#ff6b00" stroke-linecap="butt"/><path d="M255.54488,169.08157c0,-9.17193 7.43532,-16.60724 16.60724,-16.60724c9.17193,0 16.60724,7.43532 16.60724,16.60724c0,9.17193 -7.43532,16.60724 -16.60724,16.60724c-9.17193,0 -16.60724,-7.43532 -16.60724,-16.60724z" fill="#ff6b00" stroke-linecap="butt"/><path d="M239.56872,206.09055l12.68513,-22.19596l6.81609,3.89543l-12.68514,22.19596z" data-paper-data="{&quot;index&quot;:null}" fill="#ff6b00" stroke-linecap="butt"/><path d="M305.5076,195.85195c-1.55932,-1.42493 -1.66827,-3.84415 -0.24334,-5.40347c1.42493,-1.55932 3.84415,-1.66827 5.40347,-0.24334c1.55932,1.42493 1.66827,3.84415 0.24334,5.40347c-1.42493,1.55932 -3.84415,1.66827 -5.40347,0.24334z" fill="#ff6b00" stroke-linecap="butt"/><path d="M223.5948,215.01801c4.11347,0 7.4481,2.47844 7.4481,5.53575c0,3.05731 -3.33463,5.53575 -7.4481,5.53575c-4.11347,0 -7.4481,-2.47844 -7.4481,-5.53575c0,-3.05731 3.33463,-5.53575 7.4481,-5.53575z" data-paper-data="{&quot;index&quot;:null}" fill="#ff6b00" stroke-linecap="butt"/><path d="M245.04079,163.03061c0,0 2.73841,-1.37169 4.72896,-1.80614c1.57696,-0.34418 6.26523,-0.59344 6.26523,-0.59344" fill="none" stroke-linecap="round"/><path d="M235.0419,165.09317c-0.0993,-2.83322 2.11697,-5.21051 4.9502,-5.30981c2.83322,-0.0993 5.2105,2.11697 5.3098,4.95019c0.0993,2.83322 -2.11697,5.21051 -4.9502,5.30981c-2.83322,0.0993 -5.2105,-2.11697 -5.3098,-4.95019z" fill="#ff6b00" stroke-linecap="butt"/><path d="M261.79495,213.74181c4.89738,-0.7009 6.65366,1.73353 7.1183,4.98011c0.46464,3.24658 -3.1288,6.44664 -8.02619,7.14755c-4.89738,0.7009 -8.98749,0.43065 -9.45213,-2.81593c-0.17945,-1.25388 2.27433,-8.15451 10.36002,-9.31172z" data-paper-data="{&quot;index&quot;:null}" fill="#ff6b00" stroke-linecap="butt"/><path d="M250.98408,172.43727l4.22817,-12.18351l-26.62972,-21.39582l41.5955,-22.71252l4.14025,33.37304l12.53391,2.91357z" data-paper-data="{&quot;index&quot;:null}" fill="#ffa340" stroke-linecap="butt"/></g></g></svg>