<svg version="1.1" xmlns="http://www.w3.org/2000/svg" xmlns:xlink="http://www.w3.org/1999/xlink" width="50.59506" height="82.91408" viewBox="0,0,50.59506,82.91408"><g transform="translate(-217.78036,-143.03374)"><g data-paper-data="{&quot;isPaintingLayer&quot;:true}" fill-rule="nonzero" stroke="#000000" stroke-width="2" stroke-linejoin="miter" stroke-miterlimit="10" stroke-dasharray="" stroke-dashoffset="0" style="mix-blend-mode: normal"><path d="M234.42085,195.0094c0,-2.11232 1.71238,-3.8247 3.8247,-3.8247c2.11232,0 3.8247,1.71238 3.8247,3.8247c0,2.11232 -1.71238,3.8247 -3.8247,3.8247c-2.11232,0 -3.8247,-1.71238 -3.8247,-3.8247z" fill="#e80000" stroke-linecap="butt"/><path d="M227.2522,163.32297c0,0 1.72519,-2.53062 3.25296,-3.8786c1.21032,-1.06788 5.18514,-3.56645 5.18514,-3.56645" fill="none" stroke-linecap="round"/><path d="M219.51973,169.98937c-1.46509,-2.42704 -0.68529,-5.58223 1.74175,-7.04732c2.42704,-1.46509 5.58223,-0.68529 7.04732,1.74175c1.46509,2.42704 0.68529,5.58223 -1.74175,7.04732c-2.42704,1.46509 -5.58223,0.68529 -7.04732,-1.74175z" fill="#e80000" stroke-linecap="butt"/><path d="M234.16093,160.64098c0,-9.17193 7.43532,-16.60724 16.60724,-16.60724c9.17193,0 16.60724,7.43532 16.60724,16.60724c0,9.17193 -7.43532,16.60724 -16.60724,16.60724c-9.17193,0 -16.60724,-7.43532 -16.60724,-16.60724z" fill="#e80000" stroke-linecap="butt"/><path d="M236.56741,206.26307l5.02366,-25.06665l7.69763,1.5427l-5.02366,25.06665z" fill="#e80000" stroke-linecap="butt"/><path d="M220.53506,189.98221c0,-2.11232 1.71238,-3.8247 3.8247,-3.8247c2.11232,0 3.8247,1.71238 3.8247,3.8247c0,2.11232 -1.71238,3.8247 -3.8247,3.8247c-2.11232,0 -3.8247,-1.71238 -3.8247,-3.8247z" fill="#e80000" stroke-linecap="butt"/><path d="M227.18278,213.75242c4.11347,0 7.4481,2.47844 7.4481,5.53575c0,3.05731 -3.33463,5.53575 -7.4481,5.53575c-4.11347,0 -7.4481,-2.47844 -7.4481,-5.53575c0,-3.05731 3.33463,-5.53575 7.4481,-5.53575z" data-paper-data="{&quot;index&quot;:null}" fill="#e80000" stroke-linecap="butt"/><path d="M260.24381,213.07112c4.94728,0 6.34095,2.65869 6.34095,5.93835c0,3.27966 -4.01056,5.93835 -8.95785,5.93835c-4.94728,0 -8.95785,-0.84699 -8.95785,-4.12665c0,-1.26666 3.40667,-7.75005 11.57475,-7.75005z" data-paper-data="{&quot;index&quot;:null}" fill="#e80000" stroke-linecap="butt"/><path d="M233.08518,159.16396l-1.3957,-5.42329l32.34602,-8.32434l1.3957,5.42328z" fill="#ff2121" stroke-linecap="butt"/></g></g></svg>