<svg version="1.1" xmlns="http://www.w3.org/2000/svg" xmlns:xlink="http://www.w3.org/1999/xlink" width="198.78536" height="62.99037" viewBox="0,0,198.78536,62.99037"><defs><linearGradient x1="184.3928" y1="185.06942" x2="184.3928" y2="188.2939" gradientUnits="userSpaceOnUse" id="color-1"><stop offset="0" stop-color="#61a83b"/><stop offset="1" stop-color="#82fc58"/></linearGradient><linearGradient x1="184.81354" y1="185.04209" x2="184.81354" y2="188.26657" gradientUnits="userSpaceOnUse" id="color-2"><stop offset="0" stop-color="#61a83b"/><stop offset="1" stop-color="#82fc58"/></linearGradient><linearGradient x1="185.97678" y1="185.17872" x2="185.97678" y2="188.4032" gradientUnits="userSpaceOnUse" id="color-3"><stop offset="0" stop-color="#61a83b"/><stop offset="1" stop-color="#82fc58"/></linearGradient><linearGradient x1="185.55603" y1="185.1514" x2="185.55603" y2="188.37588" gradientUnits="userSpaceOnUse" id="color-4"><stop offset="0" stop-color="#61a83b"/><stop offset="1" stop-color="#82fc58"/></linearGradient><linearGradient x1="188.45891" y1="184.99534" x2="188.45891" y2="188.21982" gradientUnits="userSpaceOnUse" id="color-5"><stop offset="0" stop-color="#61a83b"/><stop offset="1" stop-color="#82fc58"/></linearGradient><linearGradient x1="188.03816" y1="184.96802" x2="188.03816" y2="188.1925" gradientUnits="userSpaceOnUse" id="color-6"><stop offset="0" stop-color="#61a83b"/><stop offset="1" stop-color="#82fc58"/></linearGradient><linearGradient x1="186.87493" y1="185.10465" x2="186.87493" y2="188.32913" gradientUnits="userSpaceOnUse" id="color-7"><stop offset="0" stop-color="#61a83b"/><stop offset="1" stop-color="#82fc58"/></linearGradient><linearGradient x1="187.29568" y1="185.07733" x2="187.29568" y2="188.30181" gradientUnits="userSpaceOnUse" id="color-8"><stop offset="0" stop-color="#61a83b"/><stop offset="1" stop-color="#82fc58"/></linearGradient><linearGradient x1="276.83748" y1="154.19206" x2="275.90371" y2="167.73905" gradientUnits="userSpaceOnUse" id="color-9"><stop offset="0" stop-color="#43a93c"/><stop offset="1" stop-color="#369936"/></linearGradient><linearGradient x1="282.85146" y1="157.67222" x2="281.91769" y2="171.21921" gradientUnits="userSpaceOnUse" id="color-10"><stop offset="0" stop-color="#43a93c"/><stop offset="1" stop-color="#369936"/></linearGradient><linearGradient x1="271.36243" y1="157.12554" x2="270.54642" y2="168.9639" gradientUnits="userSpaceOnUse" id="color-11"><stop offset="0" stop-color="#43a93c"/><stop offset="1" stop-color="#369936"/></linearGradient><linearGradient x1="204.1558" y1="154.05898" x2="206.99002" y2="170.21881" gradientUnits="userSpaceOnUse" id="color-12"><stop offset="0" stop-color="#43a93c"/><stop offset="1" stop-color="#369936"/></linearGradient><linearGradient x1="197.1051" y1="159.00967" x2="199.93932" y2="175.16949" gradientUnits="userSpaceOnUse" id="color-13"><stop offset="0" stop-color="#43a93c"/><stop offset="1" stop-color="#369936"/></linearGradient><linearGradient x1="211.32812" y1="156.88432" x2="213.80487" y2="171.00597" gradientUnits="userSpaceOnUse" id="color-14"><stop offset="0" stop-color="#43a93c"/><stop offset="1" stop-color="#369936"/></linearGradient><linearGradient x1="256.43078" y1="178.13684" x2="256.43078" y2="190.47017" gradientUnits="userSpaceOnUse" id="color-15"><stop offset="0" stop-color="#43a93c"/><stop offset="1" stop-color="#369936"/></linearGradient><linearGradient x1="252.76411" y1="180.13684" x2="252.76411" y2="192.47017" gradientUnits="userSpaceOnUse" id="color-16"><stop offset="0" stop-color="#43a93c"/><stop offset="1" stop-color="#369936"/></linearGradient><linearGradient x1="261.98634" y1="179.02573" x2="261.98634" y2="189.80351" gradientUnits="userSpaceOnUse" id="color-17"><stop offset="0" stop-color="#43a93c"/><stop offset="1" stop-color="#369936"/></linearGradient><linearGradient x1="231.98633" y1="176.91462" x2="231.98633" y2="189.24796" gradientUnits="userSpaceOnUse" id="color-18"><stop offset="0" stop-color="#43a93c"/><stop offset="1" stop-color="#369936"/></linearGradient><linearGradient x1="237.653" y1="179.6924" x2="237.653" y2="192.02574" gradientUnits="userSpaceOnUse" id="color-19"><stop offset="0" stop-color="#43a93c"/><stop offset="1" stop-color="#369936"/></linearGradient><linearGradient x1="227.20856" y1="179.91462" x2="227.20856" y2="190.6924" gradientUnits="userSpaceOnUse" id="color-20"><stop offset="0" stop-color="#43a93c"/><stop offset="1" stop-color="#369936"/></linearGradient><linearGradient x1="239.90278" y1="188.11115" x2="239.90278" y2="203.88893" gradientUnits="userSpaceOnUse" id="color-21"><stop offset="0" stop-color="#7cfe58"/><stop offset="1" stop-color="#6fe34f"/></linearGradient><linearGradient x1="179.3928" y1="185.14085" x2="179.3928" y2="188.36533" gradientUnits="userSpaceOnUse" id="color-22"><stop offset="0" stop-color="#61a83b"/><stop offset="1" stop-color="#82fc58"/></linearGradient><linearGradient x1="179.81354" y1="185.11352" x2="179.81354" y2="188.338" gradientUnits="userSpaceOnUse" id="color-23"><stop offset="0" stop-color="#61a83b"/><stop offset="1" stop-color="#82fc58"/></linearGradient><linearGradient x1="180.97678" y1="185.25015" x2="180.97678" y2="188.47463" gradientUnits="userSpaceOnUse" id="color-24"><stop offset="0" stop-color="#61a83b"/><stop offset="1" stop-color="#82fc58"/></linearGradient><linearGradient x1="180.55603" y1="185.22283" x2="180.55603" y2="188.44731" gradientUnits="userSpaceOnUse" id="color-25"><stop offset="0" stop-color="#61a83b"/><stop offset="1" stop-color="#82fc58"/></linearGradient><linearGradient x1="183.4589" y1="185.06677" x2="183.4589" y2="188.29125" gradientUnits="userSpaceOnUse" id="color-26"><stop offset="0" stop-color="#61a83b"/><stop offset="1" stop-color="#82fc58"/></linearGradient><linearGradient x1="183.03815" y1="185.03945" x2="183.03815" y2="188.26393" gradientUnits="userSpaceOnUse" id="color-27"><stop offset="0" stop-color="#61a83b"/><stop offset="1" stop-color="#82fc58"/></linearGradient><linearGradient x1="181.87492" y1="185.17608" x2="181.87492" y2="188.40056" gradientUnits="userSpaceOnUse" id="color-28"><stop offset="0" stop-color="#61a83b"/><stop offset="1" stop-color="#82fc58"/></linearGradient><linearGradient x1="182.29567" y1="185.14876" x2="182.29567" y2="188.37324" gradientUnits="userSpaceOnUse" id="color-29"><stop offset="0" stop-color="#61a83b"/><stop offset="1" stop-color="#82fc58"/></linearGradient><linearGradient x1="218.17058" y1="185.40276" x2="218.17058" y2="188.62724" gradientUnits="userSpaceOnUse" id="color-30"><stop offset="0" stop-color="#61a83b"/><stop offset="1" stop-color="#82fc58"/></linearGradient><linearGradient x1="218.59132" y1="185.37543" x2="218.59132" y2="188.59991" gradientUnits="userSpaceOnUse" id="color-31"><stop offset="0" stop-color="#61a83b"/><stop offset="1" stop-color="#82fc58"/></linearGradient><linearGradient x1="219.75456" y1="185.51206" x2="219.75456" y2="188.73654" gradientUnits="userSpaceOnUse" id="color-32"><stop offset="0" stop-color="#61a83b"/><stop offset="1" stop-color="#82fc58"/></linearGradient><linearGradient x1="219.33381" y1="185.48474" x2="219.33381" y2="188.70922" gradientUnits="userSpaceOnUse" id="color-33"><stop offset="0" stop-color="#61a83b"/><stop offset="1" stop-color="#82fc58"/></linearGradient><linearGradient x1="201.12558" y1="184.99535" x2="201.12558" y2="188.21983" gradientUnits="userSpaceOnUse" id="color-34"><stop offset="0" stop-color="#61a83b"/><stop offset="1" stop-color="#82fc58"/></linearGradient><linearGradient x1="200.70483" y1="184.96803" x2="200.70483" y2="188.19251" gradientUnits="userSpaceOnUse" id="color-35"><stop offset="0" stop-color="#61a83b"/><stop offset="1" stop-color="#82fc58"/></linearGradient><linearGradient x1="199.5416" y1="185.10466" x2="199.5416" y2="188.32914" gradientUnits="userSpaceOnUse" id="color-36"><stop offset="0" stop-color="#61a83b"/><stop offset="1" stop-color="#82fc58"/></linearGradient><linearGradient x1="199.96235" y1="185.07734" x2="199.96235" y2="188.30182" gradientUnits="userSpaceOnUse" id="color-37"><stop offset="0" stop-color="#61a83b"/><stop offset="1" stop-color="#82fc58"/></linearGradient><linearGradient x1="210.61502" y1="185.47419" x2="210.61502" y2="188.69867" gradientUnits="userSpaceOnUse" id="color-38"><stop offset="0" stop-color="#61a83b"/><stop offset="1" stop-color="#82fc58"/></linearGradient><linearGradient x1="211.03576" y1="185.44686" x2="211.03576" y2="188.67134" gradientUnits="userSpaceOnUse" id="color-39"><stop offset="0" stop-color="#61a83b"/><stop offset="1" stop-color="#82fc58"/></linearGradient><linearGradient x1="212.199" y1="185.58349" x2="212.199" y2="188.80797" gradientUnits="userSpaceOnUse" id="color-40"><stop offset="0" stop-color="#61a83b"/><stop offset="1" stop-color="#82fc58"/></linearGradient><linearGradient x1="211.77825" y1="185.55617" x2="211.77825" y2="188.78065" gradientUnits="userSpaceOnUse" id="color-41"><stop offset="0" stop-color="#61a83b"/><stop offset="1" stop-color="#82fc58"/></linearGradient><linearGradient x1="216.01446" y1="185.40011" x2="216.01446" y2="188.62459" gradientUnits="userSpaceOnUse" id="color-42"><stop offset="0" stop-color="#61a83b"/><stop offset="1" stop-color="#82fc58"/></linearGradient><linearGradient x1="215.59371" y1="185.37279" x2="215.59371" y2="188.59727" gradientUnits="userSpaceOnUse" id="color-43"><stop offset="0" stop-color="#61a83b"/><stop offset="1" stop-color="#82fc58"/></linearGradient><linearGradient x1="214.43048" y1="185.50942" x2="214.43048" y2="188.7339" gradientUnits="userSpaceOnUse" id="color-44"><stop offset="0" stop-color="#61a83b"/><stop offset="1" stop-color="#82fc58"/></linearGradient><linearGradient x1="214.85123" y1="185.4821" x2="214.85123" y2="188.70658" gradientUnits="userSpaceOnUse" id="color-45"><stop offset="0" stop-color="#61a83b"/><stop offset="1" stop-color="#82fc58"/></linearGradient><linearGradient x1="245.61502" y1="185.40276" x2="245.61502" y2="188.62724" gradientUnits="userSpaceOnUse" id="color-46"><stop offset="0" stop-color="#61a83b"/><stop offset="1" stop-color="#82fc58"/></linearGradient><linearGradient x1="246.03576" y1="185.37543" x2="246.03576" y2="188.59991" gradientUnits="userSpaceOnUse" id="color-47"><stop offset="0" stop-color="#61a83b"/><stop offset="1" stop-color="#82fc58"/></linearGradient><linearGradient x1="247.199" y1="185.51206" x2="247.199" y2="188.73654" gradientUnits="userSpaceOnUse" id="color-48"><stop offset="0" stop-color="#61a83b"/><stop offset="1" stop-color="#82fc58"/></linearGradient><linearGradient x1="246.77825" y1="185.48474" x2="246.77825" y2="188.70922" gradientUnits="userSpaceOnUse" id="color-49"><stop offset="0" stop-color="#61a83b"/><stop offset="1" stop-color="#82fc58"/></linearGradient><linearGradient x1="268.28169" y1="185.14086" x2="268.28169" y2="188.36534" gradientUnits="userSpaceOnUse" id="color-50"><stop offset="0" stop-color="#61a83b"/><stop offset="1" stop-color="#82fc58"/></linearGradient><linearGradient x1="268.70243" y1="185.11353" x2="268.70243" y2="188.33801" gradientUnits="userSpaceOnUse" id="color-51"><stop offset="0" stop-color="#61a83b"/><stop offset="1" stop-color="#82fc58"/></linearGradient><linearGradient x1="269.86567" y1="185.25016" x2="269.86567" y2="188.47464" gradientUnits="userSpaceOnUse" id="color-52"><stop offset="0" stop-color="#61a83b"/><stop offset="1" stop-color="#82fc58"/></linearGradient><linearGradient x1="269.44492" y1="185.22284" x2="269.44492" y2="188.44732" gradientUnits="userSpaceOnUse" id="color-53"><stop offset="0" stop-color="#61a83b"/><stop offset="1" stop-color="#82fc58"/></linearGradient><linearGradient x1="244.68112" y1="185.40011" x2="244.68112" y2="188.62459" gradientUnits="userSpaceOnUse" id="color-54"><stop offset="0" stop-color="#61a83b"/><stop offset="1" stop-color="#82fc58"/></linearGradient><linearGradient x1="244.26037" y1="185.37279" x2="244.26037" y2="188.59727" gradientUnits="userSpaceOnUse" id="color-55"><stop offset="0" stop-color="#61a83b"/><stop offset="1" stop-color="#82fc58"/></linearGradient><linearGradient x1="243.09714" y1="185.50942" x2="243.09714" y2="188.7339" gradientUnits="userSpaceOnUse" id="color-56"><stop offset="0" stop-color="#61a83b"/><stop offset="1" stop-color="#82fc58"/></linearGradient><linearGradient x1="243.51789" y1="185.4821" x2="243.51789" y2="188.70658" gradientUnits="userSpaceOnUse" id="color-57"><stop offset="0" stop-color="#61a83b"/><stop offset="1" stop-color="#82fc58"/></linearGradient><linearGradient x1="279.25644" y1="183.69843" x2="279.25644" y2="188.24297" gradientUnits="userSpaceOnUse" id="color-58"><stop offset="0" stop-color="#61a83b"/><stop offset="1" stop-color="#82fc58"/></linearGradient><linearGradient x1="279.67718" y1="183.65991" x2="279.67718" y2="188.20445" gradientUnits="userSpaceOnUse" id="color-59"><stop offset="0" stop-color="#61a83b"/><stop offset="1" stop-color="#82fc58"/></linearGradient><linearGradient x1="280.84042" y1="183.85248" x2="280.84042" y2="188.39701" gradientUnits="userSpaceOnUse" id="color-60"><stop offset="0" stop-color="#61a83b"/><stop offset="1" stop-color="#82fc58"/></linearGradient><linearGradient x1="280.41967" y1="183.81397" x2="280.41967" y2="188.35851" gradientUnits="userSpaceOnUse" id="color-61"><stop offset="0" stop-color="#61a83b"/><stop offset="1" stop-color="#82fc58"/></linearGradient><linearGradient x1="281.66553" y1="184.1228" x2="281.66553" y2="188.27488" gradientUnits="userSpaceOnUse" id="color-62"><stop offset="0" stop-color="#61a83b"/><stop offset="1" stop-color="#82fc58"/></linearGradient><linearGradient x1="282.08627" y1="184.08761" x2="282.08627" y2="188.23969" gradientUnits="userSpaceOnUse" id="color-63"><stop offset="0" stop-color="#61a83b"/><stop offset="1" stop-color="#82fc58"/></linearGradient><linearGradient x1="283.24951" y1="184.26354" x2="283.24951" y2="188.41562" gradientUnits="userSpaceOnUse" id="color-64"><stop offset="0" stop-color="#61a83b"/><stop offset="1" stop-color="#82fc58"/></linearGradient><linearGradient x1="282.82876" y1="184.22836" x2="282.82876" y2="188.38044" gradientUnits="userSpaceOnUse" id="color-65"><stop offset="0" stop-color="#61a83b"/><stop offset="1" stop-color="#82fc58"/></linearGradient><linearGradient x1="283.80189" y1="183.7811" x2="283.80189" y2="188.32564" gradientUnits="userSpaceOnUse" id="color-66"><stop offset="0" stop-color="#61a83b"/><stop offset="1" stop-color="#82fc58"/></linearGradient><linearGradient x1="284.22263" y1="183.74258" x2="284.22263" y2="188.28712" gradientUnits="userSpaceOnUse" id="color-67"><stop offset="0" stop-color="#61a83b"/><stop offset="1" stop-color="#82fc58"/></linearGradient><linearGradient x1="285.38587" y1="183.93515" x2="285.38587" y2="188.47968" gradientUnits="userSpaceOnUse" id="color-68"><stop offset="0" stop-color="#61a83b"/><stop offset="1" stop-color="#82fc58"/></linearGradient><linearGradient x1="284.96512" y1="183.89664" x2="284.96512" y2="188.44118" gradientUnits="userSpaceOnUse" id="color-69"><stop offset="0" stop-color="#61a83b"/><stop offset="1" stop-color="#82fc58"/></linearGradient><linearGradient x1="287.36521" y1="183.84303" x2="287.36521" y2="188.38757" gradientUnits="userSpaceOnUse" id="color-70"><stop offset="0" stop-color="#61a83b"/><stop offset="1" stop-color="#82fc58"/></linearGradient><linearGradient x1="286.94447" y1="183.80451" x2="286.94447" y2="188.34905" gradientUnits="userSpaceOnUse" id="color-71"><stop offset="0" stop-color="#61a83b"/><stop offset="1" stop-color="#82fc58"/></linearGradient><linearGradient x1="285.78123" y1="183.99708" x2="285.78123" y2="188.54161" gradientUnits="userSpaceOnUse" id="color-72"><stop offset="0" stop-color="#61a83b"/><stop offset="1" stop-color="#82fc58"/></linearGradient><linearGradient x1="286.20198" y1="183.95857" x2="286.20198" y2="188.50311" gradientUnits="userSpaceOnUse" id="color-73"><stop offset="0" stop-color="#61a83b"/><stop offset="1" stop-color="#82fc58"/></linearGradient><linearGradient x1="288.07462" y1="183.14933" x2="288.07462" y2="188.11904" gradientUnits="userSpaceOnUse" id="color-74"><stop offset="0" stop-color="#61a83b"/><stop offset="1" stop-color="#82fc58"/></linearGradient><linearGradient x1="288.49536" y1="183.10721" x2="288.49536" y2="188.07692" gradientUnits="userSpaceOnUse" id="color-75"><stop offset="0" stop-color="#61a83b"/><stop offset="1" stop-color="#82fc58"/></linearGradient><linearGradient x1="289.6586" y1="183.31779" x2="289.6586" y2="188.2875" gradientUnits="userSpaceOnUse" id="color-76"><stop offset="0" stop-color="#61a83b"/><stop offset="1" stop-color="#82fc58"/></linearGradient><linearGradient x1="289.23785" y1="183.27568" x2="289.23785" y2="188.24539" gradientUnits="userSpaceOnUse" id="color-77"><stop offset="0" stop-color="#61a83b"/><stop offset="1" stop-color="#82fc58"/></linearGradient><linearGradient x1="290.21098" y1="183.65298" x2="290.21098" y2="188.19751" gradientUnits="userSpaceOnUse" id="color-78"><stop offset="0" stop-color="#61a83b"/><stop offset="1" stop-color="#82fc58"/></linearGradient><linearGradient x1="290.63172" y1="183.61446" x2="290.63172" y2="188.15899" gradientUnits="userSpaceOnUse" id="color-79"><stop offset="0" stop-color="#61a83b"/><stop offset="1" stop-color="#82fc58"/></linearGradient><linearGradient x1="291.79496" y1="183.80702" x2="291.79496" y2="188.35156" gradientUnits="userSpaceOnUse" id="color-80"><stop offset="0" stop-color="#61a83b"/><stop offset="1" stop-color="#82fc58"/></linearGradient><linearGradient x1="291.37421" y1="183.76852" x2="291.37421" y2="188.31305" gradientUnits="userSpaceOnUse" id="color-81"><stop offset="0" stop-color="#61a83b"/><stop offset="1" stop-color="#82fc58"/></linearGradient><linearGradient x1="221.96781" y1="140.89856" x2="221.96781" y2="148.85462" gradientUnits="userSpaceOnUse" id="color-82"><stop offset="0" stop-color="#ffffff"/><stop offset="1" stop-color="#e6e6e6"/></linearGradient><linearGradient x1="225.62329" y1="142.69047" x2="225.62329" y2="150.64653" gradientUnits="userSpaceOnUse" id="color-83"><stop offset="0" stop-color="#ffffff"/><stop offset="1" stop-color="#e6e6e6"/></linearGradient><linearGradient x1="218.88574" y1="142.83382" x2="218.88574" y2="149.78641" gradientUnits="userSpaceOnUse" id="color-84"><stop offset="0" stop-color="#ffffff"/><stop offset="1" stop-color="#e6e6e6"/></linearGradient><linearGradient x1="251.97088" y1="144.45464" x2="251.97088" y2="150.55877" gradientUnits="userSpaceOnUse" id="color-85"><stop offset="0" stop-color="#ffffff"/><stop offset="1" stop-color="#e6e6e6"/></linearGradient><linearGradient x1="248.31539" y1="145.82944" x2="248.31539" y2="151.93357" gradientUnits="userSpaceOnUse" id="color-86"><stop offset="0" stop-color="#ffffff"/><stop offset="1" stop-color="#e6e6e6"/></linearGradient><linearGradient x1="255.05295" y1="145.93942" x2="255.05295" y2="151.27366" gradientUnits="userSpaceOnUse" id="color-87"><stop offset="0" stop-color="#ffffff"/><stop offset="1" stop-color="#e6e6e6"/></linearGradient></defs><g transform="translate(-140.5101,-140.89856)"><g data-paper-data="{&quot;isPaintingLayer&quot;:true}" fill-rule="nonzero" stroke-width="0" stroke-linejoin="miter" stroke-miterlimit="10" stroke-dasharray="" stroke-dashoffset="0" style="mix-blend-mode: normal"><g stroke="#000000" stroke-linecap="round"><path d="M184.13879,188.26657c0,0 -0.12718,-1.23573 -0.07448,-1.96358c0.05148,-0.71093 0.38711,-2.35395 0.38711,-2.35395c0,0 -0.14595,2.18702 -0.11027,2.98035c0.02701,0.60065 0.30566,1.3645 0.30566,1.3645z" fill="url(#color-1)"/><path d="M184.55953,188.26657l0.19539,-4.34485l0.31263,4.31752z" data-paper-data="{&quot;index&quot;:null}" fill="url(#color-2)"/><path d="M185.72277,188.4032c0,0 0.27865,-0.76386 0.30566,-1.36451c0.03568,-0.79333 -0.11027,-2.98034 -0.11027,-2.98034c0,0 0.33563,1.64302 0.38711,2.35395c0.0527,0.72784 -0.07449,1.96358 -0.07449,1.96358z" data-paper-data="{&quot;index&quot;:null}" fill="url(#color-3)"/><path d="M185.30202,188.34855l0.31263,-4.31752l0.19539,4.34485z" data-paper-data="{&quot;index&quot;:null}" fill="url(#color-4)"/></g><g data-paper-data="{&quot;index&quot;:null}" stroke="#000000" stroke-linecap="round"><path d="M188.2049,188.21982c0,0 0.27865,-0.76386 0.30566,-1.36451c0.03568,-0.79333 -0.11027,-2.98034 -0.11027,-2.98034c0,0 0.33563,1.64302 0.38711,2.35395c0.0527,0.72785 -0.07449,1.96357 -0.07449,1.96357z" fill="url(#color-5)"/><path d="M187.78416,188.16517l0.31263,-4.31752l0.19539,4.34485z" data-paper-data="{&quot;index&quot;:null}" fill="url(#color-6)"/><path d="M186.62092,188.3018c0,0 -0.12719,-1.23573 -0.07449,-1.96357c0.05148,-0.71093 0.38711,-2.35395 0.38711,-2.35395c0,0 -0.14595,2.18702 -0.11027,2.98035c0.02701,0.60064 0.30566,1.36451 0.30566,1.36451z" data-paper-data="{&quot;index&quot;:null}" fill="url(#color-7)"/><path d="M187.04167,188.30181l0.19539,-4.34485l0.31263,4.31753z" data-paper-data="{&quot;index&quot;:null}" fill="url(#color-8)"/></g><path d="M272.58973,188.50108l1.22722,-16.1968l-5.24077,-1.97488l-3.9157,-2.72028l0.77347,-0.29776l-1.93676,-2.20307l6.04271,3.18424l3.56352,0.72043l-0.44908,-2.41147l5.36102,0.21322l-0.25562,6.4131l3.58153,0.84456l7.48176,-0.47633l-2.87358,1.86796l1.29749,0.62984l-2.77789,0.33791l-6.72162,-0.36879l-0.31339,2.70006l0.58132,9.96027z" data-paper-data="{&quot;index&quot;:null}" fill="#ad6222" stroke="none" stroke-linecap="butt"/><g stroke="none" stroke-linecap="butt"><path d="M269.59711,160.49867c0.25785,-3.74089 4.77459,-5.88272 8.51549,-5.62486c3.74089,0.25785 5.28934,3.3733 5.03148,7.11419c-0.25785,3.74089 -3.49948,6.0089 -7.24038,5.75105c-3.74089,-0.25785 -6.56445,-3.49948 -6.3066,-7.24038z" fill="url(#color-9)"/><path d="M275.61108,165.08994c0.25785,-3.74089 1.2522,-7.09472 4.99309,-6.83687c3.74089,0.25785 8.47841,2.14087 8.22055,5.88175c-0.25785,3.74089 -2.27727,6.34224 -6.01816,6.08438c-3.74089,-0.25785 -7.45334,-1.38837 -7.19548,-5.12927z" fill="url(#color-10)"/><path d="M273.07105,157.24331c3.26907,0.22533 4.02788,2.94033 3.80254,6.2094c-0.22533,3.26907 -3.05811,5.73651 -6.32718,5.51118c-3.26907,-0.22533 -6.32121,-3.89995 -5.51118,-7.66051c0.81003,-3.76056 4.76674,-4.2854 8.03581,-4.06007z" fill="url(#color-11)"/></g><path d="M203.36289,188.50108l0.60171,-9.30418l-0.32439,-2.5222l-6.95742,0.3445l-2.87535,-1.31565l1.34301,-0.81057l-0.52995,-1.6338l5.29979,1.55606l3.70718,-0.78892l-0.26459,-5.99066l5.5491,-0.19917l-0.46484,2.25262l3.68853,-0.67297l6.25469,-2.97448l-2.00471,2.05795l0.8006,0.27815l-4.05307,2.54109l-5.42463,1.84479l1.27028,15.12989z" data-paper-data="{&quot;index&quot;:null}" fill="#ad6222" stroke="none" stroke-linecap="butt"/><g data-paper-data="{&quot;index&quot;:null}" stroke="none" stroke-linecap="butt"><path d="M206.99002,170.21881c-4.62124,0.78799 -8.93336,-1.52314 -9.716,-5.98555c-0.78265,-4.46242 0.75869,-8.40409 5.37992,-9.19207c4.62124,-0.78799 10.5038,1.20853 11.28645,5.67095c0.78265,4.46242 -2.32913,8.71869 -6.95037,9.50668z" fill="url(#color-12)"/><path d="M198.71022,174.08141c-4.62123,0.78799 -7.45427,-2.07991 -8.23691,-6.54231c-0.78265,-4.46241 4.87756,-7.33067 9.49879,-8.11866c4.62123,-0.78799 6.27215,3.11517 7.05479,7.57757c0.78265,4.46242 -3.69544,6.29542 -8.31667,7.0834z" fill="url(#color-13)"/><path d="M219.714,161.09608c1.4719,4.41547 -1.87075,9.22129 -5.90912,9.90989c-4.03837,0.6886 -7.86656,-1.91443 -8.55049,-5.81402c-0.68394,-3.89958 -0.07534,-7.25913 3.96303,-7.94773c4.03837,-0.6886 9.02469,-0.56361 10.49659,3.85186z" fill="url(#color-14)"/></g><g data-paper-data="{&quot;index&quot;:null}" stroke="none" stroke-linecap="butt"><path d="M256.43078,190.47017c-3.40576,0 -6.16667,-2.76092 -6.16667,-6.16667c0,-3.40575 1.09425,-6.16666 4.5,-6.16666c3.40576,0 7.83333,2.76091 7.83333,6.16666c0,3.40575 -2.7609,6.16667 -6.16666,6.16667z" fill="url(#color-15)"/><path d="M252.76411,192.47017c-3.40575,0 -5.38889,-1.20536 -5.38889,-4.61111c0,-3.40575 1.64981,-5.3889 5.05556,-5.3889c3.40575,0 6.49999,0.42758 6.49999,3.83334c0,3.40575 -2.76091,6.16667 -6.16666,6.16667z" fill="url(#color-16)"/><path d="M261.98634,189.80351c-2.9762,0 -5.38889,-2.41269 -5.38889,-5.38889c0,-2.9762 0.85713,-5.38889 3.83333,-5.38889c2.9762,0 6.94444,2.41269 6.94444,5.38889c0,2.9762 -2.41269,5.38889 -5.38888,5.38889z" fill="url(#color-17)"/></g><g stroke="none" stroke-linecap="butt"><path d="M225.81967,183.08128c0,-3.40575 4.42757,-6.16667 7.83333,-6.16667c3.40575,0 4.5,2.76091 4.5,6.16667c0,3.40575 -2.76091,6.16667 -6.16667,6.16667c-3.40575,0 -6.16666,-2.76091 -6.16666,-6.16667z" fill="url(#color-18)"/><path d="M231.48633,185.85907c0,-3.40575 0.76091,-5.5 4.16666,-5.5c3.40575,0 8.16667,2.09425 8.16667,5.5c0,3.40575 -2.76092,6.16667 -6.16667,6.16667c-3.40575,0 -6.16666,-2.76091 -6.16666,-6.16667z" fill="url(#color-19)"/><path d="M221.81967,185.30351c0,-2.9762 3.96824,-5.38889 6.94444,-5.38889c2.9762,0 3.83333,2.41269 3.83333,5.38889c0,2.9762 -2.41269,5.38889 -5.38889,5.38889c-2.9762,0 -5.38889,-2.41269 -5.38889,-5.38889z" fill="url(#color-20)"/></g><path d="M140.5101,203.88893v-15.77777h198.78536v15.77777z" fill="url(#color-21)" stroke="none" stroke-linecap="butt"/><g stroke="#000000" stroke-linecap="round"><path d="M179.13879,188.338c0,0 -0.12718,-1.23573 -0.07448,-1.96358c0.05148,-0.71093 0.38711,-2.35395 0.38711,-2.35395c0,0 -0.14595,2.18702 -0.11027,2.98035c0.02701,0.60065 0.30566,1.3645 0.30566,1.3645z" fill="url(#color-22)"/><path d="M179.55953,188.338l0.19539,-4.34485l0.31263,4.31752z" data-paper-data="{&quot;index&quot;:null}" fill="url(#color-23)"/><path d="M180.72277,188.47463c0,0 0.27865,-0.76386 0.30566,-1.36451c0.03568,-0.79333 -0.11027,-2.98034 -0.11027,-2.98034c0,0 0.33563,1.64302 0.38711,2.35395c0.0527,0.72784 -0.07449,1.96358 -0.07449,1.96358z" data-paper-data="{&quot;index&quot;:null}" fill="url(#color-24)"/><path d="M180.30202,188.41998l0.31263,-4.31752l0.19539,4.34485z" data-paper-data="{&quot;index&quot;:null}" fill="url(#color-25)"/></g><g data-paper-data="{&quot;index&quot;:null}" stroke="#000000" stroke-linecap="round"><path d="M183.20489,188.29125c0,0 0.27865,-0.76386 0.30566,-1.36451c0.03568,-0.79333 -0.11027,-2.98034 -0.11027,-2.98034c0,0 0.33563,1.64302 0.38711,2.35395c0.0527,0.72785 -0.07449,1.96357 -0.07449,1.96357z" fill="url(#color-26)"/><path d="M182.78415,188.2366l0.31263,-4.31752l0.19539,4.34485z" data-paper-data="{&quot;index&quot;:null}" fill="url(#color-27)"/><path d="M181.62091,188.37323c0,0 -0.12719,-1.23573 -0.07449,-1.96357c0.05148,-0.71093 0.38711,-2.35395 0.38711,-2.35395c0,0 -0.14595,2.18702 -0.11027,2.98035c0.02701,0.60064 0.30566,1.36451 0.30566,1.36451z" data-paper-data="{&quot;index&quot;:null}" fill="url(#color-28)"/><path d="M182.04166,188.37324l0.19539,-4.34485l0.31263,4.31753z" data-paper-data="{&quot;index&quot;:null}" fill="url(#color-29)"/></g><g stroke="#000000" stroke-linecap="round"><path d="M217.91657,188.59991c0,0 -0.12718,-1.23573 -0.07448,-1.96358c0.05148,-0.71093 0.38711,-2.35395 0.38711,-2.35395c0,0 -0.14595,2.18702 -0.11027,2.98035c0.02701,0.60065 0.30566,1.3645 0.30566,1.3645z" fill="url(#color-30)"/><path d="M218.33731,188.59991l0.19539,-4.34485l0.31263,4.31752z" data-paper-data="{&quot;index&quot;:null}" fill="url(#color-31)"/><path d="M219.50055,188.73654c0,0 0.27865,-0.76386 0.30566,-1.36451c0.03568,-0.79333 -0.11027,-2.98034 -0.11027,-2.98034c0,0 0.33563,1.64302 0.38711,2.35395c0.0527,0.72784 -0.07449,1.96358 -0.07449,1.96358z" data-paper-data="{&quot;index&quot;:null}" fill="url(#color-32)"/><path d="M219.0798,188.68189l0.31263,-4.31752l0.19539,4.34485z" data-paper-data="{&quot;index&quot;:null}" fill="url(#color-33)"/></g><g data-paper-data="{&quot;index&quot;:null}" stroke="#000000" stroke-linecap="round"><path d="M200.87157,188.21983c0,0 0.27865,-0.76386 0.30566,-1.36451c0.03568,-0.79333 -0.11027,-2.98034 -0.11027,-2.98034c0,0 0.33563,1.64302 0.38711,2.35395c0.0527,0.72785 -0.07449,1.96357 -0.07449,1.96357z" fill="url(#color-34)"/><path d="M200.45083,188.16518l0.31263,-4.31752l0.19539,4.34485z" data-paper-data="{&quot;index&quot;:null}" fill="url(#color-35)"/><path d="M199.28759,188.30181c0,0 -0.12719,-1.23573 -0.07449,-1.96357c0.05148,-0.71093 0.38711,-2.35395 0.38711,-2.35395c0,0 -0.14595,2.18702 -0.11027,2.98035c0.02701,0.60064 0.30566,1.36451 0.30566,1.36451z" data-paper-data="{&quot;index&quot;:null}" fill="url(#color-36)"/><path d="M199.70834,188.30182l0.19539,-4.34485l0.31263,4.31753z" data-paper-data="{&quot;index&quot;:null}" fill="url(#color-37)"/></g><g stroke="#000000" stroke-linecap="round"><path d="M210.36101,188.67134c0,0 -0.12718,-1.23573 -0.07448,-1.96358c0.05148,-0.71093 0.38711,-2.35395 0.38711,-2.35395c0,0 -0.14595,2.18702 -0.11027,2.98035c0.02701,0.60065 0.30566,1.3645 0.30566,1.3645z" fill="url(#color-38)"/><path d="M210.78175,188.67134l0.19539,-4.34485l0.31263,4.31752z" data-paper-data="{&quot;index&quot;:null}" fill="url(#color-39)"/><path d="M211.94499,188.80797c0,0 0.27865,-0.76386 0.30566,-1.36451c0.03568,-0.79333 -0.11027,-2.98034 -0.11027,-2.98034c0,0 0.33563,1.64302 0.38711,2.35395c0.0527,0.72784 -0.07449,1.96358 -0.07449,1.96358z" data-paper-data="{&quot;index&quot;:null}" fill="url(#color-40)"/><path d="M211.52424,188.75332l0.31263,-4.31752l0.19539,4.34485z" data-paper-data="{&quot;index&quot;:null}" fill="url(#color-41)"/></g><g data-paper-data="{&quot;index&quot;:null}" stroke="#000000" stroke-linecap="round"><path d="M215.76045,188.62459c0,0 0.27865,-0.76386 0.30566,-1.36451c0.03568,-0.79333 -0.11027,-2.98034 -0.11027,-2.98034c0,0 0.33563,1.64302 0.38711,2.35395c0.0527,0.72785 -0.07449,1.96357 -0.07449,1.96357z" fill="url(#color-42)"/><path d="M215.33971,188.56994l0.31263,-4.31752l0.19539,4.34485z" data-paper-data="{&quot;index&quot;:null}" fill="url(#color-43)"/><path d="M214.17647,188.70657c0,0 -0.12719,-1.23573 -0.07449,-1.96357c0.05148,-0.71093 0.38711,-2.35395 0.38711,-2.35395c0,0 -0.14595,2.18702 -0.11027,2.98035c0.02701,0.60064 0.30566,1.36451 0.30566,1.36451z" data-paper-data="{&quot;index&quot;:null}" fill="url(#color-44)"/><path d="M214.59722,188.70658l0.19539,-4.34485l0.31263,4.31753z" data-paper-data="{&quot;index&quot;:null}" fill="url(#color-45)"/></g><g stroke="#000000" stroke-linecap="round"><path d="M245.36101,188.59991c0,0 -0.12718,-1.23573 -0.07448,-1.96358c0.05148,-0.71093 0.38711,-2.35395 0.38711,-2.35395c0,0 -0.14595,2.18702 -0.11027,2.98035c0.02701,0.60065 0.30566,1.3645 0.30566,1.3645z" fill="url(#color-46)"/><path d="M245.78175,188.59991l0.19539,-4.34485l0.31263,4.31752z" data-paper-data="{&quot;index&quot;:null}" fill="url(#color-47)"/><path d="M246.94499,188.73654c0,0 0.27865,-0.76386 0.30566,-1.36451c0.03568,-0.79333 -0.11027,-2.98034 -0.11027,-2.98034c0,0 0.33563,1.64302 0.38711,2.35395c0.0527,0.72784 -0.07449,1.96358 -0.07449,1.96358z" data-paper-data="{&quot;index&quot;:null}" fill="url(#color-48)"/><path d="M246.52424,188.68189l0.31263,-4.31752l0.19539,4.34485z" data-paper-data="{&quot;index&quot;:null}" fill="url(#color-49)"/></g><g stroke="#000000" stroke-linecap="round"><path d="M268.02768,188.33801c0,0 -0.12718,-1.23573 -0.07448,-1.96358c0.05148,-0.71093 0.38711,-2.35395 0.38711,-2.35395c0,0 -0.14595,2.18702 -0.11027,2.98035c0.02701,0.60065 0.30566,1.3645 0.30566,1.3645z" fill="url(#color-50)"/><path d="M268.44842,188.33801l0.19539,-4.34485l0.31263,4.31752z" data-paper-data="{&quot;index&quot;:null}" fill="url(#color-51)"/><path d="M269.61166,188.47464c0,0 0.27865,-0.76386 0.30566,-1.36451c0.03568,-0.79333 -0.11027,-2.98034 -0.11027,-2.98034c0,0 0.33563,1.64302 0.38711,2.35395c0.0527,0.72784 -0.07449,1.96358 -0.07449,1.96358z" data-paper-data="{&quot;index&quot;:null}" fill="url(#color-52)"/><path d="M269.19091,188.41999l0.31263,-4.31752l0.19539,4.34485z" data-paper-data="{&quot;index&quot;:null}" fill="url(#color-53)"/></g><g data-paper-data="{&quot;index&quot;:null}" stroke="#000000" stroke-linecap="round"><path d="M244.42711,188.62459c0,0 0.27865,-0.76386 0.30566,-1.36451c0.03568,-0.79333 -0.11027,-2.98034 -0.11027,-2.98034c0,0 0.33563,1.64302 0.38711,2.35395c0.0527,0.72785 -0.07449,1.96357 -0.07449,1.96357z" fill="url(#color-54)"/><path d="M244.00637,188.56994l0.31263,-4.31752l0.19539,4.34485z" data-paper-data="{&quot;index&quot;:null}" fill="url(#color-55)"/><path d="M242.84313,188.70657c0,0 -0.12719,-1.23573 -0.07449,-1.96357c0.05148,-0.71093 0.38711,-2.35395 0.38711,-2.35395c0,0 -0.14595,2.18702 -0.11027,2.98035c0.02701,0.60064 0.30566,1.36451 0.30566,1.36451z" data-paper-data="{&quot;index&quot;:null}" fill="url(#color-56)"/><path d="M243.26388,188.70658l0.19539,-4.34485l0.31263,4.31753z" data-paper-data="{&quot;index&quot;:null}" fill="url(#color-57)"/></g><g stroke="#000000" stroke-linecap="round"><path d="M279.00243,188.20445c0,0 -0.12718,-1.74162 -0.07448,-2.76744c0.05148,-1.00198 0.38711,-3.31763 0.38711,-3.31763c0,0 -0.14595,3.08236 -0.11027,4.20046c0.02701,0.84655 0.30566,1.92311 0.30566,1.92311z" fill="url(#color-58)"/><path d="M279.42317,188.20445l0.19539,-6.12357l0.31263,6.08505z" data-paper-data="{&quot;index&quot;:null}" fill="url(#color-59)"/><path d="M280.58641,188.39701c0,0 0.27865,-1.07657 0.30566,-1.92312c0.03568,-1.11811 -0.36027,-4.20045 -0.36027,-4.20045c0,0 0.5629,2.31565 0.61438,3.31763c0.0527,1.02581 -0.05176,2.76744 -0.05176,2.76744z" data-paper-data="{&quot;index&quot;:null}" fill="url(#color-60)"/><path d="M280.16566,188.31999l0.06263,-6.08505l0.44539,6.12357z" data-paper-data="{&quot;index&quot;:null}" fill="url(#color-61)"/></g><g stroke="#000000" stroke-linecap="round"><path d="M281.41152,188.23969c0,0 -0.12718,-1.59122 -0.07448,-2.52845c0.05148,-0.91545 0.38711,-3.03112 0.38711,-3.03112c0,0 -0.14595,2.81617 -0.11027,3.83772c0.02701,0.77344 0.30566,1.75703 0.30566,1.75703z" fill="url(#color-62)"/><path d="M281.83226,188.23969l0.19539,-5.59475l0.31263,5.55956z" data-paper-data="{&quot;index&quot;:null}" fill="url(#color-63)"/><path d="M282.9955,188.41562c0,0 0.27865,-0.9836 0.30566,-1.75704c0.03568,-1.02155 -0.36027,-3.8377 -0.36027,-3.8377c0,0 0.56291,2.11567 0.61439,3.03112c0.0527,0.93722 -0.05177,2.52845 -0.05177,2.52845z" data-paper-data="{&quot;index&quot;:null}" fill="url(#color-64)"/><path d="M282.57475,188.34525l0.06263,-5.55956l0.44539,5.59475z" data-paper-data="{&quot;index&quot;:null}" fill="url(#color-65)"/></g><g stroke="#000000" stroke-linecap="round"><path d="M283.54788,188.28712c0,0 -0.12718,-1.74162 -0.07448,-2.76744c0.05148,-1.00198 0.38711,-3.31763 0.38711,-3.31763c0,0 -0.14595,3.08236 -0.11027,4.20046c0.02701,0.84655 0.30566,1.92311 0.30566,1.92311z" fill="url(#color-66)"/><path d="M283.96862,188.28712l0.19539,-6.12357l0.31263,6.08505z" data-paper-data="{&quot;index&quot;:null}" fill="url(#color-67)"/><path d="M285.13186,188.47968c0,0 0.27865,-1.07657 0.30566,-1.92312c0.03568,-1.11811 -0.36027,-4.20045 -0.36027,-4.20045c0,0 0.56291,2.31565 0.61439,3.31763c0.0527,1.02581 -0.05177,2.76744 -0.05177,2.76744z" data-paper-data="{&quot;index&quot;:null}" fill="url(#color-68)"/><path d="M284.71111,188.40266l0.06263,-6.08505l0.44539,6.12357z" data-paper-data="{&quot;index&quot;:null}" fill="url(#color-69)"/></g><g data-paper-data="{&quot;index&quot;:null}" stroke="#000000" stroke-linecap="round"><path d="M287.1112,188.38755c0,0 0.27865,-1.07656 0.30566,-1.92311c0.03568,-1.11811 -0.11027,-4.20046 -0.11027,-4.20046c0,0 0.33563,2.31565 0.38711,3.31763c0.0527,1.02582 -0.07448,2.76744 -0.07448,2.76744z" fill="url(#color-70)"/><path d="M286.69046,188.31053l0.31263,-6.08505l0.19539,6.12357z" data-paper-data="{&quot;index&quot;:null}" fill="url(#color-71)"/><path d="M285.52723,188.50311c0,0 -0.10447,-1.74164 -0.05177,-2.76744c0.05148,-1.00198 0.61439,-3.31763 0.61439,-3.31763c0,0 -0.39595,3.08234 -0.36027,4.20045c0.02701,0.84655 0.30566,1.92312 0.30566,1.92312z" data-paper-data="{&quot;index&quot;:null}" fill="url(#color-72)"/><path d="M285.94797,188.50311l0.44539,-6.12357l0.06263,6.08505z" data-paper-data="{&quot;index&quot;:null}" fill="url(#color-73)"/></g><g stroke="#000000" stroke-linecap="round"><path d="M287.82061,188.07692c0,0 -0.12718,-1.90456 -0.07448,-3.02635c0.05148,-1.09572 0.38711,-3.62801 0.38711,-3.62801c0,0 -0.14595,3.37073 -0.11027,4.59344c0.02701,0.92575 0.30566,2.10302 0.30566,2.10302z" fill="url(#color-74)"/><path d="M288.24135,188.07692l0.19539,-6.69647l0.31263,6.65434z" data-paper-data="{&quot;index&quot;:null}" fill="url(#color-75)"/><path d="M289.40459,188.2875c0,0 0.27865,-1.17729 0.30566,-2.10304c0.03568,-1.22271 -0.36027,-4.59343 -0.36027,-4.59343c0,0 0.56291,2.53229 0.61439,3.62801c0.0527,1.12178 -0.05176,3.02635 -0.05176,3.02635z" data-paper-data="{&quot;index&quot;:null}" fill="url(#color-76)"/><path d="M288.98384,188.20327l0.06263,-6.65434l0.44539,6.69647z" data-paper-data="{&quot;index&quot;:null}" fill="url(#color-77)"/></g><g stroke="#000000" stroke-linecap="round"><path d="M289.95697,188.15899c0,0 -0.12718,-1.74162 -0.07448,-2.76744c0.05148,-1.00198 0.38711,-3.31763 0.38711,-3.31763c0,0 -0.14595,3.08236 -0.11027,4.20046c0.02701,0.84655 0.30566,1.92311 0.30566,1.92311z" fill="url(#color-78)"/><path d="M290.37771,188.15899l0.19539,-6.12357l0.31263,6.08505z" data-paper-data="{&quot;index&quot;:null}" fill="url(#color-79)"/><path d="M291.54095,188.35156c0,0 0.27865,-1.07657 0.30566,-1.92312c0.03568,-1.11811 -0.36027,-4.20045 -0.36027,-4.20045c0,0 0.56291,2.31565 0.61439,3.31763c0.0527,1.02581 -0.05177,2.76744 -0.05177,2.76744z" data-paper-data="{&quot;index&quot;:null}" fill="url(#color-80)"/><path d="M291.1202,188.27454l0.06263,-6.08505l0.44539,6.12357z" data-paper-data="{&quot;index&quot;:null}" fill="url(#color-81)"/></g><g stroke="none" stroke-linecap="butt"><path d="M217.98978,144.87659c0,-2.197 2.85616,-3.97803 5.05317,-3.97803c2.197,0 2.90288,1.78102 2.90288,3.97803c0,2.197 -1.78102,3.97803 -3.97803,3.97803c-2.197,0 -3.97802,-1.78102 -3.97802,-3.97803z" fill="url(#color-82)"/><path d="M221.64526,146.6685c0,-2.197 0.49085,-3.54797 2.68785,-3.54797c2.197,0 5.2682,1.35097 5.2682,3.54797c0,2.197 -1.78103,3.97803 -3.97803,3.97803c-2.197,0 -3.97802,-1.78102 -3.97802,-3.97803z" fill="url(#color-83)"/><path d="M215.40944,146.31011c0,-1.9199 2.55985,-3.47629 4.47976,-3.47629c1.9199,0 2.47283,1.55639 2.47283,3.47629c0,1.9199 -1.55639,3.47629 -3.47629,3.47629c-1.9199,0 -3.47629,-1.55639 -3.47629,-3.47629z" fill="url(#color-84)"/></g><g data-paper-data="{&quot;index&quot;:null}" stroke="none" stroke-linecap="butt"><path d="M251.97088,150.55876c-2.197,0 -3.97803,-1.36646 -3.97803,-3.05207c0,-1.68561 0.70588,-3.05207 2.90288,-3.05207c2.197,0 5.05316,1.36646 5.05316,3.05207c0,1.68561 -1.78102,3.05207 -3.97802,3.05207z" fill="url(#color-85)"/><path d="M248.3154,151.93357c-2.197,0 -3.97803,-1.36646 -3.97803,-3.05207c0,-1.68561 3.0712,-2.72211 5.2682,-2.72211c2.197,0 2.68785,1.03651 2.68785,2.72211c0,1.68561 -1.78102,3.05207 -3.97802,3.05207z" fill="url(#color-86)"/><path d="M258.52925,148.60654c0,1.47301 -1.55639,2.66712 -3.4763,2.66712c-1.9199,0 -3.47629,-1.19411 -3.47629,-2.66712c0,-1.47301 0.55292,-2.66712 2.47283,-2.66712c1.91991,0 4.47976,1.19411 4.47976,2.66712z" fill="url(#color-87)"/></g></g></g></svg>