<svg version="1.1" xmlns="http://www.w3.org/2000/svg" xmlns:xlink="http://www.w3.org/1999/xlink" width="56.09126" height="97.81343" viewBox="0,0,56.09126,97.81343"><defs><linearGradient x1="260.33218" y1="150.85905" x2="260.33218" y2="221.92291" gradientUnits="userSpaceOnUse" id="color-1"><stop offset="0" stop-color="#e83800"/><stop offset="1" stop-color="#e83800" stop-opacity="0"/></linearGradient></defs><g transform="translate(-210.41903,-131.24238)"><g data-paper-data="{&quot;isPaintingLayer&quot;:true}" fill-rule="nonzero" stroke="#000000" stroke-linejoin="miter" stroke-miterlimit="10" stroke-dasharray="" stroke-dashoffset="0" style="mix-blend-mode: normal"><path d="M228.02714,149.51415c0,0 2.36971,-4.05296 3.39819,-5.29693c1.29825,-1.57025 3.7722,-3.37576 3.7722,-3.37576" data-paper-data="{&quot;index&quot;:null}" fill="none" stroke-width="2" stroke-linecap="round"/><path d="M243.57936,139.88682c-1.38644,2.4728 -4.51499,3.35347 -6.98779,1.96703c-2.4728,-1.38644 -3.35347,-4.51499 -1.96703,-6.98779c1.38644,-2.4728 4.51499,-3.35347 6.98779,-1.96703c2.4728,1.38644 3.35347,4.51499 1.96703,6.98779z" data-paper-data="{&quot;index&quot;:null}" fill="#e80000" stroke-width="2" stroke-linecap="butt"/><path d="M249.55571,170.95036c-6.55057,6.41983 -17.06515,6.31386 -23.48499,-0.23671c-6.41983,-6.55057 -6.31386,-17.06515 0.23671,-23.48499c6.55057,-6.41983 17.06515,-6.31386 23.48499,0.23671c6.41983,6.55057 6.31386,17.06515 -0.23671,23.48499z" data-paper-data="{&quot;index&quot;:null}" fill="#e80000" stroke-width="2" stroke-linecap="butt"/><path d="M236.38962,202.69404l4.80894,-25.10872l7.71055,1.47677l-4.80894,25.10872z" fill="#e80000" stroke-width="2" stroke-linecap="butt"/><path d="M223.32199,186.63788c0,-2.11232 1.71238,-3.8247 3.8247,-3.8247c2.11232,0 3.8247,1.71238 3.8247,3.8247c0,2.11232 -1.71238,3.8247 -3.8247,3.8247c-2.11232,0 -3.8247,-1.71238 -3.8247,-3.8247z" fill="#e80000" stroke-width="2" stroke-linecap="butt"/><path d="M256.63649,158.20748c-0.44569,-2.06477 0.86683,-4.0999 2.9316,-4.54559c2.06477,-0.44569 4.0999,0.86683 4.54559,2.9316c0.44569,2.06477 -0.86683,4.0999 -2.9316,4.54559c-2.06477,0.44569 -4.0999,-0.86683 -4.54559,-2.9316z" fill="#e80000" stroke-width="2" stroke-linecap="butt"/><path d="M248.16788,211.17845c3.15249,0.90441 2.86066,4.99304 1.49637,9.7485c-1.3643,4.75545 -5.02586,7.87733 -8.17836,6.97292c-3.15249,-0.90441 -5.32377,-2.97722 -3.95947,-7.73268c2.25247,-7.85136 9.42391,-9.33804 10.64146,-8.98874z" data-paper-data="{&quot;index&quot;:null}" fill="#e80000" stroke-width="2" stroke-linecap="butt"/><path d="M220.59885,162.35269l-2.79919,-4.85021l28.92803,-16.69517l2.79919,4.85022z" data-paper-data="{&quot;index&quot;:null}" fill="#ff2121" stroke-width="2" stroke-linecap="butt"/><path d="M229.39826,208.60965c0.51092,3.23962 -3.31875,4.70104 -8.20564,5.47173c-4.88689,0.77069 -9.26266,-1.23077 -9.77358,-4.47039c-0.51092,-3.23962 0.45157,-6.08296 5.33846,-6.85366c8.06836,-1.27244 12.44343,4.60111 12.64075,5.85231z" data-paper-data="{&quot;index&quot;:null}" fill="#e80000" stroke-width="2" stroke-linecap="butt"/><path d="M254.76896,154.93939c0.1782,-2.3808 2.94903,-4.20466 6.18882,-4.07371c3.23979,0.13096 5.7217,2.16713 5.54349,4.54793c-0.1782,2.3808 -6.3151,54.93491 -9.55489,54.80396c-3.23979,-0.13096 -2.35563,-52.89738 -2.17742,-55.27818z" fill="url(#color-1)" stroke-width="0" stroke-linecap="butt"/></g></g></svg>