<svg version="1.1" xmlns="http://www.w3.org/2000/svg" xmlns:xlink="http://www.w3.org/1999/xlink" width="55.62015" height="87.39402" viewBox="0,0,55.62015,87.39402"><g transform="translate(-212.03899,-137.73457)"><g data-paper-data="{&quot;isPaintingLayer&quot;:true}" fill-rule="nonzero" stroke="#000000" stroke-width="2" stroke-linejoin="miter" stroke-miterlimit="10" stroke-dasharray="" stroke-dashoffset="0" style="mix-blend-mode: normal"><g fill="#181818"><path d="M239.89216,143.29833c0,0 3.00193,-0.60728 5.03682,-0.5057c1.61207,0.08048 6.2022,1.06677 6.2022,1.06677" stroke-linecap="round"/><path d="M229.32899,142.69995c0.64558,-2.76047 3.40672,-4.47496 6.1672,-3.82937c2.76047,0.64558 4.47496,3.40672 3.82937,6.1672c-0.64558,2.76047 -3.40672,4.47496 -6.1672,3.82937c-2.76047,-0.64558 -4.47496,-3.40672 -3.82937,-6.1672z" stroke-linecap="butt"/></g><path d="M233.58093,211.71862c0.47905,-2.05728 2.53516,-3.33669 4.59244,-2.85764c2.05728,0.47905 3.33669,2.53516 2.85764,4.59244c-0.47905,2.05728 -2.53516,3.33669 -4.59244,2.85764c-2.05728,-0.47905 -3.33669,-2.53516 -2.85764,-4.59244z" fill="#181818" stroke-linecap="butt"/><path d="M224.3871,159.89393c0,-9.17193 7.43532,-16.60724 16.60724,-16.60724c9.17193,0 16.60724,7.43532 16.60724,16.60724c0,9.17193 -7.43532,16.60724 -16.60724,16.60724c-9.17193,0 -16.60724,-7.43532 -16.60724,-16.60724z" fill="#181818" stroke-linecap="butt"/><path d="M230.90921,204.43714l5.79788,-24.89896l7.64614,1.78045l-5.79788,24.89896z" fill="#181818" stroke-linecap="butt"/><path d="M222.03387,208.47785c4.00629,0.93289 6.55062,4.70994 5.68292,8.43628c-0.8677,3.72634 -4.81886,5.99088 -8.82514,5.05799c-4.00629,-0.93289 -6.55062,-4.70994 -5.68292,-8.43628c0.8677,-3.72634 4.81886,-5.99088 8.82514,-5.05799z" data-paper-data="{&quot;index&quot;:null}" fill="#181818" stroke-linecap="butt"/><path d="M255.50912,213.46846c4.29068,2.46286 4.17582,5.46248 2.54314,8.30687c-1.63269,2.84438 -6.43451,3.15366 -10.72519,0.6908c-4.29068,-2.46286 -7.34731,-5.19398 -5.71463,-8.03836c0.63057,-1.09855 6.81267,-5.02555 13.89668,-0.95931z" data-paper-data="{&quot;index&quot;:null}" fill="#181818" stroke-linecap="butt"/><path d="M225.58987,163.21762v-5.24474h23.7271v5.24474z" fill="#ff0000" stroke-linecap="butt"/><path d="M234.9945,177.45961l13.97876,3.56509l-4.60741,3.26782l3.05473,5.05199l-16.87522,-2.68931l5.36014,-4.02268z" fill="#0e0e0e" stroke-linecap="round"/><g><path d="M226.2746,152.81314v-12.06291h29.6328v12.06291z" fill="#343434" stroke-linecap="butt"/><path d="M215.52288,152.81314h51.13626" fill="none" stroke-linecap="round"/></g><path d="M252.40568,194.07681c0,-2.11232 1.71238,-3.8247 3.8247,-3.8247c2.11232,0 3.8247,1.71238 3.8247,3.8247c0,2.11232 -1.71238,3.8247 -3.8247,3.8247c-2.11232,0 -3.8247,-1.71238 -3.8247,-3.8247z" fill="#181818" stroke-linecap="butt"/></g></g></svg>