<svg version="1.1" xmlns="http://www.w3.org/2000/svg" xmlns:xlink="http://www.w3.org/1999/xlink" width="98.88779" height="87.46399" viewBox="0,0,98.88779,87.46399"><g transform="translate(-211.78792,-139.62552)"><g data-paper-data="{&quot;isPaintingLayer&quot;:true}" fill-rule="nonzero" stroke="#000000" stroke-width="2" stroke-linejoin="miter" stroke-miterlimit="10" stroke-dasharray="" stroke-dashoffset="0" style="mix-blend-mode: normal"><path d="M212.78792,161.11042c0,-9.17193 7.43532,-16.60724 16.60724,-16.60724c9.17193,0 16.60724,7.43532 16.60724,16.60724c0,9.17193 -7.43532,16.60724 -16.60724,16.60724c-9.17193,0 -16.60724,-7.43532 -16.60724,-16.60724z" fill="#ff6b00" stroke-linecap="butt"/><path d="M231.50494,207.4911l-3.24234,-25.35865l7.78731,-0.99568l3.24234,25.35865z" fill="#ff6b00" stroke-linecap="butt"/><path d="M222.81413,215.01801c4.11347,0 7.4481,2.47844 7.4481,5.53575c0,3.05731 -3.33463,5.53575 -7.4481,5.53575c-4.11347,0 -7.4481,-2.47844 -7.4481,-5.53575c0,-3.05731 3.33463,-5.53575 7.4481,-5.53575z" data-paper-data="{&quot;index&quot;:null}" fill="#ff6b00" stroke-linecap="butt"/><path d="M257.93975,158.87364c0,0 2.76076,1.32612 4.32261,2.63443c1.23732,1.03647 4.3038,4.59158 4.3038,4.59158" fill="none" stroke-linecap="round"/><path d="M250.18903,152.22848c2.17984,-1.81253 5.4163,-1.51478 7.22883,0.66506c1.81253,2.17984 1.51478,5.4163 -0.66506,7.22883c-2.17984,1.81253 -5.4163,1.51478 -7.22883,-0.66506c-1.81253,-2.17984 -1.51478,-5.4163 0.66506,-7.22883z" fill="#ff6b00" stroke-linecap="butt"/><path d="M254.56185,211.5285c4.52935,-1.99011 6.87479,-0.11664 8.19408,2.88597c1.31929,3.00261 -1.28298,7.05 -5.81234,9.04013c-4.52935,1.99011 -8.54183,2.82799 -9.86112,-0.17462c-0.50953,-1.15965 0.00132,-8.46573 7.47939,-11.75146z" data-paper-data="{&quot;index&quot;:null}" fill="#ff6b00" stroke-linecap="butt"/><path d="M254.53756,161.11759l11.81673,5.16527l23.40707,-24.88036l19.40004,43.23982l-33.59426,1.52546l-3.882,12.26858z" data-paper-data="{&quot;index&quot;:null}" fill="#ffa340" stroke-linecap="butt"/><path d="M263.74004,187.78451c1.73247,-1.20848 4.1166,-0.7837 5.32509,0.94876c1.20848,1.73247 0.7837,4.1166 -0.94876,5.32509c-1.73247,1.20848 -4.1166,0.7837 -5.32509,-0.94876c-1.20848,-1.73247 -0.7837,-4.1166 0.94876,-5.32509z" fill="#ff6b00" stroke-linecap="butt"/><path d="M256.5633,172.53498c1.73247,-1.20848 4.1166,-0.7837 5.32509,0.94876c1.20848,1.73247 0.7837,4.1166 -0.94876,5.32509c-1.73247,1.20848 -4.1166,0.7837 -5.32509,-0.94876c-1.20848,-1.73247 -0.7837,-4.1166 0.94876,-5.32509z" fill="#ff6b00" stroke-linecap="butt"/></g></g></svg>