<svg version="1.1" xmlns="http://www.w3.org/2000/svg" xmlns:xlink="http://www.w3.org/1999/xlink" width="87.17696" height="100.52476" viewBox="0,0,87.17696,100.52476"><g transform="translate(-195.60731,-112.48664)"><g data-paper-data="{&quot;isPaintingLayer&quot;:true}" fill-rule="nonzero" stroke="#000000" stroke-width="2" stroke-linejoin="miter" stroke-miterlimit="10" stroke-dasharray="" stroke-dashoffset="0" style="mix-blend-mode: normal"><path d="M227.80157,173.77232c1.49634,-1.49093 3.91801,-1.48654 5.40894,0.00981c1.49093,1.49634 1.48654,3.91801 -0.00981,5.40894c-1.49634,1.49093 -3.91801,1.48654 -5.40894,-0.00981c-1.49093,-1.49634 -1.48654,-3.91801 0.00981,-5.40894z" fill="#1d28e8" stroke-linecap="butt"/><path d="M232.12725,188.84685l17.22565,-18.89049l5.80102,5.28977l-17.22565,18.89049z" fill="#1d28e8" stroke-linecap="butt"/><path d="M263.62091,177.7331c1.49634,-1.49093 3.91801,-1.48654 5.40894,0.00981c1.49093,1.49634 1.48654,3.91801 -0.00981,5.40894c-1.49634,1.49093 -3.91801,1.48654 -5.40894,-0.00981c-1.49093,-1.49634 -1.48654,-3.91801 0.00981,-5.40894z" fill="#1d28e8" stroke-linecap="butt"/><path d="M207.23046,174.51037c4.17527,7.0203 0.34431,13.26238 -0.74436,13.90985c-2.8188,1.67647 -5.59685,-1.33758 -8.12575,-5.58967c-2.5289,-4.25211 -2.29389,-9.05814 0.52491,-10.73461c2.81881,-1.67648 5.8163,-1.83767 8.3452,2.41441z" data-paper-data="{&quot;index&quot;:null}" fill="#1d28e8" stroke-linecap="butt"/><path d="M256.19714,163.59628c-8.74765,2.75731 -18.07427,-2.0988 -20.83159,-10.84646c-2.75731,-8.74765 2.0988,-18.07427 10.84646,-20.83159c8.74765,-2.75731 18.07427,2.0988 20.83159,10.84646c2.75731,8.74765 -2.0988,18.07427 -10.84646,20.83159z" data-paper-data="{&quot;index&quot;:null}" fill="#1d28e8" stroke-linecap="butt"/><path d="M260.52432,140.5824c0,0 4.69404,-0.08907 6.2917,0.14063c2.01669,0.28996 4.84677,1.46085 4.84677,1.46085" data-paper-data="{&quot;index&quot;:null}" fill="none" stroke-linecap="round"/><path d="M276.8448,148.84069c-2.83303,0.10503 -5.21477,-2.10644 -5.31979,-4.93946c-0.10503,-2.83303 2.10644,-5.21477 4.93946,-5.31979c2.83303,-0.10503 5.21477,2.10644 5.31979,4.93946c0.10503,2.83303 -2.10644,5.21477 -4.93946,5.31979z" data-paper-data="{&quot;index&quot;:null}" fill="#1d28e8" stroke-linecap="butt"/><path d="M218.72774,141.59134l17.31312,0.09304l-5.26635,-28.01563l40.65919,5.65666l-4.44265,22.61171z" data-paper-data="{&quot;index&quot;:null}" fill="#2530ff" stroke-linecap="round"/><path d="M243.75171,204.7075c1.36994,-8.05238 8.33286,-10.3234 9.58158,-10.11096c3.23321,0.55005 3.39555,4.64587 2.5658,9.52307c-0.82977,4.87722 -4.12343,8.38505 -7.35664,7.835c-3.23322,-0.55005 -5.62049,-2.36991 -4.79075,-7.2471z" data-paper-data="{&quot;index&quot;:null}" fill="#1d28e8" stroke-linecap="butt"/></g></g></svg>