<svg version="1.1" xmlns="http://www.w3.org/2000/svg" xmlns:xlink="http://www.w3.org/1999/xlink" width="108.64568" height="105.25487" viewBox="0,0,108.64568,105.25487"><g transform="translate(-188.68501,-121.50287)"><g data-paper-data="{&quot;isPaintingLayer&quot;:true}" fill-rule="nonzero" stroke="#000000" stroke-width="2" stroke-linejoin="miter" stroke-miterlimit="10" stroke-dasharray="" stroke-dashoffset="0" style="mix-blend-mode: normal"><path d="M284.98605,194.59229c1.07374,-4.82935 3.97154,-5.61277 7.17302,-4.90096c3.20148,0.71181 4.92636,5.2038 3.85261,10.03316c-1.07374,4.82935 -2.77098,8.5605 -5.97247,7.84869c-1.23647,-0.27491 -6.82594,-5.00751 -5.05317,-12.98089z" data-paper-data="{&quot;index&quot;:null}" fill="#1d28e8" stroke-linecap="butt"/><path d="M240.39639,200.59772c0,-2.11232 1.71238,-3.8247 3.8247,-3.8247c2.11232,0 3.8247,1.71238 3.8247,3.8247c0,2.11232 -1.71238,3.8247 -3.8247,3.8247c-2.11232,0 -3.8247,-1.71238 -3.8247,-3.8247z" fill="#1d28e8" stroke-linecap="butt"/><path d="M209.26035,159.21159c0.78949,-9.13789 8.83723,-15.90558 17.97511,-15.11609c9.13789,0.78949 15.90558,8.83723 15.11609,17.97511c-0.78949,9.13789 -8.83723,15.90559 -17.97511,15.1161c-9.13789,-0.78949 -15.90558,-8.83724 -15.11609,-17.97512z" fill="#1d28e8" stroke-linecap="butt"/><path d="M229.65115,207.70892l-7.50247,-24.43945l7.50504,-2.30391l7.50247,24.43945z" fill="#1d28e8" stroke-linecap="butt"/><path d="M228.78269,210.08388c0,-2.11232 1.71238,-3.8247 3.8247,-3.8247c2.11232,0 3.8247,1.71238 3.8247,3.8247c0,2.11232 -1.71238,3.8247 -3.8247,3.8247c-2.11232,0 -3.8247,-1.71238 -3.8247,-3.8247z" fill="#1d28e8" stroke-linecap="butt"/><path d="M229.28717,214.68624c4.11347,0 7.4481,2.47844 7.4481,5.53575c0,3.05731 -3.33463,5.53575 -7.4481,5.53575c-4.11347,0 -7.4481,-2.47844 -7.4481,-5.53575c0,-3.05731 3.33463,-5.53575 7.4481,-5.53575z" data-paper-data="{&quot;index&quot;:null}" fill="#1d28e8" stroke-linecap="butt"/><path d="M199.47466,161.99041c0,0 2.50782,-1.75817 4.41323,-2.47965c1.50949,-0.57156 6.11062,-1.50517 6.11062,-1.50517" fill="none" stroke-linecap="round"/><path d="M189.88598,165.496c-0.51343,-2.78808 1.33054,-5.46448 4.11862,-5.97791c2.78808,-0.51343 5.46448,1.33054 5.9779,4.11862c0.51343,2.78808 -1.33054,5.46448 -4.11862,5.97791c-2.78808,0.51343 -5.46448,-1.33054 -5.97791,-4.11862z" fill="#1d28e8" stroke-linecap="butt"/><path d="M209.13172,158.3924l-9.25249,-21.10492l38.45676,-14.36125l0.95061,28.49046l20.29189,-4.61518z" fill="#2530ff" stroke-linecap="round"/></g></g></svg>