<svg version="1.1" xmlns="http://www.w3.org/2000/svg" xmlns:xlink="http://www.w3.org/1999/xlink" width="75.07364" height="118.66321" viewBox="0,0,75.07364,118.66321"><g transform="translate(-200.63535,-98.32765)"><g data-paper-data="{&quot;isPaintingLayer&quot;:true}" fill-rule="nonzero" stroke="#000000" stroke-width="2" stroke-linejoin="miter" stroke-miterlimit="10" stroke-dasharray="" stroke-dashoffset="0" style="mix-blend-mode: normal"><path d="M255.44161,175.97026c0,-2.11232 1.71238,-3.8247 3.8247,-3.8247c2.11232,0 3.8247,1.71238 3.8247,3.8247c0,2.11232 -1.71238,3.8247 -3.8247,3.8247c-2.11232,0 -3.8247,-1.71238 -3.8247,-3.8247z" fill="#ff6b00" stroke-linecap="butt"/><path d="M229.39256,152.84619c0,-9.17193 7.43532,-16.60724 16.60724,-16.60724c9.17193,0 16.60724,7.43532 16.60724,16.60724c0,9.17193 -7.43532,16.60724 -16.60724,16.60724c-9.17193,0 -16.60724,-7.43532 -16.60724,-16.60724z" fill="#ff6b00" stroke-linecap="butt"/><path d="M237.62026,196.52469l1.50916,-25.52049l7.837,0.46343l-1.50916,25.5205z" data-paper-data="{&quot;index&quot;:null}" fill="#ff6b00" stroke-linecap="butt"/><path d="M220.51591,189.00174c0,-2.11232 1.71238,-3.8247 3.8247,-3.8247c2.11232,0 3.8247,1.71238 3.8247,3.8247c0,2.11232 -1.71238,3.8247 -3.8247,3.8247c-2.11232,0 -3.8247,-1.71238 -3.8247,-3.8247z" fill="#ff6b00" stroke-linecap="butt"/><path d="M218.66541,148.20769c0,0 2.55335,-1.6914 4.47712,-2.36234c1.52405,-0.53153 6.14821,-1.34341 6.14821,-1.34341" fill="none" stroke-linecap="round"/><path d="M208.98756,151.45905c-0.43968,-2.80066 1.47426,-5.42748 4.27493,-5.86716c2.80066,-0.43968 5.42747,1.47426 5.86715,4.27492c0.43968,2.80066 -1.47426,5.42748 -4.27493,5.86716c-2.80066,0.43968 -5.42747,-1.47426 -5.86715,-4.27492z" fill="#ff6b00" stroke-linecap="butt"/><path d="M267.55976,191.50513c4.89291,-0.73143 6.66435,1.69201 7.14922,4.93562c0.48488,3.24362 -3.08853,6.46603 -7.98146,7.19746c-4.89291,0.73143 -8.98463,0.4867 -9.46951,-2.75692c-0.18727,-1.25273 2.22342,-8.16854 10.30174,-9.37616z" data-paper-data="{&quot;index&quot;:null}" fill="#ff6b00" stroke-linecap="butt"/><path d="M224.83176,156.20189l4.22817,-12.18351l-26.62972,-21.39582l41.5955,-22.71252l4.14025,33.37304l12.53391,2.91357z" data-paper-data="{&quot;index&quot;:null}" fill="#ffa340" stroke-linecap="butt"/><path d="M220.99067,210.58986c-0.82487,4.87803 -3.67872,5.80891 -6.91247,5.26207c-3.23375,-0.54682 -5.18653,-4.94454 -4.36167,-9.82258c0.82487,-4.87803 2.3287,-8.69124 5.56244,-8.14441c1.24892,0.21119 7.07356,4.65117 5.71169,12.70492z" data-paper-data="{&quot;index&quot;:null}" fill="#ff6b00" stroke-linecap="butt"/></g></g></svg>