<svg version="1.1" xmlns="http://www.w3.org/2000/svg" xmlns:xlink="http://www.w3.org/1999/xlink" width="90.8628" height="90.36245" viewBox="0,0,90.8628,90.36245"><g transform="translate(-213.76078,-142.84556)"><g data-paper-data="{&quot;isPaintingLayer&quot;:true}" fill-rule="nonzero" stroke="#000000" stroke-width="2" stroke-linejoin="miter" stroke-miterlimit="10" stroke-dasharray="" stroke-dashoffset="0" style="mix-blend-mode: normal"><path d="M250.50601,189.57431c1.70849,1.24216 2.08653,3.63413 0.84439,5.34263c-1.24216,1.70849 -3.63413,2.08653 -5.34263,0.84439c-1.70849,-1.24216 -2.08653,-3.63413 -0.84439,-5.34263c1.24216,-1.70849 3.63413,-2.08653 5.34263,-0.84439z" fill="#ff6b00" stroke-linecap="butt"/><path d="M214.76078,160.4528c0,-9.17193 7.43532,-16.60724 16.60724,-16.60724c9.17193,0 16.60724,7.43532 16.60724,16.60724c0,9.17193 -7.43532,16.60724 -16.60724,16.60724c-9.17193,0 -16.60724,-7.43532 -16.60724,-16.60724z" fill="#ff6b00" stroke-linecap="butt"/><path d="M229.75129,207.4911l-3.24234,-25.35865l7.78731,-0.99568l3.24234,25.35865z" fill="#ff6b00" stroke-linecap="butt"/><path d="M222.81413,215.01801c4.11347,0 7.4481,2.47844 7.4481,5.53575c0,3.05731 -3.33463,5.53575 -7.4481,5.53575c-4.11347,0 -7.4481,-2.47844 -7.4481,-5.53575c0,-3.05731 3.33463,-5.53575 7.4481,-5.53575z" data-paper-data="{&quot;index&quot;:null}" fill="#ff6b00" stroke-linecap="butt"/><path d="M279.13325,178.40429c0,0 -1.47403,2.6847 -2.8652,4.17323c-1.1021,1.17924 -4.81845,4.04819 -4.81845,4.04819" fill="none" stroke-linecap="round"/><path d="M286.18938,171.02573c1.69152,2.27502 1.21852,5.49055 -1.0565,7.18207c-2.27502,1.69152 -5.49055,1.21852 -7.18207,-1.0565c-1.69152,-2.27502 -1.21852,-5.49055 1.0565,-7.18207c2.27502,-1.69152 5.49055,-1.21852 7.18207,1.0565z" fill="#ff6b00" stroke-linecap="butt"/><path d="M254.41572,213.02564c4.92502,-0.46871 6.56432,2.04599 6.87503,5.3109c0.31072,3.26491 -3.42992,6.2916 -8.35496,6.76032c-4.92502,0.46871 -8.9978,0.0055 -9.30851,-3.25941c-0.12,-1.26096 2.6571,-8.03794 10.78844,-8.81179z" data-paper-data="{&quot;index&quot;:null}" fill="#ff6b00" stroke-linecap="butt"/><path d="M272.69869,172.15893l-1.01798,12.85609l31.16586,13.98617l-34.52075,32.47093l-12.42512,-31.24928l-12.86354,0.3425z" data-paper-data="{&quot;index&quot;:null}" fill="#ffa340" stroke-linecap="butt"/><path d="M262.57107,177.80621c1.70849,1.24216 2.08653,3.63413 0.84439,5.34263c-1.24216,1.70849 -3.63413,2.08653 -5.34263,0.84439c-1.70849,-1.24216 -2.08653,-3.63413 -0.84439,-5.34263c1.24216,-1.70849 3.63413,-2.08653 5.34263,-0.84439z" fill="#ff6b00" stroke-linecap="butt"/></g></g></svg>