<svg version="1.1" xmlns="http://www.w3.org/2000/svg" xmlns:xlink="http://www.w3.org/1999/xlink" width="75.22279" height="83.25364" viewBox="0,0,75.22279,83.25364"><g transform="translate(-193.73253,-142.57028)"><g data-paper-data="{&quot;isPaintingLayer&quot;:true}" fill-rule="nonzero" stroke="#000000" stroke-width="2" stroke-linejoin="miter" stroke-miterlimit="10" stroke-dasharray="" stroke-dashoffset="0" style="mix-blend-mode: normal"><path d="M219.7339,150.16998c0,0 4.46034,-1.46542 6.0549,-1.71566c2.01279,-0.31586 5.06205,-0.02893 5.06205,-0.02893" data-paper-data="{&quot;index&quot;:null}" fill="none" stroke-linecap="round"/><path d="M237.7612,153.26414c-2.67689,0.93343 -5.60362,-0.47993 -6.53705,-3.15681c-0.93343,-2.67689 0.47993,-5.60362 3.15681,-6.53705c2.67689,-0.93343 5.60362,0.47993 6.53705,3.15681c0.93343,2.67689 -0.47993,5.60362 -3.15681,6.53705z" data-paper-data="{&quot;index&quot;:null}" fill="#e80000" stroke-linecap="butt"/><path d="M223.61142,176.79866c-7.65485,5.05247 -17.95617,2.94283 -23.00864,-4.71202c-5.05247,-7.65485 -2.94283,-17.95617 4.71202,-23.00864c7.65485,-5.05247 17.95617,-2.94283 23.00864,4.71202c5.05247,7.65485 2.94283,17.95617 -4.71202,23.00864z" data-paper-data="{&quot;index&quot;:null}" fill="#e80000" stroke-linecap="butt"/><path d="M234.85592,205.69034l-11.90337,-22.62485l6.94779,-3.65536l11.90337,22.62485z" fill="#e80000" stroke-linecap="butt"/><path d="M209.99861,196.25658c0,-2.11232 1.71238,-3.8247 3.8247,-3.8247c2.11232,0 3.8247,1.71238 3.8247,3.8247c0,2.11232 -1.71238,3.8247 -3.8247,3.8247c-2.11232,0 -3.8247,-1.71238 -3.8247,-3.8247z" fill="#e80000" stroke-linecap="butt"/><path d="M246.72381,191.84149c0,-2.11232 1.71238,-3.8247 3.8247,-3.8247c2.11232,0 3.8247,1.71238 3.8247,3.8247c0,2.11232 -1.71238,3.8247 -3.8247,3.8247c-2.11232,0 -3.8247,-1.71238 -3.8247,-3.8247z" fill="#e80000" stroke-linecap="butt"/><path d="M227.18278,213.75242c4.11347,0 7.4481,2.47844 7.4481,5.53575c0,3.05731 -3.33463,5.53575 -7.4481,5.53575c-4.11347,0 -7.4481,-2.47844 -7.4481,-5.53575c0,-3.05731 3.33463,-5.53575 7.4481,-5.53575z" data-paper-data="{&quot;index&quot;:null}" fill="#e80000" stroke-linecap="butt"/><path d="M263.20373,210.42093c4.73938,1.41909 5.31186,4.36582 4.37112,7.50766c-0.94075,3.14184 -5.5454,4.53841 -10.28479,3.11932c-4.73938,-1.41909 -8.33847,-3.38089 -7.39772,-6.52273c0.36333,-1.21343 5.48656,-6.4472 13.3114,-4.10425z" data-paper-data="{&quot;index&quot;:null}" fill="#e80000" stroke-linecap="butt"/><path d="M196.82619,162.83546l-1.82264,-5.29509l31.58142,-10.87076l1.82264,5.29509z" data-paper-data="{&quot;index&quot;:null}" fill="#ff2121" stroke-linecap="butt"/></g></g></svg>