<svg version="1.1" xmlns="http://www.w3.org/2000/svg" xmlns:xlink="http://www.w3.org/1999/xlink" width="96.32495" height="71.30467" viewBox="0,0,96.32495,71.30467"><g transform="translate(-192.33456,-145.33495)"><g data-paper-data="{&quot;isPaintingLayer&quot;:true}" fill-rule="nonzero" stroke="#000000" stroke-width="2" stroke-linejoin="miter" stroke-miterlimit="10" stroke-dasharray="" stroke-dashoffset="0" style="mix-blend-mode: normal"><path d="M230.1121,191.18526c-1.20145,1.73736 -3.58383,2.1718 -5.32119,0.97035c-1.73736,-1.20145 -2.1718,-3.58383 -0.97035,-5.32119c1.20145,-1.73736 3.58383,-2.1718 5.32119,-0.97035c1.73736,1.20145 2.1718,3.58383 0.97035,5.32119z" data-paper-data="{&quot;index&quot;:null}" fill="#ffe819" stroke-linecap="butt"/><path d="M252.49551,165.47863c3.2365,-8.58192 12.81723,-12.91523 21.39914,-9.67873c8.58192,3.2365 12.91523,12.81723 9.67873,21.39914c-3.2365,8.58192 -12.81723,12.91523 -21.39914,9.67873c-8.58192,-3.2365 -12.91523,-12.81723 -9.67873,-21.39914z" fill="#ffe819" stroke-linecap="butt"/><path d="M226.47752,195.71049l22.96187,-11.2395l3.4515,7.05129l-22.96187,11.2395z" fill="#ffe819" stroke-linecap="butt"/><path d="M253.22677,207.48618c-1.20145,1.73736 -3.58383,2.1718 -5.32119,0.97035c-1.73736,-1.20145 -2.1718,-3.58383 -0.97035,-5.32119c1.20145,-1.73736 3.58383,-2.1718 5.32119,-0.97035c1.73736,1.20145 2.1718,3.58383 0.97035,5.32119z" data-paper-data="{&quot;index&quot;:null}" fill="#ffe819" stroke-linecap="butt"/><path d="M240.49323,155.39284c0,0 2.754,-1.34008 4.74944,-1.75159c1.58081,-0.326 6.27164,-0.52127 6.27164,-0.52127" fill="none" stroke-linecap="round"/><path d="M230.47126,157.34016c-0.06668,-2.83418 2.17681,-5.18579 5.01099,-5.25247c2.83418,-0.06668 5.18579,2.17681 5.25247,5.01099c0.06668,2.83418 -2.17681,5.18579 -5.01099,5.25247c-2.83418,0.06668 -5.18579,-2.17681 -5.25247,-5.01099z" fill="#ffe819" stroke-linecap="butt"/><path d="M196.73167,197.94957c-4.19095,-2.62898 -3.95873,-5.62181 -2.21593,-8.40008c1.74281,-2.77827 6.55306,-2.8993 10.74402,-0.27032c4.19095,2.62898 7.1383,5.47769 5.39549,8.25597c-0.6731,1.07302 -7.00423,4.75494 -13.92359,0.41443z" data-paper-data="{&quot;index&quot;:null}" fill="#ffe819" stroke-linecap="butt"/><path d="M248.27451,163.83645l8.22231,-7.92717l-10.2478,-5.55477c0,0 16.86352,-6.25103 27.02196,-3.16231c10.15844,3.08872 14.04302,15.64829 14.04302,15.64829z" data-paper-data="{&quot;index&quot;:null}" fill="#fff067" stroke-linecap="butt"/><path d="M201.30572,215.63962c-4.93747,-0.31137 -6.16104,-3.05251 -5.95463,-6.32566c0.20642,-3.27316 4.37636,-5.67416 9.31384,-5.36279c4.93747,0.31137 8.88679,1.4091 8.68037,4.68226c-0.07972,1.26415 -3.88769,7.52027 -12.03958,7.00619z" data-paper-data="{&quot;index&quot;:null}" fill="#ffe819" stroke-linecap="butt"/></g></g></svg>