<svg version="1.1" xmlns="http://www.w3.org/2000/svg" xmlns:xlink="http://www.w3.org/1999/xlink" width="120.29642" height="95.53557" viewBox="0,0,120.29642,95.53557"><g transform="translate(-209.77331,-138.32951)"><g data-paper-data="{&quot;isPaintingLayer&quot;:true}" fill-rule="nonzero" stroke="#000000" stroke-width="2" stroke-linejoin="miter" stroke-miterlimit="10" stroke-dasharray="" stroke-dashoffset="0" style="mix-blend-mode: normal"><path d="M321.42033,185.35508c0,-2.11232 1.71238,-3.8247 3.8247,-3.8247c2.11232,0 3.8247,1.71238 3.8247,3.8247c0,2.11232 -1.71238,3.8247 -3.8247,3.8247c-2.11232,0 -3.8247,-1.71238 -3.8247,-3.8247z" fill="#ffe819" stroke-linecap="butt"/><path d="M251.67078,163.77067c0,-9.17193 7.43532,-16.60724 16.60724,-16.60724c9.17193,0 16.60724,7.43532 16.60724,16.60724c0,9.17193 -7.43532,16.60724 -16.60724,16.60724c-9.17193,0 -16.60724,-7.43532 -16.60724,-16.60724z" fill="#ffe819" stroke-linecap="butt"/><path d="M238.50152,203.46532l12.51571,-22.29194l6.84557,3.84341l-12.51571,22.29194z" fill="#ffe819" stroke-linecap="butt"/><path d="M236.8816,158.56893c0,0 2.10397,-2.22568 3.82583,-3.31485c1.36408,-0.86285 5.68426,-2.70082 5.68426,-2.70082" fill="none" stroke-linecap="round"/><path d="M228.19147,163.92744c-1.06249,-2.62833 0.20687,-5.62033 2.8352,-6.68282c2.62833,-1.06249 5.62033,0.20687 6.68282,2.8352c1.06249,2.62833 -0.20687,5.62033 -2.8352,6.68282c-2.62833,1.06249 -5.62033,-0.20687 -6.68282,-2.8352z" fill="#ffe819" stroke-linecap="butt"/><path d="M253.13036,222.26474c4.22799,2.56899 4.03844,5.56482 2.33541,8.36765c-1.70304,2.80283 -6.51108,2.99239 -10.73908,0.4234c-4.22799,-2.56899 -7.21564,-5.37541 -5.5126,-8.17824c0.65774,-1.0825 6.93576,-4.85427 13.91627,-0.61281z" data-paper-data="{&quot;index&quot;:null}" fill="#ffe819" stroke-linecap="butt"/><path d="M247.14183,163.72359l4.89612,-10.31864l-11.5487,-1.5813c0,0 13.57292,-11.79955 24.16781,-12.49414c10.59489,-0.69459 18.66148,9.6863 18.66148,9.6863z" data-paper-data="{&quot;index&quot;:null}" fill="#fff067" stroke-linecap="butt"/><path d="M235.15429,192.94918c0,-2.11232 1.71238,-3.8247 3.8247,-3.8247c2.11232,0 3.8247,1.71238 3.8247,3.8247c0,2.11232 -1.71238,3.8247 -3.8247,3.8247c-2.11232,0 -3.8247,-1.71238 -3.8247,-3.8247z" fill="#ffe819" stroke-linecap="butt"/><path d="M215.77167,200.55193c-3.26335,0.32667 -4.5056,-3.5796 -4.99836,-8.50228c-0.49277,-4.92269 1.75324,-9.17812 5.01659,-9.50479c3.26335,-0.32667 6.04763,0.79526 6.5404,5.71794c0.81357,8.12746 -5.29826,12.16296 -6.55863,12.28912z" data-paper-data="{&quot;index&quot;:null}" fill="#ffe819" stroke-linecap="butt"/></g></g></svg>