<svg version="1.1" xmlns="http://www.w3.org/2000/svg" xmlns:xlink="http://www.w3.org/1999/xlink" width="123.53752" height="81.74827" viewBox="0,0,123.53752,81.74827"><defs><radialGradient cx="268.0263" cy="157.7811" r="18.84183" gradientUnits="userSpaceOnUse" id="color-1"><stop offset="0" stop-color="#ffffff"/><stop offset="1" stop-color="#0debff"/></radialGradient></defs><g transform="translate(-208.94872,-146.77573)"><g data-paper-data="{&quot;isPaintingLayer&quot;:true}" fill-rule="nonzero" stroke-linejoin="miter" stroke-miterlimit="10" stroke-dasharray="" stroke-dashoffset="0" style="mix-blend-mode: normal"><g fill="#76f4ff" stroke="#53acb4" stroke-width="1" stroke-linecap="butt"><path d="M332.23543,147.24863l-68.62387,39.79139l-35.35625,7.65815l28.9537,-21.6886z" data-paper-data="{&quot;index&quot;:null}"/><path d="M211.33164,196.04487l23.68854,-7.7224l2.33217,5.11067l-21.5896,12.322z"/><path d="M252.21069,205.51867l-15.20752,-6.01318l-7.04216,-15.31351l5.70222,-14.93515l4.89905,19.6709z"/></g><path d="M209.94872,199.78078c0.55294,-2.03867 2.65385,-3.2431 4.69252,-2.69016c2.03867,0.55294 3.24309,2.65385 2.69015,4.69252c-0.55294,2.03867 -2.65384,3.2431 -4.69251,2.69016c-2.03867,-0.55294 -3.2431,-2.65385 -2.69016,-4.69252z" fill="#0debff" stroke="#000000" stroke-width="2" stroke-linecap="butt"/><path d="M241.47058,205.77468l20.30374,-15.53486l4.77055,6.235l-20.30374,15.53486z" data-paper-data="{&quot;index&quot;:null}" fill="#0debff" stroke="#000000" stroke-width="2" stroke-linecap="butt"/><path d="M222.13335,215.61447c4.11347,0 7.4481,2.47844 7.4481,5.53575c0,3.05731 -3.33463,5.53575 -7.4481,5.53575c-4.11347,0 -7.4481,-2.47844 -7.4481,-5.53575c0,-3.05731 3.33463,-5.53575 7.4481,-5.53575z" data-paper-data="{&quot;index&quot;:null}" fill="#0debff" stroke="#000000" stroke-width="2" stroke-linecap="butt"/><path d="M275.10277,215.68502c4.94675,0.0717 6.30176,2.75029 6.25423,6.02961c-0.04753,3.27932 -4.0962,5.87962 -9.04297,5.80793c-4.94675,-0.0717 -8.94464,-0.9767 -8.89711,-4.25602c0.01835,-1.26653 3.51862,-7.69987 11.68585,-7.5815z" data-paper-data="{&quot;index&quot;:null}" fill="#0debff" stroke="#000000" stroke-width="2" stroke-linecap="butt"/><path d="M268.13043,173.07688c3.96081,-8.27262 13.87796,-11.76803 22.15058,-7.80723c8.27262,3.96081 11.76803,13.87796 7.80723,22.15058c-3.96081,8.27262 -13.87796,11.76803 -22.15058,7.80723c-8.27262,-3.96081 -11.76803,-13.87796 -7.80723,-22.15058z" fill="#0debff" stroke="#000000" stroke-width="2" stroke-linecap="butt"/><path d="M257.50325,171.39671c0,0 2.49209,-1.7804 4.39101,-2.51877c1.50435,-0.58495 6.09701,-1.55941 6.09701,-1.55941" fill="none" stroke="#000000" stroke-width="2" stroke-linecap="round"/><path d="M247.9461,174.98734c-0.53818,-2.78341 1.28193,-5.47609 4.06534,-6.01427c2.78341,-0.53818 5.47609,1.28193 6.01427,4.06534c0.53818,2.78341 -1.28193,5.47609 -4.06534,6.01427c-2.78341,0.53818 -5.47609,-1.28193 -6.01427,-4.06534z" fill="#0debff" stroke="#000000" stroke-width="2" stroke-linecap="butt"/><path d="M264.01921,177.13251l0.90622,-20.78712l29.71843,-4.23864l6.68147,19.70491z" fill="url(#color-1)" stroke="#000000" stroke-width="2" stroke-linecap="butt"/><path d="M318.94086,191.57731c0.98268,-1.99654 4.0853,-3.05594 6.92988,-2.36622c2.84459,0.68972 4.35396,2.86737 3.37128,4.86391c-0.98268,1.99654 -4.08529,3.05594 -6.92988,2.36622c-2.84459,-0.68972 -4.35396,-2.86737 -3.37128,-4.86391z" fill="#0debff" stroke="#000000" stroke-width="2" stroke-linecap="butt"/></g></g></svg>