<svg version="1.1" xmlns="http://www.w3.org/2000/svg" xmlns:xlink="http://www.w3.org/1999/xlink" width="56.18729" height="90.99971" viewBox="0,0,56.18729,90.99971"><g transform="translate(-207.40192,-134.735)"><g data-paper-data="{&quot;isPaintingLayer&quot;:true}" fill-rule="nonzero" stroke="#000000" stroke-width="2" stroke-linejoin="miter" stroke-miterlimit="10" stroke-dasharray="" stroke-dashoffset="0" style="mix-blend-mode: normal"><path d="M219.1271,139.5317c0,0 3.05992,-0.13147 5.05404,0.28634c1.57977,0.33102 5.9598,2.02138 5.9598,2.02138" data-paper-data="{&quot;index&quot;:null}" fill="none" stroke-linecap="round"/><path d="M208.40192,138.93506c1.06836,-2.62595 4.06319,-3.88862 6.68914,-2.82026c2.62595,1.06836 3.88862,4.06319 2.82026,6.68914c-1.06836,2.62595 -4.06319,3.88862 -6.68914,2.82026c-2.62595,-1.06836 -3.88862,-4.06319 -2.82026,-6.68914z" data-paper-data="{&quot;index&quot;:null}" fill="#2d6a2b" stroke-linecap="butt"/><path d="M227.68661,156.67733c0,-9.17193 7.43532,-16.60724 16.60724,-16.60724c9.17193,0 16.60724,7.43532 16.60724,16.60724c0,9.17193 -7.43532,16.60724 -16.60724,16.60724c-9.17193,0 -16.60724,-7.43532 -16.60724,-16.60724z" fill="#2d6a2b" stroke-linecap="butt"/><path d="M236.61909,138.29602c14.84222,-5.55435 25.0872,3.06696 25.0872,3.06696l-37.64308,16.22019c0,0 -3.40193,-13.31531 12.55588,-19.28715z" fill="#367e33" stroke-linecap="round"/><path d="M234.27969,199.96257l3.69303,-25.29694l7.76836,1.13408l-3.69303,25.29694z" fill="#2d6a2b" stroke-linecap="butt"/><path d="M223.36557,189.17665c0,-2.11232 1.71238,-3.8247 3.8247,-3.8247c2.11232,0 3.8247,1.71238 3.8247,3.8247c0,2.11232 -1.71238,3.8247 -3.8247,3.8247c-2.11232,0 -3.8247,-1.71238 -3.8247,-3.8247z" fill="#2d6a2b" stroke-linecap="butt"/><path d="M251.36168,181.16223c0,-2.11232 1.71238,-3.8247 3.8247,-3.8247c2.11232,0 3.8247,1.71238 3.8247,3.8247c0,2.11232 -1.71238,3.8247 -3.8247,3.8247c-2.11232,0 -3.8247,-1.71238 -3.8247,-3.8247z" fill="#2d6a2b" stroke-linecap="butt"/><path d="M244.93546,212.89919c4.94667,0.0783 6.29808,2.75871 6.24618,6.03795c-0.05191,3.27925 -4.10404,5.87413 -9.05071,5.79584c-4.94667,-0.0783 -8.94332,-0.98864 -8.89142,-4.26789c0.02004,-1.2665 3.52889,-7.69516 11.69596,-7.5659z" data-paper-data="{&quot;index&quot;:null}" fill="#2d6a2b" stroke-linecap="butt"/><path d="M229.61405,217.48509c-4.92917,0.42287 -6.545,-2.10697 -6.82533,-5.37462c-0.28033,-3.26765 3.48831,-6.25941 8.41748,-6.68229c4.92917,-0.42287 8.99746,0.07822 9.2778,3.34586c0.10827,1.26203 -2.73177,8.01288 -10.86995,8.71106z" data-paper-data="{&quot;index&quot;:null}" fill="#2d6a2b" stroke-linecap="butt"/></g></g></svg>