<svg version="1.1" xmlns="http://www.w3.org/2000/svg" xmlns:xlink="http://www.w3.org/1999/xlink" width="70.15498" height="134.40434" viewBox="0,0,70.15498,134.40434"><g transform="translate(-193.4004,-94.82825)"><g data-paper-data="{&quot;isPaintingLayer&quot;:true}" fill-rule="nonzero" stroke="#000000" stroke-width="2" stroke-linejoin="miter" stroke-miterlimit="10" stroke-dasharray="" stroke-dashoffset="0" style="mix-blend-mode: normal"><path d="M239.81378,126.56444c0.49732,-2.05294 2.56473,-3.31402 4.61767,-2.8167c2.05294,0.49732 3.31402,2.56473 2.8167,4.61767c-0.49732,2.05294 -2.56473,3.31402 -4.61767,2.8167c-2.05294,-0.49732 -3.31402,-2.56473 -2.8167,-4.61767z" fill="#ff6b00" stroke-linecap="butt"/><path d="M219.70059,152.41416c0,-9.17193 7.43532,-16.60724 16.60724,-16.60724c9.17193,0 16.60724,7.43532 16.60724,16.60724c0,9.17193 -7.43532,16.60724 -16.60724,16.60724c-9.17193,0 -16.60724,-7.43532 -16.60724,-16.60724z" fill="#ff6b00" stroke-linecap="butt"/><path d="M231.94036,199.08957l-0.53346,-25.55951l7.84898,-0.16383l0.53346,25.55952z" data-paper-data="{&quot;index&quot;:null}" fill="#ff6b00" stroke-linecap="butt"/><path d="M220.85076,139.86324c0,0 -4.69122,-0.1855 -6.27271,-0.50821c-1.99627,-0.40736 -4.75308,-1.74169 -4.75308,-1.74169" data-paper-data="{&quot;index&quot;:null}" fill="none" stroke-linecap="round"/><path d="M205.04096,130.665c2.83432,0.06077 5.0827,2.40772 5.02193,5.24202c-0.06077,2.8343 -2.4077,5.08269 -5.24201,5.02192c-2.83432,-0.06077 -5.0827,-2.40772 -5.02193,-5.24202c0.06077,-2.8343 2.4077,-5.08269 5.24201,-5.02192z" data-paper-data="{&quot;index&quot;:null}" fill="#ff6b00" stroke-linecap="butt"/><path d="M254.82913,199.225c4.75765,-1.35659 6.82695,0.81805 7.72625,3.97199c0.89931,3.15395 -2.22849,6.81046 -6.98615,8.16706c-4.75765,1.35659 -8.84675,1.6418 -9.74606,-1.51215c-0.34732,-1.2181 1.15095,-8.38713 9.00595,-10.6269z" data-paper-data="{&quot;index&quot;:null}" fill="#ff6b00" stroke-linecap="butt"/><path d="M214.28035,150.53892l5.36709,-11.72645l-24.47544,-23.83015l43.56603,-18.65596l0.94934,33.61548l12.20022,4.09175z" data-paper-data="{&quot;index&quot;:null}" fill="#ffa340" stroke-linecap="butt"/><path d="M242.75597,216.93383c4.80672,1.17093 5.53153,4.08395 4.75528,7.27042c-0.77624,3.18647 -5.30211,4.82039 -10.10884,3.64946c-4.80672,-1.17093 -8.50287,-2.9431 -7.72662,-6.12956c0.2998,-1.23067 5.14418,-6.72355 13.08018,-4.79031z" data-paper-data="{&quot;index&quot;:null}" fill="#ff6b00" stroke-linecap="butt"/><path d="M235.75251,135.6374c0.49732,-2.05294 2.56473,-3.31402 4.61767,-2.8167c2.05294,0.49732 3.31402,2.56473 2.8167,4.61767c-0.49732,2.05294 -2.56473,3.31402 -4.61767,2.8167c-2.05294,-0.49732 -3.31402,-2.56473 -2.8167,-4.61767z" fill="#ff6b00" stroke-linecap="butt"/></g></g></svg>