<svg version="1.1" xmlns="http://www.w3.org/2000/svg" xmlns:xlink="http://www.w3.org/1999/xlink" width="158.28297" height="77.18949" viewBox="0,0,158.28297,77.18949"><g transform="translate(-210.90746,-149.97086)"><g data-paper-data="{&quot;isPaintingLayer&quot;:true}" fill-rule="nonzero" stroke="#000000" stroke-width="2" stroke-linejoin="miter" stroke-miterlimit="10" stroke-dasharray="" stroke-dashoffset="0" style="mix-blend-mode: normal"><path d="M212.89825,167.5249c1.2701,-9.08356 9.66341,-15.41762 18.74696,-14.14752c9.08356,1.2701 15.41763,9.66341 14.14753,18.74696c-1.2701,9.08356 -9.66341,15.41762 -18.74696,14.14752c-9.08356,-1.2701 -15.41763,-9.66341 -14.14753,-18.74696z" fill="#1d28e8" stroke-linecap="butt"/><path d="M242.69794,211.14597l-3.22571,-25.36077l7.78795,-0.99058l3.22572,25.36077z" fill="#1d28e8" stroke-linecap="butt"/><path d="M221.75371,196.90961c0,-2.11232 1.71238,-3.8247 3.8247,-3.8247c2.11232,0 3.8247,1.71238 3.8247,3.8247c0,2.11232 -1.71238,3.8247 -3.8247,3.8247c-2.11232,0 -3.8247,-1.71238 -3.8247,-3.8247z" fill="#1d28e8" stroke-linecap="butt"/><path d="M261.69645,220.222c0,3.05731 -3.33463,5.53575 -7.4481,5.53575c-4.11347,0 -7.4481,-2.47844 -7.4481,-5.53575c0,-3.05731 3.33463,-5.53575 7.4481,-5.53575c4.11347,0 7.4481,2.47844 7.4481,5.53575z" data-paper-data="{&quot;index&quot;:null}" fill="#1d28e8" stroke-linecap="butt"/><path d="M229.82316,222.0337c0,3.27966 -4.01057,4.12665 -8.95785,4.12665c-4.94729,0 -8.95785,-2.65869 -8.95785,-5.93835c0,-3.27966 1.39367,-5.93835 6.34095,-5.93835c8.16808,0 11.57475,6.48339 11.57475,7.75005z" data-paper-data="{&quot;index&quot;:null}" fill="#1d28e8" stroke-linecap="butt"/><path d="M287.43231,161.40429c0,-2.11232 1.71238,-3.8247 3.8247,-3.8247c2.11232,0 3.8247,1.71238 3.8247,3.8247c0,2.11232 -1.71238,3.8247 -3.8247,3.8247c-2.11232,0 -3.8247,-1.71238 -3.8247,-3.8247z" fill="#1d28e8" stroke-linecap="butt"/><path d="M359.71383,160.11443c0,0 -1.72817,2.52859 -3.25753,3.87475c-1.21159,1.06644 -5.18935,3.56032 -5.18935,3.56032" fill="none" stroke-linecap="round"/><path d="M367.45417,153.45718c1.46223,2.42877 0.6787,5.58303 -1.75006,7.04526c-2.42877,1.46223 -5.58303,0.6787 -7.04526,-1.75006c-1.46223,-2.42877 -0.6787,-5.58303 1.75006,-7.04526c2.42877,-1.46223 5.58303,-0.6787 7.04526,1.75006z" fill="#1d28e8" stroke-linecap="butt"/><path d="M351.10015,166.45536l7.74639,22.98854c0,0 -40.6634,11.1021 -66.38055,6.96361c-25.71715,-4.1385 -60.66837,-27.40877 -60.66837,-27.40877c0,0 27.60045,2.69389 40.69056,1.62149c12.76574,-1.04583 36.9014,-7.97821 36.9014,-7.97821l-18.19539,-2.35349z" fill="#2530ff" stroke-linecap="round"/></g></g></svg>