<svg version="1.1" xmlns="http://www.w3.org/2000/svg" xmlns:xlink="http://www.w3.org/1999/xlink" width="85.03399" height="69.68787" viewBox="0,0,85.03399,69.68787"><g transform="translate(-215.52792,-158.89165)"><g data-paper-data="{&quot;isPaintingLayer&quot;:true}" fill-rule="nonzero" stroke="#000000" stroke-width="2" stroke-linejoin="miter" stroke-miterlimit="10" stroke-dasharray="" stroke-dashoffset="0" style="mix-blend-mode: normal"><path d="M231.96274,218.28014l-5.22412,-25.02564l7.68504,-1.60426l5.22412,25.02564z" fill="#1d28e8" stroke-linecap="butt"/><path d="M223.97602,214.68624c4.11347,0 7.4481,2.47844 7.4481,5.53575c0,3.05731 -3.33463,5.53575 -7.4481,5.53575c-4.11347,0 -7.4481,-2.47844 -7.4481,-5.53575c0,-3.05731 3.33463,-5.53575 7.4481,-5.53575z" data-paper-data="{&quot;index&quot;:null}" fill="#1d28e8" stroke-linecap="butt"/><path d="M256.77747,214.28364c4.94728,0 6.34095,2.65869 6.34095,5.93835c0,3.27966 -4.01056,5.93835 -8.95785,5.93835c-4.94728,0 -8.95785,-0.84699 -8.95785,-4.12665c0,-1.26666 3.40667,-7.75005 11.57475,-7.75005z" data-paper-data="{&quot;index&quot;:null}" fill="#1d28e8" stroke-linecap="butt"/><path d="M263.14772,195.1095c0,-2.11232 1.71238,-3.8247 3.8247,-3.8247c2.11232,0 3.8247,1.71238 3.8247,3.8247c0,2.11232 -1.71238,3.8247 -3.8247,3.8247c-2.11232,0 -3.8247,-1.71238 -3.8247,-3.8247z" fill="#1d28e8" stroke-linecap="butt"/><path d="M224.65729,185.49039c0,-9.17193 7.43532,-16.60724 16.60724,-16.60724c9.17193,0 16.60724,7.43532 16.60724,16.60724c0,9.17193 -7.43532,16.60724 -16.60724,16.60724c-9.17193,0 -16.60724,-7.43532 -16.60724,-16.60724z" fill="#1d28e8" stroke-linecap="butt"/><path d="M264.90044,204.02688c0,-2.11232 1.71238,-3.8247 3.8247,-3.8247c2.11232,0 3.8247,1.71238 3.8247,3.8247c0,2.11232 -1.71238,3.8247 -3.8247,3.8247c-2.11232,0 -3.8247,-1.71238 -3.8247,-3.8247z" fill="#1d28e8" stroke-linecap="butt"/><path d="M264.54508,168.58876c0,0 2.33149,1.98608 3.50823,3.64932c0.93223,1.31765 2.99111,5.53701 2.99111,5.53701" fill="none" stroke-linecap="round"/><path d="M259.35267,160.37285c2.56988,-1.19696 5.62351,-0.08401 6.82047,2.48587c1.19696,2.56988 0.08401,5.62351 -2.48587,6.82047c-2.56988,1.19696 -5.62351,0.08401 -6.82047,-2.48587c-1.19696,-2.56988 -0.08401,-5.62351 2.48587,-6.82047z" fill="#1d28e8" stroke-linecap="butt"/><path d="M269.4438,176.83632l22.38707,-5.46309l7.49396,40.36097l-28.22556,-3.99097l1.03627,20.78429z" fill="#2530ff" stroke-linecap="round"/></g></g></svg>