<svg version="1.1" xmlns="http://www.w3.org/2000/svg" xmlns:xlink="http://www.w3.org/1999/xlink" width="33.40499" height="36.92394" viewBox="0,0,33.40499,36.92394"><g transform="translate(-222.62396,-163.24994)"><g data-paper-data="{&quot;isPaintingLayer&quot;:true}" fill-rule="nonzero" stroke="#000000" stroke-width="0" stroke-linecap="round" stroke-linejoin="miter" stroke-miterlimit="10" stroke-dasharray="" stroke-dashoffset="0" style="mix-blend-mode: normal"><g><path d="M224.17463,165.80289l0.14129,-2.21963l2.11103,2.61395l0.51382,-0.77381l0.2327,2.03365l-0.04734,1.43508l-1.93579,0.11508l-2.06498,-0.53338l0.56397,-0.7576l-1.06538,-2.01963z" fill="#fdff6c"/><path d="M224.72627,166.42696l0.10153,-1.59504l1.517,1.8784l0.36923,-0.55606l0.16722,1.46139l-0.22635,0.86734l-1.19873,0.24661l-1.4839,-0.38329l0.40527,-0.54442l-0.76559,-1.45131z" fill="#fdff8b"/></g><g data-paper-data="{&quot;index&quot;:null}"><path d="M256.02895,165.50816l-1.13842,2.1581l0.60263,0.80954l-2.20655,0.56995l-2.0685,-0.12297l-0.05058,-1.53347l0.24865,-2.17307l0.54905,0.82685l2.25576,-2.79315l0.15099,2.3718z" fill="#fdff6c"/><path d="M254.97323,166.20697l-0.81808,1.55082l0.43305,0.58174l-1.58564,0.40956l-1.28091,-0.26352l-0.24187,-0.9268l0.17868,-1.56158l0.39454,0.59418l1.62101,-2.00717l0.10849,1.70439z" fill="#fdff8b"/></g><g data-paper-data="{&quot;index&quot;:null}"><path d="M254.31181,197.93169l-0.1109,1.7422l-1.65696,-2.0517l-0.40329,0.60736l-0.18265,-1.59622l0.03715,-1.1264l1.51941,-0.09033l1.62081,0.41866l-0.44266,0.59465l0.83622,1.58522z" fill="#fdff6c"/><path d="M253.87883,197.44186l-0.07969,1.25195l-1.1907,-1.47436l-0.28981,0.43645l-0.13125,-1.14705l0.17767,-0.68078l0.94089,-0.19357l1.16472,0.30085l-0.3181,0.42731l0.60091,1.13915z" fill="#fdff8b"/></g><g data-paper-data="{&quot;index&quot;:null}"><path d="M223.62395,198.72224l0.7318,-1.38728l-0.38739,-0.52039l1.41842,-0.36638l1.32968,0.07905l0.03252,0.98575l-0.15984,1.3969l-0.35294,-0.53152l-1.45006,1.79551l-0.09705,-1.52465z" fill="#fdff6c"/><path d="M224.3026,198.27303l0.52588,-0.9969l-0.27838,-0.37396l1.01929,-0.26328l0.8234,0.1694l0.15548,0.59577l-0.11486,1.00382l-0.25362,-0.38195l-1.04202,1.29026l-0.06974,-1.09562z" fill="#fdff8b"/></g></g></g></svg>