<svg version="1.1" xmlns="http://www.w3.org/2000/svg" xmlns:xlink="http://www.w3.org/1999/xlink" width="105.62686" height="111.8097" viewBox="0,0,105.62686,111.8097"><defs><radialGradient cx="253.70035" cy="145.97359" r="18.84183" gradientUnits="userSpaceOnUse" id="color-1"><stop offset="0" stop-color="#ffffff"/><stop offset="1" stop-color="#0debff"/></radialGradient></defs><g transform="translate(-194.19908,-115.87627)"><g data-paper-data="{&quot;isPaintingLayer&quot;:true}" fill-rule="nonzero" stroke-linejoin="miter" stroke-miterlimit="10" stroke-dasharray="" stroke-dashoffset="0" style="mix-blend-mode: normal"><g data-paper-data="{&quot;index&quot;:null}" fill="#76f4ff" stroke="#53acb4" stroke-width="1" stroke-linecap="butt"><path d="M260.22136,160.79228l22.26678,28.51145l-32.11878,-16.6462l-55.81499,-56.36735z" data-paper-data="{&quot;index&quot;:null}"/><path d="M291.65076,203.24528l-17.61131,-17.54378l3.58865,-4.32198l20.84108,13.654z"/><path d="M272.1208,180.51294l9.87741,-17.70259l1.59387,15.90703l-10.80517,12.93614l-16.25131,1.82269z"/></g><path d="M295.00124,202.82587c-2.11232,0 -3.8247,-1.71238 -3.8247,-3.8247c0,-2.11232 1.71238,-3.8247 3.8247,-3.8247c2.11232,0 3.8247,1.71238 3.8247,3.8247c0,2.11232 -1.71238,3.8247 -3.8247,3.8247z" data-paper-data="{&quot;index&quot;:null}" fill="#0debff" stroke="#000000" stroke-width="2" stroke-linecap="butt"/><path d="M238.94989,207.4762l12.21991,-22.45545l6.89577,3.75256l-12.21991,22.45545z" data-paper-data="{&quot;index&quot;:null}" fill="#0debff" stroke="#000000" stroke-width="2" stroke-linecap="butt"/><path d="M223.39077,190.87555c0,-2.11232 1.71238,-3.8247 3.8247,-3.8247c2.11232,0 3.8247,1.71238 3.8247,3.8247c0,2.11232 -1.71238,3.8247 -3.8247,3.8247c-2.11232,0 -3.8247,-1.71238 -3.8247,-3.8247z" fill="#0debff" stroke="#000000" stroke-width="2" stroke-linecap="butt"/><path d="M222.88335,215.61447c4.11347,0 7.4481,2.47844 7.4481,5.53575c0,3.05731 -3.33463,5.53575 -7.4481,5.53575c-4.11347,0 -7.4481,-2.47844 -7.4481,-5.53575c0,-3.05731 3.33463,-5.53575 7.4481,-5.53575z" data-paper-data="{&quot;index&quot;:null}" fill="#0debff" stroke="#000000" stroke-width="2" stroke-linecap="butt"/><path d="M262.7249,213.495c4.74209,-1.41001 6.83571,0.7412 7.77044,3.88484c0.93473,3.14364 -2.15175,6.8351 -6.89385,8.24512c-4.74209,1.41001 -8.82772,1.7412 -9.76245,-1.40244c-0.36101,-1.21413 1.05655,-8.39955 8.88587,-10.72751z" data-paper-data="{&quot;index&quot;:null}" fill="#0debff" stroke="#000000" stroke-width="2" stroke-linecap="butt"/><path d="M251.97484,161.47173c5.34335,-7.45472 15.71823,-9.16632 23.17296,-3.82298c7.45472,5.34335 9.16632,15.71823 3.82298,23.17296c-5.34335,7.45472 -15.71823,9.16632 -23.17296,3.82298c-7.45472,-5.34335 -9.16632,-15.71823 -3.82298,-23.17296z" fill="#0debff" stroke="#000000" stroke-width="2" stroke-linecap="butt"/><path d="M241.80377,157.96325c0,0 2.76449,-1.31831 4.7631,-1.71406c1.58333,-0.31352 6.27557,-0.47178 6.27557,-0.47178" fill="none" stroke="#000000" stroke-width="2" stroke-linecap="round"/><path d="M231.76675,159.83142c-0.04432,-2.83462 2.21766,-5.16845 5.05227,-5.21277c2.83462,-0.04432 5.16845,2.21766 5.21277,5.05227c0.04432,2.83462 -2.21766,5.16845 -5.05227,5.21277c-2.83462,0.04432 -5.16845,-2.21766 -5.21277,-5.05227z" fill="#0debff" stroke="#000000" stroke-width="2" stroke-linecap="butt"/><path d="M246.38215,164.33056l4.515,-20.31109l30.00234,1.00536l3.14518,20.56777z" data-paper-data="{&quot;index&quot;:null}" fill="url(#color-1)" stroke="#000000" stroke-width="2" stroke-linecap="butt"/></g></g></svg>