<svg version="1.1" xmlns="http://www.w3.org/2000/svg" xmlns:xlink="http://www.w3.org/1999/xlink" width="72.20304" height="98.85649" viewBox="0,0,72.20304,98.85649"><g transform="translate(-188.16653,-128.23303)"><g data-paper-data="{&quot;isPaintingLayer&quot;:true}" fill-rule="nonzero" stroke="#000000" stroke-width="2" stroke-linejoin="miter" stroke-miterlimit="10" stroke-dasharray="" stroke-dashoffset="0" style="mix-blend-mode: normal"><path d="M226.97857,214.24593l-2.13149,-25.47608l7.82337,-0.65455l2.13149,25.47608z" fill="#ff6b00" stroke-linecap="butt"/><path d="M235.81976,198.95725c0,-2.11232 1.71238,-3.8247 3.8247,-3.8247c2.11232,0 3.8247,1.71238 3.8247,3.8247c0,2.11232 -1.71238,3.8247 -3.8247,3.8247c-2.11232,0 -3.8247,-1.71238 -3.8247,-3.8247z" fill="#ff6b00" stroke-linecap="butt"/><path d="M216.92374,182.75158c0,-9.17193 7.43532,-16.60724 16.60724,-16.60724c9.17193,0 16.60724,7.43532 16.60724,16.60724c0,9.17193 -7.43532,16.60724 -16.60724,16.60724c-9.17193,0 -16.60724,-7.43532 -16.60724,-16.60724z" fill="#ff6b00" stroke-linecap="butt"/><path d="M206.9335,205.963c0,-2.11232 1.71238,-3.8247 3.8247,-3.8247c2.11232,0 3.8247,1.71238 3.8247,3.8247c0,2.11232 -1.71238,3.8247 -3.8247,3.8247c-2.11232,0 -3.8247,-1.71238 -3.8247,-3.8247z" fill="#ff6b00" stroke-linecap="butt"/><path d="M224.71067,215.01803c4.11347,0 7.4481,2.47844 7.4481,5.53575c0,3.05731 -3.33463,5.53575 -7.4481,5.53575c-4.11347,0 -7.4481,-2.47844 -7.4481,-5.53575c0,-3.05731 3.33463,-5.53575 7.4481,-5.53575z" data-paper-data="{&quot;index&quot;:null}" fill="#ff6b00" stroke-linecap="butt"/><path d="M205.3841,175.39909c0,0 2.84919,-1.12361 4.87042,-1.37994c1.60125,-0.20308 6.29316,-0.03584 6.29316,-0.03584" data-paper-data="{&quot;index&quot;:null}" fill="none" stroke-linecap="round"/><path d="M195.24177,176.56738c0.15219,-2.83087 2.57042,-5.00238 5.40129,-4.8502c2.83087,0.15219 5.00238,2.57042 4.8502,5.4013c-0.15219,2.83087 -2.57042,5.00238 -5.4013,4.8502c-2.83087,-0.15219 -5.00238,-2.57042 -4.85019,-5.4013z" data-paper-data="{&quot;index&quot;:null}" fill="#ff6b00" stroke-linecap="butt"/><path d="M252.59196,213.52564c4.93271,-0.37933 6.52614,2.16467 6.77761,5.43468c0.25147,3.27001 -3.54343,6.22837 -8.47616,6.60772c-4.93271,0.37933 -8.99642,-0.15764 -9.24789,-3.42765c-0.09712,-1.26292 2.8024,-7.98844 10.94644,-8.61473z" data-paper-data="{&quot;index&quot;:null}" fill="#ff6b00" stroke-linecap="butt"/><path d="M212.36294,186.10728l4.22817,-12.18351l-26.62972,-21.39582l41.5955,-22.71252l4.14025,33.37304l12.53391,2.91357z" data-paper-data="{&quot;index&quot;:null}" fill="#ffa340" stroke-linecap="butt"/></g></g></svg>