<svg version="1.1" xmlns="http://www.w3.org/2000/svg" xmlns:xlink="http://www.w3.org/1999/xlink" width="15.14989" height="15.59468" viewBox="0,0,15.14989,15.59468"><defs><linearGradient x1="243.0701" y1="180.16342" x2="243.0701" y2="187.48751" gradientUnits="userSpaceOnUse" id="color-1"><stop offset="0" stop-color="#78706a"/><stop offset="1" stop-color="#131212"/></linearGradient><linearGradient x1="236.09395" y1="179.0214" x2="236.09395" y2="185.4167" gradientUnits="userSpaceOnUse" id="color-2"><stop offset="0" stop-color="#78706a"/><stop offset="1" stop-color="#131212"/></linearGradient><linearGradient x1="243.4347" y1="171.89282" x2="243.4347" y2="180.28385" gradientUnits="userSpaceOnUse" id="color-3"><stop offset="0" stop-color="#78706a"/><stop offset="1" stop-color="#131212"/></linearGradient></defs><g transform="translate(-232.31771,-171.89282)"><g data-paper-data="{&quot;isPaintingLayer&quot;:true}" fill-rule="nonzero" stroke="none" stroke-width="0" stroke-linecap="butt" stroke-linejoin="miter" stroke-miterlimit="10" stroke-dasharray="" stroke-dashoffset="0" style="mix-blend-mode: normal"><path d="M247.39481,183.82546c0,2.02249 -1.93624,3.66204 -4.3247,3.66204c-2.38847,0 -4.3247,-1.63955 -4.3247,-3.66204c0,-2.02249 1.93624,-3.66204 4.3247,-3.66204c2.38847,0 4.3247,1.63955 4.3247,3.66204z" fill="url(#color-1)"/><path d="M239.87023,182.21905c0,1.76602 -1.69069,3.19764 -3.77626,3.19764c-2.08558,0 -3.77626,-1.43163 -3.77626,-3.19764c0,-1.76602 1.69069,-3.19765 3.77626,-3.19765c2.08558,0 3.77626,1.43164 3.77626,3.19765z" fill="url(#color-2)"/><path d="M243.4347,171.89282c2.22731,0 4.0329,1.8784 4.0329,4.19552c0,2.31712 -1.80559,4.19552 -4.0329,4.19552c-2.22731,0 -4.0329,-1.8784 -4.0329,-4.19552c0,-2.31712 1.80559,-4.19552 4.0329,-4.19552z" fill="url(#color-3)"/></g></g></svg>