<svg version="1.1" xmlns="http://www.w3.org/2000/svg" xmlns:xlink="http://www.w3.org/1999/xlink" width="67.88559" height="109.94161" viewBox="0,0,67.88559,109.94161"><g transform="translate(-204.27108,-121.9863)"><g data-paper-data="{&quot;isPaintingLayer&quot;:true}" fill-rule="nonzero" stroke="#000000" stroke-width="2" stroke-linejoin="miter" stroke-miterlimit="10" stroke-dasharray="" stroke-dashoffset="0" style="mix-blend-mode: normal"><path d="M244.93713,205.74825l-11.30325,-22.93056l7.04167,-3.47108l11.30325,22.93056z" fill="#1d28e8" stroke-linecap="butt"/><path d="M228.30288,204.55925c-1.13893,-1.77897 -0.62008,-4.1444 1.15889,-5.28334c1.77897,-1.13893 4.1444,-0.62008 5.28334,1.15889c1.13893,1.77897 0.62008,4.1444 -1.15889,5.28334c-1.77897,1.13893 -4.1444,0.62008 -5.28334,-1.15889z" fill="#1d28e8" stroke-linecap="butt"/><path d="M223.80474,163.64786c-0.54277,-9.15586 6.43951,-17.01814 15.59536,-17.56092c9.15586,-0.54277 17.01814,6.43951 17.56092,15.59536c0.54277,9.15586 -6.43951,17.01814 -15.59536,17.56092c-9.15586,0.54277 -17.01814,-6.43951 -17.56092,-15.59536z" fill="#1d28e8" stroke-linecap="butt"/><path d="M214.52492,167.81515c0,0 2.22663,-2.10297 4.00739,-3.0929c1.41075,-0.78423 5.82807,-2.37463 5.82807,-2.37463" fill="none" stroke-linecap="round"/><path d="M205.54532,172.673c-0.91196,-2.68428 0.52477,-5.5996 3.20906,-6.51155c2.68428,-0.91196 5.5996,0.52477 6.51155,3.20906c0.91196,2.68428 -0.52477,5.5996 -3.20906,6.51155c-2.68428,0.91196 -5.5996,-0.52477 -6.51155,-3.20906z" fill="#1d28e8" stroke-linecap="butt"/><path d="M223.55877,162.85594l-12.21265,-19.54169l35.97025,-19.78152l5.06842,28.05212l19.40911,-7.50647z" fill="#2530ff" stroke-linecap="round"/><path d="M233.73274,200.41497c-1.13893,-1.77897 -0.62008,-4.1444 1.15889,-5.28334c1.77897,-1.13893 4.1444,-0.62008 5.28334,1.15889c1.13893,1.77897 0.62008,4.1444 -1.15889,5.28334c-1.77897,1.13893 -4.1444,0.62008 -5.28334,-1.15889z" fill="#1d28e8" stroke-linecap="butt"/><path d="M255.73718,220.44628c4.09973,2.76909 3.76652,5.75235 1.93083,8.47016c-1.83569,2.7178 -6.64729,2.67623 -10.74702,-0.09287c-4.09973,-2.76909 -6.94914,-5.71576 -5.11345,-8.43356c0.70897,-1.04966 7.1609,-4.51556 13.92964,0.05627z" data-paper-data="{&quot;index&quot;:null}" fill="#1d28e8" stroke-linecap="butt"/><path d="M265.7862,220.0064c3.90842,3.03312 3.37943,5.98797 1.36871,8.57895c-2.01072,2.59098 -6.80913,2.23256 -10.71756,-0.80057c-3.90842,-3.03312 -6.55755,-6.16109 -4.54683,-8.75207c0.77658,-1.00068 7.44279,-4.03406 13.89569,0.97369z" data-paper-data="{&quot;index&quot;:null}" fill="#1d28e8" stroke-linecap="butt"/></g></g></svg>