<svg version="1.1" xmlns="http://www.w3.org/2000/svg" xmlns:xlink="http://www.w3.org/1999/xlink" width="61.19048" height="83.75016" viewBox="0,0,61.19048,83.75016"><g transform="translate(-218.73467,-142.47636)"><g data-paper-data="{&quot;isPaintingLayer&quot;:true}" fill-rule="nonzero" stroke="#000000" stroke-width="2" stroke-linejoin="miter" stroke-miterlimit="10" stroke-dasharray="" stroke-dashoffset="0" style="mix-blend-mode: normal"><path d="M236.1572,154.51055c0,0 2.81667,-1.20279 4.82996,-1.51552c1.59495,-0.24775 6.28971,-0.21172 6.28971,-0.21172" fill="none" stroke-linecap="round"/><path d="M226.05148,155.96186c0.073,-2.83402 2.42961,-5.07228 5.26362,-4.99926c2.83402,0.073 5.07228,2.42961 4.99926,5.26362c-0.073,2.83402 -2.42961,5.07228 -5.26362,4.99926c-2.83402,-0.073 -5.07228,-2.42961 -4.99926,-5.26362z" fill="#e80000" stroke-linecap="butt"/><path d="M236.10667,160.0836c0,-9.17193 7.43532,-16.60724 16.60724,-16.60724c9.17193,0 16.60724,7.43532 16.60724,16.60724c0,9.17193 -7.43532,16.60724 -16.60724,16.60724c-9.17193,0 -16.60724,-7.43532 -16.60724,-16.60724z" fill="#e80000" stroke-linecap="butt"/><path d="M271.66172,156.39227c0.9257,-1.89868 3.21532,-2.68743 5.114,-1.76172c1.89868,0.9257 2.68743,3.21532 1.76172,5.114c-0.9257,1.89868 -11.21307,13.5079 -13.11174,12.5822c-1.89868,-0.9257 5.31032,-14.0358 6.23602,-15.93448z" fill="#e80000" stroke-linecap="butt"/><path d="M238.10485,204.31402l5.01653,-25.06807l7.69807,1.54052l-5.01653,25.06807z" fill="#e80000" stroke-linecap="butt"/><path d="M227.18278,213.75242c4.11347,0 7.4481,2.47844 7.4481,5.53575c0,3.05731 -3.33463,5.53575 -7.4481,5.53575c-4.11347,0 -7.4481,-2.47844 -7.4481,-5.53575c0,-3.05731 3.33463,-5.53575 7.4481,-5.53575z" data-paper-data="{&quot;index&quot;:null}" fill="#e80000" stroke-linecap="butt"/><path d="M266.64865,213.34982c4.94728,0 6.34095,2.65869 6.34095,5.93835c0,3.27966 -4.01056,5.93835 -8.95785,5.93835c-4.94728,0 -8.95785,-0.84699 -8.95785,-4.12665c0,-1.26666 3.40667,-7.75005 11.57475,-7.75005z" data-paper-data="{&quot;index&quot;:null}" fill="#e80000" stroke-linecap="butt"/><path d="M236.15224,155.81741l-0.14941,-5.59801l33.38811,-0.89111l0.14941,5.598z" fill="#ff2121" stroke-linecap="butt"/><path d="M262.56335,164.18922c-0.72474,-0.66117 4.05064,-11.99235 4.69196,-12.69532c1.42363,-1.5605 3.84276,-1.67146 5.40326,-0.24782c1.5605,1.42363 1.67145,3.84276 0.24782,5.40326c-0.72981,0.79997 -9.58252,8.2337 -10.34304,7.53988z" fill="#e80000" stroke-linecap="butt"/></g></g></svg>