<svg version="1.1" xmlns="http://www.w3.org/2000/svg" xmlns:xlink="http://www.w3.org/1999/xlink" width="47.75" height="47.75" viewBox="0,0,47.75,47.75"><defs><linearGradient x1="240.00001" y1="199.31568" x2="240.00001" y2="160.68428" gradientUnits="userSpaceOnUse" id="color-1"><stop offset="0" stop-color="#828282"/><stop offset="1" stop-color="#484848"/></linearGradient></defs><g transform="translate(-216.125,-156.125)"><g data-paper-data="{&quot;isPaintingLayer&quot;:true}" fill-rule="nonzero" stroke-linecap="butt" stroke-linejoin="miter" stroke-miterlimit="10" stroke-dasharray="" stroke-dashoffset="0" style="mix-blend-mode: normal"><path d="M216.12501,180c0,-13.1858 10.6892,-23.875 23.875,-23.875c13.1858,0 23.875,10.6892 23.875,23.875c0,13.1858 -10.6892,23.875 -23.875,23.875c-13.1858,0 -23.875,-10.6892 -23.875,-23.875z" fill="#898989" stroke="none" stroke-width="0"/><path d="M225.18726,181.10487c1.35014,-1.35245 11.30147,-0.10501 11.30147,-0.10501c0,0 -0.01347,-12.57993 -0.01659,-16.85278c-0.00133,-1.91105 1.54697,-3.46139 3.45782,-3.46279c1.91113,-0.0014 3.46105,1.54662 3.46245,3.45775c0.00269,3.66372 0.01693,16.85791 0.01693,16.85791c0,0 10.04835,-1.36651 11.40045,-0.01602c1.3521,1.35113 1.35407,3.54142 0.00358,4.89352c-4.32194,4.32894 -12.40532,12.42311 -12.40532,12.42311c-1.35043,1.3521 -3.54142,1.35371 -4.89324,0.00357c0,0 -6.98535,-6.97485 -12.32396,-12.30568c-1.35308,-1.35113 -1.3547,-3.54177 -0.00358,-4.89359z" data-paper-data="{&quot;index&quot;:null}" fill="url(#color-1)" stroke="#000000" stroke-width="2"/></g></g></svg>