<svg version="1.1" xmlns="http://www.w3.org/2000/svg" xmlns:xlink="http://www.w3.org/1999/xlink" width="144.8346" height="73.75134" viewBox="0,0,144.8346,73.75134"><g transform="translate(-200.43449,-152.31721)"><g data-paper-data="{&quot;isPaintingLayer&quot;:true}" fill-rule="nonzero" stroke-linejoin="miter" stroke-miterlimit="10" stroke-dasharray="" stroke-dashoffset="0" style="mix-blend-mode: normal"><path d="M242.5899,199.97544c0,-2.11232 1.71238,-3.8247 3.8247,-3.8247c2.11232,0 3.8247,1.71238 3.8247,3.8247c0,2.11232 -1.71238,3.8247 -3.8247,3.8247c-2.11232,0 -3.8247,-1.71238 -3.8247,-3.8247z" fill="#ffe819" stroke="#000000" stroke-width="2" stroke-linecap="butt"/><path d="M267.81524,175.93722c0.549,-9.15548 8.41605,-16.13241 17.57152,-15.5834c9.15548,0.549 16.13241,8.41605 15.5834,17.57152c-0.549,9.15548 -8.41605,16.13241 -17.57152,15.5834c-9.15548,-0.549 -16.13241,-8.41605 -15.5834,-17.57152z" fill="#ffe819" stroke="#000000" stroke-width="2" stroke-linecap="butt"/><path d="M235.80764,206.80247l18.84464,-17.27579l5.30517,5.78695l-18.84464,17.27579z" fill="#ffe819" stroke="#000000" stroke-width="2" stroke-linecap="butt"/><path d="M217.54116,213.79989c4.11347,0 7.4481,2.47844 7.4481,5.53575c0,3.05731 -3.33463,5.53575 -7.4481,5.53575c-4.11347,0 -7.4481,-2.47844 -7.4481,-5.53575c0,-3.05731 3.33463,-5.53575 7.4481,-5.53575z" data-paper-data="{&quot;index&quot;:null}" fill="#ffe819" stroke="#000000" stroke-width="2" stroke-linecap="butt"/><path d="M261.65558,164.48788c0,0 -4.44827,1.50166 -6.04073,1.76487c-2.01015,0.33224 -5.06165,0.07012 -5.06165,0.07012" data-paper-data="{&quot;index&quot;:null}" fill="none" stroke="#000000" stroke-width="2" stroke-linecap="round"/><path d="M243.60371,161.54053c2.6692,-0.95518 5.60734,0.43432 6.56252,3.10352c0.95518,2.6692 -0.43432,5.60734 -3.10352,6.56252c-2.6692,0.95518 -5.60734,-0.43432 -6.56252,-3.10352c-0.95518,-2.6692 0.43432,-5.60734 3.10352,-6.56252z" data-paper-data="{&quot;index&quot;:null}" fill="#ffe819" stroke="#000000" stroke-width="2" stroke-linecap="butt"/><path d="M265.16477,213.19185c4.94728,0 6.34095,2.65869 6.34095,5.93835c0,3.27966 -4.01056,5.93835 -8.95785,5.93835c-4.94728,0 -8.95785,-0.84699 -8.95785,-4.12665c0,-1.26666 3.40667,-7.75005 11.57475,-7.75005z" data-paper-data="{&quot;index&quot;:null}" fill="#ffe819" stroke="#000000" stroke-width="2" stroke-linecap="butt"/><path d="M263.29723,175.61914l5.50498,-10.00707l-11.43334,-2.26974c0,0 14.25487,-10.96596 24.87234,-11.02512c10.61747,-0.05917 18.04823,10.78595 18.04823,10.78595z" data-paper-data="{&quot;index&quot;:null}" fill="#fff067" stroke="#000000" stroke-width="2" stroke-linecap="butt"/><path d="M265.70466,211.698l-1.74352,-10.93136l-22.83422,10.34488l-1.65094,-11.12991l-24.93003,6.81771l-14.11146,-18.29958l46.60907,-3.68196l-0.07751,7.76542l26.66278,-8.12215l-1.1438,9.02183l34.62599,-7.38277l-2.6569,5.97346l40.81497,-2.14905l-49.1509,15.97237l0.74779,-8.07286l-31.16128,13.87403" data-paper-data="{&quot;index&quot;:null}" fill="#fff200" stroke="none" stroke-width="0.66342" stroke-linecap="butt"/><path d="M311.17514,190.89721c2.97136,-0.52528 5.80595,1.45766 6.33123,4.42901c0.52528,2.97136 -1.45766,5.80595 -4.42901,6.33123c-2.97136,0.52528 -110.52324,-7.56284 -110.52324,-7.56284z" fill="#ffe819" stroke="#000000" stroke-width="2" stroke-linecap="butt"/></g></g></svg>