<svg version="1.1" xmlns="http://www.w3.org/2000/svg" xmlns:xlink="http://www.w3.org/1999/xlink" width="129.70684" height="136.75392" viewBox="0,0,129.70684,136.75392"><defs><radialGradient cx="240.27631" cy="145.0311" r="18.84183" gradientUnits="userSpaceOnUse" id="color-1"><stop offset="0" stop-color="#ffffff"/><stop offset="1" stop-color="#0debff"/></radialGradient></defs><g transform="translate(-214.43524,-90.93205)"><g data-paper-data="{&quot;isPaintingLayer&quot;:true}" fill-rule="nonzero" stroke-linejoin="miter" stroke-miterlimit="10" stroke-dasharray="" stroke-dashoffset="0" style="mix-blend-mode: normal"><g fill="#76f4ff" stroke="#53acb4" stroke-width="1" stroke-linecap="butt"><path d="M343.70933,91.2615l-39.73328,68.65754l-26.86062,24.23261l14.32659,-33.21838z" data-paper-data="{&quot;index&quot;:null}"/><path d="M263.10464,193.73922l16.70726,-18.48377l4.56559,3.27312l-12.59824,21.42958z"/><path d="M303.2791,181.62052l-16.18357,2.34935l-13.72718,-9.78059l-2.48359,-15.79259l14.03586,14.62667z"/></g><path d="M263.76358,197.66801c-0.53456,-2.04356 0.68873,-4.13355 2.73229,-4.66811c2.04356,-0.53456 4.13355,0.68873 4.66811,2.73229c0.53456,2.04356 -0.68873,4.13355 -2.73229,4.66811c-2.04356,0.53456 -4.13355,-0.68873 -4.66811,-2.73229z" fill="#0debff" stroke="#000000" stroke-width="2" stroke-linecap="butt"/><path d="M235.21662,209.4171l7.58502,-24.41395l7.4972,2.32925l-7.58502,24.41395z" data-paper-data="{&quot;index&quot;:null}" fill="#0debff" stroke="#000000" stroke-width="2" stroke-linecap="butt"/><path d="M228.55743,195.12555c0,-2.11232 1.71238,-3.8247 3.8247,-3.8247c2.11232,0 3.8247,1.71238 3.8247,3.8247c0,2.11232 -1.71238,3.8247 -3.8247,3.8247c-2.11232,0 -3.8247,-1.71238 -3.8247,-3.8247z" fill="#0debff" stroke="#000000" stroke-width="2" stroke-linecap="butt"/><path d="M222.88335,215.61447c4.11347,0 7.4481,2.47844 7.4481,5.53575c0,3.05731 -3.33463,5.53575 -7.4481,5.53575c-4.11347,0 -7.4481,-2.47844 -7.4481,-5.53575c0,-3.05731 3.33463,-5.53575 7.4481,-5.53575z" data-paper-data="{&quot;index&quot;:null}" fill="#0debff" stroke="#000000" stroke-width="2" stroke-linecap="butt"/><path d="M262.7249,213.495c4.74209,-1.41001 6.83571,0.7412 7.77044,3.88484c0.93473,3.14364 -2.15175,6.8351 -6.89385,8.24512c-4.74209,1.41001 -8.82772,1.7412 -9.76245,-1.40244c-0.36101,-1.21413 1.05655,-8.39955 8.88587,-10.72751z" data-paper-data="{&quot;index&quot;:null}" fill="#0debff" stroke="#000000" stroke-width="2" stroke-linecap="butt"/><path d="M240.38044,160.32688c3.96081,-8.27262 13.87796,-11.76803 22.15058,-7.80723c8.27262,3.96081 11.76803,13.87796 7.80723,22.15058c-3.96081,8.27262 -13.87796,11.76803 -22.15058,7.80723c-8.27262,-3.96081 -11.76803,-13.87796 -7.80723,-22.15058z" fill="#0debff" stroke="#000000" stroke-width="2" stroke-linecap="butt"/><path d="M229.75326,158.64671c0,0 2.49209,-1.7804 4.39101,-2.51877c1.50435,-0.58495 6.09701,-1.55941 6.09701,-1.55941" fill="none" stroke="#000000" stroke-width="2" stroke-linecap="round"/><path d="M220.1961,162.23734c-0.53818,-2.78341 1.28193,-5.47609 4.06534,-6.01427c2.78341,-0.53818 5.47609,1.28193 6.01427,4.06534c0.53818,2.78341 -1.28193,5.47609 -4.06534,6.01427c-2.78341,0.53818 -5.47609,-1.28193 -6.01427,-4.06534z" fill="#0debff" stroke="#000000" stroke-width="2" stroke-linecap="butt"/><path d="M236.26922,164.38251l0.90622,-20.78712l29.71843,-4.23864l6.68147,19.70491z" fill="url(#color-1)" stroke="#000000" stroke-width="2" stroke-linecap="butt"/></g></g></svg>