<svg version="1.1" xmlns="http://www.w3.org/2000/svg" xmlns:xlink="http://www.w3.org/1999/xlink" width="76.94771" height="116.29526" viewBox="0,0,76.94771,116.29526"><g transform="translate(-187.304,-110.79425)"><g data-paper-data="{&quot;isPaintingLayer&quot;:true}" fill-rule="nonzero" stroke="#000000" stroke-width="2" stroke-linejoin="miter" stroke-miterlimit="10" stroke-dasharray="" stroke-dashoffset="0" style="mix-blend-mode: normal"><path d="M238.17336,151.92979c0.00874,-2.1123 1.7282,-3.81758 3.8405,-3.80884c2.1123,0.00874 3.81758,1.7282 3.80884,3.8405c-0.00874,2.1123 -1.7282,3.81758 -3.8405,3.80884c-2.1123,-0.00874 -3.81758,-1.7282 -3.80884,-3.8405z" fill="#ff6b00" stroke-linecap="butt"/><path d="M213.91886,164.51079c0.03796,-9.17185 7.504,-16.57632 16.67584,-16.53836c9.17185,0.03796 16.57632,7.504 16.53836,16.67584c-0.03796,9.17185 -7.504,16.57632 -16.67584,16.53836c-9.17185,-0.03796 -16.57632,-7.504 -16.53836,-16.67584z" fill="#ff6b00" stroke-linecap="butt"/><path d="M227.86701,209.2206l-2.02602,-25.48468l7.82601,-0.62216l2.02602,25.48468z" fill="#ff6b00" stroke-linecap="butt"/><path d="M222.81413,215.01801c4.11347,0 7.4481,2.47844 7.4481,5.53575c0,3.05731 -3.33463,5.53575 -7.4481,5.53575c-4.11347,0 -7.4481,-2.47844 -7.4481,-5.53575c0,-3.05731 3.33463,-5.53575 7.4481,-5.53575z" data-paper-data="{&quot;index&quot;:null}" fill="#ff6b00" stroke-linecap="butt"/><path d="M204.98991,162.37113c0,0 1.86954,-2.42594 3.47316,-3.68271c1.27041,-0.99563 5.38391,-3.25863 5.38391,-3.25863" fill="none" stroke-linecap="round"/><path d="M196.88256,168.5762c-1.32136,-2.50819 -0.35925,-5.61265 2.14894,-6.934c2.50819,-1.32136 5.61265,-0.35925 6.934,2.14894c1.32136,2.50819 0.35925,5.61265 -2.14894,6.934c-2.50819,1.32136 -5.61265,0.35925 -6.934,-2.14894z" fill="#ff6b00" stroke-linecap="butt"/><path d="M255.67305,213.04538c4.80329,-1.18488 6.79317,1.06264 7.57866,4.24685c0.78549,3.18421 -2.47159,6.72605 -7.27489,7.91096c-4.80329,1.18488 -8.89999,1.3231 -9.68548,-1.86111c-0.30337,-1.22979 1.45136,-8.34039 9.38171,-10.29667z" data-paper-data="{&quot;index&quot;:null}" fill="#ff6b00" stroke-linecap="butt"/><path d="M209.68329,167.47312l5.94049,-12.87825l-26.47439,-21.87458l42.77402,-20.40655l3.08733,33.09108l11.57986,4.05215z" data-paper-data="{&quot;index&quot;:null}" fill="#ffa340" stroke-linecap="butt"/><path d="M212.15681,165.82929c0.00874,-2.1123 1.7282,-3.81758 3.8405,-3.80884c2.1123,0.00874 3.81758,1.7282 3.80884,3.8405c-0.00874,2.1123 -1.7282,3.81758 -3.8405,3.80884c-2.1123,-0.00874 -3.81758,-1.7282 -3.80884,-3.8405z" fill="#ff6b00" stroke-linecap="butt"/></g></g></svg>