<svg version="1.1" xmlns="http://www.w3.org/2000/svg" xmlns:xlink="http://www.w3.org/1999/xlink" width="68.2266" height="96.04595" viewBox="0,0,68.2266,96.04595"><g transform="translate(-200.29861,-130.71183)"><g data-paper-data="{&quot;isPaintingLayer&quot;:true}" fill-rule="nonzero" stroke="#000000" stroke-width="2" stroke-linejoin="miter" stroke-miterlimit="10" stroke-dasharray="" stroke-dashoffset="0" style="mix-blend-mode: normal"><path d="M264.75354,204.47921c0.90786,3.1515 -2.71154,5.07558 -7.4655,6.44505c-4.75397,1.36948 -9.34377,-0.07515 -10.25163,-3.22665c-0.90786,-3.1515 -0.30461,-6.09209 4.44936,-7.46157c7.8489,-2.26103 12.91714,3.02599 13.26777,4.24316z" data-paper-data="{&quot;index&quot;:null}" fill="#1d28e8" stroke-linecap="butt"/><path d="M220.91994,167.31831c1.2701,-9.08356 9.66341,-15.41762 18.74696,-14.14752c9.08356,1.2701 15.41763,9.66341 14.14753,18.74696c-1.2701,9.08356 -9.66341,15.41762 -18.74696,14.14752c-9.08356,-1.2701 -15.41763,-9.66341 -14.14753,-18.74696z" fill="#1d28e8" stroke-linecap="butt"/><path d="M250.32723,213.14063l-3.22571,-25.36077l7.78795,-0.99058l3.22572,25.36077z" fill="#1d28e8" stroke-linecap="butt"/><path d="M216.78793,195.76369c0,-2.11232 1.71238,-3.8247 3.8247,-3.8247c2.11232,0 3.8247,1.71238 3.8247,3.8247c0,2.11232 -1.71238,3.8247 -3.8247,3.8247c-2.11232,0 -3.8247,-1.71238 -3.8247,-3.8247z" fill="#1d28e8" stroke-linecap="butt"/><path d="M263.98838,220.22203c0,3.05731 -3.33463,5.53575 -7.4481,5.53575c-4.11347,0 -7.4481,-2.47844 -7.4481,-5.53575c0,-3.05731 3.33463,-5.53575 7.4481,-5.53575c4.11347,0 7.4481,2.47844 7.4481,5.53575z" data-paper-data="{&quot;index&quot;:null}" fill="#1d28e8" stroke-linecap="butt"/><path d="M211.14471,151.71701c0,0 2.64483,-1.54441 4.60344,-2.10559c1.55165,-0.44456 6.21429,-0.99386 6.21429,-0.99386" data-paper-data="{&quot;index&quot;:null}" fill="none" stroke-linecap="round"/><path d="M206.91484,159.01592c-2.82103,0.28073 -5.3355,-1.77857 -5.61623,-4.5996c-0.28072,-2.82103 1.77858,-5.3355 4.59961,-5.61623c2.82104,-0.28072 5.3355,1.77858 5.61623,4.59961c0.28073,2.82104 -1.77857,5.3355 -4.5996,5.61623z" data-paper-data="{&quot;index&quot;:null}" fill="#1d28e8" stroke-linecap="butt"/><path d="M220.99252,162.74082l-6.15324,-22.2073l37.78534,-8.56165l-0.79121,28.15785l13.18795,-1.10146z" data-paper-data="{&quot;index&quot;:null}" fill="#2530ff" stroke-linecap="round"/><path d="M265.33815,165.25588c-1.90866,0.90494 -4.18954,0.09127 -5.09448,-1.81739c-0.90494,-1.90866 -0.09127,-4.18954 1.81739,-5.09448c1.90866,-0.90494 4.18955,-0.09127 5.09449,1.81739c0.90494,1.90866 0.09126,4.18955 -1.81739,5.09449z" data-paper-data="{&quot;index&quot;:null}" fill="#1d28e8" stroke-linecap="butt"/></g></g></svg>