<svg version="1.1" xmlns="http://www.w3.org/2000/svg" xmlns:xlink="http://www.w3.org/1999/xlink" width="54.68168" height="88.03522" viewBox="0,0,54.68168,88.03522"><g transform="translate(-209.29199,-139.7821)"><g data-paper-data="{&quot;isPaintingLayer&quot;:true}" fill-rule="nonzero" stroke="#000000" stroke-width="2" stroke-linejoin="miter" stroke-miterlimit="10" stroke-dasharray="" stroke-dashoffset="0" style="mix-blend-mode: normal"><path d="M240.58655,205.76241l-7.1331,-24.5498l7.53891,-2.19047l7.1331,24.5498z" data-paper-data="{&quot;index&quot;:null}" fill="#ffe819" stroke-linecap="butt"/><path d="M255.32428,188.38215c0,-2.11232 1.71238,-3.8247 3.8247,-3.8247c2.11232,0 3.8247,1.71238 3.8247,3.8247c0,2.11232 -1.71238,3.8247 -3.8247,3.8247c-2.11232,0 -3.8247,-1.71238 -3.8247,-3.8247z" fill="#ffe819" stroke-linecap="butt"/><path d="M227.26192,161.52633c2.48689,-8.82834 11.6597,-13.9691 20.48804,-11.48221c8.82834,2.48689 13.9691,11.6597 11.48221,20.48804c-2.48689,8.82834 -11.6597,13.9691 -20.48804,11.48221c-8.82834,-2.48689 -13.9691,-11.6597 -11.48221,-20.48804z" fill="#ffe819" stroke-linecap="butt"/><path d="M218.87594,189.2332c0,-2.11232 1.71238,-3.8247 3.8247,-3.8247c2.11232,0 3.8247,1.71238 3.8247,3.8247c0,2.11232 -1.71238,3.8247 -3.8247,3.8247c-2.11232,0 -3.8247,-1.71238 -3.8247,-3.8247z" fill="#ffe819" stroke-linecap="butt"/><path d="M220.64061,149.03285c0,0 2.62863,-1.57183 4.58131,-2.15333c1.54694,-0.46067 6.20363,-1.05841 6.20363,-1.05841" fill="none" stroke-linecap="round"/><path d="M210.8231,151.83437c-0.31004,-2.81796 1.72303,-5.3537 4.54098,-5.66374c2.81796,-0.31004 5.3537,1.72303 5.66374,4.54098c0.31004,2.81796 -1.72303,5.3537 -4.54098,5.66374c-2.81796,0.31004 -5.3537,-1.72303 -5.66374,-4.54098z" fill="#ffe819" stroke-linecap="butt"/><path d="M222.91539,160.25302l7.51052,-8.60456l-6.00632,-8.90717c0,0 11.58282,-3.42357 21.96915,-1.21943c10.38633,2.20415 15.33605,14.38335 15.33605,14.38335z" data-paper-data="{&quot;index&quot;:null}" fill="#fff067" stroke-linecap="butt"/><path d="M249.12905,199.77634c8.1601,-0.36107 11.85002,5.96539 11.90603,7.23081c0.14497,3.27645 -3.82424,4.2999 -8.76668,4.5186c-4.94245,0.2187 -9.06661,-2.2601 -9.2116,-5.53656c-0.14498,-3.27645 1.12981,-5.99415 6.07225,-6.21284z" data-paper-data="{&quot;index&quot;:null}" fill="#ffe819" stroke-linecap="butt"/><path d="M220.17681,212.21609c5.89334,5.65562 3.86215,12.69224 2.98512,13.60615c-2.27085,2.36631 -5.75097,0.20049 -9.32049,-3.22504c-3.56952,-3.42554 -4.62228,-8.12072 -2.35143,-10.48703c2.27085,-2.36631 5.11729,-3.3196 8.6868,0.10594z" data-paper-data="{&quot;index&quot;:null}" fill="#ffe819" stroke-linecap="butt"/></g></g></svg>