<svg version="1.1" xmlns="http://www.w3.org/2000/svg" xmlns:xlink="http://www.w3.org/1999/xlink" width="88.68723" height="77.75323" viewBox="0,0,88.68723,77.75323"><g transform="translate(-206.769,-150.05432)"><g data-paper-data="{&quot;isPaintingLayer&quot;:true}" fill-rule="nonzero" stroke="#000000" stroke-width="2" stroke-linejoin="miter" stroke-miterlimit="10" stroke-dasharray="" stroke-dashoffset="0" style="mix-blend-mode: normal"><path d="M264.48026,193.40653c0,-2.11232 1.71238,-3.8247 3.8247,-3.8247c2.11232,0 3.8247,1.71238 3.8247,3.8247c0,2.11232 -1.71238,3.8247 -3.8247,3.8247c-2.11232,0 -3.8247,-1.71238 -3.8247,-3.8247z" fill="#181818" stroke-linecap="butt"/><path d="M254.36497,157.2422c0,0 -4.29413,1.89802 -5.85625,2.30425c-1.97184,0.51277 -5.03455,0.52786 -5.03455,0.52786" data-paper-data="{&quot;index&quot;:null}" fill="#181818" stroke-linecap="round"/><path d="M235.74966,155.98925c2.57182,-1.19281 5.62363,-0.07487 6.81643,2.49694c1.19281,2.57182 0.07487,5.62363 -2.49694,6.81643c-2.57182,1.19281 -5.62363,0.07487 -6.81643,-2.49694c-1.19281,-2.57182 -0.07487,-5.62363 2.49694,-6.81643z" data-paper-data="{&quot;index&quot;:null}" fill="#181818" stroke-linecap="butt"/><path d="M252.18418,169.2395c0,-9.17193 7.43532,-16.60724 16.60724,-16.60724c9.17193,0 16.60724,7.43532 16.60724,16.60724c0,9.17193 -7.43532,16.60724 -16.60724,16.60724c-9.17193,0 -16.60724,-7.43532 -16.60724,-16.60724z" fill="#181818" stroke-linecap="butt"/><path d="M231.45249,199.90217l18.07725,-18.07725l5.55128,5.55128l-18.07725,18.07725z" fill="#181818" stroke-linecap="butt"/><path d="M250.86324,207.18737c3.82922,3.13252 3.2245,6.07281 1.14788,8.61127c-2.07661,2.53848 -6.86424,2.0569 -10.69346,-1.07562c-3.82922,-3.13252 -6.39712,-6.32751 -4.3205,-8.86597c0.80202,-0.98041 7.54396,-3.84153 13.86609,1.33033z" data-paper-data="{&quot;index&quot;:null}" fill="#181818" stroke-linecap="butt"/><path d="M267.61514,172.8725v-5.24474h19.39678v5.24474z" fill="#ff0000" stroke-linecap="butt"/><path d="M249.17381,179.15533l9.98511,10.41216l-5.63835,0.34035l-0.07546,5.90325l-12.90703,-11.19883l6.67627,-0.58358z" fill="#0e0e0e" stroke-linecap="round"/><g><path d="M254.07168,163.11723v-12.06291h29.6328v12.06291z" fill="#343434" stroke-linecap="butt"/><path d="M243.31996,163.11723h51.13626" fill="none" stroke-linecap="round"/></g><path d="M233.99165,194.83303c0,-2.11232 1.71238,-3.8247 3.8247,-3.8247c2.11232,0 3.8247,1.71238 3.8247,3.8247c0,2.11232 -1.71238,3.8247 -3.8247,3.8247c-2.11232,0 -3.8247,-1.71238 -3.8247,-3.8247z" fill="#181818" stroke-linecap="butt"/><path d="M222.35534,216.50032c3.90524,3.03721 3.37315,5.9915 1.35972,8.58038c-2.01345,2.58886 -6.81147,2.22541 -10.71672,-0.81181c-3.90524,-3.03722 -6.55109,-6.16796 -4.53765,-8.75682c0.77762,-0.99987 7.447,-4.02625 13.89465,0.98826z" data-paper-data="{&quot;index&quot;:null}" fill="#181818" stroke-linecap="butt"/></g></g></svg>