<svg version="1.1" xmlns="http://www.w3.org/2000/svg" xmlns:xlink="http://www.w3.org/1999/xlink" width="96.12903" height="73.06811" viewBox="0,0,96.12903,73.06811"><defs><linearGradient x1="267.11355" y1="184.04143" x2="309.01651" y2="202.69471" gradientUnits="userSpaceOnUse" id="color-1"><stop offset="0" stop-color="#ff0000"/><stop offset="1" stop-color="#ff0000" stop-opacity="0"/></linearGradient></defs><g transform="translate(-212.94434,-154.7834)"><g data-paper-data="{&quot;isPaintingLayer&quot;:true}" fill-rule="nonzero" stroke="#000000" stroke-linejoin="miter" stroke-miterlimit="10" stroke-dasharray="" stroke-dashoffset="0" style="mix-blend-mode: normal"><path d="M309.07337,202.56697c0,0 -6.82694,7.91011 -21.39221,-0.63758c-9.0678,-5.32147 -20.5601,-17.90477 -20.5601,-17.90477l15.51435,-2.06479z" fill="url(#color-1)" stroke-width="0" stroke-linecap="round"/><path d="M219.50056,186.76248c0,-2.11232 1.71238,-3.8247 3.8247,-3.8247c2.11232,0 3.8247,1.71238 3.8247,3.8247c0,2.11232 -1.71238,3.8247 -3.8247,3.8247c-2.11232,0 -3.8247,-1.71238 -3.8247,-3.8247z" fill="#181818" stroke-width="2" stroke-linecap="butt"/><path d="M239.74322,207.2658l13.5552,-21.67556l6.65627,4.16263l-13.5552,21.67556z" fill="#181818" stroke-width="2" stroke-linecap="butt"/><path d="M268.42365,213.94129c4.94728,0 6.34095,2.65869 6.34095,5.93835c0,3.27966 -4.01056,5.93835 -8.95785,5.93835c-4.94728,0 -8.95785,-0.84699 -8.95785,-4.12665c0,-1.26666 3.40667,-7.75005 11.57475,-7.75005z" data-paper-data="{&quot;index&quot;:null}" fill="#181818" stroke-width="2" stroke-linecap="butt"/><path d="M259.20894,193.0853l-1.05742,7.5434l-14.87881,-10.02196l8.10713,-2.26725l0.68367,-6.31426l13.91099,7.10612z" data-paper-data="{&quot;index&quot;:null}" fill="#0e0e0e" stroke-width="2" stroke-linecap="round"/><path d="M285.89024,201.22147c-0.12655,-2.10853 1.48015,-3.92042 3.58868,-4.04698c2.10853,-0.12655 3.92042,1.48015 4.04697,3.58868c0.12655,2.10853 -1.48015,3.92042 -3.58868,4.04698c-2.10853,0.12655 -3.92042,-1.48015 -4.04697,-3.58868z" fill="#181818" stroke-width="2" stroke-linecap="butt"/><path d="M221.39244,215.78001c4.11347,0 7.4481,2.47844 7.4481,5.53575c0,3.05731 -3.33463,5.53575 -7.4481,5.53575c-4.11347,0 -7.4481,-2.47844 -7.4481,-5.53575c0,-3.05731 3.33463,-5.53575 7.4481,-5.53575z" data-paper-data="{&quot;index&quot;:null}" fill="#181818" stroke-width="2" stroke-linecap="butt"/><path d="M240.89788,163.0441c0,0 2.97041,-0.74635 5.00782,-0.73959c1.61407,0.00536 6.24513,0.77693 6.24513,0.77693" fill="#181818" stroke-width="2" stroke-linecap="round"/><path d="M230.31831,162.93803c0.51639,-2.78753 3.19474,-4.62868 5.98228,-4.11227c2.78753,0.51639 4.62868,3.19474 4.11227,5.98228c-0.51639,2.78753 -3.19474,4.62868 -5.98228,4.11227c-2.78753,-0.51639 -4.62868,-3.19474 -4.11227,-5.98228z" fill="#181818" stroke-width="2" stroke-linecap="butt"/><path d="M251.06495,176.08751c-0.42691,-9.16199 6.65427,-16.93532 15.81625,-17.36223c9.16199,-0.42691 16.93532,6.65427 17.36223,15.81625c0.42691,9.16199 -6.65427,16.93532 -15.81625,17.36223c-9.16199,0.42691 -16.93532,-6.65427 -17.36223,-15.81625z" fill="#181818" stroke-width="2" stroke-linecap="butt"/><path d="M267.25748,185.88705l-0.24412,-5.23906l18.22541,-0.84923l0.24412,5.23906z" fill="#ff0000" stroke-width="2" stroke-linecap="butt"/><g stroke-width="2"><g><path d="M250.92099,175.40416l1.60683,-15.32019c0,0 11.48358,3.61917 17.21283,4.22008c6.01622,0.631 18.06566,-0.51997 18.06566,-0.51997l-1.60683,15.32019c0,0 -12.14241,0.45128 -17.99408,-0.16245c-5.90729,-0.61957 -17.2844,-3.53766 -17.2844,-3.53766z" fill="#343434" stroke-linecap="butt"/><path d="M299.10702,179.42316c0,0 -19.84904,1.02284 -29.90916,-0.03229c-10.22998,-1.07294 -30.96966,-6.35286 -30.96966,-6.35286" fill="none" stroke-linecap="round"/></g><path d="M288.31536,162.3107c-0.24706,2.35556 -8.427,3.42819 -18.27041,2.39579c-9.84341,-1.0324 -17.62278,-3.7789 -17.37572,-6.13446c0.24706,-2.35556 8.427,-3.42819 18.2704,-2.39579c9.84341,1.0324 17.62279,3.7789 17.37573,6.13446z" fill="#252525" stroke-linecap="butt"/></g></g></g></svg>