<svg version="1.1" xmlns="http://www.w3.org/2000/svg" xmlns:xlink="http://www.w3.org/1999/xlink" width="93.82456" height="71.98819" viewBox="0,0,93.82456,71.98819"><g transform="translate(-195.33604,-145.27353)"><g data-paper-data="{&quot;isPaintingLayer&quot;:true}" fill-rule="nonzero" stroke="#000000" stroke-width="2" stroke-linejoin="miter" stroke-miterlimit="10" stroke-dasharray="" stroke-dashoffset="0" style="mix-blend-mode: normal"><path d="M251.16418,163.94522c1.62253,-9.02728 10.25593,-15.02998 19.28319,-13.40744c9.02728,1.62253 15.02999,10.25592 13.40745,19.28319c-1.62253,9.02728 -10.25593,15.02998 -19.28319,13.40744c-9.02728,-1.62253 -15.02999,-10.25592 -13.40745,-19.28318z" fill="#2d6a2b" stroke-linecap="butt"/><path d="M263.20749,147.434c15.59072,-2.84112 24.14898,7.45659 24.14898,7.45659l-39.91878,9.3052c0,0 -0.99276,-13.70712 15.7698,-16.76179z" fill="#367e33" stroke-linecap="round"/><path d="M226.19783,192.50363l22.4194,-12.28594l3.77286,6.8847l-22.4194,12.28594z" fill="#2d6a2b" stroke-linecap="butt"/><path d="M229.88392,172.91645c1.68634,-1.27208 4.08461,-0.93624 5.35668,0.7501c1.27208,1.68634 0.93625,4.08461 -0.75009,5.35668c-1.68634,1.27208 -4.08461,0.93624 -5.35668,-0.7501c-1.27208,-1.68634 -0.93625,-4.08461 0.75009,-5.35668z" fill="#2d6a2b" stroke-linecap="butt"/><path d="M275.38108,188.30964c1.68634,-1.27208 4.08461,-0.93625 5.35668,0.75009c1.27207,1.68633 0.93624,4.08461 -0.75009,5.35668c-1.68634,1.27208 -4.08461,0.93624 -5.35668,-0.7501c-1.27207,-1.68633 -0.93624,-4.08461 0.75009,-5.35667z" fill="#2d6a2b" stroke-linecap="butt"/><path d="M208.85953,215.4892c-4.87192,0.86021 -6.70664,-1.51565 -7.27689,-4.74536c-0.57026,-3.2297 2.91694,-6.54524 7.78887,-7.40544c4.87192,-0.86021 8.96867,-0.72346 9.53892,2.50625c0.22025,1.24737 -2.00724,8.22433 -10.0509,9.64456z" data-paper-data="{&quot;index&quot;:null}" fill="#2d6a2b" stroke-linecap="butt"/><path d="M243.55221,150.59595c0,0 2.96638,-0.76218 5.00381,-0.76628c1.61407,-0.00325 6.24918,0.74361 6.24918,0.74361" fill="none" stroke-linecap="round"/><path d="M233.34328,150.49949c0.50151,-2.79025 3.17001,-4.64563 5.96026,-4.14412c2.79025,0.50151 4.64564,3.17001 4.14412,5.96026c-0.50151,2.79025 -3.17001,4.64564 -5.96026,4.14412c-2.79025,-0.50151 -4.64564,-3.17001 -4.14412,-5.96026z" fill="#2d6a2b" stroke-linecap="butt"/><path d="M200.60249,191.83801c-4.58378,-1.86133 -4.87476,-4.84902 -3.64083,-7.88771c1.23392,-3.03869 5.9501,-3.99311 10.53388,-2.13177c4.58378,1.86133 7.981,4.15501 6.74708,7.19369c-0.47656,1.17359 -6.07219,5.8989 -13.64013,2.82579z" data-paper-data="{&quot;index&quot;:null}" fill="#2d6a2b" stroke-linecap="butt"/></g></g></svg>