<svg version="1.1" xmlns="http://www.w3.org/2000/svg" xmlns:xlink="http://www.w3.org/1999/xlink" width="116.0501" height="79.94228" viewBox="0,0,116.0501,79.94228"><g transform="translate(-168.7881,-146.85109)"><g data-paper-data="{&quot;isPaintingLayer&quot;:true}" fill-rule="nonzero" stroke="#000000" stroke-width="2" stroke-linejoin="miter" stroke-miterlimit="10" stroke-dasharray="" stroke-dashoffset="0" style="mix-blend-mode: normal"><path d="M230.99424,210.14874l-18.16849,-17.98554l5.52313,-5.57932l18.16849,17.98554z" data-paper-data="{&quot;index&quot;:null}" fill="#2d6a2b" stroke-linecap="butt"/><path d="M222.3756,221.66672c0,3.27966 -4.01057,4.12665 -8.95785,4.12665c-4.94728,0 -8.95785,-2.65869 -8.95785,-5.93835c0,-3.27966 1.39367,-5.93835 6.34095,-5.93835c8.16808,0 11.57475,6.48339 11.57475,7.75005z" data-paper-data="{&quot;index&quot;:null}" fill="#2d6a2b" stroke-linecap="butt"/><path d="M271.72993,220.14665c0,3.05731 -3.33463,5.53575 -7.4481,5.53575c-4.11347,0 -7.4481,-2.47844 -7.4481,-5.53575c0,-3.05731 3.33463,-5.53575 7.4481,-5.53575c4.11347,0 7.4481,2.47844 7.4481,5.53575z" data-paper-data="{&quot;index&quot;:null}" fill="#2d6a2b" stroke-linecap="butt"/><path d="M202.86862,184.70471c-9.17192,0 -16.60724,-7.43531 -16.60724,-16.60724c0,-9.17192 7.43531,-16.60724 16.60724,-16.60724c9.17192,0 16.60724,7.43531 16.60724,16.60724c0,9.17192 -7.43531,16.60724 -16.60724,16.60724z" data-paper-data="{&quot;index&quot;:null}" fill="#2d6a2b" stroke-linecap="butt"/><path d="M223.09926,169.00331l-37.64308,-16.22019c0,0 10.24498,-8.62131 25.0872,-3.06696c15.95781,5.97184 12.55588,19.28715 12.55588,19.28715z" data-paper-data="{&quot;index&quot;:null}" fill="#367e33" stroke-linecap="round"/><path d="M218.2578,154.29231c0,0 4.69413,0.08488 6.28217,0.37361c2.00456,0.36447 4.78933,1.63939 4.78933,1.63939" data-paper-data="{&quot;index&quot;:null}" fill="none" stroke-linecap="round"/><path d="M234.26114,163.14951c-2.83496,0 -5.13315,-2.29819 -5.13315,-5.13315c0,-2.83496 2.29819,-5.13315 5.13315,-5.13315c2.83496,0 5.13315,2.29819 5.13315,5.13315c0,2.83496 -2.29819,5.13315 -5.13315,5.13315z" data-paper-data="{&quot;index&quot;:null}" fill="#2d6a2b" stroke-linecap="butt"/><path d="M283.51998,186.13011c-0.61937,1.47655 -31.12675,19.03094 -60.38175,22.76012c-24.78175,3.15896 -48.98616,-7.22575 -50.02601,-8.07847c-2.26738,-1.85937 -4.11995,-4.95938 -2.97593,-7.68672c1.14402,-2.72733 4.50767,-2.0418 7.11878,-2.18988c1.07416,-0.06092 22.51679,8.51022 43.68804,7.20782c30.29268,-1.86352 63.25027,-13.61824 62.57687,-12.01287z" data-paper-data="{&quot;index&quot;:null}" fill="#2d6a2b" stroke-linecap="butt"/><path d="M283.8382,180.44425c-0.65484,1.46561 -31.57916,18.49234 -60.91802,21.71823c-24.85279,2.73264 -48.8018,-8.06568 -49.82086,-8.93609c-2.22208,-1.89793 -3.99952,-5.02913 -2.78998,-7.73625c1.20954,-2.70712 4.55596,-1.96394 7.1701,-2.06714c1.07541,-0.04245 22.30693,8.89523 43.5052,7.95676c30.33134,-1.3428 63.56551,-12.52897 62.85356,-10.93551z" data-paper-data="{&quot;index&quot;:null}" fill="#2d6a2b" stroke-linecap="butt"/></g></g></svg>