<svg version="1.1" xmlns="http://www.w3.org/2000/svg" xmlns:xlink="http://www.w3.org/1999/xlink" width="60.91394" height="92.22311" viewBox="0,0,60.91394,92.22311"><g transform="translate(-213.68251,-139.317)"><g data-paper-data="{&quot;isPaintingLayer&quot;:true}" fill-rule="nonzero" stroke="#000000" stroke-width="2" stroke-linejoin="miter" stroke-miterlimit="10" stroke-dasharray="" stroke-dashoffset="0" style="mix-blend-mode: normal"><path d="M229.39965,145.59651c0,0 3.05574,-0.20693 5.05955,0.16157c1.58745,0.29193 6.00786,1.87373 6.00786,1.87373" fill="none" stroke-linecap="round"/><path d="M219.38044,143.63499c1.00326,-2.65151 3.96602,-3.98769 6.61753,-2.98443c2.65151,1.00326 3.98769,3.96602 2.98443,6.61753c-1.00326,2.65151 -3.96602,3.98769 -6.61753,2.98443c-2.65151,-1.00326 -3.98769,-3.96602 -2.98443,-6.61753z" fill="#e80000" stroke-linecap="butt"/><path d="M230.97064,156.18402c2.78304,-8.73951 12.12391,-13.56817 20.8634,-10.78514c8.73951,2.78304 13.56817,12.12391 10.78514,20.8634c-2.78304,8.73951 -12.12391,13.56817 -20.8634,10.78514c-8.73951,-2.78304 -13.56817,-12.12391 -10.78514,-20.8634z" fill="#e80000" stroke-linecap="butt"/><path d="M236.53082,205.25582l0.48617,-25.56047l7.84928,0.1493l-0.48617,25.56047z" fill="#e80000" stroke-linecap="butt"/><path d="M214.68251,158.02952c0,-2.11232 1.71238,-3.8247 3.8247,-3.8247c2.11232,0 3.8247,1.71238 3.8247,3.8247c0,2.11232 -1.71238,3.8247 -3.8247,3.8247c-2.11232,0 -3.8247,-1.71238 -3.8247,-3.8247z" fill="#e80000" stroke-linecap="butt"/><path d="M265.94705,161.12696c0,-2.11232 1.71238,-3.8247 3.8247,-3.8247c2.11232,0 3.8247,1.71238 3.8247,3.8247c0,2.11232 -1.71238,3.8247 -3.8247,3.8247c-2.11232,0 -3.8247,-1.71238 -3.8247,-3.8247z" fill="#e80000" stroke-linecap="butt"/><path d="M263.49035,217.46895c3.1176,3.84137 1.93147,6.59891 -0.61506,8.66564c-2.54653,2.06673 -7.13821,0.62809 -10.25583,-3.21329c-3.1176,-3.84137 -4.98726,-7.48918 -2.44073,-9.55589c0.98351,-0.7982 8.16438,-2.23866 13.31161,4.10355z" data-paper-data="{&quot;index&quot;:null}" fill="#e80000" stroke-linecap="butt"/><path d="M230.39378,154.45022l0.31569,-5.5911l33.34688,1.88287l-0.31569,5.59109z" fill="#ff2121" stroke-linecap="butt"/><path d="M237.64044,224.22275c-0.01968,4.94724 -2.68389,6.33032 -5.96353,6.31727c-3.27964,-0.01304 -5.92234,-4.03415 -5.90267,-8.98141c0.01968,-4.94724 0.88263,-8.95441 4.16225,-8.94136c1.26665,0.00504 7.73644,3.43747 7.70394,11.60549z" data-paper-data="{&quot;index&quot;:null}" fill="#e80000" stroke-linecap="butt"/></g></g></svg>