<svg version="1.1" xmlns="http://www.w3.org/2000/svg" xmlns:xlink="http://www.w3.org/1999/xlink" width="97.10844" height="77.52125" viewBox="0,0,97.10844,77.52125"><g transform="translate(-208.86824,-143.83341)"><g data-paper-data="{&quot;isPaintingLayer&quot;:true}" fill-rule="nonzero" stroke-linejoin="miter" stroke-miterlimit="10" stroke-dasharray="" stroke-dashoffset="0" style="mix-blend-mode: normal"><path d="M247.01163,197.93148c2.90866,2.90866 3.51408,7.01912 1.35224,9.18097c-2.16184,2.16184 -6.27231,1.55643 -9.18097,-1.35224c-2.90866,-2.90866 -3.51408,-7.01912 -1.35224,-9.18097c2.16184,-2.16184 6.27231,-1.55643 9.18097,1.35224z" data-paper-data="{&quot;index&quot;:null}" fill="#ffe819" stroke="#000000" stroke-width="2" stroke-linecap="butt"/><path d="M228.2295,180.50079c0,-2.11232 1.71238,-3.8247 3.8247,-3.8247c2.11232,0 3.8247,1.71238 3.8247,3.8247c0,2.11232 -1.71238,3.8247 -3.8247,3.8247c-2.11232,0 -3.8247,-1.71238 -3.8247,-3.8247z" fill="#ffe819" stroke="#000000" stroke-width="2" stroke-linecap="butt"/><path d="M229.99858,201.73012l14.9932,-20.70695l6.35883,4.60422l-14.9932,20.70695z" fill="#ffe819" stroke="#000000" stroke-width="2" stroke-linecap="butt"/><path d="M250.55324,159.7052c4.96202,-7.7138 15.23779,-9.94455 22.95158,-4.98254c7.7138,4.96202 9.94455,15.23779 4.98254,22.95158c-4.96202,7.7138 -15.23779,9.94455 -22.95158,4.98254c-7.7138,-4.96202 -9.94455,-15.23779 -4.98254,-22.95158z" fill="#ffe819" stroke="#000000" stroke-width="2" stroke-linecap="butt"/><path d="M249.01261,155.77893c0,0 7.21658,-15.04196 23.56303,-9.8589c16.93362,5.36923 12.74848,24.23063 12.74848,24.23063z" data-paper-data="{&quot;index&quot;:null}" fill="#fff067" stroke="#000000" stroke-width="2" stroke-linecap="butt"/><path d="M305.97668,209.67308l-4.13747,-1.25367l3.42805,6.88975l-4.21013,-1.30539l2.06252,6.84237l-7.14913,0.50851l-0.45404,-11.41613l2.91297,1.19716l-2.51761,-7.44408l3.36329,1.6363l-2.08157,-9.18674l2.18906,1.52591l-1.95915,-10.51958l6.98135,14.56028l-3.01502,-1.39997l4.58686,9.3653" data-paper-data="{&quot;index&quot;:null}" fill="#fff200" stroke="none" stroke-width="0.66342" stroke-linecap="butt"/><path d="M301.17871,204.20299c1.16901,1.75935 0.69045,4.13326 -1.06889,5.30228c-1.75935,1.16901 -4.13326,0.69045 -5.30228,-1.06889c-1.16901,-1.75935 -0.69045,-4.13326 1.06889,-5.30228c1.75935,-1.16901 4.13326,-0.69045 5.30228,1.06889z" data-paper-data="{&quot;index&quot;:null}" fill="#ffe819" stroke="#000000" stroke-width="2" stroke-linecap="butt"/><path d="M220.34497,208.93147c2.90866,2.90866 3.51408,7.01912 1.35224,9.18097c-2.16184,2.16184 -6.27231,1.55643 -9.18097,-1.35224c-2.90866,-2.90866 -3.51408,-7.01912 -1.35224,-9.18097c2.16184,-2.16184 6.27231,-1.55643 9.18097,1.35224z" data-paper-data="{&quot;index&quot;:null}" fill="#ffe819" stroke="#000000" stroke-width="2" stroke-linecap="butt"/><path d="M279.70879,158.85502l-13.23268,1.29319l-7.81535,-7.98384" fill="none" stroke="#000000" stroke-width="2" stroke-linecap="round"/><path d="M255.65174,160.87885c0,0 2.91426,-0.94205 4.94762,-1.07066c1.61086,-0.10188 6.28294,0.36031 6.28294,0.36031" fill="none" stroke="#000000" stroke-width="2" stroke-linecap="round"/><path d="M245.45597,161.40648c0.33004,-2.81569 2.88016,-4.83069 5.69585,-4.50065c2.81569,0.33004 4.83069,2.88016 4.50065,5.69585c-0.33004,2.81569 -2.88016,4.83069 -5.69585,4.50065c-2.81569,-0.33004 -4.83069,-2.88016 -4.50065,-5.69585z" fill="#ffe819" stroke="#000000" stroke-width="2" stroke-linecap="butt"/></g></g></svg>