<svg version="1.1" xmlns="http://www.w3.org/2000/svg" xmlns:xlink="http://www.w3.org/1999/xlink" width="122.18595" height="53.10762" viewBox="0,0,122.18595,53.10762"><g transform="translate(-179.3382,-173.88621)"><g data-paper-data="{&quot;isPaintingLayer&quot;:true}" fill-rule="nonzero" stroke="#000000" stroke-width="2" stroke-linejoin="miter" stroke-miterlimit="10" stroke-dasharray="" stroke-dashoffset="0" style="mix-blend-mode: normal"><path d="M267.46182,189.03987c9.16043,0.4591 16.21426,8.25726 15.75516,17.41769c-0.4591,9.16043 -8.25726,16.21426 -17.41769,15.75516c-9.16043,-0.4591 -16.21426,-8.25726 -15.75516,-17.41769c0.4591,-9.16043 8.25726,-16.21426 17.41769,-15.75516z" data-paper-data="{&quot;index&quot;:null}" fill="#2d6a2b" stroke-linecap="butt"/><path d="M258.04535,223.60041c-15.6389,-6.76311 -11.57474,-19.89145 -11.57474,-19.89145l36.784,18.08406c0,0 -10.66367,8.0977 -25.20927,1.80739z" data-paper-data="{&quot;index&quot;:null}" fill="#367e33" stroke-linecap="round"/><path d="M239.61281,216.0792l10.95686,2.56465" data-paper-data="{&quot;index&quot;:null}" fill="none" stroke-linecap="round"/><path d="M235.02973,208.99672c2.83141,0.1419 5.01168,2.55224 4.86978,5.38365c-0.1419,2.83141 -2.55224,5.01168 -5.38365,4.86978c-2.83141,-0.1419 -5.01168,-2.55224 -4.86978,-5.38365c0.1419,-2.83141 2.55224,-5.01168 5.38365,-4.86978z" data-paper-data="{&quot;index&quot;:null}" fill="#2d6a2b" stroke-linecap="butt"/><path d="M295.54603,188.41828c1.95882,-0.79051 4.18761,0.15659 4.97812,2.11541c0.79051,1.95882 -0.15659,4.18761 -2.11541,4.97812c-1.95882,0.79051 -4.18761,-0.15659 -4.97812,-2.11541c-0.79051,-1.95882 0.15659,-4.18761 2.11541,-4.97812z" data-paper-data="{&quot;index&quot;:null}" fill="#2d6a2b" stroke-linecap="butt"/><path d="M294.37438,196.21396c1.95882,-0.79051 4.18761,0.15659 4.97812,2.11541c0.79051,1.95882 -0.15659,4.18761 -2.11541,4.97812c-1.95882,0.79051 -4.18761,-0.15659 -4.97812,-2.11541c-0.79051,-1.95882 0.15659,-4.18761 2.11541,-4.97812z" data-paper-data="{&quot;index&quot;:null}" fill="#2d6a2b" stroke-linecap="butt"/><path d="M191.46437,174.99054c8.11069,-0.96657 12.26064,5.06815 12.41052,6.32591c0.38811,3.25661 -3.49406,4.57225 -8.40658,5.15768c-4.91252,0.58543 -9.20953,-1.57999 -9.59762,-4.83661c-0.38809,-3.25662 0.68117,-6.06155 5.59369,-6.64698z" data-paper-data="{&quot;index&quot;:null}" fill="#2d6a2b" stroke-linecap="butt"/><path d="M183.04364,185.52708c7.16232,-3.92666 13.26629,0.12073 13.87522,1.23143c1.57663,2.87582 -1.53294,5.54653 -5.87105,7.92484c-4.33811,2.37831 -9.13298,1.97499 -10.70961,-0.90084c-1.57663,-2.87582 -1.63268,-5.87712 2.70543,-8.25543z" data-paper-data="{&quot;index&quot;:null}" fill="#2d6a2b" stroke-linecap="butt"/><path d="M218.09543,184.71314l25.56304,0.32335l-0.0993,7.85007l-25.56305,-0.32335z" data-paper-data="{&quot;index&quot;:null}" fill="#2d6a2b" stroke-linecap="butt"/></g></g></svg>