<svg version="1.1" xmlns="http://www.w3.org/2000/svg" xmlns:xlink="http://www.w3.org/1999/xlink" width="63.89951" height="86.71246" viewBox="0,0,63.89951,86.71246"><g transform="translate(-200.14968,-138.95349)"><g data-paper-data="{&quot;isPaintingLayer&quot;:true}" fill-rule="nonzero" stroke="#000000" stroke-width="2" stroke-linejoin="miter" stroke-miterlimit="10" stroke-dasharray="" stroke-dashoffset="0" style="mix-blend-mode: normal"><path d="M240.43265,200.85013c0,-2.11232 1.71238,-3.8247 3.8247,-3.8247c2.11232,0 3.8247,1.71238 3.8247,3.8247c0,2.11232 -1.71238,3.8247 -3.8247,3.8247c-2.11232,0 -3.8247,-1.71238 -3.8247,-3.8247z" fill="#ffe819" stroke-linecap="butt"/><path d="M223.58229,159.84967c2.78578,-8.73863 12.12817,-13.56436 20.86679,-10.77858c8.73863,2.78578 13.56436,12.12817 10.77858,20.86679c-2.78578,8.73863 -12.12817,13.56436 -20.86679,10.77858c-8.73863,-2.78578 -13.56436,-12.12817 -10.77858,-20.86679z" fill="#ffe819" stroke-linecap="butt"/><path d="M229.2008,209.9397l-4.89125,-25.09282l7.70567,-1.50204l4.89125,25.09282z" fill="#ffe819" stroke-linecap="butt"/><path d="M213.72157,204.13262c0,-2.11232 1.71238,-3.8247 3.8247,-3.8247c2.11232,0 3.8247,1.71238 3.8247,3.8247c0,2.11232 -1.71238,3.8247 -3.8247,3.8247c-2.11232,0 -3.8247,-1.71238 -3.8247,-3.8247z" fill="#ffe819" stroke-linecap="butt"/><path d="M229.28552,213.59445c4.11347,0 7.4481,2.47844 7.4481,5.53575c0,3.05731 -3.33463,5.53575 -7.4481,5.53575c-4.11347,0 -7.4481,-2.47844 -7.4481,-5.53575c0,-3.05731 3.33463,-5.53575 7.4481,-5.53575z" data-paper-data="{&quot;index&quot;:null}" fill="#ffe819" stroke-linecap="butt"/><path d="M211.0717,150.40176c0,0 2.68058,-1.4815 4.65191,-1.99623c1.56171,-0.40778 6.23604,-0.84675 6.23604,-0.84675" fill="none" stroke-linecap="round"/><path d="M201.16457,152.86768c-0.214,-2.82687 1.90416,-5.29198 4.73103,-5.50598c2.82687,-0.214 5.29198,1.90416 5.50598,4.73103c0.214,2.82687 -1.90416,5.29198 -4.73103,5.50598c-2.82687,0.214 -5.29198,-1.90416 -5.50598,-4.73103z" fill="#ffe819" stroke-linecap="butt"/><path d="M254.75398,202.645c4.45265,-2.15627 6.86577,-0.37084 8.29521,2.58092c1.42944,2.95176 -1.02135,7.09263 -5.474,9.24891c-4.45265,2.15627 -8.4314,3.14198 -9.86084,0.19022c-0.55207,-1.14002 -0.3118,-8.45999 7.03963,-12.02005z" data-paper-data="{&quot;index&quot;:null}" fill="#ffe819" stroke-linecap="butt"/><path d="M219.2816,158.42924l7.79889,-8.34408l-10.52283,-5.01428c0,0 16.51558,-7.11963 26.82092,-4.56343c10.30534,2.5562 14.83787,14.89674 14.83787,14.89674z" data-paper-data="{&quot;index&quot;:null}" fill="#fff067" stroke-linecap="butt"/></g></g></svg>