<svg version="1.1" xmlns="http://www.w3.org/2000/svg" xmlns:xlink="http://www.w3.org/1999/xlink" width="67.15823" height="131.74056" viewBox="0,0,67.15823,131.74056"><g transform="translate(-196.39715,-97.49204)"><g data-paper-data="{&quot;isPaintingLayer&quot;:true}" fill-rule="nonzero" stroke="#000000" stroke-width="2" stroke-linejoin="miter" stroke-miterlimit="10" stroke-dasharray="" stroke-dashoffset="0" style="mix-blend-mode: normal"><path d="M250.75495,173.51534c0,-2.11232 1.71238,-3.8247 3.8247,-3.8247c2.11232,0 3.8247,1.71238 3.8247,3.8247c0,2.11232 -1.71238,3.8247 -3.8247,3.8247c-2.11232,0 -3.8247,-1.71238 -3.8247,-3.8247z" fill="#ff6b00" stroke-linecap="butt"/><path d="M222.69734,155.07794c0,-9.17193 7.43532,-16.60724 16.60724,-16.60724c9.17193,0 16.60724,7.43532 16.60724,16.60724c0,9.17193 -7.43532,16.60724 -16.60724,16.60724c-9.17193,0 -16.60724,-7.43532 -16.60724,-16.60724z" fill="#ff6b00" stroke-linecap="butt"/><path d="M230.92504,198.75644l1.50916,-25.52049l7.837,0.46343l-1.50916,25.5205z" data-paper-data="{&quot;index&quot;:null}" fill="#ff6b00" stroke-linecap="butt"/><path d="M215.60608,176.72714c0,-2.11232 1.71238,-3.8247 3.8247,-3.8247c2.11232,0 3.8247,1.71238 3.8247,3.8247c0,2.11232 -1.71238,3.8247 -3.8247,3.8247c-2.11232,0 -3.8247,-1.71238 -3.8247,-3.8247z" fill="#ff6b00" stroke-linecap="butt"/><path d="M223.84751,142.52702c0,0 -4.69122,-0.1855 -6.27271,-0.50821c-1.99627,-0.40736 -4.75308,-1.74169 -4.75308,-1.74169" data-paper-data="{&quot;index&quot;:null}" fill="none" stroke-linecap="round"/><path d="M208.03771,133.32878c2.83432,0.06077 5.0827,2.40772 5.02193,5.24202c-0.06077,2.8343 -2.4077,5.08269 -5.24201,5.02192c-2.83432,-0.06077 -5.0827,-2.40772 -5.02193,-5.24202c0.06077,-2.8343 2.4077,-5.08269 5.24201,-5.02192z" data-paper-data="{&quot;index&quot;:null}" fill="#ff6b00" stroke-linecap="butt"/><path d="M254.82913,199.225c4.75765,-1.35659 6.82695,0.81805 7.72625,3.97199c0.89931,3.15395 -2.22849,6.81046 -6.98615,8.16706c-4.75765,1.35659 -8.84675,1.6418 -9.74606,-1.51215c-0.34732,-1.2181 1.15095,-8.38713 9.00595,-10.6269z" data-paper-data="{&quot;index&quot;:null}" fill="#ff6b00" stroke-linecap="butt"/><path d="M217.2771,153.2027l5.36709,-11.72645l-24.47544,-23.83015l43.56603,-18.65596l0.94934,33.61548l12.20022,4.09175z" data-paper-data="{&quot;index&quot;:null}" fill="#ffa340" stroke-linecap="butt"/><path d="M242.75597,216.93383c4.80672,1.17093 5.53153,4.08395 4.75528,7.27042c-0.77624,3.18647 -5.30211,4.82039 -10.10884,3.64946c-4.80672,-1.17093 -8.50287,-2.9431 -7.72662,-6.12956c0.2998,-1.23067 5.14418,-6.72355 13.08018,-4.79031z" data-paper-data="{&quot;index&quot;:null}" fill="#ff6b00" stroke-linecap="butt"/></g></g></svg>