<svg version="1.1" xmlns="http://www.w3.org/2000/svg" xmlns:xlink="http://www.w3.org/1999/xlink" width="60.75421" height="89.06673" viewBox="0,0,60.75421,89.06673"><g transform="translate(-206.48975,-135.38512)"><g data-paper-data="{&quot;isPaintingLayer&quot;:true}" fill-rule="nonzero" stroke="#000000" stroke-width="2" stroke-linejoin="miter" stroke-miterlimit="10" stroke-dasharray="" stroke-dashoffset="0" style="mix-blend-mode: normal"><path d="M227.4007,156.6315c0,-9.17193 7.43532,-16.60724 16.60724,-16.60724c9.17193,0 16.60724,7.43532 16.60724,16.60724c0,9.17193 -7.43532,16.60724 -16.60724,16.60724c-9.17193,0 -16.60724,-7.43532 -16.60724,-16.60724z" fill="#2d6a2b" stroke-linecap="butt"/><path d="M236.33318,138.25019c14.84222,-5.55435 25.0872,3.06696 25.0872,3.06696l-37.64308,16.22019c0,0 -3.40193,-13.31531 12.55588,-19.28715z" fill="#367e33" stroke-linecap="round"/><path d="M234.56558,199.55475l3.69303,-25.29694l7.76836,1.13408l-3.69303,25.29694z" fill="#2d6a2b" stroke-linecap="butt"/><path d="M223.65146,187.87852c0,-2.11232 1.71238,-3.8247 3.8247,-3.8247c2.11232,0 3.8247,1.71238 3.8247,3.8247c0,2.11232 -1.71238,3.8247 -3.8247,3.8247c-2.11232,0 -3.8247,-1.71238 -3.8247,-3.8247z" fill="#2d6a2b" stroke-linecap="butt"/><path d="M251.64757,178.97379c0,-2.11232 1.71238,-3.8247 3.8247,-3.8247c2.11232,0 3.8247,1.71238 3.8247,3.8247c0,2.11232 -1.71238,3.8247 -3.8247,3.8247c-2.11232,0 -3.8247,-1.71238 -3.8247,-3.8247z" fill="#2d6a2b" stroke-linecap="butt"/><path d="M258.54691,201.55565c4.76743,-1.32183 6.82079,0.86784 7.69706,4.02827c0.87627,3.16043 -2.27814,6.79402 -7.04557,8.11585c-4.76743,1.32183 -8.85849,1.57719 -9.73476,-1.58324c-0.33843,-1.22061 1.21214,-8.3785 9.08328,-10.56088z" data-paper-data="{&quot;index&quot;:null}" fill="#2d6a2b" stroke-linecap="butt"/><path d="M217.45735,144.86839c0,0 2.71335,-1.4206 4.69579,-1.89072c1.57052,-0.37242 6.25357,-0.70577 6.25357,-0.70577" fill="none" stroke-linecap="round"/><path d="M207.49709,147.11004c-0.15013,-2.83098 2.02313,-5.24765 4.85411,-5.39778c2.83098,-0.15013 5.24765,2.02313 5.39778,4.85411c0.15013,2.83098 -2.02313,5.24765 -4.85411,5.39778c-2.83098,0.15013 -5.24765,-2.02313 -5.39778,-4.85411z" fill="#2d6a2b" stroke-linecap="butt"/><path d="M225.69096,217.16115c-0.04202,4.9471 -2.71245,6.31814 -5.99199,6.29029c-3.27954,-0.02786 -5.90407,-4.06086 -5.86206,-9.00796c0.04202,-4.9471 0.92304,-8.95033 4.20257,-8.92248c1.26661,0.01076 7.72084,3.47237 7.65147,11.64015z" data-paper-data="{&quot;index&quot;:null}" fill="#2d6a2b" stroke-linecap="butt"/></g></g></svg>