<svg version="1.1" xmlns="http://www.w3.org/2000/svg" xmlns:xlink="http://www.w3.org/1999/xlink" width="69.80851" height="103.87086" viewBox="0,0,69.80851,103.87086"><g transform="translate(-223.58895,-119.43392)"><g data-paper-data="{&quot;isPaintingLayer&quot;:true}" fill-rule="nonzero" stroke="#000000" stroke-width="2" stroke-linejoin="miter" stroke-miterlimit="10" stroke-dasharray="" stroke-dashoffset="0" style="mix-blend-mode: normal"><path d="M250.39679,205.93365l-1.76396,-25.50415l7.83199,-0.5417l1.76395,25.50416z" data-paper-data="{&quot;index&quot;:null}" fill="#ff6b00" stroke-linecap="butt"/><path d="M227.50989,144.48689c1.44178,-2.44095 4.58937,-3.25095 7.03033,-1.80916c2.44095,1.44178 3.25094,4.58936 1.80916,7.03032c-1.44178,2.44095 -4.58937,3.25095 -7.03033,1.80916c-2.44095,-1.44178 -3.25094,-4.58936 -1.80916,-7.03032z" fill="#ff6b00" stroke-linecap="butt"/><path d="M281.38923,193.67691c1.7838,-4.6145 4.76618,-4.95581 7.82522,-3.77329c3.05904,1.18253 4.09285,5.88193 2.30906,10.49644c-1.7838,4.6145 -4.01987,8.04992 -7.07893,6.86739c-1.18145,-0.4567 -6.00043,-5.97189 -3.05535,-13.59055z" data-paper-data="{&quot;index&quot;:null}" fill="#ff6b00" stroke-linecap="butt"/><path d="M244.10525,160.7386c4.21886,-8.14405 14.24097,-11.32604 22.38501,-7.10719c8.14405,4.21886 11.32604,14.24097 7.10719,22.38501c-4.21886,8.14405 -14.24097,11.32604 -22.38501,7.10719c-8.14405,-4.21886 -11.32604,-14.24097 -7.10719,-22.38501z" fill="#ff6b00" stroke-linecap="butt"/><path d="M237.59208,148.08369c0,0 2.99358,0.64721 4.81702,1.55611c1.44458,0.72005 5.25422,3.46389 5.25422,3.46389" fill="none" stroke-linecap="round"/><path d="M238.51203,161.62037l9.35843,-8.87328l-13.80384,-31.24703l47.38116,-1.03429l-11.6745,31.5374l9.78909,8.35233z" data-paper-data="{&quot;index&quot;:null}" fill="#ffa340" stroke-linecap="butt"/><path d="M260.96372,192.67008c-1.22939,-1.7177 -0.83354,-4.1068 0.88416,-5.33619c1.7177,-1.22939 4.1068,-0.83354 5.33619,0.88416c1.22939,1.7177 0.83354,4.1068 -0.88416,5.33619c-1.7177,1.22939 -4.1068,0.83354 -5.33619,-0.88416z" fill="#ff6b00" stroke-linecap="butt"/><path d="M233.38944,195.57858c-1.22939,-1.7177 -0.83354,-4.1068 0.88416,-5.33619c1.7177,-1.22939 4.1068,-0.83354 5.33619,0.88416c1.22939,1.7177 0.83354,4.1068 -0.88416,5.33619c-1.7177,1.22939 -4.1068,0.83354 -5.33619,-0.88416z" fill="#ff6b00" stroke-linecap="butt"/><path d="M232.77296,221.49309c-4.53624,1.97437 -6.87516,0.09276 -8.18401,-2.91442c-1.30884,-3.00717 1.30746,-7.04551 5.84371,-9.01987c4.53624,-1.97437 8.55162,-2.79829 9.86046,0.20888c0.5055,1.16141 -0.03074,8.46568 -7.52016,11.72542z" data-paper-data="{&quot;index&quot;:null}" fill="#ff6b00" stroke-linecap="butt"/></g></g></svg>