<svg version="1.1" xmlns="http://www.w3.org/2000/svg" xmlns:xlink="http://www.w3.org/1999/xlink" width="74.73963" height="83.49303" viewBox="0,0,74.73963,83.49303"><g transform="translate(-187.33206,-143.32495)"><g data-paper-data="{&quot;isPaintingLayer&quot;:true}" fill-rule="nonzero" stroke="#000000" stroke-width="2" stroke-linejoin="miter" stroke-miterlimit="10" stroke-dasharray="" stroke-dashoffset="0" style="mix-blend-mode: normal"><path d="M253.42229,189.1554c0,-2.11232 1.71238,-3.8247 3.8247,-3.8247c2.11232,0 3.8247,1.71238 3.8247,3.8247c0,2.11232 -1.71238,3.8247 -3.8247,3.8247c-2.11232,0 -3.8247,-1.71238 -3.8247,-3.8247z" fill="#181818" stroke-linecap="butt"/><path d="M222.46327,208.81576l-6.11125,-24.82391l7.62309,-1.87668l6.11125,24.82391z" fill="#181818" stroke-linecap="butt"/><path d="M221.07986,214.63065c4.11347,0 7.4481,2.47844 7.4481,5.53575c0,3.05731 -3.33463,5.53575 -7.4481,5.53575c-4.11347,0 -7.4481,-2.47844 -7.4481,-5.53575c0,-3.05731 3.33463,-5.53575 7.4481,-5.53575z" data-paper-data="{&quot;index&quot;:null}" fill="#181818" stroke-linecap="butt"/><path d="M254.60444,213.94127c4.94728,0 6.34095,2.65869 6.34095,5.93835c0,3.27966 -4.01056,5.93835 -8.95785,5.93835c-4.94728,0 -8.95785,-0.84699 -8.95785,-4.12665c0,-1.26666 3.40667,-7.75005 11.57475,-7.75005z" data-paper-data="{&quot;index&quot;:null}" fill="#181818" stroke-linecap="butt"/><path d="M213.8836,182.91468l14.07708,-3.15457l-2.62705,5.00054l5.01199,3.11993l-16.2625,5.24751l2.95613,-6.01452z" fill="#0e0e0e" stroke-linecap="round"/><path d="M249.41109,197.9871c0,-2.11232 1.71238,-3.8247 3.8247,-3.8247c2.11232,0 3.8247,1.71238 3.8247,3.8247c0,2.11232 -1.71238,3.8247 -3.8247,3.8247c-2.11232,0 -3.8247,-1.71238 -3.8247,-3.8247z" fill="#181818" stroke-linecap="butt"/><path d="M198.82722,149.28075c0,0 3.03714,-0.39517 5.05989,-0.15108c1.60245,0.19338 6.11208,1.49927 6.11208,1.49927" fill="#181818" stroke-linecap="round"/><path d="M188.33206,147.94277c0.83766,-2.70837 3.71228,-4.22493 6.42066,-3.38727c2.70837,0.83766 4.22493,3.71228 3.38727,6.42066c-0.83766,2.70837 -3.71228,4.22493 -6.42066,3.38727c-2.70837,-0.83766 -4.22493,-3.71228 -3.38727,-6.42066z" fill="#181818" stroke-linecap="butt"/><path d="M207.40534,163.41992c0.64347,-9.14933 8.58211,-16.04468 17.73143,-15.40121c9.14933,0.64347 16.04468,8.58211 15.40121,17.73143c-0.64347,9.14933 -8.58211,16.04468 -17.73143,15.40121c-9.14933,-0.64347 -16.04468,-8.58211 -15.40121,-17.73143z" fill="#181818" stroke-linecap="butt"/><path d="M222.5434,168.12655l0.36795,-5.23182c0,0 7.29237,1.35304 10.61927,1.58702c3.10782,0.21857 8.72972,-0.2262 8.72972,-0.2262l-0.36795,5.23182z" fill="#ff0000" stroke-linecap="butt"/><g><path d="M209.78495,156.48899l0.84629,-12.03319l29.55979,2.07894l-0.84629,12.03319z" fill="#343434" stroke-linecap="butt"/><path d="M250.06998,159.32224l-51.01026,-3.58755" fill="none" stroke-linecap="round"/></g></g></g></svg>