<svg version="1.1" xmlns="http://www.w3.org/2000/svg" xmlns:xlink="http://www.w3.org/1999/xlink" width="88.28185" height="98.89448" viewBox="0,0,88.28185,98.89448"><defs><radialGradient cx="220.53307" cy="171.60258" r="19.76471" gradientUnits="userSpaceOnUse" id="color-1"><stop offset="0" stop-color="#e82d00" stop-opacity="0"/><stop offset="1" stop-color="#e82d00"/></radialGradient><radialGradient cx="220.18269" cy="171.80049" r="19.76471" gradientUnits="userSpaceOnUse" id="color-2"><stop offset="0" stop-color="#e82d00" stop-opacity="0"/><stop offset="1" stop-color="#e82d00"/></radialGradient><radialGradient cx="220.41752" cy="171.41899" r="19.76471" gradientUnits="userSpaceOnUse" id="color-3"><stop offset="0" stop-color="#e82d00"/><stop offset="1" stop-color="#e82d00" stop-opacity="0"/></radialGradient><linearGradient x1="270.68012" y1="122.42362" x2="205.88353" y2="186.57884" gradientUnits="userSpaceOnUse" id="color-4"><stop offset="0" stop-color="#e82d00" stop-opacity="0"/><stop offset="1" stop-color="#e82d00"/></linearGradient></defs><g transform="translate(-200.41797,-125.72452)"><g data-paper-data="{&quot;isPaintingLayer&quot;:true}" fill-rule="nonzero" stroke-linejoin="miter" stroke-miterlimit="10" stroke-dasharray="" stroke-dashoffset="0" style="mix-blend-mode: normal"><path d="M230.56675,201.56337c0,0 0.09768,-8.04583 1.19916,-11.96871c1.19462,-4.25458 5.71184,-12.64454 5.71184,-12.64454l7.72311,4.09875c0,0 -4.68889,6.01639 -5.85607,10.17325c-1.13562,4.04448 -1.21964,10.98118 -1.21964,10.98118z" fill="#e80000" stroke="#000000" stroke-width="2" stroke-linecap="butt"/><path d="M266.78554,212.81624c4.43311,2.19616 4.50171,5.1972 3.04582,8.13601c-1.45588,2.9388 -6.22985,3.54083 -10.66297,1.34467c-4.43311,-2.19616 -7.65087,-4.73547 -6.19498,-7.67427c0.56229,-1.13502 6.49296,-5.43232 13.81213,-1.8064z" data-paper-data="{&quot;index&quot;:null}" fill="#e80000" stroke="#000000" stroke-width="2" stroke-linecap="butt"/><path d="M249.86537,197.25274c4.9471,0.04198 6.31817,2.7124 6.29034,5.99194c-0.02783,3.27955 -4.0608,5.90411 -9.00792,5.86212c-4.9471,-0.04198 -8.95034,-0.92297 -8.92251,-4.20251c0.01075,-1.26662 3.47231,-7.72086 11.64009,-7.65155z" data-paper-data="{&quot;index&quot;:null}" fill="#e80000" stroke="#000000" stroke-width="2" stroke-linecap="butt"/><path d="M222.84658,186.74223c0.98391,-1.86917 3.2968,-2.58682 5.16598,-1.60291c1.86917,0.98391 2.58682,3.2968 1.60291,5.16598c-0.98391,1.86917 -3.2968,2.58682 -5.16598,1.60291c-1.86917,-0.98391 -2.58682,-3.2968 -1.60291,-5.16598z" fill="#e80000" stroke="#000000" stroke-width="2" stroke-linecap="butt"/><path d="M231.90228,169.7074c0,0 2.10697,-2.22284 3.83029,-3.3097c1.36524,-0.86102 5.68789,-2.69317 5.68789,-2.69317" fill="none" stroke="#000000" stroke-width="2" stroke-linecap="round"/><path d="M223.20496,175.05422c-1.05895,-2.62976 0.21443,-5.62005 2.84419,-6.679c2.62976,-1.05895 5.62005,0.21443 6.679,2.84419c1.05895,2.62976 -0.21443,5.62005 -2.84419,6.679c-2.62976,1.05895 -5.62005,-0.21443 -6.679,-2.84419z" fill="#e80000" stroke="#000000" stroke-width="2" stroke-linecap="butt"/><path d="M240.83906,169.30712c0,-9.17193 7.43532,-16.60724 16.60724,-16.60724c9.17193,0 16.60724,7.43532 16.60724,16.60724c0,9.17193 -7.43532,16.60724 -16.60724,16.60724c-9.17193,0 -16.60724,-7.43532 -16.60724,-16.60724z" fill="#e80000" stroke="#000000" stroke-width="2" stroke-linecap="butt"/><path d="M240.71421,165.43742l-0.06673,-5.59961l33.39762,-0.39799l0.06673,5.5996z" fill="#ff2121" stroke="#000000" stroke-width="2" stroke-linecap="butt"/><g stroke-linecap="butt"><path d="M217.28512,164.96226c1.96194,-0.78273 4.18695,0.17322 4.96968,2.13516c0.78273,1.96194 -0.17322,4.18695 -2.13516,4.96968c-1.96194,0.78273 -4.18695,-0.17322 -4.96968,-2.13516c-0.78273,-1.96194 0.17322,-4.18695 2.13516,-4.96968z" fill="#e80000" stroke="#000000" stroke-width="2"/><path d="M206.62699,157.55748c7.75689,-7.68011 20.27106,-7.61787 27.95118,0.13902c7.68011,7.75689 7.61787,20.27106 -0.13902,27.95118c-7.75689,7.68011 -20.27106,7.61787 -27.95118,-0.13902c-7.68011,-7.75689 -7.61787,-20.27106 0.13902,-27.95118z" fill="url(#color-1)" stroke="none" stroke-width="0"/><path d="M206.27661,157.7554c7.75689,-7.68011 20.27106,-7.61787 27.95118,0.13902c7.68011,7.75689 7.61787,20.27106 -0.13902,27.95118c-7.75689,7.68011 -20.27106,7.61787 -27.95118,-0.13902c-7.68011,-7.75689 -7.61787,-20.27106 0.13902,-27.95118z" fill="url(#color-2)" stroke="none" stroke-width="0"/><path d="M206.51144,157.37389c7.75689,-7.68011 20.27106,-7.61787 27.95118,0.13902c7.68011,7.75689 7.61787,20.27106 -0.13902,27.95118c-7.75689,7.68011 -20.27106,7.61787 -27.95118,-0.13902c-7.68011,-7.75689 -7.61787,-20.27106 0.13902,-27.95118z" fill="url(#color-3)" stroke="none" stroke-width="0"/><path d="M220.03201,192.52454c-17.31168,-1.49192 -20.74974,-14.11915 -18.55895,-28.05361c2.19078,-13.93452 13.63102,-24.68338 28.36103,-34.29173c21.94294,-14.31332 58.86574,10.44427 58.86574,10.44427c0,0 -31.57765,-1.96319 -43.71969,19.37469c-10.8792,19.11854 -7.63641,34.01837 -24.94811,32.52642z" data-paper-data="{&quot;index&quot;:null}" fill="url(#color-4)" stroke="#000000" stroke-width="0"/></g></g></g></svg>