<svg version="1.1" xmlns="http://www.w3.org/2000/svg" xmlns:xlink="http://www.w3.org/1999/xlink" width="109.53014" height="64.53454" viewBox="0,0,109.53014,64.53454"><g transform="translate(-214.0421,-164.2615)"><g data-paper-data="{&quot;isPaintingLayer&quot;:true}" fill-rule="nonzero" stroke="#000000" stroke-width="2" stroke-linejoin="miter" stroke-miterlimit="10" stroke-dasharray="" stroke-dashoffset="0" style="mix-blend-mode: normal"><g data-paper-data="{&quot;index&quot;:null}" fill="#181818" stroke-linecap="butt"><path d="M249.75762,210.27496c-1.29834,-3.17983 0.67078,-4.34567 0.67078,-4.34567l12.27305,-5.86999c0,0 -0.4106,2.97636 0.11236,4.2264c0.48438,1.15785 2.91851,3.01849 2.91851,3.01849l-12.27304,5.87001c0,0 -2.17368,0.84308 -3.7017,-2.89919z"/><path d="M262.82513,204.19494c-0.83629,-2.05978 -0.453,-4.1893 0.85611,-4.75635c1.30912,-0.56706 3.0483,0.64304 3.8846,2.70282c0.83629,2.05978 0.45298,4.18927 -0.85611,4.75633c-1.30912,0.56706 -3.0483,-0.64303 -3.8846,-2.70282z"/></g><path d="M266.40048,195.2977l5.21295,16.02601l-4.95818,-2.92669l-1.97688,5.76747l-5.73676,-14.50108l4.19567,-0.70193z" data-paper-data="{&quot;index&quot;:null}" fill="#0e0e0e" stroke-linecap="round"/><path d="M229.66279,187.23929c0,-2.11232 1.71238,-3.8247 3.8247,-3.8247c2.11232,0 3.8247,1.71238 3.8247,3.8247c0,2.11232 -1.71238,3.8247 -3.8247,3.8247c-2.11232,0 -3.8247,-1.71238 -3.8247,-3.8247z" fill="#181818" stroke-linecap="butt"/><path d="M271.67268,172.2377c0,0 2.97622,0.72285 4.77606,1.67765c1.42586,0.75642 5.16476,3.5959 5.16476,3.5959" fill="#181818" stroke-linecap="round"/><path d="M262.35976,167.21692c1.75513,-2.22631 4.98274,-2.60832 7.20906,-0.85317c2.22631,1.75513 2.60832,4.98274 0.85317,7.20906c-1.75513,2.22631 -4.98274,2.60832 -7.20906,0.85317c-2.22631,-1.75513 -2.60832,-4.98274 -0.85317,-7.20906z" fill="#181818" stroke-linecap="butt"/><path d="M274.59561,188.51519c3.88896,-8.30664 13.77544,-11.88788 22.08208,-7.99892c8.30664,3.88896 11.88788,13.77544 7.99892,22.08208c-3.88896,8.30664 -13.77544,11.88788 -22.08208,7.99892c-8.30664,-3.88896 -11.88788,-13.77544 -7.99892,-22.08208z" fill="#181818" stroke-linecap="butt"/><path d="M222.4902,214.34387c4.11347,0 7.4481,2.47844 7.4481,5.53575c0,3.05731 -3.33463,5.53575 -7.4481,5.53575c-4.11347,0 -7.4481,-2.47844 -7.4481,-5.53575c0,-3.05731 3.33463,-5.53575 7.4481,-5.53575z" data-paper-data="{&quot;index&quot;:null}" fill="#181818" stroke-linecap="butt"/><path d="M279.00969,213.94127c4.94728,0 6.34095,2.65869 6.34095,5.93835c0,3.27966 -4.01056,5.93835 -8.95785,5.93835c-4.94728,0 -8.95785,-0.84699 -8.95785,-4.12665c0,-1.26666 3.40667,-7.75005 11.57475,-7.75005z" data-paper-data="{&quot;index&quot;:null}" fill="#181818" stroke-linecap="butt"/><path d="M283.9952,205.5103l2.2238,-4.74995l16.52391,7.73607l-2.2238,4.74995z" fill="#ff0000" stroke-linecap="butt"/><g><g><path d="M274.78645,187.84342l8.55658,-12.80918c0,0 8.47685,8.55068 13.26706,11.75056c5.03015,3.36016 16.22921,7.95306 16.22921,7.95306l-8.55658,12.80918c0,0 -10.95549,-5.25537 -15.84807,-8.52363c-4.93907,-3.29932 -13.64821,-11.17999 -13.64821,-11.17999z" fill="#343434" stroke-linecap="butt"/><path d="M315.55664,213.84029c0,0 -18.04159,-8.33857 -26.45283,-13.95731c-8.55327,-5.71361 -24.44782,-20.04452 -24.44782,-20.04452" fill="none" stroke-linecap="round"/></g><path d="M313.97594,193.67106c-1.31562,1.96948 -9.05392,-0.89071 -17.28398,-6.38841c-8.23006,-5.49771 -13.8353,-11.55105 -12.51968,-13.52053c1.31562,-1.96948 9.05392,0.89071 17.28397,6.38841c8.23006,5.49771 13.83531,11.55106 12.51969,13.52054z" fill="#252525" stroke-linecap="butt"/></g><path d="M308.69665,211.34509c8.60576,-8.73793 11.08784,-23.17915 11.08784,-23.17915c0,0 9.66909,20.41299 -7.00759,34.2247c-19.01946,15.07138 -45.50144,-5.95061 -44.08474,-7.90977c1.20995,-1.67325 31.39872,5.60214 40.00448,-3.13579z" data-paper-data="{&quot;index&quot;:null}" fill="#181818" stroke-linecap="butt"/></g></g></svg>