<svg version="1.1" xmlns="http://www.w3.org/2000/svg" xmlns:xlink="http://www.w3.org/1999/xlink" width="92.21944" height="65.57456" viewBox="0,0,92.21944,65.57456"><g transform="translate(-206.19779,-162.18316)"><g data-paper-data="{&quot;isPaintingLayer&quot;:true}" fill-rule="nonzero" stroke="#000000" stroke-width="2" stroke-linejoin="miter" stroke-miterlimit="10" stroke-dasharray="" stroke-dashoffset="0" style="mix-blend-mode: normal"><path d="M253.72646,192.60243c0,-2.11232 1.71238,-3.8247 3.8247,-3.8247c2.11232,0 3.8247,1.71238 3.8247,3.8247c0,2.11232 -1.71238,3.8247 -3.8247,3.8247c-2.11232,0 -3.8247,-1.71238 -3.8247,-3.8247z" fill="#e80000" stroke-linecap="butt"/><path d="M263.86288,176.669c0,0 -4.64421,0.6881 -6.25811,0.6644c-2.03721,-0.02992 -4.99369,-0.82962 -4.99369,-0.82962" data-paper-data="{&quot;index&quot;:null}" fill="none" stroke-linecap="round"/><path d="M246.62102,170.5636c2.79638,-0.46614 5.44115,1.42291 5.90729,4.21929c0.46614,2.79638 -1.42291,5.44115 -4.21929,5.90729c-2.79638,0.46614 -5.44115,-1.42291 -5.90729,-4.21929c-0.46614,-2.79638 1.42291,-5.44115 4.21929,-5.90729z" data-paper-data="{&quot;index&quot;:null}" fill="#e80000" stroke-linecap="butt"/><path d="M264.20275,179.7904c0,-9.17193 7.43532,-16.60724 16.60724,-16.60724c9.17193,0 16.60724,7.43532 16.60724,16.60724c0,9.17193 -7.43532,16.60724 -16.60724,16.60724c-9.17193,0 -16.60724,-7.43532 -16.60724,-16.60724z" fill="#e80000" stroke-linecap="butt"/><path d="M236.30245,205.58168l19.83772,-16.12572l4.95199,6.0919l-19.83772,16.12572z" fill="#e80000" stroke-linecap="butt"/><path d="M221.82046,216.72581c3.59244,3.40146 2.77649,6.29026 0.5216,8.67177c-2.2549,2.38151 -6.99511,1.55468 -10.58756,-1.84679c-3.59244,-3.40146 -5.92236,-6.77393 -3.66746,-9.15545c0.87088,-0.91978 7.80222,-3.28542 13.73344,2.33045z" data-paper-data="{&quot;index&quot;:null}" fill="#e80000" stroke-linecap="butt"/><path d="M263.12701,178.31338l-1.3957,-5.42329l32.34602,-8.32434l1.3957,5.42328z" fill="#ff2121" stroke-linecap="butt"/><path d="M239.21978,214.90207c-4.89711,-0.70273 -5.89901,-3.53242 -5.43317,-6.77881c0.46585,-3.24641 4.81339,-5.30847 9.71052,-4.60573c4.89711,0.70273 8.74672,2.11079 8.28087,5.35722c-0.17993,1.25381 -4.47297,7.18757 -12.55823,6.02736z" data-paper-data="{&quot;index&quot;:null}" fill="#e80000" stroke-linecap="butt"/><path d="M243.16859,200.99398c0,-2.11232 1.71238,-3.8247 3.8247,-3.8247c2.11232,0 3.8247,1.71238 3.8247,3.8247c0,2.11232 -1.71238,3.8247 -3.8247,3.8247c-2.11232,0 -3.8247,-1.71238 -3.8247,-3.8247z" fill="#e80000" stroke-linecap="butt"/></g></g></svg>