<svg version="1.1" xmlns="http://www.w3.org/2000/svg" xmlns:xlink="http://www.w3.org/1999/xlink" width="152.19038" height="111.54026" viewBox="0,0,152.19038,111.54026"><defs><radialGradient cx="244.59019" cy="147.58516" r="18.84183" gradientUnits="userSpaceOnUse" id="color-1"><stop offset="0" stop-color="#ffffff"/><stop offset="1" stop-color="#0debff"/></radialGradient></defs><g transform="translate(-214.43527,-116.14571)"><g data-paper-data="{&quot;isPaintingLayer&quot;:true}" fill-rule="nonzero" stroke-linejoin="miter" stroke-miterlimit="10" stroke-dasharray="" stroke-dashoffset="0" style="mix-blend-mode: normal"><g fill="#76f4ff" stroke="#53acb4" stroke-width="1" stroke-linecap="butt"><path d="M366.27037,116.55962l-55.81499,56.36735l-32.11878,16.6462l22.26678,-28.51145z" data-paper-data="{&quot;index&quot;:null}"/><path d="M262.35555,195.30296l20.84108,-13.654l3.58865,4.32198l-17.61131,17.54378z"/><path d="M304.28912,193.74565l-16.25131,-1.82269l-10.80517,-12.93614l1.59387,-15.90703l9.87741,17.70259z"/></g><path d="M261.99879,199.27061c0,-2.11232 1.71238,-3.8247 3.8247,-3.8247c2.11232,0 3.8247,1.71238 3.8247,3.8247c0,2.11232 -1.71238,3.8247 -3.8247,3.8247c-2.11232,0 -3.8247,-1.71238 -3.8247,-3.8247z" fill="#0debff" stroke="#000000" stroke-width="2" stroke-linecap="butt"/><path d="M234.97637,207.49486l7.58502,-24.41395l7.4972,2.32925l-7.58502,24.41395z" data-paper-data="{&quot;index&quot;:null}" fill="#0debff" stroke="#000000" stroke-width="2" stroke-linecap="butt"/><path d="M220.488,192.28807c0,-2.11232 1.71238,-3.8247 3.8247,-3.8247c2.11232,0 3.8247,1.71238 3.8247,3.8247c0,2.11232 -1.71238,3.8247 -3.8247,3.8247c-2.11232,0 -3.8247,-1.71238 -3.8247,-3.8247z" fill="#0debff" stroke="#000000" stroke-width="2" stroke-linecap="butt"/><path d="M222.88338,215.61447c4.11347,0 7.4481,2.47844 7.4481,5.53575c0,3.05731 -3.33463,5.53575 -7.4481,5.53575c-4.11347,0 -7.4481,-2.47844 -7.4481,-5.53575c0,-3.05731 3.33463,-5.53575 7.4481,-5.53575z" data-paper-data="{&quot;index&quot;:null}" fill="#0debff" stroke="#000000" stroke-width="2" stroke-linecap="butt"/><path d="M262.72493,213.495c4.74209,-1.41001 6.83571,0.7412 7.77044,3.88484c0.93473,3.14364 -2.15175,6.8351 -6.89385,8.24512c-4.74209,1.41001 -8.82772,1.7412 -9.76245,-1.40244c-0.36101,-1.21413 1.05655,-8.39955 8.88587,-10.72751z" data-paper-data="{&quot;index&quot;:null}" fill="#0debff" stroke="#000000" stroke-width="2" stroke-linecap="butt"/><path d="M241.283,162.51949c5.70477,-7.18191 16.15149,-8.37936 23.3334,-2.6746c7.18191,5.70477 8.37936,16.15149 2.6746,23.3334c-5.70477,7.18191 -16.15149,8.37936 -23.3334,2.6746c-7.18191,-5.70477 -8.37936,-16.15149 -2.6746,-23.3334z" fill="#0debff" stroke="#000000" stroke-width="2" stroke-linecap="butt"/><path d="M231.2975,158.51329c0,0 2.82619,-1.18026 4.8419,-1.47688c1.59688,-0.23499 6.2912,-0.16146 6.2912,-0.16146" fill="none" stroke="#000000" stroke-width="2" stroke-linecap="round"/><path d="M221.1805,159.88379c0.09564,-2.83335 2.47005,-5.0527 5.3034,-4.95706c2.83335,0.09564 5.0527,2.47005 4.95706,5.3034c-0.09564,2.83335 -2.47005,5.0527 -5.3034,4.95706c-2.83335,-0.09564 -5.0527,-2.47005 -4.95706,-5.3034z" fill="#0debff" stroke="#000000" stroke-width="2" stroke-linecap="butt"/><path d="M236.37137,165.55694l5.51588,-20.06242l29.91567,2.49076l2.12217,20.69836z" fill="url(#color-1)" stroke="#000000" stroke-width="2" stroke-linecap="butt"/></g></g></svg>