<svg version="1.1" xmlns="http://www.w3.org/2000/svg" xmlns:xlink="http://www.w3.org/1999/xlink" width="202.83007" height="79.79822" viewBox="0,0,202.83007,79.79822"><defs><linearGradient x1="345.0538" y1="185.71468" x2="400.15383" y2="185.71468" gradientUnits="userSpaceOnUse" id="color-1"><stop offset="0" stop-color="#ff3100"/><stop offset="1" stop-color="#ff8d00"/></linearGradient><linearGradient x1="348.37878" y1="185.8284" x2="386.19892" y2="185.8284" gradientUnits="userSpaceOnUse" id="color-2"><stop offset="0" stop-color="#ffe049"/><stop offset="1" stop-color="#fff3e5"/></linearGradient></defs><g transform="translate(-208.87227,-146.81122)"><g data-paper-data="{&quot;isPaintingLayer&quot;:true}" fill-rule="nonzero" stroke="#000000" stroke-linejoin="miter" stroke-miterlimit="10" stroke-dasharray="" stroke-dashoffset="0" style="mix-blend-mode: normal"><path d="M236.11061,205.71571v-25.56509h7.8507v25.56509z" fill="#e80000" stroke-width="2" stroke-linecap="butt"/><path d="M219.51103,160.06637c0,0 2.48345,-1.79243 4.37877,-2.53999c1.5015,-0.59223 6.08939,-1.5889 6.08939,-1.5889" fill="none" stroke-width="2" stroke-linecap="round"/><path d="M209.97137,163.70323c-0.55164,-2.78077 1.25541,-5.48223 4.03619,-6.03388c2.78077,-0.55164 5.48223,1.25541 6.03388,4.03619c0.55164,2.78077 -1.25541,5.48223 -4.03619,6.03388c-2.78077,0.55164 -5.48223,-1.25541 -6.03388,-4.03619z" fill="#e80000" stroke-width="2" stroke-linecap="butt"/><path d="M228.36645,161.33433c1.70499,-9.01207 10.39287,-14.93562 19.40493,-13.23063c9.01207,1.70499 14.93562,10.39287 13.23063,19.40493c-1.70499,9.01207 -10.39287,14.93562 -19.40493,13.23063c-9.01207,-1.70499 -14.93562,-10.39287 -13.23063,-19.40493z" fill="#e80000" stroke-width="2" stroke-linecap="butt"/><path d="M224.77292,208.13772c0,-2.11232 1.71238,-3.8247 3.8247,-3.8247c2.11232,0 3.8247,1.71238 3.8247,3.8247c0,2.11232 -1.71238,3.8247 -3.8247,3.8247c-2.11232,0 -3.8247,-1.71238 -3.8247,-3.8247z" fill="#e80000" stroke-width="2" stroke-linecap="butt"/><path d="M272.6009,184.91371c0,-2.11232 1.71238,-3.8247 3.8247,-3.8247c2.11232,0 3.8247,1.71238 3.8247,3.8247c0,2.11232 -1.71238,3.8247 -3.8247,3.8247c-2.11232,0 -3.8247,-1.71238 -3.8247,-3.8247z" fill="#e80000" stroke-width="2" stroke-linecap="butt"/><path d="M228.86381,214.13534c4.11347,0 7.4481,2.47844 7.4481,5.53575c0,3.05731 -3.33463,5.53575 -7.4481,5.53575c-4.11347,0 -7.4481,-2.47844 -7.4481,-5.53575c0,-3.05731 3.33463,-5.53575 7.4481,-5.53575z" data-paper-data="{&quot;index&quot;:null}" fill="#e80000" stroke-width="2" stroke-linecap="butt"/><path d="M254.93215,213.73274c4.94728,0 6.34095,2.65869 6.34095,5.93835c0,3.27966 -4.01056,5.93835 -8.95785,5.93835c-4.94728,0 -8.95785,-0.84699 -8.95785,-4.12665c0,-1.26666 3.40667,-7.75005 11.57475,-7.75005z" data-paper-data="{&quot;index&quot;:null}" fill="#e80000" stroke-width="2" stroke-linecap="butt"/><path d="M411.70234,185.473c0,0 -23.88306,13.85612 -39.09851,13.85612c-15.21545,0 -27.55002,-6.09539 -27.55002,-13.61444c0,-7.51905 12.33456,-13.61444 27.55002,-13.61444c15.21545,0 39.09851,13.37276 39.09851,13.37276z" fill="url(#color-1)" stroke-width="0" stroke-linecap="butt"/><path d="M391.38596,185.8284c0,0 -13.65337,9.34482 -24.09711,9.34482c-10.44375,0 -18.91007,-4.18382 -18.91007,-9.34482c0,-5.161 8.46633,-9.34482 18.91007,-9.34482c10.44375,0 24.09711,9.34482 24.09711,9.34482z" fill="url(#color-2)" stroke-width="0" stroke-linecap="butt"/><path d="M227.58403,159.68307l-0.36323,-5.58821l33.32966,-2.16639l0.36323,5.58821z" fill="#ff2121" stroke-width="2" stroke-linecap="butt"/></g></g></svg>