<svg version="1.1" xmlns="http://www.w3.org/2000/svg" xmlns:xlink="http://www.w3.org/1999/xlink" width="56.61335" height="87.22081" viewBox="0,0,56.61335,87.22081"><g transform="translate(-206.92235,-139.8642)"><g data-paper-data="{&quot;isPaintingLayer&quot;:true}" fill-rule="nonzero" stroke="#000000" stroke-width="2" stroke-linejoin="miter" stroke-miterlimit="10" stroke-dasharray="" stroke-dashoffset="0" style="mix-blend-mode: normal"><path d="M217.69262,151.81979c0,0 2.57382,-1.66006 4.50565,-2.30746c1.53042,-0.51286 6.16417,-1.26818 6.16417,-1.26818" fill="none" stroke-linecap="round"/><path d="M207.97578,154.95263c-0.40543,-2.80582 1.54048,-5.40905 4.34631,-5.81446c2.80582,-0.40543 5.40905,1.54048 5.81446,4.34631c0.40543,2.80582 -1.54048,5.40905 -4.34631,5.81446c-2.80582,0.40543 -5.40905,-1.54048 -5.81446,-4.34631z" fill="#2d6a2b" stroke-linecap="butt"/><path d="M227.69016,161.18192c-0.03464,-9.17186 7.37254,-16.6352 16.5444,-16.66984c9.17186,-0.03464 16.6352,7.37254 16.66984,16.5444c0.03464,9.17186 -7.37254,16.6352 -16.5444,16.66984c-9.17186,0.03464 -16.6352,-7.37254 -16.66984,-16.5444z" fill="#2d6a2b" stroke-linecap="butt"/><path d="M236.55315,142.76701c14.82113,-5.61037 25.0986,2.97219 25.0986,2.97219l-37.58155,16.36225c0,0 -3.45219,-13.30237 12.48294,-19.33443z" fill="#367e33" stroke-linecap="round"/><path d="M234.01131,203.2512l3.59746,-25.31071l7.77259,1.10473l-3.59746,25.31071z" fill="#2d6a2b" stroke-linecap="butt"/><path d="M220.51752,191.80904c0.08546,-2.11059 1.86571,-3.75229 3.97631,-3.66683c2.11059,0.08546 3.75229,1.86571 3.66683,3.97631c-0.08546,2.11059 -1.86571,3.75229 -3.97631,3.66683c-2.11059,-0.08546 -3.75229,-1.86571 -3.66683,-3.97631z" fill="#2d6a2b" stroke-linecap="butt"/><path d="M250.82755,185.65871c0.08546,-2.11059 1.86571,-3.75229 3.97631,-3.66683c2.11059,0.08546 3.75229,1.86571 3.66683,3.97631c-0.08546,2.11059 -1.86571,3.75229 -3.97631,3.66683c-2.11059,-0.08546 -3.75229,-1.86571 -3.66683,-3.97631z" fill="#2d6a2b" stroke-linecap="butt"/><path d="M254.59887,214.2083c4.94728,0 6.34095,2.65869 6.34095,5.93835c0,3.27966 -4.01057,5.93835 -8.95785,5.93835c-4.94728,0 -8.95785,-0.84699 -8.95785,-4.12665c0,-1.26666 3.40667,-7.75005 11.57475,-7.75005z" data-paper-data="{&quot;index&quot;:null}" fill="#2d6a2b" stroke-linecap="butt"/><path d="M228.53053,214.6109c4.11347,0 7.4481,2.47844 7.4481,5.53575c0,3.05731 -3.33463,5.53575 -7.4481,5.53575c-4.11347,0 -7.4481,-2.47844 -7.4481,-5.53575c0,-3.05731 3.33463,-5.53575 7.4481,-5.53575z" data-paper-data="{&quot;index&quot;:null}" fill="#2d6a2b" stroke-linecap="butt"/></g></g></svg>