<svg version="1.1" xmlns="http://www.w3.org/2000/svg" xmlns:xlink="http://www.w3.org/1999/xlink" width="119.25063" height="89.3647" viewBox="0,0,119.25063,89.3647"><defs><linearGradient x1="192.29725" y1="207.01569" x2="290.40555" y2="223.52925" gradientUnits="userSpaceOnUse" id="color-1"><stop offset="0" stop-color="#5c6cff"/><stop offset="1" stop-color="#5c6cff" stop-opacity="0"/></linearGradient><linearGradient x1="176.45684" y1="214.41703" x2="275.94522" y2="214.41703" gradientUnits="userSpaceOnUse" id="color-2"><stop offset="0" stop-color="#5c6cff"/><stop offset="1" stop-color="#5c6cff" stop-opacity="0"/></linearGradient><linearGradient x1="186.47045" y1="214.54532" x2="285.95765" y2="215.02926" gradientUnits="userSpaceOnUse" id="color-3"><stop offset="0" stop-color="#5c6cff"/><stop offset="1" stop-color="#5c6cff" stop-opacity="0"/></linearGradient></defs><g transform="translate(-176.45684,-137.25445)"><g data-paper-data="{&quot;isPaintingLayer&quot;:true}" fill-rule="nonzero" stroke-linejoin="miter" stroke-miterlimit="10" stroke-dasharray="" stroke-dashoffset="0" style="mix-blend-mode: normal"><path d="M217.83741,223.42043c-15.19978,-2.55842 -26.63451,-9.90308 -25.54016,-16.40474c1.09436,-6.50166 14.30338,-9.69829 29.50318,-7.13986c15.19978,2.55842 68.91965,21.78481 68.91965,21.78481c0,0 -57.68289,4.31822 -72.88267,1.7598z" fill="url(#color-1)" stroke="none" stroke-width="0" stroke-linecap="butt"/><path d="M205.46517,225.80893c-15.4136,0 -27.90881,-5.34478 -27.90881,-11.9379c0,-6.59312 12.4952,-11.9379 27.90881,-11.9379c15.4136,0 71.57956,10.043 71.57956,10.043c0,0 -56.16597,13.8328 -71.57956,13.8328z" fill="#5c6cff" stroke="none" stroke-width="0" stroke-linecap="butt"/><path d="M244.05533,170.33076c2.07557,-8.934 11.00059,-14.49384 19.93458,-12.41827c8.934,2.07557 14.49384,11.00059 12.41827,19.93458c-2.07557,8.934 -11.00059,14.49384 -19.93458,12.41827c-8.934,-2.07557 -14.49384,-11.00059 -12.41827,-19.93458z" fill="#1d28e8" stroke="#000000" stroke-width="2" stroke-linecap="butt"/><path d="M216.87887,200.66351l19.86975,-16.08623l4.93986,6.10173l-19.86975,16.08623z" fill="#1d28e8" stroke="#000000" stroke-width="2" stroke-linecap="butt"/><path d="M203.77532,180.93343c1.89112,-0.94105 4.18705,-0.17086 5.1281,1.72026c0.94105,1.89112 0.17086,4.18705 -1.72026,5.1281c-1.89112,0.94105 -4.18705,0.17086 -5.1281,-1.72026c-0.94105,-1.89112 -0.17086,-4.18705 1.72026,-5.1281z" fill="#1d28e8" stroke="#000000" stroke-width="2" stroke-linecap="butt"/><path d="M233.97475,171.6958c0,0 2.73152,-1.38533 4.7199,-1.82971c1.57522,-0.35204 6.26219,-0.62467 6.26219,-0.62467" fill="none" stroke="#000000" stroke-width="2" stroke-linecap="round"/><path d="M223.98627,173.80819c-0.11343,-2.83269 2.09096,-5.22099 4.92366,-5.33441c2.83269,-0.11343 5.22099,2.09096 5.33441,4.92366c0.11343,2.83269 -2.09096,5.22099 -4.92366,5.33441c-2.83269,0.11343 -5.22099,-2.09096 -5.33441,-4.92366z" fill="#1d28e8" stroke="#000000" stroke-width="2" stroke-linecap="butt"/><path d="M247.85809,205.3087c4.94379,-0.18559 6.43622,2.41895 6.55925,5.69631c0.12302,3.27735 -3.78498,6.08461 -8.72879,6.2702c-4.94379,0.18559 -8.98332,-0.51037 -9.10634,-3.78772c-0.04752,-1.26577 3.11355,-7.87239 11.27589,-8.17879z" data-paper-data="{&quot;index&quot;:null}" fill="#1d28e8" stroke="#000000" stroke-width="2" stroke-linecap="butt"/><path d="M244.04401,169.50159l-6.17054,-22.20249l40.10292,-8.77059l-3.09354,28.33796l20.74096,-1.69511z" fill="#2530ff" stroke="#000000" stroke-width="2" stroke-linecap="round"/><path d="M203.52157,207.73101c4.72049,1.48073 5.25452,4.43467 4.27291,7.56399c-0.98161,3.12931 -5.60407,4.46576 -10.32457,2.98502c-4.72049,-1.48073 -8.2937,-3.48927 -7.31209,-6.61858c0.37912,-1.20859 5.57011,-6.37515 13.36375,-3.93042z" data-paper-data="{&quot;index&quot;:null}" fill="#1d28e8" stroke="#000000" stroke-width="2" stroke-linecap="butt"/><path d="M204.36565,226.35493c-15.4136,0 -27.90881,-5.34478 -27.90881,-11.9379c0,-6.59312 12.49519,-11.9379 27.90881,-11.9379c15.4136,0 71.57957,10.043 71.57957,10.043c0,0 -56.16597,13.8328 -71.57957,13.8328z" fill="url(#color-2)" stroke="none" stroke-width="0" stroke-linecap="butt"/><path d="M214.32086,226.61884c-15.41341,-0.07498 -27.88249,-5.48048 -27.85041,-12.07351c0.03207,-6.59304 12.55311,-11.87698 27.96654,-11.802c15.41341,0.07498 71.52987,10.39106 71.52987,10.39106c0,0 -56.23259,13.55942 -71.646,13.48446z" fill="url(#color-3)" stroke="none" stroke-width="0" stroke-linecap="butt"/><path d="M237.0085,193.17078c1.89112,-0.94105 4.18705,-0.17086 5.1281,1.72026c0.94105,1.89112 0.17086,4.18705 -1.72026,5.1281c-1.89112,0.94105 -4.18705,0.17086 -5.1281,-1.72026c-0.94105,-1.89112 -0.17086,-4.18705 1.72026,-5.1281z" fill="#1d28e8" stroke="#000000" stroke-width="2" stroke-linecap="butt"/><path d="M201.78776,224.26469c-11.26071,0 -21.25696,-5.59401 -21.25696,-8.05334c0,-2.45934 11.14239,-1.08604 20.38935,0.85271c9.24696,1.93875 25.59512,0.85674 25.59512,3.31608c0,2.45934 -13.46678,3.88455 -24.7275,3.88455z" fill="#ffffff" stroke="none" stroke-width="0" stroke-linecap="butt"/></g></g></svg>