<svg version="1.1" xmlns="http://www.w3.org/2000/svg" xmlns:xlink="http://www.w3.org/1999/xlink" width="68.53075" height="85.81989" viewBox="0,0,68.53075,85.81989"><g transform="translate(-203.26709,-138.88962)"><g data-paper-data="{&quot;isPaintingLayer&quot;:true}" fill-rule="nonzero" stroke="#000000" stroke-width="2" stroke-linejoin="miter" stroke-miterlimit="10" stroke-dasharray="" stroke-dashoffset="0" style="mix-blend-mode: normal"><path d="M214.72621,148.46753c0,0 2.81186,-1.21399 4.82388,-1.53474c1.59395,-0.2541 6.28882,-0.23677 6.28882,-0.23677" fill="#181818" stroke-linecap="round"/><path d="M204.2671,150.063c0.06172,-2.83428 2.40938,-5.08192 5.24367,-5.02019c2.83428,0.06172 5.08192,2.40938 5.02018,5.24367c-0.06172,2.83428 -2.40938,5.08192 -5.24367,5.02019c-2.83428,-0.06172 -5.08192,-2.40938 -5.02018,-5.24367z" fill="#181818" stroke-linecap="butt"/><path d="M247.40216,204.63905c0,-2.11232 1.71238,-3.8247 3.8247,-3.8247c2.11232,0 3.8247,1.71238 3.8247,3.8247c0,2.11232 -1.71238,3.8247 -3.8247,3.8247c-2.11232,0 -3.8247,-1.71238 -3.8247,-3.8247z" fill="#181818" stroke-linecap="butt"/><path d="M224.38713,159.03332c0,-9.17193 7.43532,-16.60724 16.60724,-16.60724c9.17193,0 16.60724,7.43532 16.60724,16.60724c0,9.17193 -7.43532,16.60724 -16.60724,16.60724c-9.17193,0 -16.60724,-7.43532 -16.60724,-16.60724z" fill="#181818" stroke-linecap="butt"/><path d="M236.26382,204.75123v-25.56509h7.8507v25.56509z" fill="#181818" stroke-linecap="butt"/><path d="M263.04039,205.50243c4.74676,-1.39422 6.83321,0.76394 7.75746,3.91067c0.92426,3.14674 -2.17448,6.82791 -6.92125,8.22213c-4.74676,1.39422 -8.83346,1.71181 -9.75774,-1.43492c-0.35697,-1.21532 1.0845,-8.39599 8.92151,-10.69788z" data-paper-data="{&quot;index&quot;:null}" fill="#181818" stroke-linecap="butt"/><path d="M244.78642,162.66632v-5.24474h16.47423v5.24474z" fill="#ff0000" stroke-linecap="butt"/><path d="M234.12446,177.55013l14.42305,0.30197l-3.74625,4.22758l4.12087,4.22758l-17.04542,1.20788l4.30818,-5.13349z" fill="#0e0e0e" stroke-linecap="round"/><g><path d="M226.27463,151.95253v-12.06291h29.6328v12.06291z" fill="#343434" stroke-linecap="butt"/><path d="M215.52291,151.95253h51.13626" fill="none" stroke-linecap="round"/></g><path d="M225.03432,210.03106c0,-2.11232 1.71238,-3.8247 3.8247,-3.8247c2.11232,0 3.8247,1.71238 3.8247,3.8247c0,2.11232 -1.71238,3.8247 -3.8247,3.8247c-2.11232,0 -3.8247,-1.71238 -3.8247,-3.8247z" fill="#181818" stroke-linecap="butt"/><path d="M226.93834,214.16528c3.4722,3.52412 2.55645,5.80911 0.22024,8.11091c-2.33622,2.3018 -7.04486,1.88465 -10.51707,-1.63948c-3.4722,-3.52412 -3.51052,-10.97986 1.35987,-14.04084c4.87038,-3.06097 3.20428,1.751 8.93696,7.56941z" data-paper-data="{&quot;index&quot;:null}" fill="#181818" stroke-linecap="butt"/></g></g></svg>