<svg version="1.1" xmlns="http://www.w3.org/2000/svg" xmlns:xlink="http://www.w3.org/1999/xlink" width="56.98505" height="89.61667" viewBox="0,0,56.98505,89.61667"><g transform="translate(-207.97175,-137.46832)"><g data-paper-data="{&quot;isPaintingLayer&quot;:true}" fill-rule="nonzero" stroke="#000000" stroke-width="2" stroke-linejoin="miter" stroke-miterlimit="10" stroke-dasharray="" stroke-dashoffset="0" style="mix-blend-mode: normal"><path d="M219.01465,143.68267c0,0 3.05292,-0.24507 5.06118,0.09837c1.59098,0.27209 6.03079,1.79856 6.03079,1.79856" fill="none" stroke-linecap="round"/><path d="M208.97175,141.84642c0.97006,-2.66383 3.91591,-4.0369 6.57974,-3.06683c2.66383,0.97006 4.0369,3.91591 3.06683,6.57974c-0.97006,2.66383 -3.91591,4.0369 -6.57974,3.06683c-2.66383,-0.97006 -4.0369,-3.91591 -3.06683,-6.57974z" fill="#2d6a2b" stroke-linecap="butt"/><path d="M228.47525,157.9595c0.37107,-9.16442 8.10111,-16.29283 17.26553,-15.92176c9.16442,0.37107 16.29283,8.10111 15.92176,17.26553c-0.37107,9.16442 -8.10111,16.29283 -17.26553,15.92176c-9.16442,-0.37107 -16.29283,-8.10111 -15.92176,-17.26553z" fill="#2d6a2b" stroke-linecap="butt"/><path d="M238.14407,139.95462c15.05478,-4.94933 24.94258,4.07941 24.94258,4.07941l-38.26848,14.68398c0,0 -2.86044,-13.44204 13.3259,-18.76338z" fill="#367e33" stroke-linecap="round"/><path d="M233.28064,201.70652l4.71345,-25.12682l7.71612,1.44744l-4.71345,25.12682z" fill="#2d6a2b" stroke-linecap="butt"/><path d="M221.09269,189.79596c0.08546,-2.11059 1.86571,-3.75229 3.97631,-3.66683c2.11059,0.08546 3.75229,1.86571 3.66683,3.97631c-0.08546,2.11059 -1.86571,3.75229 -3.97631,3.66683c-2.11059,-0.08546 -3.75229,-1.86571 -3.66683,-3.97631z" fill="#2d6a2b" stroke-linecap="butt"/><path d="M251.69031,183.07046c0.08546,-2.11059 1.86571,-3.75229 3.97631,-3.66683c2.11059,0.08546 3.75229,1.86571 3.66683,3.97631c-0.08546,2.11059 -1.86571,3.75229 -3.97631,3.66683c-2.11059,-0.08546 -3.75229,-1.86571 -3.66683,-3.97631z" fill="#2d6a2b" stroke-linecap="butt"/><path d="M254.59887,214.2083c4.94728,0 6.34095,2.65869 6.34095,5.93835c0,3.27966 -4.01057,5.93835 -8.95785,5.93835c-4.94728,0 -8.95785,-0.84699 -8.95785,-4.12665c0,-1.26666 3.40667,-7.75005 11.57475,-7.75005z" data-paper-data="{&quot;index&quot;:null}" fill="#2d6a2b" stroke-linecap="butt"/><path d="M228.53053,214.6109c4.11347,0 7.4481,2.47844 7.4481,5.53575c0,3.05731 -3.33463,5.53575 -7.4481,5.53575c-4.11347,0 -7.4481,-2.47844 -7.4481,-5.53575c0,-3.05731 3.33463,-5.53575 7.4481,-5.53575z" data-paper-data="{&quot;index&quot;:null}" fill="#2d6a2b" stroke-linecap="butt"/></g></g></svg>