<svg version="1.1" xmlns="http://www.w3.org/2000/svg" xmlns:xlink="http://www.w3.org/1999/xlink" width="133.78943" height="81.11632" viewBox="0,0,133.78943,81.11632"><g transform="translate(-188.83441,-145.56609)"><g data-paper-data="{&quot;isPaintingLayer&quot;:true}" fill-rule="nonzero" stroke-linejoin="miter" stroke-miterlimit="10" stroke-dasharray="" stroke-dashoffset="0" style="mix-blend-mode: normal"><g stroke="#61ff00" stroke-width="3" stroke-linecap="round"><path d="M321.12383,180.19668c0,0 -25.75864,2.33789 -37.20963,2.70144c-10.26788,0.32599 -28.33476,-0.62056 -28.33476,-0.62056" fill="none"/><path d="M297.89501,181.17151c0,0 -11.36985,-3.23043 -12.54989,-7.73189c-1.18001,-4.50147 3.0713,-5.41793 3.0713,-5.41793z" fill="#61ff00"/><path d="M267.90704,193.40889c0,0 -3.43026,-2.55226 -0.33475,-6.14324c3.09552,-3.59098 14.83007,-1.90127 14.83007,-1.90127z" data-paper-data="{&quot;index&quot;:null}" fill="#61ff00"/><path d="M300.30175,189.21955c0,0 -2.87843,-2.17585 -0.24471,-5.18747c2.63372,-3.01162 12.52376,-1.51162 12.52376,-1.51162z" data-paper-data="{&quot;index&quot;:null}" fill="#61ff00"/></g><path d="M195.99216,163.00923c2.36188,-8.86262 11.46114,-14.13248 20.32371,-11.77061c8.86262,2.36188 14.13248,11.46114 11.77061,20.32371c-2.36188,8.86262 -11.46113,14.13247 -20.32372,11.77061c-8.86262,-2.36188 -14.13248,-11.46112 -11.77061,-20.32371z" fill="#2d6a2b" stroke="#000000" stroke-width="2" stroke-linecap="butt"/><path d="M210.71386,148.74801c16.83824,-2.60538 20.39079,10.67054 20.39079,10.67054l-40.76429,4.28587c0,0 4.71242,-12.53315 20.37353,-14.95641z" data-paper-data="{&quot;index&quot;:null}" fill="#367e33" stroke="#000000" stroke-width="2" stroke-linecap="round"/><path d="M232.55046,206.33416l-12.23322,-22.4482l6.89354,-3.75666l12.23322,22.44821z" data-paper-data="{&quot;index&quot;:null}" fill="#2d6a2b" stroke="#000000" stroke-width="2" stroke-linecap="butt"/><path d="M249.96341,183.55345c0.26753,-2.09531 2.18299,-3.57703 4.2783,-3.3095c2.09531,0.26753 3.57703,2.18299 3.3095,4.2783c-0.26753,2.09531 -2.18299,3.57703 -4.2783,3.3095c-2.09531,-0.26753 -3.57703,-2.18299 -3.3095,-4.2783z" fill="#2d6a2b" stroke="#000000" stroke-width="2" stroke-linecap="butt"/><path d="M258.93282,213.38269c4.93244,-0.38296 6.52773,2.15988 6.7816,5.4297c0.25387,3.26982 -3.53887,6.23098 -8.4713,6.61393c-4.93244,0.38296 -8.99653,-0.15105 -9.2504,-3.42087c-0.09805,-1.26286 2.79655,-7.9905 10.94011,-8.62276z" data-paper-data="{&quot;index&quot;:null}" fill="#2d6a2b" stroke="#000000" stroke-width="2" stroke-linecap="butt"/><path d="M226.59048,214.61091c4.11347,0 7.4481,2.47844 7.4481,5.53575c0,3.05731 -3.33463,5.53575 -7.4481,5.53575c-4.11347,0 -7.4481,-2.47844 -7.4481,-5.53575c0,-3.05731 3.33463,-5.53575 7.4481,-5.53575z" data-paper-data="{&quot;index&quot;:null}" fill="#2d6a2b" stroke="#000000" stroke-width="2" stroke-linecap="butt"/><path d="M254.1714,184.36306c0.26753,-2.09531 2.18299,-3.57703 4.2783,-3.3095c2.09531,0.26753 3.57703,2.18299 3.3095,4.2783c-0.26753,2.09531 -2.18299,3.57703 -4.2783,3.3095c-2.09531,-0.26753 -3.57703,-2.18299 -3.3095,-4.2783z" fill="#2d6a2b" stroke="#000000" stroke-width="2" stroke-linecap="butt"/><path d="M222.39192,156.18892c0,0 3.64873,-2.95443 5.05037,-3.75485c1.76928,-1.01034 4.72156,-1.82544 4.72156,-1.82544" data-paper-data="{&quot;index&quot;:null}" fill="none" stroke="#000000" stroke-width="2" stroke-linecap="round"/><path d="M237.84243,154.42666c-2.17064,1.82354 -5.40856,1.54217 -7.23211,-0.62846c-1.82354,-2.17064 -1.54217,-5.40856 0.62846,-7.23211c2.17064,-1.82354 5.40856,-1.54217 7.23211,0.62846c1.82354,2.17064 1.54217,5.40856 -0.62846,7.23211z" data-paper-data="{&quot;index&quot;:null}" fill="#2d6a2b" stroke="#000000" stroke-width="2" stroke-linecap="butt"/></g></g></svg>