<svg version="1.1" xmlns="http://www.w3.org/2000/svg" xmlns:xlink="http://www.w3.org/1999/xlink" width="69.24719" height="85.89883" viewBox="0,0,69.24719,85.89883"><g transform="translate(-203.26713,-139.17649)"><g data-paper-data="{&quot;isPaintingLayer&quot;:true}" fill-rule="nonzero" stroke="#000000" stroke-width="2" stroke-linejoin="miter" stroke-miterlimit="10" stroke-dasharray="" stroke-dashoffset="0" style="mix-blend-mode: normal"><path d="M246.54159,206.93401c0,-2.11232 1.71238,-3.8247 3.8247,-3.8247c2.11232,0 3.8247,1.71238 3.8247,3.8247c0,2.11232 -1.71238,3.8247 -3.8247,3.8247c-2.11232,0 -3.8247,-1.71238 -3.8247,-3.8247z" fill="#181818" stroke-linecap="butt"/><path d="M214.72625,148.7544c0,0 2.81186,-1.214 4.82388,-1.53474c1.59395,-0.25409 6.28882,-0.23677 6.28882,-0.23677" fill="#181818" stroke-linecap="round"/><path d="M204.26713,150.34987c0.06172,-2.83428 2.40938,-5.08192 5.24368,-5.02019c2.83428,0.06172 5.08192,2.40938 5.02019,5.24368c-0.06172,2.83428 -2.40938,5.08192 -5.24368,5.02019c-2.83428,-0.06172 -5.08192,-2.40938 -5.02019,-5.24368z" fill="#181818" stroke-linecap="butt"/><path d="M224.38717,159.32019c0,-9.17193 7.43532,-16.60724 16.60724,-16.60724c9.17193,0 16.60724,7.43532 16.60724,16.60724c0,9.17193 -7.43532,16.60724 -16.60724,16.60724c-9.17193,0 -16.60724,-7.43532 -16.60724,-16.60724z" fill="#181818" stroke-linecap="butt"/><path d="M236.26386,205.0381v-25.56509h7.8507v25.56509z" fill="#181818" stroke-linecap="butt"/><path d="M224.34628,220.13987c-2.15842,4.4516 -5.15877,4.5457 -8.10983,3.11483c-2.95107,-1.43087 -3.59364,-6.19955 -1.43522,-10.65116c2.15842,-4.4516 4.6703,-7.69083 7.62137,-6.25997c1.13975,0.55263 5.48729,6.44657 1.92368,13.79628z" data-paper-data="{&quot;index&quot;:null}" fill="#181818" stroke-linecap="butt"/><path d="M244.78646,162.95319v-5.24474h16.47423v5.24474z" fill="#ff0000" stroke-linecap="butt"/><path d="M234.1245,177.837l14.42305,0.30197l-3.74625,4.22758l4.12087,4.22758l-17.04542,1.20788l4.30818,-5.13349z" fill="#0e0e0e" stroke-linecap="round"/><g><path d="M226.27467,152.2394v-12.06291h29.6328v12.06291z" fill="#343434" stroke-linecap="butt"/><path d="M215.52295,152.2394h51.13626" fill="none" stroke-linecap="round"/></g><path d="M226.75558,210.6048c0,-2.11232 1.71238,-3.8247 3.8247,-3.8247c2.11232,0 3.8247,1.71238 3.8247,3.8247c0,2.11232 -1.71238,3.8247 -3.8247,3.8247c-2.11232,0 -3.8247,-1.71238 -3.8247,-3.8247z" fill="#181818" stroke-linecap="butt"/><path d="M263.21169,208.88212c4.4464,-2.16913 6.86466,-0.39066 8.30262,2.55695c1.43796,2.94762 -1.00086,7.09556 -5.44727,9.26469c-4.4464,2.16913 -8.42229,3.16631 -9.86025,0.2187c-0.55537,-1.13842 -0.33622,-8.45906 7.00489,-12.04033z" data-paper-data="{&quot;index&quot;:null}" fill="#181818" stroke-linecap="butt"/></g></g></svg>