<svg version="1.1" xmlns="http://www.w3.org/2000/svg" xmlns:xlink="http://www.w3.org/1999/xlink" width="65.24098" height="86.43537" viewBox="0,0,65.24098,86.43537"><g transform="translate(-203.26707,-139.17649)"><g data-paper-data="{&quot;isPaintingLayer&quot;:true}" fill-rule="nonzero" stroke="#000000" stroke-width="2" stroke-linejoin="miter" stroke-miterlimit="10" stroke-dasharray="" stroke-dashoffset="0" style="mix-blend-mode: normal"><path d="M214.72619,148.7544c0,0 2.81186,-1.21399 4.82388,-1.53474c1.59395,-0.2541 6.28882,-0.23677 6.28882,-0.23677" fill="#181818" stroke-linecap="round"/><path d="M204.26708,150.34987c0.06172,-2.83428 2.40938,-5.08192 5.24367,-5.02019c2.83428,0.06172 5.08192,2.40938 5.02018,5.24367c-0.06172,2.83428 -2.40938,5.08192 -5.24367,5.02019c-2.83428,-0.06172 -5.08192,-2.40938 -5.02018,-5.24367z" fill="#181818" stroke-linecap="butt"/><path d="M246.54154,205.21279c0,-2.11232 1.71238,-3.8247 3.8247,-3.8247c2.11232,0 3.8247,1.71238 3.8247,3.8247c0,2.11232 -1.71238,3.8247 -3.8247,3.8247c-2.11232,0 -3.8247,-1.71238 -3.8247,-3.8247z" fill="#181818" stroke-linecap="butt"/><path d="M224.38711,159.32019c0,-9.17193 7.43532,-16.60724 16.60724,-16.60724c9.17193,0 16.60724,7.43532 16.60724,16.60724c0,9.17193 -7.43532,16.60724 -16.60724,16.60724c-9.17193,0 -16.60724,-7.43532 -16.60724,-16.60724z" fill="#181818" stroke-linecap="butt"/><path d="M236.2638,205.0381v-25.56509h7.8507v25.56509z" fill="#181818" stroke-linecap="butt"/><path d="M261.84715,206.08815c4.91194,0.59028 5.97844,3.39626 5.58712,6.65249c-0.39131,3.25624 -4.69044,5.41742 -9.60239,4.82714c-4.91194,-0.59028 -8.7928,-1.90973 -8.4015,-5.16597c0.15113,-1.25761 4.30702,-7.28823 12.41675,-6.31366z" data-paper-data="{&quot;index&quot;:null}" fill="#181818" stroke-linecap="butt"/><path d="M244.7864,162.95319v-5.24474h16.47423v5.24474z" fill="#ff0000" stroke-linecap="butt"/><path d="M234.12444,177.837l14.42305,0.30197l-3.74625,4.22758l4.12087,4.22758l-17.04542,1.20788l4.30818,-5.13349z" fill="#0e0e0e" stroke-linecap="round"/><g><path d="M226.27461,152.2394v-12.06291h29.6328v12.06291z" fill="#343434" stroke-linecap="butt"/><path d="M215.52289,152.2394h51.13626" fill="none" stroke-linecap="round"/></g><path d="M225.89491,210.03106c0,-2.11232 1.71238,-3.8247 3.8247,-3.8247c2.11232,0 3.8247,1.71238 3.8247,3.8247c0,2.11232 -1.71238,3.8247 -3.8247,3.8247c-2.11232,0 -3.8247,-1.71238 -3.8247,-3.8247z" fill="#181818" stroke-linecap="butt"/><path d="M227.60056,213.19081c4.86235,0.91275 5.74158,3.78292 5.1365,7.00628c-0.60508,3.22336 -5.03731,5.09648 -9.89967,4.18373c-4.86235,-0.91275 -9.14822,-7.01364 -6.89525,-12.3065c2.25297,-5.29285 3.63056,-0.39048 11.65842,1.11649z" data-paper-data="{&quot;index&quot;:null}" fill="#181818" stroke-linecap="butt"/></g></g></svg>