<svg version="1.1" xmlns="http://www.w3.org/2000/svg" xmlns:xlink="http://www.w3.org/1999/xlink" width="83.74762" height="83.0042" viewBox="0,0,83.74762,83.0042"><g transform="translate(-182.61215,-142.66175)"><g data-paper-data="{&quot;isPaintingLayer&quot;:true}" fill-rule="nonzero" stroke="#000000" stroke-width="2" stroke-linejoin="miter" stroke-miterlimit="10" stroke-dasharray="" stroke-dashoffset="0" style="mix-blend-mode: normal"><path d="M222.75241,204.5575l-11.38175,-22.8917l7.02974,-3.49519l11.38175,22.8917z" fill="#ffe819" stroke-linecap="butt"/><path d="M187.4812,201.08268c-0.51175,-2.04939 0.73477,-4.12561 2.78416,-4.63736c2.04939,-0.51175 4.12561,0.73477 4.63736,2.78416c0.51175,2.04939 -0.73477,4.12561 -2.78416,4.63736c-2.04939,0.51175 -4.12561,-0.73477 -4.63736,-2.78416z" fill="#ffe819" stroke-linecap="butt"/><path d="M219.50462,213.59445c4.11347,0 7.4481,2.47844 7.4481,5.53575c0,3.05731 -3.33463,5.53575 -7.4481,5.53575c-4.11347,0 -7.4481,-2.47844 -7.4481,-5.53575c0,-3.05731 3.33463,-5.53575 7.4481,-5.53575z" data-paper-data="{&quot;index&quot;:null}" fill="#ffe819" stroke-linecap="butt"/><path d="M256.8311,195.51924c4.18861,-2.6327 6.78339,-1.12337 8.52866,1.65335c1.74528,2.77672 -0.23544,7.16192 -4.42406,9.79463c-4.18861,2.6327 -8.03488,4.04983 -9.78016,1.27311c-0.67405,-1.07242 -1.23995,-8.37444 5.67555,-12.72109z" data-paper-data="{&quot;index&quot;:null}" fill="#ffe819" stroke-linecap="butt"/><path d="M207.34349,166.36202c0.49783,-9.15841 8.32575,-16.17919 17.48415,-15.68137c9.15841,0.49783 16.17919,8.32575 15.68137,17.48415c-0.49783,9.15841 -8.32575,16.17919 -17.48415,15.68137c-9.15841,-0.49783 -16.17919,-8.32575 -15.68137,-17.48415z" fill="#ffe819" stroke-linecap="butt"/><path d="M192.85845,160.36523c0,0 2.22168,-2.1082 4.00011,-3.10231c1.40891,-0.78754 5.82247,-2.38832 5.82247,-2.38832" fill="none" stroke-linecap="round"/><path d="M183.89028,165.24417c-0.91827,-2.68213 0.51161,-5.60082 3.19374,-6.51909c2.68213,-0.91827 5.60082,0.51161 6.51909,3.19374c0.91827,2.68213 -0.51161,5.60082 -3.19374,6.51909c-2.68213,0.91827 -5.60082,-0.51161 -6.51909,-3.19374z" fill="#ffe819" stroke-linecap="butt"/><path d="M202.82377,166.06919l5.44896,-10.03768l-11.44585,-2.20579c0,0 14.19335,-11.04546 24.81033,-11.16397c10.61697,-0.11851 18.10823,10.68491 18.10823,10.68491z" data-paper-data="{&quot;index&quot;:null}" fill="#fff067" stroke-linecap="butt"/><path d="M212.87687,189.5881c-0.51175,-2.04939 0.73477,-4.12561 2.78416,-4.63736c2.04939,-0.51175 4.12561,0.73477 4.63736,2.78416c0.51175,2.04939 -0.73477,4.12561 -2.78416,4.63736c-2.04939,0.51175 -4.12561,-0.73477 -4.63736,-2.78416z" fill="#ffe819" stroke-linecap="butt"/></g></g></svg>