<svg version="1.1" xmlns="http://www.w3.org/2000/svg" xmlns:xlink="http://www.w3.org/1999/xlink" width="98.37201" height="77.20055" viewBox="0,0,98.37201,77.20055"><g transform="translate(-200.80652,-149.59214)"><g data-paper-data="{&quot;isPaintingLayer&quot;:true}" fill-rule="nonzero" stroke="#000000" stroke-width="2" stroke-linejoin="miter" stroke-miterlimit="10" stroke-dasharray="" stroke-dashoffset="0" style="mix-blend-mode: normal"><path d="M263.27593,170.83851c0,-9.17193 7.43532,-16.60724 16.60724,-16.60724c9.17193,0 16.60724,7.43532 16.60724,16.60724c0,9.17193 -7.43532,16.60724 -16.60724,16.60724c-9.17193,0 -16.60724,-7.43532 -16.60724,-16.60724z" fill="#2d6a2b" stroke-linecap="butt"/><path d="M272.20841,152.4572c14.84222,-5.55435 25.0872,3.06696 25.0872,3.06696l-37.64308,16.22019c0,0 -3.40193,-13.31531 12.55588,-19.28715z" fill="#367e33" stroke-linecap="round"/><path d="M237.68589,202.3538l19.13844,-16.94975l5.20504,5.87717l-19.13844,16.94974z" fill="#2d6a2b" stroke-linecap="butt"/><path d="M226.97818,178.1403c0.96571,-1.87864 3.27151,-2.61873 5.15016,-1.65303c1.87864,0.96571 2.61873,3.27151 1.65303,5.15016c-0.96571,1.87864 -3.27151,2.61873 -5.15016,1.65303c-1.87864,-0.96571 -2.61873,-3.27151 -1.65303,-5.15016z" fill="#2d6a2b" stroke-linecap="butt"/><path d="M266.55993,201.79437c0.96571,-1.87864 3.27152,-2.61873 5.15016,-1.65303c1.87864,0.96571 2.61873,3.27151 1.65303,5.15016c-0.96571,1.87864 -3.27152,2.61873 -5.15016,1.65303c-1.87864,-0.96571 -2.61873,-3.27151 -1.65303,-5.15016z" fill="#2d6a2b" stroke-linecap="butt"/><path d="M271.38998,213.63957c4.78831,-1.24401 6.80574,0.97881 7.63042,4.15309c0.82468,3.17427 -2.3885,6.75601 -7.17682,8.00003c-4.78831,1.24401 -8.88302,1.43272 -9.70768,-1.7416c-0.3185,-1.22596 1.34843,-8.35766 9.25408,-10.41154z" data-paper-data="{&quot;index&quot;:null}" fill="#2d6a2b" stroke-linecap="butt"/><path d="M253.42249,159.04635c0,0 2.78477,-1.27492 4.78933,-1.63939c1.58804,-0.28873 6.28217,-0.37361 6.28217,-0.37361" fill="none" stroke-linecap="round"/><path d="M243.3575,160.7574c0,-2.83496 2.29819,-5.13315 5.13315,-5.13315c2.83496,0 5.13315,2.29819 5.13315,5.13315c0,2.83496 -2.29819,5.13315 -5.13315,5.13315c-2.83496,0 -5.13315,-2.29819 -5.13315,-5.13315z" fill="#2d6a2b" stroke-linecap="butt"/><path d="M205.61928,204.02004c-4.39721,-2.2672 -4.41753,-5.26894 -2.91456,-8.18395c1.50297,-2.91501 6.28601,-3.44016 10.68321,-1.17298c4.39721,2.2672 7.5737,4.85791 6.07075,7.77292c-0.58047,1.12583 -6.57949,5.32718 -13.8394,1.58401z" data-paper-data="{&quot;index&quot;:null}" fill="#2d6a2b" stroke-linecap="butt"/></g></g></svg>