<svg version="1.1" xmlns="http://www.w3.org/2000/svg" xmlns:xlink="http://www.w3.org/1999/xlink" width="128.9162" height="64.91533" viewBox="0,0,128.9162,64.91533"><g transform="translate(-176.32507,-161.02617)"><g data-paper-data="{&quot;isPaintingLayer&quot;:true}" fill-rule="nonzero" stroke="#000000" stroke-width="2" stroke-linejoin="miter" stroke-miterlimit="10" stroke-dasharray="" stroke-dashoffset="0" style="mix-blend-mode: normal"><path d="M241.06792,215.75852l-20.65423,-15.06574l4.62648,-6.34264l20.65423,15.06574z" fill="#2d6a2b" stroke-linecap="butt"/><path d="M209.70322,221.11679c0,-2.11232 1.71238,-3.8247 3.8247,-3.8247c2.11232,0 3.8247,1.71238 3.8247,3.8247c0,2.11232 -1.71238,3.8247 -3.8247,3.8247c-2.11232,0 -3.8247,-1.71238 -3.8247,-3.8247z" fill="#2d6a2b" stroke-linecap="butt"/><path d="M231.44819,187.31968c-0.20531,-2.10232 1.33252,-3.97303 3.43484,-4.17834c2.10232,-0.20531 3.97303,1.33252 4.17834,3.43484c0.20531,2.10232 -1.33252,3.97303 -3.43484,4.17834c-2.10232,0.20531 -3.97303,-1.33252 -4.17834,-3.43484z" fill="#2d6a2b" stroke-linecap="butt"/><path d="M193.97071,184.8017c-1.20434,-9.09252 5.1903,-17.43976 14.28281,-18.64409c9.09252,-1.20434 17.43976,5.1903 18.64409,14.28281c1.20434,9.09252 -5.1903,17.43976 -14.28281,18.64409c-9.09252,1.20434 -17.43976,-5.1903 -18.64409,-14.28281z" fill="#2d6a2b" stroke-linecap="butt"/><path d="M200.41225,165.40664c13.98439,-7.45514 25.27271,-0.25371 25.27271,-0.25371l-35.18734,21.02254c0,0 -5.12087,-12.75332 9.91463,-20.76883z" fill="#367e33" stroke-linecap="round"/><path d="M259.06239,204.93743c-4.66627,-1.64362 -5.09749,-4.61432 -4.0079,-7.70769c1.08958,-3.09336 5.75564,-4.26864 10.42193,-2.62501c4.66627,1.64362 8.16763,3.77493 7.07805,6.8683c-0.42081,1.19471 -5.78795,6.17806 -13.49208,3.46439z" data-paper-data="{&quot;index&quot;:null}" fill="#2d6a2b" stroke-linecap="butt"/><path d="M290.48523,207.08613c7.33213,-1.96849 11.10658,-0.08386 13.21465,2.925c2.10808,3.00886 -2.12687,7.04381 -9.45899,9.0123c-7.33213,1.96849 -47.85886,1.60015 -49.96695,-1.40872c-0.81417,-1.16208 34.10576,-7.27855 46.2113,-10.52858z" data-paper-data="{&quot;index&quot;:null}" fill="#2d6a2b" stroke-linecap="butt"/><path d="M187.41749,178.53969c0,0 2.59326,-1.62954 4.5326,-2.25407c1.53638,-0.49475 6.17872,-1.19526 6.17872,-1.19526" data-paper-data="{&quot;index&quot;:null}" fill="none" stroke-linecap="round"/><path d="M177.37011,181.5965c-0.37225,-2.81042 1.60428,-5.39047 4.41468,-5.76273c2.81042,-0.37225 5.39047,1.60428 5.76273,4.41468c0.37225,2.81042 -1.60428,5.39047 -4.41468,5.76273c-2.81042,0.37225 -5.39047,-1.60428 -5.76273,-4.41468z" data-paper-data="{&quot;index&quot;:null}" fill="#2d6a2b" stroke-linecap="butt"/></g></g></svg>