<svg version="1.1" xmlns="http://www.w3.org/2000/svg" xmlns:xlink="http://www.w3.org/1999/xlink" width="70.79786" height="103.27054" viewBox="0,0,70.79786,103.27054"><g transform="translate(-207.97816,-121.37743)"><g data-paper-data="{&quot;isPaintingLayer&quot;:true}" fill-rule="nonzero" stroke="#000000" stroke-width="2" stroke-linejoin="miter" stroke-miterlimit="10" stroke-dasharray="" stroke-dashoffset="0" style="mix-blend-mode: normal"><path d="M230.4475,203.47542c0,-2.11232 1.71238,-3.8247 3.8247,-3.8247c2.11232,0 3.8247,1.71238 3.8247,3.8247c0,2.11232 -1.71238,3.8247 -3.8247,3.8247c-2.11232,0 -3.8247,-1.71238 -3.8247,-3.8247z" fill="#1d28e8" stroke-linecap="butt"/><path d="M228.37363,159.4409c0.68068,-9.14664 8.6473,-16.00964 17.79393,-15.32896c9.14664,0.68068 16.00964,8.6473 15.32896,17.79393c-0.68068,9.14664 -8.6473,16.00964 -17.79393,15.32896c-9.14664,-0.68068 -16.00964,-8.6473 -15.32896,-17.79393z" fill="#1d28e8" stroke-linecap="butt"/><path d="M236.82467,205.91416l1.89728,-25.49459l7.82905,0.58263l-1.89728,25.49459z" fill="#1d28e8" stroke-linecap="butt"/><path d="M221.67772,198.14587c0,-2.11232 1.71238,-3.8247 3.8247,-3.8247c2.11232,0 3.8247,1.71238 3.8247,3.8247c0,2.11232 -1.71238,3.8247 -3.8247,3.8247c-2.11232,0 -3.8247,-1.71238 -3.8247,-3.8247z" fill="#1d28e8" stroke-linecap="butt"/><path d="M218.62172,162.336c0,0 2.48671,-1.7879 4.3834,-2.532c1.50258,-0.58948 6.09227,-1.57779 6.09227,-1.57779" fill="none" stroke-linecap="round"/><path d="M209.07544,165.95545c-0.54657,-2.78177 1.26541,-5.47993 4.04718,-6.0265c2.78177,-0.54657 5.47993,1.26541 6.0265,4.04718c0.54657,2.78177 -1.26541,5.47993 -4.04718,6.0265c-2.78177,0.54657 -5.47993,-1.26541 -6.0265,-4.04718z" fill="#1d28e8" stroke-linecap="butt"/><path d="M233.26867,216.70213c-3.60642,3.38664 -6.44237,2.40256 -8.68744,0.01179c-2.24507,-2.39077 -1.14149,-7.07429 2.46494,-10.46093c3.60642,-3.38664 7.10982,-5.51463 9.35488,-3.12385c0.86708,0.92335 2.8219,7.98158 -3.1324,13.573z" data-paper-data="{&quot;index&quot;:null}" fill="#1d28e8" stroke-linecap="butt"/><path d="M228.23526,158.62329l-9.50302,-20.99331l38.28311,-14.81794l1.28964,28.47713l20.23552,-4.85637z" fill="#2530ff" stroke-linecap="round"/><path d="M247.86032,211.78155c4.94724,0.01946 6.33044,2.68362 6.31754,5.96325c-0.0129,3.27964 -4.03389,5.92253 -8.98114,5.90307c-4.94724,-0.01946 -8.95445,-0.88223 -8.94155,-4.16185c0.00498,-1.26665 3.43713,-7.73658 11.60515,-7.70446z" data-paper-data="{&quot;index&quot;:null}" fill="#1d28e8" stroke-linecap="butt"/></g></g></svg>