<svg version="1.1" xmlns="http://www.w3.org/2000/svg" xmlns:xlink="http://www.w3.org/1999/xlink" width="94.96174" height="81.40116" viewBox="0,0,94.96174,81.40116"><g transform="translate(-190.15884,-120.23866)"><g data-paper-data="{&quot;isPaintingLayer&quot;:true}" fill-rule="nonzero" stroke="#000000" stroke-width="2" stroke-linejoin="miter" stroke-miterlimit="10" stroke-dasharray="" stroke-dashoffset="0" style="mix-blend-mode: normal"><path d="M266.44891,139.05957c9.02728,1.62253 15.02998,10.25593 13.40744,19.28319c-1.62253,9.02728 -10.25592,15.02999 -19.28319,13.40744c-9.02728,-1.62253 -15.02998,-10.25593 -13.40744,-19.28319c1.62253,-9.02728 10.25592,-15.02999 19.28318,-13.40745z" fill="#2d6a2b" stroke-linecap="butt"/><path d="M282.96012,151.10287c2.84112,15.59072 -7.45659,24.14898 -7.45659,24.14898l-9.3052,-39.91878c0,0 13.70712,-0.99276 16.76179,15.7698z" fill="#367e33" stroke-linecap="round"/><path d="M215.81398,170.58534l20.08586,-15.81555l4.85676,6.1681l-20.08586,15.81555z" fill="#2d6a2b" stroke-linecap="butt"/><path d="M236.37538,158.03025c2.09192,0.29293 3.55028,2.22623 3.25734,4.31815c-0.29293,2.09192 -2.22623,3.55028 -4.31814,3.25735c-2.09192,-0.29293 -3.55028,-2.22623 -3.25734,-4.31815c0.29293,-2.09192 2.22623,-3.55028 4.31814,-3.25735z" fill="#2d6a2b" stroke-linecap="butt"/><path d="M240.50758,184.12667c1.27208,1.68634 0.93624,4.08461 -0.75009,5.35668c-1.68633,1.27206 -4.08461,0.93624 -5.35668,-0.75009c-1.27208,-1.68634 -0.93624,-4.08461 0.75011,-5.35668c1.68633,-1.27206 4.08461,-0.93624 5.35667,0.75009z" fill="#2d6a2b" stroke-linecap="butt"/><path d="M279.79818,131.44759c0,0 0.76218,2.96638 0.76628,5.00381c0.00325,1.61407 -0.74361,6.24918 -0.74361,6.24918" fill="none" stroke-linecap="round"/><path d="M279.89462,121.23866c2.79025,0.50152 4.64563,3.17001 4.14413,5.96026c-0.50152,2.79025 -3.17001,4.64564 -5.96026,4.14413c-2.79025,-0.50152 -4.64564,-3.17001 -4.14413,-5.96026c0.50152,-2.79025 3.17001,-4.64564 5.96026,-4.14413z" fill="#2d6a2b" stroke-linecap="butt"/><path d="M199.24157,187.92947c-4.59928,1.82267 -6.87444,-0.13555 -8.08273,-3.18453c-1.2083,-3.04897 1.54067,-6.9982 6.13996,-8.82087c4.59928,-1.82267 8.63979,-2.51282 9.84808,0.53615c0.46666,1.17757 -0.31178,8.45998 -7.90533,11.46926z" data-paper-data="{&quot;index&quot;:null}" fill="#2d6a2b" stroke-linecap="butt"/><path d="M216.61946,197.59544c-2.92664,3.98878 -5.89466,3.53967 -8.5389,1.59953c-2.64426,-1.94012 -2.41534,-6.74646 0.5113,-10.73525c2.92664,-3.98878 5.98203,-6.72128 8.62628,-4.78116c1.02125,0.7493 4.23328,7.3313 -0.59866,13.91688z" data-paper-data="{&quot;index&quot;:null}" fill="#2d6a2b" stroke-linecap="butt"/></g></g></svg>