<svg version="1.1" xmlns="http://www.w3.org/2000/svg" xmlns:xlink="http://www.w3.org/1999/xlink" width="84.53869" height="113.84198" viewBox="0,0,84.53869,113.84198"><g transform="translate(-215.1467,-113.24754)"><g data-paper-data="{&quot;isPaintingLayer&quot;:true}" fill-rule="nonzero" stroke="#000000" stroke-width="2" stroke-linejoin="miter" stroke-miterlimit="10" stroke-dasharray="" stroke-dashoffset="0" style="mix-blend-mode: normal"><path d="M291.09388,204.6738c-0.25942,-2.09633 1.2297,-4.00605 3.32603,-4.26547c2.09633,-0.25942 4.00605,1.2297 4.26547,3.32603c0.25942,2.09633 -1.2297,4.00605 -3.32603,4.26547c-2.09633,0.25942 -4.00605,-1.2297 -4.26547,-3.32603z" fill="#ff6b00" stroke-linecap="butt"/><path d="M249.09656,164.93742c1.33503,-9.07425 9.77341,-15.34812 18.84765,-14.01309c9.07425,1.33503 15.34812,9.77342 14.01309,18.84766c-1.33503,9.07425 -9.77341,15.34812 -18.84765,14.01309c-9.07425,-1.33503 -15.34812,-9.77342 -14.01309,-18.84766z" fill="#ff6b00" stroke-linecap="butt"/><path d="M235.0039,205.26015l8.76537,-24.01544l7.37483,2.69172l-8.76538,24.01544z" data-paper-data="{&quot;index&quot;:null}" fill="#ff6b00" stroke-linecap="butt"/><path d="M285.97151,208.71243c-0.25942,-2.09633 1.2297,-4.00605 3.32603,-4.26547c2.09633,-0.25942 4.00605,1.2297 4.26547,3.32603c0.25942,2.09633 -1.2297,4.00605 -3.32603,4.26547c-2.09633,0.25942 -4.00605,-1.2297 -4.26547,-3.32603z" fill="#ff6b00" stroke-linecap="butt"/><path d="M223.5948,215.01802c4.11347,0 7.4481,2.47844 7.4481,5.53575c0,3.05731 -3.33463,5.53575 -7.4481,5.53575c-4.11347,0 -7.4481,-2.47844 -7.4481,-5.53575c0,-3.05731 3.33463,-5.53575 7.4481,-5.53575z" data-paper-data="{&quot;index&quot;:null}" fill="#ff6b00" stroke-linecap="butt"/><path d="M239.58509,157.42197c0,0 2.9089,-0.95849 4.94149,-1.09858c1.61027,-0.11098 6.28488,0.32482 6.28488,0.32482" fill="none" stroke-linecap="round"/><path d="M229.39247,158.00716c0.31415,-2.8175 2.85285,-4.84688 5.67036,-4.53273c2.8175,0.31415 4.84687,2.85285 4.53272,5.67035c-0.31415,2.8175 -2.85284,4.84688 -5.67035,4.53273c-2.8175,-0.31415 -4.84687,-2.85284 -4.53272,-5.67034z" fill="#ff6b00" stroke-linecap="butt"/><path d="M261.79495,213.74182c4.89738,-0.7009 6.65366,1.73353 7.1183,4.98011c0.46464,3.24658 -3.1288,6.44664 -8.02619,7.14755c-4.89738,0.7009 -8.98749,0.43065 -9.45213,-2.81593c-0.17945,-1.25388 2.27433,-8.15451 10.36002,-9.31172z" data-paper-data="{&quot;index&quot;:null}" fill="#ff6b00" stroke-linecap="butt"/><path d="M244.09589,167.59353l5.95652,-11.43832l-23.23183,-25.04407l44.45845,-16.41616l-0.76149,33.62025l11.97634,4.70693z" data-paper-data="{&quot;index&quot;:null}" fill="#ffa340" stroke-linecap="butt"/></g></g></svg>