<svg version="1.1" xmlns="http://www.w3.org/2000/svg" xmlns:xlink="http://www.w3.org/1999/xlink" width="68.45294" height="60.91124" viewBox="0,0,68.45294,60.91124"><g transform="translate(-205.73817,-165.15731)"><g data-paper-data="{&quot;isPaintingLayer&quot;:true}" fill-rule="nonzero" stroke="#000000" stroke-width="2" stroke-linejoin="miter" stroke-miterlimit="10" stroke-dasharray="" stroke-dashoffset="0" style="mix-blend-mode: normal"><path d="M228.45157,217.04825l9.8679,-23.58385l7.24229,3.0303l-9.8679,23.58386z" fill="#ffe819" stroke-linecap="butt"/><path d="M265.54171,190.15858c0,-2.11232 1.71238,-3.8247 3.8247,-3.8247c2.11232,0 3.8247,1.71238 3.8247,3.8247c0,2.11232 -1.71238,3.8247 -3.8247,3.8247c-2.11232,0 -3.8247,-1.71238 -3.8247,-3.8247z" fill="#ffe819" stroke-linecap="butt"/><path d="M234.82036,185.54749c3.08762,-8.6366 12.59198,-13.13494 21.22857,-10.04732c8.6366,3.08762 13.13494,12.59198 10.04732,21.22857c-3.08762,8.6366 -12.59198,13.13494 -21.22857,10.04732c-8.6366,-3.08762 -13.13494,-12.59198 -10.04732,-21.22857z" fill="#ffe819" stroke-linecap="butt"/><path d="M229.50449,220.64928c0,-2.11232 1.71238,-3.8247 3.8247,-3.8247c2.11232,0 3.8247,1.71238 3.8247,3.8247c0,2.11232 -1.71238,3.8247 -3.8247,3.8247c-2.11232,0 -3.8247,-1.71238 -3.8247,-3.8247z" fill="#ffe819" stroke-linecap="butt"/><path d="M222.64546,175.67075c0,0 2.73042,-1.3875 4.71844,-1.83346c1.57493,-0.35329 6.26169,-0.62965 6.26169,-0.62965" fill="none" stroke-linecap="round"/><path d="M212.65866,177.79108c-0.11568,-2.8326 2.08681,-5.22265 4.91941,-5.33834c2.8326,-0.11568 5.22265,2.08681 5.33834,4.91941c0.11568,2.8326 -2.08681,5.22265 -4.91941,5.33834c-2.8326,0.11568 -5.22265,-2.08681 -5.33834,-4.91941z" fill="#ffe819" stroke-linecap="butt"/><path d="M256.5042,213.19185c4.94728,0 6.34095,2.65869 6.34095,5.93835c0,3.27966 -4.01056,5.93835 -8.95785,5.93835c-4.94728,0 -8.95785,-0.84699 -8.95785,-4.12665c0,-1.26666 3.40667,-7.75005 11.57475,-7.75005z" data-paper-data="{&quot;index&quot;:null}" fill="#ffe819" stroke-linecap="butt"/><path d="M230.57159,183.97854l8.084,-8.06817l-10.34233,-5.37673c0,0 16.7529,-6.5417 26.96324,-3.62911c10.21034,2.91259 14.31151,15.40311 14.31151,15.40311z" data-paper-data="{&quot;index&quot;:null}" fill="#fff067" stroke-linecap="butt"/><path d="M215.31488,223.31276c-4.1032,2.76394 -6.74444,1.33747 -8.57671,-1.38262c-1.83228,-2.7201 0.00866,-7.16579 4.11187,-9.92973c4.1032,-2.76394 7.90269,-4.30208 9.73497,-1.58198c0.70765,1.05055 1.50435,8.331 -5.27013,12.89434z" data-paper-data="{&quot;index&quot;:null}" fill="#ffe819" stroke-linecap="butt"/></g></g></svg>