<svg version="1.1" xmlns="http://www.w3.org/2000/svg" xmlns:xlink="http://www.w3.org/1999/xlink" width="106.14494" height="45.07338" viewBox="0,0,106.14494,45.07338"><g transform="translate(-200.32485,-186.54639)"><g data-paper-data="{&quot;isPaintingLayer&quot;:true}" fill-rule="nonzero" stroke="#000000" stroke-width="2" stroke-linejoin="miter" stroke-miterlimit="10" stroke-dasharray="" stroke-dashoffset="0" style="mix-blend-mode: normal"><path d="M257.18502,219.74259c2.03166,-0.57813 4.14734,0.60018 4.72547,2.63185c0.57813,2.03166 -0.60018,4.14734 -2.63185,4.72547c-2.03166,0.57813 -4.14734,-0.60018 -4.72547,-2.63185c-0.57813,-2.03166 0.60018,-4.14734 2.63185,-4.72547z" fill="#2d6a2b" stroke-linecap="butt"/><path d="M260.57263,195.07711c0,0 2.60698,-1.60747 4.55156,-2.21553c1.54053,-0.4817 6.18864,-1.14279 6.18864,-1.14279" fill="none" stroke-linecap="round"/><path d="M250.7942,198.01207c-0.34839,-2.81346 1.64996,-5.37666 4.46342,-5.72505c2.81346,-0.34839 5.37666,1.64996 5.72505,4.46342c0.34839,2.81346 -1.64996,5.37666 -4.46342,5.72505c-2.81346,0.34839 -5.37666,-1.64996 -5.72505,-4.46342z" fill="#2d6a2b" stroke-linecap="butt"/><path d="M218.2303,230.37682c-4.94129,-0.24361 -6.20235,-2.9677 -6.04085,-6.24338c0.16149,-3.27568 4.29812,-5.73366 9.23939,-5.49006c4.94129,0.24361 8.90528,1.28706 8.74378,4.56273c-0.06237,1.26512 -3.78416,7.5729 -11.94232,7.1707z" data-paper-data="{&quot;index&quot;:null}" fill="#2d6a2b" stroke-linecap="butt"/><path d="M267.65795,202.19876c2.89031,-8.70462 12.28984,-13.41805 20.99446,-10.52775c8.70462,2.89031 13.41805,12.28984 10.52775,20.99446c-2.89031,8.70462 -12.28984,13.41805 -20.99446,10.52775c-8.70462,-2.89031 -13.41805,-12.28984 -10.52775,-20.99446z" fill="#2d6a2b" stroke-linecap="butt"/><path d="M281.92774,187.56882c15.83632,-0.5942 22.84253,10.81629 22.84253,10.81629l-40.83656,3.53151c0,0 0.96738,-13.70893 17.99401,-14.3478z" fill="#367e33" stroke-linecap="round"/><path d="M233.96699,218.88805l25.34177,-3.37168l1.0354,7.78212l-25.34177,3.37168z" fill="#2d6a2b" stroke-linecap="butt"/><path d="M237.06855,220.89114c2.03166,-0.57813 4.14734,0.60018 4.72547,2.63185c0.57813,2.03166 -0.60018,4.14734 -2.63185,4.72547c-2.03166,0.57813 -4.14734,-0.60018 -4.72547,-2.63185c-0.57813,-2.03166 0.60018,-4.14734 2.63185,-4.72547z" fill="#2d6a2b" stroke-linecap="butt"/><path d="M209.05954,230.20301c-4.75476,1.3667 -6.82866,-0.80352 -7.73468,-3.95556c-0.90602,-3.15203 2.21401,-6.81519 6.96877,-8.18189c4.75476,-1.3667 8.84324,-1.66061 9.74925,1.49143c0.34992,1.21737 -1.13312,8.38956 -8.98334,10.64602z" data-paper-data="{&quot;index&quot;:null}" fill="#2d6a2b" stroke-linecap="butt"/></g></g></svg>