<svg version="1.1" xmlns="http://www.w3.org/2000/svg" xmlns:xlink="http://www.w3.org/1999/xlink" width="69.48984" height="100.60419" viewBox="0,0,69.48984,100.60419"><g transform="translate(-196.292,-136.42233)"><g data-paper-data="{&quot;isPaintingLayer&quot;:true}" fill-rule="nonzero" stroke="#000000" stroke-width="2" stroke-linejoin="miter" stroke-miterlimit="10" stroke-dasharray="" stroke-dashoffset="0" style="mix-blend-mode: normal"><path d="M217.26743,170.09821c-6.28737,-6.67783 -5.97081,-17.18819 0.707,-23.47554c6.67783,-6.28737 17.18819,-5.97081 23.47554,0.707c6.28737,6.67783 5.97081,17.18819 -0.707,23.47554c-6.67783,6.28737 -17.18818,5.97082 -23.47554,-0.707z" fill="#ffe819" stroke-linecap="butt"/><path d="M239.56886,204.72298l-1.67911,-25.50989l7.83375,-0.51563l1.67911,25.50989z" fill="#ffe819" stroke-linecap="butt"/><path d="M202.93405,176.44896c0,0 0.00614,-3.06273 0.51315,-5.03606c0.40167,-1.5633 2.28715,-5.86296 2.28715,-5.86296" fill="none" stroke-linecap="round"/><path d="M200.28026,186.30742c-2.57529,-1.18529 -3.70213,-4.23382 -2.51684,-6.8091c1.18529,-2.57529 4.23382,-3.70213 6.80911,-2.51684c2.57529,1.18529 3.70213,4.23382 2.51684,6.80911c-1.18529,2.57529 -4.23382,3.70213 -6.80911,2.51684z" fill="#ffe819" stroke-linecap="butt"/><path d="M251.83125,231.13269c-1.28867,4.77649 -4.21861,5.42952 -7.38505,4.57523c-3.16644,-0.85429 -4.68868,-5.41894 -3.4,-10.19544c1.28867,-4.77649 3.1511,-8.42799 6.31754,-7.57371c1.22294,0.32995 6.59514,5.30781 4.4675,13.19392z" data-paper-data="{&quot;index&quot;:null}" fill="#ffe819" stroke-linecap="butt"/><path d="M213.93774,173.16853l-3.5087,-10.86901l-9.49227,6.76534c0,0 1.79348,-17.89518 9.03119,-25.66368c7.23772,-7.76851 20.22687,-5.74013 20.22687,-5.74013z" data-paper-data="{&quot;index&quot;:null}" fill="#fff067" stroke-linecap="butt"/><path d="M229.48832,230.7902c-3.22067,3.75538 -6.14611,3.08247 -8.63563,0.94742c-2.48952,-2.13505 -1.8968,-6.91019 1.32388,-10.66557c3.22067,-3.75538 6.47449,-6.24832 8.96401,-4.11327c0.96149,0.8246 3.66516,7.63121 -1.65226,13.83142z" data-paper-data="{&quot;index&quot;:null}" fill="#ffe819" stroke-linecap="butt"/><path d="M246.71918,205.44663c1.36203,-1.61456 3.77502,-1.81926 5.38958,-0.45725c1.61456,1.36203 1.81926,3.77502 0.45725,5.38958c-1.36203,1.61456 -3.77502,1.81926 -5.38958,0.45725c-1.61456,-1.36203 -1.81926,-3.77502 -0.45725,-5.38958z" fill="#ffe819" stroke-linecap="butt"/><path d="M259.17065,201.75151c1.36203,-1.61456 3.77502,-1.81926 5.38958,-0.45725c1.61456,1.36203 1.81926,3.77502 0.45725,5.38958c-1.36203,1.61456 -3.77502,1.81926 -5.38958,0.45725c-1.61456,-1.36203 -1.81926,-3.77502 -0.45725,-5.38958z" fill="#ffe819" stroke-linecap="butt"/></g></g></svg>