<svg version="1.1" xmlns="http://www.w3.org/2000/svg" xmlns:xlink="http://www.w3.org/1999/xlink" width="160.43666" height="57.60245" viewBox="0,0,160.43666,57.60245"><defs><linearGradient x1="161.10597" y1="200.17153" x2="200.95115" y2="148.35184" gradientUnits="userSpaceOnUse" id="color-1"><stop offset="0" stop-color="#ff8200"/><stop offset="1" stop-color="#e80000"/></linearGradient><linearGradient x1="161.10598" y1="200.17153" x2="200.95116" y2="148.35184" gradientUnits="userSpaceOnUse" id="color-2"><stop offset="0" stop-color="#e80000" stop-opacity="0"/><stop offset="1" stop-color="#e80000"/></linearGradient></defs><g transform="translate(-137.98057,-162.18316)"><g data-paper-data="{&quot;isPaintingLayer&quot;:true}" fill-rule="nonzero" stroke="#000000" stroke-linejoin="miter" stroke-miterlimit="10" stroke-dasharray="" stroke-dashoffset="0" style="mix-blend-mode: normal"><path d="M195.55168,219.78511c-15.13489,0.12858 -57.57111,-24.5132 -57.57111,-24.5132c0,0 33.15164,-10.26005 58.24367,-10.47321c25.09203,-0.21316 29.91342,-2.26988 31.94531,9.70704c2.7378,16.13783 -17.48297,25.1508 -32.61786,25.27937z" data-paper-data="{&quot;index&quot;:null}" fill="url(#color-1)" stroke-width="0" stroke-linecap="butt"/><path d="M207.62182,197.77744c0,-2.11232 1.71238,-3.8247 3.8247,-3.8247c2.11232,0 3.8247,1.71238 3.8247,3.8247c0,2.11232 -1.71238,3.8247 -3.8247,3.8247c-2.11232,0 -3.8247,-1.71238 -3.8247,-3.8247z" fill="#e80000" stroke-width="2" stroke-linecap="butt"/><path d="M252.14062,175.92614c0,0 2.95648,-0.7997 4.99369,-0.82962c1.6139,-0.0237 6.25811,0.6644 6.25811,0.6644" data-paper-data="{&quot;index&quot;:null}" fill="none" stroke-width="2" stroke-linecap="round"/><path d="M241.93127,175.95903c0.46614,-2.79638 3.11091,-4.68543 5.90729,-4.21929c2.79638,0.46614 4.68543,3.11091 4.21929,5.90729c-0.46614,2.79638 -3.11091,4.68543 -5.90729,4.21929c-2.79638,-0.46614 -4.68543,-3.11091 -4.21929,-5.90729z" data-paper-data="{&quot;index&quot;:null}" fill="#e80000" stroke-width="2" stroke-linecap="butt"/><path d="M264.20275,179.7904c0,-9.17193 7.43532,-16.60724 16.60724,-16.60724c9.17193,0 16.60724,7.43532 16.60724,16.60724c0,9.17193 -7.43532,16.60724 -16.60724,16.60724c-9.17193,0 -16.60724,-7.43532 -16.60724,-16.60724z" fill="#e80000" stroke-width="2" stroke-linecap="butt"/><path d="M236.30245,205.58168l19.83772,-16.12572l4.95199,6.0919l-19.83772,16.12572z" fill="#e80000" stroke-width="2" stroke-linecap="butt"/><path d="M200.17686,218.30611c-4.94225,0.22292 -6.45431,-2.37027 -6.6021,-5.64659c-0.14778,-3.27633 3.73891,-6.11303 8.68117,-6.33595c4.94225,-0.22292 8.98692,0.44249 9.13471,3.71883c0.05708,1.26537 -3.05401,7.89567 -11.21378,8.26375z" data-paper-data="{&quot;index&quot;:null}" fill="#e80000" stroke-width="2" stroke-linecap="butt"/><path d="M261.54852,178.31338l-1.46381,-5.42329l33.9245,-8.32434l1.46381,5.42328z" fill="#ff2121" stroke-width="2" stroke-linecap="butt"/><path d="M237.57318,214.90207c-4.89711,-0.70273 -5.89901,-3.53242 -5.43317,-6.77881c0.46585,-3.24641 4.81339,-5.30847 9.71052,-4.60573c4.89711,0.70273 8.74672,2.11079 8.28087,5.35722c-0.17993,1.25381 -4.47297,7.18757 -12.55823,6.02736z" data-paper-data="{&quot;index&quot;:null}" fill="#e80000" stroke-width="2" stroke-linecap="butt"/><path d="M204.12079,201.22921c0,-2.11232 1.71238,-3.8247 3.8247,-3.8247c2.11232,0 3.8247,1.71238 3.8247,3.8247c0,2.11232 -1.71238,3.8247 -3.8247,3.8247c-2.11232,0 -3.8247,-1.71238 -3.8247,-3.8247z" fill="#e80000" stroke-width="2" stroke-linecap="butt"/><path d="M195.55168,219.78511c-15.13489,0.12858 -57.57111,-24.5132 -57.57111,-24.5132c0,0 33.15164,-10.26005 58.24367,-10.47321c25.09203,-0.21316 29.91342,-2.26988 31.94531,9.70704c2.7378,16.13783 -17.48297,25.1508 -32.61787,25.27937z" data-paper-data="{&quot;index&quot;:null}" fill="url(#color-2)" stroke-width="0" stroke-linecap="butt"/></g></g></svg>