<svg version="1.1" xmlns="http://www.w3.org/2000/svg" xmlns:xlink="http://www.w3.org/1999/xlink" width="101.23416" height="115.25668" viewBox="0,0,101.23416,115.25668"><g transform="translate(-184.67739,-106.8943)"><g data-paper-data="{&quot;isPaintingLayer&quot;:true}" fill-rule="nonzero" stroke="#000000" stroke-width="2" stroke-linejoin="miter" stroke-miterlimit="10" stroke-dasharray="" stroke-dashoffset="0" style="mix-blend-mode: normal"><g><path d="M212.52982,153.72699c0,0 -7.37063,-1.06984 -5.934,-1.8056c1.81344,-0.92872 7.65878,-4.46754 7.65878,-4.46754" data-paper-data="{&quot;index&quot;:null}" fill="none" stroke-linecap="round"/><path d="M222.33054,149.89214c-2.25142,1.72283 -5.47316,1.2943 -7.19599,-0.95711c-1.72283,-2.25142 -1.29431,-5.47317 0.95711,-7.196c2.25143,-1.72282 5.47317,-1.2943 7.196,0.95712c1.72283,2.25142 1.2943,5.47316 -0.95711,7.19599z" data-paper-data="{&quot;index&quot;:null}" fill="#ff6b00" stroke-linecap="butt"/></g><path d="M256.27605,202.21812c4.91425,0.57074 5.99188,3.37248 5.61353,6.63024c-0.37836,3.25776 -4.66887,5.43602 -9.58313,4.86528c-4.91425,-0.57074 -8.80033,-1.87475 -8.42197,-5.13252c0.14614,-1.2582 4.27801,-7.30529 12.39156,-6.36298z" data-paper-data="{&quot;index&quot;:null}" fill="#ff6b00" stroke-linecap="butt"/><path d="M241.61807,180.55303c0,-2.11232 1.71238,-3.8247 3.8247,-3.8247c2.11232,0 3.8247,1.71238 3.8247,3.8247c0,2.11232 -1.71238,3.8247 -3.8247,3.8247c-2.11232,0 -3.8247,-1.71238 -3.8247,-3.8247z" fill="#ff6b00" stroke-linecap="butt"/><path d="M213.43461,161.41283c0,-9.17193 7.43532,-16.60724 16.60724,-16.60724c9.17193,0 16.60724,7.43532 16.60724,16.60724c0,9.17193 -7.43532,16.60724 -16.60724,16.60724c-9.17193,0 -16.60724,-7.43532 -16.60724,-16.60724z" fill="#ff6b00" stroke-linecap="butt"/><path d="M233.5092,205.28746l-10.75465,-23.19292l7.12225,-3.30261l10.75464,23.19292z" fill="#ff6b00" stroke-linecap="butt"/><path d="M234.99802,188.69145c0,-2.11232 1.71238,-3.8247 3.8247,-3.8247c2.11232,0 3.8247,1.71238 3.8247,3.8247c0,2.11232 -1.71238,3.8247 -3.8247,3.8247c-2.11232,0 -3.8247,-1.71238 -3.8247,-3.8247z" fill="#ff6b00" stroke-linecap="butt"/><path d="M276.53465,207.16272c4.37801,-2.30401 6.84952,-0.60032 8.37691,2.30198c1.52739,2.90229 -0.78351,7.12281 -5.16154,9.42688c-4.37801,2.30401 -8.32156,3.42229 -9.84895,0.52c-0.5899,-1.1209 -0.59463,-8.44481 6.63357,-12.24883z" data-paper-data="{&quot;index&quot;:null}" fill="#ff6b00" stroke-linecap="butt"/><path d="M208.87381,164.76854l4.22817,-12.18351l-26.62972,-21.39582l41.5955,-22.71252l4.14025,33.37304l12.53391,2.91357z" data-paper-data="{&quot;index&quot;:null}" fill="#ffa340" stroke-linecap="butt"/></g></g></svg>