<svg version="1.1" xmlns="http://www.w3.org/2000/svg" xmlns:xlink="http://www.w3.org/1999/xlink" width="122.79876" height="63.58582" viewBox="0,0,122.79876,63.58582"><defs><linearGradient x1="293.54967" y1="177.75832" x2="296.35938" y2="207.79026" gradientUnits="userSpaceOnUse" id="color-1"><stop offset="0" stop-color="#e80000" stop-opacity="0"/><stop offset="1" stop-color="#e80000"/></linearGradient></defs><g transform="translate(-197.73657,-164.16315)"><g data-paper-data="{&quot;isPaintingLayer&quot;:true}" fill-rule="nonzero" stroke="#000000" stroke-linejoin="miter" stroke-miterlimit="10" stroke-dasharray="" stroke-dashoffset="0" style="mix-blend-mode: normal"><path d="M314.41442,205.69571c-8.35721,2.22009 -10.29823,-4.77189 -20.3603,-12.39782c-11.23009,-8.51117 -26.65599,-4.80262 -26.65599,-4.80262c0,0 12.64982,-14.43957 27.12912,-9.96495c9.71977,3.00374 18.05694,6.81485 22.50182,12.88645c4.44488,6.0716 5.74253,12.05885 -2.61465,14.27893z" data-paper-data="{&quot;index&quot;:null}" fill="url(#color-1)" stroke-width="0" stroke-linecap="butt"/><path d="M310.15904,202.5432c-1.03335,-0.31864 -20.23454,-10.73324 -40.48469,-16.50193c-19.30605,-5.49974 -39.73692,-6.34822 -39.43314,-7.33341c0.29317,-0.95076 19.73933,-5.94585 38.69956,-1.94034c21.29357,4.49846 27.68718,8.79553 43.47226,18.46588c2.87845,1.76341 3.15033,2.76333 2.5279,4.78189c-0.62242,2.01853 -2.76333,3.15033 -4.78189,2.5279z" data-paper-data="{&quot;index&quot;:null}" fill="#e80000" stroke-width="2" stroke-linecap="butt"/><path d="M208.10571,198.9323c6.67219,4.71163 5.71512,11.97274 4.98446,13.00743c-1.89183,2.67903 -5.65647,1.05746 -9.69772,-1.7963c-4.04126,-2.85377 -5.78369,-7.33898 -3.89186,-10.018c1.89181,-2.67903 4.56387,-4.0469 8.60512,-1.19314z" data-paper-data="{&quot;index&quot;:null}" fill="#e80000" stroke-width="2" stroke-linecap="butt"/><path d="M279.57598,170.21041c0,0 2.30951,2.01158 3.46791,3.68765c0.9177,1.32781 2.93007,5.56956 2.93007,5.56956" data-paper-data="{&quot;index&quot;:null}" fill="none" stroke-width="2" stroke-linecap="round"/><path d="M282.33619,168.09688c2.58289,-1.16864 5.6241,-0.02219 6.79274,2.56069c1.16864,2.58289 0.02219,5.6241 -2.56069,6.79274c-2.58289,1.16864 -5.6241,0.02219 -6.79274,-2.56069c-1.16864,-2.58289 -0.02219,-5.6241 2.56069,-6.79274z" data-paper-data="{&quot;index&quot;:null}" fill="#e80000" stroke-width="2" stroke-linecap="butt"/><path d="M256.96222,174.18368c4.19196,-8.15793 14.20352,-11.37297 22.36144,-7.18102c8.15793,4.19196 11.37297,14.20352 7.18102,22.36144c-4.19196,8.15793 -14.20352,11.37297 -22.36144,7.18102c-8.15793,-4.19196 -11.37297,-14.20352 -7.18102,-22.36144z" fill="#e80000" stroke-width="2" stroke-linecap="butt"/><path d="M234.2487,205.83747l21.23048,-14.24221l4.37359,6.5196l-21.23048,14.24221z" fill="#e80000" stroke-width="2" stroke-linecap="butt"/><path d="M256.68046,172.37829l1.23727,-5.46161l32.57458,7.37945l-1.23727,5.4616z" fill="#ff2121" stroke-width="2" stroke-linecap="butt"/><path d="M253.22163,219.38963c0.94587,4.85601 -1.39731,6.73229 -4.61649,7.35935c-3.21916,0.62703 -6.5956,-2.80123 -7.54147,-7.65725c-0.94587,-4.85601 -0.88129,-8.95455 2.33787,-9.58159c1.24329,-0.24218 8.25839,1.86209 9.82007,9.87949z" data-paper-data="{&quot;index&quot;:null}" fill="#e80000" stroke-width="2" stroke-linecap="butt"/><path d="M216.21445,195.26005c-1.67458,1.2875 -4.07583,0.97374 -5.36335,-0.70086c-1.2875,-1.67458 -0.97374,-4.07583 0.70086,-5.36335c1.67458,-1.2875 4.07583,-0.97374 5.36335,0.70086c1.2875,1.67458 0.97374,4.07583 -0.70086,5.36335z" data-paper-data="{&quot;index&quot;:null}" fill="#e80000" stroke-width="2" stroke-linecap="butt"/></g></g></svg>