<svg version="1.1" xmlns="http://www.w3.org/2000/svg" xmlns:xlink="http://www.w3.org/1999/xlink" width="98.41178" height="95.69316" viewBox="0,0,98.41178,95.69316"><g transform="translate(-213.84246,-145.31455)"><g data-paper-data="{&quot;isPaintingLayer&quot;:true}" fill-rule="nonzero" stroke="#000000" stroke-width="2" stroke-linejoin="miter" stroke-miterlimit="10" stroke-dasharray="" stroke-dashoffset="0" style="mix-blend-mode: normal"><path d="M287.86037,179.32426c-5.64564,-2.45743 -28.21745,-9.41615 -28.21745,-9.41615c0,0 23.36667,0.12542 36.51787,4.75032c13.1512,4.6249 15.09347,12.49235 15.09347,13.3999c0,2.11232 -0.72156,3.8247 -3.4591,3.8247c-2.73752,0 -4.31199,-2.36537 -6.45438,-3.8247c-2.1424,-1.45933 -7.83476,-6.27664 -13.4804,-8.73407z" fill="#e80000" stroke-linecap="butt"/><path d="M224.8044,155.24103c0,0 2.70101,-1.4439 4.67934,-1.93106c1.56725,-0.38592 6.24727,-0.75956 6.24727,-0.75956" fill="none" stroke-linecap="round"/><path d="M214.86377,157.56832c-0.17449,-2.82959 1.97789,-5.26487 4.80748,-5.43936c2.82959,-0.17449 5.26487,1.9779 5.43935,4.80749c0.17449,2.82959 -1.97789,5.26487 -4.80748,5.43936c-2.82959,0.17449 -5.26487,-1.97789 -5.43935,-4.80748z" fill="#e80000" stroke-linecap="butt"/><path d="M233.41042,157.68285c2.89587,-8.70277 12.29843,-13.41018 21.00119,-10.51431c8.70277,2.89587 13.41018,12.29843 10.51431,21.00119c-2.89587,8.70277 -12.29843,13.41018 -21.00119,10.51431c-8.70277,-2.89587 -13.41018,-12.29843 -10.51431,-21.00119z" fill="#e80000" stroke-linecap="butt"/><path d="M235.33028,208.84909l1.39753,-25.52686l7.83896,0.42915l-1.39753,25.52686z" data-paper-data="{&quot;index&quot;:null}" fill="#e80000" stroke-linecap="butt"/><path d="M214.84246,190.22397c0,-2.11232 1.71238,-3.8247 3.8247,-3.8247c2.11232,0 3.8247,1.71238 3.8247,3.8247c0,2.11232 -1.71238,3.8247 -3.8247,3.8247c-2.11232,0 -3.8247,-1.71238 -3.8247,-3.8247z" fill="#e80000" stroke-linecap="butt"/><path d="M267.32354,209.64292c3.47623,3.52014 2.56376,6.37992 0.23018,8.6844c-2.33358,2.30446 -7.04336,1.31897 -10.51959,-2.20117c-3.47623,-3.52014 -5.69162,-6.96893 -3.35803,-9.27339c0.90127,-0.89003 7.90811,-3.02166 13.64746,2.79018z" data-paper-data="{&quot;index&quot;:null}" fill="#e80000" stroke-linecap="butt"/><path d="M232.85605,155.94174l0.388,-5.58655l33.31973,2.31415l-0.388,5.58653z" fill="#ff2121" stroke-linecap="butt"/><path d="M237.10616,235.42646c-1.575,4.68988 -4.53905,5.16462 -7.64806,4.12052c-3.10902,-1.0441 -4.3526,-5.6924 -2.77759,-10.3823c1.575,-4.68988 3.65471,-8.22213 6.76374,-7.17804c1.20075,0.40325 6.26228,5.6967 3.66192,13.4398z" data-paper-data="{&quot;index&quot;:null}" fill="#e80000" stroke-linecap="butt"/></g></g></svg>