<svg version="1.1" xmlns="http://www.w3.org/2000/svg" xmlns:xlink="http://www.w3.org/1999/xlink" width="66.06843" height="92.08616" viewBox="0,0,66.06843,92.08616"><g transform="translate(-209.65,-133.98239)"><g data-paper-data="{&quot;isPaintingLayer&quot;:true}" fill-rule="nonzero" stroke="#000000" stroke-width="2" stroke-linejoin="miter" stroke-miterlimit="10" stroke-dasharray="" stroke-dashoffset="0" style="mix-blend-mode: normal"><path d="M214.4747,161.33624c-2.11232,0 -3.8247,-1.71238 -3.8247,-3.8247c0,-2.11232 1.71238,-3.8247 3.8247,-3.8247c2.11232,0 3.8247,1.71238 3.8247,3.8247c0,2.11232 -1.71238,3.8247 -3.8247,3.8247z" data-paper-data="{&quot;index&quot;:null}" fill="#ffe819" stroke-linecap="butt"/><path d="M234.25639,176.06415c-9.17192,0 -16.60724,-7.43531 -16.60724,-16.60724c0,-9.17192 7.43531,-16.60724 16.60724,-16.60724c9.17192,0 16.60724,7.43531 16.60724,16.60724c0,9.17192 -7.43531,16.60724 -16.60724,16.60724z" data-paper-data="{&quot;index&quot;:null}" fill="#ffe819" stroke-linecap="butt"/><path d="M231.69994,205.3345l-1.11988,-25.54055l7.84316,-0.3439l1.11988,25.54055z" data-paper-data="{&quot;index&quot;:null}" fill="#ffe819" stroke-linecap="butt"/><path d="M218.57608,154.85692c-2.11232,0 -3.8247,-1.71238 -3.8247,-3.8247c0,-2.11232 1.71238,-3.8247 3.8247,-3.8247c2.11232,0 3.8247,1.71238 3.8247,3.8247c0,2.11232 -1.71238,3.8247 -3.8247,3.8247z" data-paper-data="{&quot;index&quot;:null}" fill="#ffe819" stroke-linecap="butt"/><path d="M256.14272,148.2395c0,0 4.32018,1.83797 5.68426,2.70082c1.72186,1.08917 3.82583,3.31485 3.82583,3.31485" data-paper-data="{&quot;index&quot;:null}" fill="none" stroke-linecap="round"/><path d="M267.66012,162.44887c-2.62833,-1.06249 -3.89769,-4.05449 -2.8352,-6.68282c1.06249,-2.62833 4.05449,-3.89769 6.68282,-2.8352c2.62833,1.06249 3.89769,4.05449 2.8352,6.68282c-1.06249,2.62833 -4.05449,3.89769 -6.68282,2.8352z" data-paper-data="{&quot;index&quot;:null}" fill="#ffe819" stroke-linecap="butt"/><path d="M232.89049,220.9419c0,3.27966 -4.01057,4.12665 -8.95785,4.12665c-4.94729,0 -8.95785,-2.65869 -8.95785,-5.93835c0,-3.27966 1.39367,-5.93835 6.34095,-5.93835c8.16808,0 11.57475,6.48339 11.57475,7.75005z" data-paper-data="{&quot;index&quot;:null}" fill="#ffe819" stroke-linecap="butt"/><path d="M219.21587,144.70205c0,0 8.06659,-10.38089 18.66148,-9.6863c10.59489,0.69459 24.16781,12.49414 24.16781,12.49414l-11.5487,1.5813l4.89612,10.31864z" data-paper-data="{&quot;index&quot;:null}" fill="#fff067" stroke-linecap="butt"/><path d="M255.53466,218.61883c0.61054,3.22233 -3.17225,4.80111 -8.03305,5.72209c-4.86081,0.92097 -9.2962,-0.94465 -9.90673,-4.16698c-0.61053,-3.22233 0.26384,-6.09399 5.12464,-7.01496c8.0253,-1.52055 12.57935,4.21533 12.81515,5.45985z" data-paper-data="{&quot;index&quot;:null}" fill="#ffe819" stroke-linecap="butt"/></g></g></svg>