<svg version="1.1" xmlns="http://www.w3.org/2000/svg" xmlns:xlink="http://www.w3.org/1999/xlink" width="100.69743" height="77.83115" viewBox="0,0,100.69743,77.83115"><g transform="translate(-194.75879,-148.04496)"><g data-paper-data="{&quot;isPaintingLayer&quot;:true}" fill-rule="nonzero" stroke="#000000" stroke-width="2" stroke-linejoin="miter" stroke-miterlimit="10" stroke-dasharray="" stroke-dashoffset="0" style="mix-blend-mode: normal"><path d="M264.48026,191.96875c0,-2.11232 1.71238,-3.8247 3.8247,-3.8247c2.11232,0 3.8247,1.71238 3.8247,3.8247c0,2.11232 -1.71238,3.8247 -3.8247,3.8247c-2.11232,0 -3.8247,-1.71238 -3.8247,-3.8247z" fill="#181818" stroke-linecap="butt"/><path d="M242.70463,154.27129c0,0 3.05269,-0.2479 5.06128,0.09369c1.59123,0.27062 6.03245,1.79298 6.03245,1.79298" fill="#181818" stroke-linecap="round"/><path d="M232.28642,152.42752c0.9676,-2.66472 3.91217,-4.04053 6.5769,-3.07292c2.66472,0.9676 4.04053,3.91217 3.07292,6.5769c-0.9676,2.66472 -3.91217,4.04053 -6.5769,3.07292c-2.66472,-0.9676 -4.04053,-3.91217 -3.07292,-6.5769z" fill="#181818" stroke-linecap="butt"/><path d="M252.18418,170.19802c0,-9.17193 7.43532,-16.60724 16.60724,-16.60724c9.17193,0 16.60724,7.43532 16.60724,16.60724c0,9.17193 -7.43532,16.60724 -16.60724,16.60724c-9.17193,0 -16.60724,-7.43532 -16.60724,-16.60724z" fill="#181818" stroke-linecap="butt"/><path d="M231.45249,200.1418l18.07725,-18.07725l5.55128,5.55128l-18.07725,18.07725z" fill="#181818" stroke-linecap="butt"/><path d="M267.59181,212.96251c4.94676,-0.07214 6.37905,2.56594 6.42686,5.84525c0.04783,3.27931 -3.92354,5.9962 -8.8703,6.06835c-4.94676,0.07214 -8.96925,-0.71628 -9.01707,-3.99558c-0.01848,-1.26653 3.2933,-7.7989 11.4605,-7.91801z" data-paper-data="{&quot;index&quot;:null}" fill="#181818" stroke-linecap="butt"/><path d="M267.61514,173.83102v-5.24474h19.39678v5.24474z" fill="#ff0000" stroke-linecap="butt"/><path d="M249.17381,179.39496l9.98511,10.41216l-5.63835,0.34035l-0.07546,5.90325l-12.90703,-11.19883l6.67627,-0.58358z" fill="#0e0e0e" stroke-linecap="round"/><g><path d="M254.07168,161.91908v-12.06291h29.6328v12.06291z" fill="#343434" stroke-linecap="butt"/><path d="M243.31996,161.91908h51.13626" fill="none" stroke-linecap="round"/></g><path d="M233.99165,192.91599c0,-2.11232 1.71238,-3.8247 3.8247,-3.8247c2.11232,0 3.8247,1.71238 3.8247,3.8247c0,2.11232 -1.71238,3.8247 -3.8247,3.8247c-2.11232,0 -3.8247,-1.71238 -3.8247,-3.8247z" fill="#181818" stroke-linecap="butt"/><path d="M202.25883,209.75867c-4.94548,0.13324 -6.41026,-2.48696 -6.49858,-5.76543c-0.08831,-3.27847 3.84918,-6.04421 8.79468,-6.17743c4.94549,-0.13323 8.97742,0.60544 9.06573,3.88391c0.03412,1.2662 -3.19671,7.83898 -11.36183,8.05896z" data-paper-data="{&quot;index&quot;:null}" fill="#181818" stroke-linecap="butt"/></g></g></svg>