<svg version="1.1" xmlns="http://www.w3.org/2000/svg" xmlns:xlink="http://www.w3.org/1999/xlink" width="127.16858" height="130.44395" viewBox="0,0,127.16858,130.44395"><defs><radialGradient cx="240.00001" cy="180.00001" r="63.58429" gradientUnits="userSpaceOnUse" id="color-1"><stop offset="0" stop-color="#ff0000"/><stop offset="1" stop-color="#ff0000" stop-opacity="0"/></radialGradient><radialGradient cx="237.3194" cy="153.80731" r="35.95262" gradientUnits="userSpaceOnUse" id="color-2"><stop offset="0" stop-color="#ff0000"/><stop offset="1" stop-color="#ff0000" stop-opacity="0"/></radialGradient></defs><g transform="translate(-176.41571,-116.41571)"><g data-paper-data="{&quot;isPaintingLayer&quot;:true}" fill-rule="nonzero" stroke="#000000" stroke-linejoin="miter" stroke-miterlimit="10" stroke-dasharray="" stroke-dashoffset="0" style="mix-blend-mode: normal"><path d="M176.41572,180.00001c0,-35.11664 28.46765,-63.58429 63.58429,-63.58429c35.11664,0 63.58429,28.46765 63.58429,63.58429c0,35.11664 -28.46765,63.58429 -63.58429,63.58429c-35.11664,0 -63.58429,-28.46765 -63.58429,-63.58429z" fill="url(#color-1)" stroke-width="0" stroke-linecap="butt"/><path d="M205.24452,150.88129c0,0 1.45574,-2.69467 2.83674,-4.19263c1.09406,-1.18671 4.79078,-4.08088 4.79078,-4.08088" fill="#181818" stroke-width="2" stroke-linecap="round"/><path d="M198.02108,158.61179c-1.70696,-2.26346 -1.25587,-5.48214 1.0076,-7.1891c2.26346,-1.70696 5.48213,-1.25587 7.1891,1.0076c1.70696,2.26346 1.25587,5.48213 -1.0076,7.1891c-2.26346,1.70696 -5.48214,1.25587 -7.1891,-1.0076z" fill="#000000" stroke-width="2" stroke-linecap="butt"/><g stroke-linecap="butt"><g fill="#343434" stroke-width="2"><path d="M214.1148,148.72595l-5.75142,-10.60354c0,0 -0.25717,-6.26474 9.85352,-11.73121c10.18752,-5.50801 16.1943,-2.39727 16.1943,-2.39727l5.75142,10.60354c0,0 -9.77886,1.49924 -14.02856,3.8043c-4.42577,2.40056 -12.01926,10.32419 -12.01926,10.32419z"/></g><path d="M249.43995,133.16157c1.74853,3.28625 -6.0652,10.86196 -17.45243,16.92081c-11.38723,6.05885 -22.03588,8.30649 -23.78441,5.02024c-1.74853,-3.28625 6.0652,-10.86196 17.45243,-16.92081c11.38723,-6.05885 22.03588,-8.30649 23.78441,-5.02024z" fill="#343434" stroke-width="2"/><path d="M243.27138,137.6197c1.20871,2.2717 -4.19272,7.5086 -12.06443,11.69693c-7.87171,4.18833 -15.23286,5.74207 -16.44157,3.47037c-1.20871,-2.2717 4.19272,-7.5086 12.06443,-11.69693c7.87171,-4.18833 15.23286,-5.74207 16.44157,-3.47037z" fill="#111111" stroke-width="0.5"/></g><path d="M239.56266,205.41096l-3.98621,-25.25241l7.75468,-1.22411l3.98621,25.25241z" fill="#181818" stroke-width="2" stroke-linecap="butt"/><path d="M228.4895,227.97202c3.53926,-2.71571 8.10059,-1.21591 10.18801,3.34992c2.08742,4.56583 0.91048,10.46868 -2.62879,13.1844c-3.53926,2.71571 -8.10059,1.21591 -10.18801,-3.34992c-2.08742,-4.56583 -0.91048,-10.46868 2.62879,-13.1844z" data-paper-data="{&quot;index&quot;:null}" fill="#181818" stroke-width="2" stroke-linecap="butt"/><path d="M268.02112,237.60241c0.64953,4.90446 -1.80317,6.63512 -5.05444,7.0657c-3.25127,0.43058 -6.41349,-3.1962 -7.06303,-8.10066c-0.64953,-4.90446 -0.33642,-8.99152 2.91485,-9.4221c1.25569,-0.16631 8.13023,2.35967 9.20262,10.45704z" data-paper-data="{&quot;index&quot;:null}" fill="#181818" stroke-width="2" stroke-linecap="butt"/><path d="M233.20817,178.87613l14.29373,-1.95062l-3.04125,4.76l4.72965,3.53333l-16.6486,3.85089l3.45505,-5.74245z" fill="#0e0e0e" stroke-width="2" stroke-linecap="round"/><path d="M269.59397,196.25104c0,-2.11232 1.71238,-3.8247 3.8247,-3.8247c2.11232,0 3.8247,1.71238 3.8247,3.8247c0,2.11232 -1.71238,3.8247 -3.8247,3.8247c-2.11232,0 -3.8247,-1.71238 -3.8247,-3.8247z" fill="#181818" stroke-width="2" stroke-linecap="butt"/><path d="M220.09324,161.58448c-2.52789,-8.81669 2.57019,-18.01329 11.38687,-20.54118c8.81669,-2.52789 18.01329,2.57019 20.54118,11.38687c2.52789,8.81669 -2.57019,18.01329 -11.38687,20.54118c-8.81669,2.52789 -18.01329,-2.57019 -20.54118,-11.38687z" fill="#181818" stroke-width="2" stroke-linecap="butt"/><path d="M224.25676,151.63205l-2.46041,-5.96242c0,0 6.89294,0.04399 9.57128,-1.07549c3.19553,-1.33564 8.32569,-6.40493 8.32569,-6.40493l2.46041,5.96242z" fill="#ff4545" stroke-width="2" stroke-linecap="butt"/><path d="M210.96203,203.63333c0,-2.11232 1.71238,-3.8247 3.8247,-3.8247c2.11232,0 3.8247,1.71238 3.8247,3.8247c0,2.11232 -1.71238,3.8247 -3.8247,3.8247c-2.11232,0 -3.8247,-1.71238 -3.8247,-3.8247z" fill="#181818" stroke-width="2" stroke-linecap="butt"/><path d="M201.36678,153.80731c0,-19.85608 16.09653,-35.95262 35.95262,-35.95262c19.85608,0 35.95262,16.09653 35.95262,35.95262c0,19.85608 -16.09653,35.95262 -35.95262,35.95262c-19.85608,0 -35.95262,-16.09653 -35.95262,-35.95262z" fill="url(#color-2)" stroke-width="0" stroke-linecap="butt"/></g></g></svg>