<svg version="1.1" xmlns="http://www.w3.org/2000/svg" xmlns:xlink="http://www.w3.org/1999/xlink" width="53.2215" height="86.95568" viewBox="0,0,53.2215,86.95568"><g transform="translate(-212.60771,-140.44525)"><g data-paper-data="{&quot;isPaintingLayer&quot;:true}" fill-rule="nonzero" stroke="#000000" stroke-width="2" stroke-linejoin="miter" stroke-miterlimit="10" stroke-dasharray="" stroke-dashoffset="0" style="mix-blend-mode: normal"><path d="M222.67795,158.45278c0,0 2.10697,-2.22284 3.83029,-3.3097c1.36524,-0.86102 5.68789,-2.69317 5.68789,-2.69317" fill="none" stroke-linecap="round"/><path d="M213.98063,163.7996c-1.05895,-2.62976 0.21443,-5.62005 2.84419,-6.679c2.62976,-1.05895 5.62005,0.21443 6.679,2.84419c1.05895,2.62976 -0.21443,5.62005 -2.84419,6.679c-2.62976,1.05895 -5.62005,-0.21443 -6.679,-2.84419z" fill="#e80000" stroke-linecap="butt"/><path d="M231.61473,158.0525c0,-9.17193 7.43532,-16.60724 16.60724,-16.60724c9.17193,0 16.60724,7.43532 16.60724,16.60724c0,9.17193 -7.43532,16.60724 -16.60724,16.60724c-9.17193,0 -16.60724,-7.43532 -16.60724,-16.60724z" fill="#e80000" stroke-linecap="butt"/><path d="M221.09244,184.97416c0,-2.11232 1.71238,-3.8247 3.8247,-3.8247c2.11232,0 3.8247,1.71238 3.8247,3.8247c0,2.11232 -1.71238,3.8247 -3.8247,3.8247c-2.11232,0 -3.8247,-1.71238 -3.8247,-3.8247z" fill="#e80000" stroke-linecap="butt"/><path d="M255.04418,198.2186c0,-2.11232 1.71238,-3.8247 3.8247,-3.8247c2.11232,0 3.8247,1.71238 3.8247,3.8247c0,2.11232 -1.71238,3.8247 -3.8247,3.8247c-2.11232,0 -3.8247,-1.71238 -3.8247,-3.8247z" fill="#e80000" stroke-linecap="butt"/><path d="M239.2283,215.67132c4.36146,2.33523 4.33514,5.33694 2.78707,8.22823c-1.54807,2.89131 -6.33868,3.3421 -10.70015,1.00687c-4.36146,-2.33523 -7.49733,-4.97499 -5.94926,-7.8663c0.59789,-1.11667 6.66146,-5.22432 13.86234,-1.36881z" data-paper-data="{&quot;index&quot;:null}" fill="#e80000" stroke-linecap="butt"/><path d="M230.53898,156.57548l-1.3957,-5.42329l32.34602,-8.32434l1.3957,5.42328z" fill="#ff2121" stroke-linecap="butt"/><path d="M253.28056,208.3559c3.48136,3.51506 2.57306,6.37618 0.24284,8.68405c-2.33021,2.30787 -7.04143,1.32924 -10.52279,-2.18584c-3.48136,-3.51506 -5.70177,-6.96063 -3.37156,-9.2685c0.89997,-0.89133 7.90369,-3.03319 13.65151,2.77028z" data-paper-data="{&quot;index&quot;:null}" fill="#e80000" stroke-linecap="butt"/><path d="M235.30955,203.46803l3.3056,-25.35048l7.78479,1.01511l-3.30559,25.35048z" fill="#e80000" stroke-linecap="butt"/></g></g></svg>