<svg version="1.1" xmlns="http://www.w3.org/2000/svg" xmlns:xlink="http://www.w3.org/1999/xlink" width="198.78536" height="50.17124" viewBox="0,0,198.78536,50.17124"><defs><linearGradient x1="235.4741" y1="181.47139" x2="260.05702" y2="181.47139" gradientUnits="userSpaceOnUse" id="color-1"><stop offset="0" stop-color="#874d1b"/><stop offset="1" stop-color="#ad6222"/></linearGradient><linearGradient x1="242.44251" y1="159.07089" x2="247.2661" y2="172.96457" gradientUnits="userSpaceOnUse" id="color-2"><stop offset="0" stop-color="#23571f"/><stop offset="1" stop-color="#184518"/></linearGradient><linearGradient x1="250.10733" y1="159.39337" x2="254.93092" y2="173.28707" gradientUnits="userSpaceOnUse" id="color-3"><stop offset="0" stop-color="#23571f"/><stop offset="1" stop-color="#184518"/></linearGradient><linearGradient x1="238.06931" y1="164.81687" x2="242.28451" y2="176.9582" gradientUnits="userSpaceOnUse" id="color-4"><stop offset="0" stop-color="#23571f"/><stop offset="1" stop-color="#184518"/></linearGradient><linearGradient x1="244.05236" y1="181.97139" x2="268.63528" y2="181.97139" gradientUnits="userSpaceOnUse" id="color-5"><stop offset="0" stop-color="#874d1b"/><stop offset="1" stop-color="#ad6222"/></linearGradient><linearGradient x1="261.66687" y1="159.57089" x2="256.84328" y2="173.46457" gradientUnits="userSpaceOnUse" id="color-6"><stop offset="0" stop-color="#23571f"/><stop offset="1" stop-color="#184518"/></linearGradient><linearGradient x1="254.00205" y1="159.89337" x2="249.17846" y2="173.78707" gradientUnits="userSpaceOnUse" id="color-7"><stop offset="0" stop-color="#23571f"/><stop offset="1" stop-color="#184518"/></linearGradient><linearGradient x1="266.04007" y1="165.31687" x2="261.82487" y2="177.4582" gradientUnits="userSpaceOnUse" id="color-8"><stop offset="0" stop-color="#23571f"/><stop offset="1" stop-color="#184518"/></linearGradient><linearGradient x1="282.56043" y1="180.25713" x2="257.99489" y2="179.33286" gradientUnits="userSpaceOnUse" id="color-9"><stop offset="0" stop-color="#874d1b"/><stop offset="1" stop-color="#ad6222"/></linearGradient><linearGradient x1="276.43917" y1="157.61047" x2="271.09661" y2="171.31297" gradientUnits="userSpaceOnUse" id="color-10"><stop offset="0" stop-color="#23571f"/><stop offset="1" stop-color="#184518"/></linearGradient><linearGradient x1="268.76764" y1="157.64454" x2="263.42508" y2="171.34706" gradientUnits="userSpaceOnUse" id="color-11"><stop offset="0" stop-color="#23571f"/><stop offset="1" stop-color="#184518"/></linearGradient><linearGradient x1="280.59323" y1="163.51681" x2="275.92452" y2="175.49107" gradientUnits="userSpaceOnUse" id="color-12"><stop offset="0" stop-color="#23571f"/><stop offset="1" stop-color="#184518"/></linearGradient><linearGradient x1="274.6361" y1="184.60092" x2="250.07056" y2="183.67664" gradientUnits="userSpaceOnUse" id="color-13"><stop offset="0" stop-color="#874d1b"/><stop offset="1" stop-color="#ad6222"/></linearGradient><linearGradient x1="257.87627" y1="161.55398" x2="262.17407" y2="175.6192" gradientUnits="userSpaceOnUse" id="color-14"><stop offset="0" stop-color="#23571f"/><stop offset="1" stop-color="#184518"/></linearGradient><linearGradient x1="265.52354" y1="162.16442" x2="269.82134" y2="176.22965" gradientUnits="userSpaceOnUse" id="color-15"><stop offset="0" stop-color="#23571f"/><stop offset="1" stop-color="#184518"/></linearGradient><linearGradient x1="253.29012" y1="167.13147" x2="257.04584" y2="179.4227" gradientUnits="userSpaceOnUse" id="color-16"><stop offset="0" stop-color="#23571f"/><stop offset="1" stop-color="#184518"/></linearGradient><linearGradient x1="313.74449" y1="179.80472" x2="289.16157" y2="179.80472" gradientUnits="userSpaceOnUse" id="color-17"><stop offset="0" stop-color="#874d1b"/><stop offset="1" stop-color="#ad6222"/></linearGradient><linearGradient x1="306.77608" y1="157.40422" x2="301.95249" y2="171.2979" gradientUnits="userSpaceOnUse" id="color-18"><stop offset="0" stop-color="#23571f"/><stop offset="1" stop-color="#184518"/></linearGradient><linearGradient x1="299.11126" y1="157.7267" x2="294.28767" y2="171.6204" gradientUnits="userSpaceOnUse" id="color-19"><stop offset="0" stop-color="#23571f"/><stop offset="1" stop-color="#184518"/></linearGradient><linearGradient x1="311.14928" y1="163.1502" x2="306.93408" y2="175.29153" gradientUnits="userSpaceOnUse" id="color-20"><stop offset="0" stop-color="#23571f"/><stop offset="1" stop-color="#184518"/></linearGradient><linearGradient x1="305.16623" y1="180.30472" x2="280.58331" y2="180.30472" gradientUnits="userSpaceOnUse" id="color-21"><stop offset="0" stop-color="#874d1b"/><stop offset="1" stop-color="#ad6222"/></linearGradient><linearGradient x1="287.55172" y1="157.90422" x2="292.37531" y2="171.7979" gradientUnits="userSpaceOnUse" id="color-22"><stop offset="0" stop-color="#23571f"/><stop offset="1" stop-color="#184518"/></linearGradient><linearGradient x1="295.21654" y1="158.2267" x2="300.04013" y2="172.1204" gradientUnits="userSpaceOnUse" id="color-23"><stop offset="0" stop-color="#23571f"/><stop offset="1" stop-color="#184518"/></linearGradient><linearGradient x1="283.17852" y1="163.6502" x2="287.39372" y2="175.79153" gradientUnits="userSpaceOnUse" id="color-24"><stop offset="0" stop-color="#23571f"/><stop offset="1" stop-color="#184518"/></linearGradient><linearGradient x1="266.65817" y1="178.59047" x2="291.22371" y2="177.66619" gradientUnits="userSpaceOnUse" id="color-25"><stop offset="0" stop-color="#874d1b"/><stop offset="1" stop-color="#ad6222"/></linearGradient><linearGradient x1="272.77943" y1="155.9438" x2="278.12199" y2="169.6463" gradientUnits="userSpaceOnUse" id="color-26"><stop offset="0" stop-color="#23571f"/><stop offset="1" stop-color="#184518"/></linearGradient><linearGradient x1="280.45096" y1="155.97787" x2="285.79352" y2="169.68039" gradientUnits="userSpaceOnUse" id="color-27"><stop offset="0" stop-color="#23571f"/><stop offset="1" stop-color="#184518"/></linearGradient><linearGradient x1="268.62536" y1="161.85015" x2="273.29408" y2="173.82441" gradientUnits="userSpaceOnUse" id="color-28"><stop offset="0" stop-color="#23571f"/><stop offset="1" stop-color="#184518"/></linearGradient><linearGradient x1="274.5825" y1="182.93425" x2="299.14804" y2="182.00997" gradientUnits="userSpaceOnUse" id="color-29"><stop offset="0" stop-color="#874d1b"/><stop offset="1" stop-color="#ad6222"/></linearGradient><linearGradient x1="291.34233" y1="159.88731" x2="287.04453" y2="173.95253" gradientUnits="userSpaceOnUse" id="color-30"><stop offset="0" stop-color="#23571f"/><stop offset="1" stop-color="#184518"/></linearGradient><linearGradient x1="283.69505" y1="160.49775" x2="279.39726" y2="174.56298" gradientUnits="userSpaceOnUse" id="color-31"><stop offset="0" stop-color="#23571f"/><stop offset="1" stop-color="#184518"/></linearGradient><linearGradient x1="295.92848" y1="165.4648" x2="292.17275" y2="177.75603" gradientUnits="userSpaceOnUse" id="color-32"><stop offset="0" stop-color="#23571f"/><stop offset="1" stop-color="#184518"/></linearGradient><linearGradient x1="161.97411" y1="180.80472" x2="186.55703" y2="180.80472" gradientUnits="userSpaceOnUse" id="color-33"><stop offset="0" stop-color="#874d1b"/><stop offset="1" stop-color="#ad6222"/></linearGradient><linearGradient x1="168.94252" y1="158.40422" x2="173.76611" y2="172.2979" gradientUnits="userSpaceOnUse" id="color-34"><stop offset="0" stop-color="#23571f"/><stop offset="1" stop-color="#184518"/></linearGradient><linearGradient x1="176.60734" y1="158.7267" x2="181.43093" y2="172.6204" gradientUnits="userSpaceOnUse" id="color-35"><stop offset="0" stop-color="#23571f"/><stop offset="1" stop-color="#184518"/></linearGradient><linearGradient x1="164.56931" y1="164.1502" x2="168.78452" y2="176.29153" gradientUnits="userSpaceOnUse" id="color-36"><stop offset="0" stop-color="#23571f"/><stop offset="1" stop-color="#184518"/></linearGradient><linearGradient x1="170.55237" y1="181.30472" x2="195.13529" y2="181.30472" gradientUnits="userSpaceOnUse" id="color-37"><stop offset="0" stop-color="#874d1b"/><stop offset="1" stop-color="#ad6222"/></linearGradient><linearGradient x1="188.16688" y1="158.90422" x2="183.34329" y2="172.7979" gradientUnits="userSpaceOnUse" id="color-38"><stop offset="0" stop-color="#23571f"/><stop offset="1" stop-color="#184518"/></linearGradient><linearGradient x1="180.50206" y1="159.2267" x2="175.67847" y2="173.1204" gradientUnits="userSpaceOnUse" id="color-39"><stop offset="0" stop-color="#23571f"/><stop offset="1" stop-color="#184518"/></linearGradient><linearGradient x1="192.54008" y1="164.6502" x2="188.32488" y2="176.79153" gradientUnits="userSpaceOnUse" id="color-40"><stop offset="0" stop-color="#23571f"/><stop offset="1" stop-color="#184518"/></linearGradient><linearGradient x1="209.06043" y1="179.59047" x2="184.49489" y2="178.66619" gradientUnits="userSpaceOnUse" id="color-41"><stop offset="0" stop-color="#874d1b"/><stop offset="1" stop-color="#ad6222"/></linearGradient><linearGradient x1="202.93917" y1="156.94381" x2="197.59661" y2="170.64631" gradientUnits="userSpaceOnUse" id="color-42"><stop offset="0" stop-color="#23571f"/><stop offset="1" stop-color="#184518"/></linearGradient><linearGradient x1="195.26764" y1="156.97788" x2="189.92508" y2="170.68039" gradientUnits="userSpaceOnUse" id="color-43"><stop offset="0" stop-color="#23571f"/><stop offset="1" stop-color="#184518"/></linearGradient><linearGradient x1="207.09324" y1="162.85015" x2="202.42452" y2="174.82441" gradientUnits="userSpaceOnUse" id="color-44"><stop offset="0" stop-color="#23571f"/><stop offset="1" stop-color="#184518"/></linearGradient><linearGradient x1="201.1361" y1="183.93426" x2="176.57056" y2="183.00998" gradientUnits="userSpaceOnUse" id="color-45"><stop offset="0" stop-color="#874d1b"/><stop offset="1" stop-color="#ad6222"/></linearGradient><linearGradient x1="184.37627" y1="160.88732" x2="188.67407" y2="174.95253" gradientUnits="userSpaceOnUse" id="color-46"><stop offset="0" stop-color="#23571f"/><stop offset="1" stop-color="#184518"/></linearGradient><linearGradient x1="192.02355" y1="161.49775" x2="196.32134" y2="175.56299" gradientUnits="userSpaceOnUse" id="color-47"><stop offset="0" stop-color="#23571f"/><stop offset="1" stop-color="#184518"/></linearGradient><linearGradient x1="179.79012" y1="166.46481" x2="183.54585" y2="178.75604" gradientUnits="userSpaceOnUse" id="color-48"><stop offset="0" stop-color="#23571f"/><stop offset="1" stop-color="#184518"/></linearGradient><linearGradient x1="240.2445" y1="179.13806" x2="215.66158" y2="179.13806" gradientUnits="userSpaceOnUse" id="color-49"><stop offset="0" stop-color="#874d1b"/><stop offset="1" stop-color="#ad6222"/></linearGradient><linearGradient x1="233.27609" y1="156.73755" x2="228.4525" y2="170.63124" gradientUnits="userSpaceOnUse" id="color-50"><stop offset="0" stop-color="#23571f"/><stop offset="1" stop-color="#184518"/></linearGradient><linearGradient x1="225.61127" y1="157.06004" x2="220.78768" y2="170.95374" gradientUnits="userSpaceOnUse" id="color-51"><stop offset="0" stop-color="#23571f"/><stop offset="1" stop-color="#184518"/></linearGradient><linearGradient x1="237.64929" y1="162.48353" x2="233.43409" y2="174.62487" gradientUnits="userSpaceOnUse" id="color-52"><stop offset="0" stop-color="#23571f"/><stop offset="1" stop-color="#184518"/></linearGradient><linearGradient x1="231.66624" y1="179.63806" x2="207.08332" y2="179.63806" gradientUnits="userSpaceOnUse" id="color-53"><stop offset="0" stop-color="#874d1b"/><stop offset="1" stop-color="#ad6222"/></linearGradient><linearGradient x1="214.05173" y1="157.23755" x2="218.87532" y2="171.13124" gradientUnits="userSpaceOnUse" id="color-54"><stop offset="0" stop-color="#23571f"/><stop offset="1" stop-color="#184518"/></linearGradient><linearGradient x1="221.71655" y1="157.56004" x2="226.54014" y2="171.45374" gradientUnits="userSpaceOnUse" id="color-55"><stop offset="0" stop-color="#23571f"/><stop offset="1" stop-color="#184518"/></linearGradient><linearGradient x1="209.67853" y1="162.98353" x2="213.89373" y2="175.12487" gradientUnits="userSpaceOnUse" id="color-56"><stop offset="0" stop-color="#23571f"/><stop offset="1" stop-color="#184518"/></linearGradient><linearGradient x1="193.15817" y1="177.92381" x2="217.72371" y2="176.99953" gradientUnits="userSpaceOnUse" id="color-57"><stop offset="0" stop-color="#874d1b"/><stop offset="1" stop-color="#ad6222"/></linearGradient><linearGradient x1="199.27944" y1="155.27714" x2="204.62199" y2="168.97964" gradientUnits="userSpaceOnUse" id="color-58"><stop offset="0" stop-color="#23571f"/><stop offset="1" stop-color="#184518"/></linearGradient><linearGradient x1="206.95096" y1="155.31121" x2="212.29352" y2="169.01373" gradientUnits="userSpaceOnUse" id="color-59"><stop offset="0" stop-color="#23571f"/><stop offset="1" stop-color="#184518"/></linearGradient><linearGradient x1="195.12537" y1="161.18348" x2="199.79408" y2="173.15775" gradientUnits="userSpaceOnUse" id="color-60"><stop offset="0" stop-color="#23571f"/><stop offset="1" stop-color="#184518"/></linearGradient><linearGradient x1="201.0825" y1="182.26759" x2="225.64804" y2="181.34331" gradientUnits="userSpaceOnUse" id="color-61"><stop offset="0" stop-color="#874d1b"/><stop offset="1" stop-color="#ad6222"/></linearGradient><linearGradient x1="217.84234" y1="159.22065" x2="213.54454" y2="173.28587" gradientUnits="userSpaceOnUse" id="color-62"><stop offset="0" stop-color="#23571f"/><stop offset="1" stop-color="#184518"/></linearGradient><linearGradient x1="210.19506" y1="159.83109" x2="205.89726" y2="173.89632" gradientUnits="userSpaceOnUse" id="color-63"><stop offset="0" stop-color="#23571f"/><stop offset="1" stop-color="#184518"/></linearGradient><linearGradient x1="222.42848" y1="164.79814" x2="218.67276" y2="177.08937" gradientUnits="userSpaceOnUse" id="color-64"><stop offset="0" stop-color="#23571f"/><stop offset="1" stop-color="#184518"/></linearGradient><linearGradient x1="263.41521" y1="178.13204" x2="263.41521" y2="188.92571" gradientUnits="userSpaceOnUse" id="color-65"><stop offset="0" stop-color="#317a2c"/><stop offset="1" stop-color="#1c4f1c"/></linearGradient><linearGradient x1="257.74974" y1="180.56305" x2="257.74974" y2="191.35672" gradientUnits="userSpaceOnUse" id="color-66"><stop offset="0" stop-color="#317a2c"/><stop offset="1" stop-color="#1c4f1c"/></linearGradient><linearGradient x1="268.19197" y1="180.75753" x2="268.19197" y2="190.18983" gradientUnits="userSpaceOnUse" id="color-67"><stop offset="0" stop-color="#317a2c"/><stop offset="1" stop-color="#1c4f1c"/></linearGradient><linearGradient x1="296.91558" y1="178.2987" x2="296.91558" y2="189.09237" gradientUnits="userSpaceOnUse" id="color-68"><stop offset="0" stop-color="#317a2c"/><stop offset="1" stop-color="#1c4f1c"/></linearGradient><linearGradient x1="302.58105" y1="180.72971" x2="302.58105" y2="191.52338" gradientUnits="userSpaceOnUse" id="color-69"><stop offset="0" stop-color="#317a2c"/><stop offset="1" stop-color="#1c4f1c"/></linearGradient><linearGradient x1="292.13882" y1="180.92419" x2="292.13882" y2="190.35649" gradientUnits="userSpaceOnUse" id="color-70"><stop offset="0" stop-color="#317a2c"/><stop offset="1" stop-color="#1c4f1c"/></linearGradient><linearGradient x1="234.46608" y1="175.57197" x2="234.46608" y2="189.00116" gradientUnits="userSpaceOnUse" id="color-71"><stop offset="0" stop-color="#317a2c"/><stop offset="1" stop-color="#1c4f1c"/></linearGradient><linearGradient x1="241.51491" y1="178.59656" x2="241.51491" y2="192.02576" gradientUnits="userSpaceOnUse" id="color-72"><stop offset="0" stop-color="#317a2c"/><stop offset="1" stop-color="#1c4f1c"/></linearGradient><linearGradient x1="228.52297" y1="178.83853" x2="228.52297" y2="190.57394" gradientUnits="userSpaceOnUse" id="color-73"><stop offset="0" stop-color="#317a2c"/><stop offset="1" stop-color="#1c4f1c"/></linearGradient><linearGradient x1="239.90279" y1="188.11117" x2="239.90279" y2="203.88895" gradientUnits="userSpaceOnUse" id="color-74"><stop offset="0" stop-color="#52a83b"/><stop offset="1" stop-color="#3a7629"/></linearGradient><linearGradient x1="200.77585" y1="155.07089" x2="205.59944" y2="168.96457" gradientUnits="userSpaceOnUse" id="color-75"><stop offset="0" stop-color="#317a2c"/><stop offset="1" stop-color="#1c4f1c"/></linearGradient><linearGradient x1="208.44067" y1="155.39336" x2="213.26426" y2="169.28707" gradientUnits="userSpaceOnUse" id="color-76"><stop offset="0" stop-color="#317a2c"/><stop offset="1" stop-color="#1c4f1c"/></linearGradient><linearGradient x1="196.40265" y1="160.81687" x2="200.61785" y2="172.9582" gradientUnits="userSpaceOnUse" id="color-77"><stop offset="0" stop-color="#317a2c"/><stop offset="1" stop-color="#1c4f1c"/></linearGradient><linearGradient x1="275.48258" y1="155.65805" x2="275.48258" y2="169.5743" gradientUnits="userSpaceOnUse" id="color-78"><stop offset="0" stop-color="#317a2c"/><stop offset="1" stop-color="#1c4f1c"/></linearGradient><linearGradient x1="282.78705" y1="158.79235" x2="282.78705" y2="172.70859" gradientUnits="userSpaceOnUse" id="color-79"><stop offset="0" stop-color="#317a2c"/><stop offset="1" stop-color="#1c4f1c"/></linearGradient><linearGradient x1="269.32392" y1="159.04309" x2="269.32392" y2="171.20412" gradientUnits="userSpaceOnUse" id="color-80"><stop offset="0" stop-color="#317a2c"/><stop offset="1" stop-color="#1c4f1c"/></linearGradient></defs><g transform="translate(-140.5101,-153.71772)"><g data-paper-data="{&quot;isPaintingLayer&quot;:true}" fill-rule="nonzero" stroke="none" stroke-width="0" stroke-linecap="butt" stroke-linejoin="miter" stroke-miterlimit="10" stroke-dasharray="" stroke-dashoffset="0" style="mix-blend-mode: normal"><path d="M174.26805,194.96337v-31.83334h133.32728v31.83334z" fill="#2e1b09"/><g><g><g><g><path d="M245.02955,192.5011l0.60171,-9.30418l-0.32439,-2.5222l-6.95742,0.3445l-2.87535,-1.31565l1.34301,-0.81057l-0.52995,-1.6338l5.29979,1.55606l3.70718,-0.78892l-0.26459,-5.99066l5.5491,-0.19917l-0.46484,2.25262l3.68853,-0.67297l6.25469,-2.97448l-2.00471,2.05795l0.8006,0.27815l-4.05307,2.54109l-5.42463,1.84479l1.27028,15.12989z" data-paper-data="{&quot;index&quot;:null}" fill="url(#color-1)"/><g><path d="M237.69543,169.07209c-1.33199,-3.83662 2.72816,-9.13983 6.68191,-10.82672c3.95373,-1.68687 6.30384,0.88134 7.63584,4.71798c1.33199,3.83662 -0.79334,8.31433 -4.74708,10.00121c-3.95373,1.68687 -8.23866,-0.05584 -9.57066,-3.89247z" fill="url(#color-2)"/><path d="M245.36025,169.39459c-1.33199,-3.83662 -1.26772,-6.57271 2.68601,-8.25959c3.95373,-1.68687 10.29974,-1.68577 11.63173,2.15086c1.33199,3.83662 -0.79335,8.31434 -4.74708,10.00121c-3.95373,1.68687 -8.23866,-0.05585 -9.57066,-3.89248z" fill="url(#color-3)"/><path d="M233.92095,173.55667c-1.16399,-3.35273 2.49913,-8.03615 5.95419,-9.51027c3.45506,-1.47412 5.39371,0.81927 6.5577,4.17201c1.16399,3.35273 -0.69329,7.26566 -4.14835,8.73978c-3.45506,1.47412 -7.19957,-0.04878 -8.36356,-3.40152z" fill="url(#color-4)"/></g></g><g><path d="M253.46389,192.79355l1.27028,-15.12989l-5.42463,-1.84479l-4.05307,-2.54109l0.8006,-0.27815l-2.00471,-2.05795l6.25469,2.97448l3.68853,0.67297l-0.46484,-2.25262l5.5491,0.19917l-0.26459,5.99066l3.70718,0.78892l5.29979,-1.55606l-0.52995,1.6338l1.34301,0.81057l-2.87535,1.31565l-6.95742,-0.3445l-0.32439,2.5222l0.60171,9.30418z" data-paper-data="{&quot;index&quot;:null}" fill="url(#color-5)"/><g data-paper-data="{&quot;index&quot;:null}"><path d="M266.41394,169.57209c-1.332,3.83663 -5.61693,5.57934 -9.57066,3.89247c-3.95374,-1.68688 -6.07907,-6.16459 -4.74708,-10.00121c1.332,-3.83664 3.68211,-6.40485 7.63584,-4.71798c3.95375,1.68689 8.0139,6.9901 6.68191,10.82672z" fill="url(#color-6)"/><path d="M249.17847,173.78707c-3.95373,-1.68687 -6.07907,-6.16459 -4.74708,-10.00121c1.33199,-3.83663 7.678,-3.83773 11.63173,-2.15086c3.95373,1.68688 4.018,4.42297 2.68601,8.25959c-1.332,3.83663 -5.61693,5.57935 -9.57066,3.89248z" fill="url(#color-7)"/><path d="M270.18845,174.05667c-1.16399,3.35274 -4.9085,4.87564 -8.36356,3.40152c-3.45506,-1.47412 -5.31234,-5.38705 -4.14835,-8.73978c1.16399,-3.35274 3.10264,-5.64613 6.5577,-4.17201c3.45506,1.47412 7.11818,6.15754 5.95419,9.51027z" fill="url(#color-8)"/></g></g></g><g><path d="M266.99287,190.50122l1.83824,-15.07143l-5.35143,-2.04745l-3.95466,-2.69168l0.81049,-0.24786l-1.92591,-2.13187l6.13843,3.20754l3.66062,0.81117l-0.37982,-2.2685l5.53769,0.40766l-0.48964,5.97648l3.6749,0.92774l5.35454,-1.35569l-0.591,1.61272l1.31159,0.86049l-2.92278,1.20661l-6.93955,-0.60584l-0.41899,2.50822l0.25146,9.32022z" data-paper-data="{&quot;index&quot;:null}" fill="url(#color-9)"/><g><path d="M280.80685,167.78308c-1.47531,3.78384 -5.82273,5.3642 -9.71024,3.52988c-3.88752,-1.83434 -5.843,-6.38879 -4.3677,-10.17262c1.47531,-3.78385 3.92032,-6.26188 7.80783,-4.42755c3.88753,1.83435 7.74542,7.28647 6.27012,11.07029z" fill="url(#color-10)"/><path d="M263.42509,171.34706c-3.88751,-1.83433 -5.843,-6.38879 -4.3677,-10.17262c1.4753,-3.78384 7.81687,-3.54633 11.70438,-1.71201c3.88751,1.83434 3.84886,4.57091 2.37356,8.35474c-1.47531,3.78384 -5.82273,5.36422 -9.71024,3.52989z" fill="url(#color-11)"/><path d="M284.41008,172.40641c-1.28922,3.3066 -5.08834,4.68764 -8.48554,3.08466c-3.3972,-1.60298 -5.10604,-5.58298 -3.81681,-8.88958c1.28922,-3.3066 3.31272,-5.52548 6.70992,-3.9225c3.3972,1.60298 6.88164,6.42082 5.59241,9.72741z" fill="url(#color-12)"/></g></g><g><path d="M259.20456,195.05782l0.95111,-9.27498l-0.22933,-2.53261l-6.96546,0.08266l-2.82385,-1.42282l1.37254,-0.7595l-0.46815,-1.65257l5.23754,1.75422l3.73422,-0.64898l-0.03917,-5.99637l5.55267,0.0096l-0.54921,2.23355l3.71123,-0.53381l6.3621,-2.73721l-2.08067,1.98112l0.78958,0.30805l-4.14575,2.3869l-5.49015,1.63953l0.70052,15.16695z" data-paper-data="{&quot;index&quot;:null}" fill="url(#color-13)"/><g data-paper-data="{&quot;index&quot;:null}"><path d="M252.75651,171.36963c-1.1868,-3.88399 3.06987,-9.03079 7.08425,-10.56784c4.01436,-1.53702 6.26625,1.11773 7.45305,5.00173c1.1868,3.88399 -1.10538,8.27863 -5.11975,9.81566c-4.01436,1.53703 -8.23074,-0.36556 -9.41754,-4.24956z" fill="url(#color-14)"/><path d="M260.40379,171.98008c-1.1868,-3.88399 -1.0197,-6.61572 2.99466,-8.15276c4.01436,-1.53702 10.35584,-1.29732 11.54264,2.58668c1.1868,3.88399 -1.10539,8.27863 -5.11975,9.81565c-4.01436,1.53703 -8.23074,-0.36557 -9.41755,-4.24957z" fill="url(#color-15)"/><path d="M248.81609,175.70912c-1.03711,-3.39413 2.79951,-7.9365 6.30755,-9.27968c3.50804,-1.34318 5.35909,1.02148 6.3962,4.41562c1.03711,3.39413 -0.96598,7.23445 -4.47402,8.57763c-3.50804,1.34318 -7.19264,-0.31943 -8.22975,-3.71357z" fill="url(#color-16)"/></g></g></g><g data-paper-data="{&quot;index&quot;:null}"><g><g><path d="M298.5731,190.62688l1.27028,-15.12989l-5.42463,-1.84479l-4.05307,-2.54109l0.8006,-0.27815l-2.00471,-2.05795l6.25469,2.97448l3.68853,0.67297l-0.46484,-2.25262l5.5491,0.19917l-0.26459,5.99066l3.70718,0.78892l5.29979,-1.55606l-0.52995,1.6338l1.34301,0.81057l-2.87535,1.31565l-6.95742,-0.3445l-0.32439,2.5222l0.60171,9.30418z" data-paper-data="{&quot;index&quot;:null}" fill="url(#color-17)"/><g><path d="M311.52315,167.40542c-1.332,3.83663 -5.61693,5.57934 -9.57066,3.89247c-3.95374,-1.68688 -6.07907,-6.16459 -4.74708,-10.00121c1.332,-3.83664 3.68211,-6.40485 7.63584,-4.71798c3.95375,1.68689 8.0139,6.9901 6.68191,10.82672z" fill="url(#color-18)"/><path d="M294.28768,171.6204c-3.95373,-1.68687 -6.07907,-6.16459 -4.74708,-10.00121c1.33199,-3.83663 7.678,-3.83773 11.63173,-2.15086c3.95373,1.68688 4.018,4.42297 2.68601,8.25959c-1.332,3.83663 -5.61693,5.57935 -9.57066,3.89248z" fill="url(#color-19)"/><path d="M315.29766,171.89c-1.16399,3.35274 -4.9085,4.87564 -8.36356,3.40152c-3.45506,-1.47412 -5.31234,-5.38705 -4.14835,-8.73978c1.16399,-3.35274 3.10264,-5.64613 6.5577,-4.17201c3.45506,1.47412 7.11818,6.15754 5.95419,9.51027z" fill="url(#color-20)"/></g></g><g><path d="M290.13876,191.33443l0.60171,-9.30418l-0.32439,-2.5222l-6.95742,0.3445l-2.87535,-1.31565l1.34301,-0.81057l-0.52995,-1.6338l5.29979,1.55606l3.70718,-0.78892l-0.26459,-5.99066l5.5491,-0.19917l-0.46484,2.25262l3.68853,-0.67297l6.25469,-2.97448l-2.00471,2.05795l0.8006,0.27815l-4.05307,2.54109l-5.42463,1.84479l1.27028,15.12989z" data-paper-data="{&quot;index&quot;:null}" fill="url(#color-21)"/><g data-paper-data="{&quot;index&quot;:null}"><path d="M282.80464,167.90542c-1.33199,-3.83662 2.72816,-9.13983 6.68191,-10.82672c3.95373,-1.68687 6.30384,0.88134 7.63584,4.71798c1.33199,3.83662 -0.79334,8.31433 -4.74708,10.00121c-3.95373,1.68687 -8.23866,-0.05584 -9.57066,-3.89247z" fill="url(#color-22)"/><path d="M290.46946,168.22792c-1.33199,-3.83662 -1.26772,-6.57271 2.68601,-8.25959c3.95373,-1.68687 10.29974,-1.68577 11.63173,2.15086c1.33199,3.83662 -0.79335,8.31434 -4.74708,10.00121c-3.95373,1.68687 -8.23866,-0.05585 -9.57066,-3.89248z" fill="url(#color-23)"/><path d="M279.03016,172.39c-1.16399,-3.35273 2.49913,-8.03615 5.95419,-9.51027c3.45506,-1.47412 5.39371,0.81927 6.5577,4.17201c1.16399,3.35273 -0.69329,7.26566 -4.14835,8.73978c-3.45506,1.47412 -7.19957,-0.04878 -8.36356,-3.40152z" fill="url(#color-24)"/></g></g></g><g><path d="M276.62156,189.25311l0.25146,-9.32022l-0.41899,-2.50822l-6.93955,0.60584l-2.92278,-1.20661l1.31158,-0.8605l-0.591,-1.61272l5.35455,1.3557l3.67489,-0.92775l-0.48964,-5.97647l5.53769,-0.40767l-0.37982,2.26851l3.66062,-0.81118l6.13843,-3.20754l-1.92592,2.13187l0.81049,0.24785l-3.95466,2.69168l-5.35144,2.04745l1.83824,15.07143z" data-paper-data="{&quot;index&quot;:null}" fill="url(#color-25)"/><g><path d="M268.41174,166.11641c-1.4753,-3.78383 2.38259,-9.23594 6.27012,-11.07029c3.88751,-1.83433 6.33252,0.6437 7.80783,4.42754c1.4753,3.78383 -0.48017,8.33829 -4.36769,10.17263c-3.88751,1.83433 -8.23493,0.25396 -9.71024,-3.52988z" fill="url(#color-26)"/><path d="M276.08326,166.1505c-1.4753,-3.78383 -1.51395,-6.5204 2.37356,-8.35474c3.88751,-1.83433 10.22907,-2.07183 11.70437,1.712c1.4753,3.78383 -0.48018,8.33829 -4.36769,10.17262c-3.88751,1.83433 -8.23494,0.25395 -9.71024,-3.52989z" fill="url(#color-27)"/><path d="M264.80854,170.73974c-1.28922,-3.30659 2.19521,-8.12444 5.59241,-9.72742c3.3972,-1.60298 5.4207,0.6159 6.70992,3.92251c1.28922,3.30659 -0.41962,7.28659 -3.81681,8.88957c-3.3972,1.60298 -7.19632,0.22195 -8.48554,-3.08466z" fill="url(#color-28)"/></g></g><g><path d="M284.39427,193.3949l0.70053,-15.16696l-5.49016,-1.63953l-4.14574,-2.38691l0.78958,-0.30805l-2.08067,-1.98112l6.3621,2.73721l3.71123,0.53382l-0.54921,-2.23355l5.55266,-0.00961l-0.03916,5.99638l3.73422,0.64898l5.23753,-1.75422l-0.46814,1.65257l1.37254,0.7595l-2.82385,1.42283l-6.96545,-0.08267l-0.22933,2.53262l0.95111,9.27497z" data-paper-data="{&quot;index&quot;:null}" fill="url(#color-29)"/><g data-paper-data="{&quot;index&quot;:null}"><path d="M296.46207,169.70296c-1.1868,3.884 -5.40319,5.78658 -9.41755,4.24956c-4.01437,-1.53704 -6.30655,-5.93166 -5.11975,-9.81565c1.1868,-3.88401 3.43869,-6.53876 7.45305,-5.00174c4.01438,1.53705 8.27106,6.68384 7.08426,10.56784z" fill="url(#color-30)"/><path d="M279.39727,174.56298c-4.01436,-1.53702 -6.30656,-5.93166 -5.11975,-9.81565c1.1868,-3.884 7.52827,-4.1237 11.54263,-2.58668c4.01436,1.53704 4.18146,4.26877 2.99466,8.15276c-1.1868,3.884 -5.40318,5.7866 -9.41754,4.24957z" fill="url(#color-31)"/><path d="M300.40253,174.04245c-1.03711,3.39414 -4.72171,5.05674 -8.22975,3.71357c-3.50804,-1.34318 -5.51113,-5.1835 -4.47402,-8.57763c1.03711,-3.39414 2.88817,-5.75879 6.39621,-4.41562c3.50804,1.34318 7.34466,5.88555 6.30755,9.27968z" fill="url(#color-32)"/></g></g></g></g><g><g><g><g><path d="M171.52956,191.83443l0.60171,-9.30418l-0.32439,-2.5222l-6.95742,0.3445l-2.87535,-1.31565l1.34301,-0.81057l-0.52995,-1.6338l5.29979,1.55606l3.70718,-0.78892l-0.26459,-5.99066l5.5491,-0.19917l-0.46484,2.25262l3.68853,-0.67297l6.25469,-2.97448l-2.00471,2.05795l0.8006,0.27815l-4.05307,2.54109l-5.42463,1.84479l1.27028,15.12989z" data-paper-data="{&quot;index&quot;:null}" fill="url(#color-33)"/><g><path d="M164.19544,168.40542c-1.33199,-3.83662 2.72816,-9.13983 6.68191,-10.82672c3.95373,-1.68687 6.30384,0.88134 7.63584,4.71798c1.33199,3.83662 -0.79334,8.31433 -4.74708,10.00121c-3.95373,1.68687 -8.23866,-0.05584 -9.57066,-3.89247z" fill="url(#color-34)"/><path d="M171.86026,168.72792c-1.33199,-3.83662 -1.26772,-6.57271 2.68601,-8.25959c3.95373,-1.68687 10.29974,-1.68577 11.63173,2.15086c1.33199,3.83662 -0.79335,8.31434 -4.74708,10.00121c-3.95373,1.68687 -8.23866,-0.05585 -9.57066,-3.89248z" fill="url(#color-35)"/><path d="M160.42096,172.89c-1.16399,-3.35273 2.49913,-8.03615 5.95419,-9.51027c3.45506,-1.47412 5.39371,0.81927 6.5577,4.17201c1.16399,3.35273 -0.69329,7.26566 -4.14835,8.73978c-3.45506,1.47412 -7.19957,-0.04878 -8.36356,-3.40152z" fill="url(#color-36)"/></g></g><g><path d="M179.9639,192.12688l1.27028,-15.12989l-5.42463,-1.84479l-4.05307,-2.54109l0.8006,-0.27815l-2.00471,-2.05795l6.25469,2.97448l3.68853,0.67297l-0.46484,-2.25262l5.5491,0.19917l-0.26459,5.99066l3.70718,0.78892l5.29979,-1.55606l-0.52995,1.6338l1.34301,0.81057l-2.87535,1.31565l-6.95742,-0.3445l-0.32439,2.5222l0.60171,9.30418z" data-paper-data="{&quot;index&quot;:null}" fill="url(#color-37)"/><g data-paper-data="{&quot;index&quot;:null}"><path d="M192.91395,168.90542c-1.332,3.83663 -5.61693,5.57934 -9.57066,3.89247c-3.95374,-1.68688 -6.07907,-6.16459 -4.74708,-10.00121c1.332,-3.83664 3.68211,-6.40485 7.63584,-4.71798c3.95375,1.68689 8.0139,6.9901 6.68191,10.82672z" fill="url(#color-38)"/><path d="M175.67848,173.1204c-3.95373,-1.68687 -6.07907,-6.16459 -4.74708,-10.00121c1.33199,-3.83663 7.678,-3.83773 11.63173,-2.15086c3.95373,1.68688 4.018,4.42297 2.68601,8.25959c-1.332,3.83663 -5.61693,5.57935 -9.57066,3.89248z" fill="url(#color-39)"/><path d="M196.68846,173.39c-1.16399,3.35274 -4.9085,4.87564 -8.36356,3.40152c-3.45506,-1.47412 -5.31234,-5.38705 -4.14835,-8.73978c1.16399,-3.35274 3.10264,-5.64613 6.5577,-4.17201c3.45506,1.47412 7.11818,6.15754 5.95419,9.51027z" fill="url(#color-40)"/></g></g></g><g><path d="M193.49287,189.83456l1.83824,-15.07143l-5.35144,-2.04745l-3.95466,-2.69168l0.81049,-0.24785l-1.92592,-2.13187l6.13843,3.20754l3.66062,0.81118l-0.37982,-2.26851l5.53769,0.40766l-0.48964,5.97648l3.67489,0.92775l5.35455,-1.3557l-0.591,1.61272l1.31158,0.8605l-2.92279,1.20661l-6.93954,-0.60584l-0.41899,2.50822l0.25146,9.32022z" data-paper-data="{&quot;index&quot;:null}" fill="url(#color-41)"/><g><path d="M207.30685,167.11641c-1.47531,3.78384 -5.82273,5.36421 -9.71024,3.52988c-3.88752,-1.83434 -5.843,-6.3888 -4.36769,-10.17263c1.47531,-3.78385 3.92032,-6.26188 7.80783,-4.42755c3.88753,1.83435 7.74542,7.28646 6.27012,11.07029z" fill="url(#color-42)"/><path d="M189.92509,170.68039c-3.88751,-1.83433 -5.84299,-6.38879 -4.36769,-10.17262c1.4753,-3.78384 7.81686,-3.54633 11.70437,-1.71201c3.88751,1.83434 3.84886,4.57092 2.37356,8.35474c-1.47531,3.78384 -5.82273,5.36421 -9.71024,3.52988z" fill="url(#color-43)"/><path d="M210.91008,171.73974c-1.28922,3.3066 -5.08834,4.68764 -8.48554,3.08466c-3.3972,-1.60298 -5.10604,-5.58298 -3.81682,-8.88957c1.28922,-3.3066 3.31273,-5.52549 6.70992,-3.92251c3.3972,1.60298 6.88163,6.42082 5.59241,9.72742z" fill="url(#color-44)"/></g></g><g><path d="M185.70456,194.39116l0.95111,-9.27497l-0.22933,-2.53262l-6.96545,0.08267l-2.82385,-1.42283l1.37253,-0.7595l-0.46815,-1.65257l5.23754,1.75422l3.73422,-0.64898l-0.03916,-5.99637l5.55266,0.00961l-0.54921,2.23355l3.71122,-0.53382l6.36211,-2.73721l-2.08067,1.98112l0.78957,0.30805l-4.14575,2.38691l-5.49015,1.63953l0.70052,15.16696z" data-paper-data="{&quot;index&quot;:null}" fill="url(#color-45)"/><g data-paper-data="{&quot;index&quot;:null}"><path d="M179.25652,170.70296c-1.1868,-3.88399 3.06987,-9.03079 7.08425,-10.56784c4.01436,-1.53702 6.26625,1.11773 7.45305,5.00174c1.1868,3.88399 -1.10538,8.27862 -5.11975,9.81565c-4.01436,1.53703 -8.23074,-0.36556 -9.41754,-4.24956z" fill="url(#color-46)"/><path d="M186.90379,171.31342c-1.1868,-3.88399 -1.0197,-6.61572 2.99466,-8.15276c4.01436,-1.53702 10.35584,-1.29732 11.54263,2.58668c1.1868,3.88399 -1.10539,8.27863 -5.11975,9.81565c-4.01436,1.53703 -8.23074,-0.36557 -9.41754,-4.24957z" fill="url(#color-47)"/><path d="M175.31609,175.04246c-1.03711,-3.39413 2.79951,-7.9365 6.30755,-9.27967c3.50804,-1.34318 5.35909,1.02148 6.39621,4.41562c1.03711,3.39413 -0.96598,7.23445 -4.47402,8.57763c-3.50804,1.34318 -7.19264,-0.31943 -8.22976,-3.71357z" fill="url(#color-48)"/></g></g></g><g data-paper-data="{&quot;index&quot;:null}"><g><g><path d="M225.07311,189.96022l1.27028,-15.12989l-5.42463,-1.84479l-4.05307,-2.54109l0.8006,-0.27815l-2.00471,-2.05795l6.25469,2.97448l3.68853,0.67297l-0.46484,-2.25262l5.5491,0.19917l-0.26459,5.99066l3.70718,0.78892l5.29979,-1.55606l-0.52995,1.6338l1.34301,0.81057l-2.87535,1.31565l-6.95742,-0.3445l-0.32439,2.5222l0.60171,9.30418z" data-paper-data="{&quot;index&quot;:null}" fill="url(#color-49)"/><g><path d="M238.02316,166.73876c-1.332,3.83663 -5.61693,5.57934 -9.57066,3.89247c-3.95374,-1.68688 -6.07907,-6.16459 -4.74708,-10.00121c1.332,-3.83664 3.68211,-6.40485 7.63584,-4.71798c3.95375,1.68689 8.0139,6.9901 6.68191,10.82672z" fill="url(#color-50)"/><path d="M220.78769,170.95374c-3.95373,-1.68687 -6.07907,-6.16459 -4.74708,-10.00121c1.33199,-3.83663 7.678,-3.83773 11.63173,-2.15086c3.95373,1.68688 4.018,4.42297 2.68601,8.25959c-1.332,3.83663 -5.61693,5.57935 -9.57066,3.89248z" fill="url(#color-51)"/><path d="M241.79767,171.22334c-1.16399,3.35274 -4.9085,4.87564 -8.36356,3.40152c-3.45506,-1.47412 -5.31234,-5.38705 -4.14835,-8.73978c1.16399,-3.35274 3.10264,-5.64613 6.5577,-4.17201c3.45506,1.47412 7.11818,6.15754 5.95419,9.51027z" fill="url(#color-52)"/></g></g><g><path d="M216.63877,190.66777l0.60171,-9.30418l-0.32439,-2.5222l-6.95742,0.3445l-2.87535,-1.31565l1.34301,-0.81057l-0.52995,-1.6338l5.29979,1.55606l3.70718,-0.78892l-0.26459,-5.99066l5.5491,-0.19917l-0.46484,2.25262l3.68853,-0.67297l6.25469,-2.97448l-2.00471,2.05795l0.8006,0.27815l-4.05307,2.54109l-5.42463,1.84479l1.27028,15.12989z" data-paper-data="{&quot;index&quot;:null}" fill="url(#color-53)"/><g data-paper-data="{&quot;index&quot;:null}"><path d="M209.30465,167.23876c-1.33199,-3.83662 2.72816,-9.13983 6.68191,-10.82672c3.95373,-1.68687 6.30384,0.88134 7.63584,4.71798c1.33199,3.83662 -0.79334,8.31433 -4.74708,10.00121c-3.95373,1.68687 -8.23866,-0.05584 -9.57066,-3.89247z" fill="url(#color-54)"/><path d="M216.96947,167.56125c-1.33199,-3.83662 -1.26772,-6.57271 2.68601,-8.25959c3.95373,-1.68687 10.29974,-1.68577 11.63173,2.15086c1.33199,3.83662 -0.79335,8.31434 -4.74708,10.00121c-3.95373,1.68687 -8.23866,-0.05585 -9.57066,-3.89248z" fill="url(#color-55)"/><path d="M205.53017,171.72334c-1.16399,-3.35273 2.49913,-8.03615 5.95419,-9.51027c3.45506,-1.47412 5.39371,0.81927 6.5577,4.17201c1.16399,3.35273 -0.69329,7.26566 -4.14835,8.73978c-3.45506,1.47412 -7.19957,-0.04878 -8.36356,-3.40152z" fill="url(#color-56)"/></g></g></g><g><path d="M203.12157,188.58645l0.25146,-9.32022l-0.41899,-2.50822l-6.93955,0.60584l-2.92279,-1.20661l1.31159,-0.86049l-0.591,-1.61272l5.35455,1.3557l3.6749,-0.92775l-0.48964,-5.97648l5.53768,-0.40766l-0.37981,2.2685l3.66062,-0.81118l6.13843,-3.20754l-1.92592,2.13187l0.81049,0.24785l-3.95466,2.69168l-5.35143,2.04745l1.83824,15.07143z" data-paper-data="{&quot;index&quot;:null}" fill="url(#color-57)"/><g><path d="M194.91174,165.44975c-1.4753,-3.78383 2.38259,-9.23594 6.27012,-11.07029c3.88751,-1.83433 6.33252,0.6437 7.80783,4.42755c1.4753,3.78383 -0.48018,8.33828 -4.36769,10.17262c-3.88751,1.83433 -8.23493,0.25396 -9.71024,-3.52988z" fill="url(#color-58)"/><path d="M202.58327,165.48384c-1.4753,-3.78383 -1.51395,-6.5204 2.37356,-8.35474c3.88751,-1.83433 10.22907,-2.07183 11.70437,1.71201c1.4753,3.78383 -0.48018,8.33829 -4.36769,10.17262c-3.88751,1.83433 -8.23493,0.25395 -9.71024,-3.52989z" fill="url(#color-59)"/><path d="M191.30854,170.07308c-1.28922,-3.30659 2.19521,-8.12443 5.59241,-9.72741c3.3972,-1.60298 5.4207,0.6159 6.70992,3.92251c1.28922,3.30659 -0.41962,7.28659 -3.81681,8.88957c-3.3972,1.60298 -7.19632,0.22194 -8.48554,-3.08466z" fill="url(#color-60)"/></g></g><g><path d="M210.89427,192.72824l0.70052,-15.16696l-5.49016,-1.63953l-4.14574,-2.3869l0.78957,-0.30805l-2.08067,-1.98112l6.36211,2.73721l3.71122,0.53381l-0.54921,-2.23355l5.55266,-0.00961l-0.03916,5.99638l3.73422,0.64898l5.23753,-1.75422l-0.46814,1.65257l1.37253,0.7595l-2.82385,1.42283l-6.96546,-0.08267l-0.22933,2.53261l0.95111,9.27498z" data-paper-data="{&quot;index&quot;:null}" fill="url(#color-61)"/><g data-paper-data="{&quot;index&quot;:null}"><path d="M222.96208,169.0363c-1.1868,3.884 -5.40318,5.78659 -9.41754,4.24956c-4.01437,-1.53704 -6.30655,-5.93166 -5.11975,-9.81565c1.1868,-3.88401 3.43869,-6.53877 7.45305,-5.00174c4.01438,1.53705 8.27106,6.68384 7.08426,10.56784z" fill="url(#color-62)"/><path d="M205.89727,173.89632c-4.01436,-1.53702 -6.30656,-5.93166 -5.11975,-9.81565c1.18679,-3.884 7.52828,-4.1237 11.54264,-2.58668c4.01436,1.53704 4.18146,4.26877 2.99466,8.15276c-1.1868,3.884 -5.40318,5.7866 -9.41754,4.24957z" fill="url(#color-63)"/><path d="M226.90253,173.37579c-1.03711,3.39414 -4.72172,5.05675 -8.22976,3.71357c-3.50804,-1.34318 -5.51113,-5.1835 -4.47402,-8.57763c1.03711,-3.39414 2.88816,-5.75879 6.3962,-4.41562c3.50804,1.34318 7.34466,5.88555 6.30755,9.27967z" fill="url(#color-64)"/></g></g></g></g><g data-paper-data="{&quot;index&quot;:null}"><path d="M263.41521,188.92571c-3.40504,0 -6.16537,-2.41625 -6.16537,-5.39684c0,-2.98059 1.09402,-5.39684 4.49905,-5.39684c3.40504,0 7.83167,2.41626 7.83167,5.39684c0,2.98059 -2.76032,5.39684 -6.16535,5.39684z" fill="url(#color-65)"/><path d="M257.74975,191.35672c-3.40503,0 -6.16536,-2.41626 -6.16536,-5.39684c0,-2.98058 4.75992,-4.81339 8.16495,-4.81339c3.40503,0 4.16578,1.83281 4.16578,4.81339c0,2.98059 -2.76033,5.39684 -6.16536,5.39684z" fill="url(#color-66)"/><path d="M273.57973,185.47368c0,2.60466 -2.41218,4.71615 -5.38775,4.71615c-2.97557,0 -5.38775,-2.11149 -5.38775,-4.71615c0,-2.60466 0.85695,-4.71616 3.83252,-4.71616c2.97557,0 6.94297,2.1115 6.94297,4.71616z" fill="url(#color-67)"/></g><path d="M272.58973,188.5011l1.22722,-16.1968l-5.24077,-1.97488l-3.9157,-2.72028l0.77347,-0.29776l-1.93676,-2.20307l6.04271,3.18424l3.56352,0.72043l-0.44908,-2.41147l5.36102,0.21322l-0.25562,6.4131l3.58153,0.84456l7.48176,-0.47633l-2.87358,1.86796l1.29749,0.62984l-2.77789,0.33791l-6.72162,-0.36879l-0.31339,2.70006l0.58132,9.96027z" data-paper-data="{&quot;index&quot;:null}" fill="#ad6222"/><path d="M203.36289,188.5011l0.60171,-9.30418l-0.32439,-2.5222l-6.95742,0.3445l-2.87535,-1.31565l1.34301,-0.81057l-0.52995,-1.6338l5.29979,1.55606l3.70718,-0.78892l-0.26459,-5.99066l5.5491,-0.19917l-0.46484,2.25262l3.68853,-0.67297l6.25469,-2.97448l-2.00471,2.05795l0.8006,0.27815l-4.05307,2.54109l-5.42463,1.84479l1.27028,15.12989z" data-paper-data="{&quot;index&quot;:null}" fill="#ad6222"/><g data-paper-data="{&quot;index&quot;:null}"><path d="M290.75023,183.69553c0,-2.98058 4.42663,-5.39684 7.83167,-5.39684c3.40503,0 4.49905,2.41625 4.49905,5.39684c0,2.98059 -2.76033,5.39684 -6.16537,5.39684c-3.40503,0 -6.16535,-2.41625 -6.16535,-5.39684z" fill="url(#color-68)"/><path d="M302.58103,191.52338c-3.40503,0 -6.16536,-2.41625 -6.16536,-5.39684c0,-2.98058 0.76075,-4.81339 4.16578,-4.81339c3.40503,0 8.16495,1.83281 8.16495,4.81339c0,2.98058 -2.76033,5.39684 -6.16536,5.39684z" fill="url(#color-69)"/><path d="M286.75107,185.64034c0,-2.60466 3.9674,-4.71616 6.94297,-4.71616c2.97557,0 3.83252,2.1115 3.83252,4.71616c0,2.60466 -2.41218,4.71615 -5.38775,4.71615c-2.97557,0 -5.38775,-2.11149 -5.38775,-4.71615z" fill="url(#color-70)"/></g><g><path d="M226.79531,182.28656c0,-3.70836 5.5075,-6.7146 9.74396,-6.7146c4.23645,0 5.5976,3.00623 5.5976,6.7146c0,3.70836 -3.43432,6.7146 -7.67078,6.7146c-4.23645,0 -7.67077,-3.00623 -7.67077,-6.7146z" fill="url(#color-71)"/><path d="M233.84413,185.31116c0,-3.70836 0.94651,-5.98869 5.18295,-5.98869c4.23645,0 10.1586,2.28033 10.1586,5.98869c0,3.70836 -3.43434,6.7146 -7.67078,6.7146c-4.23645,0 -7.67077,-3.00623 -7.67077,-6.7146z" fill="url(#color-72)"/><path d="M221.81967,184.70624c0,-3.24065 4.93614,-5.86771 8.63826,-5.86771c3.70212,0 4.76832,2.62706 4.76832,5.86771c0,3.24065 -3.00117,5.86771 -6.70329,5.86771c-3.70212,0 -6.70329,-2.62706 -6.70329,-5.86771z" fill="url(#color-73)"/></g><path d="M140.5101,203.88895v-15.77777h198.78536v15.77777z" fill="url(#color-74)"/><g><path d="M196.02877,165.07208c-1.33199,-3.83662 2.72816,-9.13983 6.68191,-10.82672c3.95373,-1.68687 6.30384,0.88134 7.63584,4.71798c1.33199,3.83662 -0.79334,8.31433 -4.74708,10.00121c-3.95373,1.68687 -8.23866,-0.05584 -9.57066,-3.89247z" fill="url(#color-75)"/><path d="M203.69359,165.39459c-1.33199,-3.83662 -1.26772,-6.57271 2.68601,-8.25959c3.95373,-1.68687 10.29974,-1.68577 11.63173,2.15086c1.33199,3.83662 -0.79335,8.31434 -4.74708,10.00121c-3.95373,1.68687 -8.23866,-0.05585 -9.57066,-3.89248z" fill="url(#color-76)"/><path d="M192.25429,169.55667c-1.16399,-3.35273 2.49913,-8.03615 5.95419,-9.51027c3.45506,-1.47412 5.39371,0.81927 6.5577,4.17201c1.16399,3.35273 -0.69329,7.26566 -4.14835,8.73978c-3.45506,1.47412 -7.19957,-0.04878 -8.36356,-3.40152z" fill="url(#color-77)"/></g><g><path d="M267.53361,162.61617c0,-3.84285 5.70724,-6.95812 10.09735,-6.95812c4.39009,0 5.80061,3.11526 5.80061,6.95812c0,3.84285 -3.55887,6.95812 -7.94898,6.95812c-4.39009,0 -7.94897,-3.11525 -7.94897,-6.95812z" fill="url(#color-78)"/><path d="M274.83807,165.75045c0,-3.84285 0.98083,-6.20589 5.37092,-6.20589c4.39009,0 10.52703,2.36303 10.52703,6.20589c0,3.84285 -3.55889,6.95812 -7.94898,6.95812c-4.39009,0 -7.94897,-3.11526 -7.94897,-6.95812z" fill="url(#color-79)"/><path d="M262.37752,165.1236c0,-3.35818 5.11516,-6.08052 8.95155,-6.08052c3.83639,0 4.94125,2.72234 4.94125,6.08052c0,3.35818 -3.11001,6.08051 -6.9464,6.08051c-3.83639,0 -6.94641,-2.72234 -6.94641,-6.08051z" fill="url(#color-80)"/></g></g></g></svg>