<svg version="1.1" xmlns="http://www.w3.org/2000/svg" xmlns:xlink="http://www.w3.org/1999/xlink" width="407.75327" height="255.97443" viewBox="0,0,407.75327,255.97443"><defs><linearGradient x1="240.00001" y1="34.04723" x2="240.00001" y2="290.02166" gradientUnits="userSpaceOnUse" id="color-1"><stop offset="0" stop-color="#ffe452"/><stop offset="1" stop-color="#3d3824"/></linearGradient><radialGradient cx="285.66661" cy="62.00109" r="25.19314" gradientUnits="userSpaceOnUse" id="color-2"><stop offset="0" stop-color="#ffffff"/><stop offset="1" stop-color="#0debff"/></radialGradient><radialGradient cx="317.18778" cy="89.28047" r="43.65615" gradientUnits="userSpaceOnUse" id="color-3"><stop offset="0" stop-color="#76f4ff"/><stop offset="1" stop-color="#c9ffff"/></radialGradient></defs><g transform="translate(-36.12338,-34.04723)"><g data-paper-data="{&quot;isPaintingLayer&quot;:true}" fill-rule="nonzero" stroke-linejoin="miter" stroke-miterlimit="10" stroke-dasharray="" stroke-dashoffset="0" style="mix-blend-mode: normal"><path d="M36.12338,244.04292c0,-31.96494 0,-125.87855 0,-176.59538c0,-23.72401 22.91078,-33.40031 51.63671,-33.40031c84.73311,0 248.81018,0 298.12587,0c29.76702,0 57.99069,7.11843 57.99069,31.70227c0,47.07217 0,133.43452 0,166.40719c0,30.33656 -13.0339,57.86497 -49.76653,57.86497c-84.88203,0 -253.2586,0 -302.49488,0c-26.48331,0 -55.49185,-1.35259 -55.49185,-45.97875z" fill="url(#color-1)" stroke="none" stroke-width="0" stroke-linecap="butt"/><g stroke="#000000" stroke-width="2"><path d="M64.79967,172.48759c0,0 3.76743,-1.31013 6.41123,-1.53589c2.09446,-0.17885 8.19089,0.28897 8.19089,0.28897" fill="#181818" stroke-linecap="round"/><path d="M51.06319,173.56781c0.34901,-3.67554 3.61153,-6.37227 7.2871,-6.02325c3.67554,0.34902 6.37227,3.61153 6.02325,7.2871c-0.34901,3.67554 -3.61155,6.37227 -7.2871,6.02325c-3.67554,-0.34902 -6.37227,-3.61153 -6.02324,-7.28708z" fill="#181818" stroke-linecap="butt"/><path d="M79.49028,188.23772c-1.60846,-11.83618 6.68275,-22.73521 18.51891,-24.34366c11.83619,-1.60845 22.7352,6.68276 24.34365,18.51892c1.60845,11.83619 -6.68276,22.73521 -18.51891,24.34366c-11.83618,1.60845 -22.7352,-6.68276 -24.34365,-18.51892z" fill="#181818" stroke-linecap="butt"/><g><path d="M80.68432,178.7691l-2.11545,-15.56692l38.24051,-5.19664l2.11544,15.56692z" fill="#343434" stroke-linecap="butt"/><path d="M66.80943,180.6546l65.99026,-8.96765" fill="none" stroke-linecap="round"/></g><path d="M73.8281,259.54834c5.35714,0 9.69996,3.22778 9.69996,7.20943c0,3.98165 -4.34282,7.20943 -9.69996,7.20943c-5.35713,0 -9.69996,-3.22778 -9.69996,-7.20943c0,-3.98165 4.34283,-7.20943 9.69996,-7.20943z" data-paper-data="{&quot;index&quot;:null}" fill="#181818" stroke-linecap="butt"/><path d="M118.3918,259.58264c6.44304,0 8.25807,3.46252 8.25807,7.73375c0,4.27123 -5.22311,7.73375 -11.66617,7.73375c-6.44304,0 -11.66616,-1.10307 -11.66616,-5.3743c0,-1.64962 4.43664,-10.0932 15.07426,-10.0932z" data-paper-data="{&quot;index&quot;:null}" fill="#181818" stroke-linecap="butt"/><path d="M91.75724,248.3873l2.46412,-33.20313l10.19624,0.75669l-2.46412,33.20314z" fill="#181818" stroke-linecap="butt"/><path d="M91.60051,212.85317l18.70309,1.78237l-5.27299,5.12957l4.94457,5.88786l-22.25447,-0.07418l6.09012,-6.25198z" fill="#0e0e0e" stroke-linecap="round"/><path d="M144.72247,104.85857c0.18691,-2.74461 2.56339,-4.81803 5.30797,-4.63112c2.74461,0.18691 4.81803,2.56339 4.63112,5.30798c-0.18691,2.74461 -2.56339,4.81803 -5.30798,4.63112c-2.74461,-0.18691 -4.81803,-2.56339 -4.63112,-5.30797z" fill="#181818" stroke-linecap="butt"/><path d="M93.80824,203.4614c0.18691,-2.74461 2.56339,-4.81804 5.30797,-4.63112c2.74461,0.18691 4.81803,2.56339 4.63112,5.30797c-0.18691,2.74461 -2.56339,4.81803 -5.30797,4.63112c-2.74461,-0.18691 -4.81803,-2.56338 -4.63112,-5.30797z" fill="#181818" stroke-linecap="butt"/><path d="M109.49942,186.09209l-1.24975,-4.90535l19.65033,-5.50029l-0.25027,11.59831c0,0 -5.20943,-1.4538 -8.26555,-1.65462c-2.99266,-0.19665 -9.88477,0.46195 -9.88477,0.46195z" fill="#ff1515" stroke-linecap="butt"/></g><g stroke="#000000" stroke-width="2"><path d="M164.10779,90.89653c10.75951,2.42221 14.90876,9.70947 14.53315,11.378c-0.97255,4.32019 -8.0911,6.50991 -14.60798,5.0428c-6.51692,-1.46712 -11.01146,-6.15863 -10.03889,-10.47881c0.97258,-4.3202 3.59684,-7.40914 10.11372,-5.94201z" data-paper-data="{&quot;index&quot;:null}" fill="#ff6b00" stroke-linecap="butt"/><path d="M191.13462,195.28606c-7.98881,9.46301 -22.13626,10.6581 -31.59927,2.6693c-9.46301,-7.98881 -10.65811,-22.13627 -2.66931,-31.59927c7.98881,-9.46301 22.13625,-10.65811 31.59926,-2.66932c9.46301,7.98881 10.65811,22.13627 2.66931,31.59927z" fill="#ff6b00" stroke-linecap="butt"/><path d="M191.82081,120.52926l9.49392,33.18756l-10.19145,2.91546l-9.49393,-33.18756z" data-paper-data="{&quot;index&quot;:null}" fill="#ff6b00" stroke-linecap="butt"/><path d="M196.70164,210.67818c0,0 -4.02008,-0.96994 -6.4522,-2.25549c-1.92681,-1.01844 -6.98096,-4.84476 -6.98096,-4.84476" fill="none" stroke-linecap="round"/><path d="M208.81437,217.25922c-2.36528,3.00963 -6.72252,3.53197 -9.73215,1.16667c-3.00963,-2.36528 -3.53197,-6.72249 -1.16666,-9.73213c2.36528,-3.00963 6.72253,-3.53199 9.73215,-1.16669c3.00963,2.36528 3.53197,6.72252 1.16669,9.73215z" fill="#ff6b00" stroke-linecap="butt"/><path d="M198.76298,195.79635l-14.97424,8.88742l8.83902,45.26946l-62.69828,-12.79652l24.79639,-38.03835l-10.39398,-13.9231z" data-paper-data="{&quot;index&quot;:null}" fill="#ffa340" stroke-linecap="butt"/><path d="M154.77919,105.36421c10.72748,-2.56039 17.82714,2.04572 18.22419,3.70928c1.02807,4.30728 -4.56688,9.51775 -11.06437,11.06855c-6.49748,1.5508 -12.59813,-0.68377 -13.6262,-4.99109c-1.02806,-4.30732 -0.03111,-8.23595 6.46637,-9.78677z" data-paper-data="{&quot;index&quot;:null}" fill="#ff6b00" stroke-linecap="butt"/><path d="M170.62154,128.88013c1.74894,2.25296 1.34036,5.49716 -0.91262,7.24609c-2.25296,1.74894 -5.49716,1.34036 -7.24608,-0.9126c-1.74894,-2.25296 -1.34035,-5.49717 0.91261,-7.24609c2.25296,-1.74894 5.49716,-1.34036 7.24609,0.91262z" fill="#ff6b00" stroke-linecap="butt"/><path d="M173.39407,134.85737c1.74894,2.25296 1.34036,5.49716 -0.91262,7.24609c-2.25296,1.74894 -5.49716,1.34036 -7.24608,-0.9126c-1.74894,-2.25296 -1.34036,-5.49716 0.9126,-7.24608c2.25296,-1.74894 5.49716,-1.34036 7.24608,0.91261z" fill="#ff6b00" stroke-linecap="butt"/></g><g><g><path d="M353.36275,78.81113c-2.82435,0 -5.11396,-2.2896 -5.11396,-5.11395c0,-2.82435 2.2896,-5.11395 5.11396,-5.11395c2.82435,0 5.11395,2.2896 5.11395,5.11395c0,2.82435 -2.2896,5.11395 -5.11395,5.11395z" data-paper-data="{&quot;index&quot;:null}" fill="#0debff" stroke="#000000" stroke-width="2" stroke-linecap="butt"/><path d="M289.94579,111.49025c-10.1585,6.87037 -23.96314,4.2048 -30.8335,-5.9537c-6.87036,-10.15851 -4.2048,-23.96313 5.95372,-30.83349c10.1585,-6.87036 23.96312,-4.20479 30.83349,5.95371c6.87036,10.15851 4.2048,23.96312 -5.95371,30.83349z" data-paper-data="{&quot;index&quot;:null}" fill="#0debff" stroke="#000000" stroke-width="2" stroke-linecap="butt"/><path d="M282.69161,149.62568v-34.18272h10.49706v34.18272z" data-paper-data="{&quot;index&quot;:null}" fill="#0debff" stroke="#000000" stroke-width="2" stroke-linecap="butt"/><path d="M229.3288,155.1014c-2.82435,0 -5.11395,-2.2896 -5.11395,-5.11396c0,-2.82435 2.2896,-5.11395 5.11395,-5.11395c2.82435,0 5.11395,2.2896 5.11395,5.11395c0,2.82435 -2.2896,5.11396 -5.11395,5.11396z" data-paper-data="{&quot;index&quot;:null}" fill="#0debff" stroke="#000000" stroke-width="2" stroke-linecap="butt"/><path d="M285.81959,71.07294c0,0 5.57099,-2.89323 7.62147,-3.56643c2.58828,-0.84977 6.67403,-1.12696 6.67403,-1.12696" data-paper-data="{&quot;index&quot;:null}" fill="none" stroke="#000000" stroke-width="2" stroke-linecap="round"/><path d="M310.27522,71.27876c-3.33184,1.80758 -7.49818,0.57192 -9.30576,-2.75994c-1.80757,-3.33185 -0.57192,-7.49817 2.75993,-9.30575c3.33184,-1.80757 7.49817,-0.57193 9.30576,2.75993c1.80757,3.33185 0.57192,7.49817 -2.75993,9.30575z" data-paper-data="{&quot;index&quot;:null}" fill="#0debff" stroke="#000000" stroke-width="2" stroke-linecap="butt"/><path d="M310.84371,164.94426c2.73572,-3.4272 7.63322,-0.9669 12.80307,3.15985c5.16986,4.12676 7.1431,10.25046 4.40738,13.67767c-2.73572,3.4272 -6.40982,5.04297 -11.57966,0.91621c-8.53555,-6.81338 -6.68737,-16.43009 -5.63079,-17.75374z" data-paper-data="{&quot;index&quot;:null}" fill="#0debff" stroke="#000000" stroke-width="2" stroke-linecap="butt"/><path d="M252.47611,97.11074l-2.43962,-27.71339l38.65128,-10.82379l12.30805,24.94985z" data-paper-data="{&quot;index&quot;:null}" fill="url(#color-2)" stroke="#000000" stroke-width="2" stroke-linecap="butt"/><g data-paper-data="{&quot;index&quot;:null}" stroke="#53acb4" stroke-width="1" stroke-linecap="butt"><path d="M302.32773,86.02617l35.76696,-5.42562l-30.25697,19.83l-76.49438,21.00475z" data-paper-data="{&quot;index&quot;:null}" fill="url(#color-3)"/><path d="M354.73798,79.45126l-23.92552,6.74621l-2.00704,-5.24686l22.11919,-11.46839z" fill="#76f4ff"/><path d="M325.34967,85.32543l-10.58493,-17.28885l14.64496,6.41086l5.97593,15.7602l-6.38025,15.05722z" fill="#76f4ff"/></g><path d="M258.47626,164.91958c-2.94753,3.24684 -7.67918,0.48094 -12.57694,-3.96532c-4.89778,-4.44627 -6.47875,-10.68277 -3.53121,-13.92961c2.94753,-3.24684 6.71669,-4.62637 11.61445,-0.1801c8.08633,7.3409 5.63209,16.82107 4.49371,18.07505z" data-paper-data="{&quot;index&quot;:null}" fill="#0debff" stroke="#000000" stroke-width="2" stroke-linecap="butt"/></g><g fill="#ffffff" stroke="#000000" stroke-width="0" stroke-linecap="butt"><path d="M227.45125,120.41569l3.54875,-18.71626l3.54875,18.71626l-3.54875,18.71625z"/><path d="M231,116.86694l18.71625,3.54875l-18.71625,3.54874l-18.71625,-3.54874z"/></g></g></g></g></svg>