<svg version="1.1" xmlns="http://www.w3.org/2000/svg" xmlns:xlink="http://www.w3.org/1999/xlink" width="198.49928" height="91.66058" viewBox="0,0,198.49928,91.66058"><defs><radialGradient cx="212.27631" cy="146.0311" r="18.84183" gradientUnits="userSpaceOnUse" id="color-1"><stop offset="0" stop-color="#ffffff"/><stop offset="1" stop-color="#0debff"/></radialGradient></defs><g transform="translate(-191.1018,-139.24957)"><g data-paper-data="{&quot;isPaintingLayer&quot;:true}" fill-rule="nonzero" stroke-linejoin="miter" stroke-miterlimit="10" stroke-dasharray="" stroke-dashoffset="0" style="mix-blend-mode: normal"><path d="M268.64146,212.13807c4.31544,2.41919 4.23105,5.41983 2.62731,8.28064c-1.60374,2.86081 -6.40218,3.21881 -10.71764,0.79962c-4.31544,-2.41919 -7.39965,-5.11915 -5.79591,-7.97996c0.61939,-1.1049 6.76132,-5.09443 13.88624,-1.10028z" data-paper-data="{&quot;index&quot;:null}" fill="#0debff" stroke="#000000" stroke-width="2" stroke-linecap="butt"/><g fill="#76f4ff" stroke="#53acb4" stroke-width="1" stroke-linecap="butt"><path d="M389.39948,230.42223l-77.40909,-17.33275l-31.16824,-18.36444l35.98501,3.71368z" data-paper-data="{&quot;index&quot;:null}"/><path d="M267.47658,184.23123l22.64096,10.40044l-1.75453,5.33662l-24.22004,-5.59749z"/><path d="M291.07738,218.92781l-7.09109,-14.7358l5.2175,-16.02726l14.32256,-7.102l-9.74837,17.77398z"/></g><path d="M261.93701,185.21891c1.78945,-1.12239 4.14997,-0.58162 5.27236,1.20783c1.12239,1.78945 0.58162,4.14997 -1.20783,5.27236c-1.78945,1.12239 -4.14997,0.58162 -5.27236,-1.20783c-1.12239,-1.78945 -0.58162,-4.14997 1.20783,-5.27236z" fill="#0debff" stroke="#000000" stroke-width="2" stroke-linecap="butt"/><path d="M241.8501,207.36317l-18.95329,-17.15652l5.26853,-5.82031l18.95329,17.15652z" data-paper-data="{&quot;index&quot;:null}" fill="#0debff" stroke="#000000" stroke-width="2" stroke-linecap="butt"/><path d="M195.09799,196.33895c0,-2.11232 1.71238,-3.8247 3.8247,-3.8247c2.11232,0 3.8247,1.71238 3.8247,3.8247c0,2.11232 -1.71238,3.8247 -3.8247,3.8247c-2.11232,0 -3.8247,-1.71238 -3.8247,-3.8247z" fill="#0debff" stroke="#000000" stroke-width="2" stroke-linecap="butt"/><path d="M279.2648,213.3754c4.9109,0.59882 5.97252,3.40665 5.57555,6.6622c-0.39697,3.25555 -4.69985,5.40925 -9.61077,4.81044c-4.9109,-0.59882 -8.78947,-1.92501 -8.3925,-5.18057c0.15332,-1.25735 4.31969,-7.28073 12.42772,-6.29206z" data-paper-data="{&quot;index&quot;:null}" fill="#0debff" stroke="#000000" stroke-width="2" stroke-linecap="butt"/><path d="M212.38043,161.32688c3.96081,-8.27262 13.87796,-11.76803 22.15058,-7.80723c8.27262,3.96081 11.76803,13.87796 7.80723,22.15058c-3.96081,8.27262 -13.87796,11.76803 -22.15058,7.80723c-8.27262,-3.96081 -11.76803,-13.87796 -7.80723,-22.15058z" fill="#0debff" stroke="#000000" stroke-width="2" stroke-linecap="butt"/><path d="M201.75326,159.64671c0,0 2.49209,-1.7804 4.39101,-2.51877c1.50435,-0.58495 6.09701,-1.55941 6.09701,-1.55941" fill="none" stroke="#000000" stroke-width="2" stroke-linecap="round"/><path d="M192.1961,163.23734c-0.53818,-2.78341 1.28193,-5.47609 4.06534,-6.01427c2.78341,-0.53818 5.47609,1.28193 6.01427,4.06534c0.53818,2.78341 -1.28193,5.47609 -4.06534,6.01427c-2.78341,0.53818 -5.47609,-1.28193 -6.01427,-4.06534z" fill="#0debff" stroke="#000000" stroke-width="2" stroke-linecap="butt"/><path d="M208.26922,165.38251l0.90622,-20.78712l29.71843,-4.23864l6.68147,19.70491z" fill="url(#color-1)" stroke="#000000" stroke-width="2" stroke-linecap="butt"/></g></g></svg>