<svg version="1.1" xmlns="http://www.w3.org/2000/svg" xmlns:xlink="http://www.w3.org/1999/xlink" width="70.19279" height="84.55801" viewBox="0,0,70.19279,84.55801"><g transform="translate(-205.92898,-134.82067)"><g data-paper-data="{&quot;isPaintingLayer&quot;:true}" fill-rule="nonzero" stroke="#000000" stroke-width="2" stroke-linejoin="miter" stroke-miterlimit="10" stroke-dasharray="" stroke-dashoffset="0" style="mix-blend-mode: normal"><path d="M235.30955,197.84344l3.30559,-25.35048l7.78479,1.01511l-3.30559,25.35048z" fill="#e80000" stroke-linecap="butt"/><path d="M221.09244,178.09966c0,-2.11232 1.71238,-3.8247 3.8247,-3.8247c2.11232,0 3.8247,1.71238 3.8247,3.8247c0,2.11232 -1.71238,3.8247 -3.8247,3.8247c-2.11232,0 -3.8247,-1.71238 -3.8247,-3.8247z" fill="#e80000" stroke-linecap="butt"/><path d="M255.04418,191.3441c0,-2.11232 1.71238,-3.8247 3.8247,-3.8247c2.11232,0 3.8247,1.71238 3.8247,3.8247c0,2.11232 -1.71238,3.8247 -3.8247,3.8247c-2.11232,0 -3.8247,-1.71238 -3.8247,-3.8247z" fill="#e80000" stroke-linecap="butt"/><path d="M265.39629,203.82592c3.7333,-3.24623 6.52953,-2.15442 8.68153,0.32047c2.152,2.47489 0.87011,7.11278 -2.8632,10.35901c-3.7333,3.24623 -7.31551,5.23868 -9.46751,2.76379c-0.83114,-0.95584 -2.51458,-8.08366 3.64919,-13.44327z" data-paper-data="{&quot;index&quot;:null}" fill="#e80000" stroke-linecap="butt"/><path d="M215.36137,215.13798c-4.31841,2.41389 -6.83217,0.77317 -8.43239,-2.0896c-1.60022,-2.86276 0.6033,-7.14036 4.92172,-9.55426c4.31841,-2.41389 8.23245,-3.63142 9.83267,-0.76865c0.61804,1.10565 0.8078,8.42711 -6.32201,12.4125z" data-paper-data="{&quot;index&quot;:null}" fill="#e80000" stroke-linecap="butt"/><path d="M222.67796,152.8282c0,0 2.10697,-2.22284 3.83029,-3.3097c1.36524,-0.86102 5.68789,-2.69317 5.68789,-2.69317" fill="none" stroke-linecap="round"/><path d="M213.98064,158.17502c-1.05895,-2.62976 0.21443,-5.62005 2.84419,-6.679c2.62976,-1.05895 5.62005,0.21443 6.679,2.84419c1.05895,2.62976 -0.21443,5.62005 -2.84419,6.679c-2.62976,1.05895 -5.62005,-0.21443 -6.679,-2.84419z" fill="#e80000" stroke-linecap="butt"/><path d="M231.61474,152.42791c0,-9.17193 7.43532,-16.60724 16.60724,-16.60724c9.17193,0 16.60724,7.43532 16.60724,16.60724c0,9.17193 -7.43532,16.60724 -16.60724,16.60724c-9.17193,0 -16.60724,-7.43532 -16.60724,-16.60724z" fill="#e80000" stroke-linecap="butt"/><path d="M230.53899,150.9509l-1.3957,-5.42329l32.34602,-8.32434l1.3957,5.42328z" fill="#ff2121" stroke-linecap="butt"/></g></g></svg>