<svg version="1.1" xmlns="http://www.w3.org/2000/svg" xmlns:xlink="http://www.w3.org/1999/xlink" width="68.22061" height="104.27047" viewBox="0,0,68.22061,104.27047"><defs><linearGradient x1="216.90502" y1="158.67263" x2="190.17013" y2="172.63894" gradientUnits="userSpaceOnUse" id="color-1"><stop offset="0" stop-color="#e80000" stop-opacity="0"/><stop offset="1" stop-color="#e80000"/></linearGradient><linearGradient x1="243.35547" y1="147.29523" x2="268.60235" y2="163.8" gradientUnits="userSpaceOnUse" id="color-2"><stop offset="0" stop-color="#e80000" stop-opacity="0"/><stop offset="1" stop-color="#e80000"/></linearGradient></defs><g transform="translate(-196.83853,-129.18068)"><g data-paper-data="{&quot;isPaintingLayer&quot;:true}" fill-rule="nonzero" stroke="#000000" stroke-linejoin="miter" stroke-miterlimit="10" stroke-dasharray="" stroke-dashoffset="0" style="mix-blend-mode: normal"><path d="M249.44503,217.42338c-4.00618,2.90277 -6.69471,1.56754 -8.61902,-1.08825c-1.9243,-2.65579 -0.23661,-7.16189 3.76958,-10.06466c4.00618,-2.90277 7.75081,-4.57006 9.67512,-1.91427c0.7432,1.02571 1.78863,8.27462 -4.82568,13.06717z" data-paper-data="{&quot;index&quot;:null}" fill="#e80000" stroke-width="2" stroke-linecap="butt"/><path d="M200.24941,183.42645c-0.18779,-2.10395 1.36556,-3.9618 3.46954,-4.14959c2.10395,-0.18779 3.9618,1.36556 4.14959,3.46954c0.18779,2.10395 -1.36556,3.9618 -3.46954,4.14959c-2.10395,0.18779 -3.9618,-1.36556 -4.14959,-3.46954z" data-paper-data="{&quot;index&quot;:null}" fill="#e80000" stroke-width="2" stroke-linecap="butt"/><path d="M198.94183,188.55839c-5.21775,-6.89542 0.5196,-11.33819 3.77033,-23.53789c3.62809,-13.61587 -5.64255,-26.49091 -5.64255,-26.49091c0,0 18.1529,6.2443 19.4908,21.34006c0.89812,10.1336 0.52568,19.29298 -3.41217,25.70505c-3.93784,6.41207 -8.98867,9.87908 -14.2064,2.98368z" data-paper-data="{&quot;index&quot;:null}" fill="url(#color-1)" stroke-width="0" stroke-linecap="butt"/><path d="M220.91407,150.72433c0.00463,-9.17193 7.44369,-16.60349 16.61561,-16.59887c9.17193,0.00463 16.60349,7.44369 16.59887,16.61561c-0.00463,9.17193 -7.44369,16.60349 -16.61561,16.59887c-9.17193,-0.00463 -16.60349,-7.44369 -16.59887,-16.61561z" fill="#e80000" stroke-width="2" stroke-linecap="butt"/><path d="M241.58346,196.41237l-4.49638,-25.16657l7.72832,-1.38077l4.49638,25.16657z" fill="#e80000" stroke-width="2" stroke-linecap="butt"/><path d="M253.11856,228.09579c-1.78077,4.61567 -4.76291,4.95893 -7.82274,3.77842c-3.05983,-1.18051 -4.09672,-5.87924 -2.31594,-10.49493c1.78077,-4.61567 4.01459,-8.05255 7.07442,-6.87204c1.18176,0.45593 6.00435,5.96795 3.06426,13.58854z" data-paper-data="{&quot;index&quot;:null}" fill="#e80000" stroke-width="2" stroke-linecap="butt"/><path d="M219.83906,149.24677l-1.39296,-5.424l32.35021,-8.30803l1.39296,5.42399z" fill="#ff2121" stroke-width="2" stroke-linecap="butt"/><path d="M219.53122,142.29601c0,0 3.03087,-0.44059 5.05706,-0.22682c1.60517,0.16937 6.13383,1.4076 6.13383,1.4076" fill="none" stroke-width="2" stroke-linecap="round"/><path d="M208.26764,141.22664c0.79702,-2.72062 3.64861,-4.28001 6.36923,-3.48301c2.72062,0.79702 4.28001,3.64861 3.48301,6.36923c-0.79702,2.72062 -3.64861,4.28001 -6.36923,3.48301c-2.72062,-0.79702 -4.28001,-3.64861 -3.48301,-6.36923z" fill="#e80000" stroke-width="2" stroke-linecap="butt"/><path d="M251.967,177.02549c-2.07568,-0.3919 -3.44062,-2.39226 -3.04873,-4.4679c0.3919,-2.07568 2.39226,-3.44062 4.4679,-3.04873c2.07568,0.3919 3.44062,2.39226 3.04873,4.4679c-0.3919,2.07568 -2.39226,3.44062 -4.4679,3.04873z" data-paper-data="{&quot;index&quot;:null}" fill="#e80000" stroke-width="2" stroke-linecap="butt"/><path d="M258.32125,178.78901c-5.86476,6.3542 -10.55374,2.41156 -13.84809,-4.35369c-3.29436,-6.76524 -2.77258,-15.91733 -0.89136,-25.9152c2.80239,-14.89357 21.47734,-19.33943 21.47734,-19.33943c0,0 -10.48102,11.9105 -8.19685,25.81508c2.04658,12.45839 7.32375,17.43905 1.45898,23.79326z" data-paper-data="{&quot;index&quot;:null}" fill="url(#color-2)" stroke-width="0" stroke-linecap="butt"/></g></g></svg>