<svg version="1.1" xmlns="http://www.w3.org/2000/svg" xmlns:xlink="http://www.w3.org/1999/xlink" width="68.14634" height="103.53854" viewBox="0,0,68.14634,103.53854"><g transform="translate(-210.2242,-124.36178)"><g data-paper-data="{&quot;isPaintingLayer&quot;:true}" fill-rule="nonzero" stroke="#000000" stroke-width="2" stroke-linejoin="miter" stroke-miterlimit="10" stroke-dasharray="" stroke-dashoffset="0" style="mix-blend-mode: normal"><path d="M235.40544,157.38719c-5.23595,-7.53055 -3.37576,-17.87984 4.15478,-23.11577c7.53055,-5.23595 17.87984,-3.37578 23.11577,4.15478c5.23595,7.53055 3.37576,17.87984 -4.15478,23.11577c-7.53055,5.23595 -17.87984,3.37578 -23.11577,-4.15477z" fill="#2d6a2b" stroke-linecap="butt"/><path d="M232.24615,137.19609c9.01533,-13.03328 22.34851,-11.8033 22.34851,-11.8033l-21.64707,34.80661c0,0 -10.39438,-8.99041 -0.70144,-23.00331z" fill="#367e33" stroke-linecap="round"/><path d="M237.94541,195.23491l7.16544,-24.54038l7.53603,2.2004l-7.16544,24.54038z" fill="#2d6a2b" stroke-linecap="butt"/><path d="M226.70164,178.77823c0.29293,-2.09192 2.22623,-3.55028 4.31815,-3.25734c2.09192,0.29293 3.55028,2.22623 3.25735,4.31814c-0.29293,2.09192 -2.22623,3.55028 -4.31815,3.25734c-2.09192,-0.29293 -3.55028,-2.22623 -3.25735,-4.31814z" fill="#2d6a2b" stroke-linecap="butt"/><path d="M269.75762,157.49151c0.29293,-2.09192 2.22623,-3.55028 4.31814,-3.25735c2.0919,0.29293 3.55028,2.22623 3.25735,4.31814c-0.29293,2.09192 -2.22623,3.55028 -4.31815,3.25734c-2.0919,-0.29293 -3.55028,-2.22623 -3.25734,-4.31813z" fill="#2d6a2b" stroke-linecap="butt"/><path d="M241.93863,223.7482c-2.83671,4.05323 -5.81404,3.67058 -8.50101,1.79006c-2.68698,-1.88051 -2.5656,-6.69077 0.27113,-10.744c2.83671,-4.05323 5.83024,-6.85337 8.51722,-4.97285c1.03776,0.72628 4.39615,7.23481 -0.28733,13.92679z" data-paper-data="{&quot;index&quot;:null}" fill="#2d6a2b" stroke-linecap="butt"/><path d="M220.5836,153.33031c0,0 1.5586,-2.63649 2.99639,-4.08007c1.13902,-1.14362 4.94465,-3.89303 4.94465,-3.89303" fill="none" stroke-linecap="round"/><path d="M213.29659,160.48091c-1.61838,-2.32763 -1.04342,-5.52649 1.2842,-7.14488c2.32763,-1.61838 5.5265,-1.04343 7.14488,1.2842c1.61838,2.32763 1.04343,5.5265 -1.2842,7.14488c-2.32763,1.61838 -5.5265,1.04343 -7.14488,-1.2842z" fill="#2d6a2b" stroke-linecap="butt"/><path d="M219.37611,212.86289c-4.55738,1.92506 -6.87575,0.0182 -8.15191,-3.003c-1.27617,-3.02119 1.3838,-7.03091 5.94119,-8.95597c4.55738,-1.92506 8.58145,-2.70538 9.85761,0.3158c0.49287,1.16683 -0.12253,8.46484 -7.64689,11.64316z" data-paper-data="{&quot;index&quot;:null}" fill="#2d6a2b" stroke-linecap="butt"/></g></g></svg>