<svg version="1.1" xmlns="http://www.w3.org/2000/svg" xmlns:xlink="http://www.w3.org/1999/xlink" width="126.78428" height="79.27444" viewBox="0,0,126.78428,79.27444"><defs><radialGradient cx="266.0263" cy="156.0311" r="18.84183" gradientUnits="userSpaceOnUse" id="color-1"><stop offset="0" stop-color="#ffffff"/><stop offset="1" stop-color="#0debff"/></radialGradient></defs><g transform="translate(-211.85138,-149.24957)"><g data-paper-data="{&quot;isPaintingLayer&quot;:true}" fill-rule="nonzero" stroke-linejoin="miter" stroke-miterlimit="10" stroke-dasharray="" stroke-dashoffset="0" style="mix-blend-mode: normal"><g fill="#76f4ff" stroke="#53acb4" stroke-width="1" stroke-linecap="butt"><path d="M338.41473,154.69667l-71.16091,35.05303l-35.79369,5.24634l30.35594,-19.67814z" data-paper-data="{&quot;index&quot;:null}"/><path d="M214.48411,195.19362l24.1571,-6.10055l1.98073,5.25687l-22.37445,10.83172z"/><path d="M254.6278,207.41389l-14.76542,-7.02919l-5.98901,-15.75523l6.7005,-14.51473l3.55575,19.95749z"/></g><path d="M212.85139,198.82731c0.68972,-1.99654 2.86737,-3.05594 4.86392,-2.36622c1.99654,0.68972 3.05593,2.86737 2.36621,4.86391c-0.68972,1.99654 -2.86737,3.05594 -4.86391,2.36622c-1.99654,-0.68972 -3.05594,-2.86737 -2.36622,-4.86391z" fill="#0debff" stroke="#000000" stroke-width="2" stroke-linecap="butt"/><path d="M241.23528,206.72817l18.6876,-17.44555l5.3573,5.73871l-18.6876,17.44554z" data-paper-data="{&quot;index&quot;:null}" fill="#0debff" stroke="#000000" stroke-width="2" stroke-linecap="butt"/><path d="M222.88336,215.61447c4.11347,0 7.4481,2.47844 7.4481,5.53575c0,3.05731 -3.33463,5.53575 -7.4481,5.53575c-4.11347,0 -7.4481,-2.47844 -7.4481,-5.53575c0,-3.05731 3.33463,-5.53575 7.4481,-5.53575z" data-paper-data="{&quot;index&quot;:null}" fill="#0debff" stroke="#000000" stroke-width="2" stroke-linecap="butt"/><path d="M272.35278,215.68502c4.94675,0.0717 6.30176,2.75029 6.25423,6.02961c-0.04753,3.27932 -4.0962,5.87962 -9.04297,5.80793c-4.94675,-0.0717 -8.94464,-0.9767 -8.89711,-4.25602c0.01835,-1.26653 3.51862,-7.69987 11.68585,-7.5815z" data-paper-data="{&quot;index&quot;:null}" fill="#0debff" stroke="#000000" stroke-width="2" stroke-linecap="butt"/><path d="M266.13043,171.32688c3.96081,-8.27262 13.87796,-11.76803 22.15058,-7.80723c8.27262,3.96081 11.76803,13.87796 7.80723,22.15058c-3.96081,8.27262 -13.87796,11.76803 -22.15058,7.80723c-8.27262,-3.96081 -11.76803,-13.87796 -7.80723,-22.15058z" fill="#0debff" stroke="#000000" stroke-width="2" stroke-linecap="butt"/><path d="M255.50327,169.64671c0,0 2.49209,-1.7804 4.39101,-2.51877c1.50435,-0.58495 6.09701,-1.55941 6.09701,-1.55941" fill="none" stroke="#000000" stroke-width="2" stroke-linecap="round"/><path d="M245.94611,173.23734c-0.53818,-2.78341 1.28193,-5.47609 4.06534,-6.01427c2.78341,-0.53818 5.47609,1.28193 6.01427,4.06534c0.53818,2.78341 -1.28193,5.47609 -4.06534,6.01427c-2.78341,0.53818 -5.47609,-1.28193 -6.01427,-4.06534z" fill="#0debff" stroke="#000000" stroke-width="2" stroke-linecap="butt"/><path d="M262.01921,175.38251l0.90622,-20.78712l29.71843,-4.23864l6.68147,19.70491z" fill="url(#color-1)" stroke="#000000" stroke-width="2" stroke-linecap="butt"/><path d="M219.91067,189.50924c0.06442,-2.11142 52.13523,-1.71136 79.29645,-0.95677c27.16122,0.75459 30.12759,3.07797 30.06317,5.18939c-0.06442,2.11142 -3.13524,3.21136 -30.29645,2.45677c-27.16122,-0.75459 -79.12759,-4.57797 -79.06317,-6.68939z" fill="#0debff" stroke="#000000" stroke-width="2" stroke-linecap="butt"/></g></g></svg>