<svg version="1.1" xmlns="http://www.w3.org/2000/svg" xmlns:xlink="http://www.w3.org/1999/xlink" width="98.43366" height="81.04193" viewBox="0,0,98.43366,81.04193"><g transform="translate(-194.32403,-125.81176)"><g data-paper-data="{&quot;isPaintingLayer&quot;:true}" fill-rule="nonzero" stroke="#000000" stroke-width="2" stroke-linejoin="miter" stroke-miterlimit="10" stroke-dasharray="" stroke-dashoffset="0" style="mix-blend-mode: normal"><path d="M279.77412,160.89822c0.90309,-4.8647 3.89865,-5.73861 7.28002,-5.12615c3.38141,0.61246 5.39047,5.05257 4.48737,9.91727c-0.39435,2.12425 -2.91891,17.631 -13.94387,26.62969c-14.22301,11.60897 -55.09916,8.74343 -57.004,8.39842c-0.7658,-0.1387 34.29977,-1.59744 46.34718,-14.55055c8.49774,-9.13659 12.21659,-21.94666 12.83328,-25.26869z" data-paper-data="{&quot;index&quot;:null}" fill="#2d6a2b" stroke-linecap="butt"/><path d="M216.99769,151.05498c-1.88232,-8.97671 3.86883,-17.77967 12.84552,-19.66198c8.97671,-1.88232 17.77967,3.86883 19.66198,12.84553c1.88232,8.97671 -3.86883,17.77967 -12.84552,19.66198c-8.97671,1.88232 -17.77967,-3.86883 -19.66198,-12.84553z" fill="#2d6a2b" stroke-linecap="butt"/><path d="M221.96772,131.23175c13.3864,-8.48212 25.18263,-2.14686 25.18263,-2.14686l-33.51304,23.60026c0,0 -6.06216,-12.33373 8.33041,-21.45341z" fill="#367e33" stroke-linecap="round"/><path d="M239.85635,192.07323l-9.39683,-23.77547l7.30113,-2.88564l9.39683,23.77547z" fill="#2d6a2b" stroke-linecap="butt"/><path d="M209.85378,169.47415c0,-2.11232 1.71238,-3.8247 3.8247,-3.8247c2.11232,0 3.8247,1.71238 3.8247,3.8247c0,2.11232 -1.71238,3.8247 -3.8247,3.8247c-2.11232,0 -3.8247,-1.71238 -3.8247,-3.8247z" fill="#2d6a2b" stroke-linecap="butt"/><path d="M244.03188,167.92691c0,-2.11232 1.71238,-3.8247 3.8247,-3.8247c2.11232,0 3.8247,1.71238 3.8247,3.8247c0,2.11232 -1.71238,3.8247 -3.8247,3.8247c-2.11232,0 -3.8247,-1.71238 -3.8247,-3.8247z" fill="#2d6a2b" stroke-linecap="butt"/><path d="M222.3672,205.85369c-4.94728,0 -6.34095,-2.65869 -6.34095,-5.93835c0,-3.27966 4.01057,-5.93835 8.95785,-5.93835c4.94728,0 8.95785,0.84699 8.95785,4.12665c0,1.26666 -3.40667,7.75005 -11.57475,7.75005z" data-paper-data="{&quot;index&quot;:null}" fill="#2d6a2b" stroke-linecap="butt"/><path d="M204.93393,141.536c0,0 2.46385,-1.81929 4.35095,-2.58739c1.49499,-0.60849 6.07178,-1.65492 6.07178,-1.65492" fill="none" stroke-linecap="round"/><path d="M195.43433,145.27622c-0.58181,-2.77462 1.19582,-5.49553 3.97044,-6.07734c2.77462,-0.58181 5.49554,1.19582 6.07734,3.97044c0.58181,2.77462 -1.19582,5.49553 -3.97044,6.07734c-2.77462,0.58181 -5.49553,-1.19582 -6.07734,-3.97044z" fill="#2d6a2b" stroke-linecap="butt"/></g></g></svg>