<svg version="1.1" xmlns="http://www.w3.org/2000/svg" xmlns:xlink="http://www.w3.org/1999/xlink" width="8.06232" height="19.28498" viewBox="0,0,8.06232,19.28498"><defs><linearGradient x1="240.78132" y1="173.51436" x2="240.78132" y2="189.21143" gradientUnits="userSpaceOnUse" id="color-1"><stop offset="0" stop-color="#ff0000"/><stop offset="1" stop-color="#ff7070"/></linearGradient><linearGradient x1="238.49142" y1="173.81336" x2="238.49142" y2="189.5104" gradientUnits="userSpaceOnUse" id="color-2"><stop offset="0" stop-color="#ff0000"/><stop offset="1" stop-color="#ff7070"/></linearGradient><linearGradient x1="239.57943" y1="170.82344" x2="239.57943" y2="190.1084" gradientUnits="userSpaceOnUse" id="color-3"><stop offset="0" stop-color="#ff0000"/><stop offset="1" stop-color="#ff7070"/></linearGradient></defs><g transform="translate(-235.60522,-170.82344)"><g data-paper-data="{&quot;isPaintingLayer&quot;:true}" fill-rule="nonzero" stroke="none" stroke-width="0" stroke-linecap="butt" stroke-linejoin="miter" stroke-miterlimit="10" stroke-dasharray="" stroke-dashoffset="0" style="mix-blend-mode: normal"><path d="M243.66754,181.36289c0,4.33463 -1.29221,7.84854 -2.88622,7.84854c-1.59401,0 -2.88622,-3.51391 -2.88622,-7.84854c0,-4.33463 1.29221,-7.84854 2.88622,-7.84854c1.59401,0 2.88622,3.51391 2.88622,7.84854z" fill="url(#color-1)"/><path d="M241.37766,181.66189c0,4.33463 -1.29221,7.84854 -2.88622,7.84854c-1.59401,0 -2.88622,-3.51391 -2.88622,-7.84854c0,-4.33463 1.29221,-7.84854 2.88622,-7.84854c1.59401,0 2.88622,3.51391 2.88622,7.84854z" fill="url(#color-2)"/><path d="M239.57943,170.82344c1.59401,0 2.88622,4.31709 2.88622,9.64249c0,5.3254 -1.29221,9.64249 -2.88622,9.64249c-1.59401,0 -2.88622,-4.31709 -2.88622,-9.64249c0,-5.3254 1.29221,-9.64249 2.88622,-9.64249z" data-paper-data="{&quot;origPos&quot;:null}" fill="url(#color-3)"/></g></g></svg>