<svg version="1.1" xmlns="http://www.w3.org/2000/svg" xmlns:xlink="http://www.w3.org/1999/xlink" width="63.04624" height="95.68" viewBox="0,0,63.04624,95.68"><g transform="translate(-206.35385,-145.31455)"><g data-paper-data="{&quot;isPaintingLayer&quot;:true}" fill-rule="nonzero" stroke="#000000" stroke-width="2" stroke-linejoin="miter" stroke-miterlimit="10" stroke-dasharray="" stroke-dashoffset="0" style="mix-blend-mode: normal"><path d="M253.79418,171.4685c0,-2.11232 1.71238,-3.8247 3.8247,-3.8247c2.11232,0 3.8247,1.71238 3.8247,3.8247c0,2.11232 -1.71238,3.8247 -3.8247,3.8247c-2.11232,0 -3.8247,-1.71238 -3.8247,-3.8247z" fill="#e80000" stroke-linecap="butt"/><path d="M217.30435,155.24103c0,0 2.70102,-1.4439 4.67934,-1.93106c1.56726,-0.38593 6.24727,-0.75956 6.24727,-0.75956" fill="none" stroke-linecap="round"/><path d="M207.36375,157.56832c-0.17448,-2.82959 1.97789,-5.26487 4.80748,-5.43936c2.82959,-0.17448 5.26487,1.97789 5.43936,4.80748c0.17448,2.82959 -1.97789,5.26487 -4.80748,5.43936c-2.82959,0.17448 -5.26487,-1.97789 -5.43936,-4.80748z" fill="#e80000" stroke-linecap="butt"/><path d="M225.91038,157.68285c2.89587,-8.70277 12.29843,-13.41018 21.00119,-10.51431c8.70277,2.89587 13.41018,12.29843 10.51431,21.00119c-2.89587,8.70277 -12.29843,13.41018 -21.00119,10.51431c-8.70277,-2.89587 -13.41018,-12.29843 -10.51431,-21.00119z" fill="#e80000" stroke-linecap="butt"/><path d="M231.40914,209.60961l-5.11332,-25.04851l7.69206,-1.57023l5.11332,25.04851z" fill="#e80000" stroke-linecap="butt"/><path d="M212.34245,191.97397c0,-2.11232 1.71238,-3.8247 3.8247,-3.8247c2.11232,0 3.8247,1.71238 3.8247,3.8247c0,2.11232 -1.71238,3.8247 -3.8247,3.8247c-2.11232,0 -3.8247,-1.71238 -3.8247,-3.8247z" fill="#e80000" stroke-linecap="butt"/><path d="M263.28638,210.88723c2.70625,4.14147 1.24297,6.76249 -1.5025,8.55653c-2.74547,1.79403 -7.16497,-0.10894 -9.87122,-4.25041c-2.70625,-4.14147 -4.19108,-7.96212 -1.4456,-9.75615c1.06035,-0.69289 8.35124,-1.38763 12.81933,5.45004z" data-paper-data="{&quot;index&quot;:null}" fill="#e80000" stroke-linecap="butt"/><path d="M225.356,155.94173l0.388,-5.58655l33.31973,2.31415l-0.388,5.58654z" fill="#ff2121" stroke-linecap="butt"/><path d="M236.04029,234.53031c-0.76749,4.88739 -3.6102,5.85173 -6.85015,5.34294c-3.23995,-0.50878 -5.24429,-4.88324 -4.47679,-9.77064c0.76749,-4.88739 2.2264,-8.718 5.46636,-8.20922c1.25132,0.1965 7.12773,4.56772 5.86059,12.63691z" data-paper-data="{&quot;index&quot;:null}" fill="#e80000" stroke-linecap="butt"/></g></g></svg>