<svg version="1.1" xmlns="http://www.w3.org/2000/svg" xmlns:xlink="http://www.w3.org/1999/xlink" width="69.66259" height="129.25756" viewBox="0,0,69.66259,129.25756"><g transform="translate(-193.94012,-100.5594)"><g data-paper-data="{&quot;isPaintingLayer&quot;:true}" fill-rule="nonzero" stroke="#000000" stroke-width="2" stroke-linejoin="miter" stroke-miterlimit="10" stroke-dasharray="" stroke-dashoffset="0" style="mix-blend-mode: normal"><path d="M250.75494,181.54963c0,-2.11232 1.71238,-3.8247 3.8247,-3.8247c2.11232,0 3.8247,1.71238 3.8247,3.8247c0,2.11232 -1.71238,3.8247 -3.8247,3.8247c-2.11232,0 -3.8247,-1.71238 -3.8247,-3.8247z" fill="#ff6b00" stroke-linecap="butt"/><path d="M222.69733,155.07794c0,-9.17193 7.43532,-16.60724 16.60724,-16.60724c9.17193,0 16.60724,7.43532 16.60724,16.60724c0,9.17193 -7.43532,16.60724 -16.60724,16.60724c-9.17193,0 -16.60724,-7.43532 -16.60724,-16.60724z" fill="#ff6b00" stroke-linecap="butt"/><path d="M230.92503,198.75644l1.50916,-25.52049l7.837,0.46343l-1.50916,25.5205z" data-paper-data="{&quot;index&quot;:null}" fill="#ff6b00" stroke-linecap="butt"/><path d="M212.70481,189.00174c0,-2.11232 1.71238,-3.8247 3.8247,-3.8247c2.11232,0 3.8247,1.71238 3.8247,3.8247c0,2.11232 -1.71238,3.8247 -3.8247,3.8247c-2.11232,0 -3.8247,-1.71238 -3.8247,-3.8247z" fill="#ff6b00" stroke-linecap="butt"/><path d="M214.37126,154.06551c0,0 1.54746,-2.64306 2.97911,-4.09269c1.13419,-1.14842 4.92816,-3.91388 4.92816,-3.91388" fill="none" stroke-linecap="round"/><path d="M207.1145,161.24684c-1.62819,-2.32077 -1.06677,-5.52205 1.25401,-7.15025c2.32077,-1.62819 5.52204,-1.06676 7.15023,1.25401c1.62819,2.32077 1.06677,5.52205 -1.25401,7.15025c-2.32077,1.62819 -5.52204,1.06676 -7.15023,-1.25401z" fill="#ff6b00" stroke-linecap="butt"/><path d="M257.08642,194.52344c4.89455,0.72041 5.88621,3.55372 5.40863,6.79841c-0.47758,3.2447 -4.83254,5.29104 -9.7271,4.57063c-4.89455,-0.72041 -8.73903,-2.14238 -8.26145,-5.38708c0.18445,-1.25315 4.4989,-7.17137 12.57992,-5.98196z" data-paper-data="{&quot;index&quot;:null}" fill="#ff6b00" stroke-linecap="butt"/><path d="M218.13653,158.43364l4.22817,-12.18351l-26.62972,-21.39582l41.5955,-22.71252l4.14025,33.37304l12.53391,2.91357z" data-paper-data="{&quot;index&quot;:null}" fill="#ffa340" stroke-linecap="butt"/><path d="M228.94265,221.57704c0.82245,4.87844 -1.56756,6.69471 -4.80159,7.23992c-3.23402,0.54522 -6.52244,-2.96755 -7.3449,-7.846c-0.82245,-4.87844 -0.65397,-8.97401 2.58005,-9.51922c1.24903,-0.21057 8.20854,2.07088 9.56643,10.1253z" data-paper-data="{&quot;index&quot;:null}" fill="#ff6b00" stroke-linecap="butt"/></g></g></svg>