<svg version="1.1" xmlns="http://www.w3.org/2000/svg" xmlns:xlink="http://www.w3.org/1999/xlink" width="182.86993" height="78.12045" viewBox="0,0,182.86993,78.12045"><g transform="translate(-200.14238,-154.00718)"><g data-paper-data="{&quot;isPaintingLayer&quot;:true}" fill-rule="nonzero" stroke-linejoin="miter" stroke-miterlimit="10" stroke-dasharray="" stroke-dashoffset="0" style="mix-blend-mode: normal"><path d="M227.27938,204.97069l23.98664,-8.84389l2.71584,7.36598l-23.98664,8.84389z" fill="#2d6a2b" stroke="#000000" stroke-width="2" stroke-linecap="butt"/><path d="M287.71984,217.61812c0,-2.11232 1.71238,-3.8247 3.8247,-3.8247c2.11232,0 3.8247,1.71238 3.8247,3.8247c0,2.11232 -1.71238,3.8247 -3.8247,3.8247c-2.11232,0 -3.8247,-1.71238 -3.8247,-3.8247z" fill="#2d6a2b" stroke="#000000" stroke-width="2" stroke-linecap="butt"/><path d="M258.93282,213.38269c4.93244,-0.38296 6.52773,2.15988 6.7816,5.4297c0.25387,3.26982 -3.53887,6.23098 -8.4713,6.61393c-4.93244,0.38296 -8.99653,-0.15105 -9.2504,-3.42087c-0.09805,-1.26286 2.79655,-7.9905 10.94011,-8.62276z" data-paper-data="{&quot;index&quot;:null}" fill="#2d6a2b" stroke="#000000" stroke-width="2" stroke-linecap="butt"/><path d="M208.59048,214.61091c4.11347,0 7.4481,2.47844 7.4481,5.53575c0,3.05731 -3.33463,5.53575 -7.4481,5.53575c-4.11347,0 -7.4481,-2.47844 -7.4481,-5.53575c0,-3.05731 3.33463,-5.53575 7.4481,-5.53575z" data-paper-data="{&quot;index&quot;:null}" fill="#2d6a2b" stroke="#000000" stroke-width="2" stroke-linecap="butt"/><path d="M267.72273,177.8755c6.82103,-6.13171 17.32129,-5.57291 23.453,1.2481c6.13171,6.82103 5.57291,17.32129 -1.2481,23.453c-6.82103,6.13171 -17.32129,5.57291 -23.453,-1.2481c-6.13171,-6.82103 -5.57291,-17.32129 1.2481,-23.453z" fill="#2d6a2b" stroke="#000000" stroke-width="2" stroke-linecap="butt"/><path d="M287.36425,172.22999c14.05316,7.32468 14.49072,20.70733 14.49072,20.70733l-37.22826,-17.15089c0,0 7.6281,-11.43165 22.73755,-3.55644z" fill="#367e33" stroke="#000000" stroke-width="2" stroke-linecap="round"/><path d="M269.90504,162.66423c0,0 2.80984,1.21867 4.42101,2.46577c1.27638,0.98798 4.47767,4.42218 4.47767,4.42218" fill="none" stroke="#000000" stroke-width="2" stroke-linecap="round"/><path d="M261.90381,156.32293c2.10832,-1.89525 5.35385,-1.72253 7.24911,0.38578c1.89525,2.10832 1.72253,5.35385 -0.38578,7.24911c-2.10832,1.89525 -5.35385,1.72253 -7.24911,-0.38578c-1.89525,-2.10832 -1.72253,-5.35385 0.38578,-7.24911z" fill="#2d6a2b" stroke="#000000" stroke-width="2" stroke-linecap="butt"/><g stroke="#61ff00" stroke-width="3" stroke-linecap="round"><path d="M381.51231,221.07892c0,0 -34.64371,0.49533 -50.00859,0.04073c-13.77739,-0.40763 -37.93859,-2.64287 -37.93859,-2.64287" fill="none"/><path d="M350.33133,220.39376c0,0 -15.06494,-4.03769 -16.40681,-8.61704c-1.34184,-4.57935 4.40412,-5.19096 4.40412,-5.19096z" fill="#61ff00"/><path d="M309.49315,230.47257c0,0 -4.46112,-2.79358 -0.12174,-6.15844c4.33938,-3.36486 19.97504,-0.83966 19.97504,-0.83966z" data-paper-data="{&quot;index&quot;:null}" fill="#61ff00"/><path d="M353.12842,228.60224c0,0 -3.74162,-2.3783 -0.05193,-5.1976c3.6897,-2.8193 16.86358,-0.61525 16.86358,-0.61525z" data-paper-data="{&quot;index&quot;:null}" fill="#61ff00"/></g><path d="M284.55688,218.83815c0,-2.11232 1.71238,-3.8247 3.8247,-3.8247c2.11232,0 3.8247,1.71238 3.8247,3.8247c0,2.11232 -1.71238,3.8247 -3.8247,3.8247c-2.11232,0 -3.8247,-1.71238 -3.8247,-3.8247z" fill="#2d6a2b" stroke="#000000" stroke-width="2" stroke-linecap="butt"/></g></g></svg>