<svg version="1.1" xmlns="http://www.w3.org/2000/svg" xmlns:xlink="http://www.w3.org/1999/xlink" width="57.34243" height="89.99808" viewBox="0,0,57.34243,89.99808"><g transform="translate(-205.35238,-136.07047)"><g data-paper-data="{&quot;isPaintingLayer&quot;:true}" fill-rule="nonzero" stroke="#000000" stroke-width="2" stroke-linejoin="miter" stroke-miterlimit="10" stroke-dasharray="" stroke-dashoffset="0" style="mix-blend-mode: normal"><path d="M242.68265,209.72836c0,-2.11232 1.71238,-3.8247 3.8247,-3.8247c2.11232,0 3.8247,1.71238 3.8247,3.8247c0,2.11232 -1.71238,3.8247 -3.8247,3.8247c-2.11232,0 -3.8247,-1.71238 -3.8247,-3.8247z" fill="#ffe819" stroke-linecap="butt"/><path d="M228.4762,167.74634c-4.69095,-7.88158 -2.10442,-18.07362 5.77715,-22.76456c7.88158,-4.69095 18.07362,-2.10442 22.76456,5.77715c4.69095,7.88158 2.10442,18.07362 -5.77715,22.76456c-7.88158,4.69095 -18.07362,2.10442 -22.76456,-5.77715z" fill="#ffe819" stroke-linecap="butt"/><path d="M237.25094,205.03418l0.86796,-25.55035l7.84617,0.26654l-0.86796,25.55035z" fill="#ffe819" stroke-linecap="butt"/><path d="M227.60735,210.06796c0,-2.11232 1.71238,-3.8247 3.8247,-3.8247c2.11232,0 3.8247,1.71238 3.8247,3.8247c0,2.11232 -1.71238,3.8247 -3.8247,3.8247c-2.11232,0 -3.8247,-1.71238 -3.8247,-3.8247z" fill="#ffe819" stroke-linecap="butt"/><path d="M229.28552,213.59445c4.11347,0 7.4481,2.47844 7.4481,5.53575c0,3.05731 -3.33463,5.53575 -7.4481,5.53575c-4.11347,0 -7.4481,-2.47844 -7.4481,-5.53575c0,-3.05731 3.33463,-5.53575 7.4481,-5.53575z" data-paper-data="{&quot;index&quot;:null}" fill="#ffe819" stroke-linecap="butt"/><path d="M213.10722,170.84027c0,0 0.66966,-2.98863 1.59223,-4.80521c0.73087,-1.43911 3.50325,-5.22805 3.50325,-5.22805" fill="none" stroke-linecap="round"/><path d="M208.38025,179.88945c-2.25726,-1.71516 -2.69673,-4.93544 -0.98157,-7.1927c1.71516,-2.25726 4.93544,-2.69673 7.1927,-0.98157c2.25726,1.71516 2.69673,4.93544 0.98157,7.1927c-1.71516,2.25726 -4.93544,2.69673 -7.1927,0.98157z" fill="#ffe819" stroke-linecap="butt"/><path d="M255.35386,213.19185c4.94728,0 6.34095,2.65869 6.34095,5.93835c0,3.27966 -4.01056,5.93835 -8.95785,5.93835c-4.94728,0 -8.95785,-0.84699 -8.95785,-4.12665c0,-1.26666 3.40667,-7.75005 11.57475,-7.75005z" data-paper-data="{&quot;index&quot;:null}" fill="#ffe819" stroke-linecap="butt"/><path d="M224.56032,170.02219l-1.07012,-11.37107l-10.73272,4.5477c0,0 5.62858,-17.08135 14.37769,-23.09694c8.74911,-6.01559 20.99012,-1.22076 20.99012,-1.22076z" data-paper-data="{&quot;index&quot;:null}" fill="#fff067" stroke-linecap="butt"/></g></g></svg>