<svg version="1.1" xmlns="http://www.w3.org/2000/svg" xmlns:xlink="http://www.w3.org/1999/xlink" width="149.86993" height="91.52553" viewBox="0,0,149.86993,91.52553"><g transform="translate(-203.14238,-139.35211)"><g data-paper-data="{&quot;isPaintingLayer&quot;:true}" fill-rule="nonzero" stroke-linejoin="miter" stroke-miterlimit="10" stroke-dasharray="" stroke-dashoffset="0" style="mix-blend-mode: normal"><path d="M223.3436,202.81689l13.38544,-21.7808l6.6886,4.11049l-13.38544,21.7808z" fill="#2d6a2b" stroke="#000000" stroke-width="2" stroke-linecap="butt"/><path d="M264.96984,204.36812c0,-2.11232 1.71238,-3.8247 3.8247,-3.8247c2.11232,0 3.8247,1.71238 3.8247,3.8247c0,2.11232 -1.71238,3.8247 -3.8247,3.8247c-2.11232,0 -3.8247,-1.71238 -3.8247,-3.8247z" fill="#2d6a2b" stroke="#000000" stroke-width="2" stroke-linecap="butt"/><path d="M254.18282,213.63269c4.93244,-0.38296 6.52773,2.15988 6.7816,5.4297c0.25387,3.26982 -3.53887,6.23098 -8.4713,6.61393c-4.93244,0.38296 -8.99653,-0.15105 -9.2504,-3.42087c-0.09805,-1.26286 2.79655,-7.9905 10.94011,-8.62276z" data-paper-data="{&quot;index&quot;:null}" fill="#2d6a2b" stroke="#000000" stroke-width="2" stroke-linecap="butt"/><path d="M211.59048,214.61091c4.11347,0 7.4481,2.47844 7.4481,5.53575c0,3.05731 -3.33463,5.53575 -7.4481,5.53575c-4.11347,0 -7.4481,-2.47844 -7.4481,-5.53575c0,-3.05731 3.33463,-5.53575 7.4481,-5.53575z" data-paper-data="{&quot;index&quot;:null}" fill="#2d6a2b" stroke="#000000" stroke-width="2" stroke-linecap="butt"/><path d="M248.16968,162.68348c5.85492,-7.06005 16.32456,-8.03699 23.38459,-2.18209c7.06005,5.85492 8.03699,16.32456 2.18209,23.38459c-5.85492,7.06005 -16.32456,8.03699 -23.38459,2.18209c-7.06005,-5.85492 -8.03699,-16.32456 -2.18209,-23.38459z" fill="#2d6a2b" stroke="#000000" stroke-width="2" stroke-linecap="butt"/><path d="M266.77914,154.23663c14.97035,5.19912 17.35296,18.37523 17.35296,18.37523l-39.32976,-11.5441c0,0 5.88123,-12.42102 21.97681,-6.83113z" fill="#367e33" stroke="#000000" stroke-width="2" stroke-linecap="round"/><path d="M248.11258,147.31657c0,0 2.95741,0.7963 4.73308,1.79536c1.4067,0.79148 5.07416,3.72265 5.07416,3.72265" fill="none" stroke="#000000" stroke-width="2" stroke-linecap="round"/><path d="M239.27285,142.20863c1.8097,-2.18219 5.04577,-2.48416 7.22796,-0.67446c2.18219,1.8097 2.48416,5.04577 0.67446,7.22796c-1.8097,2.18219 -5.04577,2.48416 -7.22796,0.67446c-2.18219,-1.8097 -2.48416,-5.04577 -0.67446,-7.22796z" fill="#2d6a2b" stroke="#000000" stroke-width="2" stroke-linecap="butt"/><g fill="#6db000" stroke="#6db000" stroke-width="3" stroke-linecap="round"><path d="M351.51231,219.93609c0,0 -24.10648,0.34467 -34.79799,0.02834c-9.58686,-0.28365 -26.39919,-1.83902 -26.39919,-1.83902"/><path d="M327.81533,216.95933c0,0 -12.23279,-0.05959 -13.16652,-3.24608c-0.93371,-3.1865 3.06456,-3.61208 3.06456,-3.61208z"/><path d="M294.89849,229.22257c0,0 -3.10423,-1.94389 -0.08471,-4.28529c3.01951,-2.3414 13.89944,-0.58427 13.89944,-0.58427z" data-paper-data="{&quot;index&quot;:null}"/><path d="M334.51166,226.67112c0,0 -2.60357,-1.65492 -0.03613,-3.6167c2.56744,-1.96178 11.73436,-0.42812 11.73436,-0.42812z" data-paper-data="{&quot;index&quot;:null}"/></g><path d="M258.55688,207.58815c0,-2.11232 1.71238,-3.8247 3.8247,-3.8247c2.11232,0 3.8247,1.71238 3.8247,3.8247c0,2.11232 -1.71238,3.8247 -3.8247,3.8247c-2.11232,0 -3.8247,-1.71238 -3.8247,-3.8247z" fill="#2d6a2b" stroke="#000000" stroke-width="2" stroke-linecap="butt"/></g></g></svg>