<svg version="1.1" xmlns="http://www.w3.org/2000/svg" xmlns:xlink="http://www.w3.org/1999/xlink" width="61.92958" height="27.93302" viewBox="0,0,61.92958,27.93302"><defs><linearGradient x1="246.99645" y1="170.15652" x2="246.99645" y2="192.38372" gradientUnits="userSpaceOnUse" id="color-1"><stop offset="0" stop-color="#ffe8e8"/><stop offset="1" stop-color="#ffffff"/></linearGradient><linearGradient x1="230.9712" y1="175.72572" x2="230.9712" y2="192.80707" gradientUnits="userSpaceOnUse" id="color-2"><stop offset="0" stop-color="#ffe8e8"/><stop offset="1" stop-color="#ffffff"/></linearGradient><linearGradient x1="239.65205" y1="166.34615" x2="239.65205" y2="193.65385" gradientUnits="userSpaceOnUse" id="color-3"><stop offset="0" stop-color="#ffe8e8"/><stop offset="1" stop-color="#ffffff"/></linearGradient></defs><g transform="translate(-211.30199,-165.72083)"><g data-paper-data="{&quot;isPaintingLayer&quot;:true}" fill-rule="nonzero" stroke="none" stroke-width="0" stroke-linecap="butt" stroke-linejoin="miter" stroke-miterlimit="10" stroke-dasharray="" stroke-dashoffset="0" style="mix-blend-mode: normal"><path d="M246.99648,192.3837c-9.74065,0 -17.63697,-4.97572 -17.63697,-11.11358c0,-6.13787 17.01165,-11.42625 17.01165,-11.42625c0,0 8.27204,6.87618 13.94988,10.56726c7.49645,4.87333 12.91053,10.70775 12.91053,10.70775c0,0 -16.49448,1.26481 -26.23509,1.26481z" fill="url(#color-1)"/><path d="M250.64049,184.2664c0,4.71689 -8.80623,8.54069 -19.66925,8.54069c-10.86306,0 -19.66925,-3.82379 -19.66925,-8.54068c0,-4.71689 2.89626,-12.90484 2.89626,-12.90484c0,0 7.36219,5.52381 14.33356,7.38957c10.50487,2.81143 22.10868,2.67998 22.10868,5.51527z" fill="url(#color-2)"/><path d="M228.08366,165.72083c0,0 10.18167,5.77653 17.18729,8.22936c7.5748,2.65211 12.01807,2.13222 12.01807,6.04981c0,7.54081 -7.89636,13.65385 -17.63697,13.65385c-9.74065,0 -17.63696,-6.11304 -17.63696,-13.65385c0,-7.54081 6.06857,-14.27917 6.06857,-14.27917z" fill="url(#color-3)"/></g></g></svg>