<svg version="1.1" xmlns="http://www.w3.org/2000/svg" xmlns:xlink="http://www.w3.org/1999/xlink" width="98.48897" height="85.92501" viewBox="0,0,98.48897,85.92501"><g transform="translate(-191.97025,-141.04498)"><g data-paper-data="{&quot;isPaintingLayer&quot;:true}" fill-rule="nonzero" stroke="#000000" stroke-width="2" stroke-linejoin="miter" stroke-miterlimit="10" stroke-dasharray="" stroke-dashoffset="0" style="mix-blend-mode: normal"><g><path d="M204.03561,147.01564c0,0 3.03816,-0.38727 5.06026,-0.13791c1.60194,0.19755 6.10815,1.51518 6.10815,1.51518" fill="none" stroke-linecap="round"/><path d="M193.91796,145.65004c0.8447,-2.70619 3.72326,-4.21524 6.42946,-3.37054c2.70619,0.8447 4.21524,3.72326 3.37054,6.42946c-0.8447,2.70619 -3.72326,4.21524 -6.42946,3.37054c-2.70619,-0.8447 -4.21524,-3.72326 -3.37054,-6.42946z" fill="#2d6a2b" stroke-linecap="butt"/></g><path d="M284.0751,182.07233c1.62971,-1.34385 4.04027,-1.1121 5.38412,0.51761c1.34385,1.62971 1.1121,4.04027 -0.51761,5.38412c-1.62971,1.34385 -4.04027,1.1121 -5.38412,-0.51761c-1.34385,-1.62971 -1.1121,-4.04027 0.51761,-5.38412z" fill="#2d6a2b" stroke-linecap="butt"/><path d="M196.7589,162.29109c2.73284,-8.75533 12.04585,-13.63752 20.80117,-10.90468c8.75533,2.73284 13.63752,12.04585 10.90468,20.80117c-2.73284,8.75533 -12.04585,13.63752 -20.80117,10.90468c-8.75533,-2.73284 -13.63752,-12.04585 -10.90468,-20.80117z" fill="#2d6a2b" stroke-linecap="butt"/><path d="M210.76251,147.40617c15.82303,-0.87972 23.0339,10.40257 23.0339,10.40257l-40.76622,4.26743c0,0 0.71998,-13.72415 17.73233,-14.67z" fill="#367e33" stroke-linecap="round"/><path d="M234.54647,209.72494l-15.58716,-20.26361l6.2227,-4.78661l15.58716,20.26361z" data-paper-data="{&quot;index&quot;:null}" fill="#2d6a2b" stroke-linecap="butt"/><path d="M280.8695,188.44179c1.62971,-1.34385 4.04027,-1.1121 5.38412,0.51761c1.34385,1.62971 1.1121,4.04027 -0.51761,5.38412c-1.62971,1.34385 -4.04027,1.1121 -5.38412,-0.51761c-1.34385,-1.62971 -1.1121,-4.04027 0.51761,-5.38412z" fill="#2d6a2b" stroke-linecap="butt"/><path d="M265.38898,213.91667c4.94728,0 6.34095,2.65869 6.34095,5.93835c0,3.27966 -4.01057,5.93835 -8.95785,5.93835c-4.94728,0 -8.95785,-0.84699 -8.95785,-4.12665c0,-1.26666 3.40667,-7.75005 11.57475,-7.75005z" data-paper-data="{&quot;index&quot;:null}" fill="#2d6a2b" stroke-linecap="butt"/><path d="M220.76982,214.89848c4.11347,0 7.4481,2.47844 7.4481,5.53575c0,3.05731 -3.33463,5.53575 -7.4481,5.53575c-4.11347,0 -7.4481,-2.47844 -7.4481,-5.53575c0,-3.05731 3.33463,-5.53575 7.4481,-5.53575z" data-paper-data="{&quot;index&quot;:null}" fill="#2d6a2b" stroke-linecap="butt"/></g></g></svg>