<svg version="1.1" xmlns="http://www.w3.org/2000/svg" xmlns:xlink="http://www.w3.org/1999/xlink" width="73.6238" height="113.63068" viewBox="0,0,73.6238,113.63068"><g transform="translate(-195.20999,-119.0628)"><g data-paper-data="{&quot;isPaintingLayer&quot;:true}" fill-rule="nonzero" stroke="#000000" stroke-width="2" stroke-linejoin="miter" stroke-miterlimit="10" stroke-dasharray="" stroke-dashoffset="0" style="mix-blend-mode: normal"><path d="M241.53396,205.14798c0,-2.11232 1.71238,-3.8247 3.8247,-3.8247c2.11232,0 3.8247,1.71238 3.8247,3.8247c0,2.11232 -1.71238,3.8247 -3.8247,3.8247c-2.11232,0 -3.8247,-1.71238 -3.8247,-3.8247z" fill="#1d28e8" stroke-linecap="butt"/><path d="M214.1084,162.53641c-1.27599,-9.08274 5.05263,-17.48014 14.13536,-18.75613c9.08274,-1.27599 17.48014,5.05263 18.75613,14.13536c1.27599,9.08274 -5.05263,17.48014 -14.13536,18.75613c-9.08274,1.27599 -17.48014,-5.05263 -18.75613,-14.13536z" fill="#1d28e8" stroke-linecap="butt"/><path d="M236.40599,206.73698l-4.18825,-25.21968l7.74463,-1.28615l4.18825,25.21968z" fill="#1d28e8" stroke-linecap="butt"/><path d="M224.80121,210.65266c0,-2.11232 1.71238,-3.8247 3.8247,-3.8247c2.11232,0 3.8247,1.71238 3.8247,3.8247c0,2.11232 -1.71238,3.8247 -3.8247,3.8247c-2.11232,0 -3.8247,-1.71238 -3.8247,-3.8247z" fill="#1d28e8" stroke-linecap="butt"/><path d="M205.19305,167.43518c0,0 2.05063,-2.27492 3.74618,-3.4046c1.34325,-0.89494 5.61864,-2.8348 5.61864,-2.8348" fill="none" stroke-linecap="round"/><path d="M196.63238,172.99817c-1.12449,-2.60241 0.07359,-5.62365 2.67599,-6.74814c2.60241,-1.12449 5.62365,0.07359 6.74814,2.67599c1.12449,2.60241 -0.07359,5.62365 -2.67599,6.74814c-2.60241,1.12449 -5.62365,-0.07359 -6.74814,-2.67599z" fill="#1d28e8" stroke-linecap="butt"/><path d="M241.30819,225.7241c-0.31731,4.93709 -3.05992,6.15737 -6.33283,5.94702c-3.27291,-0.21035 -5.66889,-4.38319 -5.35157,-9.32028c0.31731,-4.93709 1.41979,-8.88508 4.69271,-8.67473c1.26405,0.08125 7.51559,3.89674 6.9917,12.048z" data-paper-data="{&quot;index&quot;:null}" fill="#1d28e8" stroke-linecap="butt"/><path d="M213.79966,161.76679l-13.74191,-18.49828l34.26625,-22.60513l7.3039,27.55473l18.7439,-9.04028z" fill="#2530ff" stroke-linecap="round"/><path d="M260.22439,206.19876c4.79452,-1.21987 6.80073,1.01308 7.60941,4.19148c0.80868,3.1784 -2.42248,6.7439 -7.21702,7.96378c-4.79452,1.21987 -8.89011,1.38794 -9.6988,-1.79046c-0.31233,-1.22755 1.39052,-8.35075 9.3064,-10.36479z" data-paper-data="{&quot;index&quot;:null}" fill="#1d28e8" stroke-linecap="butt"/></g></g></svg>