<svg version="1.1" xmlns="http://www.w3.org/2000/svg" xmlns:xlink="http://www.w3.org/1999/xlink" width="64.50589" height="63.95697" viewBox="0,0,64.50589,63.95697"><g transform="translate(-208.00374,-163.12803)"><g data-paper-data="{&quot;isPaintingLayer&quot;:true}" fill-rule="nonzero" stroke="#000000" stroke-width="2" stroke-linejoin="miter" stroke-miterlimit="10" stroke-dasharray="" stroke-dashoffset="0" style="mix-blend-mode: normal"><g data-paper-data="{&quot;index&quot;:null}" fill="#2d6a2b" stroke-linecap="butt"><path d="M242.71325,218.93469c-3.21301,1.20733 -4.1108,-0.37406 -4.1108,-0.37406l-4.25,-9.91456c0,0 2.82108,0.21577 4.08561,-0.26924c1.17127,-0.44924 3.24323,-2.54173 3.24323,-2.54173l4.25001,9.91455c0,0 0.5633,1.76417 -3.21803,3.18505z"/><path d="M238.35191,208.37125c-2.08074,0.77814 -4.08889,0.54965 -4.4853,-0.51035c-0.39641,-1.06001 0.96901,-2.55011 3.04976,-3.32826c2.08074,-0.77814 4.08887,-0.54964 4.48529,0.51035c0.39641,1.06001 -0.96901,2.55011 -3.04976,3.32826z"/></g><path d="M264.62158,204.9855c-0.91868,-1.90208 -0.12148,-4.18877 1.7806,-5.10746c1.90208,-0.91868 4.18877,-0.12148 5.10746,1.7806c0.91868,1.90208 0.12148,4.18877 -1.7806,5.10746c-1.90208,0.91868 -4.18877,0.12148 -5.10746,-1.7806z" fill="#2d6a2b" stroke-linecap="butt"/><path d="M259.93475,192.85632c-0.91868,-1.90208 -0.12148,-4.18877 1.7806,-5.10746c1.90208,-0.91868 4.18877,-0.12148 5.10746,1.7806c0.91868,1.90208 0.12148,4.18877 -1.7806,5.10746c-1.90208,0.91868 -4.18877,0.12148 -5.10746,-1.7806z" fill="#2d6a2b" stroke-linecap="butt"/><path d="M234.65911,221.95835c0,3.27966 -4.01057,4.12665 -8.95785,4.12665c-4.94728,0 -8.95785,-2.65869 -8.95785,-5.93835c0,-3.27966 1.39367,-5.93835 6.34095,-5.93835c8.16808,0 11.57475,6.48339 11.57475,7.75005z" data-paper-data="{&quot;index&quot;:null}" fill="#2d6a2b" stroke-linecap="butt"/><path d="M258.25971,212.67567c4.89068,-0.74623 6.66942,1.67184 7.16412,4.91397c0.49469,3.24214 -3.06897,6.47535 -7.95965,7.22157c-4.89068,0.74623 -8.98312,0.51386 -9.4778,-2.72827c-0.19105,-1.25217 2.19871,-8.17523 10.27334,-9.40726z" data-paper-data="{&quot;index&quot;:null}" fill="#2d6a2b" stroke-linecap="butt"/><g><g><path d="M218.97858,169.51938c0,0 3.05947,-0.14137 5.05494,0.27c1.58083,0.32591 5.96631,2.0021 5.96631,2.0021" fill="none" stroke-linecap="round"/><path d="M209.00375,167.34349c1.05987,-2.62939 4.0506,-3.90174 6.67999,-2.84188c2.62939,1.05987 3.90174,4.0506 2.84187,6.67999c-1.05987,2.62939 -4.05059,3.90174 -6.67998,2.84187c-2.62939,-1.05987 -3.90174,-4.05059 -2.84188,-6.67998z" fill="#2d6a2b" stroke-linecap="butt"/></g><path d="M214.05497,186.95769c1.77018,-8.99948 10.50073,-14.85999 19.5002,-13.08981c8.99948,1.77018 14.85998,10.50073 13.0898,19.5002c-1.77018,8.99948 -10.50073,14.85998 -19.5002,13.0898c-8.99948,-1.77018 -14.85998,-10.50072 -13.0898,-19.5002z" fill="#2d6a2b" stroke-linecap="butt"/><path d="M226.3671,169.49156c15.63516,-2.58537 24.02361,7.85113 24.02361,7.85113l-40.06585,8.65011c0,0 -0.76811,-13.72154 16.04224,-16.50124z" fill="#367e33" stroke-linecap="round"/></g></g></g></svg>