<svg version="1.1" xmlns="http://www.w3.org/2000/svg" xmlns:xlink="http://www.w3.org/1999/xlink" width="75.36533" height="106.14921" viewBox="0,0,75.36533,106.14921"><g transform="translate(-190.1035,-119.06003)"><g data-paper-data="{&quot;isPaintingLayer&quot;:true}" fill-rule="nonzero" stroke="#000000" stroke-width="2" stroke-linejoin="miter" stroke-miterlimit="10" stroke-dasharray="" stroke-dashoffset="0" style="mix-blend-mode: normal"><path d="M234.72922,199.47875c-1.01825,-1.85069 -0.34343,-4.17644 1.50726,-5.1947c1.85069,-1.01825 4.17644,-0.34343 5.1947,1.50726c1.01825,1.85069 0.34343,4.17644 -1.50726,5.1947c-1.85069,1.01825 -4.17644,0.34343 -5.1947,-1.50726z" fill="#1d28e8" stroke-linecap="butt"/><path d="M233.58434,205.29456l-10.61237,-23.25838l7.14234,-3.25892l10.61237,23.25838z" fill="#1d28e8" stroke-linecap="butt"/><path d="M213.50991,203.55658c-1.01825,-1.85069 -0.34343,-4.17644 1.50726,-5.1947c1.85069,-1.01825 4.17644,-0.34343 5.1947,1.50726c1.01825,1.85069 0.34343,4.17644 -1.50726,5.1947c-1.85069,1.01825 -4.17644,0.34343 -5.1947,-1.50726z" fill="#1d28e8" stroke-linecap="butt"/><path d="M210.09721,159.01901c0.06656,-9.17169 7.55565,-16.55284 16.72733,-16.48628c9.17169,0.06656 16.55284,7.55565 16.48628,16.72733c-0.06656,9.17169 -7.55565,16.55284 -16.72733,16.48628c-9.17169,-0.06656 -16.55284,-7.55565 -16.48628,-16.72733z" fill="#1d28e8" stroke-linecap="butt"/><path d="M200.56109,162.56072c0,0 2.36139,-1.95043 4.20398,-2.8199c1.45973,-0.68879 5.97293,-1.98228 5.97293,-1.98228" fill="none" stroke-linecap="round"/><path d="M191.27867,166.81141c-0.73165,-2.73892 0.89554,-5.55238 3.63448,-6.28402c2.73892,-0.73165 5.55238,0.89554 6.28402,3.63448c0.73165,2.73892 -0.89554,5.55238 -3.63448,6.28402c-2.73892,0.73165 -5.55238,-0.89554 -6.28402,-3.63448z" fill="#1d28e8" stroke-linecap="butt"/><path d="M209.90439,158.21249l-10.88771,-20.30971l37.20472,-17.34867l3.19398,28.32682l19.86483,-6.20073z" fill="#2530ff" stroke-linecap="round"/><path d="M241.5173,215.7283c2.51868,4.25816 0.93984,6.81122 -1.88299,8.48093c-2.82283,1.66968 -7.15296,-0.42868 -9.67163,-4.68685c-2.51868,-4.25816 -3.83146,-8.14127 -1.00863,-9.81097c1.09022,-0.64486 8.40487,-1.01342 12.56324,6.01688z" data-paper-data="{&quot;index&quot;:null}" fill="#1d28e8" stroke-linecap="butt"/><path d="M257.70128,194.72488c4.9334,-0.37022 6.52213,2.17675 6.76755,5.44721c0.24542,3.27045 -3.55494,6.22182 -8.48837,6.59201c-4.9334,0.37022 -8.99611,-0.1743 -9.24155,-3.44478c-0.09478,-1.26311 2.81718,-7.98325 10.96236,-8.59446z" data-paper-data="{&quot;index&quot;:null}" fill="#1d28e8" stroke-linecap="butt"/></g></g></svg>