<svg version="1.1" xmlns="http://www.w3.org/2000/svg" xmlns:xlink="http://www.w3.org/1999/xlink" width="116.88667" height="122.63116" viewBox="0,0,116.88667,122.63116"><g transform="translate(-180.3904,-104.45837)"><g data-paper-data="{&quot;isPaintingLayer&quot;:true}" fill-rule="nonzero" stroke="#000000" stroke-width="2" stroke-linejoin="miter" stroke-miterlimit="10" stroke-dasharray="" stroke-dashoffset="0" style="mix-blend-mode: normal"><path d="M290.87485,184.73883c-1.56624,-1.41732 -1.68698,-3.83598 -0.26966,-5.40222c1.41732,-1.56624 3.83598,-1.68698 5.40222,-0.26966c1.56624,1.41732 1.68698,3.83598 0.26966,5.40222c-1.41732,1.56624 -3.83598,1.68698 -5.40222,0.26966z" fill="#ff6b00" stroke-linecap="butt"/><path d="M218.51478,160.76408c-3.47488,-8.4882 0.58922,-18.18619 9.07742,-21.66106c8.4882,-3.47488 18.18619,0.58923 21.66107,9.07743c3.47488,8.4882 -0.58922,18.18619 -9.07742,21.66106c-8.4882,3.47488 -18.18619,-0.58923 -21.66107,-9.07743z" fill="#ff6b00" stroke-linecap="butt"/><path d="M236.22975,202.583l-3.51952,-25.32166l7.77595,-1.08081l3.51952,25.32166z" data-paper-data="{&quot;index&quot;:null}" fill="#ff6b00" stroke-linecap="butt"/><path d="M280.84282,191.61427c-1.56624,-1.41732 -1.68698,-3.83598 -0.26966,-5.40222c1.41732,-1.56624 3.83598,-1.68699 5.40222,-0.26967c1.56624,1.41732 1.68698,3.83598 0.26966,5.40222c-1.41732,1.56624 -3.83598,1.68698 -5.40222,0.26966z" fill="#ff6b00" stroke-linecap="butt"/><path d="M223.5948,215.01803c4.11347,0 7.4481,2.47844 7.4481,5.53575c0,3.05731 -3.33463,5.53575 -7.4481,5.53575c-4.11347,0 -7.4481,-2.47844 -7.4481,-5.53575c0,-3.05731 3.33463,-5.53575 7.4481,-5.53575z" data-paper-data="{&quot;index&quot;:null}" fill="#ff6b00" stroke-linecap="butt"/><path d="M206.50125,159.14377c0,0 2.0146,-2.3069 3.69216,-3.46312c1.32901,-0.91598 5.57335,-2.92285 5.57335,-2.92285" fill="none" stroke-linecap="round"/><path d="M198.02916,164.84077c-1.1653,-2.58439 -0.01489,-5.62412 2.56951,-6.78942c2.58439,-1.1653 5.6241,-0.01489 6.78941,2.5695c1.1653,2.58439 0.0149,5.62412 -2.5695,6.78942c-2.58439,1.1653 -5.62411,0.01489 -6.78942,-2.5695z" fill="#ff6b00" stroke-linecap="butt"/><path d="M261.79495,213.74183c4.89738,-0.7009 6.65366,1.73353 7.1183,4.98011c0.46464,3.24658 -3.1288,6.44664 -8.02619,7.14755c-4.89738,0.7009 -8.98749,0.43065 -9.45213,-2.81593c-0.17945,-1.25388 2.27433,-8.15451 10.36002,-9.31172z" data-paper-data="{&quot;index&quot;:null}" fill="#ff6b00" stroke-linecap="butt"/><path d="M215.5653,165.59753l-0.70287,-12.87716l-32.75061,-9.71191l29.88986,-36.77826l16.47532,29.31663l12.70339,-2.05223z" data-paper-data="{&quot;index&quot;:null}" fill="#ffa340" stroke-linecap="butt"/></g></g></svg>