<svg version="1.1" xmlns="http://www.w3.org/2000/svg" xmlns:xlink="http://www.w3.org/1999/xlink" width="119.62747" height="87.70489" viewBox="0,0,119.62747,87.70489"><g transform="translate(-207.31526,-137.17917)"><g data-paper-data="{&quot;isPaintingLayer&quot;:true}" fill-rule="nonzero" stroke="#000000" stroke-width="2" stroke-linejoin="miter" stroke-miterlimit="10" stroke-dasharray="" stroke-dashoffset="0" style="mix-blend-mode: normal"><path d="M317.43925,168.92087c3.55273,-1.3183 7.35987,0.11143 8.50348,3.19338c1.14361,3.08195 -0.80937,6.64907 -4.3621,7.96737c-2.07176,0.76876 -15.46311,8.88667 -50.91833,9.78835c-25.34476,0.64456 -33.06321,-9.08505 -33.06321,-9.08505c0,0 8.56332,2.64385 38.64236,-0.33062c30.07904,-2.97447 39.39353,-10.86392 41.1978,-11.53343z" fill="#ffe819" stroke-linecap="butt"/><path d="M230.31654,185.3565c0,-2.11232 1.71238,-3.8247 3.8247,-3.8247c2.11232,0 3.8247,1.71238 3.8247,3.8247c0,2.11232 -1.71238,3.8247 -3.8247,3.8247c-2.11232,0 -3.8247,-1.71238 -3.8247,-3.8247z" fill="#ffe819" stroke-linecap="butt"/><path d="M232.12912,201.52559l12.72368,-22.17391l6.80932,3.90727l-12.72368,22.17391z" fill="#ffe819" stroke-linecap="butt"/><path d="M265.21999,206.07266c3.97405,-2.94662 6.67707,-1.64102 8.63045,0.99346c1.95338,2.63448 0.3153,7.15886 -3.65876,10.10548c-3.97405,2.94662 -7.70011,4.65496 -9.65349,2.02047c-0.75442,-1.01749 -1.87945,-8.25447 4.6818,-13.1194z" data-paper-data="{&quot;index&quot;:null}" fill="#ffe819" stroke-linecap="butt"/><path d="M247.66238,162.62033c0,-9.17193 7.43532,-16.60724 16.60724,-16.60724c9.17193,0 16.60724,7.43532 16.60724,16.60724c0,9.17193 -7.43532,16.60724 -16.60724,16.60724c-9.17193,0 -16.60724,-7.43532 -16.60724,-16.60724z" fill="#ffe819" stroke-linecap="butt"/><path d="M232.8732,157.41859c0,0 2.10397,-2.22568 3.82583,-3.31485c1.36408,-0.86285 5.68426,-2.70082 5.68426,-2.70082" fill="none" stroke-linecap="round"/><path d="M224.18307,162.7771c-1.06249,-2.62833 0.20687,-5.62033 2.8352,-6.68282c2.62833,-1.06249 5.62033,0.20687 6.68282,2.8352c1.06249,2.62833 -0.20687,5.62033 -2.8352,6.68282c-2.62833,1.06249 -5.62033,-0.20687 -6.68282,-2.8352z" fill="#ffe819" stroke-linecap="butt"/><path d="M243.13343,162.57325l4.89612,-10.31864l-11.5487,-1.5813c0,0 13.57292,-11.79955 24.16781,-12.49414c10.59489,-0.69459 18.66148,9.6863 18.66148,9.6863z" data-paper-data="{&quot;index&quot;:null}" fill="#fff067" stroke-linecap="butt"/><path d="M219.11353,220.00083c-2.20481,4.42882 -5.20598,4.49155 -8.14194,3.02993c-2.93596,-1.46162 -3.52866,-6.23677 -1.32384,-10.66558c2.20481,-4.42882 4.7504,-7.6416 7.68635,-6.17999c1.13391,0.5645 5.41963,6.50356 1.77942,13.81563z" data-paper-data="{&quot;index&quot;:null}" fill="#ffe819" stroke-linecap="butt"/></g></g></svg>