<svg version="1.1" xmlns="http://www.w3.org/2000/svg" xmlns:xlink="http://www.w3.org/1999/xlink" width="76.09935" height="82.87769" viewBox="0,0,76.09935,82.87769"><g transform="translate(-214.62541,-144.06276)"><g data-paper-data="{&quot;isPaintingLayer&quot;:true}" fill-rule="nonzero" stroke="#000000" stroke-width="2" stroke-linejoin="miter" stroke-miterlimit="10" stroke-dasharray="" stroke-dashoffset="0" style="mix-blend-mode: normal"><path d="M279.09715,179.68924c0,-2.11232 1.71238,-3.8247 3.8247,-3.8247c2.11232,0 3.8247,1.71238 3.8247,3.8247c0,2.11232 -1.71238,3.8247 -3.8247,3.8247c-2.11232,0 -3.8247,-1.71238 -3.8247,-3.8247z" fill="#e80000" stroke-linecap="butt"/><path d="M247.22592,178.27724c-9.17192,0 -16.60724,-7.43531 -16.60724,-16.60724c0,-9.17192 7.43531,-16.60724 16.60724,-16.60724c9.17192,0 16.60724,7.43531 16.60724,16.60724c0,9.17192 -7.43531,16.60724 -16.60724,16.60724z" data-paper-data="{&quot;index&quot;:null}" fill="#e80000" stroke-linecap="butt"/><path d="M237.42889,205.21784l0.71594,-25.55507l7.84762,0.21985l-0.71594,25.55507z" data-paper-data="{&quot;index&quot;:null}" fill="#e80000" stroke-linecap="butt"/><path d="M282.07536,181.90705c0,-2.11232 1.71238,-3.8247 3.8247,-3.8247c2.11232,0 3.8247,1.71238 3.8247,3.8247c0,2.11232 -1.71238,3.8247 -3.8247,3.8247c-2.11232,0 -3.8247,-1.71238 -3.8247,-3.8247z" fill="#e80000" stroke-linecap="butt"/><path d="M263.4016,213.34982c4.94728,0 6.34095,2.65869 6.34095,5.93835c0,3.27966 -4.01056,5.93835 -8.95785,5.93835c-4.94728,0 -8.95785,-0.84699 -8.95785,-4.12665c0,-1.26666 3.40667,-7.75005 11.57475,-7.75005z" data-paper-data="{&quot;index&quot;:null}" fill="#e80000" stroke-linecap="butt"/><path d="M232.56289,151.86863l1.3957,-5.42328l32.34602,8.32434l-1.3957,5.42329z" data-paper-data="{&quot;index&quot;:null}" fill="#ff2121" stroke-linecap="butt"/><path d="M243.39314,152.15507c0,0 4.32265,1.83215 5.68789,2.69317c1.72332,1.08686 3.83029,3.3097 3.83029,3.3097" data-paper-data="{&quot;index&quot;:null}" fill="none" stroke-linecap="round"/><path d="M254.92964,166.34895c-2.62976,-1.05895 -3.90314,-4.04924 -2.84419,-6.679c1.05895,-2.62976 4.04924,-3.90314 6.679,-2.84419c2.62976,1.05895 3.90314,4.04924 2.84419,6.679c-1.05895,2.62976 -4.04924,3.90314 -6.679,2.84419z" data-paper-data="{&quot;index&quot;:null}" fill="#e80000" stroke-linecap="butt"/><path d="M232.08205,223.74356c-1.12292,3.08143 -5.18108,2.50405 -9.82934,0.81016c-4.64827,-1.6939 -7.50612,-5.56506 -6.3832,-8.64649c1.12292,-3.08143 3.34266,-5.10225 7.99092,-3.40836c7.67439,2.79666 8.65531,10.05459 8.22162,11.24469z" data-paper-data="{&quot;index&quot;:null}" fill="#e80000" stroke-linecap="butt"/></g></g></svg>