<svg version="1.1" xmlns="http://www.w3.org/2000/svg" xmlns:xlink="http://www.w3.org/1999/xlink" width="101.18733" height="42.04588" viewBox="0,0,101.18733,42.04588"><g transform="translate(-193.34092,-138.91393)"><g data-paper-data="{&quot;isPaintingLayer&quot;:true}" fill-rule="nonzero" stroke="none" stroke-width="0" stroke-linecap="butt" stroke-linejoin="miter" stroke-miterlimit="10" stroke-dasharray="" stroke-dashoffset="0" style="mix-blend-mode: normal"><path d="" fill="#5c6cff"/><path d="" fill="#5c6cff"/><path d="" fill="#5c6cff"/><path d="M275.21056,139.24638c4.24489,-1.09468 8.35262,0.60256 9.17484,3.79093c0.82222,3.18836 -1.95239,6.66047 -6.1973,7.75516c-4.24489,1.09468 -20.96544,0.22698 -20.96544,0.22698c0,0 13.74299,-10.67838 17.98788,-11.77307z" fill="#5c6cff"/><path d="M276.37345,139.68071c3.1012,-0.79974 6.55179,1.19551 6.85848,2.38482c0.3067,1.18931 -2.93317,1.31654 -5.72156,1.03572c-2.78839,-0.28082 -7.15572,1.40348 -7.46242,0.21417c-0.3067,-1.18931 3.2243,-2.83495 6.32549,-3.6347z" fill="#ffffff"/><path d="M288.62374,164.77217c3.85397,0.86229 6.45321,3.90796 5.80554,6.80271c-0.64767,2.89474 -4.29698,4.54237 -8.15096,3.68009c-3.85397,-0.86229 -16.91102,-8.41383 -16.91102,-8.41383c0,0 15.40245,-2.93125 19.25644,-2.06896z" fill="#5c6cff"/><path d="M289.3785,165.59737c2.8156,0.62996 4.76552,3.64527 4.52392,4.72505c-0.2416,1.07979 -2.8927,-0.14651 -5.01434,-1.51503c-2.12163,-1.36853 -6.31558,-1.80803 -6.07399,-2.88781c0.2416,-1.07979 3.74879,-0.95216 6.5644,-0.3222z" fill="#ffffff"/><path d="M213.7188,168.21111c0,0 -8.98463,9.88655 -12.00444,11.65155c-3.01982,1.76499 -6.54256,1.35706 -7.86826,-0.91114c-1.32569,-2.26821 0.04766,-5.53775 3.06749,-7.30275c3.01982,-1.76499 16.80521,-3.43766 16.80521,-3.43766z" data-paper-data="{&quot;index&quot;:null}" fill="#5c6cff"/><path d="M202.12452,171.05309c0.49451,0.84608 -2.92597,2.34584 -4.3478,4.07169c-1.42183,1.72584 -3.3287,3.4742 -3.82321,2.62811c-0.4945,-0.84608 0.33915,-3.91522 2.54534,-5.20467c2.20619,-1.28945 5.13117,-2.34121 5.62567,-1.49513z" data-paper-data="{&quot;index&quot;:null}" fill="#ffffff"/></g></g></svg>