<svg version="1.1" xmlns="http://www.w3.org/2000/svg" xmlns:xlink="http://www.w3.org/1999/xlink" width="69.3166" height="106.76522" viewBox="0,0,69.3166,106.76522"><g transform="translate(-187.45415,-132.81977)"><g data-paper-data="{&quot;isPaintingLayer&quot;:true}" fill-rule="nonzero" stroke="#000000" stroke-width="2" stroke-linejoin="miter" stroke-miterlimit="10" stroke-dasharray="" stroke-dashoffset="0" style="mix-blend-mode: normal"><path d="M224.27728,213.02237c0,-2.11232 1.71238,-3.8247 3.8247,-3.8247c2.11232,0 3.8247,1.71238 3.8247,3.8247c0,2.11232 -1.71238,3.8247 -3.8247,3.8247c-2.11232,0 -3.8247,-1.71238 -3.8247,-3.8247z" fill="#1d28e8" stroke-linecap="butt"/><path d="M207.4006,172.97335c0,-9.17193 7.43532,-16.60724 16.60724,-16.60724c9.17193,0 16.60724,7.43532 16.60724,16.60724c0,9.17193 -7.43532,16.60724 -16.60724,16.60724c-9.17193,0 -16.60724,-7.43532 -16.60724,-16.60724z" fill="#1d28e8" stroke-linecap="butt"/><path d="M219.27729,218.69126v-25.56509h7.8507v25.56509z" fill="#1d28e8" stroke-linecap="butt"/><path d="M204.985,183.26248c0,-2.11232 1.71238,-3.8247 3.8247,-3.8247c2.11232,0 3.8247,1.71238 3.8247,3.8247c0,2.11232 -1.71238,3.8247 -3.8247,3.8247c-2.11232,0 -3.8247,-1.71238 -3.8247,-3.8247z" fill="#1d28e8" stroke-linecap="butt"/><path d="M212.03049,227.11089c4.11347,0 7.4481,2.47844 7.4481,5.53575c0,3.05731 -3.33463,5.53575 -7.4481,5.53575c-4.11347,0 -7.4481,-2.47844 -7.4481,-5.53575c0,-3.05731 3.33463,-5.53575 7.4481,-5.53575z" data-paper-data="{&quot;index&quot;:null}" fill="#1d28e8" stroke-linecap="butt"/><path d="M197.89043,176.58418c0,0 2.34717,-1.96752 4.1834,-2.85033c1.45469,-0.69937 5.95838,-2.02557 5.95838,-2.02557" fill="none" stroke-linecap="round"/><path d="M188.63909,180.90212c-0.75151,-2.73354 0.85523,-5.55873 3.58877,-6.31024c2.73354,-0.75151 5.55873,0.85523 6.31024,3.58877c0.75151,2.73354 -0.85523,5.55873 -3.58877,6.31024c-2.73354,0.75151 -5.55873,-0.85523 -6.31024,-3.58877z" fill="#1d28e8" stroke-linecap="butt"/><path d="M238.09883,226.70829c4.94728,0 6.34095,2.65869 6.34095,5.93835c0,3.27966 -4.01056,5.93835 -8.95785,5.93835c-4.94728,0 -8.95785,-0.84699 -8.95785,-4.12665c0,-1.26666 3.40667,-7.75005 11.57475,-7.75005z" data-paper-data="{&quot;index&quot;:null}" fill="#1d28e8" stroke-linecap="butt"/><path d="M207.20193,172.16826l-11.0348,-20.23016l37.07784,-17.61821l3.39948,28.30289l19.81931,-6.34473z" fill="#2530ff" stroke-linecap="round"/></g></g></svg>