<svg version="1.1" xmlns="http://www.w3.org/2000/svg" xmlns:xlink="http://www.w3.org/1999/xlink" width="124.20431" height="84.61883" viewBox="0,0,124.20431,84.61883"><defs><linearGradient x1="241.84791" y1="194.47947" x2="321.0133" y2="194.47947" gradientUnits="userSpaceOnUse" id="color-1"><stop offset="0" stop-color="#e80000" stop-opacity="0"/><stop offset="1" stop-color="#e80000"/></linearGradient></defs><g transform="translate(-198.49106,-146.04257)"><g data-paper-data="{&quot;isPaintingLayer&quot;:true}" fill-rule="nonzero" stroke="#000000" stroke-linejoin="miter" stroke-miterlimit="10" stroke-dasharray="" stroke-dashoffset="0" style="mix-blend-mode: normal"><path d="M301.18621,186.07416c9.57133,0.02527 21.26876,-3.49357 19.68136,9.80129c-1.5874,13.29487 -13.16256,10.52063 -22.08471,10.32736c-3.58366,-0.07765 -16.6316,1.3681 -30.77146,-0.62657c-21.06378,-2.97136 -26.16349,-23.25411 -26.16349,-23.25411c0,0 16.2961,11.33551 36.28747,8.78129c17.91211,-2.28857 13.47953,-5.05448 23.05085,-5.02923z" data-paper-data="{&quot;index&quot;:null}" fill="url(#color-1)" stroke-width="0" stroke-linecap="butt"/><path d="M235.1387,203.91762l14.14521,-21.29523l6.53948,4.34381l-14.14521,21.29523z" fill="#e80000" stroke-width="2" stroke-linecap="butt"/><path d="M254.24659,152.98318c0,0 3.05727,0.18278 4.99808,0.80276c1.53753,0.49116 5.72128,2.62148 5.72128,2.62148" fill="none" stroke-width="2" stroke-linecap="round"/><path d="M244.5576,149.76524c1.33184,-2.50264 4.44029,-3.45177 6.94293,-2.11994c2.50264,1.33184 3.45177,4.44029 2.11994,6.94293c-1.33184,2.50264 -4.44029,3.45177 -6.94293,2.11994c-2.50264,-1.33184 -3.45177,-4.44029 -2.11994,-6.94293z" fill="#e80000" stroke-width="2" stroke-linecap="butt"/><path d="M253.24263,164.75081c1.86332,-8.98066 10.65411,-14.7504 19.63477,-12.88708c8.98066,1.86332 14.7504,10.65411 12.88708,19.63477c-1.86332,8.98066 -10.65411,14.7504 -19.63477,12.88708c-8.98066,-1.86332 -14.7504,-10.65411 -12.88708,-19.63477z" fill="#e80000" stroke-width="2" stroke-linecap="butt"/><path d="M229.74534,206.55396c0,-2.11232 1.71238,-3.8247 3.8247,-3.8247c2.11232,0 3.8247,1.71238 3.8247,3.8247c0,2.11232 -1.71238,3.8247 -3.8247,3.8247c-2.11232,0 -3.8247,-1.71238 -3.8247,-3.8247z" fill="#e80000" stroke-width="2" stroke-linecap="butt"/><path d="M262.38102,214.00641c4.94656,-0.08454 6.38546,2.54994 6.4415,5.82912c0.05605,3.27918 -3.90849,6.00602 -8.85505,6.09057c-4.94656,0.08454 -8.97102,-0.69378 -9.02707,-3.97296c-0.02165,-1.26647 3.27373,-7.80714 11.44062,-7.94672z" data-paper-data="{&quot;index&quot;:null}" fill="#e80000" stroke-width="2" stroke-linecap="butt"/><path d="M252.48938,163.08604l-0.26483,-5.59374l33.36263,-1.57949l0.26483,5.59373z" fill="#ff2121" stroke-width="2" stroke-linecap="butt"/><path d="M208.06075,228.18721c-4.11699,2.74336 -6.75105,1.30369 -8.56968,-1.42554c-1.81864,-2.72923 0.04455,-7.16565 4.16153,-9.90902c4.11699,-2.74336 7.92414,-4.26245 9.74277,-1.53322c0.70239,1.05408 1.46262,8.33843 -5.33462,12.86778z" data-paper-data="{&quot;index&quot;:null}" fill="#e80000" stroke-width="2" stroke-linecap="butt"/><path d="M318.58158,194.87051c-2.44467,0.60056 -5.01417,-0.55431 -5.73914,-2.57945c-0.72497,-2.02515 0.66913,-4.15371 3.1138,-4.75427c2.44467,-0.60056 5.01417,0.55431 5.73914,2.57945c0.72497,2.02515 -0.66913,4.15371 -3.1138,4.75427z" fill="#e80000" stroke-width="2" stroke-linecap="butt"/></g></g></svg>