<svg version="1.1" xmlns="http://www.w3.org/2000/svg" xmlns:xlink="http://www.w3.org/1999/xlink" width="116.68415" height="120.08272" viewBox="0,0,116.68415,120.08272"><defs><radialGradient cx="260.13345" cy="159.67396" r="18.84183" gradientUnits="userSpaceOnUse" id="color-1"><stop offset="0" stop-color="#ffffff"/><stop offset="1" stop-color="#0debff"/></radialGradient></defs><g transform="translate(-186.12854,-107.8196)"><g data-paper-data="{&quot;isPaintingLayer&quot;:true}" fill-rule="nonzero" stroke-linejoin="miter" stroke-miterlimit="10" stroke-dasharray="" stroke-dashoffset="0" style="mix-blend-mode: normal"><g fill="#76f4ff" stroke="#53acb4" stroke-width="1" stroke-linecap="butt"><path d="M302.44446,108.2227l-53.66181,58.4209l-31.47191,17.83902l21.18187,-29.32645z" data-paper-data="{&quot;index&quot;:null}"/><path d="M201.55582,190.8077l20.31436,-14.42599l3.74821,4.18436l-16.94099,18.19191z"/><path d="M243.4015,187.67888l-16.30823,-1.21194l-11.28271,-12.52182l0.9962,-15.95561l10.53435,17.31971z"/></g><path d="M201.34811,194.78594c-0.07922,-2.11083 1.56774,-3.88623 3.67857,-3.96545c2.11083,-0.07922 3.88623,1.56774 3.96545,3.67857c0.07922,2.11083 -1.56774,3.88623 -3.67857,3.96545c-2.11083,0.07922 -3.88623,-1.56774 -3.96545,-3.67857z" fill="#0debff" stroke="#000000" stroke-width="2" stroke-linecap="butt"/><path d="M227.61724,198.63622l22.62669,-11.89985l3.65429,6.94835l-22.62669,11.89985z" data-paper-data="{&quot;index&quot;:null}" fill="#0debff" stroke="#000000" stroke-width="2" stroke-linecap="butt"/><path d="M262.42648,202.12555c0,-2.11232 1.71238,-3.8247 3.8247,-3.8247c2.11232,0 3.8247,1.71238 3.8247,3.8247c0,2.11232 -1.71238,3.8247 -3.8247,3.8247c-2.11232,0 -3.8247,-1.71238 -3.8247,-3.8247z" fill="#0debff" stroke="#000000" stroke-width="2" stroke-linecap="butt"/><path d="M267.5562,214.79766c4.70588,-1.52651 6.85192,0.57242 7.86387,3.69206c1.01196,3.11964 -1.98257,6.88609 -6.68846,8.4126c-4.70588,1.52651 -8.7821,1.95834 -9.79406,-1.1613c-0.39084,-1.20486 0.84913,-8.42305 8.61867,-10.94335z" data-paper-data="{&quot;index&quot;:null}" fill="#0debff" stroke="#000000" stroke-width="2" stroke-linecap="butt"/><path d="M260.23758,174.96974c3.96081,-8.27262 13.87796,-11.76803 22.15058,-7.80723c8.27262,3.96081 11.76803,13.87796 7.80723,22.15058c-3.96081,8.27262 -13.87796,11.76803 -22.15058,7.80723c-8.27262,-3.96081 -11.76803,-13.87796 -7.80723,-22.15058z" fill="#0debff" stroke="#000000" stroke-width="2" stroke-linecap="butt"/><path d="M249.6104,173.28957c0,0 2.49209,-1.7804 4.39101,-2.51877c1.50435,-0.58495 6.09701,-1.55941 6.09701,-1.55941" fill="none" stroke="#000000" stroke-width="2" stroke-linecap="round"/><path d="M240.05324,176.8802c-0.53818,-2.78341 1.28193,-5.47609 4.06534,-6.01427c2.78341,-0.53818 5.47609,1.28193 6.01427,4.06534c0.53818,2.78341 -1.28193,5.47609 -4.06534,6.01427c-2.78341,0.53818 -5.47609,-1.28193 -6.01427,-4.06534z" fill="#0debff" stroke="#000000" stroke-width="2" stroke-linecap="butt"/><path d="M256.12636,179.02537l0.90622,-20.78712l29.71843,-4.23864l6.68147,19.70491z" fill="url(#color-1)" stroke="#000000" stroke-width="2" stroke-linecap="butt"/><path d="M191.4641,209.4672c-4.6087,-1.79874 -4.94034,-4.7822 -3.74791,-7.83741c1.19243,-3.05521 5.89518,-4.07378 10.50387,-2.27502c4.6087,1.79874 8.03684,4.04594 6.84441,7.10114c-0.46054,1.17997 -5.99131,5.98105 -13.60037,3.01127z" data-paper-data="{&quot;index&quot;:null}" fill="#0debff" stroke="#000000" stroke-width="2" stroke-linecap="butt"/></g></g></svg>