<svg version="1.1" xmlns="http://www.w3.org/2000/svg" xmlns:xlink="http://www.w3.org/1999/xlink" width="117.87259" height="92.31956" viewBox="0,0,117.87259,92.31956"><g transform="translate(-197.88263,-133.749)"><g data-paper-data="{&quot;isPaintingLayer&quot;:true}" fill-rule="nonzero" stroke="#000000" stroke-width="2" stroke-linejoin="miter" stroke-miterlimit="10" stroke-dasharray="" stroke-dashoffset="0" style="mix-blend-mode: normal"><path d="M236.96333,175.17279c-9.07161,-1.35277 -15.32899,-9.80339 -13.97623,-18.87501c1.35277,-9.07161 9.80339,-15.32898 18.87501,-13.97622c9.07161,1.35277 15.32899,9.80338 13.97623,18.875c-1.35276,9.07161 -9.80339,15.32899 -18.87501,13.97623z" data-paper-data="{&quot;index&quot;:null}" fill="#ffe819" stroke-linecap="butt"/><path d="M235.78996,206.81148l-3.15448,-25.36973l7.79071,-0.9687l3.15448,25.36974z" data-paper-data="{&quot;index&quot;:null}" fill="#ffe819" stroke-linecap="butt"/><path d="M263.69482,219.13021c0,3.05731 -3.33463,5.53575 -7.4481,5.53575c-4.11347,0 -7.4481,-2.47844 -7.4481,-5.53575c0,-3.05731 3.33463,-5.53575 7.4481,-5.53575c4.11347,0 7.4481,2.47844 7.4481,5.53575z" data-paper-data="{&quot;index&quot;:null}" fill="#ffe819" stroke-linecap="butt"/><path d="M258.11933,147.60929c0,0 4.00186,2.45506 5.22376,3.50966c1.54239,1.33121 3.29509,3.84286 3.29509,3.84286" data-paper-data="{&quot;index&quot;:null}" fill="none" stroke-linecap="round"/><path d="M267.41504,163.36196c-2.44288,-1.43851 -3.25707,-4.58502 -1.81855,-7.0279c1.43851,-2.44288 4.58502,-3.25707 7.0279,-1.81855c2.44288,1.43851 3.25707,4.58502 1.81855,7.0279c-1.43851,2.44288 -4.58502,3.25707 -7.0279,1.81855z" data-paper-data="{&quot;index&quot;:null}" fill="#ffe819" stroke-linecap="butt"/><path d="M235.31328,220.94191c0,3.27966 -4.01057,4.12665 -8.95785,4.12665c-4.94729,0 -8.95785,-2.65869 -8.95785,-5.93835c0,-3.27966 1.39367,-5.93835 6.34095,-5.93835c8.16808,0 11.57475,6.48339 11.57475,7.75005z" data-paper-data="{&quot;index&quot;:null}" fill="#ffe819" stroke-linecap="butt"/><path d="M226.71288,141.93536c0,0 9.50943,-9.07763 19.88601,-6.828c10.37658,2.24962 21.13919,12.28699 21.13919,12.28699l-10.73406,3.4957l3.3207,10.92791z" data-paper-data="{&quot;index&quot;:null}" fill="#fff067" stroke-linecap="butt"/><path d="M198.88264,142.78982c1.50712,-1.48003 3.92869,-1.45806 5.40872,0.04906c0.69192,0.70459 15.45807,27.18604 39.35359,39.09887c27.21734,13.56888 63.89988,12.77174 63.09735,13.55985c-0.72624,0.71318 -42.96515,9.60622 -68.57174,-1.74544c-27.53348,-12.20587 -38.57014,-44.77274 -39.33698,-45.55362c-1.48003,-1.50712 -1.45806,-3.92869 0.04906,-5.40872z" fill="#ffe819" stroke-linecap="butt"/><path d="M206.88263,138.28982c1.50712,-1.48003 3.92869,-1.45806 5.40872,0.04906c0.69192,0.70459 15.45807,27.18604 39.35359,39.09887c27.21734,13.56888 63.89988,12.77174 63.09735,13.55985c-0.72624,0.71318 -42.96515,9.60622 -68.57174,-1.74544c-27.53348,-12.20587 -38.57014,-44.77274 -39.33698,-45.55362c-1.48003,-1.50712 -1.45806,-3.92869 0.04906,-5.40872z" fill="#ffe819" stroke-linecap="butt"/></g></g></svg>