<svg version="1.1" xmlns="http://www.w3.org/2000/svg" xmlns:xlink="http://www.w3.org/1999/xlink" width="106.77872" height="87.47794" viewBox="0,0,106.77872,87.47794"><g transform="translate(-220.95729,-139.37705)"><g data-paper-data="{&quot;isPaintingLayer&quot;:true}" fill-rule="nonzero" stroke="#000000" stroke-width="2" stroke-linejoin="miter" stroke-miterlimit="10" stroke-dasharray="" stroke-dashoffset="0" style="mix-blend-mode: normal"><path d="M226.94522,217.18284l3.2413,-25.35878l7.78735,0.99536l-3.2413,25.35878z" fill="#1d28e8" stroke-linecap="butt"/><path d="M221.9573,212.07462c0,-2.11232 1.71238,-3.8247 3.8247,-3.8247c2.11232,0 3.8247,1.71238 3.8247,3.8247c0,2.11232 -1.71238,3.8247 -3.8247,3.8247c-2.11232,0 -3.8247,-1.71238 -3.8247,-3.8247z" fill="#1d28e8" stroke-linecap="butt"/><path d="M252.85705,213.80053c4.92982,-0.4153 6.54175,2.11702 6.81706,5.3851c0.27531,3.26808 -3.49791,6.25406 -8.42774,6.66936c-4.92982,0.4153 -8.99733,-0.09203 -9.27264,-3.36012c-0.10633,-1.26219 2.74407,-8.00867 10.88332,-8.69434z" data-paper-data="{&quot;index&quot;:null}" fill="#1d28e8" stroke-linecap="butt"/><path d="M235.26003,213.63831c4.91995,-0.51932 6.585,1.97839 6.92927,5.23993c0.34427,3.26154 -3.36505,6.32653 -8.28501,6.84585c-4.91995,0.51932 -8.99727,0.09799 -9.34154,-3.16355c-0.13296,-1.25966 2.57433,-8.06483 10.69728,-8.92223z" data-paper-data="{&quot;index&quot;:null}" fill="#1d28e8" stroke-linecap="butt"/><path d="M228.07056,181.98812c1.16287,-9.09791 9.48089,-15.53052 18.57879,-14.36765c9.09791,1.16287 15.53052,9.48089 14.36765,18.57879c-1.16287,9.09791 -9.48089,15.53052 -18.57879,14.36765c-9.09791,-1.16287 -15.53052,-9.48089 -14.36765,-18.57879z" fill="#1d28e8" stroke-linecap="butt"/><path d="M313.1152,150.15947c0,0 -1.1266,2.848 -2.32062,4.49888c-0.94593,1.30784 -4.27416,4.61917 -4.27416,4.61917" fill="none" stroke-linecap="round"/><path d="M319.19283,141.95615c1.96284,2.04554 1.89582,5.29498 -0.14972,7.25782c-2.04554,1.96284 -5.29498,1.89582 -7.25782,-0.14972c-1.96284,-2.04554 -1.89582,-5.29498 0.14972,-7.25782c2.04554,-1.96284 5.29498,-1.89582 7.25782,0.14972z" fill="#1d28e8" stroke-linecap="butt"/><path d="M279.5546,190.73864c1.23352,1.71474 0.84342,4.10478 -0.87132,5.3383c-1.71474,1.23352 -4.10478,0.84342 -5.3383,-0.87132c-1.23352,-1.71474 -0.84342,-4.10478 0.87132,-5.3383c1.71474,-1.23352 4.10478,-0.84342 5.3383,0.87132z" fill="#1d28e8" stroke-linecap="butt"/><path d="M305.1348,155.22315l21.23867,8.94122l-18.01206,36.88812l-20.29992,-20.01307l-11.54334,17.31507z" fill="#2530ff" stroke-linecap="round"/></g></g></svg>