<svg version="1.1" xmlns="http://www.w3.org/2000/svg" xmlns:xlink="http://www.w3.org/1999/xlink" width="97.02935" height="83.22365" viewBox="0,0,97.02935,83.22365"><defs><linearGradient x1="227.5383" y1="167.65149" x2="256.32862" y2="176.64761" gradientUnits="userSpaceOnUse" id="color-1"><stop offset="0" stop-color="#e80000" stop-opacity="0"/><stop offset="1" stop-color="#e80000"/></linearGradient><linearGradient x1="184.75035" y1="204.12019" x2="203.6369" y2="180.60189" gradientUnits="userSpaceOnUse" id="color-2"><stop offset="0" stop-color="#e80000" stop-opacity="0"/><stop offset="1" stop-color="#e80000"/></linearGradient></defs><g transform="translate(-168.83708,-142.60027)"><g data-paper-data="{&quot;isPaintingLayer&quot;:true}" fill-rule="nonzero" stroke="#000000" stroke-linejoin="miter" stroke-miterlimit="10" stroke-dasharray="" stroke-dashoffset="0" style="mix-blend-mode: normal"><path d="M244.77659,195.88453c-2.10387,0.18886 -3.96249,-1.36356 -4.15135,-3.46742c-0.18886,-2.10387 1.36356,-3.96249 3.46742,-4.15135c2.10387,-0.18886 3.96249,1.36356 4.15135,3.46742c0.18886,2.10387 -1.36356,3.96249 -3.46742,4.15135z" data-paper-data="{&quot;index&quot;:null}" fill="#e80000" stroke-width="2" stroke-linecap="butt"/><path d="M250.52366,193.87183c-3.91014,7.71245 -9.49642,5.1976 -14.51046,-0.41317c-5.01405,-5.61075 -7.00729,-14.55838 -7.92319,-24.69039c-1.3644,-15.09339 15.39092,-24.46241 15.39092,-24.46241c0,0 -6.83663,14.31685 -0.84802,27.0719c5.36573,11.42843 11.80092,14.78161 7.89076,22.49408z" data-paper-data="{&quot;index&quot;:null}" fill="url(#color-1)" stroke-width="0" stroke-linecap="butt"/><path d="M233.43022,207.25581l-6.88019,-24.62187l7.56105,-2.1128l6.88019,24.62187z" fill="#e80000" stroke-width="2" stroke-linecap="butt"/><path d="M212.17436,150.29035c0,0 2.99709,0.63067 4.82555,1.52948c1.44852,0.71206 5.27325,3.43483 5.27325,3.43483" fill="none" stroke-width="2" stroke-linecap="round"/><path d="M203.06435,145.68171c1.6856,-2.27942 4.89988,-2.76081 7.1793,-1.07521c2.27942,1.6856 2.76081,4.89988 1.07521,7.1793c-1.6856,2.27942 -4.89988,2.76081 -7.1793,1.07521c-2.27942,-1.6856 -2.76081,-4.89988 -1.07521,-7.1793z" fill="#e80000" stroke-width="2" stroke-linecap="butt"/><path d="M214.80493,158.67904c3.16454,-8.60872 12.70864,-13.02209 21.31735,-9.85756c8.60872,3.16454 13.02209,12.70864 9.85756,21.31735c-3.16454,8.60872 -12.70864,13.02209 -21.31735,9.85756c-8.60872,-3.16454 -13.02209,-12.70864 -9.85756,-21.31735z" fill="#e80000" stroke-width="2" stroke-linecap="butt"/><path d="M215.17941,198.19116c-0.71664,1.98704 -2.90841,3.0169 -4.89545,2.30026c-1.98704,-0.71664 -3.0169,-2.90841 -2.30026,-4.89545c0.71664,-1.98704 2.90841,-3.0169 4.89545,-2.30026c1.98704,0.71664 3.0169,2.90841 2.30026,4.89545z" data-paper-data="{&quot;index&quot;:null}" fill="#e80000" stroke-width="2" stroke-linecap="butt"/><path d="M224.69316,213.75243c4.11347,0 7.4481,2.47844 7.4481,5.53575c0,3.05731 -3.33463,5.53575 -7.4481,5.53575c-4.11347,0 -7.4481,-2.47844 -7.4481,-5.53575c0,-3.05731 3.33463,-5.53575 7.4481,-5.53575z" data-paper-data="{&quot;index&quot;:null}" fill="#e80000" stroke-width="2" stroke-linecap="butt"/><path d="M257.79128,212.1491c4.90323,-0.6587 6.63848,1.79077 7.07515,5.04123c0.43666,3.25046 -3.1842,6.41946 -8.08745,7.07816c-4.90323,0.6587 -8.99087,0.35323 -9.42753,-2.89723c-0.16865,-1.25538 2.34447,-8.13462 10.43983,-9.22215z" data-paper-data="{&quot;index&quot;:null}" fill="#e80000" stroke-width="2" stroke-linecap="butt"/><path d="M214.30484,156.92156l0.56117,-5.57182l33.23187,3.34698l-0.56117,5.57181z" fill="#ff2121" stroke-width="2" stroke-linecap="butt"/><path d="M217.55267,192.29474c5.75243,6.45605 1.3716,10.73852 -5.68247,13.35791c-7.05408,2.61938 -16.11176,1.20823 -25.87872,-1.63834c-14.5496,-4.24045 -17.1544,-23.25977 -17.1544,-23.25977c0,0 10.83242,11.59182 24.89341,10.67355c12.59853,-0.82274 18.06976,-5.58942 23.82219,0.86664z" data-paper-data="{&quot;index&quot;:null}" fill="url(#color-2)" stroke-width="0" stroke-linecap="butt"/></g></g></svg>