<svg version="1.1" xmlns="http://www.w3.org/2000/svg" xmlns:xlink="http://www.w3.org/1999/xlink" width="162.38702" height="86.80149" viewBox="0,0,162.38702,86.80149"><g transform="translate(-206.80341,-140.80323)"><g data-paper-data="{&quot;isPaintingLayer&quot;:true}" fill-rule="nonzero" stroke="#000000" stroke-width="2" stroke-linejoin="miter" stroke-miterlimit="10" stroke-dasharray="" stroke-dashoffset="0" style="mix-blend-mode: normal"><path d="M212.89825,167.5249c1.2701,-9.08356 9.66341,-15.41762 18.74696,-14.14752c9.08356,1.2701 15.41763,9.66341 14.14753,18.74696c-1.2701,9.08356 -9.66341,15.41762 -18.74696,14.14752c-9.08356,-1.2701 -15.41763,-9.66341 -14.14753,-18.74696z" fill="#1d28e8" stroke-linecap="butt"/><path d="M242.69794,211.14597l-3.22571,-25.36077l7.78795,-0.99058l3.22572,25.36077z" fill="#1d28e8" stroke-linecap="butt"/><path d="M216.78791,195.76366c0,-2.11232 1.71238,-3.8247 3.8247,-3.8247c2.11232,0 3.8247,1.71238 3.8247,3.8247c0,2.11232 -1.71238,3.8247 -3.8247,3.8247c-2.11232,0 -3.8247,-1.71238 -3.8247,-3.8247z" fill="#1d28e8" stroke-linecap="butt"/><path d="M263.98836,220.222c0,3.05731 -3.33463,5.53575 -7.4481,5.53575c-4.11347,0 -7.4481,-2.47844 -7.4481,-5.53575c0,-3.05731 3.33463,-5.53575 7.4481,-5.53575c4.11347,0 7.4481,2.47844 7.4481,5.53575z" data-paper-data="{&quot;index&quot;:null}" fill="#1d28e8" stroke-linecap="butt"/><path d="M225.08587,223.77004c-0.64882,3.21484 -4.74769,3.25167 -9.59719,2.27294c-4.84951,-0.97873 -8.25483,-4.3783 -7.60601,-7.59314c0.64882,-3.21484 2.54092,-5.54527 7.39043,-4.56654c8.00664,1.61591 10.06336,8.64511 9.81277,9.88674z" data-paper-data="{&quot;index&quot;:null}" fill="#1d28e8" stroke-linecap="butt"/><path d="M351.50999,158.79761l8.12709,21.56332l-39.16033,12.31405l0.55257,-28.50096l-20.50697,3.53908z" data-paper-data="{&quot;index&quot;:null}" fill="#2530ff" stroke-linecap="round"/><path d="M305.92149,165.6213c0,2.11232 -1.71238,3.8247 -3.8247,3.8247c-2.11232,0 -3.8247,-1.71238 -3.8247,-3.8247c0,-2.11232 1.71238,-3.8247 3.8247,-3.8247c2.11232,0 3.8247,1.71238 3.8247,3.8247z" data-paper-data="{&quot;index&quot;:null}" fill="#1d28e8" stroke-linecap="butt"/><path d="M359.71383,150.9468c0,0 -1.72817,2.52859 -3.25753,3.87475c-1.21159,1.06644 -5.18935,3.56032 -5.18935,3.56032" fill="none" stroke-linecap="round"/><path d="M367.45417,144.28955c1.46223,2.42877 0.6787,5.58303 -1.75006,7.04526c-2.42877,1.46223 -5.58303,0.6787 -7.04526,-1.75006c-1.46223,-2.42877 -0.6787,-5.58303 1.75006,-7.04526c2.42877,-1.46223 5.58303,-0.6787 7.04526,1.75006z" fill="#1d28e8" stroke-linecap="butt"/></g></g></svg>