<svg version="1.1" xmlns="http://www.w3.org/2000/svg" xmlns:xlink="http://www.w3.org/1999/xlink" width="65.36849" height="79.03566" viewBox="0,0,65.36849,79.03566"><defs><linearGradient x1="198.19267" y1="177.01859" x2="215.49334" y2="188.74129" gradientUnits="userSpaceOnUse" id="color-1"><stop offset="0" stop-color="#e80000" stop-opacity="0"/><stop offset="1" stop-color="#e80000"/></linearGradient></defs><g transform="translate(-197.14219,-146.78826)"><g data-paper-data="{&quot;isPaintingLayer&quot;:true}" fill-rule="nonzero" stroke="#000000" stroke-linejoin="miter" stroke-miterlimit="10" stroke-dasharray="" stroke-dashoffset="0" style="mix-blend-mode: normal"><path d="M214.70282,152.66931c0,0 3.03065,-0.44213 5.05694,-0.22937c1.60525,0.16856 6.13454,1.40451 6.13454,1.40451" fill="none" stroke-width="2" stroke-linecap="round"/><path d="M204.56213,151.48684c0.79564,-2.72102 3.64645,-4.28186 6.36747,-3.48622c2.72102,0.79564 4.28186,3.64645 3.48622,6.36747c-0.79564,2.72102 -3.64645,4.28186 -6.36747,3.48622c-2.72102,-0.79564 -4.28186,-3.64645 -3.48622,-6.36747z" fill="#e80000" stroke-width="2" stroke-linecap="butt"/><path d="M216.11045,164.3955c0,-9.17193 7.43532,-16.60724 16.60724,-16.60724c9.17193,0 16.60724,7.43532 16.60724,16.60724c0,9.17193 -7.43532,16.60724 -16.60724,16.60724c-9.17193,0 -16.60724,-7.43532 -16.60724,-16.60724z" fill="#e80000" stroke-width="2" stroke-linecap="butt"/><path d="M224.87714,208.65565l0.93984,-25.54781l7.84539,0.28862l-0.93984,25.54781z" fill="#e80000" stroke-width="2" stroke-linecap="butt"/><path d="M199.61273,194.3075c0,-2.11232 1.71238,-3.8247 3.8247,-3.8247c2.11232,0 3.8247,1.71238 3.8247,3.8247c0,2.11232 -1.71238,3.8247 -3.8247,3.8247c-2.11232,0 -3.8247,-1.71238 -3.8247,-3.8247z" fill="#e80000" stroke-width="2" stroke-linecap="butt"/><path d="M236.9134,201.98781c0,-2.11232 1.71238,-3.8247 3.8247,-3.8247c2.11232,0 3.8247,1.71238 3.8247,3.8247c0,2.11232 -1.71238,3.8247 -3.8247,3.8247c-2.11232,0 -3.8247,-1.71238 -3.8247,-3.8247z" fill="#e80000" stroke-width="2" stroke-linecap="butt"/><path d="M227.18278,213.75242c4.11347,0 7.4481,2.47844 7.4481,5.53575c0,3.05731 -3.33463,5.53575 -7.4481,5.53575c-4.11347,0 -7.4481,-2.47844 -7.4481,-5.53575c0,-3.05731 3.33463,-5.53575 7.4481,-5.53575z" data-paper-data="{&quot;index&quot;:null}" fill="#e80000" stroke-width="2" stroke-linecap="butt"/><path d="M253.81908,208.50406c4.76921,-1.31537 6.8196,0.87709 7.69159,4.03871c0.87198,3.16162 -2.28734,6.79093 -7.05657,8.1063c-4.76921,1.31537 -8.86063,1.56518 -9.73261,-1.59644c-0.33678,-1.22107 1.22349,-8.37685 9.09758,-10.54856z" data-paper-data="{&quot;index&quot;:null}" fill="#e80000" stroke-width="2" stroke-linecap="butt"/><path d="M215.0347,162.91848l-1.3957,-5.42329l32.34602,-8.32434l1.3957,5.42328z" fill="#ff2121" stroke-width="2" stroke-linecap="butt"/><path d="M210.19573,192.56642c-0.24894,4.05672 -0.82752,6.7526 -3.80632,8.01301c-4.58441,1.93977 -9.57301,-6.00699 -9.23053,-9.78224c0.13757,-1.51636 -0.48604,-7.1018 1.15512,-13.02188c2.44478,-8.819 15.76415,-10.22487 15.76415,-10.22487c0,0 -7.77048,6.48599 -6.59439,15.05634c1.05377,7.67896 2.96089,5.90293 2.71195,9.95965z" data-paper-data="{&quot;index&quot;:null}" fill="url(#color-1)" stroke-width="0" stroke-linecap="butt"/></g></g></svg>