<svg version="1.1" xmlns="http://www.w3.org/2000/svg" xmlns:xlink="http://www.w3.org/1999/xlink" width="58.20764" height="96.30864" viewBox="0,0,58.20764,96.30864"><g transform="translate(-207.37103,-130.10673)"><g data-paper-data="{&quot;isPaintingLayer&quot;:true}" fill-rule="nonzero" stroke="#000000" stroke-width="2" stroke-linejoin="miter" stroke-miterlimit="10" stroke-dasharray="" stroke-dashoffset="0" style="mix-blend-mode: normal"><path d="M221.71309,161.46323c0,0 -0.96457,-2.90689 -1.10891,-4.93919c-0.11435,-1.61002 0.31168,-6.28555 0.31168,-6.28555" fill="#181818" stroke-linecap="round"/><path d="M222.09579,172.39668c-2.81814,-0.30826 -4.85284,-2.8427 -4.54457,-5.66085c0.30826,-2.81814 2.8427,-4.85284 5.66085,-4.54457c2.81814,0.30826 4.85284,2.8427 4.54457,5.66085c-0.30826,2.81814 -2.8427,4.85284 -5.66085,4.54457z" fill="#181818" stroke-linecap="butt"/><g><path d="M218.19013,153.76085l-4.61442,-11.14544c0,0 8.50679,-5.20152 12.91542,-7.02678c4.69916,-1.94554 14.4636,-4.30865 14.4636,-4.30865l4.61442,11.14544c0,0 -9.00535,2.85165 -13.53216,4.72583c-4.5984,1.90383 -13.84686,6.6096 -13.84686,6.6096z" fill="#343434" stroke-linecap="butt"/><path d="M208.37103,159.57961c0,0 15.28323,-9.03168 23.14161,-12.2852c7.89049,-3.26681 24.34734,-6.86382 24.34734,-6.86382" fill="none" stroke-linecap="round"/></g><path d="M250.13478,202.9076c0,-2.11232 1.71238,-3.8247 3.8247,-3.8247c2.11232,0 3.8247,1.71238 3.8247,3.8247c0,2.11232 -1.71238,3.8247 -3.8247,3.8247c-2.11232,0 -3.8247,-1.71238 -3.8247,-3.8247z" fill="#181818" stroke-linecap="butt"/><path d="M220.66802,162.27811c-2.93125,-8.69092 1.73789,-18.11254 10.42879,-21.04379c8.69092,-2.93125 18.11254,1.73789 21.04379,10.42879c2.93125,8.69092 -1.73789,18.11254 -10.42879,21.04379c-8.69092,2.93125 -18.11254,-1.73789 -21.04379,-10.42879z" fill="#181818" stroke-linecap="butt"/><path d="M238.15568,206.04852l-3.48368,-25.32662l7.77747,-1.06979l3.48368,25.32662z" fill="#181818" stroke-linecap="butt"/><path d="M228.5361,214.34387c4.11347,0 7.4481,2.47844 7.4481,5.53575c0,3.05731 -3.33463,5.53575 -7.4481,5.53575c-4.11347,0 -7.4481,-2.47844 -7.4481,-5.53575c0,-3.05731 3.33463,-5.53575 7.4481,-5.53575z" data-paper-data="{&quot;index&quot;:null}" fill="#181818" stroke-linecap="butt"/><path d="M258.23772,213.51383c4.94728,0 6.34095,2.65869 6.34095,5.93835c0,3.27966 -4.01056,5.93835 -8.95785,5.93835c-4.94728,0 -8.95785,-0.84699 -8.95785,-4.12665c0,-1.26666 3.40667,-7.75005 11.57475,-7.75005z" data-paper-data="{&quot;index&quot;:null}" fill="#181818" stroke-linecap="butt"/><path d="M232.32966,179.39268l14.32966,-1.66623l-3.13523,4.69864l4.65851,3.62661l-16.72183,3.51934l3.56847,-5.67267z" fill="#0e0e0e" stroke-linecap="round"/><path d="M222.3405,205.27318c0,-2.11232 1.71238,-3.8247 3.8247,-3.8247c2.11232,0 3.8247,1.71238 3.8247,3.8247c0,2.11232 -1.71238,3.8247 -3.8247,3.8247c-2.11232,0 -3.8247,-1.71238 -3.8247,-3.8247z" fill="#181818" stroke-linecap="butt"/><path d="M228.97051,152.88128l-1.67616,-4.96969l18.37954,-6.19901l2.1036,6.0383z" fill="#ff0000" stroke-linecap="butt"/></g></g></svg>