<svg version="1.1" xmlns="http://www.w3.org/2000/svg" xmlns:xlink="http://www.w3.org/1999/xlink" width="60.07934" height="83.93137" viewBox="0,0,60.07934,83.93137"><g transform="translate(-203.92267,-142.29515)"><g data-paper-data="{&quot;isPaintingLayer&quot;:true}" fill-rule="nonzero" stroke="#000000" stroke-width="2" stroke-linejoin="miter" stroke-miterlimit="10" stroke-dasharray="" stroke-dashoffset="0" style="mix-blend-mode: normal"><path d="M213.71779,162.21352c0,0 1.9301,-2.37803 3.5649,-3.59399c1.29511,-0.96329 5.46435,-3.12189 5.46435,-3.12189" fill="none" stroke-linecap="round"/><path d="M205.45662,168.21226c-1.25771,-2.5407 -0.21766,-5.61993 2.32304,-6.87764c2.5407,-1.25771 5.61993,-0.21766 6.87764,2.32304c1.25771,2.5407 0.21766,5.61993 -2.32304,6.87764c-2.5407,1.25771 -5.61993,0.21766 -6.87764,-2.32304z" fill="#e80000" stroke-linecap="butt"/><path d="M222.59746,161.12833c-0.70414,-9.14486 6.13842,-17.12905 15.28327,-17.83319c9.14486,-0.70414 17.12905,6.13842 17.83319,15.28327c0.70414,9.14486 -6.13842,17.12905 -15.28327,17.83319c-9.14486,0.70414 -17.12905,-6.13842 -17.83319,-15.28327z" fill="#e80000" stroke-linecap="butt"/><path d="M236.81219,205.26355l-1.02427,-25.54456l7.84439,-0.31453l1.02427,25.54456z" fill="#e80000" stroke-linecap="butt"/><path d="M220.47951,191.31272c-0.16217,-2.10609 1.4137,-3.94487 3.51979,-4.10704c2.10609,-0.16217 3.94487,1.4137 4.10704,3.51979c0.16217,2.10609 -1.4137,3.94487 -3.51979,4.10704c-2.10609,0.16217 -3.94487,-1.4137 -4.10704,-3.51979z" fill="#e80000" stroke-linecap="butt"/><path d="M255.37519,190.22459c-0.16217,-2.10609 1.4137,-3.94487 3.51979,-4.10704c2.10609,-0.16217 3.94487,1.4137 4.10704,3.51979c0.16217,2.10609 -1.4137,3.94487 -3.51979,4.10704c-2.10609,0.16217 -3.94487,-1.4137 -4.10704,-3.51979z" fill="#e80000" stroke-linecap="butt"/><path d="M227.18278,213.75242c4.11347,0 7.4481,2.47844 7.4481,5.53575c0,3.05731 -3.33463,5.53575 -7.4481,5.53575c-4.11347,0 -7.4481,-2.47844 -7.4481,-5.53575c0,-3.05731 3.33463,-5.53575 7.4481,-5.53575z" data-paper-data="{&quot;index&quot;:null}" fill="#e80000" stroke-linecap="butt"/><path d="M256.06341,213.34982c4.94728,0 6.34095,2.65869 6.34095,5.93835c0,3.27966 -4.01056,5.93835 -8.95785,5.93835c-4.94728,0 -8.95785,-0.84699 -8.95785,-4.12665c0,-1.26666 3.40667,-7.75005 11.57475,-7.75005z" data-paper-data="{&quot;index&quot;:null}" fill="#e80000" stroke-linecap="butt"/><path d="M221.41149,159.73826l-1.80793,-5.30013l31.61149,-10.78302l1.80793,5.30012z" fill="#ff2121" stroke-linecap="butt"/></g></g></svg>