<svg version="1.1" xmlns="http://www.w3.org/2000/svg" xmlns:xlink="http://www.w3.org/1999/xlink" width="64.38415" height="91.80748" viewBox="0,0,64.38415,91.80748"><g transform="translate(-215.43622,-139.75023)"><g data-paper-data="{&quot;isPaintingLayer&quot;:true}" fill-rule="nonzero" stroke="#000000" stroke-width="2" stroke-linejoin="miter" stroke-miterlimit="10" stroke-dasharray="" stroke-dashoffset="0" style="mix-blend-mode: normal"><path d="M255.71009,212.56037c4.49134,2.07446 4.64175,5.07252 3.26654,8.04993c-1.37521,2.97741 -6.13099,3.70939 -10.62234,1.63493c-4.49134,-2.07446 -7.77715,-4.52508 -6.40195,-7.50249c0.53112,-1.14993 6.34242,-5.60736 13.75774,-2.18237z" data-paper-data="{&quot;index&quot;:null}" fill="#181818" stroke-linecap="butt"/><path d="M238.26809,199.78967c0.4131,-2.07153 2.42731,-3.41596 4.49884,-3.00285c2.07153,0.4131 3.41596,2.42731 3.00285,4.49884c-0.4131,2.07153 -2.42731,3.41596 -4.49884,3.00285c-2.07153,-0.4131 -3.41596,-2.42731 -3.00285,-4.49884z" fill="#181818" stroke-linecap="butt"/><path d="M247.5701,209.74672c0,-2.11232 1.71238,-3.8247 3.8247,-3.8247c2.11232,0 3.8247,1.71238 3.8247,3.8247c0,2.11232 -1.71238,3.8247 -3.8247,3.8247c-2.11232,0 -3.8247,-1.71238 -3.8247,-3.8247z" fill="#181818" stroke-linecap="butt"/><path d="M226.99939,146.39142c0,0 3.00193,-0.60728 5.03682,-0.5057c1.61207,0.08048 6.2022,1.06677 6.2022,1.06677" fill="#181818" stroke-linecap="round"/><path d="M216.43622,145.79304c0.64558,-2.76047 3.40672,-4.47496 6.1672,-3.82937c2.76047,0.64558 4.47496,3.40672 3.82937,6.1672c-0.64558,2.76047 -3.40672,4.47496 -6.1672,3.82937c-2.76047,-0.64558 -4.47496,-3.40672 -3.82937,-6.1672z" fill="#181818" stroke-linecap="butt"/><path d="M236.54833,159.89393c0,-9.17193 7.43532,-16.60724 16.60724,-16.60724c9.17193,0 16.60724,7.43532 16.60724,16.60724c0,9.17193 -7.43532,16.60724 -16.60724,16.60724c-9.17193,0 -16.60724,-7.43532 -16.60724,-16.60724z" fill="#181818" stroke-linecap="butt"/><path d="M233.6838,204.54042l4.99975,-25.07143l7.6991,1.53536l-4.99975,25.07143z" fill="#181818" stroke-linecap="butt"/><path d="M228.48428,228.16816c-3.45221,3.5437 -6.32912,2.68674 -8.67832,0.3982c-2.3492,-2.28854 -1.45503,-7.01651 1.99719,-10.56022c3.45221,-3.5437 6.85748,-5.82542 9.20668,-3.53687c0.9073,0.88387 3.17413,7.84816 -2.52555,13.6989z" data-paper-data="{&quot;index&quot;:null}" fill="#181818" stroke-linecap="butt"/><path d="M247.81887,163.52693v-5.24474h23.5572v5.24474z" fill="#ff0000" stroke-linecap="butt"/><path d="M236.90545,177.44618l14.08548,3.11684l-4.50069,3.41329l3.21451,4.95186l-16.9525,-2.14901l5.22894,-4.19181z" fill="#0e0e0e" stroke-linecap="round"/><g><path d="M238.43583,152.81314v-12.06291h29.6328v12.06291z" fill="#343434" stroke-linecap="butt"/><path d="M278.82037,152.81314h-51.13626" fill="none" stroke-linecap="round"/></g></g></g></svg>