<svg version="1.1" xmlns="http://www.w3.org/2000/svg" xmlns:xlink="http://www.w3.org/1999/xlink" width="89.38683" height="90.37918" viewBox="0,0,89.38683,90.37918"><g transform="translate(-194.60006,-126.51643)"><g data-paper-data="{&quot;isPaintingLayer&quot;:true}" fill-rule="nonzero" stroke="#000000" stroke-width="2" stroke-linejoin="miter" stroke-miterlimit="10" stroke-dasharray="" stroke-dashoffset="0" style="mix-blend-mode: normal"><path d="M217.27419,141.12898c0,0 -4.69236,-0.15406 -6.27598,-0.46616c-1.99898,-0.39398 -4.76465,-1.7098 -4.76465,-1.7098" data-paper-data="{&quot;index&quot;:null}" fill="none" stroke-linecap="round"/><path d="M200.80888,131.91801c2.83466,0.04179 5.09873,2.37359 5.05694,5.20825c-0.04178,2.83465 -2.37359,5.09873 -5.20825,5.05694c-2.83466,-0.04179 -5.09873,-2.37359 -5.05694,-5.20825c0.04179,-2.83466 2.37359,-5.09873 5.20825,-5.05694z" data-paper-data="{&quot;index&quot;:null}" fill="#2d6a2b" stroke-linecap="butt"/><path d="M271.0949,162.25157c-0.02935,-4.9472 2.62103,-6.35662 5.9006,-6.37608c3.27961,-0.01947 5.96206,3.97525 5.9914,8.92245c0.02935,4.9472 -0.79382,8.96271 -4.0734,8.98219c-1.26666,0.00752 -7.77013,-3.36062 -7.81861,-11.52856z" data-paper-data="{&quot;index&quot;:null}" fill="#2d6a2b" stroke-linecap="butt"/><path d="M219.37468,151.75965c-1.88232,-8.97671 3.86883,-17.77967 12.84552,-19.66198c8.97671,-1.88232 17.77967,3.86883 19.66198,12.84553c1.88232,8.97671 -3.86883,17.77967 -12.84552,19.66198c-8.97671,1.88232 -17.77967,-3.86883 -19.66198,-12.84553z" fill="#2d6a2b" stroke-linecap="butt"/><path d="M224.34471,131.93642c13.3864,-8.48212 25.18263,-2.14686 25.18263,-2.14686l-33.51304,23.60026c0,0 -6.06216,-12.33373 8.33041,-21.45341z" fill="#367e33" stroke-linecap="round"/><path d="M236.62122,195.91465l-8.32101,-24.173l7.42322,-2.55528l8.321,24.173z" fill="#2d6a2b" stroke-linecap="butt"/><path d="M207.46371,168.02645c0,-2.11232 1.71238,-3.8247 3.8247,-3.8247c2.11232,0 3.8247,1.71238 3.8247,3.8247c0,2.11232 -1.71238,3.8247 -3.8247,3.8247c-2.11232,0 -3.8247,-1.71238 -3.8247,-3.8247z" fill="#2d6a2b" stroke-linecap="butt"/><path d="M244.03188,168.51273c0,-2.11232 1.71238,-3.8247 3.8247,-3.8247c2.11232,0 3.8247,1.71238 3.8247,3.8247c0,2.11232 -1.71238,3.8247 -3.8247,3.8247c-2.11232,0 -3.8247,-1.71238 -3.8247,-3.8247z" fill="#2d6a2b" stroke-linecap="butt"/><path d="M219.16501,215.65736c-4.84353,1.00786 -6.74961,-1.31116 -7.41774,-4.52204c-0.66813,-3.21088 2.7167,-6.63085 7.56024,-7.63871c4.84353,-1.00786 8.94254,-0.99566 9.61067,2.21522c0.25805,1.24009 -1.7564,8.28153 -9.75318,9.94553z" data-paper-data="{&quot;index&quot;:null}" fill="#2d6a2b" stroke-linecap="butt"/></g></g></svg>