<svg version="1.1" xmlns="http://www.w3.org/2000/svg" xmlns:xlink="http://www.w3.org/1999/xlink" width="118.70977" height="134.79829" viewBox="0,0,118.70977,134.79829"><g transform="translate(-170.37029,-89.07107)"><g data-paper-data="{&quot;isPaintingLayer&quot;:true}" fill-rule="nonzero" stroke="#000000" stroke-width="2" stroke-linejoin="miter" stroke-miterlimit="10" stroke-dasharray="" stroke-dashoffset="0" style="mix-blend-mode: normal"><path d="M211.19175,147.66753c-5.12113,-7.6091 -3.10424,-17.92897 4.50486,-23.0501c7.6091,-5.12113 17.92898,-3.10423 23.05011,4.50486c5.12113,7.6091 3.10424,17.92897 -4.50486,23.0501c-7.6091,5.12113 -17.92898,3.10423 -23.05011,-4.50486z" fill="#ff6b00" stroke-linecap="butt"/><path d="M234.09489,188.36462l-6.70545,-24.67004l7.57583,-2.05916l6.70545,24.67004z" data-paper-data="{&quot;index&quot;:null}" fill="#ff6b00" stroke-linecap="butt"/><path d="M199.09894,148.51254c0,0 1.50592,-2.66695 2.91472,-4.1388c1.11609,-1.16604 4.86633,-3.99051 4.86633,-3.99051" fill="none" stroke-linecap="round"/><path d="M191.95543,155.80654c-1.66431,-2.295 -1.15302,-5.50468 1.14199,-7.16899c2.295,-1.66431 5.50466,-1.15302 7.16897,1.142c1.66431,2.295 1.15303,5.50468 -1.14198,7.16898c-2.295,1.66431 -5.50467,1.15302 -7.16898,-1.14198z" fill="#ff6b00" stroke-linecap="butt"/><path d="M262.35868,211.62592c2.15515,4.45319 0.36909,6.86586 -2.58304,8.29456c-2.95212,1.42869 -7.09237,-1.02315 -9.24753,-5.47636c-2.15515,-4.45319 -3.13984,-8.43219 -0.18772,-9.86088c1.14015,-0.55178 8.46007,-0.30964 12.01827,7.04268z" data-paper-data="{&quot;index&quot;:null}" fill="#ff6b00" stroke-linecap="butt"/><path d="M209.28173,152.99795l-3.29493,-12.4683l-34.03853,-2.88145l21.8264,-42.06723l22.06856,25.37478l12.02499,-4.58119z" data-paper-data="{&quot;index&quot;:null}" fill="#ffa340" stroke-linecap="butt"/><path d="M235.06386,216.55802c-0.02472,4.94722 -2.69035,6.32758 -5.96997,6.3112c-3.27962,-0.01639 -5.91823,-4.04019 -5.89351,-8.98742c0.02472,-4.94722 0.89174,-8.95351 4.17135,-8.93711c1.26664,0.00633 7.73292,3.44536 7.69211,11.61333z" data-paper-data="{&quot;index&quot;:null}" fill="#ff6b00" stroke-linecap="butt"/><path d="M282.67785,95.74295c-1.56624,-1.41732 -1.68698,-3.83598 -0.26966,-5.40222c1.41732,-1.56624 3.83598,-1.68698 5.40222,-0.26966c1.56624,1.41732 1.68698,3.83598 0.26966,5.40222c-1.41732,1.56624 -3.83598,1.68698 -5.40222,0.26966z" fill="#ff6b00" stroke-linecap="butt"/><path d="M272.64582,102.61839c-1.56624,-1.41732 -1.68698,-3.83598 -0.26966,-5.40222c1.41732,-1.56624 3.83598,-1.68699 5.40222,-0.26967c1.56624,1.41732 1.68698,3.83598 0.26966,5.40222c-1.41732,1.56624 -3.83598,1.68698 -5.40222,0.26966z" fill="#ff6b00" stroke-linecap="butt"/></g></g></svg>