<svg version="1.1" xmlns="http://www.w3.org/2000/svg" xmlns:xlink="http://www.w3.org/1999/xlink" width="85.64631" height="73.94699" viewBox="0,0,85.64631,73.94699"><g transform="translate(-214.0421,-152.87097)"><g data-paper-data="{&quot;isPaintingLayer&quot;:true}" fill-rule="nonzero" stroke="#000000" stroke-width="2" stroke-linejoin="miter" stroke-miterlimit="10" stroke-dasharray="" stroke-dashoffset="0" style="mix-blend-mode: normal"><path d="M218.63686,189.64147c0,-2.11232 1.71238,-3.8247 3.8247,-3.8247c2.11232,0 3.8247,1.71238 3.8247,3.8247c0,2.11232 -1.71238,3.8247 -3.8247,3.8247c-2.11232,0 -3.8247,-1.71238 -3.8247,-3.8247z" fill="#181818" stroke-linecap="butt"/><path d="M241.30473,160.11879c0,0 3.00193,-0.60728 5.03682,-0.5057c1.61207,0.08048 6.2022,1.06677 6.2022,1.06677" fill="#181818" stroke-linecap="round"/><path d="M230.74156,159.52041c0.64558,-2.76047 3.40672,-4.47496 6.1672,-3.82937c2.76047,0.64558 4.47496,3.40672 3.82937,6.1672c-0.64558,2.76047 -3.40672,4.47496 -6.1672,3.82937c-2.76047,-0.64558 -4.47496,-3.40672 -3.82937,-6.1672z" fill="#181818" stroke-linecap="butt"/><path d="M250.85367,173.6213c0,-9.17193 7.43532,-16.60724 16.60724,-16.60724c9.17193,0 16.60724,7.43532 16.60724,16.60724c0,9.17193 -7.43532,16.60724 -16.60724,16.60724c-9.17193,0 -16.60724,-7.43532 -16.60724,-16.60724z" fill="#181818" stroke-linecap="butt"/><path d="M240.7429,208.44596l12.08838,-22.52654l6.91759,3.71219l-12.08838,22.52654z" fill="#181818" stroke-linecap="butt"/><path d="M222.4902,214.34387c4.11347,0 7.4481,2.47844 7.4481,5.53575c0,3.05731 -3.33463,5.53575 -7.4481,5.53575c-4.11347,0 -7.4481,-2.47844 -7.4481,-5.53575c0,-3.05731 3.33463,-5.53575 7.4481,-5.53575z" data-paper-data="{&quot;index&quot;:null}" fill="#181818" stroke-linecap="butt"/><path d="M266.98414,213.94127c4.94728,0 6.34095,2.65869 6.34095,5.93835c0,3.27966 -4.01056,5.93835 -8.95785,5.93835c-4.94728,0 -8.95785,-0.84699 -8.95785,-4.12665c0,-1.26666 3.40667,-7.75005 11.57475,-7.75005z" data-paper-data="{&quot;index&quot;:null}" fill="#181818" stroke-linecap="butt"/><path d="M266.57253,185.0276v-5.24474h18.24518v5.24474z" fill="#ff0000" stroke-linecap="butt"/><path d="M250.87461,181.03387l12.22274,9.72714l-5.46633,3.23364l1.28829,8.31902l-15.2778,-9.40254l6.4309,-4.08224z" fill="#0e0e0e" stroke-linecap="round"/><g><g><path d="M250.74167,172.93199l2.31817,-15.2288c0,0 11.30268,4.14976 16.99775,5.01668c5.98033,0.91034 18.07028,0.32147 18.07028,0.32147l-2.31817,15.2288c0,0 -12.15025,-0.11438 -17.96702,-0.99982c-5.87205,-0.89386 -17.10101,-4.33833 -17.10101,-4.33833z" fill="#343434" stroke-linecap="butt"/><path d="M298.68841,179.18947c0,0 -19.87514,0.09785 -29.87524,-1.42439c-10.16895,-1.54794 -30.6404,-7.78747 -30.6404,-7.78747" fill="none" stroke-linecap="round"/></g><path d="M288.70495,161.59325c-0.35643,2.34151 -8.57743,3.03224 -18.36212,1.54279c-9.78469,-1.48945 -17.42779,-4.59506 -17.07136,-6.93657c0.35643,-2.34151 8.57743,-3.03224 18.36211,-1.54279c9.78469,1.48945 17.4278,4.59506 17.07137,6.93657z" fill="#252525" stroke-linecap="butt"/></g><path d="M261.45825,199.62409c7.08897,4.67837 31.8186,4.25542 31.8186,4.25542c0,0 -24.45356,13.88937 -36.58041,3.6603c-7.69364,-5.41707 -2.32717,-12.59407 4.76181,-7.91571z" data-paper-data="{&quot;index&quot;:null}" fill="#181818" stroke-linecap="butt"/></g></g></svg>