<svg version="1.1" xmlns="http://www.w3.org/2000/svg" xmlns:xlink="http://www.w3.org/1999/xlink" width="99.89876" height="67.87095" viewBox="0,0,99.89876,67.87095"><g transform="translate(-198.51847,-154.03574)"><g data-paper-data="{&quot;isPaintingLayer&quot;:true}" fill-rule="nonzero" stroke="#000000" stroke-width="2" stroke-linejoin="miter" stroke-miterlimit="10" stroke-dasharray="" stroke-dashoffset="0" style="mix-blend-mode: normal"><path d="M258.98417,189.49174c0,-2.11232 1.71238,-3.8247 3.8247,-3.8247c2.11232,0 3.8247,1.71238 3.8247,3.8247c0,2.11232 -1.71238,3.8247 -3.8247,3.8247c-2.11232,0 -3.8247,-1.71238 -3.8247,-3.8247z" fill="#e80000" stroke-linecap="butt"/><path d="M252.85071,168.99888c0,0 2.95648,-0.7997 4.99369,-0.82962c1.6139,-0.0237 6.25811,0.6644 6.25811,0.6644" fill="none" stroke-linecap="round"/><path d="M242.64136,169.03177c0.46614,-2.79638 3.11091,-4.68543 5.90729,-4.21929c2.79638,0.46614 4.68543,3.11091 4.21929,5.90729c-0.46614,2.79638 -3.11091,4.68543 -5.90729,4.21929c-2.79638,-0.46614 -4.68543,-3.11091 -4.21929,-5.90729z" fill="#e80000" stroke-linecap="butt"/><path d="M264.20275,171.64298c0,-9.17193 7.43532,-16.60724 16.60724,-16.60724c9.17193,0 16.60724,7.43532 16.60724,16.60724c0,9.17193 -7.43532,16.60724 -16.60724,16.60724c-9.17193,0 -16.60724,-7.43532 -16.60724,-16.60724z" fill="#e80000" stroke-linecap="butt"/><path d="M236.30245,200.07019l19.83772,-16.12572l4.95199,6.0919l-19.83772,16.12572z" fill="#e80000" stroke-linecap="butt"/><path d="M213.46862,187.5702c0,-2.11232 1.71238,-3.8247 3.8247,-3.8247c2.11232,0 3.8247,1.71238 3.8247,3.8247c0,2.11232 -1.71238,3.8247 -3.8247,3.8247c-2.11232,0 -3.8247,-1.71238 -3.8247,-3.8247z" fill="#e80000" stroke-linecap="butt"/><path d="M278.29394,206.32768c3.65686,-3.33211 6.47771,-2.30556 8.68663,0.11865c2.20893,2.42421 1.03514,7.09064 -2.62173,10.42275c-3.65686,3.33211 -7.19181,5.40725 -9.40074,2.98304c-0.85312,-0.93627 -2.70173,-8.02305 3.33583,-13.52444z" data-paper-data="{&quot;index&quot;:null}" fill="#e80000" stroke-linecap="butt"/><path d="M263.12701,170.16596l-1.3957,-5.42329l32.34602,-8.32434l1.3957,5.42328z" fill="#ff2121" stroke-linecap="butt"/><path d="M209.08792,212.27865c-3.87729,3.07281 -6.62089,1.85476 -8.65792,-0.71558c-2.03704,-2.57035 -0.54521,-7.14502 3.3321,-10.21783c3.87729,-3.07281 7.54655,-4.90002 9.58359,-2.32966c0.78673,0.99271 2.14374,8.18981 -4.25776,13.26309z" data-paper-data="{&quot;index&quot;:null}" fill="#e80000" stroke-linecap="butt"/></g></g></svg>