<svg version="1.1" xmlns="http://www.w3.org/2000/svg" xmlns:xlink="http://www.w3.org/1999/xlink" width="56.97887" height="102.37503" viewBox="0,0,56.97887,102.37503"><g transform="translate(-200.288,-139.90487)"><g data-paper-data="{&quot;isPaintingLayer&quot;:true}" fill-rule="nonzero" stroke="#000000" stroke-width="2" stroke-linejoin="miter" stroke-miterlimit="10" stroke-dasharray="" stroke-dashoffset="0" style="mix-blend-mode: normal"><path d="M207.86067,175.53094c0,0 0.56007,-3.01109 1.41567,-4.86015c0.67782,-1.46485 3.30998,-5.35251 3.30998,-5.35251" fill="none" stroke-linecap="round"/><path d="M203.46736,184.74672c-2.3184,-1.63157 -2.87518,-4.83366 -1.2436,-7.15206c1.63157,-2.3184 4.83366,-2.87518 7.15206,-1.2436c2.3184,1.63157 2.87518,4.83366 1.2436,7.15206c-1.63157,2.3184 -4.83366,2.87518 -7.15206,1.2436z" fill="#e80000" stroke-linecap="butt"/><path d="M215.14401,170.33678c-4.98602,-7.6983 -2.78728,-17.98097 4.91101,-22.967c7.6983,-4.98602 17.98098,-2.78728 22.967,4.91102c4.98602,7.6983 2.78728,17.98097 -4.91102,22.96699c-7.6983,4.98602 -17.98097,2.78728 -22.967,-4.91101z" fill="#e80000" stroke-linecap="butt"/><path d="M236.68195,207.47131l-3.18086,-25.36644l7.78969,-0.97679l3.18086,25.36644z" fill="#e80000" stroke-linecap="butt"/><path d="M222.69913,217.67955c0,-2.11232 1.71238,-3.8247 3.8247,-3.8247c2.11232,0 3.8247,1.71238 3.8247,3.8247c0,2.11232 -1.71238,3.8247 -3.8247,3.8247c-2.11232,0 -3.8247,-1.71238 -3.8247,-3.8247z" fill="#e80000" stroke-linecap="butt"/><path d="M248.61747,213.28594c0,-2.11232 1.71238,-3.8247 3.8247,-3.8247c2.11232,0 3.8247,1.71238 3.8247,3.8247c0,2.11232 -1.71238,3.8247 -3.8247,3.8247c-2.11232,0 -3.8247,-1.71238 -3.8247,-3.8247z" fill="#e80000" stroke-linecap="butt"/><path d="M254.17061,231.39765c-1.39727,4.74586 -4.34133,5.33189 -7.48748,4.4056c-3.14613,-0.92629 -4.56386,-5.52447 -3.16659,-10.27033c1.39727,-4.74586 3.3425,-8.35394 6.48864,-7.42764c1.2151,0.35774 6.47237,5.45684 4.16543,13.29238z" data-paper-data="{&quot;index&quot;:null}" fill="#e80000" stroke-linecap="butt"/><path d="M213.43816,169.68186l-4.11965,-3.79322l22.62382,-24.57076l4.11964,3.79321z" fill="#ff2121" stroke-linecap="butt"/><path d="M242.14568,235.81565c-0.76749,4.88739 -3.6102,5.85173 -6.85015,5.34294c-3.23995,-0.50878 -5.24429,-4.88324 -4.47679,-9.77064c0.76749,-4.88739 2.2264,-8.718 5.46636,-8.20922c1.25132,0.1965 7.12773,4.56772 5.86059,12.63691z" data-paper-data="{&quot;index&quot;:null}" fill="#e80000" stroke-linecap="butt"/></g></g></svg>