<svg version="1.1" xmlns="http://www.w3.org/2000/svg" xmlns:xlink="http://www.w3.org/1999/xlink" width="119.52778" height="127.99081" viewBox="0,0,119.52778,127.99081"><g transform="translate(-168.74857,-99.93565)"><g data-paper-data="{&quot;isPaintingLayer&quot;:true}" fill-rule="nonzero" stroke="#000000" stroke-width="2" stroke-linejoin="miter" stroke-miterlimit="10" stroke-dasharray="" stroke-dashoffset="0" style="mix-blend-mode: normal"><path d="M241.29387,135.39223c-1.03217,-1.84296 -0.3749,-4.17373 1.46807,-5.2059c1.84296,-1.03217 4.17373,-0.3749 5.2059,1.46807c1.03217,1.84296 0.3749,4.17373 -1.46807,5.2059c-1.84296,1.03217 -4.17373,0.3749 -5.2059,-1.46807z" fill="#ff6b00" stroke-linecap="butt"/><path d="M210.14675,159.94908c-4.48181,-8.00235 -1.62785,-18.12276 6.3745,-22.60457c8.00235,-4.48181 18.12276,-1.62785 22.60457,6.3745c4.48181,8.00235 1.62785,18.12276 -6.3745,22.60457c-8.00235,4.48181 -18.12276,1.62785 -22.60457,-6.3745z" fill="#ff6b00" stroke-linecap="butt"/><path d="M251.02304,193.21201l-16.14878,-19.81892l6.08612,-4.95908l16.14879,19.81893z" data-paper-data="{&quot;index&quot;:null}" fill="#ff6b00" stroke-linecap="butt"/><path d="M198.92519,177.22841c-1.03217,-1.84296 -0.3749,-4.17373 1.46807,-5.2059c1.84296,-1.03217 4.17373,-0.3749 5.2059,1.46807c1.03217,1.84296 0.3749,4.17373 -1.46807,5.2059c-1.84296,1.03217 -4.17373,0.3749 -5.2059,-1.46807z" fill="#ff6b00" stroke-linecap="butt"/><path d="M205.01732,148.43659c0,0 -4.18365,2.13049 -5.72117,2.62172c-1.94077,0.62005 -4.99805,0.80297 -4.99805,0.80297" data-paper-data="{&quot;index&quot;:null}" fill="none" stroke-linecap="round"/><path d="M186.72887,148.13665c2.50259,-1.33195 5.61109,-0.38294 6.94303,2.11964c1.33194,2.50257 0.38295,5.61107 -2.11963,6.94302c-2.50259,1.33195 -5.61109,0.38294 -6.94303,-2.11964c-1.33194,-2.50257 -0.38295,-5.61107 2.11963,-6.94302z" data-paper-data="{&quot;index&quot;:null}" fill="#ff6b00" stroke-linecap="butt"/><path d="M277.31838,174.56863c3.48808,-3.5084 6.35613,-2.62222 8.68191,-0.3099c2.32579,2.31232 1.38357,7.03095 -2.10451,10.53936c-3.48808,3.5084 -6.91638,5.75536 -9.24218,3.44303c-0.89825,-0.89306 -3.09414,-7.88003 2.66476,-13.6725z" data-paper-data="{&quot;index&quot;:null}" fill="#ff6b00" stroke-linecap="butt"/><path d="M204.50136,160.96153l-1.04737,-12.85373l-32.99888,-8.83161l28.89449,-37.56531l17.2543,28.86505l12.6439,-2.39159z" data-paper-data="{&quot;index&quot;:null}" fill="#ffa340" stroke-linecap="butt"/><path d="M253.05607,219.12547c1.44756,4.73077 -0.687,6.84138 -3.82313,7.80099c-3.13613,0.95961 -6.85194,-2.0975 -8.2995,-6.82828c-1.44756,-4.73077 -1.81111,-8.81366 1.32501,-9.77325c1.21123,-0.37062 8.40766,0.98994 10.79761,8.80055z" data-paper-data="{&quot;index&quot;:null}" fill="#ff6b00" stroke-linecap="butt"/></g></g></svg>