<svg version="1.1" xmlns="http://www.w3.org/2000/svg" xmlns:xlink="http://www.w3.org/1999/xlink" width="85.14642" height="59.46946" viewBox="0,0,85.14642,59.46946"><g transform="translate(-218.73469,-166.75708)"><g data-paper-data="{&quot;isPaintingLayer&quot;:true}" fill-rule="nonzero" stroke="#000000" stroke-width="2" stroke-linejoin="miter" stroke-miterlimit="10" stroke-dasharray="" stroke-dashoffset="0" style="mix-blend-mode: normal"><path d="M237.58632,214.16406l8.71991,-24.032l7.3799,2.67778l-8.71991,24.032z" fill="#e80000" stroke-linecap="butt"/><path d="M228.84245,200.9105c0,-2.11232 1.71238,-3.8247 3.8247,-3.8247c2.11232,0 3.8247,1.71238 3.8247,3.8247c0,2.11232 -1.71238,3.8247 -3.8247,3.8247c-2.11232,0 -3.8247,-1.71238 -3.8247,-3.8247z" fill="#e80000" stroke-linecap="butt"/><path d="M261.98171,200.90558c0,-2.11232 34.96238,-4.0747 37.0747,-4.0747c2.11232,0 3.8247,1.71238 3.8247,3.8247c0,2.11232 -1.71238,3.8247 -3.8247,3.8247c-2.11232,0 -37.0747,-1.46238 -37.0747,-3.5747z" fill="#e80000" stroke-linecap="butt"/><path d="M227.18279,213.75244c4.11347,0 7.4481,2.47844 7.4481,5.53575c0,3.05731 -3.33463,5.53575 -7.4481,5.53575c-4.11347,0 -7.4481,-2.47844 -7.4481,-5.53575c0,-3.05731 3.33463,-5.53575 7.4481,-5.53575z" data-paper-data="{&quot;index&quot;:null}" fill="#e80000" stroke-linecap="butt"/><path d="M256.06342,213.34984c4.94728,0 6.34095,2.65869 6.34095,5.93835c0,3.27966 -4.01056,5.93835 -8.95785,5.93835c-4.94728,0 -8.95785,-0.84699 -8.95785,-4.12665c0,-1.26666 3.40667,-7.75005 11.57475,-7.75005z" data-paper-data="{&quot;index&quot;:null}" fill="#e80000" stroke-linecap="butt"/><path d="M230.55714,176.20116c0,0 3.00324,-0.60074 5.0379,-0.49472c1.61188,0.08399 6.19985,1.0803 6.19985,1.0803" data-paper-data="{&quot;index&quot;:null}" fill="none" stroke-linecap="round"/><path d="M220.36833,175.55305c0.6516,-2.75907 3.41647,-4.46751 6.17554,-3.81591c2.75907,0.6516 4.46751,3.41646 3.81592,6.17553c-0.6516,2.75907 -3.41647,4.46751 -6.17553,3.81593c-2.75907,-0.6516 -4.46751,-3.41647 -3.81592,-6.17553z" data-paper-data="{&quot;index&quot;:null}" fill="#e80000" stroke-linecap="butt"/><path d="M239.076,181.74775c1.44645,-9.05716 9.9613,-15.22685 19.01845,-13.7804c9.05716,1.44645 15.22685,9.9613 13.7804,19.01845c-1.44645,9.05716 -9.9613,15.22685 -19.01845,13.7804c-9.05716,-1.44645 -15.22685,-9.9613 -13.7804,-19.01845z" fill="#e80000" stroke-linecap="butt"/><path d="M238.24665,180.11956l-0.52296,-5.57553l33.25404,-3.11908l0.52296,5.57552z" fill="#ff2121" stroke-linecap="butt"/></g></g></svg>