<svg version="1.1" xmlns="http://www.w3.org/2000/svg" xmlns:xlink="http://www.w3.org/1999/xlink" width="145.17747" height="130.0397" viewBox="0,0,145.17747,130.0397"><g transform="translate(-168.37756,-108.55548)"><g data-paper-data="{&quot;isPaintingLayer&quot;:true}" fill-rule="nonzero" stroke-linejoin="miter" stroke-miterlimit="10" stroke-dasharray="" stroke-dashoffset="0" style="mix-blend-mode: normal"><path d="M253.79154,160.11276c-1.61457,-1.36202 -1.81925,-3.77502 -0.45725,-5.38957c1.36204,-1.61457 3.77502,-1.81926 5.38956,-0.45725c1.61457,1.36202 1.81927,3.77502 0.45726,5.38957c-1.36204,1.61457 -3.77502,1.81927 -5.38957,0.45725z" fill="#ffe819" stroke="#000000" stroke-width="2" stroke-linecap="butt"/><path d="M211.90459,177.11084c-4.54742,-7.96525 -1.7767,-18.10877 6.18853,-22.6562c7.96525,-4.54742 18.10876,-1.77669 22.65619,6.18853c4.54742,7.96525 1.77669,18.10876 -6.18853,22.65619c-7.96525,4.54742 -18.10877,1.77671 -22.65619,-6.18852z" fill="#ffe819" stroke="#000000" stroke-width="2" stroke-linecap="butt"/><path d="M259.59689,205.23928l-25.46649,-2.24313l0.68884,-7.82041l25.46649,2.24312z" fill="#ffe819" stroke="#000000" stroke-width="2" stroke-linecap="butt"/><path d="M196.48209,179.92589c0,0 0.72367,-2.97601 1.679,-4.77559c0.75682,-1.42564 3.59737,-5.16374 3.59737,-5.16374" fill="none" stroke="#000000" stroke-width="2" stroke-linecap="round"/><path d="M191.59197,188.88796c-2.22582,-1.75578 -2.60689,-4.98348 -0.85113,-7.20928c1.75578,-2.22582 4.98348,-2.60689 7.20931,-0.85113c2.22582,1.75578 2.60688,4.98348 0.85113,7.20931c-1.75578,2.22582 -4.98348,2.60689 -7.20931,0.85113z" fill="#ffe819" stroke="#000000" stroke-width="2" stroke-linecap="butt"/><path d="M260.13504,170.42645c0.85005,-4.87371 3.70865,-5.78984 6.93955,-5.22632c3.23088,0.56351 5.16094,4.97124 4.31088,9.84496c-0.85005,4.87371 -2.37355,8.6791 -5.60442,8.11559c-1.24783,-0.21765 -7.04947,-4.68763 -5.64601,-12.73423z" data-paper-data="{&quot;index&quot;:null}" fill="#ffe819" stroke="#000000" stroke-width="2" stroke-linecap="butt"/><path d="M207.94811,179.31539l-0.86396,-11.38858l-10.81335,4.35255c0,0 5.93707,-16.97661 14.79371,-22.83273c8.85664,-5.85612 21.00879,-0.84036 21.00879,-0.84036z" data-paper-data="{&quot;index&quot;:null}" fill="#fff067" stroke="#000000" stroke-width="2" stroke-linecap="butt"/><path d="M282.94746,187.40192c2.91356,-3.99835 5.88304,-3.55894 8.53364,-1.62747c2.65059,1.93146 2.43741,6.73852 -0.47616,10.73687c-2.91356,3.99835 -5.96001,6.74083 -8.6106,4.80938c-1.0237,-0.74598 -4.25725,-7.31741 0.55311,-13.91877z" data-paper-data="{&quot;index&quot;:null}" fill="#ffe819" stroke="#000000" stroke-width="2" stroke-linecap="butt"/><path d="M243.16026,178.78008c-1.61457,-1.36202 -1.81926,-3.77502 -0.45724,-5.38957c1.36204,-1.61457 3.77502,-1.81926 5.38956,-0.45725c1.61457,1.36202 1.81926,3.77502 0.45726,5.38957c-1.36204,1.61457 -3.77502,1.81926 -5.38957,0.45725z" fill="#ffe819" stroke="#000000" stroke-width="2" stroke-linecap="butt"/><g fill="#fff200" stroke="none" stroke-width="0.66342" stroke-linecap="butt"><path d="M192.44078,136.44148l-4.31453,-12.02891l-1.34416,3.84548l-6.83576,-18.56968l7.57296,10.70503l0.52815,-3.22707l6.29693,9.67448l1.43385,-4.3534l4.39292,8.56959l1.43529,-3.5826l9.64625,10.14773l-6.55186,5.84932l-4.25271,-7.65577l-2.44786,4.81515l-3.12823,-8.89643l-2.43125,4.70708" data-paper-data="{&quot;index&quot;:null}"/><path d="M286.91316,135.97923l-2.49217,-4.82508l-3.20666,9.11942l-2.50919,-4.93583l-4.35929,7.84767l-6.71607,-5.99593l9.88803,-10.40212l1.47123,3.67237l4.50306,-8.78441l1.46979,4.46254l6.45479,-9.91696l0.54142,3.30793l7.76277,-10.97335l-7.0071,19.03514l-1.37788,-3.94185l-4.42268,12.33041" data-paper-data="{&quot;index&quot;:null}"/><path d="M180.87205,210.70928l2.43125,4.70708l3.12823,-8.89643l2.44786,4.81515l4.25266,-7.65577l6.55186,5.84932l-9.64621,10.14773l-1.43529,-3.58256l-4.39292,8.56959l-1.43389,-4.3534l-6.29693,9.67448l-0.52815,-3.22707l-7.57296,10.70503l6.8358,-18.56972l1.34416,3.84548l4.31453,-12.02891" data-paper-data="{&quot;index&quot;:null}"/><path d="M300.74741,211.17148l4.42268,12.33045l1.37784,-3.94189l7.0071,19.03514l-7.76277,-10.97335l-0.54142,3.30793l-6.45479,-9.91696l-1.46983,4.46254l-4.50301,-8.78441l-1.47127,3.67241l-9.88803,-10.40212l6.71611,-5.99593l4.35925,7.84767l2.50924,-4.93583l3.20662,9.11946l2.49221,-4.82508" data-paper-data="{&quot;index&quot;:null}"/></g></g></g></svg>