<svg version="1.1" xmlns="http://www.w3.org/2000/svg" xmlns:xlink="http://www.w3.org/1999/xlink" width="93.90685" height="89.31537" viewBox="0,0,93.90685,89.31537"><g transform="translate(-190.99522,-134.91118)"><g data-paper-data="{&quot;isPaintingLayer&quot;:true}" fill-rule="nonzero" stroke="#000000" stroke-width="2" stroke-linejoin="miter" stroke-miterlimit="10" stroke-dasharray="" stroke-dashoffset="0" style="mix-blend-mode: normal"><path d="M208.62132,154.61342c2.37652,-8.85869 11.48445,-14.11354 20.34314,-11.73702c8.85869,2.37652 14.11354,11.48445 11.73702,20.34314c-2.37652,8.85869 -11.48445,14.11353 -20.34313,11.73701c-8.85869,-2.37652 -14.11354,-11.48444 -11.73702,-20.34313z" fill="#2d6a2b" stroke-linecap="butt"/><path d="M222.01148,139.17433c15.77451,-1.51893 23.43577,9.4625 23.43577,9.4625l-40.56029,5.91265c0,0 0.16434,-13.74204 17.12452,-15.37514z" fill="#367e33" stroke-linecap="round"/><path d="M237.82461,203.84795l-16.37769,-19.6302l6.02817,-5.02937l16.37769,19.6302z" data-paper-data="{&quot;index&quot;:null}" fill="#2d6a2b" stroke-linecap="butt"/><path d="M208.97299,196.97142c0,-2.11232 1.71238,-3.8247 3.8247,-3.8247c2.11232,0 3.8247,1.71238 3.8247,3.8247c0,2.11232 -1.71238,3.8247 -3.8247,3.8247c-2.11232,0 -3.8247,-1.71238 -3.8247,-3.8247z" fill="#2d6a2b" stroke-linecap="butt"/><path d="M243.09429,184.98605c0,-2.11232 1.71238,-3.8247 3.8247,-3.8247c2.11232,0 3.8247,1.71238 3.8247,3.8247c0,2.11232 -1.71238,3.8247 -3.8247,3.8247c-2.11232,0 -3.8247,-1.71238 -3.8247,-3.8247z" fill="#2d6a2b" stroke-linecap="butt"/><path d="M209.29883,223.10237c-4.94147,-0.23946 -6.20483,-2.96249 -6.04609,-6.23831c0.15875,-3.27582 4.2933,-5.73725 9.23478,-5.49781c4.94147,0.23947 8.90637,1.27957 8.74761,4.55539c-0.0613,1.26517 -3.77781,7.57608 -11.93631,7.18072z" data-paper-data="{&quot;index&quot;:null}" fill="#2d6a2b" stroke-linecap="butt"/><path d="M202.15982,140.67087c0,0 3.02001,-0.50982 5.05055,-0.34244c1.60862,0.1326 6.16443,1.2669 6.16443,1.2669" fill="none" stroke-linecap="round"/><path d="M191.99522,139.71558c0.73457,-2.73814 3.54974,-4.36237 6.28788,-3.62782c2.73814,0.73457 4.36237,3.54974 3.62781,6.28788c-0.73457,2.73814 -3.54974,4.36237 -6.28788,3.62782c-2.73814,-0.73457 -4.36236,-3.54974 -3.62781,-6.28788z" fill="#2d6a2b" stroke-linecap="butt"/><path d="M271.77288,179.86567c2.93477,-4.83934 6.36221,-4.62546 9.57032,-2.67994c3.20812,1.94554 3.42968,7.44576 0.49492,12.28512c-2.93477,4.83934 -6.1424,8.26 -9.35051,6.31446c-1.23902,-0.7514 -5.5601,-7.92977 -0.71471,-15.91965z" data-paper-data="{&quot;index&quot;:null}" fill="#2d6a2b" stroke-linecap="butt"/></g></g></svg>