<svg version="1.1" xmlns="http://www.w3.org/2000/svg" xmlns:xlink="http://www.w3.org/1999/xlink" width="102.46733" height="120.48672" viewBox="0,0,102.46733,120.48672"><defs><radialGradient cx="260.63345" cy="163.17396" r="18.84183" gradientUnits="userSpaceOnUse" id="color-1"><stop offset="0" stop-color="#ffffff"/><stop offset="1" stop-color="#0debff"/></radialGradient></defs><g transform="translate(-200.84537,-108.3196)"><g data-paper-data="{&quot;isPaintingLayer&quot;:true}" fill-rule="nonzero" stroke-linejoin="miter" stroke-miterlimit="10" stroke-dasharray="" stroke-dashoffset="0" style="mix-blend-mode: normal"><g fill="#76f4ff" stroke="#53acb4" stroke-width="1" stroke-linecap="butt"><path d="M302.94446,108.7227l-53.66181,58.4209l-31.47191,17.83902l21.18187,-29.32645z" data-paper-data="{&quot;index&quot;:null}"/><path d="M202.05582,191.3077l20.31436,-14.42599l3.74821,4.18436l-16.94099,18.19191z"/><path d="M243.9015,188.17888l-16.30823,-1.21194l-11.28271,-12.52182l0.9962,-15.95561l10.53435,17.31971z"/></g><path d="M201.84811,195.28594c-0.07922,-2.11083 1.56774,-3.88623 3.67857,-3.96545c2.11083,-0.07922 3.88623,1.56774 3.96545,3.67857c0.07922,2.11083 -1.56774,3.88623 -3.67857,3.96545c-2.11083,0.07922 -3.88623,-1.56774 -3.96545,-3.67857z" fill="#0debff" stroke="#000000" stroke-width="2" stroke-linecap="butt"/><path d="M228.11724,202.13622l22.62669,-11.89985l3.65429,6.94835l-22.62669,11.89985z" data-paper-data="{&quot;index&quot;:null}" fill="#0debff" stroke="#000000" stroke-width="2" stroke-linecap="butt"/><path d="M262.67648,203.12555c0,-2.11232 1.71238,-3.8247 3.8247,-3.8247c2.11232,0 3.8247,1.71238 3.8247,3.8247c0,2.11232 -1.71238,3.8247 -3.8247,3.8247c-2.11232,0 -3.8247,-1.71238 -3.8247,-3.8247z" fill="#0debff" stroke="#000000" stroke-width="2" stroke-linecap="butt"/><path d="M241.04097,216.16138c4.92657,0.45219 6.07142,3.22713 5.77164,6.49306c-0.29976,3.26594 -4.53656,5.54693 -9.46314,5.09474c-4.92657,-0.45219 -8.84293,-1.66219 -8.54317,-4.92813c0.11577,-1.26136 4.10078,-7.40624 12.23468,-6.65966z" data-paper-data="{&quot;index&quot;:null}" fill="#0debff" stroke="#000000" stroke-width="2" stroke-linecap="butt"/><path d="M260.73758,178.46974c3.96081,-8.27262 13.87796,-11.76803 22.15058,-7.80723c8.27262,3.96081 11.76803,13.87796 7.80723,22.15058c-3.96081,8.27262 -13.87796,11.76803 -22.15058,7.80723c-8.27262,-3.96081 -11.76803,-13.87796 -7.80723,-22.15058z" fill="#0debff" stroke="#000000" stroke-width="2" stroke-linecap="butt"/><path d="M250.1104,176.78957c0,0 2.49209,-1.7804 4.39101,-2.51877c1.50435,-0.58495 6.09701,-1.55941 6.09701,-1.55941" fill="none" stroke="#000000" stroke-width="2" stroke-linecap="round"/><path d="M240.55324,180.3802c-0.53818,-2.78341 1.28193,-5.47609 4.06534,-6.01427c2.78341,-0.53818 5.47609,1.28193 6.01427,4.06534c0.53818,2.78341 -1.28193,5.47609 -4.06534,6.01427c-2.78341,0.53818 -5.47609,-1.28193 -6.01427,-4.06534z" fill="#0debff" stroke="#000000" stroke-width="2" stroke-linecap="butt"/><path d="M256.62636,182.52537l0.90622,-20.78712l29.71843,-4.23864l6.68147,19.70491z" fill="url(#color-1)" stroke="#000000" stroke-width="2" stroke-linecap="butt"/><path d="M210.7141,209.7172c-4.6087,-1.79874 -4.94034,-4.7822 -3.74791,-7.83741c1.19243,-3.05522 5.89518,-4.07378 10.50387,-2.27502c4.6087,1.79874 8.03685,4.04594 6.84441,7.10115c-0.46053,1.17998 -5.99131,5.98104 -13.60037,3.01127z" data-paper-data="{&quot;index&quot;:null}" fill="#0debff" stroke="#000000" stroke-width="2" stroke-linecap="butt"/></g></g></svg>