<svg version="1.1" xmlns="http://www.w3.org/2000/svg" xmlns:xlink="http://www.w3.org/1999/xlink" width="105.01392" height="74.93943" viewBox="0,0,105.01392,74.93943"><g transform="translate(-179.17841,-148.21283)"><g data-paper-data="{&quot;isPaintingLayer&quot;:true}" fill-rule="nonzero" stroke="#000000" stroke-width="2" stroke-linejoin="miter" stroke-miterlimit="10" stroke-dasharray="" stroke-dashoffset="0" style="mix-blend-mode: normal"><path d="M222.78325,189.20487c0,-2.11232 1.71238,-3.8247 3.8247,-3.8247c2.11232,0 3.8247,1.71238 3.8247,3.8247c0,2.11232 -1.71238,3.8247 -3.8247,3.8247c-2.11232,0 -3.8247,-1.71238 -3.8247,-3.8247z" fill="#e80000" stroke-linecap="butt"/><path d="M199.25301,164.08537c0.9588,-9.12168 9.13063,-15.73899 18.2523,-14.7802c9.12168,0.9588 15.73899,9.13063 14.7802,18.2523c-0.9588,9.12168 -9.13063,15.73899 -18.2523,14.7802c-9.12168,-0.9588 -15.73899,-9.13063 -14.7802,-18.2523z" data-paper-data="{&quot;index&quot;:null}" fill="#e80000" stroke-linecap="butt"/><path d="M243.67274,206.24499c0,0 -6.79636,-4.42605 -10.77713,-7.73652c-3.98077,-3.31047 -9.36069,-9.01042 -9.36069,-9.01042l5.44445,-5.6561c0,0 4.96323,5.36941 8.60187,8.27999c3.63864,2.91058 11.29034,8.22134 11.29034,8.22134z" data-paper-data="{&quot;index&quot;:null}" fill="#e80000" stroke-linecap="butt"/><path d="M198.33755,162.50398l-0.82113,-5.53948l33.03899,-4.89741l0.82113,5.53947z" data-paper-data="{&quot;index&quot;:null}" fill="#ff2121" stroke-linecap="butt"/><path d="M189.58554,164.44457c0,0 2.32779,-1.99041 4.15529,-2.89116c1.44777,-0.71359 5.93826,-2.08383 5.93826,-2.08383" data-paper-data="{&quot;index&quot;:null}" fill="none" stroke-linecap="round"/><path d="M180.37694,168.85291c-0.77824,-2.72605 0.80075,-5.56684 3.5268,-6.34509c2.72605,-0.77824 5.56684,0.80075 6.34509,3.5268c0.77824,2.72605 -0.80075,5.56684 -3.5268,6.34509c-2.72605,0.77824 -5.56684,-0.80075 -6.34509,-3.5268z" data-paper-data="{&quot;index&quot;:null}" fill="#e80000" stroke-linecap="butt"/><path d="M275.20141,208.71069c4.64826,-1.69389 6.868,0.32693 7.99092,3.40836c1.12292,3.08143 -1.73493,6.95259 -6.3832,8.64649c-4.64826,1.69389 -8.70642,2.27127 -9.82934,-0.81016c-0.43369,-1.1901 0.54723,-8.44803 8.22162,-11.24469z" data-paper-data="{&quot;index&quot;:null}" fill="#e80000" stroke-linecap="butt"/><path d="M258.99089,203.43078c0.678,-1.06992 7.02592,-4.72284 13.92534,-0.35071c4.17887,2.64813 3.93296,5.63986 2.17746,8.41013c-1.75551,2.77027 -6.56627,2.86928 -10.74515,0.22115c-4.17888,-2.64813 -7.11316,-5.5103 -5.35766,-8.28057z" data-paper-data="{&quot;index&quot;:null}" fill="#e80000" stroke-linecap="butt"/><path d="M258.97528,180.69651c0,-2.11232 1.71238,-3.8247 3.8247,-3.8247c2.11232,0 3.8247,1.71238 3.8247,3.8247c0,2.11232 -1.71238,3.8247 -3.8247,3.8247c-2.11232,0 -3.8247,-1.71238 -3.8247,-3.8247z" fill="#e80000" stroke-linecap="butt"/></g></g></svg>