<svg version="1.1" xmlns="http://www.w3.org/2000/svg" xmlns:xlink="http://www.w3.org/1999/xlink" width="126.26268" height="92.80578" viewBox="0,0,126.26268,92.80578"><g transform="translate(-215.74616,-134.28375)"><g data-paper-data="{&quot;isPaintingLayer&quot;:true}" fill-rule="nonzero" stroke="#000000" stroke-width="2" stroke-linejoin="miter" stroke-miterlimit="10" stroke-dasharray="" stroke-dashoffset="0" style="mix-blend-mode: normal"><path d="M220.25223,206.586c0.48614,-2.05562 2.54665,-3.32793 4.60227,-2.84179c2.05562,0.48614 3.32794,2.54665 2.84179,4.60226c-0.48614,2.05562 -2.54665,3.32794 -4.60227,2.8418c-2.05562,-0.48614 -3.32793,-2.54665 -2.84179,-4.60227z" fill="#ff6b00" stroke-linecap="butt"/><path d="M266.6175,175.57849c0.48614,-2.05562 2.54665,-3.32794 4.60226,-2.8418c2.05562,0.48614 3.32794,2.54665 2.8418,4.60227c-0.48614,2.05562 -2.54665,3.32793 -4.60227,2.84179c-2.05562,-0.48614 -3.32794,-2.54665 -2.84179,-4.60226z" fill="#ff6b00" stroke-linecap="butt"/><path d="M248.76215,213.69229l-8.77528,-24.01184l7.37372,-2.69477l8.77527,24.01184z" data-paper-data="{&quot;index&quot;:null}" fill="#ff6b00" stroke-linecap="butt"/><path d="M230.08159,179.4356c2.11088,-8.92572 11.0578,-14.45023 19.98351,-12.33936c8.92572,2.11088 14.45024,11.0578 12.33937,19.98352c-2.11088,8.92572 -11.0578,14.45023 -19.98351,12.33936c-8.92572,-2.11088 -14.45024,-11.0578 -12.33937,-19.98352z" fill="#ff6b00" stroke-linecap="butt"/><path d="M225.73257,180.63933l8.43831,-9.75245l-16.81637,-29.73437l47.04853,-5.69919l-8.5093,32.53449l10.56464,7.34684z" data-paper-data="{&quot;index&quot;:null}" fill="#ffa340" stroke-linecap="butt"/><path d="M330.09785,195.41649c1.98244,-4.53271 4.97681,-4.74422 7.98165,-3.43001c3.00484,1.31421 3.83364,6.05406 1.8512,10.58679c-1.98244,4.53271 -4.36555,7.86781 -7.37038,6.5536c-1.16051,-0.50757 -5.73551,-6.22675 -2.46244,-13.71038z" data-paper-data="{&quot;index&quot;:null}" fill="#ff6b00" stroke-linecap="butt"/><path d="M230.54733,168.10831c0,0 3.06272,0.01106 5.03523,0.52124c1.56266,0.40417 5.85926,2.29656 5.85926,2.29656" data-paper-data="{&quot;index&quot;:null}" fill="none" stroke-linecap="round"/><path d="M220.69315,165.4387c1.18942,-2.57338 4.23975,-3.69531 6.81313,-2.5059c2.57338,1.18942 3.69531,4.23976 2.5059,6.81315c-1.18942,2.57338 -4.23976,3.69531 -6.81314,2.5059c-2.57338,-1.18942 -3.69531,-4.23976 -2.50589,-6.81314z" data-paper-data="{&quot;index&quot;:null}" fill="#ff6b00" stroke-linecap="butt"/><path d="M254.71067,215.01803c4.11347,0 7.4481,2.47844 7.4481,5.53575c0,3.05731 -3.33463,5.53575 -7.4481,5.53575c-4.11347,0 -7.4481,-2.47844 -7.4481,-5.53575c0,-3.05731 3.33463,-5.53575 7.4481,-5.53575z" data-paper-data="{&quot;index&quot;:null}" fill="#ff6b00" stroke-linecap="butt"/></g></g></svg>