<svg version="1.1" xmlns="http://www.w3.org/2000/svg" xmlns:xlink="http://www.w3.org/1999/xlink" width="154.78521" height="60.8649" viewBox="0,0,154.78521,60.8649"><g transform="translate(-193.10491,-166.61869)"><g data-paper-data="{&quot;isPaintingLayer&quot;:true}" fill-rule="nonzero" stroke="#000000" stroke-width="2" stroke-linejoin="miter" stroke-miterlimit="10" stroke-dasharray="" stroke-dashoffset="0" style="mix-blend-mode: normal"><path d="M300.45761,219.21104c0.27686,-2.0941 2.1989,-3.56727 4.293,-3.29041c2.0941,0.27686 3.56727,2.1989 3.29041,4.293c-0.27685,2.0941 -2.1989,3.56727 -4.293,3.29041c-2.0941,-0.27686 -3.56727,-2.1989 -3.29041,-4.293z" fill="#ff6b00" stroke-linecap="butt"/><path d="M277.89374,192.06226c8.92631,-2.1084 17.87169,3.41862 19.98009,12.34491c2.1084,8.92631 -3.41861,17.87169 -12.3449,19.98009c-8.92631,2.1084 -17.87169,-3.41862 -19.98009,-12.34491c-2.1084,-8.92631 3.41861,-17.87169 12.3449,-19.98009z" fill="#ff6b00" stroke-linecap="butt"/><path d="M259.98282,225.50047l-25.5417,-1.0931l0.33569,-7.84352l25.5417,1.09308z" data-paper-data="{&quot;index&quot;:null}" fill="#ff6b00" stroke-linecap="butt"/><path d="M275.56591,220.0652c0.27686,-2.0941 2.1989,-3.56726 4.293,-3.29041c2.0941,0.27686 3.56727,2.1989 3.29041,4.293c-0.27686,2.0941 -2.1989,3.56727 -4.293,3.29041c-2.0941,-0.27686 -3.56727,-2.1989 -3.29041,-4.293z" fill="#ff6b00" stroke-linecap="butt"/><path d="M299.00076,182.68061c0,0 2.17741,2.15388 3.22726,3.89999c0.83172,1.38329 2.57125,5.74404 2.57125,5.74404" fill="none" stroke-linecap="round"/><path d="M293.84065,173.87123c2.65176,-1.00263 5.6142,0.33424 6.61683,2.98598c1.00263,2.65176 -0.33426,5.61419 -2.98598,6.61682c-2.65175,1.00263 -5.61419,-0.33423 -6.61683,-2.98597c-1.00263,-2.65175 0.33425,-5.61419 2.98598,-6.61683z" fill="#ff6b00" stroke-linecap="butt"/><path d="M214.31749,224.44076c-4.29721,2.45142 -6.82517,0.83265 -8.45028,-2.01606c-1.6251,-2.84872 0.54107,-7.14533 4.83829,-9.59678c4.29721,-2.45142 8.20051,-3.703 9.82561,-0.85429c0.62765,1.10021 0.88119,8.41974 -6.21362,12.46712z" data-paper-data="{&quot;index&quot;:null}" fill="#ff6b00" stroke-linecap="butt"/><path d="M293.03005,186.32782l11.54685,5.7433l24.6088,-23.6924l17.23806,44.14627l-33.62859,-0.13769l-4.48396,12.06158z" data-paper-data="{&quot;index&quot;:null}" fill="#ffa340" stroke-linecap="butt"/><path d="M200.47831,226.48339c-4.9472,0.02706 -6.35539,-2.62397 -6.37334,-5.90358c-0.01794,-3.27961 3.97802,-5.96019 8.92524,-5.98727c4.9472,-0.02706 8.96234,0.79797 8.98029,4.07759c0.00693,1.26664 -3.36423,7.76856 -11.53219,7.81325z" data-paper-data="{&quot;index&quot;:null}" fill="#ff6b00" stroke-linecap="butt"/></g></g></svg>