<svg version="1.1" xmlns="http://www.w3.org/2000/svg" xmlns:xlink="http://www.w3.org/1999/xlink" width="59.59631" height="83.59138" viewBox="0,0,59.59631,83.59138"><defs><radialGradient cx="249.28031" cy="189.66891" r="15.66729" gradientUnits="userSpaceOnUse" id="color-1"><stop offset="0" stop-color="#ffe819"/><stop offset="1" stop-color="#ffe819" stop-opacity="0"/></radialGradient></defs><g transform="translate(-213.24123,-142.76475)"><g data-paper-data="{&quot;isPaintingLayer&quot;:true}" fill-rule="nonzero" stroke="#000000" stroke-linejoin="miter" stroke-miterlimit="10" stroke-dasharray="" stroke-dashoffset="0" style="mix-blend-mode: normal"><path d="M237.07565,203.39068l1.59933,-25.51502l7.83533,0.49113l-1.59933,25.51502z" fill="#ffe819" stroke-width="2" stroke-linecap="butt"/><path d="M251.59279,191.78057c-1.65835,-1.30834 -1.9421,-3.71333 -0.63376,-5.37168c1.30834,-1.65835 3.71333,-1.9421 5.37168,-0.63376c1.65835,1.30834 1.9421,3.71333 0.63376,5.37168c-1.30834,1.65835 -3.71333,1.9421 -5.37168,0.63376z" fill="#ffe819" stroke-width="2" stroke-linecap="butt"/><path d="M229.28552,213.59446c4.11347,0 7.4481,2.47844 7.4481,5.53575c0,3.05731 -3.33463,5.53575 -7.4481,5.53575c-4.11347,0 -7.4481,-2.47844 -7.4481,-5.53575c0,-3.05731 3.33463,-5.53575 7.4481,-5.53575z" data-paper-data="{&quot;index&quot;:null}" fill="#ffe819" stroke-width="2" stroke-linecap="butt"/><path d="M260.24279,213.47944c4.94728,0 6.34095,2.65869 6.34095,5.93835c0,3.27966 -4.01056,5.93835 -8.95785,5.93835c-4.94728,0 -8.95785,-0.84699 -8.95785,-4.12665c0,-1.26666 3.40667,-7.75005 11.57475,-7.75005z" data-paper-data="{&quot;index&quot;:null}" fill="#ffe819" stroke-width="2" stroke-linecap="butt"/><path d="M243.39196,194.4544c-1.65835,-1.30834 -1.9421,-3.71333 -0.63376,-5.37168c1.30834,-1.65835 3.71333,-1.9421 5.37168,-0.63376c1.65835,1.30834 1.9421,3.71333 0.63376,5.37168c-1.30834,1.65835 -3.71333,1.9421 -5.37168,0.63376z" fill="#ffe819" stroke-width="2" stroke-linecap="butt"/><path d="M237.20104,164.84253c2.08886,-8.9309 11.02216,-14.47745 19.95304,-12.38858c8.9309,2.08886 14.47745,11.02216 12.38858,19.95304c-2.08886,8.9309 -11.02216,14.47745 -19.95304,12.38858c-8.9309,-2.08886 -14.47745,-11.02216 -12.38858,-19.95304z" fill="#ffe819" stroke-width="2" stroke-linecap="butt"/><path d="M223.98517,156.4093c0,0 2.55556,-1.68802 4.48023,-2.35642c1.52475,-0.52951 6.14998,-1.33529 6.14998,-1.33529" fill="none" stroke-width="2" stroke-linecap="round"/><path d="M214.30303,159.64786c-0.43598,-2.80123 1.48144,-5.42552 4.28269,-5.86149c2.80123,-0.43598 5.42552,1.48144 5.86149,4.28269c0.43598,2.80123 -1.48144,5.42552 -4.28269,5.86149c-2.80123,0.43598 -5.42552,-1.48144 -5.86149,-4.28269z" fill="#ffe819" stroke-width="2" stroke-linecap="butt"/><path d="M232.80182,163.76523l7.11749,-8.93241l-10.88508,-4.16991c0,0 15.90352,-8.39829 26.37819,-6.66169c10.47464,1.73661 15.96505,13.68182 15.96505,13.68182z" data-paper-data="{&quot;index&quot;:null}" fill="#fff067" stroke-width="2" stroke-linecap="butt"/><path d="M241.86385,203.46964c-7.62193,-4.09601 -10.48027,-13.59525 -6.38426,-21.21719c4.09601,-7.62193 13.59525,-10.48027 21.21719,-6.38426c7.62193,4.09601 10.48027,13.59525 6.38426,21.21719c-4.09601,7.62193 -13.59525,10.48027 -21.21719,6.38426z" fill="url(#color-1)" stroke-width="0" stroke-linecap="butt"/></g></g></svg>