<svg version="1.1" xmlns="http://www.w3.org/2000/svg" xmlns:xlink="http://www.w3.org/1999/xlink" width="73.92307" height="80.65758" viewBox="0,0,73.92307,80.65758"><defs><linearGradient x1="189.5231" y1="175.51122" x2="203.67951" y2="190.88427" gradientUnits="userSpaceOnUse" id="color-1"><stop offset="0" stop-color="#e80000" stop-opacity="0"/><stop offset="1" stop-color="#e80000"/></linearGradient></defs><g transform="translate(-185.10016,-145.16634)"><g data-paper-data="{&quot;isPaintingLayer&quot;:true}" fill-rule="nonzero" stroke="#000000" stroke-linejoin="miter" stroke-miterlimit="10" stroke-dasharray="" stroke-dashoffset="0" style="mix-blend-mode: normal"><path d="M219.65963,208.87828l-2.8895,-25.40127l7.80039,-0.88732l2.8895,25.40127z" fill="#e80000" stroke-width="2" stroke-linecap="butt"/><path d="M209.55917,152.10695c0,0 3.05727,0.18278 4.99808,0.80276c1.53753,0.49116 5.72128,2.62148 5.72128,2.62148" fill="none" stroke-width="2" stroke-linecap="round"/><path d="M199.87018,148.88901c1.33184,-2.50264 4.44029,-3.45177 6.94293,-2.11994c2.50264,1.33184 3.45177,4.44029 2.11994,6.94293c-1.33184,2.50264 -4.44029,3.45177 -6.94293,2.11994c-2.50264,-1.33184 -3.45177,-4.44029 -2.11994,-6.94293z" fill="#e80000" stroke-width="2" stroke-linecap="butt"/><path d="M208.55521,163.87458c1.86332,-8.98066 10.65411,-14.7504 19.63477,-12.88708c8.98066,1.86332 14.7504,10.65411 12.88708,19.63477c-1.86332,8.98066 -10.65411,14.7504 -19.63477,12.88708c-8.98066,-1.86332 -14.7504,-10.65411 -12.88708,-19.63477z" fill="#e80000" stroke-width="2" stroke-linecap="butt"/><path d="M188.26426,195.66082c0,-2.11232 1.71238,-3.8247 3.8247,-3.8247c2.11232,0 3.8247,1.71238 3.8247,3.8247c0,2.11232 -1.71238,3.8247 -3.8247,3.8247c-2.11232,0 -3.8247,-1.71238 -3.8247,-3.8247z" fill="#e80000" stroke-width="2" stroke-linecap="butt"/><path d="M230.32948,206.55396c0,-2.11232 1.71238,-3.8247 3.8247,-3.8247c2.11232,0 3.8247,1.71238 3.8247,3.8247c0,2.11232 -1.71238,3.8247 -3.8247,3.8247c-2.11232,0 -3.8247,-1.71238 -3.8247,-3.8247z" fill="#e80000" stroke-width="2" stroke-linecap="butt"/><path d="M224.26203,213.75242c4.11347,0 7.4481,2.47844 7.4481,5.53575c0,3.05731 -3.33463,5.53575 -7.4481,5.53575c-4.11347,0 -7.4481,-2.47844 -7.4481,-5.53575c0,-3.05731 3.33463,-5.53575 7.4481,-5.53575z" data-paper-data="{&quot;index&quot;:null}" fill="#e80000" stroke-width="2" stroke-linecap="butt"/><path d="M247.9699,206.60557c3.37553,-3.61682 6.27012,-2.82167 8.66779,-0.58396c2.39767,2.23771 1.60496,6.98374 -1.77057,10.60057c-3.37553,3.61682 -6.73115,5.97094 -9.12882,3.73323c-0.92602,-0.86424 -3.34148,-7.77838 2.2316,-13.74984z" data-paper-data="{&quot;index&quot;:null}" fill="#e80000" stroke-width="2" stroke-linecap="butt"/><path d="M207.80196,162.20981l-0.26483,-5.59374l33.36263,-1.57949l0.26483,5.59373z" fill="#ff2121" stroke-width="2" stroke-linecap="butt"/><path d="M197.64672,193.3946c-1.17132,3.89191 -2.35188,6.38366 -5.54016,6.92842c-4.90679,0.83839 -7.94301,-8.03959 -6.7451,-11.63609c0.48116,-1.44456 1.15319,-7.02438 4.10645,-12.41132c4.39937,-8.02479 17.68674,-6.34315 17.68674,-6.34315c0,0 -9.04929,4.53419 -9.86707,13.14612c-0.73272,7.71622 1.53043,6.42411 0.35912,10.31602z" data-paper-data="{&quot;index&quot;:null}" fill="url(#color-1)" stroke-width="0" stroke-linecap="butt"/></g></g></svg>