<svg version="1.1" xmlns="http://www.w3.org/2000/svg" xmlns:xlink="http://www.w3.org/1999/xlink" width="118.94945" height="79.52982" viewBox="0,0,118.94945,79.52982"><g transform="translate(-180.89338,-146.67635)"><g data-paper-data="{&quot;isPaintingLayer&quot;:true}" fill-rule="nonzero" stroke="#000000" stroke-width="2" stroke-linejoin="miter" stroke-miterlimit="10" stroke-dasharray="" stroke-dashoffset="0" style="mix-blend-mode: normal"><path d="M181.89339,193.49881c0,0 35.81749,-36.21683 64.14847,-33.99315c20.35913,1.59798 43.37278,23.51608 51.77445,35.3772c3.28977,4.64436 -1.99333,9.08234 -6.46058,8.14975c-4.46725,-0.93259 -27.47945,-17.94886 -48.31146,-19.58396c-20.83202,-1.6351 -61.15088,10.05015 -61.15088,10.05015z" fill="#181818" stroke-linecap="round"/><path d="M225.28463,172.26612l-0.55964,-4.27469l9.49102,-1.35384l-0.13951,5.24471z" data-paper-data="{&quot;index&quot;:null}" fill="#ff0000" stroke-linecap="butt"/><path d="M214.30943,183.89773c-9.16761,-0.28111 -16.37155,-7.94081 -16.09045,-17.10843c0.28111,-9.16761 7.94081,-16.37155 17.10843,-16.09045c9.16761,0.28111 16.37155,7.94081 16.09045,17.10843c-0.28111,9.16761 -7.94081,16.37155 -17.10843,16.09045z" data-paper-data="{&quot;index&quot;:null}" fill="#181818" stroke-linecap="butt"/><g data-paper-data="{&quot;index&quot;:null}"><path d="M200.12938,159.76377l0.36971,-12.05724l29.61888,0.90821l-0.36971,12.05724z" fill="#343434" stroke-linecap="butt"/><path d="M240.49493,161.0015l-51.11224,-1.56725" fill="none" stroke-linecap="round"/></g><path d="M198.59451,201.22208c0.92534,-1.89886 3.21481,-2.68804 5.11367,-1.76271c1.89886,0.92534 2.68804,3.21481 1.76271,5.11367c-0.92534,1.89886 -3.21481,2.68804 -5.11367,1.76271c-1.89886,-0.92534 -2.68804,-3.21481 -1.76271,-5.11367z" fill="#181818" stroke-linecap="butt"/><path d="M205.22729,153.81655c0,0 -3.10367,3.5227 -4.35181,4.54609c-1.57554,1.29182 -4.35007,2.58885 -4.35007,2.58885" data-paper-data="{&quot;index&quot;:null}" fill="#181818" stroke-linecap="round"/><path d="M187.79999,160.4791c1.83533,-2.16069 5.07475,-2.42439 7.23543,-0.58905c2.16069,1.83533 2.42439,5.07475 0.58905,7.23543c-1.83533,2.16069 -5.07475,2.42439 -7.23543,0.58905c-2.16069,-1.83533 -2.42439,-5.07475 -0.58905,-7.23543z" data-paper-data="{&quot;index&quot;:null}" fill="#181818" stroke-linecap="butt"/><path d="M240.93493,170.517c0.92534,-1.89886 3.21481,-2.68804 5.11367,-1.76271c1.89886,0.92534 2.68804,3.21481 1.76271,5.11367c-0.92534,1.89886 -3.21481,2.68804 -5.11367,1.76271c-1.89886,-0.92534 -2.68804,-3.21481 -1.76271,-5.11367z" fill="#181818" stroke-linecap="butt"/><path d="M250.42426,214.95468c3.8422,3.11658 3.24968,6.05935 1.18363,8.60643c-2.06605,2.54707 -6.85563,2.08539 -10.69784,-1.0312c-3.8422,-3.11658 -6.42334,-6.30088 -4.35729,-8.84796c0.79793,-0.98373 7.52793,-3.87285 13.87149,1.27273z" data-paper-data="{&quot;index&quot;:null}" fill="#181818" stroke-linecap="butt"/><g data-paper-data="{&quot;index&quot;:null}" fill="#181818" stroke-linecap="butt"><path d="M241.81712,198.6081c-1.75397,2.95307 -3.87134,2.08509 -3.87134,2.08509l-12.08299,-6.25188c0,0 2.62204,-1.46703 3.30398,-2.63795c0.63165,-1.08456 0.64838,-4.14833 0.64838,-4.14833l12.08299,6.25186c0,0 1.98321,1.22579 -0.08098,4.7012z"/><path d="M229.08755,191.84905c-1.13901,1.90912 -3.069,2.88732 -4.31071,2.18485c-1.24173,-0.70248 -1.32497,-2.81959 -0.18596,-4.72872c1.13901,-1.90912 3.06899,-2.8873 4.3107,-2.18484c1.24173,0.70248 1.32497,2.81959 0.18596,4.72872z"/></g><path d="M219.57363,193.90458l9.64208,-13.82166l0.65467,5.72018l5.79313,-1.90038l-8.10968,13.32009l-3.08976,-2.92399z" data-paper-data="{&quot;index&quot;:null}" fill="#0e0e0e" stroke-linecap="round"/></g></g></svg>