<svg version="1.1" xmlns="http://www.w3.org/2000/svg" xmlns:xlink="http://www.w3.org/1999/xlink" width="56.21601" height="88.7619" viewBox="0,0,56.21601,88.7619"><g transform="translate(-218.38044,-139.31699)"><g data-paper-data="{&quot;isPaintingLayer&quot;:true}" fill-rule="nonzero" stroke="#000000" stroke-width="2" stroke-linejoin="miter" stroke-miterlimit="10" stroke-dasharray="" stroke-dashoffset="0" style="mix-blend-mode: normal"><path d="M229.39965,145.59651c0,0 3.05574,-0.20693 5.05955,0.16157c1.58745,0.29193 6.00786,1.87373 6.00786,1.87373" fill="none" stroke-linecap="round"/><path d="M219.38044,143.63499c1.00326,-2.65151 3.96602,-3.98769 6.61753,-2.98443c2.65151,1.00326 3.98769,3.96602 2.98443,6.61753c-1.00326,2.65151 -3.96602,3.98769 -6.61753,2.98443c-2.65151,-1.00326 -3.98769,-3.96602 -2.98443,-6.61753z" fill="#e80000" stroke-linecap="butt"/><path d="M230.97064,156.18402c2.78304,-8.73951 12.12391,-13.56817 20.8634,-10.78514c8.73951,2.78304 13.56817,12.12391 10.78514,20.8634c-2.78304,8.73951 -12.12391,13.56817 -20.8634,10.78514c-8.73951,-2.78304 -13.56817,-12.12391 -10.78514,-20.8634z" fill="#e80000" stroke-linecap="butt"/><path d="M236.53082,205.25582l0.48617,-25.56047l7.84928,0.1493l-0.48617,25.56047z" fill="#e80000" stroke-linecap="butt"/><path d="M219.4203,170.01335c0,-2.11232 1.71238,-3.8247 3.8247,-3.8247c2.11232,0 3.8247,1.71238 3.8247,3.8247c0,2.11232 -1.71238,3.8247 -3.8247,3.8247c-2.11232,0 -3.8247,-1.71238 -3.8247,-3.8247z" fill="#e80000" stroke-linecap="butt"/><path d="M265.94705,161.12696c0,-2.11232 1.71238,-3.8247 3.8247,-3.8247c2.11232,0 3.8247,1.71238 3.8247,3.8247c0,2.11232 -1.71238,3.8247 -3.8247,3.8247c-2.11232,0 -3.8247,-1.71238 -3.8247,-3.8247z" fill="#e80000" stroke-linecap="butt"/><path d="M263.49035,217.46895c3.1176,3.84137 1.93147,6.59891 -0.61506,8.66564c-2.54653,2.06673 -7.13821,0.62809 -10.25583,-3.21329c-3.1176,-3.84137 -4.98726,-7.48918 -2.44073,-9.55589c0.98351,-0.7982 8.16438,-2.23866 13.31161,4.10355z" data-paper-data="{&quot;index&quot;:null}" fill="#e80000" stroke-linecap="butt"/><path d="M230.39378,154.45022l0.31569,-5.5911l33.34688,1.88287l-0.31569,5.59109z" fill="#ff2121" stroke-linecap="butt"/><path d="M227.18278,213.75242c4.11347,0 7.4481,2.47844 7.4481,5.53575c0,3.05731 -3.33463,5.53575 -7.4481,5.53575c-4.11347,0 -7.4481,-2.47844 -7.4481,-5.53575c0,-3.05731 3.33463,-5.53575 7.4481,-5.53575z" data-paper-data="{&quot;index&quot;:null}" fill="#e80000" stroke-linecap="butt"/></g></g></svg>