<svg version="1.1" xmlns="http://www.w3.org/2000/svg" xmlns:xlink="http://www.w3.org/1999/xlink" width="73.89313" height="89.8412" viewBox="0,0,73.89313,89.8412"><defs><linearGradient x1="242.25674" y1="187.78645" x2="268.1113" y2="196.72894" gradientUnits="userSpaceOnUse" id="color-1"><stop offset="0" stop-color="#e80000" stop-opacity="0"/><stop offset="1" stop-color="#e80000"/></linearGradient><radialGradient cx="253.1964" cy="198.61194" r="31.8096" gradientUnits="userSpaceOnUse" id="color-2"><stop offset="0" stop-color="#ff3d00"/><stop offset="1" stop-color="#ff3d00" stop-opacity="0"/></radialGradient><linearGradient x1="218.39445" y1="202.21647" x2="226.04385" y2="202.21647" gradientUnits="userSpaceOnUse" id="color-3"><stop offset="0" stop-color="#600000"/><stop offset="1" stop-color="#e80000"/></linearGradient><linearGradient x1="232.05368" y1="190.93533" x2="241.00319" y2="191.44016" gradientUnits="userSpaceOnUse" id="color-4"><stop offset="0" stop-color="#600000"/><stop offset="1" stop-color="#e80000"/></linearGradient><linearGradient x1="214.83884" y1="217.64664" x2="229.73504" y2="217.64664" gradientUnits="userSpaceOnUse" id="color-5"><stop offset="0" stop-color="#600000"/><stop offset="1" stop-color="#e80000"/></linearGradient><linearGradient x1="241.52407" y1="217.64664" x2="259.43976" y2="217.64664" gradientUnits="userSpaceOnUse" id="color-6"><stop offset="0" stop-color="#600000"/><stop offset="1" stop-color="#e80000"/></linearGradient><linearGradient x1="218.78782" y1="162.36974" x2="225.49602" y2="153.38852" gradientUnits="userSpaceOnUse" id="color-7"><stop offset="0" stop-color="#600000"/><stop offset="1" stop-color="#000000"/></linearGradient><linearGradient x1="214.17409" y1="171.65739" x2="220.31803" y2="163.43164" gradientUnits="userSpaceOnUse" id="color-8"><stop offset="0" stop-color="#600000"/><stop offset="1" stop-color="#e80000"/></linearGradient><linearGradient x1="225.00744" y1="162.05713" x2="257.31674" y2="154.32575" gradientUnits="userSpaceOnUse" id="color-9"><stop offset="0" stop-color="#600000"/><stop offset="1" stop-color="#e80000"/></linearGradient><linearGradient x1="224.56343" y1="153.48939" x2="257.44606" y2="145.62083" gradientUnits="userSpaceOnUse" id="color-10"><stop offset="0" stop-color="#600000"/><stop offset="1" stop-color="#ff2121"/></linearGradient></defs><g transform="translate(-211.11286,-140.58033)"><g data-paper-data="{&quot;isPaintingLayer&quot;:true}" fill-rule="nonzero" stroke-linejoin="miter" stroke-miterlimit="10" stroke-dasharray="" stroke-dashoffset="0" style="mix-blend-mode: normal"><path d="M253.14408,202.51073c-2.11232,0 -3.8247,-1.71238 -3.8247,-3.8247c0,-2.11232 1.71238,-3.8247 3.8247,-3.8247c2.11232,0 3.8247,1.71238 3.8247,3.8247c0,2.11232 -1.71238,3.8247 -3.8247,3.8247z" data-paper-data="{&quot;index&quot;:null}" fill="#e80000" stroke="#000000" stroke-width="2" stroke-linecap="butt"/><path d="M258.40597,205.57504c-5.61959,3.78294 -10.45471,1.61746 -14.00321,-2.20199c-3.54852,-3.81947 -3.37415,-9.09514 -1.8734,-14.88697c2.23563,-8.62795 20.72856,-11.59282 20.72856,-11.59282c0,0 -10.02184,7.07968 -7.21207,15.02774c2.51751,7.1214 7.97975,9.87108 2.36014,13.65403z" data-paper-data="{&quot;index&quot;:null}" fill="url(#color-1)" stroke="#000000" stroke-width="0" stroke-linecap="butt"/><path d="M253.1964,230.42154c-17.56795,0 -31.8096,-14.24164 -31.8096,-31.8096c0,-17.56796 14.24165,-31.8096 31.8096,-31.8096c17.56796,0 31.8096,14.24164 31.8096,31.8096c0,17.56795 -14.24164,31.8096 -31.8096,31.8096z" data-paper-data="{&quot;index&quot;:null}" fill="url(#color-2)" stroke="none" stroke-width="0" stroke-linecap="butt"/><path d="M218.39445,202.21647c0,-2.11232 1.71238,-3.8247 3.8247,-3.8247c2.11232,0 3.8247,1.71238 3.8247,3.8247c0,2.11232 -1.71238,3.8247 -3.8247,3.8247c-2.11232,0 -3.8247,-1.71238 -3.8247,-3.8247z" fill="url(#color-3)" stroke="#000000" stroke-width="2" stroke-linecap="butt"/><path d="M232.44357,203.92021l0.31964,-25.56309l7.85009,0.09815l-0.31964,25.56309z" fill="url(#color-4)" stroke="#000000" stroke-width="2" stroke-linecap="butt"/><path d="M222.28694,212.11089c4.11347,0 7.4481,2.47844 7.4481,5.53575c0,3.05731 -3.33463,5.53575 -7.4481,5.53575c-4.11347,0 -7.4481,-2.47844 -7.4481,-5.53575c0,-3.05731 3.33463,-5.53575 7.4481,-5.53575z" data-paper-data="{&quot;index&quot;:null}" fill="url(#color-5)" stroke="#000000" stroke-width="2" stroke-linecap="butt"/><path d="M253.09881,211.70829c4.94728,0 6.34095,2.65869 6.34095,5.93835c0,3.27966 -4.01056,5.93835 -8.95785,5.93835c-4.94728,0 -8.95785,-0.84699 -8.95785,-4.12665c0,-1.26666 3.40667,-7.75005 11.57475,-7.75005z" data-paper-data="{&quot;index&quot;:null}" fill="url(#color-6)" stroke="#000000" stroke-width="2" stroke-linecap="butt"/><path d="M219.27838,162.73615c0,0 0.91825,-2.92184 1.99009,-4.65454c0.84913,-1.37267 3.92986,-4.91542 3.92986,-4.91542" fill="url(#color-7)" stroke="#000000" stroke-width="2" stroke-linecap="round"/><path d="M213.80827,171.35645c-2.10527,-1.89864 -2.27279,-5.14445 -0.37414,-7.24972c1.89864,-2.10527 5.14445,-2.27279 7.24972,-0.37415c2.10527,1.89864 2.27279,5.14446 0.37415,7.24973c-1.89864,2.10527 -5.14445,2.27279 -7.24972,0.37414z" fill="url(#color-8)" stroke="#000000" stroke-width="2" stroke-linecap="butt"/><path d="M225.03184,154.23979c2.18243,-8.90849 11.17341,-14.36104 20.08189,-12.1786c8.90849,2.18243 14.36104,11.17341 12.1786,20.08189c-2.18243,8.90849 -11.17341,14.36104 -20.08189,12.1786c-8.90849,-2.18243 -14.36104,-11.17341 -12.1786,-20.08189z" fill="url(#color-9)" stroke="#000000" stroke-width="2" stroke-linecap="butt"/><path d="M224.33846,152.54922l-0.06516,-5.59963l33.39774,-0.3886l0.06515,5.59962z" fill="url(#color-10)" stroke="#000000" stroke-width="2" stroke-linecap="butt"/></g></g></svg>