<svg version="1.1" xmlns="http://www.w3.org/2000/svg" xmlns:xlink="http://www.w3.org/1999/xlink" width="90.00255" height="139.41299" viewBox="0,0,90.00255,139.41299"><g transform="translate(-196.37096,-83.33853)"><g data-paper-data="{&quot;isPaintingLayer&quot;:true}" fill-rule="nonzero" stroke="#000000" stroke-width="2" stroke-linejoin="miter" stroke-miterlimit="10" stroke-dasharray="" stroke-dashoffset="0" style="mix-blend-mode: normal"><path d="M227.63532,138.9836c-0.78903,-9.13793 5.97909,-17.18532 15.11702,-17.97433c9.13793,-0.78903 17.18531,5.9791 17.97434,15.11702c0.78903,9.13793 -5.97909,17.18532 -15.11702,17.97433c-9.13793,0.78903 -17.18531,-5.9791 -17.97434,-15.11702z" fill="#ff6b00" stroke-linecap="butt"/><path d="M236.63531,187.42604l0.60889,-25.55783l7.84847,0.18697l-0.60889,25.55783z" data-paper-data="{&quot;index&quot;:null}" fill="#ff6b00" stroke-linecap="butt"/><path d="M216.64963,133.85869c0,0 2.61025,-1.60217 4.55605,-2.20626c1.54151,-0.47857 6.19095,-1.13022 6.19095,-1.13022" fill="none" stroke-linecap="round"/><path d="M206.86523,136.7738c-0.34267,-2.81417 1.66088,-5.37331 4.47506,-5.71598c2.81417,-0.34267 5.37329,1.66088 5.71596,4.47506c0.34267,2.81417 -1.66088,5.37331 -4.47505,5.71597c-2.81417,0.34267 -5.3733,-1.66088 -5.71597,-4.47505z" fill="#ff6b00" stroke-linecap="butt"/><path d="M261.4669,209.00658c3.8124,3.15296 3.19194,6.08997 1.10177,8.6173c-2.09017,2.52732 -6.87514,2.02013 -10.68756,-1.13284c-3.8124,-3.15296 -6.36316,-6.36165 -4.27299,-8.88897c0.80725,-0.97609 7.56441,-3.8011 13.85877,1.40452z" data-paper-data="{&quot;index&quot;:null}" fill="#ff6b00" stroke-linecap="butt"/><path d="M223.38011,142.7192l3.16439,-12.50208l-28.37162,-19.02564l39.48742,-26.20663l6.99587,32.89315l12.73809,1.82451z" data-paper-data="{&quot;index&quot;:null}" fill="#ffa340" stroke-linecap="butt"/><path d="M235.60373,213.33107c2.38943,4.332 0.7345,6.83643 -2.13727,8.42044c-2.87178,1.58401 -7.13682,-0.64369 -9.52626,-4.97569c-2.38943,-4.332 -3.5848,-8.25286 -0.71303,-9.83685c1.10912,-0.61177 8.43154,-0.76011 12.37655,6.39211z" data-paper-data="{&quot;index&quot;:null}" fill="#ff6b00" stroke-linecap="butt"/><path d="M277.86631,127.77596c-0.4054,-2.07305 0.94649,-4.08225 3.01954,-4.48766c2.07305,-0.4054 4.08225,0.94649 4.48766,3.01954c0.4054,2.07305 -0.94649,4.08225 -3.01954,4.48766c-2.07305,0.4054 -4.08225,-0.94649 -4.48766,-3.01954z" fill="#ff6b00" stroke-linecap="butt"/><path d="M265.71473,127.27352c-0.4054,-2.07305 0.94649,-4.08225 3.01954,-4.48766c2.07305,-0.4054 4.08226,0.94648 4.48766,3.01953c0.4054,2.07305 -0.94649,4.08225 -3.01954,4.48766c-2.07305,0.4054 -4.08225,-0.94649 -4.48766,-3.01954z" fill="#ff6b00" stroke-linecap="butt"/></g></g></svg>