<svg version="1.1" xmlns="http://www.w3.org/2000/svg" xmlns:xlink="http://www.w3.org/1999/xlink" width="63.32621" height="87.91042" viewBox="0,0,63.32621,87.91042"><g transform="translate(-203.09761,-139.17459)"><g data-paper-data="{&quot;isPaintingLayer&quot;:true}" fill-rule="nonzero" stroke="#000000" stroke-width="2" stroke-linejoin="miter" stroke-miterlimit="10" stroke-dasharray="" stroke-dashoffset="0" style="mix-blend-mode: normal"><path d="M236.58112,209.38944l-9.78981,-23.61637l7.25228,-3.00632l9.78981,23.61637z" fill="#2d6a2b" stroke-linecap="butt"/><path d="M255.6751,188.24694c-0.91868,-1.90208 -0.12148,-4.18877 1.7806,-5.10746c1.90208,-0.91868 4.18877,-0.12148 5.10746,1.7806c0.91868,1.90208 0.12148,4.18877 -1.7806,5.10746c-1.90208,0.91868 -4.18877,0.12148 -5.10746,-1.7806z" fill="#2d6a2b" stroke-linecap="butt"/><path d="M256.183,179.00372c-0.91868,-1.90208 -0.12148,-4.18877 1.7806,-5.10746c1.90208,-0.91868 4.18877,-0.12148 5.10746,1.7806c0.91868,1.90208 0.12148,4.18877 -1.7806,5.10746c-1.90208,0.91868 -4.18877,0.12148 -5.10746,-1.7806z" fill="#2d6a2b" stroke-linecap="butt"/><path d="M234.6591,221.95835c0,3.27966 -4.01057,4.12665 -8.95785,4.12665c-4.94728,0 -8.95785,-2.65869 -8.95785,-5.93835c0,-3.27966 1.39367,-5.93835 6.34095,-5.93835c8.16808,0 11.57475,6.48339 11.57475,7.75005z" data-paper-data="{&quot;index&quot;:null}" fill="#2d6a2b" stroke-linecap="butt"/><path d="M258.2597,212.67567c4.89068,-0.74623 6.66942,1.67184 7.16412,4.91397c0.49469,3.24214 -3.06897,6.47535 -7.95965,7.22157c-4.89068,0.74623 -8.98312,0.51386 -9.4778,-2.72827c-0.19105,-1.25217 2.19871,-8.17523 10.27334,-9.40726z" data-paper-data="{&quot;index&quot;:null}" fill="#2d6a2b" stroke-linecap="butt"/><g><path d="M214.07244,145.56592c0,0 3.05947,-0.14137 5.05494,0.27c1.58083,0.32591 5.96631,2.0021 5.96631,2.0021" fill="none" stroke-linecap="round"/><path d="M204.09761,143.39004c1.05987,-2.62939 4.0506,-3.90174 6.67999,-2.84188c2.62939,1.05987 3.90174,4.0506 2.84187,6.67999c-1.05987,2.62939 -4.05059,3.90174 -6.67998,2.84187c-2.62939,-1.05987 -3.90174,-4.05059 -2.84188,-6.67998z" fill="#2d6a2b" stroke-linecap="butt"/></g><path d="M209.14883,161.84985c1.77018,-8.99948 10.50073,-14.85999 19.5002,-13.08981c8.99948,1.77018 14.85998,10.50073 13.0898,19.5002c-1.77018,8.99948 -10.50073,14.85998 -19.5002,13.0898c-8.99948,-1.77018 -14.85998,-10.50072 -13.0898,-19.5002z" fill="#2d6a2b" stroke-linecap="butt"/><path d="M221.46096,145.5381c15.63516,-2.58537 24.02361,7.85113 24.02361,7.85113l-40.06585,8.65011c0,0 -0.76811,-13.72154 16.04224,-16.50124z" fill="#367e33" stroke-linecap="round"/></g></g></svg>