<svg version="1.1" xmlns="http://www.w3.org/2000/svg" xmlns:xlink="http://www.w3.org/1999/xlink" width="202.83007" height="82.29822" viewBox="0,0,202.83007,82.29822"><defs><linearGradient x1="397.55382" y1="185.71469" x2="409.25076" y2="185.71469" gradientUnits="userSpaceOnUse" id="color-1"><stop offset="0" stop-color="#ff3100"/><stop offset="1" stop-color="#ff8d00"/></linearGradient><linearGradient x1="398.25966" y1="185.73095" x2="406.28834" y2="185.73095" gradientUnits="userSpaceOnUse" id="color-2"><stop offset="0" stop-color="#ffe049"/><stop offset="1" stop-color="#fff3e5"/></linearGradient></defs><g transform="translate(-208.87228,-144.31123)"><g data-paper-data="{&quot;isPaintingLayer&quot;:true}" fill-rule="nonzero" stroke="#000000" stroke-linejoin="miter" stroke-miterlimit="10" stroke-dasharray="" stroke-dashoffset="0" style="mix-blend-mode: normal"><path d="M235.48112,205.50517l1.26866,-25.53359l7.84103,0.38959l-1.26866,25.53359z" fill="#e80000" stroke-width="2" stroke-linecap="butt"/><path d="M219.51104,157.56638c0,0 2.48345,-1.79243 4.37877,-2.53999c1.5015,-0.59223 6.08939,-1.5889 6.08939,-1.5889" fill="none" stroke-width="2" stroke-linecap="round"/><path d="M209.97138,161.20324c-0.55164,-2.78077 1.25541,-5.48223 4.03619,-6.03388c2.78077,-0.55164 5.48223,1.25541 6.03388,4.03619c0.55164,2.78077 -1.25541,5.48223 -4.03619,6.03388c-2.78077,0.55164 -5.48223,-1.25541 -6.03388,-4.03619z" fill="#e80000" stroke-width="2" stroke-linecap="butt"/><path d="M228.36646,158.83434c1.70499,-9.01207 10.39287,-14.93562 19.40493,-13.23063c9.01207,1.70499 14.93562,10.39287 13.23063,19.40493c-1.70499,9.01207 -10.39287,14.93562 -19.40493,13.23063c-9.01207,-1.70499 -14.93562,-10.39287 -13.23063,-19.40493z" fill="#e80000" stroke-width="2" stroke-linecap="butt"/><path d="M220.93959,195.80439c0,-2.11232 1.71238,-3.8247 3.8247,-3.8247c2.11232,0 3.8247,1.71238 3.8247,3.8247c0,2.11232 -1.71238,3.8247 -3.8247,3.8247c-2.11232,0 -3.8247,-1.71238 -3.8247,-3.8247z" fill="#e80000" stroke-width="2" stroke-linecap="butt"/><path d="M254.93424,190.41371c0,-2.11232 1.71238,-3.8247 3.8247,-3.8247c2.11232,0 3.8247,1.71238 3.8247,3.8247c0,2.11232 -1.71238,3.8247 -3.8247,3.8247c-2.11232,0 -3.8247,-1.71238 -3.8247,-3.8247z" fill="#e80000" stroke-width="2" stroke-linecap="butt"/><path d="M228.86382,214.13535c4.11347,0 7.4481,2.47844 7.4481,5.53575c0,3.05731 -3.33463,5.53575 -7.4481,5.53575c-4.11347,0 -7.4481,-2.47844 -7.4481,-5.53575c0,-3.05731 3.33463,-5.53575 7.4481,-5.53575z" data-paper-data="{&quot;index&quot;:null}" fill="#e80000" stroke-width="2" stroke-linecap="butt"/><path d="M254.93216,213.73275c4.94728,0 6.34095,2.65869 6.34095,5.93835c0,3.27966 -4.01056,5.93835 -8.95785,5.93835c-4.94728,0 -8.95785,-0.84699 -8.95785,-4.12665c0,-1.26666 3.40667,-7.75005 11.57475,-7.75005z" data-paper-data="{&quot;index&quot;:null}" fill="#e80000" stroke-width="2" stroke-linecap="butt"/><path d="M411.70235,185.68011c0,0 -5.07003,1.98235 -8.30005,1.98235c-3.23002,0 -5.84847,-0.87205 -5.84847,-1.94777c0,-1.07573 2.61845,-1.94777 5.84847,-1.94777c3.23002,0 8.30005,1.9132 8.30005,1.9132z" fill="url(#color-1)" stroke-width="0" stroke-linecap="butt"/><path d="M407.38947,185.73095c0,0 -2.89841,1.33693 -5.11547,1.33693c-2.21706,0 -4.01434,-0.59857 -4.01434,-1.33693c0,-0.73837 1.79728,-1.33693 4.01434,-1.33693c2.21706,0 5.11547,1.33693 5.11547,1.33693z" fill="url(#color-2)" stroke-width="0" stroke-linecap="butt"/><path d="M227.58404,157.18308l-0.36323,-5.58821l33.32966,-2.16639l0.36323,5.58821z" fill="#ff2121" stroke-width="2" stroke-linecap="butt"/></g></g></svg>