<svg version="1.1" xmlns="http://www.w3.org/2000/svg" xmlns:xlink="http://www.w3.org/1999/xlink" width="39.55738" height="60.9285" viewBox="0,0,39.55738,60.9285"><defs><linearGradient x1="245.86463" y1="155.13294" x2="245.86463" y2="193.8956" gradientUnits="userSpaceOnUse" id="color-1"><stop offset="0" stop-color="#5a6593"/><stop offset="1" stop-color="#686868"/></linearGradient><linearGradient x1="234.6294" y1="155.87129" x2="234.6294" y2="194.6339" gradientUnits="userSpaceOnUse" id="color-2"><stop offset="0" stop-color="#5a6593"/><stop offset="1" stop-color="#686868"/></linearGradient><linearGradient x1="239.96766" y1="134.8078" x2="239.96766" y2="195.73627" gradientUnits="userSpaceOnUse" id="color-3"><stop offset="0" stop-color="#5a6593"/><stop offset="1" stop-color="#686868"/></linearGradient></defs><g transform="translate(-220.46835,-134.8078)"><g data-paper-data="{&quot;isPaintingLayer&quot;:true}" fill-rule="nonzero" stroke="none" stroke-width="0" stroke-linecap="butt" stroke-linejoin="miter" stroke-miterlimit="10" stroke-dasharray="" stroke-dashoffset="0" style="mix-blend-mode: normal"><path d="M260.02573,174.51427c0,10.704 -6.34014,19.3813 -14.16108,19.3813c-7.82097,0 -14.16108,-8.67729 -14.16108,-19.3813c0,-10.704 6.34014,-19.3813 14.16108,-19.3813c7.82097,0 14.16108,8.6773 14.16108,19.3813z" fill="url(#color-1)"/><path d="M248.7905,175.25257c0,10.704 -6.34014,19.38131 -14.16107,19.38131c-7.82097,0 -14.16108,-8.6773 -14.16108,-19.38131c0,-10.704 6.34015,-19.3813 14.16108,-19.3813c7.82097,0 14.16107,8.67729 14.16107,19.3813z" fill="url(#color-2)"/><path d="M239.96766,134.8078c7.82097,0 14.16107,13.63929 14.16107,30.46425c0,16.82493 -6.34014,30.46425 -14.16107,30.46425c-7.82097,0 -14.16108,-13.63932 -14.16108,-30.46425c0,-16.82493 6.34015,-30.46425 14.16108,-30.46425z" data-paper-data="{&quot;origPos&quot;:null}" fill="url(#color-3)"/></g></g></svg>