<svg version="1.1" xmlns="http://www.w3.org/2000/svg" xmlns:xlink="http://www.w3.org/1999/xlink" width="108.99953" height="100.6535" viewBox="0,0,108.99953,100.6535"><g transform="translate(-197.13829,-124.94808)"><g data-paper-data="{&quot;isPaintingLayer&quot;:true}" fill-rule="nonzero" stroke="#000000" stroke-width="2" stroke-linejoin="miter" stroke-miterlimit="10" stroke-dasharray="" stroke-dashoffset="0" style="mix-blend-mode: normal"><path d="M231.46949,196.04475c0,-2.11232 1.71238,-3.8247 3.8247,-3.8247c2.11232,0 3.8247,1.71238 3.8247,3.8247c0,2.11232 -1.71238,3.8247 -3.8247,3.8247c-2.11232,0 -3.8247,-1.71238 -3.8247,-3.8247z" fill="#1d28e8" stroke-linecap="butt"/><path d="M256.76768,165.10168c0,-9.17193 7.43532,-16.60724 16.60724,-16.60724c9.17193,0 16.60724,7.43532 16.60724,16.60724c0,9.17193 -7.43532,16.60724 -16.60724,16.60724c-9.17193,0 -16.60724,-7.43532 -16.60724,-16.60724z" fill="#1d28e8" stroke-linecap="butt"/><path d="M239.73379,201.14242l15.28757,-20.49058l6.29239,4.69461l-15.28757,20.49058z" fill="#1d28e8" stroke-linecap="butt"/><path d="M249.80955,208.16685c0,-2.11232 1.71238,-3.8247 3.8247,-3.8247c2.11232,0 3.8247,1.71238 3.8247,3.8247c0,2.11232 -1.71238,3.8247 -3.8247,3.8247c-2.11232,0 -3.8247,-1.71238 -3.8247,-3.8247z" fill="#1d28e8" stroke-linecap="butt"/><path d="M245.24803,167.20987c0,0 2.71513,-1.41719 4.69816,-1.8848c1.57099,-0.37044 6.25445,-0.69789 6.25445,-0.69789" fill="none" stroke-linecap="round"/><path d="M235.28495,169.43897c-0.14656,-2.83117 2.02973,-5.2451 4.8609,-5.39166c2.83117,-0.14656 5.2451,2.02973 5.39166,4.8609c0.14656,2.83117 -2.02973,5.2451 -4.8609,5.39166c-2.83117,0.14656 -5.2451,-2.02973 -5.39166,-4.8609z" fill="#1d28e8" stroke-linecap="butt"/><path d="M278.84173,210.16689c3.95703,-2.96943 6.66753,-1.67941 8.63603,0.9438c1.9685,2.6232 0.35649,7.15692 -3.60055,10.12636c-3.95703,2.96943 -7.67322,4.69918 -9.64172,2.07598c-0.76027,-1.01312 -1.9269,-8.24353 4.60624,-13.14613z" data-paper-data="{&quot;index&quot;:null}" fill="#1d28e8" stroke-linecap="butt"/><path d="M256.56901,164.29657l-11.03481,-20.23016l37.07784,-17.61821l3.39948,28.30289l19.81931,-6.34473z" fill="#2530ff" stroke-linecap="round"/><path d="M206.71992,213.78959c-4.09326,2.77863 -6.7396,1.36164 -8.58162,-1.35188c-1.84201,-2.71352 -0.01701,-7.16577 4.07626,-9.94441c4.09326,-2.77863 7.88723,-4.33038 9.72924,-1.61685c0.71142,1.04801 1.5342,8.32555 -5.22388,12.91314z" data-paper-data="{&quot;index&quot;:null}" fill="#1d28e8" stroke-linecap="butt"/></g></g></svg>