<svg version="1.1" xmlns="http://www.w3.org/2000/svg" xmlns:xlink="http://www.w3.org/1999/xlink" width="67.45764" height="81.2822" viewBox="0,0,67.45764,81.2822"><g transform="translate(-210.88369,-144.54173)"><g data-paper-data="{&quot;isPaintingLayer&quot;:true}" fill-rule="nonzero" stroke="#000000" stroke-width="2" stroke-linejoin="miter" stroke-miterlimit="10" stroke-dasharray="" stroke-dashoffset="0" style="mix-blend-mode: normal"><path d="M250.81055,180.23197c-8.84812,2.41555 -17.97914,-2.79907 -20.39469,-11.6472c-2.41555,-8.84812 2.79907,-17.97914 11.6472,-20.39469c8.84812,-2.41555 17.97914,2.79907 20.39469,11.6472c2.41555,8.84812 -2.79907,17.97914 -11.6472,20.39469z" data-paper-data="{&quot;index&quot;:null}" fill="#e80000" stroke-linecap="butt"/><path d="M229.7101,158.6174l-0.08187,-5.5994l33.39642,-0.48832l0.08187,5.59941z" data-paper-data="{&quot;index&quot;:null}" fill="#ff2121" stroke-linecap="butt"/><path d="M234.79338,209.47128l6.29994,-24.7767l7.60859,1.93464l-6.29994,24.7767z" data-paper-data="{&quot;index&quot;:null}" fill="#e80000" stroke-linecap="butt"/><path d="M224.71546,196.42483c0,-2.11232 1.71238,-3.8247 3.8247,-3.8247c2.11232,0 3.8247,1.71238 3.8247,3.8247c0,2.11232 -1.71238,3.8247 -3.8247,3.8247c-2.11232,0 -3.8247,-1.71238 -3.8247,-3.8247z" data-paper-data="{&quot;index&quot;:null}" fill="#e80000" stroke-linecap="butt"/><path d="M269.69193,187.75973c0,-2.11232 1.71238,-3.8247 3.8247,-3.8247c2.11232,0 3.8247,1.71238 3.8247,3.8247c0,2.11232 -1.71238,3.8247 -3.8247,3.8247c-2.11232,0 -3.8247,-1.71238 -3.8247,-3.8247z" data-paper-data="{&quot;index&quot;:null}" fill="#e80000" stroke-linecap="butt"/><path d="M228.06269,211.36745c1.72898,2.7869 -1.23249,5.62093 -5.43645,8.22905c-4.20397,2.60813 -9.01357,2.4632 -10.74255,-0.3237c-1.72898,-2.7869 -1.94632,-5.78084 2.25764,-8.38896c6.94084,-4.30607 13.2536,-0.59274 13.92136,0.48361z" data-paper-data="{&quot;index&quot;:null}" fill="#e80000" stroke-linecap="butt"/><path d="M237.34664,155.28041c0,0 3.90663,-2.60391 5.37635,-3.2711c1.85522,-0.84217 4.87028,-1.38042 4.87028,-1.38042" data-paper-data="{&quot;index&quot;:null}" fill="none" stroke-linecap="round"/><path d="M253.7538,153.97999c-2.33016,1.61474 -5.52812,1.03476 -7.14286,-1.2954c-1.61474,-2.33016 -1.03476,-5.52812 1.2954,-7.14286c2.33016,-1.61474 5.52812,-1.03476 7.14286,1.2954c1.61474,2.33016 1.03476,5.52812 -1.2954,7.14286z" data-paper-data="{&quot;index&quot;:null}" fill="#e80000" stroke-linecap="butt"/><path d="M263.51913,217.75537c0,3.90386 -3.33463,7.06857 -7.4481,7.06857c-4.11347,0 -7.4481,-3.1647 -7.4481,-7.06857c0,-3.90386 3.33463,-7.06857 7.4481,-7.06857c4.11347,0 7.4481,3.1647 7.4481,7.06857z" data-paper-data="{&quot;index&quot;:null}" fill="#e80000" stroke-linecap="butt"/></g></g></svg>