<svg version="1.1" xmlns="http://www.w3.org/2000/svg" xmlns:xlink="http://www.w3.org/1999/xlink" width="14.03731" height="17.00868" viewBox="0,0,14.03731,17.00868"><defs><linearGradient x1="256.0327" y1="149.28096" x2="245.24692" y2="152.62166" gradientUnits="userSpaceOnUse" id="color-1"><stop offset="0" stop-color="#ff0000" stop-opacity="0"/><stop offset="1" stop-color="#ff0000"/></linearGradient><linearGradient x1="254.37461" y1="148.70744" x2="246.08318" y2="151.57711" gradientUnits="userSpaceOnUse" id="color-2"><stop offset="0" stop-color="#ff7b00" stop-opacity="0"/><stop offset="1" stop-color="#ff7b00"/></linearGradient><linearGradient x1="252.57861" y1="147.97782" x2="246.60796" y2="150.37196" gradientUnits="userSpaceOnUse" id="color-3"><stop offset="0" stop-color="#ffde00" stop-opacity="0"/><stop offset="1" stop-color="#ffde00"/></linearGradient></defs><g transform="translate(-243.32528,-142.85478)"><g data-paper-data="{&quot;isPaintingLayer&quot;:true}" fill-rule="nonzero" stroke="#000000" stroke-width="0" stroke-linecap="butt" stroke-linejoin="miter" stroke-miterlimit="10" stroke-dasharray="" stroke-dashoffset="0" style="mix-blend-mode: normal"><path d="M243.37865,146.0791c-0.43244,-3.20793 1.82373,-3.61898 4.56096,-2.95412c2.73722,0.66487 5.25184,2.99991 7.68584,5.92885c3.62589,4.36317 0.45027,10.80962 0.45027,10.80962c0,0 -0.9328,-5.86538 -5.48764,-8.52569c-4.0811,-2.38362 -6.777,-2.05072 -7.20944,-5.25867z" data-paper-data="{&quot;index&quot;:null}" fill="url(#color-1)"/><path d="M243.95637,146.12274c-0.65652,-2.67786 1.10579,-3.03764 3.3567,-2.50172c2.2509,0.53592 4.48595,2.46927 6.71422,4.89955c3.3194,3.62032 1.40796,9.0307 1.40796,9.0307c0,0 -1.31391,-4.89516 -5.21019,-7.08565c-3.49103,-1.96266 -5.61217,-1.66502 -6.26868,-4.34288z" data-paper-data="{&quot;index&quot;:null}" fill="url(#color-2)"/><path d="M244.64859,146.2672c-0.67355,-2.02492 0.61278,-2.3431 2.32454,-1.99067c1.71176,0.35243 3.50831,1.77048 5.33415,3.5675c2.71993,2.67697 2.62501,7.00321 2.62501,7.00321c0,0 -2.2692,-3.8531 -5.31952,-5.42577c-2.73306,-1.40909 -4.29065,-1.12934 -4.96419,-3.15427z" data-paper-data="{&quot;index&quot;:null}" fill="url(#color-3)"/></g></g></svg>