<svg version="1.1" xmlns="http://www.w3.org/2000/svg" xmlns:xlink="http://www.w3.org/1999/xlink" width="126.59231" height="116.83022" viewBox="0,0,126.59231,116.83022"><defs><radialGradient cx="260.13345" cy="157.17396" r="18.84183" gradientUnits="userSpaceOnUse" id="color-1"><stop offset="0" stop-color="#ffffff"/><stop offset="1" stop-color="#0debff"/></radialGradient></defs><g transform="translate(-178.87463,-109.98343)"><g data-paper-data="{&quot;isPaintingLayer&quot;:true}" fill-rule="nonzero" stroke-linejoin="miter" stroke-miterlimit="10" stroke-dasharray="" stroke-dashoffset="0" style="mix-blend-mode: normal"><g fill="#76f4ff" stroke="#53acb4" stroke-width="1" stroke-linecap="butt"><path d="M305.11165,110.39733l-55.81499,56.36735l-32.11878,16.6462l22.26678,-28.51145z" data-paper-data="{&quot;index&quot;:null}"/><path d="M201.19684,189.14067l20.84108,-13.654l3.58865,4.32198l-17.61131,17.54378z"/><path d="M243.13042,187.58336l-16.25131,-1.82269l-10.80517,-12.93614l1.59387,-15.90703l9.87741,17.70259z"/></g><path d="M200.84008,193.10832c0,-2.11232 1.71238,-3.8247 3.8247,-3.8247c2.11232,0 3.8247,1.71238 3.8247,3.8247c0,2.11232 -1.71238,3.8247 -3.8247,3.8247c-2.11232,0 -3.8247,-1.71238 -3.8247,-3.8247z" fill="#0debff" stroke="#000000" stroke-width="2" stroke-linecap="butt"/><path d="M227.61724,196.13622l22.62669,-11.89985l3.65429,6.94835l-22.62669,11.89985z" data-paper-data="{&quot;index&quot;:null}" fill="#0debff" stroke="#000000" stroke-width="2" stroke-linecap="butt"/><path d="M263.42648,201.37555c0,-2.11232 1.71238,-3.8247 3.8247,-3.8247c2.11232,0 3.8247,1.71238 3.8247,3.8247c0,2.11232 -1.71238,3.8247 -3.8247,3.8247c-2.11232,0 -3.8247,-1.71238 -3.8247,-3.8247z" fill="#0debff" stroke="#000000" stroke-width="2" stroke-linecap="butt"/><path d="M276.53914,211.19122c3.28106,-3.70273 6.19522,-2.98256 8.64984,-0.80747c2.45463,2.17509 1.78466,6.94001 -1.4964,10.64275c-3.28106,3.70273 -6.5748,6.14267 -9.02943,3.96758c-0.94802,-0.84006 -3.54111,-7.68956 1.87601,-13.80286z" data-paper-data="{&quot;index&quot;:null}" fill="#0debff" stroke="#000000" stroke-width="2" stroke-linecap="butt"/><path d="M260.23758,172.46974c3.96081,-8.27262 13.87796,-11.76803 22.15058,-7.80723c8.27262,3.96081 11.76803,13.87796 7.80723,22.15058c-3.96081,8.27262 -13.87796,11.76803 -22.15058,7.80723c-8.27262,-3.96081 -11.76803,-13.87796 -7.80723,-22.15058z" fill="#0debff" stroke="#000000" stroke-width="2" stroke-linecap="butt"/><path d="M249.6104,170.78957c0,0 2.49209,-1.7804 4.39101,-2.51877c1.50435,-0.58495 6.09701,-1.55941 6.09701,-1.55941" fill="none" stroke="#000000" stroke-width="2" stroke-linecap="round"/><path d="M240.05324,174.3802c-0.53818,-2.78341 1.28193,-5.47609 4.06534,-6.01427c2.78341,-0.53818 5.47609,1.28193 6.01427,4.06534c0.53818,2.78341 -1.28193,5.47609 -4.06534,6.01427c-2.78341,0.53818 -5.47609,-1.28193 -6.01427,-4.06534z" fill="#0debff" stroke="#000000" stroke-width="2" stroke-linecap="butt"/><path d="M256.12636,176.52537l0.90622,-20.78712l29.71843,-4.23864l6.68147,19.70491z" fill="url(#color-1)" stroke="#000000" stroke-width="2" stroke-linecap="butt"/><path d="M185.13275,213.51794c-4.85423,-0.95501 -5.70847,-3.83272 -5.07537,-7.0507c0.6331,-3.21798 5.08146,-5.05248 9.93569,-4.09746c4.85423,0.95501 8.62587,2.56025 7.99277,5.77823c-0.24451,1.24284 -4.83865,6.94667 -12.85309,5.36992z" data-paper-data="{&quot;index&quot;:null}" fill="#0debff" stroke="#000000" stroke-width="2" stroke-linecap="butt"/></g></g></svg>