<svg version="1.1" xmlns="http://www.w3.org/2000/svg" xmlns:xlink="http://www.w3.org/1999/xlink" width="63.27539" height="96.57325" viewBox="0,0,63.27539,96.57325"><defs><linearGradient x1="269.16065" y1="157.7864" x2="257.0776" y2="227.81548" gradientUnits="userSpaceOnUse" id="color-1"><stop offset="0" stop-color="#e80000"/><stop offset="1" stop-color="#e80000" stop-opacity="0"/></linearGradient></defs><g transform="translate(-211.28652,-131.92854)"><g data-paper-data="{&quot;isPaintingLayer&quot;:true}" fill-rule="nonzero" stroke="#000000" stroke-linejoin="miter" stroke-miterlimit="10" stroke-dasharray="" stroke-dashoffset="0" style="mix-blend-mode: normal"><path d="M233.09357,147.58947c0,0 3.17152,-3.46172 4.43932,-4.46068c1.60034,-1.26097 4.39955,-2.50384 4.39955,-2.50384" data-paper-data="{&quot;index&quot;:null}" fill="none" stroke-width="2" stroke-linecap="round"/><path d="M250.32699,141.46033c-1.87698,2.1246 -5.12091,2.32533 -7.24551,0.44835c-2.1246,-1.87698 -2.32533,-5.12091 -0.44835,-7.24551c1.87698,-2.1246 5.12091,-2.32533 7.24551,-0.44835c2.1246,1.87698 2.32533,5.12091 0.44835,7.24551z" data-paper-data="{&quot;index&quot;:null}" fill="#e80000" stroke-width="2" stroke-linecap="butt"/><path d="M249.61452,173.08552c-7.75765,4.89316 -18.01316,2.57104 -22.90633,-5.18661c-4.89316,-7.75765 -2.57104,-18.01316 5.18661,-22.90633c7.75765,-4.89316 18.01316,-2.57104 22.90633,5.18661c4.89316,7.75765 2.57104,18.01316 -5.18661,22.90633z" data-paper-data="{&quot;index&quot;:null}" fill="#e80000" stroke-width="2" stroke-linecap="butt"/><path d="M234.16007,202.69404l4.80894,-25.10872l7.71055,1.47677l-4.80894,25.10872z" fill="#e80000" stroke-width="2" stroke-linecap="butt"/><path d="M223.32199,186.63788c0,-2.11232 1.71238,-3.8247 3.8247,-3.8247c2.11232,0 3.8247,1.71238 3.8247,3.8247c0,2.11232 -1.71238,3.8247 -3.8247,3.8247c-2.11232,0 -3.8247,-1.71238 -3.8247,-3.8247z" fill="#e80000" stroke-width="2" stroke-linecap="butt"/><path d="M264.53845,162.12353c0,-2.11232 1.71238,-3.8247 3.8247,-3.8247c2.11232,0 3.8247,1.71238 3.8247,3.8247c0,2.11232 -7.84364,38.66142 -9.95596,38.66142c-2.11232,0 2.30656,-36.5491 2.30656,-38.66142z" fill="#e80000" stroke-width="2" stroke-linecap="butt"/><path d="M248.37582,211.67678c2.96721,1.39708 2.02507,5.38637 -0.0824,9.86233c-2.10747,4.47596 -6.2213,6.97188 -9.18851,5.5748c-2.96721,-1.39708 -4.77893,-3.79054 -2.67146,-8.2665c3.47947,-7.38991 10.79638,-7.71021 11.94237,-7.17063z" data-paper-data="{&quot;index&quot;:null}" fill="#e80000" stroke-width="2" stroke-linecap="butt"/><path d="M223.12364,158.57164l-1.7128,-5.33163l31.79938,-10.21563l1.7128,5.33164z" data-paper-data="{&quot;index&quot;:null}" fill="#ff2121" stroke-width="2" stroke-linecap="butt"/><path d="M228.71593,209.51094c1.63672,2.84206 -1.41605,5.57752 -5.70324,8.04646c-4.28719,2.46894 -9.08945,2.16646 -10.72617,-0.6756c-1.63672,-2.84206 -1.75582,-5.84153 2.53137,-8.31047c7.07824,-4.07628 13.2659,-0.15804 13.89803,0.93962z" data-paper-data="{&quot;index&quot;:null}" fill="#e80000" stroke-width="2" stroke-linecap="butt"/><path d="M262.98465,160.8614c0.58041,-2.31583 3.62101,-3.64201 6.79136,-2.9621c3.17035,0.67992 5.26991,3.10844 4.68948,5.42427c-0.58041,2.31583 -18.37792,64.45376 -21.54827,63.77386c-3.17035,-0.67992 9.48701,-63.92019 10.06743,-66.23603z" fill="url(#color-1)" stroke-width="0" stroke-linecap="butt"/></g></g></svg>