<svg version="1.1" xmlns="http://www.w3.org/2000/svg" xmlns:xlink="http://www.w3.org/1999/xlink" width="62.92046" height="98.10746" viewBox="0,0,62.92046,98.10746"><g transform="translate(-205.78345,-131.51836)"><g data-paper-data="{&quot;isPaintingLayer&quot;:true}" fill-rule="nonzero" stroke="#000000" stroke-width="2" stroke-linejoin="miter" stroke-miterlimit="10" stroke-dasharray="" stroke-dashoffset="0" style="mix-blend-mode: normal"><path d="M232.39876,149.27185c0,0 2.55221,-3.94059 3.63638,-5.13633c1.36856,-1.50937 3.92233,-3.20009 3.92233,-3.20009" data-paper-data="{&quot;index&quot;:null}" fill="none" stroke-linecap="round"/><path d="M248.37414,140.36431c-1.49785,2.40695 -4.66333,3.14392 -7.07028,1.64607c-2.40695,-1.49785 -3.14392,-4.66333 -1.64607,-7.07028c1.49785,-2.40695 4.66333,-3.14392 7.07028,-1.64607c2.40695,1.49785 3.14392,4.66333 1.64607,7.07028z" data-paper-data="{&quot;index&quot;:null}" fill="#e80000" stroke-linecap="butt"/><path d="M252.92661,171.66823c-6.83673,6.11419 -17.33552,5.52847 -23.44972,-1.30826c-6.11419,-6.83673 -5.52847,-17.33552 1.30826,-23.44972c6.83673,-6.11419 17.33552,-5.52847 23.44972,1.30826c6.11419,6.83673 5.52847,17.33552 -1.30826,23.44972z" data-paper-data="{&quot;index&quot;:null}" fill="#e80000" stroke-linecap="butt"/><path d="M232.80183,202.23425l8.73885,-24.02512l7.37779,2.68359l-8.73885,24.02512z" fill="#e80000" stroke-linecap="butt"/><path d="M222.18668,185.95601c0.33575,-2.08547 2.29855,-3.50389 4.38401,-3.16814c2.08547,0.33575 3.50389,2.29855 3.16814,4.38401c-0.33575,2.08547 -2.29855,3.50389 -4.38401,3.16814c-2.08547,-0.33575 -3.50389,-2.29855 -3.16814,-4.38401z" fill="#e80000" stroke-linecap="butt"/><path d="M260.06523,156.76537c-0.11183,-2.10936 1.50749,-3.90999 3.61685,-4.02182c2.10936,-0.11183 3.90999,1.50749 4.02182,3.61685c0.11183,2.10936 -1.50749,3.90999 -3.61685,4.02182c-2.10936,0.11183 -3.90999,-1.50749 -4.02182,-3.61685z" fill="#e80000" stroke-linecap="butt"/><path d="M245.0078,212.79304c2.96865,1.394 2.03064,5.38426 -0.07218,9.86241c-2.10284,4.47814 -6.21407,6.97832 -9.18273,5.58431c-2.96865,-1.394 -4.78286,-3.78559 -2.68002,-8.26373c3.47181,-7.39351 10.78839,-7.72138 11.93494,-7.183z" data-paper-data="{&quot;index&quot;:null}" fill="#e80000" stroke-linecap="butt"/><path d="M224.39228,161.758l-2.57492,-4.97291l29.65982,-15.35758l2.57492,4.97292z" data-paper-data="{&quot;index&quot;:null}" fill="#ff2121" stroke-linecap="butt"/><path d="M224.69328,208.61427c-0.01052,3.27964 -4.02379,4.11376 -8.97105,4.09787c-4.94726,-0.01588 -8.94927,-2.68743 -8.93875,-5.96707c0.01052,-3.27964 1.41272,-5.93385 6.35998,-5.91797c8.16804,0.02621 11.55388,6.5205 11.54981,7.78716z" data-paper-data="{&quot;index&quot;:null}" fill="#e80000" stroke-linecap="butt"/></g></g></svg>