<svg version="1.1" xmlns="http://www.w3.org/2000/svg" xmlns:xlink="http://www.w3.org/1999/xlink" width="59.59094" height="119.11976" viewBox="0,0,59.59094,119.11976"><g transform="translate(-214.46487,-119.78381)"><g data-paper-data="{&quot;isPaintingLayer&quot;:true}" fill-rule="nonzero" stroke="#000000" stroke-width="2" stroke-linejoin="miter" stroke-miterlimit="10" stroke-dasharray="" stroke-dashoffset="0" style="mix-blend-mode: normal"><path d="M248.36942,122.14242c1.36203,-1.61456 3.77502,-1.81926 5.38958,-0.45725c1.61456,1.36203 1.81926,3.77502 0.45725,5.38958c-1.36203,1.61456 -3.77502,1.81926 -5.38958,0.45725c-1.61456,-1.36203 -1.81926,-3.77502 -0.45725,-5.38958z" fill="#ffe819" stroke-linecap="butt"/><path d="M238.28131,155.04359c2.2949,-8.88019 11.35411,-14.2186 20.23428,-11.9237c8.88019,2.2949 14.2186,11.35411 11.9237,20.23428c-2.2949,8.88019 -11.35411,14.2186 -20.23428,11.9237c-8.88019,-2.2949 -14.2186,-11.3541 -11.9237,-20.23428z" fill="#ffe819" stroke-linecap="butt"/><path d="M233.57624,205.2811l2.24312,-25.46649l7.82042,0.68884l-2.24312,25.46649z" fill="#ffe819" stroke-linecap="butt"/><path d="M225.26407,146.30692c0,0 2.59393,-1.62845 4.53355,-2.25215c1.53659,-0.4941 6.17923,-1.19265 6.17923,-1.19265" fill="none" stroke-linecap="round"/><path d="M215.50961,149.32062c-0.37105,-2.81058 1.60655,-5.3898 4.41712,-5.76085c2.81058,-0.37105 5.3898,1.60655 5.76086,4.41713c0.37105,2.81058 -1.60655,5.3898 -4.41713,5.76086c-2.81058,0.37105 -5.3898,-1.60655 -5.76086,-4.41713z" fill="#ffe819" stroke-linecap="butt"/><path d="M250.77458,233.43328c-1.67625,4.65465 -4.64989,5.06507 -7.73556,3.95384c-3.08567,-1.11122 -4.22823,-5.78538 -2.55198,-10.44004c1.67625,-4.65465 3.83201,-8.14102 6.91768,-7.0298c1.19174,0.42918 6.13738,5.83106 3.36985,13.516z" data-paper-data="{&quot;index&quot;:null}" fill="#ffe819" stroke-linecap="butt"/><path d="M233.90819,153.86481l7.32221,-8.76536l-10.7857,-4.4206c0,0 16.09356,-8.02815 26.52523,-6.04969c10.43168,1.97846 15.64429,14.04748 15.64429,14.04748z" data-paper-data="{&quot;index&quot;:null}" fill="#fff067" stroke-linecap="butt"/><path d="M228.53509,231.25866c-3.51795,3.47845 -6.37831,2.56777 -8.68425,0.23565c-2.30594,-2.33212 -1.32341,-7.04253 2.19455,-10.52098c3.51795,-3.47845 6.96535,-5.696 9.27129,-3.36388c0.89059,0.90071 3.02664,7.90621 -2.78159,13.64921z" data-paper-data="{&quot;index&quot;:null}" fill="#ffe819" stroke-linecap="butt"/><path d="M229.11717,125.03745c1.36203,-1.61456 3.77502,-1.81926 5.38958,-0.45725c1.61456,1.36203 1.81926,3.77502 0.45725,5.38958c-1.36203,1.61456 -3.77502,1.81926 -5.38958,0.45725c-1.61456,-1.36203 -1.81926,-3.77502 -0.45725,-5.38958z" fill="#ffe819" stroke-linecap="butt"/></g></g></svg>