<svg version="1.1" xmlns="http://www.w3.org/2000/svg" xmlns:xlink="http://www.w3.org/1999/xlink" width="85.31353" height="114.24337" viewBox="0,0,85.31353,114.24337"><defs><radialGradient cx="263.11479" cy="177.62157" r="47.28972" gradientUnits="userSpaceOnUse" id="color-1"><stop offset="0" stop-color="#ffaa40"/><stop offset="1" stop-color="#ffaa40" stop-opacity="0"/></radialGradient><radialGradient cx="263.11479" cy="177.62157" r="47.28972" gradientUnits="userSpaceOnUse" id="color-2"><stop offset="0" stop-color="#ff0000"/><stop offset="1" stop-color="#ffffff"/></radialGradient></defs><g transform="translate(-197.79825,-112.84613)"><g data-paper-data="{&quot;isPaintingLayer&quot;:true}" fill-rule="nonzero" stroke-linejoin="miter" stroke-miterlimit="10" stroke-dasharray="" stroke-dashoffset="0" style="mix-blend-mode: normal"><path d="M202.99492,193.85576c-2.02865,-0.58863 -3.19602,-2.71036 -2.60739,-4.739c0.58863,-2.02865 2.71036,-3.19602 4.739,-2.60739c2.02865,0.58863 3.19602,2.71036 2.60739,4.739c-0.58863,2.02865 -2.71036,3.19602 -4.739,2.60739z" fill="#ff6b00" stroke="#000000" stroke-width="2" stroke-linecap="butt"/><path d="M213.4346,164.52803c0,-9.17193 7.43532,-16.60724 16.60724,-16.60724c9.17193,0 16.60724,7.43532 16.60724,16.60724c0,9.17193 -7.43532,16.60724 -16.60724,16.60724c-9.17193,0 -16.60724,-7.43532 -16.60724,-16.60724z" fill="#ff6b00" stroke="#000000" stroke-width="2" stroke-linecap="butt"/><path d="M228.84705,208.2202l-2.13149,-25.47608l7.82337,-0.65455l2.13149,25.47608z" fill="#ff6b00" stroke="#000000" stroke-width="2" stroke-linecap="butt"/><path d="M248.93109,164.75181c-2.02865,-0.58863 -3.19602,-2.71036 -2.60739,-4.739c0.58863,-2.02865 2.71036,-3.19602 4.739,-2.60739c2.02865,0.58863 3.19602,2.71036 2.60739,4.739c-0.58863,2.02865 -2.71036,3.19602 -4.739,2.60739z" fill="#ff6b00" stroke="#000000" stroke-width="2" stroke-linecap="butt"/><path d="M222.81413,215.01801c4.11347,0 7.4481,2.47844 7.4481,5.53575c0,3.05731 -3.33463,5.53575 -7.4481,5.53575c-4.11347,0 -7.4481,-2.47844 -7.4481,-5.53575c0,-3.05731 3.33463,-5.53575 7.4481,-5.53575z" data-paper-data="{&quot;index&quot;:null}" fill="#ff6b00" stroke="#000000" stroke-width="2" stroke-linecap="butt"/><path d="M211.65549,150.66274c0,0 2.98007,-0.70677 5.01721,-0.67289c1.61385,0.02683 6.23423,0.85997 6.23423,0.85997" fill="none" stroke="#000000" stroke-width="2" stroke-linecap="round"/><path d="M201.45012,150.376c0.55344,-2.78042 3.25605,-4.58574 6.03646,-4.0323c2.78042,0.55344 4.58574,3.25605 4.0323,6.03646c-0.55344,2.78042 -3.25605,4.58574 -6.03646,4.0323c-2.78042,-0.55344 -4.58574,-3.25605 -4.0323,-6.03646z" fill="#ff6b00" stroke="#000000" stroke-width="2" stroke-linecap="butt"/><path d="M254.56185,211.5285c4.52935,-1.99011 6.87479,-0.11664 8.19408,2.88597c1.31929,3.00261 -1.28298,7.05 -5.81234,9.04013c-4.52935,1.99011 -8.54183,2.82799 -9.86112,-0.17462c-0.50953,-1.15965 0.00132,-8.46573 7.47939,-11.75146z" data-paper-data="{&quot;index&quot;:null}" fill="#ff6b00" stroke="#000000" stroke-width="2" stroke-linecap="butt"/><path d="M209.49177,161.50127l7.85817,-10.19004l-17.92188,-28.45537l46.57766,-8.75016l-7.06963,33.4207l10.98586,6.75471z" data-paper-data="{&quot;index&quot;:null}" fill="#ffa340" stroke="#000000" stroke-width="2" stroke-linecap="butt"/><path d="M281.86178,177.62157c0,26.11739 -8.39332,47.28972 -18.74699,47.28972c-10.35368,0 -18.74699,-21.17233 -18.74699,-47.28972c0,-26.11739 8.39332,-47.28972 18.74699,-47.28972c10.35368,0 18.74699,21.17233 18.74699,47.28972z" fill="url(#color-1)" stroke="url(#color-2)" stroke-width="2.5" stroke-linecap="butt"/></g></g></svg>