<svg version="1.1" xmlns="http://www.w3.org/2000/svg" xmlns:xlink="http://www.w3.org/1999/xlink" width="182.86993" height="70.43119" viewBox="0,0,182.86993,70.43119"><g transform="translate(-200.14238,-161.69644)"><g data-paper-data="{&quot;isPaintingLayer&quot;:true}" fill-rule="nonzero" stroke-linejoin="miter" stroke-miterlimit="10" stroke-dasharray="" stroke-dashoffset="0" style="mix-blend-mode: normal"><path d="M226.47163,205.10713l22.71684,-11.72684l3.60115,6.97604l-22.71684,11.72684z" fill="#2d6a2b" stroke="#000000" stroke-width="2" stroke-linecap="butt"/><path d="M287.71984,217.61812c0,-2.11232 1.71238,-3.8247 3.8247,-3.8247c2.11232,0 3.8247,1.71238 3.8247,3.8247c0,2.11232 -1.71238,3.8247 -3.8247,3.8247c-2.11232,0 -3.8247,-1.71238 -3.8247,-3.8247z" fill="#2d6a2b" stroke="#000000" stroke-width="2" stroke-linecap="butt"/><path d="M258.93282,213.38269c4.93244,-0.38296 6.52773,2.15988 6.7816,5.4297c0.25387,3.26982 -3.53887,6.23098 -8.4713,6.61393c-4.93244,0.38296 -8.99653,-0.15105 -9.2504,-3.42087c-0.09805,-1.26286 2.79655,-7.9905 10.94011,-8.62276z" data-paper-data="{&quot;index&quot;:null}" fill="#2d6a2b" stroke="#000000" stroke-width="2" stroke-linecap="butt"/><path d="M208.59048,214.61091c4.11347,0 7.4481,2.47844 7.4481,5.53575c0,3.05731 -3.33463,5.53575 -7.4481,5.53575c-4.11347,0 -7.4481,-2.47844 -7.4481,-5.53575c0,-3.05731 3.33463,-5.53575 7.4481,-5.53575z" data-paper-data="{&quot;index&quot;:null}" fill="#2d6a2b" stroke="#000000" stroke-width="2" stroke-linecap="butt"/><path d="M266.21371,175.85846c7.41858,-5.39343 17.80475,-3.75172 23.19817,3.66683c5.39343,7.41858 3.75172,17.80475 -3.66683,23.19817c-7.41858,5.39343 -17.80475,3.75172 -23.19817,-3.66683c-5.39343,-7.41858 -3.75172,-17.80475 3.66683,-23.19817z" fill="#2d6a2b" stroke="#000000" stroke-width="2" stroke-linecap="butt"/><path d="M286.33375,172.27448c13.22032,8.73873 12.27154,22.09488 12.27154,22.09488l-35.25496,-20.90894c0,0 8.76942,-10.58148 22.98343,-1.18593z" fill="#367e33" stroke="#000000" stroke-width="2" stroke-linecap="round"/><path d="M268.90193,167.94196c0,0 2.95228,0.8151 4.72156,1.82544c1.40164,0.80042 5.05037,3.75485 5.05037,3.75485" fill="none" stroke="#000000" stroke-width="2" stroke-linecap="round"/><path d="M262.59489,164.52788c1.82355,-2.17063 5.06147,-2.452 7.23211,-0.62846c2.17063,1.82355 2.452,5.06147 0.62846,7.23211c-1.82355,2.17063 -5.06147,2.452 -7.23211,0.62846c-2.17063,-1.82355 -2.452,-5.06147 -0.62846,-7.23211z" fill="#2d6a2b" stroke="#000000" stroke-width="2" stroke-linecap="butt"/><g stroke="#61ff00" stroke-width="3" stroke-linecap="round"><path d="M381.51231,221.07892c0,0 -34.64371,0.49533 -50.00859,0.04073c-13.77739,-0.40763 -37.93859,-2.64287 -37.93859,-2.64287" fill="none"/><path d="M350.33133,220.39376c0,0 -15.06494,-4.03769 -16.40681,-8.61704c-1.34184,-4.57935 4.40412,-5.19096 4.40412,-5.19096z" fill="#61ff00"/><path d="M309.49315,230.47257c0,0 -4.46112,-2.79358 -0.12174,-6.15844c4.33938,-3.36486 19.97504,-0.83966 19.97504,-0.83966z" data-paper-data="{&quot;index&quot;:null}" fill="#61ff00"/><path d="M353.12842,228.60224c0,0 -3.74162,-2.3783 -0.05193,-5.1976c3.6897,-2.8193 16.86358,-0.61525 16.86358,-0.61525z" data-paper-data="{&quot;index&quot;:null}" fill="#61ff00"/></g><path d="M284.55688,218.83815c0,-2.11232 1.71238,-3.8247 3.8247,-3.8247c2.11232,0 3.8247,1.71238 3.8247,3.8247c0,2.11232 -1.71238,3.8247 -3.8247,3.8247c-2.11232,0 -3.8247,-1.71238 -3.8247,-3.8247z" fill="#2d6a2b" stroke="#000000" stroke-width="2" stroke-linecap="butt"/></g></g></svg>