<svg version="1.1" xmlns="http://www.w3.org/2000/svg" xmlns:xlink="http://www.w3.org/1999/xlink" width="50.95043" height="65.0577" viewBox="0,0,50.95043,65.0577"><defs><linearGradient x1="232.08534" y1="132.90822" x2="234.04153" y2="142.13574" gradientUnits="userSpaceOnUse" id="color-1"><stop offset="0" stop-color="#ffffff"/><stop offset="1" stop-color="#5c6cff"/></linearGradient><linearGradient x1="261.25341" y1="144.80926" x2="259.29723" y2="154.03678" gradientUnits="userSpaceOnUse" id="color-2"><stop offset="0" stop-color="#ffffff"/><stop offset="1" stop-color="#5c6cff"/></linearGradient><linearGradient x1="218.65681" y1="144.29182" x2="220.05895" y2="153.51935" gradientUnits="userSpaceOnUse" id="color-3"><stop offset="0" stop-color="#ffffff"/><stop offset="1" stop-color="#5c6cff"/></linearGradient></defs><g transform="translate(-215.08459,-128.59615)"><g data-paper-data="{&quot;isPaintingLayer&quot;:true}" fill-rule="nonzero" stroke="none" stroke-width="0" stroke-linecap="butt" stroke-linejoin="miter" stroke-miterlimit="10" stroke-dasharray="" stroke-dashoffset="0" style="mix-blend-mode: normal"><path d="M216.48618,168.02268c0,-12.70383 -5.22869,-26.36564 4.51196,-26.36564c9.74061,0 30.76197,13.66181 30.76197,26.36564c0,12.70381 -7.89632,23.00229 -17.63697,23.00229c-9.74061,0 -17.63696,-10.29848 -17.63696,-23.00231z" data-paper-data="{&quot;index&quot;:null}" fill="#5c6cff"/><path d="M230.47913,168.89899c0,-12.70383 18.27132,-28.69411 28.01197,-28.69411c9.74061,0 7.26196,15.99026 7.26196,28.69409c0,12.70381 -7.89631,23.00229 -17.63696,23.00229c-9.74062,0 -17.63697,-10.29848 -17.63697,-23.00231z" data-paper-data="{&quot;index&quot;:null}" fill="#5c6cff"/><path d="M259.10453,165.39385c0,15.60756 -7.89631,28.26 -17.63696,28.26c-9.74061,0 -17.63697,-12.65244 -17.63697,-28.26c0,-15.60756 3.27132,-36.7977 13.01197,-36.7977c9.74061,0 22.26196,21.19014 22.26196,36.7977z" data-paper-data="{&quot;index&quot;:null}" fill="#5c6cff"/><path d="M228.98146,146.00863c-0.54019,-2.54811 0.08764,-10.36119 3.10388,-13.10039c3.01625,-2.73923 7.35987,-0.87879 7.90006,1.66931c0.54018,2.54811 0.64265,22.11732 -2.37359,24.85653c-3.01624,2.73921 -8.09016,-10.87736 -8.63035,-13.42547z" data-paper-data="{&quot;index&quot;:null}" fill="url(#color-1)"/><path d="M264.35729,157.90965c-0.54018,2.54811 -5.61411,16.16465 -8.63035,13.42545c-3.01625,-2.73921 -2.91378,-22.30842 -2.37359,-24.85653c0.54019,-2.54811 4.88382,-4.40852 7.90006,-1.66931c3.01624,2.73923 3.64407,10.55229 3.10388,13.10039z" data-paper-data="{&quot;index&quot;:null}" fill="url(#color-2)"/><path d="M216.43205,157.39223c-0.38719,-2.54811 0.06281,-10.36119 2.22477,-13.10039c2.16195,-2.73923 5.27534,-0.87879 5.66253,1.66931c0.38719,2.54811 0.46064,22.11732 -1.70132,24.85653c-2.16196,2.73921 -5.7988,-10.87736 -6.18599,-13.42547z" data-paper-data="{&quot;index&quot;:null}" fill="url(#color-3)"/></g></g></svg>