<svg version="1.1" xmlns="http://www.w3.org/2000/svg" xmlns:xlink="http://www.w3.org/1999/xlink" width="119.43456" height="64.46932" viewBox="0,0,119.43456,64.46932"><g transform="translate(-196.14072,-164.10049)"><g data-paper-data="{&quot;isPaintingLayer&quot;:true}" fill-rule="nonzero" stroke="#000000" stroke-width="2" stroke-linejoin="miter" stroke-miterlimit="10" stroke-dasharray="" stroke-dashoffset="0" style="mix-blend-mode: normal"><path d="M230.16214,210.66315l24.69636,-6.6078l2.02917,7.58391l-24.69636,6.6078z" fill="#1d28e8" stroke-linecap="butt"/><path d="M264.0501,188.9533c4.07107,-8.21892 14.03407,-11.58141 22.25299,-7.51035c8.21892,4.07107 11.58141,14.03407 7.51035,22.25299c-4.07107,8.21892 -14.03407,11.58141 -22.25299,7.51035c-8.21892,-4.07107 -11.58141,-14.03407 -7.51035,-22.25299z" fill="#1d28e8" stroke-linecap="butt"/><path d="M267.52956,220.76431c1.21831,-1.72557 3.60481,-2.1368 5.33039,-0.91848c1.72557,1.21831 2.1368,3.60481 0.91848,5.33039c-1.21831,1.72557 -3.60481,2.1368 -5.33039,0.91848c-1.72557,-1.21831 -2.1368,-3.60481 -0.91848,-5.33039z" fill="#1d28e8" stroke-linecap="butt"/><path d="M251.32809,202.75728c1.21831,-1.72557 3.60481,-2.1368 5.33039,-0.91848c1.72557,1.21831 2.1368,3.60481 0.91848,5.33039c-1.21831,1.72557 -3.60481,2.1368 -5.33039,0.91848c-1.72557,-1.21831 -2.1368,-3.60481 -0.91848,-5.33039z" fill="#1d28e8" stroke-linecap="butt"/><path d="M216.39535,225.09508c-3.386,3.60701 -6.27829,2.80345 -8.66945,0.5588c-2.39117,-2.24466 -1.58469,-6.98837 1.80134,-10.59539c3.386,-3.60701 6.74845,-5.95137 9.13963,-3.7067c0.9235,0.86691 3.31888,7.78804 -2.27151,13.7433z" data-paper-data="{&quot;index&quot;:null}" fill="#1d28e8" stroke-linecap="butt"/><path d="M205.6822,225.43407c-4.16764,2.66577 -6.77429,1.17702 -8.54148,-1.58581c-1.7672,-2.76283 0.17875,-7.16356 4.34641,-9.82932c4.16764,-2.66577 8.00258,-4.1133 9.76977,-1.35048c0.68251,1.06704 1.30618,8.36435 -5.57471,12.76561z" data-paper-data="{&quot;index&quot;:null}" fill="#1d28e8" stroke-linecap="butt"/><path d="M253.92537,187.96776c0,0 2.97659,-0.72126 5.01387,-0.69731c1.61396,0.01897 6.23836,0.82959 6.23836,0.82959" fill="none" stroke-linecap="round"/><path d="M243.71872,187.73073c0.53988,-2.78308 3.23367,-4.60156 6.01675,-4.06166c2.78308,0.53988 4.60156,3.23367 4.06166,6.01675c-0.53988,2.78308 -3.23367,4.60156 -6.01675,4.06166c-2.78308,-0.53988 -4.60156,-3.23367 -4.06166,-6.01675z" fill="#1d28e8" stroke-linecap="butt"/><path d="M264.22942,188.14369l-0.90885,-23.02608l41.04533,0.66984l-9.51631,26.87099l20.57617,3.11155z" fill="#2530ff" stroke-linecap="round"/></g></g></svg>