<svg version="1.1" xmlns="http://www.w3.org/2000/svg" xmlns:xlink="http://www.w3.org/1999/xlink" width="106.12885" height="66.99301" viewBox="0,0,106.12885,66.99301"><g transform="translate(-186.3646,-138.12853)"><g data-paper-data="{&quot;isPaintingLayer&quot;:true}" fill-rule="nonzero" stroke="#000000" stroke-width="2" stroke-linejoin="miter" stroke-miterlimit="10" stroke-dasharray="" stroke-dashoffset="0" style="mix-blend-mode: normal"><path d="M219.39001,181.09363c-7.53055,5.23595 -17.87984,3.37576 -23.11577,-4.15478c-5.23595,-7.53055 -3.37578,-17.87984 4.15478,-23.11577c7.53055,-5.23595 17.87984,-3.37576 23.11577,4.15478c5.23595,7.53055 3.37578,17.87984 -4.15477,23.11577z" fill="#2d6a2b" stroke-linecap="butt"/><path d="M199.19891,184.25292c-13.03328,-9.01533 -11.8033,-22.34851 -11.8033,-22.34851l34.80661,21.64707c0,0 -8.99041,10.39438 -23.00331,0.70144z" fill="#367e33" stroke-linecap="round"/><path d="M257.23773,178.55366l-24.54038,-7.16544l2.2004,-7.53603l24.54038,7.16544z" fill="#2d6a2b" stroke-linecap="butt"/><path d="M240.78105,189.79743c-2.09192,-0.29293 -3.55028,-2.22623 -3.25734,-4.31815c0.29293,-2.09192 2.22623,-3.55028 4.31814,-3.25735c2.09192,0.29293 3.55028,2.22623 3.25734,4.31815c-0.29293,2.09192 -2.22623,3.55028 -4.31814,3.25735z" fill="#2d6a2b" stroke-linecap="butt"/><path d="M219.49433,146.74145c-2.09192,-0.29293 -3.55028,-2.22623 -3.25735,-4.31814c0.29293,-2.0919 2.22623,-3.55028 4.31814,-3.25735c2.09192,0.29293 3.55028,2.22623 3.25734,4.31815c-0.29293,2.0919 -2.22623,3.55028 -4.31813,3.25734z" fill="#2d6a2b" stroke-linecap="butt"/><path d="M285.79355,161.27662c4.91601,0.5554 6.00239,3.35373 5.6342,6.61266c-0.36818,3.25893 -4.65186,5.45058 -9.56788,4.89517c-4.91601,-0.5554 -8.80613,-1.84727 -8.43795,-5.1062c0.14219,-1.25865 4.25518,-7.31861 12.37162,-6.40164z" data-paper-data="{&quot;index&quot;:null}" fill="#2d6a2b" stroke-linecap="butt"/><path d="M215.33313,195.91547c0,0 -2.63649,-1.5586 -4.08007,-2.99639c-1.14362,-1.13902 -3.89303,-4.94465 -3.89303,-4.94465" fill="none" stroke-linecap="round"/><path d="M222.48373,203.20248c-2.32763,1.61838 -5.52649,1.04342 -7.14488,-1.2842c-1.61838,-2.32763 -1.04343,-5.5265 1.2842,-7.14488c2.32763,-1.61838 5.5265,-1.04343 7.14488,1.2842c1.61838,2.32763 1.04343,5.5265 -1.2842,7.14488z" fill="#2d6a2b" stroke-linecap="butt"/><path d="M287.01117,186.29811c3.86858,3.08378 3.30114,6.03148 1.25682,8.59605c-2.0443,2.56457 -6.83764,2.14365 -10.70623,-0.94014c-3.86858,-3.08378 -6.47672,-6.24599 -4.43242,-8.81055c0.78954,-0.99047 7.4947,-3.93676 13.88182,1.15465z" data-paper-data="{&quot;index&quot;:null}" fill="#2d6a2b" stroke-linecap="butt"/></g></g></svg>