<svg version="1.1" xmlns="http://www.w3.org/2000/svg" xmlns:xlink="http://www.w3.org/1999/xlink" width="183.02692" height="70.29837" viewBox="0,0,183.02692,70.29837"><defs><linearGradient x1="202.6693" y1="199.69913" x2="383.1693" y2="199.69913" gradientUnits="userSpaceOnUse" id="color-1"><stop offset="0" stop-color="#ffffff" stop-opacity="0"/><stop offset="1" stop-color="#ffffff"/></linearGradient></defs><g transform="translate(-200.14238,-156.63404)"><g data-paper-data="{&quot;isPaintingLayer&quot;:true}" fill-rule="nonzero" stroke-linejoin="miter" stroke-miterlimit="10" stroke-dasharray="" stroke-dashoffset="0" style="mix-blend-mode: normal"><path d="M225.69846,205.15546l19.95819,-15.97636l4.90613,6.1289l-19.95819,15.97636z" fill="#2d6a2b" stroke="#000000" stroke-width="2" stroke-linecap="butt"/><path d="M383.1693,190.94913l-180.5,3.25c0,0 75.60297,15.13042 124.5,14.25c48.89703,-0.88042 56,-17.5 56,-17.5z" fill="url(#color-1)" stroke="none" stroke-width="0" stroke-linecap="round"/><path d="M287.46984,189.11812c0,-2.11232 1.71238,-3.8247 3.8247,-3.8247c2.11232,0 3.8247,1.71238 3.8247,3.8247c0,2.11232 -1.71238,3.8247 -3.8247,3.8247c-2.11232,0 -3.8247,-1.71238 -3.8247,-3.8247z" fill="#2d6a2b" stroke="#000000" stroke-width="2" stroke-linecap="butt"/><path d="M257.43282,213.63269c4.93244,-0.38296 6.52773,2.15988 6.7816,5.4297c0.25387,3.26982 -3.53887,6.23098 -8.4713,6.61393c-4.93244,0.38296 -8.99653,-0.15105 -9.2504,-3.42087c-0.09805,-1.26286 2.79655,-7.9905 10.94011,-8.62276z" data-paper-data="{&quot;index&quot;:null}" fill="#2d6a2b" stroke="#000000" stroke-width="2" stroke-linecap="butt"/><path d="M208.59048,214.86091c4.11347,0 7.4481,2.47844 7.4481,5.53575c0,3.05731 -3.33463,5.53575 -7.4481,5.53575c-4.11347,0 -7.4481,-2.47844 -7.4481,-5.53575c0,-3.05731 3.33463,-5.53575 7.4481,-5.53575z" data-paper-data="{&quot;index&quot;:null}" fill="#2d6a2b" stroke="#000000" stroke-width="2" stroke-linecap="butt"/><path d="M247.89206,177.74748c0.06464,-9.1717 7.55219,-16.55442 16.72387,-16.48978c9.1717,0.06464 16.55442,7.55219 16.48978,16.72387c-0.06464,9.1717 -7.55219,16.55442 -16.72387,16.48978c-9.1717,-0.06464 -16.55442,-7.55219 -16.48978,-16.72387z" fill="#2d6a2b" stroke="#000000" stroke-width="2" stroke-linecap="butt"/><path d="M256.95387,159.42959c14.881,-5.4496 25.06497,3.2437 25.06497,3.2437l-37.75647,15.95448c0,0 -3.308,-13.33896 12.6915,-19.19818z" fill="#367e33" stroke="#000000" stroke-width="2" stroke-linecap="round"/><path d="M238.12198,165.88617c0,0 2.79369,-1.25527 4.80077,-1.6056c1.59004,-0.27754 6.28464,-0.32932 6.28464,-0.32932" fill="none" stroke="#000000" stroke-width="2" stroke-linecap="round"/><path d="M228.04517,167.52623c0.01999,-2.83489 2.33431,-5.11682 5.1692,-5.09684c2.83489,0.01999 5.11682,2.33431 5.09684,5.1692c-0.01999,2.83489 -2.33431,5.11682 -5.1692,5.09684c-2.83489,-0.01999 -5.11682,-2.33431 -5.09684,-5.1692z" fill="#2d6a2b" stroke="#000000" stroke-width="2" stroke-linecap="butt"/><g stroke="#61ff00" stroke-width="3" stroke-linecap="round"><path d="M381.51231,191.82892c0,0 -34.64371,0.49533 -50.00859,0.04073c-13.77739,-0.40763 -37.93859,-2.64287 -37.93859,-2.64287" fill="none"/><path d="M350.33133,191.14376c0,0 -15.06494,-4.03769 -16.40681,-8.61704c-1.34184,-4.57935 4.40412,-5.19096 4.40412,-5.19096z" fill="#61ff00"/><path d="M309.49315,201.22257c0,0 -4.46112,-2.79358 -0.12174,-6.15844c4.33938,-3.36486 19.97504,-0.83966 19.97504,-0.83966z" data-paper-data="{&quot;index&quot;:null}" fill="#61ff00"/><path d="M353.12842,199.35224c0,0 -3.74162,-2.3783 -0.05193,-5.1976c3.6897,-2.8193 16.86358,-0.61525 16.86358,-0.61525z" data-paper-data="{&quot;index&quot;:null}" fill="#61ff00"/></g><path d="M284.30688,189.83815c0,-2.11232 1.71238,-3.8247 3.8247,-3.8247c2.11232,0 3.8247,1.71238 3.8247,3.8247c0,2.11232 -1.71238,3.8247 -3.8247,3.8247c-2.11232,0 -3.8247,-1.71238 -3.8247,-3.8247z" fill="#2d6a2b" stroke="#000000" stroke-width="2" stroke-linecap="butt"/></g></g></svg>