<svg version="1.1" xmlns="http://www.w3.org/2000/svg" xmlns:xlink="http://www.w3.org/1999/xlink" width="56.0517" height="74.51316" viewBox="0,0,56.0517,74.51316"><g transform="translate(-200.75278,-152.69494)"><g data-paper-data="{&quot;isPaintingLayer&quot;:true}" fill-rule="nonzero" stroke="#000000" stroke-width="2" stroke-linejoin="miter" stroke-miterlimit="10" stroke-dasharray="" stroke-dashoffset="0" style="mix-blend-mode: normal"><path d="M232.5345,215.73013l-5.99888,-24.8513l7.6315,-1.84218l5.99888,24.8513z" fill="#2d6a2b" stroke-linecap="butt"/><path d="M201.77117,208.09359c-0.20531,-2.10232 1.33252,-3.97303 3.43484,-4.17834c2.10232,-0.20531 3.97303,1.33252 4.17834,3.43484c0.20531,2.10232 -1.33252,3.97303 -3.43484,4.17834c-2.10232,0.20531 -3.97303,-1.33252 -4.17834,-3.43484z" fill="#2d6a2b" stroke-linecap="butt"/><path d="M251.39378,213.53739c4.3722,2.31506 4.35974,5.31687 2.82503,8.21529c-1.53469,2.89841 -6.3232,3.37134 -10.69539,1.05627c-4.3722,-2.31506 -7.5202,-4.94034 -5.98551,-7.83875c0.59272,-1.11942 6.63728,-5.25503 13.85588,-1.4328z" data-paper-data="{&quot;index&quot;:null}" fill="#2d6a2b" stroke-linecap="butt"/><path d="M219.78111,215.17892c4.09775,-0.35936 7.63615,1.8183 7.90322,4.86392c0.26709,3.04562 -2.83828,5.8059 -6.93603,6.16526c-4.09775,0.35936 -7.63615,-1.8183 -7.90322,-4.86393c-0.26709,-3.04562 2.83828,-5.80589 6.93603,-6.16525z" data-paper-data="{&quot;index&quot;:null}" fill="#2d6a2b" stroke-linecap="butt"/><path d="M224.947,163.95562c-2.83181,-0.13379 -5.01896,-2.53789 -4.88518,-5.36968c0.13379,-2.83181 2.53789,-5.01896 5.36968,-4.88518c2.83181,0.13379 5.01896,2.53789 4.88518,5.36968c-0.13379,2.83181 -2.53789,5.01896 -5.36968,4.88518z" data-paper-data="{&quot;index&quot;:null}" fill="#2d6a2b" stroke-linecap="butt"/><path d="M216.67148,170.64189l7.80992,-10.70075" data-paper-data="{&quot;index&quot;:null}" fill="none" stroke-linecap="round"/><path d="M213.85431,185.69201c-1.20434,-9.09252 5.1903,-17.43976 14.28281,-18.64409c9.09252,-1.20434 17.43976,5.1903 18.64409,14.28281c1.20434,9.09252 -5.1903,17.43976 -14.28281,18.64409c-9.09252,1.20434 -17.43976,-5.1903 -18.64409,-14.28281z" fill="#2d6a2b" stroke-linecap="butt"/><path d="M222.37324,165.70341c13.98439,-7.45514 23.19532,0.33983 23.19532,0.33983l-35.18734,21.02254c0,0 -3.04348,-13.34686 11.99202,-21.36237z" fill="#367e33" stroke-linecap="round"/><path d="M238.19315,210.43306c0,-2.11232 1.71238,-3.8247 3.8247,-3.8247c2.11232,0 3.8247,1.71238 3.8247,3.8247c0,2.11232 -1.71238,3.8247 -3.8247,3.8247c-2.11232,0 -3.8247,-1.71238 -3.8247,-3.8247z" fill="#2d6a2b" stroke-linecap="butt"/></g></g></svg>