<svg version="1.1" xmlns="http://www.w3.org/2000/svg" xmlns:xlink="http://www.w3.org/1999/xlink" width="84.53355" height="88.95245" viewBox="0,0,84.53355,88.95245"><g transform="translate(-220.83742,-137.1161)"><g data-paper-data="{&quot;isPaintingLayer&quot;:true}" fill-rule="nonzero" stroke="#000000" stroke-width="2" stroke-linejoin="miter" stroke-miterlimit="10" stroke-dasharray="" stroke-dashoffset="0" style="mix-blend-mode: normal"><path d="M241.35144,159.19566c2.24409,-8.89316 11.27262,-14.28329 20.16577,-12.03921c8.89316,2.24409 14.28329,11.27262 12.03921,20.16577c-2.24409,8.89316 -11.27262,14.28329 -20.16577,12.03921c-8.89316,-2.24409 -14.28329,-11.27262 -12.03921,-20.16577z" fill="#ffe819" stroke-linecap="butt"/><path d="M235.50382,204.41248l10.55858,-23.28284l7.14985,3.2424l-10.55858,23.28284z" data-paper-data="{&quot;index&quot;:null}" fill="#ffe819" stroke-linecap="butt"/><path d="M229.28552,213.59445c4.11347,0 7.4481,2.47844 7.4481,5.53575c0,3.05731 -3.33463,5.53575 -7.4481,5.53575c-4.11347,0 -7.4481,-2.47844 -7.4481,-5.53575c0,-3.05731 3.33463,-5.53575 7.4481,-5.53575z" data-paper-data="{&quot;index&quot;:null}" fill="#ffe819" stroke-linecap="butt"/><path d="M233.78445,149.28356c0,0 2.58458,-1.64326 4.52059,-2.27803c1.53373,-0.50287 6.17231,-1.22797 6.17231,-1.22797" fill="none" stroke-linecap="round"/><path d="M224.04738,152.353c-0.38713,-2.8084 1.57571,-5.3989 4.38411,-5.78602c2.8084,-0.38713 5.3989,1.57571 5.78602,4.38411c0.38713,2.8084 -1.57571,5.3989 -4.38411,5.78602c-2.8084,0.38713 -5.3989,-1.57571 -5.78602,-4.38411z" fill="#ffe819" stroke-linecap="butt"/><path d="M257.35386,213.19185c4.94728,0 6.34095,2.65869 6.34095,5.93835c0,3.27966 -4.01056,5.93835 -8.95785,5.93835c-4.94728,0 -8.95785,-0.84699 -8.95785,-4.12665c0,-1.26666 3.40667,-7.75005 11.57475,-7.75005z" data-paper-data="{&quot;index&quot;:null}" fill="#ffe819" stroke-linecap="butt"/><path d="M236.97165,158.04192c0,0 5.22175,-12.16498 6.55798,-13.78329c0.9642,-1.16775 -3.42989,5.56818 -3.42989,5.56818l-2.34498,-9.43079c0,0 11.72544,-3.64009 22.16826,-1.72132c10.44282,1.91876 15.72435,13.95779 15.72435,13.95779z" data-paper-data="{&quot;index&quot;:null}" fill="#fff067" stroke-linecap="butt"/><path d="M296.72157,193.88262c0,-2.11232 1.71238,-3.8247 3.8247,-3.8247c2.11232,0 3.8247,1.71238 3.8247,3.8247c0,2.11232 -1.71238,3.8247 -3.8247,3.8247c-2.11232,0 -3.8247,-1.71238 -3.8247,-3.8247z" fill="#ffe819" stroke-linecap="butt"/><path d="M296.72157,189.63262c0,-2.11232 1.71238,-3.8247 3.8247,-3.8247c2.11232,0 3.8247,1.71238 3.8247,3.8247c0,2.11232 -1.71238,3.8247 -3.8247,3.8247c-2.11232,0 -3.8247,-1.71238 -3.8247,-3.8247z" fill="#ffe819" stroke-linecap="butt"/></g></g></svg>