<svg version="1.1" xmlns="http://www.w3.org/2000/svg" xmlns:xlink="http://www.w3.org/1999/xlink" width="94.43284" height="79.99845" viewBox="0,0,94.43284,79.99845"><g transform="translate(-184.1809,-145.76743)"><g data-paper-data="{&quot;isPaintingLayer&quot;:true}" fill-rule="nonzero" stroke="#000000" stroke-width="2" stroke-linejoin="miter" stroke-miterlimit="10" stroke-dasharray="" stroke-dashoffset="0" style="mix-blend-mode: normal"><path d="M227.82707,161.37133l22.10316,12.84619l-3.94489,6.78759l-22.10316,-12.84619z" fill="#181818" stroke-linecap="butt"/><path d="M236.31374,176.4321l-6.67031,-1.21384l17.49614,-9.57078l-2.12532,5.71444l5.69023,0.87771l-14.1879,9.09457z" data-paper-data="{&quot;index&quot;:null}" fill="#0e0e0e" stroke-linecap="round"/><path d="M275.8965,182.18539c-1.70498,1.24696 -4.09803,0.87567 -5.34499,-0.82933c-1.24696,-1.70498 -0.87567,-4.09803 0.82933,-5.34499c1.70498,-1.24696 4.09803,-0.87567 5.34499,0.82933c1.24696,1.70498 0.87567,4.09803 -0.82933,5.34499z" fill="#181818" stroke-linecap="butt"/><path d="M269.18833,187.49207c0,0 -1.15985,2.83463 -2.37311,4.47142c-0.96118,1.29668 -4.32795,4.56883 -4.32795,4.56883" data-paper-data="{&quot;index&quot;:null}" fill="#181818" stroke-linecap="round"/><path d="M275.28264,187.70128c-0.18945,2.82862 -2.63605,4.96812 -5.46468,4.77866c-2.82862,-0.18945 -4.96813,-2.63605 -4.77866,-5.46468c0.18945,-2.82862 2.63605,-4.96812 5.46468,-4.77866c2.82862,0.18945 4.96813,2.63605 4.77866,5.46468z" data-paper-data="{&quot;index&quot;:null}" fill="#181818" stroke-linecap="butt"/><path d="M259.72833,183.19302c3.92825,8.28815 0.39386,18.19147 -7.89426,22.11971c-8.28815,3.92825 -18.19147,0.39386 -22.11971,-7.89426c-3.92825,-8.28815 -0.39386,-18.19147 7.89426,-22.11971c8.28815,-3.92825 18.19147,-0.39386 22.11971,7.89426z" fill="#181818" stroke-linecap="butt"/><path d="M242.30773,182.24845l2.24628,4.73936c0,0 -5.19523,-0.03506 -9.86066,2.17617c-4.66544,2.21124 -7.66707,6.13131 -7.66707,6.13131l-2.24628,-4.73936z" fill="#ff0000" stroke-linecap="butt"/><g><path d="M261.05533,190.3999l5.16644,10.90054l-26.77741,12.69144l-5.16642,-10.90054z" fill="#343434" stroke-linecap="butt"/><path d="M224.56219,207.69622l46.20884,-21.90117" fill="none" stroke-linecap="round"/></g><path d="M276.04661,190.19212c-1.70498,1.24696 -4.09803,0.87567 -5.34499,-0.82933c-1.24696,-1.70498 -0.87567,-4.09803 0.82933,-5.34499c1.70498,-1.24696 4.09803,-0.87567 5.34499,0.82933c1.24696,1.70498 0.87567,4.09803 -0.82933,5.34499z" fill="#181818" stroke-linecap="butt"/><path d="M216.49508,210.12846c2.87827,4.02383 1.52667,6.70415 -1.1408,8.61222c-2.66749,1.90806 -7.16321,0.1929 -10.04148,-3.83092c-1.138,-1.59092 -12.64816,-20.68449 -12.27286,-35.82647c0.57391,-23.15554 40.48483,-26.99874 40.48483,-26.99874c0,0 -30.67633,4.55677 -28.95028,26.25946c1.20675,15.17341 9.96527,29.05086 11.92062,31.78445z" data-paper-data="{&quot;index&quot;:null}" fill="#181818" stroke-linecap="butt"/><path d="M210.33619,216.15367c2.87827,4.02383 1.52667,6.70414 -1.1408,8.61221c-2.66748,1.90807 -7.16321,0.1929 -10.04148,-3.83092c-1.138,-1.59092 -14.34046,-22.16526 -13.96516,-37.30723c0.57391,-23.15554 44.25017,-36.8603 44.25017,-36.8603c0,0 -32.74936,15.89907 -31.02333,37.60178c1.20676,15.1734 9.96528,29.05085 11.92062,31.78445z" data-paper-data="{&quot;index&quot;:null}" fill="#181818" stroke-linecap="butt"/></g></g></svg>