<svg version="1.1" xmlns="http://www.w3.org/2000/svg" xmlns:xlink="http://www.w3.org/1999/xlink" width="96.24914" height="113.06378" viewBox="0,0,96.24914,113.06378"><g transform="translate(-184.67739,-109.53023)"><g data-paper-data="{&quot;isPaintingLayer&quot;:true}" fill-rule="nonzero" stroke="#000000" stroke-width="2" stroke-linejoin="miter" stroke-miterlimit="10" stroke-dasharray="" stroke-dashoffset="0" style="mix-blend-mode: normal"><path d="M240.65955,185.58526c0,-2.11232 1.71238,-3.8247 3.8247,-3.8247c2.11232,0 3.8247,1.71238 3.8247,3.8247c0,2.11232 -1.71238,3.8247 -3.8247,3.8247c-2.11232,0 -3.8247,-1.71238 -3.8247,-3.8247z" fill="#ff6b00" stroke-linecap="butt"/><path d="M213.43461,164.04876c0,-9.17193 7.43532,-16.60724 16.60724,-16.60724c9.17193,0 16.60724,7.43532 16.60724,16.60724c0,9.17193 -7.43532,16.60724 -16.60724,16.60724c-9.17193,0 -16.60724,-7.43532 -16.60724,-16.60724z" fill="#ff6b00" stroke-linecap="butt"/><path d="M233.5092,207.92339l-10.75465,-23.19292l7.12225,-3.30261l10.75464,23.19292z" fill="#ff6b00" stroke-linecap="butt"/><path d="M221.70779,200.7621c0,-2.11232 1.71238,-3.8247 3.8247,-3.8247c2.11232,0 3.8247,1.71238 3.8247,3.8247c0,2.11232 -1.71238,3.8247 -3.8247,3.8247c-2.11232,0 -3.8247,-1.71238 -3.8247,-3.8247z" fill="#ff6b00" stroke-linecap="butt"/><path d="M203.28003,155.3984c0,0 3.017,-0.5273 5.04847,-0.37169c1.60935,0.12329 6.17167,1.23121 6.17167,1.23121" fill="none" stroke-linecap="round"/><path d="M193.11007,154.50194c0.71871,-2.74235 3.52442,-4.38284 6.26678,-3.66414c2.74235,0.71871 4.38284,3.52443 3.66413,6.26678c-0.71871,2.74235 -3.52442,4.38284 -6.26677,3.66413c-2.74235,-0.71871 -4.38284,-3.52442 -3.66413,-6.26677z" fill="#ff6b00" stroke-linecap="butt"/><path d="M269.57262,207.02569c2.96841,-3.95778 5.93156,-3.47749 8.55527,-1.50966c2.62371,1.96783 2.34426,6.77147 -0.62414,10.7293c-2.96841,3.95778 -6.05236,6.65803 -8.67607,4.6902c-1.01331,-0.76 -4.15595,-7.3754 0.74495,-13.90982z" data-paper-data="{&quot;index&quot;:null}" fill="#ff6b00" stroke-linecap="butt"/><path d="M208.87381,167.40447l4.22817,-12.18351l-26.62972,-21.39582l41.5955,-22.71252l4.14025,33.37304l12.53391,2.91357z" data-paper-data="{&quot;index&quot;:null}" fill="#ffa340" stroke-linecap="butt"/><path d="M213.17474,218.06516c-4.76925,1.31524 -6.81958,-0.87728 -7.69149,-4.03891c-0.87191,-3.16164 2.28753,-6.79087 7.05678,-8.10612c4.76925,-1.31524 8.86067,-1.56496 9.73257,1.59669c0.33673,1.22108 -1.22372,8.37682 -9.09786,10.54832z" data-paper-data="{&quot;index&quot;:null}" fill="#ff6b00" stroke-linecap="butt"/></g></g></svg>