<svg version="1.1" xmlns="http://www.w3.org/2000/svg" xmlns:xlink="http://www.w3.org/1999/xlink" width="95.01188" height="88.78104" viewBox="0,0,95.01188,88.78104"><g transform="translate(-218.42041,-138.46588)"><g data-paper-data="{&quot;isPaintingLayer&quot;:true}" fill-rule="nonzero" stroke="#000000" stroke-width="2" stroke-linejoin="miter" stroke-miterlimit="10" stroke-dasharray="" stroke-dashoffset="0" style="mix-blend-mode: normal"><g><path d="M229.96795,150.71144c0,0 2.89281,-1.00598 4.92285,-1.17933c1.60823,-0.13733 6.28936,0.22189 6.28936,0.22189" fill="#181818" stroke-linecap="round"/><path d="M219.42041,151.5409c0.26798,-2.82226 2.77311,-4.89294 5.59539,-4.62494c2.82226,0.26798 4.89294,2.77311 4.62494,5.59539c-0.26798,2.82226 -2.77311,4.89294 -5.59539,4.62494c-2.82226,-0.26798 -4.89294,-2.77311 -4.62494,-5.59539z" fill="#181818" stroke-linecap="butt"/><path d="M241.24811,162.80516c-1.23505,-9.0884 5.13134,-17.45719 14.21973,-18.69224c9.0884,-1.23505 17.45719,5.13134 18.69224,14.21973c1.23505,9.0884 -5.13134,17.45719 -14.21973,18.69224c-9.0884,1.23505 -17.45719,-5.13134 -18.69224,-14.21973z" fill="#181818" stroke-linecap="butt"/><path d="M264.43693,163.1039l-0.70624,-5.19697c0,0 5.1153,0.60351 7.57524,0.26922c2.59375,-0.35247 7.60709,-2.3324 7.60709,-2.3324l0.70624,5.19697z" fill="#ff0000" stroke-linecap="butt"/><g><path d="M242.16495,155.53469l-1.62434,-11.95304l29.36291,-3.99022l1.62434,11.95304z" fill="#343434" stroke-linecap="butt"/><path d="M282.18169,150.09667l-50.67053,6.88579" fill="none" stroke-linecap="round"/></g></g><path d="M228.5361,214.34388c4.11347,0 7.4481,2.47844 7.4481,5.53575c0,3.05731 -3.33463,5.53575 -7.4481,5.53575c-4.11347,0 -7.4481,-2.47844 -7.4481,-5.53575c0,-3.05731 3.33463,-5.53575 7.4481,-5.53575z" data-paper-data="{&quot;index&quot;:null}" fill="#181818" stroke-linecap="butt"/><path d="M262.75428,214.37022c4.94728,0 6.34095,2.65869 6.34095,5.93835c0,3.27966 -4.01056,5.93835 -8.95785,5.93835c-4.94728,0 -8.95785,-0.84699 -8.95785,-4.12665c0,-1.26666 3.40667,-7.75005 11.57475,-7.75005z" data-paper-data="{&quot;index&quot;:null}" fill="#181818" stroke-linecap="butt"/><path d="M241.09226,206.47434l5.83883,-24.88939l7.6432,1.79303l-5.83883,24.88939z" fill="#181818" stroke-linecap="butt"/><path d="M245.22193,179.50357l13.97287,3.58808l-4.61278,3.26024l3.04641,5.05702l-16.87077,-2.71706l5.36675,-4.01387z" fill="#0e0e0e" stroke-linecap="round"/><path d="M304.79159,175.62402c0.14352,-2.10744 1.96829,-3.69952 4.07572,-3.556c2.10744,0.14352 3.69952,1.96829 3.556,4.07572c-0.14352,2.10744 -1.96829,3.69952 -4.07572,3.556c-2.10744,-0.14352 -3.69952,-1.96829 -3.556,-4.07572z" fill="#181818" stroke-linecap="butt"/><path d="M223.14591,203.14332c0.14352,-2.10744 1.96829,-3.69952 4.07572,-3.556c2.10744,0.14352 3.69952,1.96829 3.556,4.07572c-0.14352,2.10744 -1.96829,3.69952 -4.07572,3.556c-2.10744,-0.14352 -3.69952,-1.96829 -3.556,-4.07572z" fill="#181818" stroke-linecap="butt"/></g></g></svg>