<svg version="1.1" xmlns="http://www.w3.org/2000/svg" xmlns:xlink="http://www.w3.org/1999/xlink" width="46.0349" height="29.063" viewBox="0,0,46.0349,29.063"><defs><linearGradient x1="248.1299" y1="185.64848" x2="246.32038" y2="158.36758" gradientUnits="userSpaceOnUse" id="color-1"><stop offset="0" stop-color="#ff0000" stop-opacity="0"/><stop offset="1" stop-color="#ff0000"/></linearGradient><linearGradient x1="250.41217" y1="182.06529" x2="248.3109" y2="160.92406" gradientUnits="userSpaceOnUse" id="color-2"><stop offset="0" stop-color="#ff7b00" stop-opacity="0"/><stop offset="1" stop-color="#ff7b00"/></linearGradient><linearGradient x1="253.1396" y1="178.24496" x2="250.85464" y2="162.8371" gradientUnits="userSpaceOnUse" id="color-3"><stop offset="0" stop-color="#ffde00" stop-opacity="0"/><stop offset="1" stop-color="#ffde00"/></linearGradient></defs><g transform="translate(-223.1803,-157.5787)"><g data-paper-data="{&quot;isPaintingLayer&quot;:true}" fill-rule="nonzero" stroke="#000000" stroke-width="0" stroke-linecap="butt" stroke-linejoin="miter" stroke-miterlimit="10" stroke-dasharray="" stroke-dashoffset="0" style="mix-blend-mode: normal"><path d="M262.77988,157.6425c7.79871,0.78353 7.49946,6.32851 4.39581,12.40212c-3.10365,6.07361 -10.01607,10.68466 -18.28207,14.77224c-12.31365,6.08918 -25.71332,-5.01184 -25.71332,-5.01184c0,0 14.33899,1.09785 23.16365,-8.13592c7.90683,-8.27338 8.63719,-14.81016 16.43593,-14.02662z" data-paper-data="{&quot;index&quot;:null}" fill="url(#color-1)"/><path d="M262.35257,158.97872c6.67608,-0.04202 6.53351,4.31093 4.00675,9.31153c-2.52675,5.00059 -8.33601,9.17883 -15.31189,13.06195c-10.3918,5.78459 -22.06134,-1.75683 -22.06134,-1.75683c0,0 12.26789,-0.34482 19.61601,-8.29138c6.58385,-7.12005 7.07437,-12.28325 13.75047,-12.32527z" data-paper-data="{&quot;index&quot;:null}" fill="url(#color-2)"/><path d="M261.62345,160.52797c5.14775,-0.44893 5.17457,2.75956 3.38288,6.59336c-1.79168,3.8338 -6.1409,7.2687 -11.3992,10.55971c-7.83313,4.90256 -17.96959,2.2487 -17.96959,2.2487c0,0 10.35013,-3.18023 15.76782,-9.48132c4.85421,-5.64572 5.07029,-9.47153 10.21806,-9.92046z" data-paper-data="{&quot;index&quot;:null}" fill="url(#color-3)"/></g></g></svg>