<svg version="1.1" xmlns="http://www.w3.org/2000/svg" xmlns:xlink="http://www.w3.org/1999/xlink" width="114.54566" height="83.97351" viewBox="0,0,114.54566,83.97351"><g transform="translate(-186.29953,-134.25899)"><g data-paper-data="{&quot;isPaintingLayer&quot;:true}" fill-rule="nonzero" stroke="#000000" stroke-width="2" stroke-linejoin="miter" stroke-miterlimit="10" stroke-dasharray="" stroke-dashoffset="0" style="mix-blend-mode: normal"><path d="M231.56124,193.73124c1.89112,-0.94105 4.18705,-0.17086 5.1281,1.72026c0.94105,1.89112 0.17086,4.18705 -1.72026,5.1281c-1.89112,0.94105 -4.18705,0.17086 -5.1281,-1.72026c-0.94105,-1.89112 -0.17086,-4.18705 1.72026,-5.1281z" fill="#1d28e8" stroke-linecap="butt"/><path d="M249.00591,163.84514c2.91704,-8.6957 12.33102,-13.38022 21.02671,-10.46319c8.6957,2.91704 13.38022,12.33102 10.46319,21.02671c-2.91704,8.6957 -12.33102,13.38022 -21.02671,10.46319c-8.6957,-2.91704 -13.38022,-12.33102 -10.46319,-21.02671z" fill="#1d28e8" stroke-linecap="butt"/><path d="M217.69381,189.05011l22.88791,-11.38935l3.49752,7.02857l-22.88791,11.38935z" fill="#1d28e8" stroke-linecap="butt"/><path d="M210.29314,171.77013c1.89112,-0.94105 4.18705,-0.17086 5.1281,1.72026c0.94105,1.89112 0.17086,4.18705 -1.72026,5.1281c-1.89112,0.94105 -4.18705,0.17086 -5.1281,-1.72026c-0.94105,-1.89112 -0.17086,-4.18705 1.72026,-5.1281z" fill="#1d28e8" stroke-linecap="butt"/><path d="M238.84114,164.24387c0,0 2.85105,-1.11887 4.87271,-1.37185c1.60159,-0.20041 6.29322,-0.0254 6.29322,-0.0254" fill="none" stroke-linecap="round"/><path d="M228.69688,165.39532c0.15688,-2.83062 2.57872,-4.99811 5.40934,-4.84122c2.83062,0.15688 4.99811,2.57872 4.84122,5.40934c-0.15688,2.83062 -2.57872,4.99811 -5.40934,4.84122c-2.83062,-0.15688 -4.99811,-2.57872 -4.84122,-5.40934z" fill="#1d28e8" stroke-linecap="butt"/><path d="M199.25613,217.00002c-4.84627,0.99459 -6.74599,-1.32964 -7.40532,-4.54235c-0.65933,-3.2127 2.73485,-6.62338 7.58114,-7.61797c4.84627,-0.99459 8.94524,-0.97116 9.60457,2.24154c0.25465,1.2408 -1.77907,8.27669 -9.78039,9.91878z" data-paper-data="{&quot;index&quot;:null}" fill="#1d28e8" stroke-linecap="butt"/><path d="M249.07361,163.01866l-4.02786,-22.68926l40.75595,-4.9112l-5.77847,27.9145l20.80812,0.28803z" fill="#2530ff" stroke-linecap="round"/><path d="M191.98383,200.17806c-4.72049,-1.48073 -5.25452,-4.43467 -4.27291,-7.56399c0.98161,-3.12931 5.60407,-4.46576 10.32457,-2.98502c4.72049,1.48073 8.2937,3.48927 7.31209,6.61858c-0.37912,1.20859 -5.57011,6.37515 -13.36375,3.93042z" data-paper-data="{&quot;index&quot;:null}" fill="#1d28e8" stroke-linecap="butt"/></g></g></svg>