<svg version="1.1" xmlns="http://www.w3.org/2000/svg" xmlns:xlink="http://www.w3.org/1999/xlink" width="61.50041" height="90.05715" viewBox="0,0,61.50041,90.05715"><g transform="translate(-213.41354,-136.29898)"><g data-paper-data="{&quot;isPaintingLayer&quot;:true}" fill-rule="nonzero" stroke="#000000" stroke-width="2" stroke-linejoin="miter" stroke-miterlimit="10" stroke-dasharray="" stroke-dashoffset="0" style="mix-blend-mode: normal"><path d="M266.26455,183.34339c0,-2.11232 1.71238,-3.8247 3.8247,-3.8247c2.11232,0 3.8247,1.71238 3.8247,3.8247c0,2.11232 -1.71238,3.8247 -3.8247,3.8247c-2.11232,0 -3.8247,-1.71238 -3.8247,-3.8247z" fill="#ffe819" stroke-linecap="butt"/><path d="M237.95277,160.15008c1.02686,-9.11427 9.24788,-15.67039 18.36213,-14.64353c9.11427,1.02686 15.67039,9.24788 14.64353,18.36213c-1.02686,9.11427 -9.24788,15.67039 -18.36213,14.64353c-9.11427,-1.02686 -15.67039,-9.24788 -14.64353,-18.36213z" fill="#ffe819" stroke-linecap="butt"/><path d="M235.89249,204.59371l7.40853,-24.46809l7.51383,2.27506l-7.40853,24.46809z" fill="#ffe819" stroke-linecap="butt"/><path d="M266.18268,188.83998c0,-2.11232 1.71238,-3.8247 3.8247,-3.8247c2.11232,0 3.8247,1.71238 3.8247,3.8247c0,2.11232 -1.71238,3.8247 -3.8247,3.8247c-2.11232,0 -3.8247,-1.71238 -3.8247,-3.8247z" fill="#ffe819" stroke-linecap="butt"/><path d="M229.28552,213.59445c4.11347,0 7.4481,2.47844 7.4481,5.53575c0,3.05731 -3.33463,5.53575 -7.4481,5.53575c-4.11347,0 -7.4481,-2.47844 -7.4481,-5.53575c0,-3.05731 3.33463,-5.53575 7.4481,-5.53575z" data-paper-data="{&quot;index&quot;:null}" fill="#ffe819" stroke-linecap="butt"/><path d="M223.83894,153.32528c0,0 2.33992,-1.97613 4.1729,-2.86568c1.45211,-0.70471 5.9509,-2.04745 5.9509,-2.04745" fill="none" stroke-linecap="round"/><path d="M214.60352,157.67718c-0.76155,-2.73076 0.83481,-5.56183 3.56557,-6.32338c2.73076,-0.76155 5.56183,0.83481 6.32338,3.56557c0.76155,2.73076 -0.83481,5.56183 -3.56557,6.32338c-2.73076,0.76155 -5.56183,-0.83481 -6.32338,-3.56557z" fill="#ffe819" stroke-linecap="butt"/><path d="M260.24279,213.47943c4.94728,0 6.34095,2.65869 6.34095,5.93835c0,3.27966 -4.01056,5.93835 -8.95785,5.93835c-4.94728,0 -8.95785,-0.84699 -8.95785,-4.12665c0,-1.26666 3.40667,-7.75005 11.57475,-7.75005z" data-paper-data="{&quot;index&quot;:null}" fill="#ffe819" stroke-linecap="butt"/><path d="M233.45756,159.59624l6.02059,-9.70561l-11.29906,-2.86432c0,0 14.80863,-10.20578 25.41468,-9.70983c10.60604,0.49595 17.4597,11.71469 17.4597,11.71469z" data-paper-data="{&quot;index&quot;:null}" fill="#fff067" stroke-linecap="butt"/></g></g></svg>