<svg version="1.1" xmlns="http://www.w3.org/2000/svg" xmlns:xlink="http://www.w3.org/1999/xlink" width="56.97749" height="78.76474" viewBox="0,0,56.97749,78.76474"><g transform="translate(-213.19009,-144.3919)"><g data-paper-data="{&quot;isPaintingLayer&quot;:true}" fill-rule="nonzero" stroke="#000000" stroke-width="2" stroke-linejoin="miter" stroke-miterlimit="10" stroke-dasharray="" stroke-dashoffset="0" style="mix-blend-mode: normal"><path d="M232.5578,163.13613c1.24353,-9.08724 9.61827,-15.44582 18.7055,-14.20229c9.08724,1.24353 15.44582,9.61827 14.20229,18.7055c-1.24353,9.08724 -9.61827,15.44582 -18.7055,14.20229c-9.08724,-1.24353 -15.44582,-9.61827 -14.20229,-18.7055z" fill="#2d6a2b" stroke-linecap="butt"/><path d="M243.89994,146.13561c15.45823,-3.49076 24.43974,6.43996 24.43974,6.43996l-39.49463,10.96677c0,0 -1.56523,-13.6536 15.0549,-17.40673z" fill="#367e33" stroke-linecap="round"/><path d="M233.70506,206.82483l3.69303,-25.29694l7.76836,1.13408l-3.69303,25.29694z" fill="#2d6a2b" stroke-linecap="butt"/><path d="M221.27726,190.55101c0,-2.11232 1.71238,-3.8247 3.8247,-3.8247c2.11232,0 3.8247,1.71238 3.8247,3.8247c0,2.11232 -1.71238,3.8247 -3.8247,3.8247c-2.11232,0 -3.8247,-1.71238 -3.8247,-3.8247z" fill="#2d6a2b" stroke-linecap="butt"/><path d="M257.25321,186.98658c0,-2.11232 1.71238,-3.8247 3.8247,-3.8247c2.11232,0 3.8247,1.71238 3.8247,3.8247c0,2.11232 -1.71238,3.8247 -3.8247,3.8247c-2.11232,0 -3.8247,-1.71238 -3.8247,-3.8247z" fill="#2d6a2b" stroke-linecap="butt"/><path d="M256.75681,210.00365c4.78795,-1.24542 6.80604,0.97681 7.63165,4.15084c0.82562,3.17404 -2.3865,6.75672 -7.17445,8.00214c-4.78795,1.24542 -8.88258,1.43532 -9.7082,-1.73872c-0.31887,-1.22587 1.34597,-8.35805 9.251,-10.41427z" data-paper-data="{&quot;index&quot;:null}" fill="#2d6a2b" stroke-linecap="butt"/><path d="M233.06847,209.80603c4.11347,0 7.4481,2.47844 7.4481,5.53575c0,3.05731 -3.33463,5.53575 -7.4481,5.53575c-4.11347,0 -7.4481,-2.47844 -7.4481,-5.53575c0,-3.05731 3.33463,-5.53575 7.4481,-5.53575z" data-paper-data="{&quot;index&quot;:null}" fill="#2d6a2b" stroke-linecap="butt"/><path d="M224.39412,150.11692c0,0 2.93191,-0.88559 4.96738,-0.97492c1.61252,-0.07076 6.27482,0.48158 6.27482,0.48158" fill="none" stroke-linecap="round"/><path d="M214.19009,150.44756c0.38436,-2.80878 2.97292,-4.77416 5.7817,-4.3898c2.80878,0.38436 4.77416,2.97292 4.3898,5.7817c-0.38436,2.80878 -2.97292,4.77416 -5.7817,4.3898c-2.80878,-0.38436 -4.77416,-2.97292 -4.3898,-5.7817z" fill="#2d6a2b" stroke-linecap="butt"/></g></g></svg>