<svg version="1.1" xmlns="http://www.w3.org/2000/svg" xmlns:xlink="http://www.w3.org/1999/xlink" width="94.36143" height="108.00663" viewBox="0,0,94.36143,108.00663"><g transform="translate(-213.80765,-119.08289)"><g data-paper-data="{&quot;isPaintingLayer&quot;:true}" fill-rule="nonzero" stroke="#000000" stroke-width="2" stroke-linejoin="miter" stroke-miterlimit="10" stroke-dasharray="" stroke-dashoffset="0" style="mix-blend-mode: normal"><path d="M229.88924,192.57254c0,-2.11232 71.34282,-2.70883 73.45514,-2.70883c2.11232,0 3.8247,1.71238 3.8247,3.8247c0,2.11232 -1.71238,3.8247 -3.8247,3.8247c-2.11232,0 -73.45514,-2.82825 -73.45514,-4.94057z" fill="#ff6b00" stroke-linecap="butt"/><path d="M251.93319,173.60143c0,-9.17193 7.43532,-16.60724 16.60724,-16.60724c9.17193,0 16.60724,7.43532 16.60724,16.60724c0,9.17193 -7.43532,16.60724 -16.60724,16.60724c-9.17193,0 -16.60724,-7.43532 -16.60724,-16.60724z" fill="#ff6b00" stroke-linecap="butt"/><path d="M239.16508,208.44255l13.40926,-21.76614l6.6841,4.11779l-13.40928,21.76614z" data-paper-data="{&quot;index&quot;:null}" fill="#ff6b00" stroke-linecap="butt"/><path d="M222.25575,215.01802c4.11347,0 7.4481,2.47844 7.4481,5.53575c0,3.05731 -3.33463,5.53575 -7.4481,5.53575c-4.11347,0 -7.4481,-2.47844 -7.4481,-5.53575c0,-3.05731 3.33463,-5.53575 7.4481,-5.53575z" data-paper-data="{&quot;index&quot;:null}" fill="#ff6b00" stroke-linecap="butt"/><path d="M240.67481,165.03595c0,0 2.94694,-0.83426 4.98364,-0.88802c1.61352,-0.04259 6.26545,0.59107 6.26545,0.59107" fill="none" stroke-linecap="round"/><path d="M230.46654,165.18836c0.43335,-2.80164 3.05583,-4.72153 5.85748,-4.28818c2.80164,0.43335 4.72152,3.05583 4.28817,5.85747c-0.43335,2.80164 -3.05583,4.72153 -5.85748,4.28818c-2.80164,-0.43335 -4.72152,-3.05583 -4.28817,-5.85747z" fill="#ff6b00" stroke-linecap="butt"/><path d="M266.75375,214.19592c4.9377,0.30779 6.16326,3.04804 5.95921,6.32135c-0.20404,3.27331 -4.37224,5.67733 -9.30995,5.36954c-4.9377,-0.30779 -8.8878,-1.40265 -8.68376,-4.67596c0.07881,-1.2642 3.88224,-7.52309 12.03449,-7.01492z" data-paper-data="{&quot;index&quot;:null}" fill="#ff6b00" stroke-linecap="butt"/><path d="M247.37239,176.95713l4.22817,-12.18351l-26.62972,-21.39582l41.5955,-22.71252l4.14025,33.37304l12.53391,2.91357z" data-paper-data="{&quot;index&quot;:null}" fill="#ffa340" stroke-linecap="butt"/><path d="M249.19272,200.51946c0,-2.11232 1.71238,-3.8247 3.8247,-3.8247c2.11232,0 3.8247,1.71238 3.8247,3.8247c0,2.11232 -1.71238,3.8247 -3.8247,3.8247c-2.11232,0 -3.8247,-1.71238 -3.8247,-3.8247z" fill="#ff6b00" stroke-linecap="butt"/></g></g></svg>