<svg version="1.1" xmlns="http://www.w3.org/2000/svg" xmlns:xlink="http://www.w3.org/1999/xlink" width="98.20645" height="90.56841" viewBox="0,0,98.20645,90.56841"><defs><linearGradient x1="277.29142" y1="176.07095" x2="277.29142" y2="184.29237" gradientUnits="userSpaceOnUse" id="color-1"><stop offset="0" stop-color="#000000"/><stop offset="1" stop-color="#4b0000"/></linearGradient><linearGradient x1="284.07009" y1="166.62172" x2="284.07009" y2="176.88863" gradientUnits="userSpaceOnUse" id="color-2"><stop offset="0" stop-color="#ff6b00"/><stop offset="1" stop-color="#4b0000"/></linearGradient><linearGradient x1="232.02377" y1="181.13677" x2="232.02377" y2="207.4911" gradientUnits="userSpaceOnUse" id="color-3"><stop offset="0" stop-color="#ff6b00"/><stop offset="1" stop-color="#4b0000"/></linearGradient><linearGradient x1="248.17546" y1="146.50893" x2="248.17546" y2="154.15885" gradientUnits="userSpaceOnUse" id="color-4"><stop offset="0" stop-color="#ff6b00"/><stop offset="1" stop-color="#4b0000"/></linearGradient><linearGradient x1="224.05278" y1="143.59016" x2="224.05278" y2="176.80464" gradientUnits="userSpaceOnUse" id="color-5"><stop offset="0" stop-color="#ff6b00"/><stop offset="1" stop-color="#4b0000"/></linearGradient><linearGradient x1="222.81413" y1="215.01801" x2="222.81413" y2="226.08951" gradientUnits="userSpaceOnUse" id="color-6"><stop offset="0" stop-color="#ff6b00"/><stop offset="1" stop-color="#4b0000"/></linearGradient><linearGradient x1="253.51458" y1="213.98464" x2="253.51458" y2="226.00467" gradientUnits="userSpaceOnUse" id="color-7"><stop offset="0" stop-color="#ff6b00"/><stop offset="1" stop-color="#4b0000"/></linearGradient><linearGradient x1="259.66433" y1="177.95159" x2="259.66433" y2="185.60151" gradientUnits="userSpaceOnUse" id="color-8"><stop offset="0" stop-color="#ff6b00"/><stop offset="1" stop-color="#4b0000"/></linearGradient><linearGradient x1="272.96137" y1="172.15796" x2="272.96137" y2="231.42646" gradientUnits="userSpaceOnUse" id="color-9"><stop offset="0" stop-color="#ffa340"/><stop offset="1" stop-color="#4b0000"/></linearGradient></defs><g transform="translate(-206.44554,-142.59016)"><g data-paper-data="{&quot;isPaintingLayer&quot;:true}" fill-rule="nonzero" stroke="#000000" stroke-width="2" stroke-linejoin="miter" stroke-miterlimit="10" stroke-dasharray="" stroke-dashoffset="0" style="mix-blend-mode: normal"><path d="M281.13325,176.07095c0,0 -1.47403,2.6847 -2.8652,4.17323c-1.1021,1.17924 -4.81845,4.04819 -4.81845,4.04819" fill="url(#color-1)" stroke-linecap="round"/><path d="M288.18938,168.69239c1.69152,2.27502 1.21852,5.49055 -1.0565,7.18207c-2.27502,1.69152 -5.49055,1.21852 -7.18207,-1.0565c-1.69152,-2.27502 -1.21852,-5.49055 1.0565,-7.18207c2.27502,-1.69152 5.49055,-1.21852 7.18207,1.0565z" fill="url(#color-2)" stroke-linecap="butt"/><path d="M229.75129,207.4911l-3.24234,-25.35865l7.78731,-0.99568l3.24234,25.35865z" fill="url(#color-3)" stroke-linecap="butt"/><path d="M250.42458,147.24038c1.70849,1.24216 2.08653,3.63413 0.84439,5.34263c-1.24216,1.70849 -3.63413,2.08653 -5.34263,0.84439c-1.70849,-1.24216 -2.08653,-3.63413 -0.84439,-5.34263c1.24216,-1.70849 3.63413,-2.08653 5.34263,-0.84439z" fill="url(#color-4)" stroke-linecap="butt"/><path d="M207.44554,160.1974c0,-9.17193 7.43532,-16.60724 16.60724,-16.60724c9.17193,0 16.60724,7.43532 16.60724,16.60724c0,9.17193 -7.43532,16.60724 -16.60724,16.60724c-9.17193,0 -16.60724,-7.43532 -16.60724,-16.60724z" fill="url(#color-5)" stroke-linecap="butt"/><path d="M222.81413,215.01801c4.11347,0 7.4481,2.47844 7.4481,5.53575c0,3.05731 -3.33463,5.53575 -7.4481,5.53575c-4.11347,0 -7.4481,-2.47844 -7.4481,-5.53575c0,-3.05731 3.33463,-5.53575 7.4481,-5.53575z" data-paper-data="{&quot;index&quot;:null}" fill="url(#color-6)" stroke-linecap="butt"/><path d="M255.84353,213.99604c4.94301,-0.20549 6.44591,2.39302 6.58214,5.66985c0.13622,3.27683 -3.76044,6.0998 -8.70347,6.30531c-4.94301,0.20549 -8.9853,-0.47417 -9.12152,-3.75101c-0.05261,-1.26556 3.08182,-7.88486 11.24285,-8.22413z" data-paper-data="{&quot;index&quot;:null}" fill="url(#color-7)" stroke-linecap="butt"/><path d="M261.91345,178.68304c1.70849,1.24216 2.08653,3.63413 0.84439,5.34263c-1.24216,1.70849 -3.63413,2.08653 -5.34263,0.84439c-1.70849,-1.24216 -2.08653,-3.63413 -0.84439,-5.34263c1.24216,-1.70849 3.63413,-2.08653 5.34263,-0.84439z" fill="url(#color-8)" stroke-linecap="butt"/><path d="M272.98325,172.15796l-1.14128,12.84573l31.03023,14.28455l-34.83071,32.13822l-12.12472,-31.36706l-12.86623,0.21906z" data-paper-data="{&quot;index&quot;:null}" fill="url(#color-9)" stroke-linecap="butt"/></g></g></svg>