<svg version="1.1" xmlns="http://www.w3.org/2000/svg" xmlns:xlink="http://www.w3.org/1999/xlink" width="140.50107" height="83.61412" viewBox="0,0,140.50107,83.61412"><defs><linearGradient x1="219.43699" y1="205.82855" x2="264.21573" y2="178.29367" gradientUnits="userSpaceOnUse" id="color-1"><stop offset="0" stop-color="#e80000" stop-opacity="0"/><stop offset="1" stop-color="#e80000"/></linearGradient></defs><g transform="translate(-176.13112,-146.04257)"><g data-paper-data="{&quot;isPaintingLayer&quot;:true}" fill-rule="nonzero" stroke="#000000" stroke-linejoin="miter" stroke-miterlimit="10" stroke-dasharray="" stroke-dashoffset="0" style="mix-blend-mode: normal"><path d="M230.75758,203.91762l14.14521,-21.29523l6.53948,4.34381l-14.14521,21.29523z" fill="#e80000" stroke-width="2" stroke-linecap="butt"/><path d="M249.86547,152.98318c0,0 3.05727,0.18278 4.99808,0.80276c1.53753,0.49116 5.72128,2.62148 5.72128,2.62148" fill="none" stroke-width="2" stroke-linecap="round"/><path d="M240.17648,149.76524c1.33184,-2.50264 4.44029,-3.45177 6.94293,-2.11994c2.50264,1.33184 3.45177,4.44029 2.11994,6.94293c-1.33184,2.50264 -4.44029,3.45177 -6.94293,2.11994c-2.50264,-1.33184 -3.45177,-4.44029 -2.11994,-6.94293z" fill="#e80000" stroke-width="2" stroke-linecap="butt"/><path d="M248.86151,164.75081c1.86332,-8.98066 10.65411,-14.7504 19.63477,-12.88708c8.98066,1.86332 14.7504,10.65411 12.88708,19.63477c-1.86332,8.98066 -10.65411,14.7504 -19.63477,12.88708c-8.98066,-1.86332 -14.7504,-10.65411 -12.88708,-19.63477z" fill="#e80000" stroke-width="2" stroke-linecap="butt"/><path d="M230.32948,206.55396c0,-2.11232 1.71238,-3.8247 3.8247,-3.8247c2.11232,0 3.8247,1.71238 3.8247,3.8247c0,2.11232 -1.71238,3.8247 -3.8247,3.8247c-2.11232,0 -3.8247,-1.71238 -3.8247,-3.8247z" fill="#e80000" stroke-width="2" stroke-linecap="butt"/><path d="M257.9999,214.00641c4.94656,-0.08454 6.38546,2.54994 6.4415,5.82912c0.05605,3.27918 -3.90849,6.00602 -8.85505,6.09057c-4.94656,0.08454 -8.97102,-0.69378 -9.02707,-3.97296c-0.02165,-1.26647 3.27373,-7.80714 11.44062,-7.94672z" data-paper-data="{&quot;index&quot;:null}" fill="#e80000" stroke-width="2" stroke-linecap="butt"/><path d="M248.10826,163.08604l-0.26483,-5.59374l33.36263,-1.57949l0.26483,5.59373z" fill="#ff2121" stroke-width="2" stroke-linecap="butt"/><path d="M209.53165,222.77265c-0.39211,4.93172 -3.15289,6.11028 -6.42223,5.85035c-3.26934,-0.25993 -5.6018,-4.4686 -5.2097,-9.40032c0.39211,-4.93172 1.5543,-8.86254 4.82364,-8.60261c1.26268,0.10039 7.45567,4.0102 6.80829,12.15258z" data-paper-data="{&quot;index&quot;:null}" fill="#e80000" stroke-width="2" stroke-linecap="butt"/><path d="M289.95825,198.37541c-2.44467,0.60056 -5.01417,-0.55431 -5.73914,-2.57945c-0.72497,-2.02515 0.66913,-4.15371 3.1138,-4.75427c2.44467,-0.60056 5.01417,0.55431 5.73914,2.57945c0.72497,2.02515 -0.66913,4.15371 -3.1138,4.75427z" fill="#e80000" stroke-width="2" stroke-linecap="butt"/><path d="M281.44349,186.07416c16.98699,0.02527 37.74735,-3.49357 34.93006,9.80129c-2.81729,13.29487 -23.36063,10.52063 -39.19548,10.32736c-6.3602,-0.07765 -29.51742,1.3681 -54.61254,-0.62657c-37.38355,-2.97136 -46.43441,-23.25411 -46.43441,-23.25411c0,0 28.92197,11.33551 64.40224,8.78129c31.79003,-2.28857 23.92318,-5.05448 40.91016,-5.02923z" data-paper-data="{&quot;index&quot;:null}" fill="url(#color-1)" stroke-width="0" stroke-linecap="butt"/></g></g></svg>