<svg version="1.1" xmlns="http://www.w3.org/2000/svg" xmlns:xlink="http://www.w3.org/1999/xlink" width="68.67531" height="98.57962" viewBox="0,0,68.67531,98.57962"><g transform="translate(-215.78793,-128.17815)"><g data-paper-data="{&quot;isPaintingLayer&quot;:true}" fill-rule="nonzero" stroke="#000000" stroke-width="2" stroke-linejoin="miter" stroke-miterlimit="10" stroke-dasharray="" stroke-dashoffset="0" style="mix-blend-mode: normal"><path d="M247.56424,210.20897c0.90786,3.1515 -2.71154,5.07558 -7.4655,6.44505c-4.75397,1.36948 -9.34377,-0.07515 -10.25163,-3.22665c-0.90786,-3.1515 -0.30461,-6.09209 4.44936,-7.46157c7.8489,-2.26103 12.91714,3.02599 13.26777,4.24316z" data-paper-data="{&quot;index&quot;:null}" fill="#1d28e8" stroke-linecap="butt"/><path d="M220.91994,172.4907c1.2701,-9.08356 9.66341,-15.41762 18.74696,-14.14752c9.08356,1.2701 15.41763,9.66341 14.14753,18.74696c-1.2701,9.08356 -9.66341,15.41762 -18.74696,14.14752c-9.08356,-1.2701 -15.41763,-9.66341 -14.14753,-18.74696z" fill="#1d28e8" stroke-linecap="butt"/><path d="M253.7755,210.38202l-3.22571,-25.36077l7.78795,-0.99058l3.22572,25.36077z" fill="#1d28e8" stroke-linecap="butt"/><path d="M216.78793,195.76367c0,-2.11232 1.71238,-3.8247 3.8247,-3.8247c2.11232,0 3.8247,1.71238 3.8247,3.8247c0,2.11232 -1.71238,3.8247 -3.8247,3.8247c-2.11232,0 -3.8247,-1.71238 -3.8247,-3.8247z" fill="#1d28e8" stroke-linecap="butt"/><path d="M263.98838,220.22202c0,3.05731 -3.33463,5.53575 -7.4481,5.53575c-4.11347,0 -7.4481,-2.47844 -7.4481,-5.53575c0,-3.05731 3.33463,-5.53575 7.4481,-5.53575c4.11347,0 7.4481,2.47844 7.4481,5.53575z" data-paper-data="{&quot;index&quot;:null}" fill="#1d28e8" stroke-linecap="butt"/><path d="M247.45509,145.16785l21.06828,-9.33563l14.51275,38.39983l-28.48649,1.06293l4.69514,20.27354z" data-paper-data="{&quot;index&quot;:null}" fill="#2530ff" stroke-linecap="round"/><path d="M258.3784,190.29657c2.10893,-0.11967 3.91557,1.49295 4.03524,3.60188c0.11967,2.10893 -1.49295,3.91557 -3.60188,4.03524c-2.10893,0.11967 -3.91557,-1.49295 -4.03524,-3.60188c-0.11967,-2.10893 1.49295,-3.91557 3.60188,-4.03524z" data-paper-data="{&quot;index&quot;:null}" fill="#1d28e8" stroke-linecap="butt"/><path d="M239.15213,137.42195c0,0 2.62243,1.58215 4.05307,3.03279c1.13337,1.14923 3.84859,4.97932 3.84859,4.97932" fill="none" stroke-linecap="round"/><path d="M232.06708,130.07118c2.34204,-1.59747 5.53562,-0.9939 7.13309,1.34813c1.59747,2.34204 0.9939,5.53562 -1.34813,7.13309c-2.34204,1.59747 -5.53562,0.9939 -7.13309,-1.34813c-1.59747,-2.34204 -0.9939,-5.53562 1.34813,-7.13309z" fill="#1d28e8" stroke-linecap="butt"/></g></g></svg>