<svg version="1.1" xmlns="http://www.w3.org/2000/svg" xmlns:xlink="http://www.w3.org/1999/xlink" width="81.30773" height="99.27056" viewBox="0,0,81.30773,99.27056"><g transform="translate(-196.10048,-133.19057)"><g data-paper-data="{&quot;isPaintingLayer&quot;:true}" fill-rule="nonzero" stroke="#000000" stroke-width="2" stroke-linejoin="miter" stroke-miterlimit="10" stroke-dasharray="" stroke-dashoffset="0" style="mix-blend-mode: normal"><path d="M239.29599,211.4185c0.72212,-1.98506 2.91672,-3.00887 4.90178,-2.28676c1.98506,0.72212 3.00887,2.91672 2.28676,4.90178c-0.72212,1.98506 -2.91672,3.00887 -4.90178,2.28676c-1.98506,-0.72212 -3.00887,-2.91672 -2.28676,-4.90178z" fill="#181818" stroke-linecap="butt"/><path d="M229.9047,140.69057c0,0 3.02867,0.45555 4.90624,1.24665c1.48743,0.62673 5.46384,3.12278 5.46384,3.12278" fill="#181818" stroke-linecap="round"/><path d="M220.18251,136.51712c1.55038,-2.37346 4.73128,-3.04073 7.10474,-1.49034c2.37346,1.55038 3.04073,4.73128 1.49034,7.10474c-1.55038,2.37346 -4.73128,3.04073 -7.10474,1.49034c-2.37346,-1.55038 -3.04073,-4.73128 -1.49034,-7.10474z" fill="#181818" stroke-linecap="butt"/><path d="M234.26237,156.64396c3.13551,-8.61933 12.66469,-13.06484 21.28401,-9.92933c8.61933,3.13551 13.06484,12.66469 9.92933,21.28401c-3.13551,8.61933 -12.66469,13.06484 -21.28401,9.92933c-8.61933,-3.13551 -13.06484,-12.66469 -9.92933,-21.28401z" fill="#181818" stroke-linecap="butt"/><path d="M217.75962,197.90551l13.98581,-21.40025l6.57173,4.29486l-13.98581,21.40025z" fill="#181818" stroke-linecap="butt"/><path d="M208.24345,212.50261c-1.5015,4.71392 -4.45777,5.23494 -7.58273,4.23956c-3.12497,-0.99538 -4.44103,-5.62369 -2.93952,-10.33761c1.5015,-4.71392 3.52576,-8.27826 6.65072,-7.28289c1.20691,0.38443 6.35056,5.59813 3.87154,13.38093z" data-paper-data="{&quot;index&quot;:null}" fill="#181818" stroke-linecap="butt"/><path d="M238.69325,163.21398l1.81359,-4.92315l20.78413,7.96396l-1.81359,4.92315z" fill="#ff0000" stroke-linecap="butt"/><path d="M230.26959,175.12541l11.90817,8.14315l-5.44872,1.48941l1.13676,5.79325l-14.92933,-8.31388l6.41469,-1.94032z" fill="#0e0e0e" stroke-linecap="round"/><g><path d="M238.45679,150.63504l4.12382,-11.33613l27.84746,10.13025l-4.12382,11.33613z" fill="#343434" stroke-linecap="butt"/><path d="M228.35285,146.95947l48.05536,17.48141" fill="none" stroke-linecap="round"/></g><path d="M210.79059,172.70225c0.72212,-1.98506 2.91672,-3.00887 4.90178,-2.28676c1.98506,0.72212 3.00887,2.91672 2.28676,4.90178c-0.72212,1.98506 -2.91672,3.00887 -4.90178,2.28676c-1.98506,-0.72212 -3.00887,-2.91672 -2.28676,-4.90178z" fill="#181818" stroke-linecap="butt"/><path d="M255.22613,221.50038c3.51157,3.48488 2.628,6.35373 0.31779,8.68163c-2.31021,2.3279 -7.02969,1.38997 -10.54127,-2.09492c-3.51157,-3.48488 -5.76164,-6.91114 -3.45144,-9.23904c0.89223,-0.89908 7.87722,-3.10131 13.67492,2.65233z" data-paper-data="{&quot;index&quot;:null}" fill="#181818" stroke-linecap="butt"/></g></g></svg>