<svg version="1.1" xmlns="http://www.w3.org/2000/svg" xmlns:xlink="http://www.w3.org/1999/xlink" width="61.11808" height="87.74212" viewBox="0,0,61.11808,87.74212"><g transform="translate(-217.30256,-139.79072)"><g data-paper-data="{&quot;isPaintingLayer&quot;:true}" fill-rule="nonzero" stroke="#000000" stroke-width="2" stroke-linejoin="miter" stroke-miterlimit="10" stroke-dasharray="" stroke-dashoffset="0" style="mix-blend-mode: normal"><path d="M235.85384,209.84081c0.52326,-2.04649 2.60646,-3.2813 4.65295,-2.75804c2.04649,0.52326 3.2813,2.60646 2.75804,4.65295c-0.52326,2.04649 -2.60646,3.2813 -4.65295,2.75804c-2.04649,-0.52326 -3.2813,-2.60646 -2.75804,-4.65295z" fill="#ffe819" stroke-linecap="butt"/><path d="M247.54869,172.47169c-5.51935,-7.32537 -4.05527,-17.73807 3.27009,-23.25741c7.32537,-5.51935 17.73807,-4.05527 23.25741,3.27009c5.51935,7.32537 4.05527,17.73807 -3.27009,23.25741c-7.32537,5.51935 -17.73807,4.05527 -23.25741,-3.27009z" fill="#ffe819" stroke-linecap="butt"/><path d="M240.0463,204.56161l7.17024,-24.53897l7.53559,2.20189l-7.17024,24.53897z" fill="#ffe819" stroke-linecap="butt"/><path d="M222.39274,203.67136c0.52326,-2.04649 2.60646,-3.2813 4.65295,-2.75804c2.04649,0.52326 3.2813,2.60646 2.75804,4.65295c-0.52326,2.04649 -2.60646,3.2813 -4.65295,2.75804c-2.04649,-0.52326 -3.2813,-2.60646 -2.75804,-4.65295z" fill="#ffe819" stroke-linecap="butt"/><path d="M232.60674,177.21681c0,0 0.34105,-3.04369 1.06083,-4.94974c0.57022,-1.50999 2.9146,-5.57767 2.9146,-5.57767" fill="none" stroke-linecap="round"/><path d="M228.89074,186.72592c-2.43021,-1.45981 -3.2169,-4.61329 -1.7571,-7.04352c1.45981,-2.43021 4.61329,-3.2169 7.04352,-1.7571c2.43021,1.45981 3.2169,4.61329 1.7571,7.04352c-1.45981,2.43021 -4.61329,3.2169 -7.04352,1.7571z" fill="#ffe819" stroke-linecap="butt"/><path d="M258.54892,213.65488c4.94043,0.26016 6.19236,2.98846 6.01989,6.26359c-0.17247,3.27512 -4.31729,5.71923 -9.25774,5.45906c-4.94043,-0.26016 -8.90091,-1.31689 -8.72845,-4.59201c0.06661,-1.26491 3.80951,-7.56018 11.96629,-7.13064z" data-paper-data="{&quot;index&quot;:null}" fill="#ffe819" stroke-linecap="butt"/><path d="M243.90321,175.15944l-2.29901,-11.18753l-10.1752,5.68666c0,0 3.73976,-17.59169 11.78364,-24.52208c8.04388,-6.93039 20.73329,-3.49365 20.73329,-3.49365z" data-paper-data="{&quot;index&quot;:null}" fill="#fff067" stroke-linecap="butt"/><path d="M232.49951,215.75199c4.41198,2.2383 4.45198,5.23986 2.96815,8.16466c-1.48382,2.9248 -6.26331,3.48132 -10.6753,1.243c-4.41198,-2.2383 -7.60539,-4.80816 -6.12158,-7.73296c0.57308,-1.12961 6.54443,-5.37021 13.82872,-1.67471z" data-paper-data="{&quot;index&quot;:null}" fill="#ffe819" stroke-linecap="butt"/></g></g></svg>