<svg version="1.1" xmlns="http://www.w3.org/2000/svg" xmlns:xlink="http://www.w3.org/1999/xlink" width="158.69986" height="116.09373" viewBox="0,0,158.69986,116.09373"><g transform="translate(-186.13118,-111.48354)"><g data-paper-data="{&quot;isPaintingLayer&quot;:true}" fill-rule="nonzero" stroke-linejoin="miter" stroke-miterlimit="10" stroke-dasharray="" stroke-dashoffset="0" style="mix-blend-mode: normal"><path d="M230.72602,210.68547l-14.69055,-20.92275l6.4251,-4.51127l14.69055,20.92275z" fill="#2d6a2b" stroke="#000000" stroke-width="2" stroke-linecap="butt"/><path d="M278.85885,167.81735c-1.84716,1.02463 -4.17523,0.35784 -5.19986,-1.48934c-1.02463,-1.84716 -0.35784,-4.17523 1.48934,-5.19986c1.84716,-1.02463 4.17523,-0.35784 5.19986,1.48934c1.02463,1.84716 0.35784,4.17523 -1.48934,5.19986z" data-paper-data="{&quot;index&quot;:null}" fill="#2d6a2b" stroke="#000000" stroke-width="2" stroke-linecap="butt"/><path d="M202.49874,203.52074c0,-2.11232 1.71238,-3.8247 3.8247,-3.8247c2.11232,0 3.8247,1.71238 3.8247,3.8247c0,2.11232 -1.71238,3.8247 -3.8247,3.8247c-2.11232,0 -3.8247,-1.71238 -3.8247,-3.8247z" fill="#2d6a2b" stroke="#000000" stroke-width="2" stroke-linecap="butt"/><path d="M261.79342,205.96728c2.21661,-4.42292 5.21793,-4.47766 8.14998,-3.00822c2.93205,1.46944 3.51203,6.24615 1.29542,10.66907c-2.21661,4.42292 -4.77075,7.62892 -7.7028,6.15948c-1.13241,-0.56752 -5.40228,-6.51798 -1.7426,-13.82033z" data-paper-data="{&quot;index&quot;:null}" fill="#2d6a2b" stroke="#000000" stroke-width="2" stroke-linecap="butt"/><path d="M204.83723,170.00159c0,-9.17193 7.43532,-16.60724 16.60724,-16.60724c9.17193,0 16.60724,7.43532 16.60724,16.60724c0,9.17193 -7.43532,16.60724 -16.60724,16.60724c-9.17193,0 -16.60724,-7.43532 -16.60724,-16.60724z" fill="#2d6a2b" stroke="#000000" stroke-width="2" stroke-linecap="butt"/><path d="M213.76971,151.62028c14.84222,-5.55435 25.0872,3.06696 25.0872,3.06696l-37.64308,16.22019c0,0 -3.40193,-13.31531 12.55588,-19.28715z" fill="#367e33" stroke="#000000" stroke-width="2" stroke-linecap="round"/><g data-paper-data="{&quot;index&quot;:null}" stroke="#61ff00" stroke-width="3" stroke-linecap="round"><path d="M343.33104,112.98354c0,0 -16.24692,14.59953 -26.06177,22.24925c-10.94576,8.53117 -36.59073,26.58241 -36.59073,26.58241" fill="none"/><path d="M303.05203,127.54388c0,0 4.58957,-2.58153 6.51573,1.69963c1.92614,4.28118 -6.52555,15.44376 -6.52555,15.44376z" fill="#61ff00"/><path d="M320.34159,135.91899c0,0 9.82919,-10.28815 15.13826,-9.97648c5.30906,0.31167 3.82077,4.86188 3.82077,4.86188z" data-paper-data="{&quot;index&quot;:null}" fill="#61ff00"/><path d="M290.22577,156.98892c0,0 8.2331,-8.72785 12.72076,-8.49541c4.48766,0.23246 3.2618,4.07629 3.2618,4.07629z" data-paper-data="{&quot;index&quot;:null}" fill="#61ff00"/></g><path d="M197.19617,160.43952c0,0 2.78477,-1.27492 4.78933,-1.63939c1.58804,-0.28873 6.28217,-0.37361 6.28217,-0.37361" fill="none" stroke="#000000" stroke-width="2" stroke-linecap="round"/><path d="M187.13118,162.15057c0,-2.83496 2.29819,-5.13315 5.13315,-5.13315c2.83496,0 5.13315,2.29819 5.13315,5.13315c0,2.83496 -2.29819,5.13315 -5.13315,5.13315c-2.83496,0 -5.13315,-2.29819 -5.13315,-5.13315z" fill="#2d6a2b" stroke="#000000" stroke-width="2" stroke-linecap="butt"/><path d="M228.49393,215.65966c4.53854,1.96907 4.75888,4.9628 3.45354,7.97149c-1.30534,3.0087 -6.04274,3.85147 -10.58129,1.88241c-4.53854,-1.96907 -7.88065,-4.34234 -6.57531,-7.35103c0.50415,-1.16201 6.20982,-5.75385 13.70306,-2.50287z" data-paper-data="{&quot;index&quot;:null}" fill="#2d6a2b" stroke="#000000" stroke-width="2" stroke-linecap="butt"/></g></g></svg>