<svg version="1.1" xmlns="http://www.w3.org/2000/svg" xmlns:xlink="http://www.w3.org/1999/xlink" width="79.39043" height="109.87776" viewBox="0,0,79.39043,109.87776"><defs><radialGradient cx="221.00943" cy="184.97787" r="19.76471" gradientUnits="userSpaceOnUse" id="color-1"><stop offset="0" stop-color="#e82d00" stop-opacity="0"/><stop offset="1" stop-color="#e82d00"/></radialGradient><radialGradient cx="220.90355" cy="185.36611" r="19.76471" gradientUnits="userSpaceOnUse" id="color-2"><stop offset="0" stop-color="#e82d00" stop-opacity="0"/><stop offset="1" stop-color="#e82d00"/></radialGradient><radialGradient cx="220.79767" cy="184.93081" r="19.76471" gradientUnits="userSpaceOnUse" id="color-3"><stop offset="0" stop-color="#e82d00"/><stop offset="1" stop-color="#e82d00" stop-opacity="0"/></radialGradient><linearGradient x1="221.34465" y1="114.74124" x2="221.34465" y2="205.92507" gradientUnits="userSpaceOnUse" id="color-4"><stop offset="0" stop-color="#e82d00" stop-opacity="0"/><stop offset="1" stop-color="#e82d00"/></linearGradient></defs><g transform="translate(-195.73325,-114.74124)"><g data-paper-data="{&quot;isPaintingLayer&quot;:true}" fill-rule="nonzero" stroke-linejoin="miter" stroke-miterlimit="10" stroke-dasharray="" stroke-dashoffset="0" style="mix-blend-mode: normal"><path d="M231.81675,202.31337c0,0 0.09768,-8.04583 1.19916,-11.96871c1.19462,-4.25458 5.71184,-12.64454 5.71184,-12.64454l7.72311,4.09875c0,0 -4.68889,6.01639 -5.85607,10.17325c-1.13562,4.04448 -1.21964,10.98118 -1.21964,10.98118z" fill="#e80000" stroke="#000000" stroke-width="2" stroke-linecap="butt"/><path d="M266.78554,212.81624c4.43311,2.19616 4.50171,5.1972 3.04582,8.13601c-1.45588,2.9388 -6.22985,3.54083 -10.66297,1.34467c-4.43311,-2.19616 -7.65087,-4.73547 -6.19498,-7.67427c0.56229,-1.13502 6.49296,-5.43232 13.81213,-1.8064z" data-paper-data="{&quot;index&quot;:null}" fill="#e80000" stroke="#000000" stroke-width="2" stroke-linecap="butt"/><path d="M259.61537,202.00274c4.9471,0.04198 6.31817,2.7124 6.29034,5.99194c-0.02783,3.27955 -4.0608,5.90411 -9.00792,5.86212c-4.9471,-0.04198 -8.95034,-0.92297 -8.92251,-4.20251c0.01075,-1.26662 3.47231,-7.72086 11.64009,-7.65155z" data-paper-data="{&quot;index&quot;:null}" fill="#e80000" stroke="#000000" stroke-width="2" stroke-linecap="butt"/><path d="M214.00553,182.61391c0.82416,-1.9449 3.06895,-2.85344 5.01385,-2.02927c1.9449,0.82416 2.85344,3.06895 2.02927,5.01385c-0.82416,1.9449 -3.06895,2.85344 -5.01385,2.02927c-1.9449,-0.82416 -2.85344,-3.06895 -2.02927,-5.01385z" fill="#e80000" stroke="#000000" stroke-width="2" stroke-linecap="butt"/><path d="M222.84658,186.74223c0.98391,-1.86917 3.2968,-2.58682 5.16598,-1.60291c1.86917,0.98391 2.58682,3.2968 1.60291,5.16598c-0.98391,1.86917 -3.2968,2.58682 -5.16598,1.60291c-1.86917,-0.98391 -2.58682,-3.2968 -1.60291,-5.16598z" fill="#e80000" stroke="#000000" stroke-width="2" stroke-linecap="butt"/><path d="M231.90228,169.7074c0,0 2.10697,-2.22284 3.83029,-3.3097c1.36524,-0.86102 5.68789,-2.69317 5.68789,-2.69317" fill="none" stroke="#000000" stroke-width="2" stroke-linecap="round"/><path d="M223.20496,175.05422c-1.05895,-2.62976 0.21443,-5.62005 2.84419,-6.679c2.62976,-1.05895 5.62005,0.21443 6.679,2.84419c1.05895,2.62976 -0.21443,5.62005 -2.84419,6.679c-2.62976,1.05895 -5.62005,-0.21443 -6.679,-2.84419z" fill="#e80000" stroke="#000000" stroke-width="2" stroke-linecap="butt"/><path d="M240.83906,169.30712c0,-9.17193 7.43532,-16.60724 16.60724,-16.60724c9.17193,0 16.60724,7.43532 16.60724,16.60724c0,9.17193 -7.43532,16.60724 -16.60724,16.60724c-9.17193,0 -16.60724,-7.43532 -16.60724,-16.60724z" fill="#e80000" stroke="#000000" stroke-width="2" stroke-linecap="butt"/><path d="M240.71421,165.43742l-0.06673,-5.59961l33.39762,-0.39799l0.06673,5.5996z" fill="#ff2121" stroke="#000000" stroke-width="2" stroke-linecap="butt"/><path d="M201.24472,184.97787c0,-10.91574 8.84896,-19.76471 19.76471,-19.76471c10.91574,0 19.76471,8.84896 19.76471,19.76471c0,10.91574 -8.84896,19.76471 -19.76471,19.76471c-10.91574,0 -19.76471,-8.84896 -19.76471,-19.76471z" fill="url(#color-1)" stroke="none" stroke-width="0" stroke-linecap="butt"/><path d="M201.13884,185.36611c0,-10.91574 8.84896,-19.76471 19.76471,-19.76471c10.91574,0 19.76471,8.84896 19.76471,19.76471c0,10.91574 -8.84896,19.76471 -19.76471,19.76471c-10.91574,0 -19.76471,-8.84896 -19.76471,-19.76471z" fill="url(#color-2)" stroke="none" stroke-width="0" stroke-linecap="butt"/><path d="M201.03296,184.93081c0,-10.91574 8.84896,-19.76471 19.76471,-19.76471c10.91574,0 19.76471,8.84896 19.76471,19.76471c0,10.91574 -8.84896,19.76471 -19.76471,19.76471c-10.91574,0 -19.76471,-8.84896 -19.76471,-19.76471z" fill="url(#color-3)" stroke="none" stroke-width="0" stroke-linecap="butt"/><path d="M235.52435,200.05423c-13.24035,11.25225 -24.6324,4.81111 -32.99304,-6.54972c-8.36069,-11.36087 -7.94985,-27.05317 -4.41393,-44.28079c5.26738,-25.66356 48.83868,-34.48248 48.83868,-34.48248c0,0 -23.61251,21.05829 -16.9924,44.69953c5.93152,21.18237 18.80113,29.36123 5.56074,40.61348z" data-paper-data="{&quot;index&quot;:null}" fill="url(#color-4)" stroke="#000000" stroke-width="0" stroke-linecap="butt"/></g></g></svg>