<svg version="1.1" xmlns="http://www.w3.org/2000/svg" xmlns:xlink="http://www.w3.org/1999/xlink" width="142.58089" height="119.93105" viewBox="0,0,142.58089,119.93105"><g transform="translate(-174.26181,-112.36629)"><g data-paper-data="{&quot;isPaintingLayer&quot;:true}" fill-rule="nonzero" stroke-linejoin="miter" stroke-miterlimit="10" stroke-dasharray="" stroke-dashoffset="0" style="mix-blend-mode: normal"><path d="M240.87844,207.58052l-17.42254,-42.2927l-5.42788,13.52038l-27.60352,-65.28958l30.58036,37.63802l2.13279,-11.34608l25.42768,34.01468l5.79005,-15.30623l17.73901,30.12996l5.79583,-12.5961l38.95248,35.67868l-26.45702,20.56578l-17.17277,-26.91712l-9.88469,16.92965l-12.63212,-31.27918l-9.81761,16.54979" data-paper-data="{&quot;index&quot;:null}" fill="#fff200" stroke="none" stroke-width="0.66342" stroke-linecap="butt"/><path d="M250.22602,206.42815l-9.81761,-16.54979l-12.63212,31.27918l-9.88469,-16.92961l-17.17277,26.91712l-26.45702,-20.56578l38.95248,-35.67868l5.79578,12.5961l17.73906,-30.13l5.79005,15.30623l25.42768,-34.01468l2.13279,11.34608l30.58036,-37.63802l-27.60352,65.28958l-5.42788,-13.52038l-17.42254,42.2927" data-paper-data="{&quot;index&quot;:null}" fill="#fff200" stroke="none" stroke-width="0.66342" stroke-linecap="butt"/><path d="M225.29725,164.19092c-1.36203,1.61457 -3.77502,1.81926 -5.38957,0.45725c-1.61457,-1.36203 -1.81926,-3.77502 -0.45725,-5.38957c1.36203,-1.61457 3.77502,-1.81926 5.38957,-0.45725c1.61457,1.36203 1.81926,3.77502 0.45725,5.38957z" fill="#ffe819" stroke="#000000" stroke-width="2" stroke-linecap="butt"/><path d="M242.29533,206.07788c-7.96525,4.54742 -18.10877,1.7767 -22.65619,-6.18853c-4.54742,-7.96525 -1.7767,-18.10877 6.18853,-22.65619c7.96525,-4.54742 18.10877,-1.7767 22.65619,6.18853c4.54742,7.96525 1.77671,18.10877 -6.18853,22.65619z" fill="#ffe819" stroke="#000000" stroke-width="2" stroke-linecap="butt"/><path d="M270.42377,158.38558l-2.24312,25.46649l-7.82042,-0.68884l2.24312,-25.46649z" fill="#ffe819" stroke="#000000" stroke-width="2" stroke-linecap="butt"/><path d="M245.11038,221.50037c0,0 -2.97601,-0.72368 -4.77558,-1.679c-1.42564,-0.75682 -5.16374,-3.59738 -5.16374,-3.59738" fill="none" stroke="#000000" stroke-width="2" stroke-linecap="round"/><path d="M254.07245,226.3905c-1.75578,2.22582 -4.98348,2.60689 -7.20929,0.85113c-2.22582,-1.75578 -2.60689,-4.98348 -0.85113,-7.20931c1.75578,-2.22582 4.98348,-2.60689 7.20931,-0.85113c2.22582,1.75578 2.60689,4.98348 0.85113,7.20931z" fill="#ffe819" stroke="#000000" stroke-width="2" stroke-linecap="butt"/><path d="M230.63307,159.03263c-4.87371,-0.85005 -5.78984,-3.70865 -5.22632,-6.93955c0.56351,-3.23089 4.97124,-5.16094 9.84496,-4.31089c4.87371,0.85005 8.6791,2.37355 8.11559,5.60442c-0.21765,1.24783 -4.68763,7.04947 -12.73423,5.64601z" data-paper-data="{&quot;index&quot;:null}" fill="#ffe819" stroke="#000000" stroke-width="2" stroke-linecap="butt"/><path d="M244.49988,210.03435l-11.38858,0.86397l4.35255,10.81334c0,0 -16.9766,-5.93707 -22.83273,-14.7937c-5.85612,-8.85664 -0.84036,-21.00879 -0.84036,-21.00879z" data-paper-data="{&quot;index&quot;:null}" fill="#fff067" stroke="#000000" stroke-width="2" stroke-linecap="butt"/><path d="M243.10475,144.51666c-3.99835,-2.91356 -3.55893,-5.88305 -1.62747,-8.53364c1.93146,-2.65059 6.73852,-2.43741 10.73687,0.47616c3.99835,2.91356 6.74083,5.96001 4.80938,8.6106c-0.74598,1.0237 -7.31741,4.25725 -13.91877,-0.55311z" data-paper-data="{&quot;index&quot;:null}" fill="#ffe819" stroke="#000000" stroke-width="2" stroke-linecap="butt"/><path d="M230.21617,153.96256c-1.36203,1.61457 -3.77502,1.81926 -5.38957,0.45725c-1.61457,-1.36203 -1.81926,-3.77502 -0.45725,-5.38957c1.36203,-1.61457 3.77502,-1.81926 5.38957,-0.45725c1.61457,1.36203 1.81926,3.77502 0.45725,5.38957z" fill="#ffe819" stroke="#000000" stroke-width="2" stroke-linecap="butt"/></g></g></svg>