<svg version="1.1" xmlns="http://www.w3.org/2000/svg" xmlns:xlink="http://www.w3.org/1999/xlink" width="79.3951" height="86.11154" viewBox="0,0,79.3951,86.11154"><g transform="translate(-203.47736,-139.44696)"><g data-paper-data="{&quot;isPaintingLayer&quot;:true}" fill-rule="nonzero" stroke="#000000" stroke-width="2" stroke-linejoin="miter" stroke-miterlimit="10" stroke-dasharray="" stroke-dashoffset="0" style="mix-blend-mode: normal"><path d="M252.78869,150.2438c0,0 4.0027,-2.45366 5.49669,-3.06456c1.88587,-0.77113 4.9192,-1.19445 4.9192,-1.19445" data-paper-data="{&quot;index&quot;:null}" fill="none" stroke-linecap="round"/><path d="M271.04387,149.10121c-2.3898,1.52507 -5.56344,0.82405 -7.0885,-1.56574c-1.52507,-2.3898 -0.82405,-5.56344 1.56574,-7.0885c2.3898,-1.52507 5.56344,-0.82405 7.0885,1.56574c1.52507,2.3898 0.82405,5.56344 -1.56574,7.0885z" data-paper-data="{&quot;index&quot;:null}" fill="#e80000" stroke-linecap="butt"/><path d="M261.64367,179.30545c-8.80572,2.56581 -18.02418,-2.49262 -20.59,-11.29835c-2.56581,-8.80572 2.49262,-18.02418 11.29835,-20.59c8.80572,-2.56581 18.02418,2.49262 20.59,11.29835c2.56581,8.80572 -2.49262,18.02418 -11.29835,20.59z" data-paper-data="{&quot;index&quot;:null}" fill="#e80000" stroke-linecap="butt"/><path d="M230.29998,198.19623l18.24992,-17.90292l5.49774,5.60431l-18.24992,17.90292z" fill="#e80000" stroke-linecap="butt"/><path d="M227.74759,178.93103c1.20273,-1.73648 3.58544,-2.16915 5.32191,-0.96642c1.73648,1.20273 2.16915,3.58544 0.96642,5.32191c-1.20273,1.73648 -3.58544,2.16915 -5.32191,0.96642c-1.73648,-1.20273 -2.16915,-3.58544 -0.96642,-5.32191z" fill="#e80000" stroke-linecap="butt"/><path d="M274.51389,168.94145c0.80927,-1.95115 3.04703,-2.87683 4.99818,-2.06756c1.95115,0.80927 2.87683,3.04703 2.06756,4.99818c-0.80927,1.95115 -3.04703,2.87683 -4.99818,2.06756c-1.95115,-0.80927 -2.87683,-3.04703 -2.06756,-4.99818z" fill="#e80000" stroke-linecap="butt"/><path d="M236.75531,212.9882c2.0766,2.53848 -0.49133,5.73344 -4.32057,8.86595c-3.82925,3.13249 -8.61687,3.61403 -10.69347,1.07554c-2.0766,-2.53848 -2.68131,-5.47878 1.14795,-8.61127c6.32216,-5.17182 13.06408,-2.31062 13.8661,-1.33022z" data-paper-data="{&quot;index&quot;:null}" fill="#e80000" stroke-linecap="butt"/><path d="M240.17832,158.05317l-0.17717,-5.5972l33.38328,-1.05672l0.17716,5.59721z" data-paper-data="{&quot;index&quot;:null}" fill="#ff2121" stroke-linecap="butt"/><path d="M220.23222,200.45309c-1.4246,2.95409 -5.40496,1.97492 -9.86113,-0.17407c-4.45618,-2.14898 -6.91375,-6.28584 -5.48915,-9.23993c1.4246,-2.95409 3.8348,-4.74349 8.29097,-2.59451c7.35725,3.54801 7.60952,10.86758 7.05931,12.0085z" data-paper-data="{&quot;index&quot;:null}" fill="#e80000" stroke-linecap="butt"/></g></g></svg>