<svg version="1.1" xmlns="http://www.w3.org/2000/svg" xmlns:xlink="http://www.w3.org/1999/xlink" width="53.85312" height="76.63604" viewBox="0,0,53.85312,76.63604"><g transform="translate(-208.80975,-147.84175)"><g data-paper-data="{&quot;isPaintingLayer&quot;:true}" fill-rule="nonzero" stroke="#000000" stroke-width="2" stroke-linejoin="miter" stroke-miterlimit="10" stroke-dasharray="" stroke-dashoffset="0" style="mix-blend-mode: normal"><path d="M250.07737,190.23223c0,-2.11232 1.71238,-3.8247 3.8247,-3.8247c2.11232,0 3.8247,1.71238 3.8247,3.8247c0,2.11232 -1.71238,3.8247 -3.8247,3.8247c-2.11232,0 -3.8247,-1.71238 -3.8247,-3.8247z" fill="#e80000" stroke-linecap="butt"/><path d="M218.53428,204.95669l9.84791,-23.59221l7.24485,3.02417l-9.84792,23.59221z" fill="#e80000" stroke-linecap="butt"/><path d="M219.78946,157.40817c0,0 2.72211,-1.40373 4.70744,-1.86153c1.57281,-0.36267 6.25783,-0.66693 6.25783,-0.66693" fill="none" stroke-linecap="round"/><path d="M209.81547,159.58794c-0.13255,-2.83186 2.05567,-5.23499 4.88753,-5.36754c2.83186,-0.13255 5.23499,2.05567 5.36754,4.88753c0.13255,2.83186 -2.05567,5.23499 -4.88753,5.36754c-2.83186,0.13255 -5.23499,-2.05567 -5.36754,-4.88753z" fill="#e80000" stroke-linecap="butt"/><path d="M228.35837,159.97721c3.02448,-8.65891 12.49574,-13.22653 21.15464,-10.20204c8.65891,3.02448 13.22653,12.49574 10.20204,21.15464c-3.02448,8.65891 -12.49574,13.22653 -21.15464,10.20204c-8.65891,-3.02448 -13.22653,-12.49574 -10.20204,-21.15464z" fill="#e80000" stroke-linecap="butt"/><path d="M211.18686,183.91275c0,-2.11232 1.71238,-3.8247 3.8247,-3.8247c2.11232,0 3.8247,1.71238 3.8247,3.8247c0,2.11232 -1.71238,3.8247 -3.8247,3.8247c-2.11232,0 -3.8247,-1.71238 -3.8247,-3.8247z" fill="#e80000" stroke-linecap="butt"/><path d="M246.13992,199.67566c2.94071,-3.97841 5.90714,-3.5188 8.54452,-1.56934c2.63738,1.94946 2.39148,6.75496 -0.54923,10.73338c-2.94071,3.97841 -6.00575,6.70012 -8.64313,4.75063c-1.01861,-0.75292 -4.20734,-7.34622 0.64785,-13.91469z" data-paper-data="{&quot;index&quot;:null}" fill="#e80000" stroke-linecap="butt"/><path d="M227.82984,158.22807l0.47072,-5.58019l33.28179,2.80749l-0.47071,5.58018z" fill="#ff2121" stroke-linecap="butt"/><path d="M229.73174,209.4597c4.35819,-2.34132 6.84415,-0.65876 8.39625,2.23038c1.55211,2.88913 -0.72266,7.12926 -5.08088,9.47058c-4.35819,2.34132 -8.29205,3.49319 -9.84416,0.60405c-0.59944,-1.11583 -0.6667,-8.43944 6.52877,-12.305z" data-paper-data="{&quot;index&quot;:null}" fill="#e80000" stroke-linecap="butt"/></g></g></svg>