<svg version="1.1" xmlns="http://www.w3.org/2000/svg" xmlns:xlink="http://www.w3.org/1999/xlink" width="99.30597" height="79.06997" viewBox="0,0,99.30597,79.06997"><g transform="translate(-197.15162,-148.23168)"><g data-paper-data="{&quot;isPaintingLayer&quot;:true}" fill-rule="nonzero" stroke="#000000" stroke-width="2" stroke-linejoin="miter" stroke-miterlimit="10" stroke-dasharray="" stroke-dashoffset="0" style="mix-blend-mode: normal"><path d="M260.55499,169.47805c0,-9.17193 7.43532,-16.60724 16.60724,-16.60724c9.17193,0 16.60724,7.43532 16.60724,16.60724c0,9.17193 -7.43532,16.60724 -16.60724,16.60724c-9.17193,0 -16.60724,-7.43532 -16.60724,-16.60724z" fill="#2d6a2b" stroke-linecap="butt"/><path d="M269.48747,151.09674c14.84222,-5.55435 25.0872,3.06696 25.0872,3.06696l-37.64308,16.22019c0,0 -3.40193,-13.31531 12.55588,-19.28715z" fill="#367e33" stroke-linecap="round"/><path d="M237.69547,199.26815l16.76477,-19.30069l5.92698,5.14825l-16.76477,19.30068z" fill="#2d6a2b" stroke-linecap="butt"/><path d="M221.2642,180.31707c0.96571,-1.87864 3.27151,-2.61873 5.15016,-1.65303c1.87864,0.96571 2.61873,3.27151 1.65303,5.15016c-0.96571,1.87864 -3.27151,2.61873 -5.15016,1.65303c-1.87864,-0.96571 -2.61873,-3.27151 -1.65303,-5.15016z" fill="#2d6a2b" stroke-linecap="butt"/><path d="M275.26695,191.72688c0.96571,-1.87864 3.27152,-2.61873 5.15016,-1.65303c1.87864,0.96571 2.61873,3.27151 1.65303,5.15016c-0.96571,1.87864 -3.27152,2.61873 -5.15016,1.65303c-1.87864,-0.96571 -2.61873,-3.27151 -1.65303,-5.15016z" fill="#2d6a2b" stroke-linecap="butt"/><path d="M268.60365,205.62857c4.9044,-0.64994 6.63527,1.80261 7.06614,5.05384c0.43086,3.25123 -3.19567,6.41376 -8.10007,7.06371c-4.9044,0.64994 -8.99149,0.33718 -9.42235,-2.91406c-0.16641,-1.25568 2.35899,-8.13043 10.45628,-9.2035z" data-paper-data="{&quot;index&quot;:null}" fill="#2d6a2b" stroke-linecap="butt"/><path d="M250.70155,157.68589c0,0 2.78477,-1.27492 4.78933,-1.63939c1.58804,-0.28873 6.28217,-0.37361 6.28217,-0.37361" fill="none" stroke-linecap="round"/><path d="M240.63656,159.39694c0,-2.83496 2.29819,-5.13315 5.13315,-5.13315c2.83496,0 5.13315,2.29819 5.13315,5.13315c0,2.83496 -2.29819,5.13315 -5.13315,5.13315c-2.83496,0 -5.13315,-2.29819 -5.13315,-5.13315z" fill="#2d6a2b" stroke-linecap="butt"/><path d="M210.2717,218.49087c1.45969,4.72704 -0.66944,6.84311 -3.80309,7.81077c-3.13366,0.96766 -6.8573,-2.07992 -8.31699,-6.80696c-1.45969,-4.72704 -1.83372,-8.80896 1.29993,-9.77663c1.21027,-0.37373 8.41017,0.96836 10.82016,8.77282z" data-paper-data="{&quot;index&quot;:null}" fill="#2d6a2b" stroke-linecap="butt"/></g></g></svg>