<svg version="1.1" xmlns="http://www.w3.org/2000/svg" xmlns:xlink="http://www.w3.org/1999/xlink" width="75.7255" height="98.58683" viewBox="0,0,75.7255,98.58683"><g transform="translate(-196.10146,-110.63698)"><g data-paper-data="{&quot;isPaintingLayer&quot;:true}" fill-rule="nonzero" stroke="#000000" stroke-width="2" stroke-linejoin="miter" stroke-miterlimit="10" stroke-dasharray="" stroke-dashoffset="0" style="mix-blend-mode: normal"><path d="M234.27588,133.8161c5.64549,-7.22861 16.08201,-8.51194 23.31061,-2.86646c7.22861,5.64549 8.51196,16.08201 2.86646,23.31061c-5.64549,7.22861 -16.08201,8.51194 -23.31061,2.86646c-7.22861,-5.64549 -8.51196,-16.08201 -2.86647,-23.31061z" fill="#2d6a2b" stroke-linecap="butt"/><path d="M252.62981,124.8275c15.1163,4.75816 17.88401,17.85879 17.88401,17.85879l-39.65118,-10.38653c0,0 5.51469,-12.58804 21.76717,-7.47225z" fill="#367e33" stroke-linecap="round"/><path d="M227.57063,185.04077l3.64651,-25.30369l7.77043,1.11979l-3.64651,25.30369z" fill="#2d6a2b" stroke-linecap="butt"/><path d="M212.74748,163.25777c1.71729,-1.22998 4.10651,-0.83493 5.33649,0.88237c1.22998,1.71729 0.83493,4.10651 -0.88234,5.33649c-1.71729,1.22998 -4.10651,0.83493 -5.33649,-0.88237c-1.22998,-1.71729 -0.83493,-4.10651 0.88234,-5.33649z" fill="#2d6a2b" stroke-linecap="butt"/><path d="M254.79358,177.82601c2.08404,0.34458 3.49413,2.31335 3.14956,4.39738c-0.34458,2.08401 -2.31335,3.49413 -4.39738,3.14956c-2.08404,-0.34458 -3.49413,-2.31335 -3.14954,-4.39739c0.34458,-2.08401 2.31335,-3.49413 4.39737,-3.14955z" fill="#2d6a2b" stroke-linecap="butt"/><path d="M233.76846,118.45746c0,0 2.97947,0.70927 4.78366,1.6559c1.42929,0.74991 5.18109,3.57234 5.18109,3.57234" fill="none" stroke-linecap="round"/><path d="M224.78283,113.61081c1.74497,-2.2343 4.9708,-2.63097 7.2051,-0.886c2.2343,1.74497 2.63098,4.9708 0.886,7.2051c-1.74497,2.2343 -4.9708,2.63098 -7.2051,0.886c-2.2343,-1.74497 -2.63098,-4.9708 -0.886,-7.2051z" fill="#2d6a2b" stroke-linecap="butt"/><path d="M202.1667,194.59878c-4.81615,-1.13147 -5.56483,-4.03845 -4.81474,-7.23118c0.75007,-3.19274 5.2624,-4.8637 10.07857,-3.73221c4.81615,1.13147 8.5267,2.87327 7.77662,6.066c-0.2897,1.23309 -5.08886,6.7655 -13.04046,4.8974z" data-paper-data="{&quot;index&quot;:null}" fill="#2d6a2b" stroke-linecap="butt"/><path d="M221.55808,206.55355c-3.98227,2.93549 -6.68163,1.62236 -8.62763,-1.01759c-1.94601,-2.63993 -0.29529,-7.1597 3.68698,-10.09519c3.98227,-2.93549 7.7131,-4.6334 9.65909,-1.99348c0.75158,1.01957 1.85637,8.25969 -4.71846,13.10626z" data-paper-data="{&quot;index&quot;:null}" fill="#2d6a2b" stroke-linecap="butt"/></g></g></svg>