<svg version="1.1" xmlns="http://www.w3.org/2000/svg" xmlns:xlink="http://www.w3.org/1999/xlink" width="71.24821" height="102.62335" viewBox="0,0,71.24821,102.62335"><defs><radialGradient cx="253.33335" cy="202.64583" r="7.37589" gradientUnits="userSpaceOnUse" id="color-1"><stop offset="0" stop-color="#1d28e8"/><stop offset="1" stop-color="#1d28e8" stop-opacity="0"/></radialGradient></defs><g transform="translate(-204.57834,-124.13438)"><g data-paper-data="{&quot;isPaintingLayer&quot;:true}" fill-rule="nonzero" stroke-linejoin="miter" stroke-miterlimit="10" stroke-dasharray="" stroke-dashoffset="0" style="mix-blend-mode: normal"><path d="M249.8645,202.0539c0,-2.11232 1.71238,-3.8247 3.8247,-3.8247c2.11232,0 3.8247,1.71238 3.8247,3.8247c0,2.11232 -1.71238,3.8247 -3.8247,3.8247c-2.11232,0 -3.8247,-1.71238 -3.8247,-3.8247z" fill="#1d28e8" stroke="#000000" stroke-width="2" stroke-linecap="butt"/><path d="M224.29601,158.0856c1.84932,-8.98356 10.6311,-14.767 19.61465,-12.91768c8.98356,1.84932 14.767,10.6311 12.91768,19.61465c-1.84932,8.98356 -10.6311,14.767 -19.61465,12.91768c-8.98356,-1.84932 -14.767,-10.6311 -12.91768,-19.61465z" fill="#1d28e8" stroke="#000000" stroke-width="2" stroke-linecap="butt"/><path d="M234.98298,206.63904l-3.00132,-25.3883l7.79641,-0.92166l3.00132,25.3883z" fill="#1d28e8" stroke="#000000" stroke-width="2" stroke-linecap="butt"/><path d="M225.01258,210.60568c0,-2.11232 1.71238,-3.8247 3.8247,-3.8247c2.11232,0 3.8247,1.71238 3.8247,3.8247c0,2.11232 -1.71238,3.8247 -3.8247,3.8247c-2.11232,0 -3.8247,-1.71238 -3.8247,-3.8247z" fill="#1d28e8" stroke="#000000" stroke-width="2" stroke-linecap="butt"/><path d="M229.28716,214.68624c4.11347,0 7.4481,2.47844 7.4481,5.53575c0,3.05731 -3.33463,5.53575 -7.4481,5.53575c-4.11347,0 -7.4481,-2.47844 -7.4481,-5.53575c0,-3.05731 3.33463,-5.53575 7.4481,-5.53575z" data-paper-data="{&quot;index&quot;:null}" fill="#1d28e8" stroke="#000000" stroke-width="2" stroke-linecap="butt"/><path d="M214.25311,159.70476c0,0 2.69567,-1.45386 4.67219,-1.9483c1.56583,-0.3917 6.24442,-0.78259 6.24442,-0.78259" fill="none" stroke="#000000" stroke-width="2" stroke-linecap="round"/><path d="M205.58946,162.01544c-0.18492,-2.82892 1.95846,-5.27213 4.78739,-5.45705c2.82892,-0.18492 5.27213,1.95846 5.45705,4.78739c0.18492,2.82892 -1.95846,5.27213 -4.78739,5.45705c-2.82892,0.18492 -5.27213,-1.95846 -5.45705,-4.78739z" fill="#1d28e8" stroke="#000000" stroke-width="2" stroke-linecap="butt"/><path d="M258.14381,213.82821c4.78398,1.26057 5.45422,4.18661 4.61856,7.35803c-0.83566,3.17141 -5.39128,4.72045 -10.17528,3.45988c-4.78398,-1.26057 -8.44637,-3.10151 -7.6107,-6.27291c0.32275,-1.22485 5.26894,-6.62623 13.16743,-4.54499z" data-paper-data="{&quot;index&quot;:null}" fill="#1d28e8" stroke="#000000" stroke-width="2" stroke-linecap="butt"/><path d="M224.26375,157.25699l-6.72921,-22.0396l39.86867,-9.78044l-2.37699,28.40704l20.69154,-2.2183z" fill="#2530ff" stroke="#000000" stroke-width="2" stroke-linecap="round"/><path d="M259.95274,202.64583c0,3.99586 -2.9636,7.23515 -6.61939,7.23515c-3.65579,0 -6.61939,-3.23929 -6.61939,-7.23515c0,-3.99586 2.9636,-7.23515 6.61939,-7.23515c3.65579,0 6.61939,3.23929 6.61939,7.23515z" fill="url(#color-1)" stroke="none" stroke-width="0" stroke-linecap="butt"/></g></g></svg>