<svg version="1.1" xmlns="http://www.w3.org/2000/svg" xmlns:xlink="http://www.w3.org/1999/xlink" width="61.15126" height="91.92065" viewBox="0,0,61.15126,91.92065"><g transform="translate(-211.25104,-152.41745)"><g data-paper-data="{&quot;isPaintingLayer&quot;:true}" fill-rule="nonzero" stroke="#000000" stroke-width="2" stroke-linejoin="miter" stroke-miterlimit="10" stroke-dasharray="" stroke-dashoffset="0" style="mix-blend-mode: normal"><path d="M263.69098,161.39745c4.7627,-1.33876 6.82382,0.84361 7.71132,4.0009c0.88747,3.1573 -2.25399,6.80206 -7.0167,8.14082c-4.7627,1.33876 -8.85283,1.60865 -9.74031,-1.54867c-0.34277,-1.2194 1.18237,-8.38277 9.04571,-10.59308z" data-paper-data="{&quot;index&quot;:null}" fill="#2d6a2b" stroke-linecap="butt"/><path d="M249.25287,222.96933c0.33733,9.16571 -6.81951,16.86947 -15.98522,17.20679c-9.16571,0.33733 -16.86946,-6.8195 -17.20679,-15.98521c-0.33733,-9.16571 6.81951,-16.86947 15.98521,-17.20679c9.16571,-0.33733 16.86946,6.8195 17.2068,15.98522z" data-paper-data="{&quot;index&quot;:null}" fill="#2d6a2b" stroke-linecap="butt"/><path d="M248.1917,179.1939l-9.2963,23.81496l-7.31325,-2.85476l9.2963,-23.81496z" data-paper-data="{&quot;index&quot;:null}" fill="#2d6a2b" stroke-linecap="butt"/><path d="M264.14562,185.48575c-0.88512,1.91793 -3.15746,2.75519 -5.07539,1.87007c-1.91793,-0.88512 -2.75518,-3.15746 -1.87005,-5.07539c0.88512,-1.91793 3.15745,-2.75519 5.07538,-1.87006c1.91792,0.88512 2.75519,3.15745 1.87007,5.07538z" data-paper-data="{&quot;index&quot;:null}" fill="#2d6a2b" stroke-linecap="butt"/><path d="M252.70656,155.67194c3.55574,-3.43979 6.40599,-2.4979 8.6863,-0.14072c2.28031,2.35718 1.24636,7.05656 -2.30939,10.49635c-3.55574,3.43979 -7.02717,5.61954 -9.30749,3.26236c-0.88067,-0.91038 -2.94005,-7.93881 2.93057,-13.61799z" data-paper-data="{&quot;index&quot;:null}" fill="#2d6a2b" stroke-linecap="butt"/><path d="M260.71123,222.54588c0,0 -2.03513,2.28881 -3.72297,3.42999c-1.33713,0.90406 -5.59925,2.87291 -5.59925,2.87291" data-paper-data="{&quot;index&quot;:null}" fill="none" stroke-linecap="round"/><path d="M269.23389,216.92484c1.14215,2.5947 -0.03538,5.62402 -2.63008,6.76617c-2.5947,1.14215 -5.62402,-0.03537 -6.76617,-2.63007c-1.14215,-2.5947 0.03537,-5.62402 2.63007,-6.76617c2.5947,-1.14215 5.62402,0.03537 6.76617,2.63007z" data-paper-data="{&quot;index&quot;:null}" fill="#2d6a2b" stroke-linecap="butt"/><path d="M237.8632,242.83035c-15.5202,3.20406 -25.40964,-9.80345 -25.40964,-9.80345c0,0 4.31714,-7.3217 20.71753,-11.39478c11.9638,-2.97125 20.90634,2.90589 20.90634,2.90589c0,0 0.4725,14.84745 -16.21424,18.29234z" data-paper-data="{&quot;index&quot;:null}" fill="#367e33" stroke-linecap="round"/><path d="M250.91105,178.04671c-0.88512,1.91793 -3.15746,2.75518 -5.07538,1.87007c-1.91793,-0.88512 -2.75519,-3.15745 -1.87005,-5.07539c0.88512,-1.91793 3.15745,-2.75519 5.07538,-1.87007c1.91793,0.88512 2.75519,3.15746 1.87006,5.07539z" data-paper-data="{&quot;index&quot;:null}" fill="#2d6a2b" stroke-linecap="butt"/></g></g></svg>