<svg version="1.1" xmlns="http://www.w3.org/2000/svg" xmlns:xlink="http://www.w3.org/1999/xlink" width="98.20645" height="130.05761" viewBox="0,0,98.20645,130.05761"><g transform="translate(-206.44554,-103.10097)"><g data-paper-data="{&quot;isPaintingLayer&quot;:true}" fill-rule="nonzero" stroke="#000000" stroke-linejoin="miter" stroke-miterlimit="10" stroke-dasharray="" stroke-dashoffset="0" style="mix-blend-mode: normal"><path d="M281.13325,176.07095c0,0 -1.47403,2.6847 -2.8652,4.17323c-1.1021,1.17924 -4.81845,4.04819 -4.81845,4.04819" fill="none" stroke-width="2" stroke-linecap="round"/><path d="M288.18938,168.69239c1.69152,2.27502 1.21852,5.49055 -1.0565,7.18207c-2.27502,1.69152 -5.49055,1.21852 -7.18207,-1.0565c-1.69152,-2.27502 -1.21852,-5.49055 1.0565,-7.18207c2.27502,-1.69152 5.49055,-1.21852 7.18207,1.0565z" fill="#ff6b00" stroke-width="2" stroke-linecap="butt"/><path d="M251.23976,167.90391l-2.27575,-17.79888l5.4658,-0.69885l2.27575,17.79888z" fill="#ffffff" stroke-width="2" stroke-linecap="butt"/><g><path d="M262.71579,138.21765c0,0 -0.19542,-15.69252 4.16901,-24.24314c4.36443,-8.55062 8.46549,-5.06034 8.44809,-0.47576c-0.0174,4.58459 -8.53606,23.65864 -8.53606,23.65864z" fill="#ffffff" stroke-width="2" stroke-linecap="round"/><path d="M270.22784,126.47586c-1.44086,5.06535 -3.36409,8.95681 -4.29565,8.69182c-0.93156,-0.26499 -0.51868,-4.58607 0.92218,-9.65142c1.44086,-5.06535 3.36409,-8.95681 4.29565,-8.69182c0.93156,0.26499 0.51868,4.58607 -0.92218,9.65142z" fill="#ffb8c9" stroke-width="0" stroke-linecap="butt"/></g><g><path d="M254.42627,135.02958c0,0 -3.80924,-15.22442 -1.53444,-24.55109c2.2748,-9.32667 7.07024,-6.87628 8.11063,-2.41127c1.04039,4.46501 -2.84968,24.9895 -2.84968,24.9895z" fill="#ffffff" stroke-width="2" stroke-linecap="round"/><path d="M259.02787,121.87185c-0.23383,5.2611 -1.20774,9.4912 -2.1753,9.4482c-0.96756,-0.043 -1.56237,-4.34283 -1.32854,-9.60393c0.23383,-5.2611 1.20774,-9.4912 2.1753,-9.4482c0.96756,0.043 1.56237,4.34283 1.32854,9.60393z" fill="#ffb8c9" stroke-width="0" stroke-linecap="butt"/></g><path d="M229.75129,207.4911l-3.24234,-25.35865l7.78731,-0.99568l3.24234,25.35865z" fill="#ff6b00" stroke-width="2" stroke-linecap="butt"/><path d="M250.42458,148.24038c1.70849,1.24216 2.08653,3.63413 0.84439,5.34263c-1.24216,1.70849 -3.63413,2.08653 -5.34263,0.84439c-1.70849,-1.24216 -2.08653,-3.63413 -0.84439,-5.34263c1.24216,-1.70849 3.63413,-2.08653 5.34263,-0.84439z" fill="#ff6b00" stroke-width="2" stroke-linecap="butt"/><path d="M207.44554,160.1974c0,-9.17193 7.43532,-16.60724 16.60724,-16.60724c9.17193,0 16.60724,7.43532 16.60724,16.60724c0,9.17193 -7.43532,16.60724 -16.60724,16.60724c-9.17193,0 -16.60724,-7.43532 -16.60724,-16.60724z" fill="#ff6b00" stroke-width="2" stroke-linecap="butt"/><path d="M222.81413,215.01801c4.11347,0 7.4481,2.47844 7.4481,5.53575c0,3.05731 -3.33463,5.53575 -7.4481,5.53575c-4.11347,0 -7.4481,-2.47844 -7.4481,-5.53575c0,-3.05731 3.33463,-5.53575 7.4481,-5.53575z" data-paper-data="{&quot;index&quot;:null}" fill="#ff6b00" stroke-width="2" stroke-linecap="butt"/><path d="M255.84353,213.99604c4.94301,-0.20549 6.44591,2.39302 6.58214,5.66985c0.13622,3.27683 -3.76044,6.0998 -8.70347,6.30531c-4.94301,0.20549 -8.9853,-0.47417 -9.12152,-3.75101c-0.05261,-1.26556 3.08182,-7.88486 11.24285,-8.22413z" data-paper-data="{&quot;index&quot;:null}" fill="#ff6b00" stroke-width="2" stroke-linecap="butt"/><path d="M262.61664,152.76023c1.70849,1.24216 2.08653,3.63413 0.84439,5.34263c-1.24216,1.70849 -3.63413,2.08653 -5.34263,0.84439c-1.70849,-1.24216 -2.08653,-3.63413 -0.84439,-5.34263c1.24216,-1.70849 3.63413,-2.08653 5.34263,-0.84439z" fill="#ffffff" stroke-width="2" stroke-linecap="butt"/><path d="M261.91345,178.68304c1.70849,1.24216 2.08653,3.63413 0.84439,5.34263c-1.24216,1.70849 -3.63413,2.08653 -5.34263,0.84439c-1.70849,-1.24216 -2.08653,-3.63413 -0.84439,-5.34263c1.24216,-1.70849 3.63413,-2.08653 5.34263,-0.84439z" fill="#ff6b00" stroke-width="2" stroke-linecap="butt"/><path d="M249.27217,142.861c0,-5.84266 4.73642,-10.57907 10.57907,-10.57907c5.84266,0 10.57907,4.73642 10.57907,10.57907c0,5.84266 -4.73642,10.57907 -10.57907,10.57907c-5.84266,0 -10.57907,-4.73642 -10.57907,-10.57907z" fill="#ffffff" stroke-width="2" stroke-linecap="butt"/><path d="M268.97621,159.858c3.14762,-1.63792 4.91454,-0.40779 6.00036,1.67883c1.08581,2.08663 -0.5856,5.10596 -3.73323,6.74391c-3.14762,1.63792 -5.97968,2.42686 -7.0655,0.34022c-0.41936,-0.80589 -0.39842,-6.05869 4.79837,-8.76295z" data-paper-data="{&quot;index&quot;:null}" fill="#ffffff" stroke-width="2" stroke-linecap="butt"/><path d="M259.83507,163.29778c3.37626,-1.09138 4.91389,0.41559 5.63739,2.6538c0.7235,2.2382 -1.42699,4.93736 -4.80327,6.02876c-3.37626,1.09138 -6.30012,1.3981 -7.02362,-0.84011c-0.27943,-0.86443 0.6152,-6.04053 6.1895,-7.84243z" data-paper-data="{&quot;index&quot;:null}" fill="#ffffff" stroke-width="2" stroke-linecap="butt"/><path d="M255.42458,153.24039c1.70849,1.24216 2.08653,3.63413 0.84439,5.34263c-1.24216,1.70849 -3.63413,2.08653 -5.34263,0.84439c-1.70849,-1.24216 -2.08653,-3.63413 -0.84439,-5.34263c1.24216,-1.70849 3.63413,-2.08653 5.34263,-0.84439z" fill="#ffffff" stroke-width="2" stroke-linecap="butt"/><path d="M272.98325,172.15796l-1.14128,12.84573l31.03023,14.28455l-34.83071,32.13822l-12.12472,-31.36706l-12.86623,0.21906z" data-paper-data="{&quot;index&quot;:null}" fill="#ffa340" stroke-width="2" stroke-linecap="butt"/></g></g></svg>