<svg version="1.1" xmlns="http://www.w3.org/2000/svg" xmlns:xlink="http://www.w3.org/1999/xlink" width="60.66114" height="84.06687" viewBox="0,0,60.66114,84.06687"><g transform="translate(-214.11728,-143.01813)"><g data-paper-data="{&quot;isPaintingLayer&quot;:true}" fill-rule="nonzero" stroke="#000000" stroke-width="2" stroke-linejoin="miter" stroke-miterlimit="10" stroke-dasharray="" stroke-dashoffset="0" style="mix-blend-mode: normal"><path d="M237.17234,210.40975l-3.96237,-25.25616l7.75583,-1.21679l3.96237,25.25616z" data-paper-data="{&quot;index&quot;:null}" fill="#2d6a2b" stroke-linecap="butt"/><path d="M236.51661,162.11712c1.92869,-8.96685 10.76127,-14.67241 19.72811,-12.74372c8.96685,1.92869 14.67241,10.76127 12.74372,19.72811c-1.92869,8.96685 -10.76127,14.67241 -19.72811,12.74372c-8.96685,-1.92869 -14.67241,-10.76127 -12.74372,-19.72811z" fill="#2d6a2b" stroke-linecap="butt"/><path d="M249.11462,146.02514c15.67834,-2.30911 23.88135,8.27376 23.88135,8.27376l-40.21222,7.94187c0,0 -0.5259,-13.73295 16.33087,-16.21564z" fill="#367e33" stroke-linecap="round"/><path d="M218.66295,187.1829c2.10707,-0.14886 3.93586,1.4386 4.08472,3.54566c0.14886,2.10707 -1.4386,3.93586 -3.54566,4.08472c-2.10707,0.14886 -3.93586,-1.4386 -4.08472,-3.54566c-0.14886,-2.10707 1.4386,-3.93586 3.54566,-4.08472z" fill="#2d6a2b" stroke-linecap="butt"/><path d="M224.90442,191.24466c2.10707,-0.14886 3.93586,1.4386 4.08472,3.54566c0.14886,2.10707 -1.4386,3.93586 -3.54566,4.08472c-2.10707,0.14886 -3.93586,-1.4386 -4.08472,-3.54566c-0.14886,-2.10707 1.4386,-3.93586 3.54566,-4.08472z" fill="#2d6a2b" stroke-linecap="butt"/><path d="M257.47472,214.2083c4.94728,0 6.34095,2.65869 6.34095,5.93835c0,3.27966 -4.01057,5.93835 -8.95785,5.93835c-4.94728,0 -8.95785,-0.84699 -8.95785,-4.12665c0,-1.26666 3.40667,-7.75005 11.57475,-7.75005z" data-paper-data="{&quot;index&quot;:null}" fill="#2d6a2b" stroke-linecap="butt"/><path d="M228.53054,214.6109c4.11347,0 7.4481,2.47844 7.4481,5.53575c0,3.05731 -3.33463,5.53575 -7.4481,5.53575c-4.11347,0 -7.4481,-2.47844 -7.4481,-5.53575c0,-3.05731 3.33463,-5.53575 7.4481,-5.53575z" data-paper-data="{&quot;index&quot;:null}" fill="#2d6a2b" stroke-linecap="butt"/><path d="M229.36316,148.51663c0,0 2.9906,-0.66083 5.02698,-0.59563c1.61325,0.05166 6.22027,0.95577 6.22027,0.95577" fill="none" stroke-linecap="round"/><path d="M219.16341,148.07294c0.59614,-2.77157 3.32621,-4.53511 6.09778,-3.93897c2.77157,0.59614 4.53511,3.32621 3.93897,6.09778c-0.59614,2.77157 -3.32621,4.53511 -6.09778,3.93897c-2.77157,-0.59614 -4.53511,-3.32621 -3.93897,-6.09778z" fill="#2d6a2b" stroke-linecap="butt"/></g></g></svg>