<svg version="1.1" xmlns="http://www.w3.org/2000/svg" xmlns:xlink="http://www.w3.org/1999/xlink" width="64.38415" height="85.37836" viewBox="0,0,64.38415,85.37836"><g transform="translate(-198.63536,-139.75023)"><g data-paper-data="{&quot;isPaintingLayer&quot;:true}" fill-rule="nonzero" stroke="#000000" stroke-width="2" stroke-linejoin="miter" stroke-miterlimit="10" stroke-dasharray="" stroke-dashoffset="0" style="mix-blend-mode: normal"><path d="M210.19853,146.39142c0,0 3.00193,-0.60728 5.03682,-0.5057c1.61207,0.08048 6.2022,1.06677 6.2022,1.06677" fill="#181818" stroke-linecap="round"/><path d="M199.63536,145.79304c0.64558,-2.76047 3.40672,-4.47496 6.1672,-3.82937c2.76047,0.64558 4.47496,3.40672 3.82937,6.1672c-0.64558,2.76047 -3.40672,4.47496 -6.1672,3.82937c-2.76047,-0.64558 -4.47496,-3.40672 -3.82937,-6.1672z" fill="#181818" stroke-linecap="butt"/><path d="M219.74747,159.89393c0,-9.17193 7.43532,-16.60724 16.60724,-16.60724c9.17193,0 16.60724,7.43532 16.60724,16.60724c0,9.17193 -7.43532,16.60724 -16.60724,16.60724c-9.17193,0 -16.60724,-7.43532 -16.60724,-16.60724z" fill="#181818" stroke-linecap="butt"/><path d="M235.17843,163.52693v-5.24474h19.39678v5.24474z" fill="#ff0000" stroke-linecap="butt"/><g><path d="M221.63497,152.81314v-12.06291h29.6328v12.06291z" fill="#343434" stroke-linecap="butt"/><path d="M262.01951,152.81314h-51.13626" fill="none" stroke-linecap="round"/></g><path d="M241.29513,209.50627c-2.05728,0.47905 -4.11339,-0.80036 -4.59244,-2.85764c-0.47905,-2.05728 0.80036,-4.11339 2.85764,-4.59244c2.05728,-0.47905 4.11339,0.80036 4.59244,2.85764c0.47905,2.05728 -0.80036,4.11339 -2.85764,4.59244z" data-paper-data="{&quot;index&quot;:null}" fill="#181818" stroke-linecap="butt"/><path d="M234.53872,206.21759l-5.79788,-24.89896l7.64614,-1.78045l5.79788,24.89896z" data-paper-data="{&quot;index&quot;:null}" fill="#181818" stroke-linecap="butt"/><path d="M251.45376,208.36912c4.10613,-0.23259 7.96201,2.99454 8.61235,7.208c0.65034,4.21345 -2.15113,7.81769 -6.25725,8.05028c-4.10613,0.23259 -7.96201,-2.99454 -8.61235,-7.208c-0.65034,-4.21345 2.15113,-7.81769 6.25725,-8.05028z" data-paper-data="{&quot;index&quot;:null}" fill="#181818" stroke-linecap="butt"/><path d="M231.48163,214.42777c1.63268,2.84438 -1.42395,5.5755 -5.71463,8.03836c-4.29068,2.46286 -9.0925,2.15358 -10.72519,-0.6908c-1.63268,-2.84439 -1.74754,-5.84401 2.54314,-8.30687c7.08401,-4.06624 13.26611,-0.13924 13.89668,0.95931z" data-paper-data="{&quot;index&quot;:null}" fill="#181818" stroke-linecap="butt"/><path d="M237.18857,182.63252l5.36014,4.02268l-16.87522,2.68931l3.05473,-5.05199l-4.60741,-3.26782l13.97876,-3.56509z" data-paper-data="{&quot;index&quot;:null}" fill="#0e0e0e" stroke-linecap="round"/><path d="M214.07991,192.95257c-2.11232,0 -3.8247,-1.71238 -3.8247,-3.8247c0,-2.11232 1.71238,-3.8247 3.8247,-3.8247c2.11232,0 3.8247,1.71238 3.8247,3.8247c0,2.11232 -1.71238,3.8247 -3.8247,3.8247z" data-paper-data="{&quot;index&quot;:null}" fill="#181818" stroke-linecap="butt"/></g></g></svg>