<svg version="1.1" xmlns="http://www.w3.org/2000/svg" xmlns:xlink="http://www.w3.org/1999/xlink" width="63.88188" height="95.50999" viewBox="0,0,63.88188,95.50999"><g transform="translate(-208.3742,-145.26643)"><g data-paper-data="{&quot;isPaintingLayer&quot;:true}" fill-rule="nonzero" stroke="#000000" stroke-width="2" stroke-linejoin="miter" stroke-miterlimit="10" stroke-dasharray="" stroke-dashoffset="0" style="mix-blend-mode: normal"><path d="M219.56581,154.74491c0,0 3.00052,-0.61419 5.03563,-0.51729c1.61224,0.07677 6.20464,1.0525 6.20464,1.0525" fill="none" stroke-linecap="round"/><path d="M209.3742,154.14248c0.63923,-2.76196 3.39642,-4.48278 6.15838,-3.84355c2.76196,0.63923 4.48278,3.39642 3.84355,6.15838c-0.63923,2.76196 -3.39642,4.48278 -6.15838,3.84355c-2.76196,-0.63923 -4.48278,-3.39642 -3.84355,-6.15838z" fill="#e80000" stroke-linecap="butt"/><path d="M229.36584,160.00131c1.58789,-9.03343 10.19817,-15.06923 19.23159,-13.48134c9.03343,1.58789 15.06923,10.19817 13.48134,19.23159c-1.58789,9.03343 -10.19817,15.06923 -19.23159,13.48134c-9.03343,-1.58789 -15.06923,-10.19817 -13.48134,-19.23159z" fill="#e80000" stroke-linecap="butt"/><path d="M234.03081,206.75582l0.48617,-25.56047l7.84928,0.1493l-0.48617,25.56047z" fill="#e80000" stroke-linecap="butt"/><path d="M219.09246,187.25543c0,-2.11232 1.71238,-3.8247 3.8247,-3.8247c2.11232,0 3.8247,1.71238 3.8247,3.8247c0,2.11232 -1.71238,3.8247 -3.8247,3.8247c-2.11232,0 -3.8247,-1.71238 -3.8247,-3.8247z" fill="#e80000" stroke-linecap="butt"/><path d="M263.60668,199.40629c0,-2.11232 1.71238,-3.8247 3.8247,-3.8247c2.11232,0 3.8247,1.71238 3.8247,3.8247c0,2.11232 -1.71238,3.8247 -3.8247,3.8247c-2.11232,0 -3.8247,-1.71238 -3.8247,-3.8247z" fill="#e80000" stroke-linecap="butt"/><path d="M260.81985,207.23667c4.7031,1.53507 5.20302,4.49497 4.18539,7.61276c-1.01763,3.11779 -5.6552,4.40083 -10.35831,2.86576c-4.7031,-1.53507 -8.25291,-3.58469 -7.23527,-6.70247c0.39303,-1.20414 5.64326,-6.31049 13.40819,-3.77604z" data-paper-data="{&quot;index&quot;:null}" fill="#e80000" stroke-linecap="butt"/><path d="M228.56205,158.36035l-0.43572,-5.58303l33.29874,-2.59874l0.43572,5.58302z" fill="#ff2121" stroke-linecap="butt"/><path d="M242.3874,232.54845c0.81033,4.88046 -1.58417,6.69079 -4.81954,7.22797c-3.23537,0.53719 -6.51505,-2.98373 -7.32539,-7.86421c-0.81033,-4.88046 -0.63169,-8.9756 2.60368,-9.51279c1.24956,-0.20747 8.20338,2.09125 9.54125,10.14902z" data-paper-data="{&quot;index&quot;:null}" fill="#e80000" stroke-linecap="butt"/></g></g></svg>