<svg version="1.1" xmlns="http://www.w3.org/2000/svg" xmlns:xlink="http://www.w3.org/1999/xlink" width="65.25898" height="84.84478" viewBox="0,0,65.25898,84.84478"><defs><linearGradient x1="205.87729" y1="178.12037" x2="223.02386" y2="189.46771" gradientUnits="userSpaceOnUse" id="color-1"><stop offset="0" stop-color="#e80000" stop-opacity="0"/><stop offset="1" stop-color="#e80000"/></linearGradient><linearGradient x1="248.63652" y1="176.48138" x2="265.78309" y2="187.82872" gradientUnits="userSpaceOnUse" id="color-2"><stop offset="0" stop-color="#e80000" stop-opacity="0"/><stop offset="1" stop-color="#e80000"/></linearGradient></defs><g transform="translate(-201.90238,-140.97915)"><g data-paper-data="{&quot;isPaintingLayer&quot;:true}" fill-rule="nonzero" stroke="#000000" stroke-linejoin="miter" stroke-miterlimit="10" stroke-dasharray="" stroke-dashoffset="0" style="mix-blend-mode: normal"><path d="M213.04307,151.63197c0,0 3.03065,-0.44213 5.05694,-0.22937c1.60525,0.16856 6.13454,1.40451 6.13454,1.40451" fill="none" stroke-width="2" stroke-linecap="round"/><path d="M202.90238,150.4495c0.79564,-2.72102 3.64645,-4.28186 6.36747,-3.48622c2.72102,0.79564 4.28186,3.64645 3.48622,6.36747c-0.79564,2.72102 -3.64645,4.28186 -6.36747,3.48622c-2.72102,-0.79564 -4.28186,-3.64645 -3.48622,-6.36747z" fill="#e80000" stroke-width="2" stroke-linecap="butt"/><path d="M221.71209,158.58639c0,-9.17193 7.43532,-16.60724 16.60724,-16.60724c9.17193,0 16.60724,7.43532 16.60724,16.60724c0,9.17193 -7.43532,16.60724 -16.60724,16.60724c-9.17193,0 -16.60724,-7.43532 -16.60724,-16.60724z" fill="#e80000" stroke-width="2" stroke-linecap="butt"/><path d="M231.35501,202.84654l0.93984,-25.54781l7.84539,0.28862l-0.93984,25.54781z" fill="#e80000" stroke-width="2" stroke-linecap="butt"/><path d="M206.38267,188.49839c0,-2.11232 1.71238,-3.8247 3.8247,-3.8247c2.11232,0 3.8247,1.71238 3.8247,3.8247c0,2.11232 -1.71238,3.8247 -3.8247,3.8247c-2.11232,0 -3.8247,-1.71238 -3.8247,-3.8247z" fill="#e80000" stroke-width="2" stroke-linecap="butt"/><path d="M224.69316,213.75243c4.11347,0 7.4481,2.47844 7.4481,5.53575c0,3.05731 -3.33463,5.53575 -7.4481,5.53575c-4.11347,0 -7.4481,-2.47844 -7.4481,-5.53575c0,-3.05731 3.33463,-5.53575 7.4481,-5.53575z" data-paper-data="{&quot;index&quot;:null}" fill="#e80000" stroke-width="2" stroke-linecap="butt"/><path d="M255.24946,211.30183c4.90323,-0.6587 6.63848,1.79077 7.07515,5.04123c0.43666,3.25046 -3.1842,6.41946 -8.08745,7.07816c-4.90323,0.6587 -8.99087,0.35323 -9.42753,-2.89723c-0.16865,-1.25538 2.34447,-8.13462 10.43983,-9.22215z" data-paper-data="{&quot;index&quot;:null}" fill="#e80000" stroke-width="2" stroke-linecap="butt"/><path d="M220.63634,157.10937l-1.3957,-5.42329l32.34602,-8.32434l1.3957,5.42328z" fill="#ff2121" stroke-width="2" stroke-linecap="butt"/><path d="M213.49782,194.01042c-5.17675,1.66438 -8.25853,-0.81341 -9.9556,-4.24058c-1.69708,-3.42717 -0.23049,-7.19962 2.36261,-11.09319c3.86285,-5.80015 18.49731,-4.4362 18.49731,-4.4362c0,0 -9.31645,3.20862 -9.21929,9.47393c0.08705,5.61366 3.49173,8.63165 -1.68502,10.29603z" data-paper-data="{&quot;index&quot;:null}" fill="url(#color-1)" stroke-width="0" stroke-linecap="butt"/><path d="M249.34937,187.68928c0,-2.11232 1.71238,-3.8247 3.8247,-3.8247c2.11232,0 3.8247,1.71238 3.8247,3.8247c0,2.11232 -1.71238,3.8247 -3.8247,3.8247c-2.11232,0 -3.8247,-1.71238 -3.8247,-3.8247z" fill="#e80000" stroke-width="2" stroke-linecap="butt"/><path d="M256.25705,192.37143c-5.17674,1.66438 -8.25853,-0.81341 -9.9556,-4.24058c-1.69707,-3.42717 -0.23049,-7.19962 2.36261,-11.09319c3.86285,-5.80015 18.49731,-4.4362 18.49731,-4.4362c0,0 -9.31646,3.20862 -9.21929,9.47393c0.08705,5.61366 3.49172,8.63165 -1.68503,10.29603z" data-paper-data="{&quot;index&quot;:null}" fill="url(#color-2)" stroke-width="0" stroke-linecap="butt"/></g></g></svg>