<svg version="1.1" xmlns="http://www.w3.org/2000/svg" xmlns:xlink="http://www.w3.org/1999/xlink" width="71.88601" height="99.95396" viewBox="0,0,71.88601,99.95396"><g transform="translate(-197.72491,-127.13556)"><g data-paper-data="{&quot;isPaintingLayer&quot;:true}" fill-rule="nonzero" stroke="#000000" stroke-width="2" stroke-linejoin="miter" stroke-miterlimit="10" stroke-dasharray="" stroke-dashoffset="0" style="mix-blend-mode: normal"><path d="M255.82925,191.81566c0,-2.11232 1.71238,-3.8247 3.8247,-3.8247c2.11232,0 3.8247,1.71238 3.8247,3.8247c0,2.11232 -1.71238,3.8247 -3.8247,3.8247c-2.11232,0 -3.8247,-1.71238 -3.8247,-3.8247z" fill="#ff6b00" stroke-linecap="butt"/><path d="M233.42193,211.06904l-10.90061,-23.12468l7.10129,-3.34743l10.90061,23.12468z" fill="#ff6b00" stroke-linecap="butt"/><path d="M214.65466,189.00173c0,-2.11232 1.71238,-3.8247 3.8247,-3.8247c2.11232,0 3.8247,1.71238 3.8247,3.8247c0,2.11232 -1.71238,3.8247 -3.8247,3.8247c-2.11232,0 -3.8247,-1.71238 -3.8247,-3.8247z" fill="#ff6b00" stroke-linecap="butt"/><path d="M228.66912,215.01802c4.11347,0 7.4481,2.47844 7.4481,5.53575c0,3.05731 -3.33463,5.53575 -7.4481,5.53575c-4.11347,0 -7.4481,-2.47844 -7.4481,-5.53575c0,-3.05731 3.33463,-5.53575 7.4481,-5.53575z" data-paper-data="{&quot;index&quot;:null}" fill="#ff6b00" stroke-linecap="butt"/><path d="M260.41684,211.52851c4.52935,-1.99011 6.87479,-0.11664 8.19408,2.88597c1.31929,3.00261 -1.28298,7.05 -5.81234,9.04013c-4.52935,1.99011 -8.54183,2.82799 -9.86112,-0.17462c-0.50953,-1.15965 0.00132,-8.46573 7.47939,-11.75146z" data-paper-data="{&quot;index&quot;:null}" fill="#ff6b00" stroke-linecap="butt"/><path d="M211.70309,175.83316c0,-9.17193 7.43532,-16.60724 16.60724,-16.60724c9.17193,0 16.60724,7.43532 16.60724,16.60724c0,9.17193 -7.43532,16.60724 -16.60724,16.60724c-9.17193,0 -16.60724,-7.43532 -16.60724,-16.60724z" fill="#ff6b00" stroke-linecap="butt"/><path d="M209.47806,156.55643c0,0 3.02516,0.47833 4.8967,1.28356c1.48267,0.63791 5.44016,3.16384 5.44016,3.16384" fill="none" stroke-linecap="round"/><path d="M200.14671,152.41423c1.56821,-2.36172 4.75403,-3.005 7.11576,-1.43679c2.36172,1.56821 3.005,4.75403 1.43679,7.11576c-1.56821,2.36172 -4.75403,3.005 -7.11576,1.43679c-2.36172,-1.56821 -3.005,-4.75403 -1.43679,-7.11576z" fill="#ff6b00" stroke-linecap="butt"/><path d="M207.46294,173.24386l8.49821,-9.7003l-16.63293,-29.83737l47.08273,-5.40933l-8.7095,32.48147l10.5192,7.41177z" data-paper-data="{&quot;index&quot;:null}" fill="#ffa340" stroke-linecap="butt"/></g></g></svg>