<svg version="1.1" xmlns="http://www.w3.org/2000/svg" xmlns:xlink="http://www.w3.org/1999/xlink" width="69.08707" height="73.31722" viewBox="0,0,69.08707,73.31722"><g transform="translate(-189.24488,-154.93284)"><g data-paper-data="{&quot;isPaintingLayer&quot;:true}" fill-rule="nonzero" stroke="#000000" stroke-width="2" stroke-linejoin="miter" stroke-miterlimit="10" stroke-dasharray="" stroke-dashoffset="0" style="mix-blend-mode: normal"><path d="M221.96611,216.91737c7.70413,-2.71367 13.07127,2.26968 13.49208,3.46439c1.08958,3.09337 -2.41178,5.22468 -7.07805,6.8683c-4.66629,1.64363 -9.33235,0.46835 -10.42193,-2.62501c-1.08959,-3.09337 -0.65837,-6.06407 4.0079,-7.70769z" data-paper-data="{&quot;index&quot;:null}" fill="#2d6a2b" stroke-linecap="butt"/><path d="M193.97071,184.8017c-1.20434,-9.09252 5.1903,-17.43976 14.28281,-18.64409c9.09252,-1.20434 17.43976,5.1903 18.64409,14.28281c1.20434,9.09252 -5.1903,17.43976 -14.28281,18.64409c-9.09252,1.20434 -17.43976,-5.1903 -18.64409,-14.28281z" fill="#2d6a2b" stroke-linecap="butt"/><path d="M221.85811,163.17927c-1.8814,-2.1207 -1.6874,-5.36503 0.43328,-7.24643c2.1207,-1.8814 5.36503,-1.6874 7.24643,0.43328c1.8814,2.1207 1.6874,5.36503 -0.43328,7.24643c-2.1207,1.8814 -5.36503,1.6874 -7.24643,-0.43328z" data-paper-data="{&quot;index&quot;:null}" fill="#2d6a2b" stroke-linecap="butt"/><path d="M239.0846,217.6827l-19.07031,-17.02636l5.22856,-5.85624l19.07031,17.02636z" fill="#2d6a2b" stroke-linecap="butt"/><path d="M228.99328,218.74263c0,-2.11232 1.71238,-3.8247 3.8247,-3.8247c2.11232,0 3.8247,1.71238 3.8247,3.8247c0,2.11232 -1.71238,3.8247 -3.8247,3.8247c-2.11232,0 -3.8247,-1.71238 -3.8247,-3.8247z" fill="#2d6a2b" stroke-linecap="butt"/><path d="M201.77117,208.09359c-0.20531,-2.10232 1.33252,-3.97303 3.43484,-4.17834c2.10232,-0.20531 3.97303,1.33252 4.17834,3.43484c0.20531,2.10232 -1.33252,3.97303 -3.43484,4.17834c-2.10232,0.20531 -3.97303,-1.33252 -4.17834,-3.43484z" fill="#2d6a2b" stroke-linecap="butt"/><path d="M202.48964,164.8131c13.98439,-7.45514 23.19532,0.33983 23.19532,0.33983l-35.18734,21.02254c0,0 -3.04348,-13.34686 11.99202,-21.36237z" fill="#367e33" stroke-linecap="round"/><path d="M211.29341,161.92323l13.11357,-1.88022" data-paper-data="{&quot;index&quot;:null}" fill="none" stroke-linecap="round"/><path d="M251.77079,207.61752c-4.16482,2.67019 -6.77304,1.18419 -8.54316,-1.57676c-1.77012,-2.76093 0.17116,-7.16376 4.33598,-9.83394c4.16482,-2.67019 7.99822,-4.12175 9.76834,-1.36082c0.68366,1.06632 1.31505,8.36298 -5.56118,12.77152z" data-paper-data="{&quot;index&quot;:null}" fill="#2d6a2b" stroke-linecap="butt"/></g></g></svg>