<svg version="1.1" xmlns="http://www.w3.org/2000/svg" xmlns:xlink="http://www.w3.org/1999/xlink" width="73.51047" height="84.15994" viewBox="0,0,73.51047,84.15994"><g transform="translate(-220.088,-142.65803)"><g data-paper-data="{&quot;isPaintingLayer&quot;:true}" fill-rule="nonzero" stroke="#000000" stroke-width="2" stroke-linejoin="miter" stroke-miterlimit="10" stroke-dasharray="" stroke-dashoffset="0" style="mix-blend-mode: normal"><path d="M225.8359,191.31598c0,-2.11232 1.71238,-3.8247 3.8247,-3.8247c2.11232,0 3.8247,1.71238 3.8247,3.8247c0,2.11232 -1.71238,3.8247 -3.8247,3.8247c-2.11232,0 -3.8247,-1.71238 -3.8247,-3.8247z" fill="#181818" stroke-linecap="butt"/><path d="M235.27906,150.99782c0,0 3.00193,-0.60728 5.03682,-0.5057c1.61207,0.08048 6.2022,1.06677 6.2022,1.06677" fill="#181818" stroke-linecap="round"/><path d="M224.71589,150.39944c0.64558,-2.76047 3.40672,-4.47496 6.1672,-3.82937c2.76047,0.64558 4.47496,3.40672 3.82937,6.1672c-0.64558,2.76047 -3.40672,4.47496 -6.1672,3.82937c-2.76047,-0.64558 -4.47496,-3.40672 -3.82937,-6.1672z" fill="#181818" stroke-linecap="butt"/><path d="M244.828,164.50033c0,-9.17193 7.43532,-16.60724 16.60724,-16.60724c9.17193,0 16.60724,7.43532 16.60724,16.60724c0,9.17193 -7.43532,16.60724 -16.60724,16.60724c-9.17193,0 -16.60724,-7.43532 -16.60724,-16.60724z" fill="#181818" stroke-linecap="butt"/><path d="M236.62623,203.24835l7.77186,-24.35513l7.47913,2.38664l-7.77186,24.35513z" fill="#181818" stroke-linecap="butt"/><path d="M228.5361,214.34387c4.11347,0 7.4481,2.47844 7.4481,5.53575c0,3.05731 -3.33463,5.53575 -7.4481,5.53575c-4.11347,0 -7.4481,-2.47844 -7.4481,-5.53575c0,-3.05731 3.33463,-5.53575 7.4481,-5.53575z" data-paper-data="{&quot;index&quot;:null}" fill="#181818" stroke-linecap="butt"/><path d="M261.54516,213.94127c4.94728,0 6.34095,2.65869 6.34095,5.93835c0,3.27966 -4.01056,5.93835 -8.95785,5.93835c-4.94728,0 -8.95785,-0.84699 -8.95785,-4.12665c0,-1.26666 3.40667,-7.75005 11.57475,-7.75005z" data-paper-data="{&quot;index&quot;:null}" fill="#181818" stroke-linecap="butt"/><path d="M267.45646,173.60343v-5.24474h13.92668v5.24474z" fill="#ff0000" stroke-linecap="butt"/><path d="M242.85734,176.68428l13.64862,4.67233l-4.85414,2.88862l2.64064,5.28026l-16.60588,-4.03115l5.66487,-3.58083z" fill="#0e0e0e" stroke-linecap="round"/><g><g><path d="M244.45362,160.63131l1.56335,-13.41038c0,0 11.48102,3.40386 17.20571,4.04501c6.01143,0.67326 18.0447,-0.09706 18.0447,-0.09706l-1.56335,13.41038c0,0 -12.12804,0.15456 -17.97506,-0.50029c-5.90259,-0.66107 -17.27534,-3.44766 -17.27534,-3.44766z" fill="#343434" stroke-linecap="butt"/><path d="M292.59847,165.11568c0,0 -19.82478,0.50284 -29.87689,-0.62297c-10.22183,-1.14481 -30.95347,-6.18988 -30.95347,-6.18988" fill="none" stroke-linecap="round"/></g><path d="M281.77186,149.88622c-0.24037,2.06192 -8.40854,2.84044 -18.24412,1.73889c-9.83558,-1.10156 -17.61401,-3.66606 -17.37364,-5.72798c0.24037,-2.06192 8.40854,-2.84044 18.24411,-1.73889c9.83558,1.10156 17.61402,3.66606 17.37365,5.72798z" fill="#252525" stroke-linecap="butt"/></g><path d="M253.98676,203.80262c0,-2.11232 1.71238,-3.8247 3.8247,-3.8247c2.11232,0 3.8247,1.71238 3.8247,3.8247c0,2.11232 -1.71238,3.8247 -3.8247,3.8247c-2.11232,0 -3.8247,-1.71238 -3.8247,-3.8247z" fill="#181818" stroke-linecap="butt"/></g></g></svg>