<svg version="1.1" xmlns="http://www.w3.org/2000/svg" xmlns:xlink="http://www.w3.org/1999/xlink" width="59.42755" height="85.31844" viewBox="0,0,59.42755,85.31844"><defs><linearGradient x1="215.57317" y1="166.45177" x2="232.70757" y2="179.66156" gradientUnits="userSpaceOnUse" id="color-1"><stop offset="0" stop-color="#e80000" stop-opacity="0"/><stop offset="1" stop-color="#e80000"/></linearGradient><linearGradient x1="272.2657" y1="200.75705" x2="250.77381" y2="198.88939" gradientUnits="userSpaceOnUse" id="color-2"><stop offset="0" stop-color="#e80000" stop-opacity="0"/><stop offset="1" stop-color="#e80000"/></linearGradient></defs><g transform="translate(-213.74102,-143.66605)"><g data-paper-data="{&quot;isPaintingLayer&quot;:true}" fill-rule="nonzero" stroke="#000000" stroke-linejoin="miter" stroke-miterlimit="10" stroke-dasharray="" stroke-dashoffset="0" style="mix-blend-mode: normal"><path d="M219.65978,187.14577c-2.03894,-0.55201 -3.24432,-2.65237 -2.69234,-4.69128c0.55201,-2.03894 2.65237,-3.24432 4.69128,-2.69234c2.03894,0.55201 3.24432,2.65237 2.69234,4.69128c-0.55201,2.03894 -2.65237,3.24432 -4.69128,2.69234z" data-paper-data="{&quot;index&quot;:null}" fill="#e80000" stroke-width="2" stroke-linecap="butt"/><path d="M224.52007,189.80734c-4.54808,4.21708 -7.68147,1.13634 -9.66024,-3.88516c-1.97878,-5.02149 -1.09557,-11.53715 0.80692,-18.58186c2.83408,-10.49434 16.43649,-12.6328 16.43649,-12.6328c0,0 -8.15888,7.93315 -7.3004,18.00374c0.76918,9.02316 4.26534,12.87899 -0.28275,17.09608z" data-paper-data="{&quot;index&quot;:null}" fill="url(#color-1)" stroke-width="0" stroke-linecap="butt"/><path d="M233.32916,149.2419c0,0 3.06245,0.0413 5.02985,0.57089c1.55859,0.41957 5.83633,2.35423 5.83633,2.35423" fill="none" stroke-width="2" stroke-linecap="round"/><path d="M224.67289,147.9553c1.01915,-2.64545 3.98985,-3.96384 6.6353,-2.94471c2.64545,1.01915 3.96384,3.98985 2.94471,6.6353c-1.01915,2.64545 -3.98985,3.96384 -6.6353,2.94471c-2.64545,-1.01915 -3.96384,-3.98985 -2.94471,-6.6353z" fill="#e80000" stroke-width="2" stroke-linecap="butt"/><path d="M254.61411,215.17787c2.50981,4.26338 0.92569,6.81318 -1.90061,8.47701c-2.82629,1.6638 -7.15206,-0.44356 -9.66188,-4.70694c-2.50981,-4.26338 -3.81453,-8.14924 -0.98824,-9.81305c1.09156,-0.64259 8.40693,-0.99595 12.55071,6.04298z" data-paper-data="{&quot;index&quot;:null}" fill="#e80000" stroke-width="2" stroke-linecap="butt"/><path d="M252.22895,207.91508c0.9737,-1.8745 3.2826,-2.60483 5.15715,-1.63112c1.8745,0.97369 2.60483,3.2826 1.63112,5.15715c-0.9737,1.8745 -3.2826,2.60482 -5.15715,1.63112c-1.8745,-0.97369 -2.60483,-3.2826 -1.63112,-5.15714z" data-paper-data="{&quot;index&quot;:null}" fill="#e80000" stroke-width="2" stroke-linecap="butt"/><path d="M249.93623,211.8621c-0.49229,-6.16483 4.67617,-6.63552 11.33037,-12.73949c7.42663,-6.81252 6.79192,-18.14183 6.79192,-18.14183c0,0 8.54106,10.74971 3.53881,20.36532c-3.35794,6.45485 -7.10698,11.83346 -11.94836,14.18384c-4.84136,2.35039 -9.22046,2.49698 -9.71274,-3.66782z" data-paper-data="{&quot;index&quot;:null}" fill="url(#color-2)" stroke-width="0" stroke-linecap="butt"/><path d="M234.63994,199.7994l6.49378,-24.72659l7.5932,1.99417l-6.49378,24.72659z" fill="#e80000" stroke-width="2" stroke-linecap="butt"/><path d="M238.04663,156.21327c3.22946,-8.58458 12.80659,-12.92576 21.39117,-9.69633c8.58458,3.22946 12.92576,12.80659 9.69633,21.39117c-3.22946,8.58458 -12.80659,12.92576 -21.39117,9.69633c-8.58458,-3.22946 -12.92576,-12.80659 -9.69633,-21.39117z" fill="#e80000" stroke-width="2" stroke-linecap="butt"/><path d="M237.55983,154.45207l0.60323,-5.56743l33.20565,3.59781l-0.60323,5.56742z" fill="#ff2121" stroke-width="2" stroke-linecap="butt"/><path d="M224.69317,216.913c4.11347,0 7.4481,2.47844 7.4481,5.53575c0,3.05731 -3.33463,5.53575 -7.4481,5.53575c-4.11347,0 -7.4481,-2.47844 -7.4481,-5.53575c0,-3.05731 3.33463,-5.53575 7.4481,-5.53575z" data-paper-data="{&quot;index&quot;:null}" fill="#e80000" stroke-width="2" stroke-linecap="butt"/></g></g></svg>