<svg version="1.1" xmlns="http://www.w3.org/2000/svg" xmlns:xlink="http://www.w3.org/1999/xlink" width="92.13582" height="69.80828" viewBox="0,0,92.13582,69.80828"><defs><linearGradient x1="278.33452" y1="180.75655" x2="203.50171" y2="194.79545" gradientUnits="userSpaceOnUse" id="color-1"><stop offset="0" stop-color="#ff0000" stop-opacity="0"/><stop offset="1" stop-color="#ff0000"/></linearGradient></defs><g transform="translate(-202.27549,-157.0097)"><g data-paper-data="{&quot;isPaintingLayer&quot;:true}" fill-rule="nonzero" stroke-linejoin="miter" stroke-miterlimit="10" stroke-dasharray="" stroke-dashoffset="0" style="mix-blend-mode: normal"><path d="M241.59033,163.65089c0,0 3.00193,-0.60728 5.03682,-0.5057c1.61207,0.08048 6.2022,1.06677 6.2022,1.06677" fill="#181818" stroke="#000000" stroke-width="2" stroke-linecap="round"/><path d="M232.75311,163.34017c0.64558,-2.76047 3.40672,-4.47496 6.1672,-3.82937c2.76047,0.64558 4.47496,3.40672 3.82937,6.1672c-0.64558,2.76047 -3.40672,4.47496 -6.1672,3.82937c-2.76047,-0.64558 -4.47496,-3.40672 -3.82937,-6.1672z" fill="#181818" stroke="#000000" stroke-width="2" stroke-linecap="butt"/><path d="M251.13927,177.1534c0,-9.17193 7.43532,-16.60724 16.60724,-16.60724c9.17193,0 16.60724,7.43532 16.60724,16.60724c0,9.17193 -7.43532,16.60724 -16.60724,16.60724c-9.17193,0 -16.60724,-7.43532 -16.60724,-16.60724z" fill="#181818" stroke="#000000" stroke-width="2" stroke-linecap="butt"/><path d="M266.57023,180.7864v-5.24474h19.39678v5.24474z" fill="#ff0000" stroke="#000000" stroke-width="2" stroke-linecap="butt"/><g stroke="#000000" stroke-width="2"><path d="M253.02677,170.07261v-12.06291h29.6328v12.06291z" fill="#343434" stroke-linecap="butt"/><path d="M242.27505,170.07261h51.13626" fill="none" stroke-linecap="round"/></g><path d="M274.98357,186.69664c0.13536,-2.10798 1.95396,-3.7071 4.06194,-3.57174c2.10798,0.13536 3.7071,1.95396 3.57174,4.06194c-0.13536,2.10798 -1.95396,3.7071 -4.06194,3.57174c-2.10798,-0.13536 -3.7071,-1.95396 -3.57174,-4.06194z" fill="#181818" stroke="#000000" stroke-width="2" stroke-linecap="butt"/><path d="M219.21411,194.24788c0,-2.11232 1.71238,-3.8247 3.8247,-3.8247c2.11232,0 3.8247,1.71238 3.8247,3.8247c0,2.11232 -1.71238,3.8247 -3.8247,3.8247c-2.11232,0 -3.8247,-1.71238 -3.8247,-3.8247z" fill="#181818" stroke="#000000" stroke-width="2" stroke-linecap="butt"/><path d="M232.81015,207.70179l13.5071,-21.70558l6.66548,4.14786l-13.5071,21.70558z" fill="#181818" stroke="#000000" stroke-width="2" stroke-linecap="butt"/><path d="M220.76425,214.34388c4.11347,0 7.4481,2.47844 7.4481,5.53575c0,3.05731 -3.33463,5.53575 -7.4481,5.53575c-4.11347,0 -7.4481,-2.47844 -7.4481,-5.53575c0,-3.05731 3.33463,-5.53575 7.4481,-5.53575z" data-paper-data="{&quot;index&quot;:null}" fill="#181818" stroke="#000000" stroke-width="2" stroke-linecap="butt"/><path d="M265.83399,213.94128c4.94728,0 6.34095,2.65869 6.34095,5.93835c0,3.27966 -4.01056,5.93835 -8.95785,5.93835c-4.94728,0 -8.95785,-0.84699 -8.95785,-4.12665c0,-1.26666 3.40667,-7.75005 11.57475,-7.75005z" data-paper-data="{&quot;index&quot;:null}" fill="#181818" stroke="#000000" stroke-width="2" stroke-linecap="butt"/><path d="M245.30765,180.17028l11.57427,10.49042l-5.66232,2.87669l0.75253,8.38448l-14.64385,-10.36226l6.67928,-3.66174z" fill="#0e0e0e" stroke="#000000" stroke-width="2" stroke-linecap="round"/><path d="M204.84249,167.9293c2.3098,-6.14409 26.09768,-7.33151 27.36956,-5.13463c2.48426,4.29104 1.77246,9.44786 3.25499,17.35033c0.29052,1.54857 41.00512,-8.61169 42.99497,1.29394c2.63039,13.09428 -40.41831,12.44066 -40.0609,14.34582c1.72061,9.17151 4.03595,15.23181 3.57591,19.06093c-0.30572,2.54466 -24.26025,8.6751 -27.36956,5.13463c-7.28514,-8.29537 -17.03793,-32.705 -9.76496,-52.05103z" fill="url(#color-1)" stroke="none" stroke-width="0" stroke-linecap="butt"/></g></g></svg>