<svg version="1.1" xmlns="http://www.w3.org/2000/svg" xmlns:xlink="http://www.w3.org/1999/xlink" width="93.44735" height="91.70043" viewBox="0,0,93.44735,91.70043"><defs><linearGradient x1="256.64801" y1="183.04674" x2="256.64801" y2="194.98091" gradientUnits="userSpaceOnUse" id="color-1"><stop offset="0" stop-color="#ff0000"/><stop offset="1" stop-color="#ff0000" stop-opacity="0"/></linearGradient><linearGradient x1="261.4329" y1="183.89842" x2="199.39045" y2="228.03201" gradientUnits="userSpaceOnUse" id="color-2"><stop offset="0" stop-color="#ff0000" stop-opacity="0"/><stop offset="1" stop-color="#ff0000"/></linearGradient></defs><g transform="translate(-189.33019,-154.69675)"><g data-paper-data="{&quot;isPaintingLayer&quot;:true}" fill-rule="nonzero" stroke-linejoin="miter" stroke-miterlimit="10" stroke-dasharray="" stroke-dashoffset="0" style="mix-blend-mode: normal"><path d="M264.68053,186.7838c0,-2.11232 1.71238,-3.8247 3.8247,-3.8247c2.11232,0 3.8247,1.71238 3.8247,3.8247c0,2.11232 -1.71238,3.8247 -3.8247,3.8247c-2.11232,0 -3.8247,-1.71238 -3.8247,-3.8247z" fill="#181818" stroke="#000000" stroke-width="2" stroke-linecap="butt"/><path d="M233.02465,208.3871l4.59306,-25.14911l7.72296,1.41047l-4.59306,25.14911z" fill="#181818" stroke="#000000" stroke-width="2" stroke-linecap="butt"/><path d="M219.90641,214.34388c4.11347,0 7.4481,2.47844 7.4481,5.53575c0,3.05731 -3.33463,5.53575 -7.4481,5.53575c-4.11347,0 -7.4481,-2.47844 -7.4481,-5.53575c0,-3.05731 3.33463,-5.53575 7.4481,-5.53575z" data-paper-data="{&quot;index&quot;:null}" fill="#181818" stroke="#000000" stroke-width="2" stroke-linecap="butt"/><path d="M258.91935,213.94128c4.94728,0 6.34095,2.65869 6.34095,5.93835c0,3.27966 -4.01056,5.93835 -8.95785,5.93835c-4.94728,0 -8.95785,-0.84699 -8.95785,-4.12665c0,-1.26666 3.40667,-7.75005 11.57475,-7.75005z" data-paper-data="{&quot;index&quot;:null}" fill="#181818" stroke="#000000" stroke-width="2" stroke-linecap="butt"/><path d="M235.80709,181.24424l14.13411,2.88832l-4.44483,3.48574l3.29428,4.89915l-16.98508,-1.87418l5.16037,-4.27595z" fill="#0e0e0e" stroke="#000000" stroke-width="2" stroke-linecap="round"/><path d="M208.63232,197.65548c0,-2.11232 1.71238,-3.8247 3.8247,-3.8247c2.11232,0 3.8247,1.71238 3.8247,3.8247c0,2.11232 -1.71238,3.8247 -3.8247,3.8247c-2.11232,0 -3.8247,-1.71238 -3.8247,-3.8247z" fill="#181818" stroke="#000000" stroke-width="2" stroke-linecap="butt"/><path d="M224.92583,161.35521c0,0 3.00193,-0.60728 5.03682,-0.5057c1.61207,0.08048 6.2022,1.06677 6.2022,1.06677" fill="#181818" stroke="#000000" stroke-width="2" stroke-linecap="round"/><path d="M214.36266,160.75683c0.64558,-2.76047 3.40672,-4.47496 6.1672,-3.82937c2.76047,0.64558 4.47496,3.40672 3.82937,6.1672c-0.64558,2.76047 -3.40672,4.47496 -6.1672,3.82937c-2.76047,-0.64558 -4.47496,-3.40672 -3.82937,-6.1672z" fill="#181818" stroke="#000000" stroke-width="2" stroke-linecap="butt"/><path d="M234.47477,174.85772c0,-9.17193 7.43532,-16.60724 16.60724,-16.60724c9.17193,0 16.60724,7.43532 16.60724,16.60724c0,9.17193 -7.43532,16.60724 -16.60724,16.60724c-9.17193,0 -16.60724,-7.43532 -16.60724,-16.60724z" fill="#181818" stroke="#000000" stroke-width="2" stroke-linecap="butt"/><path d="M248.46768,186.26402v-5.24474c0,0 6.02695,1.72595 8.9956,1.72595c3.10679,0 9.24958,-1.72595 9.24958,-1.72595v5.24474z" fill="#ff0000" stroke="#000000" stroke-width="2" stroke-linecap="butt"/><path d="M280.94872,194.98091l-48.60142,-0.04536l18.91274,-11.20467c0,0 3.43407,0.59831 6.4332,0.60395c2.79147,0.00525 6.74656,-0.47347 6.74656,-0.47347z" data-paper-data="{&quot;index&quot;:null}" fill="url(#color-1)" stroke="#000000" stroke-width="0" stroke-linecap="butt"/><path d="M189.33827,203.08122c-0.48043,-6.54631 20.6155,-17.60231 22.69158,-16.14154c4.05507,2.85324 5.572,7.83304 10.23258,14.38483c0.91329,1.28389 33.61109,-25.01751 39.57244,-16.86011c7.88033,10.78329 -31.47229,28.2472 -30.3487,29.82673c5.40902,7.60393 10.05288,12.13411 11.24143,15.80305c0.78986,2.43822 -18.38394,18.05126 -22.69158,16.14154c-10.09284,-4.47448 -29.18505,-22.54198 -30.69775,-43.15452z" fill="url(#color-2)" stroke="none" stroke-width="0" stroke-linecap="butt"/><g stroke="#000000" stroke-width="2"><g><path d="M233.72808,178.29027l2.2434,-17.82882c0,0 11.34062,4.49088 17.04853,5.32644c5.99381,0.87741 18.09853,-0.1814 18.09853,-0.1814l-2.2434,17.82882c0,0 -12.16873,0.24064 -17.9986,-0.61276c-5.88528,-0.86152 -17.14846,-4.53228 -17.14846,-4.53228z" fill="#343434" stroke-linecap="butt"/><path d="M281.77753,184.11085c0,0 -19.9039,0.7259 -29.92654,-0.74127c-10.19187,-1.49194 -30.72549,-8.13735 -30.72549,-8.13735" fill="none" stroke-linecap="round"/></g><path d="M271.68903,163.90017c-0.34493,2.74128 -8.57449,3.79976 -18.38123,2.36419c-9.80674,-1.43557 -17.47704,-4.82157 -17.1321,-7.56285c0.34493,-2.74128 8.57449,-3.79976 18.38122,-2.36419c9.80674,1.43557 17.47705,4.82157 17.13211,7.56285z" fill="#252525" stroke-linecap="butt"/></g></g></g></svg>