<svg version="1.1" xmlns="http://www.w3.org/2000/svg" xmlns:xlink="http://www.w3.org/1999/xlink" width="74.02575" height="93.95836" viewBox="0,0,74.02575,93.95836"><g transform="translate(-219.74342,-133.58818)"><g data-paper-data="{&quot;isPaintingLayer&quot;:true}" fill-rule="nonzero" stroke="#000000" stroke-width="2" stroke-linejoin="miter" stroke-miterlimit="10" stroke-dasharray="" stroke-dashoffset="0" style="mix-blend-mode: normal"><path d="M247.51378,156.08403c-11.56831,5.06762 -17.92233,-2.14466 -5.29113,-7.99466c20.28858,-10.9635 47.26119,5.32054 47.26119,5.32054c0,0 -30.40176,-2.3935 -41.97005,2.67413z" data-paper-data="{&quot;index&quot;:null}" fill="#181818" stroke-linecap="butt"/><path d="M241.09306,206.05177c0,-2.11232 1.71238,-3.8247 3.8247,-3.8247c2.11232,0 3.8247,1.71238 3.8247,3.8247c0,2.11232 -1.71238,3.8247 -3.8247,3.8247c-2.11232,0 -3.8247,-1.71238 -3.8247,-3.8247z" fill="#181818" stroke-linecap="butt"/><path d="M266.10628,160.51456l-0.1619,-5.24224l18.23649,-0.56316l0.1619,5.24224z" fill="#ff0000" stroke-linecap="butt"/><path d="M247.47841,159.11732c0.7903,-9.13782 8.83865,-15.90481 17.97646,-15.11449c9.13782,0.7903 15.90481,8.83865 15.11449,17.97646c-0.7903,9.13782 -8.83865,15.90481 -17.97646,15.11449c-9.13782,-0.7903 -15.90481,-8.83865 -15.11449,-17.97646z" fill="#181818" stroke-linecap="butt"/><path d="M246.71863,202.9367l3.65983,-25.30176l7.76983,1.1239l-3.65983,25.30176z" fill="#181818" stroke-linecap="butt"/><path d="M268.42364,213.94127c4.94728,0 6.34095,2.65869 6.34095,5.93835c0,3.27966 -4.01056,5.93835 -8.95785,5.93835c-4.94728,0 -8.95785,-0.84699 -8.95785,-4.12665c0,-1.26666 3.40667,-7.75005 11.57475,-7.75005z" data-paper-data="{&quot;index&quot;:null}" fill="#181818" stroke-linecap="butt"/><path d="M246.8696,173.71252l14.81152,4.96303l-4.03166,4.90743l4.05441,7.3775l-17.57158,-3.61365l4.64805,-6.03463z" fill="#0e0e0e" stroke-linecap="round"/><g><g><path d="M245.92298,160.96474l-3.49747,-15.00194c0,0 12.0356,-0.33994 17.64583,-1.64787c5.89123,-1.37345 16.8998,-6.40589 16.8998,-6.40589l3.49747,15.00194c0,0 -11.32546,4.40175 -17.05559,5.73765c-5.78457,1.34858 -17.49003,2.31612 -17.49003,2.31612z" fill="#343434" stroke-linecap="butt"/><path d="M292.76918,148.98645c0,0 -18.42025,7.46492 -28.27138,9.76155c-10.01746,2.33541 -31.34274,4.13653 -31.34274,4.13653" fill="none" stroke-linecap="round"/></g><path d="M276.96975,136.3502c0.53776,2.30663 -6.8402,5.9982 -16.47914,8.24537c-9.63893,2.24717 -17.88873,2.19895 -18.4265,-0.10768c-0.53776,-2.30663 6.8402,-5.9982 16.47913,-8.24537c9.63893,-2.24717 17.88875,-2.19896 18.42651,0.10768z" fill="#252525" stroke-linecap="butt"/></g><path d="M237.70714,156.36519c0,0 2.85725,-1.10296 4.88028,-1.34466c1.60269,-0.19148 6.29326,0.0097 6.29326,0.0097" fill="#181818" stroke-linecap="round"/><path d="M227.19357,157.54985c0.17266,-2.82969 2.60655,-4.98367 5.43626,-4.81099c2.82969,0.17266 4.98367,2.60655 4.81099,5.43626c-0.17266,2.82969 -2.60655,4.98367 -5.43626,4.81099c-2.82969,-0.17266 -4.98367,-2.60655 -4.81099,-5.43626z" fill="#181818" stroke-linecap="butt"/><path d="M233.48939,216.95394c3.09839,3.85688 1.89853,6.60847 -0.65827,8.66246c-2.55681,2.054 -7.14126,0.59248 -10.23966,-3.2644c-3.09839,-3.85688 -2.3833,-11.27834 2.77141,-13.83162c5.15471,-2.55327 3.01099,2.06577 8.12652,8.43356z" data-paper-data="{&quot;index&quot;:null}" fill="#181818" stroke-linecap="butt"/></g></g></svg>