<svg version="1.1" xmlns="http://www.w3.org/2000/svg" xmlns:xlink="http://www.w3.org/1999/xlink" width="97.41344" height="67.66139" viewBox="0,0,97.41344,67.66139"><g transform="translate(-201.00379,-157.63019)"><g data-paper-data="{&quot;isPaintingLayer&quot;:true}" fill-rule="nonzero" stroke="#000000" stroke-width="2" stroke-linejoin="miter" stroke-miterlimit="10" stroke-dasharray="" stroke-dashoffset="0" style="mix-blend-mode: normal"><path d="M263.55504,171.19837c0,0 -4.69442,-0.06794 -6.28349,-0.35095c-2.00587,-0.35724 -4.7952,-1.62212 -4.7952,-1.62212" data-paper-data="{&quot;index&quot;:null}" fill="none" stroke-linecap="round"/><path d="M247.51986,162.3989c2.83495,-0.01023 5.14139,2.27966 5.15163,5.11461c0.01023,2.83495 -2.27966,5.14139 -5.11461,5.15163c-2.83495,0.01023 -5.14139,-2.27966 -5.15163,-5.11461c-0.01023,-2.83495 2.27966,-5.14139 5.11461,-5.15163z" data-paper-data="{&quot;index&quot;:null}" fill="#e80000" stroke-linecap="butt"/><path d="M264.20275,175.23743c0,-9.17193 7.43532,-16.60724 16.60724,-16.60724c9.17193,0 16.60724,7.43532 16.60724,16.60724c0,9.17193 -7.43532,16.60724 -16.60724,16.60724c-9.17193,0 -16.60724,-7.43532 -16.60724,-16.60724z" fill="#e80000" stroke-linecap="butt"/><path d="M236.30245,203.66464l19.83772,-16.12572l4.95199,6.0919l-19.83772,16.12572z" fill="#e80000" stroke-linecap="butt"/><path d="M218.02159,192.12317c0,-2.11232 1.71238,-3.8247 3.8247,-3.8247c2.11232,0 3.8247,1.71238 3.8247,3.8247c0,2.11232 -1.71238,3.8247 -3.8247,3.8247c-2.11232,0 -3.8247,-1.71238 -3.8247,-3.8247z" fill="#e80000" stroke-linecap="butt"/><path d="M277.90137,209.7888c3.84347,-3.11501 6.60022,-1.92702 8.66522,0.6209c2.06501,2.54792 0.62327,7.13864 -3.22021,10.25365c-3.84347,3.11501 -7.49253,4.98221 -9.55755,2.43429c-0.79754,-0.98405 -2.23314,-8.16589 4.11252,-13.30885z" data-paper-data="{&quot;index&quot;:null}" fill="#e80000" stroke-linecap="butt"/><path d="M263.12701,173.76041l-1.3957,-5.42329l32.34602,-8.32434l1.3957,5.42328z" fill="#ff2121" stroke-linecap="butt"/><path d="M210.61205,212.91879c-4.03364,2.86449 -6.70933,1.50374 -8.60826,-1.17024c-1.89894,-2.67399 -0.16842,-7.16381 3.86524,-10.0283c4.03364,-2.86449 7.79397,-4.49606 9.69292,-1.82206c0.73339,1.03274 1.70975,8.29128 -4.94988,13.02063z" data-paper-data="{&quot;index&quot;:null}" fill="#e80000" stroke-linecap="butt"/><path d="M256.02741,195.80895c0,-2.11232 1.71238,-3.8247 3.8247,-3.8247c2.11232,0 3.8247,1.71238 3.8247,3.8247c0,2.11232 -1.71238,3.8247 -3.8247,3.8247c-2.11232,0 -3.8247,-1.71238 -3.8247,-3.8247z" fill="#e80000" stroke-linecap="butt"/></g></g></svg>