<svg version="1.1" xmlns="http://www.w3.org/2000/svg" xmlns:xlink="http://www.w3.org/1999/xlink" width="94.20633" height="81.18395" viewBox="0,0,94.20633,81.18395"><g transform="translate(-203.13761,-145.54014)"><g data-paper-data="{&quot;isPaintingLayer&quot;:true}" fill-rule="nonzero" stroke="#000000" stroke-width="2" stroke-linejoin="miter" stroke-miterlimit="10" stroke-dasharray="" stroke-dashoffset="0" style="mix-blend-mode: normal"><path d="M233.00221,206.28554c0,-2.11232 1.71238,-3.8247 3.8247,-3.8247c2.11232,0 3.8247,1.71238 3.8247,3.8247c0,2.11232 -1.71238,3.8247 -3.8247,3.8247c-2.11232,0 -3.8247,-1.71238 -3.8247,-3.8247z" fill="#1d28e8" stroke-linecap="butt"/><path d="M222.67934,217.18284l3.2413,-25.35878l7.78735,0.99536l-3.2413,25.35878z" fill="#1d28e8" stroke-linecap="butt"/><path d="M217.69142,212.07462c0,-2.11232 1.71238,-3.8247 3.8247,-3.8247c2.11232,0 3.8247,1.71238 3.8247,3.8247c0,2.11232 -1.71238,3.8247 -3.8247,3.8247c-2.11232,0 -3.8247,-1.71238 -3.8247,-3.8247z" fill="#1d28e8" stroke-linecap="butt"/><path d="M232.46195,205.83332c3.27698,-3.70634 59.94195,1.84529 62.39896,4.01767c2.45701,2.17238 1.79231,6.93803 -1.48468,10.64438c-3.27698,3.70634 -6.56804,6.1499 -9.02506,3.97752c-0.94894,-0.83901 -57.2996,-12.52031 -51.88922,-18.63957z" data-paper-data="{&quot;index&quot;:null}" fill="#1d28e8" stroke-linecap="butt"/><path d="M235.26002,213.63831c4.91995,-0.51932 6.585,1.97839 6.92927,5.23993c0.34427,3.26154 -3.36505,6.32653 -8.28501,6.84585c-4.91995,0.51932 -8.99727,0.09799 -9.34154,-3.16355c-0.13296,-1.25966 2.57433,-8.06483 10.69728,-8.92223z" data-paper-data="{&quot;index&quot;:null}" fill="#1d28e8" stroke-linecap="butt"/><path d="M223.80468,181.98812c1.16287,-9.09791 9.48089,-15.53052 18.57879,-14.36765c9.09791,1.16287 15.53052,9.48089 14.36765,18.57879c-1.16287,9.09791 -9.48089,15.53052 -18.57879,14.36765c-9.09791,-1.16287 -15.53052,-9.48089 -14.36765,-18.57879z" fill="#1d28e8" stroke-linecap="butt"/><path d="M213.91346,184.36406c0,0 2.57768,-1.65405 4.51102,-2.29693c1.53162,-0.50929 6.16711,-1.25378 6.16711,-1.25378" fill="none" stroke-linecap="round"/><path d="M204.18932,187.47421c-0.39887,-2.80676 1.5531,-5.40544 4.35986,-5.80431c2.80676,-0.39887 5.40544,1.5531 5.80431,4.35986c0.39887,2.80676 -1.5531,5.40544 -4.35986,5.80431c-2.80676,0.39887 -5.40544,-1.5531 -5.80431,-4.35986z" fill="#1d28e8" stroke-linecap="butt"/><path d="M223.70969,181.16434l-8.38085,-21.46597l39.01237,-12.77507l-0.21637,28.50549l20.46379,-3.78071z" fill="#2530ff" stroke-linecap="round"/></g></g></svg>