<svg version="1.1" xmlns="http://www.w3.org/2000/svg" xmlns:xlink="http://www.w3.org/1999/xlink" width="60.80873" height="86.23316" viewBox="0,0,60.80873,86.23316"><g transform="translate(-204.3687,-140.58481)"><g data-paper-data="{&quot;isPaintingLayer&quot;:true}" fill-rule="nonzero" stroke="#000000" stroke-width="2" stroke-linejoin="miter" stroke-miterlimit="10" stroke-dasharray="" stroke-dashoffset="0" style="mix-blend-mode: normal"><path d="M218.09205,163.70968c-2.04718,0.52052 -4.12872,-0.71708 -4.64925,-2.76426c-0.52052,-2.04718 0.71708,-4.12872 2.76426,-4.64925c2.04718,-0.52052 4.12872,0.71708 4.64925,2.76426c0.52052,2.04718 -0.71708,4.12872 -2.76426,4.64925z" data-paper-data="{&quot;index&quot;:null}" fill="#181818" stroke-linecap="butt"/><path d="M215.09802,153.56554c0,0 2.67413,1.49311 4.15273,2.89483c1.17137,1.11047 4.01381,4.84712 4.01381,4.84712" data-paper-data="{&quot;index&quot;:null}" fill="#181818" stroke-linecap="round"/><path d="M207.4688,146.23521c2.28701,-1.67529 5.49908,-1.17943 7.17437,1.10759c1.67529,2.28701 1.17943,5.49908 -1.10759,7.17437c-2.28701,1.67529 -5.49908,1.17943 -7.17437,-1.10759c-1.67529,-2.28701 -1.17943,-5.49908 1.10759,-7.17437z" data-paper-data="{&quot;index&quot;:null}" fill="#181818" stroke-linecap="butt"/><path d="M255.11011,185.87744c-2.11232,0 -3.8247,-1.71238 -3.8247,-3.8247c0,-2.11232 1.71238,-3.8247 3.8247,-3.8247c2.11232,0 3.8247,1.71238 3.8247,3.8247c0,2.11232 -1.71238,3.8247 -3.8247,3.8247z" data-paper-data="{&quot;index&quot;:null}" fill="#181818" stroke-linecap="butt"/><path d="M238.14959,176.50117c-9.17192,0 -16.60724,-7.43531 -16.60724,-16.60724c0,-9.17192 7.43531,-16.60724 16.60724,-16.60724c9.17192,0 16.60724,7.43531 16.60724,16.60724c0,9.17192 -7.43531,16.60724 -16.60724,16.60724z" data-paper-data="{&quot;index&quot;:null}" fill="#181818" stroke-linecap="butt"/><path d="M233.91666,205.61184v-25.56509h7.8507v25.56509z" data-paper-data="{&quot;index&quot;:null}" fill="#181818" stroke-linecap="butt"/><path d="M224.81207,214.34387c4.11347,0 7.4481,2.47844 7.4481,5.53575c0,3.05731 -3.33463,5.53575 -7.4481,5.53575c-4.11347,0 -7.4481,-2.47844 -7.4481,-5.53575c0,-3.05731 3.33463,-5.53575 7.4481,-5.53575z" data-paper-data="{&quot;index&quot;:null}" fill="#181818" stroke-linecap="butt"/><path d="M252.10883,213.94127c4.63999,0 5.9471,2.65869 5.9471,5.93835c0,3.27966 -3.76145,5.93835 -8.40146,5.93835c-4.63999,0 -8.40146,-0.84699 -8.40146,-4.12665c0,-1.26666 3.19507,-7.75005 10.85582,-7.75005z" data-paper-data="{&quot;index&quot;:null}" fill="#181818" stroke-linecap="butt"/><path d="M241.84629,183.24226l4.30818,5.13349l-17.04542,-1.20788l4.12087,-4.22758l-3.74625,-4.22758l14.42305,-0.30197z" data-paper-data="{&quot;index&quot;:null}" fill="#0e0e0e" stroke-linecap="round"/><g data-paper-data="{&quot;index&quot;:null}"><path d="M222.6944,153.64772v-12.06291h30.43885v12.06291z" fill="#343434" stroke-linecap="butt"/><path d="M264.17743,153.64772h-52.52723" fill="none" stroke-linecap="round"/></g><path d="M244.13195,163.80512v-5.24474h14.66748v5.24474z" data-paper-data="{&quot;index&quot;:null}" fill="#00fff9" stroke-linecap="butt"/></g></g></svg>