<svg version="1.1" xmlns="http://www.w3.org/2000/svg" xmlns:xlink="http://www.w3.org/1999/xlink" width="102.01694" height="99.29155" viewBox="0,0,102.01694,99.29155"><g transform="translate(-161.06053,-127.80035)"><g data-paper-data="{&quot;isPaintingLayer&quot;:true}" fill-rule="nonzero" stroke="#000000" stroke-width="2" stroke-linejoin="miter" stroke-miterlimit="10" stroke-dasharray="" stroke-dashoffset="0" style="mix-blend-mode: normal"><path d="M230.56356,212.29406l-12.26574,-22.43046l6.8881,-3.76665l12.26574,22.43046z" data-paper-data="{&quot;index&quot;:null}" fill="#1d28e8" stroke-linecap="butt"/><path d="M220.52427,180.10644c-5.45542,7.37309 -15.855,8.92767 -23.22809,3.47224c-7.37309,-5.45542 -8.92767,-15.855 -3.47224,-23.22809c5.45542,-7.37309 15.855,-8.92767 23.22809,-3.47224c7.37309,5.45542 8.92767,15.855 3.47224,23.22809z" data-paper-data="{&quot;index&quot;:null}" fill="#1d28e8" stroke-linecap="butt"/><path d="M215.65939,156.63363c0,0 3.74488,-2.83159 5.17233,-3.585c1.80186,-0.95101 4.77959,-1.66757 4.77959,-1.66757" data-paper-data="{&quot;index&quot;:null}" fill="none" stroke-linecap="round"/><path d="M233.71668,153.71966c-2.23002,1.75043 -5.45681,1.36164 -7.20724,-0.86838c-1.75043,-2.23002 -1.36164,-5.45681 0.86838,-7.20724c2.23002,-1.75043 5.45681,-1.36164 7.20724,0.86838c1.75043,2.23002 1.36164,5.45681 -0.86838,7.20724z" data-paper-data="{&quot;index&quot;:null}" fill="#1d28e8" stroke-linecap="butt"/><path d="M174.44849,186.38875l16.88883,-12.15845l-20.73003,-19.56721l36.21663,-19.32675l9.69908,20.90345z" data-paper-data="{&quot;index&quot;:null}" fill="#2530ff" stroke-linecap="round"/><path d="M221.4425,221.96525c0,3.27966 -4.01057,4.12665 -8.95785,4.12665c-4.94729,0 -8.95785,-2.65869 -8.95785,-5.93835c0,-3.27966 1.39367,-5.93835 6.34095,-5.93835c8.16808,0 11.57475,6.48339 11.57475,7.75005z" data-paper-data="{&quot;index&quot;:null}" fill="#1d28e8" stroke-linecap="butt"/><path d="M254.62937,214.68624c4.11347,0 7.4481,2.47844 7.4481,5.53575c0,3.05731 -3.33463,5.53575 -7.4481,5.53575c-4.11347,0 -7.4481,-2.47844 -7.4481,-5.53575c0,-3.05731 3.33463,-5.53575 7.4481,-5.53575z" data-paper-data="{&quot;index&quot;:null}" fill="#1d28e8" stroke-linecap="butt"/><g fill="#1d28e8" stroke-linecap="butt"><path d="M170.7362,204.20164c-2.748,0.88969 -5.85945,-0.20713 -6.9496,-2.44981c-0.54296,-1.11701 -8.25054,-43.53133 13.98994,-61.0314c22.41308,-17.63588 74.78295,-10.35588 76.16227,-10.80245c1.48291,-0.4801 -45.10781,3.58492 -67.15483,21.86915c-18.80859,15.5985 -13.54783,45.71039 -13.04597,46.74285c1.09016,2.24267 -0.2538,4.78196 -3.00181,5.67164z" data-paper-data="{&quot;index&quot;:null}"/><path d="M177.73405,209.91265c-2.748,0.88969 -5.85945,-0.20713 -6.9496,-2.44981c-0.54298,-1.11701 -8.25054,-43.53133 13.98993,-61.0314c22.41308,-17.63587 74.78295,-10.35588 76.16227,-10.80245c1.48291,-0.4801 -45.10781,3.58492 -67.15483,21.86915c-18.80859,15.5985 -13.54783,45.71041 -13.04596,46.74285c1.09016,2.24267 -0.2538,4.78196 -3.00181,5.67164z" data-paper-data="{&quot;index&quot;:null}"/></g></g></g></svg>