<svg version="1.1" xmlns="http://www.w3.org/2000/svg" xmlns:xlink="http://www.w3.org/1999/xlink" width="244.73565" height="124.58679" viewBox="0,0,244.73565,124.58679"><defs><radialGradient cx="256.10284" cy="146.52597" r="18.84183" gradientUnits="userSpaceOnUse" id="color-1"><stop offset="0" stop-color="#ffffff"/><stop offset="1" stop-color="#0debff"/></radialGradient><linearGradient x1="385.72661" y1="235.88716" x2="303.87129" y2="135.41142" gradientUnits="userSpaceOnUse" id="color-2"><stop offset="0" stop-color="#fcffff"/><stop offset="1" stop-color="#76f4ff"/></linearGradient></defs><g transform="translate(-202.01833,-103.09918)"><g data-paper-data="{&quot;isPaintingLayer&quot;:true}" fill-rule="nonzero" stroke-linejoin="miter" stroke-miterlimit="10" stroke-dasharray="" stroke-dashoffset="0" style="mix-blend-mode: normal"><path d="M277.03014,167.34194c0,-2.11232 1.71238,-3.8247 3.8247,-3.8247c2.11232,0 3.8247,1.71238 3.8247,3.8247c0,2.11232 -1.71238,3.8247 -3.8247,3.8247c-2.11232,0 -3.8247,-1.71238 -3.8247,-3.8247z" fill="#0debff" stroke="#000000" stroke-width="2" stroke-linecap="butt"/><path d="M276.94102,162.32786l22.09096,-11.52268l3.14294,4.65616l-19.26232,15.71321z" fill="#76f4ff" stroke="#53acb4" stroke-width="1" stroke-linecap="butt"/><path d="M244.33263,208.45934l10.49477,-23.31165l7.15871,3.22279l-10.49477,23.31165z" data-paper-data="{&quot;index&quot;:null}" fill="#0debff" stroke="#000000" stroke-width="2" stroke-linecap="butt"/><path d="M218.21496,189.35772c0,-2.11232 1.71238,-3.8247 3.8247,-3.8247c2.11232,0 3.8247,1.71238 3.8247,3.8247c0,2.11232 -1.71238,3.8247 -3.8247,3.8247c-2.11232,0 -3.8247,-1.71238 -3.8247,-3.8247z" fill="#0debff" stroke="#000000" stroke-width="2" stroke-linecap="butt"/><path d="M222.88335,215.61447c4.11347,0 7.4481,2.47844 7.4481,5.53575c0,3.05731 -3.33463,5.53575 -7.4481,5.53575c-4.11347,0 -7.4481,-2.47844 -7.4481,-5.53575c0,-3.05731 3.33463,-5.53575 7.4481,-5.53575z" data-paper-data="{&quot;index&quot;:null}" fill="#0debff" stroke="#000000" stroke-width="2" stroke-linecap="butt"/><path d="M273.91764,214.19453c4.91629,0.55282 6.00415,3.35059 5.63768,6.60971c-0.36648,3.25912 -4.64901,5.45301 -9.56532,4.9002c-4.91629,-0.55282 -8.8071,-1.84265 -8.44063,-5.10177c0.14154,-1.25873 4.25134,-7.32085 12.36827,-6.40812z" data-paper-data="{&quot;index&quot;:null}" fill="#0debff" stroke="#000000" stroke-width="2" stroke-linecap="butt"/><path d="M257.35359,161.77089c3.32936,-8.54632 12.95649,-12.77551 21.50282,-9.44615c8.54632,3.32936 12.77551,12.95649 9.44615,21.50282c-3.32936,8.54632 -12.95649,12.77551 -21.50282,9.44615c-8.54632,-3.32936 -12.77551,-12.95649 -9.44615,-21.50282z" fill="#0debff" stroke="#000000" stroke-width="2" stroke-linecap="butt"/><path d="M248.23999,162.44654c0,0 2.35158,-1.96225 4.18978,-2.84092c1.45625,-0.6961 5.96292,-2.01219 5.96292,-2.01219" fill="none" stroke="#000000" stroke-width="2" stroke-linecap="round"/><path d="M238.97897,166.74368c-0.74537,-2.73522 0.86771,-5.5568 3.60294,-6.30217c2.73522,-0.74537 5.5568,0.86771 6.30217,3.60294c0.74537,2.73522 -0.86771,5.5568 -3.60294,6.30217c-2.73522,0.74537 -5.5568,-0.86771 -6.30217,-3.60294z" fill="#0debff" stroke="#000000" stroke-width="2" stroke-linecap="butt"/><path d="M253.55804,166.12337l-0.655,-20.79655l29.31695,-6.45506l8.14018,19.14844z" fill="url(#color-1)" stroke="#000000" stroke-width="2" stroke-linecap="butt"/><path d="M388.8437,103.65467c0,0 67.94522,57.40301 56.00193,81.92798c-37.0839,76.15001 -239.13555,20.01296 -239.13555,20.01296c0,0 129.50054,0.23705 127.07089,-19.7697c-2.42965,-20.00675 -35.22523,-37.76274 -35.22523,-37.76274l19.40551,-23.31583z" data-paper-data="{&quot;index&quot;:null}" fill="url(#color-2)" stroke="#53acb4" stroke-width="1" stroke-linecap="butt"/><path d="M318.82266,164.93148l-15.99088,-3.42332l-9.47078,-13.94271l3.16153,-15.67096l8.07551,18.59385z" fill="#76f4ff" stroke="#53acb4" stroke-width="1" stroke-linecap="butt"/></g></g></svg>