<svg version="1.1" xmlns="http://www.w3.org/2000/svg" xmlns:xlink="http://www.w3.org/1999/xlink" width="71.91673" height="103.54458" viewBox="0,0,71.91673,103.54458"><g transform="translate(-177.75354,-133.27347)"><g data-paper-data="{&quot;isPaintingLayer&quot;:true}" fill-rule="nonzero" stroke="#000000" stroke-width="2" stroke-linejoin="miter" stroke-miterlimit="10" stroke-dasharray="" stroke-dashoffset="0" style="mix-blend-mode: normal"><path d="M189.5054,138.58785c-0.29051,-2.09225 1.17009,-4.02387 3.26234,-4.31438c2.09225,-0.29051 4.02386,1.1701 4.31437,3.26235c0.29051,2.09225 -1.17009,4.02386 -3.26234,4.31437c-2.09225,0.29051 -4.02386,-1.17009 -4.31437,-3.26234z" fill="#ffe819" stroke-linecap="butt"/><path d="M207.23417,168.08272c-5.07111,-7.64252 -2.98656,-17.94895 4.65595,-23.02006c7.64252,-5.07111 17.94895,-2.98656 23.02005,4.65595c5.07111,7.64252 2.98657,17.94895 -4.65595,23.02005c-7.64252,5.07111 -17.94895,2.98657 -23.02006,-4.65595z" fill="#ffe819" stroke-linecap="butt"/><path d="M240.83573,205.74163l-6.08083,-24.83138l7.62539,-1.86734l6.08083,24.83138z" fill="#ffe819" stroke-linecap="butt"/><path d="M192.03505,171.92522c0,0 0.52257,-3.01783 1.35511,-4.87739c0.65956,-1.47316 3.24314,-5.39326 3.24314,-5.39326" fill="none" stroke-linecap="round"/><path d="M187.75668,181.19493c-2.33851,-1.60261 -2.93507,-4.79752 -1.33246,-7.13603c1.60261,-2.33851 4.79753,-2.93507 7.13604,-1.33246c2.33851,1.60261 2.93507,4.79752 1.33246,7.13603c-1.60261,2.33851 -4.79753,2.93508 -7.13604,1.33247z" fill="#ffe819" stroke-linecap="butt"/><path d="M240.39161,231.80164c-2.08622,4.4859 -5.08465,4.62846 -8.05846,3.24545c-2.9738,-1.383 -3.69332,-6.14068 -1.6071,-10.62659c2.08622,-4.4859 4.54543,-7.76528 7.51924,-6.38227c1.14853,0.53414 5.59072,6.35708 2.14632,13.76341z" data-paper-data="{&quot;index&quot;:null}" fill="#ffe819" stroke-linecap="butt"/><path d="M203.43439,170.54752l-1.62542,-11.30506l-10.49726,5.0676c0,0 4.78574,-17.33639 13.22992,-23.77301c8.44417,-6.43662 20.9052,-2.24671 20.9052,-2.24671z" data-paper-data="{&quot;index&quot;:null}" fill="#fff067" stroke-linecap="butt"/><path d="M214.22418,220.45115c-4.66108,1.65831 -6.8653,-0.37943 -7.96463,-3.46936c-1.09932,-3.08992 1.78804,-6.93913 6.44913,-8.59744c4.66108,-1.65831 8.72354,-2.20463 9.82287,0.8853c0.42458,1.19339 -0.61182,8.4436 -8.30737,11.1815z" data-paper-data="{&quot;index&quot;:null}" fill="#ffe819" stroke-linecap="butt"/><path d="M178.79036,154.84264c-0.29051,-2.09225 1.17009,-4.02386 3.26234,-4.31437c2.09225,-0.29051 4.02386,1.17009 4.31437,3.26234c0.29051,2.09225 -1.17009,4.02386 -3.26234,4.31437c-2.09225,0.29051 -4.02386,-1.17009 -4.31437,-3.26234z" fill="#ffe819" stroke-linecap="butt"/></g></g></svg>