<svg version="1.1" xmlns="http://www.w3.org/2000/svg" xmlns:xlink="http://www.w3.org/1999/xlink" width="72.85205" height="100.12381" viewBox="0,0,72.85205,100.12381"><g transform="translate(-209.02648,-126.86183)"><g data-paper-data="{&quot;isPaintingLayer&quot;:true}" fill-rule="nonzero" stroke="#000000" stroke-width="2" stroke-linejoin="miter" stroke-miterlimit="10" stroke-dasharray="" stroke-dashoffset="0" style="mix-blend-mode: normal"><path d="M230.51503,205.92945c0,-2.11232 1.71238,-3.8247 3.8247,-3.8247c2.11232,0 3.8247,1.71238 3.8247,3.8247c0,2.11232 -1.71238,3.8247 -3.8247,3.8247c-2.11232,0 -3.8247,-1.71238 -3.8247,-3.8247z" fill="#1d28e8" stroke-linecap="butt"/><path d="M236.53397,206.26661v-25.56509h7.8507v25.56509z" fill="#1d28e8" stroke-linecap="butt"/><path d="M222.10038,207.24028c0,-2.11232 1.71238,-3.8247 3.8247,-3.8247c2.11232,0 3.8247,1.71238 3.8247,3.8247c0,2.11232 -1.71238,3.8247 -3.8247,3.8247c-2.11232,0 -3.8247,-1.71238 -3.8247,-3.8247z" fill="#1d28e8" stroke-linecap="butt"/><path d="M229.28717,214.68624c4.11347,0 7.4481,2.47844 7.4481,5.53575c0,3.05731 -3.33463,5.53575 -7.4481,5.53575c-4.11347,0 -7.4481,-2.47844 -7.4481,-5.53575c0,-3.05731 3.33463,-5.53575 7.4481,-5.53575z" data-paper-data="{&quot;index&quot;:null}" fill="#1d28e8" stroke-linecap="butt"/><path d="M256.61273,213.95516c4.9352,-0.34551 6.51115,2.20936 6.7402,5.48101c0.22905,3.27166 -3.58604,6.20395 -8.52125,6.54946c-4.9352,0.34551 -8.99513,-0.21931 -9.22418,-3.49097c-0.08847,-1.26357 2.8571,-7.96904 11.00524,-8.5395z" data-paper-data="{&quot;index&quot;:null}" fill="#1d28e8" stroke-linecap="butt"/><path d="M230.15793,159.28042c2.24132,-8.89387 11.26818,-14.2868 20.16203,-12.04548c8.89387,2.24132 14.2868,11.26818 12.04548,20.16203c-2.24132,8.89387 -11.26818,14.2868 -20.16203,12.04548c-8.89387,-2.24132 -14.2868,-11.26818 -12.04548,-20.16203z" fill="#1d28e8" stroke-linecap="butt"/><path d="M220.05371,160.45779c0,0 2.75681,-1.3343 4.7531,-1.74162c1.58149,-0.32268 6.27272,-0.50812 6.27272,-0.50812" fill="none" stroke-linecap="round"/><path d="M210.02768,162.38409c-0.06074,-2.83431 2.18768,-5.18121 5.022,-5.24195c2.83431,-0.06074 5.18121,2.18768 5.24195,5.022c0.06074,2.83431 -2.18768,5.18121 -5.022,5.24195c-2.83431,0.06074 -5.18121,-2.18768 -5.24195,-5.022z" fill="#1d28e8" stroke-linecap="butt"/><path d="M230.16202,158.45119l-5.75665,-22.31339l40.25907,-8.02343l-3.61991,28.27554l20.76889,-1.30916z" fill="#2530ff" stroke-linecap="round"/></g></g></svg>