<svg version="1.1" xmlns="http://www.w3.org/2000/svg" xmlns:xlink="http://www.w3.org/1999/xlink" width="58.7895" height="86.19726" viewBox="0,0,58.7895,86.19726"><g transform="translate(-204.63399,-142.02484)"><g data-paper-data="{&quot;isPaintingLayer&quot;:true}" fill-rule="nonzero" stroke="#000000" stroke-width="2" stroke-linejoin="miter" stroke-miterlimit="10" stroke-dasharray="" stroke-dashoffset="0" style="mix-blend-mode: normal"><path d="M209.12635,192.38462l12.03167,-22.55688l6.92693,3.69476l-12.03168,22.55688z" fill="#181818" stroke-linecap="butt"/><path d="M224.50225,180.18136l-0.96981,6.71013l-10.2024,-17.13551l5.78814,1.91553l0.66963,-5.71845l9.60587,13.84684z" data-paper-data="{&quot;index&quot;:null}" fill="#0e0e0e" stroke-linecap="round"/><path d="M212.88017,156.30321c0.67676,2.00096 -0.39672,4.17172 -2.3977,4.84848c-2.00096,0.67676 -4.17172,-0.39672 -4.84848,-2.3977c-0.67676,-2.00096 0.39672,-4.17172 2.3977,-4.84848c2.00096,-0.67676 4.17172,0.39672 4.84848,2.3977z" fill="#181818" stroke-linecap="butt"/><path d="M245.97541,148.77439c0,0 2.35487,1.95831 3.55124,3.60748c0.94777,1.30651 3.05651,5.50119 3.05651,5.50119" data-paper-data="{&quot;index&quot;:null}" fill="#181818" stroke-linecap="round"/><path d="M248.00692,143.02484c2.64084,1.03098 3.94593,4.00757 2.91493,6.64842c-1.03098,2.64084 -4.00758,3.94594 -6.64842,2.91493c-2.64084,-1.03098 -3.94593,-4.00757 -2.91493,-6.64842c1.03098,-2.64084 4.00758,-3.94594 6.64842,-2.91493z" data-paper-data="{&quot;index&quot;:null}" fill="#181818" stroke-linecap="butt"/><path d="M239.01915,158.06507c9.08566,-1.2551 17.46849,5.09281 18.72359,14.17844c1.2551,9.08566 -5.0928,17.46849 -14.17843,18.72359c-9.08566,1.2551 -17.46849,-5.09281 -18.72359,-14.17844c-1.2551,-9.08566 5.0928,-17.46849 14.17843,-18.72359z" fill="#181818" stroke-linecap="butt"/><path d="M232.88155,174.396l5.1954,-0.71771c0,0 -1.59515,4.9444 -0.88865,10.05876c0.70651,5.11437 3.54297,9.15556 3.54297,9.15556l-5.1954,0.71771z" fill="#ff0000" stroke-linecap="butt"/><g><path d="M246.29161,158.96587l11.94943,-1.65073l4.05502,29.35403l-11.94943,1.65071z" fill="#343434" stroke-linecap="butt"/><path d="M251.81793,198.97052l-6.9976,-50.65522" fill="none" stroke-linecap="round"/></g><path d="M219.71555,146.72087c0.67676,2.00096 -0.39672,4.17172 -2.3977,4.84848c-2.00096,0.67676 -4.17172,-0.39672 -4.84848,-2.3977c-0.67676,-2.00096 0.39672,-4.17172 2.3977,-4.84848c2.00096,-0.67676 4.17172,0.39672 4.84848,2.3977z" fill="#181818" stroke-linecap="butt"/><path d="M240.49706,203.88429c4.47541,2.10865 4.60296,5.10774 3.20508,8.07459c-1.39785,2.96684 -6.15909,3.66258 -10.6345,1.55392c-4.47541,-2.10865 -7.74244,-4.58423 -6.34457,-7.55108c0.53988,-1.14583 6.38497,-5.55885 13.77399,-2.07745z" data-paper-data="{&quot;index&quot;:null}" fill="#181818" stroke-linecap="butt"/><path d="M239.59975,216.25098c4.58424,1.86021 4.87595,4.84782 3.64277,7.88681c-1.23318,3.039 -5.94912,3.99457 -10.53335,2.13437c-4.58424,-1.86021 -7.98202,-4.15304 -6.74884,-7.19203c0.47628,-1.17371 6.07074,-5.9004 13.63945,-2.82914z" data-paper-data="{&quot;index&quot;:null}" fill="#181818" stroke-linecap="butt"/></g></g></svg>