<svg version="1.1" xmlns="http://www.w3.org/2000/svg" xmlns:xlink="http://www.w3.org/1999/xlink" width="98.76295" height="88.31132" viewBox="0,0,98.76295,88.31132"><g transform="translate(-198.4323,-134.78124)"><g data-paper-data="{&quot;isPaintingLayer&quot;:true}" fill-rule="nonzero" stroke="#000000" stroke-width="2" stroke-linejoin="miter" stroke-miterlimit="10" stroke-dasharray="" stroke-dashoffset="0" style="mix-blend-mode: normal"><path d="M252.67446,181.42973l-20.68136,15.02848l-4.61505,-6.35097l20.68137,-15.02848z" fill="#181818" stroke-linecap="butt"/><path d="M235.46881,183.10783l3.80537,-5.6112l1.68582,19.8714l-4.36856,-4.25294l-3.10191,4.85049l-2.58685,-16.6528z" data-paper-data="{&quot;index&quot;:null}" fill="#0e0e0e" stroke-linecap="round"/><path d="M242.61227,217.6451c-1.46545,-1.5213 -1.42018,-3.94255 0.10112,-5.408c1.5213,-1.46545 3.94255,-1.42018 5.408,0.10112c1.46545,1.5213 1.42018,3.94255 -0.10112,5.408c-1.5213,1.46545 -3.94255,1.42018 -5.408,-0.10112z" fill="#181818" stroke-linecap="butt"/><path d="M222.02344,212.87646c0,0 -2.12434,-2.20625 -3.13139,-3.97739c-0.79779,-1.40313 -2.43069,-5.80492 -2.43069,-5.80492" data-paper-data="{&quot;index&quot;:null}" fill="#181818" stroke-linecap="round"/><path d="M219.36976,218.36667c-2.51093,-1.31615 -3.47951,-4.41859 -2.16335,-6.92952c1.31615,-2.51093 4.4186,-3.47952 6.92952,-2.16335c2.51093,1.31615 3.47951,4.41859 2.16335,6.92952c-1.31615,2.51093 -4.4186,3.47952 -6.92952,2.16335z" data-paper-data="{&quot;index&quot;:null}" fill="#181818" stroke-linecap="butt"/><path d="M228.30928,200.68225c-8.64159,3.07366 -18.13866,-1.44004 -21.21231,-10.0816c-3.07366,-8.64159 1.44004,-18.13866 10.0816,-21.21231c8.64159,-3.07366 18.13866,1.44004 21.21231,10.0816c3.07366,8.64159 -1.44004,18.13866 -10.0816,21.21231z" fill="#181818" stroke-linecap="butt"/><path d="M237.27511,147.21481c-4.8672,-0.88652 -5.76191,-3.75189 -5.17423,-6.97846c0.58768,-3.22657 5.00975,-5.12359 9.87696,-4.23709c2.08337,0.37947 34.64085,8.97047 45.31402,25.85964c14.26164,22.56757 7.19403,55.19084 6.8579,57.03631c-0.12825,0.70413 -1.78949,-29.88282 -16.76492,-49.86182c-11.52772,-15.37933 -36.61446,-21.18195 -40.10972,-21.81856z" data-paper-data="{&quot;index&quot;:null}" fill="#181818" stroke-linecap="butt"/><path d="M231.00331,183.44532l-4.94147,1.7576c0,0 -2.17256,-10.83922 -2.66211,-13.17777c-0.5493,-2.62401 -3.83807,-5.09743 -3.83807,-5.09743l4.94147,-1.7576z" fill="#ff0000" stroke-linecap="butt"/><g><path d="M221.0054,201.27677l-11.36539,4.04248l-9.93042,-27.91933l11.3654,-4.04247z" fill="#343434" stroke-linecap="butt"/><path d="M207.4719,163.22738l17.13656,48.17941" fill="none" stroke-linecap="round"/></g><path d="M234.69888,218.87334c-1.46545,-1.5213 -1.42018,-3.94255 0.10112,-5.408c1.5213,-1.46545 3.94255,-1.42018 5.408,0.10112c1.46545,1.5213 1.42018,3.94255 -0.10112,5.408c-1.5213,1.46545 -3.94255,1.42018 -5.408,-0.10112z" fill="#181818" stroke-linecap="butt"/><path d="M251.38124,154.48318c-4.26297,-2.51051 -4.11471,-5.50867 -2.45044,-8.33468c1.66427,-2.82602 6.46926,-3.08178 10.73224,-0.57128c1.68548,0.9926 17.16169,8.53407 22.96037,22.52676c8.86752,21.39802 8.6047,52.2799 7.59843,53.98859c-0.37829,0.64235 -4.67205,-24.25484 -15.05255,-43.39202c-7.2575,-13.37972 -20.89202,-22.51184 -23.78807,-24.21736z" data-paper-data="{&quot;index&quot;:null}" fill="#181818" stroke-linecap="butt"/></g></g></svg>