<svg version="1.1" xmlns="http://www.w3.org/2000/svg" xmlns:xlink="http://www.w3.org/1999/xlink" width="107.02068" height="84.64515" viewBox="0,0,107.02068,84.64515"><g transform="translate(-193.80919,-139.16179)"><g data-paper-data="{&quot;isPaintingLayer&quot;:true}" fill-rule="nonzero" stroke="#000000" stroke-width="2" stroke-linejoin="miter" stroke-miterlimit="10" stroke-dasharray="" stroke-dashoffset="0" style="mix-blend-mode: normal"><path d="M248.34571,204.51696l-15.97438,-19.95978l6.12939,-4.90552l15.97437,19.95978z" fill="#2d6a2b" stroke-linecap="butt"/><path d="M260.6935,177.13662c0,-2.11232 1.71238,-3.8247 3.8247,-3.8247c2.11232,0 3.8247,1.71238 3.8247,3.8247c0,2.11232 -1.71238,3.8247 -3.8247,3.8247c-2.11232,0 -3.8247,-1.71238 -3.8247,-3.8247z" fill="#2d6a2b" stroke-linecap="butt"/><path d="M265.59215,208.81772c4.6393,1.71827 5.02281,4.6955 3.88373,7.77099c-1.13908,3.07549 -5.8234,4.17574 -10.46269,2.45746c-4.6393,-1.71827 -8.10602,-3.90548 -6.96694,-6.98097c0.43993,-1.18781 5.88633,-6.0844 13.54591,-3.24748z" data-paper-data="{&quot;index&quot;:null}" fill="#2d6a2b" stroke-linecap="butt"/><path d="M214.65608,160.27523c0.06464,-9.1717 7.55219,-16.55442 16.72387,-16.48978c9.1717,0.06464 16.55442,7.55219 16.48978,16.72387c-0.06464,9.1717 -7.55219,16.55442 -16.72387,16.48978c-9.1717,-0.06464 -16.55442,-7.55219 -16.48978,-16.72387z" fill="#2d6a2b" stroke-linecap="butt"/><path d="M223.71789,141.95734c14.881,-5.4496 25.06497,3.2437 25.06497,3.2437l-37.75647,15.95448c0,0 -3.308,-13.33896 12.6915,-19.19818z" fill="#367e33" stroke-linecap="round"/><path d="M204.886,148.41392c0,0 2.79369,-1.25527 4.80077,-1.6056c1.59004,-0.27754 6.28464,-0.32932 6.28464,-0.32932" fill="none" stroke-linecap="round"/><path d="M194.80919,150.05398c0.01999,-2.83489 2.33431,-5.11682 5.1692,-5.09684c2.83489,0.01999 5.11682,2.33431 5.09684,5.1692c-0.01999,2.83489 -2.33431,5.11682 -5.1692,5.09684c-2.83489,-0.01999 -5.11682,-2.33431 -5.09684,-5.1692z" fill="#2d6a2b" stroke-linecap="butt"/><path d="M200.01933,191.51556c0,-2.11232 1.71238,-3.8247 3.8247,-3.8247c2.11232,0 3.8247,1.71238 3.8247,3.8247c0,2.11232 -1.71238,3.8247 -3.8247,3.8247c-2.11232,0 -3.8247,-1.71238 -3.8247,-3.8247z" fill="#2d6a2b" stroke-linecap="butt"/><path d="M289.90918,208.19826c3.5301,-3.46612 6.38725,-2.54544 8.68502,-0.20526c2.29777,2.34018 1.29875,7.04712 -2.23135,10.51323c-3.5301,3.46612 -6.98523,5.67159 -9.28299,3.33141c-0.88744,-0.90382 -2.99895,-7.91676 2.82933,-13.63939z" data-paper-data="{&quot;index&quot;:null}" fill="#2d6a2b" stroke-linecap="butt"/></g></g></svg>