<svg version="1.1" xmlns="http://www.w3.org/2000/svg" xmlns:xlink="http://www.w3.org/1999/xlink" width="84.16971" height="102.13749" viewBox="0,0,84.16971,102.13749"><g transform="translate(-212.83446,-125.25789)"><g data-paper-data="{&quot;isPaintingLayer&quot;:true}" fill-rule="nonzero" stroke="#000000" stroke-width="2" stroke-linejoin="miter" stroke-miterlimit="10" stroke-dasharray="" stroke-dashoffset="0" style="mix-blend-mode: normal"><path d="M232.56354,155.88018c2.67663,-8.77269 11.95812,-13.71451 20.7308,-11.03789c8.77269,2.67663 13.71451,11.95812 11.03789,20.7308c-2.67663,8.77269 -11.95812,13.71451 -20.7308,11.03789c-8.77269,-2.67663 -13.71451,-11.95812 -11.03789,-20.7308z" fill="#1d28e8" stroke-linecap="butt"/><path d="M233.46649,204.0255l3.30004,-25.3512l7.78502,1.0134l-3.30004,25.3512z" fill="#1d28e8" stroke-linecap="butt"/><path d="M216.95572,182.22977c0.34754,-2.08353 2.31833,-3.49083 4.40187,-3.14329c2.08353,0.34754 3.49083,2.31833 3.14329,4.40187c-0.34754,2.08353 -2.31833,3.49083 -4.40187,3.14329c-2.08353,-0.34754 -3.49083,-2.31833 -3.14329,-4.40187z" fill="#1d28e8" stroke-linecap="butt"/><path d="M224.14348,156.55873c0,0 2.81918,-1.1969 4.83311,-1.50543c1.59547,-0.24441 6.29014,-0.19858 6.29014,-0.19858" data-paper-data="{&quot;index&quot;:null}" fill="none" stroke-linecap="round"/><path d="M214.03476,157.98892c0.07893,-2.83386 2.4402,-5.06719 5.27406,-4.98826c2.83386,0.07893 5.06719,2.4402 4.98826,5.27406c-0.07893,2.83386 -2.4402,5.06719 -5.27406,4.98826c-2.83386,-0.07893 -5.06719,-2.4402 -4.98826,-5.27406z" data-paper-data="{&quot;index&quot;:null}" fill="#1d28e8" stroke-linecap="butt"/><path d="M227.55543,218.20006c1.99207,4.52848 0.11963,6.87474 -2.88241,8.19532c-3.00204,1.32058 -7.05056,-1.27993 -9.04264,-5.80842c-1.99207,-4.52848 -2.83168,-8.54062 0.17036,-9.86121c1.15944,-0.51003 8.46573,-0.00235 11.75469,7.4743z" data-paper-data="{&quot;index&quot;:null}" fill="#1d28e8" stroke-linecap="butt"/><path d="M232.60847,155.05216l-4.65076,-22.56982l40.60536,-6.03097l-5.00806,28.06295l20.80816,-0.28472z" fill="#2530ff" stroke-linecap="round"/><path d="M265.45747,200.82961c4.82135,-1.10912 6.77559,1.16945 7.51085,4.36563c0.73525,3.19618 -2.57717,6.6863 -7.39854,7.79543c-4.82135,1.10912 -8.91972,1.1828 -9.65498,-2.01338c-0.28397,-1.23442 1.5825,-8.31651 9.54267,-10.14769z" data-paper-data="{&quot;index&quot;:null}" fill="#1d28e8" stroke-linecap="butt"/><path d="M288.40629,170.39311c0.34754,-2.08353 2.31833,-3.49083 4.40187,-3.14329c2.08353,0.34754 3.49083,2.31833 3.14329,4.40187c-0.34754,2.08353 -2.31833,3.49083 -4.40187,3.14329c-2.08353,-0.34754 -3.49083,-2.31833 -3.14329,-4.40187z" fill="#1d28e8" stroke-linecap="butt"/></g></g></svg>