<svg version="1.1" xmlns="http://www.w3.org/2000/svg" xmlns:xlink="http://www.w3.org/1999/xlink" width="57.0462" height="95.34769" viewBox="0,0,57.0462,95.34769"><defs><linearGradient x1="203.22289" y1="167.37076" x2="203.22289" y2="173.37363" gradientUnits="userSpaceOnUse" id="color-1"><stop offset="0" stop-color="#ffffff"/><stop offset="1" stop-color="#bababa"/></linearGradient><linearGradient x1="194.52807" y1="171.66852" x2="194.52807" y2="181.93754" gradientUnits="userSpaceOnUse" id="color-2"><stop offset="0" stop-color="#eaeaea"/><stop offset="1" stop-color="#a1a1a1"/></linearGradient><linearGradient x1="224.00782" y1="156.3661" x2="224.00782" y2="189.58058" gradientUnits="userSpaceOnUse" id="color-3"><stop offset="0" stop-color="#eaeaea"/><stop offset="1" stop-color="#a1a1a1"/></linearGradient><linearGradient x1="223.20262" y1="193.12616" x2="223.20262" y2="218.69125" gradientUnits="userSpaceOnUse" id="color-4"><stop offset="0" stop-color="#eaeaea"/><stop offset="1" stop-color="#a1a1a1"/></linearGradient><linearGradient x1="217.26428" y1="202.78856" x2="217.26428" y2="210.43796" gradientUnits="userSpaceOnUse" id="color-5"><stop offset="0" stop-color="#eaeaea"/><stop offset="1" stop-color="#a1a1a1"/></linearGradient><linearGradient x1="234.34226" y1="211.81455" x2="234.34226" y2="219.46395" gradientUnits="userSpaceOnUse" id="color-6"><stop offset="0" stop-color="#eaeaea"/><stop offset="1" stop-color="#a1a1a1"/></linearGradient><linearGradient x1="212.03047" y1="227.11088" x2="212.03047" y2="238.18238" gradientUnits="userSpaceOnUse" id="color-7"><stop offset="0" stop-color="#eaeaea"/><stop offset="1" stop-color="#a1a1a1"/></linearGradient><linearGradient x1="235.48191" y1="226.70828" x2="235.48191" y2="238.58498" gradientUnits="userSpaceOnUse" id="color-8"><stop offset="0" stop-color="#eaeaea"/><stop offset="1" stop-color="#a1a1a1"/></linearGradient><linearGradient x1="223.7373" y1="150.90095" x2="223.7373" y2="167.49293" gradientUnits="userSpaceOnUse" id="color-9"><stop offset="0" stop-color="#d8d8d8"/><stop offset="1" stop-color="#a5a5a5"/></linearGradient></defs><g transform="translate(-188.39356,-144.23729)"><g data-paper-data="{&quot;isPaintingLayer&quot;:true}" fill-rule="nonzero" stroke="#000000" stroke-width="2" stroke-linejoin="miter" stroke-miterlimit="10" stroke-dasharray="" stroke-dashoffset="0" style="mix-blend-mode: normal"><path d="M198.4638,173.37363c0,0 2.10697,-2.22284 3.83029,-3.3097c1.36524,-0.86102 5.68789,-2.69317 5.68789,-2.69317" fill="url(#color-1)" stroke-linecap="round"/><path d="M189.76648,178.72044c-1.05895,-2.62976 0.21443,-5.62005 2.84419,-6.679c2.62976,-1.05895 5.62005,0.21443 6.679,2.84419c1.05895,2.62976 -0.21443,5.62005 -2.84419,6.679c-2.62976,1.05895 -5.62005,-0.21443 -6.679,-2.84419z" fill="url(#color-2)" stroke-linecap="butt"/><path d="M207.40058,172.97334c0,-9.17193 7.43532,-16.60724 16.60724,-16.60724c9.17193,0 16.60724,7.43532 16.60724,16.60724c0,9.17193 -7.43532,16.60724 -16.60724,16.60724c-9.17193,0 -16.60724,-7.43532 -16.60724,-16.60724z" fill="url(#color-3)" stroke-linecap="butt"/><path d="M219.27727,218.69125v-25.56509h7.8507v25.56509z" fill="url(#color-4)" stroke-linecap="butt"/><path d="M213.43958,206.61326c0,-2.11232 1.71238,-3.8247 3.8247,-3.8247c2.11232,0 3.8247,1.71238 3.8247,3.8247c0,2.11232 -1.71238,3.8247 -3.8247,3.8247c-2.11232,0 -3.8247,-1.71238 -3.8247,-3.8247z" fill="url(#color-5)" stroke-linecap="butt"/><path d="M230.51756,215.63925c0,-2.11232 1.71238,-3.8247 3.8247,-3.8247c2.11232,0 3.8247,1.71238 3.8247,3.8247c0,2.11232 -1.71238,3.8247 -3.8247,3.8247c-2.11232,0 -3.8247,-1.71238 -3.8247,-3.8247z" fill="url(#color-6)" stroke-linecap="butt"/><path d="M212.03047,227.11088c4.11347,0 7.4481,2.47844 7.4481,5.53575c0,3.05731 -3.33463,5.53575 -7.4481,5.53575c-4.11347,0 -7.4481,-2.47844 -7.4481,-5.53575c0,-3.05731 3.33463,-5.53575 7.4481,-5.53575z" data-paper-data="{&quot;index&quot;:null}" fill="url(#color-7)" stroke-linecap="butt"/><path d="M238.09881,226.70828c4.94728,0 6.34095,2.65869 6.34095,5.93835c0,3.27966 -4.01056,5.93835 -8.95785,5.93835c-4.94728,0 -8.95785,-0.84699 -8.95785,-4.12665c0,-1.26666 3.40667,-7.75005 11.57475,-7.75005z" data-paper-data="{&quot;index&quot;:null}" fill="url(#color-8)" stroke-linecap="butt"/><g><path d="M208.5722,167.49293l-0.68333,-15.54137l8.54631,8.73032l8.17929,-14.39746l8.00453,14.51219l7.83539,-9.29285l-0.83995,15.98915z" fill="url(#color-9)" stroke-linecap="round"/><path d="M235.12637,163.29474c0,-1.56527 1.20226,-5.24278 2.68532,-5.24278c1.48306,0 2.68532,3.67752 2.68532,5.24278c0,1.56527 -1.20226,2.83417 -2.68532,2.83417c-1.48306,0 -2.68532,-1.26891 -2.68532,-2.83417z" fill="#ffffff" stroke-linecap="butt"/></g></g></g></svg>