<svg version="1.1" xmlns="http://www.w3.org/2000/svg" xmlns:xlink="http://www.w3.org/1999/xlink" width="119.46044" height="125.0634" viewBox="0,0,119.46044,125.0634"><g transform="translate(-144.53794,-102.02162)"><g data-paper-data="{&quot;isPaintingLayer&quot;:true}" fill-rule="nonzero" stroke-linejoin="miter" stroke-miterlimit="10" stroke-dasharray="" stroke-dashoffset="0" style="mix-blend-mode: normal"><path d="M236.6849,197.73096l0.21407,-25.56419l7.85043,0.06574l-0.21407,25.56419z" data-paper-data="{&quot;index&quot;:null}" fill="#2d6a2b" stroke="#000000" stroke-width="2" stroke-linecap="butt"/><path d="M196.96739,134.92154c-0.47794,-2.05754 0.80258,-4.11296 2.86012,-4.5909c2.05754,-0.47794 4.11296,0.80258 4.5909,2.86012c0.47794,2.05754 -0.80258,4.11296 -2.86012,4.5909c-2.05754,0.47794 -4.11296,-0.80258 -4.5909,-2.86012z" fill="#2d6a2b" stroke="#000000" stroke-width="2" stroke-linecap="butt"/><path d="M198.53264,130.99553c-0.47794,-2.05754 0.80258,-4.11296 2.86012,-4.5909c2.05754,-0.47794 4.11296,0.80258 4.5909,2.86012c0.47794,2.05754 -0.80258,4.11296 -2.86012,4.5909c-2.05754,0.47794 -4.11296,-0.80258 -4.5909,-2.86012z" fill="#2d6a2b" stroke="#000000" stroke-width="2" stroke-linecap="butt"/><path d="M256.65743,214.20831c4.94728,0 6.34095,2.65869 6.34095,5.93835c0,3.27966 -4.01057,5.93835 -8.95785,5.93835c-4.94728,0 -8.95785,-0.84699 -8.95785,-4.12665c0,-1.26666 3.40667,-7.75005 11.57475,-7.75005z" data-paper-data="{&quot;index&quot;:null}" fill="#2d6a2b" stroke="#000000" stroke-width="2" stroke-linecap="butt"/><path d="M220.59048,214.61091c4.11347,0 7.4481,2.47844 7.4481,5.53575c0,3.05731 -3.33463,5.53575 -7.4481,5.53575c-4.11347,0 -7.4481,-2.47844 -7.4481,-5.53575c0,-3.05731 3.33463,-5.53575 7.4481,-5.53575z" data-paper-data="{&quot;index&quot;:null}" fill="#2d6a2b" stroke="#000000" stroke-width="2" stroke-linecap="butt"/><path d="M218.37424,154.23945c-1.64125,-9.02389 4.34357,-17.66969 13.36745,-19.31093c9.02389,-1.64125 17.66969,4.34357 19.31093,13.36745c1.64125,9.02389 -4.34357,17.66969 -13.36745,19.31093c-9.02389,1.64125 -17.66969,-4.34357 -19.31093,-13.36745z" fill="#2d6a2b" stroke="#000000" stroke-width="2" stroke-linecap="butt"/><path d="M223.87335,134.55643c13.60875,-8.1206 25.23109,-1.47171 25.23109,-1.47171l-34.13302,22.69434c0,0 -5.7297,-12.49164 8.90193,-21.22263z" fill="#367e33" stroke="#000000" stroke-width="2" stroke-linecap="round"/><path d="M206.56972,144.40083c0,0 2.51169,-1.75266 4.41867,-2.46994c1.51074,-0.56824 6.11392,-1.49173 6.11392,-1.49173" fill="none" stroke="#000000" stroke-width="2" stroke-linecap="round"/><path d="M196.97337,147.88531c-0.50729,-2.7892 1.34256,-5.46154 4.13176,-5.96884c2.7892,-0.50729 5.46154,1.34256 5.96884,4.13176c0.50729,2.7892 -1.34256,5.46154 -4.13176,5.96884c-2.7892,0.50729 -5.46154,-1.34256 -5.96884,-4.13176z" fill="#2d6a2b" stroke="#000000" stroke-width="2" stroke-linecap="butt"/><g stroke="#61ff00" stroke-width="3" stroke-linecap="round"><path d="M198.04378,131.37961c0,0 -21.07783,-9.75598 -30.16355,-14.62293c-8.14699,-4.36409 -21.8423,-13.23506 -21.8423,-13.23506" fill="none"/><path d="M179.51309,121.69294c0,0 -7.50984,-7.64883 -6.53581,-11.70979c0.97404,-4.06096 4.67613,-2.8669 4.67613,-2.8669z" fill="#61ff00"/><path d="M150.9696,117.79723c0,0 -1.6017,-3.54482 2.3244,-4.96813c3.92611,-1.42331 12.36888,5.18138 12.36888,5.18138z" data-paper-data="{&quot;index&quot;:null}" fill="#61ff00"/><path d="M178.00334,129.08702c0,0 -1.32964,-3.00137 1.99238,-4.17811c3.32203,-1.17674 10.40576,4.44928 10.40576,4.44928z" data-paper-data="{&quot;index&quot;:null}" fill="#61ff00"/></g></g></g></svg>