<svg version="1.1" xmlns="http://www.w3.org/2000/svg" xmlns:xlink="http://www.w3.org/1999/xlink" width="139.99509" height="89.53389" viewBox="0,0,139.99509,89.53389"><g transform="translate(-180.92339,-134.67615)"><g data-paper-data="{&quot;isPaintingLayer&quot;:true}" fill-rule="nonzero" stroke="#000000" stroke-width="2" stroke-linejoin="miter" stroke-miterlimit="10" stroke-dasharray="" stroke-dashoffset="0" style="mix-blend-mode: normal"><path d="M259.87104,209.80974c4.94613,-0.10646 6.39669,2.52163 6.46726,5.80054c0.07056,3.27891 -3.88185,6.02327 -8.828,6.12974c-4.94613,0.10646 -8.974,-0.65403 -9.04456,-3.93294c-0.02726,-1.26637 3.23911,-7.82155 11.40531,-7.99732z" data-paper-data="{&quot;index&quot;:null}" fill="#ff6b00" stroke-linecap="butt"/><path d="M254.31845,218.67197l-23.7667,-9.419l2.89245,-7.29844l23.7667,9.419z" fill="#ff6b00" stroke-linecap="butt"/><path d="M254.24418,191.81565c0,-2.11232 1.71238,-3.8247 3.8247,-3.8247c2.11232,0 3.8247,1.71238 3.8247,3.8247c0,2.11232 -1.71238,3.8247 -3.8247,3.8247c-2.11232,0 -3.8247,-1.71238 -3.8247,-3.8247z" fill="#ff6b00" stroke-linecap="butt"/><path d="M209.6806,189.19469c0,-9.17193 7.43532,-16.60724 16.60724,-16.60724c9.17193,0 16.60724,7.43532 16.60724,16.60724c0,9.17193 -7.43532,16.60724 -16.60724,16.60724c-9.17193,0 -16.60724,-7.43532 -16.60724,-16.60724z" fill="#ff6b00" stroke-linecap="butt"/><path d="M207.67021,213.91727c0,-2.11232 1.71238,-3.8247 3.8247,-3.8247c2.11232,0 3.8247,1.71238 3.8247,3.8247c0,2.11232 -1.71238,3.8247 -3.8247,3.8247c-2.11232,0 -3.8247,-1.71238 -3.8247,-3.8247z" fill="#ff6b00" stroke-linecap="butt"/><path d="M200.74286,187.09201c0,0 1.85948,-2.43366 3.45789,-3.69705c1.26628,-1.00088 5.37038,-3.28089 5.37038,-3.28089" fill="none" stroke-linecap="round"/><path d="M192.66127,193.33058c-1.33173,-2.5027 -0.38248,-5.61111 2.12022,-6.94284c2.5027,-1.33173 5.61111,-0.38248 6.94284,2.12022c1.33173,2.5027 0.38248,5.61111 -2.12022,6.94284c-2.5027,1.33173 -5.61111,0.38248 -6.94284,-2.12022z" fill="#ff6b00" stroke-linecap="butt"/><path d="M205.1198,192.55039l4.22817,-12.18351l-26.62972,-21.39582l41.5955,-22.71252l4.14025,33.37304l12.53391,2.91357z" data-paper-data="{&quot;index&quot;:null}" fill="#ffa340" stroke-linecap="butt"/><path d="M313.0288,211.1227c4.92371,-0.48231 6.56994,2.02785 6.88967,5.2919c0.31973,3.26404 -3.41253,6.30105 -8.33626,6.78337c-4.92371,0.48231 -78.99775,-13.63632 -79.31748,-16.90036c-0.12349,-1.26062 72.63489,5.62143 80.76407,4.82512z" data-paper-data="{&quot;index&quot;:null}" fill="#ff6b00" stroke-linecap="butt"/></g></g></svg>