<svg version="1.1" xmlns="http://www.w3.org/2000/svg" xmlns:xlink="http://www.w3.org/1999/xlink" width="58.99569" height="101.76595" viewBox="0,0,58.99569,101.76595"><g transform="translate(-209.79154,-125.10352)"><g data-paper-data="{&quot;isPaintingLayer&quot;:true}" fill-rule="nonzero" stroke="#000000" stroke-width="2" stroke-linejoin="miter" stroke-miterlimit="10" stroke-dasharray="" stroke-dashoffset="0" style="mix-blend-mode: normal"><path d="M255.03756,194.44539c0,-2.11232 1.71238,-3.8247 3.8247,-3.8247c2.11232,0 3.8247,1.71238 3.8247,3.8247c0,2.11232 -1.71238,3.8247 -3.8247,3.8247c-2.11232,0 -3.8247,-1.71238 -3.8247,-3.8247z" fill="#ff6b00" stroke-linecap="butt"/><path d="M222.9923,207.1009l5.97265,-24.85761l7.63344,1.83411l-5.97266,24.85762z" data-paper-data="{&quot;index&quot;:null}" fill="#ff6b00" stroke-linecap="butt"/><path d="M229.88901,197.09624c0,-2.11232 1.71238,-3.8247 3.8247,-3.8247c2.11232,0 3.8247,1.71238 3.8247,3.8247c0,2.11232 -1.71238,3.8247 -3.8247,3.8247c-2.11232,0 -3.8247,-1.71238 -3.8247,-3.8247z" fill="#ff6b00" stroke-linecap="butt"/><path d="M260.66893,213.74181c4.89738,-0.7009 6.65366,1.73353 7.1183,4.98011c0.46464,3.24658 -3.1288,6.44664 -8.02619,7.14755c-4.89738,0.7009 -8.98749,0.43065 -9.45213,-2.81593c-0.17945,-1.25388 2.27433,-8.15451 10.36002,-9.31172z" data-paper-data="{&quot;index&quot;:null}" fill="#ff6b00" stroke-linecap="butt"/><path d="M229.9985,173.99743c2.30301,-8.87809 11.36707,-14.20823 20.24515,-11.90523c8.87809,2.30301 14.20824,11.36708 11.90523,20.24516c-2.30301,8.87809 -11.36708,14.20823 -20.24516,11.90523c-8.87809,-2.30301 -14.20823,-11.36708 -11.90523,-20.24516z" fill="#ff6b00" stroke-linecap="butt"/><path d="M221.35029,165.50282c0,0 2.9951,-0.64015 5.03096,-0.56087c1.61286,0.06281 6.21352,0.99873 6.21352,0.99873" fill="none" stroke-linecap="round"/><path d="M211.15384,164.98865c0.61529,-2.76738 3.35747,-4.51202 6.12487,-3.89674c2.76738,0.61529 4.51202,3.35747 3.89673,6.12485c-0.61529,2.76738 -3.35747,4.51202 -6.12486,3.89674c-2.76738,-0.61529 -4.51202,-3.35747 -3.89673,-6.12485z" fill="#ff6b00" stroke-linecap="butt"/><path d="M224.74122,176.10044l7.15191,-10.73152l-20.40423,-27.3969l45.96586,-11.54053l-4.37213,33.34346l11.40078,5.96741z" data-paper-data="{&quot;index&quot;:null}" fill="#ffa340" stroke-linecap="butt"/><path d="M235.21862,209.05547c4.36658,2.32563 4.34686,5.32739 2.80515,8.22209c-1.54171,2.8947 -6.33132,3.35603 -10.69792,1.0304c-4.36658,-2.32563 -7.50825,-4.95849 -5.96654,-7.85319c0.59543,-1.11798 6.64996,-5.23895 13.8593,-1.39929z" data-paper-data="{&quot;index&quot;:null}" fill="#ff6b00" stroke-linecap="butt"/></g></g></svg>