<svg version="1.1" xmlns="http://www.w3.org/2000/svg" xmlns:xlink="http://www.w3.org/1999/xlink" width="71.24495" height="126.28334" viewBox="0,0,71.24495,126.28334"><g transform="translate(-199.10094,-100.53463)"><g data-paper-data="{&quot;isPaintingLayer&quot;:true}" fill-rule="nonzero" stroke-linejoin="miter" stroke-miterlimit="10" stroke-dasharray="" stroke-dashoffset="0" style="mix-blend-mode: normal"><path d="M209.05151,190.0005c-2.11232,0 -3.8247,-1.71238 -3.8247,-3.8247c0,-2.11232 1.71238,-3.8247 3.8247,-3.8247c2.11232,0 3.8247,1.71238 3.8247,3.8247c0,2.11232 -1.71238,3.8247 -3.8247,3.8247z" data-paper-data="{&quot;index&quot;:null}" fill="#181818" stroke="#000000" stroke-width="2" stroke-linecap="butt"/><path d="M215.9379,187.96872c0,0 -3.68572,-2.90818 -4.77527,-4.09903c-1.37531,-1.5032 -2.82082,-4.20336 -2.82082,-4.20336" data-paper-data="{&quot;index&quot;:null}" fill="#181818" stroke="#000000" stroke-width="2" stroke-linecap="round"/><path d="M208.34063,170.92814c2.25698,1.71554 2.69587,4.9359 0.98033,7.19287c-1.71554,2.25698 -4.9359,2.69587 -7.19287,0.98033c-2.25698,-1.71554 -2.69587,-4.9359 -0.98033,-7.19287c1.71554,-2.25698 4.9359,-2.69587 7.19287,-0.98033z" data-paper-data="{&quot;index&quot;:null}" fill="#181818" stroke="#000000" stroke-width="2" stroke-linecap="butt"/><path d="M238.28988,160.83564v-5.57385h19.39678v5.57385z" data-paper-data="{&quot;index&quot;:null}" fill="#00fff9" stroke="#000000" stroke-width="2" stroke-linecap="butt"/><path d="M243.14778,215.30142c-2.11232,0 -3.8247,-1.81983 -3.8247,-4.0647c0,-2.24487 1.71238,-4.0647 3.8247,-4.0647c2.11232,0 3.8247,1.81983 3.8247,4.0647c0,2.24487 -1.71238,4.0647 -3.8247,4.0647z" data-paper-data="{&quot;index&quot;:null}" fill="#181818" stroke="#000000" stroke-width="2" stroke-linecap="butt"/><path d="M238.14959,173.40651c-9.17192,0 -16.60724,-7.90188 -16.60724,-17.64935c0,-9.74746 7.43531,-17.64935 16.60724,-17.64935c9.17192,0 16.60724,7.90188 16.60724,17.64935c0,9.74746 -7.43531,17.64935 -16.60724,17.64935z" data-paper-data="{&quot;index&quot;:null}" fill="#181818" stroke="#000000" stroke-width="2" stroke-linecap="butt"/><path d="M235.02944,204.34389v-27.16932h7.8507v27.16932z" data-paper-data="{&quot;index&quot;:null}" fill="#181818" stroke="#000000" stroke-width="2" stroke-linecap="butt"/><path d="M258.05593,219.50699c0,3.24916 -3.33463,5.88312 -7.4481,5.88312c-4.11347,0 -7.4481,-2.63396 -7.4481,-5.88312c0,-3.24916 3.33463,-5.88312 7.4481,-5.88312c4.11347,0 7.4481,2.63396 7.4481,5.88312z" data-paper-data="{&quot;index&quot;:null}" fill="#181818" stroke="#000000" stroke-width="2" stroke-linecap="butt"/><path d="M235.83605,221.43237c0,3.48546 -4.01057,4.3856 -8.95785,4.3856c-4.94729,0 -8.95785,-2.82552 -8.95785,-6.31099c0,-3.48546 1.39367,-6.31099 6.34095,-6.31099c8.16808,0 11.57475,6.89023 11.57475,8.23637z" data-paper-data="{&quot;index&quot;:null}" fill="#181818" stroke="#000000" stroke-width="2" stroke-linecap="butt"/><path d="M242.95907,180.57061l4.30818,5.45562l-17.04542,-1.28368l4.12087,-4.49286l-3.74625,-4.49286l14.42305,-0.32092z" data-paper-data="{&quot;index&quot;:null}" fill="#0e0e0e" stroke="#000000" stroke-width="2" stroke-linecap="round"/><g data-paper-data="{&quot;index&quot;:null}" stroke="#000000" stroke-width="2"><path d="M222.6944,149.11899v-12.81987h30.43885v12.81987z" fill="#343434" stroke-linecap="butt"/><path d="M264.17743,149.11899h-52.52723" fill="none" stroke-linecap="round"/></g><text transform="translate(253.0344,152.53888) scale(1.38839,1.1955)" font-size="40" xml:space="preserve" fill="#000000" fill-rule="nonzero" stroke="none" stroke-width="1" stroke-linecap="butt" stroke-linejoin="miter" stroke-miterlimit="10" stroke-dasharray="" stroke-dashoffset="0" font-family="Sans Serif" font-weight="normal" text-anchor="start" style="mix-blend-mode: normal"><tspan x="0" dy="0">!</tspan></text></g></g></svg>