<svg version="1.1" xmlns="http://www.w3.org/2000/svg" xmlns:xlink="http://www.w3.org/1999/xlink" width="207.5437" height="87.38264" viewBox="0,0,207.5437,87.38264"><g transform="translate(-214.36603,-140.10609)"><g data-paper-data="{&quot;isPaintingLayer&quot;:true}" fill-rule="nonzero" stroke="#000000" stroke-width="2" stroke-linejoin="miter" stroke-miterlimit="10" stroke-dasharray="" stroke-dashoffset="0" style="mix-blend-mode: normal"><path d="M400.6464,173.10079c0,0 3.84496,-2.69413 5.29875,-3.39535c1.8351,-0.88514 4.83683,-1.4934 4.83683,-1.4934" data-paper-data="{&quot;index&quot;:null}" fill="none" stroke-linecap="round"/><path d="M418.79736,170.8426c-2.29194,1.66854 -5.50254,1.16316 -7.17107,-1.12878c-1.66854,-2.29194 -1.16316,-5.50254 1.12878,-7.17107c2.29194,-1.66854 5.50254,-1.16316 7.17107,1.12878c1.66854,2.29194 1.16316,5.50254 -1.12878,7.17107z" data-paper-data="{&quot;index&quot;:null}" fill="#ff6b00" stroke-linecap="butt"/><path d="M251.85633,199.5623c0,-2.11232 1.71238,-3.8247 3.8247,-3.8247c2.11232,0 3.8247,1.71238 3.8247,3.8247c0,2.11232 -1.71238,3.8247 -3.8247,3.8247c-2.11232,0 -3.8247,-1.71238 -3.8247,-3.8247z" fill="#ff6b00" stroke-linecap="butt"/><path d="M246.61814,160.54896c0,-9.17193 7.43532,-16.60724 16.60724,-16.60724c9.17193,0 16.60724,7.43532 16.60724,16.60724c0,9.17193 -7.43532,16.60724 -16.60724,16.60724c-9.17193,0 -16.60724,-7.43532 -16.60724,-16.60724z" fill="#ff6b00" stroke-linecap="butt"/><path d="M242.74199,205.75506l6.05478,-24.83774l7.62734,1.85935l-6.05478,24.83774z" fill="#ff6b00" stroke-linecap="butt"/><path d="M222.81413,215.01801c4.11347,0 7.4481,2.47844 7.4481,5.53575c0,3.05731 -3.33463,5.53575 -7.4481,5.53575c-4.11347,0 -7.4481,-2.47844 -7.4481,-5.53575c0,-3.05731 3.33463,-5.53575 7.4481,-5.53575z" data-paper-data="{&quot;index&quot;:null}" fill="#ff6b00" stroke-linecap="butt"/><path d="M272.52913,214.82491c4.92989,0.41436 6.096,3.18044 5.82131,6.44858c-0.27469,3.26814 -4.49383,5.58158 -9.42374,5.16723c-4.92989,-0.41436 -8.85543,-1.59426 -8.58075,-4.8624c0.10609,-1.2622 4.0438,-7.43749 12.18318,-6.75338z" data-paper-data="{&quot;index&quot;:null}" fill="#ff6b00" stroke-linecap="butt"/><path d="M374.80566,184.15048l8.96519,-9.23109l-14.57234,-30.30756l47.27027,-3.40075l-10.82152,32.40089l10.14715,7.95931z" data-paper-data="{&quot;index&quot;:null}" fill="#ffa340" stroke-linecap="butt"/><path d="M322.04192,180.36167c0,-2.11232 1.71238,-3.8247 3.8247,-3.8247c2.11232,0 3.8247,1.71238 3.8247,3.8247c0,2.11232 -1.71238,3.8247 -3.8247,3.8247c-2.11232,0 -3.8247,-1.71238 -3.8247,-3.8247z" fill="#ff6b00" stroke-linecap="butt"/></g></g></svg>