<svg version="1.1" xmlns="http://www.w3.org/2000/svg" xmlns:xlink="http://www.w3.org/1999/xlink" width="130.08124" height="130.14857" viewBox="0,0,130.08124,130.14857"><defs><radialGradient cx="240.00006" cy="180.00009" r="63.58429" gradientUnits="userSpaceOnUse" id="color-1"><stop offset="0" stop-color="#ff0000"/><stop offset="1" stop-color="#ff0000" stop-opacity="0"/></radialGradient><radialGradient cx="231.76018" cy="158.93897" r="35.95262" gradientUnits="userSpaceOnUse" id="color-2"><stop offset="0" stop-color="#ff0000"/><stop offset="1" stop-color="#ff0000" stop-opacity="0"/></radialGradient></defs><g transform="translate(-176.41577,-113.43581)"><g data-paper-data="{&quot;isPaintingLayer&quot;:true}" fill-rule="nonzero" stroke="#000000" stroke-linejoin="miter" stroke-miterlimit="10" stroke-dasharray="" stroke-dashoffset="0" style="mix-blend-mode: normal"><path d="M176.41577,180.00009c0,-35.11664 28.46765,-63.58429 63.58429,-63.58429c35.11664,0 63.58429,28.46765 63.58429,63.58429c0,35.11664 -28.46765,63.58429 -63.58429,63.58429c-35.11664,0 -63.58429,-28.46765 -63.58429,-63.58429z" fill="url(#color-1)" stroke-width="0" stroke-linecap="butt"/><path d="M242.47508,198.67785c0,-2.11232 1.71238,-3.8247 3.8247,-3.8247c2.11232,0 3.8247,1.71238 3.8247,3.8247c0,2.11232 -1.71238,3.8247 -3.8247,3.8247c-2.11232,0 -3.8247,-1.71238 -3.8247,-3.8247z" fill="#181818" stroke-width="2" stroke-linecap="butt"/><path d="M198.56781,145.81788c0,0 3.00193,-0.60728 5.03682,-0.5057c1.61207,0.08048 6.2022,1.06677 6.2022,1.06677" fill="#181818" stroke-width="2" stroke-linecap="round"/><path d="M188.00464,145.21954c0.64558,-2.76047 3.40672,-4.47496 6.1672,-3.82937c2.76047,0.64558 4.47496,3.40672 3.82937,6.1672c-0.64558,2.76047 -3.40672,4.47496 -6.1672,3.82937c-2.76047,-0.64558 -4.47496,-3.40672 -3.82937,-6.1672z" fill="#9b9b9b" stroke-width="2" stroke-linecap="butt"/><path d="M208.11675,159.32038c0,-9.17193 7.43532,-16.60724 16.60724,-16.60724c9.17193,0 16.60724,7.43532 16.60724,16.60724c0,9.17193 -7.43532,16.60724 -16.60724,16.60724c-9.17193,0 -16.60724,-7.43532 -16.60724,-16.60724z" fill="#181818" stroke-width="2" stroke-linecap="butt"/><path d="M230.24532,209.79341l-10.5276,-23.29686l7.15416,-3.23289l10.5276,23.29686z" fill="#181818" stroke-width="2" stroke-linecap="butt"/><path d="M215.70709,214.34391c4.11347,0 7.4481,2.47844 7.4481,5.53575c0,3.05731 -3.33463,5.53575 -7.4481,5.53575c-4.11347,0 -7.4481,-2.47844 -7.4481,-5.53575c0,-3.05731 3.33463,-5.53575 7.4481,-5.53575z" data-paper-data="{&quot;index&quot;:null}" fill="#181818" stroke-width="2" stroke-linecap="butt"/><path d="M267.43345,213.94133c4.94728,0 6.34095,2.65869 6.34095,5.93835c0,3.27966 -4.01056,5.93835 -8.95785,5.93835c-4.94728,0 -8.95785,-0.84699 -8.95785,-4.12665c0,-1.26666 3.40667,-7.75005 11.57475,-7.75005z" data-paper-data="{&quot;index&quot;:null}" fill="#181818" stroke-width="2" stroke-linecap="butt"/><path d="M223.54771,162.95342v-5.24474l19.39678,2.00745v3.23729z" fill="#ff4545" stroke-width="2" stroke-linecap="butt"/><path d="M217.09446,185.88669l13.26773,-5.66417l-1.67297,5.39519l5.49615,2.15553l-15.03569,8.11995l1.812,-6.45212z" fill="#0e0e0e" stroke-width="2" stroke-linecap="round"/><g stroke-width="2"><path d="M210.00425,152.23962v-12.06291h29.6328v12.06291z" fill="#343434" stroke-linecap="butt"/><path d="M250.38879,152.23962h-51.13626" fill="none" stroke-linecap="round"/></g><path d="M208.9673,164.95693c0,-2.11232 1.71238,-3.8247 3.8247,-3.8247c2.11232,0 3.8247,1.71238 3.8247,3.8247c0,2.11232 -1.71238,3.8247 -3.8247,3.8247c-2.11232,0 -3.8247,-1.71238 -3.8247,-3.8247z" fill="#181818" stroke-width="2" stroke-linecap="butt"/><path d="M195.80756,158.93897c0,-19.85608 16.09653,-35.95262 35.95262,-35.95262c19.85608,0 35.95262,16.09653 35.95262,35.95262c0,19.85608 -16.09653,35.95262 -35.95262,35.95262c-19.85608,0 -35.95262,-16.09653 -35.95262,-35.95262z" fill="url(#color-2)" stroke-width="0" stroke-linecap="butt"/><path d="M306.49701,160.91537c0,11.74142 -42.83823,35.67006 -42.83823,35.67006c0,0 9.37417,16.06136 7.23643,16.06136c-13.20783,0 -35.38537,-17.97811 -35.38537,-48.89685c0,-30.91874 21.09542,-50.31413 34.30325,-50.31413c2.45886,0 -6.78754,16.65511 -6.78754,16.65511c0,0 43.47146,18.41742 43.47146,30.82441z" fill="#ff0000" stroke-width="0" stroke-linecap="butt"/></g></g></svg>