<svg version="1.1" xmlns="http://www.w3.org/2000/svg" xmlns:xlink="http://www.w3.org/1999/xlink" width="70.79786" height="104.61054" viewBox="0,0,70.79786,104.61054"><g transform="translate(-207.97816,-122.23542)"><g data-paper-data="{&quot;isPaintingLayer&quot;:true}" fill-rule="nonzero" stroke="#000000" stroke-width="2" stroke-linejoin="miter" stroke-miterlimit="10" stroke-dasharray="" stroke-dashoffset="0" style="mix-blend-mode: normal"><path d="M231.29585,205.71677c0,-2.11232 1.71238,-3.8247 3.8247,-3.8247c2.11232,0 3.8247,1.71238 3.8247,3.8247c0,2.11232 -1.71238,3.8247 -3.8247,3.8247c-2.11232,0 -3.8247,-1.71238 -3.8247,-3.8247z" fill="#1d28e8" stroke-linecap="butt"/><path d="M228.37363,160.2989c0.68068,-9.14664 8.6473,-16.00964 17.79393,-15.32896c9.14664,0.68068 16.00964,8.6473 15.32896,17.79393c-0.68068,9.14664 -8.6473,16.00964 -17.79393,15.32896c-9.14664,-0.68068 -16.00964,-8.6473 -15.32896,-17.79393z" fill="#1d28e8" stroke-linecap="butt"/><path d="M236.82467,206.77215l1.89728,-25.49459l7.82905,0.58263l-1.89728,25.49459z" fill="#1d28e8" stroke-linecap="butt"/><path d="M222.52607,204.96483c0,-2.11232 1.71238,-3.8247 3.8247,-3.8247c2.11232,0 3.8247,1.71238 3.8247,3.8247c0,2.11232 -1.71238,3.8247 -3.8247,3.8247c-2.11232,0 -3.8247,-1.71238 -3.8247,-3.8247z" fill="#1d28e8" stroke-linecap="butt"/><path d="M218.62172,163.19399c0,0 2.48671,-1.7879 4.3834,-2.532c1.50258,-0.58948 6.09227,-1.57779 6.09227,-1.57779" fill="none" stroke-linecap="round"/><path d="M209.07544,166.81344c-0.54657,-2.78177 1.26541,-5.47993 4.04718,-6.0265c2.78177,-0.54657 5.47993,1.26541 6.0265,4.04718c0.54657,2.78177 -1.26541,5.47993 -4.04718,6.0265c-2.78177,0.54657 -5.47993,-1.26541 -6.0265,-4.04718z" fill="#1d28e8" stroke-linecap="butt"/><path d="M256.11095,206.77163c4.72836,1.45539 5.27823,4.40643 4.31342,7.54096c-0.96481,3.13453 -5.58004,4.49575 -10.30841,3.04035c-4.72836,-1.45539 -8.3123,-3.44474 -7.34748,-6.57927c0.37263,-1.21061 5.53584,-6.40493 13.34248,-4.00204z" data-paper-data="{&quot;index&quot;:null}" fill="#1d28e8" stroke-linecap="butt"/><path d="M228.23526,159.48128l-9.50302,-20.99331l38.28311,-14.81794l1.28964,28.47713l20.23552,-4.85637z" fill="#2530ff" stroke-linecap="round"/><path d="M234.61956,216.03707c3.33986,3.64978 2.3193,6.4728 -0.10022,8.68686c-2.41952,2.21407 -7.08842,1.05019 -10.42829,-2.5996c-3.33986,-3.64978 -5.4225,-7.18032 -3.00298,-9.39438c0.93446,-0.85511 8.01729,-2.71876 13.53149,3.30712z" data-paper-data="{&quot;index&quot;:null}" fill="#1d28e8" stroke-linecap="butt"/></g></g></svg>