<svg version="1.1" xmlns="http://www.w3.org/2000/svg" xmlns:xlink="http://www.w3.org/1999/xlink" width="206.05219" height="85.7053" viewBox="0,0,206.05219,85.7053"><g transform="translate(-214.36603,-141.78343)"><g data-paper-data="{&quot;isPaintingLayer&quot;:true}" fill-rule="nonzero" stroke="#000000" stroke-width="2" stroke-linejoin="miter" stroke-miterlimit="10" stroke-dasharray="" stroke-dashoffset="0" style="mix-blend-mode: normal"><path d="M251.18966,199.5623c0,-2.11232 1.71238,-3.8247 3.8247,-3.8247c2.11232,0 3.8247,1.71238 3.8247,3.8247c0,2.11232 -1.71238,3.8247 -3.8247,3.8247c-2.11232,0 -3.8247,-1.71238 -3.8247,-3.8247z" fill="#ff6b00" stroke-linecap="butt"/><path d="M246.61814,160.54896c0,-9.17193 7.43532,-16.60724 16.60724,-16.60724c9.17193,0 16.60724,7.43532 16.60724,16.60724c0,9.17193 -7.43532,16.60724 -16.60724,16.60724c-9.17193,0 -16.60724,-7.43532 -16.60724,-16.60724z" fill="#ff6b00" stroke-linecap="butt"/><path d="M242.74199,205.75506l6.05478,-24.83774l7.62734,1.85935l-6.05478,24.83774z" fill="#ff6b00" stroke-linecap="butt"/><path d="M222.81413,215.01801c4.11347,0 7.4481,2.47844 7.4481,5.53575c0,3.05731 -3.33463,5.53575 -7.4481,5.53575c-4.11347,0 -7.4481,-2.47844 -7.4481,-5.53575c0,-3.05731 3.33463,-5.53575 7.4481,-5.53575z" data-paper-data="{&quot;index&quot;:null}" fill="#ff6b00" stroke-linecap="butt"/><path d="M272.52913,214.82491c4.92989,0.41436 6.096,3.18044 5.82131,6.44858c-0.27469,3.26814 -4.49383,5.58158 -9.42374,5.16723c-4.92989,-0.41436 -8.85543,-1.59426 -8.58075,-4.8624c0.10609,-1.2622 4.0438,-7.43749 12.18318,-6.75338z" data-paper-data="{&quot;index&quot;:null}" fill="#ff6b00" stroke-linecap="butt"/><path d="M375.43699,183.33253l9.48404,-8.73889l-13.35676,-31.44074l47.39109,-0.35838l-12.12313,31.36767l9.66896,8.4911z" data-paper-data="{&quot;index&quot;:null}" fill="#ffa340" stroke-linecap="butt"/><path d="M315.79659,185.04567c0,-2.11232 1.71238,-3.8247 3.8247,-3.8247c2.11232,0 3.8247,1.71238 3.8247,3.8247c0,2.11232 -1.71238,3.8247 -3.8247,3.8247c-2.11232,0 -3.8247,-1.71238 -3.8247,-3.8247z" fill="#ff6b00" stroke-linecap="butt"/><path d="M401.79946,172.24476c0,0 3.30879,1.64432 1.79684,2.20932c-1.90851,0.7132 -4.95336,1.04373 -4.95336,1.04373" data-paper-data="{&quot;index&quot;:null}" fill="none" stroke-linecap="round"/><path d="M390.90245,172.14358c2.43524,-1.45143 5.58598,-0.65386 7.0374,1.78138c1.45143,2.43524 0.65387,5.58598 -1.78138,7.0374c-2.43524,1.45143 -5.58598,0.65387 -7.0374,-1.78138c-1.45143,-2.43524 -0.65386,-5.58599 1.78138,-7.03741z" data-paper-data="{&quot;index&quot;:null}" fill="#ff6b00" stroke-linecap="butt"/></g></g></svg>