<svg version="1.1" xmlns="http://www.w3.org/2000/svg" xmlns:xlink="http://www.w3.org/1999/xlink" width="60.93431" height="84.77789" viewBox="0,0,60.93431,84.77789"><g transform="translate(-201.00551,-142.43838)"><g data-paper-data="{&quot;isPaintingLayer&quot;:true}" fill-rule="nonzero" stroke="#000000" stroke-width="2" stroke-linejoin="miter" stroke-miterlimit="10" stroke-dasharray="" stroke-dashoffset="0" style="mix-blend-mode: normal"><path d="M222.58497,165.00242c-0.63333,-9.15004 6.27082,-17.08102 15.42085,-17.71435c9.15004,-0.63333 17.08102,6.27082 17.71435,15.42085c0.63333,9.15004 -6.27082,17.08102 -15.42085,17.71435c-9.15004,0.63333 -17.08102,-6.27082 -17.71435,-15.42085z" fill="#2d6a2b" stroke-linecap="butt"/><path d="M230.22688,146.04819c14.42326,-6.56597 25.2391,1.32733 25.2391,1.32733l-36.4332,18.78078c0,0 -4.31325,-13.04862 11.19411,-20.10811z" fill="#367e33" stroke-linecap="round"/><path d="M233.93928,208.67518l-2.69414,-25.42273l7.80699,-0.82734l2.69414,25.42273z" fill="#2d6a2b" stroke-linecap="butt"/><path d="M241.80436,167.96876c-0.14586,-2.10728 1.44419,-3.93381 3.55147,-4.07967c2.10728,-0.14586 3.93381,1.44419 4.07967,3.55147c0.14586,2.10728 -1.44419,3.93381 -3.55147,4.07967c-2.10728,0.14586 -3.93381,-1.44419 -4.07967,-3.55147z" fill="#2d6a2b" stroke-linecap="butt"/><path d="M252.09453,162.88083c-0.14586,-2.10728 1.44419,-3.93381 3.55147,-4.07967c2.10728,-0.14586 3.93381,1.44419 4.07967,3.55147c0.14586,2.10728 -1.44419,3.93381 -3.55147,4.07967c-2.10728,0.14586 -3.93381,-1.44419 -4.07967,-3.55147z" fill="#2d6a2b" stroke-linecap="butt"/><path d="M254.59888,214.2083c4.94728,0 6.34095,2.65869 6.34095,5.93835c0,3.27966 -4.01057,5.93835 -8.95785,5.93835c-4.94728,0 -8.95785,-0.84699 -8.95785,-4.12665c0,-1.26666 3.40667,-7.75005 11.57475,-7.75005z" data-paper-data="{&quot;index&quot;:null}" fill="#2d6a2b" stroke-linecap="butt"/><path d="M222.92486,215.14477c4.11347,0 7.4481,2.47844 7.4481,5.53575c0,3.05731 -3.33463,5.53575 -7.4481,5.53575c-4.11347,0 -7.4481,-2.47844 -7.4481,-5.53575c0,-3.05731 3.33463,-5.53575 7.4481,-5.53575z" data-paper-data="{&quot;index&quot;:null}" fill="#2d6a2b" stroke-linecap="butt"/><path d="M211.94079,153.91881c0,0 2.69009,-1.46417 4.6647,-1.96619c1.56431,-0.3977 6.24138,-0.80651 6.24138,-0.80651" fill="none" stroke-linecap="round"/><path d="M202.01797,156.32077c-0.19576,-2.82819 1.93825,-5.27959 4.76645,-5.47535c2.82819,-0.19576 5.27959,1.93825 5.47535,4.76645c0.19576,2.82819 -1.93825,5.27959 -4.76645,5.47535c-2.82819,0.19576 -5.27959,-1.93825 -5.47535,-4.76645z" fill="#2d6a2b" stroke-linecap="butt"/></g></g></svg>