<svg version="1.1" xmlns="http://www.w3.org/2000/svg" xmlns:xlink="http://www.w3.org/1999/xlink" width="111.51861" height="84.78153" viewBox="0,0,111.51861,84.78153"><g transform="translate(-188.6207,-127.12888)"><g data-paper-data="{&quot;isPaintingLayer&quot;:true}" fill-rule="nonzero" stroke="#000000" stroke-width="2" stroke-linejoin="miter" stroke-miterlimit="10" stroke-dasharray="" stroke-dashoffset="0" style="mix-blend-mode: normal"><path d="M261.42354,134.87511c0,0 2.99007,-0.66318 5.0265,-0.59957c1.61329,0.0504 6.22102,0.9509 6.22102,0.9509" fill="none" stroke-linecap="round"/><path d="M251.22343,134.43939c0.59398,-2.77204 3.32266,-4.53771 6.0947,-3.94375c2.77204,0.59398 4.53771,3.32266 3.94375,6.0947c-0.59398,2.77204 -3.32266,4.53771 -6.0947,3.94375c-2.77204,-0.59398 -4.53771,-3.32266 -3.94375,-6.0947z" fill="#ffe819" stroke-linecap="butt"/><path d="M239.20862,180.6073l19.80949,-16.16037l4.96264,6.08325l-19.80949,16.16038z" data-paper-data="{&quot;index&quot;:null}" fill="#ffe819" stroke-linecap="butt"/><path d="M264.57725,146.48686c5.14277,-7.59448 15.46836,-9.58197 23.06284,-4.43921c7.59449,5.14278 9.58197,15.46836 4.4392,23.06284c-5.14277,7.59448 -15.46835,9.58198 -23.06283,4.43921c-7.59448,-5.14278 -9.58197,-15.46836 -4.43921,-23.06284z" fill="#ffe819" stroke-linecap="butt"/><path d="M260.85363,143.90845l9.83979,-5.79867l-5.05465,-9.97716c0,0 14.23349,0.03262 23.39566,5.39813c9.16218,5.36551 10.02078,18.48404 10.02078,18.48404z" data-paper-data="{&quot;index&quot;:null}" fill="#fff067" stroke-linecap="butt"/><path d="M259.44206,199.8369c4.66481,1.64778 5.09338,4.61884 4.00105,7.71124c-1.09236,3.0924 -5.75945,4.2635 -10.42425,2.61573c-4.66481,-1.64778 -8.16429,-3.7822 -7.07193,-6.8746c0.42188,-1.19434 5.79344,-6.17289 13.49515,-3.45238z" data-paper-data="{&quot;index&quot;:null}" fill="#ffe819" stroke-linecap="butt"/><path d="M192.5053,187.27252c-3.88877,-3.0583 -3.3407,-6.00966 -1.3133,-8.58761c2.02742,-2.57794 6.82341,-2.18854 10.71216,0.86976c3.88877,3.0583 6.51762,6.2033 4.49021,8.78125c-0.78302,0.99564 -7.46868,3.98593 -13.88911,-1.0634z" data-paper-data="{&quot;index&quot;:null}" fill="#ffe819" stroke-linecap="butt"/><path d="M216.27627,153.05851c0,-2.11232 1.71238,-3.8247 3.8247,-3.8247c2.11232,0 3.8247,1.71238 3.8247,3.8247c0,2.11232 -1.71238,3.8247 -3.8247,3.8247c-2.11232,0 -3.8247,-1.71238 -3.8247,-3.8247z" fill="#ffe819" stroke-linecap="butt"/><path d="M235.33479,146.65971c0,-2.11232 1.71238,-3.8247 3.8247,-3.8247c2.11232,0 3.8247,1.71238 3.8247,3.8247c0,2.11232 -1.71238,3.8247 -3.8247,3.8247c-2.11232,0 -3.8247,-1.71238 -3.8247,-3.8247z" fill="#ffe819" stroke-linecap="butt"/></g></g></svg>