<svg version="1.1" xmlns="http://www.w3.org/2000/svg" xmlns:xlink="http://www.w3.org/1999/xlink" width="378.61238" height="157.30772" viewBox="0,0,378.61238,157.30772"><defs><linearGradient x1="284.31385" y1="242.32015" x2="528.8013" y2="242.32015" gradientUnits="userSpaceOnUse" id="color-1"><stop offset="0" stop-color="#ffb33b"/><stop offset="1" stop-color="#ff4f00"/></linearGradient></defs><g transform="translate(-182.18892,-145.63854)"><g data-paper-data="{&quot;isPaintingLayer&quot;:true}" fill-rule="nonzero" stroke-linejoin="miter" stroke-miterlimit="10" stroke-dasharray="" stroke-dashoffset="0" style="mix-blend-mode: normal"><path d="M307.5671,182.36053c15.81417,3.26928 23.84457,18.02002 23.84457,18.02002l41.44525,88.12585c0,0 -66.6708,-42.31766 -79.60763,-55.16558c-22.05811,-21.90663 -21.34123,-34.46153 -12.40487,-43.46662c7.01538,-7.06936 10.90851,-10.78293 26.72268,-7.51364z" data-paper-data="{&quot;index&quot;:null}" fill="#e82d00" stroke="#000000" stroke-width="0" stroke-linecap="butt"/><path d="M271.94776,198.54719c0.98391,-1.86917 3.2968,-2.58682 5.16598,-1.60291c1.86917,0.98391 2.58682,3.2968 1.60291,5.16598c-0.98391,1.86917 -3.2968,2.58682 -5.16598,1.60291c-1.86917,-0.98391 -2.58682,-3.2968 -1.60291,-5.16598z" fill="#e80000" stroke="#000000" stroke-width="2" stroke-linecap="butt"/><path d="M220.94778,179.21386c0.98391,-1.86917 3.2968,-2.58682 5.16598,-1.60291c1.86917,0.98391 2.58682,3.2968 1.60291,5.16598c-0.98391,1.86917 -3.2968,2.58682 -5.16598,1.60291c-1.86917,-0.98391 -2.58682,-3.2968 -1.60291,-5.16598z" fill="#e80000" stroke="#000000" stroke-width="2" stroke-linecap="butt"/><path d="M241.65927,210.7852c1.86698,4.58148 -0.06918,6.87543 -3.10634,8.1131c-3.03717,1.23767 -7.01276,-1.47302 -8.87975,-6.05452c-1.86698,-4.58148 -2.59611,-8.61514 0.44105,-9.85281c1.17301,-0.478 8.46261,0.2301 11.54504,7.79422z" data-paper-data="{&quot;index&quot;:null}" fill="#e80000" stroke="#000000" stroke-width="2" stroke-linecap="butt"/><path d="M240.62812,151.84527c0,0 3.05807,0.16912 5.00162,0.78042c1.53971,0.48428 5.73293,2.59589 5.73293,2.59589" data-paper-data="{&quot;index&quot;:null}" fill="none" stroke="#000000" stroke-width="2" stroke-linecap="round"/><path d="M230.24808,149.38151c1.32065,-2.50857 4.42482,-3.47158 6.93339,-2.15094c2.50857,1.32065 3.47158,4.42482 2.15094,6.93339c-1.32065,2.50857 -4.42482,3.47159 -6.93338,2.15094c-2.50857,-1.32065 -3.47159,-4.42482 -2.15094,-6.93339z" data-paper-data="{&quot;index&quot;:null}" fill="#e80000" stroke="#000000" stroke-width="2" stroke-linecap="butt"/><path d="M247.6415,161.37652c3.72966,-8.37937 13.54597,-12.1487 21.92534,-8.41904c8.37937,3.72966 12.1487,13.54597 8.41904,21.92534c-3.72966,8.37937 -13.54597,12.1487 -21.92534,8.41904c-8.37937,-3.72966 -12.1487,-13.54597 -8.41904,-21.92534z" data-paper-data="{&quot;index&quot;:null}" fill="#e80000" stroke="#000000" stroke-width="2" stroke-linecap="butt"/><path d="M249.10101,157.79044l2.21606,-5.14288l30.67354,13.21717l-2.21605,5.14287z" data-paper-data="{&quot;index&quot;:null}" fill="#ff2121" stroke="#000000" stroke-width="2" stroke-linecap="butt"/><path d="M191.74963,218.39737c-4.13387,2.71785 -6.75898,1.26192 -8.5607,-1.47852c-1.80172,-2.74043 0.08886,-7.16524 4.22274,-9.8831c4.13387,-2.71785 7.95035,-4.21337 9.75206,-1.47294c0.69586,1.05841 1.41102,8.34731 -5.4141,12.83455z" data-paper-data="{&quot;index&quot;:null}" fill="#e80000" stroke="#000000" stroke-width="2" stroke-linecap="butt"/><path d="M277.35269,202.22858c0.07413,-12.98746 8.1575,-22.96376 38.10284,-24.23084c17.56254,-0.74309 91.76046,13.46989 91.76046,13.46989l-88.32535,37.84297c0,0 -15.52705,5.57728 -28.50623,-2.90463c-12.97916,-8.48192 -13.0899,-13.98171 -13.03171,-24.17739z" data-paper-data="{&quot;index&quot;:null}" fill="#e82d00" stroke="#000000" stroke-width="0" stroke-linecap="butt"/><path d="M352.76986,256.79871c-69.73529,-30.72786 -96.86275,-60.32916 -60.59085,-66.11631c36.27187,-5.78717 122.20769,14.43129 191.94306,45.15919c69.73529,30.72786 96.86275,60.32916 60.59085,66.11631c-36.27187,5.78717 -122.20769,-14.43129 -191.94306,-45.15919z" fill="#e82d00" stroke="none" stroke-width="0" stroke-linecap="butt"/><path d="M350.16004,251.31832c-59.88326,-26.3867 -83.17822,-51.806 -52.03072,-56.77556c31.14747,-4.96957 104.94249,12.39247 164.82581,38.77921c59.88326,26.3867 83.17822,51.806 52.03072,56.77556c-31.14747,4.96957 -104.94249,-12.39247 -164.82581,-38.77921z" fill="url(#color-1)" stroke="none" stroke-width="0" stroke-linecap="butt"/><path d="M217.58632,194.77345l20.00161,-15.92199l4.88942,6.14223l-20.00161,15.92199z" fill="#e80000" stroke="#000000" stroke-width="2" stroke-linecap="butt"/></g></g></svg>