<svg version="1.1" xmlns="http://www.w3.org/2000/svg" xmlns:xlink="http://www.w3.org/1999/xlink" width="113.52448" height="80.37258" viewBox="0,0,113.52448,80.37258"><g transform="translate(-195.00845,-145.97636)"><g data-paper-data="{&quot;isPaintingLayer&quot;:true}" fill-rule="nonzero" stroke="#000000" stroke-width="2" stroke-linejoin="miter" stroke-miterlimit="10" stroke-dasharray="" stroke-dashoffset="0" style="mix-blend-mode: normal"><path d="M208.27143,163.5836c0,-9.17193 7.43532,-16.60724 16.60724,-16.60724c9.17193,0 16.60724,7.43532 16.60724,16.60724c0,9.17193 -7.43532,16.60724 -16.60724,16.60724c-9.17193,0 -16.60724,-7.43532 -16.60724,-16.60724z" fill="#e80000" stroke-linecap="butt"/><path d="M251.48185,204.48341l-17.72428,-18.42345l5.6576,-5.44288l17.72428,18.42345z" fill="#e80000" stroke-linecap="butt"/><path d="M217.34244,193.97397c0,-2.11232 1.71238,-3.8247 3.8247,-3.8247c2.11232,0 3.8247,1.71238 3.8247,3.8247c0,2.11232 -1.71238,3.8247 -3.8247,3.8247c-2.11232,0 -3.8247,-1.71238 -3.8247,-3.8247z" fill="#e80000" stroke-linecap="butt"/><path d="M250.04418,176.9685c0,-2.11232 1.71238,-3.8247 3.8247,-3.8247c2.11232,0 3.8247,1.71238 3.8247,3.8247c0,2.11232 -1.71238,3.8247 -3.8247,3.8247c-2.11232,0 -3.8247,-1.71238 -3.8247,-3.8247z" fill="#e80000" stroke-linecap="butt"/><path d="M207.19568,162.10658l-1.3957,-5.42329l32.34602,-8.32434l1.3957,5.42328z" fill="#ff2121" stroke-linecap="butt"/><path d="M229.47023,220.09057c0.42722,3.25172 -3.43884,4.61392 -8.34397,5.25837c-4.90514,0.64445 -9.22786,-1.46915 -9.65508,-4.72087c-0.42722,-3.25172 0.60825,-6.0693 5.51337,-6.71375c8.09848,-1.06401 12.32068,4.92038 12.48567,6.17624z" data-paper-data="{&quot;index&quot;:null}" fill="#e80000" stroke-linecap="butt"/><path d="M206.29788,156.56003c0,0 2.96514,-0.76703 5.00255,-0.77447c1.61407,-0.00589 6.25039,0.7334 6.25039,0.7334" data-paper-data="{&quot;index&quot;:null}" fill="none" stroke-linecap="round"/><path d="M200.24266,162.43372c-2.79106,-0.49696 -4.65082,-3.16241 -4.15386,-5.95348c0.49695,-2.79106 3.16241,-4.65081 5.95348,-4.15385c2.79106,0.49696 4.65081,3.16241 4.15386,5.95348c-0.49696,2.79107 -3.16241,4.65082 -5.95348,4.15386z" data-paper-data="{&quot;index&quot;:null}" fill="#e80000" stroke-linecap="butt"/><path d="M296.48364,181.13732c4.6807,-2.4585 9.62764,-2.25733 11.04929,0.44933c1.42166,2.70666 -1.22032,6.89386 -5.90102,9.35237c-2.48228,1.3038 -18.21089,14.79692 -35.46814,20.43979c-15.28376,4.99757 -32.41344,2.38214 -33.08115,1.11088c-0.71248,-1.35646 13.53732,-4.61028 29.01942,-11.81921c15.41056,-7.17562 32.04667,-18.30675 34.3816,-19.53316z" data-paper-data="{&quot;index&quot;:null}" fill="#e80000" stroke-linecap="butt"/></g></g></svg>