<svg version="1.1" xmlns="http://www.w3.org/2000/svg" xmlns:xlink="http://www.w3.org/1999/xlink" width="115.15111" height="91.76067" viewBox="0,0,115.15111,91.76067"><defs><linearGradient x1="192.72036" y1="218.08491" x2="292.13887" y2="214.35697" gradientUnits="userSpaceOnUse" id="color-1"><stop offset="0" stop-color="#5c6cff"/><stop offset="1" stop-color="#5c6cff" stop-opacity="0"/></linearGradient><linearGradient x1="178.79017" y1="215.0837" x2="278.27855" y2="215.0837" gradientUnits="userSpaceOnUse" id="color-2"><stop offset="0" stop-color="#5c6cff"/><stop offset="1" stop-color="#5c6cff" stop-opacity="0"/></linearGradient><linearGradient x1="186.98489" y1="206.31579" x2="285.99274" y2="216.0822" gradientUnits="userSpaceOnUse" id="color-3"><stop offset="0" stop-color="#5c6cff"/><stop offset="1" stop-color="#5c6cff" stop-opacity="0"/></linearGradient></defs><g transform="translate(-177.55636,-137.25445)"><g data-paper-data="{&quot;isPaintingLayer&quot;:true}" fill-rule="nonzero" stroke-linejoin="miter" stroke-miterlimit="10" stroke-dasharray="" stroke-dashoffset="0" style="mix-blend-mode: normal"><path d="M221.0569,228.96865c-15.40277,0.57757 -28.08948,-4.29526 -28.33654,-10.88374c-0.24705,-6.58849 12.0391,-12.39773 27.44189,-12.97529c15.40277,-0.57757 71.90562,7.35378 71.90562,7.35378c0,0 -55.6082,15.92769 -71.01096,16.50526z" fill="url(#color-1)" stroke="none" stroke-width="0" stroke-linecap="butt"/><path d="M205.46517,225.80893c-15.4136,0 -27.90881,-5.34478 -27.90881,-11.9379c0,-6.59312 12.4952,-11.9379 27.90881,-11.9379c15.4136,0 71.57956,10.043 71.57956,10.043c0,0 -56.16597,13.8328 -71.57956,13.8328z" fill="#5c6cff" stroke="none" stroke-width="0" stroke-linecap="butt"/><path d="M241.05533,170.33076c2.07557,-8.934 11.00059,-14.49384 19.93458,-12.41827c8.934,2.07557 14.49384,11.00059 12.41827,19.93458c-2.07557,8.934 -11.00059,14.49384 -19.93458,12.41827c-8.934,-2.07557 -14.49384,-11.00059 -12.41827,-19.93458z" fill="#1d28e8" stroke="#000000" stroke-width="2" stroke-linecap="butt"/><path d="M216.87887,200.66351l19.86975,-16.08623l4.93986,6.10173l-19.86975,16.08623z" fill="#1d28e8" stroke="#000000" stroke-width="2" stroke-linecap="butt"/><path d="M205.44199,179.60009c1.89112,-0.94105 4.18705,-0.17086 5.1281,1.72026c0.94105,1.89112 0.17086,4.18705 -1.72026,5.1281c-1.89112,0.94105 -4.18705,0.17086 -5.1281,-1.72026c-0.94105,-1.89112 -0.17086,-4.18705 1.72026,-5.1281z" fill="#1d28e8" stroke="#000000" stroke-width="2" stroke-linecap="butt"/><path d="M230.97475,171.6958c0,0 2.73152,-1.38533 4.7199,-1.82971c1.57522,-0.35204 6.26219,-0.62467 6.26219,-0.62467" fill="none" stroke="#000000" stroke-width="2" stroke-linecap="round"/><path d="M220.98627,173.80819c-0.11343,-2.83269 2.09096,-5.22099 4.92366,-5.33441c2.83269,-0.11343 5.22099,2.09096 5.33441,4.92366c0.11343,2.83269 -2.09096,5.22099 -4.92366,5.33441c-2.83269,0.11343 -5.22099,-2.09096 -5.33441,-4.92366z" fill="#1d28e8" stroke="#000000" stroke-width="2" stroke-linecap="butt"/><path d="M247.85809,205.3087c4.94379,-0.18559 6.43622,2.41895 6.55925,5.69631c0.12302,3.27735 -3.78498,6.08461 -8.72879,6.2702c-4.94379,0.18559 -8.98332,-0.51037 -9.10634,-3.78772c-0.04752,-1.26577 3.11355,-7.87239 11.27589,-8.17879z" data-paper-data="{&quot;index&quot;:null}" fill="#1d28e8" stroke="#000000" stroke-width="2" stroke-linecap="butt"/><path d="M241.04401,169.50159l-6.17054,-22.20249l40.10292,-8.77059l-3.09354,28.33796l20.74096,-1.69511z" fill="#2530ff" stroke="#000000" stroke-width="2" stroke-linecap="round"/><path d="M203.52157,207.73101c4.72049,1.48073 5.25452,4.43467 4.27291,7.56399c-0.98161,3.12931 -5.60407,4.46576 -10.32457,2.98502c-4.72049,-1.48073 -8.2937,-3.48927 -7.31209,-6.61858c0.37912,-1.20859 5.57011,-6.37515 13.36375,-3.93042z" data-paper-data="{&quot;index&quot;:null}" fill="#1d28e8" stroke="#000000" stroke-width="2" stroke-linecap="butt"/><path d="M206.69898,227.0216c-15.4136,0 -27.90881,-5.34478 -27.90881,-11.9379c0,-6.59312 12.49519,-11.9379 27.90881,-11.9379c15.4136,0 71.57957,10.043 71.57957,10.043c0,0 -56.16597,13.8328 -71.57957,13.8328z" fill="url(#color-2)" stroke="none" stroke-width="0" stroke-linecap="butt"/><path d="M213.587,220.93573c-15.33915,-1.5131 -27.24934,-8.05867 -26.60211,-14.61994c0.64722,-6.56127 13.60674,-10.65363 28.94591,-9.14054c15.33915,1.5131 70.24796,17.02119 70.24796,17.02119c0,0 -57.2526,8.25238 -72.59175,6.73929z" fill="url(#color-3)" stroke="none" stroke-width="0" stroke-linecap="butt"/><path d="M237.0085,193.17078c1.89112,-0.94105 4.18705,-0.17086 5.1281,1.72026c0.94105,1.89112 0.17086,4.18705 -1.72026,5.1281c-1.89112,0.94105 -4.18705,0.17086 -5.1281,-1.72026c-0.94105,-1.89112 -0.17086,-4.18705 1.72026,-5.1281z" fill="#1d28e8" stroke="#000000" stroke-width="2" stroke-linecap="butt"/><path d="M201.78776,224.26469c-11.26071,0 -21.25696,-5.59401 -21.25696,-8.05334c0,-2.45934 11.14239,-1.08604 20.38935,0.85271c9.24696,1.93875 25.59512,0.85674 25.59512,3.31608c0,2.45934 -13.46678,3.88455 -24.7275,3.88455z" fill="#ffffff" stroke="none" stroke-width="0" stroke-linecap="butt"/></g></g></svg>