<svg version="1.1" xmlns="http://www.w3.org/2000/svg" xmlns:xlink="http://www.w3.org/1999/xlink" width="71.46962" height="100.56154" viewBox="0,0,71.46962,100.56154"><g transform="translate(-207.13875,-126.1962)"><g data-paper-data="{&quot;isPaintingLayer&quot;:true}" fill-rule="nonzero" stroke="#000000" stroke-width="2" stroke-linejoin="miter" stroke-miterlimit="10" stroke-dasharray="" stroke-dashoffset="0" style="mix-blend-mode: normal"><path d="M229.09323,195.97688c0,-2.11232 1.71238,-3.8247 3.8247,-3.8247c2.11232,0 3.8247,1.71238 3.8247,3.8247c0,2.11232 -1.71238,3.8247 -3.8247,3.8247c-2.11232,0 -3.8247,-1.71238 -3.8247,-3.8247z" fill="#1d28e8" stroke-linecap="butt"/><path d="M232.97947,205.20026v-25.56509h7.8507v25.56509z" fill="#1d28e8" stroke-linecap="butt"/><path d="M218.19043,201.90854c0,-2.11232 1.71238,-3.8247 3.8247,-3.8247c2.11232,0 3.8247,1.71238 3.8247,3.8247c0,2.11232 -1.71238,3.8247 -3.8247,3.8247c-2.11232,0 -3.8247,-1.71238 -3.8247,-3.8247z" fill="#1d28e8" stroke-linecap="butt"/><path d="M229.28716,214.68624c4.11347,0 7.4481,2.47844 7.4481,5.53575c0,3.05731 -3.33463,5.53575 -7.4481,5.53575c-4.11347,0 -7.4481,-2.47844 -7.4481,-5.53575c0,-3.05731 3.33463,-5.53575 7.4481,-5.53575z" data-paper-data="{&quot;index&quot;:null}" fill="#1d28e8" stroke-linecap="butt"/><path d="M258.9207,197.70627c4.52791,1.99339 4.73219,4.98825 3.41073,7.98991c-1.32146,3.00166 -6.06331,3.81902 -10.59123,1.82562c-4.52791,-1.99339 -7.85724,-4.38454 -6.53579,-7.38619c0.51037,-1.15929 6.24059,-5.72046 13.71628,-2.42934z" data-paper-data="{&quot;index&quot;:null}" fill="#1d28e8" stroke-linecap="butt"/><path d="M227.75061,163.00168c1.05902,-9.11059 9.30311,-15.63766 18.41369,-14.57865c9.11059,1.05902 15.63766,9.30311 14.57865,18.41369c-1.05902,9.11059 -9.30311,15.63766 -18.41369,14.57865c-9.11059,-1.05902 -15.63766,-9.30311 -14.57865,-18.41369z" fill="#1d28e8" stroke-linecap="butt"/><path d="M217.88713,165.49029c0,0 2.55865,-1.68335 4.48453,-2.34824c1.52571,-0.52673 6.15241,-1.32405 6.15241,-1.32405" fill="none" stroke-linecap="round"/><path d="M208.1991,168.71116c-0.43086,-2.80203 1.49134,-5.4228 4.29337,-5.85367c2.80203,-0.43086 5.4228,1.49134 5.85367,4.29337c0.43086,2.80203 -1.49134,5.4228 -4.29337,5.85367c-2.80203,0.43086 -5.4228,-1.49134 -5.85367,-4.29337z" fill="#1d28e8" stroke-linecap="butt"/><path d="M227.64623,162.17903l-8.62517,-21.36897l38.86411,-13.21926l0.10881,28.50611l20.41934,-4.0139z" fill="#2530ff" stroke-linecap="round"/></g></g></svg>