<svg version="1.1" xmlns="http://www.w3.org/2000/svg" xmlns:xlink="http://www.w3.org/1999/xlink" width="77.2813" height="92.99681" viewBox="0,0,77.2813,92.99681"><g transform="translate(-190.1399,-132.66917)"><g data-paper-data="{&quot;isPaintingLayer&quot;:true}" fill-rule="nonzero" stroke="#000000" stroke-width="2" stroke-linejoin="miter" stroke-miterlimit="10" stroke-dasharray="" stroke-dashoffset="0" style="mix-blend-mode: normal"><path d="M229.28552,212.47538c4.11347,0 7.4481,2.72895 7.4481,6.0953c0,3.36633 -3.33463,6.0953 -7.4481,6.0953c-4.11347,0 -7.4481,-2.72895 -7.4481,-6.0953c0,-3.36633 3.33463,-6.0953 7.4481,-6.0953z" data-paper-data="{&quot;index&quot;:null}" fill="#ffe819" stroke-linecap="butt"/><path d="M261.63984,213.31932c4.74747,1.39181 5.33689,4.33519 4.41423,7.48239c-0.92266,3.1472 -5.51919,4.57024 -10.26668,3.17842c-4.74747,-1.39181 -8.35777,-3.33286 -7.43512,-6.48007c0.35635,-1.2155 5.44938,-6.47865 13.28757,-4.18075z" data-paper-data="{&quot;index&quot;:null}" fill="#ffe819" stroke-linecap="butt"/><path d="M246.42973,150.14366c0.66736,-2.00413 2.83303,-3.08781 4.83716,-2.42045c2.00413,0.66736 3.0878,2.83304 2.42044,4.83717c-0.66736,2.00413 -2.83303,3.0878 -4.83716,2.42044c-2.00413,-0.66736 -3.0878,-2.83302 -2.42044,-4.83715z" fill="#ffe819" stroke-linecap="butt"/><path d="M214.28689,162.84227c-3.4442,-8.50069 0.65491,-18.18393 9.15559,-21.62814c8.50069,-3.4442 18.18393,0.65491 21.62813,9.15559c3.4442,8.50069 -0.6549,18.18394 -9.15559,21.62813c-8.50069,3.4442 -18.18394,-0.6549 -21.62814,-9.15559z" fill="#ffe819" stroke-linecap="butt"/><path d="M236.61746,203.38822l-3.93123,-25.26103l7.75733,-1.20723l3.93123,25.26103z" fill="#ffe819" stroke-linecap="butt"/><path d="M198.6267,163.57477c0,0 1.11422,-2.85287 2.30106,-4.50892c0.94024,-1.31193 4.25406,-4.63769 4.25406,-4.63769" fill="none" stroke-linecap="round"/><path d="M192.58475,171.80441c-1.97171,-2.03699 -1.91878,-5.28669 0.11821,-7.2584c2.03699,-1.97171 5.2867,-1.91878 7.25841,0.11821c1.97171,2.03699 1.91878,5.28669 -0.11821,7.2584c-2.03699,1.97171 -5.2867,1.91879 -7.25841,-0.1182z" fill="#ffe819" stroke-linecap="butt"/><path d="M212.14826,166.92076l-1.41356,-13.8235l-11.29733,2.87114c0,0 8.14869,-16.03286 17.70738,-20.65515c9.55869,-4.62229 20.93311,1.96975 20.93311,1.96975z" data-paper-data="{&quot;index&quot;:null}" fill="#fff067" stroke-linecap="butt"/><path d="M219.26638,174.78977c0.66736,-2.00413 2.83303,-3.0878 4.83716,-2.42044c2.00413,0.66736 3.08781,2.83303 2.42045,4.83716c-0.66736,2.00413 -2.83303,3.0878 -4.83716,2.42044c-2.00413,-0.66736 -3.08781,-2.83303 -2.42045,-4.83716z" fill="#ffe819" stroke-linecap="butt"/></g></g></svg>