<svg version="1.1" xmlns="http://www.w3.org/2000/svg" xmlns:xlink="http://www.w3.org/1999/xlink" width="82.88485" height="107.06614" viewBox="0,0,82.88485,107.06614"><g transform="translate(-183.23557,-120.02338)"><g data-paper-data="{&quot;isPaintingLayer&quot;:true}" fill-rule="nonzero" stroke="#000000" stroke-width="2" stroke-linejoin="miter" stroke-miterlimit="10" stroke-dasharray="" stroke-dashoffset="0" style="mix-blend-mode: normal"><path d="M246.43369,192.49122c0,-2.11232 1.71238,-3.8247 3.8247,-3.8247c2.11232,0 3.8247,1.71238 3.8247,3.8247c0,2.11232 -1.71238,3.8247 -3.8247,3.8247c-2.11232,0 -3.8247,-1.71238 -3.8247,-3.8247z" fill="#ff6b00" stroke-linecap="butt"/><path d="M215.54466,183.39807c-8.10211,4.29882 -18.15507,1.21565 -22.45389,-6.88648c-4.29882,-8.10211 -1.21565,-18.15507 6.88648,-22.45389c8.10211,-4.29882 18.15507,-1.21565 22.45389,6.88648c4.29882,8.10211 1.21565,18.15507 -6.88648,22.45389z" data-paper-data="{&quot;index&quot;:null}" fill="#ff6b00" stroke-linecap="butt"/><path d="M226.7834,210.54411l-8.40428,-24.14419l7.41436,-2.58084l8.40428,24.14419z" fill="#ff6b00" stroke-linecap="butt"/><path d="M241.85972,195.92618c0,-2.11232 1.71238,-3.8247 3.8247,-3.8247c2.11232,0 3.8247,1.71238 3.8247,3.8247c0,2.11232 -1.71238,3.8247 -3.8247,3.8247c-2.11232,0 -3.8247,-1.71238 -3.8247,-3.8247z" fill="#ff6b00" stroke-linecap="butt"/><path d="M217.4096,215.01801c4.11347,0 7.4481,2.47844 7.4481,5.53575c0,3.05731 -3.33463,5.53575 -7.4481,5.53575c-4.11347,0 -7.4481,-2.47844 -7.4481,-5.53575c0,-3.05731 3.33463,-5.53575 7.4481,-5.53575z" data-paper-data="{&quot;index&quot;:null}" fill="#ff6b00" stroke-linecap="butt"/><path d="M201.23377,148.1456c0,0 4.69403,0.09051 6.28172,0.38115c2.00412,0.36686 4.78735,1.64514 4.78735,1.64514" data-paper-data="{&quot;index&quot;:null}" fill="none" stroke-linecap="round"/><path d="M217.22648,157.02199c-2.83496,-0.0034 -5.13038,-2.30434 -5.12698,-5.1393c0.0034,-2.83496 2.30434,-5.13038 5.1393,-5.12698c2.83496,0.0034 5.13038,2.30434 5.12698,5.1393c-0.0034,2.83496 -2.30434,5.13038 -5.1393,5.12698z" data-paper-data="{&quot;index&quot;:null}" fill="#ff6b00" stroke-linecap="butt"/><path d="M256.92634,211.5285c4.52935,-1.99011 6.87479,-0.11664 8.19408,2.88597c1.31929,3.00261 -1.28298,7.05 -5.81234,9.04013c-4.52935,1.99011 -8.54183,2.82799 -9.86112,-0.17462c-0.50953,-1.15965 0.00132,-8.46573 7.47939,-11.75146z" data-paper-data="{&quot;index&quot;:null}" fill="#ff6b00" stroke-linecap="butt"/><path d="M186.97196,160.91016l9.70639,-8.4483l-11.9844,-31.42094l47.38905,0.5678l-13.49556,31.38141l9.44533,8.78072z" data-paper-data="{&quot;index&quot;:null}" fill="#ffa340" stroke-linecap="butt"/></g></g></svg>