<svg version="1.1" xmlns="http://www.w3.org/2000/svg" xmlns:xlink="http://www.w3.org/1999/xlink" width="129.17038" height="65.31523" viewBox="0,0,129.17038,65.31523"><g transform="translate(-173.1032,-160.24884)"><g data-paper-data="{&quot;isPaintingLayer&quot;:true}" fill-rule="nonzero" stroke="#000000" stroke-width="2" stroke-linejoin="miter" stroke-miterlimit="10" stroke-dasharray="" stroke-dashoffset="0" style="mix-blend-mode: normal"><path d="M237.19374,214.26246c3.89888,3.04538 3.36061,5.99855 1.34176,8.58321c-2.01884,2.58465 -6.81612,2.21117 -10.715,-0.83422c-3.89888,-3.04538 -6.53816,-6.18165 -4.51932,-8.7663c0.77971,-0.99824 7.45541,-4.01067 13.89256,1.01733z" data-paper-data="{&quot;index&quot;:null}" fill="#2d6a2b" stroke-linecap="butt"/><path d="M243.15067,213.90839l-20.12487,-15.7659l4.84149,-6.18008l20.12487,15.7659z" fill="#2d6a2b" stroke-linecap="butt"/><path d="M209.70322,219.9297c0,-2.11232 1.71238,-3.8247 3.8247,-3.8247c2.11232,0 3.8247,1.71238 3.8247,3.8247c0,2.11232 -1.71238,3.8247 -3.8247,3.8247c-2.11232,0 -3.8247,-1.71238 -3.8247,-3.8247z" fill="#2d6a2b" stroke-linecap="butt"/><path d="M234.71266,187.91321c-0.20531,-2.10232 1.33252,-3.97303 3.43484,-4.17834c2.10232,-0.20531 3.97303,1.33252 4.17834,3.43484c0.20531,2.10232 -1.33252,3.97303 -3.43484,4.17834c-2.10232,0.20531 -3.97303,-1.33252 -4.17834,-3.43484z" fill="#2d6a2b" stroke-linecap="butt"/><path d="M184.27426,174.9422c0,0 2.64767,-1.53956 4.60731,-2.09714c1.55246,-0.44172 6.21611,-0.98245 6.21611,-0.98245" data-paper-data="{&quot;index&quot;:null}" fill="none" stroke-linecap="round"/><path d="M174.12787,177.65229c-0.27555,-2.82154 1.78838,-5.33222 4.60991,-5.60778c2.82154,-0.27555 5.33222,1.78838 5.60778,4.60991c0.27555,2.82154 -1.78838,5.33222 -4.60991,5.60778c-2.82154,0.27555 -5.33222,-1.78838 -5.60778,-4.60991z" data-paper-data="{&quot;index&quot;:null}" fill="#2d6a2b" stroke-linecap="butt"/><path d="M194.99645,183.35787c-0.89149,-9.1285 5.78593,-17.2513 14.91442,-18.14279c9.1285,-0.89149 17.2513,5.78593 18.14279,14.91442c0.89149,9.1285 -5.78593,17.2513 -14.91442,18.14279c-9.1285,0.89149 -17.2513,-5.78593 -18.14279,-14.91442z" fill="#2d6a2b" stroke-linecap="butt"/><path d="M202.10001,164.19537c14.23207,-6.97068 25.26652,0.61402 25.26652,0.61402l-35.88828,19.80221c0,0 -4.68004,-12.9216 10.62176,-20.41623z" fill="#367e33" stroke-linecap="round"/><path d="M288.19814,207.08612c6.96935,-1.96849 10.55706,-0.08386 12.56083,2.925c2.00377,3.00886 -2.02164,7.04381 -8.99099,9.0123c-6.96935,1.96849 -45.49094,1.60015 -47.49473,-1.40872c-0.77389,-1.16208 32.41831,-7.27855 43.9249,-10.52858z" data-paper-data="{&quot;index&quot;:null}" fill="#2d6a2b" stroke-linecap="butt"/></g></g></svg>