<svg version="1.1" xmlns="http://www.w3.org/2000/svg" xmlns:xlink="http://www.w3.org/1999/xlink" width="61.33853" height="97.29951" viewBox="0,0,61.33853,97.29951"><g transform="translate(-219.32044,-129.30535)"><g data-paper-data="{&quot;isPaintingLayer&quot;:true}" fill-rule="nonzero" stroke="#000000" stroke-width="2" stroke-linejoin="miter" stroke-miterlimit="10" stroke-dasharray="" stroke-dashoffset="0" style="mix-blend-mode: normal"><path d="M258.35391,200.998c1.42864,-1.55591 3.84811,-1.65909 5.40403,-0.23045c1.55592,1.42864 1.65909,3.84812 0.23045,5.40403c-1.42864,1.55591 -3.84812,1.65908 -5.40403,0.23044c-1.55592,-1.42864 -1.65908,-3.84811 -0.23044,-5.40403z" fill="#2d6a2b" stroke-linecap="butt"/><path d="M262.87329,188.39906c1.42864,-1.55591 3.84811,-1.65908 5.40403,-0.23044c1.55592,1.42864 1.65908,3.84811 0.23044,5.40402c-1.42864,1.55591 -3.84811,1.65909 -5.40403,0.23045c-1.55592,-1.42864 -1.65908,-3.84812 -0.23044,-5.40403z" fill="#2d6a2b" stroke-linecap="butt"/><path d="M252.57694,214.39518c2.60356,4.20679 1.07623,6.79102 -1.71254,8.51698c-2.78877,1.72596 -7.16012,-0.28517 -9.76368,-4.49196c-2.60356,-4.20679 -3.99393,-8.06282 -1.20516,-9.78876c1.07706,-0.6666 8.38285,-1.18177 12.68138,5.76375z" data-paper-data="{&quot;index&quot;:null}" fill="#2d6a2b" stroke-linecap="butt"/><path d="M232.90436,218.34435c0.84343,4.87485 -1.53875,6.70138 -4.77039,7.2605c-3.23164,0.55913 -6.53516,-2.93947 -7.37858,-7.81433c-0.84343,-4.87485 -0.69256,-8.97112 2.53907,-9.53024c1.24813,-0.21594 8.21739,2.03555 9.60989,10.08405z" data-paper-data="{&quot;index&quot;:null}" fill="#2d6a2b" stroke-linecap="butt"/><path d="M220.7088,194.01979l14.30567,-21.18777l6.50648,4.39308l-14.30567,21.18777z" fill="#2d6a2b" stroke-linecap="butt"/><path d="M244.81429,153.05937c6.56089,-6.40928 17.0753,-6.28637 23.48459,0.27453c6.40928,6.56089 6.28637,17.0753 -0.27453,23.48459c-6.56089,6.40928 -17.0753,6.28637 -23.48458,-0.27453c-6.40928,-6.56089 -6.28637,-17.0753 0.27452,-23.48458z" fill="#2d6a2b" stroke-linecap="butt"/><path d="M264.20484,146.60425c14.34481,6.73565 15.3369,20.08864 15.3369,20.08864l-37.90741,-15.59242c0,0 7.14751,-11.73814 22.57052,-4.49621z" fill="#367e33" stroke-linecap="round"/><path d="M246.364,137.7707l9.17663,6.51303" fill="none" stroke-linecap="round"/><path d="M238.10669,131.76663c2.02792,-1.98105 5.27782,-1.94306 7.25887,0.08486c1.98105,2.02792 1.94306,5.27782 -0.08486,7.25887c-2.02792,1.98105 -5.27782,1.94306 -7.25887,-0.08486c-1.98105,-2.02792 -1.94306,-5.27782 0.08486,-7.25887z" fill="#2d6a2b" stroke-linecap="butt"/></g></g></svg>