<svg version="1.1" xmlns="http://www.w3.org/2000/svg" xmlns:xlink="http://www.w3.org/1999/xlink" width="58.73266" height="93.32441" viewBox="0,0,58.73266,93.32441"><g transform="translate(-215.44715,-117.96875)"><g data-paper-data="{&quot;isPaintingLayer&quot;:true}" fill-rule="nonzero" stroke="#000000" stroke-width="2" stroke-linejoin="miter" stroke-miterlimit="10" stroke-dasharray="" stroke-dashoffset="0" style="mix-blend-mode: normal"><path d="M232.16996,195.22641l-3.0591,-25.38139l7.79429,-0.93942l3.0591,25.38139z" data-paper-data="{&quot;index&quot;:null}" fill="#ff6b00" stroke-linecap="butt"/><path d="M231.81746,158.91681c4.8075,-7.81103 15.03684,-10.24588 22.84787,-5.43837c7.81103,4.8075 10.24587,15.03685 5.43837,22.84787c-4.8075,7.81103 -15.03684,10.24588 -22.84787,5.43837c-7.81103,-4.8075 -10.24587,-15.03685 -5.43837,-22.84787z" fill="#ff6b00" stroke-linecap="butt"/><path d="M226.04359,148.2579c0,0 3.05107,0.26719 4.97399,0.94055c1.52339,0.53346 5.64667,2.77855 5.64667,2.77855" fill="none" stroke-linecap="round"/><path d="M216.44716,144.77348c1.40046,-2.46489 4.53397,-3.32777 6.99887,-1.9273c2.46489,1.40046 3.32776,4.53396 1.92728,6.99885c-1.40046,2.46489 -4.53397,3.32778 -6.99885,1.9273c-2.46489,-1.40046 -3.32777,-4.53396 -1.9273,-6.99885z" fill="#ff6b00" stroke-linecap="butt"/><path d="M264.57588,179.96259c4.04407,-2.84973 6.71477,-1.47921 8.60393,1.2017c1.88914,2.68091 0.14223,7.16438 -3.90186,10.01413c-4.04407,2.84973 -7.81034,4.46755 -9.69948,1.78664c-0.72961,-1.03541 -1.67945,-8.29748 4.99741,-13.00246z" data-paper-data="{&quot;index&quot;:null}" fill="#ff6b00" stroke-linecap="butt"/><path d="M226.17449,159.38403l9.98684,-8.15956l-11.46381,-32.17926l47.32857,2.45992l-13.96666,30.59139l9.14702,9.05095z" data-paper-data="{&quot;index&quot;:null}" fill="#ffa340" stroke-linecap="butt"/><path d="M225.92562,180.58483c4.11347,0 7.4481,3.70175 7.4481,8.26808c0,4.56633 -3.33463,8.26808 -7.4481,8.26808c-4.11347,0 -7.4481,-3.70175 -7.4481,-8.26808c0,-4.56633 3.33463,-8.26808 7.4481,-8.26808z" data-paper-data="{&quot;index&quot;:null}" fill="#ff6b00" stroke-linecap="butt"/><path d="M262.42312,206.27208c-1.37388,-1.60449 -1.18694,-4.01893 0.41754,-5.3928c1.60449,-1.37388 4.01893,-1.18694 5.3928,0.41754c1.37388,1.60449 1.18694,4.01893 -0.41754,5.3928c-1.60449,1.37388 -4.01893,1.18694 -5.3928,-0.41754z" fill="#ff6b00" stroke-linecap="butt"/><path d="M252.93211,209.82208c-1.37388,-1.60449 -1.18694,-4.01893 0.41754,-5.3928c1.60449,-1.37388 4.01893,-1.18695 5.39281,0.41753c1.37388,1.60449 1.18694,4.01893 -0.41754,5.3928c-1.60449,1.37388 -4.01893,1.18694 -5.3928,-0.41754z" fill="#ff6b00" stroke-linecap="butt"/></g></g></svg>