<svg version="1.1" xmlns="http://www.w3.org/2000/svg" xmlns:xlink="http://www.w3.org/1999/xlink" width="75.1219" height="64.9535" viewBox="0,0,75.1219,64.9535"><g transform="translate(-178.58582,-160.61057)"><g data-paper-data="{&quot;isPaintingLayer&quot;:true}" fill-rule="nonzero" stroke="#000000" stroke-width="2" stroke-linejoin="miter" stroke-miterlimit="10" stroke-dasharray="" stroke-dashoffset="0" style="mix-blend-mode: normal"><path d="M237.19374,214.26246c3.89888,3.04538 3.36061,5.99855 1.34176,8.58321c-2.01884,2.58465 -6.81612,2.21117 -10.715,-0.83422c-3.89888,-3.04538 -6.53816,-6.18165 -4.51932,-8.7663c0.77971,-0.99824 7.45541,-4.01067 13.89256,1.01733z" data-paper-data="{&quot;index&quot;:null}" fill="#2d6a2b" stroke-linecap="butt"/><path d="M244.7578,216.64652l-18.49717,-17.64734l5.41926,-5.68024l18.49717,17.64734z" fill="#2d6a2b" stroke-linecap="butt"/><path d="M208.51614,213.40075c0,-2.11232 1.71238,-3.8247 3.8247,-3.8247c2.11232,0 3.8247,1.71238 3.8247,3.8247c0,2.11232 -1.71238,3.8247 -3.8247,3.8247c-2.11232,0 -3.8247,-1.71238 -3.8247,-3.8247z" fill="#2d6a2b" stroke-linecap="butt"/><path d="M238.88641,190.25105c0,-2.11232 1.71238,-3.8247 3.8247,-3.8247c2.11232,0 3.8247,1.71238 3.8247,3.8247c0,2.11232 -1.71238,3.8247 -3.8247,3.8247c-2.11232,0 -3.8247,-1.71238 -3.8247,-3.8247z" fill="#2d6a2b" stroke-linecap="butt"/><path d="M189.94758,172.43896c0,0 2.78477,-1.27492 4.78933,-1.63939c1.58804,-0.28873 6.28217,-0.37361 6.28217,-0.37361" data-paper-data="{&quot;index&quot;:null}" fill="none" stroke-linecap="round"/><path d="M179.58582,174.15001c0,-2.83496 2.29819,-5.13315 5.13315,-5.13315c2.83496,0 5.13315,2.29819 5.13315,5.13315c0,2.83496 -2.29819,5.13315 -5.13315,5.13315c-2.83496,0 -5.13315,-2.29819 -5.13315,-5.13315z" data-paper-data="{&quot;index&quot;:null}" fill="#2d6a2b" stroke-linecap="butt"/><path d="M199.80102,181.85696c0,-9.17193 7.43532,-16.60724 16.60724,-16.60724c9.17193,0 16.60724,7.43532 16.60724,16.60724c0,9.17193 -7.43532,16.60724 -16.60724,16.60724c-9.17193,0 -16.60724,-7.43532 -16.60724,-16.60724z" fill="#2d6a2b" stroke-linecap="butt"/><path d="M208.7335,163.47564c14.84222,-5.55435 25.0872,3.06696 25.0872,3.06696l-37.64308,16.22019c0,0 -3.40193,-13.31531 12.55588,-19.28715z" fill="#367e33" stroke-linecap="round"/><path d="M249.29597,213.34811c4.1988,2.61642 3.97554,5.60993 2.24105,8.39341c-1.73448,2.78347 -6.54437,2.9189 -10.74316,0.30247c-4.1988,-2.61642 -7.15466,-5.4563 -5.42017,-8.23977c0.66988,-1.07502 6.98996,-4.77587 13.92229,-0.4561z" data-paper-data="{&quot;index&quot;:null}" fill="#2d6a2b" stroke-linecap="butt"/></g></g></svg>