<svg version="1.1" xmlns="http://www.w3.org/2000/svg" xmlns:xlink="http://www.w3.org/1999/xlink" width="70.41858" height="67.97304" viewBox="0,0,70.41858,67.97304"><g transform="translate(-202.3236,-158.0955)"><g data-paper-data="{&quot;isPaintingLayer&quot;:true}" fill-rule="nonzero" stroke="#000000" stroke-width="2" stroke-linejoin="miter" stroke-miterlimit="10" stroke-dasharray="" stroke-dashoffset="0" style="mix-blend-mode: normal"><path d="M233.05616,220.07856l-9.8679,-23.58386l7.24229,-3.0303l9.8679,23.58385z" data-paper-data="{&quot;index&quot;:null}" fill="#ffe819" stroke-linecap="butt"/><path d="M262.32689,207.47153c0,-2.11232 1.71238,-3.8247 3.8247,-3.8247c2.11232,0 3.8247,1.71238 3.8247,3.8247c0,2.11232 -1.71238,3.8247 -3.8247,3.8247c-2.11232,0 -3.8247,-1.71238 -3.8247,-3.8247z" fill="#ffe819" stroke-linecap="butt"/><path d="M235.06373,198.84342c-7.00445,5.9213 -17.48285,5.04325 -23.40416,-1.9612c-5.9213,-7.00445 -5.04325,-17.48285 1.9612,-23.40416c7.00445,-5.9213 17.48285,-5.04325 23.40416,1.9612c5.9213,7.00445 5.04325,17.48285 -1.9612,23.40416z" data-paper-data="{&quot;index&quot;:null}" fill="#ffe819" stroke-linecap="butt"/><path d="M264.09278,199.74407c0,-2.11232 1.71238,-3.8247 3.8247,-3.8247c2.11232,0 3.8247,1.71238 3.8247,3.8247c0,2.11232 -1.71238,3.8247 -3.8247,3.8247c-2.11232,0 -3.8247,-1.71238 -3.8247,-3.8247z" fill="#ffe819" stroke-linecap="butt"/><path d="M219.50766,213.59445c4.11347,0 7.4481,2.47844 7.4481,5.53575c0,3.05731 -3.33463,5.53575 -7.4481,5.53575c-4.11347,0 -7.4481,-2.47844 -7.4481,-5.53575c0,-3.05731 3.33463,-5.53575 7.4481,-5.53575z" data-paper-data="{&quot;index&quot;:null}" fill="#ffe819" stroke-linecap="butt"/><path d="M225.91968,166.38864c0,0 4.48583,-1.38544 6.0846,-1.60713c2.01811,-0.27984 5.06176,0.06158 5.06176,0.06158" data-paper-data="{&quot;index&quot;:null}" fill="none" stroke-linecap="round"/><path d="M243.88877,169.80458c-2.69315,0.88542 -5.59414,-0.58004 -6.47956,-3.27318c-0.88542,-2.69315 0.58004,-5.59414 3.27318,-6.47956c2.69315,-0.88542 5.59414,0.58004 6.47956,3.27318c0.88542,2.69315 -0.58004,5.59414 -3.27318,6.47956z" data-paper-data="{&quot;index&quot;:null}" fill="#ffe819" stroke-linecap="butt"/><path d="M256.5042,213.19185c4.94728,0 6.34095,2.65869 6.34095,5.93835c0,3.27966 -4.01056,5.93835 -8.95785,5.93835c-4.94728,0 -8.95785,-0.84699 -8.95785,-4.12665c0,-1.26666 3.40667,-7.75005 11.57475,-7.75005z" data-paper-data="{&quot;index&quot;:null}" fill="#ffe819" stroke-linecap="butt"/><path d="M203.33046,184.60271c0,0 -0.54148,-13.13543 7.99809,-19.44494c8.53957,-6.30951 26.52266,-6.06094 26.52266,-6.06094c0,0 -4.29016,7.08587 -6.53779,8.19849c-1.53995,0.7623 -5.64698,-2.1668 -5.64698,-2.1668l14.78679,7.35094z" data-paper-data="{&quot;index&quot;:null}" fill="#fff067" stroke-linecap="butt"/></g></g></svg>