<svg version="1.1" xmlns="http://www.w3.org/2000/svg" xmlns:xlink="http://www.w3.org/1999/xlink" width="62.78835" height="108.09586" viewBox="0,0,62.78835,108.09586"><g transform="translate(-210.73263,-137.70246)"><g data-paper-data="{&quot;isPaintingLayer&quot;:true}" fill-rule="nonzero" stroke="#000000" stroke-width="2" stroke-linejoin="miter" stroke-miterlimit="10" stroke-dasharray="" stroke-dashoffset="0" style="mix-blend-mode: normal"><path d="M254.34737,175.20594c-2.09632,0.25965 -4.00616,-1.22929 -4.26582,-3.32556c-0.25965,-2.09632 1.22929,-4.00616 3.32556,-4.26582c2.09632,-0.25965 4.00616,1.22929 4.26582,3.32556c0.25965,2.09632 -1.22929,4.00616 -3.32556,4.26582z" fill="#ffe819" stroke-linecap="butt"/><path d="M244.94591,220.24786c0.07784,9.17161 -7.29414,16.66972 -16.46573,16.74754c-9.17161,0.07784 -16.66974,-7.29415 -16.74755,-16.46572c-0.07784,-9.17161 7.29415,-16.66973 16.46572,-16.74755c9.17161,-0.07784 16.66972,7.29414 16.74755,16.46572z" fill="#ffe819" stroke-linecap="butt"/><path d="M249.82129,175.60689l-13.65104,21.61535l-6.63778,-4.19207l13.65103,-21.61534z" fill="#ffe819" stroke-linecap="butt"/><path d="M259.77868,225.32392c0,0 -2.085,2.24345 -3.79757,3.3472c-1.35672,0.8744 -5.66115,2.74894 -5.66115,2.74894" fill="none" stroke-linecap="round"/><path d="M268.42304,219.8919c1.08475,2.61923 -0.15917,5.62188 -2.77839,6.70663c-2.61923,1.08475 -5.62189,-0.15918 -6.70664,-2.7784c-1.08475,-2.61923 0.15918,-5.62189 2.7784,-6.70664c2.61923,-1.08475 5.62189,0.15918 6.70664,2.7784z" fill="#ffe819" stroke-linecap="butt"/><path d="M251.04719,143.30886c1.55202,-4.69753 4.51369,-5.1868 7.62781,-4.15792c3.11409,1.02885 4.38043,5.67103 2.82841,10.36856c-1.55202,4.69753 -3.6144,8.23993 -6.72849,7.21109c-1.20272,-0.39736 -6.2901,-5.66596 -3.7277,-13.42172z" data-paper-data="{&quot;index&quot;:null}" fill="#ffe819" stroke-linecap="butt"/><path d="M249.4751,220.25652l-4.80839,10.3598l11.56169,1.48325c0,0 -13.47232,11.91429 -24.06094,12.69875c-10.58862,0.78445 -18.74301,-9.52761 -18.74301,-9.52761z" data-paper-data="{&quot;index&quot;:null}" fill="#fff067" stroke-linecap="butt"/><path d="M262.23515,146.51291c3.06807,-3.88104 6.01806,-3.32556 8.5909,-1.29168c2.57283,2.03389 2.17136,6.8289 -0.89672,10.70995c-3.06807,3.88104 -6.2197,6.50199 -8.79254,4.46811c-0.99366,-0.78553 -3.9671,-7.47868 1.09834,-13.88639z" data-paper-data="{&quot;index&quot;:null}" fill="#ffe819" stroke-linecap="butt"/><path d="M265.25146,185.27185c-2.09632,0.25965 -4.00616,-1.22929 -4.26582,-3.32556c-0.25965,-2.09632 1.22929,-4.00616 3.32556,-4.26582c2.09632,-0.25965 4.00616,1.22929 4.26582,3.32556c0.25965,2.09632 -1.22929,4.00616 -3.32556,4.26582z" fill="#ffe819" stroke-linecap="butt"/></g></g></svg>