<svg version="1.1" xmlns="http://www.w3.org/2000/svg" xmlns:xlink="http://www.w3.org/1999/xlink" width="96.84111" height="89.20636" viewBox="0,0,96.84111,89.20636"><g transform="translate(-210.25348,-143.72239)"><g data-paper-data="{&quot;isPaintingLayer&quot;:true}" fill-rule="nonzero" stroke="#000000" stroke-width="2" stroke-linejoin="miter" stroke-miterlimit="10" stroke-dasharray="" stroke-dashoffset="0" style="mix-blend-mode: normal"><path d="M211.25348,161.32963c0,-9.17193 7.43532,-16.60724 16.60724,-16.60724c9.17193,0 16.60724,7.43532 16.60724,16.60724c0,9.17193 -7.43532,16.60724 -16.60724,16.60724c-9.17193,0 -16.60724,-7.43532 -16.60724,-16.60724z" fill="#ff6b00" stroke-linecap="butt"/><path d="M229.75129,207.4911l-3.24234,-25.35865l7.78731,-0.99568l3.24234,25.35865z" fill="#ff6b00" stroke-linecap="butt"/><path d="M222.81413,215.01801c4.11347,0 7.4481,2.47844 7.4481,5.53575c0,3.05731 -3.33463,5.53575 -7.4481,5.53575c-4.11347,0 -7.4481,-2.47844 -7.4481,-5.53575c0,-3.05731 3.33463,-5.53575 7.4481,-5.53575z" data-paper-data="{&quot;index&quot;:null}" fill="#ff6b00" stroke-linecap="butt"/><path d="M275.59977,173.82105c0,0 0.0355,3.06253 -0.44463,5.04257c-0.38037,1.56861 -2.20722,5.89351 -2.20722,5.89351" fill="none" stroke-linecap="round"/><path d="M278.11929,163.92741c2.59116,1.15016 3.75934,4.18309 2.60918,6.77425c-1.15016,2.59116 -4.18309,3.75934 -6.77425,2.60918c-2.59116,-1.15016 -3.75934,-4.18309 -2.60918,-6.77425c1.15016,-2.59116 4.18309,-3.75934 6.77425,-2.60918z" fill="#ff6b00" stroke-linecap="butt"/><path d="M254.56185,211.5285c4.52935,-1.99011 6.87479,-0.11664 8.19408,2.88597c1.31929,3.00261 -1.28298,7.05 -5.81234,9.04013c-4.52935,1.99011 -8.54183,2.82799 -9.86112,-0.17462c-0.50953,-1.15965 0.00132,-8.46573 7.47939,-11.75146z" data-paper-data="{&quot;index&quot;:null}" fill="#ff6b00" stroke-linecap="butt"/><path d="M272.07993,171.76656l0.60983,12.8819l32.6796,9.94823l-30.15476,36.56137l-16.26312,-29.43488l-12.71789,1.96041z" data-paper-data="{&quot;index&quot;:null}" fill="#ffa340" stroke-linecap="butt"/><path d="M252.2582,191.83916c1.85137,1.01701 2.52776,3.3423 1.51076,5.19368c-1.01701,1.85137 -3.3423,2.52776 -5.19368,1.51076c-1.85137,-1.01701 -2.52776,-3.3423 -1.51076,-5.19368c1.01701,-1.85137 3.3423,-2.52776 5.19368,-1.51076z" fill="#ff6b00" stroke-linecap="butt"/><path d="M262.74449,178.64479c1.85137,1.01701 2.52776,3.3423 1.51076,5.19368c-1.01701,1.85137 -3.3423,2.52776 -5.19368,1.51076c-1.85137,-1.01701 -2.52776,-3.3423 -1.51076,-5.19368c1.01701,-1.85137 3.3423,-2.52776 5.19368,-1.51076z" fill="#ff6b00" stroke-linecap="butt"/></g></g></svg>