<svg version="1.1" xmlns="http://www.w3.org/2000/svg" xmlns:xlink="http://www.w3.org/1999/xlink" width="71.41452" height="64.10859" viewBox="0,0,71.41452,64.10859"><g transform="translate(-212.16918,-149.06279)"><g data-paper-data="{&quot;isPaintingLayer&quot;:true}" fill-rule="nonzero" stroke="#000000" stroke-width="2" stroke-linejoin="miter" stroke-miterlimit="10" stroke-dasharray="" stroke-dashoffset="0" style="mix-blend-mode: normal"><path d="M254.44369,200.60478c2.10477,-0.17857 3.95575,1.38293 4.13433,3.48768c0.17857,2.10477 -1.38293,3.95575 -3.48768,4.13433c-2.10477,0.17857 -3.95575,-1.38293 -4.13433,-3.48768c-0.17857,-2.10477 1.38293,-3.95575 3.48768,-4.13433z" fill="#ffe819" stroke-linecap="butt"/><path d="M217.94558,171.49866c0,0 0.96652,-11.15589 5.93523,-15.05329c4.96871,-3.8974 15.7277,-1.93887 15.7277,-1.93887l0.69046,6.58772c0,0 -9.78909,0.37139 -11.76679,2.06985c-1.96672,1.68903 -3.39649,10.35622 -3.39649,10.35622z" fill="#ffe819" stroke-linecap="butt"/><path d="M227.5362,190.12128c2.84516,4.04731 1.47162,6.71645 -1.21144,8.60257c-2.68305,1.88612 -7.16453,0.13414 -10.0097,-3.91318c-2.84516,-4.04731 -4.4587,-7.8154 -1.77567,-9.70151c1.03625,-0.72845 8.29938,-1.67007 12.99679,5.01213z" data-paper-data="{&quot;index&quot;:null}" fill="#ffe819" stroke-linecap="butt"/><path d="M234.82768,196.59546c4.61315,1.78733 4.95216,4.76994 3.76731,7.8281c-1.18486,3.05815 -5.88506,4.08836 -10.49821,2.30103c-4.61315,-1.78733 -8.04683,-4.02604 -6.86199,-7.08418c0.45762,-1.18111 5.97648,-5.99586 13.59288,-3.04495z" data-paper-data="{&quot;index&quot;:null}" fill="#ffe819" stroke-linecap="butt"/><path d="M246.777,204.54937c2.10477,-0.17857 3.95575,1.38293 4.13433,3.48768c0.17857,2.10477 -1.38293,3.95575 -3.48768,4.13433c-2.10477,0.17857 -3.95575,-1.38293 -4.13433,-3.48768c-0.17857,-2.10477 1.38293,-3.95575 3.48768,-4.13433z" fill="#ffe819" stroke-linecap="butt"/><path d="M266.25084,163.00725c7.06464,5.84936 8.04979,16.31824 2.20044,23.38288c-5.84936,7.06464 -16.31824,8.04979 -23.38288,2.20044c-7.06464,-5.84936 -8.04979,-16.31824 -2.20044,-23.38288c5.84936,-7.06464 16.31824,-8.04981 23.38288,-2.20044z" fill="#ffe819" stroke-linecap="butt"/><path d="M275.50706,157.19606c0,0 1.64052,2.58633 2.27324,4.52301c0.50125,1.53426 1.22141,6.17362 1.22141,6.17362" fill="none" stroke-linecap="round"/><path d="M272.06747,150.11928c2.80883,-0.38413 5.39722,1.58144 5.78136,4.39024c0.38413,2.80883 -1.58144,5.39722 -4.39025,5.78137c-2.80883,0.38413 -5.39722,-1.58144 -5.78137,-4.39025c-0.38413,-2.80883 1.58144,-5.39722 4.39025,-5.78137z" fill="#ffe819" stroke-linecap="butt"/><path d="M269.17545,159.54887l4.8254,10.35189l8.58314,-7.88686c0,0 0.43246,17.97962 -5.7894,26.58326c-6.22186,8.60364 -19.36214,8.19652 -19.36214,8.19652z" data-paper-data="{&quot;index&quot;:null}" fill="#fff067" stroke-linecap="butt"/></g></g></svg>