<svg version="1.1" xmlns="http://www.w3.org/2000/svg" xmlns:xlink="http://www.w3.org/1999/xlink" width="54.69593" height="60.49283" viewBox="0,0,54.69593,60.49283"><g transform="translate(-209.67818,-165.12649)"><g data-paper-data="{&quot;isPaintingLayer&quot;:true}" fill-rule="nonzero" stroke="#000000" stroke-width="2" stroke-linejoin="miter" stroke-miterlimit="10" stroke-dasharray="" stroke-dashoffset="0" style="mix-blend-mode: normal"><path d="M220.78735,209.23086l12.83692,-22.10853l6.78923,3.94205l-12.83691,22.10854z" fill="#e80000" stroke-linecap="butt"/><path d="M225.1907,220.79462c0,-2.11232 1.71238,-3.8247 3.8247,-3.8247c2.11232,0 3.8247,1.71238 3.8247,3.8247c0,2.11232 -1.71238,3.8247 -3.8247,3.8247c-2.11232,0 -3.8247,-1.71238 -3.8247,-3.8247z" fill="#e80000" stroke-linecap="butt"/><path d="M254.73171,219.21821c0,-2.11232 1.71238,-3.8247 3.8247,-3.8247c2.11232,0 3.8247,1.71238 3.8247,3.8247c0,2.11232 -1.71238,3.8247 -3.8247,3.8247c-2.11232,0 -3.8247,-1.71238 -3.8247,-3.8247z" fill="#e80000" stroke-linecap="butt"/><path d="M222.64585,212.59328c-4.94719,0.02933 -6.35659,-2.62105 -6.37605,-5.90066c-0.01944,-3.2796 3.97528,-5.96202 8.92249,-5.99134c4.94719,-0.02933 8.96271,0.79386 8.98216,4.07347c0.0075,1.26664 -3.36067,7.77012 -11.5286,7.81855z" data-paper-data="{&quot;index&quot;:null}" fill="#e80000" stroke-linecap="butt"/><path d="M220.87265,178.6c0,0 2.87092,-1.06684 4.89684,-1.28303c1.60496,-0.17126 6.29264,0.08904 6.29264,0.08904" data-paper-data="{&quot;index&quot;:null}" fill="none" stroke-linecap="round"/><path d="M210.70913,179.56682c0.20833,-2.8273 2.66917,-4.9504 5.49648,-4.74207c2.8273,0.20833 4.95039,2.66917 4.74207,5.49647c-0.20833,2.8273 -2.66917,4.9504 -5.49647,4.74208c-2.8273,-0.20833 -4.9504,-2.66917 -4.74207,-5.49647z" data-paper-data="{&quot;index&quot;:null}" fill="#e80000" stroke-linecap="butt"/><path d="M230.15963,182.73373c0,-9.17193 7.43532,-16.60724 16.60724,-16.60724c9.17193,0 16.60724,7.43532 16.60724,16.60724c0,9.17193 -7.43532,16.60724 -16.60724,16.60724c-9.17193,0 -16.60724,-7.43532 -16.60724,-16.60724z" fill="#e80000" stroke-linecap="butt"/><path d="M229.08388,181.25671l-1.3957,-5.42329l32.34602,-8.32434l1.3957,5.42328z" fill="#ff2121" stroke-linecap="butt"/><path d="M240.14016,220.96316c-4.80349,1.18407 -6.79298,-1.06378 -7.57793,-4.24813c-0.78494,-3.18435 2.47273,-6.72563 7.27623,-7.90971c4.80349,-1.18407 8.90022,-1.32158 9.68517,1.86276c0.30316,1.22985 -1.45279,8.34015 -9.38347,10.29507z" data-paper-data="{&quot;index&quot;:null}" fill="#e80000" stroke-linecap="butt"/></g></g></svg>