<svg version="1.1" xmlns="http://www.w3.org/2000/svg" xmlns:xlink="http://www.w3.org/1999/xlink" width="84.98835" height="55.71347" viewBox="0,0,84.98835,55.71347"><g transform="translate(-195.51988,-173.18785)"><g data-paper-data="{&quot;isPaintingLayer&quot;:true}" fill-rule="nonzero" stroke="#000000" stroke-width="2" stroke-linejoin="miter" stroke-miterlimit="10" stroke-dasharray="" stroke-dashoffset="0" style="mix-blend-mode: normal"><path d="M258.91155,185.46313c-2.11099,-0.07496 -3.76153,-1.84704 -3.68656,-3.95802c0.07496,-2.11099 1.84704,-3.76153 3.95803,-3.68655c2.11099,0.07496 3.76153,1.84704 3.68655,3.95802c-0.07496,2.11099 -1.84704,3.76153 -3.95802,3.68655z" fill="#2d6a2b" stroke-linecap="butt"/><path d="M220.54373,208.73435c-8.8669,2.34572 -17.95652,-2.94076 -20.30223,-11.80764c-2.34572,-8.8669 2.94074,-17.95651 11.80762,-20.30224c8.8669,-2.34572 17.95652,2.94076 20.30223,11.80764c2.34572,8.8669 -2.94074,17.95651 -11.80762,20.30224z" fill="#2d6a2b" stroke-linecap="butt"/><path d="M273.73554,183.24509c4.92289,0.49055 6.04607,3.27434 5.72086,6.53784c-0.3252,3.2635 -4.57963,5.5114 -9.50252,5.02085c-4.92289,-0.49055 -8.82973,-1.73106 -8.50452,-4.99455c0.12561,-1.26041 4.15835,-7.37404 12.28617,-6.56414z" data-paper-data="{&quot;index&quot;:null}" fill="#2d6a2b" stroke-linecap="butt"/><path d="M223.47787,219.81876c0,0 -2.68049,-1.48167 -4.16507,-2.87706c-1.1761,-1.10546 -4.03447,-4.82992 -4.03447,-4.82992" fill="none" stroke-linecap="round"/><path d="M230.83633,226.89582c-2.27982,1.68506 -5.49399,1.2029 -7.17905,-1.07692c-1.68506,-2.27982 -1.2029,-5.49399 1.07692,-7.17905c2.27982,-1.68506 5.49399,-1.2029 7.17905,1.07691c1.68506,2.27982 1.2029,5.49399 -1.07692,7.17905z" fill="#2d6a2b" stroke-linecap="butt"/><path d="M275.10236,199.71505c3.82208,3.14121 3.21067,6.08012 1.1283,8.61386c-2.08239,2.53374 -6.86891,2.04128 -10.69099,-1.09996c-3.82208,-3.14121 -6.38271,-6.34202 -4.30031,-8.87577c0.80425,-0.97858 7.55268,-3.82439 13.86303,1.36186z" data-paper-data="{&quot;index&quot;:null}" fill="#2d6a2b" stroke-linecap="butt"/><path d="M198.66342,201.99363c-6.54032,-14.43491 3.97255,-26.94395 3.97255,-26.94395l17.43902,38.73614c0,0 -14.37965,3.72768 -21.41157,-11.79221z" fill="#367e33" stroke-linecap="round"/><g data-paper-data="{&quot;index&quot;:null}" fill="#2d6a2b" stroke-linecap="butt"><path d="M232.39701,190.69243c-0.30071,-4.03505 2.63375,-4.21468 2.63375,-4.21468l17.17364,-0.01343c0,0 -1.75684,2.73016 -1.67704,3.98363c0.08616,1.35327 2.1764,3.85952 2.1764,3.85952l-17.17364,0.01344c0,0 -2.87757,-0.19987 -3.13308,-3.62848z"/><path d="M250.58971,190.5249c-0.17091,-2.2189 1.14941,-4.06199 2.94905,-4.11669c1.79962,-0.05468 3.39707,1.69975 3.56798,3.91863c0.17091,2.2189 -1.14941,4.06199 -2.94905,4.11669c-1.79962,0.05469 -3.39708,-1.69976 -3.56799,-3.91864z"/></g><path d="M251.89809,199.39816c-2.11099,-0.07496 -3.76153,-1.84704 -3.68656,-3.95802c0.07496,-2.11099 1.84704,-3.76153 3.95803,-3.68655c2.11099,0.07496 3.76153,1.84704 3.68655,3.95802c-0.07496,2.11099 -1.84704,3.76153 -3.95802,3.68655z" fill="#2d6a2b" stroke-linecap="butt"/></g></g></svg>