<svg version="1.1" xmlns="http://www.w3.org/2000/svg" xmlns:xlink="http://www.w3.org/1999/xlink" width="102.03448" height="129.33095" viewBox="0,0,102.03448,129.33095"><g transform="translate(-206.44554,-103.10096)"><g data-paper-data="{&quot;isPaintingLayer&quot;:true}" fill-rule="nonzero" stroke="#000000" stroke-linejoin="miter" stroke-miterlimit="10" stroke-dasharray="" stroke-dashoffset="0" style="mix-blend-mode: normal"><path d="M251.23976,175.64142l-2.27575,-19.95739l5.4658,-0.7836l2.27575,19.95739z" fill="#ffffff" stroke-width="2" stroke-linecap="butt"/><g><path d="M262.71579,142.35505c0,0 -0.19542,-17.59558 4.16901,-27.18315c4.36443,-9.58757 8.46549,-5.67402 8.44809,-0.53346c-0.0174,5.14057 -8.53606,26.52777 -8.53606,26.52777z" fill="#ffffff" stroke-width="2" stroke-linecap="round"/><path d="M270.22784,129.1893c-1.44086,5.67964 -3.36409,10.04302 -4.29565,9.74589c-0.93156,-0.29713 -0.51868,-5.14223 0.92218,-10.82187c1.44086,-5.67964 3.36409,-10.04302 4.29565,-9.74589c0.93156,0.29713 0.51868,5.14223 -0.92218,10.82187z" fill="#ffb8c9" stroke-width="0" stroke-linecap="butt"/></g><g><path d="M254.42627,138.78035c0,0 -3.80924,-17.07072 -1.53444,-27.52845c2.2748,-10.45773 7.07024,-7.71018 8.11063,-2.70369c1.04039,5.00649 -2.84968,28.02003 -2.84968,28.02003z" fill="#ffffff" stroke-width="2" stroke-linecap="round"/><path d="M259.02787,124.02696c-0.23383,5.89912 -1.20774,10.64222 -2.1753,10.594c-0.96756,-0.04821 -1.56237,-4.86949 -1.32854,-10.76862c0.23383,-5.89912 1.20774,-10.64222 2.1753,-10.594c0.96756,0.04821 1.56237,4.86949 1.32854,10.76862z" fill="#ffb8c9" stroke-width="0" stroke-linecap="butt"/></g><path d="M250.42458,153.59325c1.70849,1.3928 2.08653,4.07485 0.84439,5.99054c-1.24216,1.91568 -3.63413,2.33957 -5.34263,0.94679c-1.70849,-1.3928 -2.08653,-4.07485 -0.84439,-5.99054c1.24216,-1.91568 3.63413,-2.33957 5.34263,-0.94679z" fill="#ff6b00" stroke-width="2" stroke-linecap="butt"/><path d="M262.61664,158.66123c1.70849,1.3928 2.08653,4.07485 0.84439,5.99054c-1.24216,1.91568 -3.63413,2.33957 -5.34263,0.94679c-1.70849,-1.3928 -2.08653,-4.07485 -0.84439,-5.99054c1.24216,-1.91568 3.63413,-2.33957 5.34263,-0.94679z" fill="#ffffff" stroke-width="2" stroke-linecap="butt"/><path d="M249.27217,147.5615c0,-6.55121 4.73642,-11.86202 10.57907,-11.86202c5.84266,0 10.57907,5.31082 10.57907,11.86202c0,6.55121 -4.73642,11.86202 -10.57907,11.86202c-5.84266,0 -10.57907,-5.31082 -10.57907,-11.86202z" fill="#ffffff" stroke-width="2" stroke-linecap="butt"/><path d="M268.97621,166.61976c3.14762,-1.83655 4.91454,-0.45724 6.00036,1.88243c1.08581,2.33968 -0.5856,5.72517 -3.73323,7.56176c-3.14762,1.83655 -5.97968,2.72117 -7.0655,0.38148c-0.41936,-0.90362 -0.39842,-6.79344 4.79837,-9.82565z" data-paper-data="{&quot;index&quot;:null}" fill="#ffffff" stroke-width="2" stroke-linecap="butt"/><path d="M259.83507,170.47669c3.37626,-1.22373 4.91389,0.46599 5.63739,2.97563c0.7235,2.50963 -1.42699,5.53612 -4.80327,6.75988c-3.37626,1.22373 -6.30012,1.56765 -7.02362,-0.94199c-0.27943,-0.96926 0.6152,-6.77308 6.1895,-8.7935z" data-paper-data="{&quot;index&quot;:null}" fill="#ffffff" stroke-width="2" stroke-linecap="butt"/><path d="M255.42458,159.19962c1.70849,1.3928 2.08653,4.07485 0.84439,5.99054c-1.24216,1.91568 -3.63413,2.33957 -5.34263,0.94679c-1.70849,-1.3928 -2.08653,-4.07485 -0.84439,-5.99054c1.24216,-1.91568 3.63413,-2.33957 5.34263,-0.94679z" fill="#ffffff" stroke-width="2" stroke-linecap="butt"/><path d="M281.13325,176.07095c0,0 -1.47403,2.6847 -2.8652,4.17323c-1.1021,1.17924 -4.81845,4.04819 -4.81845,4.04819" fill="none" stroke-width="2" stroke-linecap="round"/><path d="M288.18938,168.69239c1.69152,2.27502 1.21852,5.49055 -1.0565,7.18207c-2.27502,1.69152 -5.49055,1.21852 -7.18207,-1.0565c-1.69152,-2.27502 -1.21852,-5.49055 1.0565,-7.18207c2.27502,-1.69152 5.49055,-1.21852 7.18207,1.0565z" fill="#ff6b00" stroke-width="2" stroke-linecap="butt"/><path d="M276.16352,165.76604l-0.60135,13.68103l31.18201,19.60801l-40.38471,31.64466l-9.30229,-36.38146l-13.61558,-1.28929z" data-paper-data="{&quot;index&quot;:null}" fill="#ffa340" stroke-width="2" stroke-linecap="butt"/><path d="M229.75129,207.4911l-3.24234,-25.35865l7.78731,-0.99568l3.24234,25.35865z" fill="#ff6b00" stroke-width="2" stroke-linecap="butt"/><path d="M207.44554,160.1974c0,-9.17193 7.43532,-16.60724 16.60724,-16.60724c9.17193,0 16.60724,7.43532 16.60724,16.60724c0,9.17193 -7.43532,16.60724 -16.60724,16.60724c-9.17193,0 -16.60724,-7.43532 -16.60724,-16.60724z" fill="#ff6b00" stroke-width="2" stroke-linecap="butt"/><path d="M222.81413,215.01801c4.11347,0 7.4481,2.47844 7.4481,5.53575c0,3.05731 -3.33463,5.53575 -7.4481,5.53575c-4.11347,0 -7.4481,-2.47844 -7.4481,-5.53575c0,-3.05731 3.33463,-5.53575 7.4481,-5.53575z" data-paper-data="{&quot;index&quot;:null}" fill="#ff6b00" stroke-width="2" stroke-linecap="butt"/><path d="M255.84353,213.99604c4.94301,-0.20549 6.44591,2.39302 6.58214,5.66985c0.13622,3.27683 -3.76044,6.0998 -8.70347,6.30531c-4.94301,0.20549 -8.9853,-0.47417 -9.12152,-3.75101c-0.05261,-1.26556 3.08182,-7.88486 11.24285,-8.22413z" data-paper-data="{&quot;index&quot;:null}" fill="#ff6b00" stroke-width="2" stroke-linecap="butt"/><path d="M261.91345,178.68304c1.70849,1.24216 2.08653,3.63413 0.84439,5.34263c-1.24216,1.70849 -3.63413,2.08653 -5.34263,0.84439c-1.70849,-1.24216 -2.08653,-3.63413 -0.84439,-5.34263c1.24216,-1.70849 3.63413,-2.08653 5.34263,-0.84439z" fill="#ff6b00" stroke-width="2" stroke-linecap="butt"/></g></g></svg>