<svg version="1.1" xmlns="http://www.w3.org/2000/svg" xmlns:xlink="http://www.w3.org/1999/xlink" width="78.92391" height="97.72577" viewBox="0,0,78.92391,97.72577"><g transform="translate(-192.58094,-137.91514)"><g data-paper-data="{&quot;isPaintingLayer&quot;:true}" fill-rule="nonzero" stroke="#000000" stroke-width="2" stroke-linejoin="miter" stroke-miterlimit="10" stroke-dasharray="" stroke-dashoffset="0" style="mix-blend-mode: normal"><path d="M216.47959,168.48036c-4.21529,-8.1459 -1.0289,-18.16661 7.11698,-22.3819c8.1459,-4.21529 18.16661,-1.0289 22.3819,7.11698c4.21529,8.1459 1.0289,18.16661 -7.11698,22.3819c-8.1459,4.21529 -18.16661,1.0289 -22.3819,-7.11698z" fill="#2d6a2b" stroke-linecap="butt"/><path d="M215.96502,148.05006c10.62916,-11.75428 23.69031,-8.80586 23.69031,-8.80586l-25.97749,31.70593c0,0 -9.1409,-10.26229 2.28718,-22.90007z" fill="#367e33" stroke-linecap="round"/><path d="M241.40213,206.62423l-3.69303,-25.29694l7.76836,-1.13408l3.69303,25.29694z" data-paper-data="{&quot;index&quot;:null}" fill="#2d6a2b" stroke-linecap="butt"/><path d="M221.27725,193.22038c0,-2.11232 1.71238,-3.8247 3.8247,-3.8247c2.11232,0 3.8247,1.71238 3.8247,3.8247c0,2.11232 -1.71238,3.8247 -3.8247,3.8247c-2.11232,0 -3.8247,-1.71238 -3.8247,-3.8247z" fill="#2d6a2b" stroke-linecap="butt"/><path d="M258.05401,182.18171c0,-2.11232 1.71238,-3.8247 3.8247,-3.8247c2.11232,0 3.8247,1.71238 3.8247,3.8247c0,2.11232 -1.71238,3.8247 -3.8247,3.8247c-2.11232,0 -3.8247,-1.71238 -3.8247,-3.8247z" fill="#2d6a2b" stroke-linecap="butt"/><path d="M268.17506,212.72622c3.49826,3.49826 2.60375,6.36371 0.28468,8.68278c-2.31907,2.31907 -7.03495,1.36315 -10.5332,-2.13511c-3.49826,-3.49826 -5.73524,-6.93307 -3.41617,-9.25214c0.89566,-0.89566 7.88899,-3.07123 13.6647,2.70447z" data-paper-data="{&quot;index&quot;:null}" fill="#2d6a2b" stroke-linecap="butt"/><path d="M202.30891,162.53585c0,0 1.88731,-2.41214 3.50012,-3.65711c1.27769,-0.98627 5.4077,-3.21901 5.4077,-3.21901" fill="none" stroke-linecap="round"/><path d="M194.15623,168.68122c-1.30291,-2.51782 -0.31803,-5.61514 2.1998,-6.91805c2.51782,-1.30291 5.61514,-0.31803 6.91805,2.1998c1.30291,2.51782 0.31803,5.61514 -2.1998,6.91805c-2.51782,1.30291 -5.61514,0.31803 -6.91805,-2.1998z" fill="#2d6a2b" stroke-linecap="butt"/><path d="M241.76413,228.29996c0,4.94728 -2.65869,6.34095 -5.93835,6.34095c-3.27966,0 -5.93835,-4.01057 -5.93835,-8.95785c0,-4.94728 0.84699,-8.95785 4.12665,-8.95785c1.26666,0 7.75005,3.40667 7.75005,11.57475z" data-paper-data="{&quot;index&quot;:null}" fill="#2d6a2b" stroke-linecap="butt"/></g></g></svg>