<svg version="1.1" xmlns="http://www.w3.org/2000/svg" xmlns:xlink="http://www.w3.org/1999/xlink" width="51.64243" height="25.72079" viewBox="0,0,51.64243,25.72079"><defs><linearGradient x1="227.54305" y1="185.20238" x2="246.04371" y2="161.37934" gradientUnits="userSpaceOnUse" id="color-1"><stop offset="0" stop-color="#ff0000" stop-opacity="0"/><stop offset="1" stop-color="#ff0000"/></linearGradient><linearGradient x1="232.05105" y1="183.9201" x2="245.81166" y2="164.94628" gradientUnits="userSpaceOnUse" id="color-2"><stop offset="0" stop-color="#ff7b00" stop-opacity="0"/><stop offset="1" stop-color="#ff7b00"/></linearGradient><linearGradient x1="237.09993" y1="182.7685" x2="246.50735" y2="168.38802" gradientUnits="userSpaceOnUse" id="color-3"><stop offset="0" stop-color="#ffde00" stop-opacity="0"/><stop offset="1" stop-color="#ffde00"/></linearGradient></defs><g transform="translate(-211.251,-162.09927)"><g data-paper-data="{&quot;isPaintingLayer&quot;:true}" fill-rule="nonzero" stroke="#000000" stroke-width="0" stroke-linecap="butt" stroke-linejoin="miter" stroke-miterlimit="10" stroke-dasharray="" stroke-dashoffset="0" style="mix-blend-mode: normal"><g><path d="M260.14825,172.84379c5.85691,6.36143 1.54649,10.71473 -5.46396,13.44876c-7.01045,2.73403 -16.08993,1.4707 -25.90199,-1.21627c-14.6168,-4.0027 -17.5313,-22.97702 -17.5313,-22.97702c0,0 11.01994,11.41369 25.0641,10.26632c12.58345,-1.02803 17.97623,-5.88327 23.83316,0.47819z" data-paper-data="{&quot;index&quot;:null}" fill="url(#color-1)"/><path d="M258.81662,173.63254c5.53616,4.85792 2.22852,8.34306 -3.51984,10.61501c-5.74835,2.27195 -13.60094,1.46017 -22.19928,-0.44994c-12.80874,-2.84544 -16.90517,-17.61645 -16.90517,-17.61645c0,0 10.36929,8.7062 22.2525,7.53823c10.64725,-1.04649 14.83562,-4.94479 20.37179,-0.08685z" data-paper-data="{&quot;index&quot;:null}" fill="url(#color-2)"/><path d="M257.07999,174.37577c4.57404,3.40233 2.24481,6.06784 -2.04229,7.9163c-4.2871,1.84847 -10.39092,1.49369 -17.13894,0.35404c-10.05236,-1.69768 -16.4664,-11.31468 -16.4664,-11.31468c0,0 10.86577,4.96256 19.95118,3.7368c8.14045,-1.09827 11.1224,-4.09483 15.69645,-0.69248z" data-paper-data="{&quot;index&quot;:null}" fill="url(#color-3)"/></g></g></g></svg>