<svg version="1.1" xmlns="http://www.w3.org/2000/svg" xmlns:xlink="http://www.w3.org/1999/xlink" width="53.54703" height="62.0803" viewBox="0,0,53.54703,62.0803"><g transform="translate(-211.03152,-164.30102)"><g data-paper-data="{&quot;isPaintingLayer&quot;:true}" fill-rule="nonzero" stroke="#000000" stroke-width="2" stroke-linejoin="miter" stroke-miterlimit="10" stroke-dasharray="" stroke-dashoffset="0" style="mix-blend-mode: normal"><path d="M233.00929,217.13816l-2.54977,-25.43762l7.81155,-0.78301l2.54977,25.43762z" data-paper-data="{&quot;index&quot;:null}" fill="#e80000" stroke-linecap="butt"/><path d="M255.92915,199.76916c0,-2.11232 1.71238,-3.8247 3.8247,-3.8247c2.11232,0 3.8247,1.71238 3.8247,3.8247c0,2.11232 -1.71238,3.8247 -3.8247,3.8247c-2.11232,0 -3.8247,-1.71238 -3.8247,-3.8247z" data-paper-data="{&quot;index&quot;:null}" fill="#e80000" stroke-linecap="butt"/><path d="M218.03171,210.51112c0,-2.11232 1.71238,-3.8247 3.8247,-3.8247c2.11232,0 3.8247,1.71238 3.8247,3.8247c0,2.11232 -1.71238,3.8247 -3.8247,3.8247c-2.11232,0 -3.8247,-1.71238 -3.8247,-3.8247z" data-paper-data="{&quot;index&quot;:null}" fill="#e80000" stroke-linecap="butt"/><path d="M221.7651,214.30982c4.11347,0 7.4481,2.47844 7.4481,5.53575c0,3.05731 -3.33463,5.53575 -7.4481,5.53575c-4.11347,0 -7.4481,-2.47844 -7.4481,-5.53575c0,-3.05731 3.33463,-5.53575 7.4481,-5.53575z" data-paper-data="{&quot;index&quot;:null}" fill="#e80000" stroke-linecap="butt"/><path d="M253.75219,213.11871c4.94728,0 6.34095,2.65869 6.34095,5.93835c0,3.27966 -4.01056,5.93835 -8.95785,5.93835c-4.94728,0 -8.95785,-0.84699 -8.95785,-4.12665c0,-1.26666 3.40667,-7.75005 11.57475,-7.75005z" data-paper-data="{&quot;index&quot;:null}" fill="#e80000" stroke-linecap="butt"/><g><path d="M220.62365,172.68438c0,0 2.87676,1.05098 4.55861,2.20097c1.33238,0.91104 4.73047,4.15065 4.73047,4.15065" data-paper-data="{&quot;index&quot;:null}" fill="none" stroke-linecap="round"/><path d="M212.03152,166.82558c1.99298,-2.0162 5.24305,-2.03503 7.25925,-0.04205c2.0162,1.99298 2.03503,5.24305 0.04205,7.25925c-1.99298,2.0162 -5.24305,2.03503 -7.25925,0.04205c-2.0162,-1.99298 -2.03503,-5.24305 -0.04205,-7.25925z" data-paper-data="{&quot;index&quot;:null}" fill="#e80000" stroke-linecap="butt"/><path d="M246.70598,198.79864c-8.29784,3.90769 -18.19238,0.34878 -22.10007,-7.94907c-3.90769,-8.29784 -0.34878,-18.19238 7.94907,-22.10007c8.29784,-3.90769 18.19238,-0.34878 22.10007,7.94907c3.90769,8.29784 0.34878,18.19238 -7.94907,22.10007z" data-paper-data="{&quot;index&quot;:null}" fill="#e80000" stroke-linecap="butt"/><path d="M222.18897,181.15395l-1.0479,-5.50108l32.81002,-6.24997l1.0479,5.50109z" data-paper-data="{&quot;index&quot;:null}" fill="#ff2121" stroke-linecap="butt"/></g></g></g></svg>