<svg version="1.1" xmlns="http://www.w3.org/2000/svg" xmlns:xlink="http://www.w3.org/1999/xlink" width="81.75669" height="97.32495" viewBox="0,0,81.75669,97.32495"><g transform="translate(-185.64393,-128.34103)"><g data-paper-data="{&quot;isPaintingLayer&quot;:true}" fill-rule="nonzero" stroke="#000000" stroke-width="2" stroke-linejoin="miter" stroke-miterlimit="10" stroke-dasharray="" stroke-dashoffset="0" style="mix-blend-mode: normal"><path d="M229.28552,211.07651c4.11347,0 7.4481,3.0421 7.4481,6.79473c0,3.75262 -3.33463,6.79473 -7.4481,6.79473c-4.11347,0 -7.4481,-3.0421 -7.4481,-6.79473c0,-3.75262 3.33463,-6.79473 7.4481,-6.79473z" data-paper-data="{&quot;index&quot;:null}" fill="#ffe819" stroke-linecap="butt"/><path d="M262.98319,213.79721c4.20183,2.61155 3.98205,5.60531 2.2508,8.3908c-1.73125,2.78549 -6.54096,2.9265 -10.74281,0.31494c-4.20183,-2.61155 -7.16099,-5.44799 -5.42974,-8.23348c0.66864,-1.0758 6.98442,-4.78399 13.92175,-0.47226z" data-paper-data="{&quot;index&quot;:null}" fill="#ffe819" stroke-linecap="butt"/><path d="M222.36925,131.95841c0.66736,-2.00413 2.83303,-3.08781 4.83716,-2.42045c2.00413,0.66736 3.0878,2.83304 2.42044,4.83717c-0.66736,2.00413 -2.83303,3.0878 -4.83716,2.42044c-2.00413,-0.66736 -3.0878,-2.83302 -2.42044,-4.83715z" fill="#ffe819" stroke-linecap="butt"/><path d="M208.35327,163.88614c-5.07111,-7.64252 -2.98656,-17.94895 4.65595,-23.02006c7.64252,-5.07111 17.94895,-2.98656 23.02005,4.65595c5.07111,7.64252 2.98657,17.94895 -4.65595,23.02005c-7.64252,5.07111 -17.94895,2.98657 -23.02006,-4.65595z" fill="#ffe819" stroke-linecap="butt"/><path d="M238.98488,199.04168l-8.33091,-24.16961l7.42217,-2.55831l8.33091,24.16961z" fill="#ffe819" stroke-linecap="butt"/><path d="M193.15415,167.72864c0,0 0.52257,-3.01783 1.35511,-4.87739c0.65956,-1.47316 3.24314,-5.39326 3.24314,-5.39326" fill="none" stroke-linecap="round"/><path d="M188.87578,176.99835c-2.33851,-1.60261 -2.93507,-4.79752 -1.33246,-7.13603c1.60261,-2.33851 4.79753,-2.93507 7.13604,-1.33246c2.33851,1.60261 2.93507,4.79752 1.33246,7.13603c-1.60261,2.33851 -4.79753,2.93508 -7.13604,1.33247z" fill="#ffe819" stroke-linecap="butt"/><path d="M207.07144,168.30935l-4.14338,-13.26347l-10.49726,5.0676c0,0 4.78574,-17.33639 13.22992,-23.77301c8.44417,-6.43662 20.9052,-2.24671 20.9052,-2.24671z" data-paper-data="{&quot;index&quot;:null}" fill="#fff067" stroke-linecap="butt"/><path d="M202.20022,152.68769c0.66736,-2.00413 2.83303,-3.0878 4.83716,-2.42044c2.00413,0.66736 3.08781,2.83303 2.42045,4.83716c-0.66736,2.00413 -2.83303,3.0878 -4.83716,2.42044c-2.00413,-0.66736 -3.08781,-2.83303 -2.42045,-4.83716z" fill="#ffe819" stroke-linecap="butt"/></g></g></svg>