<svg version="1.1" xmlns="http://www.w3.org/2000/svg" xmlns:xlink="http://www.w3.org/1999/xlink" width="226.60212" height="93.55556" viewBox="0,0,226.60212,93.55556"><defs><radialGradient cx="248.81079" cy="139.84581" r="18.84183" gradientUnits="userSpaceOnUse" id="color-1"><stop offset="0" stop-color="#ffffff"/><stop offset="1" stop-color="#0debff"/></radialGradient></defs><g transform="translate(-193.60376,-133.06428)"><g data-paper-data="{&quot;isPaintingLayer&quot;:true}" fill-rule="nonzero" stroke-linejoin="miter" stroke-miterlimit="10" stroke-dasharray="" stroke-dashoffset="0" style="mix-blend-mode: normal"><path d="M234.1951,200.9585l12.83582,-22.10916l6.78943,3.9417l-12.83582,22.10916z" data-paper-data="{&quot;index&quot;:null}" fill="#0debff" stroke="#000000" stroke-width="2" stroke-linecap="butt"/><path d="M225.73681,182.31188c0,-2.11232 1.71238,-3.8247 3.8247,-3.8247c2.11232,0 3.8247,1.71238 3.8247,3.8247c0,2.11232 -1.71238,3.8247 -3.8247,3.8247c-2.11232,0 -3.8247,-1.71238 -3.8247,-3.8247z" fill="#0debff" stroke="#000000" stroke-width="2" stroke-linecap="butt"/><path d="M259.59867,213.47731c2.16261,4.44957 0.38061,6.86523 -2.56911,8.29889c-2.94972,1.43365 -7.09408,-1.01124 -9.2567,-5.46084c-2.16261,-4.44957 -3.15399,-8.42691 -0.20426,-9.86056c1.13924,-0.55369 8.45954,-0.32385 12.03006,7.02252z" data-paper-data="{&quot;index&quot;:null}" fill="#0debff" stroke="#000000" stroke-width="2" stroke-linecap="butt"/><path d="M248.91491,155.14158c3.96081,-8.27262 13.87796,-11.76803 22.15058,-7.80723c8.27262,3.96081 11.76803,13.87796 7.80723,22.15058c-3.96081,8.27262 -13.87796,11.76803 -22.15058,7.80723c-8.27262,-3.96081 -11.76803,-13.87796 -7.80723,-22.15058z" fill="#0debff" stroke="#000000" stroke-width="2" stroke-linecap="butt"/><path d="M238.28774,153.46142c0,0 2.49209,-1.7804 4.39101,-2.51877c1.50435,-0.58495 6.09701,-1.55941 6.09701,-1.55941" fill="none" stroke="#000000" stroke-width="2" stroke-linecap="round"/><path d="M228.73058,157.05204c-0.53818,-2.78341 1.28193,-5.47609 4.06534,-6.01427c2.78341,-0.53818 5.47609,1.28193 6.01427,4.06534c0.53818,2.78341 -1.28193,5.47609 -4.06534,6.01427c-2.78341,0.53818 -5.47609,-1.28193 -6.01427,-4.06534z" fill="#0debff" stroke="#000000" stroke-width="2" stroke-linecap="butt"/><path d="M244.8037,159.19722l0.90622,-20.78712l29.71843,-4.23864l6.68147,19.70491z" fill="url(#color-1)" stroke="#000000" stroke-width="2" stroke-linecap="butt"/><path d="M203.22568,223.97266c-3.99835,2.91354 -6.69046,1.58559 -8.62192,-1.06501c-1.93146,-2.6506 -0.25591,-7.16123 3.74245,-10.07479c3.99835,-2.91354 7.73846,-4.59093 9.66992,-1.94033c0.74596,1.02371 1.81092,8.26979 -4.79047,13.08012z" data-paper-data="{&quot;index&quot;:null}" fill="#0debff" stroke="#000000" stroke-width="2" stroke-linecap="butt"/><g fill="#76f4ff" stroke="#53acb4" stroke-width="1" stroke-linecap="butt"><path d="M420.07147,212.2993l-79.08816,-6.13626l-33.46515,-13.74029l36.14718,-1.44697z" data-paper-data="{&quot;index&quot;:null}"/><path d="M292.81461,183.9357l23.89097,7.07135l-0.97694,5.53204l-24.77022,-2.09252z"/><path d="M321.11444,214.91907l-9.11665,-13.57623l2.88272,-16.60679l13.16564,-9.06862l-7.11878,18.98072z"/></g><path d="M290.24593,186.45839c1.61144,-1.3657 4.02491,-1.16649 5.39061,0.44496c1.3657,1.61144 1.16649,4.02491 -0.44496,5.39061c-1.61144,1.3657 -4.02491,1.16649 -5.39061,-0.44496c-1.3657,-1.61144 -1.16649,-4.02491 0.44496,-5.39061z" fill="#0debff" stroke="#000000" stroke-width="2" stroke-linecap="butt"/></g></g></svg>