<svg version="1.1" xmlns="http://www.w3.org/2000/svg" xmlns:xlink="http://www.w3.org/1999/xlink" width="63.51613" height="125.1588" viewBox="0,0,63.51613,125.1588"><g transform="translate(-208.92633,-100.71107)"><g data-paper-data="{&quot;isPaintingLayer&quot;:true}" fill-rule="nonzero" stroke="#000000" stroke-width="2" stroke-linejoin="miter" stroke-miterlimit="10" stroke-dasharray="" stroke-dashoffset="0" style="mix-blend-mode: normal"><path d="M255.27629,197.62455c3.7268,3.25368 3.0281,6.17308 0.87116,8.64365c-2.15694,2.47057 -6.92666,1.83574 -10.65347,-1.41795c-3.7268,-3.25368 -6.19095,-6.52938 -4.034,-8.99995c0.83305,-0.95417 7.66325,-3.59768 13.8163,1.77424z" data-paper-data="{&quot;index&quot;:null}" fill="#ff6b00" stroke-linecap="butt"/><path d="M238.3488,159.79149c-0.78162,-9.13856 5.99302,-17.18046 15.13157,-17.96208c9.13856,-0.78162 17.18046,5.99302 17.96208,15.13157c0.78162,9.13856 -5.99302,17.18046 -15.13157,17.96208c-9.13856,0.78162 -17.18046,-5.99302 -17.96208,-15.13157z" fill="#ff6b00" stroke-linecap="butt"/><path d="M235.39801,197.65668l6.70895,-24.66908l7.57554,2.06023l-6.70894,24.66907z" data-paper-data="{&quot;index&quot;:null}" fill="#ff6b00" stroke-linecap="butt"/><path d="M232.78847,158.38498l4.34825,-12.14117l-26.41719,-21.65769l41.8177,-22.30075l3.81057,33.41229l12.50453,3.03717z" data-paper-data="{&quot;index&quot;:null}" fill="#ffa340" stroke-linecap="butt"/><path d="M236.75349,218.34733c0.15222,4.94494 -2.46235,6.41975 -5.74047,6.52064c-3.2781,0.10089 -6.05893,-3.82596 -6.21114,-8.77092c-0.15222,-4.94494 0.57101,-8.97968 3.8491,-9.08056c1.26606,-0.03896 7.85119,3.16663 8.10249,11.33083z" data-paper-data="{&quot;index&quot;:null}" fill="#ff6b00" stroke-linecap="butt"/><path d="M245.63004,185.88843c-0.18001,-2.10464 1.38021,-3.95671 3.48485,-4.13672c2.10464,-0.18001 3.95671,1.38021 4.13672,3.48485c0.18001,2.10464 -1.38021,3.95671 -3.48485,4.13672c-2.10464,0.18001 -3.95671,-1.38021 -4.13672,-3.48485z" fill="#ff6b00" stroke-linecap="butt"/><path d="M238.09259,144.57174c0,0 -4.15194,2.19165 -5.68208,2.70538c-1.93145,0.64847 -4.98573,0.87622 -4.98573,0.87622" data-paper-data="{&quot;index&quot;:null}" fill="none" stroke-linecap="round"/><path d="M219.8017,144.54018c2.48278,-1.36853 5.60486,-0.46522 6.97339,2.01753c1.36852,2.48276 0.46524,5.60485 -2.01753,6.97337c-2.48278,1.36853 -5.60486,0.46522 -6.97339,-2.01753c-1.36852,-2.48276 -0.46524,-5.60485 2.01753,-6.97337z" data-paper-data="{&quot;index&quot;:null}" fill="#ff6b00" stroke-linecap="butt"/><path d="M258.34646,180.84891c-0.18001,-2.10464 1.38021,-3.95671 3.48485,-4.13672c2.10464,-0.18001 3.95671,1.38021 4.13672,3.48485c0.18001,2.10464 -1.38021,3.95671 -3.48485,4.13672c-2.10464,0.18001 -3.95671,-1.38021 -4.13672,-3.48485z" fill="#ff6b00" stroke-linecap="butt"/></g></g></svg>