<svg version="1.1" xmlns="http://www.w3.org/2000/svg" xmlns:xlink="http://www.w3.org/1999/xlink" width="81.74594" height="85.04847" viewBox="0,0,81.74594,85.04847"><g transform="translate(-198.96375,-142.80827)"><g data-paper-data="{&quot;isPaintingLayer&quot;:true}" fill-rule="nonzero" stroke="#000000" stroke-width="2" stroke-linejoin="miter" stroke-miterlimit="10" stroke-dasharray="" stroke-dashoffset="0" style="mix-blend-mode: normal"><path d="M201.34541,202.49085c-1.6252,-1.34931 -1.84885,-3.76063 -0.49954,-5.38583c1.34931,-1.6252 3.76063,-1.84885 5.38583,-0.49954c1.6252,1.34931 1.84885,3.76063 0.49954,5.38583c-1.34931,1.6252 -3.76063,1.84885 -5.38583,0.49954z" fill="#e80000" stroke-linecap="butt"/><path d="M238.35945,207.18574l-7.85375,-24.32884l7.47107,-2.41178l7.85375,24.32884z" data-paper-data="{&quot;index&quot;:null}" fill="#e80000" stroke-linecap="butt"/><path d="M278.52122,209.76734c2.54336,2.07063 0.66812,5.71555 -2.45536,9.55215c-3.12348,3.8366 -7.71736,5.2682 -10.26073,3.19758c-2.54336,-2.07063 -3.72527,-4.82998 -0.60179,-8.66657c5.15693,-6.33432 12.3356,-4.88286 13.31788,-4.08316z" data-paper-data="{&quot;index&quot;:null}" fill="#e80000" stroke-linecap="butt"/><path d="M237.56871,221.96724c0.28501,3.26725 -3.63678,4.45957 -8.56534,4.8895c-4.92858,0.42993 -9.15501,-1.87017 -9.44002,-5.13742c-0.28501,-3.26725 0.87234,-6.037 5.8009,-6.46693c8.13718,-0.70983 12.09438,5.45299 12.20445,6.71486z" data-paper-data="{&quot;index&quot;:null}" fill="#e80000" stroke-linecap="butt"/><path d="M228.42718,200.09038c-1.6252,-1.34931 -1.84885,-3.76063 -0.49954,-5.38583c1.34931,-1.6252 3.76063,-1.84885 5.38583,-0.49954c1.6252,1.34931 1.84885,3.76063 0.49954,5.38583c-1.34931,1.6252 -3.76063,1.84885 -5.38583,0.49954z" fill="#e80000" stroke-linecap="butt"/><path d="M229.08629,157.92456c0,0 3.30782,-3.33173 4.61467,-4.27903c1.64962,-1.19576 4.49643,-2.32536 4.49643,-2.32536" data-paper-data="{&quot;index&quot;:null}" fill="none" stroke-linecap="round"/><path d="M246.55167,152.49157c-1.96069,2.04761 -5.21005,2.11806 -7.25766,0.15737c-2.04761,-1.96069 -2.11806,-5.21005 -0.15737,-7.25766c1.96069,-2.04761 5.21005,-2.11806 7.25766,-0.15737c2.04761,1.96069 2.11806,5.21005 0.15737,7.25766z" data-paper-data="{&quot;index&quot;:null}" fill="#e80000" stroke-linecap="butt"/><path d="M234.0838,181.76918c-7.7414,4.91883 -18.00455,2.6307 -22.92338,-5.1107c-4.91883,-7.7414 -2.6307,-18.00455 5.1107,-22.92338c7.7414,-4.91883 18.00455,-2.6307 22.92338,5.1107c4.91883,7.7414 2.6307,18.00455 -5.1107,22.92338z" data-paper-data="{&quot;index&quot;:null}" fill="#e80000" stroke-linecap="butt"/><path d="M207.54499,167.34314l-1.73045,-5.32593l31.76536,-10.32092l1.73045,5.32593z" data-paper-data="{&quot;index&quot;:null}" fill="#ff2121" stroke-linecap="butt"/></g></g></svg>