<svg version="1.1" xmlns="http://www.w3.org/2000/svg" xmlns:xlink="http://www.w3.org/1999/xlink" width="159.57943" height="126.8934" viewBox="0,0,159.57943,126.8934"><defs><radialGradient cx="231.02631" cy="138.0311" r="18.84183" gradientUnits="userSpaceOnUse" id="color-1"><stop offset="0" stop-color="#ffffff"/><stop offset="1" stop-color="#0debff"/></radialGradient></defs><g transform="translate(-209.3518,-104.87627)"><g data-paper-data="{&quot;isPaintingLayer&quot;:true}" fill-rule="nonzero" stroke-linejoin="miter" stroke-miterlimit="10" stroke-dasharray="" stroke-dashoffset="0" style="mix-blend-mode: normal"><g fill="#76f4ff" stroke="#53acb4" stroke-width="1" stroke-linecap="butt"><path d="M368.57594,105.29018l-55.81499,56.36735l-32.11878,16.6462l22.26678,-28.51145z" data-paper-data="{&quot;index&quot;:null}"/><path d="M264.66113,184.03352l20.84108,-13.654l3.58865,4.32198l-17.61131,17.54378z"/><path d="M306.5947,182.47621l-16.25131,-1.82269l-10.80517,-12.93614l1.59387,-15.90703l9.87741,17.70259z"/></g><path d="M264.30437,188.00117c0,-2.11232 1.71238,-3.8247 3.8247,-3.8247c2.11232,0 3.8247,1.71238 3.8247,3.8247c0,2.11232 -1.71238,3.8247 -3.8247,3.8247c-2.11232,0 -3.8247,-1.71238 -3.8247,-3.8247z" fill="#0debff" stroke="#000000" stroke-width="2" stroke-linecap="butt"/><path d="M241.39151,204.98799l-2.57823,-25.43474l7.81067,-0.79174l2.57823,25.43475z" data-paper-data="{&quot;index&quot;:null}" fill="#0debff" stroke="#000000" stroke-width="2" stroke-linecap="butt"/><path d="M214.89077,184.62555c0,-2.11232 1.71238,-3.8247 3.8247,-3.8247c2.11232,0 3.8247,1.71238 3.8247,3.8247c0,2.11232 -1.71238,3.8247 -3.8247,3.8247c-2.11232,0 -3.8247,-1.71238 -3.8247,-3.8247z" fill="#0debff" stroke="#000000" stroke-width="2" stroke-linecap="butt"/><path d="M270.20643,216.32163c3.93695,-2.99599 6.65607,-1.72425 8.64218,0.88564c1.98611,2.60989 0.40465,7.15435 -3.53231,10.15036c-3.93695,2.99599 -7.6414,4.75073 -9.62751,2.14084c-0.76707,-1.00798 -1.98236,-8.23037 4.51765,-13.17684z" data-paper-data="{&quot;index&quot;:null}" fill="#0debff" stroke="#000000" stroke-width="2" stroke-linecap="butt"/><path d="M231.13044,153.32688c3.96081,-8.27262 13.87796,-11.76803 22.15058,-7.80723c8.27262,3.96081 11.76803,13.87796 7.80723,22.15058c-3.96081,8.27262 -13.87796,11.76803 -22.15058,7.80723c-8.27262,-3.96081 -11.76803,-13.87796 -7.80723,-22.15058z" fill="#0debff" stroke="#000000" stroke-width="2" stroke-linecap="butt"/><path d="M230.49128,149.64698c0,0 -4.59266,-0.97446 -6.09701,-1.55941c-1.89892,-0.73837 -4.39101,-2.51877 -4.39101,-2.51877" data-paper-data="{&quot;index&quot;:null}" fill="none" stroke="#000000" stroke-width="2" stroke-linecap="round"/><path d="M216.46037,137.91283c2.78341,0.53818 4.60352,3.23086 4.06534,6.01427c-0.53818,2.78341 -3.23086,4.60352 -6.01427,4.06534c-2.78341,-0.53818 -4.60352,-3.23086 -4.06534,-6.01427c0.53818,-2.78341 3.23086,-4.60352 6.01427,-4.06534z" data-paper-data="{&quot;index&quot;:null}" fill="#0debff" stroke="#000000" stroke-width="2" stroke-linecap="butt"/><path d="M227.01922,157.38251l0.90622,-20.78712l29.71843,-4.23864l6.68147,19.70491z" fill="url(#color-1)" stroke="#000000" stroke-width="2" stroke-linecap="butt"/><path d="M223.08719,218.18892c-3.99835,2.91354 -6.69046,1.58558 -8.62192,-1.06502c-1.93146,-2.6506 -0.2559,-7.16123 3.74245,-10.07478c3.99835,-2.91354 7.73846,-4.59093 9.66992,-1.94033c0.74597,1.02371 1.81092,8.26978 -4.79047,13.08012z" data-paper-data="{&quot;index&quot;:null}" fill="#0debff" stroke="#000000" stroke-width="2" stroke-linecap="butt"/></g></g></svg>