<svg version="1.1" xmlns="http://www.w3.org/2000/svg" xmlns:xlink="http://www.w3.org/1999/xlink" width="63.72987" height="99.84887" viewBox="0,0,63.72987,99.84887"><g transform="translate(-196.6397,-126.71917)"><g data-paper-data="{&quot;isPaintingLayer&quot;:true}" fill-rule="nonzero" stroke="#000000" stroke-width="2" stroke-linejoin="miter" stroke-miterlimit="10" stroke-dasharray="" stroke-dashoffset="0" style="mix-blend-mode: normal"><path d="M238.30582,214.24594l-2.13149,-25.47608l7.82337,-0.65455l2.13149,25.47608z" fill="#ff6b00" stroke-linecap="butt"/><path d="M248.52319,198.95726c0,-2.11232 1.71238,-3.8247 3.8247,-3.8247c2.11232,0 3.8247,1.71238 3.8247,3.8247c0,2.11232 -1.71238,3.8247 -3.8247,3.8247c-2.11232,0 -3.8247,-1.71238 -3.8247,-3.8247z" fill="#ff6b00" stroke-linecap="butt"/><path d="M224.24052,180.62197c0.34302,-9.16551 8.05121,-16.31755 17.21671,-15.97454c9.16551,0.34302 16.31755,8.05121 15.97454,17.21671c-0.34302,9.16551 -8.05121,16.31755 -17.21671,15.97454c-9.16551,-0.34302 -16.31755,-8.05121 -15.97454,-17.21671z" fill="#ff6b00" stroke-linecap="butt"/><path d="M234.79907,205.96301c0,-2.11232 1.71238,-3.8247 3.8247,-3.8247c2.11232,0 3.8247,1.71238 3.8247,3.8247c0,2.11232 -1.71238,3.8247 -3.8247,3.8247c-2.11232,0 -3.8247,-1.71238 -3.8247,-3.8247z" fill="#ff6b00" stroke-linecap="butt"/><path d="M212.98393,172.84306c0,0 2.88922,-1.01627 4.91862,-1.19683c1.60772,-0.14305 6.2901,0.19954 6.2901,0.19954" data-paper-data="{&quot;index&quot;:null}" fill="none" stroke-linecap="round"/><path d="M202.805,173.63123c0.25795,-2.8232 2.7557,-4.90275 5.5789,-4.64481c2.8232,0.25795 4.90275,2.7557 4.64481,5.57891c-0.25795,2.8232 -2.7557,4.90275 -5.57891,4.64481c-2.8232,-0.25795 -4.90275,-2.7557 -4.6448,-5.57891z" data-paper-data="{&quot;index&quot;:null}" fill="#ff6b00" stroke-linecap="butt"/><path d="M252.59197,213.52565c4.93271,-0.37933 6.52614,2.16467 6.77761,5.43468c0.25147,3.27001 -3.54343,6.22837 -8.47616,6.60772c-4.93271,0.37933 -8.99642,-0.15764 -9.24789,-3.42765c-0.09712,-1.26292 2.8024,-7.98844 10.94644,-8.61473z" data-paper-data="{&quot;index&quot;:null}" fill="#ff6b00" stroke-linecap="butt"/><path d="M219.55742,183.80476l4.68086,-12.01686l-25.81092,-22.37676l42.41582,-21.14102l2.88925,33.50453l12.41618,3.38028z" data-paper-data="{&quot;index&quot;:null}" fill="#ffa340" stroke-linecap="butt"/><path d="M248.25864,207.52566c4.93271,-0.37933 6.52614,2.16467 6.77761,5.43468c0.25147,3.27001 -3.54343,6.22837 -8.47616,6.60772c-4.93271,0.37933 -8.99642,-0.15764 -9.24789,-3.42765c-0.09712,-1.26292 2.8024,-7.98844 10.94644,-8.61473z" data-paper-data="{&quot;index&quot;:null}" fill="#ff6b00" stroke-linecap="butt"/></g></g></svg>