<svg version="1.1" xmlns="http://www.w3.org/2000/svg" xmlns:xlink="http://www.w3.org/1999/xlink" width="80.45471" height="79.70417" viewBox="0,0,80.45471,79.70417"><g transform="translate(-194.2228,-153.41414)"><g data-paper-data="{&quot;isPaintingLayer&quot;:true}" fill-rule="nonzero" stroke="#000000" stroke-width="2" stroke-linejoin="miter" stroke-miterlimit="10" stroke-dasharray="" stroke-dashoffset="0" style="mix-blend-mode: normal"><path d="M239.27591,214.22032l-12.70027,-22.18731l6.81343,-3.90008l12.70027,22.18731z" fill="#e80000" stroke-linecap="butt"/><path d="M202.29184,186.44725c0,0 0.85967,-2.93961 1.89665,-4.69339c0.82152,-1.38937 3.83083,-4.993 3.83083,-4.993" fill="none" stroke-linecap="round"/><path d="M196.99513,195.17518c-2.1428,-1.85618 -2.37517,-5.09799 -0.51899,-7.24079c1.85618,-2.1428 5.09799,-2.37517 7.24079,-0.51899c2.1428,1.85618 2.37517,5.09799 0.51899,7.24079c-1.85618,2.1428 -5.09799,2.37517 -7.24079,0.51899z" fill="#e80000" stroke-linecap="butt"/><path d="M210.06003,182.01086c-4.18762,-8.16015 -0.96724,-18.17 7.1929,-22.35762c8.16015,-4.18762 18.17,-0.96724 22.35762,7.1929c4.18762,8.16015 0.96724,18.17 -7.1929,22.35762c-8.16015,4.18762 -18.17,0.96724 -22.35762,-7.1929z" fill="#e80000" stroke-linecap="butt"/><path d="M219.05622,211.27396c-1.49364,-1.49364 -1.49364,-3.91531 0,-5.40894c1.49364,-1.49364 3.91531,-1.49364 5.40894,0c1.49364,1.49364 1.49364,3.91531 0,5.40894c-1.49364,1.49364 -3.91531,1.49364 -5.40894,0z" fill="#e80000" stroke-linecap="butt"/><path d="M247.52217,183.79291c-1.49364,-1.49364 -1.49364,-3.91531 0,-5.40894c1.49364,-1.49364 3.91531,-1.49364 5.40894,0c1.49364,1.49364 1.49364,3.91531 0,5.40894c-1.49364,1.49364 -3.91531,1.49364 -5.40894,0z" fill="#e80000" stroke-linecap="butt"/><path d="M265.71269,193.44605c4.74353,-1.40515 6.83494,0.74821 7.76645,3.8928c0.9315,3.14459 -2.15876,6.83289 -6.90229,8.23804c-4.74353,1.40515 -8.82951,1.73215 -9.761,-1.41245c-0.35977,-1.2145 1.06516,-8.39846 8.89686,-10.7184z" data-paper-data="{&quot;index&quot;:null}" fill="#e80000" stroke-linecap="butt"/><path d="M208.42859,181.18793l-3.71785,-4.1878l24.97722,-22.17426l3.71784,4.18779z" fill="#ff2121" stroke-linecap="butt"/><path d="M257.01789,220.72898c4.84937,0.97941 5.68911,3.86139 5.03983,7.07614c-0.64927,3.21475 -5.1068,5.02685 -9.95617,4.04743c-4.84937,-0.97941 -8.61287,-2.60361 -7.96361,-5.81837c0.25076,-1.24159 4.87352,-6.92224 12.87994,-5.30521z" data-paper-data="{&quot;index&quot;:null}" fill="#e80000" stroke-linecap="butt"/></g></g></svg>