<svg version="1.1" xmlns="http://www.w3.org/2000/svg" xmlns:xlink="http://www.w3.org/1999/xlink" width="407.19807" height="169.80774" viewBox="0,0,407.19807,169.80774"><defs><linearGradient x1="284.24566" y1="247.75641" x2="553.18641" y2="247.75641" gradientUnits="userSpaceOnUse" id="color-1"><stop offset="0" stop-color="#ffb33b"/><stop offset="1" stop-color="#ff4f00"/></linearGradient></defs><g transform="translate(-181.18894,-144.63855)"><g data-paper-data="{&quot;isPaintingLayer&quot;:true}" fill-rule="nonzero" stroke-linejoin="miter" stroke-miterlimit="10" stroke-dasharray="" stroke-dashoffset="0" style="mix-blend-mode: normal"><path d="M270.94777,197.54719c0.98391,-1.86917 3.2968,-2.58682 5.16598,-1.60291c1.86917,0.98391 2.58682,3.2968 1.60291,5.16598c-0.98391,1.86917 -3.2968,2.58682 -5.16598,1.60291c-1.86917,-0.98391 -2.58682,-3.2968 -1.60291,-5.16598z" fill="#e80000" stroke="#000000" stroke-width="2" stroke-linecap="butt"/><path d="M219.9478,178.21386c0.98391,-1.86917 3.2968,-2.58682 5.16598,-1.60291c1.86917,0.98391 2.58682,3.2968 1.60291,5.16598c-0.98391,1.86917 -3.2968,2.58682 -5.16598,1.60291c-1.86917,-0.98391 -2.58682,-3.2968 -1.60291,-5.16598z" fill="#e80000" stroke="#000000" stroke-width="2" stroke-linecap="butt"/><path d="M240.65929,209.7852c1.86698,4.58148 -0.06918,6.87543 -3.10634,8.1131c-3.03717,1.23767 -7.01276,-1.47302 -8.87975,-6.05452c-1.86698,-4.58148 -2.59611,-8.61514 0.44105,-9.85281c1.17301,-0.478 8.46261,0.2301 11.54504,7.79422z" data-paper-data="{&quot;index&quot;:null}" fill="#e80000" stroke="#000000" stroke-width="2" stroke-linecap="butt"/><path d="M239.62814,150.84527c0,0 3.05807,0.16912 5.00162,0.78042c1.53971,0.48428 5.73293,2.59589 5.73293,2.59589" data-paper-data="{&quot;index&quot;:null}" fill="none" stroke="#000000" stroke-width="2" stroke-linecap="round"/><path d="M229.2481,148.38151c1.32065,-2.50857 4.42482,-3.47158 6.93339,-2.15094c2.50857,1.32065 3.47158,4.42482 2.15094,6.93339c-1.32065,2.50857 -4.42482,3.47159 -6.93338,2.15094c-2.50857,-1.32065 -3.47159,-4.42482 -2.15094,-6.93339z" data-paper-data="{&quot;index&quot;:null}" fill="#e80000" stroke="#000000" stroke-width="2" stroke-linecap="butt"/><path d="M246.64152,160.37652c3.72966,-8.37937 13.54597,-12.1487 21.92534,-8.41904c8.37937,3.72966 12.1487,13.54597 8.41904,21.92534c-3.72966,8.37937 -13.54597,12.1487 -21.92534,8.41904c-8.37937,-3.72966 -12.1487,-13.54597 -8.41904,-21.92534z" data-paper-data="{&quot;index&quot;:null}" fill="#e80000" stroke="#000000" stroke-width="2" stroke-linecap="butt"/><path d="M248.10103,156.79044l2.21606,-5.14288l30.67354,13.21717l-2.21605,5.14287z" data-paper-data="{&quot;index&quot;:null}" fill="#ff2121" stroke="#000000" stroke-width="2" stroke-linecap="butt"/><path d="M190.74965,217.39737c-4.13387,2.71785 -6.75898,1.26192 -8.5607,-1.47852c-1.80172,-2.74043 0.08886,-7.16524 4.22274,-9.8831c4.13387,-2.71785 7.95035,-4.21337 9.75206,-1.47294c0.69586,1.05841 1.41102,8.34731 -5.4141,12.83455z" data-paper-data="{&quot;index&quot;:null}" fill="#e80000" stroke="#000000" stroke-width="2" stroke-linecap="butt"/><path d="M216.58634,193.77345l20.00161,-15.92199l4.88942,6.14223l-20.00161,15.92199z" fill="#e80000" stroke="#000000" stroke-width="2" stroke-linecap="butt"/><g stroke-width="0" stroke-linecap="butt"><path d="M309.82466,181.79971c17.39588,3.59627 26.22947,19.82236 26.22947,19.82236l45.59055,96.94008c0,0 -73.33912,-46.55022 -87.56988,-60.68317c-24.26433,-24.0977 -23.47575,-37.90832 -13.64559,-47.81409c7.71704,-7.77643 11.99957,-11.86143 29.39545,-8.26514z" data-paper-data="{&quot;index&quot;:null}" fill="#e82d00" stroke="#000000"/><path d="M276.58825,203.65493c0.08154,-14.28645 8.9734,-25.26057 41.91384,-26.65437c19.31913,-0.81741 100.93822,14.81713 100.93822,14.81713l-97.15953,41.62797c0,0 -17.08005,6.13512 -31.35739,-3.19515c-14.27732,-9.33027 -14.39913,-15.38014 -14.33512,-26.59558z" data-paper-data="{&quot;index&quot;:null}" fill="#e82d00" stroke="#000000"/><path d="M359.54854,263.6831c-76.71012,-33.80121 -106.55084,-66.3632 -66.65107,-72.72918c39.89974,-6.36599 134.43074,15.87469 211.14094,49.67595c76.71012,33.80121 106.55084,66.3632 66.65107,72.72918c-39.89974,6.36599 -134.43074,-15.87469 -211.14094,-49.67595z" fill="#e82d00" stroke="none"/><path d="M356.67769,257.65457c-65.8727,-29.02586 -91.49759,-56.98757 -57.23476,-62.45418c34.26279,-5.46662 115.4387,13.63195 181.31147,42.65786c65.8727,29.02586 91.49759,56.98757 57.23476,62.45418c-34.26279,5.46662 -115.4387,-13.63195 -181.31147,-42.65786z" fill="url(#color-1)" stroke="none"/></g></g></g></svg>