<svg version="1.1" xmlns="http://www.w3.org/2000/svg" xmlns:xlink="http://www.w3.org/1999/xlink" width="77.06416" height="95.87932" viewBox="0,0,77.06416,95.87932"><g transform="translate(-213.84248,-146.31454)"><g data-paper-data="{&quot;isPaintingLayer&quot;:true}" fill-rule="nonzero" stroke="#000000" stroke-width="2" stroke-linejoin="miter" stroke-miterlimit="10" stroke-dasharray="" stroke-dashoffset="0" style="mix-blend-mode: normal"><path d="M226.30439,156.24103c0,0 2.70101,-1.4439 4.67934,-1.93106c1.56725,-0.38592 6.24727,-0.75956 6.24727,-0.75956" fill="none" stroke-linecap="round"/><path d="M216.36379,158.56832c-0.17449,-2.82959 1.97789,-5.26487 4.80748,-5.43936c2.82959,-0.17449 5.26487,1.9779 5.43935,4.80749c0.17449,2.82959 -1.97789,5.26487 -4.80748,5.43936c-2.82959,0.17449 -5.26487,-1.97789 -5.43935,-4.80748z" fill="#e80000" stroke-linecap="butt"/><path d="M234.91042,158.68284c2.89587,-8.70277 12.29843,-13.41018 21.00119,-10.51431c8.70277,2.89587 13.41018,12.29843 10.51431,21.00119c-2.89587,8.70277 -12.29843,13.41018 -21.00119,10.51431c-8.70277,-2.89587 -13.41018,-12.29843 -10.51431,-21.00119z" fill="#e80000" stroke-linecap="butt"/><path d="M233.98129,208.26659l4.18997,-25.21939l7.74454,1.28667l-4.18997,25.21939z" data-paper-data="{&quot;index&quot;:null}" fill="#e80000" stroke-linecap="butt"/><path d="M214.84249,190.22397c0,-2.11232 1.71238,-3.8247 3.8247,-3.8247c2.11232,0 3.8247,1.71238 3.8247,3.8247c0,2.11232 -1.71238,3.8247 -3.8247,3.8247c-2.11232,0 -3.8247,-1.71238 -3.8247,-3.8247z" fill="#e80000" stroke-linecap="butt"/><path d="M263.82357,211.39292c3.47623,3.52014 2.56376,6.37992 0.23018,8.6844c-2.33358,2.30446 -7.04336,1.31897 -10.51959,-2.20117c-3.47623,-3.52014 -5.69162,-6.96893 -3.35803,-9.27339c0.90127,-0.89003 7.90811,-3.02166 13.64746,2.79018z" data-paper-data="{&quot;index&quot;:null}" fill="#e80000" stroke-linecap="butt"/><path d="M234.35604,156.94174l0.388,-5.58655l33.31973,2.31415l-0.388,5.58653z" fill="#ff2121" stroke-linecap="butt"/><path d="M237.14223,235.57112c-0.62452,4.90771 -3.43787,5.9546 -6.69128,5.5406c-3.25342,-0.414 -5.38458,-4.72809 -4.76006,-9.63582c0.62452,-4.90771 1.971,-8.77926 5.22443,-8.36527c1.25652,0.1599 7.25801,4.35774 6.22692,12.46047z" data-paper-data="{&quot;index&quot;:null}" fill="#e80000" stroke-linecap="butt"/><path d="M282.25725,198.6393c0,-2.11232 1.71238,-3.8247 3.8247,-3.8247c2.11232,0 3.8247,1.71238 3.8247,3.8247c0,2.11232 -1.71238,3.8247 -3.8247,3.8247c-2.11232,0 -3.8247,-1.71238 -3.8247,-3.8247z" fill="#e80000" stroke-linecap="butt"/></g></g></svg>