<svg version="1.1" xmlns="http://www.w3.org/2000/svg" xmlns:xlink="http://www.w3.org/1999/xlink" width="140.9738" height="127.16858" viewBox="0,0,140.9738,127.16858"><defs><radialGradient cx="253.46671" cy="180.00014" r="63.58429" gradientUnits="userSpaceOnUse" id="color-1"><stop offset="0" stop-color="#ff0000"/><stop offset="1" stop-color="#ff0000" stop-opacity="0"/></radialGradient><radialGradient cx="278.22012" cy="160.73456" r="35.95262" gradientUnits="userSpaceOnUse" id="color-2"><stop offset="0" stop-color="#ff0000"/><stop offset="1" stop-color="#ff0000" stop-opacity="0"/></radialGradient></defs><g transform="translate(-186.9407,-116.41585)"><g data-paper-data="{&quot;isPaintingLayer&quot;:true}" fill-rule="nonzero" stroke="#000000" stroke-linejoin="miter" stroke-miterlimit="10" stroke-dasharray="" stroke-dashoffset="0" style="mix-blend-mode: normal"><path d="M189.88242,180.00014c0,-35.11664 28.46765,-63.58429 63.58429,-63.58429c35.11664,0 63.58429,28.46765 63.58429,63.58429c0,35.11664 -28.46765,63.58429 -63.58429,63.58429c-35.11664,0 -63.58429,-28.46765 -63.58429,-63.58429z" fill="url(#color-1)" stroke-width="0" stroke-linecap="butt"/><path d="M267.08987,163.62678v-5.48173l19.39678,0.23699v5.24474z" data-paper-data="{&quot;index&quot;:null}" fill="#ff4545" stroke-width="2" stroke-linecap="butt"/><path d="M233.61563,186.64944c1.05453,-1.83026 3.39313,-2.45911 5.22339,-1.40458c1.83026,1.05453 2.45911,3.39313 1.40458,5.22339c-1.05453,1.83026 -3.39313,2.45911 -5.22339,1.40458c-1.83026,-1.05453 -2.45911,-3.39313 -1.40458,-5.22339z" fill="#181818" stroke-width="2" stroke-linecap="butt"/><path d="M236.30563,146.71146c0,0 3.00193,-0.60728 5.03682,-0.5057c1.61207,0.08048 6.2022,1.06677 6.2022,1.06677" fill="#181818" stroke-width="2" stroke-linecap="round"/><path d="M225.74246,146.11307c0.64558,-2.76047 3.40672,-4.47496 6.1672,-3.82937c2.76047,0.64558 4.47496,3.40672 3.82937,6.1672c-0.64558,2.76047 -3.40672,4.47496 -6.1672,3.82937c-2.76047,-0.64558 -4.47496,-3.40672 -3.82937,-6.1672z" fill="#9b9b9b" stroke-width="2" stroke-linecap="butt"/><path d="M245.85457,160.21396c0,-9.17193 7.43532,-16.60724 16.60724,-16.60724c9.17193,0 16.60724,7.43532 16.60724,16.60724c0,9.17193 -7.43532,16.60724 -16.60724,16.60724c-9.17193,0 -16.60724,-7.43532 -16.60724,-16.60724z" fill="#181818" stroke-width="2" stroke-linecap="butt"/><path d="M230.33094,196.95126l17.47605,-18.65909l5.72996,5.36666l-17.47605,18.65909z" fill="#181818" stroke-width="2" stroke-linecap="butt"/><path d="M270.03886,204.33399c4.261,2.51384 4.11041,5.51188 2.44393,8.33661c-1.66647,2.82472 -6.47165,3.07674 -10.73268,0.56289c-4.261,-2.51384 -7.28486,-5.28121 -5.61839,-8.10592c0.64362,-1.09095 6.8721,-4.94397 13.90714,-0.79356z" data-paper-data="{&quot;index&quot;:null}" fill="#181818" stroke-width="2" stroke-linecap="butt"/><path d="M247.3639,175.63566l10.32047,10.07986l-5.6242,0.52466l0.11775,5.90255l-13.26657,-10.7705l6.6536,-0.80172z" fill="#0e0e0e" stroke-width="2" stroke-linecap="round"/><g stroke-width="2"><path d="M247.74207,153.13319v-12.06291h29.6328v12.06291z" fill="#343434" stroke-linecap="butt"/><path d="M288.12661,153.13319h-51.13626" fill="none" stroke-linecap="round"/></g><path d="M195.94977,219.17689c-4.6391,1.71877 -6.86965,-0.2901 -8.00907,-3.36548c-1.13942,-3.07537 1.69765,-6.9618 6.33676,-8.68058c4.6391,-1.71877 8.69412,-2.3179 9.83354,0.75745c0.44008,1.18776 -0.50195,8.45085 -8.16123,11.2886z" data-paper-data="{&quot;index&quot;:null}" fill="#181818" stroke-width="2" stroke-linecap="butt"/><path d="M197.65276,176.98676c0,-1.15261 36.7195,-9.13878 70.42886,-8.88755c28.06769,0.20919 54.04848,8.58321 55.00818,8.58321c2.11232,0 3.8247,1.71238 3.8247,3.8247c0,2.11232 -1.71238,3.8247 -3.8247,3.8247c-0.95569,0 -26.72325,-7.47178 -54.65554,-8.84043c-33.80538,-1.65643 -70.7815,2.652 -70.7815,1.49537z" fill="#181818" stroke-width="2" stroke-linecap="butt"/><path d="M242.2675,160.73456c0,-19.85608 16.09653,-35.95262 35.95262,-35.95262c19.85608,0 35.95262,16.09653 35.95262,35.95262c0,19.85608 -16.09653,35.95262 -35.95262,35.95262c-19.85608,0 -35.95262,-16.09653 -35.95262,-35.95262z" fill="url(#color-2)" stroke-width="0" stroke-linecap="butt"/></g></g></svg>