<svg version="1.1" xmlns="http://www.w3.org/2000/svg" xmlns:xlink="http://www.w3.org/1999/xlink" width="99.0947" height="69.77044" viewBox="0,0,99.0947,69.77044"><g transform="translate(-201.9025,-153.42578)"><g data-paper-data="{&quot;isPaintingLayer&quot;:true}" fill-rule="nonzero" stroke="#000000" stroke-width="2" stroke-linejoin="miter" stroke-miterlimit="10" stroke-dasharray="" stroke-dashoffset="0" style="mix-blend-mode: normal"><path d="M215.36483,193.41011c0,-2.11232 1.71238,-3.8247 3.8247,-3.8247c2.11232,0 3.8247,1.71238 3.8247,3.8247c0,2.11232 -1.71238,3.8247 -3.8247,3.8247c-2.11232,0 -3.8247,-1.71238 -3.8247,-3.8247z" fill="#ffe819" stroke-linecap="butt"/><path d="M266.78271,178.86694c0,-9.17193 7.43532,-16.60724 16.60724,-16.60724c9.17193,0 16.60724,7.43532 16.60724,16.60724c0,9.17193 -7.43532,16.60724 -16.60724,16.60724c-9.17193,0 -16.60724,-7.43532 -16.60724,-16.60724z" fill="#ffe819" stroke-linecap="butt"/><path d="M234.2811,199.82336l23.66611,-9.66896l2.96921,7.26755l-23.66612,9.66896z" fill="#ffe819" stroke-linecap="butt"/><path d="M210.24932,195.35964c0,-2.11232 1.71238,-3.8247 3.8247,-3.8247c2.11232,0 3.8247,1.71238 3.8247,3.8247c0,2.11232 -1.71238,3.8247 -3.8247,3.8247c-2.11232,0 -3.8247,-1.71238 -3.8247,-3.8247z" fill="#ffe819" stroke-linecap="butt"/><path d="M260.01795,167.02972c0,0 -4.6949,0.00708 -6.28829,-0.25049c-2.01131,-0.32513 -4.82051,-1.54527 -4.82051,-1.54527" data-paper-data="{&quot;index&quot;:null}" fill="none" stroke-linecap="round"/><path d="M243.84419,158.48768c2.83442,-0.05552 5.17718,2.19721 5.2327,5.03163c0.05552,2.83442 -2.19721,5.17717 -5.03163,5.2327c-2.83442,0.05552 -5.17718,-2.1972 -5.23271,-5.03162c-0.05552,-2.83442 2.19721,-5.17717 5.03163,-5.2327z" data-paper-data="{&quot;index&quot;:null}" fill="#ffe819" stroke-linecap="butt"/><path d="M279.46533,210.03467c4.82859,-1.07718 6.7677,1.21429 7.48179,4.41527c0.71409,3.20098 -2.62137,6.66912 -7.44997,7.74628c-4.82859,1.07718 -8.92735,1.12373 -9.64144,-2.07725c-0.27579,-1.23627 1.63751,-8.30586 9.60963,-10.0843z" data-paper-data="{&quot;index&quot;:null}" fill="#ffe819" stroke-linecap="butt"/><path d="M262.25376,178.81986l4.89612,-10.31864l-11.5487,-1.5813c0,0 13.57292,-11.79955 24.16781,-12.49414c10.59489,-0.69459 18.66148,9.6863 18.66148,9.6863z" data-paper-data="{&quot;index&quot;:null}" fill="#fff067" stroke-linecap="butt"/><path d="M208.46267,210.16479c-4.90021,-0.6808 -5.91476,-3.50598 -5.46344,-6.75444c0.45132,-3.24846 4.78959,-5.32996 9.68981,-4.64916c4.90021,0.6808 8.75606,2.07164 8.30475,5.32009c-0.17431,1.25461 -4.44075,7.20752 -12.53113,6.0835z" data-paper-data="{&quot;index&quot;:null}" fill="#ffe819" stroke-linecap="butt"/></g></g></svg>