<svg version="1.1" xmlns="http://www.w3.org/2000/svg" xmlns:xlink="http://www.w3.org/1999/xlink" width="263.65762" height="102.37232" viewBox="0,0,263.65762,102.37232"><defs><radialGradient cx="245.89511" cy="133.02208" r="18.84183" gradientUnits="userSpaceOnUse" id="color-1"><stop offset="0" stop-color="#ffffff"/><stop offset="1" stop-color="#0debff"/></radialGradient><linearGradient x1="372.34425" y1="132.65929" x2="372.34425" y2="227.95216" gradientUnits="userSpaceOnUse" id="color-2"><stop offset="0" stop-color="#ffffff"/><stop offset="1" stop-color="#76f4ff"/></linearGradient></defs><g transform="translate(-154.68514,-129.4162)"><g data-paper-data="{&quot;isPaintingLayer&quot;:true}" fill-rule="nonzero" stroke-linejoin="miter" stroke-miterlimit="10" stroke-dasharray="" stroke-dashoffset="0" style="mix-blend-mode: normal"><path d="M191.25207,168.31672l25.22757,-4.14048l1.2715,7.74705l-25.22757,4.14048z" data-paper-data="{&quot;index&quot;:null}" fill="#0debff" stroke="#000000" stroke-width="2" stroke-linecap="butt"/><path d="M161.46146,191.9359c-4.92321,-0.48735 -6.04823,-3.27039 -5.72514,-6.5341c0.32306,-3.26372 4.57604,-5.5144 9.49926,-5.02705c4.92321,0.48735 8.83084,1.72527 8.50777,4.98899c-0.12478,1.26048 -4.15353,7.37677 -12.2819,6.57215z" data-paper-data="{&quot;index&quot;:null}" fill="#0debff" stroke="#000000" stroke-width="2" stroke-linecap="butt"/><path d="M240.53783,147.34937c6.65047,-6.31629 17.1621,-6.04539 23.47839,0.60508c6.31629,6.65047 6.04539,17.16211 -0.60507,23.4784c-6.65047,6.31629 -17.16211,6.04539 -23.4784,-0.60508c-6.31629,-6.65047 -6.04539,-17.1621 0.60508,-23.47839z" fill="#0debff" stroke="#000000" stroke-width="2" stroke-linecap="butt"/><path d="M231.20848,141.98996c0,0 2.96315,-0.77465 5.00053,-0.78732c1.61404,-0.01003 6.25226,0.71734 6.25226,0.71734" fill="none" stroke="#000000" stroke-width="2" stroke-linecap="round"/><path d="M220.99922,141.93639c0.48978,-2.79234 3.15046,-4.65892 5.94279,-4.16914c2.79234,0.48978 4.65892,3.15046 4.16914,5.94279c-0.48978,2.79234 -3.15046,4.65892 -5.94279,4.16913c-2.79234,-0.48978 -4.65893,-3.15046 -4.16914,-5.94279z" fill="#0debff" stroke="#000000" stroke-width="2" stroke-linecap="butt"/><path d="M235.25065,149.67228l8.25944,-19.0973l29.27612,6.63778l-0.78469,20.79206z" fill="url(#color-1)" stroke="#000000" stroke-width="2" stroke-linecap="butt"/><path d="M278.46801,186.22564c2.10944,-0.11027 3.90887,1.5104 4.01912,3.61983c0.11027,2.10944 -1.5104,3.90888 -3.61983,4.01913c-2.10944,0.11027 -3.90887,-1.5104 -4.01913,-3.61984c-0.11027,-2.10944 1.51039,-3.90887 3.61983,-4.01913z" data-paper-data="{&quot;index&quot;:null}" fill="#0debff" stroke="#000000" stroke-width="2" stroke-linecap="butt"/><g data-paper-data="{&quot;index&quot;:null}" fill="#76f4ff" stroke="#53acb4" stroke-width="1" stroke-linecap="butt"><path d="M326.12347,214.74145l-31.70661,-17.41849l36.08044,2.62945l73.52164,29.78522z" data-paper-data="{&quot;index&quot;:null}"/><path d="M280.4985,188.1252l23.10292,9.17591l-1.59319,5.38697l-24.53679,-4.32765z"/><path d="M307.41089,201.31236l-2.09497,20.16325l-7.73829,-13.98903l4.82737,-16.14905l14.21515,-8.08435z"/></g><path d="M170.58635,140.32112c-0.57391,-4.91387 1.90514,-6.60656 5.16267,-6.98701c3.25754,-0.38045 6.36351,3.29461 6.93742,8.20849c0.57391,4.91387 0.19789,8.99561 -3.05963,9.37607c-1.25811,0.14694 -8.09292,-2.48462 -9.04045,-10.59755z" data-paper-data="{&quot;index&quot;:null}" fill="#0debff" stroke="#000000" stroke-width="2" stroke-linecap="butt"/><path d="M277.30798,193.99532c2.10944,-0.11027 3.90886,1.51039 4.01912,3.61983c0.11025,2.10943 -1.51041,3.90887 -3.61984,4.01915c-2.10944,0.11027 -3.90887,-1.5104 -4.01912,-3.61983c-0.11027,-2.10944 1.51041,-3.90887 3.61984,-4.01914z" data-paper-data="{&quot;index&quot;:null}" fill="#0debff" stroke="#000000" stroke-width="2" stroke-linecap="butt"/><path d="M350.66992,208.38117c0,0 32.41873,1.42365 43.86568,-5.99879c10.69033,-6.93183 11.76784,-35.41537 11.76784,-35.41537c0,0 15.08057,30.95852 10.76177,51.14418c-4.31881,20.18566 -13.53491,11.17068 -13.53491,11.17068z" data-paper-data="{&quot;index&quot;:null}" fill="url(#color-2)" stroke="#53acb4" stroke-width="1" stroke-linecap="butt"/></g></g></svg>