<svg version="1.1" xmlns="http://www.w3.org/2000/svg" xmlns:xlink="http://www.w3.org/1999/xlink" width="91.94505" height="65.18214" viewBox="0,0,91.94505,65.18214"><g transform="translate(-194.08687,-150.84633)"><g data-paper-data="{&quot;isPaintingLayer&quot;:true}" fill-rule="nonzero" stroke="#000000" stroke-width="2" stroke-linejoin="miter" stroke-miterlimit="10" stroke-dasharray="" stroke-dashoffset="0" style="mix-blend-mode: normal"><path d="M279.69945,170.65007c1.72278,-1.22226 4.11022,-0.81651 5.33248,0.90627c1.22226,1.72278 0.81651,4.11022 -0.90627,5.33248c-1.72278,1.22226 -4.11022,0.81651 -5.33248,-0.90627c-1.22226,-1.72278 -0.81651,-4.11022 0.90627,-5.33248z" fill="#e80000" stroke-linecap="butt"/><path d="M224.05787,187.04677l24.93983,-5.61947l1.72566,7.65869l-24.93984,5.61946z" fill="#e80000" stroke-linecap="butt"/><path d="M241.22698,160.41275c0,0 2.72211,-1.40373 4.70744,-1.86153c1.57281,-0.36267 6.25783,-0.66693 6.25783,-0.66693" fill="none" stroke-linecap="round"/><path d="M231.25299,162.59252c-0.13255,-2.83186 2.05567,-5.23499 4.88753,-5.36754c2.83186,-0.13255 5.23499,2.05567 5.36754,4.88753c0.13255,2.83186 -2.05567,5.23499 -4.88753,5.36754c-2.83186,0.13255 -5.23499,-2.05567 -5.36754,-4.88753z" fill="#e80000" stroke-linecap="butt"/><path d="M249.79589,162.98179c3.02448,-8.65891 12.49574,-13.22653 21.15464,-10.20204c8.65891,3.02448 13.22653,12.49574 10.20204,21.15464c-3.02448,8.65891 -12.49574,13.22653 -21.15464,10.20204c-8.65891,-3.02448 -13.22653,-12.49574 -10.20204,-21.15464z" fill="#e80000" stroke-linecap="butt"/><path d="M240.71489,169.14365c1.72278,-1.22226 4.11022,-0.81651 5.33248,0.90627c1.22226,1.72278 0.81651,4.11022 -0.90627,5.33248c-1.72278,1.22226 -4.11022,0.81651 -5.33248,-0.90627c-1.22226,-1.72278 -0.81651,-4.11022 0.90627,-5.33248z" fill="#e80000" stroke-linecap="butt"/><path d="M215.78416,209.24501c-0.48101,4.92384 -3.2626,6.05241 -6.52672,5.73354c-3.26412,-0.31887 -5.52029,-4.56893 -5.03928,-9.49277c0.48101,-4.92384 1.71391,-8.83307 4.97805,-8.51418c1.26067,0.12315 7.38211,4.14404 6.58796,12.27343z" data-paper-data="{&quot;index&quot;:null}" fill="#e80000" stroke-linecap="butt"/><path d="M249.26736,161.23265l0.47072,-5.58019l33.28179,2.80749l-0.47071,5.58018z" fill="#ff2121" stroke-linecap="butt"/><path d="M198.22457,184.68714c-4.04474,-2.8488 -3.6532,-5.825 -1.76466,-8.50632c1.88852,-2.68134 6.69839,-2.5456 10.74315,0.30323c4.04474,2.8488 6.83593,5.85069 4.94739,8.53204c-0.72939,1.03557 -7.24791,4.37451 -13.92586,-0.32893z" data-paper-data="{&quot;index&quot;:null}" fill="#e80000" stroke-linecap="butt"/></g></g></svg>