<svg version="1.1" xmlns="http://www.w3.org/2000/svg" xmlns:xlink="http://www.w3.org/1999/xlink" width="30.59268" height="34.01799" viewBox="0,0,30.59268,34.01799"><g transform="translate(-222.11543,-162.991)"><g data-paper-data="{&quot;isPaintingLayer&quot;:true}" fill-rule="nonzero" stroke="#000000" stroke-width="0" stroke-linecap="round" stroke-linejoin="miter" stroke-miterlimit="10" stroke-dasharray="" stroke-dashoffset="0" style="mix-blend-mode: normal"><path d="M243.26223,163.19971l4.13837,12.87182l4.15064,-1.90658c0,0 -0.82375,3.22946 -1.28836,5.0509c-0.54745,2.14621 -1.78875,7.01265 -1.78875,7.01265l4.23397,6.59471l-5.47095,0.26184l-5.46312,0.45797l-2.03314,3.46598l-4.70285,-3.83066l-4.3402,2.56636l1.6892,-4.87193l-10.27161,-4.84062l7.82575,-2.43272l-3.1474,-5.89648l4.97244,0.53992l-3.76212,-15.25186l10.16512,7.33738z" data-paper-data="{&quot;index&quot;:null}" fill="#ffe600"/><path d="M240.09669,175.38349l2.81051,-7.56383l2.56602,10.8855l4.15758,-2.06382l-3.48181,8.50395l4.40225,6.77983l-4.86803,-0.09643l-3.28333,0.36258l-3.45928,2.81772l-1.49552,-2.54948l-3.99005,0.06692l-0.02847,-2.73712l-7.74463,-3.52348l5.83475,-1.18667l-2.73458,-6.01544l3.91126,-0.19131l-2.00962,-11.23257z" data-paper-data="{&quot;index&quot;:null}" fill="#ffed4a"/></g></g></svg>