<svg version="1.1" xmlns="http://www.w3.org/2000/svg" xmlns:xlink="http://www.w3.org/1999/xlink" width="59.44336" height="77.21929" viewBox="0,0,59.44336,77.21929"><defs><linearGradient x1="251.79376" y1="176.06252" x2="278.65313" y2="189.78793" gradientUnits="userSpaceOnUse" id="color-1"><stop offset="0" stop-color="#e80000" stop-opacity="0"/><stop offset="1" stop-color="#e80000"/></linearGradient><linearGradient x1="238.88445" y1="185.59709" x2="265.74382" y2="199.3225" gradientUnits="userSpaceOnUse" id="color-2"><stop offset="0" stop-color="#e80000" stop-opacity="0"/><stop offset="1" stop-color="#e80000"/></linearGradient></defs><g transform="translate(-212.63454,-148.60463)"><g data-paper-data="{&quot;isPaintingLayer&quot;:true}" fill-rule="nonzero" stroke="#000000" stroke-linejoin="miter" stroke-miterlimit="10" stroke-dasharray="" stroke-dashoffset="0" style="mix-blend-mode: normal"><path d="M231.63744,207.36535l0.93984,-25.54781l7.84539,0.28862l-0.93984,25.54781z" fill="#e80000" stroke-width="2" stroke-linecap="butt"/><path d="M220.95098,159.25746c0,0 3.03065,-0.44213 5.05694,-0.22937c1.60525,0.16856 6.13454,1.40451 6.13454,1.40451" fill="none" stroke-width="2" stroke-linecap="round"/><path d="M213.63455,160.05197c0.79564,-2.72102 3.64645,-4.28186 6.36747,-3.48622c2.72102,0.79564 4.28186,3.64645 3.48622,6.36747c-0.79564,2.72102 -3.64645,4.28186 -6.36747,3.48622c-2.72102,-0.79564 -4.28186,-3.64645 -3.48622,-6.36747z" fill="#e80000" stroke-width="2" stroke-linecap="butt"/><path d="M229.62,166.21188c0,-9.17193 7.43532,-16.60724 16.60724,-16.60724c9.17193,0 16.60724,7.43532 16.60724,16.60724c0,9.17193 -7.43532,16.60724 -16.60724,16.60724c-9.17193,0 -16.60724,-7.43532 -16.60724,-16.60724z" fill="#e80000" stroke-width="2" stroke-linecap="butt"/><path d="M224.69316,213.75243c4.11347,0 7.4481,2.47844 7.4481,5.53575c0,3.05731 -3.33463,5.53575 -7.4481,5.53575c-4.11347,0 -7.4481,-2.47844 -7.4481,-5.53575c0,-3.05731 3.33463,-5.53575 7.4481,-5.53575z" data-paper-data="{&quot;index&quot;:null}" fill="#e80000" stroke-width="2" stroke-linecap="butt"/><path d="M255.24946,211.30183c4.90323,-0.6587 6.63848,1.79077 7.07515,5.04123c0.43666,3.25046 -3.1842,6.41946 -8.08745,7.07816c-4.90323,0.6587 -8.99087,0.35323 -9.42753,-2.89723c-0.16865,-1.25538 2.34447,-8.13462 10.43983,-9.22215z" data-paper-data="{&quot;index&quot;:null}" fill="#e80000" stroke-width="2" stroke-linecap="butt"/><path d="M228.54425,164.73486l-1.3957,-5.42329l32.34602,-8.32434l1.3957,5.42328z" fill="#ff2121" stroke-width="2" stroke-linecap="butt"/><path d="M259.45365,203.55784c-0.29689,-2.09135 1.15781,-4.02741 3.24916,-4.32431c2.09135,-0.29689 4.02741,1.15781 4.32431,3.24916c0.29689,2.09135 -1.15781,4.02741 -3.24916,4.32431c-2.09135,0.29689 -4.02741,-1.15781 -4.32431,-3.24916z" data-paper-data="{&quot;index&quot;:null}" fill="#e80000" stroke-width="2" stroke-linecap="butt"/><path d="M270.02488,205.78557c-5.15553,6.94202 -10.23733,3.52056 -14.23265,-2.85586c-3.99533,-6.3764 -4.45011,-15.53207 -3.64311,-25.67334c1.20214,-15.10718 19.29818,-21.51441 19.29818,-21.51441c0,0 -9.15452,12.95787 -5.40419,26.54056c3.36026,12.16999 9.13732,16.56101 3.98177,23.50305z" data-paper-data="{&quot;index&quot;:null}" fill="url(#color-1)" stroke-width="0" stroke-linecap="butt"/><path d="M247.58011,212.62157c-0.29689,-2.09135 1.15781,-4.02741 3.24916,-4.32431c2.09135,-0.29689 4.02741,1.15781 4.32431,3.24916c0.29689,2.09135 -1.15781,4.02741 -3.24916,4.32431c-2.09135,0.29689 -4.02741,-1.15781 -4.32431,-3.24916z" fill="#e80000" stroke-width="2" stroke-linecap="butt"/><path d="M257.11558,215.32015c-5.15553,6.94202 -10.23733,3.52056 -14.23265,-2.85586c-3.99532,-6.3764 -4.45011,-15.53207 -3.64311,-25.67334c1.20214,-15.10719 19.29818,-21.51442 19.29818,-21.51442c0,0 -9.15453,12.95787 -5.40419,26.54056c3.36026,12.16999 9.13732,16.56102 3.98178,23.50305z" data-paper-data="{&quot;index&quot;:null}" fill="url(#color-2)" stroke-width="0" stroke-linecap="butt"/></g></g></svg>