<svg version="1.1" xmlns="http://www.w3.org/2000/svg" xmlns:xlink="http://www.w3.org/1999/xlink" width="88.12973" height="119.93638" viewBox="0,0,88.12973,119.93638"><g transform="translate(-212.61783,-109.81153)"><g data-paper-data="{&quot;isPaintingLayer&quot;:true}" fill-rule="nonzero" stroke="#000000" stroke-width="2" stroke-linejoin="miter" stroke-miterlimit="10" stroke-dasharray="" stroke-dashoffset="0" style="mix-blend-mode: normal"><path d="M274.47167,185.86256c0,-2.11232 1.71238,-3.8247 3.8247,-3.8247c1.05094,0 11.17925,-0.53083 10.18156,-2.29523c-2.37199,-4.19483 -57.74755,-7.28633 -57.74755,-7.28633c0,0 60.58319,-7.02342 67.92441,6.04544c6.64572,11.83073 -19.1424,11.18553 -20.35842,11.18553c-2.11232,0 -3.8247,-1.71238 -3.8247,-3.8247z" fill="#ff6b00" stroke-linecap="butt"/><path d="M216.1259,177.51099c0,-2.11232 1.71238,-3.8247 3.8247,-3.8247c2.11232,0 3.8247,1.71238 3.8247,3.8247c0,2.11232 -1.71238,3.8247 -3.8247,3.8247c-2.11232,0 -3.8247,-1.71238 -3.8247,-3.8247z" fill="#ff6b00" stroke-linecap="butt"/><path d="M244.3405,162.07035c0,-9.17193 7.43532,-16.60724 16.60724,-16.60724c9.17193,0 16.60724,7.43532 16.60724,16.60724c0,9.17193 -7.43532,16.60724 -16.60724,16.60724c-9.17193,0 -16.60724,-7.43532 -16.60724,-16.60724z" fill="#ff6b00" stroke-linecap="butt"/><path d="M230.82785,195.36297l12.71971,-22.17617l6.81,3.90606l-12.7197,22.17616z" data-paper-data="{&quot;index&quot;:null}" fill="#ff6b00" stroke-linecap="butt"/><path d="M253.75225,145.54904c0,0 -4.38201,-1.68522 -5.77554,-2.49967c-1.75901,-1.02807 -3.93981,-3.17854 -3.93981,-3.17854" data-paper-data="{&quot;index&quot;:null}" fill="none" stroke-linecap="round"/><path d="M241.74324,131.75263c2.66401,0.96959 4.03758,3.91521 3.068,6.57921c-0.96958,2.66399 -3.91519,4.03758 -6.57919,3.06799c-2.66401,-0.96959 -4.03758,-3.91521 -3.068,-6.57921c0.96958,-2.66399 3.91519,-4.03758 6.57919,-3.06799z" data-paper-data="{&quot;index&quot;:null}" fill="#ff6b00" stroke-linecap="butt"/><path d="M227.31605,202.99269c1.96692,4.53947 0.08147,6.8753 -2.92784,8.17921c-3.00931,1.30391 -7.04335,-1.31902 -9.01028,-5.8585c-1.96692,-4.53947 -2.78426,-8.55619 0.22505,-9.8601c1.16224,-0.50358 8.46562,0.04461 11.71306,7.53939z" data-paper-data="{&quot;index&quot;:null}" fill="#ff6b00" stroke-linecap="butt"/><path d="M239.62723,154.38051l8.85507,-9.37567l-15.50534,-30.43859l47.2521,-3.6446l-9.91825,32.13301l10.23463,7.80001z" data-paper-data="{&quot;index&quot;:null}" fill="#ffa340" stroke-linecap="butt"/><path d="M231.56809,221.72644c0.60684,4.90993 -1.86083,6.61919 -5.11573,7.02147c-3.25489,0.40228 -6.38544,-3.25187 -6.99228,-8.16181c-0.60684,-4.90993 -0.25817,-8.99411 2.99671,-9.39637c1.25709,-0.15537 8.10939,2.43032 9.11129,10.53672z" data-paper-data="{&quot;index&quot;:null}" fill="#ff6b00" stroke-linecap="butt"/></g></g></svg>