<svg version="1.1" xmlns="http://www.w3.org/2000/svg" xmlns:xlink="http://www.w3.org/1999/xlink" width="101.7212" height="88.94132" viewBox="0,0,101.7212,88.94132"><g transform="translate(-188.9299,-120.25971)"><g data-paper-data="{&quot;isPaintingLayer&quot;:true}" fill-rule="nonzero" stroke="#000000" stroke-width="2" stroke-linejoin="miter" stroke-miterlimit="10" stroke-dasharray="" stroke-dashoffset="0" style="mix-blend-mode: normal"><path d="M217.0765,129.34753c0,0 2.8361,-1.15623 4.85426,-1.43575c1.59882,-0.22143 6.29235,-0.10807 6.29235,-0.10807" fill="none" stroke-linecap="round"/><path d="M206.94823,130.63215c0.11969,-2.83244 2.51284,-5.03155 5.34527,-4.91189c2.83244,0.11969 5.03155,2.51284 4.91189,5.34527c-0.11969,2.83244 -2.51284,5.03155 -5.34527,4.91189c-2.83244,-0.11969 -5.03155,-2.51284 -4.91189,-5.34527z" fill="#ffe819" stroke-linecap="butt"/><path d="M237.34735,184.2894l-13.74907,-21.55311l6.6187,-4.22216l13.74907,21.55311z" data-paper-data="{&quot;index&quot;:null}" fill="#ffe819" stroke-linecap="butt"/><path d="M222.13673,140.26415c3.79337,-8.35072 13.63811,-12.04518 21.98883,-8.25182c8.35073,3.79338 12.04518,13.63811 8.25181,21.98883c-3.79337,8.35072 -13.6381,12.04518 -21.98882,8.25182c-8.35072,-3.79338 -12.04518,-13.63811 -8.25182,-21.98883z" fill="#ffe819" stroke-linecap="butt"/><path d="M218.03276,138.34817l8.72538,-7.36979l-6.65944,-8.98583c0,0 14.03655,-2.3598 23.9701,1.38969c9.93356,3.74949 12.98453,16.53716 12.98453,16.53716z" data-paper-data="{&quot;index&quot;:null}" fill="#fff067" stroke-linecap="butt"/><path d="M202.98673,188.47414c-3.62223,-3.36973 -2.83172,-6.26559 -0.59787,-8.66684c2.23388,-2.40125 6.98117,-1.61614 10.6034,1.75357c3.62223,3.36973 5.98173,6.72158 3.74785,9.12283c-0.86275,0.92741 -7.77301,3.35394 -13.75339,-2.20955z" data-paper-data="{&quot;index&quot;:null}" fill="#ffe819" stroke-linecap="butt"/><path d="M281.48071,191.07091c4.54537,-1.95328 6.87551,-0.06083 8.17039,2.95238c1.29486,3.01323 -1.34017,7.03936 -5.88554,8.99262c-2.32051,0.99719 -30.19068,8.9906 -54.83837,2.94366c-23.63167,-5.79768 -38.36348,-29.0445 -38.99729,-30.5194c-0.27834,-0.64772 16.35476,18.28949 42.40119,22.15784c20.75098,3.08188 45.82198,-5.09715 49.14964,-6.52714z" data-paper-data="{&quot;index&quot;:null}" fill="#ffe819" stroke-linecap="butt"/><path d="M200.93497,153.99661c-0.35498,-2.08228 1.04528,-4.05807 3.12756,-4.41305c2.08228,-0.35498 4.05807,1.04528 4.41305,3.12756c0.35498,2.08228 -1.04528,4.05807 -3.12756,4.41305c-2.08228,0.35498 -4.05807,-1.04528 -4.41305,-3.12756z" fill="#ffe819" stroke-linecap="butt"/><path d="M259.19731,149.66263c-0.35498,-2.08228 1.04528,-4.05807 3.12756,-4.41305c2.08228,-0.35498 4.05807,1.04528 4.41305,3.12756c0.35498,2.08228 -1.04528,4.05807 -3.12756,4.41305c-2.08228,0.35498 -4.05807,-1.04528 -4.41305,-3.12756z" fill="#ffe819" stroke-linecap="butt"/></g></g></svg>