<svg version="1.1" xmlns="http://www.w3.org/2000/svg" xmlns:xlink="http://www.w3.org/1999/xlink" width="101.86739" height="108.73365" viewBox="0,0,101.86739,108.73365"><g transform="translate(-166.32433,-126.44512)"><g data-paper-data="{&quot;isPaintingLayer&quot;:true}" fill-rule="nonzero" stroke="#000000" stroke-width="2" stroke-linejoin="miter" stroke-miterlimit="10" stroke-dasharray="" stroke-dashoffset="0" style="mix-blend-mode: normal"><path d="M256.49854,163.6185l-13.48852,21.71713l-6.66904,-4.14213l13.48851,-21.71713z" data-paper-data="{&quot;index&quot;:null}" fill="#ff6b00" stroke-linecap="butt"/><path d="M239.30214,137.69816c-1.97637,-4.53537 -0.09577,-6.87512 2.91084,-8.18529c3.0066,-1.31017 7.04607,1.30437 9.02245,5.83977c1.97637,4.53537 2.80205,8.55038 -0.20455,9.86054c-1.16119,0.506 -8.46569,-0.02702 -11.7287,-7.51502z" data-paper-data="{&quot;index&quot;:null}" fill="#ff6b00" stroke-linecap="butt"/><path d="M255.43028,133.52501c0.22143,-4.94233 2.93984,-6.21559 6.21621,-6.06881c3.27637,0.14679 5.75289,4.27234 5.53146,9.21467c-0.22143,4.94233 -1.24708,8.91097 -4.52343,8.76417c-1.26539,-0.05669 -7.58979,-3.75014 -7.22422,-11.91003z" data-paper-data="{&quot;index&quot;:null}" fill="#ff6b00" stroke-linecap="butt"/><path d="M252.26174,153.63262c-0.36633,2.08031 -2.34973,3.46979 -4.43004,3.10345c-2.08031,-0.36633 -3.46979,-2.34973 -3.10346,-4.43003c0.36633,-2.08031 2.34974,-3.46979 4.43004,-3.10345c2.08031,0.36633 3.46979,2.34973 3.10345,4.43004z" fill="#ff6b00" stroke-linecap="butt"/><path d="M247.46757,158.17009c-0.36633,2.08031 -2.34973,3.46979 -4.43004,3.10345c-2.08031,-0.36633 -3.46979,-2.34972 -3.10346,-4.43003c0.36633,-2.08031 2.34973,-3.46979 4.43003,-3.10346c2.08031,0.36633 3.46979,2.34973 3.10345,4.43004z" fill="#ff6b00" stroke-linecap="butt"/><path d="M222.77259,201.23086c-9.009,1.72116 -17.70749,-4.18677 -19.42865,-13.19577c-1.72116,-9.009 4.18678,-17.7075 13.19576,-19.42866c9.009,-1.72116 17.70749,4.18676 19.42865,13.19575c1.72116,9.009 -4.18678,17.7075 -13.19576,19.42866z" fill="#ff6b00" stroke-linecap="butt"/><path d="M218.80026,212.68385c0,0 -1.86121,-2.43236 -2.66148,-4.30602c-0.634,-1.48437 -1.75861,-6.04257 -1.75861,-6.04257" fill="none" stroke-linecap="round"/><path d="M222.70255,222.11805c-2.76425,0.62922 -5.5152,-1.10158 -6.14441,-3.86584c-0.62922,-2.76425 1.10157,-5.51518 3.86583,-6.14439c2.76425,-0.62922 5.51521,1.10157 6.14441,3.86583c0.62922,2.76425 -1.10158,5.5152 -3.86583,6.14441z" fill="#ff6b00" stroke-linecap="butt"/><path d="M226.92453,205.08092l-12.76051,-1.86674l-16.01849,30.17172l-30.11468,-36.5944l32.00321,-10.32937l0.50973,-12.85798z" data-paper-data="{&quot;index&quot;:null}" fill="#ffa340" stroke-linecap="butt"/></g></g></svg>