<svg version="1.1" xmlns="http://www.w3.org/2000/svg" xmlns:xlink="http://www.w3.org/1999/xlink" width="78.62865" height="104.05298" viewBox="0,0,78.62865,104.05298"><g transform="translate(-216.70561,-124.09613)"><g data-paper-data="{&quot;isPaintingLayer&quot;:true}" fill-rule="nonzero" stroke="#000000" stroke-width="2" stroke-linejoin="miter" stroke-miterlimit="10" stroke-dasharray="" stroke-dashoffset="0" style="mix-blend-mode: normal"><path d="M253.53923,206.16375c-0.06036,-2.11146 1.60238,-3.87208 3.71384,-3.93244c2.11146,-0.06036 3.87208,1.60238 3.93244,3.71384c0.06036,2.11146 -1.60238,3.87208 -3.71384,3.93244c-2.11146,0.06036 -3.87208,-1.60238 -3.93244,-3.71384z" fill="#1d28e8" stroke-linecap="butt"/><path d="M236.32856,203.38712l9.88042,-23.57861l7.24068,3.03414l-9.88042,23.57861z" fill="#1d28e8" stroke-linecap="butt"/><path d="M229.99375,198.45026c-0.06036,-2.11146 1.60238,-3.87208 3.71384,-3.93244c2.11146,-0.06036 3.87208,1.60238 3.93244,3.71384c0.06036,2.11146 -1.60238,3.87208 -3.71384,3.93244c-2.11146,0.06036 -3.87208,-1.60238 -3.93244,-3.71384z" fill="#1d28e8" stroke-linecap="butt"/><path d="M249.68218,213.97608c4.87931,0.81729 5.8146,3.66969 5.27281,6.90428c-0.5418,3.23461 -4.93647,5.1942 -9.81578,4.37693c-4.87931,-0.81729 -8.69484,-2.31519 -8.15305,-5.5498c0.20926,-1.24925 4.64018,-7.08078 12.69601,-5.73141z" data-paper-data="{&quot;index&quot;:null}" fill="#1d28e8" stroke-linecap="butt"/><path d="M232.32437,216.98197c3.74637,3.23115 3.0653,6.15469 0.9233,8.63824c-2.142,2.48356 -6.91545,1.8775 -10.66182,-1.35366c-3.74637,-3.23115 -6.23023,-6.4919 -4.08823,-8.97545c0.82727,-0.95918 7.64141,-3.64384 13.82675,1.69086z" data-paper-data="{&quot;index&quot;:null}" fill="#1d28e8" stroke-linecap="butt"/><path d="M245.68642,163.75885c0.16653,-9.17041 7.73563,-16.4695 16.90604,-16.30296c9.17041,0.16653 16.4695,7.73563 16.30296,16.90604c-0.16653,9.17041 -7.73563,16.4695 -16.90604,16.30296c-9.17041,-0.16653 -16.4695,-7.73563 -16.30296,-16.90604z" fill="#1d28e8" stroke-linecap="butt"/><path d="M236.11225,167.19641c0,0 2.38251,-1.92458 4.23446,-2.7739c1.46714,-0.67285 5.99418,-1.91705 5.99418,-1.91705" fill="none" stroke-linecap="round"/><path d="M226.78404,171.34568c-0.70175,-2.74673 0.95601,-5.54229 3.70275,-6.24404c2.74673,-0.70175 5.54229,0.95601 6.24404,3.70275c0.70175,2.74673 -0.95601,5.54229 -3.70275,6.24404c-2.74673,0.70175 -5.54229,-0.95601 -6.24404,-3.70275z" fill="#1d28e8" stroke-linecap="butt"/><path d="M245.50239,162.95028l-10.66569,-20.42718l37.39162,-16.94211l2.88504,28.35994l19.93124,-5.98382z" fill="#2530ff" stroke-linecap="round"/></g></g></svg>