<svg version="1.1" xmlns="http://www.w3.org/2000/svg" xmlns:xlink="http://www.w3.org/1999/xlink" width="101.85903" height="93.01975" viewBox="0,0,101.85903,93.01975"><g transform="translate(-199.00385,-134.91118)"><g data-paper-data="{&quot;isPaintingLayer&quot;:true}" fill-rule="nonzero" stroke="#000000" stroke-width="2" stroke-linejoin="miter" stroke-miterlimit="10" stroke-dasharray="" stroke-dashoffset="0" style="mix-blend-mode: normal"><path d="M216.62995,154.61342c2.37652,-8.85869 11.48445,-14.11354 20.34314,-11.73702c8.85869,2.37652 14.11354,11.48445 11.73702,20.34314c-2.37652,8.85869 -11.48445,14.11353 -20.34313,11.73701c-8.85869,-2.37652 -14.11354,-11.48444 -11.73702,-20.34313z" fill="#2d6a2b" stroke-linecap="butt"/><path d="M230.02011,139.17433c15.77451,-1.51893 23.43577,9.4625 23.43577,9.4625l-40.56029,5.91265c0,0 0.16434,-13.74204 17.12452,-15.37514z" fill="#367e33" stroke-linecap="round"/><path d="M234.15043,203.88957l-7.50516,-24.43862l7.50477,-2.30474l7.50516,24.43862z" data-paper-data="{&quot;index&quot;:null}" fill="#2d6a2b" stroke-linecap="butt"/><path d="M213.72427,192.22012c0,-2.11232 1.71238,-3.8247 3.8247,-3.8247c2.11232,0 3.8247,1.71238 3.8247,3.8247c0,2.11232 -1.71238,3.8247 -3.8247,3.8247c-2.11232,0 -3.8247,-1.71238 -3.8247,-3.8247z" fill="#2d6a2b" stroke-linecap="butt"/><path d="M249.09591,189.23721c0,-2.11232 1.71238,-3.8247 3.8247,-3.8247c2.11232,0 3.8247,1.71238 3.8247,3.8247c0,2.11232 -1.71238,3.8247 -3.8247,3.8247c-2.11232,0 -3.8247,-1.71238 -3.8247,-3.8247z" fill="#2d6a2b" stroke-linecap="butt"/><path d="M218.98526,224.09428c-3.09737,3.85769 -6.04307,3.27989 -8.60042,1.22657c-2.55736,-2.05333 -2.11956,-6.84514 0.9778,-10.70285c3.09737,-3.85769 6.26875,-6.45472 8.8261,-4.40139c0.98769,0.79302 3.91035,7.50853 -1.2035,13.87767z" data-paper-data="{&quot;index&quot;:null}" fill="#2d6a2b" stroke-linecap="butt"/><path d="M210.16845,140.67087c0,0 3.02001,-0.50982 5.05055,-0.34244c1.60862,0.1326 6.16443,1.2669 6.16443,1.2669" fill="none" stroke-linecap="round"/><path d="M200.00385,139.71558c0.73457,-2.73814 3.54974,-4.36237 6.28788,-3.62782c2.73814,0.73457 4.36237,3.54974 3.62781,6.28788c-0.73457,2.73814 -3.54974,4.36237 -6.28788,3.62782c-2.73814,-0.73457 -4.36236,-3.54974 -3.62781,-6.28788z" fill="#2d6a2b" stroke-linecap="butt"/><path d="M277.86411,195.11614c8.30334,-5.19843 14.63209,-5.32019 19.55357,-3.66393c4.92149,1.65626 2.17994,7.21311 -6.12338,12.41153c-3.75966,2.35379 -15.99809,11.76359 -39.91301,15.77438c-38.95889,6.53383 -48.19719,-12.66902 -48.19719,-12.66902c0,0 21.52289,3.52899 39.76664,1.51789c16.46881,-1.81544 28.40936,-9.29891 34.91338,-13.37086z" data-paper-data="{&quot;index&quot;:null}" fill="#2d6a2b" stroke-linecap="butt"/></g></g></svg>