<svg version="1.1" xmlns="http://www.w3.org/2000/svg" xmlns:xlink="http://www.w3.org/1999/xlink" width="63.39815" height="84.13185" viewBox="0,0,63.39815,84.13185"><g transform="translate(-204.10695,-142.28352)"><g data-paper-data="{&quot;isPaintingLayer&quot;:true}" fill-rule="nonzero" stroke="#000000" stroke-width="2" stroke-linejoin="miter" stroke-miterlimit="10" stroke-dasharray="" stroke-dashoffset="0" style="mix-blend-mode: normal"><path d="M236.10111,203.85701l-6.82223,-24.638l7.566,-2.09502l6.82223,24.638z" fill="#181818" stroke-linecap="butt"/><path d="M226.78052,178.21323l13.9806,-3.55788l-2.48224,5.07399l5.09959,2.97459l-16.10495,5.71277l2.78204,-6.097z" fill="#0e0e0e" stroke-linecap="round"/><path d="M212.13441,190.28492c0,-2.11232 1.71238,-3.8247 3.8247,-3.8247c2.11232,0 3.8247,1.71238 3.8247,3.8247c0,2.11232 -1.71238,3.8247 -3.8247,3.8247c-2.11232,0 -3.8247,-1.71238 -3.8247,-3.8247z" fill="#181818" stroke-linecap="butt"/><path d="M215.56091,148.39467c0,0 3.04694,-0.31069 5.06213,-0.01053c1.59646,0.2378 6.06809,1.6684 6.06809,1.6684" fill="#181818" stroke-linecap="round"/><path d="M205.10695,146.76579c0.91253,-2.68407 3.82816,-4.12022 6.51224,-3.20768c2.68407,0.91253 4.12022,3.82816 3.20768,6.51224c-0.91253,2.68407 -3.82816,4.12022 -6.51224,3.20768c-2.68407,-0.91253 -4.12022,-3.82816 -3.20768,-6.51224z" fill="#181818" stroke-linecap="butt"/><path d="M223.74313,162.76657c0.89727,-9.12794 9.02431,-15.8002 18.15223,-14.90293c9.12794,0.89727 15.8002,9.02431 14.90293,18.15223c-0.89727,9.12794 -9.02431,15.8002 -18.15223,14.90293c-9.12794,-0.89727 -15.8002,-9.02431 -14.90293,-18.15223z" fill="#181818" stroke-linecap="butt"/><path d="M228.5361,214.34387c4.11347,0 7.4481,2.47844 7.4481,5.53575c0,3.05731 -3.33463,5.53575 -7.4481,5.53575c-4.11347,0 -7.4481,-2.47844 -7.4481,-5.53575c0,-3.05731 3.33463,-5.53575 7.4481,-5.53575z" data-paper-data="{&quot;index&quot;:null}" fill="#181818" stroke-linecap="butt"/><path d="M238.74466,167.89172l0.51308,-5.21958c0,0 6.45049,2.68485 9.55801,2.99031c3.31379,0.32574 9.74573,-1.09277 9.74573,-1.09277l-0.51308,5.21958z" fill="#ff0000" stroke-linecap="butt"/><g><path d="M226.31427,155.90439l1.18009,-12.00505l29.49066,2.89891l-1.18009,12.00505z" fill="#343434" stroke-linecap="butt"/><path d="M266.5051,159.85513l-50.89098,-5.00255" fill="none" stroke-linecap="round"/></g><path d="M207.06926,183.41756c0,-2.11232 1.71238,-3.8247 3.8247,-3.8247c2.11232,0 3.8247,1.71238 3.8247,3.8247c0,2.11232 -1.71238,3.8247 -3.8247,3.8247c-2.11232,0 -3.8247,-1.71238 -3.8247,-3.8247z" fill="#181818" stroke-linecap="butt"/><path d="M243.28536,207.06201c-1.34093,2.993 -5.34726,2.12619 -9.86213,0.10343c-4.51488,-2.02276 -7.08786,-6.08884 -5.74693,-9.08184c1.34093,-2.993 3.69983,-4.84949 8.21469,-2.82674c7.45416,3.33962 7.91225,10.6492 7.39436,11.80515z" data-paper-data="{&quot;index&quot;:null}" fill="#181818" stroke-linecap="butt"/></g></g></svg>