<svg version="1.1" xmlns="http://www.w3.org/2000/svg" xmlns:xlink="http://www.w3.org/1999/xlink" width="36.1342" height="55.58386" viewBox="0,0,36.1342,55.58386"><defs><linearGradient x1="243.70715" y1="134.77535" x2="235.7184" y2="190.26998" gradientUnits="userSpaceOnUse" id="color-1"><stop offset="0" stop-color="#ff0000" stop-opacity="0"/><stop offset="1" stop-color="#ff0000"/></linearGradient><linearGradient x1="243.41573" y1="140.72171" x2="236.45766" y2="189.05659" gradientUnits="userSpaceOnUse" id="color-2"><stop offset="0" stop-color="#ff7b00" stop-opacity="0"/><stop offset="1" stop-color="#ff7b00"/></linearGradient><linearGradient x1="242.56679" y1="149.95489" x2="237.23404" y2="186.99939" gradientUnits="userSpaceOnUse" id="color-3"><stop offset="0" stop-color="#ffde00" stop-opacity="0"/><stop offset="1" stop-color="#ffde00"/></linearGradient></defs><g transform="translate(-220.1444,-134.71879)"><g data-paper-data="{&quot;isPaintingLayer&quot;:true}" fill-rule="nonzero" stroke="#000000" stroke-width="0" stroke-linecap="butt" stroke-linejoin="miter" stroke-miterlimit="10" stroke-dasharray="" stroke-dashoffset="0" style="mix-blend-mode: normal"><path d="M247.66941,187.96031c-13.34638,5.37798 -21.28537,0.76192 -25.6535,-6.42906c-4.36813,-7.19098 -0.58107,-16.15432 6.1098,-25.74459c9.9672,-14.28641 14.05478,-21.06787 14.05478,-21.06787c0,0 10.25761,15.993 11.65078,29.50651c1.39318,13.51351 7.18461,18.35702 -6.16184,23.73502z" data-paper-data="{&quot;index&quot;:null}" fill="url(#color-1)"/><path d="M246.31005,186.57476c-10.34469,5.1676 -16.72099,1.61489 -20.36195,-4.28369c-3.64096,-5.89857 -0.91772,-13.67117 4.07172,-22.10754c7.43264,-12.56745 11.53983,-19.5306 11.53983,-19.5306c0,0 10.71458,13.26111 11.3045,25.19782c0.52856,10.69519 3.79062,15.55639 -6.55411,20.724z" data-paper-data="{&quot;index&quot;:null}" fill="url(#color-2)"/><path d="M245.09832,184.78861c-7.34511,4.31406 -12.25064,1.79686 -15.26888,-2.61349c-3.01827,-4.41035 -1.44449,-10.47212 1.76471,-17.1192c4.7806,-9.902 9.52299,-15.15474 9.52299,-15.15474c0,0 6.1683,7.23167 7.27352,16.38223c0.99026,8.19882 4.05286,14.19112 -3.29229,18.50519z" data-paper-data="{&quot;index&quot;:null}" fill="url(#color-3)"/></g></g></svg>