<svg version="1.1" xmlns="http://www.w3.org/2000/svg" xmlns:xlink="http://www.w3.org/1999/xlink" width="80.18486" height="103.87086" viewBox="0,0,80.18486,103.87086"><g transform="translate(-223.58895,-112.73867)"><g data-paper-data="{&quot;isPaintingLayer&quot;:true}" fill-rule="nonzero" stroke="#000000" stroke-width="2" stroke-linejoin="miter" stroke-miterlimit="10" stroke-dasharray="" stroke-dashoffset="0" style="mix-blend-mode: normal"><path d="M250.39679,199.2384l-1.76396,-25.50415l7.83199,-0.5417l1.76395,25.50416z" data-paper-data="{&quot;index&quot;:null}" fill="#ff6b00" stroke-linecap="butt"/><path d="M227.13685,140.12342c1.14257,-2.59452 4.17208,-3.77157 6.7666,-2.629c2.59452,1.14257 3.77156,4.17207 2.629,6.76659c-1.14257,2.59452 -4.17208,3.77157 -6.7666,2.629c-2.59452,-1.14257 -3.77156,-4.17207 -2.629,-6.76659z" fill="#ff6b00" stroke-linecap="butt"/><path d="M289.372,179.07894c-1.65296,-4.66297 0.38731,-6.86487 3.47848,-7.96065c3.09118,-1.09577 6.93707,1.79599 8.59004,6.45897c1.65296,4.66297 2.19464,8.72606 -0.89655,9.82184c-1.19386,0.42321 -8.44289,-0.62149 -11.17198,-8.32016z" data-paper-data="{&quot;index&quot;:null}" fill="#ff6b00" stroke-linecap="butt"/><path d="M244.10525,154.04335c4.21886,-8.14405 14.24097,-11.32604 22.38501,-7.10719c8.14405,4.21886 11.32604,14.24097 7.10719,22.38501c-4.21886,8.14405 -14.24097,11.32604 -22.38501,7.10719c-8.14405,-4.21886 -11.32604,-14.24097 -7.10719,-22.38501z" fill="#ff6b00" stroke-linecap="butt"/><path d="M237.57404,142.50093c0,0 3.04916,0.28814 4.96741,0.9747c1.51968,0.54391 5.62745,2.81728 5.62745,2.81728" fill="none" stroke-linecap="round"/><path d="M238.51203,154.92512l9.35843,-8.87328l-13.80384,-31.24703l47.38116,-1.03429l-11.6745,31.5374l9.78909,8.35233z" data-paper-data="{&quot;index&quot;:null}" fill="#ffa340" stroke-linecap="butt"/><path d="M253.59896,188.65293c-1.22939,-1.7177 -0.83354,-4.1068 0.88416,-5.33619c1.7177,-1.22939 4.1068,-0.83354 5.33619,0.88416c1.22939,1.7177 0.83354,4.1068 -0.88416,5.33619c-1.7177,1.22939 -4.1068,0.83354 -5.33619,-0.88416z" fill="#ff6b00" stroke-linecap="butt"/><path d="M230.04182,184.64302c-1.22939,-1.7177 -0.83354,-4.1068 0.88416,-5.33619c1.7177,-1.22939 4.1068,-0.83354 5.33619,0.88416c1.22939,1.7177 0.83354,4.1068 -0.88416,5.33619c-1.7177,1.22939 -4.1068,0.83354 -5.33619,-0.88416z" fill="#ff6b00" stroke-linecap="butt"/><path d="M232.77296,214.79784c-4.53624,1.97437 -6.87516,0.09276 -8.18401,-2.91442c-1.30884,-3.00717 1.30746,-7.04551 5.84371,-9.01987c4.53624,-1.97437 8.55162,-2.79829 9.86046,0.20888c0.5055,1.16141 -0.03074,8.46568 -7.52016,11.72542z" data-paper-data="{&quot;index&quot;:null}" fill="#ff6b00" stroke-linecap="butt"/></g></g></svg>