<svg version="1.1" xmlns="http://www.w3.org/2000/svg" xmlns:xlink="http://www.w3.org/1999/xlink" width="69.47678" height="86.38749" viewBox="0,0,69.47678,86.38749"><g transform="translate(-191.16984,-124.39177)"><g data-paper-data="{&quot;isPaintingLayer&quot;:true}" fill-rule="nonzero" stroke="#000000" stroke-width="2" stroke-linejoin="miter" stroke-miterlimit="10" stroke-dasharray="" stroke-dashoffset="0" style="mix-blend-mode: normal"><path d="M238.28372,170.33191c-1.01825,-1.85069 -0.34343,-4.17644 1.50726,-5.1947c1.85069,-1.01825 4.17644,-0.34343 5.1947,1.50726c1.01825,1.85069 0.34343,4.17644 -1.50726,5.1947c-1.85069,1.01825 -4.17644,0.34343 -5.1947,-1.50726z" fill="#1d28e8" stroke-linecap="butt"/><path d="M233.58434,205.29456l-10.61237,-23.25838l7.14234,-3.25892l10.61237,23.25838z" fill="#1d28e8" stroke-linecap="butt"/><path d="M206.40093,180.80783c-1.01825,-1.85069 -0.34343,-4.17644 1.50726,-5.1947c1.85069,-1.01825 4.17644,-0.34343 5.1947,1.50726c1.01825,1.85069 0.34343,4.17644 -1.50726,5.1947c-1.85069,1.01825 -4.17644,0.34343 -5.1947,-1.50726z" fill="#1d28e8" stroke-linecap="butt"/><path d="M211.16355,164.35075c0.06656,-9.17169 7.55565,-16.55284 16.72733,-16.48628c9.17169,0.06656 16.55284,7.55565 16.48628,16.72733c-0.06656,9.17169 -7.55565,16.55284 -16.72733,16.48628c-9.17169,-0.06656 -16.55284,-7.55565 -16.48628,-16.72733z" fill="#1d28e8" stroke-linecap="butt"/><path d="M201.62743,167.89246c0,0 2.36139,-1.95043 4.20398,-2.8199c1.45973,-0.68879 5.97293,-1.98228 5.97293,-1.98228" fill="none" stroke-linecap="round"/><path d="M192.34501,172.14315c-0.73165,-2.73892 0.89554,-5.55238 3.63448,-6.28402c2.73892,-0.73165 5.55238,0.89554 6.28402,3.63448c0.73165,2.73892 -0.89554,5.55238 -3.63448,6.28402c-2.73892,0.73165 -5.55238,-0.89554 -6.28402,-3.63448z" fill="#1d28e8" stroke-linecap="butt"/><path d="M210.97073,163.54423l-10.88771,-20.30971l37.20472,-17.34867l3.19398,28.32682l19.86483,-6.20073z" fill="#2530ff" stroke-linecap="round"/><path d="M248.15688,186.1055c3.12005,-3.83937 6.06231,-3.2442 8.60751,-1.17584c2.54519,2.06835 2.07919,6.85752 -1.0409,10.69689c-3.12005,3.83937 -6.3067,6.41763 -8.85193,4.34927c-0.983,-0.79884 -3.86602,-7.53145 1.28529,-13.87033z" data-paper-data="{&quot;index&quot;:null}" fill="#1d28e8" stroke-linecap="butt"/><path d="M235.44938,195.45242c4.09397,-2.7776 6.73993,-1.35993 8.58128,1.35405c1.84132,2.71399 0.01521,7.16578 -4.07878,9.94337c-4.09397,2.7776 -7.88831,4.32838 -9.72965,1.6144c-0.71115,-1.04818 -1.53208,-8.32596 5.22714,-12.91181z" data-paper-data="{&quot;index&quot;:null}" fill="#1d28e8" stroke-linecap="butt"/></g></g></svg>