<svg version="1.1" xmlns="http://www.w3.org/2000/svg" xmlns:xlink="http://www.w3.org/1999/xlink" width="62.46554" height="83.99019" viewBox="0,0,62.46554,83.99019"><g transform="translate(-202.78779,-142.23633)"><g data-paper-data="{&quot;isPaintingLayer&quot;:true}" fill-rule="nonzero" stroke="#000000" stroke-width="2" stroke-linejoin="miter" stroke-miterlimit="10" stroke-dasharray="" stroke-dashoffset="0" style="mix-blend-mode: normal"><path d="M212.68425,161.4811c0,0 1.99495,-2.3239 3.66266,-3.4943c1.32118,-0.92721 5.54837,-2.97 5.54837,-2.97" fill="none" stroke-linecap="round"/><path d="M204.26078,167.24972c-1.18717,-2.57442 -0.06258,-5.62379 2.51184,-6.81096c2.57442,-1.18717 5.62379,-0.06258 6.81096,2.51184c1.18717,2.57442 0.06258,5.62379 -2.51184,6.81096c-2.57442,1.18717 -5.62379,0.06258 -6.81096,-2.51184z" fill="#e80000" stroke-linecap="butt"/><path d="M221.59048,160.64122c-0.45166,-9.1608 6.60849,-16.95324 15.76929,-17.4049c9.1608,-0.45166 16.95324,6.60849 17.4049,15.76929c0.45166,9.1608 -6.60849,16.95324 -15.76929,17.4049c-9.1608,0.45166 -16.95324,-6.60849 -17.4049,-15.76929z" fill="#e80000" stroke-linecap="butt"/><path d="M234.58257,205.15168l-0.31938,-25.5631l7.85008,-0.09807l0.31938,25.5631z" fill="#e80000" stroke-linecap="butt"/><path d="M217.5354,187.10778c-0.10402,-2.10976 1.52196,-3.90438 3.63172,-4.0084c2.10976,-0.10402 3.90438,1.52196 4.0084,3.63172c0.10402,2.10976 -1.52196,3.90438 -3.63172,4.0084c-2.10976,0.10402 -3.90438,-1.52196 -4.0084,-3.63172z" fill="#e80000" stroke-linecap="butt"/><path d="M254.33016,168.8403c-0.10402,-2.10976 1.52196,-3.90438 3.63172,-4.0084c2.10976,-0.10402 3.90438,1.52196 4.0084,3.63172c0.10402,2.10976 -1.52196,3.90438 -3.63172,4.0084c-2.10976,0.10402 -3.90438,-1.52196 -4.0084,-3.63172z" fill="#e80000" stroke-linecap="butt"/><path d="M227.18278,213.75242c4.11347,0 7.4481,2.47844 7.4481,5.53575c0,3.05731 -3.33463,5.53575 -7.4481,5.53575c-4.11347,0 -7.4481,-2.47844 -7.4481,-5.53575c0,-3.05731 3.33463,-5.53575 7.4481,-5.53575z" data-paper-data="{&quot;index&quot;:null}" fill="#e80000" stroke-linecap="butt"/><path d="M257.91238,213.34982c4.94728,0 6.34095,2.65869 6.34095,5.93835c0,3.27966 -4.01056,5.93835 -8.95785,5.93835c-4.94728,0 -8.95785,-0.84699 -8.95785,-4.12665c0,-1.26666 3.40667,-7.75005 11.57475,-7.75005z" data-paper-data="{&quot;index&quot;:null}" fill="#e80000" stroke-linecap="butt"/><path d="M220.4433,159.21897l-1.66107,-5.34798l31.89685,-9.90709l1.66107,5.34797z" fill="#ff2121" stroke-linecap="butt"/></g></g></svg>