<svg version="1.1" xmlns="http://www.w3.org/2000/svg" xmlns:xlink="http://www.w3.org/1999/xlink" width="86.27471" height="130.65607" viewBox="0,0,86.27471,130.65607"><g transform="translate(-184.34987,-120.54914)"><g data-paper-data="{&quot;isPaintingLayer&quot;:true}" fill-rule="nonzero" stroke="#000000" stroke-width="2" stroke-linejoin="miter" stroke-miterlimit="10" stroke-dasharray="" stroke-dashoffset="0" style="mix-blend-mode: normal"><path d="M247.56482,134.39155c-1.01825,-1.85069 -0.34343,-4.17644 1.50726,-5.1947c1.85069,-1.01825 4.17644,-0.34343 5.1947,1.50726c1.01825,1.85069 0.34343,4.17644 -1.50726,5.1947c-1.85069,1.01825 -4.17644,0.34343 -5.1947,-1.50726z" fill="#1d28e8" stroke-linecap="butt"/><path d="M233.58434,205.29456l-10.61237,-23.25838l7.14234,-3.25892l10.61237,23.25838z" fill="#1d28e8" stroke-linecap="butt"/><path d="M185.8243,146.64444c-1.01825,-1.85069 -0.34343,-4.17644 1.50726,-5.1947c1.85069,-1.01825 4.17644,-0.34343 5.1947,1.50726c1.01825,1.85069 0.34343,4.17644 -1.50726,5.1947c-1.85069,1.01825 -4.17644,0.34343 -5.1947,-1.50726z" fill="#1d28e8" stroke-linecap="butt"/><path d="M208.76934,155.11369c1.68654,-9.01554 10.3623,-14.95684 19.37783,-13.2703c9.01554,1.68654 14.95684,10.3623 13.2703,19.37783c-1.68654,9.01554 -10.3623,14.95684 -19.37783,13.2703c-9.01554,-1.68654 -14.95684,-10.3623 -13.2703,-19.37783z" fill="#1d28e8" stroke-linecap="butt"/><path d="M198.75738,156.9142c0,0 2.66894,-1.50237 4.63619,-2.03248c1.55849,-0.41995 6.22925,-0.8954 6.22925,-0.8954" fill="none" stroke-linecap="round"/><path d="M188.86981,159.45736c-0.23605,-2.82512 1.86279,-5.30669 4.68792,-5.54272c2.82512,-0.23605 5.30669,1.86279 5.54272,4.68792c0.23605,2.82512 -1.86279,5.30669 -4.68792,5.54272c-2.82512,0.23605 -5.30669,-1.86279 -5.54272,-4.68792z" fill="#1d28e8" stroke-linecap="butt"/><path d="M208.72211,154.28578l-7.12671,-21.9143l39.68526,-10.49987l-1.86287,28.44539l20.64803,-2.59214z" fill="#2530ff" stroke-linecap="round"/><path d="M258.11656,242.23031c1.67216,4.65613 -0.35903,6.86638 -3.44567,7.9749c-3.08665,1.10849 -6.94441,-1.7674 -8.61656,-6.42355c-1.67216,-4.65613 -11.28557,-31.35721 -8.19892,-32.46573c1.19211,-0.42813 17.50041,23.22701 20.26115,30.91436z" data-paper-data="{&quot;index&quot;:null}" fill="#1d28e8" stroke-linecap="butt"/><path d="M268.20013,233.24252c2.69249,4.15044 1.22049,6.76657 -1.53092,8.55149c-2.75142,1.78489 -7.16457,-0.13274 -9.85704,-4.2832c-2.69249,-4.15044 -18.15647,-27.94604 -15.40506,-29.73096c1.06263,-0.68936 22.34768,18.61019 26.79301,25.46265z" data-paper-data="{&quot;index&quot;:null}" fill="#1d28e8" stroke-linecap="butt"/></g></g></svg>