<svg version="1.1" xmlns="http://www.w3.org/2000/svg" xmlns:xlink="http://www.w3.org/1999/xlink" width="96.70222" height="94.94577" viewBox="0,0,96.70222,94.94577"><g transform="translate(-166.37525,-132.14613)"><g data-paper-data="{&quot;isPaintingLayer&quot;:true}" fill-rule="nonzero" stroke="#000000" stroke-width="2" stroke-linejoin="miter" stroke-miterlimit="10" stroke-dasharray="" stroke-dashoffset="0" style="mix-blend-mode: normal"><path d="M235.44914,206.74074l-13.18592,-21.90218l6.72587,-4.04922l13.18592,21.90218z" data-paper-data="{&quot;index&quot;:null}" fill="#1d28e8" stroke-linecap="butt"/><path d="M217.99004,178.29628c-5.45542,7.37309 -15.855,8.92767 -23.22809,3.47224c-7.37309,-5.45542 -8.92767,-15.855 -3.47224,-23.22809c5.45542,-7.37309 15.855,-8.92767 23.22809,-3.47224c7.37309,5.45542 8.92767,15.855 3.47224,23.22809z" data-paper-data="{&quot;index&quot;:null}" fill="#1d28e8" stroke-linecap="butt"/><path d="M213.12516,154.82347c0,0 3.74488,-2.83159 5.17233,-3.585c1.80186,-0.95101 4.77959,-1.66757 4.77959,-1.66757" data-paper-data="{&quot;index&quot;:null}" fill="none" stroke-linecap="round"/><path d="M231.18245,151.9095c-2.23002,1.75043 -5.45681,1.36164 -7.20724,-0.86838c-1.75043,-2.23002 -1.36164,-5.45681 0.86838,-7.20724c2.23002,-1.75043 5.45681,-1.36164 7.20724,0.86838c1.75043,2.23002 1.36164,5.45681 -0.86838,7.20724z" data-paper-data="{&quot;index&quot;:null}" fill="#1d28e8" stroke-linecap="butt"/><path d="M171.91426,184.57859l16.88883,-12.15845l-20.73003,-19.56721l36.21663,-19.32675l9.69908,20.90345z" data-paper-data="{&quot;index&quot;:null}" fill="#2530ff" stroke-linecap="round"/><path d="M226.51094,221.96525c0,3.27966 -4.01057,4.12665 -8.95785,4.12665c-4.94729,0 -8.95785,-2.65869 -8.95785,-5.93835c0,-3.27966 1.39367,-5.93835 6.34095,-5.93835c8.16808,0 11.57475,6.48339 11.57475,7.75005z" data-paper-data="{&quot;index&quot;:null}" fill="#1d28e8" stroke-linecap="butt"/><path d="M254.62937,214.68624c4.11347,0 7.4481,2.47844 7.4481,5.53575c0,3.05731 -3.33463,5.53575 -7.4481,5.53575c-4.11347,0 -7.4481,-2.47844 -7.4481,-5.53575c0,-3.05731 3.33463,-5.53575 7.4481,-5.53575z" data-paper-data="{&quot;index&quot;:null}" fill="#1d28e8" stroke-linecap="butt"/><path d="M197.87519,212.14213c-2.07819,-0.37824 -3.45627,-2.36957 -3.07802,-4.44775c0.37824,-2.07819 2.36957,-3.45627 4.44775,-3.07802c2.07819,0.37824 3.45627,2.36957 3.07802,4.44775c-0.37824,2.07819 -2.36957,3.45627 -4.44775,3.07802z" data-paper-data="{&quot;index&quot;:null}" fill="#1d28e8" stroke-linecap="butt"/><path d="M202.02189,214.02995c-2.07819,-0.37824 -3.45627,-2.36957 -3.07802,-4.44775c0.37824,-2.07819 2.36957,-3.45627 4.44775,-3.07802c2.07819,0.37824 3.45627,2.36957 3.07802,4.44775c-0.37824,2.07819 -2.36957,3.45627 -4.44775,3.07802z" data-paper-data="{&quot;index&quot;:null}" fill="#1d28e8" stroke-linecap="butt"/></g></g></svg>