<svg version="1.1" xmlns="http://www.w3.org/2000/svg" xmlns:xlink="http://www.w3.org/1999/xlink" width="149.3592" height="91.85088" viewBox="0,0,149.3592,91.85088"><defs><linearGradient x1="277.92662" y1="156.7674" x2="351.31731" y2="192.39029" gradientUnits="userSpaceOnUse" id="color-1"><stop offset="0" stop-color="#ff0000" stop-opacity="0"/><stop offset="1" stop-color="#ff0000"/></linearGradient></defs><g transform="translate(-209.61746,-136.36524)"><g data-paper-data="{&quot;isPaintingLayer&quot;:true}" fill-rule="nonzero" stroke-linejoin="miter" stroke-miterlimit="10" stroke-dasharray="" stroke-dashoffset="0" style="mix-blend-mode: normal"><path d="M223.82551,185.75342c0.75716,-1.97196 2.96955,-2.95675 4.9415,-2.19959c1.97196,0.75716 2.95675,2.96955 2.19959,4.9415c-0.75716,1.97196 -2.96955,2.95675 -4.9415,2.19959c-1.97196,-0.75716 -2.95675,-2.96955 -2.19959,-4.9415z" fill="#181818" stroke="#000000" stroke-width="2" stroke-linecap="butt"/><path d="M269.61838,163.52907l-0.41449,-5.22834l18.18813,-1.44186l0.41449,5.22834z" fill="#ff0000" stroke="#000000" stroke-width="2" stroke-linecap="butt"/><path d="M250.9448,163.03168c0.34877,-9.1653 8.06144,-16.3125 17.22674,-15.96372c9.1653,0.34877 16.3125,8.06144 15.96372,17.22674c-0.34877,9.1653 -8.06144,16.3125 -17.22674,15.96372c-9.1653,-0.34877 -16.3125,-8.06144 -15.96372,-17.22674z" fill="#181818" stroke="#000000" stroke-width="2" stroke-linecap="butt"/><path d="M244.22838,202.88531l12.48599,-22.30859l6.85066,3.83429l-12.48599,22.30861z" fill="#181818" stroke="#000000" stroke-width="2" stroke-linecap="butt"/><path d="M274.75212,213.9413c4.94728,0 6.34095,2.65869 6.34095,5.93835c0,3.27966 -4.01056,5.93835 -8.95785,5.93835c-4.94728,0 -8.95785,-0.84699 -8.95785,-4.12665c0,-1.26666 3.40667,-7.75005 11.57475,-7.75005z" data-paper-data="{&quot;index&quot;:null}" fill="#181818" stroke="#000000" stroke-width="2" stroke-linecap="butt"/><path d="M254.84466,175.65719l12.04831,9.94238l-5.52281,3.13619l1.14054,8.34057l-15.10864,-9.67202l6.50229,-3.96755z" fill="#0e0e0e" stroke="#000000" stroke-width="2" stroke-linecap="round"/><g stroke="#000000" stroke-width="2"><g><path d="M249.48026,164.95195l-4.21678,-14.81584c0,0 12.00521,-0.91989 17.54585,-2.49683c5.81815,-1.65592 16.57125,-7.21333 16.57125,-7.21333l4.21678,14.81584c0,0 -11.10004,4.94273 -16.75908,6.55339c-5.71281,1.62594 -17.358,3.15678 -17.358,3.15678z" fill="#343434" stroke-linecap="butt"/><path d="M295.69439,150.7287c0,0 -18.03887,8.34445 -27.76781,11.11342c-9.89319,2.81572 -31.10682,5.64304 -31.10682,5.64304" fill="none" stroke-linecap="round"/></g><path d="M279.30401,138.869c0.64835,2.27802 -6.54301,6.32106 -16.06238,9.03039c-9.51936,2.70933 -17.7619,3.05898 -18.41026,0.78096c-0.64835,-2.27802 6.54301,-6.32106 16.06237,-9.03039c9.51936,-2.70933 17.76191,-3.05898 18.41027,-0.78096z" fill="#252525" stroke-linecap="butt"/></g><path d="M241.0522,160.75391c0,0 2.80074,-1.23945 4.80976,-1.57842c1.59159,-0.26853 6.28641,-0.29377 6.28641,-0.29377" fill="#181818" stroke="#000000" stroke-width="2" stroke-linecap="round"/><path d="M230.60797,162.44416c0.03602,-2.83473 2.36321,-5.10355 5.19795,-5.06753c2.83473,0.03602 5.10355,2.36321 5.06753,5.19795c-0.03602,2.83473 -2.36321,5.10355 -5.19795,5.06753c-2.83473,-0.03602 -5.10355,-2.36321 -5.06753,-5.19795z" fill="#181818" stroke="#000000" stroke-width="2" stroke-linecap="butt"/><path d="M229.17454,216.95395c3.09839,3.85688 1.89853,6.60847 -0.65827,8.66246c-2.55681,2.054 -7.14126,0.59248 -10.23966,-3.2644c-3.09839,-3.85688 -2.3833,-11.27834 2.77141,-13.83162c5.15471,-2.55327 3.01099,2.06577 8.12652,8.43356z" data-paper-data="{&quot;index&quot;:null}" fill="#181818" stroke="#000000" stroke-width="2" stroke-linecap="butt"/><path d="M282.84271,161.62899c0.75716,-1.97196 2.96955,-2.95675 4.9415,-2.19959c1.97196,0.75716 2.95675,2.96955 2.19959,4.9415c-0.75716,1.97196 -2.96955,2.95675 -4.9415,2.19959c-1.97196,-0.75716 -2.95675,-2.96955 -2.19959,-4.9415z" fill="#181818" stroke="#000000" stroke-width="2" stroke-linecap="butt"/><path d="M304.19936,184.87232c-5.26606,-8.89854 -29.07898,-23.06986 -25.91799,-28.7182c6.65001,-11.88285 42.9393,15.43965 43.92843,13.72649c4.7617,-8.24716 6.90259,-14.4306 9.89614,-17.13989c1.98938,-1.80046 26.59388,8.32233 26.84212,13.02881c0.58161,11.02733 -7.67702,36.19892 -27.02413,46.80508c0,0 -35.22777,13.48983 -63.52972,15.53329c-25.61639,1.84955 -58.96925,-20.60343 -58.7759,-21.79635c0,0 28.08564,-0.90696 54.75226,-6.38221c20.26787,-4.16145 41.17385,-12.78417 39.8288,-15.05701z" fill="url(#color-1)" stroke="none" stroke-width="0" stroke-linecap="butt"/></g></g></svg>