<svg version="1.1" xmlns="http://www.w3.org/2000/svg" xmlns:xlink="http://www.w3.org/1999/xlink" width="71.79206" height="113.62713" viewBox="0,0,71.79206,113.62713"><g transform="translate(-196.73229,-113.4624)"><g data-paper-data="{&quot;isPaintingLayer&quot;:true}" fill-rule="nonzero" stroke="#000000" stroke-width="2" stroke-linejoin="miter" stroke-miterlimit="10" stroke-dasharray="" stroke-dashoffset="0" style="mix-blend-mode: normal"><path d="M215.1414,160.91183c2.73031,-8.75612 12.0419,-13.64101 20.79802,-10.9107c8.75612,2.73031 13.64101,12.0419 10.9107,20.79802c-2.73031,8.75612 -12.0419,13.64101 -20.79802,10.9107c-8.75612,-2.73031 -13.64101,-12.0419 -10.9107,-20.79802z" fill="#ff6b00" stroke-linecap="butt"/><path d="M231.36884,208.40274l-4.11694,-25.23142l7.74824,-1.26426l4.11694,25.23142z" fill="#ff6b00" stroke-linecap="butt"/><path d="M232.18607,197.26722c0,-2.11232 1.71238,-3.8247 3.8247,-3.8247c2.11232,0 3.8247,1.71238 3.8247,3.8247c0,2.11232 -1.71238,3.8247 -3.8247,3.8247c-2.11232,0 -3.8247,-1.71238 -3.8247,-3.8247z" fill="#ff6b00" stroke-linecap="butt"/><path d="M228.66912,215.01803c4.11347,0 7.4481,2.47844 7.4481,5.53575c0,3.05731 -3.33463,5.53575 -7.4481,5.53575c-4.11347,0 -7.4481,-2.47844 -7.4481,-5.53575c0,-3.05731 3.33463,-5.53575 7.4481,-5.53575z" data-paper-data="{&quot;index&quot;:null}" fill="#ff6b00" stroke-linecap="butt"/><path d="M213.58167,151.88038c0,0 2.49964,-1.7698 4.40167,-2.5001c1.50682,-0.57856 6.10357,-1.53349 6.10357,-1.53349" fill="none" stroke-linecap="round"/><path d="M204.00936,155.4304c-0.52635,-2.78567 1.30518,-5.47059 4.09085,-5.99694c2.78567,-0.52635 5.47059,1.30518 5.99694,4.09085c0.52635,2.78567 -1.30518,5.47059 -4.09085,5.99694c-2.78567,0.52635 -5.47059,-1.30518 -5.99694,-4.09085z" fill="#ff6b00" stroke-linecap="butt"/><path d="M260.88586,208.52257c4.94094,-0.25036 6.46737,2.3344 6.63335,5.60986c0.16597,3.27546 -3.7049,6.1337 -8.64586,6.38407c-4.94094,0.25036 -8.98923,-0.39257 -9.1552,-3.66803c-0.0641,-1.26503 3.01011,-7.91251 11.16772,-8.32588z" data-paper-data="{&quot;index&quot;:null}" fill="#ff6b00" stroke-linecap="butt"/><path d="M209.78843,162.75774l7.66329,-10.37253l-19.05335,-28.35301l46.47087,-9.30067l-5.98196,33.09256l11.09838,6.51259z" data-paper-data="{&quot;index&quot;:null}" fill="#ffa340" stroke-linecap="butt"/><path d="M240.6801,192.48233c0,-2.11232 1.71238,-3.8247 3.8247,-3.8247c2.11232,0 3.8247,1.71238 3.8247,3.8247c0,2.11232 -1.71238,3.8247 -3.8247,3.8247c-2.11232,0 -3.8247,-1.71238 -3.8247,-3.8247z" fill="#ff6b00" stroke-linecap="butt"/></g></g></svg>