<svg version="1.1" xmlns="http://www.w3.org/2000/svg" xmlns:xlink="http://www.w3.org/1999/xlink" width="13.70467" height="11.42802" viewBox="0,0,13.70467,11.42802"><defs><linearGradient x1="244.64471" y1="180.16342" x2="244.64471" y2="184.82084" gradientUnits="userSpaceOnUse" id="color-1"><stop offset="0" stop-color="#78706a"/><stop offset="1" stop-color="#131212"/></linearGradient><linearGradient x1="237.27491" y1="179.0214" x2="237.27491" y2="183.4167" gradientUnits="userSpaceOnUse" id="color-2"><stop offset="0" stop-color="#78706a"/><stop offset="1" stop-color="#131212"/></linearGradient><linearGradient x1="245.19246" y1="173.39282" x2="245.19246" y2="180.03385" gradientUnits="userSpaceOnUse" id="color-3"><stop offset="0" stop-color="#78706a"/><stop offset="1" stop-color="#131212"/></linearGradient></defs><g transform="translate(-234.67961,-173.39282)"><g data-paper-data="{&quot;isPaintingLayer&quot;:true}" fill-rule="nonzero" stroke="none" stroke-width="0" stroke-linecap="butt" stroke-linejoin="miter" stroke-miterlimit="10" stroke-dasharray="" stroke-dashoffset="0" style="mix-blend-mode: normal"><path d="M247.39481,182.49213c0,1.28611 -1.23126,2.32871 -2.75009,2.32871c-1.51884,0 -2.75009,-1.0426 -2.75009,-2.32871c0,-1.28611 1.23126,-2.32871 2.75009,-2.32871c1.51884,0 2.75009,1.0426 2.75009,2.32871z" fill="url(#color-1)"/><path d="M239.87023,181.21905c0,1.21373 -1.16196,2.19764 -2.59531,2.19764c-1.43336,0 -2.59531,-0.98392 -2.59531,-2.19764c0,-1.21373 1.16196,-2.19765 2.59531,-2.19765c1.43336,0 2.59531,0.98392 2.59531,2.19765z" fill="url(#color-2)"/><path d="M245.19246,173.39282c1.76279,0 3.19182,1.48665 3.19182,3.32052c0,1.83387 -1.42902,3.32052 -3.19182,3.32052c-1.76279,0 -3.19182,-1.48665 -3.19182,-3.32052c0,-1.83387 1.42902,-3.32052 3.19182,-3.32052z" fill="url(#color-3)"/></g></g></svg>