<svg version="1.1" xmlns="http://www.w3.org/2000/svg" xmlns:xlink="http://www.w3.org/1999/xlink" width="71.1182" height="105.45032" viewBox="0,0,71.1182,105.45032"><g transform="translate(-203.2318,-122.15941)"><g data-paper-data="{&quot;isPaintingLayer&quot;:true}" fill-rule="nonzero" stroke="#000000" stroke-width="2" stroke-linejoin="miter" stroke-miterlimit="10" stroke-dasharray="" stroke-dashoffset="0" style="mix-blend-mode: normal"><path d="M248.07496,189.79083c0,-2.11232 1.71238,-3.8247 3.8247,-3.8247c2.11232,0 3.8247,1.71238 3.8247,3.8247c0,2.11232 -1.71238,3.8247 -3.8247,3.8247c-2.11232,0 -3.8247,-1.71238 -3.8247,-3.8247z" fill="#1d28e8" stroke-linecap="butt"/><path d="M223.34771,158.48965c1.19675,-9.09352 9.53866,-15.49511 18.63217,-14.29836c9.09352,1.19675 15.49511,9.53866 14.29836,18.63217c-1.19675,9.09352 -9.53866,15.49511 -18.63217,14.29836c-9.09352,-1.19675 -15.49511,-9.53866 -14.29836,-18.63217z" fill="#1d28e8" stroke-linecap="butt"/><path d="M232.15984,205.83026l-0.91604,-25.54867l7.84566,-0.2813l0.91604,25.54867z" fill="#1d28e8" stroke-linecap="butt"/><path d="M215.13188,192.73599c0,-2.11232 1.71238,-3.8247 3.8247,-3.8247c2.11232,0 3.8247,1.71238 3.8247,3.8247c0,2.11232 -1.71238,3.8247 -3.8247,3.8247c-2.11232,0 -3.8247,-1.71238 -3.8247,-3.8247z" fill="#1d28e8" stroke-linecap="butt"/><path d="M224.70777,156.10428c0,0 -4.63823,-0.72722 -6.17174,-1.23081c-1.93572,-0.63567 -4.51955,-2.28011 -4.51955,-2.28011" data-paper-data="{&quot;index&quot;:null}" fill="none" stroke-linecap="round"/><path d="M210.06887,145.138c2.80823,0.38841 4.76986,2.9798 4.38145,5.78803c-0.38841,2.80823 -2.9798,4.76986 -5.78803,4.38145c-2.80823,-0.38841 -4.76986,-2.9798 -4.38145,-5.78803c0.38841,-2.80823 2.9798,-4.76986 5.78803,-4.38145z" data-paper-data="{&quot;index&quot;:null}" fill="#1d28e8" stroke-linecap="butt"/><path d="M231.96071,215.12738c4.88464,0.78473 5.83896,3.63082 5.31874,6.86896c-0.52022,3.23814 -4.90172,5.22702 -9.78638,4.44229c-4.88464,-0.78473 -8.7101,-2.25715 -8.18988,-5.49529c0.20092,-1.25063 4.59284,-7.11157 12.65751,-5.81596z" data-paper-data="{&quot;index&quot;:null}" fill="#1d28e8" stroke-linecap="butt"/><path d="M223.25579,157.66552l-8.30085,-21.49703l39.05968,-12.62969l-0.32253,28.50449l20.47773,-3.70447z" fill="#2530ff" stroke-linecap="round"/><path d="M255.72151,206.01771c4.57316,-1.88727 6.87566,0.0387 8.12678,3.07035c1.25111,3.03165 -1.44193,7.01921 -6.0151,8.90649c-4.57316,1.88727 -8.60355,2.63427 -9.85467,-0.39738c-0.4832,-1.17087 0.19259,-8.46354 7.74299,-11.57947z" data-paper-data="{&quot;index&quot;:null}" fill="#1d28e8" stroke-linecap="butt"/></g></g></svg>