<svg version="1.1" xmlns="http://www.w3.org/2000/svg" xmlns:xlink="http://www.w3.org/1999/xlink" width="71.71807" height="133.82526" viewBox="0,0,71.71807,133.82526"><g transform="translate(-178.60736,-98.72246)"><g data-paper-data="{&quot;isPaintingLayer&quot;:true}" fill-rule="nonzero" stroke="#000000" stroke-width="2" stroke-linejoin="miter" stroke-miterlimit="10" stroke-dasharray="" stroke-dashoffset="0" style="mix-blend-mode: normal"><path d="M217.80256,154.47367c-4.03721,-8.23561 -0.63374,-18.18469 7.60187,-22.22189c8.23561,-4.03721 18.18469,-0.63373 22.2219,7.60187c4.03721,8.23561 0.63374,18.18469 -7.60187,22.22189c-8.23561,4.03721 -18.18469,0.63373 -22.2219,-7.60187z" fill="#ff6b00" stroke-linecap="butt"/><path d="M239.21301,197.99913l-4.42995,-25.17834l7.73193,-1.36039l4.42995,25.17834z" data-paper-data="{&quot;index&quot;:null}" fill="#ff6b00" stroke-linecap="butt"/><path d="M205.70733,153.66398c0,0 1.85508,-2.43702 3.45119,-3.70331c1.26448,-1.00318 5.36442,-3.29063 5.36442,-3.29063" fill="none" stroke-linecap="round"/><path d="M197.63706,159.91724c-1.33627,-2.50027 -0.39265,-5.61042 2.10763,-6.94669c2.50027,-1.33627 5.6104,-0.39265 6.94667,2.10764c1.33627,2.50027 0.39266,5.61042 -2.10762,6.94668c-2.50027,1.33627 -5.61041,0.39265 -6.94668,-2.10762z" fill="#ff6b00" stroke-linecap="butt"/><path d="M247.34461,225.0495c0.1317,4.94552 -2.48895,6.40948 -5.76746,6.49679c-3.27849,0.0873 -6.043,-3.85106 -6.17471,-8.7966c-0.1317,-4.94552 0.60822,-8.97722 3.88672,-9.06452c1.2662,-0.03371 7.83799,3.19916 8.05544,11.36433z" data-paper-data="{&quot;index&quot;:null}" fill="#ff6b00" stroke-linecap="butt"/><path d="M215.18443,159.4943l-1.56629,-12.80086l-33.32902,-7.49l27.35182,-38.703l18.40741,28.14371l12.53684,-2.90093z" data-paper-data="{&quot;index&quot;:null}" fill="#ffa340" stroke-linecap="butt"/><path d="M216.56222,220.36105c-2.76331,4.10362 -5.74706,3.7746 -8.46744,1.94274c-2.72038,-1.83186 -2.68556,-6.64352 0.07776,-10.74715c2.76331,-4.10362 5.70599,-6.95718 8.42635,-5.12531c1.05065,0.70749 4.52561,7.15453 -0.03668,13.92971z" data-paper-data="{&quot;index&quot;:null}" fill="#ff6b00" stroke-linecap="butt"/><path d="M189.05717,120.52921c-1.97548,-0.74792 -2.97063,-2.95567 -2.22271,-4.93115c0.74792,-1.97548 2.95567,-2.97063 4.93115,-2.22271c1.97548,0.74792 2.97063,2.95567 2.22271,4.93115c-0.74792,1.97548 -2.95567,2.97063 -4.93115,2.22271z" fill="#ff6b00" stroke-linecap="butt"/><path d="M182.22649,130.59177c-1.97548,-0.74792 -2.97063,-2.95567 -2.22271,-4.93115c0.74792,-1.97548 2.95567,-2.97064 4.93115,-2.22272c1.97548,0.74792 2.97063,2.95567 2.22271,4.93115c-0.74792,1.97548 -2.95567,2.97063 -4.93115,2.22271z" fill="#ff6b00" stroke-linecap="butt"/></g></g></svg>