<svg version="1.1" xmlns="http://www.w3.org/2000/svg" xmlns:xlink="http://www.w3.org/1999/xlink" width="147.17791" height="103.0757" viewBox="0,0,147.17791,103.0757"><g transform="translate(-171.19352,-123.68672)"><g data-paper-data="{&quot;isPaintingLayer&quot;:true}" fill-rule="nonzero" stroke="#000000" stroke-width="2" stroke-linejoin="miter" stroke-miterlimit="10" stroke-dasharray="" stroke-dashoffset="0" style="mix-blend-mode: normal"><path d="M219.26707,189.72771c-6.96169,5.97151 -17.44614,5.16881 -23.41765,-1.79289c-5.97151,-6.96169 -5.16882,-17.44612 1.79288,-23.41764c6.96169,-5.97151 17.44614,-5.16881 23.41765,1.79289c5.97151,6.96169 5.16882,17.44612 -1.79288,23.41764z" data-paper-data="{&quot;index&quot;:null}" fill="#ff6b00" stroke-linecap="butt"/><path d="M243.96008,207.31698l-21.03333,-14.53178l4.46252,-6.45906l21.03334,14.53178z" fill="#ff6b00" stroke-linecap="butt"/><path d="M214.98246,205.56433c0,-2.11232 1.71238,-3.8247 3.8247,-3.8247c2.11232,0 3.8247,1.71238 3.8247,3.8247c0,2.11232 -1.71238,3.8247 -3.8247,3.8247c-2.11232,0 -3.8247,-1.71238 -3.8247,-3.8247z" fill="#ff6b00" stroke-linecap="butt"/><path d="M204.39121,156.24104c0,0 4.59954,-0.94145 6.21231,-1.00619c2.03578,-0.08173 5.03163,0.55484 5.03163,0.55484" data-paper-data="{&quot;index&quot;:null}" fill="none" stroke-linecap="round"/><path d="M221.94159,161.3928c-2.76665,0.61861 -5.51093,-1.12272 -6.12953,-3.88937c-0.61861,-2.76665 1.12272,-5.51093 3.88937,-6.12953c2.76665,-0.61861 5.51094,1.12272 6.12954,3.88936c0.61861,2.76665 -1.12273,5.51093 -3.88938,6.12954z" data-paper-data="{&quot;index&quot;:null}" fill="#ff6b00" stroke-linecap="butt"/><path d="M185.08701,173.74539l7.44039,-10.53357l-19.65355,-27.94032l46.262,-10.28938l-5.27502,33.21258l11.23471,6.27448z" data-paper-data="{&quot;index&quot;:null}" fill="#ffa340" stroke-linecap="butt"/><path d="M209.70275,199.74929c0,-2.11232 1.71238,-3.8247 3.8247,-3.8247c2.11232,0 3.8247,1.71238 3.8247,3.8247c0,2.11232 -1.71238,3.8247 -3.8247,3.8247c-2.11232,0 -3.8247,-1.71238 -3.8247,-3.8247z" fill="#ff6b00" stroke-linecap="butt"/><path d="M226.53339,213.32916c8.08827,1.13904 10.55755,8.03414 10.38091,9.28842c-0.45734,3.24761 -4.54684,3.52704 -9.44578,2.83715c-4.89895,-0.6899 -8.49956,-3.88188 -8.04222,-7.1295c0.45735,-3.24762 2.20816,-5.68599 7.1071,-4.9961z" data-paper-data="{&quot;index&quot;:null}" fill="#ff6b00" stroke-linecap="butt"/><path d="M305.23409,169.99221c-0.75735,-4.88897 1.65667,-6.67321 4.89768,-7.17528c3.24101,-0.50206 6.4823,3.05423 7.23966,7.94322c0.75735,4.88897 0.5343,8.98192 -2.70671,9.48398c-1.25172,0.1939 -8.1802,-2.18012 -9.4306,-10.25193z" data-paper-data="{&quot;index&quot;:null}" fill="#ff6b00" stroke-linecap="butt"/></g></g></svg>