<svg version="1.1" xmlns="http://www.w3.org/2000/svg" xmlns:xlink="http://www.w3.org/1999/xlink" width="186.72712" height="73.1747" viewBox="0,0,186.72712,73.1747"><defs><linearGradient x1="211.40752" y1="199.53048" x2="391.3037" y2="214.28225" gradientUnits="userSpaceOnUse" id="color-1"><stop offset="0" stop-color="#ffffff" stop-opacity="0"/><stop offset="1" stop-color="#ffffff"/></linearGradient></defs><g transform="translate(-209.06194,-153.5077)"><g data-paper-data="{&quot;isPaintingLayer&quot;:true}" fill-rule="nonzero" stroke-linejoin="miter" stroke-miterlimit="10" stroke-dasharray="" stroke-dashoffset="0" style="mix-blend-mode: normal"><path d="M290.71096,162.10068c6.07286,6.87345 5.42387,17.36852 -1.4496,23.4414c-6.87345,6.07285 -17.36853,5.42388 -23.44141,-1.4496c-6.07285,-6.87343 -5.42387,-17.36852 1.4496,-23.4414c6.87343,-6.07285 17.36852,-5.42387 23.4414,1.4496z" data-paper-data="{&quot;index&quot;:null}" fill="#2d6a2b" stroke="#000000" stroke-width="2" stroke-linecap="butt"/><path d="M271.16845,155.91992c15.09364,-4.82955 24.9094,4.27746 24.9094,4.27746l-38.38395,14.37945c0,0 -2.75354,-13.46435 13.47457,-18.65692z" data-paper-data="{&quot;index&quot;:null}" fill="#367e33" stroke="#000000" stroke-width="2" stroke-linecap="round"/><path d="M249.82348,208.08127l12.41883,-22.34606l6.86218,3.81365l-12.41884,22.34605z" data-paper-data="{&quot;index&quot;:null}" fill="#2d6a2b" stroke="#000000" stroke-width="2" stroke-linecap="butt"/><path d="M275.34952,213.38271c4.93244,-0.38296 6.52773,2.15988 6.7816,5.4297c0.25387,3.26982 -3.53887,6.23098 -8.4713,6.61393c-4.93244,0.38296 -8.99653,-0.15105 -9.2504,-3.42087c-0.09805,-1.26286 2.79655,-7.9905 10.94011,-8.62276z" data-paper-data="{&quot;index&quot;:null}" fill="#2d6a2b" stroke="#000000" stroke-width="2" stroke-linecap="butt"/><path d="M228.00718,214.61091c4.11347,0 7.4481,2.47844 7.4481,5.53575c0,3.05731 -3.33463,5.53575 -7.4481,5.53575c-4.11347,0 -7.4481,-2.47844 -7.4481,-5.53575c0,-3.05731 3.33463,-5.53575 7.4481,-5.53575z" data-paper-data="{&quot;index&quot;:null}" fill="#2d6a2b" stroke="#000000" stroke-width="2" stroke-linecap="butt"/><path d="M323.58626,206.53573c-29.82685,0.24048 -114.52432,-11.71755 -114.52432,-11.71755c0,0 55.35907,-4.03734 90.8593,-4.69786c35.50023,-0.66051 94.81438,-1.75676 94.81438,-1.75676c0,0 -2.3267,17.61729 -71.14936,18.17216z" data-paper-data="{&quot;index&quot;:null}" fill="url(#color-1)" stroke="none" stroke-width="0" stroke-linecap="round"/><g data-paper-data="{&quot;index&quot;:null}" stroke="#61ff00" stroke-width="3" stroke-linecap="round"><path d="M394.28906,187.33316c0,0 -34.79142,2.4271 -50.25967,2.83031c-13.87007,0.36155 -38.27911,-0.52242 -38.27911,-0.52242" fill="none"/><path d="M362.91168,188.38844c0,0 -15.36784,-3.19104 -16.97351,-7.6884c-1.60562,-4.49737 4.13514,-5.42855 4.13514,-5.42855z" fill="#61ff00"/><path d="M322.43222,200.72965c0,0 -4.64049,-2.54037 -0.46796,-6.14206c4.17253,-3.60169 20.0291,-1.95263 20.0291,-1.95263z" data-paper-data="{&quot;index&quot;:null}" fill="#61ff00"/><path d="M366.18357,196.42814c0,0 -3.89406,-2.16587 -0.34388,-5.18661c3.55019,-3.02073 16.91451,-1.55499 16.91451,-1.55499z" data-paper-data="{&quot;index&quot;:null}" fill="#61ff00"/></g><path d="M300.13011,188.6368c0.26753,-2.09531 2.18299,-3.57703 4.2783,-3.3095c2.09531,0.26753 3.57703,2.18299 3.3095,4.2783c-0.26753,2.09531 -2.18299,3.57703 -4.2783,3.3095c-2.09531,-0.26753 -3.57703,-2.18299 -3.3095,-4.2783z" data-paper-data="{&quot;index&quot;:null}" fill="#2d6a2b" stroke="#000000" stroke-width="2" stroke-linecap="butt"/><path d="M219.92143,185.77972c0.26753,-2.09531 2.18299,-3.57703 4.2783,-3.3095c2.09531,0.26753 3.57703,2.18299 3.3095,4.2783c-0.26753,2.09531 -2.18299,3.57703 -4.2783,3.3095c-2.09531,-0.26753 -3.57703,-2.18299 -3.3095,-4.2783z" data-paper-data="{&quot;index&quot;:null}" fill="#2d6a2b" stroke="#000000" stroke-width="2" stroke-linecap="butt"/><path d="M252.80998,167.16846c0,0 3.00539,-0.58988 5.03967,-0.47653c1.61158,0.08982 6.19591,1.10267 6.19591,1.10267" data-paper-data="{&quot;index&quot;:null}" fill="none" stroke="#000000" stroke-width="2" stroke-linecap="round"/><path d="M245.64208,166.93214c0.66155,-2.75669 3.43258,-4.45513 6.18927,-3.79359c2.75669,0.66155 4.45513,3.43258 3.79359,6.18927c-0.66155,2.75669 -3.43258,4.45513 -6.18927,3.79359c-2.75669,-0.66155 -4.45513,-3.43258 -3.79359,-6.18927z" data-paper-data="{&quot;index&quot;:null}" fill="#2d6a2b" stroke="#000000" stroke-width="2" stroke-linecap="butt"/></g></g></svg>