<svg version="1.1" xmlns="http://www.w3.org/2000/svg" xmlns:xlink="http://www.w3.org/1999/xlink" width="85.82964" height="92.89046" viewBox="0,0,85.82964,92.89046"><g transform="translate(-214.54706,-134.15328)"><g data-paper-data="{&quot;isPaintingLayer&quot;:true}" fill-rule="nonzero" stroke="#000000" stroke-width="2" stroke-linejoin="miter" stroke-miterlimit="10" stroke-dasharray="" stroke-dashoffset="0" style="mix-blend-mode: normal"><path d="M250.68597,204.60172c0,-2.11232 1.71238,-3.8247 3.8247,-3.8247c2.11232,0 3.8247,1.71238 3.8247,3.8247c0,2.11232 -1.71238,3.8247 -3.8247,3.8247c-2.11232,0 -3.8247,-1.71238 -3.8247,-3.8247z" fill="#1d28e8" stroke-linecap="butt"/><path d="M234.13245,203.77958l12.01628,-22.56508l6.92944,3.69004l-12.01628,22.56508z" fill="#1d28e8" stroke-linecap="butt"/><path d="M248.53916,163.79158c2.90511,-8.69969 12.31266,-13.39712 21.01234,-10.49201c8.69969,2.90511 13.39712,12.31266 10.49201,21.01234c-2.90511,8.69969 -12.31266,13.39712 -21.01234,10.49201c-8.69969,-2.90511 -13.39712,-12.31266 -10.49201,-21.01234z" fill="#1d28e8" stroke-linecap="butt"/><path d="M222.99516,214.97224c4.11347,0 7.4481,2.47844 7.4481,5.53575c0,3.05731 -3.33463,5.53575 -7.4481,5.53575c-4.11347,0 -7.4481,-2.47844 -7.4481,-5.53575c0,-3.05731 3.33463,-5.53575 7.4481,-5.53575z" data-paper-data="{&quot;index&quot;:null}" fill="#1d28e8" stroke-linecap="butt"/><path d="M238.37495,164.20425c0,0 2.84951,-1.12278 4.87082,-1.37853c1.60131,-0.2026 6.29318,-0.03402 6.29318,-0.03402" fill="none" stroke-linecap="round"/><path d="M229.94828,166.51361c0.153,-2.83083 2.57187,-5.00164 5.4027,-4.84864c2.83083,0.153 5.00164,2.57187 4.84864,5.4027c-0.153,2.83083 -2.57187,5.00164 -5.4027,4.84864c-2.83083,-0.153 -5.00164,-2.57187 -4.84864,-5.4027z" fill="#1d28e8" stroke-linecap="butt"/><path d="M267.93953,213.99764c4.94728,0 6.34095,2.65869 6.34095,5.93835c0,3.27966 -4.01056,5.93835 -8.95785,5.93835c-4.94728,0 -8.95785,-0.84699 -8.95785,-4.12665c0,-1.26666 3.40667,-7.75005 11.57475,-7.75005z" data-paper-data="{&quot;index&quot;:null}" fill="#1d28e8" stroke-linecap="butt"/><path d="M248.60572,162.96502l-4.05897,-22.68372l40.74918,-4.96708l-5.74019,27.9224l20.80849,0.2595z" fill="#2530ff" stroke-linecap="round"/><path d="M221.56933,154.61656c-1.98535,-5.4754 -1.98497,-10.49781 0.00084,-11.21785c1.98581,-0.72004 5.20508,3.13495 7.19042,8.61035c1.98535,5.4754 1.98497,10.49781 -0.00084,11.21785c-1.98581,0.72004 -5.20508,-3.13495 -7.19042,-8.61035z" fill="#1d28e8" stroke-linecap="butt"/></g></g></svg>