<svg version="1.1" xmlns="http://www.w3.org/2000/svg" xmlns:xlink="http://www.w3.org/1999/xlink" width="17.83267" height="16.17801" viewBox="0,0,17.83267,16.17801"><defs><linearGradient x1="241.83994" y1="180.16342" x2="241.83994" y2="189.57085" gradientUnits="userSpaceOnUse" id="color-1"><stop offset="0" stop-color="#78706a"/><stop offset="1" stop-color="#131212"/></linearGradient><linearGradient x1="234.71617" y1="179.0214" x2="234.71617" y2="187.75003" gradientUnits="userSpaceOnUse" id="color-2"><stop offset="0" stop-color="#78706a"/><stop offset="1" stop-color="#131212"/></linearGradient><linearGradient x1="239.57941" y1="173.39282" x2="239.57941" y2="184.95052" gradientUnits="userSpaceOnUse" id="color-3"><stop offset="0" stop-color="#78706a"/><stop offset="1" stop-color="#131212"/></linearGradient></defs><g transform="translate(-229.56214,-173.39282)"><g data-paper-data="{&quot;isPaintingLayer&quot;:true}" fill-rule="nonzero" stroke="none" stroke-width="0" stroke-linecap="butt" stroke-linejoin="miter" stroke-miterlimit="10" stroke-dasharray="" stroke-dashoffset="0" style="mix-blend-mode: normal"><path d="M247.39481,184.86713c0,2.59779 -2.487,4.70371 -5.55486,4.70371c-3.06787,0 -5.55486,-2.10592 -5.55486,-4.70371c0,-2.59779 2.487,-4.70371 5.55486,-4.70371c3.06787,0 5.55486,2.10592 5.55486,4.70371z" fill="url(#color-1)"/><path d="M239.87023,183.38572c0,2.41035 -2.30754,4.36431 -5.15404,4.36431c-2.84651,0 -5.15404,-1.95396 -5.15404,-4.36431c0,-2.41035 2.30754,-4.36432 5.15404,-4.36432c2.84651,0 5.15404,1.95397 5.15404,4.36432z" fill="url(#color-2)"/><path d="M239.57941,173.39282c3.06787,0 5.55486,2.58728 5.55486,5.77885c0,3.19157 -2.487,5.77885 -5.55486,5.77885c-3.06787,0 -5.55486,-2.58728 -5.55486,-5.77885c0,-3.19157 2.487,-5.77885 5.55486,-5.77885z" fill="url(#color-3)"/></g></g></svg>