<svg version="1.1" xmlns="http://www.w3.org/2000/svg" xmlns:xlink="http://www.w3.org/1999/xlink" width="73.74001" height="88.32773" viewBox="0,0,73.74001,88.32773"><defs><linearGradient x1="227.26118" y1="161.37431" x2="199.84767" y2="173.95652" gradientUnits="userSpaceOnUse" id="color-1"><stop offset="0" stop-color="#e80000" stop-opacity="0"/><stop offset="1" stop-color="#e80000"/></linearGradient><linearGradient x1="256.65649" y1="178.5896" x2="247.14178" y2="207.21272" gradientUnits="userSpaceOnUse" id="color-2"><stop offset="0" stop-color="#e80000" stop-opacity="0"/><stop offset="1" stop-color="#e80000"/></linearGradient></defs><g transform="translate(-205.97031,-140.2442)"><g data-paper-data="{&quot;isPaintingLayer&quot;:true}" fill-rule="nonzero" stroke="#000000" stroke-linejoin="miter" stroke-miterlimit="10" stroke-dasharray="" stroke-dashoffset="0" style="mix-blend-mode: normal"><path d="M227.45523,162.95446c0,0 2.10697,-2.22284 3.83029,-3.3097c1.36524,-0.86102 5.68789,-2.69317 5.68789,-2.69317" fill="none" stroke-width="2" stroke-linecap="round"/><path d="M218.75791,168.30128c-1.05895,-2.62976 0.21443,-5.62005 2.84419,-6.679c2.62976,-1.05895 5.62005,0.21443 6.679,2.84419c1.05895,2.62976 -0.21443,5.62005 -2.84419,6.679c-2.62976,1.05895 -5.62005,-0.21443 -6.679,-2.84419z" fill="#e80000" stroke-width="2" stroke-linecap="butt"/><path d="M236.39201,162.55418c0,-9.17193 7.43532,-16.60724 16.60724,-16.60724c9.17193,0 16.60724,7.43532 16.60724,16.60724c0,9.17193 -7.43532,16.60724 -16.60724,16.60724c-9.17193,0 -16.60724,-7.43532 -16.60724,-16.60724z" fill="#e80000" stroke-width="2" stroke-linecap="butt"/><path d="M233.46381,203.79572l6.911,-24.61325l7.5584,2.12228l-6.911,24.61325z" fill="#e80000" stroke-width="2" stroke-linecap="butt"/><path d="M211.59427,184.7764c0.60411,-2.02409 2.7347,-3.17521 4.75879,-2.5711c2.02409,0.60411 3.17521,2.7347 2.5711,4.75879c-0.60411,2.02409 -2.7347,3.17521 -4.75879,2.5711c-2.02409,-0.60411 -3.17521,-2.7347 -2.5711,-4.75879z" fill="#e80000" stroke-width="2" stroke-linecap="butt"/><path d="M230.42305,193.16576c0.98391,-1.86917 3.2968,-2.58682 5.16598,-1.60291c1.86917,0.98391 2.58682,3.2968 1.60291,5.16598c-0.98391,1.86917 -3.2968,2.58682 -5.16598,1.60291c-1.86917,-0.98391 -2.58682,-3.2968 -1.60291,-5.16598z" fill="#e80000" stroke-width="2" stroke-linecap="butt"/><path d="M264.97377,216.76918c4.43311,2.19616 4.50171,5.1972 3.04582,8.13601c-1.45588,2.9388 -6.22985,3.54083 -10.66297,1.34467c-4.43311,-2.19616 -7.65087,-4.73547 -6.19498,-7.67427c0.56229,-1.13502 6.49296,-5.43232 13.81213,-1.8064z" data-paper-data="{&quot;index&quot;:null}" fill="#e80000" stroke-width="2" stroke-linecap="butt"/><path d="M236.26716,158.68448l-0.06673,-5.59961l33.39762,-0.39799l0.06673,5.5996z" fill="#ff2121" stroke-width="2" stroke-linecap="butt"/><path d="M243.47419,211.22626c4.9471,0.04198 6.31817,2.7124 6.29034,5.99194c-0.02783,3.27955 -4.0608,5.90411 -9.00792,5.86212c-4.9471,-0.04198 -8.95034,-0.92297 -8.92251,-4.20251c0.01075,-1.26662 3.47231,-7.72086 11.64009,-7.65155z" data-paper-data="{&quot;index&quot;:null}" fill="#e80000" stroke-width="2" stroke-linecap="butt"/><path d="M207.79461,190.30332c-4.85865,-7.15298 1.09819,-11.29683 4.96794,-23.31453c4.31898,-13.41273 -4.28178,-26.74459 -4.28178,-26.74459c0,0 17.81018,7.16357 18.3751,22.30797c0.37923,10.16625 -0.46067,19.29464 -4.72097,25.49715c-4.26028,6.2025 -9.48165,9.40696 -14.34028,2.25399z" data-paper-data="{&quot;index&quot;:null}" fill="url(#color-1)" stroke-width="0" stroke-linecap="butt"/><path d="M230.02521,201.09758c-7.64057,-4.04882 -5.0252,-9.58877 0.67521,-14.50063c5.70042,-4.91187 14.68259,-6.74316 24.82949,-7.47589c15.11558,-1.09154 24.18041,15.83029 24.18041,15.83029c0,0 -14.19101,-7.09414 -27.05216,-1.33689c-11.52349,5.15841 -14.99237,11.53199 -22.63295,7.48315z" data-paper-data="{&quot;index&quot;:null}" fill="url(#color-2)" stroke-width="0" stroke-linecap="butt"/></g></g></svg>