<svg version="1.1" xmlns="http://www.w3.org/2000/svg" xmlns:xlink="http://www.w3.org/1999/xlink" width="151.93943" height="113.02784" viewBox="0,0,151.93943,113.02784"><defs><radialGradient cx="239.11514" cy="145.69464" r="18.84183" gradientUnits="userSpaceOnUse" id="color-1"><stop offset="0" stop-color="#ffffff"/><stop offset="1" stop-color="#0debff"/></radialGradient></defs><g transform="translate(-214.43524,-114.65814)"><g data-paper-data="{&quot;isPaintingLayer&quot;:true}" fill-rule="nonzero" stroke-linejoin="miter" stroke-miterlimit="10" stroke-dasharray="" stroke-dashoffset="0" style="mix-blend-mode: normal"><g fill="#76f4ff" stroke="#53acb4" stroke-width="1" stroke-linecap="butt"><path d="M365.99895,115.0545l-52.33905,59.60885l-31.06421,18.53988l20.5193,-29.7938z" data-paper-data="{&quot;index&quot;:null}"/><path d="M266.98645,199.87979l19.98595,-14.87764l3.84103,4.0993l-16.52904,18.567z"/><path d="M308.75151,195.81394l-16.33129,-0.84615l-11.5605,-12.26581l0.63837,-15.97393l10.91987,17.07926z"/></g><path d="M266.63848,202.35349c0,-2.11232 1.71238,-3.8247 3.8247,-3.8247c2.11232,0 3.8247,1.71238 3.8247,3.8247c0,2.11232 -1.71238,3.8247 -3.8247,3.8247c-2.11232,0 -3.8247,-1.71238 -3.8247,-3.8247z" fill="#0debff" stroke="#000000" stroke-width="2" stroke-linecap="butt"/><path d="M223.48138,189.10632c0,-2.11232 1.71238,-3.8247 3.8247,-3.8247c2.11232,0 3.8247,1.71238 3.8247,3.8247c0,2.11232 -1.71238,3.8247 -3.8247,3.8247c-2.11232,0 -3.8247,-1.71238 -3.8247,-3.8247z" fill="#0debff" stroke="#000000" stroke-width="2" stroke-linecap="butt"/><path d="M222.88334,215.61448c4.11347,0 7.4481,2.47844 7.4481,5.53575c0,3.05731 -3.33463,5.53575 -7.4481,5.53575c-4.11347,0 -7.4481,-2.47844 -7.4481,-5.53575c0,-3.05731 3.33463,-5.53575 7.4481,-5.53575z" data-paper-data="{&quot;index&quot;:null}" fill="#0debff" stroke="#000000" stroke-width="2" stroke-linecap="butt"/><path d="M263.54938,214.09361c4.88494,-0.78284 6.68177,1.62181 7.20073,4.86015c0.51896,3.23835 -3.02036,6.49815 -7.90532,7.281c-4.88494,0.78284 -8.97902,0.58116 -9.49798,-2.65718c-0.20043,-1.2507 2.1374,-8.19148 10.20258,-9.48396z" data-paper-data="{&quot;index&quot;:null}" fill="#0debff" stroke="#000000" stroke-width="2" stroke-linecap="butt"/><path d="M239.21927,160.99041c3.96081,-8.27262 13.87796,-11.76803 22.15058,-7.80723c8.27262,3.96081 11.76803,13.87796 7.80723,22.15058c-3.96081,8.27262 -13.87796,11.76803 -22.15058,7.80723c-8.27262,-3.96081 -11.76803,-13.87796 -7.80723,-22.15058z" fill="#0debff" stroke="#000000" stroke-width="2" stroke-linecap="butt"/><path d="M228.59209,159.31025c0,0 2.49209,-1.7804 4.39101,-2.51877c1.50435,-0.58495 6.09701,-1.55941 6.09701,-1.55941" fill="none" stroke="#000000" stroke-width="2" stroke-linecap="round"/><path d="M219.03493,162.90089c-0.53818,-2.78341 1.28193,-5.47609 4.06534,-6.01427c2.78341,-0.53818 5.47609,1.28193 6.01427,4.06534c0.53818,2.78341 -1.28193,5.47609 -4.06534,6.01427c-2.78341,0.53818 -5.47609,-1.28193 -6.01427,-4.06534z" fill="#0debff" stroke="#000000" stroke-width="2" stroke-linecap="butt"/><path d="M235.10805,165.04604l0.90622,-20.78712l29.71843,-4.23864l6.68147,19.70491z" fill="url(#color-1)" stroke="#000000" stroke-width="2" stroke-linecap="butt"/><path d="M234.98701,208.1305l7.58502,-24.41396l7.4972,2.32926l-7.58502,24.41395z" data-paper-data="{&quot;index&quot;:null}" fill="#0debff" stroke="#000000" stroke-width="2" stroke-linecap="butt"/></g></g></svg>