<svg version="1.1" xmlns="http://www.w3.org/2000/svg" xmlns:xlink="http://www.w3.org/1999/xlink" width="117.15125" height="96.68454" viewBox="0,0,117.15125,96.68454"><g transform="translate(-169.11971,-129.32112)"><g data-paper-data="{&quot;isPaintingLayer&quot;:true}" fill-rule="nonzero" stroke="#000000" stroke-width="2" stroke-linejoin="miter" stroke-miterlimit="10" stroke-dasharray="" stroke-dashoffset="0" style="mix-blend-mode: normal"><path d="M209.80156,169.91846c-7.94745,-4.57848 -10.67853,-14.73273 -6.10005,-22.68017c4.57848,-7.94745 14.73274,-10.67853 22.68018,-6.10005c7.94745,4.57848 10.67853,14.73273 6.10005,22.68017c-4.57848,7.94745 -14.73274,10.67853 -22.68018,6.10005z" fill="#ff6b00" stroke-linecap="butt"/><path d="M248.27916,196.38128l-16.87914,-19.20074l5.89628,-5.18336l16.87914,19.20074z" data-paper-data="{&quot;index&quot;:null}" fill="#ff6b00" stroke-linecap="butt"/><path d="M199.31494,175.99967c0,0 0.1784,-3.05755 0.7956,-4.99923c0.48896,-1.53825 2.61328,-5.72504 2.61328,-5.72504" fill="none" stroke-linecap="round"/><path d="M196.11088,185.69328c-2.50454,-1.32824 -3.45813,-4.43535 -2.12988,-6.9399c1.32824,-2.50454 4.43533,-3.45812 6.93988,-2.12986c2.50454,1.32824 3.45813,4.43535 2.12988,6.93988c-1.32824,2.50454 -4.43534,3.45812 -6.93988,2.12988z" fill="#ff6b00" stroke-linecap="butt"/><path d="M282.37637,201.40889c3.89518,3.05011 3.35331,6.00263 1.33131,8.58484c-2.02199,2.58219 -6.81879,2.20287 -10.71399,-0.84726c-3.89518,-3.05011 -6.53065,-6.18959 -4.50866,-8.77178c0.78092,-0.99728 7.46029,-4.00159 13.89131,1.03421z" data-paper-data="{&quot;index&quot;:null}" fill="#ff6b00" stroke-linecap="butt"/><path d="M210.43258,175.54548l-8.44634,-9.74549l-31.83253,12.39413l1.08346,-47.38006l30.98436,13.07174l8.7813,-9.40619z" data-paper-data="{&quot;index&quot;:null}" fill="#ffa340" stroke-linecap="butt"/><path d="M264.59776,216.71105c2.15524,4.45315 0.36922,6.86585 -2.58286,8.29461c-2.95209,1.42875 -7.09239,-1.02301 -9.24763,-5.47617c-2.15524,-4.45315 -3.14001,-8.43213 -0.18793,-9.86087c1.14014,-0.55181 8.46006,-0.30981 12.01841,7.04244z" data-paper-data="{&quot;index&quot;:null}" fill="#ff6b00" stroke-linecap="butt"/><path d="M259.06418,195.21856c-1.88503,-0.9532 -2.64044,-3.25404 -1.68723,-5.13906c0.9532,-1.88503 3.25404,-2.64044 5.13906,-1.68723c1.88503,0.9532 2.64044,3.25404 1.68723,5.13906c-0.9532,1.88503 -3.25404,2.64044 -5.13906,1.68723z" fill="#ff6b00" stroke-linecap="butt"/><path d="M255.39691,198.23034c-1.88503,-0.9532 -2.64044,-3.25404 -1.68723,-5.13906c0.9532,-1.88503 3.25403,-2.64044 5.13906,-1.68724c1.88503,0.9532 2.64044,3.25404 1.68723,5.13906c-0.9532,1.88503 -3.25404,2.64044 -5.13906,1.68723z" fill="#ff6b00" stroke-linecap="butt"/></g></g></svg>