<svg version="1.1" xmlns="http://www.w3.org/2000/svg" xmlns:xlink="http://www.w3.org/1999/xlink" width="109.90776" height="78.23596" viewBox="0,0,109.90776,78.23596"><g transform="translate(-175.62746,-149.33693)"><g data-paper-data="{&quot;isPaintingLayer&quot;:true}" fill-rule="nonzero" stroke="#000000" stroke-width="2" stroke-linejoin="miter" stroke-miterlimit="10" stroke-dasharray="" stroke-dashoffset="0" style="mix-blend-mode: normal"><path d="M176.62746,193.64853c0,-2.11232 1.71238,-3.8247 3.8247,-3.8247c2.11232,0 3.8247,1.71238 3.8247,3.8247c0,2.11232 -1.71238,3.8247 -3.8247,3.8247c-2.11232,0 -3.8247,-1.71238 -3.8247,-3.8247z" fill="#e80000" stroke-linecap="butt"/><path d="M232.35743,207.47837l-12.29339,-22.41532l6.88345,-3.77513l12.29339,22.41532z" data-paper-data="{&quot;index&quot;:null}" fill="#e80000" stroke-linecap="butt"/><path d="M283.34675,209.76734c2.54336,2.07063 0.66812,5.71555 -2.45536,9.55215c-3.12348,3.8366 -7.71736,5.2682 -10.26073,3.19758c-2.54336,-2.07063 -3.72527,-4.82998 -0.60179,-8.66657c5.15693,-6.33432 12.3356,-4.88286 13.31788,-4.08316z" data-paper-data="{&quot;index&quot;:null}" fill="#e80000" stroke-linecap="butt"/><path d="M228.48536,221.68339c0.28501,3.26725 -3.63678,4.45957 -8.56534,4.8895c-4.92858,0.42993 -9.15501,-1.87017 -9.44002,-5.13742c-0.28501,-3.26725 0.87234,-6.037 5.8009,-6.46693c8.13718,-0.70983 12.09438,5.45299 12.20445,6.71486z" data-paper-data="{&quot;index&quot;:null}" fill="#e80000" stroke-linecap="butt"/><path d="M188.50169,198.22182c0,-2.11232 1.71238,-3.8247 3.8247,-3.8247c2.11232,0 3.8247,1.71238 3.8247,3.8247c0,2.11232 -1.71238,3.8247 -3.8247,3.8247c-2.11232,0 -3.8247,-1.71238 -3.8247,-3.8247z" fill="#e80000" stroke-linecap="butt"/><path d="M203.25551,164.45322c0,0 3.30782,-3.33173 4.61467,-4.27903c1.64962,-1.19576 4.49643,-2.32536 4.49643,-2.32536" data-paper-data="{&quot;index&quot;:null}" fill="none" stroke-linecap="round"/><path d="M220.72089,159.02023c-1.96069,2.04761 -5.21005,2.11806 -7.25766,0.15737c-2.04761,-1.96069 -2.11806,-5.21005 -0.15737,-7.25766c1.96069,-2.04761 5.21005,-2.11806 7.25766,-0.15737c2.04761,1.96069 2.11806,5.21005 0.15737,7.25766z" data-paper-data="{&quot;index&quot;:null}" fill="#e80000" stroke-linecap="butt"/><path d="M208.25302,188.29784c-7.7414,4.91883 -18.00455,2.6307 -22.92338,-5.1107c-4.91883,-7.7414 -2.6307,-18.00455 5.1107,-22.92338c7.7414,-4.91883 18.00455,-2.6307 22.92338,5.1107c4.91883,7.7414 2.6307,18.00455 -5.1107,22.92338z" data-paper-data="{&quot;index&quot;:null}" fill="#e80000" stroke-linecap="butt"/><path d="M181.71421,173.8718l-1.73045,-5.32593l31.76536,-10.32092l1.73045,5.32593z" data-paper-data="{&quot;index&quot;:null}" fill="#ff2121" stroke-linecap="butt"/></g></g></svg>