<svg version="1.1" xmlns="http://www.w3.org/2000/svg" xmlns:xlink="http://www.w3.org/1999/xlink" width="56.99023" height="84.44499" viewBox="0,0,56.99023,84.44499"><g transform="translate(-214.40349,-142.64)"><g data-paper-data="{&quot;isPaintingLayer&quot;:true}" fill-rule="nonzero" stroke="#000000" stroke-width="2" stroke-linejoin="miter" stroke-miterlimit="10" stroke-dasharray="" stroke-dashoffset="0" style="mix-blend-mode: normal"><path d="M260.68633,186.66181c0.2758,-2.09424 2.1971,-3.56838 4.29133,-3.29258c2.09424,0.2758 3.56838,2.1971 3.29258,4.29133c-0.2758,2.09424 -2.1971,3.56838 -4.29133,3.29258c-2.09424,-0.2758 -3.56838,-2.1971 -3.29258,-4.29133z" fill="#2d6a2b" stroke-linecap="butt"/><path d="M233.83516,161.47458c1.19754,-9.09341 9.54001,-15.49429 18.63341,-14.29674c9.09341,1.19754 15.49428,9.54 14.29674,18.6334c-1.19754,9.09341 -9.54,15.49429 -18.63341,14.29674c-9.09341,-1.19754 -15.49429,-9.54 -14.29674,-18.6334z" fill="#2d6a2b" stroke-linecap="butt"/><path d="M245.09113,144.41689c15.44037,-3.56892 24.47202,6.31623 24.47202,6.31623l-39.43865,11.16646c0,0 -1.63429,-13.6455 14.96664,-17.48268z" fill="#367e33" stroke-linecap="round"/><path d="M234.66846,205.47684l6.96433,-24.5982l7.55379,2.13864l-6.96432,24.59821z" fill="#2d6a2b" stroke-linecap="butt"/><path d="M223.4149,193.08493c0.2758,-2.09424 2.1971,-3.56838 4.29133,-3.29258c2.09424,0.2758 3.56838,2.1971 3.29258,4.29133c-0.2758,2.09424 -2.1971,3.56838 -4.29133,3.29258c-2.09424,-0.2758 -3.56838,-2.1971 -3.29258,-4.29133z" fill="#2d6a2b" stroke-linecap="butt"/><path d="M255.19245,214.2083c4.94728,0 6.34095,2.65869 6.34095,5.93835c0,3.27966 -4.01057,5.93835 -8.95785,5.93835c-4.94728,0 -8.95785,-0.84699 -8.95785,-4.12665c0,-1.26666 3.40667,-7.75005 11.57475,-7.75005z" data-paper-data="{&quot;index&quot;:null}" fill="#2d6a2b" stroke-linecap="butt"/><path d="M228.53057,214.6109c4.11347,0 7.4481,2.47844 7.4481,5.53575c0,3.05731 -3.33463,5.53575 -7.4481,5.53575c-4.11347,0 -7.4481,-2.47844 -7.4481,-5.53575c0,-3.05731 3.33463,-5.53575 7.4481,-5.53575z" data-paper-data="{&quot;index&quot;:null}" fill="#2d6a2b" stroke-linecap="butt"/><path d="M223.73002,150.28147c0,0 2.96934,-0.75058 5.00675,-0.74673c1.61407,0.00306 6.24623,0.76803 6.24623,0.76803" fill="none" stroke-linecap="round"/><path d="M215.40349,148.8791c0.37015,-2.81069 2.94873,-4.78914 5.75941,-4.41899c2.81069,0.37015 4.78914,2.94873 4.41899,5.75941c-0.37015,2.81069 -2.94873,4.78914 -5.75942,4.41899c-2.81069,-0.37015 -4.78914,-2.94873 -4.41899,-5.75942z" fill="#2d6a2b" stroke-linecap="butt"/></g></g></svg>