<svg version="1.1" xmlns="http://www.w3.org/2000/svg" xmlns:xlink="http://www.w3.org/1999/xlink" width="57.40708" height="88.10296" viewBox="0,0,57.40708,88.10296"><g transform="translate(-205.89621,-137.51451)"><g data-paper-data="{&quot;isPaintingLayer&quot;:true}" fill-rule="nonzero" stroke="#000000" stroke-width="2" stroke-linejoin="miter" stroke-miterlimit="10" stroke-dasharray="" stroke-dashoffset="0" style="mix-blend-mode: normal"><path d="M227.4007,158.76089c0,-9.17193 7.43532,-16.60724 16.60724,-16.60724c9.17193,0 16.60724,7.43532 16.60724,16.60724c0,9.17193 -7.43532,16.60724 -16.60724,16.60724c-9.17193,0 -16.60724,-7.43532 -16.60724,-16.60724z" fill="#2d6a2b" stroke-linecap="butt"/><path d="M236.33318,140.37958c14.84222,-5.55435 25.0872,3.06696 25.0872,3.06696l-37.64308,16.22019c0,0 -3.40193,-13.31531 12.55588,-19.28715z" fill="#367e33" stroke-linecap="round"/><path d="M234.56558,202.87122l3.69303,-25.29694l7.76836,1.13408l-3.69303,25.29694z" fill="#2d6a2b" stroke-linecap="butt"/><path d="M223.65146,191.47876c0,-2.11232 1.71238,-3.8247 3.8247,-3.8247c2.11232,0 3.8247,1.71238 3.8247,3.8247c0,2.11232 -1.71238,3.8247 -3.8247,3.8247c-2.11232,0 -3.8247,-1.71238 -3.8247,-3.8247z" fill="#2d6a2b" stroke-linecap="butt"/><path d="M251.64757,182.29026c0,-2.11232 1.71238,-3.8247 3.8247,-3.8247c2.11232,0 3.8247,1.71238 3.8247,3.8247c0,2.11232 -1.71238,3.8247 -3.8247,3.8247c-2.11232,0 -3.8247,-1.71238 -3.8247,-3.8247z" fill="#2d6a2b" stroke-linecap="butt"/><path d="M233.31057,213.27265c4.82945,1.07333 5.61311,3.97106 4.90158,7.17259c-0.71154,3.20154 -5.20338,4.9268 -10.03284,3.85348c-4.82945,-1.07333 -8.56073,-2.77024 -7.8492,-5.97179c0.2748,-1.23649 5.00692,-6.82637 12.98047,-5.05428z" data-paper-data="{&quot;index&quot;:null}" fill="#2d6a2b" stroke-linecap="butt"/><path d="M215.67673,146.40424l12.72998,-2.00295" fill="none" stroke-linecap="round"/><path d="M206.90355,145.67818c-0.15013,-2.83098 2.02313,-5.24765 4.85411,-5.39778c2.83098,-0.15013 5.24765,2.02313 5.39778,4.85411c0.15013,2.83098 -2.02313,5.24765 -4.85411,5.39778c-2.83098,0.15013 -5.24765,-2.02313 -5.39778,-4.85411z" fill="#2d6a2b" stroke-linecap="butt"/><path d="M251.76541,208.8287c3.18244,3.78783 2.04335,6.56514 -0.46768,8.67485c-2.51103,2.1097 -7.1265,0.74931 -10.30895,-3.03851c-3.18244,-3.78783 -5.11383,-7.40332 -2.60281,-9.51303c0.96981,-0.81481 8.12516,-2.3771 13.37945,3.87669z" data-paper-data="{&quot;index&quot;:null}" fill="#2d6a2b" stroke-linecap="butt"/></g></g></svg>