<svg version="1.1" xmlns="http://www.w3.org/2000/svg" xmlns:xlink="http://www.w3.org/1999/xlink" width="47.75" height="47.75" viewBox="0,0,47.75,47.75"><defs><linearGradient x1="240" y1="160.6843" x2="240" y2="199.3157" gradientUnits="userSpaceOnUse" id="color-1"><stop offset="0" stop-color="#828282"/><stop offset="1" stop-color="#484848"/></linearGradient></defs><g transform="translate(-216.12499,-156.125)"><g data-paper-data="{&quot;isPaintingLayer&quot;:true}" fill-rule="nonzero" stroke-linecap="butt" stroke-linejoin="miter" stroke-miterlimit="10" stroke-dasharray="" stroke-dashoffset="0" style="mix-blend-mode: normal"><path d="M216.125,180c0,-13.1858 10.6892,-23.875 23.875,-23.875c13.1858,0 23.875,10.6892 23.875,23.875c0,13.1858 -10.6892,23.875 -23.875,23.875c-13.1858,0 -23.875,-10.6892 -23.875,-23.875z" fill="#898989" stroke="none" stroke-width="0"/><path d="M225.18726,178.89512c-1.35112,-1.35182 -1.3495,-3.54246 0.00358,-4.89359c5.33861,-5.33083 12.32396,-12.30568 12.32396,-12.30568c1.35182,-1.35014 3.54281,-1.34853 4.89324,0.00357c0,0 8.08338,8.09417 12.40532,12.42311c1.35049,1.3521 1.34852,3.54239 -0.00358,4.89352c-1.3521,1.35049 -11.40045,-0.01602 -11.40045,-0.01602c0,0 -0.01424,13.19419 -0.01693,16.85791c-0.0014,1.91113 -1.55132,3.45915 -3.46245,3.45775c-1.91085,-0.0014 -3.45915,-1.55174 -3.45782,-3.46279c0.00312,-4.27285 0.01659,-16.85278 0.01659,-16.85278c0,0 -9.95133,1.24744 -11.30147,-0.10501z" fill="url(#color-1)" stroke="#000000" stroke-width="2"/></g></g></svg>