<svg version="1.1" xmlns="http://www.w3.org/2000/svg" xmlns:xlink="http://www.w3.org/1999/xlink" width="130.9849" height="59.73389" viewBox="0,0,130.9849,59.73389"><g transform="translate(-180.53502,-165.88543)"><g data-paper-data="{&quot;isPaintingLayer&quot;:true}" fill-rule="nonzero" stroke="#000000" stroke-width="2" stroke-linejoin="miter" stroke-miterlimit="10" stroke-dasharray="" stroke-dashoffset="0" style="mix-blend-mode: normal"><path d="M259.00537,208.29652l-25.14224,-4.63047l1.42196,-7.72084l25.14225,4.63046z" fill="#e80000" stroke-linecap="butt"/><path d="M225.1907,220.79462c0,-2.11232 1.71238,-3.8247 3.8247,-3.8247c2.11232,0 3.8247,1.71238 3.8247,3.8247c0,2.11232 -1.71238,3.8247 -3.8247,3.8247c-2.11232,0 -3.8247,-1.71238 -3.8247,-3.8247z" fill="#e80000" stroke-linecap="butt"/><path d="M254.73171,219.21821c0,-2.11232 1.71238,-3.8247 3.8247,-3.8247c2.11232,0 3.8247,1.71238 3.8247,3.8247c0,2.11232 -1.71238,3.8247 -3.8247,3.8247c-2.11232,0 -3.8247,-1.71238 -3.8247,-3.8247z" fill="#e80000" stroke-linecap="butt"/><path d="M294.5592,191.28742c4.90419,-0.65155 6.63586,1.80043 7.0678,5.05153c0.43193,3.2511 -3.19355,6.41481 -8.09775,7.06636c-4.90419,0.65155 -54.83111,22.50108 -55.26305,19.24997c-0.16681,-1.25563 48.19607,-30.29215 56.293,-31.36788z" data-paper-data="{&quot;index&quot;:null}" fill="#e80000" stroke-linecap="butt"/><path d="M191.72949,179.35894c0,0 2.87092,-1.06684 4.89684,-1.28303c1.60496,-0.17126 6.29264,0.08904 6.29264,0.08904" data-paper-data="{&quot;index&quot;:null}" fill="none" stroke-linecap="round"/><path d="M181.56597,180.32576c0.20833,-2.8273 2.66917,-4.9504 5.49648,-4.74207c2.8273,0.20833 4.95039,2.66917 4.74207,5.49647c-0.20833,2.8273 -2.66917,4.9504 -5.49647,4.74208c-2.8273,-0.20833 -4.9504,-2.66917 -4.74207,-5.49647z" data-paper-data="{&quot;index&quot;:null}" fill="#e80000" stroke-linecap="butt"/><path d="M201.01647,183.49267c0,-9.17193 7.43532,-16.60724 16.60724,-16.60724c9.17193,0 16.60724,7.43532 16.60724,16.60724c0,9.17193 -7.43532,16.60724 -16.60724,16.60724c-9.17193,0 -16.60724,-7.43532 -16.60724,-16.60724z" fill="#e80000" stroke-linecap="butt"/><path d="M199.94072,182.01565l-1.3957,-5.42329l32.34602,-8.32434l1.3957,5.42328z" fill="#ff2121" stroke-linecap="butt"/><path d="M302.24365,199.70641c4.46816,-2.12393 6.86827,-0.32105 8.27627,2.641c1.408,2.96205 -1.07275,7.08504 -5.54093,9.20898c-1.83516,0.87234 -11.36009,5.79556 -22.0461,8.04859c-15.33178,3.23254 -33.05365,3.69984 -33.88336,1.95437c-0.54379,-1.144 45.81706,-18.34628 53.19411,-21.85292z" data-paper-data="{&quot;index&quot;:null}" fill="#e80000" stroke-linecap="butt"/></g></g></svg>