<svg version="1.1" xmlns="http://www.w3.org/2000/svg" xmlns:xlink="http://www.w3.org/1999/xlink" width="75.59255" height="79.81663" viewBox="0,0,75.59255,79.81663"><g transform="translate(-208.41677,-148.00845)"><g data-paper-data="{&quot;isPaintingLayer&quot;:true}" fill-rule="nonzero" stroke="#000000" stroke-width="2" stroke-linejoin="miter" stroke-miterlimit="10" stroke-dasharray="" stroke-dashoffset="0" style="mix-blend-mode: normal"><path d="M248.10673,169.25483c0,-9.17193 7.43532,-16.60724 16.60724,-16.60724c9.17193,0 16.60724,7.43532 16.60724,16.60724c0,9.17193 -7.43532,16.60724 -16.60724,16.60724c-9.17193,0 -16.60724,-7.43532 -16.60724,-16.60724z" fill="#2d6a2b" stroke-linecap="butt"/><path d="M257.03921,150.87352c14.84222,-5.55435 25.0872,3.06696 25.0872,3.06696l-37.64308,16.22019c0,0 -3.40193,-13.31531 12.55588,-19.28715z" fill="#367e33" stroke-linecap="round"/><path d="M249.32479,155.44967l-11.0715,2.013" fill="none" stroke-linecap="round"/><path d="M228.1883,159.17372c0,-2.83496 2.29819,-5.13315 5.13315,-5.13315c2.83496,0 5.13315,2.29819 5.13315,5.13315c0,2.83496 -2.29819,5.13315 -5.13315,5.13315c-2.83496,0 -5.13315,-2.29819 -5.13315,-5.13315z" fill="#2d6a2b" stroke-linecap="butt"/><path d="M269.34021,187.20289c0.88757,-1.9168 3.16097,-2.75115 5.07777,-1.86358c1.9168,0.88757 2.75115,3.16097 1.86358,5.07777c-0.88757,1.9168 -3.16097,2.75115 -5.07777,1.86358c-1.9168,-0.88757 -2.75115,-3.16097 -1.86358,-5.07777z" fill="#2d6a2b" stroke-linecap="butt"/><path d="M233.92644,206.35283l13.98065,-21.40362l6.57277,4.29327l-13.98065,21.40362z" fill="#2d6a2b" stroke-linecap="butt"/><path d="M263.83511,181.71303c0.88757,-1.9168 3.16097,-2.75115 5.07777,-1.86358c1.9168,0.88757 2.75115,3.16097 1.86358,5.07777c-0.88757,1.9168 -3.16097,2.75115 -5.07777,1.86358c-1.9168,-0.88757 -2.75115,-3.16097 -1.86358,-5.07777z" fill="#2d6a2b" stroke-linecap="butt"/><path d="M249.2519,216.05223c4.4042,2.25358 4.43379,5.25526 2.93984,8.1749c-1.49395,2.91964 -6.27535,3.45958 -10.67954,1.20599c-4.4042,-2.25358 -7.58869,-4.83449 -6.09474,-7.75413c0.57699,-1.12761 6.56301,-5.34749 13.83444,-1.62676z" data-paper-data="{&quot;index&quot;:null}" fill="#2d6a2b" stroke-linecap="butt"/><path d="M223.8316,217.93014c2.93135,3.98532 1.61539,6.68332 -1.02656,8.62657c-2.64195,1.94326 -7.16002,0.28783 -10.09137,-3.69749c-2.93135,-3.98532 -4.62538,-7.71793 -1.98343,-9.66118c1.02037,-0.75052 8.26163,-1.84777 13.10135,4.7321z" data-paper-data="{&quot;index&quot;:null}" fill="#2d6a2b" stroke-linecap="butt"/></g></g></svg>