<svg version="1.1" xmlns="http://www.w3.org/2000/svg" xmlns:xlink="http://www.w3.org/1999/xlink" width="98.64545" height="112.03383" viewBox="0,0,98.64545,112.03383"><g transform="translate(-184.67738,-106.8943)"><g data-paper-data="{&quot;isPaintingLayer&quot;:true}" fill-rule="nonzero" stroke="#000000" stroke-width="2" stroke-linejoin="miter" stroke-miterlimit="10" stroke-dasharray="" stroke-dashoffset="0" style="mix-blend-mode: normal"><path d="M241.61806,180.55303c0,-2.11232 1.71238,-3.8247 3.8247,-3.8247c2.11232,0 3.8247,1.71238 3.8247,3.8247c0,2.11232 -1.71238,3.8247 -3.8247,3.8247c-2.11232,0 -3.8247,-1.71238 -3.8247,-3.8247z" fill="#ff6b00" stroke-linecap="butt"/><path d="M213.4346,161.41283c0,-9.17193 7.43532,-16.60724 16.60724,-16.60724c9.17193,0 16.60724,7.43532 16.60724,16.60724c0,9.17193 -7.43532,16.60724 -16.60724,16.60724c-9.17193,0 -16.60724,-7.43532 -16.60724,-16.60724z" fill="#ff6b00" stroke-linecap="butt"/><path d="M233.50919,205.28746l-10.75465,-23.19292l7.12225,-3.30261l10.75464,23.19292z" fill="#ff6b00" stroke-linecap="butt"/><path d="M220.98889,198.12617c0,-2.11232 1.71238,-3.8247 3.8247,-3.8247c2.11232,0 3.8247,1.71238 3.8247,3.8247c0,2.11232 -1.71238,3.8247 -3.8247,3.8247c-2.11232,0 -3.8247,-1.71238 -3.8247,-3.8247z" fill="#ff6b00" stroke-linecap="butt"/><path d="M202.65849,154.73563c0,0 2.71389,-1.41956 4.69651,-1.88892c1.57066,-0.37182 6.25385,-0.70336 6.25385,-0.70336" fill="none" stroke-linecap="round"/><path d="M192.69737,156.97344c-0.14903,-2.83104 2.02514,-5.24687 4.85619,-5.39591c2.83104,-0.14903 5.24687,2.02515 5.3959,4.8562c0.14903,2.83104 -2.02514,5.24687 -4.85619,5.3959c-2.83104,0.14903 -5.24687,-2.02514 -5.3959,-4.85619z" fill="#ff6b00" stroke-linecap="butt"/><path d="M271.96892,196.24234c2.96841,-3.95778 5.93156,-3.47749 8.55527,-1.50966c2.62371,1.96783 2.34426,6.77147 -0.62414,10.7293c-2.96841,3.95778 -6.05236,6.65803 -8.67607,4.6902c-1.01331,-0.76 -4.15595,-7.3754 0.74495,-13.90982z" data-paper-data="{&quot;index&quot;:null}" fill="#ff6b00" stroke-linecap="butt"/><path d="M208.8738,164.76854l4.22817,-12.18351l-26.62972,-21.39582l41.5955,-22.71252l4.14025,33.37304l12.53391,2.91357z" data-paper-data="{&quot;index&quot;:null}" fill="#ffa340" stroke-linecap="butt"/><path d="M210.87982,216.35711c-4.05101,2.83988 -6.71836,1.46284 -8.60098,-1.22266c-1.88262,-2.6855 -0.12478,-7.16471 3.92623,-10.0046c4.05101,-2.83988 7.8212,-4.44852 9.70382,-1.76301c0.72709,1.03719 1.65924,8.30154 -5.02907,12.99025z" data-paper-data="{&quot;index&quot;:null}" fill="#ff6b00" stroke-linecap="butt"/></g></g></svg>