<svg version="1.1" xmlns="http://www.w3.org/2000/svg" xmlns:xlink="http://www.w3.org/1999/xlink" width="103.11607" height="77.82979" viewBox="0,0,103.11607,77.82979"><g transform="translate(-174.30288,-149.25521)"><g data-paper-data="{&quot;isPaintingLayer&quot;:true}" fill-rule="nonzero" stroke-linejoin="miter" stroke-miterlimit="10" stroke-dasharray="" stroke-dashoffset="0" style="mix-blend-mode: normal"><path d="M231.45388,206.09378l13.32694,-21.81665l6.69961,4.09253l-13.32694,21.81665z" fill="#2d6a2b" stroke="#000000" stroke-width="2" stroke-linecap="butt"/><path d="M219.80687,192.33814c0,-2.11232 1.71238,-3.8247 3.8247,-3.8247c2.11232,0 3.8247,1.71238 3.8247,3.8247c0,2.11232 -1.71238,3.8247 -3.8247,3.8247c-2.11232,0 -3.8247,-1.71238 -3.8247,-3.8247z" fill="#2d6a2b" stroke="#000000" stroke-width="2" stroke-linecap="butt"/><path d="M260.46984,192.86811c0,-2.11232 1.71238,-3.8247 3.8247,-3.8247c2.11232,0 3.8247,1.71238 3.8247,3.8247c0,2.11232 -1.71238,3.8247 -3.8247,3.8247c-2.11232,0 -3.8247,-1.71238 -3.8247,-3.8247z" fill="#2d6a2b" stroke="#000000" stroke-width="2" stroke-linecap="butt"/><path d="M256.65742,214.2083c4.94728,0 6.34095,2.65869 6.34095,5.93835c0,3.27966 -4.01057,5.93835 -8.95785,5.93835c-4.94728,0 -8.95785,-0.84699 -8.95785,-4.12665c0,-1.26666 3.40667,-7.75005 11.57475,-7.75005z" data-paper-data="{&quot;index&quot;:null}" fill="#2d6a2b" stroke="#000000" stroke-width="2" stroke-linecap="butt"/><path d="M220.59047,214.6109c4.11347,0 7.4481,2.47844 7.4481,5.53575c0,3.05731 -3.33463,5.53575 -7.4481,5.53575c-4.11347,0 -7.4481,-2.47844 -7.4481,-5.53575c0,-3.05731 3.33463,-5.53575 7.4481,-5.53575z" data-paper-data="{&quot;index&quot;:null}" fill="#2d6a2b" stroke="#000000" stroke-width="2" stroke-linecap="butt"/><path d="M241.51635,170.50159c0,-9.17193 7.43532,-16.60724 16.60724,-16.60724c9.17193,0 16.60724,7.43532 16.60724,16.60724c0,9.17193 -7.43532,16.60724 -16.60724,16.60724c-9.17193,0 -16.60724,-7.43532 -16.60724,-16.60724z" fill="#2d6a2b" stroke="#000000" stroke-width="2" stroke-linecap="butt"/><path d="M250.44883,152.12028c14.84222,-5.55435 25.0872,3.06696 25.0872,3.06696l-37.64308,16.22019c0,0 -3.40193,-13.31531 12.55588,-19.28715z" fill="#367e33" stroke="#000000" stroke-width="2" stroke-linecap="round"/><path d="M231.66291,158.70943c0,0 2.78477,-1.27492 4.78933,-1.63939c1.58804,-0.28873 6.28217,-0.37361 6.28217,-0.37361" fill="none" stroke="#000000" stroke-width="2" stroke-linecap="round"/><path d="M221.59792,160.42048c0,-2.83496 2.29819,-5.13315 5.13315,-5.13315c2.83496,0 5.13315,2.29819 5.13315,5.13315c0,2.83496 -2.29819,5.13315 -5.13315,5.13315c-2.83496,0 -5.13315,-2.29819 -5.13315,-5.13315z" fill="#2d6a2b" stroke="#000000" stroke-width="2" stroke-linecap="butt"/><g stroke-width="3" stroke-linecap="round"><path d="M175.80288,151.97906c0,0 11.33296,11.73966 18.28123,17.83394c7.74888,6.7965 26.07265,21.06862 26.07265,21.06862" fill="none" stroke="#61ff00"/><path d="M204.29838,177.25333c0,0 -5.58443,-9.14967 -3.71681,-12.88493c1.86763,-3.73525 5.20353,-1.73451 5.20353,-1.73451z" fill="#61ff00" stroke="#61ff00"/><path d="M177.37659,167.00031c0,0 -0.7581,-3.8153 3.38823,-4.31336c4.14633,-0.49806 10.87575,7.84564 10.87575,7.84564z" data-paper-data="{&quot;index&quot;:null}" fill="#61ff00" stroke="#61ff00"/><path d="M201.15477,184.11406c0,0 -0.61606,-3.22438 2.88606,-3.61895c3.50213,-0.39457 9.12919,6.68834 9.12919,6.68834z" data-paper-data="{&quot;index&quot;:null}" fill="#61ff00" stroke="#61ff00"/></g></g></g></svg>