<svg version="1.1" xmlns="http://www.w3.org/2000/svg" xmlns:xlink="http://www.w3.org/1999/xlink" width="247.93267" height="88.64457" viewBox="0,0,247.93267,88.64457"><defs><radialGradient cx="240.39621" cy="134.05457" r="18.84183" gradientUnits="userSpaceOnUse" id="color-1"><stop offset="0" stop-color="#ffffff"/><stop offset="1" stop-color="#0debff"/></radialGradient></defs><g transform="translate(-162.1878,-129.69736)"><g data-paper-data="{&quot;isPaintingLayer&quot;:true}" fill-rule="nonzero" stroke-linejoin="miter" stroke-miterlimit="10" stroke-dasharray="" stroke-dashoffset="0" style="mix-blend-mode: normal"><path d="M193.86797,176.90637l22.66701,-11.82288l3.63065,6.96074l-22.66701,11.82288z" data-paper-data="{&quot;index&quot;:null}" fill="#0debff" stroke="#000000" stroke-width="2" stroke-linecap="butt"/><path d="M169.46381,198.90416c-4.94696,-0.05436 -6.31137,-2.7282 -6.27532,-6.00766c0.03604,-3.27947 4.07558,-5.89392 9.02257,-5.83956c4.94696,0.05436 8.94798,0.94537 8.91198,4.22483c-0.01392,1.26658 -3.49162,7.71215 -11.65922,7.6224z" data-paper-data="{&quot;index&quot;:null}" fill="#0debff" stroke="#000000" stroke-width="2" stroke-linecap="butt"/><path d="M239.15622,149.30036c4.67224,-7.89269 14.85811,-10.50338 22.75079,-5.83114c7.89269,4.67224 10.50338,14.85812 5.83116,22.7508c-4.67224,7.89269 -14.85812,10.50338 -22.7508,5.83115c-7.89269,-4.67224 -10.50338,-14.85811 -5.83114,-22.75079z" fill="#0debff" stroke="#000000" stroke-width="2" stroke-linecap="butt"/><path d="M228.71772,146.69312c0,0 2.63886,-1.55459 4.5953,-2.12329c1.54992,-0.45053 6.21043,-1.01777 6.21043,-1.01777" fill="none" stroke="#000000" stroke-width="2" stroke-linecap="round"/><path d="M218.88208,149.43028c-0.29158,-2.81993 1.75805,-5.3423 4.57797,-5.63389c2.81993,-0.29158 5.3423,1.75805 5.63389,4.57797c0.29158,2.81993 -1.75805,5.3423 -4.57797,5.63388c-2.81993,0.29158 -5.34231,-1.75804 -5.63389,-4.57797z" fill="#0debff" stroke="#000000" stroke-width="2" stroke-linecap="butt"/><path d="M234.70462,152.97915l2.72883,-20.62713l29.97589,-1.61154l4.92458,20.21569z" fill="url(#color-1)" stroke="#000000" stroke-width="2" stroke-linecap="butt"/><path d="M283.28681,191.19521c0.73994,1.97848 -0.26412,4.1822 -2.24259,4.92213c-1.97848,0.73994 -4.18221,-0.26411 -4.92214,-2.24259c-0.73994,-1.97848 0.26412,-4.1822 2.2426,-4.92213c1.97848,-0.73994 4.1822,0.26411 4.92214,2.24259z" data-paper-data="{&quot;index&quot;:null}" fill="#0debff" stroke="#000000" stroke-width="2" stroke-linecap="butt"/><g data-paper-data="{&quot;index&quot;:null}" fill="#76f4ff" stroke="#53acb4" stroke-width="1" stroke-linecap="butt"><path d="M330.70186,206.5876l-34.22292,-11.72624l35.99719,-3.59362l77.53881,16.7429z" data-paper-data="{&quot;index&quot;:null}"/><path d="M281.19006,188.18531l24.33378,5.0803l-0.6463,5.58033l-24.91544,-0.05802z"/><path d="M309.96446,196.56456l1.39199,20.22394l-10.02148,-12.45568l1.98801,-16.73748l12.61913,-10.40118z"/></g><path d="M182.35749,142.06438c2.23856,-4.41185 5.2401,-4.45169 8.16482,-2.9677c2.92472,1.484 3.48096,6.26352 1.24241,10.67538c-2.23856,4.41185 -4.80857,7.60512 -7.73329,6.12113c-1.12957,-0.57313 -5.36984,-6.54474 -1.67393,-13.82881z" data-paper-data="{&quot;index&quot;:null}" fill="#0debff" stroke="#000000" stroke-width="2" stroke-linecap="butt"/><path d="M260.97419,189.25565c0.73994,1.97848 -0.26411,4.18219 -2.24259,4.92213c-1.97848,0.73993 -4.18221,-0.26412 -4.92215,-2.24259c-0.73994,-1.97848 0.26412,-4.1822 2.24259,-4.92213c1.97848,-0.73994 4.18221,0.26412 4.92214,2.2426z" data-paper-data="{&quot;index&quot;:null}" fill="#0debff" stroke="#000000" stroke-width="2" stroke-linecap="butt"/></g></g></svg>