<svg version="1.1" xmlns="http://www.w3.org/2000/svg" xmlns:xlink="http://www.w3.org/1999/xlink" width="189.34301" height="111.27679" viewBox="0,0,189.34301,111.27679"><defs><linearGradient x1="202.4193" y1="190.53665" x2="382.9193" y2="190.53665" gradientUnits="userSpaceOnUse" id="color-1"><stop offset="0" stop-color="#ffffff" stop-opacity="0"/><stop offset="1" stop-color="#ffffff"/></linearGradient></defs><g transform="translate(-190.9193,-119.10085)"><g data-paper-data="{&quot;isPaintingLayer&quot;:true}" fill-rule="nonzero" stroke-linejoin="miter" stroke-miterlimit="10" stroke-dasharray="" stroke-dashoffset="0" style="mix-blend-mode: normal"><path d="M376.1693,203.94913c0,0 -27.90874,12.74008 -42.20678,15.04462c-13.77605,2.22041 -42.07375,-1.46035 -42.07375,-1.46035l-100.96947,-95.46605c0,0 87.09097,-11.42123 130.25,10.55682c43.15903,21.97805 55,71.32496 55,71.32496z" fill="url(#color-1)" stroke="none" stroke-width="0" stroke-linecap="round"/><path d="M226.19846,205.15546l19.95819,-15.97636l4.90613,6.1289l-19.95819,15.97636z" fill="#2d6a2b" stroke="#000000" stroke-width="2" stroke-linecap="butt"/><path d="M287.71984,216.61812c0,-2.11232 1.71238,-3.8247 3.8247,-3.8247c2.11232,0 3.8247,1.71238 3.8247,3.8247c0,2.11232 -1.71238,3.8247 -3.8247,3.8247c-2.11232,0 -3.8247,-1.71238 -3.8247,-3.8247z" fill="#2d6a2b" stroke="#000000" stroke-width="2" stroke-linecap="butt"/><path d="M258.93282,213.38269c4.93244,-0.38296 6.52773,2.15988 6.7816,5.4297c0.25387,3.26982 -3.53887,6.23098 -8.4713,6.61393c-4.93244,0.38296 -8.99653,-0.15105 -9.2504,-3.42087c-0.09805,-1.26286 2.79655,-7.9905 10.94011,-8.62276z" data-paper-data="{&quot;index&quot;:null}" fill="#2d6a2b" stroke="#000000" stroke-width="2" stroke-linecap="butt"/><path d="M208.59048,214.61091c4.11347,0 7.4481,2.47844 7.4481,5.53575c0,3.05731 -3.33463,5.53575 -7.4481,5.53575c-4.11347,0 -7.4481,-2.47844 -7.4481,-5.53575c0,-3.05731 3.33463,-5.53575 7.4481,-5.53575z" data-paper-data="{&quot;index&quot;:null}" fill="#2d6a2b" stroke="#000000" stroke-width="2" stroke-linecap="butt"/><path d="M258.98091,176.02008c4.56345,-7.95608 14.71254,-10.70634 22.6686,-6.1429c7.95608,4.56345 10.70634,14.71254 6.1429,22.6686c-4.56345,7.95608 -14.71254,10.70634 -22.6686,6.1429c-7.95608,-4.56345 -10.70634,-14.71254 -6.1429,-22.6686z" fill="#2d6a2b" stroke="#000000" stroke-width="2" stroke-linecap="butt"/><path d="M275.87481,164.51975c15.63825,2.56663 20.23565,15.14242 20.23565,15.14242l-40.72332,-4.65913c0,0 3.67401,-13.24282 20.48768,-10.48329z" fill="#367e33" stroke="#000000" stroke-width="2" stroke-linecap="round"/><path d="M256.30079,160.88858c0,0 3.04995,0.27963 4.97012,0.96084c1.52119,0.53966 5.63527,2.80158 5.63527,2.80158" fill="none" stroke="#000000" stroke-width="2" stroke-linecap="round"/><path d="M246.71871,157.36501c1.41053,-2.45915 4.54751,-3.30923 7.00666,-1.89871c2.45915,1.41053 3.30923,4.54751 1.89871,7.00666c-1.41053,2.45915 -4.54751,3.30923 -7.00666,1.89871c-2.45915,-1.41053 -3.30923,-4.54751 -1.89871,-7.00666z" fill="#2d6a2b" stroke="#000000" stroke-width="2" stroke-linecap="butt"/><g stroke="#61ff00" stroke-width="3" stroke-linecap="round"><path d="M378.76231,202.82892c0,0 -31.64371,16.99533 -47.00859,16.54073c-13.77739,-0.40763 -37.93859,-2.64287 -37.93859,-2.64287" fill="none"/><path d="M345.33133,213.89376c0,0 -15.06494,-4.03769 -16.40681,-8.61704c-1.34184,-4.57935 4.40412,-5.19096 4.40412,-5.19096z" fill="#61ff00"/><path d="M309.74315,228.72257c0,0 -4.46112,-2.79358 -0.12174,-6.15844c4.33938,-3.36486 19.97504,-0.83966 19.97504,-0.83966z" data-paper-data="{&quot;index&quot;:null}" fill="#61ff00"/><path d="M356.87842,210.60224c0,0 -3.74162,-2.3783 -0.05193,-5.1976c3.6897,-2.8193 16.86358,-0.61525 16.86358,-0.61525z" data-paper-data="{&quot;index&quot;:null}" fill="#61ff00"/></g><path d="M284.55688,217.33815c0,-2.11232 1.71238,-3.8247 3.8247,-3.8247c2.11232,0 3.8247,1.71238 3.8247,3.8247c0,2.11232 -1.71238,3.8247 -3.8247,3.8247c-2.11232,0 -3.8247,-1.71238 -3.8247,-3.8247z" fill="#2d6a2b" stroke="#000000" stroke-width="2" stroke-linecap="butt"/></g></g></svg>