<svg version="1.1" xmlns="http://www.w3.org/2000/svg" xmlns:xlink="http://www.w3.org/1999/xlink" width="81.13712" height="64.05072" viewBox="0,0,81.13712,64.05072"><g transform="translate(-220.088,-162.76725)"><g data-paper-data="{&quot;isPaintingLayer&quot;:true}" fill-rule="nonzero" stroke="#000000" stroke-width="2" stroke-linejoin="miter" stroke-miterlimit="10" stroke-dasharray="" stroke-dashoffset="0" style="mix-blend-mode: normal"><path d="M258.44005,186.54395v-5.24474h19.39678v5.24474z" fill="#ff0000" stroke-linecap="butt"/><path d="M238.80162,182.91095c0,-9.17193 7.43532,-16.60724 16.60724,-16.60724c9.17193,0 16.60724,7.43532 16.60724,16.60724c0,9.17193 -7.43532,16.60724 -16.60724,16.60724c-9.17193,0 -16.60724,-7.43532 -16.60724,-16.60724z" fill="#181818" stroke-linecap="butt"/><g><path d="M240.68912,175.83016v-12.06291h29.6328v12.06291z" fill="#343434" stroke-linecap="butt"/><path d="M281.07366,175.83016h-51.13626" fill="none" stroke-linecap="round"/></g><path d="M233.98862,172.9021c0,0 2.79058,-1.26215 4.79679,-1.61743c1.58935,-0.28145 6.28382,-0.34482 6.28382,-0.34482" data-paper-data="{&quot;index&quot;:null}" fill="#181818" stroke-linecap="round"/><path d="M223.55847,174.67708c0.013,-2.83493 2.32168,-5.12258 5.15662,-5.10957c2.83493,0.013 5.12258,2.32168 5.10957,5.15662c-0.013,2.83493 -2.32168,5.12258 -5.15662,5.10957c-2.83493,-0.013 -5.12258,-2.32168 -5.10957,-5.15662z" data-paper-data="{&quot;index&quot;:null}" fill="#181818" stroke-linecap="butt"/><path d="M269.26687,195.72415c0,-2.11232 1.71238,-3.8247 3.8247,-3.8247c2.11232,0 32.61889,2.19411 26.26455,11.39815c-6.35434,9.20404 -50.00474,8.68879 -52.95031,8.29547c-4.11287,-0.54918 31.1955,-2.89006 37.16208,-7.19464c4.46512,-3.22136 -9.83491,-4.84958 -10.47632,-4.84958c-2.11232,0 -3.8247,-1.71238 -3.8247,-3.8247z" fill="#181818" stroke-linecap="butt"/><path d="M236.10533,216.4241l1.65113,-25.51171l7.83431,0.50704l-1.65113,25.51171z" fill="#181818" stroke-linecap="butt"/><path d="M247.70279,194.47801l4.65366,4.93051l-19.76476,-2.65872l5.09827,-3.34356l-4.06339,-4.07897l16.81777,1.08188z" data-paper-data="{&quot;index&quot;:null}" fill="#0e0e0e" stroke-linecap="round"/><path d="M231.38984,213.21053c0,-2.11232 1.71238,-3.8247 3.8247,-3.8247c2.11232,0 3.8247,1.71238 3.8247,3.8247c0,2.11232 -1.71238,3.8247 -3.8247,3.8247c-2.11232,0 -3.8247,-1.71238 -3.8247,-3.8247z" fill="#181818" stroke-linecap="butt"/><path d="M228.53611,214.34387c4.11347,0 7.4481,2.47844 7.4481,5.53575c0,3.05731 -3.33463,5.53575 -7.4481,5.53575c-4.11347,0 -7.4481,-2.47844 -7.4481,-5.53575c0,-3.05731 3.33463,-5.53575 7.4481,-5.53575z" data-paper-data="{&quot;index&quot;:null}" fill="#181818" stroke-linecap="butt"/><path d="M254.60445,213.94127c4.94728,0 6.34095,2.65869 6.34095,5.93835c0,3.27966 -4.01056,5.93835 -8.95785,5.93835c-4.94728,0 -8.95785,-0.84699 -8.95785,-4.12665c0,-1.26666 3.40667,-7.75005 11.57475,-7.75005z" data-paper-data="{&quot;index&quot;:null}" fill="#181818" stroke-linecap="butt"/></g></g></svg>