<svg version="1.1" xmlns="http://www.w3.org/2000/svg" xmlns:xlink="http://www.w3.org/1999/xlink" width="116.04443" height="63.8342" viewBox="0,0,116.04443,63.8342"><defs><linearGradient x1="301.77843" y1="215.23395" x2="273.79348" y2="195.98492" gradientUnits="userSpaceOnUse" id="color-1"><stop offset="0" stop-color="#e80000" stop-opacity="0"/><stop offset="1" stop-color="#e80000"/></linearGradient></defs><g transform="translate(-198.90753,-164.16315)"><g data-paper-data="{&quot;isPaintingLayer&quot;:true}" fill-rule="nonzero" stroke="#000000" stroke-linejoin="miter" stroke-miterlimit="10" stroke-dasharray="" stroke-dashoffset="0" style="mix-blend-mode: normal"><path d="M255.07877,219.638c0.94587,4.85601 -1.39731,6.73229 -4.61649,7.35935c-3.21916,0.62703 -6.5956,-2.80123 -7.54147,-7.65725c-0.94587,-4.85601 -0.88129,-8.95455 2.33787,-9.58159c1.24329,-0.24218 8.25839,1.86209 9.82007,9.87949z" data-paper-data="{&quot;index&quot;:null}" fill="#e80000" stroke-width="2" stroke-linecap="butt"/><path d="M210.3068,196.37473c4.78719,6.61819 1.53061,13.17825 0.50429,13.92062c-2.65735,1.92216 -5.69415,-0.831 -8.59368,-4.83954c-2.89954,-4.00855 -3.09584,-8.81632 -0.43849,-10.73846c2.65734,-1.92216 5.62835,-2.35116 8.52788,1.65737z" data-paper-data="{&quot;index&quot;:null}" fill="#e80000" stroke-width="2" stroke-linecap="butt"/><path d="M279.57597,170.2104c0,0 2.30951,2.01158 3.46791,3.68765c0.9177,1.32781 2.93007,5.56956 2.93007,5.56956" data-paper-data="{&quot;index&quot;:null}" fill="none" stroke-width="2" stroke-linecap="round"/><path d="M282.33618,168.09687c2.58289,-1.16864 5.6241,-0.02219 6.79274,2.56069c1.16864,2.58289 0.02219,5.6241 -2.56069,6.79274c-2.58289,1.16864 -5.6241,0.02219 -6.79274,-2.56069c-1.16864,-2.58289 -0.02219,-5.6241 2.56069,-6.79274z" data-paper-data="{&quot;index&quot;:null}" fill="#e80000" stroke-width="2" stroke-linecap="butt"/><path d="M256.96221,174.18367c4.19196,-8.15793 14.20352,-11.37297 22.36144,-7.18102c8.15793,4.19196 11.37297,14.20352 7.18102,22.36144c-4.19196,8.15793 -14.20352,11.37297 -22.36144,7.18102c-8.15793,-4.19196 -11.37297,-14.20352 -7.18102,-22.36144z" fill="#e80000" stroke-width="2" stroke-linecap="butt"/><path d="M234.24869,205.83746l21.23048,-14.24221l4.37359,6.5196l-21.23048,14.24221z" fill="#e80000" stroke-width="2" stroke-linecap="butt"/><path d="M256.68045,172.37828l1.23727,-5.46161l32.57458,7.37945l-1.23727,5.4616z" fill="#ff2121" stroke-width="2" stroke-linecap="butt"/><path d="M236.67926,182.32251c-1.67458,1.2875 -4.07583,0.97374 -5.36335,-0.70086c-1.2875,-1.67458 -0.97374,-4.07583 0.70086,-5.36335c1.67458,-1.2875 4.07583,-0.97374 5.36335,0.70086c1.2875,1.67458 0.97374,4.07583 -0.70086,5.36335z" data-paper-data="{&quot;index&quot;:null}" fill="#e80000" stroke-width="2" stroke-linecap="butt"/><path d="M260.19326,210.23283c5.22955,-7.47928 12.84152,-3.90771 27.91378,-5.63032c16.82188,-1.92257 26.80644,-15.45267 26.80644,-15.45267c0,0 1.52508,19.15509 -14.6259,26.22947c-10.84193,4.74895 -21.1937,7.94936 -30.15498,6.79909c-8.96128,-1.15026 -15.16887,-4.46631 -9.93934,-11.94556z" data-paper-data="{&quot;index&quot;:null}" fill="url(#color-1)" stroke-width="0" stroke-linecap="butt"/><path d="M266.50565,209.45298c2.2504,-0.9872 5.03914,-0.27365 6.2288,1.59381c1.18965,1.86743 0.32977,4.18159 -1.92067,5.1688c-2.2504,0.9872 -5.03914,0.27365 -6.2288,-1.59381c-1.18965,-1.86743 -0.32977,-4.18159 1.92067,-5.1688z" data-paper-data="{&quot;index&quot;:null}" fill="#e80000" stroke-width="2" stroke-linecap="butt"/></g></g></svg>