<svg version="1.1" xmlns="http://www.w3.org/2000/svg" xmlns:xlink="http://www.w3.org/1999/xlink" width="62.62741" height="97.2939" viewBox="0,0,62.62741,97.2939"><g transform="translate(-203.81735,-142.47636)"><g data-paper-data="{&quot;isPaintingLayer&quot;:true}" fill-rule="nonzero" stroke="#000000" stroke-width="2" stroke-linejoin="miter" stroke-miterlimit="10" stroke-dasharray="" stroke-dashoffset="0" style="mix-blend-mode: normal"><path d="M214.95937,156.6032c0,0 2.84888,-1.12438 4.87004,-1.38127c1.60119,-0.20351 6.29316,-0.03757 6.29316,-0.03757" fill="none" stroke-linecap="round"/><path d="M204.81735,157.77429c0.15141,-2.83092 2.56905,-5.00309 5.39997,-4.85168c2.83092,0.15141 5.00309,2.56905 4.85168,5.39997c-0.15141,2.83092 -2.56905,5.00309 -5.39997,4.85168c-2.83092,-0.15141 -5.00309,-2.56905 -4.85168,-5.39997z" fill="#e80000" stroke-linecap="butt"/><path d="M225.52143,160.0836c0,-9.17193 7.43532,-16.60724 16.60724,-16.60724c9.17193,0 16.60724,7.43532 16.60724,16.60724c0,9.17193 -7.43532,16.60724 -16.60724,16.60724c-9.17193,0 -16.60724,-7.43532 -16.60724,-16.60724z" fill="#e80000" stroke-linecap="butt"/><path d="M236.53079,205.25582l0.48617,-25.56047l7.84928,0.1493l-0.48617,25.56047z" fill="#e80000" stroke-linecap="butt"/><path d="M221.09244,184.50543c0,-2.11232 1.71238,-3.8247 3.8247,-3.8247c2.11232,0 3.8247,1.71238 3.8247,3.8247c0,2.11232 -1.71238,3.8247 -3.8247,3.8247c-2.11232,0 -3.8247,-1.71238 -3.8247,-3.8247z" fill="#e80000" stroke-linecap="butt"/><path d="M255.35666,195.40629c0,-2.11232 1.71238,-3.8247 3.8247,-3.8247c2.11232,0 3.8247,1.71238 3.8247,3.8247c0,2.11232 -1.71238,3.8247 -3.8247,3.8247c-2.11232,0 -3.8247,-1.71238 -3.8247,-3.8247z" fill="#e80000" stroke-linecap="butt"/><path d="M260.81984,207.23667c4.7031,1.53507 5.20302,4.49497 4.18539,7.61276c-1.01763,3.11779 -5.6552,4.40083 -10.35831,2.86576c-4.7031,-1.53507 -8.25291,-3.58469 -7.23527,-6.70247c0.39303,-1.20414 5.64326,-6.31049 13.40819,-3.77604z" data-paper-data="{&quot;index&quot;:null}" fill="#e80000" stroke-linecap="butt"/><path d="M224.44568,158.60658l-1.3957,-5.42329l32.34602,-8.32434l1.3957,5.42328z" fill="#ff2121" stroke-linecap="butt"/><path d="M244.74511,230.68859c1.82115,4.59989 -0.13782,6.87439 -3.18719,8.08167c-3.04937,1.20728 -6.9977,-1.54297 -8.81886,-6.14287c-1.82115,-4.59989 -2.50997,-8.64063 0.5394,-9.84791c1.17772,-0.46627 8.45989,0.31457 11.46665,7.90911z" data-paper-data="{&quot;index&quot;:null}" fill="#e80000" stroke-linecap="butt"/></g></g></svg>