<svg version="1.1" xmlns="http://www.w3.org/2000/svg" xmlns:xlink="http://www.w3.org/1999/xlink" width="84.9282" height="73.66981" viewBox="0,0,84.9282,73.66981"><g transform="translate(-214.0421,-153.14816)"><g data-paper-data="{&quot;isPaintingLayer&quot;:true}" fill-rule="nonzero" stroke="#000000" stroke-width="2" stroke-linejoin="miter" stroke-miterlimit="10" stroke-dasharray="" stroke-dashoffset="0" style="mix-blend-mode: normal"><path d="M219.34649,183.25479c0,-2.11232 1.71238,-3.8247 3.8247,-3.8247c2.11232,0 3.8247,1.71238 3.8247,3.8247c0,2.11232 -1.71238,3.8247 -3.8247,3.8247c-2.11232,0 -3.8247,-1.71238 -3.8247,-3.8247z" fill="#181818" stroke-linecap="butt"/><path d="M241.81425,159.23295c0,0 3.03258,-0.42877 5.05791,-0.20708c1.60449,0.17563 6.1283,1.43152 6.1283,1.43152" fill="#181818" stroke-linecap="round"/><path d="M231.30492,158.01121c0.80763,-2.71748 3.66528,-4.26576 6.38278,-3.45812c2.71748,0.80763 4.26576,3.66528 3.45812,6.38278c-0.80763,2.71748 -3.66528,4.26576 -6.38278,3.45812c-2.71748,-0.80763 -4.26576,-3.66528 -3.45812,-6.38278z" fill="#181818" stroke-linecap="butt"/><path d="M250.54834,173.2763c0.54216,-9.15589 8.40399,-16.13869 17.55988,-15.59652c9.15589,0.54216 16.13869,8.40399 15.59652,17.55988c-0.54216,9.15589 -8.40399,16.13869 -17.55988,15.59652c-9.15589,-0.54216 -16.13869,-8.40399 -15.59652,-17.55988z" fill="#181818" stroke-linecap="butt"/><path d="M239.32363,208.20942l12.08838,-22.52654l6.91759,3.71219l-12.08838,22.52654z" fill="#181818" stroke-linecap="butt"/><path d="M222.4902,214.34387c4.11347,0 7.4481,2.47844 7.4481,5.53575c0,3.05731 -3.33463,5.53575 -7.4481,5.53575c-4.11347,0 -7.4481,-2.47844 -7.4481,-5.53575c0,-3.05731 3.33463,-5.53575 7.4481,-5.53575z" data-paper-data="{&quot;index&quot;:null}" fill="#181818" stroke-linecap="butt"/><path d="M267.55994,213.94127c4.94728,0 6.34095,2.65869 6.34095,5.93835c0,3.27966 -4.01056,5.93835 -8.95785,5.93835c-4.94728,0 -8.95785,-0.84699 -8.95785,-4.12665c0,-1.26666 3.40667,-7.75005 11.57475,-7.75005z" data-paper-data="{&quot;index&quot;:null}" fill="#181818" stroke-linecap="butt"/><path d="M265.56548,185.59181l0.31002,-5.23557l18.21328,1.0785l-0.31002,5.23557z" fill="#ff0000" stroke-linecap="butt"/><path d="M249.45534,180.79733l12.22274,9.72714l-5.46633,3.23364l1.28829,8.31902l-15.2778,-9.40254l6.4309,-4.08224z" fill="#0e0e0e" stroke-linecap="round"/><g><g><path d="M250.47728,172.58157l3.21431,-15.06514c0,0 11.03762,4.81062 16.67149,6.01267c5.91606,1.26225 18.01968,1.38907 18.01968,1.38907l-3.21431,15.06514c0,0 -12.12224,-0.8324 -17.8765,-2.06013c-5.80894,-1.2394 -16.81466,-5.34161 -16.81466,-5.34161z" fill="#343434" stroke-linecap="butt"/><path d="M297.9703,181.66231c0,0 -19.84617,-1.07717 -29.7388,-3.18786c-10.05967,-2.14633 -30.12649,-9.58505 -30.12649,-9.58505" fill="none" stroke-linecap="round"/></g><path d="M289.04443,163.50672c-0.49422,2.31635 -8.74167,2.51991 -18.42121,0.45468c-9.67954,-2.06523 -17.1257,-5.6172 -16.63148,-7.93355c0.49422,-2.31635 8.74167,-2.51991 18.4212,-0.45468c9.67954,2.06523 17.12571,5.61721 16.63149,7.93355z" fill="#252525" stroke-linecap="butt"/></g><path d="M241.16973,194.91486c0,-2.11232 1.71238,-3.8247 3.8247,-3.8247c2.11232,0 3.8247,1.71238 3.8247,3.8247c0,2.11232 -1.71238,3.8247 -3.8247,3.8247c-2.11232,0 -3.8247,-1.71238 -3.8247,-3.8247z" fill="#181818" stroke-linecap="butt"/></g></g></svg>