<svg version="1.1" xmlns="http://www.w3.org/2000/svg" xmlns:xlink="http://www.w3.org/1999/xlink" width="93.84391" height="82.69272" viewBox="0,0,93.84391,82.69272"><defs><linearGradient x1="230.19496" y1="165.10641" x2="253.15858" y2="184.66363" gradientUnits="userSpaceOnUse" id="color-1"><stop offset="0" stop-color="#e80000" stop-opacity="0"/><stop offset="1" stop-color="#e80000"/></linearGradient><linearGradient x1="292.34447" y1="199.31028" x2="284.04226" y2="170.31225" gradientUnits="userSpaceOnUse" id="color-2"><stop offset="0" stop-color="#e80000" stop-opacity="0"/><stop offset="1" stop-color="#e80000"/></linearGradient></defs><g transform="translate(-216.24508,-143.13121)"><g data-paper-data="{&quot;isPaintingLayer&quot;:true}" fill-rule="nonzero" stroke="#000000" stroke-linejoin="miter" stroke-miterlimit="10" stroke-dasharray="" stroke-dashoffset="0" style="mix-blend-mode: normal"><path d="M236.11771,195.40295c-2.00966,-0.65056 -3.11142,-2.80709 -2.46086,-4.81673c0.65056,-2.00966 2.80709,-3.11142 4.81673,-2.46086c2.00966,0.65056 3.11142,2.80709 2.46086,4.81673c-0.65056,2.00966 -2.80709,3.11142 -4.81673,2.46086z" data-paper-data="{&quot;index&quot;:null}" fill="#e80000" stroke-width="2" stroke-linecap="butt"/><path d="M241.0691,198.23625c-6.61934,5.56377 -10.77362,1.06122 -13.1884,-6.0655c-2.41479,-7.12671 -0.74288,-16.13991 2.38429,-25.82068c4.65845,-14.42119 23.745,-16.47619 23.745,-16.47619c0,0 -11.89952,10.49348 -11.3873,24.57511c0.45893,12.61703 5.06578,18.22349 -1.55358,23.78727z" data-paper-data="{&quot;index&quot;:null}" fill="url(#color-1)" stroke-width="0" stroke-linecap="butt"/><path d="M240.55874,158.99368c0.96437,-9.12109 9.14024,-15.73342 18.26132,-14.76906c9.12109,0.96437 15.73342,9.14024 14.76906,18.26132c-0.96437,9.12109 -9.14024,15.73342 -18.26132,14.76906c-9.12109,-0.96437 -15.73342,-9.14024 -14.76906,-18.26132z" fill="#e80000" stroke-width="2" stroke-linecap="butt"/><path d="M239.78218,205.57708l8.22095,-24.20722l7.43371,2.52455l-8.22095,24.20722z" fill="#e80000" stroke-width="2" stroke-linecap="butt"/><path d="M224.69319,213.75243c4.11347,0 7.4481,2.47844 7.4481,5.53575c0,3.05731 -3.33463,5.53575 -7.4481,5.53575c-4.11347,0 -7.4481,-2.47844 -7.4481,-5.53575c0,-3.05731 3.33463,-5.53575 7.4481,-5.53575z" data-paper-data="{&quot;index&quot;:null}" fill="#e80000" stroke-width="2" stroke-linecap="butt"/><path d="M268.80589,212.1491c4.90323,-0.6587 6.63848,1.79077 7.07515,5.04123c0.43666,3.25046 -3.1842,6.41946 -8.08745,7.07816c-4.90323,0.6587 -8.99087,0.35323 -9.42753,-2.89723c-0.16865,-1.25538 2.34447,-8.13462 10.43983,-9.22215z" data-paper-data="{&quot;index&quot;:null}" fill="#e80000" stroke-width="2" stroke-linecap="butt"/><path d="M239.64425,157.41174l-0.81774,-5.53998l33.04197,-4.87724l0.81774,5.53997z" fill="#ff2121" stroke-width="2" stroke-linecap="butt"/><path d="M240.06544,150.46693c0,0 3.06033,-0.12102 5.05303,0.3036c1.57863,0.33641 5.95286,2.04173 5.95286,2.04173" fill="none" stroke-width="2" stroke-linecap="round"/><path d="M228.97559,148.22479c1.07733,-2.62228 4.07645,-3.87472 6.69873,-2.7974c2.62228,1.07733 3.87472,4.07645 2.7974,6.69873c-1.07733,2.62228 -4.07645,3.87472 -6.69873,2.7974c-2.62228,-1.07733 -3.87472,-4.07645 -2.7974,-6.69873z" fill="#e80000" stroke-width="2" stroke-linecap="butt"/><path d="M305.27619,171.18881c1.31377,1.65408 1.03788,4.05999 -0.61618,5.37374c-1.65408,1.31377 -4.05999,1.03788 -5.37374,-0.61618c-1.31377,-1.65408 -1.03788,-4.05999 0.61618,-5.37374c1.65408,-1.31377 4.05999,-1.03788 5.37374,0.61618z" data-paper-data="{&quot;index&quot;:null}" fill="#e80000" stroke-width="2" stroke-linecap="butt"/><path d="M301.62311,165.69868c8.5924,-0.97054 9.56052,5.07874 7.6275,12.35093c-1.933,7.27219 -8.31383,13.85384 -16.27618,20.18609c-11.8613,9.433 -28.89554,0.58121 -28.89554,0.58121c0,0 15.71851,-2.15413 23.0853,-14.166c6.6006,-10.76253 5.86649,-17.98171 14.45891,-18.95225z" data-paper-data="{&quot;index&quot;:null}" fill="url(#color-2)" stroke-width="0" stroke-linecap="butt"/></g></g></svg>