<svg version="1.1" xmlns="http://www.w3.org/2000/svg" xmlns:xlink="http://www.w3.org/1999/xlink" width="84.54703" height="82.12597" viewBox="0,0,84.54703,82.12597"><g transform="translate(-163.56513,-144.55645)"><g data-paper-data="{&quot;isPaintingLayer&quot;:true}" fill-rule="nonzero" stroke-linejoin="miter" stroke-miterlimit="10" stroke-dasharray="" stroke-dashoffset="0" style="mix-blend-mode: normal"><path d="M211.39528,205.66524l-3.31378,-25.34941l7.78447,-1.01762l3.31378,25.34941z" fill="#2d6a2b" stroke="#000000" stroke-width="2" stroke-linecap="butt"/><path d="M200.05688,191.58815c0,-2.11232 1.71238,-3.8247 3.8247,-3.8247c2.11232,0 3.8247,1.71238 3.8247,3.8247c0,2.11232 -1.71238,3.8247 -3.8247,3.8247c-2.11232,0 -3.8247,-1.71238 -3.8247,-3.8247z" fill="#2d6a2b" stroke="#000000" stroke-width="2" stroke-linecap="butt"/><path d="M225.96984,192.61812c0,-2.11232 1.71238,-3.8247 3.8247,-3.8247c2.11232,0 3.8247,1.71238 3.8247,3.8247c0,2.11232 -1.71238,3.8247 -3.8247,3.8247c-2.11232,0 -3.8247,-1.71238 -3.8247,-3.8247z" fill="#2d6a2b" stroke="#000000" stroke-width="2" stroke-linecap="butt"/><path d="M233.59639,208.99767c3.80732,3.1591 3.18214,6.0951 1.0879,8.61906c-2.09424,2.52395 -6.8784,2.00906 -10.68571,-1.15004c-3.80732,-3.1591 -6.35291,-6.37189 -4.25867,-8.89584c0.80883,-0.97479 7.57052,-3.78892 13.85649,1.42683z" data-paper-data="{&quot;index&quot;:null}" fill="#2d6a2b" stroke="#000000" stroke-width="2" stroke-linecap="butt"/><path d="M220.59048,214.61091c4.11347,0 7.4481,2.47844 7.4481,5.53575c0,3.05731 -3.33463,5.53575 -7.4481,5.53575c-4.11347,0 -7.4481,-2.47844 -7.4481,-5.53575c0,-3.05731 3.33463,-5.53575 7.4481,-5.53575z" data-paper-data="{&quot;index&quot;:null}" fill="#2d6a2b" stroke="#000000" stroke-width="2" stroke-linecap="butt"/><path d="M209.61273,164.1015c2.25793,-8.88966 11.29484,-14.26573 20.18448,-12.00781c8.88966,2.25793 14.26573,11.29484 12.00781,20.18448c-2.25793,8.88966 -11.29484,14.26573 -20.18448,12.00781c-8.88966,-2.25793 -14.26573,-11.29484 -12.00781,-20.18448z" fill="#2d6a2b" stroke="#000000" stroke-width="2" stroke-linecap="butt"/><path d="M222.79539,148.48487c15.75281,-1.72958 23.56012,9.1485 23.56012,9.1485l-40.47766,6.4541c0,0 -0.01929,-13.74301 16.91754,-15.6026z" fill="#367e33" stroke="#000000" stroke-width="2" stroke-linecap="round"/><path d="M202.96551,150.24655c0,0 3.01293,-0.55014 5.04552,-0.40991c1.61025,0.11109 6.1808,1.18442 6.1808,1.18442" fill="none" stroke="#000000" stroke-width="2" stroke-linecap="round"/><path d="M192.78905,149.42715c0.69791,-2.74771 3.49113,-4.40941 6.23884,-3.7115c2.74771,0.69791 4.40941,3.49113 3.7115,6.23884c-0.69791,2.74771 -3.49113,4.40941 -6.23884,3.7115c-2.74771,-0.69791 -4.40941,-3.49113 -3.7115,-6.23884z" fill="#2d6a2b" stroke="#000000" stroke-width="2" stroke-linecap="butt"/><g stroke="#61ff00" stroke-width="3" stroke-linecap="round"><path d="M231.26231,192.32892c0,0 -26.07606,0.49533 -37.64109,0.04073c-10.37014,-0.40763 -28.55609,-2.64287 -28.55609,-2.64287" fill="none"/><path d="M207.79262,191.64376c0,0 -11.33927,-4.03769 -12.34928,-8.61704c-1.00999,-4.57935 3.31495,-5.19096 3.31495,-5.19096z" fill="#61ff00"/><path d="M177.05403,201.72257c0,0 -3.35785,-2.79358 -0.09163,-6.15844c3.26622,-3.36486 15.03506,-0.83966 15.03506,-0.83966z" data-paper-data="{&quot;index&quot;:null}" fill="#61ff00"/><path d="M209.89797,199.85224c0,0 -2.81629,-2.3783 -0.03909,-5.1976c2.77721,-2.8193 12.69309,-0.61525 12.69309,-0.61525z" data-paper-data="{&quot;index&quot;:null}" fill="#61ff00"/></g></g></g></svg>