<svg version="1.1" xmlns="http://www.w3.org/2000/svg" xmlns:xlink="http://www.w3.org/1999/xlink" width="66.53947" height="62.25397" viewBox="0,0,66.53947,62.25397"><g transform="translate(-211.09292,-158.0051)"><g data-paper-data="{&quot;isPaintingLayer&quot;:true}" fill-rule="nonzero" stroke="#000000" stroke-width="2" stroke-linejoin="miter" stroke-miterlimit="10" stroke-dasharray="" stroke-dashoffset="0" style="mix-blend-mode: normal"><path d="M237.26683,205.87774l-1.98244,-25.48811l7.82706,-0.60878l1.98244,25.48811z" fill="#181818" stroke-linecap="butt"/><path d="M223.37727,204.82546c4.0026,-0.94862 8.01311,1.51344 8.95774,5.49917c0.94463,3.98573 -1.53435,7.98582 -5.53695,8.93444c-4.0026,0.94862 -8.01311,-1.51345 -8.95773,-5.49918c-0.94463,-3.98573 1.53435,-7.98581 5.53694,-8.93443z" data-paper-data="{&quot;index&quot;:null}" fill="#181818" stroke-linecap="butt"/><path d="M260.16181,205.36634c4.83132,-1.06485 6.76457,1.23155 7.47049,4.43434c0.70592,3.20279 -2.63839,6.6624 -7.46972,7.72725c-4.83132,1.06485 -8.93019,1.10094 -9.6361,-2.10184c-0.27264,-1.23697 1.6587,-8.30165 9.63533,-10.05974z" data-paper-data="{&quot;index&quot;:null}" fill="#181818" stroke-linecap="butt"/><path d="M234.12443,178.41074l14.42305,0.30197l-3.74625,4.22758l4.12087,4.22758l-17.04542,1.20788l4.30818,-5.13349z" fill="#0e0e0e" stroke-linecap="round"/><path d="M241.46312,199.15926c0,-2.11232 1.71238,-3.8247 3.8247,-3.8247c2.11232,0 3.8247,1.71238 3.8247,3.8247c0,2.11232 -1.71238,3.8247 -3.8247,3.8247c-2.11232,0 -3.8247,-1.71238 -3.8247,-3.8247z" fill="#181818" stroke-linecap="butt"/><path d="M222.39853,164.63451c0,0 3.06155,-0.08545 5.04916,0.36231c1.57461,0.35473 5.92874,2.11077 5.92874,2.11077" fill="#181818" stroke-linecap="round"/><path d="M212.09292,162.24014c1.10773,-2.60958 4.1212,-3.82711 6.73079,-2.71936c2.60958,1.10773 3.82711,4.1212 2.71936,6.73079c-1.10773,2.60958 -4.1212,3.82711 -6.73079,2.71936c-2.60958,-1.10773 -3.82711,-4.1212 -2.71936,-6.73079z" fill="#000000" stroke-linecap="butt"/><path d="M230.90686,176.0052c0.67796,-9.14684 8.64253,-16.01222 17.78936,-15.33426c9.14684,0.67796 16.01222,8.64253 15.33426,17.78936c-0.67796,9.14684 -8.64253,16.01222 -17.78936,15.33426c-9.14684,-0.67796 -16.01222,-8.64253 -15.33426,-17.78936z" fill="#181818" stroke-linecap="butt"/><path d="M244.76707,189.4889l-0.25703,-5.23844c0,0 6.45476,1.8804 9.35406,1.73814c3.45916,-0.16972 10.01941,-2.68871 10.01941,-2.68871l0.25703,5.23844z" fill="#660000" stroke-linecap="butt"/><g><g><path d="M231.09762,179.71646l-0.61438,-14.52266c0,0 11.21903,1.79357 16.65003,1.56381c5.70303,-0.24127 16.79195,-2.97857 16.79195,-2.97857l0.61438,14.52266c0,0 -11.27226,2.097 -16.81932,2.33167c-5.59976,0.2369 -16.62266,-0.91692 -16.62266,-0.91692z" fill="#343434" stroke-linecap="butt"/><path d="M276.63239,176.81804c0,0 -18.38729,3.69409 -27.92369,4.09754c-9.69743,0.41026 -29.78591,-1.65615 -29.78591,-1.65615" fill="none" stroke-linecap="round"/></g><path d="M264.19707,162.33343c0.09447,2.23294 -7.39321,4.36309 -16.7242,4.75784c-9.33099,0.39475 -16.97181,-1.0954 -17.06628,-3.32834c-0.09447,-2.23294 7.39321,-4.36309 16.7242,-4.75783c9.33099,-0.39475 16.97182,1.0954 17.06629,3.32834z" fill="#252525" stroke-linecap="butt"/></g><path d="M233.62039,199.55789c0,-2.11232 1.71238,-3.8247 3.8247,-3.8247c2.11232,0 3.8247,1.71238 3.8247,3.8247c0,2.11232 -1.71238,3.8247 -3.8247,3.8247c-2.11232,0 -3.8247,-1.71238 -3.8247,-3.8247z" fill="#181818" stroke-linecap="butt"/></g></g></svg>