<svg version="1.1" xmlns="http://www.w3.org/2000/svg" xmlns:xlink="http://www.w3.org/1999/xlink" width="97.926" height="83.7885" viewBox="0,0,97.926,83.7885"><defs><linearGradient x1="170.55683" y1="162.57041" x2="194.67213" y2="180.68849" gradientUnits="userSpaceOnUse" id="color-1"><stop offset="0" stop-color="#e80000" stop-opacity="0"/><stop offset="1" stop-color="#e80000"/></linearGradient><linearGradient x1="255.35163" y1="161.02174" x2="231.08216" y2="178.93279" gradientUnits="userSpaceOnUse" id="color-2"><stop offset="0" stop-color="#e80000" stop-opacity="0"/><stop offset="1" stop-color="#e80000"/></linearGradient></defs><g transform="translate(-168.22286,-142.03543)"><g data-paper-data="{&quot;isPaintingLayer&quot;:true}" fill-rule="nonzero" stroke="#000000" stroke-linejoin="miter" stroke-miterlimit="10" stroke-dasharray="" stroke-dashoffset="0" style="mix-blend-mode: normal"><path d="M204.35519,158.11419c3.16454,-8.60872 12.70864,-13.02209 21.31735,-9.85756c8.60872,3.16454 13.02209,12.70864 9.85756,21.31735c-3.16454,8.60872 -12.70864,13.02209 -21.31735,9.85756c-8.60872,-3.16454 -13.02209,-12.70864 -9.85756,-21.31735z" fill="#e80000" stroke-width="2" stroke-linecap="butt"/><path d="M203.8551,156.35671l0.56117,-5.57182l33.23187,3.34698l-0.56117,5.57181z" fill="#ff2121" stroke-width="2" stroke-linecap="butt"/><path d="M227.13837,205.91233l-11.77851,-22.69009l6.96783,-3.61701l11.77851,22.69009z" fill="#e80000" stroke-width="2" stroke-linecap="butt"/><path d="M205.961,149.7255c0,0 2.99709,0.63067 4.82555,1.52948c1.44852,0.71206 5.27325,3.43483 5.27325,3.43483" fill="none" stroke-width="2" stroke-linecap="round"/><path d="M196.85099,145.11686c1.6856,-2.27942 4.89988,-2.76081 7.1793,-1.07521c2.27942,1.6856 2.76081,4.89988 1.07521,7.1793c-1.6856,2.27942 -4.89988,2.76081 -7.1793,1.07521c-2.27942,-1.6856 -2.76081,-4.89988 -1.07521,-7.1793z" fill="#e80000" stroke-width="2" stroke-linecap="butt"/><path d="M177.46435,192.79238c-2.00912,-0.65217 -3.10915,-2.80958 -2.45698,-4.8187c0.65217,-2.00912 2.80958,-3.10915 4.8187,-2.45698c2.00912,0.65217 3.10915,2.80958 2.45698,4.8187c-0.65217,2.00912 -2.80958,3.10915 -4.8187,2.45698z" data-paper-data="{&quot;index&quot;:null}" fill="#e80000" stroke-width="2" stroke-linecap="butt"/><path d="M224.69316,213.75243c4.11347,0 7.4481,2.47844 7.4481,5.53575c0,3.05731 -3.33463,5.53575 -7.4481,5.53575c-4.11347,0 -7.4481,-2.47844 -7.4481,-5.53575c0,-3.05731 3.33463,-5.53575 7.4481,-5.53575z" data-paper-data="{&quot;index&quot;:null}" fill="#e80000" stroke-width="2" stroke-linecap="butt"/><path d="M258.07371,211.0194c4.90323,-0.6587 6.63848,1.79077 7.07515,5.04123c0.43666,3.25046 -3.1842,6.41946 -8.08745,7.07816c-4.90323,0.6587 -8.99087,0.35323 -9.42753,-2.89723c-0.16865,-1.25538 2.34447,-8.13462 10.43983,-9.22215z" data-paper-data="{&quot;index&quot;:null}" fill="#e80000" stroke-width="2" stroke-linecap="butt"/><path d="M183.43426,194.9742c-6.26713,5.95769 -10.68869,1.71729 -13.53426,-5.24862c-2.84557,-6.96591 -1.72733,-16.0644 0.8027,-25.9181c3.76891,-14.67882 22.6943,-17.89578 22.6943,-17.89578c0,0 -11.23636,11.20071 -9.86499,25.22476c1.22871,12.56543 6.1694,17.88005 -0.09774,23.83775z" data-paper-data="{&quot;index&quot;:null}" fill="url(#color-1)" stroke-width="0" stroke-linecap="butt"/><path d="M243.65293,190.54791c-0.50907,-2.05007 0.74016,-4.12465 2.79022,-4.63372c2.05007,-0.50907 4.12465,0.74016 4.63372,2.79022c0.50907,2.05007 -0.74016,4.12465 -2.79022,4.63372c-2.05007,0.50907 -4.12465,-0.74016 -4.63372,-2.79022z" fill="#e80000" stroke-width="2" stroke-linecap="butt"/><path d="M242.19737,193.31415c-6.21595,-6.01111 -1.22996,-11.28325 0.10625,-23.83772c1.49133,-14.0118 -9.64876,-25.30826 -9.64876,-25.30826c0,0 18.89717,3.3788 22.54032,18.08933c2.44561,9.87499 3.48597,18.98272 0.58087,25.92402c-2.90508,6.94131 -7.36276,11.14371 -13.57868,5.13261z" data-paper-data="{&quot;index&quot;:null}" fill="url(#color-2)" stroke-width="0" stroke-linecap="butt"/></g></g></svg>