<svg version="1.1" xmlns="http://www.w3.org/2000/svg" xmlns:xlink="http://www.w3.org/1999/xlink" width="128.47722" height="72.44846" viewBox="0,0,128.47722,72.44846"><g transform="translate(-220.95729,-154.40653)"><g data-paper-data="{&quot;isPaintingLayer&quot;:true}" fill-rule="nonzero" stroke="#000000" stroke-width="2" stroke-linejoin="miter" stroke-miterlimit="10" stroke-dasharray="" stroke-dashoffset="0" style="mix-blend-mode: normal"><path d="M279.92683,196.90062c0,-2.11232 1.71238,-3.8247 3.8247,-3.8247c2.11232,0 3.8247,1.71238 3.8247,3.8247c0,2.11232 -1.71238,3.8247 -3.8247,3.8247c-2.11232,0 -3.8247,-1.71238 -3.8247,-3.8247z" fill="#1d28e8" stroke-linecap="butt"/><path d="M226.94522,217.18284l3.2413,-25.35878l7.78735,0.99536l-3.2413,25.35878z" fill="#1d28e8" stroke-linecap="butt"/><path d="M221.9573,212.07462c0,-2.11232 1.71238,-3.8247 3.8247,-3.8247c2.11232,0 3.8247,1.71238 3.8247,3.8247c0,2.11232 -1.71238,3.8247 -3.8247,3.8247c-2.11232,0 -3.8247,-1.71238 -3.8247,-3.8247z" fill="#1d28e8" stroke-linecap="butt"/><path d="M252.85705,213.80053c4.92982,-0.4153 6.54175,2.11702 6.81706,5.3851c0.27531,3.26808 -3.49791,6.25406 -8.42774,6.66936c-4.92982,0.4153 -8.99733,-0.09203 -9.27264,-3.36012c-0.10633,-1.26219 2.74407,-8.00867 10.88332,-8.69434z" data-paper-data="{&quot;index&quot;:null}" fill="#1d28e8" stroke-linecap="butt"/><path d="M235.26003,213.63831c4.91995,-0.51932 6.585,1.97839 6.92927,5.23993c0.34427,3.26154 -3.36505,6.32653 -8.28501,6.84585c-4.91995,0.51932 -8.99727,0.09799 -9.34154,-3.16355c-0.13296,-1.25966 2.57433,-8.06483 10.69728,-8.92223z" data-paper-data="{&quot;index&quot;:null}" fill="#1d28e8" stroke-linecap="butt"/><path d="M228.07056,181.98812c1.16287,-9.09791 9.48089,-15.53052 18.57879,-14.36765c9.09791,1.16287 15.53052,9.48089 14.36765,18.57879c-1.16287,9.09791 -9.48089,15.53052 -18.57879,14.36765c-9.09791,-1.16287 -15.53052,-9.48089 -14.36765,-18.57879z" fill="#1d28e8" stroke-linecap="butt"/><path d="M340.65543,181.52954c0,0 -1.29378,2.77605 -2.58377,4.35308c-1.02195,1.24934 -4.541,4.35712 -4.541,4.35712" fill="none" stroke-linecap="round"/><path d="M347.20962,173.70174c1.83787,2.15853 1.57794,5.39824 -0.58059,7.23611c-2.15853,1.83787 -5.39824,1.57794 -7.23611,-0.58059c-1.83787,-2.15853 -1.57794,-5.39824 0.58059,-7.23611c2.15853,-1.83787 5.39824,-1.57794 7.23611,0.58059z" fill="#1d28e8" stroke-linecap="butt"/><path d="M344.57117,210.60939l-38.94537,12.9779l0.06804,-28.50623l-20.44384,3.88714c0,0 28.57211,-1.80592 23.33884,-8.10847c-10.68314,-12.86596 -60.10639,-27.2221 -60.10639,-27.2221c0,0 34.20302,-14.06962 63.16054,-5.41929c34.58009,10.32994 32.92818,52.39105 32.92818,52.39105z" fill="#2530ff" stroke-linecap="round"/></g></g></svg>