<svg version="1.1" xmlns="http://www.w3.org/2000/svg" xmlns:xlink="http://www.w3.org/1999/xlink" width="64.77782" height="87.41985" viewBox="0,0,64.77782,87.41985"><g transform="translate(-213.2807,-138.99552)"><g data-paper-data="{&quot;isPaintingLayer&quot;:true}" fill-rule="nonzero" stroke="#000000" stroke-width="2" stroke-linejoin="miter" stroke-miterlimit="10" stroke-dasharray="" stroke-dashoffset="0" style="mix-blend-mode: normal"><path d="M258.27722,183.20922c0,-2.11232 1.71238,-3.8247 3.8247,-3.8247c2.11232,0 3.8247,1.71238 3.8247,3.8247c0,2.11232 -1.71238,3.8247 -3.8247,3.8247c-2.11232,0 -3.8247,-1.71238 -3.8247,-3.8247z" fill="#181818" stroke-linecap="butt"/><path d="M232.74396,206.91547c0,-2.11232 1.71238,-3.8247 3.8247,-3.8247c2.11232,0 3.8247,1.71238 3.8247,3.8247c0,2.11232 -1.71238,3.8247 -3.8247,3.8247c-2.11232,0 -3.8247,-1.71238 -3.8247,-3.8247z" fill="#181818" stroke-linecap="butt"/><path d="M224.84363,150.36134c0,0 2.91378,-0.94355 4.94707,-1.07322c1.6108,-0.10272 6.28314,0.35705 6.28314,0.35705" fill="#181818" stroke-linecap="round"/><path d="M214.2807,150.96387c0.3286,-2.81585 2.87766,-4.83219 5.69352,-4.50358c2.81585,0.3286 4.83219,2.87766 4.50358,5.69352c-0.3286,2.81585 -2.87766,4.83219 -5.69352,4.50358c-2.81585,-0.3286 -4.83219,-2.87766 -4.50358,-5.69352z" fill="#181818" stroke-linecap="butt"/><path d="M235.8612,162.69476c-1.03939,-9.11284 5.50545,-17.34285 14.61828,-18.38224c9.11284,-1.03939 17.34285,5.50545 18.38224,14.61828c1.03939,9.11284 -5.50545,17.34285 -14.61828,18.38224c-9.11284,1.03939 -17.34285,-5.50545 -18.38224,-14.61828z" fill="#181818" stroke-linecap="butt"/><path d="M238.50288,204.50822l4.00465,-25.24949l7.75378,1.22978l-4.00465,25.24949z" fill="#181818" stroke-linecap="butt"/><path d="M228.5361,214.34387c4.11347,0 7.4481,2.47844 7.4481,5.53575c0,3.05731 -3.33463,5.53575 -7.4481,5.53575c-4.11347,0 -7.4481,-2.47844 -7.4481,-5.53575c0,-3.05731 3.33463,-5.53575 7.4481,-5.53575z" data-paper-data="{&quot;index&quot;:null}" fill="#181818" stroke-linecap="butt"/><path d="M259.78664,213.07757c4.94728,0 6.34095,2.65869 6.34095,5.93835c0,3.27966 -4.01056,5.93835 -8.95785,5.93835c-4.94728,0 -8.95785,-0.84699 -8.95785,-4.12665c0,-1.26666 3.40667,-7.75005 11.57475,-7.75005z" data-paper-data="{&quot;index&quot;:null}" fill="#181818" stroke-linecap="butt"/><path d="M258.46955,163.77266l-0.59435,-5.21095l13.83696,-1.57821l0.59435,5.21095z" fill="#ff0000" stroke-linecap="butt"/><path d="M240.65086,177.3078l14.19769,2.55755l-4.36223,3.58856l3.40777,4.82091l-17.0242,-1.47712l5.05913,-4.39526z" fill="#0e0e0e" stroke-linecap="round"/><g><path d="M236.93412,155.44568l-1.36701,-11.98521l29.44191,-3.35807l1.36701,11.98521z" fill="#343434" stroke-linecap="butt"/><path d="M277.05852,150.86919l-50.80685,5.7949" fill="none" stroke-linecap="round"/></g></g></g></svg>