<svg version="1.1" xmlns="http://www.w3.org/2000/svg" xmlns:xlink="http://www.w3.org/1999/xlink" width="154.72794" height="66.06549" viewBox="0,0,154.72794,66.06549"><g transform="translate(-164.3681,-150.73467)"><g data-paper-data="{&quot;isPaintingLayer&quot;:true}" fill-rule="nonzero" stroke-linejoin="miter" stroke-miterlimit="10" stroke-dasharray="" stroke-dashoffset="0" style="mix-blend-mode: normal"><path d="M221.03176,216.80016l3.98519,-19.1484l-29.66763,18.2185l4.18899,-19.49667l-30.0034,12.04614l-5.16682,-32.01072l51.26053,-6.63759l-4.22302,13.60784l32.53173,-14.33883l-6.02074,15.81375l40.55987,-13.07489l-5.99556,10.47806l46.61514,-13.0593l-62.80328,37.31546l5.09589,-14.14929l-40.35689,24.43594" data-paper-data="{&quot;index&quot;:null}" fill="#fff200" stroke="none" stroke-width="0.66342" stroke-linecap="butt"/><path d="M224.18994,191.83758c-1.7144,1.23399 -4.10455,0.84454 -5.33854,-0.86986c-1.23399,-1.7144 -0.84454,-4.10455 0.86986,-5.33854c1.7144,-1.23399 4.10455,-0.84454 5.33854,0.86986c1.23399,1.7144 0.84454,4.10455 -0.86986,5.33854z" data-paper-data="{&quot;index&quot;:null}" fill="#ffe819" stroke="#000000" stroke-width="2" stroke-linecap="butt"/><path d="M256.09993,169.94957c3.81813,-8.33943 13.67379,-12.00467 22.01321,-8.18654c8.33943,3.81813 12.00467,13.67379 8.18654,22.01321c-3.81813,8.33943 -13.67379,12.00467 -22.01321,8.18654c-8.33943,-3.81813 -12.00467,-13.67379 -8.18654,-22.01321z" fill="#ffe819" stroke="#000000" stroke-width="2" stroke-linecap="butt"/><path d="M223.59768,190.21675l25.40116,-2.89048l0.88763,7.80036l-25.40116,2.89048z" fill="#ffe819" stroke="#000000" stroke-width="2" stroke-linecap="butt"/><path d="M224.02309,201.33214c-1.7144,1.23399 -4.10455,0.84454 -5.33854,-0.86986c-1.23399,-1.7144 -0.84454,-4.10455 0.86986,-5.33854c1.7144,-1.23399 4.10455,-0.84454 5.33854,0.86986c1.23399,1.7144 0.84454,4.10455 -0.86986,5.33854z" data-paper-data="{&quot;index&quot;:null}" fill="#ffe819" stroke="#000000" stroke-width="2" stroke-linecap="butt"/><path d="M244.81851,159.06346c0,0 2.83952,-1.14782 4.8585,-1.42134c1.59946,-0.21669 6.29263,-0.0894 6.29263,-0.0894" fill="none" stroke="#000000" stroke-width="2" stroke-linecap="round"/><path d="M234.68648,160.31804c0.12808,-2.83207 2.52775,-5.02408 5.35982,-4.896c2.83207,0.12808 5.02408,2.52775 4.896,5.35982c-0.12808,2.83207 -2.52775,5.02408 -5.35982,4.896c-2.83207,-0.12808 -5.02408,-2.52775 -4.896,-5.35982z" fill="#ffe819" stroke="#000000" stroke-width="2" stroke-linecap="butt"/><path d="M190.57279,182.35326c-3.06696,-3.88193 -1.84476,-6.62368 0.72864,-8.65683c2.57342,-2.03315 7.14583,-0.53443 10.2128,3.3475c3.06696,3.88193 4.88862,7.55392 2.3152,9.58708c-0.9939,0.78524 -8.19303,2.1314 -13.25666,-4.27776z" data-paper-data="{&quot;index&quot;:null}" fill="#ffe819" stroke="#000000" stroke-width="2" stroke-linecap="butt"/><path d="M252.00165,168.02144l8.74721,-7.34388l-9.8422,-6.24531c0,0 17.25294,-5.07836 27.17532,-1.29941c9.92238,3.77895 12.9354,16.57561 12.9354,16.57561z" data-paper-data="{&quot;index&quot;:null}" fill="#fff067" stroke="#000000" stroke-width="2" stroke-linecap="butt"/><path d="M191.9511,200.55299c-4.5473,-1.94875 -4.78102,-4.94146 -3.48916,-7.95596c1.29187,-3.01451 6.02545,-3.87847 10.57276,-1.92972c4.5473,1.94875 7.9,4.30704 6.60813,7.32155c-0.49894,1.16425 -6.18402,5.78157 -13.69173,2.56414z" data-paper-data="{&quot;index&quot;:null}" fill="#ffe819" stroke="#000000" stroke-width="2" stroke-linecap="butt"/></g></g></svg>