<svg version="1.1" xmlns="http://www.w3.org/2000/svg" xmlns:xlink="http://www.w3.org/1999/xlink" width="74.44677" height="123.62885" viewBox="0,0,74.44677,123.62885"><g transform="translate(-189.47662,-103.46066)"><g data-paper-data="{&quot;isPaintingLayer&quot;:true}" fill-rule="nonzero" stroke="#000000" stroke-width="2" stroke-linejoin="miter" stroke-miterlimit="10" stroke-dasharray="" stroke-dashoffset="0" style="mix-blend-mode: normal"><path d="M244.9524,192.26199c0,-2.11232 1.71238,-3.8247 3.8247,-3.8247c2.11232,0 3.8247,1.71238 3.8247,3.8247c0,2.11232 -1.71238,3.8247 -3.8247,3.8247c-2.11232,0 -3.8247,-1.71238 -3.8247,-3.8247z" fill="#ff6b00" stroke-linecap="butt"/><path d="M218.23384,157.9792c0,-9.17193 7.43532,-16.60724 16.60724,-16.60724c9.17193,0 16.60724,7.43532 16.60724,16.60724c0,9.17193 -7.43532,16.60724 -16.60724,16.60724c-9.17193,0 -16.60724,-7.43532 -16.60724,-16.60724z" fill="#ff6b00" stroke-linecap="butt"/><path d="M231.66471,206.4348l-2.13149,-25.47608l7.82337,-0.65455l2.13149,25.47608z" fill="#ff6b00" stroke-linecap="butt"/><path d="M241.2427,195.63204c0,-2.11232 1.71238,-3.8247 3.8247,-3.8247c2.11232,0 3.8247,1.71238 3.8247,3.8247c0,2.11232 -1.71238,3.8247 -3.8247,3.8247c-2.11232,0 -3.8247,-1.71238 -3.8247,-3.8247z" fill="#ff6b00" stroke-linecap="butt"/><path d="M223.59481,215.01801c4.11347,0 7.4481,2.47844 7.4481,5.53575c0,3.05731 -3.33463,5.53575 -7.4481,5.53575c-4.11347,0 -7.4481,-2.47844 -7.4481,-5.53575c0,-3.05731 3.33463,-5.53575 7.4481,-5.53575z" data-paper-data="{&quot;index&quot;:null}" fill="#ff6b00" stroke-linecap="butt"/><path d="M209.2961,155.87652c0,0 1.85948,-2.43366 3.45789,-3.69705c1.26628,-1.00088 5.37038,-3.28089 5.37038,-3.28089" fill="none" stroke-linecap="round"/><path d="M201.21451,162.11509c-1.33173,-2.5027 -0.38248,-5.61111 2.12022,-6.94284c2.5027,-1.33173 5.61111,-0.38248 6.94284,2.12022c1.33173,2.5027 0.38248,5.61111 -2.12022,6.94284c-2.5027,1.33173 -5.61111,0.38248 -6.94284,-2.12022z" fill="#ff6b00" stroke-linecap="butt"/><path d="M255.40104,212.51019c4.81841,-1.12184 6.77866,1.15156 7.52235,4.34579c0.74369,3.19423 -2.55951,6.69309 -7.37793,7.81495c-4.81841,1.12184 -8.91657,1.20636 -9.66026,-1.98787c-0.28722,-1.23366 1.56053,-8.32066 9.51583,-10.17286z" data-paper-data="{&quot;index&quot;:null}" fill="#ff6b00" stroke-linecap="butt"/><path d="M213.67304,161.3349l4.22817,-12.18351l-26.62972,-21.39582l41.5955,-22.71252l4.14025,33.37304l12.53391,2.91357z" data-paper-data="{&quot;index&quot;:null}" fill="#ffa340" stroke-linecap="butt"/></g></g></svg>