<svg version="1.1" xmlns="http://www.w3.org/2000/svg" xmlns:xlink="http://www.w3.org/1999/xlink" width="73.86822" height="57.94481" viewBox="0,0,73.86822,57.94481"><g transform="translate(-202.19351,-168.46583)"><g data-paper-data="{&quot;isPaintingLayer&quot;:true}" fill-rule="nonzero" stroke="#000000" stroke-width="2" stroke-linejoin="miter" stroke-miterlimit="10" stroke-dasharray="" stroke-dashoffset="0" style="mix-blend-mode: normal"><path d="M246.26952,193.05536l-14.18088,21.27148l-6.53219,-4.35476l14.18088,-21.27151z" fill="#e80000" stroke-linecap="butt"/><path d="M254.73171,215.72715c0,-2.11232 1.71238,-3.8247 3.8247,-3.8247c2.11232,0 3.8247,1.71238 3.8247,3.8247c0,2.11232 -1.71238,3.8247 -3.8247,3.8247c-2.11232,0 -3.8247,-1.71238 -3.8247,-3.8247z" fill="#e80000" stroke-linecap="butt"/><path d="M210.01543,211.95064c-4.92944,0.41976 -6.54366,-2.11109 -6.82192,-5.37892c-0.27826,-3.26784 3.49226,-6.2572 8.4217,-6.67697c4.92944,-0.41976 8.99741,0.08389 9.27568,3.35173c0.10747,1.2621 -2.73684,8.01113 -10.87546,8.70416z" data-paper-data="{&quot;index&quot;:null}" fill="#e80000" stroke-linecap="butt"/><path d="M240.67015,215.74557c3.1788,3.79088 2.03705,6.56708 -0.476,8.67439c-2.51306,2.10731 -7.12721,0.7425 -10.30603,-3.04838c-3.1788,-3.79088 -5.10674,-7.4082 -2.59368,-9.51552c0.97059,-0.81388 8.12744,-2.36932 13.37573,3.88951z" data-paper-data="{&quot;index&quot;:null}" fill="#e80000" stroke-linecap="butt"/><path d="M232.56027,181.93934c0,0 2.87092,-1.06684 4.89684,-1.28303c1.60496,-0.17126 6.29264,0.08904 6.29264,0.08904" data-paper-data="{&quot;index&quot;:null}" fill="none" stroke-linecap="round"/><path d="M223.45926,182.75437c0.20833,-2.8273 2.66917,-4.9504 5.49648,-4.74207c2.8273,0.20833 4.95039,2.66917 4.74207,5.49647c-0.20833,2.8273 -2.66917,4.9504 -5.49647,4.74208c-2.8273,-0.20833 -4.9504,-2.66917 -4.74207,-5.49647z" data-paper-data="{&quot;index&quot;:null}" fill="#e80000" stroke-linecap="butt"/><path d="M241.84725,186.07307c0,-9.17193 7.43532,-16.60724 16.60724,-16.60724c9.17193,0 16.60724,7.43532 16.60724,16.60724c0,9.17193 -7.43532,16.60724 -16.60724,16.60724c-9.17193,0 -16.60724,-7.43532 -16.60724,-16.60724z" fill="#e80000" stroke-linecap="butt"/><path d="M240.7715,184.59605l-1.3957,-5.42329l32.34602,-8.32434l1.3957,5.42328z" fill="#ff2121" stroke-linecap="butt"/><path d="M235.51223,218.21427c0,-2.11232 1.71238,-3.8247 3.8247,-3.8247c2.11232,0 3.8247,1.71238 3.8247,3.8247c0,2.11232 -1.71238,3.8247 -3.8247,3.8247c-2.11232,0 -3.8247,-1.71238 -3.8247,-3.8247z" fill="#e80000" stroke-linecap="butt"/></g></g></svg>