<svg version="1.1" xmlns="http://www.w3.org/2000/svg" xmlns:xlink="http://www.w3.org/1999/xlink" width="142.18314" height="84.61883" viewBox="0,0,142.18314,84.61883"><defs><linearGradient x1="180.51223" y1="194.47948" x2="321.01329" y2="194.47948" gradientUnits="userSpaceOnUse" id="color-1"><stop offset="0" stop-color="#e80000" stop-opacity="0"/><stop offset="1" stop-color="#e80000"/></linearGradient></defs><g transform="translate(-180.51223,-146.04257)"><g data-paper-data="{&quot;isPaintingLayer&quot;:true}" fill-rule="nonzero" stroke="#000000" stroke-linejoin="miter" stroke-miterlimit="10" stroke-dasharray="" stroke-dashoffset="0" style="mix-blend-mode: normal"><path d="M285.82463,202.88476c-16.98698,0.02525 -9.12013,-2.74066 -40.91016,-5.02923c-35.48027,-2.55422 -64.40224,8.78129 -64.40224,8.78129c0,0 9.05086,-20.28275 46.43441,-23.25411c25.09512,-1.99467 48.25234,-0.54892 54.61254,-0.62657c15.83485,-0.19327 36.37819,-2.96751 39.19548,10.32736c2.81729,13.29486 -17.94307,9.77602 -34.93006,9.80129z" data-paper-data="{&quot;index&quot;:null}" fill="url(#color-1)" stroke-width="0" stroke-linecap="butt"/><path d="M235.13869,203.91762l14.14521,-21.29523l6.53948,4.34381l-14.14521,21.29523z" fill="#e80000" stroke-width="2" stroke-linecap="butt"/><path d="M254.24658,152.98318c0,0 3.05727,0.18278 4.99808,0.80276c1.53753,0.49116 5.72128,2.62148 5.72128,2.62148" fill="none" stroke-width="2" stroke-linecap="round"/><path d="M244.55759,149.76524c1.33184,-2.50264 4.44029,-3.45177 6.94293,-2.11994c2.50264,1.33184 3.45177,4.44029 2.11994,6.94293c-1.33184,2.50264 -4.44029,3.45177 -6.94293,2.11994c-2.50264,-1.33184 -3.45177,-4.44029 -2.11994,-6.94293z" fill="#e80000" stroke-width="2" stroke-linecap="butt"/><path d="M253.24262,164.75081c1.86332,-8.98066 10.65411,-14.7504 19.63477,-12.88708c8.98066,1.86332 14.7504,10.65411 12.88708,19.63477c-1.86332,8.98066 -10.65411,14.7504 -19.63477,12.88708c-8.98066,-1.86332 -14.7504,-10.65411 -12.88708,-19.63477z" fill="#e80000" stroke-width="2" stroke-linecap="butt"/><path d="M229.74533,206.55396c0,-2.11232 1.71238,-3.8247 3.8247,-3.8247c2.11232,0 3.8247,1.71238 3.8247,3.8247c0,2.11232 -1.71238,3.8247 -3.8247,3.8247c-2.11232,0 -3.8247,-1.71238 -3.8247,-3.8247z" fill="#e80000" stroke-width="2" stroke-linecap="butt"/><path d="M262.38101,214.00641c4.94656,-0.08454 6.38546,2.54994 6.4415,5.82912c0.05605,3.27918 -3.90849,6.00602 -8.85505,6.09057c-4.94656,0.08454 -8.97102,-0.69378 -9.02707,-3.97296c-0.02165,-1.26647 3.27373,-7.80714 11.44062,-7.94672z" data-paper-data="{&quot;index&quot;:null}" fill="#e80000" stroke-width="2" stroke-linecap="butt"/><path d="M252.48937,163.08604l-0.26483,-5.59374l33.36263,-1.57949l0.26483,5.59373z" fill="#ff2121" stroke-width="2" stroke-linecap="butt"/><path d="M208.06074,228.18721c-4.11699,2.74336 -6.75105,1.30369 -8.56968,-1.42554c-1.81864,-2.72923 0.04455,-7.16565 4.16153,-9.90902c4.11699,-2.74336 7.92414,-4.26245 9.74277,-1.53322c0.70239,1.05408 1.46262,8.33843 -5.33462,12.86778z" data-paper-data="{&quot;index&quot;:null}" fill="#e80000" stroke-width="2" stroke-linecap="butt"/><path d="M318.58157,194.87051c-2.44467,0.60056 -5.01417,-0.55431 -5.73914,-2.57945c-0.72497,-2.02515 0.66913,-4.15371 3.1138,-4.75427c2.44467,-0.60056 5.01417,0.55431 5.73914,2.57945c0.72497,2.02515 -0.66913,4.15371 -3.1138,4.75427z" fill="#e80000" stroke-width="2" stroke-linecap="butt"/></g></g></svg>