<svg version="1.1" xmlns="http://www.w3.org/2000/svg" xmlns:xlink="http://www.w3.org/1999/xlink" width="115.79016" height="57.00392" viewBox="0,0,115.79016,57.00392"><g transform="translate(-197.3257,-171.03072)"><g data-paper-data="{&quot;isPaintingLayer&quot;:true}" fill-rule="nonzero" stroke="#000000" stroke-width="2" stroke-linejoin="miter" stroke-miterlimit="10" stroke-dasharray="" stroke-dashoffset="0" style="mix-blend-mode: normal"><path d="M286.48653,220.28282c0,-2.11232 1.71238,-3.8247 3.8247,-3.8247c2.11232,0 3.8247,1.71238 3.8247,3.8247c0,2.11232 -1.71238,3.8247 -3.8247,3.8247c-2.11232,0 -3.8247,-1.71238 -3.8247,-3.8247z" data-paper-data="{&quot;index&quot;:null}" fill="#1d28e8" stroke-linecap="butt"/><path d="M258.63369,207.55482c0,-9.17192 7.43531,-16.60724 16.60724,-16.60724c9.17192,0 16.60724,7.43531 16.60724,16.60724c0,9.17192 -7.43531,16.60724 -16.60724,16.60724c-9.17192,0 -16.60724,-7.43531 -16.60724,-16.60724z" data-paper-data="{&quot;index&quot;:null}" fill="#1d28e8" stroke-linecap="butt"/><path d="M229.52302,214.81428h25.56509v7.8507h-25.56509z" data-paper-data="{&quot;index&quot;:null}" fill="#1d28e8" stroke-linecap="butt"/><path d="M280.93747,220.08522c0,-2.11232 1.71238,-3.8247 3.8247,-3.8247c2.11232,0 3.8247,1.71238 3.8247,3.8247c0,2.11232 -1.71238,3.8247 -3.8247,3.8247c-2.11232,0 -3.8247,-1.71238 -3.8247,-3.8247z" data-paper-data="{&quot;index&quot;:null}" fill="#1d28e8" stroke-linecap="butt"/><path d="M208.47589,224.39178c-3.25337,3.72708 -6.17281,3.02864 -8.64358,0.87191c-2.47076,-2.15673 -1.83634,-6.9265 1.41704,-10.65359c3.25337,-3.72708 6.52885,-6.1915 8.99961,-4.03477c0.95425,0.83297 3.59832,7.66295 -1.77307,13.81645z" data-paper-data="{&quot;index&quot;:null}" fill="#1d28e8" stroke-linecap="butt"/><path d="M207.93566,226.46092c-4.91881,0.53003 -6.5893,-1.96404 -6.94067,-5.22482c-0.35137,-3.26079 3.35127,-6.33385 8.27008,-6.86388c4.91881,-0.53003 8.99703,-0.1176 9.34841,3.14318c0.13571,1.25937 -2.55675,8.07042 -10.67782,8.94552z" data-paper-data="{&quot;index&quot;:null}" fill="#1d28e8" stroke-linecap="butt"/><path d="M254.45761,194.44744c0,0 2.84243,-1.14059 4.8621,-1.40899c1.60001,-0.21262 6.29284,-0.07342 6.29284,-0.07342" fill="none" stroke-linecap="round"/><path d="M245.52444,196.14587c0.13528,-2.83173 2.54051,-5.01764 5.37224,-4.88236c2.83173,0.13528 5.01764,2.54051 4.88236,5.37224c-0.13528,2.83173 -2.54051,5.01764 -5.37224,4.88236c-2.83173,-0.13528 -5.01764,-2.54051 -4.88236,-5.37224z" fill="#1d28e8" stroke-linecap="butt"/><path d="M265.51702,193.38207l9.54391,-20.97475l36.35886,19.05783l-20.58445,19.7203l16.97847,12.03296z" fill="#2530ff" stroke-linecap="round"/></g></g></svg>