<svg version="1.1" xmlns="http://www.w3.org/2000/svg" xmlns:xlink="http://www.w3.org/1999/xlink" width="101.1868" height="80.11156" viewBox="0,0,101.1868,80.11156"><g transform="translate(-210.96726,-147.73021)"><g data-paper-data="{&quot;isPaintingLayer&quot;:true}" fill-rule="nonzero" stroke="#000000" stroke-width="2" stroke-linejoin="miter" stroke-miterlimit="10" stroke-dasharray="" stroke-dashoffset="0" style="mix-blend-mode: normal"><path d="M242.21777,196.07668c0.24417,-2.09816 2.14301,-3.60112 4.24117,-3.35695c2.09816,0.24417 3.60112,2.14301 3.35695,4.24117c-0.24417,2.09816 -2.14301,3.60112 -4.24117,3.35695c-2.09816,-0.24417 -3.60112,-2.14301 -3.35695,-4.24117z" fill="#2d6a2b" stroke-linecap="butt"/><path d="M256.63314,166.83561c1.06021,-9.11045 9.30516,-15.63644 18.4156,-14.57623c9.11045,1.06021 15.63644,9.30516 14.57623,18.4156c-1.06021,9.11045 -9.30516,15.63644 -18.4156,14.57623c-9.11045,-1.06021 -15.63644,-9.30516 -14.57623,-18.4156z" fill="#2d6a2b" stroke-linecap="butt"/><path d="M267.63049,149.61005c15.38477,-3.80146 24.56451,5.94631 24.56451,5.94631l-39.26569,11.76018c0,0 -1.83997,-13.61929 14.70117,-17.70649z" fill="#367e33" stroke-linecap="round"/><path d="M239.33604,207.00486l15.98259,-19.95322l6.12736,4.90804l-15.98259,19.95322z" fill="#2d6a2b" stroke-linecap="butt"/><path d="M211.96726,183.73623c0.14636,-1.09711 18.80541,-8.28496 43.34779,-7.65104c22.39358,0.57842 50.81317,8.93375 51.96079,9.05024c2.40533,0.24417 4.12833,2.14301 3.84841,4.24117c-0.27992,2.09816 -2.45674,3.60112 -4.86209,3.35695c-1.18131,-0.11992 -28.50375,-5.70293 -51.40243,-7.61621c-23.72688,-1.98247 -43.03492,-0.3134 -42.89247,-1.38111z" fill="#2d6a2b" stroke-linecap="butt"/><path d="M264.39097,214.96507c4.94728,0 6.34095,2.65869 6.34095,5.93835c0,3.27966 -4.01057,5.93835 -8.95785,5.93835c-4.94728,0 -8.95785,-0.84699 -8.95785,-4.12665c0,-1.26666 3.40667,-7.75005 11.57475,-7.75005z" data-paper-data="{&quot;index&quot;:null}" fill="#2d6a2b" stroke-linecap="butt"/><path d="M252.40544,153.98351c0,0 2.91347,-0.94447 4.94673,-1.07479c1.61077,-0.10323 6.28325,0.35507 6.28325,0.35507" fill="none" stroke-linecap="round"/><path d="M242.21013,154.51964c0.3277,-2.81596 2.87614,-4.83309 5.6921,-4.50538c2.81596,0.3277 4.83309,2.87614 4.50538,5.6921c-0.3277,2.81596 -2.87614,4.83309 -5.6921,4.50538c-2.81596,-0.3277 -4.83309,-2.87614 -4.50538,-5.6921z" fill="#2d6a2b" stroke-linecap="butt"/><path d="M226.29289,221.92788c-1.81688,4.60158 -4.80161,4.92146 -7.8521,3.71701c-3.05049,-1.20445 -4.05052,-5.91117 -2.23364,-10.51275c1.81688,-4.60158 4.07756,-8.02084 7.12805,-6.81639c1.17815,0.46518 5.9574,6.01482 2.95769,13.61213z" data-paper-data="{&quot;index&quot;:null}" fill="#2d6a2b" stroke-linecap="butt"/></g></g></svg>