<svg version="1.1" xmlns="http://www.w3.org/2000/svg" xmlns:xlink="http://www.w3.org/1999/xlink" width="71.09037" height="96.98138" viewBox="0,0,71.09037,96.98138"><g transform="translate(-197.59375,-139.1934)"><g data-paper-data="{&quot;isPaintingLayer&quot;:true}" fill-rule="nonzero" stroke="#000000" stroke-width="2" stroke-linejoin="miter" stroke-miterlimit="10" stroke-dasharray="" stroke-dashoffset="0" style="mix-blend-mode: normal"><path d="M220.19542,164.23239c-1.78886,-8.9958 4.05351,-17.73847 13.04929,-19.52734c8.9958,-1.78886 17.73847,4.05351 19.52734,13.04929c1.78886,8.9958 -4.05351,17.73847 -13.04929,19.52734c-8.9958,1.78886 -17.73847,-4.05351 -19.52734,-13.04929z" fill="#2d6a2b" stroke-linecap="butt"/><path d="M225.37132,144.46191c13.47388,-8.34246 25.2036,-1.88486 25.2036,-1.88486l-33.75665,23.25048c0,0 -5.93357,-12.3961 8.55305,-21.36562z" fill="#367e33" stroke-linecap="round"/><path d="M237.67567,206.61787l-1.11978,-25.54055l7.84317,-0.34387l1.11978,25.54055z" data-paper-data="{&quot;index&quot;:null}" fill="#2d6a2b" stroke-linecap="butt"/><path d="M219.14176,192.95344c0,-2.11232 1.71238,-3.8247 3.8247,-3.8247c2.11232,0 3.8247,1.71238 3.8247,3.8247c0,2.11232 -1.71238,3.8247 -3.8247,3.8247c-2.11232,0 -3.8247,-1.71238 -3.8247,-3.8247z" fill="#2d6a2b" stroke-linecap="butt"/><path d="M254.58383,187.52045c0,-2.11232 1.71238,-3.8247 3.8247,-3.8247c2.11232,0 3.8247,1.71238 3.8247,3.8247c0,2.11232 -1.71238,3.8247 -3.8247,3.8247c-2.11232,0 -3.8247,-1.71238 -3.8247,-3.8247z" fill="#2d6a2b" stroke-linecap="butt"/><path d="M264.95201,212.20354c3.78826,3.18194 3.14543,6.11413 1.03605,8.62545c-2.10938,2.51132 -6.89035,1.96767 -10.6786,-1.21428c-3.78826,-3.18194 -6.31448,-6.40997 -4.2051,-8.92129c0.81467,-0.96991 7.59316,-3.74333 13.84766,1.51012z" data-paper-data="{&quot;index&quot;:null}" fill="#2d6a2b" stroke-linecap="butt"/><path d="M208.2313,154.58847c0,0 2.48263,-1.79357 4.37761,-2.54201c1.50123,-0.59291 6.08866,-1.59168 6.08866,-1.59168" fill="none" stroke-linecap="round"/><path d="M198.69331,158.2297c-0.55292,-2.78052 1.2529,-5.48281 4.03343,-6.03573c2.78052,-0.55292 5.48281,1.2529 6.03573,4.03343c0.55292,2.78052 -1.2529,5.48281 -4.03343,6.03573c-2.78052,0.55292 -5.48281,-1.2529 -6.03573,-4.03343z" fill="#2d6a2b" stroke-linecap="butt"/><path d="M239.62864,228.83383c0,4.94728 -2.65869,6.34095 -5.93835,6.34095c-3.27966,0 -5.93835,-4.01057 -5.93835,-8.95785c0,-4.94728 0.84699,-8.95785 4.12665,-8.95785c1.26666,0 7.75005,3.40667 7.75005,11.57475z" data-paper-data="{&quot;index&quot;:null}" fill="#2d6a2b" stroke-linecap="butt"/></g></g></svg>