<svg version="1.1" xmlns="http://www.w3.org/2000/svg" xmlns:xlink="http://www.w3.org/1999/xlink" width="63.54358" height="79.03566" viewBox="0,0,63.54358,79.03566"><defs><linearGradient x1="219.40248" y1="180.7533" x2="198.80264" y2="184.27203" gradientUnits="userSpaceOnUse" id="color-1"><stop offset="0" stop-color="#e80000" stop-opacity="0"/><stop offset="1" stop-color="#e80000"/></linearGradient></defs><g transform="translate(-199.78103,-146.78826)"><g data-paper-data="{&quot;isPaintingLayer&quot;:true}" fill-rule="nonzero" stroke="#000000" stroke-linejoin="miter" stroke-miterlimit="10" stroke-dasharray="" stroke-dashoffset="0" style="mix-blend-mode: normal"><path d="M214.70282,152.66931c0,0 3.03065,-0.44213 5.05694,-0.22937c1.60525,0.16856 6.13454,1.40451 6.13454,1.40451" fill="none" stroke-width="2" stroke-linecap="round"/><path d="M204.56213,151.48684c0.79564,-2.72102 3.64645,-4.28186 6.36747,-3.48622c2.72102,0.79564 4.28186,3.64645 3.48622,6.36747c-0.79564,2.72102 -3.64645,4.28186 -6.36747,3.48622c-2.72102,-0.79564 -4.28186,-3.64645 -3.48622,-6.36747z" fill="#e80000" stroke-width="2" stroke-linecap="butt"/><path d="M216.11045,164.3955c0,-9.17193 7.43532,-16.60724 16.60724,-16.60724c9.17193,0 16.60724,7.43532 16.60724,16.60724c0,9.17193 -7.43532,16.60724 -16.60724,16.60724c-9.17193,0 -16.60724,-7.43532 -16.60724,-16.60724z" fill="#e80000" stroke-width="2" stroke-linecap="butt"/><path d="M225.75337,208.65565l0.93984,-25.54781l7.84539,0.28862l-0.93984,25.54781z" fill="#e80000" stroke-width="2" stroke-linecap="butt"/><path d="M200.78103,194.3075c0,-2.11232 1.71238,-3.8247 3.8247,-3.8247c2.11232,0 3.8247,1.71238 3.8247,3.8247c0,2.11232 -1.71238,3.8247 -3.8247,3.8247c-2.11232,0 -3.8247,-1.71238 -3.8247,-3.8247z" fill="#e80000" stroke-width="2" stroke-linecap="butt"/><path d="M235.45303,204.03233c0,-2.11232 1.71238,-3.8247 3.8247,-3.8247c2.11232,0 3.8247,1.71238 3.8247,3.8247c0,2.11232 -1.71238,3.8247 -3.8247,3.8247c-2.11232,0 -3.8247,-1.71238 -3.8247,-3.8247z" fill="#e80000" stroke-width="2" stroke-linecap="butt"/><path d="M227.18278,213.75242c4.11347,0 7.4481,2.47844 7.4481,5.53575c0,3.05731 -3.33463,5.53575 -7.4481,5.53575c-4.11347,0 -7.4481,-2.47844 -7.4481,-5.53575c0,-3.05731 3.33463,-5.53575 7.4481,-5.53575z" data-paper-data="{&quot;index&quot;:null}" fill="#e80000" stroke-width="2" stroke-linecap="butt"/><path d="M255.24946,211.30182c4.90323,-0.6587 6.63848,1.79077 7.07515,5.04123c0.43666,3.25046 -3.1842,6.41946 -8.08745,7.07816c-4.90323,0.6587 -8.99087,0.35323 -9.42753,-2.89723c-0.16865,-1.25538 2.34447,-8.13462 10.43983,-9.22215z" data-paper-data="{&quot;index&quot;:null}" fill="#e80000" stroke-width="2" stroke-linecap="butt"/><path d="M215.0347,162.91848l-1.3957,-5.42329l32.34602,-8.32434l1.3957,5.42328z" fill="#ff2121" stroke-width="2" stroke-linecap="butt"/><path d="M202.04418,189.94556c1.45098,-3.79653 2.45292,-1.3908 6.58795,-7.94659c4.61503,-7.3168 0.22238,-16.43563 0.22238,-16.43563c0,0 11.54568,6.78818 10.12456,15.82876c-0.95397,6.06883 -3.83158,10.8964 -4.33341,12.33391c-1.24941,3.57894 -9.07779,8.75133 -12.44964,5.08934c-2.19091,-2.37945 -1.60283,-5.07327 -0.15185,-8.8698z" data-paper-data="{&quot;index&quot;:null}" fill="url(#color-1)" stroke-width="0" stroke-linecap="butt"/></g></g></svg>