<svg version="1.1" xmlns="http://www.w3.org/2000/svg" xmlns:xlink="http://www.w3.org/1999/xlink" width="66.11334" height="70.71831" viewBox="0,0,66.11334,70.71831"><g transform="translate(-210.89206,-151.73521)"><g data-paper-data="{&quot;isPaintingLayer&quot;:true}" fill-rule="nonzero" stroke="#000000" stroke-width="2" stroke-linejoin="miter" stroke-miterlimit="10" stroke-dasharray="" stroke-dashoffset="0" style="mix-blend-mode: normal"><path d="M236.26379,205.61184v-25.56509h7.8507v25.56509z" fill="#181818" stroke-linecap="butt"/><path d="M225.57173,207.01992c4.00259,-0.94862 8.01311,1.51344 8.95773,5.49917c0.94462,3.98573 -1.53435,7.98581 -5.53695,8.93443c-4.00259,0.94862 -8.01311,-1.51344 -8.95773,-5.49917c-0.94462,-3.98573 1.53435,-7.98581 5.53695,-8.93443z" data-paper-data="{&quot;index&quot;:null}" fill="#181818" stroke-linecap="butt"/><path d="M256.39988,208.18779c4.83132,-1.06485 6.76458,1.23155 7.47049,4.43434c0.70591,3.20279 -2.63839,6.66239 -7.46972,7.72725c-4.83132,1.06485 -8.9302,1.10095 -9.63611,-2.10184c-0.27264,-1.23697 1.6587,-8.30165 9.63533,-10.05974z" data-paper-data="{&quot;index&quot;:null}" fill="#181818" stroke-linecap="butt"/><path d="M234.12443,178.41074l14.42305,0.30197l-3.74625,4.22758l4.12087,4.22758l-17.04542,1.20788l4.30818,-5.13349z" fill="#0e0e0e" stroke-linecap="round"/><path d="M241.46312,199.15925c0,-2.11232 1.71238,-3.8247 3.8247,-3.8247c2.11232,0 3.8247,1.71238 3.8247,3.8247c0,2.11232 -1.71238,3.8247 -3.8247,3.8247c-2.11232,0 -3.8247,-1.71238 -3.8247,-3.8247z" fill="#181818" stroke-linecap="butt"/><path d="M222.3821,160.26632c0,0 3.03861,-0.38373 5.06042,-0.13201c1.60171,0.19942 6.10638,1.5223 6.10638,1.5223" fill="#181818" stroke-linecap="round"/><path d="M211.89206,158.88878c0.84786,-2.7052 3.72817,-4.21091 6.43338,-3.36304c2.7052,0.84786 4.21091,3.72817 3.36304,6.43338c-0.84786,2.7052 -3.72817,4.21091 -6.43338,3.36304c-2.7052,-0.84786 -4.21091,-3.72817 -3.36304,-6.43338z" fill="#181818" stroke-linecap="butt"/><path d="M230.90686,174.43772c0.67796,-9.14684 8.64253,-16.01222 17.78936,-15.33426c9.14684,0.67796 16.01222,8.64253 15.33426,17.78936c-0.67796,9.14684 -8.64253,16.01222 -17.78936,15.33426c-9.14684,-0.67796 -16.01222,-8.64253 -15.33426,-17.78936z" fill="#181818" stroke-linecap="butt"/><path d="M244.76707,183.846l-0.25703,-5.23844c0,0 6.45476,1.8804 9.35406,1.73814c3.45916,-0.16972 10.01941,-2.68871 10.01941,-2.68871l0.25703,5.23844z" fill="#ff0000" stroke-linecap="butt"/><g><g><path d="M230.47064,173.44657l-0.61438,-14.52266c0,0 11.21903,1.79356 16.65003,1.56381c5.70303,-0.24127 16.79195,-2.97856 16.79195,-2.97856l0.61438,14.52266c0,0 -11.27226,2.09699 -16.81932,2.33166c-5.59977,0.2369 -16.62265,-0.91692 -16.62265,-0.91692z" fill="#343434" stroke-linecap="butt"/><path d="M276.0054,170.54815c0,0 -18.38728,3.6941 -27.92369,4.09754c-9.69743,0.41026 -29.78592,-1.65615 -29.78592,-1.65615" fill="none" stroke-linecap="round"/></g><path d="M263.57008,156.06355c0.09446,2.23294 -7.39321,4.36309 -16.7242,4.75784c-9.33099,0.39475 -16.97181,-1.0954 -17.06628,-3.32834c-0.09446,-2.23294 7.39321,-4.36309 16.72419,-4.75784c9.33099,-0.39475 16.97183,1.09541 17.06629,3.32834z" fill="#252525" stroke-linecap="butt"/></g><path d="M235.18786,199.2444c0,-2.11232 1.71238,-3.8247 3.8247,-3.8247c2.11232,0 3.8247,1.71238 3.8247,3.8247c0,2.11232 -1.71238,3.8247 -3.8247,3.8247c-2.11232,0 -3.8247,-1.71238 -3.8247,-3.8247z" fill="#181818" stroke-linecap="butt"/></g></g></svg>