<svg version="1.1" xmlns="http://www.w3.org/2000/svg" xmlns:xlink="http://www.w3.org/1999/xlink" width="60.25098" height="84.95025" viewBox="0,0,60.25098,84.95025"><g transform="translate(-220.08246,-142.13475)"><g data-paper-data="{&quot;isPaintingLayer&quot;:true}" fill-rule="nonzero" stroke="#000000" stroke-width="2" stroke-linejoin="miter" stroke-miterlimit="10" stroke-dasharray="" stroke-dashoffset="0" style="mix-blend-mode: normal"><path d="M256.28948,192.17808c0.24417,-2.09816 2.14301,-3.60112 4.24117,-3.35695c2.09816,0.24417 3.60112,2.14301 3.35695,4.24117c-0.24417,2.09816 -2.14301,3.60112 -4.24117,3.35695c-2.09816,-0.24417 -3.60112,-2.14301 -3.35695,-4.24117z" fill="#2d6a2b" stroke-linecap="butt"/><path d="M242.93336,161.24015c1.06021,-9.11045 9.30516,-15.63644 18.4156,-14.57623c9.11045,1.06021 15.63644,9.30516 14.57623,18.4156c-1.06021,9.11045 -9.30516,15.63644 -18.4156,14.57623c-9.11045,-1.06021 -15.63644,-9.30516 -14.57623,-18.4156z" fill="#2d6a2b" stroke-linecap="butt"/><path d="M253.93071,144.01459c15.38477,-3.80146 24.56451,5.94631 24.56451,5.94631l-39.26569,11.76018c0,0 -1.83997,-13.61929 14.70117,-17.70649z" fill="#367e33" stroke-linecap="round"/><path d="M237.14123,206.04241l8.48021,-24.11763l7.4062,2.60416l-8.48021,24.11763z" fill="#2d6a2b" stroke-linecap="butt"/><path d="M222.32791,181.21827c0.24417,-2.09816 2.14301,-3.60112 4.24117,-3.35695c2.09816,0.24417 3.60112,2.14301 3.35695,4.24117c-0.24417,2.09816 -2.14301,3.60112 -4.24117,3.35695c-2.09816,-0.24417 -3.60112,-2.14301 -3.35695,-4.24117z" fill="#2d6a2b" stroke-linecap="butt"/><path d="M254.5989,214.2083c4.94728,0 6.34095,2.65869 6.34095,5.93835c0,3.27966 -4.01057,5.93835 -8.95785,5.93835c-4.94728,0 -8.95785,-0.84699 -8.95785,-4.12665c0,-1.26666 3.40667,-7.75005 11.57475,-7.75005z" data-paper-data="{&quot;index&quot;:null}" fill="#2d6a2b" stroke-linecap="butt"/><path d="M228.53056,214.6109c4.11347,0 7.4481,2.47844 7.4481,5.53575c0,3.05731 -3.33463,5.53575 -7.4481,5.53575c-4.11347,0 -7.4481,-2.47844 -7.4481,-5.53575c0,-3.05731 3.33463,-5.53575 7.4481,-5.53575z" data-paper-data="{&quot;index&quot;:null}" fill="#2d6a2b" stroke-linecap="butt"/><path d="M234.50906,148.38805c0,0 2.91347,-0.94447 4.94673,-1.07479c1.61077,-0.10323 6.28325,0.35507 6.28325,0.35507" fill="none" stroke-linecap="round"/><path d="M224.31375,148.92418c0.3277,-2.81596 2.87614,-4.83309 5.6921,-4.50538c2.81596,0.3277 4.83309,2.87614 4.50538,5.6921c-0.3277,2.81596 -2.87614,4.83309 -5.6921,4.50538c-2.81596,-0.3277 -4.83309,-2.87614 -4.50538,-5.6921z" fill="#2d6a2b" stroke-linecap="butt"/></g></g></svg>