<svg version="1.1" xmlns="http://www.w3.org/2000/svg" xmlns:xlink="http://www.w3.org/1999/xlink" width="188.71052" height="77.95125" viewBox="0,0,188.71052,77.95125"><defs><linearGradient x1="196.92196" y1="196.71613" x2="376.91053" y2="183.13807" gradientUnits="userSpaceOnUse" id="color-1"><stop offset="0" stop-color="#ffffff" stop-opacity="0"/><stop offset="1" stop-color="#ffffff"/></linearGradient></defs><g transform="translate(-188.88118,-149.25521)"><g data-paper-data="{&quot;isPaintingLayer&quot;:true}" fill-rule="nonzero" stroke-linejoin="miter" stroke-miterlimit="10" stroke-dasharray="" stroke-dashoffset="0" style="mix-blend-mode: normal"><path d="M232.52897,211.04365l-16.39507,-19.61569l6.02372,-5.03471l16.39507,19.61569z" fill="#2d6a2b" stroke="#000000" stroke-width="2" stroke-linecap="butt"/><path d="M293.11404,175.84431c-2.11232,0 -3.8247,-1.71238 -3.8247,-3.8247c0,-2.11232 1.71238,-3.8247 3.8247,-3.8247c2.11232,0 3.8247,1.71238 3.8247,3.8247c0,2.11232 -1.71238,3.8247 -3.8247,3.8247z" data-paper-data="{&quot;index&quot;:null}" fill="#2d6a2b" stroke="#000000" stroke-width="2" stroke-linecap="butt"/><path d="M201.24874,203.77074c0,-2.11232 1.71238,-3.8247 3.8247,-3.8247c2.11232,0 3.8247,1.71238 3.8247,3.8247c0,2.11232 -1.71238,3.8247 -3.8247,3.8247c-2.11232,0 -3.8247,-1.71238 -3.8247,-3.8247z" fill="#2d6a2b" stroke="#000000" stroke-width="2" stroke-linecap="butt"/><path d="M262.29342,207.21728c2.21661,-4.42292 5.21793,-4.47766 8.14998,-3.00822c2.93205,1.46944 3.51203,6.24615 1.29542,10.66907c-2.21661,4.42292 -4.77075,7.62892 -7.7028,6.15948c-1.13241,-0.56752 -5.40228,-6.51798 -1.7426,-13.82033z" data-paper-data="{&quot;index&quot;:null}" fill="#2d6a2b" stroke="#000000" stroke-width="2" stroke-linecap="butt"/><path d="M205.58723,170.50159c0,-9.17193 7.43532,-16.60724 16.60724,-16.60724c9.17193,0 16.60724,7.43532 16.60724,16.60724c0,9.17193 -7.43532,16.60724 -16.60724,16.60724c-9.17193,0 -16.60724,-7.43532 -16.60724,-16.60724z" fill="#2d6a2b" stroke="#000000" stroke-width="2" stroke-linecap="butt"/><path d="M214.51971,152.12028c14.84222,-5.55435 25.0872,3.06696 25.0872,3.06696l-37.64308,16.22019c0,0 -3.40193,-13.31531 12.55588,-19.28715z" fill="#367e33" stroke="#000000" stroke-width="2" stroke-linecap="round"/><path d="M376.71412,159.96469c0,0 -64.07582,10.57671 -95.00151,14.80386c-29.21013,3.99266 -85.69983,9.89575 -85.69983,9.89575c0,0 77.88988,27.4672 126.50283,21.85973c48.61295,-5.60747 54.19851,-46.55934 54.19851,-46.55934z" fill="url(#color-1)" stroke="none" stroke-width="0" stroke-linecap="round"/><g data-paper-data="{&quot;index&quot;:null}" stroke="#61ff00" stroke-width="3" stroke-linecap="round"><path d="M376.0917,159.16746c0,0 -21.28935,4.88592 -33.58285,6.81446c-13.71002,2.15077 -44.89205,5.49637 -44.89205,5.49637" fill="none"/><path d="M333.80595,152.36175c0,0 5.26569,-0.0312 4.87338,4.6469c-0.39233,4.6781 -13.19778,10.33977 -13.19778,10.33977z" fill="#61ff00"/><path d="M344.86265,168.07229c0,0 13.58588,-4.22882 18.07733,-1.38098c4.49145,2.84783 0.98279,6.10494 0.98279,6.10494z" data-paper-data="{&quot;index&quot;:null}" fill="#61ff00"/><path d="M308.3067,171.88895c0,0 11.43328,-3.6386 15.24487,-1.25848c3.81158,2.38013 0.87505,5.14682 0.87505,5.14682z" data-paper-data="{&quot;index&quot;:null}" fill="#61ff00"/></g><path d="M199.94617,160.93952c0,0 2.78477,-1.27492 4.78933,-1.63939c1.58804,-0.28873 6.28217,-0.37361 6.28217,-0.37361" fill="none" stroke="#000000" stroke-width="2" stroke-linecap="round"/><path d="M189.88118,162.65057c0,-2.83496 2.29819,-5.13315 5.13315,-5.13315c2.83496,0 5.13315,2.29819 5.13315,5.13315c0,2.83496 -2.29819,5.13315 -5.13315,5.13315c-2.83496,0 -5.13315,-2.29819 -5.13315,-5.13315z" fill="#2d6a2b" stroke="#000000" stroke-width="2" stroke-linecap="butt"/><path d="M227.68336,214.93099c4.7944,1.22035 5.48919,4.14067 4.68019,7.31898c-0.809,3.17832 -5.35146,4.76555 -10.14587,3.5452c-4.7944,-1.22035 -8.47212,-3.03047 -7.66312,-6.20878c0.31245,-1.22752 5.21312,-6.67023 13.1288,-4.6554z" data-paper-data="{&quot;index&quot;:null}" fill="#2d6a2b" stroke="#000000" stroke-width="2" stroke-linecap="butt"/></g></g></svg>