<svg version="1.1" xmlns="http://www.w3.org/2000/svg" xmlns:xlink="http://www.w3.org/1999/xlink" width="60.76923" height="88.37575" viewBox="0,0,60.76923,88.37575"><g transform="translate(-196.08203,-138.70926)"><g data-paper-data="{&quot;isPaintingLayer&quot;:true}" fill-rule="nonzero" stroke="#000000" stroke-width="2" stroke-linejoin="miter" stroke-miterlimit="10" stroke-dasharray="" stroke-dashoffset="0" style="mix-blend-mode: normal"><path d="M207.54224,145.4582c0,0 3.01082,-0.56161 5.04392,-0.42911c1.61066,0.10497 6.18527,1.16089 6.18527,1.16089" fill="none" stroke-linecap="round"/><path d="M197.36274,144.67756c0.68744,-2.75035 3.47432,-4.42267 6.22467,-3.73523c2.75035,0.68744 4.42268,3.47432 3.73524,6.22467c-0.68744,2.75035 -3.47432,4.42268 -6.22467,3.73524c-2.75035,-0.68744 -4.42267,-3.47432 -3.73523,-6.22468z" fill="#2d6a2b" stroke-linecap="butt"/><path d="M246.32987,185.10234c3.91866,-3.01988 6.64547,-1.76468 8.64741,0.83308c2.00193,2.59777 0.44813,7.15177 -3.47054,10.17165c-3.91866,3.01988 -7.6124,4.79708 -9.61433,2.19931c-0.77318,-1.0033 -2.03235,-8.21817 4.43748,-13.20405z" data-paper-data="{&quot;index&quot;:null}" fill="#2d6a2b" stroke-linecap="butt"/><path d="M216.78057,155.5753c2.22407,-8.89819 11.24045,-14.30862 20.13863,-12.08456c8.89819,2.22407 14.30863,11.24044 12.08456,20.13862c-2.22407,8.89819 -11.24044,14.30863 -20.13863,12.08457c-8.89819,-2.22407 -14.30863,-11.24045 -12.08457,-20.13863z" fill="#2d6a2b" stroke-linecap="butt"/><path d="M229.90368,139.90859c15.7461,-1.78954 23.59477,9.05874 23.59477,9.05874l-40.45279,6.60815c0,0 -0.07161,-13.74284 16.85802,-15.66689z" fill="#367e33" stroke-linecap="round"/><path d="M238.5006,207.17169l-6.82415,-24.63747l7.56584,-2.0956l6.82415,24.63746z" fill="#2d6a2b" stroke-linecap="butt"/><path d="M220.10319,183.4925c0.51221,-2.04928 2.58871,-3.29532 4.63799,-2.78311c2.04928,0.51221 3.29533,2.58871 2.78312,4.63799c-0.51221,2.04928 -2.58871,3.29533 -4.63799,2.78312c-2.04928,-0.51221 -3.29533,-2.58872 -2.78312,-4.63799z" fill="#2d6a2b" stroke-linecap="butt"/><path d="M244.53085,178.8112c0.51221,-2.04928 2.58872,-3.29533 4.63799,-2.78312c2.04928,0.51221 3.29532,2.58872 2.78311,4.63799c-0.51221,2.04928 -2.58871,3.29533 -4.63799,2.78312c-2.04928,-0.51221 -3.29533,-2.58872 -2.78312,-4.63799z" fill="#2d6a2b" stroke-linecap="butt"/><path d="M245.10224,214.2083c4.94728,0 6.34095,2.65869 6.34095,5.93835c0,3.27966 -4.01057,5.93835 -8.95785,5.93835c-4.94728,0 -8.95785,-0.84699 -8.95785,-4.12665c0,-1.26666 3.40667,-7.75005 11.57475,-7.75005z" data-paper-data="{&quot;index&quot;:null}" fill="#2d6a2b" stroke-linecap="butt"/></g></g></svg>