<svg version="1.1" xmlns="http://www.w3.org/2000/svg" xmlns:xlink="http://www.w3.org/1999/xlink" width="73.91229" height="56.84995" viewBox="0,0,73.91229,56.84995"><g transform="translate(-197.74761,-168.76939)"><g data-paper-data="{&quot;isPaintingLayer&quot;:true}" fill-rule="nonzero" stroke="#000000" stroke-width="2" stroke-linejoin="miter" stroke-miterlimit="10" stroke-dasharray="" stroke-dashoffset="0" style="mix-blend-mode: normal"><path d="M213.27567,188.91015c-2.11807,-4.47095 -0.31203,-6.86869 2.65186,-8.27279c2.9639,-1.40411 7.08361,1.08206 9.20169,5.553c2.11807,4.47095 3.06966,8.45799 0.10577,9.86211c-1.14471,0.54229 -8.46234,0.23932 -11.95932,-7.14232z" data-paper-data="{&quot;index&quot;:null}" fill="#e80000" stroke-linecap="butt"/><path d="M231.71755,220.79464c0,-2.11232 1.71238,-3.8247 3.8247,-3.8247c2.11232,0 3.8247,1.71238 3.8247,3.8247c0,2.11232 -1.71238,3.8247 -3.8247,3.8247c-2.11232,0 -3.8247,-1.71238 -3.8247,-3.8247z" fill="#e80000" stroke-linecap="butt"/><path d="M254.73171,219.21824c0,-2.11232 1.71238,-3.8247 3.8247,-3.8247c2.11232,0 3.8247,1.71238 3.8247,3.8247c0,2.11232 -1.71238,3.8247 -3.8247,3.8247c-2.11232,0 -3.8247,-1.71238 -3.8247,-3.8247z" fill="#e80000" stroke-linecap="butt"/><path d="M203.44202,207.39607c-4.72338,-1.47148 -5.26319,-4.42436 -4.28773,-7.5556c0.97547,-3.13124 5.5953,-4.47673 10.31869,-3.00525c4.72338,1.47148 8.30052,3.47299 7.32505,6.60424c-0.37675,1.20934 -5.55761,6.38607 -13.35603,3.95663z" data-paper-data="{&quot;index&quot;:null}" fill="#e80000" stroke-linecap="butt"/><g data-paper-data="{&quot;index&quot;:null}" stroke-linecap="butt"><path d="M227.57728,199.11112c0.21309,-3.42574 2.02339,-3.59785 2.02339,-3.59785l10.78559,0.17897c0,0 -1.35122,2.48581 -1.4261,3.83809c-0.06936,1.25255 0.99212,3.99933 0.99212,3.99933l-10.78558,-0.17896c0,0 -1.84021,-0.20789 -1.58943,-4.23957z" fill="#e80000"/><path d="M239.0005,199.45401c0.14139,-2.21698 1.17158,-3.95582 2.30099,-3.88379c1.12941,0.07203 1.93035,1.92764 1.78896,4.14463c-0.14139,2.21698 -1.17158,3.9558 -2.30098,3.88378c-1.12941,-0.07203 -1.93035,-1.92764 -1.78896,-4.14463z" fill="#fd0000"/></g><path d="M228.15844,182.2429c0,0 2.87092,-1.06684 4.89684,-1.28303c1.60496,-0.17126 6.29264,0.08904 6.29264,0.08904" data-paper-data="{&quot;index&quot;:null}" fill="none" stroke-linecap="round"/><path d="M217.99492,183.20972c0.20833,-2.8273 2.66917,-4.9504 5.49648,-4.74207c2.8273,0.20833 4.95039,2.66917 4.74207,5.49647c-0.20833,2.8273 -2.66917,4.9504 -5.49647,4.74208c-2.8273,-0.20833 -4.9504,-2.66917 -4.74207,-5.49647z" data-paper-data="{&quot;index&quot;:null}" fill="#e80000" stroke-linecap="butt"/><path d="M237.44542,186.37663c0,-9.17193 7.43532,-16.60724 16.60724,-16.60724c9.17193,0 16.60724,7.43532 16.60724,16.60724c0,9.17193 -7.43532,16.60724 -16.60724,16.60724c-9.17193,0 -16.60724,-7.43532 -16.60724,-16.60724z" fill="#e80000" stroke-linecap="butt"/><path d="M236.36967,184.89961l-1.3957,-5.42329l32.34602,-8.32434l1.3957,5.42328z" fill="#ff2121" stroke-linecap="butt"/></g></g></svg>