<svg version="1.1" xmlns="http://www.w3.org/2000/svg" xmlns:xlink="http://www.w3.org/1999/xlink" width="228.40394" height="139.21211" viewBox="0,0,228.40394,139.21211"><defs><radialGradient cx="222.27309" cy="110.88857" r="18.84183" gradientUnits="userSpaceOnUse" id="color-1"><stop offset="0" stop-color="#ffffff"/><stop offset="1" stop-color="#0debff"/></radialGradient></defs><g transform="translate(-55.87949,-64.67753)"><g data-paper-data="{&quot;isPaintingLayer&quot;:true}" fill-rule="nonzero" stroke-linejoin="miter" stroke-miterlimit="10" stroke-dasharray="" stroke-dashoffset="0" style="mix-blend-mode: normal"><path d="M244.89034,176.95742l-7.16488,-24.54054l7.53607,-2.20025l7.16488,24.54054z" data-paper-data="{&quot;index&quot;:null}" fill="#0debff" stroke="#000000" stroke-width="2" stroke-linecap="butt"/><path d="M278.35681,166.56228c4.7845,1.25859 5.45596,4.18436 4.62161,7.35611c-0.83435,3.17177 -5.38934,4.72268 -10.17385,3.46409c-4.7845,-1.25859 -8.44765,-3.09799 -7.61331,-6.26976c0.32224,-1.22498 5.2662,-6.62841 13.16555,-4.55044z" data-paper-data="{&quot;index&quot;:null}" fill="#0debff" stroke="#000000" stroke-width="2" stroke-linecap="butt"/><path d="M226.9767,125.44356c1.28689,-9.0812 9.69188,-15.39974 18.77308,-14.11285c9.0812,1.28689 15.39974,9.69188 14.11285,18.77308c-1.28689,9.0812 -9.69188,15.39974 -18.77308,14.11285c-9.0812,-1.28689 -15.39974,-9.69188 -14.11285,-18.77308z" fill="#0debff" stroke="#000000" stroke-width="2" stroke-linecap="butt"/><path d="M216.33666,127.0403c0,0 1.84057,-2.44798 3.42915,-3.72372c1.25849,-1.01065 5.34481,-3.32239 5.34481,-3.32239" fill="none" stroke="#000000" stroke-width="2" stroke-linecap="round"/><path d="M208.30363,133.34128c-1.35108,-2.49231 -0.42593,-5.60799 2.06638,-6.95906c2.49231,-1.35108 5.60799,-0.42593 6.95906,2.06638c1.35108,2.49231 0.42593,5.60799 -2.06638,6.95906c-2.49231,1.35108 -5.60799,0.42593 -6.95906,-2.06638z" fill="#0debff" stroke="#000000" stroke-width="2" stroke-linecap="butt"/><path d="M224.27699,130.54863l-5.39312,-20.09576l27.06413,-12.98785l12.30311,16.77972z" fill="url(#color-1)" stroke="#000000" stroke-width="2" stroke-linecap="butt"/><path d="M173.00224,122.06654c-1.60695,-1.37099 -1.79824,-3.78509 -0.42725,-5.39204c1.37099,-1.60695 3.7851,-1.79824 5.39204,-0.42725c1.60695,1.37099 1.79824,3.78509 0.42725,5.39204c-1.37099,1.60695 -3.7851,1.79824 -5.39204,0.42725z" fill="#0debff" stroke="#000000" stroke-width="2" stroke-linecap="butt"/><path d="M169.15474,118.54469c-1.60695,-1.37099 -1.79824,-3.78509 -0.42725,-5.39204c1.37099,-1.60694 3.7851,-1.79823 5.39205,-0.42725c1.60695,1.37099 1.79824,3.78509 0.42725,5.39204c-1.37099,1.60695 -3.7851,1.79824 -5.39205,0.42725z" fill="#0debff" stroke="#000000" stroke-width="2" stroke-linecap="butt"/><g fill="#76f4ff" stroke="#53acb4" stroke-width="1" stroke-linecap="butt"><path d="M56.12757,65.15144l75.18723,25.28777l29.08978,21.50575l-35.4038,-7.43525z" data-paper-data="{&quot;index&quot;:null}"/><path d="M172.58665,123.76957l-21.4368,-12.69826l2.29991,-5.12525l23.50673,8.08555z"/><path d="M152.72152,86.80706l5.52043,15.39325l-6.85573,15.39786l-14.98338,5.57426l11.54366,-16.66401z"/></g><path d="M238.84947,196.11317c0.3783,4.93279 -2.16603,6.52569 -5.43609,6.77647c-3.27007,0.25078 -6.22764,-3.54474 -6.60595,-8.47754c-0.3783,-4.93279 0.15952,-8.99638 3.42959,-9.24717c1.26295,-0.09686 7.98786,2.80407 8.61244,10.94824z" data-paper-data="{&quot;index&quot;:null}" fill="#0debff" stroke="#000000" stroke-width="2" stroke-linecap="butt"/></g></g></svg>