<svg version="1.1" xmlns="http://www.w3.org/2000/svg" xmlns:xlink="http://www.w3.org/1999/xlink" width="100.17267" height="76.50417" viewBox="0,0,100.17267,76.50417"><g transform="translate(-218.7347,-149.44371)"><g data-paper-data="{&quot;isPaintingLayer&quot;:true}" fill-rule="nonzero" stroke="#000000" stroke-width="2" stroke-linejoin="miter" stroke-miterlimit="10" stroke-dasharray="" stroke-dashoffset="0" style="mix-blend-mode: normal"><path d="M237.80063,185.50667c-0.35034,-4.12655 8.36663,-4.38209 11.36572,-4.38209c2.99909,0 68.74102,3.94193 68.74102,6.05425c0,2.11232 -64.95054,3.26731 -67.94963,3.26731c-2.99909,0 -11.80676,-0.81292 -12.1571,-4.93947z" fill="#e80000" stroke-linecap="butt"/><path d="M255.89475,163.23721c0,0 -3.92621,2.57428 -5.40094,3.23033c-1.86154,0.82812 -4.88059,1.34353 -4.88059,1.34353" data-paper-data="{&quot;index&quot;:null}" fill="none" stroke-linecap="round"/><path d="M237.68276,164.93454c2.34231,-1.59706 5.53579,-0.99291 7.13285,1.3494c1.59706,2.34231 0.99291,5.53579 -1.3494,7.13285c-2.34231,1.59706 -5.53579,0.99291 -7.13285,-1.3494c-1.59706,-2.34231 -0.99291,-5.53579 1.3494,-7.13285z" data-paper-data="{&quot;index&quot;:null}" fill="#e80000" stroke-linecap="butt"/><path d="M255.89907,167.05095c0,-9.17193 7.43532,-16.60724 16.60724,-16.60724c9.17193,0 16.60724,7.43532 16.60724,16.60724c0,9.17193 -7.43532,16.60724 -16.60724,16.60724c-9.17193,0 -16.60724,-7.43532 -16.60724,-16.60724z" fill="#e80000" stroke-linecap="butt"/><path d="M239.84967,205.86338l12.72509,-22.17309l6.80906,3.90771l-12.72509,22.17309z" fill="#e80000" stroke-linecap="butt"/><path d="M220.53507,193.60526c0,-2.11232 1.71238,-3.8247 3.8247,-3.8247c2.11232,0 3.8247,1.71238 3.8247,3.8247c0,2.11232 -1.71238,3.8247 -3.8247,3.8247c-2.11232,0 -3.8247,-1.71238 -3.8247,-3.8247z" fill="#e80000" stroke-linecap="butt"/><path d="M227.1828,213.75247c4.11347,0 7.4481,2.47844 7.4481,5.53575c0,3.05731 -3.33463,5.53575 -7.4481,5.53575c-4.11347,0 -7.4481,-2.47844 -7.4481,-5.53575c0,-3.05731 3.33463,-5.53575 7.4481,-5.53575z" data-paper-data="{&quot;index&quot;:null}" fill="#e80000" stroke-linecap="butt"/><path d="M266.09641,213.07118c4.94728,0 6.34095,2.65869 6.34095,5.93835c0,3.27966 -4.01056,5.93835 -8.95785,5.93835c-4.94728,0 -8.95785,-0.84699 -8.95785,-4.12665c0,-1.26666 3.40667,-7.75005 11.57475,-7.75005z" data-paper-data="{&quot;index&quot;:null}" fill="#e80000" stroke-linecap="butt"/><path d="M254.82332,165.57393l-1.3957,-5.42329l32.34602,-8.32434l1.3957,5.42328z" fill="#ff2121" stroke-linecap="butt"/></g></g></svg>