<svg version="1.1" xmlns="http://www.w3.org/2000/svg" xmlns:xlink="http://www.w3.org/1999/xlink" width="64.38415" height="82.10124" viewBox="0,0,64.38415,82.10124"><g transform="translate(-209.46116,-143.46193)"><g data-paper-data="{&quot;isPaintingLayer&quot;:true}" fill-rule="nonzero" stroke="#000000" stroke-width="2" stroke-linejoin="miter" stroke-miterlimit="10" stroke-dasharray="" stroke-dashoffset="0" style="mix-blend-mode: normal"><path d="M249.1779,197.25086c0,-2.11232 1.71238,-3.8247 3.8247,-3.8247c2.11232,0 3.8247,1.71238 3.8247,3.8247c0,2.11232 -1.71238,3.8247 -3.8247,3.8247c-2.11232,0 -3.8247,-1.71238 -3.8247,-3.8247z" fill="#181818" stroke-linecap="butt"/><path d="M258.08211,212.74474c4.94603,0.11106 6.27966,2.80037 6.20603,6.0792c-0.07362,3.27883 -4.14287,5.84682 -9.08892,5.73576c-4.94603,-0.11106 -8.93658,-1.04787 -8.86294,-4.32671c0.02844,-1.26634 3.5798,-7.67162 11.74583,-7.48825z" data-paper-data="{&quot;index&quot;:null}" fill="#181818" stroke-linecap="butt"/><path d="M234.92271,205.12937l2.55991,-25.4366l7.81124,0.78611l-2.55991,25.4366z" fill="#181818" stroke-linecap="butt"/><path d="M235.51783,177.85077l14.32032,1.74468l-4.15074,3.83121l3.67684,4.61897l-17.0807,-0.505l4.80056,-4.6763z" fill="#0e0e0e" stroke-linecap="round"/><path d="M220.23759,204.284c0,-2.11232 1.71238,-3.8247 3.8247,-3.8247c2.11232,0 3.8247,1.71238 3.8247,3.8247c0,2.11232 -1.71238,3.8247 -3.8247,3.8247c-2.11232,0 -3.8247,-1.71238 -3.8247,-3.8247z" fill="#181818" stroke-linecap="butt"/><path d="M221.02433,150.10312c0,0 3.00193,-0.60728 5.03682,-0.5057c1.61207,0.08048 6.2022,1.06677 6.2022,1.06677" fill="#181818" stroke-linecap="round"/><path d="M210.46116,149.50474c0.64558,-2.76047 3.40672,-4.47496 6.1672,-3.82937c2.76047,0.64558 4.47496,3.40672 3.82937,6.1672c-0.64558,2.76047 -3.40672,4.47496 -6.1672,3.82937c-2.76047,-0.64558 -4.47496,-3.40672 -3.82937,-6.1672z" fill="#181818" stroke-linecap="butt"/><path d="M230.57327,163.60563c0,-9.17193 7.43532,-16.60724 16.60724,-16.60724c9.17193,0 16.60724,7.43532 16.60724,16.60724c0,9.17193 -7.43532,16.60724 -16.60724,16.60724c-9.17193,0 -16.60724,-7.43532 -16.60724,-16.60724z" fill="#181818" stroke-linecap="butt"/><path d="M246.00423,167.23863v-5.24474h19.39678v5.24474z" fill="#ff0000" stroke-linecap="butt"/><g><path d="M232.46077,156.52484v-12.06291h29.6328v12.06291z" fill="#343434" stroke-linecap="butt"/><path d="M272.84531,156.52484h-51.13626" fill="none" stroke-linecap="round"/></g><path d="M227.92894,216.71253c-3.86971,3.08235 -6.6163,1.87106 -8.65964,-0.69426c-2.04336,-2.56532 -0.5628,-7.14366 3.30693,-10.22603c3.86971,-3.08235 7.53445,-4.91859 9.5778,-2.35327c0.78918,0.99077 2.16392,8.18451 -4.22507,13.27355z" data-paper-data="{&quot;index&quot;:null}" fill="#181818" stroke-linecap="butt"/></g></g></svg>