<svg version="1.1" xmlns="http://www.w3.org/2000/svg" xmlns:xlink="http://www.w3.org/1999/xlink" width="102.06296" height="109.63469" viewBox="0,0,102.06296,109.63469"><g transform="translate(-214.78121,-101.86727)"><g data-paper-data="{&quot;isPaintingLayer&quot;:true}" fill-rule="nonzero" stroke="#000000" stroke-width="2" stroke-linejoin="miter" stroke-miterlimit="10" stroke-dasharray="" stroke-dashoffset="0" style="mix-blend-mode: normal"><path d="M232.16995,195.22641l-3.0591,-25.38139l7.79429,-0.93942l3.0591,25.38139z" data-paper-data="{&quot;index&quot;:null}" fill="#ff6b00" stroke-linecap="butt"/><path d="M231.15151,148.26172c4.8075,-7.81103 15.03684,-10.24588 22.84787,-5.43837c7.81103,4.8075 10.24587,15.03685 5.43837,22.84787c-4.8075,7.81103 -15.03684,10.24588 -22.84787,5.43837c-7.81103,-4.8075 -10.24587,-15.03685 -5.43837,-22.84787z" fill="#ff6b00" stroke-linecap="butt"/><path d="M225.37764,137.60281c0,0 3.05107,0.26719 4.97399,0.94055c1.52339,0.53346 5.64667,2.77855 5.64667,2.77855" fill="none" stroke-linecap="round"/><path d="M215.78121,134.11839c1.40046,-2.46489 4.53397,-3.32777 6.99887,-1.9273c2.46489,1.40046 3.32776,4.53396 1.92728,6.99885c-1.40046,2.46489 -4.53397,3.32778 -6.99885,1.9273c-2.46489,-1.40046 -3.32777,-4.53396 -1.9273,-6.99885z" fill="#ff6b00" stroke-linecap="butt"/><path d="M263.50095,186.76115c4.41302,-2.23624 6.85796,-0.49462 8.34042,2.43088c1.48244,2.92549 -0.89325,7.1099 -5.30629,9.34615c-4.41302,2.23624 -8.37335,3.29355 -9.85579,0.36806c-0.57254,-1.12987 -0.46434,-8.45299 6.82166,-12.14508z" data-paper-data="{&quot;index&quot;:null}" fill="#ff6b00" stroke-linecap="butt"/><path d="M225.50854,148.72894l9.98684,-8.15956l-11.46381,-32.17926l47.32857,2.45992l-13.96666,30.59139l9.14702,9.05095z" data-paper-data="{&quot;index&quot;:null}" fill="#ffa340" stroke-linecap="butt"/><path d="M225.92561,187.24427c4.11347,0 7.4481,3.70175 7.4481,8.26808c0,4.56633 -3.33463,8.26808 -7.4481,8.26808c-4.11347,0 -7.4481,-3.70175 -7.4481,-8.26808c0,-4.56633 3.33463,-8.26808 7.4481,-8.26808z" data-paper-data="{&quot;index&quot;:null}" fill="#ff6b00" stroke-linecap="butt"/><path d="M236.53039,102.99293c2.49709,0.29626 67.6776,18.64294 77.21479,46.89832c8.07892,23.93498 -9.67883,51.41194 -10.95788,52.62911c-2.78897,2.65405 -2.20762,3.35577 -6.81998,2.80856c-4.61235,-0.54721 -4.78556,-4.2671 -4.33847,-8.294c0.44709,-4.0269 12.72294,-21.7151 8.11415,-42.46461c-6.59445,-29.68925 -65.92753,-51.89946 -63.21261,-51.57737z" data-paper-data="{&quot;index&quot;:null}" fill="#ff6b00" stroke-linecap="butt"/><path d="M226.54666,107.99293c2.49708,0.29626 67.6776,18.64294 77.21479,46.89833c8.07891,23.93499 -9.67883,51.41194 -10.95788,52.62911c-2.78897,2.65405 -2.20763,3.35577 -6.81998,2.80856c-4.61235,-0.54721 -4.78556,-4.2671 -4.33847,-8.294c0.44709,-4.0269 12.72294,-21.7151 8.11415,-42.46462c-6.59445,-29.68925 -65.92752,-51.89946 -63.21261,-51.57737z" data-paper-data="{&quot;index&quot;:null}" fill="#ff6b00" stroke-linecap="butt"/></g></g></svg>