<svg version="1.1" xmlns="http://www.w3.org/2000/svg" xmlns:xlink="http://www.w3.org/1999/xlink" width="13.69869" height="14.37588" viewBox="0,0,13.69869,14.37588"><defs><linearGradient x1="241.58174" y1="177.73846" x2="241.58174" y2="189.43975" gradientUnits="userSpaceOnUse" id="color-1"><stop offset="0" stop-color="#ff0000"/><stop offset="1" stop-color="#ff7070"/></linearGradient><linearGradient x1="237.69098" y1="177.96134" x2="237.69098" y2="189.66262" gradientUnits="userSpaceOnUse" id="color-2"><stop offset="0" stop-color="#ff0000"/><stop offset="1" stop-color="#ff7070"/></linearGradient><linearGradient x1="239.53962" y1="175.73252" x2="239.53962" y2="190.1084" gradientUnits="userSpaceOnUse" id="color-3"><stop offset="0" stop-color="#ff0000"/><stop offset="1" stop-color="#ff7070"/></linearGradient></defs><g transform="translate(-232.78703,-175.73252)"><g data-paper-data="{&quot;isPaintingLayer&quot;:true}" fill-rule="nonzero" stroke="none" stroke-width="0" stroke-linecap="butt" stroke-linejoin="miter" stroke-miterlimit="10" stroke-dasharray="" stroke-dashoffset="0" style="mix-blend-mode: normal"><path d="M246.48572,183.5891c0,3.23123 -2.19559,5.85065 -4.90397,5.85065c-2.70839,0 -4.90397,-2.61942 -4.90397,-5.85065c0,-3.23123 2.19559,-5.85065 4.90397,-5.85065c2.70839,0 4.90397,2.61942 4.90397,5.85065z" fill="url(#color-1)"/><path d="M242.59497,183.81199c0,3.23123 -2.19559,5.85065 -4.90397,5.85065c-2.70839,0 -4.90397,-2.61942 -4.90397,-5.85065c0,-3.23123 2.19559,-5.85065 4.90397,-5.85065c2.70839,0 4.90397,2.61942 4.90397,5.85065z" fill="url(#color-2)"/><path d="M239.53962,175.73252c2.70839,0 4.90397,3.21815 4.90397,7.18794c0,3.96979 -2.19559,7.18794 -4.90397,7.18794c-2.70839,0 -4.90397,-3.21815 -4.90397,-7.18794c0,-3.96979 2.19559,-7.18794 4.90397,-7.18794z" data-paper-data="{&quot;origPos&quot;:null}" fill="url(#color-3)"/></g></g></svg>