<svg version="1.1" xmlns="http://www.w3.org/2000/svg" xmlns:xlink="http://www.w3.org/1999/xlink" width="407.75327" height="255.97443" viewBox="0,0,407.75327,255.97443"><defs><linearGradient x1="240.00001" y1="34.04723" x2="240.00001" y2="290.02166" gradientUnits="userSpaceOnUse" id="color-1"><stop offset="0" stop-color="#ad4444"/><stop offset="1" stop-color="#3d1c17"/></linearGradient></defs><g transform="translate(-36.12338,-34.04723)"><g data-paper-data="{&quot;isPaintingLayer&quot;:true}" fill-rule="nonzero" stroke-linejoin="miter" stroke-miterlimit="10" stroke-dasharray="" stroke-dashoffset="0" style="mix-blend-mode: normal"><path d="M36.12338,244.04292c0,-31.96494 0,-125.87855 0,-176.59538c0,-23.72401 22.91078,-33.40031 51.63671,-33.40031c84.73311,0 248.81018,0 298.12587,0c29.76702,0 57.99069,7.11843 57.99069,31.70227c0,47.07217 0,133.43452 0,166.40719c0,30.33656 -13.0339,57.86497 -49.76653,57.86497c-84.88203,0 -253.2586,0 -302.49488,0c-26.48331,0 -55.49185,-1.35259 -55.49185,-45.97875z" fill="url(#color-1)" stroke="none" stroke-width="0" stroke-linecap="butt"/><g stroke="#000000" stroke-width="2"><g><path d="M323.92349,217.2987c-11.69571,0 -21.17697,-9.48125 -21.17697,-21.17696c0,-11.69571 9.48125,-21.17696 21.17697,-21.17696c11.69571,0 21.17696,9.48125 21.17696,21.17696c0,11.69571 -9.48125,21.17696 -21.17696,21.17696z" data-paper-data="{&quot;index&quot;:null}" fill="#e80000" stroke-linecap="butt"/><path d="M282.78567,241.33516l22.60138,-23.49293l7.21437,6.94057l-22.60138,23.49293z" data-paper-data="{&quot;index&quot;:null}" fill="#e80000" stroke-linecap="butt"/><path d="M328.65628,239.75158c-2.69356,0 -4.87712,-2.18357 -4.87712,-4.87713c0,-2.69356 2.18356,-4.87712 4.87712,-4.87712c2.69356,0 4.87713,2.18356 4.87713,4.87712c0,2.69356 -2.18357,4.87713 -4.87713,4.87713z" data-paper-data="{&quot;index&quot;:null}" fill="#e80000" stroke-linecap="butt"/><path d="M286.95619,218.06681c-2.69356,0 -4.87712,-2.18357 -4.87712,-4.87713c0,-2.69356 2.18356,-4.87712 4.87712,-4.87712c2.69356,0 4.87712,2.18356 4.87712,4.87712c0,2.69356 -2.18357,4.87713 -4.87712,4.87713z" data-paper-data="{&quot;index&quot;:null}" fill="#e80000" stroke-linecap="butt"/><path d="M305.22571,183.62337l1.77975,-6.91558l41.2465,10.61491l-1.77975,6.91558z" data-paper-data="{&quot;index&quot;:null}" fill="#ff2121" stroke-linecap="butt"/><path d="M318.0685,268.17741c0.21039,-1.60143 5.59439,-9.23251 15.92129,-7.87572c6.25484,0.82178 7.57523,4.41466 7.03046,8.56114c-0.54478,4.14648 -6.05696,6.84167 -12.31182,6.01989c-6.25485,-0.82178 -11.18471,-2.55881 -10.63993,-6.70529z" data-paper-data="{&quot;index&quot;:null}" fill="#e80000" stroke-linecap="butt"/><path d="M333.2677,187.11315c0,0 5.91207,-0.94271 7.97028,-0.9352c2.59803,0.00949 6.37908,0.98757 6.37908,0.98757" data-paper-data="{&quot;index&quot;:null}" fill="none" stroke-linecap="round"/><path d="M355.33844,194.65545c-3.55908,0.6337 -6.95797,-1.73779 -7.59167,-5.29686c-0.63369,-3.55908 1.7378,-6.95796 5.29686,-7.59166c3.55908,-0.6337 6.95797,1.73779 7.59166,5.29684c0.63371,3.55908 -1.7378,6.95796 -5.29685,7.59167z" data-paper-data="{&quot;index&quot;:null}" fill="#e80000" stroke-linecap="butt"/><path d="M276.45756,243.41361c19.74222,9.19257 37.91307,13.34172 37.00454,15.07143c-0.85144,1.62107 -22.6946,4.95617 -42.18392,-1.41655c-22.00583,-7.19559 -42.0624,-24.40153 -45.22771,-26.0641c-5.96866,-3.13501 -9.33763,-8.47438 -7.52478,-11.92581c1.81284,-3.45144 8.121,-3.70796 14.08966,-0.57297c2.97742,1.56387 24.1912,15.7579 43.8422,24.908z" data-paper-data="{&quot;index&quot;:null}" fill="#e80000" stroke-linecap="butt"/></g><g><path d="M188.16151,244.01161l-12.48362,-30.11476l9.24785,-3.83355l12.48362,30.11476z" fill="#2d6a2b" stroke-linecap="butt"/><path d="M212.50947,217.05143c-1.17147,-2.42547 -0.15491,-5.34137 2.27055,-6.51286c2.42547,-1.17147 5.34137,-0.1549 6.51286,2.27056c1.17147,2.42547 0.15491,5.34137 -2.27056,6.51285c-2.42547,1.17147 -5.34137,0.15491 -6.51285,-2.27056z" fill="#2d6a2b" stroke-linecap="butt"/><path d="M213.15711,205.26482c-1.17147,-2.42547 -0.15491,-5.34137 2.27056,-6.51286c2.42547,-1.17147 5.34137,-0.15491 6.51286,2.27056c1.17147,2.42547 0.15491,5.34137 -2.27056,6.51285c-2.42547,1.17147 -5.34137,0.15491 -6.51285,-2.27055z" fill="#2d6a2b" stroke-linecap="butt"/><path d="M185.71062,260.03904c0,4.18211 -5.11414,5.26216 -11.42273,5.26216c-6.30859,0 -11.42273,-3.39027 -11.42273,-7.57237c0,-4.1821 1.77716,-7.57237 8.08576,-7.57237c10.41565,0 14.75971,8.26739 14.75971,9.88259z" data-paper-data="{&quot;index&quot;:null}" fill="#2d6a2b" stroke-linecap="butt"/><path d="M215.80527,248.2021c6.23642,-0.95157 8.50461,2.13187 9.13543,6.26612c0.63081,4.13426 -3.91344,8.25714 -10.14987,9.20869c-6.23642,0.95156 -11.45496,0.65526 -12.08576,-3.47899c-0.24362,-1.59672 2.80372,-10.42476 13.1002,-11.9958z" data-paper-data="{&quot;index&quot;:null}" fill="#2d6a2b" stroke-linecap="butt"/><g><path d="M159.45924,162.6261c0,0 3.90133,-0.18027 6.44588,0.3443c2.01582,0.41559 7.60803,2.553 7.60803,2.553" fill="none" stroke-linecap="round"/><path d="M146.73966,159.85151c1.35151,-3.3529 5.16518,-4.97536 8.51809,-3.62386c3.3529,1.35151 4.97536,5.16519 3.62385,8.51809c-1.35151,3.3529 -5.16517,4.97536 -8.51808,3.62385c-3.3529,-1.35151 -4.97536,-5.16517 -3.62386,-8.51808z" fill="#2d6a2b" stroke-linecap="butt"/></g><path d="M153.18082,183.39079c2.25727,-11.47582 13.39016,-18.94893 24.86597,-16.69166c11.47582,2.25727 18.94893,13.39016 16.69165,24.86596c-2.25727,11.47582 -13.39016,18.94892 -24.86597,16.69165c-11.47582,-2.25727 -18.94892,-13.39015 -16.69165,-24.86597z" fill="#2d6a2b" stroke-linecap="butt"/><path d="M168.88082,162.59063c19.93741,-3.29677 30.63406,10.01148 30.63406,10.01148l-51.09056,11.03031c0,0 -0.97947,-17.49722 20.4565,-21.0418z" fill="#367e33" stroke-linecap="round"/></g><g><path d="M184.74432,96.07753c2.16885,-1.59728 5.22193,-1.13394 6.81922,1.03493c1.59728,2.16885 1.13394,5.22192 -1.03493,6.81921c-2.16885,1.59728 -5.22192,1.13394 -6.81921,-1.03492c-1.59728,-2.16885 -1.13395,-5.22193 1.03492,-6.81921z" fill="#1d28e8" stroke-linecap="butt"/><path d="M196.52558,82.41027c9.41741,-6.93558 22.67412,-4.92366 29.60969,4.49372c6.93558,9.41741 4.92367,22.67412 -4.49372,29.6097c-9.41741,6.93558 -22.67411,4.92367 -29.60969,-4.49372c-6.93558,-9.41741 -4.92367,-22.67411 4.49372,-29.60969z" fill="#1d28e8" stroke-linecap="butt"/><path d="M158.56496,129.17559l26.24931,-19.33169l5.9365,8.06081l-26.2493,19.33169z" fill="#1d28e8" stroke-linecap="butt"/><path d="M150.69697,95.79961c2.16885,-1.59728 5.22193,-1.13394 6.81921,1.03492c1.59728,2.16885 1.13395,5.22192 -1.03492,6.81921c-2.16885,1.59728 -5.22193,1.13394 -6.81921,-1.03492c-1.59728,-2.16885 -1.13394,-5.22192 1.03492,-6.81921z" fill="#1d28e8" stroke-linecap="butt"/><path d="M185.62676,75.37598c0,0 3.79506,0.9222 6.09,2.14002c1.81809,0.96478 6.58536,4.58616 6.58536,4.58616" fill="none" stroke-linecap="round"/><path d="M174.19763,69.14217c2.23843,-2.83866 6.35421,-3.32526 9.19287,-1.08684c2.83865,2.23843 3.32527,6.35421 1.08684,9.19286c-2.23843,2.83866 -6.35422,3.32526 -9.19287,1.08684c-2.83865,-2.23843 -3.32526,-6.35421 -1.08684,-9.19286z" fill="#1d28e8" stroke-linecap="butt"/><path d="M124.33541,130.01609c-5.69995,-2.7035 -5.85278,-6.52827 -4.06056,-10.3069c1.79222,-3.77862 7.86582,-4.65019 13.56577,-1.94667c5.69995,2.7035 9.85784,5.87098 8.06562,9.64961c-0.69218,1.45936 -8.16007,7.06751 -17.57083,2.60395z" data-paper-data="{&quot;index&quot;:null}" fill="#1d28e8" stroke-linecap="butt"/><path d="M197.20201,81.5975l12.42735,-26.62769l46.1271,24.74772l-26.48977,24.89241l21.50142,15.55202z" fill="#2530ff" stroke-linecap="round"/><path d="M136.04999,151.68229c-6.26883,0.70711 -8.41479,-2.46258 -8.88356,-6.61833c-0.46877,-4.15575 4.23311,-8.0979 10.50198,-8.80501c6.26883,-0.70711 11.47181,-0.2071 11.94058,3.94865c0.18105,1.60503 -3.20898,10.30723 -13.559,11.47469z" data-paper-data="{&quot;index&quot;:null}" fill="#1d28e8" stroke-linecap="butt"/></g><g><path d="M286.11897,131.43786c-2.69356,0 -4.87712,-2.18357 -4.87712,-4.87713c0,-2.69356 2.18356,-4.87712 4.87712,-4.87712c2.69356,0 4.87713,2.18356 4.87713,4.87712c0,2.69356 -2.18357,4.87713 -4.87713,4.87713z" data-paper-data="{&quot;index&quot;:null}" fill="#ffe819" stroke-linecap="butt"/><path d="M304.78815,145.78119l-4.67985,-32.26204l9.90725,-1.43713l4.67986,32.26205z" data-paper-data="{&quot;index&quot;:null}" fill="#ffe819" stroke-linecap="butt"/><path d="M328.76257,129.6457c-2.69356,0 -4.87712,-2.18357 -4.87712,-4.87712c0,-2.69356 2.18356,-4.87712 4.87712,-4.87712c2.69356,0 4.87712,2.18357 4.87712,4.87712c0,2.69356 -2.18357,4.87712 -4.87712,4.87712z" data-paper-data="{&quot;index&quot;:null}" fill="#ffe819" stroke-linecap="butt"/><path d="M278.38852,146.81601c7.45288,7.276 4.78595,16.2263 3.65763,17.38206c-2.92148,2.99249 -7.33536,0.19277 -11.84945,-4.2142c-4.51411,-4.40697 -5.80519,-10.40542 -2.88371,-13.39792c2.92148,-2.99249 6.56144,-4.17693 11.07554,0.23004z" data-paper-data="{&quot;index&quot;:null}" fill="#ffe819" stroke-linecap="butt"/><path d="M314.69428,145.61399c4.15193,0 7.51771,3.58452 7.51771,10.26809c0,6.68357 -3.3658,12.10167 -7.51771,12.10167c-4.15193,0 -7.5177,-5.4181 -7.5177,-12.10167c0,-6.68357 3.36579,-10.26809 7.5177,-10.26809z" data-paper-data="{&quot;index&quot;:null}" fill="#ffe819" stroke-linecap="butt"/><path d="M290.97298,115.07818c-11.69571,0 -21.17697,-9.48125 -21.17697,-21.17696c0,-11.69571 9.48125,-21.17696 21.17697,-21.17696c11.69571,0 21.17696,9.48125 21.17696,21.17696c0,11.69571 -9.48125,21.17696 -21.17696,21.17696z" data-paper-data="{&quot;index&quot;:null}" fill="#ffe819" stroke-linecap="butt"/><path d="M319.70149,71.03374c0,0 5.76913,-1.59954 7.81519,-1.82282c2.58272,-0.28184 6.44957,0.26622 6.44957,0.26622" data-paper-data="{&quot;index&quot;:null}" fill="none" stroke-linecap="round"/><path d="M342.47866,76.05423c-3.46559,1.02869 -7.10892,-0.94681 -8.13761,-4.4124c-1.02869,-3.46559 0.94681,-7.10892 4.4124,-8.13761c3.46559,-1.02869 7.10892,0.94681 8.13761,4.4124c1.02869,3.46559 -0.94681,7.10892 -4.4124,8.13761z" data-paper-data="{&quot;index&quot;:null}" fill="#ffe819" stroke-linecap="butt"/><path d="M271.79384,75.08634c0,0 10.28623,-13.23735 23.79646,-12.35163c13.51023,0.88572 31.18465,4.19714 31.18465,4.19714l-15.09321,13.75137l6.24336,13.15796z" data-paper-data="{&quot;index&quot;:null}" fill="#fff067" stroke-linecap="butt"/></g></g></g></g></svg>