<svg version="1.1" xmlns="http://www.w3.org/2000/svg" xmlns:xlink="http://www.w3.org/1999/xlink" width="70.9432" height="76.14489" viewBox="0,0,70.9432,76.14489"><g transform="translate(-206.02688,-153.1703)"><g data-paper-data="{&quot;isPaintingLayer&quot;:true}" fill-rule="nonzero" stroke="#000000" stroke-width="2" stroke-linejoin="miter" stroke-miterlimit="10" stroke-dasharray="" stroke-dashoffset="0" style="mix-blend-mode: normal"><path d="M261.42082,180.53979c0,-2.11232 1.71238,-3.8247 3.8247,-3.8247c2.11232,0 3.8247,1.71238 3.8247,3.8247c0,2.11232 -1.71238,3.8247 -3.8247,3.8247c-2.11232,0 -3.8247,-1.71238 -3.8247,-3.8247z" fill="#181818" stroke-linecap="butt"/><path d="M222.98429,204.31114l5.82731,-24.89209l7.64403,1.78949l-5.82731,24.89209z" fill="#181818" stroke-linecap="butt"/><path d="M234.80984,208.88653c2.69025,4.15188 1.21687,6.76724 -1.5355,8.55067c-2.75237,1.78343 -7.16449,-0.13658 -9.85475,-4.28847c-2.69025,-4.15188 -4.16033,-7.97823 -1.40796,-9.76166c1.06301,-0.68879 8.35653,-1.3554 12.79821,5.49946z" data-paper-data="{&quot;index&quot;:null}" fill="#181818" stroke-linecap="butt"/><path d="M227.10147,177.33846l13.97453,3.58161l-4.61127,3.26237l3.04875,5.0556l-16.87203,-2.70925l5.3649,-4.01634z" fill="#0e0e0e" stroke-linecap="round"/><path d="M207.02689,187.61733c0,-2.11232 1.71238,-3.8247 3.8247,-3.8247c2.11232,0 3.8247,1.71238 3.8247,3.8247c0,2.11232 -1.71238,3.8247 -3.8247,3.8247c-2.11232,0 -3.8247,-1.71238 -3.8247,-3.8247z" fill="#181818" stroke-linecap="butt"/><path d="M259.80172,213.69897c3.20627,-3.76767 6.13427,-3.10598 8.63194,-0.98046c2.49767,2.12551 1.92323,6.90288 -1.28304,10.67056c-3.20627,3.76767 -6.45051,6.27306 -8.94819,4.14756c-0.96465,-0.8209 -3.69435,-7.61712 1.59929,-13.83765z" data-paper-data="{&quot;index&quot;:null}" fill="#181818" stroke-linecap="butt"/><path d="M220.09192,158.73406c0,0 3.00193,-0.60728 5.03682,-0.5057c1.61207,0.08048 6.2022,1.06677 6.2022,1.06677" fill="#181818" stroke-linecap="round"/><path d="M209.52875,158.13568c0.64558,-2.76047 3.40672,-4.47496 6.1672,-3.82937c2.76047,0.64558 4.47496,3.40672 3.82937,6.1672c-0.64558,2.76047 -3.40672,4.47496 -6.1672,3.82937c-2.76047,-0.64558 -4.47496,-3.40672 -3.82937,-6.1672z" fill="#181818" stroke-linecap="butt"/><path d="M229.64086,172.23657c0,-9.17193 7.43532,-16.60724 16.60724,-16.60724c9.17193,0 16.60724,7.43532 16.60724,16.60724c0,9.17193 -7.43532,16.60724 -16.60724,16.60724c-9.17193,0 -16.60724,-7.43532 -16.60724,-16.60724z" fill="#181818" stroke-linecap="butt"/><path d="M243.252,186.3528v-5.24474c0,0 5.4916,0.6022 8.4033,0.6022c3.15109,0 9.84188,-0.6022 9.84188,-0.6022v5.24474c0,0 -6.58125,1.50551 -9.84188,1.50551c-2.72412,0 -8.4033,-1.50551 -8.4033,-1.50551z" fill="#ff0000" stroke-linecap="butt"/><g><g><path d="M228.02335,174.25719l2.31817,-15.2288c0,0 11.30268,4.14976 16.99775,5.01668c5.98033,0.91034 18.07028,0.32147 18.07028,0.32147l-2.31817,15.2288c0,0 -12.15025,-0.11438 -17.96702,-0.99982c-5.87205,-0.89386 -17.10101,-4.33833 -17.10101,-4.33833z" fill="#343434" stroke-linecap="butt"/><path d="M275.97009,180.51467c0,0 -19.87514,0.09785 -29.87524,-1.42439c-10.16895,-1.54794 -30.6404,-7.78747 -30.6404,-7.78747" fill="none" stroke-linecap="round"/></g><path d="M265.98663,162.91845c-0.35643,2.34151 -8.57743,3.03224 -18.36212,1.54279c-9.78469,-1.48945 -17.42779,-4.59506 -17.07136,-6.93657c0.35643,-2.34151 8.57743,-3.03224 18.36211,-1.54279c9.78469,1.48945 17.4278,4.59506 17.07137,6.93657z" fill="#252525" stroke-linecap="butt"/></g></g></g></svg>