<svg version="1.1" xmlns="http://www.w3.org/2000/svg" xmlns:xlink="http://www.w3.org/1999/xlink" width="80.74546" height="94.25437" viewBox="0,0,80.74546,94.25437"><g transform="translate(-193.05486,-120.28307)"><g data-paper-data="{&quot;isPaintingLayer&quot;:true}" fill-rule="nonzero" stroke="#000000" stroke-width="2" stroke-linejoin="miter" stroke-miterlimit="10" stroke-dasharray="" stroke-dashoffset="0" style="mix-blend-mode: normal"><path d="M226.08027,190.50954c-7.53055,5.23595 -17.87984,3.37576 -23.11577,-4.15478c-5.23595,-7.53055 -3.37578,-17.87984 4.15478,-23.11577c7.53055,-5.23595 17.87984,-3.37576 23.11577,4.15478c5.23595,7.53055 3.37578,17.87984 -4.15477,23.11577z" fill="#2d6a2b" stroke-linecap="butt"/><path d="M205.88917,193.66883c-13.03328,-9.01533 -11.8033,-22.34851 -11.8033,-22.34851l34.80661,21.64707c0,0 -8.99041,10.39438 -23.00331,0.70144z" fill="#367e33" stroke-linecap="round"/><path d="M260.06425,155.14266l-19.38346,16.66899l-5.11884,-5.9524l19.38346,-16.66899z" fill="#2d6a2b" stroke-linecap="butt"/><path d="M257.22315,177.38752c-1.68634,1.27208 -4.08461,0.93624 -5.35668,-0.75011c-1.27208,-1.68634 -0.93624,-4.08461 0.75009,-5.35668c1.68634,-1.27208 4.08461,-0.93624 5.35668,0.75011c1.27208,1.68634 0.93624,4.08461 -0.75009,5.35668z" fill="#2d6a2b" stroke-linecap="butt"/><path d="M226.18459,156.15736c-2.09192,-0.29293 -3.55028,-2.22623 -3.25735,-4.31814c0.29293,-2.0919 2.22623,-3.55028 4.31814,-3.25735c2.09192,0.29293 3.55028,2.22623 3.25734,4.31815c-0.29293,2.0919 -2.22623,3.55028 -4.31813,3.25734z" fill="#2d6a2b" stroke-linecap="butt"/><path d="M222.02339,205.33138c0,0 -2.63649,-1.5586 -4.08007,-2.99639c-1.14362,-1.13902 -3.89303,-4.94465 -3.89303,-4.94465" fill="none" stroke-linecap="round"/><path d="M229.17399,212.61839c-2.32763,1.61838 -5.52649,1.04342 -7.14488,-1.2842c-1.61838,-2.32763 -1.04343,-5.5265 1.2842,-7.14488c2.32763,-1.61838 5.5265,-1.04343 7.14488,1.2842c1.61838,2.32763 1.04343,5.5265 -1.2842,7.14488z" fill="#2d6a2b" stroke-linecap="butt"/><path d="M262.78311,128.02941c3.41904,-3.57572 6.3038,-2.74561 8.67423,-0.47904c2.37043,2.26655 1.52034,7.00265 -1.89871,10.57838c-3.41904,3.57572 -6.80289,5.88905 -9.17331,3.6225c-0.91549,-0.87538 -3.24713,-7.81823 2.3978,-13.72183z" data-paper-data="{&quot;index&quot;:null}" fill="#2d6a2b" stroke-linecap="butt"/><path d="M242.95699,126.49736c0.99505,-4.84618 3.8797,-5.67663 7.09234,-5.01698c3.21264,0.65963 5.01036,5.12298 4.0153,9.96917c-0.99505,4.84618 -2.63137,8.60443 -5.84401,7.9448c-1.24077,-0.25475 -6.90649,-4.89582 -5.26365,-12.89698z" data-paper-data="{&quot;index&quot;:null}" fill="#2d6a2b" stroke-linecap="butt"/></g></g></svg>