<svg version="1.1" xmlns="http://www.w3.org/2000/svg" xmlns:xlink="http://www.w3.org/1999/xlink" width="76.63871" height="79.04586" viewBox="0,0,76.63871,79.04586"><g transform="translate(-204.99616,-145.76589)"><g data-paper-data="{&quot;isPaintingLayer&quot;:true}" fill-rule="nonzero" stroke="#000000" stroke-width="2" stroke-linejoin="miter" stroke-miterlimit="10" stroke-dasharray="" stroke-dashoffset="0" style="mix-blend-mode: normal"><path d="M265.2611,173.27915c0,-2.11232 1.71238,-3.8247 3.8247,-3.8247c2.11232,0 3.8247,1.71238 3.8247,3.8247c0,2.11232 -1.71238,3.8247 -3.8247,3.8247c-2.11232,0 -3.8247,-1.71238 -3.8247,-3.8247z" fill="#e80000" stroke-linecap="butt"/><path d="M222.6034,179.98037c-9.17192,0 -16.60724,-7.43531 -16.60724,-16.60724c0,-9.17192 7.43531,-16.60724 16.60724,-16.60724c9.17192,0 16.60724,7.43531 16.60724,16.60724c0,9.17192 -7.43531,16.60724 -16.60724,16.60724z" data-paper-data="{&quot;index&quot;:null}" fill="#e80000" stroke-linecap="butt"/><path d="M239.32081,207.13734l-9.58362,-23.70081l7.2782,-2.943l9.58362,23.70081z" data-paper-data="{&quot;index&quot;:null}" fill="#e80000" stroke-linecap="butt"/><path d="M272.98546,174.11318c0,-2.11232 1.71238,-3.8247 3.8247,-3.8247c2.11232,0 3.8247,1.71238 3.8247,3.8247c0,2.11232 -1.71238,3.8247 -3.8247,3.8247c-2.11232,0 -3.8247,-1.71238 -3.8247,-3.8247z" fill="#e80000" stroke-linecap="butt"/><path d="M207.94037,153.57176l1.3957,-5.42328l32.34602,8.32434l-1.3957,5.42329z" data-paper-data="{&quot;index&quot;:null}" fill="#ff2121" stroke-linecap="butt"/><path d="M235.33971,157.26445c0,0 4.32265,1.83215 5.68789,2.69317c1.72332,1.08686 3.83029,3.3097 3.83029,3.3097" data-paper-data="{&quot;index&quot;:null}" fill="none" stroke-linecap="round"/><path d="M246.87621,171.45833c-2.62976,-1.05895 -3.90314,-4.04924 -2.84419,-6.679c1.05895,-2.62976 4.04924,-3.90314 6.679,-2.84419c2.62976,1.05895 3.90314,4.04924 2.84419,6.679c-1.05895,2.62976 -4.04924,3.90314 -6.679,2.84419z" data-paper-data="{&quot;index&quot;:null}" fill="#e80000" stroke-linecap="butt"/><path d="M227.62628,221.27478c-1.12292,3.08143 -5.18108,2.50405 -9.82934,0.81016c-4.64827,-1.6939 -7.50612,-5.56506 -6.3832,-8.64649c1.12292,-3.08143 3.34266,-5.10225 7.99092,-3.40836c7.67439,2.79666 8.65531,10.05459 8.22162,11.24469z" data-paper-data="{&quot;index&quot;:null}" fill="#e80000" stroke-linecap="butt"/><path d="M268.00832,212.74025c4.11347,0 7.4481,2.47844 7.4481,5.53575c0,3.05731 -3.33463,5.53575 -7.4481,5.53575c-4.11347,0 -7.4481,-2.47844 -7.4481,-5.53575c0,-3.05731 3.33463,-5.53575 7.4481,-5.53575z" data-paper-data="{&quot;index&quot;:null}" fill="#e80000" stroke-linecap="butt"/></g></g></svg>