<svg version="1.1" xmlns="http://www.w3.org/2000/svg" xmlns:xlink="http://www.w3.org/1999/xlink" width="15.51688" height="11.5577" viewBox="0,0,15.51688,11.5577"><defs><linearGradient x1="241.83994" y1="180.16341" x2="241.83994" y2="189.57084" gradientUnits="userSpaceOnUse" id="color-1"><stop offset="0" stop-color="#5a6593"/><stop offset="1" stop-color="#686868"/></linearGradient><linearGradient x1="237.43278" y1="180.3426" x2="237.43278" y2="189.75002" gradientUnits="userSpaceOnUse" id="color-2"><stop offset="0" stop-color="#5a6593"/><stop offset="1" stop-color="#686868"/></linearGradient><linearGradient x1="239.52678" y1="178.55071" x2="239.52678" y2="190.10841" gradientUnits="userSpaceOnUse" id="color-3"><stop offset="0" stop-color="#5a6593"/><stop offset="1" stop-color="#686868"/></linearGradient></defs><g transform="translate(-231.87793,-178.5507)"><g data-paper-data="{&quot;isPaintingLayer&quot;:true}" fill-rule="nonzero" stroke="none" stroke-width="0" stroke-linecap="butt" stroke-linejoin="miter" stroke-miterlimit="10" stroke-dasharray="" stroke-dashoffset="0" style="mix-blend-mode: normal"><path d="M247.39481,184.86712c0,2.59779 -2.487,4.70371 -5.55486,4.70371c-3.06787,0 -5.55486,-2.10592 -5.55486,-4.70371c0,-2.59779 2.487,-4.70371 5.55486,-4.70371c3.06787,0 5.55486,2.10592 5.55486,4.70371z" fill="url(#color-1)"/><path d="M242.98765,185.04631c0,2.59779 -2.487,4.70371 -5.55486,4.70371c-3.06787,0 -5.55486,-2.10592 -5.55486,-4.70371c0,-2.59779 2.487,-4.70371 5.55486,-4.70371c3.06787,0 5.55486,2.10592 5.55486,4.70371z" fill="url(#color-2)"/><path d="M239.52678,178.55071c3.06787,0 5.55486,2.58728 5.55486,5.77885c0,3.19157 -2.487,5.77885 -5.55486,5.77885c-3.06787,0 -5.55486,-2.58728 -5.55486,-5.77885c0,-3.19157 2.487,-5.77885 5.55486,-5.77885z" data-paper-data="{&quot;origPos&quot;:null}" fill="url(#color-3)"/></g></g></svg>