<svg version="1.1" xmlns="http://www.w3.org/2000/svg" xmlns:xlink="http://www.w3.org/1999/xlink" width="90.60626" height="87.74137" viewBox="0,0,90.60626,87.74137"><g transform="translate(-212.51497,-112.4725)"><g data-paper-data="{&quot;isPaintingLayer&quot;:true}" fill-rule="nonzero" stroke="#000000" stroke-width="2" stroke-linejoin="miter" stroke-miterlimit="10" stroke-dasharray="" stroke-dashoffset="0" style="mix-blend-mode: normal"><path d="M232.22299,190.44668c2.13095,4.46482 0.33184,6.86776 -2.62799,8.28042c-2.95983,1.41265 -7.08672,-1.0616 -9.21768,-5.52644c-2.13095,-4.46482 -3.09404,-8.4491 -0.13421,-9.86177c1.14314,-0.54559 8.46162,-0.26374 11.97987,7.10779z" data-paper-data="{&quot;index&quot;:null}" fill="#1d28e8" stroke-linecap="butt"/><path d="M243.73829,168.69102c0.67492,-2.0016 2.84467,-3.07709 4.84626,-2.40217c2.0016,0.67492 3.07709,2.84467 2.40217,4.84626c-0.67492,2.0016 -2.84467,3.07709 -4.84626,2.40217c-2.0016,-0.67492 -3.07709,-2.84467 -2.40217,-4.84626z" fill="#1d28e8" stroke-linecap="butt"/><path d="M233.82639,141.99941c2.93056,-8.69115 12.35182,-13.36102 21.04296,-10.43047c8.69115,2.93056 13.36102,12.35182 10.43047,21.04296c-2.93056,8.69115 -12.35182,13.36102 -21.04296,10.43047c-8.69115,-2.93056 -13.36102,-12.35182 -10.43047,-21.04296z" fill="#1d28e8" stroke-linecap="butt"/><path d="M224.29971,186.15803l7.27393,-24.50844l7.52621,2.23373l-7.27393,24.50844z" data-paper-data="{&quot;index&quot;:null}" fill="#1d28e8" stroke-linecap="butt"/><path d="M213.84198,173.32863c0.67492,-2.0016 2.84467,-3.07709 4.84626,-2.40217c2.0016,0.67492 3.07709,2.84467 2.40217,4.84626c-0.67492,2.0016 -2.84467,3.07709 -4.84626,2.40217c-2.0016,-0.67492 -3.07709,-2.84467 -2.40217,-4.84626z" fill="#1d28e8" stroke-linecap="butt"/><path d="M223.66102,142.38233c0,0 2.85279,-1.11443 4.87483,-1.36426c1.6019,-0.19792 6.29325,-0.01561 6.29325,-0.01561" fill="none" stroke-linecap="round"/><path d="M213.51497,143.518c0.16129,-2.83037 2.58649,-4.99409 5.41686,-4.8328c2.83037,0.16129 4.99409,2.58649 4.8328,5.41686c-0.16129,2.83037 -2.58649,4.99409 -5.41686,4.8328c-2.83037,-0.16129 -4.99409,-2.58649 -4.8328,-5.41686z" fill="#1d28e8" stroke-linecap="butt"/><path d="M233.89537,141.17304l-3.99256,-22.6955l40.76354,-4.8478l-5.82189,27.90548l20.80764,0.3204z" fill="#2530ff" stroke-linecap="round"/><path d="M293.80967,185.32433c4.43875,-2.18473 6.86325,-0.41477 8.31156,2.52778c1.4483,2.94255 -0.97592,7.09903 -5.4147,9.28376c-4.43875,2.18473 -8.41111,3.19587 -9.85943,0.25332c-0.55936,-1.13647 -0.36593,-8.45782 6.96257,-12.06485z" data-paper-data="{&quot;index&quot;:null}" fill="#1d28e8" stroke-linecap="butt"/></g></g></svg>