<svg version="1.1" xmlns="http://www.w3.org/2000/svg" xmlns:xlink="http://www.w3.org/1999/xlink" width="80.07447" height="72.29147" viewBox="0,0,80.07447,72.29147"><g transform="translate(-214.54641,-155.2155)"><g data-paper-data="{&quot;isPaintingLayer&quot;:true}" fill-rule="nonzero" stroke="#000000" stroke-width="2" stroke-linejoin="miter" stroke-miterlimit="10" stroke-dasharray="" stroke-dashoffset="0" style="mix-blend-mode: normal"><path d="M235.39023,196.27975c0.96571,-1.87864 3.27151,-2.61873 5.15016,-1.65303c1.87864,0.96571 2.61873,3.27151 1.65303,5.15016c-0.96571,1.87864 -3.27151,2.61873 -5.15016,1.65303c-1.87864,-0.96571 -2.61873,-3.27151 -1.65303,-5.15016z" fill="#2d6a2b" stroke-linecap="butt"/><path d="M258.71828,176.46188c0,-9.17193 7.43532,-16.60724 16.60724,-16.60724c9.17193,0 16.60724,7.43532 16.60724,16.60724c0,9.17193 -7.43532,16.60724 -16.60724,16.60724c-9.17193,0 -16.60724,-7.43532 -16.60724,-16.60724z" fill="#2d6a2b" stroke-linecap="butt"/><path d="M267.65076,158.08057c14.84222,-5.55435 25.0872,3.06696 25.0872,3.06696l-37.64308,16.22019c0,0 -3.40193,-13.31531 12.55588,-19.28715z" fill="#367e33" stroke-linecap="round"/><path d="M238.13639,214.7616c5.35152,0.25284 6.71189,2.97928 6.53035,6.25466c-0.18154,3.27537 -4.66701,5.72562 -10.01852,5.47278c-5.35152,-0.25284 -9.64292,-1.3037 -9.46137,-4.57907c0.07011,-1.265 4.11404,-7.56582 12.94954,-7.14837z" data-paper-data="{&quot;index&quot;:null}" fill="#2d6a2b" stroke-linecap="butt"/><path d="M248.86485,164.66972c0,0 2.78477,-1.27492 4.78933,-1.63939c1.58804,-0.28873 6.28217,-0.37361 6.28217,-0.37361" fill="none" stroke-linecap="round"/><path d="M238.79986,166.38077c0,-2.83496 2.29819,-5.13315 5.13315,-5.13315c2.83496,0 5.13315,2.29819 5.13315,5.13315c0,2.83496 -2.29819,5.13315 -5.13315,5.13315c-2.83496,0 -5.13315,-2.29819 -5.13315,-5.13315z" fill="#2d6a2b" stroke-linecap="butt"/><path d="M219.98443,210.90158c-4.64397,-1.70564 -5.03556,-4.68181 -3.90486,-7.7604c1.13071,-3.07859 5.81201,-4.19156 10.45597,-2.48592c4.64397,1.70564 8.11663,3.8834 6.98593,6.96198c-0.4367,1.189 -5.86974,6.10039 -13.53704,3.28433z" data-paper-data="{&quot;index&quot;:null}" fill="#2d6a2b" stroke-linecap="butt"/><path d="M233.87657,203.98637l19.13844,-16.94975l5.20504,5.87717l-19.13844,16.94974z" fill="#2d6a2b" stroke-linecap="butt"/><path d="M245.88099,200.5925c0.96571,-1.87864 3.27152,-2.61873 5.15016,-1.65303c1.87864,0.96571 2.61873,3.27151 1.65303,5.15016c-0.96571,1.87864 -3.27152,2.61873 -5.15016,1.65303c-1.87864,-0.96571 -2.61873,-3.27151 -1.65303,-5.15016z" fill="#2d6a2b" stroke-linecap="butt"/></g></g></svg>